P3
50 50
255
  37 123 148    38 124 149    36 122 147    33 119 144    35 121 146    35 121 146    32 117 142    32 116 140    37 119 143    34 116 140    32 112 135    31 110 134    32 110 133    30 107 130    28 104 127    28 103 126    32 104 128    33 104 126    30 101 122    29 100 122    32  99 121    28  97 118    28  99 121    32 103 125    31 102 124    29 100 122    28 100 122    29 101 125    29 100 125    32 104 128    31 105 130    29 103 128    30 105 129    30 107 130    31 109 132    32 110 133    34 112 135    34 112 135    32 112 135    32 112 135    35 115 138    36 117 140    35 117 139    30 112 134    32 114 137    36 118 140    32 113 135    40 120 143    44 124 147    38 118 141  
  37 123 148    39 125 150    37 123 148    34 120 145    34 120 145    34 120 145    31 117 141    29 113 137    34 116 140    33 115 139    32 112 135    33 113 136    35 113 136    32 109 132    30 105 128    31 103 127    33 105 128    33 104 126    30 101 123    29 100 122    32  99 121    28  97 118    28  99 121    30 101 123    30 101 123    28  99 121    29 100 122    28 100 124    29 101 125    32 104 128    30 104 129    30 104 129    32 106 131    32 108 132    31 109 132    31 109 132    32 110 133    33 111 134    32 112 135    32 112 135    31 111 134    34 115 137    34 116 138    32 114 136    35 117 139    39 121 143    37 119 141    39 119 142    35 115 138    35 115 138  
  36 122 147    39 125 150    39 125 150    35 121 146    34 120 145    34 120 145    31 117 142    30 114 138    33 115 140    32 114 138    33 113 136    35 114 137    35 113 136    32 109 132    29 105 128    29 104 127    33 105 128    33 104 126    30 101 122    28  99 121    34 102 124    29  98 120    27  98 120    28  99 120    27  98 120    29 100 122    30 101 124    29 101 125    30 103 127    31 103 127    29 103 128    31 105 130    33 108 132    31 109 132    31 109 132    31 109 132    31 109 132    33 111 134    32 112 135    32 112 135    29 109 132    32 112 135    32 114 136    32 114 136    36 118 139    39 121 143    40 122 144    37 117 140    34 114 137    39 119 142  
  36 122 147    40 126 151    40 126 151    35 121 146    33 119 144    34 120 145    33 118 143    33 117 141    35 118 142    34 116 140    34 114 137    33 112 135    32 110 133    31 108 131    30 105 128    31 103 127    32 104 127    32 103 125    28 100 121    27  98 120    34 102 124    29  98 120    26  97 119    26  97 119    26  97 119    28  99 121    30 102 124    29 101 125    32 104 128    31 103 127    27 101 126    30 104 129    33 107 132    32 108 132    31 109 132    31 109 132    32 110 133    33 111 134    32 112 135    32 112 135    30 110 133    33 114 137    31 113 135    33 115 137    33 115 137    34 116 138    39 120 142    37 117 140    42 122 145    47 127 150  
  36 122 147    41 126 151    41 127 152    35 121 146    33 119 144    33 119 144    33 118 143    33 117 141    36 119 143    36 118 142    36 116 139    35 114 137    32 110 133    30 107 130    28 104 127    28 103 126    31 103 126    31 102 124    27  98 120    26  97 119    33 101 122    30  99 120    28  99 121    27  98 120    26  97 119    27  98 120    29 100 123    30 102 126    33 105 129    30 102 126    26 100 125    29 103 128    31 106 131    30 108 131    31 109 132    32 110 133    33 111 134    34 112 135    32 112 135    32 112 135    30 110 133    34 114 137    30 112 134    32 114 136    31 113 135    30 113 135    36 117 139    38 118 141    45 125 148    44 124 147  
  36 122 147    41 127 152    41 127 152    35 121 146    33 119 144    33 119 144    32 117 142    31 115 139    35 117 141    36 118 142    38 118 141    38 117 140    35 113 136    31 107 131    27 103 126    27 102 125    31 102 127    30 100 124    26  97 119    25  96 118    31  99 122    30  98 120    30 101 123    29 100 122    26  97 119    26  97 119    26  98 122    30 103 127    32 107 130    28 102 127    25  99 124    27 103 127    30 106 130    30 107 130    31 109 132    32 110 133    33 111 134    34 112 135    32 112 135    31 111 134    28 108 131    32 112 135    29 111 133    31 113 135    31 113 135    30 112 134    35 117 139    37 117 140    39 119 142    34 114 137  
  42 128 153    33 119 144    34 120 145    33 120 145    33 119 144    35 121 146    34 120 145    31 117 142    26 111 135    24 108 132    28 110 134    31 113 137    32 111 135    30 106 130    31 107 131    29 103 128    28 102 126    30 102 126    27  98 123    29  99 122    28  99 121    28  99 121    29 100 122    28 100 123    28 100 124    29 101 125    29 104 127    32 107 131    26 102 126    29 105 129    32 108 132    29 106 132    30 107 133    30 109 132    31 111 134    33 113 136    34 114 137    34 114 137    32 112 135    31 111 134    33 113 136    30 110 133    32 112 135    34 114 137    33 113 136    32 112 135    34 114 137    37 117 142    41 121 146    47 127 152  
  44 130 155    39 125 150    39 125 150    35 121 146    30 116 141    32 118 143    33 119 144    31 117 142    30 115 140    32 116 140    35 117 141    33 114 138    29 107 133    28 104 128    31 107 131    30 104 129    29 102 127    30 102 126    27  98 122    29  99 124    29 100 122    29 100 122    29 100 122    28 100 123    28 100 124    26 101 124    27 102 126    28 104 128    23 101 124    26 104 127    28 105 131    25 103 129    25 105 130    32 112 136    34 114 137    33 113 136    33 113 136    34 114 137    34 114 137    33 113 136    34 114 137    30 110 134    31 111 134    33 113 135    33 113 136    33 113 136    36 116 139    39 119 144    43 123 148    49 129 154  
  44 129 154    42 128 153    44 130 155    37 123 148    30 116 141    33 119 144    34 120 145    33 119 144    33 117 141    35 119 143    38 120 144    35 116 140    30 110 135    26 105 129    31 107 131    31 104 129    28 102 127    29 101 125    27  97 122    30 100 125    30 101 123    30 101 123    30 101 123    28 100 124    28 100 124    26 101 124    27 102 125    28 104 128    25 102 125    26 104 127    27 104 130    26 104 130    26 106 131    35 115 138    35 115 138    31 111 134    31 111 133    33 113 136    33 113 136    32 112 135    35 115 139    31 111 134    31 111 134    33 113 136    33 113 136    34 114 137    35 115 138    34 114 139    38 118 143    44 124 149  
  40 126 151    39 125 150    42 128 153    38 124 149    35 121 146    36 122 147    35 121 146    35 121 146    32 117 141    31 115 139    34 116 140    35 117 141    37 116 141    30 106 131    31 107 131    32 106 131    29 103 127    29 101 125    27  97 122    31 101 126    28  99 121    29 100 122    30 101 123    29 101 124    30 102 126    28 103 126    30 105 128    31 107 131    29 107 130    30 108 131    30 107 133    30 108 134    31 111 136    34 114 138    33 113 136    30 110 133    31 111 133    32 112 135    31 111 133    27 107 130    34 114 137    32 112 135    34 114 137    35 115 139    35 115 138    33 113 136    33 113 137    34 114 139    39 119 144    43 123 148  
  39 125 150    35 121 146    37 123 148    38 124 149    39 125 150    36 122 147    31 117 142    36 122 147    33 118 142    31 115 139    33 115 139    33 114 139    33 113 138    29 107 131    31 108 132    32 106 131    30 103 128    30 102 126    28  98 123    32 102 127    26  97 119    27  98 120    29 100 122    30 102 125    32 104 128    31 106 129    32 107 131    33 109 133    32 110 133    31 109 132    32 109 135    33 111 136    34 114 139    33 113 137    33 113 136    33 113 136    34 114 137    35 115 138    31 111 134    26 106 129    31 111 134    31 111 134    36 116 139    39 119 142    36 116 139    32 112 135    32 112 136    39 119 144    44 124 149    46 126 151  
  41 127 152    35 122 147    35 121 146    36 122 147    39 126 151    35 121 146    27 113 138    34 120 145    36 121 145    37 121 145    36 118 142    30 112 136    27 105 131    29 105 130    32 108 132    30 104 129    29 102 127    31 103 127    28  99 124    30 100 125    26  97 119    27  98 120    29 100 122    30 102 126    33 105 129    32 107 130    32 107 130    30 106 130    31 108 132    29 107 130    29 106 132    32 110 136    32 112 137    32 112 136    34 114 137    37 117 140    39 119 142    37 117 140    33 113 136    29 109 132    30 110 133    31 111 134    36 116 139    39 119 142    36 116 139    31 111 134    31 111 134    35 115 140    40 120 145    41 121 146  
  39 125 150    36 122 147    36 122 147    35 121 146    39 124 149    37 123 148    29 115 140    32 118 143    36 120 145    38 122 146    37 119 142    32 113 137    28 108 133    30 108 132    32 108 132    28 102 127    29 102 127    33 105 129    30 100 125    29  99 124    29 100 122    29 100 122    31 102 124    31 103 126    32 104 128    31 106 129    30 105 128    29 105 129    31 108 132    28 106 129    28 105 131    31 109 135    32 112 137    30 110 133    32 112 135    36 116 139    36 116 139    33 113 136    31 111 134    32 112 135    32 112 135    30 110 133    33 113 136    35 115 139    34 114 137    32 112 135    31 111 135    33 113 138    37 117 142    36 116 141  
  34 120 145    35 121 146    37 123 148    35 121 146    39 125 150    42 128 153    34 120 145    30 116 141    31 116 140    32 116 140    34 116 140    36 117 141    39 118 143    35 112 136    32 108 132    27 101 126    28 102 126    34 106 130    30 101 126    28  98 123    32 103 125    32 103 125    32 103 125    31 103 126    31 103 127    29 104 127    29 104 127    30 106 130    33 110 133    29 107 130    29 106 132    33 111 137    34 114 139    27 107 131    29 109 132    32 112 135    30 110 133    26 106 129    27 107 130    32 112 134    34 114 137    30 110 133    30 110 133    32 112 135    33 113 136    33 113 136    35 115 138    40 120 145    45 125 150    43 123 148  
  34 120 145    35 121 146    37 123 148    37 123 148    37 123 148    37 123 148    38 124 149    38 124 149    33 118 142    37 120 144    38 120 144    31 112 137    30 110 135    27 106 129    28 104 128    38 112 137    32 106 130    23  95 119    28  99 123    32 102 127    28  99 121    30 101 123    29 100 122    30 102 125    28 100 124    22  97 120    24 100 123    28 104 128    28 105 128    33 111 134    35 112 139    31 109 135    31 111 136    33 113 137    32 112 135    30 110 133    28 108 131    29 109 132    30 110 133    33 113 136    32 112 135    32 112 136    35 115 138    33 113 136    30 110 133    32 112 135    37 117 140    42 122 147    36 116 141    33 113 138  
  34 120 145    36 121 146    38 124 149    38 124 149    38 124 149    37 123 148    36 122 147    36 122 147    34 118 143    36 120 144    37 119 144    33 115 139    33 111 137    31 108 132    28 104 128    32 106 131    30 104 128    27  99 123    31 102 126    30 100 125    26  97 119    29 100 122    28  99 121    31 102 126    31 103 127    27 102 125    29 104 128    27 103 127    27 105 128    32 110 133    34 111 137    31 109 135    30 110 135    34 114 137    34 114 137    33 113 136    32 112 135    31 111 134    30 110 133    30 110 133    27 107 130    28 108 131    31 111 134    32 112 135    31 111 134    33 113 136    38 118 141    42 122 147    40 120 145    39 119 144  
  33 119 144    36 121 146    38 124 149    39 125 150    38 124 149    36 122 147    34 120 145    34 120 145    35 120 144    33 117 141    35 117 141    35 117 141    33 113 138    32 111 135    28 104 128    27 101 126    28 102 126    31 103 127    33 104 129    29  99 124    26  97 119    29 100 122    28  99 121    31 102 126    32 104 128    30 105 128    32 107 130    29 105 129    29 106 129    32 110 134    35 112 138    32 110 136    32 112 137    35 115 139    36 116 139    36 116 139    34 114 137    32 112 135    29 109 132    27 107 130    25 105 128    26 106 128    29 109 132    30 110 133    30 110 133    33 113 136    36 116 140    39 119 144    42 122 147    43 123 148  
  32 118 143    34 120 145    37 123 148    38 124 149    37 123 148    34 120 145    32 118 143    33 119 144    35 120 145    31 115 139    32 114 138    35 116 140    32 111 136    33 109 134    28 105 128    25  99 124    27 101 125    32 104 128    34 104 129    31 101 126    29 100 122    31 102 124    29 100 122    29 101 124    30 102 126    28 103 126    32 107 131    32 108 132    32 109 133    34 112 135    36 113 139    35 113 139    36 116 141    37 117 140    36 116 139    35 115 138    33 113 136    31 111 134    29 109 132    28 108 131    29 109 132    27 107 130    28 108 131    29 109 132    28 108 131    30 110 133    33 113 136    36 116 141    40 120 145    43 123 148  
  31 117 142    33 120 145    36 122 147    37 123 148    35 121 146    32 118 143    30 116 141    34 120 145    36 121 145    30 115 138    29 111 135    32 113 137    28 108 133    29 108 131    30 106 130    28 102 127    27 101 125    31 103 127    32 103 128    34 104 129    28  99 121    30 102 124    29 100 122    28 100 123    28 100 124    26 101 125    32 107 130    32 108 132    32 109 133    32 110 133    33 110 136    35 113 139    35 115 140    36 116 140    35 115 138    32 112 135    30 110 133    29 109 132    30 110 133    31 111 134    31 111 134    28 108 130    28 108 131    30 110 133    29 109 132    30 110 133    34 114 137    37 117 142    39 119 144    41 121 146  
  32 118 143    35 121 146    37 123 148    37 123 148    35 121 146    33 119 144    31 117 142    34 120 145    35 120 145    32 116 140    30 112 136    29 110 134    28 107 132    29 105 130    33 109 133    31 104 129    29 102 127    31 103 127    30 101 125    34 104 129    23  95 116    29 100 122    29 100 122    29 100 124    29 101 125    28 103 126    32 107 131    29 105 129    29 107 130    28 106 129    29 106 132    33 111 136    33 113 138    35 115 139    35 115 138    32 112 134    29 109 132    29 109 132    30 110 133    33 113 136    29 109 133    27 107 130    27 107 130    29 109 132    31 111 134    33 113 136    37 117 140    40 120 145    39 119 144    41 121 146  
  36 122 147    36 122 147    38 124 149    37 123 148    36 122 147    35 121 146    34 120 145    35 121 146    35 120 144    36 120 144    33 115 139    29 110 135    31 111 136    30 108 132    33 109 134    31 104 129    30 103 128    33 105 129    29  99 124    32 102 127    25  95 118    30 101 123    31 102 124    31 103 126    29 101 125    28 103 126    32 107 130    30 106 130    30 107 130    27 105 128    28 105 131    33 111 137    34 114 139    36 116 140    37 117 140    34 114 137    31 111 134    30 110 133    30 110 133    30 110 133    30 110 134    26 106 129    26 106 129    28 108 131    30 110 133    31 111 134    35 115 138    37 117 142    37 117 142    42 122 147  
  38 124 149    39 125 150    39 125 150    38 124 149    38 124 149    37 123 148    35 122 147    35 120 145    35 119 143    39 122 147    37 119 143    30 112 136    34 114 139    33 111 135    34 111 134    28 104 128    29 103 128    33 108 131    27 100 124    29 101 124    29 100 125    35 105 130    34 105 130    32 104 128    26 101 124    25 100 123    30 105 128    34 110 134    33 111 134    30 108 131    31 108 135    37 115 141    37 117 142    38 118 142    39 119 142    38 118 141    35 115 138    32 112 135    29 109 132    27 107 130    34 114 137    29 109 132    27 107 130    28 108 130    27 107 130    27 107 130    29 109 132    31 111 136    33 113 138    43 123 148  
  36 122 147    37 123 148    37 123 148    38 124 149    39 125 150    34 120 145    30 116 141    30 113 139    33 115 140    39 120 144    35 117 141    33 115 139    34 114 139    29 109 132    31 109 133    30 108 131    30 106 129    30 106 129    26 102 125    26 102 125    29 104 127    26 101 124    28 102 126    29 103 128    26 102 126    30 105 130    34 110 134    32 108 132    32 109 133    34 113 136    38 116 139    39 117 140    38 116 139    36 114 137    43 121 144    43 121 144    30 108 132    26 104 127    30 108 131    31 109 132    31 109 132    34 112 135    32 110 133    28 106 130    32 109 132    34 112 135    32 111 134    37 117 140    41 121 144    37 117 140  
  33 119 144    37 123 148    39 125 150    36 122 147    35 121 146    34 120 145    36 119 145    37 118 145    37 119 144    39 121 145    32 114 138    29 110 135    29 109 134    26 106 129    29 109 132    30 108 131    28 106 129    29 107 129    26 103 126    28 104 127    26 100 125    27 101 126    29 103 128    29 105 129    28 104 128    30 106 130    31 107 131    31 107 131    33 110 133    34 112 135    35 113 136    36 114 137    36 114 137    36 114 137    39 117 139    36 114 137    30 109 132    32 110 133    35 113 135    32 110 133    29 107 130    30 108 131    31 109 132    31 109 132    32 110 133    33 111 134    34 112 135    36 116 139    39 119 142    36 116 139  
  32 118 143    37 123 148    39 125 150    34 120 145    31 117 142    33 119 144    37 123 148    39 121 148    39 120 145    37 119 143    30 112 136    28 110 134    29 109 134    26 106 129    29 109 132    31 109 132    29 107 130    27 105 127    23 101 123    27 104 127    23  99 123    30 103 128    31 105 130    29 105 129    31 107 131    31 107 131    30 105 130    31 107 131    33 110 133    34 112 135    32 110 133    32 111 133    35 113 136    37 115 138    37 115 138    32 109 133    30 108 131    35 113 136    36 115 137    30 108 130    28 106 129    26 105 127    31 109 132    34 112 135    30 108 131    32 110 133    35 114 137    34 114 137    36 116 139    35 115 138  
  33 119 144    35 121 146    36 122 147    34 120 145    30 116 141    33 119 144    38 121 147    37 118 145    37 118 143    35 117 141    29 111 135    31 112 137    33 113 138    29 109 132    32 112 134    32 110 134    28 106 129    25 103 125    22 100 122    26 103 125    26 100 125    31 105 130    31 105 130    27 103 127    30 107 130    33 109 133    30 106 130    31 107 131    34 112 135    34 112 135    31 109 132    31 109 132    35 113 136    38 116 139    37 115 138    32 109 133    30 107 131    33 111 134    33 111 134    25 104 127    29 107 129    26 103 126    31 109 132    35 113 136    29 107 130    30 108 130    35 113 136    34 114 137    35 115 138    35 115 138  
  34 121 146    32 118 143    33 119 144    35 120 145    33 119 144    33 119 144    35 120 145    35 117 144    35 117 142    33 115 139    28 110 134    33 115 139    35 115 140    29 109 132    30 110 134    31 109 132    28 106 129    27 105 127    25 103 125    29 107 129    29 105 129    33 107 132    30 104 129    27 103 127    30 107 130    34 110 134    33 109 133    32 108 132    35 112 135    34 112 135    31 109 132    32 110 133    36 114 137    36 113 136    34 112 135    32 110 133    29 107 130    29 107 130    28 106 129    26 104 127    30 108 131    26 105 127    32 110 133    35 113 136    28 106 129    28 105 129    33 112 135    33 113 136    35 115 138    37 117 140  
  34 120 145    30 115 140    32 118 143    36 122 147    34 120 145    32 118 143    36 119 145    38 119 146    39 120 145    34 116 140    28 110 134    32 113 137    32 112 137    26 106 130    27 107 130    27 105 128    28 106 129    31 109 131    30 108 130    34 111 134    33 107 132    32 105 130    31 105 130    30 105 129    29 105 129    32 108 132    34 110 134    32 108 132    33 110 134    33 111 134    32 110 133    33 111 134    36 114 137    31 109 132    31 109 132    32 110 133    30 108 131    28 106 129    28 105 129    30 108 131    32 109 133    29 107 130    32 110 133    33 111 134    28 106 129    28 106 129    32 111 134    32 112 135    35 115 138    39 119 142  
  33 119 144    31 116 141    35 121 146    37 123 148    32 118 143    31 117 142    36 121 146    39 121 148    40 122 147    35 117 140    27 109 133    31 112 136    30 110 135    28 108 132    29 109 132    27 105 128    28 106 129    33 111 133    31 110 131    32 110 132    32 107 132    30 103 128    34 108 133    36 112 136    29 105 129    30 105 130    34 110 134    31 107 131    30 108 131    30 108 131    31 109 132    33 111 135    36 114 137    34 110 134    33 109 133    34 110 134    32 108 132    29 105 129    29 105 129    31 107 131    31 107 131    32 108 132    33 109 133    32 108 132    32 108 132    34 110 134    32 111 134    29 109 132    35 115 138    40 120 143  
  30 116 141    31 117 142    38 124 149    37 123 148    30 115 140    31 117 142    38 121 147    38 119 146    40 121 146    35 116 140    28 110 134    32 114 138    30 110 135    33 113 137    34 114 137    29 107 130    29 107 129    33 111 133    28 106 128    27 103 126    31 105 130    27 101 126    37 111 136    41 117 141    29 105 129    27 103 127    33 109 133    29 105 129    27 105 128    28 106 129    31 109 132    33 111 135    35 113 136    38 115 139    37 113 137    35 111 135    33 109 133    31 107 131    27 103 127    26 102 126    28 104 128    32 108 132    32 108 132    30 106 130    34 110 134    38 114 138    34 111 134    28 107 130    35 115 138    40 120 143  
  30 116 141    34 120 145    38 124 149    37 123 148    34 120 145    30 116 141    29 114 140    37 119 146    40 121 146    34 116 140    33 115 139    29 110 134    32 112 137    30 110 133    27 107 130    31 109 132    34 112 135    36 114 136    35 112 135    32 110 132    35 111 135    38 112 137    35 109 134    31 106 131    31 107 131    34 110 134    33 109 133    29 105 129    29 106 129    33 111 134    36 114 137    33 111 134    35 113 136    34 110 134    33 109 133    35 111 135    34 110 134    32 108 132    30 107 130    34 110 134    29 105 129    30 106 130    33 109 133    32 108 132    28 104 128    30 107 130    34 113 136    35 115 138    36 116 139    35 115 138  
  30 116 141    33 119 144    37 123 148    37 123 148    35 121 146    32 118 143    31 115 141    37 118 145    38 120 145    34 116 140    33 115 139    28 110 134    31 111 136    32 112 136    31 111 134    32 110 133    33 111 134    36 114 136    36 114 136    37 113 136    32 106 131    36 110 135    36 110 135    33 108 132    32 108 132    32 108 132    32 108 132    31 107 131    30 107 130    34 112 134    34 113 136    32 110 133    33 111 134    33 110 133    32 108 132    32 108 132    33 109 133    31 107 131    30 105 130    32 108 132    29 105 129    30 106 130    34 110 134    33 110 133    30 106 130    33 109 133    37 114 138    38 117 140    38 118 141    37 117 140  
  30 116 141    32 118 143    35 121 146    35 122 147    36 122 147    35 121 146    32 117 143    34 116 143    36 118 143    33 115 139    32 114 139    29 110 134    30 110 135    33 113 136    30 110 133    30 108 131    29 107 130    31 109 131    33 110 133    33 111 133    28 104 128    33 107 132    36 110 135    36 111 135    33 109 133    31 107 131    31 107 131    33 109 133    32 109 133    34 112 135    34 112 135    32 110 133    32 110 133    33 109 133    30 106 130    29 105 129    31 107 131    31 107 131    29 105 129    30 106 130    29 105 129    31 106 131    33 109 133    33 109 133    32 108 132    34 110 134    37 115 138    37 117 140    38 118 141    38 118 141  
  30 116 141    31 117 142    33 119 144    35 121 146    36 122 147    36 122 147    35 118 144    33 114 141    34 115 141    32 114 138    32 114 138    30 111 135    30 110 135    33 113 136    32 112 135    32 110 133    31 109 132    33 111 133    33 111 133    33 109 132    30 104 129    32 106 131    36 110 135    36 112 136    34 110 134    32 108 132    32 108 132    34 110 134    33 110 134    34 112 135    34 112 135    34 112 135    34 112 135    34 111 134    30 106 130    28 104 128    31 106 131    32 108 132    30 106 130    29 105 129    29 105 129    31 106 131    33 109 133    32 108 132    32 108 132    33 109 133    35 112 135    35 114 137    36 116 139    37 117 140  
  31 117 142    31 117 142    32 118 143    34 120 145    36 122 147    35 121 146    33 119 144    32 115 141    32 114 138    32 114 138    31 113 137    31 113 137    31 111 136    35 115 138    37 117 140    39 117 140    39 117 140    40 118 140    37 115 137    34 112 134    35 110 134    33 107 132    35 109 134    36 111 135    34 110 134    35 111 135    36 112 136    34 110 134    33 110 134    34 112 135    35 113 136    36 114 137    37 115 138    36 112 136    32 106 131    30 104 129    32 106 131    34 108 133    31 106 131    30 104 129    30 104 129    32 106 131    33 107 132    31 105 130    32 106 131    32 106 131    30 107 131    31 110 133    33 113 135    35 115 138  
  33 119 144    30 117 142    31 117 142    33 119 144    35 121 146    33 119 144    33 116 142    34 115 142    30 112 137    31 113 137    30 112 136    34 115 140    34 114 139    32 112 136    32 112 135    35 113 136    36 114 137    37 115 137    34 112 134    31 107 130    40 114 139    34 108 133    34 108 133    35 110 135    34 110 134    35 111 135    37 113 137    32 108 132    33 110 134    32 110 133    34 112 135    37 116 138    39 116 140    35 110 135    32 106 131    31 105 130    33 107 132    32 106 131    31 105 130    31 105 130    29 103 128    31 105 130    31 105 130    30 104 129    32 106 131    33 107 132    30 106 130    31 110 133    31 111 134    33 113 136  
  34 120 145    32 118 143    32 118 143    33 119 144    33 119 144    29 114 139    29 115 140    35 117 144    30 111 136    31 113 137    29 111 135    35 117 141    37 117 142    31 111 135    29 109 132    31 109 132    31 109 132    32 110 132    31 109 131    30 108 130    39 115 139    33 107 132    33 107 132    35 111 135    33 109 133    33 109 133    35 111 135    32 108 132    32 110 133    30 108 131    31 109 132    35 113 136    35 113 136    32 108 132    31 105 130    31 105 130    32 105 130    30 104 129    29 103 128    31 105 130    27 101 126    30 104 129    30 104 129    30 104 129    35 109 134    36 110 135    33 110 133    34 113 136    32 112 136    33 113 136  
  35 121 146    32 118 143    32 118 143    33 119 144    32 118 143    27 112 137    29 112 138    37 119 144    30 111 136    30 112 136    30 111 135    37 118 143    39 119 144    38 118 141    37 117 140    37 115 138    36 114 137    38 116 138    40 118 140    40 118 140    38 114 138    32 106 131    34 108 133    36 111 135    32 108 132    31 107 131    33 109 133    33 109 133    33 109 133    29 105 129    29 105 129    33 109 133    33 109 133    30 105 130    32 104 129    33 105 130    31 105 130    28 102 127    27 100 125    30 104 129    25  99 124    28 102 127    30 104 129    32 106 131    38 112 137    39 114 139    37 113 137    38 117 140    35 115 138    33 113 136  
  34 119 142    29 115 138    28 114 137    30 115 139    29 115 138    27 113 136    25 111 134    27 110 133    32 114 136    36 118 139    36 118 140    36 118 140    37 117 140    37 117 140    37 117 140    38 116 139    38 116 139    41 119 142    37 115 138    30 108 131    33 110 133    40 116 140    39 115 139    35 111 135    35 111 135    35 111 135    33 109 133    31 105 130    27 101 126    32 106 131    38 112 137    35 109 134    33 106 131    34 106 131    36 108 133    37 109 134    35 107 132    32 104 129    30 102 127    31 103 128    29 103 128    29 103 128    29 103 128    30 106 130    34 110 134    34 109 134    32 109 133    39 117 140    39 117 140    35 113 136  
  33 119 142    30 115 139    30 116 139    32 118 140    29 115 138    28 114 137    31 114 137    36 118 140    36 118 140    35 117 139    33 115 137    34 115 137    37 117 140    37 117 140    37 117 140    38 116 139    38 116 139    41 119 142    37 115 138    31 109 132    31 109 132    36 114 137    36 112 136    31 107 131    30 106 130    31 107 131    31 107 131    33 107 132    30 104 129    34 107 132    39 111 136    36 108 133    35 107 132    34 105 131    33 103 129    33 103 129    33 103 129    33 105 130    35 107 132    38 110 135    26 100 125    28 102 127    29 103 128    30 106 130    35 111 135    37 113 137    36 113 136    39 117 140    40 118 141    36 114 137  
  30 116 139    31 116 140    33 119 142    33 119 142    30 116 139    29 115 138    33 119 141    39 122 144    37 119 141    33 115 137    31 113 135    34 116 138    39 119 142    37 117 140    37 117 140    38 116 139    38 116 139    40 118 141    38 116 139    32 110 133    33 111 134    36 114 137    35 111 135    30 106 130    28 104 128    29 105 129    31 107 131    36 110 135    34 108 133    35 109 134    37 109 134    35 107 132    36 108 133    36 106 132    32 102 128    30 100 126    30 101 126    33 105 130    37 109 134    40 112 137    27 101 126    29 103 128    30 104 129    30 105 130    34 110 134    38 114 138    38 115 138    38 116 139    40 119 142    38 116 139  
  27 113 136    30 116 139    34 120 143    33 120 142    29 115 138    29 115 138    34 117 141    37 119 141    36 117 140    33 115 137    32 114 136    35 117 139    41 121 144    38 118 141    37 117 140    38 116 139    38 116 139    40 118 141    38 116 140    34 112 135    38 116 139    40 117 140    38 114 138    32 108 132    30 106 130    32 108 132    34 109 133    36 110 135    36 110 135    34 108 133    34 106 131    32 105 130    36 108 133    38 108 134    35 105 131    32 102 128    31 102 127    33 105 130    34 105 130    34 106 131    30 104 129    33 107 132    33 107 132    29 104 128    32 107 132    36 112 136    37 114 138    38 116 139    40 118 141    39 117 140  
  27 111 135    30 114 138    34 118 142    33 117 141    29 113 137    29 113 137    32 116 139    35 117 139    35 117 139    35 117 139    34 116 138    36 117 140    39 119 142    37 117 140    37 117 140    39 117 140    38 116 139    39 117 140    38 116 140    35 113 136    40 118 141    40 117 140    39 115 139    34 110 134    30 106 130    32 108 132    35 110 134    35 109 134    36 110 135    33 107 132    31 103 128    31 103 128    34 106 131    36 107 133    36 106 132    35 105 131    34 104 130    33 105 130    31 102 127    29 101 126    30 104 129    33 107 132    32 106 131    28 104 128    31 107 131    36 112 136    38 114 138    38 116 139    40 118 140    40 118 141  
  30 114 138    31 115 138    33 117 141    33 117 141    30 114 138    29 113 137    32 116 139    36 118 140    38 120 142    37 119 141    35 117 139    34 115 138    35 115 138    35 115 138    37 117 140    39 117 140    38 116 139    39 117 140    39 117 140    37 115 138    36 114 137    36 114 137    37 113 137    33 109 133    28 104 128    29 105 129    33 108 132    34 108 133    35 110 135    32 106 131    31 103 128    32 104 129    33 105 130    32 103 128    33 103 129    35 105 131    35 105 131    33 105 130    32 104 129    32 104 129    26 100 125    28 102 127    30 104 129    29 104 129    33 109 133    37 113 137    38 115 138    38 116 139    38 116 139    40 118 141  
  34 118 142    32 115 140    32 116 140    33 117 141    31 115 139    30 114 138    32 115 138    37 119 141    38 120 142    37 119 141    36 118 140    36 118 140    38 118 141    36 116 139    37 117 140    40 118 141    38 116 139    39 117 140    40 118 140    38 116 139    33 111 134    32 110 133    35 111 135    33 109 133    27 103 127    27 103 127    31 107 131    34 108 133    35 110 135    33 107 132    34 106 131    35 107 132    34 106 131    31 101 127    33 103 129    36 106 132    33 103 129    30 102 127    32 104 129    37 109 134    25  99 124    26 100 125    28 102 127    29 105 129    34 110 134    36 112 136    36 113 137    39 117 140    36 114 137    39 117 139  
  37 122 145    33 117 141    32 116 140    34 118 142    33 117 141    31 115 139    31 115 138    36 118 140    36 118 140    36 118 140    37 119 141    40 121 144    44 124 147    38 118 141    37 117 140    40 118 141    38 115 139    38 116 139    40 118 140    39 117 140    32 110 133    33 110 133    36 112 136    35 111 135    28 105 128    28 104 128    33 108 132    34 108 133    36 110 135    34 108 133    36 108 133    38 110 135    35 107 132    32 102 128    35 105 132    37 107 132    31 102 127    27  99 124    30 102 127    38 110 135    28 102 127    28 102 127    27 101 126    29 104 129    33 109 133    32 107 132    32 108 132    39 117 140    35 113 136    39 117 139  
  30 114 138    29 113 137    31 115 139    31 115 139    29 113 137    30 114 138    33 116 139    38 120 142    42 124 146    35 117 139    39 121 143    43 124 147    45 125 148    40 120 143    34 114 137    34 112 135    36 114 137    37 115 138    36 114 137    36 114 137    36 114 137    37 114 137    33 109 133    26 102 126    26 102 126    35 111 135    38 113 137    31 105 130    32 106 131    30 104 129    35 107 132    34 106 131    32 104 129    30 100 126    32 102 129    38 108 134    38 109 134    35 107 132    35 107 132    36 108 133    31 104 129    27 101 126    27 101 126    28 104 128    32 108 132    34 110 134    36 112 136    39 117 140    36 113 136    35 113 136  
  31 115 139    30 114 138    31 115 139    32 116 140    31 115 139    32 116 140    34 117 140    38 120 142    41 123 145    34 115 138    37 119 141    39 120 143    41 121 144    42 122 145    38 118 141    36 114 137    37 115 138    38 116 139    36 114 137    37 115 138    37 114 137    32 110 133    32 108 132    34 110 134    35 111 135    32 107 132    28 104 128    32 106 131    33 107 132    30 104 129    35 107 132    34 106 131    32 104 129    32 102 128    34 104 131    38 108 134    36 106 132    32 104 129    30 102 127    32 104 129    30 104 129    28 102 127    28 102 127    29 105 129    33 109 133    34 110 134    35 111 135    37 115 138    38 115 139    38 116 139  
  33 115 139    31 113 137    34 116 140    35 118 142    35 117 141    35 117 141    36 118 141    38 120 142    39 121 143    33 115 136    34 116 138    36 117 140    36 116 139    42 122 144    40 120 143    39 117 140    40 118 141    39 117 140    36 114 137    37 115 138    36 114 137    32 110 133    32 108 132    34 110 134    35 111 135    29 105 129    26 102 126    33 107 132    34 108 133    31 105 130    35 107 132    34 106 131    32 104 129    32 102 128    34 104 130    35 105 131    33 103 129    29 101 126    29 100 125    31 103 128    29 103 128    29 103 128    30 104 129    30 106 130    33 109 133    34 110 134    34 111 135    37 115 138    41 119 142    40 118 141  
  32 114 138    31 113 137    33 115 139    35 118 142    35 117 141    35 117 141    35 118 141    37 119 141    36 118 141    33 115 137    33 115 137    35 117 139    36 116 139    38 118 141    38 118 141    41 119 142    43 121 144    41 119 142    37 115 138    36 114 137    36 114 137    36 113 137    34 110 134    28 104 128    26 102 126    30 106 130    33 108 133    34 108 133    35 108 133    31 105 130    36 108 133    34 106 131    32 104 129    31 102 127    32 102 128    32 102 128    31 102 128    30 102 127    31 103 128    34 106 131    29 103 128    29 103 128    31 105 130    32 107 132    34 110 134    34 110 134    35 111 135    39 117 140    41 119 142    39 117 140  
