P3
50 50
255
 126 186 204   120 183 201   119 182 200   120 183 200   120 183 201   121 186 204   121 186 204   118 183 201   120 186 203   117 184 201   116 183 199   113 180 197   116 183 200   117 185 204   116 184 203   113 181 199   110 178 197   112 180 199   115 183 202   113 181 200   118 186 204   114 182 201   112 180 199   113 181 200   116 184 203   115 183 202   113 182 201   111 182 202   108 179 199   110 181 201   110 181 201   108 179 199   107 178 198   108 179 199   107 178 198   107 178 198   108 179 199   110 181 201   110 181 201   111 182 202   110 181 203   106 177 199   103 174 196   105 176 198   105 177 199    99 171 193    97 170 192    97 172 193    99 174 195    99 174 195  
 127 189 207   123 186 204   121 184 202   121 184 202   119 182 200   118 183 201   118 183 202   116 181 199   118 185 202   117 184 201   118 185 202   115 183 200   117 184 201   120 187 206   118 186 205   112 180 199   109 177 196   111 179 198   113 181 200   113 181 200   115 183 202   112 180 199   112 180 199   114 182 201   116 184 203   115 183 202   113 182 201   112 183 203   108 180 200   109 180 200   110 181 201   109 180 200   110 181 201   111 182 202   109 180 200   107 178 198   108 179 199   108 179 199   106 177 197   107 178 198   117 188 210   115 186 208   109 180 202   108 179 201   106 178 200   102 174 196   101 174 195   100 175 196   102 177 198    98 173 194  
 131 191 209   126 189 207   125 188 206   123 186 205   120 183 201   117 182 200   117 182 200   115 180 198   115 181 198   114 181 198   118 185 202   117 184 201   118 185 202   118 186 205   117 185 204   114 182 201   111 179 198   113 181 200   115 183 202   114 182 201   115 183 202   112 180 199   112 180 199   114 182 201   115 183 202   113 181 200   111 180 200   111 182 202   107 178 198   107 178 198   109 180 200   109 180 200   112 183 203   113 184 204   108 179 199   106 177 197   108 179 199   108 179 199   106 177 197   107 178 198   107 178 200   106 177 199   102 173 195   101 173 195   102 174 196   101 173 195   103 176 198   101 176 197   103 178 199    98 173 194  
 131 191 209   127 190 208   127 190 208   126 189 207   123 186 204   119 184 202   118 183 201   115 180 198   112 178 196   110 177 194   116 183 200   118 185 202   119 186 203   117 184 203   116 184 203   115 183 202   114 182 201   117 185 204   117 185 204   114 182 201   115 183 202   113 181 200   113 181 200   114 182 201   114 182 201   110 179 197   109 178 197   111 182 202   106 177 197   105 176 196   107 178 198   109 180 200   113 184 204   111 182 202   105 176 196   103 174 194   107 178 198   109 180 200   108 179 199   111 182 202   105 176 198   106 177 199   105 176 198   107 179 201   111 183 204   115 188 210   114 187 209   100 175 196   103 178 199    98 173 194  
 127 186 204   124 185 204   122 183 202   119 180 199   122 183 202   122 185 203   119 182 200   118 181 199   121 185 203   121 186 204   117 182 200   119 184 202   116 181 199   115 181 200   112 179 198   115 182 201   114 181 200   114 181 200   118 185 204   112 179 198   117 184 203   120 187 206   120 187 206   114 181 200   111 178 197   114 181 200   114 183 202   109 180 200   107 178 198   108 179 199   110 181 201   112 183 203   112 183 203   111 181 201   105 175 195   104 175 195   111 182 202   113 184 204   113 184 204   117 187 207   109 178 201   107 176 198   107 178 200   106 176 198   106 177 199   105 176 198   103 174 196   109 181 203   103 175 197   101 173 195  
 129 188 206   128 189 208   125 186 205   122 183 202   124 185 204   124 187 205   122 185 203   119 182 200   119 183 201   118 183 201   115 180 198   120 185 202   118 183 201   115 182 201   113 180 199   117 184 203   115 182 201   113 180 199   117 184 203   113 180 198   117 184 203   118 185 204   116 183 202   113 180 199   111 178 197   113 180 199   114 183 202   110 181 201   108 179 199   108 179 199   109 180 200   110 181 201   110 181 201   113 184 204   110 180 200   109 180 200   114 185 205   113 184 204   108 179 199   109 180 200   114 182 205   110 179 202   108 179 201   106 177 199   108 179 201   109 180 202   104 176 198   102 174 196   102 174 196   101 173 195  
 129 188 206   129 190 209   127 188 207   122 183 202   123 184 203   124 187 205   124 187 205   120 183 201   116 180 198   115 180 198   115 180 198   121 186 203   120 185 203   116 182 200   116 183 202   119 186 205   116 183 202   113 180 199   116 183 202   114 181 200   116 183 202   114 181 200   113 180 199   111 178 197   112 179 198   113 180 199   114 181 201   112 182 202   108 180 200   108 179 199   108 179 199   108 179 199   107 178 198   109 180 200   107 178 198   108 179 199   113 184 204   109 180 200   102 173 193   101 172 192   116 184 207   111 180 202   108 179 201   105 176 198   107 178 199   111 182 204   104 175 197    98 170 192   103 175 197   104 176 198  
 127 186 204   128 189 208   125 186 205   120 181 200   120 181 200   122 185 203   123 185 204   119 182 200   114 178 196   115 180 198   117 182 200   121 186 204   120 185 203   116 182 200   118 184 204   121 188 207   116 183 202   113 180 199   115 182 201   116 183 202   116 183 202   113 180 199   111 178 197   110 178 197   113 180 199   115 182 201   113 182 201   112 183 203   110 181 201   109 180 200   109 180 200   109 180 200   108 179 199   108 179 199   107 178 198   108 179 199   112 183 203   110 181 201   106 177 197   106 177 197   114 182 205   107 176 199   106 177 199   104 175 197   104 175 197   107 178 200   104 175 197   101 173 195   104 176 198   105 177 199  
 128 187 205   128 189 208   125 186 205   119 181 200   119 182 200   122 185 203   121 184 202   116 181 199   114 179 197   117 182 200   120 185 203   121 187 205   117 184 201   114 181 199   119 186 205   120 187 207   116 183 202   114 181 200   115 182 200   118 184 204   115 182 201   112 179 198   111 178 197   112 179 198   115 182 201   116 183 202   116 183 203   112 181 202   109 180 200   110 181 201   111 182 202   110 182 202   110 181 201   112 183 203   112 183 203   112 183 203   114 185 205   114 185 205   114 185 205   116 187 207   111 179 202   105 175 197   107 178 200   107 178 200   105 176 198   105 176 198   103 175 197   104 176 198   102 174 196   102 174 196  
 132 191 209   129 190 209   126 187 206   122 184 202   123 186 204   124 187 205   121 184 202   116 181 199   114 179 197   119 184 202   120 185 203   119 185 203   117 184 201   113 181 199   118 185 204   119 185 204   115 182 201   116 183 202   115 182 201   118 184 204   112 179 198   113 180 199   113 180 199   114 180 200   116 183 202   117 184 203   115 184 204   110 181 201   109 180 200   110 181 201   111 182 202   110 182 202   110 181 201   110 180 200   110 181 201   109 180 200   108 179 199   107 178 198   108 179 199   111 182 202   113 181 204   107 176 198   110 181 203   111 181 203   106 177 199   106 177 199   105 176 198   104 176 198    99 171 193    98 170 192  
 133 193 211   127 190 208   123 186 204   122 185 203   124 188 206   121 186 204   118 183 201   117 182 200   115 181 198   119 185 202   116 183 200   116 182 200   117 184 201   113 180 199   118 185 204   116 183 202   114 181 200   118 185 204   116 183 202   119 185 204   108 175 194   112 179 198   115 182 201   114 181 200   115 182 201   117 184 203   117 184 204   111 180 201   109 180 200   109 180 200   110 181 201   108 179 199   106 177 197   103 174 194   104 176 196   106 177 197   104 175 195   103 174 194   103 174 194   103 174 194   114 182 205   106 175 198   108 179 201   108 180 201   104 175 197   106 177 199   104 176 198   101 173 195   100 172 194   100 172 194  
 129 191 209   124 187 205   119 182 200   119 182 200   123 186 204   118 183 201   116 181 199   120 185 203   115 182 199   117 184 201   113 180 197   113 180 197   119 186 203   113 181 199   117 184 203   114 181 199   113 180 199   120 187 206   117 184 203   119 186 204   105 172 191   111 178 197   115 182 201   115 181 201   113 180 199   116 183 202   115 184 204   110 181 201   108 179 199   108 179 199   108 179 199   105 176 196   102 173 193   102 173 193   107 178 198   112 183 203   111 182 202   110 181 201   109 180 200   108 179 199   114 182 205   103 172 195   103 174 196   103 174 196   100 171 193   103 174 196   103 175 197   100 172 194   104 176 198   105 177 199  
 129 189 207   117 180 198   125 188 206   126 190 208   115 180 198   115 180 198   120 185 203   115 182 199   113 180 197   114 181 198   113 180 197   114 182 198   114 183 199   115 183 201   119 186 205   117 184 203   117 184 203   117 184 203   115 182 201   121 188 207   123 190 209   120 187 206   117 184 203   114 181 200   114 181 200   114 181 200   116 183 203   114 184 204   106 177 197   107 178 198   109 180 200   108 179 199   106 177 197   106 177 197   106 177 197   107 178 198   107 178 198   105 176 196   104 175 195   106 177 197   113 181 204   111 180 202   108 179 201   107 178 200   107 178 200   108 179 201   107 178 200   104 176 198   102 174 196   104 177 199  
 128 189 207   120 182 201   125 188 206   124 188 206   115 180 199   117 182 200   119 185 202   115 182 199   113 180 197   114 181 198   113 180 197   115 183 200   114 183 199   114 182 200   113 180 199   109 176 195   111 178 197   114 181 200   111 178 197   114 181 199   119 187 205   115 183 202   116 183 202   115 182 201   113 180 199   114 181 200   114 183 203   109 180 200   105 176 196   107 178 198   110 181 201   110 180 200   110 181 201   108 180 200   107 178 198   108 179 199   109 180 200   107 178 198   105 177 197   109 179 199   115 183 206   113 182 205   110 181 203   107 178 201   106 177 199   105 176 198   104 176 197   104 176 198   102 174 196   104 176 198  
 128 189 207   121 186 204   122 187 205   119 184 202   117 182 200   118 185 202   117 184 201   116 183 200   112 180 197   113 182 198   111 180 196   115 183 200   115 184 200   118 185 203   116 183 202   110 177 196   114 181 200   119 186 205   115 182 201   115 182 201   117 184 203   112 179 198   115 182 201   117 184 203   112 179 198   113 180 200   117 184 203   109 178 199   106 177 197   108 179 199   109 180 200   109 180 200   111 182 202   109 180 200   108 179 199   109 180 200   110 180 200   108 179 199   108 179 199   111 182 202   105 173 196   106 175 197   107 178 200   109 180 202   111 182 204   111 182 204   110 181 203   105 177 199   102 174 196   104 176 198  
 127 189 207   123 188 206   121 186 204   116 181 199   118 183 201   119 187 204   116 183 201   116 183 200   112 180 197   113 182 198   111 180 196   115 184 200   116 185 201   119 186 204   119 186 205   114 181 200   117 184 203   121 188 207   117 184 203   119 186 204   118 185 204   112 179 198   116 183 202   119 186 205   113 180 199   113 180 199   116 185 204   110 181 201   109 180 200   110 181 201   108 179 199   106 177 197   109 180 200   108 179 199   107 178 198   108 179 199   110 180 200   109 180 200   109 180 200   112 183 203   113 181 204   112 181 204   111 182 204   108 180 201   106 177 199   103 174 196   103 175 197   106 178 200   104 176 198   104 176 198  
 126 187 205   123 188 205   120 185 203   114 179 197   117 182 200   119 186 203   116 183 200   116 183 200   112 180 197   113 182 198   111 180 196   116 185 201   117 186 202   115 183 201   116 183 202   114 181 200   114 181 200   115 182 201   112 179 198   117 184 203   119 186 205   114 181 200   117 184 203   119 186 205   113 180 199   111 178 198   116 183 203   112 182 202   110 181 201   110 181 201   108 179 199   106 177 197   109 180 200   107 178 198   106 177 197   107 178 198   109 180 200   107 178 198   107 178 198   111 182 202   102 170 193   104 173 196   106 177 199   108 179 201   111 182 204   111 182 204   110 181 203   107 179 201   105 177 199   105 177 199  
 123 185 203   119 184 202   118 183 201   113 178 196   115 180 199   118 184 202   116 183 200   116 183 200   112 180 197   112 181 197   111 180 196   116 185 201   118 187 203   116 184 202   118 185 204   117 184 203   116 183 202   116 183 202   114 181 200   120 187 206   119 186 205   117 184 203   116 183 202   116 183 202   113 180 199   113 180 199   113 182 201   110 181 201   107 178 198   109 180 200   110 181 201   109 180 200   111 182 202   108 179 199   106 177 197   107 178 198   108 179 199   106 177 197   105 177 197   109 179 199   112 180 203   111 180 203   108 179 201   106 176 198   103 174 196   102 173 195   103 174 196   106 178 200   105 177 199   105 177 199  
 120 182 199   114 179 197   116 181 199   113 180 197   113 180 197   116 183 200   116 183 200   115 184 200   112 181 197   112 181 197   111 180 196   116 185 201   118 188 204   119 187 205   120 187 206   116 183 202   118 185 204   119 186 205   116 183 202   120 187 206   114 181 200   115 183 202   113 180 199   111 178 197   114 181 199   116 183 202   115 182 201   113 182 203   107 178 198   109 180 200   110 181 201   110 180 200   109 180 200   108 179 199   107 178 198   108 179 199   108 179 199   106 177 197   105 176 196   108 179 199   106 174 197   105 174 197   104 175 197   104 175 197   105 176 198   106 177 199   106 177 199   104 176 198   103 175 197   103 175 197  
 118 181 198   111 176 193   114 179 197   114 180 197   111 178 195   114 181 198   116 184 201   115 184 200   112 181 197   112 181 197   111 180 196   116 185 201   119 188 204   116 184 202   113 180 199   108 175 194   111 178 197   116 183 202   112 179 198   113 180 199   109 176 195   114 180 200   110 177 196   107 174 193   114 181 200   117 184 203   114 183 202   116 187 207   109 180 200   109 180 200   110 181 201   108 179 199   105 176 196   107 178 198   108 179 199   109 180 200   109 180 200   107 178 198   105 176 196   108 179 199   109 180 202   106 177 199   104 175 197   102 173 195   102 173 195   102 173 195   102 173 195   101 173 195   101 173 195   101 173 195  
 126 190 208   114 180 200   116 183 202   116 183 202   113 180 199   115 182 201   117 184 203   116 183 202   115 181 201   111 178 197   109 176 195   114 181 200   121 188 207   119 186 205   118 183 203   116 181 201   118 183 203   119 184 204   116 182 201   119 185 204   117 184 203   114 182 200   114 182 201   113 181 200   111 179 198   113 181 200   116 185 204   112 183 203   107 178 198   110 182 202   110 181 201   111 182 202   111 182 202   107 178 198   107 178 198   107 178 198   107 178 198   107 178 198   109 180 200   111 182 202   112 183 204   107 179 201   106 178 200   107 179 200   107 179 201   110 182 204   111 182 205   101 173 195    98 170 192   101 173 194  
 121 186 204   112 179 198   115 182 201   116 183 202   115 182 201   119 186 205   120 187 206   119 186 205   116 183 202   114 181 200   113 180 199   115 181 201   117 184 203   119 184 204   118 183 203   117 182 202   120 185 205   120 185 205   117 183 202   118 185 204   117 184 203   115 183 202   115 183 202   114 182 201   113 181 200   113 181 200   115 183 203   112 183 203   110 180 200   112 183 203   107 178 198   107 178 198   109 180 200   109 180 200   109 180 200   108 179 199   107 178 198   106 177 197   106 177 197   106 177 197   108 180 202   106 178 200   107 179 201   108 180 202   107 179 201   108 180 202   109 181 203   105 177 199   101 173 196   104 176 198  
 120 185 203   112 179 198   115 182 201   116 183 202   116 183 202   119 186 205   120 187 206   121 188 207   118 186 205   117 184 203   117 184 203   115 183 202   115 182 201   117 182 202   118 183 203   119 184 204   121 186 206   120 185 205   116 183 202   117 184 203   117 184 203   115 182 201   116 184 203   116 184 203   114 182 201   113 181 200   114 182 202   112 183 203   112 183 203   112 183 203   104 176 196   103 174 194   107 178 198   109 180 200   109 180 200   109 180 200   108 179 199   108 179 199   106 177 197   105 176 196   105 177 199   105 176 198   107 179 201   109 180 203   106 178 200   105 177 199   106 178 201   106 178 200   102 175 196   104 177 199  
 123 188 206   115 183 202   117 184 203   116 183 202   115 182 201   116 183 202   117 184 203   121 188 207   117 184 203   115 182 201   117 184 203   116 183 202   114 181 200   116 181 201   115 180 200   119 184 204   121 186 206   118 183 203   115 182 201   115 182 201   116 183 202   114 181 200   115 183 202   116 184 203   114 182 201   112 180 199   112 181 200   112 183 203   110 182 202   112 183 203   106 177 197   105 176 196   109 180 200   107 178 198   106 177 197   107 178 198   109 180 200   111 182 202   110 181 201   108 179 199   105 177 199   104 176 198   106 178 200   107 179 201   104 176 198   103 175 197   105 176 198   105 177 199   101 173 196   103 175 197  
 121 186 204   115 182 201   117 184 203   116 182 201   115 182 201   116 183 202   116 183 202   119 186 205   114 181 200   112 179 198   114 181 200   117 184 203   118 185 204   116 182 201   113 178 198   119 184 204   120 185 205   115 180 200   114 180 200   112 179 198   115 182 201   113 180 199   113 181 200   115 183 202   113 181 200   111 179 198   111 180 200   112 183 203   108 179 199   111 182 202   110 181 201   110 181 201   110 181 201   107 178 198   107 178 198   107 178 198   110 181 201   112 183 203   111 181 201   109 180 200   107 179 201   105 177 199   104 176 198   104 176 198   102 174 196   103 175 197   105 177 199   104 176 198   102 174 196   104 176 198  
 116 182 200   112 179 198   114 181 200   114 181 200   117 184 203   119 185 204   116 183 202   117 184 203   113 180 199   111 178 197   113 180 199   117 184 203   120 187 206   118 184 203   112 177 197   119 184 204   120 185 205   113 178 198   114 180 200   112 179 198   117 184 202   112 180 199   112 180 199   114 182 201   114 182 201   111 179 198   112 181 200   112 183 203   107 178 198   109 181 201   111 182 202   112 183 203   111 182 202   111 182 202   110 181 201   108 179 199   108 180 200   110 181 201   108 179 199   105 176 196   109 181 203   105 177 199   104 176 198   103 175 197   102 174 196   102 174 196   105 177 199   105 177 199   105 177 199   107 179 201  
 114 180 198   111 178 197   114 181 200   113 180 199   116 183 202   117 184 204   115 181 201   116 183 202   116 183 202   116 183 202   115 182 201   117 185 203   120 187 206   120 186 206   114 179 199   121 186 206   121 186 206   113 178 198   115 182 201   114 181 200   119 185 204   114 181 200   112 180 199   115 183 202   115 183 202   113 181 200   113 182 202   112 183 203   109 180 200   111 182 202   108 179 199   108 180 200   110 181 201   110 181 201   108 179 199   105 176 196   106 176 196   108 179 199   106 177 197   103 174 194   108 180 202   107 179 200   107 179 201   106 178 200   103 175 197   102 174 196   103 175 197   102 174 196   104 176 198   108 179 202  
 117 182 200   114 181 200   115 182 201   112 180 198   114 181 200   114 181 200   110 177 196   116 183 202   119 186 205   120 187 206   118 185 204   117 184 203   119 186 205   121 187 207   115 180 200   122 187 207   121 186 206   113 178 198   117 183 203   116 183 202   121 188 207   115 182 201   113 181 200   116 184 203   116 184 203   115 183 202   114 182 202   112 183 203   111 182 202   112 183 203   105 176 196   104 175 195   108 179 199   106 177 197   103 174 194   100 171 191   102 173 193   107 178 198   107 178 198   105 176 196   107 179 201   106 178 201   109 181 203   109 181 203   104 176 198   101 173 195    99 171 193    99 171 193   101 173 195   105 177 199  
 119 184 202   117 184 203   118 185 204   119 185 205   119 186 205   117 184 203   115 182 200   115 182 201   118 185 204   120 187 206   120 187 206   118 185 204   115 182 201   119 185 205   115 180 200   119 184 204   120 185 205   117 182 202   120 187 206   120 187 206   114 181 200   113 180 200   112 180 199   112 180 199   115 183 202   113 181 199   109 178 197   110 181 201   112 183 203   109 180 200   108 179 199   109 180 200   109 180 200   107 178 198   109 181 201   111 182 202   111 182 202   112 183 203   109 180 200   104 175 195   110 182 204   106 178 200   101 173 195    99 171 193   102 174 196   103 175 197   102 175 196   104 176 198   102 174 196   104 176 198  
 115 180 198   113 180 199   114 181 200   115 182 201   116 183 202   114 181 200   114 181 200   118 185 204   118 185 204   118 185 204   118 185 204   117 184 203   117 184 203   119 185 204   116 181 201   120 185 205   121 186 206   116 181 201   119 185 204   119 186 205   113 180 199   112 180 199   111 179 198   112 180 199   116 184 203   114 183 202   111 180 199   110 181 201   111 182 202   108 179 199   107 178 198   108 179 199   109 180 200   104 175 195   106 177 197   107 178 198   107 178 198   108 179 199   106 177 197   100 171 191   112 184 206   109 181 203   104 176 198   100 172 194   102 174 196   102 174 196   101 173 195   105 177 199   105 177 199   107 179 201  
 118 183 201   117 184 203   118 185 204   119 186 205   121 188 207   119 186 205   119 186 205   121 188 207   118 185 204   115 182 201   115 182 201   116 183 202   119 186 205   117 183 203   116 181 201   121 186 206   121 186 206   115 180 200   116 182 202   118 185 204   112 179 198   112 179 198   111 179 198   112 180 199   116 184 203   116 184 203   112 181 200   110 181 201   110 181 201   107 178 198   105 176 196   107 178 198   109 180 200   104 175 195   104 175 195   105 176 196   105 176 196   106 177 197   104 175 195    99 170 190   109 181 203   108 180 202   105 177 199   103 175 197   104 176 198   103 175 197   101 173 195   102 174 196   102 174 196   103 175 197  
 120 185 203   118 185 204   120 187 206   122 189 208   124 191 210   123 190 209   121 188 207   121 188 207   118 186 205   116 183 202   115 182 201   116 183 202   119 186 205   116 182 201   117 182 202   121 186 206   120 185 205   115 180 200   114 180 199   117 184 203   113 180 199   114 181 200   112 180 199   112 180 199   114 183 202   115 183 202   113 182 201   112 183 203   111 182 202   107 178 198   105 176 196   108 180 200   111 182 202   107 178 198   107 178 198   107 178 198   106 177 197   108 179 199   106 177 197   102 173 193   102 174 196   103 175 197   103 175 197   103 175 197   107 179 201   107 179 201   104 176 198   104 176 198   103 175 197   102 174 196  
 115 180 198   114 181 200   115 182 201   117 184 203   119 186 205   118 185 204   117 185 203   119 186 205   118 185 204   118 185 204   118 185 204   117 184 203   117 184 203   116 182 201   118 183 203   120 185 205   119 184 204   115 180 200   111 178 197   115 182 201   116 183 202   116 184 203   114 182 201   111 179 198   113 181 200   114 182 201   112 181 201   112 183 203   111 182 202   108 179 199   106 177 197   109 180 200   111 182 202   108 179 199   108 179 199   108 179 199   106 177 197   108 179 199   107 178 198   104 175 195   100 172 194   101 173 195   102 174 196   103 175 197   107 179 201   106 178 200   105 177 199   108 180 202   108 180 202   107 179 201  
 117 182 200   115 182 201   117 184 203   118 185 204   119 186 205   118 185 204   116 183 202   116 183 202   117 184 203   119 186 205   119 186 205   118 185 204   117 184 203   117 183 203   120 185 205   118 183 203   117 182 202   116 181 201   111 177 196   114 181 200   117 184 203   118 185 204   114 182 201   111 178 197   111 179 198   113 181 200   112 181 200   111 182 202   111 182 202   107 178 198   106 177 197   108 180 200   110 181 201   107 178 198   107 178 198   105 176 196   104 175 195   105 176 196   106 177 197   103 174 194   104 176 198   104 176 198   103 175 197   103 175 197   105 177 199   104 176 198   101 173 195   103 175 197   104 176 198   105 177 199  
 120 185 203   119 186 205   120 187 206   120 188 207   121 188 207   120 187 206   117 184 203   115 182 201   115 183 202   117 184 203   118 185 204   118 185 204   117 184 203   120 185 205   122 187 207   116 181 201   116 181 201   117 182 202   111 177 196   113 180 199   116 183 202   117 185 204   114 182 201   111 178 197   112 180 199   114 182 201   112 181 200   108 179 199   109 180 200   106 177 197   105 176 196   106 177 197   107 178 198   106 177 197   106 177 197   104 176 196   102 173 193   105 176 196   105 176 196   103 174 194   107 179 201   106 178 200   104 176 198   104 175 198   106 178 200   105 177 199   101 173 195    99 171 193   101 173 195   102 174 196  
 116 181 199   114 181 200   115 182 201   115 183 202   116 183 202   114 181 200   112 180 198   114 181 200   114 181 200   115 182 201   116 183 202   117 184 203   119 186 205   121 188 207   123 188 208   114 179 199   115 180 200   118 184 203   111 178 197   112 179 199   114 181 200   115 184 203   114 182 201   111 178 197   113 181 199   116 184 203   112 182 202   105 176 196   107 178 198   105 176 196   103 174 194   104 175 195   104 175 195   107 178 198   108 179 199   106 177 197   104 175 195   106 177 197   107 178 198   105 176 196   106 178 200   105 178 200   104 176 198   104 176 198   109 180 202   110 182 204   107 179 201   106 178 200   108 180 202   107 179 201  
 118 183 201   111 176 196   119 184 204   124 189 209   114 179 199   112 179 198   120 187 206   120 187 206   113 181 200   114 183 202   116 184 203   115 183 202   117 185 204   115 182 201   119 186 205   117 184 203   116 183 202   118 185 204   112 178 199   113 180 202   108 176 197   113 181 202   116 185 207   112 183 205   109 180 202   111 182 204   114 185 207   112 184 206   109 181 203   109 181 203   109 181 203   109 181 203   112 184 206   103 175 197   103 175 197   104 176 198   101 173 196   105 177 199   106 177 200   100 171 193   108 180 202   108 180 202   110 182 204   110 182 204   109 181 203   105 177 199   103 175 197   105 177 199   108 180 202   108 180 202  
 121 186 204   115 180 200   118 183 203   121 186 206   115 180 200   115 183 202   122 189 208   120 187 206   114 182 201   115 183 202   116 184 203   115 183 202   116 184 203   116 183 202   120 187 206   117 184 203   115 182 201   117 184 203   112 180 201   114 182 204   115 183 204   114 183 205   113 184 206   111 182 205   109 180 202   108 179 201   107 178 200   106 178 200   107 179 200   109 181 203   110 182 204   110 182 204   111 183 205   107 179 201   101 173 195    99 171 193   105 177 199   107 179 201   105 176 198   104 176 198   107 179 201   107 179 200   107 179 201   107 179 201   106 178 200   103 175 197   100 173 195   101 173 195   103 175 197   104 176 198  
 126 189 208   121 186 206   118 183 203   117 182 202   118 183 203   120 187 206   123 190 209   120 187 206   116 183 202   117 185 204   117 185 204   114 182 201   114 182 201   117 184 203   120 187 206   117 184 203   116 182 201   117 184 203   114 181 202   116 184 204   118 186 207   114 183 204   111 182 204   111 182 204   110 181 203   108 179 201   105 176 198   105 177 199   106 178 200   109 181 203   109 181 203   108 180 202   106 178 200   109 181 203   100 172 194    97 169 191   109 181 203   109 181 203   103 176 197   109 181 203   107 179 201   105 177 199   104 176 198   103 175 197   103 175 197   101 173 195   100 171 193   101 173 195   101 173 195   102 174 196  
 127 190 208   124 189 209   118 183 203   115 180 200   119 184 204   122 189 208   120 187 206   119 186 205   117 185 204   117 185 204   117 185 204   114 182 201   113 181 200   115 183 202   118 185 204   118 185 204   118 185 204   118 185 204   115 182 203   114 182 203   114 182 203   112 181 202   110 181 203   110 180 203   110 181 203   110 181 203   109 180 202   109 181 203   109 181 203   108 180 202   106 178 200   104 176 198   102 174 196   105 177 199   101 173 195   101 173 195   107 179 201   106 178 200   104 176 198   111 183 205   107 179 201   104 176 198   102 174 196   101 173 195   102 174 196   101 173 195   102 174 196   105 177 199   103 175 197   104 176 198  
 125 188 206   124 189 209   119 184 204   116 181 201   119 184 204   119 187 206   117 184 203   117 184 203   118 185 205   117 185 204   116 184 203   114 182 201   113 181 200   114 181 200   116 183 202   119 186 205   120 188 207   119 186 205   116 183 204   112 180 201   111 179 200   113 181 203   111 182 204   107 178 200   106 177 199   109 180 202   112 184 205   112 184 206   111 182 205   105 177 199   104 176 198   105 177 199   104 176 198   100 172 194   104 176 198   107 179 202   103 175 197   101 173 195   105 177 199   109 182 204   108 180 202   105 177 199   103 175 197   102 174 196   103 175 197   103 175 197   104 176 198   106 178 200   104 176 198   105 177 199  
 125 188 206   123 188 208   120 185 205   117 182 202   119 184 204   118 185 204   115 182 201   116 183 202   118 185 204   116 184 203   115 183 202   115 183 202   114 182 201   114 181 200   113 180 199   119 186 205   121 188 207   119 186 205   116 184 205   111 179 200   112 180 201   114 183 205   111 182 204   105 176 198   103 174 196   107 178 200   111 182 204   109 181 203   108 181 202   103 175 197   103 175 197   108 181 202   109 181 203    99 171 193   106 178 200   109 181 203   101 173 195   100 172 194   105 177 199   106 178 200   107 179 201   105 177 199   104 176 198   104 176 198   106 178 200   106 178 200   105 177 199   105 177 199   103 175 197   103 175 197  
 128 192 210   123 188 208   121 186 206   118 183 203   117 182 202   116 183 202   116 183 202   115 182 201   117 185 204   115 183 202   113 181 200   115 183 202   116 184 203   116 184 203   113 180 199   117 184 203   118 185 204   116 183 202   117 185 205   113 181 202   113 181 202   112 181 202   109 180 202   106 176 198   105 176 198   109 180 202   109 181 203   107 179 201   108 180 202   104 176 198   104 176 198   109 181 203   107 179 201   103 176 197   104 176 198   105 177 199   105 177 199   103 175 197   103 175 197   104 176 198   106 178 200   105 177 199   105 177 199   106 178 200   108 180 202   108 180 202   106 178 200   103 175 197   104 175 198   103 175 197  
 132 195 214   123 188 208   120 185 205   119 184 204   116 181 201   117 184 203   119 186 205   114 181 200   117 184 203   114 182 201   112 180 199   116 185 203   118 186 205   119 186 205   114 180 200   115 182 201   114 181 200   113 180 199   117 185 205   115 183 204   111 179 200   107 176 198   104 175 197   106 177 199   109 181 203   113 184 206   111 182 204   107 179 201   110 182 204   106 178 200   105 177 199   106 178 200   102 174 196   107 179 201   102 174 196   100 172 194   110 181 203   107 179 201   100 172 194   102 174 197   104 176 198   103 175 197   104 176 198   106 178 200   109 181 203   109 181 203   106 178 200   104 176 198   105 178 200   104 176 198  
 125 189 207   119 184 204   118 183 203   118 183 203   116 181 201   114 181 200   115 182 201   117 184 203   116 183 202   114 182 201   115 183 202   115 183 202   111 179 198   107 175 194   114 181 200   122 189 207   117 184 203   117 184 203   120 188 209   113 181 202   125 193 214   114 183 204   109 180 202   113 184 206   117 188 210   116 187 209   111 183 204   106 178 200   106 178 200   108 180 202   106 178 200   101 172 195   109 181 203   108 180 202   104 176 198   104 176 198   105 177 199   106 178 200   108 180 202   113 185 207   104 176 198   104 176 198   105 177 199    98 171 192   103 175 197   100 171 193   106 178 200   107 179 201   102 174 196    99 171 193  
 125 189 207   119 184 204   117 182 202   117 182 202   114 179 199   112 179 198   113 181 200   116 183 202   115 182 201   114 182 201   115 183 202   115 183 202   112 180 199   112 179 198   115 182 201   118 184 204   114 181 200   113 180 199   115 183 204   110 178 200   114 182 203   107 176 198   106 177 199   110 181 203   111 182 204   108 179 201   106 177 200   108 180 202   108 180 202   107 179 201   105 177 199   100 173 195   104 176 198   104 176 198   104 176 198   106 178 200   109 180 203   107 179 201   107 179 200   109 182 204   108 180 202   108 180 202   109 181 203   103 176 197   108 180 202   104 176 198   106 178 200   101 173 195    98 170 192    97 169 191  
 127 190 209   121 186 206   119 184 204   118 183 203   115 180 200   113 180 199   114 181 200   115 182 201   114 182 201   114 182 201   115 183 202   117 185 204   114 182 201   118 185 204   116 183 202   115 182 201   114 181 200   112 179 198   113 180 201   110 178 199   110 178 199   109 178 199   111 182 204   113 184 206   111 182 204   108 179 201   106 178 200   107 179 201   107 180 201   103 175 197   105 177 199   104 176 198   102 174 196   103 175 197   104 176 198   108 180 202   110 183 205   109 181 203   106 177 200   106 178 200   103 175 197   103 175 197   106 178 200   101 173 195   105 177 199   100 172 194   103 175 197   102 174 196   100 171 193    99 171 193  
 132 195 214   125 190 210   122 187 207   121 186 206   119 184 204   117 184 203   116 183 202   113 180 199   114 182 200   114 182 201   115 183 202   117 185 204   116 184 203   122 189 208   117 184 203   116 183 202   118 185 204   116 183 202   114 182 202   112 180 201   110 178 199   111 180 201   113 184 206   114 185 207   110 181 203   108 179 201   106 177 199   103 175 197   105 176 198   100 172 194   105 177 199   109 181 203   104 176 198   104 176 198   105 177 199   108 180 202   110 182 204   107 179 201   105 177 199   106 178 200   100 172 194   101 173 195   104 176 198   100 172 194   104 176 198    98 170 192   103 176 198   109 181 203   106 177 200   105 177 199  
 132 195 214   125 190 210   122 187 207   121 186 206   119 184 204   118 185 204   117 183 203   113 180 199   115 182 201   115 183 202   115 183 202   117 185 204   117 185 204   119 186 205   114 180 200   115 183 201   120 188 207   119 186 205   115 182 203   111 179 200   109 177 198   108 177 198   108 179 201   106 177 200   104 175 197   105 176 198   105 177 198   102 174 196   103 175 197    99 171 193   105 177 199   109 181 203   103 175 197   105 178 199   107 179 201   106 178 200   105 178 200   104 176 198   104 176 198   109 180 202   105 177 199   105 177 199   108 180 202   105 177 199   110 182 204   103 175 197   107 179 201   109 181 203   106 177 200   106 178 200  
 127 190 209   120 185 205   117 182 202   117 182 202   116 181 201   115 182 201   115 182 201   113 180 199   115 183 202   115 183 202   115 183 202   117 185 204   117 185 204   113 180 199   110 177 196   114 181 200   117 184 203   116 183 202   114 181 202   108 176 197   115 183 204   112 180 202   109 180 202   107 178 201   105 176 198   106 177 199   108 179 201   105 177 199   104 176 198   100 172 194   105 177 199   105 177 199   101 173 195   107 179 201   107 179 201   104 176 198   102 174 196   101 173 195   104 176 198   110 182 204   104 175 197   102 174 196   104 176 198   102 174 196   108 180 202   102 174 196   103 176 197   103 175 197   101 173 195   103 175 197  
