P3
50 50
255
 114 218 223   102 210 218    95 208 219    83 201 213    73 199 213    67 199 212    49 191 205    30 178 192    23 177 189    27 185 197    10 172 185     7 169 184     4 164 180     3 160 177     1 157 172     2 153 170     1 150 165     1 147 163     8 151 167     1 138 155     1 134 150     6 142 158     6 142 156     1 131 146     1 129 144     3 135 150     4 136 149     3 134 149     2 131 145     2 129 145     4 127 143     2 123 140     1 120 137     1 115 134     6 119 137     6 117 136     3 114 133     2 111 131     4 111 129     5 112 132     6 113 131     6 116 133     1 112 129     2 115 131     5 118 136     6 121 139     7 122 139     6 122 139     1 121 137     1 120 136  
 107 215 221    95 209 215    91 208 218    82 204 216    69 198 211    54 191 204    42 185 199    30 182 195    20 178 190    13 174 188     9 171 186     7 169 184     4 164 180     4 161 178     3 159 174     5 155 173     4 154 169     5 150 167     7 150 166     2 142 159     1 137 153     2 138 154     4 137 152     1 133 148     1 133 147     4 136 150     1 130 143     1 128 142     1 126 141     1 126 141     2 125 141     3 123 140     3 120 137     4 117 135     4 116 134     4 114 133     3 113 130     2 112 129     3 110 128     4 111 128     3 112 129     4 113 130     1 110 128     3 114 132     6 118 136     7 118 137     4 118 136     3 118 136     6 123 140     9 126 143  
  99 211 218    89 206 214    85 205 216    78 203 215    64 195 208    48 185 200    35 181 195    28 181 194    18 177 190     8 170 183     7 169 184     5 166 181     2 162 178     2 159 176     2 158 173     3 154 171     2 152 167     3 149 165     4 147 163     5 146 163     3 141 157     1 135 151     1 134 148     3 136 151     4 136 151     2 134 149     1 129 143     1 128 142     1 126 141     1 125 140     1 124 140     2 122 139     1 118 135     3 116 134     1 112 130     1 110 129     1 110 127     1 109 126     1 108 125     1 108 125     1 108 125     1 108 125     1 107 126     1 111 130     2 115 133     2 115 133     1 115 133     1 116 134     5 122 139     9 128 144  
  91 207 216    82 203 211    77 201 212    66 195 208    57 190 205    48 187 203    35 182 196    21 174 188    13 173 187    14 177 189    10 172 187     8 168 184     5 165 179     4 161 176     3 159 174     3 156 172     2 153 167     2 149 165     1 143 158     4 147 163     4 144 159     1 135 151     1 134 148     3 136 151     2 135 150     1 128 143     1 130 145     1 130 144     1 127 142     1 125 140     2 125 140     2 122 139     1 118 135     2 115 133     2 114 132     2 112 131     3 112 129     2 112 129     2 111 128     1 110 127     1 110 127     1 110 127     1 106 125     1 108 126     1 110 128     1 113 131     2 117 135     4 119 137     4 121 139     2 122 139  
  83 203 212    75 199 209    70 197 208    58 190 203    53 189 203    51 192 208    36 186 200    17 173 186    11 173 186    21 183 196    14 174 190    11 171 187     9 166 181     6 163 178     4 160 175     3 156 172     1 153 167     1 150 165     1 144 158     4 147 163     6 148 162     3 139 155     1 136 150     1 134 149     1 131 146     1 126 141     1 130 144     1 128 143     1 127 142     3 126 142     4 125 142     4 124 141     4 122 139     5 119 137     3 116 134     4 115 134     4 114 131     3 113 130     2 112 129     2 112 129     2 112 129     2 113 130     1 113 131     1 111 129     1 111 129     2 115 133     7 122 139     9 125 142     5 124 142     1 120 137  
  75 200 208    68 197 208    66 196 209    59 192 207    54 191 207    49 191 208    38 188 203    26 182 195    16 178 191    17 179 194    12 172 186    11 168 183     7 164 179     5 162 177     4 160 173     3 156 170     2 154 168     1 151 166     2 150 164     4 150 165     6 149 163     4 144 159     1 137 153     1 133 150     1 130 148     1 130 145     1 131 145     2 129 144     1 127 142     3 126 142     4 125 142     4 124 141     4 120 137     4 117 135     1 114 132     1 112 131     1 110 127     1 109 126     1 108 125     1 109 126     1 110 127     1 111 128     5 118 136     1 115 133     1 114 132     1 116 134     4 120 138     6 123 141     5 125 142     4 124 141  
  69 196 205    62 193 203    66 198 210    64 197 212    60 197 213    47 188 205    38 188 203    31 187 200    25 184 197    12 174 186    19 176 190    13 170 184    10 166 181     8 165 180     7 163 176     6 162 175     5 159 173     4 155 169     5 155 169     4 150 165     4 147 161     4 145 160     3 141 157     2 135 152     1 132 150     2 133 151     6 133 150     5 131 146     3 129 144     3 126 142     2 123 140     3 120 138     1 117 134     1 113 131     3 115 134     2 113 132     1 111 128     1 110 127     1 109 126     1 110 127     2 113 130     3 116 132     2 116 134     2 117 135     2 117 135     1 118 135     1 118 136     3 121 138     4 124 142     5 125 143  
  67 195 204    60 191 201    64 196 208    62 194 208    66 202 217    48 188 204    41 188 203    33 185 199    34 191 204    18 177 189    27 184 197    15 171 184    12 168 181    13 169 182     7 165 177     5 162 175     5 161 174     2 156 169     7 158 171     2 150 164     1 144 159     4 145 162     7 147 164     6 142 161     3 137 156     2 133 151     5 132 149     6 132 147     5 129 145     4 126 142     2 123 140     3 120 138     2 118 135     3 116 134     3 115 133     4 115 134     3 114 131     2 113 130     2 113 130     3 114 131     5 118 134     6 120 137     1 114 131     1 117 135     3 122 139     4 124 141     5 125 142     5 125 142     4 125 144     4 125 144  
  71 199 208    65 196 206    70 200 213    67 199 212    65 199 213    56 194 210    42 185 199    39 187 201    29 182 195    14 169 181    22 176 190    16 170 183    16 172 185    17 173 185     6 163 175     1 159 170     5 162 173     4 160 172    10 163 175     3 154 168     1 148 162     4 147 163     6 147 164     5 142 160     2 137 156     3 134 152     4 131 148     4 130 145     5 128 144     4 125 142     4 124 140     4 120 139     4 119 137     5 118 136     4 115 134     4 115 134     5 115 133     4 115 132     4 116 132     2 115 131     1 115 131     1 114 132     1 117 134     1 120 137     1 122 139     2 123 140     2 123 142     2 123 142     2 125 143     3 125 144  
  70 198 207    69 197 208    75 203 214    71 201 214    62 195 208    66 199 215    45 186 199    51 195 209    37 185 197    24 175 188    23 175 188    16 169 183    18 174 186    19 175 187     7 165 176     3 161 172     5 163 174     4 162 173     3 158 170     1 151 164     1 147 161     4 147 163     6 147 164     5 142 160     2 137 156     4 135 153     5 132 149     7 130 146     7 128 145     6 126 143     4 124 141     5 120 139     4 119 137     5 118 136     4 115 134     4 115 134     4 115 132     4 115 132     4 117 133     3 116 132     1 116 131     1 114 131     2 122 139     2 122 139     2 123 140     1 122 139     1 121 140     1 122 141     2 125 143     4 127 145  
  73 200 209    73 198 210    74 200 212    70 195 209    60 187 200    65 194 208    47 182 194    56 195 208    46 190 201    37 185 195    35 185 198    23 177 189    20 176 188    23 179 191    16 174 185    12 170 181     9 170 180     5 164 174     1 155 167     1 152 164     1 149 164     5 150 167     8 149 167     5 142 161     1 136 156     2 133 153     7 132 150     8 131 147     7 128 145     6 126 143     3 123 140     4 119 138     2 117 135     3 116 134     4 115 134     3 114 133     1 113 129     1 114 130     3 116 132     5 118 134     3 119 134     1 118 135     3 123 140     2 123 142     2 123 142     1 122 141     1 122 140     1 123 141     2 124 145     4 126 147  
  77 203 212    78 202 212    80 203 214    71 195 207    68 191 204    63 190 203    50 181 193    48 183 195    44 184 194    33 179 189    41 192 203    26 178 191    21 175 187    21 177 189    17 175 186    14 172 183     8 169 179     1 161 171     2 161 172     2 156 168     2 153 168     7 152 169     7 148 166     3 140 159     1 134 154     1 131 151     6 131 149     7 130 146     6 127 144     5 125 142     2 122 139     3 118 137     1 116 134     1 114 132     3 115 133     1 112 130     1 111 127     1 113 129     3 117 133     6 120 136     4 120 135     2 119 136     2 123 140     2 123 142     2 123 142     2 123 142     1 123 141     1 123 141     3 125 146     5 127 148  
  77 201 209    76 200 210    70 192 203    63 185 198    71 194 207    65 190 204    63 192 206    55 188 200    61 197 208    51 193 204    45 196 207    29 182 195    23 177 189    22 178 190    16 173 184    13 170 181     8 167 178     2 159 170     4 160 173     1 155 168     1 150 165     2 148 164     2 143 161     1 137 156     1 135 154     4 135 155     3 129 146     5 128 144     4 126 142     3 124 141     1 121 138     2 118 137     1 116 134     3 116 134     1 114 132     1 112 130     1 113 129     3 116 132     6 121 136     6 122 137     3 119 134     1 115 132     1 122 139     1 123 142     2 125 143     2 124 143     2 125 143     2 124 143     3 125 146     6 127 148  
  76 200 210    71 197 206    62 187 198    66 191 205    70 196 210    64 189 206    65 192 210    68 197 214    68 199 217    55 191 208    39 191 203    20 176 189    23 180 192    24 180 193    10 164 177     9 163 176    15 167 181     8 158 172     6 154 169     1 148 163     1 142 158     1 140 157     3 143 159     5 142 160     1 138 155     2 135 152     2 131 148     4 128 145     5 128 145     5 126 145     3 122 141     1 117 137     1 114 132     2 115 134     1 111 130     2 112 131     1 113 130     1 112 129     2 114 131     5 118 134     4 118 134     1 115 133     4 124 141     5 125 144     5 126 145     4 123 143     1 121 140     1 119 139     1 123 142     5 125 145  
  73 200 209    71 199 209    68 198 210    72 201 215    69 200 215    62 192 210    61 192 212    63 194 213    58 188 210    45 182 201    39 192 205    17 177 189    24 182 194    28 184 197    11 164 177    10 160 175    18 164 179     8 152 167     7 148 165     3 143 160     1 139 154     1 138 154     4 141 157     5 142 158     1 138 154     1 134 150     1 132 147     2 129 146     3 128 146     5 128 146     2 123 142     1 116 136     1 114 133     3 115 135     2 113 132     5 114 134     4 115 132     1 112 129     2 113 130     5 116 133     5 118 134     1 115 133     3 120 138     4 123 143     6 125 145     4 123 143     1 119 139     1 116 136     1 118 138     1 120 140  
  71 199 210    69 200 213    62 197 209    57 194 208    53 192 205    53 191 207    50 191 208    47 187 205    41 181 199    33 179 196    28 182 196    11 169 181    15 171 183    20 173 187     9 159 174     8 154 171    12 154 170     1 142 159     4 144 161     4 141 159     2 139 155     3 139 155     3 139 155     3 139 155     1 137 153     1 135 151     1 130 145     1 127 144     1 126 144     4 127 145     2 123 142     1 117 137     1 115 134     4 116 136     4 117 135     7 118 137     6 119 137     3 116 134     3 116 132     5 118 134     3 119 134     1 116 134     1 118 136     4 121 139     6 123 141     6 123 141     3 120 138     1 117 135     1 116 134     1 117 135  
  67 198 211    63 199 211    55 195 207    44 187 201    39 185 198    42 190 205    40 190 205    32 182 197    23 176 191    23 177 190    15 171 184     3 158 171     4 156 170     8 158 173     5 152 168     6 150 167     8 149 165     3 142 159     2 139 156     4 139 157     6 140 156     6 139 155     2 138 153     3 136 152     1 137 152     3 136 153     1 130 145     1 126 143     1 127 144     4 127 145     3 125 143     1 120 140     2 120 138     7 122 141     4 120 138     7 120 138     5 121 138     6 121 139     6 122 137     5 121 137     4 121 136     3 120 137     2 119 136     4 120 138     5 121 139     4 120 138     2 119 137     1 117 135     1 118 135     1 118 136  
  60 197 209    50 193 206    50 197 208    37 188 200    29 183 196    30 186 199    27 186 199    17 177 191     7 169 182     7 166 179    12 167 180     7 157 170     2 150 164     4 149 164     4 148 164     6 145 163     7 146 161     9 144 161     1 136 152     5 137 154     7 139 154     8 139 154     5 137 152     5 136 151     4 135 151     5 136 152     1 131 147     1 128 145     2 128 145     4 129 147     4 127 145     2 124 143     4 124 141     9 128 145     5 124 141     5 123 141     5 124 140     7 126 142     7 126 142     4 123 139     3 123 139     4 123 139     3 119 136     3 118 136     2 116 134     1 115 133     1 114 132     1 115 133     1 116 134     2 117 135  
  44 188 201    37 186 199    30 183 194    20 176 189    14 172 184    13 173 186    13 176 188     9 171 184     1 163 177     1 155 170     6 157 171     6 151 165     1 143 158     1 140 155     1 139 155     1 135 152     1 133 148     5 136 153     1 131 147     3 131 149     6 133 150     6 134 151     7 135 150     5 133 149     5 132 148     3 131 147     2 130 147     1 128 145     2 127 145     3 128 146     2 127 145     1 124 142     3 125 143     8 129 147     7 128 145     5 125 142     5 126 143     8 128 145     6 127 144     1 121 138     1 121 136     1 121 137     1 116 133     1 115 132     1 113 131     1 113 130     1 113 130     1 114 132     1 113 131     1 114 132  
  30 181 194    28 180 194    19 175 188    15 173 185    10 167 182     8 165 180    10 168 182    10 167 182     1 158 175     1 148 164     2 146 162     5 145 160     2 139 155     1 136 152     3 136 153     1 128 147     1 125 141     5 132 149     2 127 145     3 126 144     4 127 145     6 129 147     8 131 147     8 131 147     6 129 145     1 127 142     3 128 146     1 126 144     1 126 144     2 127 145     1 126 144     1 123 141     2 125 143     7 130 148    10 132 149     7 129 146     4 129 145     8 131 147     5 128 144     1 121 137     1 117 133     1 117 134     1 114 132     1 114 132     2 115 133     3 116 134     4 117 134     3 116 134     1 114 132     1 112 130  
  21 179 191    16 173 188    14 170 185     9 164 179     5 158 174     4 154 171     1 150 167     1 144 162     1 142 160     1 142 159     1 135 151     3 138 152     6 139 154     4 136 151     1 129 146     1 125 143     1 126 144     6 128 146     8 129 146     3 124 141     1 119 136     1 119 136     3 124 140     5 127 142     2 124 139     1 119 136     1 122 140     1 121 139     1 122 140     1 124 142     2 127 145     3 127 145     1 126 144     1 124 142     7 132 150     4 129 147     1 127 144     1 126 144     3 128 146     3 128 146     1 125 143     1 122 139     2 117 135     3 116 134     2 115 133     1 114 132     1 114 132     2 115 133     3 116 134     4 116 134  
  10 172 185     7 164 179     6 161 176     4 155 171     2 150 167     2 146 165     2 142 162     1 136 157     1 133 155     3 135 155     1 132 150     1 128 145     1 126 142     1 124 142     2 126 144     5 125 144     3 123 142     2 120 139     9 125 143     7 123 140     6 121 139     6 120 139     5 121 138     5 122 138     5 122 138     3 122 138     1 120 138     2 123 142     5 125 144     3 125 144     1 124 142     1 123 141     1 125 143     2 127 146     3 130 148     3 130 147     1 128 146     1 128 146     1 127 145     1 125 144     1 125 143     1 123 142     1 116 134     2 115 135     3 117 135     4 117 137     4 118 136     3 116 136     1 115 133     1 113 133  
   6 168 181     5 162 177     5 157 171     3 150 166     4 146 163     5 142 162     5 138 159     4 131 154     4 129 152     8 131 154     5 129 148     1 122 141     1 117 134     1 118 135     3 122 140     7 123 142     5 119 138     1 114 133     8 120 139     8 119 138     8 120 138     7 119 138     5 119 135     5 119 135     5 120 135     6 120 137     2 118 136     3 122 139     5 123 143     2 121 141     1 119 138     1 120 138     1 124 142     4 129 147     1 128 147     2 129 148     3 130 149     1 128 147     1 126 145     1 125 144     1 124 145     3 125 147     4 120 142     4 119 140     2 117 137     2 116 137     2 116 136     1 116 137     2 117 137     3 118 139  
   5 166 178     5 160 174     2 152 166     2 146 162     3 141 159     6 138 158     5 132 154     3 125 149     2 123 145     4 124 146     5 125 145     4 122 140     1 118 136     1 117 135     4 118 136     5 117 136     4 114 134     2 111 131     6 116 133     5 112 131     2 111 129     2 113 130     5 116 132     7 117 134     3 116 130     1 112 129     3 115 134     1 115 134     1 115 134     1 115 134     1 117 137     1 121 140     2 125 143     3 128 146     1 126 145     2 129 148     3 129 150     2 128 149     1 125 146     1 123 144     1 125 147     4 125 149     7 125 147     5 121 144     2 117 140     1 114 136     1 114 136     1 115 138     3 119 141     5 121 143  
   5 161 174     1 153 168     4 152 166     4 145 162     5 140 159     7 138 158     7 132 152     4 125 146     2 121 143     5 122 142     4 121 139     6 121 140     5 121 139     5 118 138     4 115 134     3 112 132     4 111 131     3 110 130     4 111 129     1 105 124     1 103 121     1 106 124     5 112 130     5 115 132     1 110 125     1 105 122     5 116 135     2 113 133     1 111 131     1 114 133     3 119 139     4 124 144     6 129 147     5 130 148     1 128 147     2 129 148     2 128 150     2 128 150     1 126 148     1 126 148     1 126 148     4 126 149     2 121 145     5 121 146     4 121 144     4 120 145     4 119 142     3 119 143     1 117 140     1 116 141  
   4 157 171     2 151 166     4 149 164     4 143 160     5 140 157     8 139 156     8 134 152     4 128 146     3 124 142     7 124 144     1 114 134     3 114 134     4 117 135     6 117 136     5 114 134     4 111 131     2 109 129     1 105 127     1 104 124     1 103 122     1 102 121     1 104 123     3 109 124     2 109 124     1 107 123     1 103 121     4 113 133     3 114 134     3 115 135     1 116 135     2 119 139     3 121 141     4 127 148     5 130 150     3 130 149     2 129 148     1 127 149     2 128 150     4 128 152     4 128 152     5 127 151     4 126 150     2 120 146     3 121 147     5 124 148     4 122 149     4 122 147     2 120 146     1 118 142     1 115 141  
   4 154 169     7 152 168     2 143 160     1 138 154     2 134 151     5 134 149     5 130 147     2 124 142     2 121 138     6 121 139     1 111 131     1 110 129     2 110 129     3 110 130     5 111 131     5 109 130     2 106 127     1 102 124     1 100 119     1 103 122     2 105 124     3 106 125     1 106 123     1 106 123     1 106 123     1 107 125     1 110 130     3 115 135     5 117 138     2 117 137     1 116 136     1 118 138     2 125 145     4 129 148     6 132 151     3 130 149     1 127 148     2 128 150     4 129 151     4 128 151     4 126 150     5 125 150     5 125 150     5 123 148     2 121 145     2 120 146     1 120 143     1 117 143     1 118 142     2 119 145  
   2 151 166     2 144 161     5 144 160     3 137 154     3 131 147     6 131 146     6 128 144     4 122 139     3 119 136     7 120 138     6 114 133     5 111 130     3 108 127     2 106 125     3 105 125     4 105 125     3 103 124     2 102 123     1  98 119     2 102 123     6 107 127     7 108 128     4 107 126     3 106 125     3 108 127     5 112 131     1 108 128     4 115 135     7 119 141     3 118 139     2 118 138     4 123 143     5 128 146     3 128 146     4 130 150     2 128 147     1 127 146     4 129 150     4 129 151     2 125 147     2 124 147     6 126 150     5 124 147     2 121 144     2 121 143     5 124 147     6 122 145     1 117 141     1 116 139     3 119 143  
   1 146 163     2 143 160     3 141 156     3 134 152     3 130 145     8 129 146     7 127 143     5 122 139     3 118 136     5 117 136     8 117 134     8 113 132     4 109 128     4 107 125     4 105 125     3 104 124     2 101 122     1 100 121     1  98 119     2 101 122     5 106 126     5 106 126     3 106 125     1 106 125     1 108 126     4 111 131     1 106 126     2 113 133     6 118 140     5 120 140     4 120 140     3 122 142     3 125 144     2 126 144     1 124 144     1 123 143     1 126 145     6 129 150     6 129 152     4 126 149     2 124 147     5 125 148     2 121 143     3 122 144     4 123 145     7 125 148     6 124 146     1 119 142     1 119 141     4 122 144  
   4 148 164     6 147 164     1 137 153     3 132 151     4 130 145     6 127 144     5 125 141     4 119 137     2 115 133     1 111 130     6 116 133     6 113 131     3 108 127     1 106 125     2 105 124     3 104 124     1 102 122     1 100 121     1  99 120     2 101 122     3 104 124     2 105 124     1 104 123     1 104 123     1 107 125     2 109 129     1 109 129     4 113 134     6 116 139     5 117 139     1 116 137     1 116 136     1 118 138     1 119 138     4 126 147     4 126 147     4 126 147     5 127 148     4 126 149     2 122 146     1 120 144     1 119 143     1 120 142     3 122 144     5 124 146     4 123 145     2 121 143     1 120 142     4 123 144     7 127 149  
   5 145 162     7 144 162     1 133 151     4 131 149     4 127 143     4 124 141     3 120 137     1 116 134     1 112 130     1 107 126     3 113 130     3 110 128     1 106 125     1 105 124     2 105 124     3 104 124     2 103 123     1 102 122     1 101 121     1 101 121     1 103 122     1 103 122     1 103 122     1 104 123     1 106 124     1 107 127     3 112 132     4 113 134     4 114 137     3 115 137     1 114 135     1 114 134     1 116 136     1 120 140     8 127 149     7 128 149     5 126 147     2 122 144     1 120 144     1 120 144     1 119 143     1 117 141     2 121 145     3 122 146     2 121 145     1 119 143     1 117 141     1 120 144     5 125 149     7 129 152  
   2 139 156     2 134 153     1 128 147     2 128 145     3 125 141     1 120 137     1 118 135     4 117 135     2 113 132     1 109 128     4 113 131     4 111 129     1 108 126     1 106 125     1 106 125     3 106 126     2 105 125     2 103 124     3 104 125     2 104 124     1 104 123     1 105 124     1 105 124     1 106 125     1 108 126     1 108 128     2 112 133     2 112 133     4 114 137     6 116 139     4 116 138     2 116 137     4 120 141     9 125 146     4 122 144     5 124 146     4 122 145     1 119 141     1 119 143     3 121 145     3 121 145     1 119 144     3 122 146     3 122 146     1 119 143     1 116 140     1 118 142     2 124 147     5 127 150     3 128 150  
   2 135 152     1 128 147     1 126 143     2 126 144     2 123 140     1 118 136     3 118 136     8 121 139     8 120 138     5 116 135     8 118 137     7 115 135     4 112 132     3 109 129     2 108 129     4 107 129     2 106 127     2 104 126     7 109 131     5 107 129     2 107 128     2 107 128     2 109 129     4 111 131     2 111 131     2 111 131     1 112 132     1 112 132     5 115 138     9 119 142     7 119 141     3 115 137     3 118 139     7 122 143     1 116 140     5 121 144     6 122 145     3 119 142     3 119 144     6 122 147     5 121 146     1 117 142     4 123 147     4 123 147     1 120 144     1 119 143     3 125 148     7 131 153     4 130 152     1 124 145  
   1 131 150     4 130 149     5 129 148     1 123 141     1 118 135     2 119 137     6 121 140     8 121 140     6 119 137     6 116 136    10 121 140     6 115 135     1 110 130     1 108 128     1 108 128     1 106 127     1 106 127     3 107 128     2 106 127     3 107 128     4 111 131     5 111 132     2 110 130     1 110 130     1 111 130     1 112 131     1 111 131     1 113 133     4 115 138     7 119 141     8 120 142     6 118 140     5 118 139     5 118 140     4 116 140     4 118 142     5 119 143     3 118 141     2 118 143     3 119 144     6 122 147     8 123 148     2 121 146     2 121 146     1 120 145     1 121 145     1 125 148     4 129 152     3 131 153     3 130 152  
   1 127 146     3 128 148     5 130 148     3 124 143     1 120 137     4 123 140     6 123 141     4 119 138     3 118 136     6 119 137     6 119 137     3 114 133     1 112 131     3 112 132     2 111 131     1 107 127     1 106 126     2 107 128     2 107 128     4 109 130     5 112 132     5 112 132     2 111 131     1 110 130     1 111 130     1 113 131     1 110 130     1 112 131     1 115 136     4 116 138     5 117 139     5 117 139     4 116 138     4 116 138     3 115 139     4 116 140     2 116 140     1 115 139     1 115 140     1 116 141     4 120 145     7 123 148     2 120 146     2 120 146     1 121 146     1 123 147     1 126 149     1 129 151     1 131 153     3 133 155  
   1 125 142     1 126 144     2 127 145     4 125 144     4 125 142     6 126 143     6 123 141     2 119 137     1 118 136     4 119 138     5 117 137     3 114 134     2 113 133     3 112 133     1 110 131     1 106 128     2 108 130     7 113 135     6 112 134     5 111 133     2 111 132     2 111 132     1 112 132     2 113 133     1 112 132     1 112 132     1 115 132     1 114 132     1 115 135     1 115 136     1 115 136     1 116 137     3 115 137     3 115 137     6 118 142     6 118 142     5 119 143     4 118 142     3 119 144     3 119 144     3 122 146     4 123 147     2 122 147     2 122 147     2 124 148     3 125 149     1 127 150     1 129 151     1 130 152     1 131 153  
   1 127 144     1 128 145     2 127 145     3 125 143     3 124 141     4 124 141     4 124 141     4 122 140     1 120 136     1 116 134     4 119 138     3 115 135     1 112 132     1 112 132     1 109 129     1 108 129     3 112 133    12 119 140     8 115 137     5 112 134     1 109 130     1 109 130     1 112 132     2 113 133     1 113 133     1 112 131     1 121 137     1 120 137     1 118 138     1 117 137     1 117 137     2 117 138     3 118 140     5 118 140     4 117 141     5 117 141     4 118 141     4 118 141     3 119 144     1 120 144     1 120 144     1 120 144     2 122 147     3 123 148     3 125 149     2 126 150     2 128 151     1 129 151     1 129 151     1 129 151  
   1 127 144     2 129 146     4 130 145     2 126 142     1 122 138     1 122 138     4 126 142     6 127 144     1 122 139     1 116 133     2 117 135     1 114 133     2 114 134     6 117 137     6 117 137     4 114 135     4 113 134     6 115 136     7 116 137     4 113 134     1 111 131     1 110 130     1 112 132     1 113 133     1 115 134     1 115 133     1 122 139     1 122 138     1 120 139     1 119 138     1 118 138     1 119 139     4 120 141     5 120 141     2 116 140     1 115 139     1 115 138     1 115 138     1 118 142     1 118 142     1 119 142     1 119 142     3 124 149     4 125 149     3 126 150     2 127 151     1 129 151     1 129 151     1 130 152     1 130 152  
   1 126 143     2 129 146     3 129 144     2 128 143     1 125 140     1 122 138     3 126 142     7 129 145     4 126 143     1 120 137     2 118 136     1 114 133     1 112 132     6 118 138    10 122 142     8 119 139     4 113 134     2 111 132     6 115 136     5 114 135     4 115 135     3 114 134     1 113 133     2 114 134     1 116 135     2 119 137     1 120 136     1 121 136     1 120 138     1 120 138     1 119 138     1 119 139     2 119 139     3 120 140     5 120 144     3 118 142     1 117 139     1 118 140     1 120 144     3 122 146     2 123 146     2 123 146     4 125 150     3 124 150     1 125 150     1 126 150     1 127 152     1 130 153     1 130 154     1 131 155  
   1 127 144     4 129 147     2 127 145     7 130 147     6 129 147     3 126 143     2 125 143     7 128 147     9 130 148     5 126 145    11 128 146     2 117 136     1 109 128     1 113 132     5 117 137     7 119 139     7 117 138     5 116 136     4 115 135     7 118 138     7 119 139     6 118 138     4 116 136     4 116 136     4 119 139     6 123 141     1 120 138     1 120 138     1 120 138     1 120 141     1 119 139     1 120 142     3 120 140     4 120 143     5 121 144     2 118 141     1 116 138     1 116 138     1 120 144     3 123 147     3 125 148     3 125 149     4 126 150     3 124 151     1 125 151     1 125 150     1 126 151     1 129 154     3 131 156     4 132 157  
   4 129 149     8 130 151     7 129 151     8 129 150     8 129 150     7 127 149     6 127 148     4 124 146     4 123 145     3 122 144     4 123 143     3 123 140     1 121 138     1 118 136     1 116 134     1 114 132     1 113 130     1 112 130     2 117 136     3 118 137     3 118 137     3 118 137     5 120 139     7 122 141     3 118 137     1 114 134     1 118 140     2 121 143     5 124 146     6 124 149     6 122 145     4 120 145     5 121 144     7 123 148     2 118 143     1 117 142     1 116 141     1 117 142     1 117 142     1 119 143     1 118 142     1 116 142     2 122 147     4 124 152     3 124 151     1 122 148     1 122 146     1 127 150     5 131 154     6 132 155  
   5 130 152     8 130 153     5 126 150     5 126 150     5 126 150     5 125 148     4 123 147     2 121 146     1 121 145     1 120 141     1 121 140     1 121 139     1 120 138     1 120 138     1 119 137     1 118 136     1 118 136     1 118 136     1 118 136     2 119 137     2 119 137     1 118 136     4 119 138     7 122 141     5 120 139     1 115 136     6 121 145     5 122 147     6 122 147     4 120 145     2 118 143     1 117 142     1 116 141     1 116 141     3 119 144     2 118 143     2 118 143     2 118 143     3 119 144     3 119 144     3 119 144     2 117 145     1 118 143     2 122 149     1 122 149     1 120 147     1 120 145     1 125 149     4 128 152     4 127 151  
   3 129 151     5 129 151     6 129 152     7 129 152     7 129 152     6 127 151     5 126 150     5 124 148     4 123 147     3 122 145     2 123 142     2 123 142     2 121 141     2 121 141     1 120 140     1 120 140     1 119 139     1 119 139     1 118 138     2 119 139     2 119 139     1 117 137     3 118 139     6 121 142     7 122 143     3 118 140     6 122 145     3 119 144     2 117 142     1 116 141     1 117 142     2 118 143     2 117 142     1 116 141     4 120 145     4 120 145     4 120 145     4 120 145     4 120 145     4 120 145     4 120 145     4 120 146     1 118 143     2 122 149     2 123 150     1 121 148     1 121 145     1 122 146     1 123 147     1 122 146  
   3 131 153     7 133 155     2 128 150     3 127 150     3 127 150     3 127 150     2 126 148     3 124 147     2 123 146     1 121 146     3 124 143     2 123 142     3 122 142     2 121 141     1 120 140     1 119 139     1 119 139     1 118 138     1 117 137     3 120 140     3 120 140     1 118 138     2 117 138     6 121 142     7 122 143     5 119 143     3 119 142     1 116 141     1 114 139     1 115 140     2 118 143     4 120 145     5 121 146     3 119 144     1 117 142     3 119 144     4 120 145     3 119 144     1 117 142     1 117 142     2 118 143     3 119 144     1 118 143     3 123 148     4 125 150     1 122 147     1 122 145     1 122 146     1 122 145     1 120 143  
   3 134 154     7 136 157     1 129 151     3 129 151     3 129 151     4 129 151     3 128 150     2 127 149     2 127 149     3 124 148     1 121 140     1 121 140     2 121 141     2 121 141     2 121 141     2 121 141     2 121 141     3 122 142     1 117 137     4 121 141     5 122 142     3 120 140     3 118 139     5 120 141     6 121 142     5 119 143     3 119 142     2 118 143     1 117 142     2 118 143     3 119 144     4 120 145     4 120 145     3 119 144     1 115 140     1 117 142     3 119 144     2 118 143     1 116 141     1 115 140     1 116 141     3 119 144     1 115 141     1 121 146     4 124 149     2 122 147     1 123 147     3 125 149     4 126 149     3 123 147  
   1 133 152     2 133 153     3 134 154     4 133 154     4 133 154     5 132 154     6 132 154     5 131 153     4 130 152     5 130 152     1 124 143     2 123 142     3 122 142     3 122 142     4 123 143     4 123 143     4 123 143     4 123 143     1 116 136     4 121 141     7 124 144     4 121 141     4 119 140     5 120 141     5 120 141     4 118 142     2 117 141     3 119 144     4 120 145     4 120 145     3 119 144     2 118 143     2 118 143     3 119 144     1 114 139     1 117 142     3 119 144     2 118 143     1 115 140     1 114 139     1 116 141     3 119 144     1 118 144     4 122 148     5 123 149     3 121 147     1 121 145     3 122 147     3 122 146     1 120 144  
   2 135 154     1 134 153     2 133 153     1 132 152     1 130 151     2 131 152     5 131 153     4 130 152     3 129 151     4 129 151     6 128 149     6 127 147     6 125 145     5 124 145     4 123 143     3 122 142     2 121 142     1 120 141     1 115 136     4 120 141     6 122 143     4 120 141     4 119 141     5 120 141     4 119 141     3 117 141     1 114 139     1 116 141     3 118 143     3 119 144     2 118 143     2 118 143     2 118 143     4 120 145     1 116 141     2 118 143     3 119 144     3 119 144     1 116 141     1 116 141     1 117 142     4 120 145     6 123 149     7 125 150     6 124 149     3 121 146     1 120 143     1 120 144     1 119 143     2 118 142  
   2 135 154     1 133 152     5 136 156     1 132 152     2 131 152     5 134 155     8 134 156     5 131 153     5 131 153     7 132 154     5 127 148     5 126 147     4 123 145     3 122 144     3 122 144     3 122 144     3 122 144     2 121 143     2 117 140     1 117 140     1 116 139     1 117 140     3 117 141     4 118 142     2 116 140     2 115 139     2 118 143     1 117 142     1 116 141     2 118 143     4 120 145     5 121 146     4 120 145     2 118 143     1 116 141     1 117 142     3 119 144     4 120 145     6 122 147     6 122 147     6 122 147     5 121 146     6 122 147     6 122 147     3 122 146     3 122 146     3 122 146     4 122 146     4 122 144     6 121 145  
   3 135 155     5 136 156     1 132 152     1 132 152     4 133 154     5 134 155     4 130 152     1 126 148     2 128 150     8 133 155     4 126 147     4 125 146     3 122 144     2 121 143     2 121 143     2 121 143     2 121 143     1 120 142     5 121 144     4 120 143     3 119 142     2 118 141     3 117 141     3 117 140     1 115 139     1 113 137     4 120 145     3 119 144     3 119 144     4 120 145     5 121 146     4 120 145     1 117 142     1 115 140     1 113 138     1 115 140     4 120 145     6 122 147     8 124 149     8 124 149     7 123 148     5 122 147     3 119 144     3 120 145     4 121 146     4 121 146     4 121 146     4 120 145     2 118 141     3 117 141  
   5 136 156     5 136 156     2 133 153     2 131 152     3 132 153     6 132 154     3 129 151     1 125 147     1 126 148     5 130 152     4 126 147     3 124 145     2 121 143     2 121 143     2 121 143     2 121 143     1 120 142     1 119 141     1 117 140     1 117 140     1 117 140     2 118 141     5 119 143     5 119 143     4 118 142     3 117 140     2 118 143     3 119 144     4 120 145     5 121 146     5 121 146     3 119 144     1 116 141     1 113 138     1 116 141     2 118 143     4 120 145     7 123 148     8 124 149     8 124 149     7 123 148     6 122 147     2 118 143     3 119 144     3 119 144     3 119 144     3 119 144     3 117 143     2 116 140     3 115 139  
