P3
50 50
255
  48 126 149    49 127 150    50 128 151    48 126 149    47 125 148    44 123 146    45 123 146    45 123 146    40 118 140    50 126 150    50 126 150    48 124 148    53 129 153    53 129 153    47 123 147    46 122 146    55 131 155    49 125 149    43 119 143    45 121 145    52 128 152    58 134 158    57 133 157    53 129 153    47 123 147    55 129 154    48 122 147    55 129 154    44 118 143    56 130 155    57 131 156    67 141 166    69 143 168    58 132 157    58 133 158    63 137 162    60 134 159    61 135 160    64 137 162    62 136 161    60 135 159    59 134 157    61 136 160    65 140 163    62 137 160    56 131 154    58 133 156    66 141 164    64 139 162    63 138 161  
  53 131 154    47 125 148    40 119 142    37 115 138    38 116 139    42 121 143    46 124 147    48 125 148    48 124 148    54 130 154    48 124 148    44 120 144    51 127 151    54 130 154    50 126 150    51 127 151    54 130 154    50 126 150    45 122 145    45 121 145    49 125 149    53 129 153    53 129 153    52 128 152    52 125 150    54 128 153    54 128 153    55 129 154    51 125 150    53 127 152    53 127 152    55 129 154    60 134 159    57 131 156    64 138 163    65 140 165    55 129 154    53 127 152    60 134 159    64 138 163    67 142 165    67 142 166    67 142 165    66 141 164    62 137 160    61 136 159    64 139 162    68 143 166    63 138 161    62 137 160  
  47 125 148    44 122 145    42 120 143    42 120 143    44 122 145    44 122 145    42 120 143    40 118 141    51 127 151    51 127 151    42 118 142    39 115 139    48 124 148    53 129 153    50 126 150    53 129 153    46 122 146    45 121 145    46 122 146    46 122 146    46 122 146    47 123 147    47 123 147    47 123 147    51 125 150    48 122 147    56 130 155    53 127 152    62 136 161    56 130 155    59 133 158    57 131 156    59 133 158    55 129 154    60 134 159    63 137 162    57 131 156    57 131 156    60 134 159    57 131 156    61 136 159    66 141 164    66 141 164    61 136 159    60 135 158    65 140 163    68 143 166    68 143 166    65 140 163    66 141 164  
  46 124 147    47 125 148    45 123 146    42 120 143    40 118 141    38 116 139    40 119 142    43 121 144    45 121 145    44 120 144    36 112 136    37 113 137    48 124 148    51 127 151    48 124 148    51 126 151    40 116 140    44 120 144    49 125 149    52 128 152    51 127 151    49 125 149    48 124 148    47 123 147    53 127 152    46 120 145    54 128 153    50 123 148    63 137 162    52 126 151    58 132 157    56 130 155    60 133 158    54 128 153    58 132 157    62 135 160    60 135 160    63 137 162    63 137 162    54 128 153    53 128 151    60 135 158    62 137 160    59 134 157    59 134 157    65 140 164    66 141 165    63 138 161    62 137 161    66 141 163  
  40 119 142    45 123 146    48 126 149    44 122 145    38 116 139    36 114 137    39 117 140    44 122 145    43 119 143    43 119 143    39 114 139    41 117 141    52 128 152    51 127 151    46 122 146    50 126 150    39 115 139    44 120 144    50 126 150    54 130 154    54 130 154    52 128 152    50 126 150    48 124 148    54 128 153    48 122 147    52 126 151    54 128 153    61 135 160    54 128 153    59 134 159    64 138 163    50 124 149    54 128 153    63 137 162    64 138 163    55 130 155    58 132 157    64 138 163    61 135 160    58 133 156    62 137 160    65 140 164    64 139 162    65 140 163    67 142 165    65 140 163    61 136 159    65 140 164    66 141 164  
  37 115 138    41 119 142    46 124 147    47 125 148    44 122 145    42 120 143    44 122 145    46 124 147    45 121 145    46 122 146    43 119 143    46 122 146    52 128 152    47 124 147    44 119 144    50 126 150    44 120 144    44 120 144    47 123 147    49 125 149    50 126 150    50 126 150    48 124 148    47 123 147    48 122 147    48 122 147    49 123 148    61 135 160    57 131 156    58 132 157    58 132 157    69 143 168    44 118 143    48 122 147    58 132 157    58 132 157    51 125 150    55 129 154    63 137 162    59 133 158    64 139 162    62 137 160    63 138 161    67 142 164    68 143 166    64 139 163    63 138 161    64 139 162    69 144 167    68 143 166  
  46 124 147    43 121 144    38 116 139    36 114 137    40 117 141    45 123 146    51 129 152    54 132 154    49 125 149    48 124 148    45 121 145    46 122 146    50 126 150    46 122 146    42 118 142    46 122 146    51 127 151    49 125 149    48 124 148    48 124 148    49 125 149    49 125 149    49 125 149    49 125 149    48 122 147    51 125 150    48 122 147    58 132 157    50 124 149    54 128 153    49 123 148    56 130 155    48 122 147    47 121 146    51 125 150    52 126 151    53 127 152    59 133 158    61 135 160    54 128 153    61 136 159    58 133 156    59 134 157    64 139 162    66 141 164    64 139 162    63 138 161    66 141 164    68 143 166    65 140 163  
  38 116 139    39 117 140    39 117 140    38 116 139    38 116 139    40 118 141    43 121 144    43 121 144    48 124 148    46 122 146    45 121 145    46 122 146    49 125 149    49 125 149    47 123 147    44 120 144    49 125 149    47 123 147    49 125 149    49 125 149    47 123 147    44 120 144    46 122 146    50 126 150    51 125 150    52 126 151    50 124 149    48 122 147    53 127 152    60 134 159    59 133 158    53 127 152    57 131 156    58 132 157    60 134 159    61 135 160    60 134 159    59 133 158    60 134 159    61 135 160    61 136 159    63 138 161    62 137 160    61 136 159    63 138 161    67 142 165    66 141 164    63 138 161    72 147 170    65 140 163  
  37 115 138    37 116 138    37 115 138    37 115 138    38 116 139    38 116 139    41 119 142    43 121 144    41 117 141    43 119 143    45 122 145    45 121 145    43 119 143    43 119 143    45 121 145    47 123 147    43 119 143    44 120 144    46 122 146    48 125 148    47 123 147    45 121 145    48 124 148    54 130 154    46 120 145    45 119 144    45 119 144    47 121 146    50 123 148    52 126 151    53 127 152    55 129 154    60 134 159    61 135 160    62 136 161    61 136 161    61 135 160    60 134 159    61 135 160    61 135 160    70 145 168    67 142 165    62 137 160    58 133 156    62 137 160    68 143 166    69 144 167    66 141 164    70 145 168    66 141 164  
  42 120 144    36 114 137    31 109 132    35 113 136    41 119 142    42 120 143    40 118 141    38 116 139    44 120 144    45 121 145    44 120 144    41 117 141    37 113 137    37 113 137    41 117 141    45 121 145    45 122 145    40 116 140    39 115 139    44 120 144    51 127 151    51 127 151    49 125 149    48 125 148    50 124 149    46 120 145    46 120 145    50 124 149    50 124 149    46 120 145    49 123 148    57 131 156    56 130 155    57 131 156    58 132 157    58 132 157    57 131 156    58 132 157    59 133 158    61 135 160    65 140 164    65 140 163    65 140 163    65 140 163    69 144 167    72 147 170    69 144 167    61 136 160    66 141 164    68 143 166  
  35 113 136    38 116 139    43 121 144    43 121 144    35 113 136    30 108 131    37 115 138    48 126 149    46 122 146    43 119 143    39 115 139    36 112 136    36 112 136    39 115 139    42 118 142    45 121 145    43 119 143    41 117 141    43 119 143    46 123 146    48 124 148    46 122 146    45 122 145    47 123 147    52 127 152    48 122 147    47 121 146    51 124 149    51 125 150    47 121 146    50 124 149    59 133 158    54 127 152    54 129 154    55 129 154    57 130 155    57 131 156    59 133 158    62 136 161    64 138 163    55 130 153    58 133 156    60 135 158    62 137 160    66 141 164    69 144 167    63 138 161    55 130 154    61 136 159    65 140 163  
  42 120 143    38 115 139    38 116 139    41 119 142    40 118 141    36 114 137    38 116 139    45 123 146    38 114 138    39 115 139    39 115 139    40 116 140    41 117 141    43 120 143    46 122 146    48 124 148    37 113 137    44 120 144    51 127 151    51 127 151    43 119 143    37 113 137    42 118 142    51 127 151    49 123 148    47 121 146    45 119 144    47 121 146    50 124 149    52 126 151    56 130 155    58 132 157    50 124 149    51 125 150    52 126 151    53 127 152    54 128 153    57 130 155    60 134 159    63 137 162    61 136 159    63 138 161    63 138 161    60 135 158    61 136 159    65 140 163    66 141 163    63 138 161    67 142 165    67 142 165  
  44 122 145    39 117 140    39 117 140    44 122 145    42 120 143    36 114 137    39 117 140    47 125 148    31 107 131    39 115 139    47 123 147    49 125 149    47 123 147    44 120 144    45 121 145    47 123 147    43 119 143    42 118 142    44 120 144    47 123 147    47 123 147    44 120 144    42 118 142    44 120 144    53 127 152    52 126 151    48 122 147    45 119 144    50 124 149    58 132 157    59 133 158    55 129 154    53 127 152    54 128 153    55 129 154    55 129 154    55 129 154    58 132 157    61 135 160    64 138 163    65 140 163    69 144 167    69 144 167    64 139 162    61 136 159    63 138 161    65 140 163    66 141 164    72 147 170    71 146 169  
  41 119 142    40 119 142    42 120 143    43 121 144    42 120 143    39 117 140    41 119 142    43 121 144    39 116 139    41 118 142    43 121 144    46 123 147    49 126 149    49 127 150    46 124 147    41 119 142    50 128 151    43 121 144    43 120 143    51 128 152    53 130 153    47 124 147    44 122 145    49 125 149    49 124 148    52 127 150    53 128 152    51 126 149    49 124 147    51 126 149    54 129 152    55 130 153    48 122 146    58 133 157    56 131 155    54 129 152    62 137 160    62 137 161    59 134 158    63 138 161    62 137 159    66 141 162    67 142 163    64 139 161    61 136 157    60 135 157    61 136 158    63 138 160    72 147 168    61 136 158  
  42 120 143    44 122 144    45 123 146    45 124 147    45 123 146    42 120 143    40 118 141    38 116 139    48 126 149    46 124 147    43 121 144    39 117 140    41 119 142    43 121 144    40 118 141    33 111 134    45 124 147    40 118 141    40 118 141    46 124 147    46 124 147    41 119 142    41 119 142    48 123 148    43 118 141    47 122 145    50 125 148    51 126 149    51 126 149    52 127 150    57 132 155    61 136 159    52 127 150    60 135 158    58 133 156    57 132 154    63 138 161    66 141 164    62 137 160    63 138 161    62 137 158    64 139 160    66 141 162    66 141 162    64 139 160    64 139 160    66 141 162    68 143 164    71 146 167    59 134 155  
  34 110 134    36 112 136    41 117 141    44 120 144    44 120 144    42 119 142    40 116 140    39 115 139    48 124 148    47 123 147    43 119 143    37 113 137    36 112 136    38 114 138    39 115 139    36 112 136    41 117 141    40 116 140    39 115 139    39 115 139    39 114 139    39 115 139    40 116 140    41 117 141    46 121 144    45 120 143    45 120 143    46 121 144    47 122 145    48 123 146    49 124 147    51 126 149    58 133 156    52 127 150    52 127 150    54 129 152    54 129 152    60 135 158    63 138 161    54 129 152    58 133 154    60 135 156    61 136 157    62 137 158    61 136 157    62 137 157    62 137 158    64 139 160    67 142 162    59 134 155  
  35 111 135    33 109 133    33 109 133    35 111 135    38 114 138    38 114 138    35 111 135    31 107 131    38 114 138    41 117 141    40 117 140    38 115 138    39 115 139    43 120 143    45 121 145    44 120 144    43 119 143    45 121 145    42 118 142    37 113 137    36 112 136    39 115 139    40 116 140    38 114 138    50 125 148    47 122 145    44 119 142    45 120 143    47 122 145    49 124 147    48 123 146    47 122 145    61 136 159    47 122 146    48 123 146    53 128 151    49 124 147    56 131 155    61 136 160    51 126 149    60 135 156    60 135 156    60 135 156    60 135 156    59 134 155    59 134 155    59 134 155    59 134 155    62 137 158    61 136 156  
  41 117 141    36 112 136    31 107 131    32 108 132    38 114 138    40 116 140    36 112 136    32 108 132    36 112 136    39 115 139    40 116 140    40 116 140    42 118 142    44 120 144    43 119 143    39 115 139    46 122 146    46 122 146    44 120 144    40 116 140    39 115 139    40 116 140    40 116 140    39 115 139    49 124 147    47 122 145    46 121 144    48 123 146    52 127 150    54 129 152    53 128 151    51 126 149    62 137 160    50 125 148    50 125 148    55 130 153    54 129 152    58 133 156    62 137 160    55 130 153    63 138 159    62 137 158    62 137 158    63 138 159    65 140 161    65 140 161    66 141 162    65 140 161    60 135 156    63 138 159  
  33 109 133    31 107 131    30 107 130    33 109 133    37 113 137    41 116 141    40 117 140    40 116 140    36 112 136    37 113 137    38 114 138    38 114 138    40 116 140    42 118 142    37 113 137    31 107 131    45 121 145    41 117 141    41 117 141    43 119 143    43 119 143    40 115 140    40 115 140    43 119 143    44 119 142    43 118 141    45 120 142    46 121 145    48 123 146    49 124 147    47 122 145    45 120 143    50 125 149    48 123 146    47 122 145    52 127 150    57 132 155    55 130 153    53 128 152    57 132 155    61 136 156    60 135 156    59 134 155    61 136 157    65 140 161    66 141 162    66 141 162    66 141 161    58 133 155    62 137 158  
  27 103 127    32 108 132    35 111 135    35 111 135    30 107 130    28 104 128    29 105 129    32 108 132    34 110 134    33 109 133    32 108 132    34 110 134    41 117 141    45 122 145    41 117 141    34 110 134    43 119 143    36 112 136    38 114 138    47 123 147    47 124 147    41 117 141    41 117 141    48 124 148    33 108 131    35 110 134    41 116 139    46 121 144    49 124 147    50 125 149    51 126 149    52 127 150    41 116 140    48 123 146    46 121 144    50 125 148    59 134 158    54 129 152    48 123 146    59 134 157    63 138 159    61 136 157    60 135 156    61 136 157    64 139 160    65 140 161    64 139 160    62 137 158    55 130 151    57 132 153  
  37 111 136    36 110 135    30 103 128    28 103 128    38 112 137    39 113 138    34 108 133    35 109 134    38 112 137    32 106 131    30 104 129    35 109 134    40 114 139    41 115 140    40 114 139    40 114 139    41 115 140    42 117 142    40 114 139    37 111 136    39 113 138    43 117 142    42 116 141    36 110 135    45 120 143    41 116 139    40 115 139    45 120 144    49 124 147    49 124 147    48 123 146    50 125 148    39 114 137    52 127 150    39 114 137    44 119 142    62 137 160    63 138 161    62 137 160    57 132 155    55 130 151    65 140 160    69 144 165    63 138 159    62 137 158    66 141 162    67 142 163    62 137 158    63 138 159    62 137 158  
  36 110 135    39 113 138    35 109 134    34 108 133    41 115 140    40 114 139    36 110 135    39 113 138    36 110 135    33 107 132    34 108 133    37 111 136    40 114 139    38 112 137    37 111 136    40 114 139    37 111 136    40 114 139    41 115 140    39 113 138    40 114 139    43 117 142    42 116 141    39 113 138    45 120 143    43 118 141    45 120 143    50 125 148    52 127 150    48 123 146    44 119 142    43 118 141    47 122 145    53 128 151    43 118 141    46 121 144    51 126 149    53 128 151    63 138 161    58 133 156    63 138 159    68 143 164    65 140 161    56 131 152    54 129 150    62 137 158    66 141 162    65 140 161    61 136 157    60 135 156  
  32 106 131    36 110 135    33 107 132    32 106 131    38 112 137    36 110 135    31 105 130    35 109 134    34 108 133    35 109 134    38 112 137    40 114 139    39 113 138    35 109 134    35 109 134    39 113 138    40 114 139    42 116 141    42 116 141    39 113 138    36 110 135    36 110 135    37 111 136    37 111 136    41 116 139    38 113 136    39 114 137    44 119 142    47 122 145    46 121 144    46 121 144    48 123 146    57 132 155    56 131 154    51 126 149    55 130 153    48 123 146    51 126 149    66 141 164    58 133 156    56 131 152    60 135 156    59 134 155    55 130 151    56 131 152    61 136 157    65 140 161    63 138 159    61 136 157    60 135 156  
  35 107 132    37 110 135    33 105 130    33 105 130    40 113 138    39 112 137    32 105 130    34 107 132    34 106 131    36 109 134    40 113 138    42 115 140    39 111 136    34 106 131    35 107 132    40 113 138    38 111 136    39 111 136    38 111 136    37 110 135    35 108 133    36 109 134    42 114 139    47 119 144    47 122 144    43 118 142    43 118 140    44 119 142    45 120 143    44 119 142    46 121 143    50 125 147    56 131 154    51 126 149    49 124 147    59 134 157    52 127 150    51 126 149    62 137 160    47 122 145    56 131 152    59 134 155    61 136 157    60 135 156    60 135 156    60 135 156    56 131 152    52 127 148    58 133 155    57 132 153  
  38 110 135    41 113 138    37 109 134    36 108 133    42 114 139    40 112 137    35 107 132    37 109 134    35 107 132    36 108 133    40 112 137    42 114 139    38 110 135    34 106 131    36 108 133    41 113 138    42 114 139    39 111 136    37 109 134    38 110 135    38 110 135    40 112 137    45 117 142    52 124 149    39 114 137    40 115 138    45 120 143    50 125 148    50 125 148    46 121 144    43 118 141    45 120 143    48 123 146    47 122 145    45 120 143    58 133 156    57 132 155    53 128 151    57 132 155    46 121 144    63 138 159    63 138 159    62 137 158    62 137 158    62 137 158    62 137 158    59 134 155    57 132 153    62 137 158    61 136 157  
  34 106 131    42 114 139    41 113 138    36 108 133    37 109 134    32 104 129    33 105 130    41 113 138    36 108 133    36 108 133    38 110 135    40 112 137    38 110 135    35 107 132    37 109 134    41 113 138    45 117 142    40 112 137    36 108 133    39 111 136    40 112 137    38 110 135    39 111 136    42 114 139    30 105 128    34 109 132    41 116 139    49 124 147    49 124 147    44 119 142    43 118 141    44 119 142    42 117 140    50 125 148    43 118 141    52 127 150    58 133 156    50 125 148    54 129 152    58 133 155    60 135 156    58 133 154    58 133 154    60 135 156    63 138 159    66 141 162    65 140 161    65 140 161    64 139 160    63 138 159  
  31 104 129    42 114 139    44 117 142    39 112 137    34 107 132    30 102 127    34 107 132    44 117 142    37 110 134    36 107 132    36 108 133    38 110 135    38 110 135    36 108 133    37 109 133    40 112 137    37 109 134    35 107 132    34 106 130    35 107 132    37 110 134    38 110 135    38 110 134    37 109 133    39 114 137    40 115 138    43 118 141    45 120 143    44 119 142    42 117 140    42 117 140    45 120 142    39 114 138    48 124 147    42 117 140    46 121 144    53 128 151    48 123 146    52 129 152    63 138 161    56 131 152    56 131 152    58 133 154    62 137 158    64 139 160    63 138 159    60 135 157    57 132 153    59 134 155    59 134 155  
  31 105 130    35 109 134    38 112 137    38 112 137    35 109 134    34 108 133    37 111 136    41 115 140    39 111 135    37 109 133    37 109 133    39 111 135    40 112 136    37 109 133    37 109 133    39 111 135    40 112 136    45 117 141    43 115 139    36 108 132    35 107 131    41 113 137    41 113 137    36 108 132    37 112 135    38 113 136    40 115 138    41 116 139    42 117 140    43 118 141    44 119 142    43 118 141    44 120 143    45 121 144    47 123 146    50 126 149    52 129 151    55 132 154    58 136 158    62 138 161    51 127 148    57 132 153    61 136 157    61 136 157    62 137 158    64 139 160    62 137 158    58 133 154    66 141 162    59 134 155  
  33 107 132    34 108 133    35 109 134    35 109 134    35 108 133    34 108 133    35 109 134    36 110 135    36 108 132    35 106 131    35 107 131    38 110 134    39 111 135    37 109 133    38 110 134    40 113 137    41 113 137    45 117 141    43 115 139    37 109 133    36 108 132    41 113 137    41 113 137    36 108 132    40 113 137    41 114 138    41 116 139    42 117 140    43 118 141    42 117 140    41 116 139    40 115 139    47 123 145    48 124 147    48 124 147    48 124 147    46 125 146    48 126 148    53 131 153    58 134 157    53 130 150    58 133 154    60 135 156    57 132 153    56 131 152    59 134 155    61 136 157    61 136 157    62 137 158    56 131 151  
  33 107 132    31 105 130    30 104 129    31 105 130    33 107 132    34 108 133    32 106 131    32 104 129    36 108 132    33 105 129    34 106 130    37 109 133    38 110 134    36 108 132    36 108 132    39 111 135    42 114 138    44 116 140    43 115 139    39 111 134    38 109 134    40 112 136    40 112 136    36 108 132    45 117 142    46 118 142    43 118 141    43 118 141    44 119 142    44 119 142    44 119 142    44 119 142    52 129 152    51 127 150    50 126 149    49 125 148    48 126 148    48 126 148    48 126 148    49 125 148    52 127 148    57 132 153    58 133 154    54 129 150    52 127 148    54 129 150    58 133 154    59 134 155    47 122 143    61 136 157  
  33 105 129    31 103 127    30 102 126    34 106 130    39 111 135    42 114 137    41 113 137    39 111 135    39 111 135    37 107 132    37 107 132    40 110 135    39 109 134    37 107 132    37 107 132    39 109 134    42 112 137    42 112 137    42 112 137    40 110 135    39 109 134    40 110 135    39 109 134    37 107 132    45 117 141    43 115 139    41 113 137    40 112 136    41 113 137    43 115 139    45 120 143    47 122 145    43 118 141    41 116 139    40 116 139    44 120 143    51 127 150    54 130 153    50 126 149    46 122 145    54 129 150    59 134 155    60 135 157    57 132 153    55 130 151    57 132 153    58 133 154    57 132 153    50 125 145    66 141 162  
  37 109 133    36 107 131    34 105 130    34 105 130    36 108 132    37 108 132    35 106 130    33 104 129    42 112 137    39 109 134    39 109 134    42 112 137    41 111 136    39 109 134    38 108 133    41 111 136    39 109 134    40 110 135    40 110 135    39 109 134    39 109 134    39 109 134    38 108 133    37 107 132    44 116 140    43 115 139    40 112 136    40 111 136    40 112 136    43 115 139    44 119 142    46 121 144    45 120 143    44 119 142    43 119 142    46 122 145    51 127 150    52 128 151    50 127 150    47 123 146    53 128 149    56 131 152    55 130 151    54 129 150    54 129 150    57 132 153    55 130 151    50 125 146    55 130 151    54 129 150  
  36 106 131    36 106 131    36 106 131    36 106 131    37 107 132    37 107 132    37 107 132    37 107 132    38 108 133    36 106 131    36 106 131    40 110 135    40 110 135    38 108 133    38 108 133    41 111 136    36 106 131    36 106 131    37 107 132    39 109 134    39 109 134    38 108 133    37 107 132    37 107 132    40 112 136    41 113 137    40 112 136    40 112 136    40 112 136    40 112 136    38 113 136    38 113 136    45 120 143    47 122 145    48 123 146    47 122 145    45 121 144    46 122 145    51 127 150    56 132 155    57 132 153    56 131 152    52 127 148    51 126 147    54 129 150    58 133 154    55 130 151    49 124 145    49 124 145    51 126 147  
  34 103 126    35 103 127    37 106 130    40 108 132    39 107 131    34 103 126    33 101 125    34 102 126    29  97 123    32 100 125    35 103 129    38 106 131    36 104 129    35 103 128    36 104 130    39 107 133    37 105 131    35 103 129    33 101 127    33 101 127    35 102 128    36 104 130    37 105 130    37 105 131    40 111 136    40 110 135    41 111 136    41 112 137    39 111 135    37 109 133    38 111 135    41 114 138    43 116 140    44 117 141    43 118 141    42 117 140    42 117 140    44 120 143    50 125 148    55 130 153    51 126 148    56 131 151    55 130 151    51 126 147    53 128 150    59 134 155    58 133 154    51 126 147    50 125 147    52 127 148  
  30  98 120    30  98 120    32 100 123    36 104 127    37 105 128    34 103 126    35 103 126    39 107 130    33 100 126    35 102 128    38 105 131    39 106 132    37 104 130    36 103 129    36 103 129    37 104 130    32  99 125    38 105 131    42 109 135    38 105 131    30  97 123    29  96 122    36 103 129    44 111 137    41 111 136    39 109 134    40 110 135    41 111 136    39 111 135    37 109 133    39 111 135    44 116 140    42 114 138    46 118 142    48 123 146    51 126 149    49 124 147    45 120 143    42 117 140    39 114 137    48 123 144    56 131 152    58 133 154    54 129 150    53 128 149    59 134 155    61 136 157    56 131 152    54 129 150    50 125 146  
  32  98 122    30  96 120    31  97 121    33  99 123    33  99 123    33  99 123    37 103 127    42 108 132    37 104 129    35 102 128    34 101 127    35 102 128    37 104 130    38 105 131    37 104 130    36 103 129    36 103 129    35 102 128    34 101 127    35 102 128    36 103 129    38 105 130    38 105 131    38 105 131    39 109 134    37 107 132    38 108 133    40 110 135    39 109 134    38 108 133    39 111 135    44 116 140    43 115 139    45 117 141    44 119 143    46 121 144    46 121 144    46 121 144    46 121 144    48 123 145    51 126 147    57 132 153    59 134 154    53 128 149    52 127 148    56 131 152    57 132 153    56 131 152    52 127 148    52 127 148  
  30  96 120    28  94 118    29  95 119    32  98 122    32  98 122    31  97 121    35 101 125    39 105 129    33 100 125    29  96 122    27  94 120    29  96 122    35 102 128    38 105 130    37 104 130    34 101 127    34 101 127    33 100 126    33 100 126    36 103 129    40 107 133    42 109 135    41 108 135    40 108 134    40 109 134    37 107 132    37 107 132    40 109 135    41 111 136    40 110 135    40 112 136    44 115 140    40 112 136    42 114 138    44 118 141    46 120 143    47 121 144    48 122 145    49 124 147    50 125 148    56 131 151    56 131 152    53 128 149    49 124 145    51 126 146    55 130 151    53 128 149    49 124 145    50 125 146    56 131 152  
  27  93 117    27  93 117    30  96 120    34 100 124    35 101 125    33  99 123    34 100 124    37 103 127    34 101 127    30  97 123    28  95 121    30  97 123    35 102 128    37 104 130    35 102 128    32  99 125    31  98 124    34 101 127    38 105 131    38 105 131    38 105 131    39 106 132    44 111 137    47 114 140    42 109 135    39 106 132    40 107 133    44 111 137    43 113 138    42 112 137    41 111 136    43 113 138    36 108 132    40 112 136    47 119 143    50 122 146    51 123 147    50 122 146    46 121 144    44 119 142    56 131 152    53 128 149    49 124 145    49 124 145    54 129 150    57 132 153    55 130 151    50 125 146    55 130 151    53 128 149  
  33  98 121    32  97 120    34  99 122    36 102 124    35 100 123    31  96 118    30  95 117    31  97 121    35 102 128    33 100 126    32  99 125    34 101 127    36 103 129    37 104 130    35 102 128    32  99 125    39 106 132    33 100 126    28  96 122    32  99 125    40 107 133    44 111 137    42 110 136    38 105 131    40 107 133    38 105 131    39 106 132    45 112 138    45 115 140    42 112 137    38 108 133    38 108 133    38 110 134    39 111 135    40 112 136    41 113 137    43 115 139    46 118 142    50 123 147    54 127 150    53 128 149    53 128 149    52 127 148    53 128 149    53 128 150    54 129 150    53 128 149    53 128 149    53 128 149    48 123 144  
  30  95 117    32  94 117    32  97 119    37  99 122    35 100 122    34  97 119    34  99 121    38 103 125    31  97 122    32  98 122    34 100 124    36 102 126    39 105 129    39 105 129    38 104 128    37 103 127    37 103 128    37 103 127    35 101 125    34  99 124    33  99 123    34 100 124    36 104 128    39 105 130    38 106 129    36 103 129    39 107 130    45 112 138    47 115 138    41 111 136    36 106 131    33 103 128    39 111 135    42 114 138    44 116 140    45 117 141    44 117 140    43 115 139    43 115 139    42 114 139    51 126 147    55 130 151    58 133 154    56 131 152    49 124 145    44 119 140    45 120 141    49 124 145    44 119 140    48 123 144  
  32  93 118    36  96 122    39 101 126    40 100 126    37  98 124    36  96 122    36  98 123    39 101 124    33  94 116    41 103 124    35  97 118    33  95 115    42 104 124    39 101 122    31  96 116    39 104 124    33  97 117    34  99 119    34  99 119    32  96 116    32  97 117    36 101 121    33 100 119    29  94 114    32  98 120    35 101 125    36 102 124    36 102 126    41 107 129    45 113 136    42 110 133    35 103 126    37 108 130    33 104 126    33 105 127    39 112 134    42 117 139    42 117 140    43 118 141    47 122 145    35 111 134    40 116 139    42 118 141    43 119 142    44 120 144    47 124 147    47 123 146    44 120 143    41 117 140    57 133 156  
  36  96 121    38  98 123    40 100 125    38  97 123    33  93 118    30  90 115    31  90 116    33  93 117    33  93 114    32  92 111    30  90 110    32  92 112    38  98 118    39  99 118    35  97 115    33  95 114    31  93 112    31  94 112    29  92 110    27  90 108    28  93 111    34  99 117    36 100 119    35  99 119    35 100 120    36 101 123    33  99 121    31  97 119    34 100 122    38 104 126    35 103 126    30  98 121    38 109 131    34 105 127    32 104 126    36 108 130    38 113 136    40 115 138    43 118 141    47 122 145    40 116 139    40 116 139    39 115 138    39 115 138    43 120 143    47 123 146    45 121 144    40 116 139    49 125 148    58 134 157  
  30  88 111    32  90 114    33  91 114    32  90 114    30  88 111    29  87 111    31  89 112    33  91 114    37  95 116    27  85 105    29  87 107    32  90 110    30  88 108    34  92 112    35  96 115    27  88 107    33  94 113    31  92 111    27  90 108    25  88 106    27  90 108    31  94 112    34  97 115    35  97 118    32  97 117    32  97 119    29  95 117    29  95 117    32  98 120    35 101 123    34 102 125    32 100 123    38 109 131    35 106 128    34 106 128    37 109 131    38 113 136    41 116 139    44 119 142    46 121 144    45 121 144    45 121 144    43 119 142    43 119 142    48 124 147    54 130 153    54 130 153    50 126 149    51 127 150    54 130 153  
  29  86 107    30  87 110    30  88 108    30  86 110    29  86 106    28  85 108    28  86 106    29  86 107    32  89 109    23  81 101    29  86 106    31  88 108    23  81 101    30  87 107    40  99 119    36  95 115    35  94 114    33  92 112    29  90 109    29  91 109    29  91 110    30  92 110    30  92 111    30  92 113    28  93 113    28  93 115    29  95 117    32  98 120    36 102 124    38 104 126    36 104 127    36 104 127    36 106 128    37 108 130    38 110 132    41 113 135    42 117 140    45 120 143    45 120 143    43 118 141    40 116 139    44 120 143    45 121 144    42 118 141    45 121 143    50 126 149    55 131 154    55 131 154    49 125 148    53 129 152  
  29  86 106    30  87 107    31  88 108    33  89 110    33  90 110    32  89 109    32  89 109    32  89 109    33  89 109    31  88 108    34  91 111    32  89 109    24  81 101    26  83 103    35  93 113    37  95 115    33  91 111    31  89 109    30  91 110    34  94 114    35  96 115    34  94 114    33  94 113    32  94 114    32  97 118    32  97 119    34  99 122    38 104 126    40 106 128    38 104 126    36 104 127    37 105 128    34 105 127    39 110 132    42 114 136    44 117 139    46 121 144    48 123 146    45 120 143    41 116 139    43 119 142    49 125 148    52 128 151    48 124 147    45 121 144    48 124 147    54 130 153    57 133 156    53 129 152    57 132 155  
  26  81 101    28  83 103    31  86 106    35  90 110    37  92 112    37  92 112    35  90 110    33  88 109    35  90 111    40  94 118    37  91 115    34  88 112    33  89 112    29  85 108    26  82 105    31  87 110    31  89 111    29  87 109    30  88 110    36  94 116    37  98 119    36  97 118    35  96 117    37  98 119    36 101 123    34  99 121    35 101 123    39 104 127    38 104 126    35 101 123    34 102 125    37 105 128    35 106 128    39 110 132    42 114 136    43 114 137    44 119 142    48 123 146    46 121 144    40 115 138    41 118 140    45 121 144    46 122 145    43 120 143    42 118 141    45 121 144    49 125 148    50 125 149    56 132 154    52 128 151  
  30  85 105    31  86 106    32  87 107    33  88 108    31  86 106    30  85 105    28  83 103    27  82 103    27  82 103    34  89 113    33  87 111    33  88 112    41  97 120    37  93 116    30  87 110    34  91 113    32  90 112    31  89 111    32  91 113    36  95 116    36  97 118    35  95 117    35  96 117    38  99 120    36 101 123    34  99 121    33  99 121    35 102 124    36 102 124    36 102 124    36 104 127    38 106 129    37 108 130    41 112 134    40 112 134    40 112 134    42 117 141    45 120 143    46 121 144    46 121 144    47 123 146    51 126 150    51 126 150    49 125 148    51 127 151    57 133 156    59 135 158    56 132 156    52 128 151    47 123 146  
  30  85 105    30  85 105    30  85 105    28  83 103    27  82 102    28  83 103    32  87 107    36  91 112    32  89 110    33  89 112    34  90 113    35  91 114    36  92 115    36  93 116    36  94 116    35  93 115    34  92 114    34  94 115    34  95 116    33  94 115    33  94 115    34  95 116    36  97 118    38  99 120    35 100 122    36 101 123    34 100 122    35 101 123    38 104 126    43 109 131    40 108 131    35 103 126    39 110 132    42 113 135    38 110 132    40 112 134    43 118 141    41 116 139    43 118 141    55 130 153    49 125 148    52 128 151    51 127 150    49 125 148    52 128 151    59 135 158    60 136 159    56 132 155    52 128 151    52 128 151  
  30  86 106    28  85 105    26  83 103    29  85 105    33  90 110    37  93 113    39  95 115    38  94 115    36  94 116    36  93 117    35  92 116    34  92 115    35  92 116    35  94 117    36  96 119    37  96 120    41 100 123    34  96 118    29  91 113    28  90 112    32  93 116    36  98 120    40 102 124    40 104 126    34  99 121    38 103 125    38 104 126    37 103 125    38 104 126    42 108 130    42 110 133    40 108 131    37 108 130    42 113 135    40 112 134    42 114 136    44 119 142    40 115 138    40 115 138    50 125 147    53 129 152    51 127 150    49 125 148    50 126 149    51 127 150    52 128 151    53 129 152    52 128 151    57 133 156    54 130 153  
  32  89 109    31  87 109    29  87 107    32  88 110    36  93 113    38  94 117    37  94 114    34  92 114    40  98 122    39  98 122    37  97 121    36  96 119    36  96 119    37  97 121    38  98 122    38 100 123    35  96 120    34  96 119    33  95 118    36  98 121    38 103 125    42 106 128    42 107 129    40 105 127    36 101 123    42 107 129    44 109 132    41 107 129    39 105 127    42 108 130    45 113 136    45 114 137    40 112 134    47 117 139    45 117 139    45 117 139    46 121 144    44 119 142    43 118 141    50 125 148    58 134 157    51 127 150    49 125 148    53 129 152    54 129 153    49 125 148    49 125 148    53 129 152    51 127 150    51 127 150  
