P3
50 50
255
 225 244 238   224 243 237   224 243 237   225 241 238   226 241 238   225 240 237   225 240 237   224 240 237   223 239 236   221 240 236   220 239 235   220 241 236   220 241 236   217 240 234   216 239 233   214 237 231   209 235 229   204 233 228   198 232 228   191 232 226   183 230 225   172 226 222   160 224 220   148 218 216   140 216 214   132 210 210   121 200 204   111 192 196   106 188 194   106 189 197    98 182 192    98 181 191    97 179 190    98 179 190    95 173 185    93 169 183    94 170 184    94 170 184    92 169 185    89 168 183    87 169 183    87 169 183    81 164 178    82 164 180    85 166 184    87 168 187    87 168 187    85 166 185    83 164 183    83 164 183  
 227 244 238   227 244 238   226 243 237   226 241 238   228 240 238   228 240 238   225 240 237   225 240 237   223 239 236   223 239 236   223 239 236   221 240 236   221 241 236   219 240 235   217 238 233   215 236 231   211 235 229   205 233 228   200 231 228   192 230 225   183 229 224   172 225 222   161 223 220   149 217 216   141 217 217   134 212 214   120 200 204   109 190 195   105 187 194   108 191 198    95 179 189    95 179 189    96 178 189    99 179 190    96 175 186    94 170 184    95 171 185    92 168 182    91 168 184    88 165 181    88 167 182    85 167 181    79 161 176    75 156 175    80 161 180    86 167 186    85 166 185    81 162 181    80 160 180    84 164 184  
 231 243 239   230 243 239   230 242 238   229 241 237   229 241 237   229 241 237   228 240 236   227 241 236   225 240 235   225 240 235   226 241 236   223 240 234   221 239 233   220 239 233   219 240 233   217 238 231   214 235 231   208 232 228   201 231 226   193 229 225   184 229 225   174 227 223   164 225 223   149 218 216   138 213 213   127 207 209   121 203 207   115 198 205   107 191 199   100 185 194   108 196 205    94 181 190    91 174 184    98 179 190   101 181 192    97 174 188    95 173 186    94 170 184    90 166 182    93 169 186    87 166 181    87 169 183    87 169 183    84 166 182    86 167 185    85 166 185    86 167 186    86 167 186    82 163 182    85 167 185  
 232 243 239   232 243 239   232 243 239   231 242 238   231 242 238   230 241 237   230 241 237   229 241 237   226 240 236   226 241 236   226 241 236   224 240 235   223 240 234   221 239 233   220 239 233   218 237 231   215 235 231   210 232 229   202 231 226   195 230 226   186 229 225   175 227 224   165 225 223   150 218 217   139 214 214   128 208 209   120 201 206   113 196 203   106 190 200   102 186 196   103 190 199    98 184 194    97 180 191    96 177 188    92 172 183    94 172 185    97 174 187    93 169 183    90 167 183    94 171 187    88 167 182    87 167 182    88 170 185    86 166 185    86 167 186    85 166 185    86 167 186    86 167 186    82 163 182    84 165 184  
 233 244 240   232 243 239   232 243 239   232 243 239   231 242 238   231 242 238   230 242 238   230 242 238   227 242 237   227 242 237   227 242 237   224 240 235   223 240 234   221 239 233   220 239 233   218 237 231   215 236 230   210 234 229   203 232 227   195 230 226   187 230 226   175 228 224   165 226 224   150 218 217   140 215 215   130 210 212   120 202 206   111 195 201   106 190 199   105 189 199   102 189 198    99 185 194    97 181 191    94 176 187    91 171 182    91 169 182    93 170 184    92 168 182    92 169 184    96 173 189    89 168 183    87 167 182    89 171 185    87 168 184    87 168 187    84 165 184    86 166 186    85 166 185    80 161 180    82 164 182  
 233 244 240   233 244 240   232 243 239   233 244 240   232 243 239   232 243 239   231 243 239   230 242 238   228 243 238   228 243 238   228 243 238   225 240 235   223 240 234   221 240 234   220 239 233   218 237 231   215 236 232   211 235 231   204 233 228   195 231 227   187 230 226   175 228 224   165 226 224   149 217 215   139 215 214   132 212 214   122 204 209   111 195 202   105 189 198   104 188 198   103 190 199    94 180 189    91 174 185    96 177 188    98 178 189    92 170 183    88 165 178    91 167 181    93 170 185    96 173 189    89 169 184    87 167 181    89 170 186    88 169 187    87 168 187    83 164 183    84 165 184    84 165 184    79 160 179    81 162 181  
 235 244 241   234 243 240   234 243 240   233 244 240   233 244 240   233 244 240   232 243 239   231 243 239   229 243 238   228 243 238   228 243 238   226 242 236   224 241 235   221 240 234   220 239 233   218 237 231   215 236 230   211 236 231   204 233 228   196 232 228   187 230 226   175 228 224   164 227 224   146 217 214   139 215 214   134 214 216   123 207 211   112 197 203   104 189 198   101 185 195    98 185 194    92 178 187    89 173 183    93 176 186    98 178 189    94 172 185    89 166 180    91 167 181    94 170 186    95 172 188    90 169 184    86 166 181    88 170 184    88 170 186    87 168 187    82 163 182    83 164 183    84 165 184    79 160 179    81 162 181  
 235 244 241   235 244 241   235 244 241   233 244 240   233 244 240   233 244 240   232 243 239   231 243 239   230 244 239   228 243 238   229 244 239   226 242 236   224 241 235   221 240 234   220 239 233   218 237 231   215 236 231   212 236 232   205 235 230   197 232 228   187 230 226   175 227 224   163 226 223   147 217 214   139 215 214   133 213 215   123 207 211   114 199 205   105 189 198    99 183 193    91 178 187    95 180 190    95 178 188    91 172 183    92 172 183    95 173 186    94 172 185    93 169 183    93 170 185    92 169 185    90 169 184    85 165 180    86 168 183    88 169 188    86 167 186    81 162 181    82 163 182    85 166 185    80 161 180    82 163 182  
 235 244 241   235 244 241   235 244 241   233 244 240   233 244 240   233 244 240   232 243 239   231 243 239   229 243 238   228 243 238   230 245 240   227 243 237   225 242 236   222 240 234   220 239 233   218 237 231   215 236 230   212 237 231   203 234 229   194 232 227   185 231 226   174 228 224   163 225 222   150 220 218   140 217 217   130 211 213   121 204 209   113 198 204   104 191 199    99 186 195    93 180 189    96 182 192    94 178 188    88 171 181    89 170 181    95 173 186    95 173 186    95 171 185    92 168 184    89 166 182    90 169 184    84 164 179    84 166 180    88 169 185    85 166 185    80 161 180    82 163 182    86 167 186    82 163 182    83 164 183  
 236 245 242   235 244 241   235 244 241   233 244 240   233 244 240   232 243 239   232 243 239   231 243 239   228 243 238   228 243 238   230 245 240   227 243 237   225 242 236   222 240 234   220 239 233   218 237 231   215 236 231   212 236 232   203 234 229   194 232 227   185 231 226   173 227 223   162 225 222   154 224 221   141 218 218   128 209 210   117 201 205   112 197 203   106 192 201   101 188 197   100 187 197    95 182 191    90 173 183    90 170 181    95 175 186    94 172 185    91 168 182    97 173 187    91 168 183    86 163 179    90 169 184    84 164 178    82 164 179    87 168 186    85 166 185    80 161 180    83 164 183    86 167 186    83 164 183    84 165 184  
 238 244 242   238 244 242   236 244 241   234 245 241   234 245 241   234 245 241   232 244 240   231 243 239   229 243 238   228 243 238   229 244 239   226 242 236   224 241 235   222 240 234   221 240 234   219 238 232   214 237 230   209 236 230   203 234 229   195 233 228   185 231 226   172 227 223   161 225 221   148 218 215   142 219 219   132 213 215   116 199 203   106 192 198   102 189 197    96 183 192    93 180 189    96 182 191    98 182 192    96 179 190    95 175 186    89 167 180    84 161 175    87 163 177    92 169 184    92 169 185    84 164 179    82 162 176    84 166 180    83 164 181    83 164 183    84 165 184    84 165 184    83 164 183    82 163 182    83 164 183  
 238 244 242   238 244 242   237 243 241   236 244 241   234 245 241   234 245 241   232 244 240   231 243 239   229 243 238   228 243 238   229 244 239   226 242 236   224 241 235   221 240 234   220 239 233   219 238 232   214 237 232   209 236 232   203 235 230   195 233 228   186 232 227   172 227 223   160 225 221   144 218 214   137 215 214   129 210 211   115 198 203   105 191 197   101 187 196    98 185 194    95 182 191    96 182 191    96 179 189    95 176 187    95 175 186    91 169 182    87 165 178    89 165 179    89 165 181    89 166 182    88 167 182    87 167 182    85 167 182    82 163 181    83 164 183    85 166 185    84 165 184    81 162 181    80 161 180    81 162 181  
 238 244 242   238 244 242   237 244 242   234 245 241   234 245 241   234 245 241   232 244 240   231 243 239   229 243 238   228 243 238   228 243 238   226 242 236   224 241 235   221 240 234   220 239 233   218 237 231   215 237 230   210 237 231   203 235 230   195 233 228   185 232 227   171 228 223   160 225 221   145 219 215   134 213 212   125 207 208   115 201 204   106 193 199   101 189 197   102 191 199    96 183 192    95 181 190    93 177 187    91 173 184    94 174 185    94 172 184    92 169 182    92 168 182    86 163 178    86 163 179    90 169 184    91 170 185    86 168 182    80 162 178    82 164 182    88 169 188    87 168 187    84 165 184    83 164 183    84 165 184  
 238 244 242   238 244 242   238 244 242   236 244 241   234 245 241   234 245 241   232 244 240   231 243 239   229 243 238   228 243 238   228 243 238   226 242 236   224 241 235   221 240 234   220 239 233   218 237 231   215 237 232   210 237 232   203 235 230   195 233 228   184 232 226   171 228 223   159 224 220   148 221 218   134 214 212   125 207 208   118 203 207   108 195 201   101 189 197   104 192 200    94 181 190    93 179 188    92 175 186    92 173 184    94 174 185    94 172 185    93 171 184    94 170 184    87 163 179    85 162 178    87 166 181    89 169 183    85 166 182    79 160 178    82 163 182    89 170 189    90 171 190    88 169 188    87 168 187    89 171 189  
 240 244 243   239 243 242   239 244 242   236 244 241   234 245 241   234 245 241   232 244 240   231 243 239   229 243 238   228 243 238   228 243 238   225 241 235   224 241 235   221 240 234   220 239 233   218 237 231   214 236 230   210 237 231   202 235 230   194 234 228   184 232 226   170 227 222   158 223 219   149 222 218   134 214 213   122 206 206   115 201 205   105 193 198    97 186 194   100 189 197    91 178 187    91 177 187    91 175 185    91 174 185    94 174 185    92 170 184    90 168 181    93 169 183    88 165 181    85 162 178    83 162 177    83 162 177    83 165 179    79 161 177    82 163 182    88 169 188    89 170 189    86 167 186    85 166 185    86 167 186  
 240 244 243   240 244 243   239 244 242   236 244 241   234 245 241   234 245 241   232 244 240   231 243 239   229 243 238   228 243 238   228 243 238   225 240 235   223 240 234   221 239 233   219 238 232   218 237 231   214 236 231   210 237 232   202 235 230   193 233 227   183 230 224   169 226 221   156 222 218   145 218 215   133 213 211   119 203 204   110 196 200   102 190 195    96 185 192    95 184 192    89 176 185    90 176 185    91 174 184    91 172 183    93 173 184    90 169 182    88 166 179    91 167 181    90 166 182    86 163 179    81 160 175    80 160 175    83 164 180    81 162 181    82 163 182    84 165 184    84 165 184    82 163 182    78 160 178    77 158 177  
 240 244 243   240 244 243   239 244 243   236 244 241   234 245 241   234 245 241   232 244 240   231 243 239   229 243 238   228 243 238   228 243 238   225 240 235   223 240 234   221 239 233   219 238 232   217 236 230   213 236 229   208 237 230   201 235 228   192 232 226   182 229 224   167 225 220   155 221 217   143 217 213   133 212 211   120 204 204   106 194 197   102 191 196   100 188 196    95 184 192    91 178 187    90 176 185    88 172 182    86 168 179    89 170 181    90 168 181    88 165 179    89 165 179    88 165 180    86 163 179    84 163 178    84 164 178    85 167 181    82 163 179    80 161 180    80 161 180    81 162 181    83 164 183    81 161 181    78 159 178  
 240 244 243   240 244 243   240 245 243   236 244 241   234 245 241   234 245 241   233 244 240   232 243 239   230 242 238   228 243 238   227 242 237   225 240 235   223 240 234   221 239 233   219 238 232   217 236 230   214 236 229   208 236 230   200 233 227   192 232 226   181 229 223   167 224 219   154 220 217   142 217 214   135 215 214   123 207 209   109 195 199   107 196 201   106 196 203   101 189 198    94 180 189    91 175 185    86 169 179    84 165 176    88 167 179    90 168 181    88 166 179    87 164 179    86 163 179    86 163 179    87 166 181    88 167 182    88 169 185    82 163 182    78 159 178    78 159 178    83 164 183    88 169 188    88 169 188    86 167 186  
 240 246 244   240 246 244   240 246 244   237 243 241   235 244 241   235 244 241   233 244 240   232 243 239   230 242 238   228 243 238   226 241 236   223 240 235   221 240 234   220 240 234   219 240 233   216 237 230   212 235 228   207 234 229   200 233 227   192 232 226   180 229 226   167 226 223   155 222 220   139 214 214   128 208 209   118 202 206   112 198 204   107 194 201   101 188 195    98 182 192    95 177 188    92 174 186    91 172 184    90 169 182    92 171 184    94 173 186    92 171 186    86 165 180    90 169 184    92 171 188    86 165 182    81 161 177    87 166 183    92 172 191    81 162 181    75 157 175    83 164 183    84 165 184    80 161 180    82 163 182  
 240 246 244   240 246 244   240 246 244   237 243 241   237 243 241   235 244 241   233 243 240   232 243 239   231 242 238   230 242 238   226 241 236   223 240 235   221 240 234   220 240 234   218 239 232   215 238 230   211 235 228   206 233 227   198 231 226   190 230 224   178 228 224   165 224 221   153 221 220   139 216 215   130 210 213   119 202 207   112 198 204   107 194 201   103 188 195   100 182 193    97 176 189    95 175 188    94 173 186    91 171 183    90 169 182    90 169 184    88 167 182    87 166 181    87 165 182    89 168 185    87 165 182    83 162 179    84 163 180    79 160 178    77 158 177    80 161 180    82 163 182    77 158 177    76 157 176    82 163 182  
 240 246 244   240 246 244   240 246 244   237 243 241   237 243 241   235 244 241   233 243 240   232 243 239   231 242 238   228 243 238   225 242 236   223 240 235   221 240 234   220 240 234   218 239 232   214 237 229   210 234 227   205 232 225   197 231 223   189 229 223   177 227 223   163 222 219   150 219 218   140 216 218   130 213 215   119 204 207   111 197 203   107 194 201   103 189 196   100 185 192    95 177 188    97 175 189    95 174 187    92 171 185    88 167 180    85 164 179    85 164 179    88 167 182    85 163 180    86 165 182    87 166 183    83 162 179    81 160 177    76 156 175    78 159 178    85 166 185    84 165 184    81 162 181    80 162 180    84 164 184  
 240 246 244   240 246 244   240 246 244   237 243 241   237 243 241   235 244 241   233 243 240   232 243 239   231 242 238   230 242 238   226 241 236   223 240 235   221 240 234   220 240 233   218 239 232   213 237 229   208 234 226   204 232 226   197 230 225   188 228 222   176 225 222   162 221 218   148 218 217   139 218 218   129 212 215   117 202 207   110 196 201   105 192 199   102 188 195   100 182 193    98 177 190    96 175 188    94 173 186    91 170 183    87 166 179    84 163 178    85 164 179    88 167 182    86 165 182    86 165 182    86 165 182    83 162 179    80 159 176    79 159 178    80 161 180    79 160 179    80 161 180    84 165 184    84 165 184    78 158 178  
 240 246 244   240 246 244   240 246 244   237 243 241   237 243 241   235 244 241   233 243 240   232 243 239   231 242 238   228 243 238   226 243 237   223 240 235   221 240 234   219 240 233   217 238 231   212 236 228   208 234 226   204 233 226   196 231 225   187 228 224   175 227 222   160 222 218   147 218 216   137 215 215   127 210 212   115 200 204   107 194 199   103 190 197   101 186 193    98 183 190    96 178 189    95 174 187    91 170 183    87 166 180    86 165 178    86 165 180    87 166 181    88 167 182    90 169 185    88 167 184    85 164 181    83 162 179    82 161 178    81 161 179    80 161 180    77 158 177    75 156 175    78 159 178    79 160 179    74 155 174  
 240 246 244   240 246 244   240 246 244   237 243 241   237 243 241   235 244 241   233 243 240   232 243 239   231 242 238   230 242 238   227 242 237   224 241 235   221 240 234   218 239 232   216 237 230   212 235 227   207 234 225   202 234 226   196 231 225   187 228 224   173 226 221   158 222 217   146 217 215   135 213 213   125 207 211   114 199 204   106 193 200   103 190 197   101 186 193    98 180 191    98 177 189    94 173 186    90 169 182    86 166 178    86 165 178    88 167 182    88 167 182    88 167 182    90 169 186    88 167 184    84 163 180    83 162 179    83 162 179    82 162 181    86 167 186    88 169 188    82 163 182    77 158 177    79 160 179    87 168 187  
 240 246 244   240 246 244   240 246 244   237 243 241   237 243 241   235 244 241   233 243 240   232 243 239   231 242 238   228 243 238   226 243 237   224 241 235   221 240 234   218 239 232   216 237 230   211 235 227   206 233 224   200 233 225   192 231 223   182 228 222   170 225 221   156 220 218   143 216 215   132 211 212   123 205 209   114 199 205   108 195 202   105 192 200   101 186 196    98 182 192    95 177 189    94 173 186    92 171 184    88 167 181    87 166 179    86 165 180    85 165 180    86 165 180    87 166 182    84 163 180    85 164 181    85 164 181    82 161 178    83 163 182    86 167 186    90 171 190    89 170 189    81 162 181    81 162 181    92 173 192  
 240 246 244   240 246 244   240 246 244   237 243 241   237 243 241   235 244 241   233 243 240   232 243 239   231 242 238   230 242 238   227 242 237   224 241 235   221 240 234   218 239 232   216 237 230   211 234 227   205 232 226   198 232 225   190 230 223   181 227 221   168 224 219   154 218 216   141 214 213   131 210 211   122 206 209   114 201 206   109 196 204   107 194 203   103 188 198    99 183 193    94 176 188    95 175 188    94 173 186    91 170 183    87 166 179    84 163 178    84 163 178    86 165 180    83 162 178    81 160 177    85 164 181    88 167 184    81 160 177    78 158 177    73 155 173    75 156 175    83 165 183    82 163 182    76 157 176    80 161 180  
 241 247 245   240 245 244   239 245 243   239 245 243   238 244 242   234 243 240   234 243 240   233 244 240   231 242 238   226 241 236   224 241 235   221 239 233   219 238 232   217 238 231   216 237 230   211 235 227   206 235 226   199 235 227   188 230 223   175 223 219   161 219 213   152 219 215   140 215 213   127 209 210   118 203 205   109 197 201   106 195 201   106 193 202   101 188 197    96 180 190    98 179 192    96 175 188    92 171 184    92 170 184    92 171 184    91 170 185    88 167 182    87 166 181    90 169 185    84 163 180    77 156 173    79 158 175    87 166 183    81 162 180    73 153 173    78 160 178    84 165 184    86 167 186    87 168 187    79 160 179  
 241 247 245   240 245 244   239 245 243   239 245 243   238 244 242   234 243 240   234 243 240   233 244 240   231 242 238   228 240 236   224 239 234   221 239 233   219 238 232   217 238 231   216 237 230   211 235 227   204 233 226   195 232 224   186 228 221   176 224 220   163 221 215   152 219 215   137 212 211   127 209 211   119 206 210   109 199 204   107 195 202   105 192 201    99 186 195    93 178 188    95 177 189    94 173 186    93 172 185    92 171 184    91 170 183    88 167 182    85 164 179    86 165 180    86 165 182    81 160 177    78 157 174    81 160 177    85 164 181    85 165 183    78 159 178    80 161 180    83 164 183    84 165 184    87 168 187    82 163 182  
 241 247 245   240 245 244   239 245 243   239 245 243   238 244 242   234 243 240   234 243 240   233 244 240   231 242 238   226 241 236   223 240 234   221 239 233   219 238 232   217 238 231   215 236 229   210 234 226   202 232 225   191 229 221   183 227 220   175 226 221   161 221 217   150 218 217   134 211 211   127 211 212   120 208 210   112 200 205   107 196 203   103 192 200    97 184 194    91 175 186    92 174 186    93 172 185    93 172 185    91 170 183    88 167 180    84 163 178    82 161 176    86 165 180    83 162 178    79 158 175    80 159 176    84 163 180    84 163 180    86 167 185    83 163 183    81 162 181    83 164 183    84 165 184    87 168 187    84 165 184  
 241 247 245   240 245 244   239 245 243   239 245 243   238 244 242   234 243 240   234 243 240   233 244 240   231 242 238   228 240 236   224 239 234   221 239 233   219 238 232   216 237 230   214 235 228   209 233 225   202 231 224   190 228 222   182 227 221   174 226 220   160 220 216   150 219 217   135 212 212   126 211 212   120 207 211   111 200 207   106 195 203   102 191 199    96 184 193    92 176 187    93 175 187    94 173 185    92 171 184    89 168 181    86 165 178    83 162 177    82 161 176    85 164 179    84 163 180    81 160 177    82 161 178    85 164 181    86 165 182    85 165 184    82 163 182    81 162 181    82 163 182    85 166 185    87 168 187    85 166 185  
 241 247 245   240 245 244   239 245 243   239 245 243   238 244 242   234 243 240   234 243 240   233 244 240   231 242 238   226 241 236   223 240 234   221 238 232   218 237 231   216 236 229   213 234 227   208 232 224   201 231 224   191 231 222   180 227 218   170 224 218   158 220 215   149 220 218   138 216 216   125 208 211   116 204 208   109 199 205   105 194 202   102 191 200    97 184 194    94 178 189    96 178 190    95 174 187    90 169 182    86 165 178    84 163 176    85 164 179    84 163 178    83 162 177    86 165 182    85 164 181    83 162 179    85 164 181    88 167 184    81 161 180    79 160 179    80 161 180    83 164 183    86 167 186    85 166 185    85 166 185  
 241 247 245   240 245 244   239 245 243   239 245 243   238 244 242   234 243 240   234 243 240   233 244 240   231 242 238   228 240 236   224 239 234   221 238 232   218 237 231   216 236 229   213 234 227   207 231 223   200 231 223   191 231 223   179 226 220   168 222 216   157 219 214   150 221 218   139 218 217   122 206 208   113 201 207   107 197 204   103 193 201   101 189 199    97 185 195    96 180 191    96 178 190    95 174 187    90 169 182    85 164 177    83 162 175    86 165 180    85 164 179    82 161 176    87 166 182    86 165 182    83 162 179    85 164 181    88 167 184    78 158 176    77 158 177    78 159 178    81 162 181    85 166 185    82 163 182    84 165 184  
 241 247 245   240 245 244   239 245 243   239 245 243   238 244 242   234 243 240   234 243 240   233 244 240   231 242 238   226 241 236   223 240 234   221 238 232   218 237 231   215 235 228   212 233 226   207 231 223   199 229 222   187 228 220   177 226 219   168 224 218   157 220 215   148 221 218   137 216 215   119 205 207   111 200 204   107 197 203   102 192 200   100 188 198    96 183 193    95 179 190    92 174 186    93 172 185    90 169 182    85 164 177    83 162 175    85 164 179    84 163 178    81 160 175    83 162 178    83 162 179    84 163 180    86 165 182    86 165 182    78 158 177    79 160 179    78 159 178    78 159 178    82 163 182    80 161 180    84 165 184  
 241 247 245   240 245 244   239 245 243   239 245 243   238 244 242   234 243 240   234 243 240   233 244 240   231 242 238   228 240 236   224 239 234   221 238 232   217 237 232   214 236 231   211 234 228   204 230 224   195 229 221   182 225 217   175 225 217   168 225 219   158 221 216   148 220 217   134 213 212   119 204 206   111 200 204   107 197 203   102 192 200    98 187 196    95 182 192    93 177 188    88 170 182    91 170 183    90 169 182    87 166 179    84 163 178    84 163 178    83 162 177    79 158 174    79 158 175    80 159 176    85 164 181    88 167 184    84 163 180    80 160 179    84 164 184    77 159 177    76 157 176    80 161 180    79 160 179    85 166 185  
 240 246 244   240 246 244   240 246 244   237 245 242   235 244 241   233 242 239   233 242 239   233 243 239   230 241 239   226 241 238   224 240 237   220 239 235   216 238 233   212 236 231   207 234 227   200 231 223   191 229 221   182 228 219   174 226 218   166 224 218   156 222 216   144 218 214   132 214 212   119 206 207   109 198 201   106 197 202   105 195 201    98 187 193    93 181 188    92 176 186   101 183 195    98 180 194    90 172 186    80 162 176    78 160 174    81 163 177    81 162 179    80 161 178    79 160 177    79 160 179    80 161 180    80 162 180    80 161 180    78 159 178    79 160 179    81 162 181    82 163 182    82 163 182    79 160 179    77 158 177  
 240 246 244   240 246 244   240 246 244   237 245 242   235 244 241   233 242 239   233 242 239   233 242 239   231 241 239   228 240 238   224 240 237   219 238 235   215 237 234   210 236 231   204 233 228   199 231 225   190 229 222   181 227 220   173 225 219   165 223 217   155 221 215   142 217 213   131 213 211   119 206 207   108 197 200   104 195 200   103 193 198    97 186 192    92 180 187    91 175 185    97 179 191    96 178 192    90 172 186    82 164 178    80 162 176    80 161 178    80 161 177    80 161 178    79 160 178    79 160 179    80 161 180    80 162 180    80 161 180    78 159 178    80 161 180    82 163 182    83 164 183    84 165 184    84 165 184    83 164 183  
 240 246 244   240 246 244   240 246 244   237 245 242   235 244 241   233 242 239   233 242 239   233 243 239   230 241 239   226 241 238   224 240 237   219 238 235   215 237 234   210 236 231   203 234 228   197 231 224   189 228 220   181 227 218   172 226 217   163 223 216   153 219 216   142 216 213   130 211 210   119 206 207   107 197 198   101 192 195   100 190 196    97 186 192    93 181 189    88 175 184    92 176 187    91 173 187    88 170 184    83 166 180    83 165 179    79 160 177    77 158 175    81 162 179    79 160 179    79 160 179    80 161 180    80 162 180    80 161 180    80 161 180    81 162 181    82 163 182    82 163 182    83 164 183    83 164 183    83 164 183  
 240 246 244   240 246 244   240 246 244   237 245 242   235 244 241   233 242 239   233 242 239   233 243 239   230 241 239   228 240 238   224 239 236   219 238 235   214 236 233   210 236 231   203 234 228   197 231 224   189 228 221   180 226 219   171 224 218   163 223 216   152 219 215   139 215 211   128 210 208   119 206 206   108 197 200   100 191 196    97 188 193    96 185 191    94 182 190    90 175 185    91 173 187    88 170 184    85 167 181    83 165 179    84 166 180    80 161 178    77 158 175    81 162 179    79 160 179    80 161 180    81 162 181    80 162 180    80 161 180    82 163 182    83 164 183    81 162 181    79 160 179    78 159 178    78 159 178    78 159 178  
 240 246 244   240 246 244   240 246 244   237 245 242   235 244 241   233 242 239   233 242 239   232 243 239   230 241 239   226 241 238   222 239 236   218 238 234   213 237 233   207 236 231   202 233 227   196 230 223   187 228 219   178 227 217   170 225 216   162 222 215   152 219 214   137 214 210   126 209 207   117 206 206   107 198 199   101 192 195    97 187 193    95 184 192    95 182 191    91 175 185    91 173 185    87 169 183    83 165 179    82 164 178    84 166 180    82 164 180    80 161 177    81 162 179    79 160 179    80 161 180    81 162 181    81 162 181    81 162 181    83 164 183    83 164 183    81 162 181    79 160 179    78 159 178    78 159 178    78 159 178  
 240 246 244   240 246 244   240 246 244   237 245 242   235 244 241   233 242 239   233 242 239   232 243 239   230 241 239   226 241 238   222 238 235   217 237 233   212 236 232   206 235 230   201 232 226   196 230 223   187 228 220   178 226 219   170 225 218   161 223 215   150 219 214   137 214 210   126 209 207   114 203 203   106 197 200   101 192 197    96 186 192    94 182 191    96 181 191    91 175 186    90 172 186    88 170 184    84 166 180    82 164 178    84 166 180    83 164 181    81 162 179    81 162 179    80 161 179    80 161 180    81 162 181    82 163 182    81 162 181    81 162 181    82 163 182    81 162 181    81 162 181    82 163 182    83 164 183    85 166 185  
 240 246 244   240 246 244   240 246 244   237 245 242   234 245 241   232 243 239   232 243 239   232 243 239   230 241 239   226 241 238   221 238 235   216 237 233   212 236 232   206 235 230   200 233 226   193 229 222   186 228 220   178 228 220   168 226 218   160 222 217   150 219 214   137 214 211   126 209 208   110 199 200   104 195 198   102 193 199    95 184 193    90 179 187    92 180 188    90 175 184    87 169 181    89 171 185    88 170 184    85 166 181    84 166 180    83 164 181    81 162 179    82 163 180    80 161 180    80 161 180    81 162 181    82 163 182    81 162 181    80 161 180    80 161 180    81 162 181    81 162 181    83 164 183    84 165 184    85 166 185  
 240 246 244   240 246 244   240 246 244   237 245 242   234 245 241   232 243 239   232 243 239   232 243 239   228 242 239   226 241 238   221 238 235   216 237 233   212 236 232   206 235 230   200 233 226   193 229 222   186 228 220   177 228 221   169 226 221   160 224 218   149 220 214   137 214 211   125 209 209   108 196 197   102 193 197   102 192 200    93 183 191    88 176 184    91 176 186    89 173 184    84 166 180    90 172 186    92 174 188    88 170 184    84 166 180    82 163 180    81 161 178    82 163 180    80 161 180    80 161 180    82 163 182    82 163 182    81 162 181    80 161 180    80 161 180    80 161 180    80 161 180    80 161 180    79 160 179    79 160 179  
 239 245 243   238 244 242   237 245 242   235 245 241   234 245 241   234 245 241   232 243 239   230 242 238   226 240 237   223 239 236   220 240 236   215 237 232   207 234 230   202 233 227   199 232 225   194 230 223   188 231 223   179 232 223   168 227 219   159 223 217   149 220 217   136 214 212   121 206 206   113 203 204   107 198 200   102 193 199    97 187 195    92 180 190    91 176 186    86 170 181    84 166 180    85 167 181    78 160 174    75 157 171    86 168 182    86 167 184    78 160 176    80 161 178    79 160 179    78 159 178    76 157 176    75 156 175    76 157 176    79 160 179    75 156 175    78 158 178    83 164 183    81 162 181    76 156 176    78 159 178  
 239 245 243   238 244 242   237 245 242   234 244 241   233 244 240   233 244 240   232 243 239   229 241 237   226 240 237   222 238 235   219 239 235   215 237 232   207 234 230   202 233 227   199 232 225   194 230 223   187 231 223   176 230 222   166 226 219   157 223 216   148 220 217   134 215 212   122 208 207   111 200 203   103 193 198   100 189 198    96 184 193    92 179 189    91 176 186    87 171 182    85 167 181    86 168 182    81 163 177    80 162 175    84 166 180    82 163 180    75 156 173    77 158 175    79 160 179    80 161 180    77 158 177    76 157 176    80 161 180    78 159 178    76 157 176    78 159 178    82 163 182    84 165 184    82 163 182    83 164 183  
 239 245 243   238 244 242   237 244 242   233 244 240   232 244 240   232 244 240   230 243 239   229 241 237   225 239 236   222 238 235   219 239 234   213 237 232   208 235 230   203 233 227   197 232 225   193 231 223   186 230 222   173 229 221   164 226 218   155 221 217   147 219 216   134 214 212   122 208 209   109 198 201   100 190 195    97 187 195    93 182 191    90 178 188    90 176 186    87 171 182    88 170 184    85 167 181    84 166 180    84 166 180    83 165 179    79 159 177    75 156 173    77 158 175    81 162 180    82 163 182    79 160 179    77 158 177    81 162 181    76 157 176    77 158 177    79 160 179    80 161 180    83 164 183    85 165 185    84 165 184  
 239 245 243   238 244 242   236 244 241   233 244 240   232 244 240   231 243 239   230 242 238   228 240 236   225 239 235   222 238 235   219 238 234   213 237 232   208 235 230   203 233 227   199 232 225   194 230 223   185 230 222   173 229 222   164 225 220   153 221 216   143 218 214   131 212 210   119 207 207   108 198 201   100 190 197    97 187 196    94 181 191    90 177 187    90 175 186    86 170 181    89 171 185    83 165 179    84 166 180    85 167 181    80 162 176    78 159 176    80 161 177    82 163 180    83 164 182    82 163 182    81 162 181    78 159 178    77 158 177    75 156 175    79 160 179    80 161 180    76 157 176    79 160 179    83 164 183    80 161 180  
 238 244 242   238 244 242   236 244 241   233 243 240   231 243 239   231 243 239   229 242 238   226 241 236   223 238 235   221 237 234   217 237 233   213 236 231   208 235 230   203 233 227   197 232 225   192 230 222   184 230 221   174 231 223   163 227 219   153 221 216   140 215 212   127 209 208   117 205 205   109 199 202   100 193 197    98 188 196    93 183 193    90 177 189    90 173 187    86 168 182    90 172 186    82 164 178    82 164 178    84 166 180    79 161 175    80 160 178    85 165 183    83 164 181    80 161 179    80 161 180    82 163 182    81 162 181    76 157 176    75 155 175    80 161 180    82 163 182    78 159 178    80 161 180    84 165 184    82 163 182  
 238 244 242   237 243 241   236 244 241   232 242 239   230 242 238   230 242 238   229 242 237   225 240 235   222 238 235   221 237 234   217 237 233   213 236 231   208 235 230   203 233 227   197 232 225   192 230 222   183 230 221   174 231 223   163 227 221   152 220 215   138 213 209   125 207 206   115 203 203   109 200 202   101 193 200    99 188 197    94 182 193    91 176 189    91 173 187    86 168 182    89 171 185    83 165 179    82 164 178    81 163 177    78 160 174    80 161 178    84 165 182    80 161 178    76 157 176    77 158 177    81 162 181    82 163 182    80 161 180    76 157 176    79 160 179    84 165 184    83 164 183    84 165 184    87 168 187    88 169 188  
 238 244 242   237 243 241   236 243 241   232 242 238   230 242 238   230 242 238   228 241 237   225 240 235   222 237 234   218 237 233   216 237 232   212 237 231   207 236 230   202 235 228   197 232 225   191 229 221   183 229 220   172 229 221   162 226 218   150 220 214   136 212 209   124 206 205   115 203 203   107 198 200    98 190 195    97 187 195    93 182 192    90 177 189    90 174 188    87 169 183    88 170 184    85 167 181    83 165 179    81 162 176    79 161 175    79 160 177    79 160 177    78 159 176    78 159 177    77 158 177    76 157 176    77 158 177    81 162 181    78 159 178    78 159 178    82 163 182    85 165 185    83 164 183    82 163 182    87 167 187  
 238 244 242   237 243 241   236 243 241   232 242 238   230 242 238   230 242 238   228 241 237   225 241 235   221 238 232   218 237 231   215 237 230   211 237 230   207 236 229   202 235 228   197 232 225   191 229 221   181 228 221   169 227 221   161 225 218   149 219 213   136 212 209   124 207 206   117 205 206   104 197 198    95 188 192    95 184 193    93 180 190    91 176 188    93 175 189    88 170 184    86 168 182    88 170 184    86 168 182    81 163 177    79 161 175    77 158 174    75 156 173    80 161 178    83 164 182    79 160 179    71 152 171    71 152 171    79 160 179    78 159 178    76 157 176    80 161 180    84 165 184    78 159 178    74 155 174    79 160 179  
