P3
50 50
255
  25  80 101    24  79 100    27  82 103    28  83 104    25  82 102    23  80 100    25  82 102    24  80 100    25  82 101    29  86 106    30  87 106    27  84 104    26  83 102    28  85 105    24  80 100    24  81 101    25  82 101    26  83 103    26  83 102    26  83 103    26  83 102    26  83 102    32  87 107    32  87 107    30  85 105    28  83 103    31  86 106    35  90 110    32  87 107    26  81 101    29  84 104    29  84 104    31  86 106    34  89 109    36  91 111    34  89 109    28  83 103    23  78  98    31  86 106    31  86 107    31  86 106    30  84 105    30  84 104    32  86 107    36  90 110    39  93 114    30  84 104    24  79 100    29  84 104    30  85 106  
  29  84 105    30  85 106    31  86 107    30  85 107    29  85 105    27  83 104    33  88 108    30  85 105    29  84 104    30  85 105    29  84 104    27  82 102    28  83 103    30  85 105    31  86 106    30  85 105    30  85 105    30  85 105    31  86 106    30  85 105    28  83 103    27  82 102    29  84 104    28  83 103    27  82 102    27  82 102    30  85 105    35  90 110    33  88 108    28  83 103    29  84 104    29  84 104    30  85 105    31  86 106    31  86 106    30  85 105    28  83 103    26  81 101    32  84 105    31  83 104    31  83 104    29  81 102    28  80 101    29  81 102    32  84 105    35  87 108    27  79 100    28  80 101    30  82 103    30  82 103  
  31  86 107    32  87 108    31  86 107    29  84 105    27  82 103    26  81 102    31  86 106    28  83 103    28  83 103    30  85 105    31  86 106    31  86 106    33  88 108    37  92 112    35  90 110    33  88 108    31  86 106    31  86 106    33  88 108    32  87 107    29  84 104    26  81 101    30  85 105    28  83 103    26  81 101    26  81 101    30  85 105    33  88 108    30  85 105    26  81 101    30  85 105    31  86 106    32  87 107    30  85 105    28  83 103    26  81 101    27  82 102    28  83 103    33  85 106    33  85 106    32  84 105    30  82 103    29  81 102    30  82 103    32  84 105    34  86 107    26  78  99    34  86 107    30  82 103    28  80 101  
  35  90 111    35  90 111    33  88 109    29  84 105    27  82 103    25  80 102    31  86 106    29  84 104    29  84 104    31  86 106    32  87 107    29  84 104    28  83 103    31  86 106    31  86 106    29  84 104    28  83 103    29  84 104    31  86 106    31  86 106    29  84 104    27  82 102    33  88 108    29  84 104    27  82 102    28  83 103    31  86 106    32  87 107    29  84 104    26  81 101    32  87 107    34  89 109    35  90 110    33  88 108    29  84 104    25  80 100    25  80 100    26  81 101    33  85 106    34  85 107    34  85 107    33  85 106    32  84 105    33  85 106    35  87 108    37  89 110    30  82 103    37  89 110    30  83 104    28  80 100  
  32  87 108    32  87 108    31  86 107    29  84 105    27  82 103    25  80 101    29  84 104    27  82 102    29  84 104    32  87 107    32  87 107    28  83 103    26  81 101    27  82 102    26  81 101    27  82 102    28  83 103    29  84 104    30  85 105    30  85 105    30  85 105    29  84 104    34  89 109    29  84 104    28  83 103    32  87 107    35  90 110    36  91 111    34  89 109    33  88 108    35  90 110    36  91 111    36  91 111    35  90 110    32  87 107    29  84 104    28  83 103    27  82 102    32  84 105    33  85 106    34  86 107    34  86 107    33  85 106    34  86 107    36  88 109    37  89 110    34  87 108    35  87 108    32  84 105    32  84 104  
  27  79 101    28  80 102    30  82 104    31  83 105    28  83 104    26  81 102    31  83 104    28  80 101    28  80 101    32  84 105    33  84 106    30  82 104    30  82 104    33  84 106    28  80 101    32  84 105    35  87 108    35  87 108    33  85 106    32  84 105    34  86 107    36  88 109    33  88 108    27  82 102    25  80 100    30  85 105    34  89 109    33  88 108    31  86 106    31  86 106    36  91 111    34  89 109    32  87 107    30  85 105    32  87 107    32  87 107    32  87 107    32  87 107    34  86 107    35  87 108    36  88 109    35  87 108    34  86 107    34  86 107    35  87 108    36  88 109    35  87 108    28  80 101    33  85 106    39  91 112  
  26  78 100    28  80 101    30  82 104    33  84 106    32  86 107    30  84 105    36  88 109    34  85 107    31  83 104    30  82 103    30  82 103    31  83 104    30  83 104    30  82 103    30  82 103    33  85 106    36  87 109    36  88 109    34  86 107    33  85 106    35  87 108    38  90 111    33  88 108    27  82 102    25  80 100    28  83 103    31  86 106    28  83 103    27  82 102    28  83 103    35  90 110    31  86 106    29  84 104    30  85 105    34  89 109    35  90 110    33  88 108    32  87 107    37  89 110    38  90 111    39  91 112    39  91 112    37  89 110    36  88 109    34  86 107    34  86 107    34  86 107    25  77  98    32  84 105    41  93 114  
  25  77  98    30  82 103    26  78  99    27  79 100    30  82 103    27  79 100    32  84 105    35  87 108    33  85 106    27  79 100    29  81 102    37  89 110    37  89 110    30  82 103    30  82 103    27  79 100    25  77  98    30  82 103    36  88 109    39  91 112    35  87 108    31  83 104    32  87 107    33  88 108    32  87 107    30  85 105    30  85 105    32  87 107    32  87 107    31  86 106    31  86 106    28  83 103    29  84 104    36  91 111    39  94 114    36  91 111    30  85 105    27  82 102    37  89 110    37  89 110    37  89 110    38  90 111    39  91 112    38  90 111    35  87 108    32  84 105    36  88 109    32  84 105    31  83 104    37  89 110  
  27  78  99    32  84 105    29  80 101    29  81 102    31  83 104    28  80 101    31  82 103    38  90 110    40  91 112    32  84 105    28  79 100    30  81 102    32  84 105    31  82 103    32  83 104    27  78  99    25  77  98    30  81 102    36  87 108    38  89 110    32  83 104    24  76  97    30  85 105    35  90 110    34  89 109    25  80 100    25  80 100    33  88 108    34  89 109    27  82 102    32  87 107    27  82 102    26  81 101    31  86 106    35  90 110    34  89 109    34  89 109    35  90 110    38  90 111    34  86 107    31  83 105    32  84 105    35  87 108    36  88 109    35  87 108    32  84 105    32  85 106    33  85 106    33  85 106    33  86 106  
  30  81 102    37  88 109    34  85 107    34  84 106    34  87 108    31  83 104    26  77  98    35  86 107    39  90 111    35  86 107    29  80 101    30  81 102    34  85 106    35  87 107    31  82 103    35  86 107    38  89 110    36  87 108    30  81 103    27  78  99    27  78  99    30  81 102    27  82 102    32  87 107    32  87 107    27  82 102    27  82 102    30  85 105    30  85 105    25  80 100    33  88 108    29  84 104    30  85 105    35  90 110    37  92 112    34  89 109    30  85 105    30  85 105    37  89 110    36  88 109    35  87 108    38  90 111    43  95 116    42  94 115    38  89 111    32  84 105    31  83 104    37  89 109    37  89 110    35  87 108  
  27  78  97    35  86 105    33  84 103    32  83 102    33  84 103    29  80  99    27  78  99    31  82 103    33  84 104    32  83 104    31  82 103    33  84 105    34  84 106    34  84 105    35  86 107    38  89 110    39  90 111    35  86 107    28  79 100    28  79 100    33  84 105    39  90 111    29  84 104    27  82 102    29  84 104    35  90 110    35  90 110    28  83 103    25  80 100    28  83 103    37  92 112    34  89 109    34  89 109    36  91 111    35  90 110    32  87 107    30  85 105    31  86 106    37  89 110    36  88 109    35  87 108    38  90 111    41  93 114    41  93 114    37  89 110    33  85 106    30  82 103    35  87 108    37  89 109    35  87 108  
  28  80  98    36  87 106    33  84 103    33  84 103    34  85 104    31  81 101    31  82 103    30  81 102    29  80 101    29  80 100    30  81 102    31  82 103    30  81 102    30  80 102    38  89 110    33  84 105    28  79 100    27  78  99    33  84 105    37  88 109    38  89 110    38  89 110    31  86 106    25  80 100    29  84 104    38  93 113    38  93 113    29  84 104    27  82 102    32  87 107    39  94 114    34  89 109    30  85 105    30  85 105    30  85 105    30  85 105    33  88 108    38  93 113    35  87 108    32  84 105    30  83 104    28  80 101    28  80 101    30  82 103    32  84 105    33  85 106    30  81 102    30  82 103    32  84 105    33  85 105  
  30  79  99    36  85 105    33  83 102    32  83 102    34  85 104    30  81 100    31  82 103    30  80 101    28  79 100    29  78 100    27  78  99    28  78  99    28  79 100    30  81 102    34  85 106    32  83 104    29  80 101    28  79 100    29  80 101    31  82 103    33  84 105    34  85 106    28  82 102    27  82 102    28  83 103    30  85 105    30  85 105    30  85 105    30  85 105    31  86 106    34  89 109    31  86 106    31  86 106    32  87 107    31  86 106    29  84 104    30  85 105    35  88 109    30  82 103    32  83 104    33  85 106    31  83 104    27  79 100    27  78  99    28  80 101    31  83 104    33  85 106    29  81 102    29  81 102    33  85 106  
  28  74  93    29  75  94    28  75  93    28  77  95    29  79  96    29  78  98    27  76  98    28  75  98    29  77  99    31  78 100    29  78 100    29  76  99    29  77  99    30  79 101    29  78 100    28  77  98    30  79 100    32  81 103    31  82 103    29  80 101    30  80 102    33  84 105    28  80 101    30  83 104    32  85 105    30  83 104    29  82 102    27  80 101    27  80 100    26  79 100    32  85 106    30  83 103    27  80 101    28  80 101    31  84 104    32  85 106    30  83 104    27  79 100    28  80 100    35  84 105    35  86 107    33  82 104    28  80 101    31  80 102    31  82 103    33  82 104    34  86 106    31  80 102    28  79 100    34  83 105  
  31  74  93    31  74  94    30  76  94    31  79  97    32  81  98    34  82 102    24  71  91    28  74  97    31  77 100    31  77 100    28  74  97    26  72  95    28  74  97    32  78 101    30  78 100    28  76  98    29  77  99    33  81 103    32  83 104    29  80 101    28  79 100    31  82 103    29  81 102    32  84 105    34  86 107    34  86 107    30  82 103    27  79 100    26  78  99    25  77  98    31  83 104    28  80 101    26  78  99    29  80 102    33  84 106    33  85 106    29  81 102    27  78  99    31  82 103    35  83 105    33  81 103    30  78 100    30  78 100    32  80 102    30  78 100    27  75  97    37  85 107    34  82 104    33  82 104    38  86 108  
  33  76  95    35  78  97    34  79  98    34  80  99    32  81  98    32  80 100    27  74  94    33  78 101    36  82 105    33  79 102    28  74  97    27  73  96    31  77 100    37  83 106    30  78 100    29  77  99    29  77  99    32  80 102    30  81 102    27  78  99    26  77  98    28  79 100    29  80 101    32  83 104    34  85 106    34  85 106    32  83 104    29  80 101    27  78  99    26  77  98    31  82 103    28  79 100    29  80 101    36  87 108    37  88 109    32  83 104    29  80 101    31  82 103    33  84 105    31  82 103    28  79 100    28  79 100    31  82 103    33  84 105    27  78  99    20  71  92    30  81 102    29  80 101    29  81 102    33  84 105  
  34  77  96    34  77  96    32  77  96    31  76  95    28  75  93    27  74  92    30  75  97    34  79 101    33  79 101    30  76  98    28  73  96    30  76  98    32  78 100    33  79 101    29  76  98    28  76  97    29  77  98    29  77  99    28  78  99    28  78  99    27  77  98    28  78  99    29  80 100    29  80 101    31  82 102    31  82 102    30  81 102    28  79  99    25  77  97    25  75  96    33  84 104    29  80 100    30  81 102    36  87 108    37  88 108    31  82 103    31  82 102    36  87 107    30  82 102    30  81 101    31  81 102    33  84 105    36  87 108    35  86 107    31  82 102    26  77  97    30  81 101    28  79 100    28  79  99    29  80 100  
  31  74  93    32  75  94    31  76  95    29  74  93    27  74  92    26  73  91    31  76  97    32  77  98    29  74  95    26  71  92    28  73  94    33  78  99    31  78  98    26  73  93    28  75  95    30  77  97    29  77  97    28  76  96    28  76  96    30  78  98    31  79  99    30  78  98    29  80  99    28  79  98    28  79  98    28  79  98    28  79  98    27  78  97    26  77  96    25  76  95    31  82 101    28  79  98    28  79  98    30  81 100    32  83 102    30  81 100    31  82 101    34  85 104    31  82 101    30  81 100    32  83 102    36  87 106    36  87 106    32  83 102    28  79  98    27  78  97    35  86 105    33  84 103    30  81 100    28  79  98  
  30  74  93    32  75  94    30  75  95    30  75  94    29  75  93    28  74  92    31  76  97    35  80 101    33  78  99    28  73  94    30  75  96    35  80 101    32  79  99    25  72  92    29  76  96    31  78  98    30  78  98    28  75  95    27  75  95    30  78  98    31  79  99    29  77  97    33  82 102    31  80  99    28  77  97    28  76  96    28  77  97    30  79  98    30  79  98    28  77  97    28  77  97    29  78  98    28  77  97    26  75  95    30  78  98    35  84 104    34  83 103    29  78  97    32  83 101    28  80  97    28  79  96    32  83 101    33  84 102    29  80  97    24  75  93    22  73  91    31  82 100    31  82 100    28  80  97    26  76  94  
  34  77  97    34  77  96    31  76  95    30  75  94    29  74  93    28  73  92    27  72  93    35  80 101    37  82 103    30  75  96    28  73  94    32  77  98    31  78  98    26  73  93    32  79  99    34  82 102    33  80 100    28  75  95    26  74  94    30  78  98    30  78  98    28  76  96    38  86 106    34  82 102    29  77  97    28  76  96    30  78  98    32  80 100    33  81 101    33  81 101    27  75  95    33  81 101    32  79  99    28  76  96    34  82 102    43  91 111    39  87 107    25  73  93    35  84 101    26  75  92    21  72  89    30  79  96    36  87 104    35  84 101    27  78  94    24  74  91    27  78  95    31  80  97    29  80  97    28  77  94  
  37  82 102    36  81 100    33  76  95    31  74  93    38  81 100    46  89 108    26  69  88    31  74  93    36  79  98    36  79  98    30  75  94    28  73  92    30  75  94    34  79  98    36  81 100    36  81 100    34  81  99    35  82 100    34  81  99    32  79  97    29  76  94    26  73  91    31  78  96    27  74  92    25  72  90    28  75  93    29  76  94    28  75  93    29  76  94    31  78  96    37  84 102    34  81  99    38  85 103    29  76  94    30  77  95    39  86 104    33  79  98    34  80  99    38  84 101    36  83  99    34  83  98    35  82  98    36  84 100    37  84 100    33  82  97    31  78  94    32  81  96    33  80  96    32  81  96    33  80  96  
  32  77  96    34  79  98    32  75  94    26  69  88    29  72  91    37  80  99    32  75  94    35  77  96    37  80  99    37  80  99    33  77  96    31  76  95    31  76  95    32  77  96    30  75  94    31  76  95    31  77  96    33  80  98    35  82 100    36  83 101    35  82 100    33  80  98    32  78  97    29  75  94    29  75  93    32  78  96    32  79  97    31  78  96    31  78  96    33  80  98    33  80  98    30  77  95    37  83 101    30  77  95    31  78  96    38  84 103    29  76  94    30  76  94    36  83  99    36  81  97    33  80  96    35  80  95    34  81  96    35  80  96    30  77  93    29  74  90    33  80  95    35  80  96    34  80  96    35  80  96  
  26  71  90    33  78  97    35  78  97    26  69  88    27  68  88    34  75  95    36  79  98    35  78  97    34  77  96    35  78  97    35  78  97    35  78  97    31  76  95    30  75  94    34  79  98    33  78  97    32  79  97    32  79  97    33  80  98    32  79  97    29  76  94    27  74  92    31  76  95    29  74  93    30  75  94    33  78  97    33  78  97    30  75  94    30  75  94    32  77  96    32  77  96    29  74  93    35  80  99    31  76  95    32  77  96    37  82 101    28  73  92    31  75  93    38  83  99    39  81  97    35  80  95    36  78  94    33  77  93    32  74  90    27  72  87    27  70  86    30  75  90    34  77  93    35  79  95    37  79  95  
  25  70  89    34  79  98    37  80  99    29  72  91    28  69  89    33  74  94    33  74  93    31  73  91    29  71  89    30  72  90    32  75  92    33  76  94    31  75  92    29  72  90    30  76  93    29  75  92    28  75  91    29  75  92    30  76  93    30  77  93    28  75  92    27  74  90    27  73  90    28  71  89    30  74  91    33  76  94    31  75  92    27  71  88    27  71  88    30  74  92    35  78  96    29  72  90    34  77  95    30  73  91    31  75  92    37  80  98    29  73  91    34  77  94    31  73  90    34  73  90    33  75  91    35  75  91    34  76  92    34  74  91    33  75  91    34  74  91    28  71  86    35  75  92    39  81  97    41  81  98  
  31  78  96    35  80  99    36  79  98    31  74  93    29  70  90    29  70  90    30  71  89    27  68  86    26  67  85    27  68  86    29  72  89    31  74  91    30  73  90    29  72  89    26  72  88    25  71  87    25  71  87    27  73  89    29  75  91    31  77  93    30  77  93    30  76  92    29  73  90    30  73  90    32  75  92    33  76  93    31  74  91    27  70  87    28  71  88    32  75  92    37  80  97    28  71  88    32  75  92    29  72  89    30  73  90    35  78  95    29  72  89    37  78  96    33  73  89    35  73  91    35  75  92    36  73  91    33  72  89    32  70  87    31  70  88    33  70  88    25  65  81    32  70  87    37  76  93    39  76  94  
  36  83 101    32  77  96    31  74  93    32  75  94    31  72  92    29  67  88    31  72  90    30  71  89    29  70  88    28  69  87    28  71  88    29  72  89    30  73  90    30  73  90    31  77  93    30  76  92    28  74  90    28  74  90    29  75  91    29  75  91    29  75  91    28  74  90    31  74  91    31  74  91    32  75  92    33  76  93    30  73  90    26  69  86    28  71  88    34  77  94    33  76  93    24  68  84    30  73  90    29  72  89    31  74  91    34  77  94    27  69  87    34  76  93    36  73  91    38  74  90    37  74  90    36  72  88    30  67  83    28  64  80    25  62  78    26  62  78    25  63  78    30  66  82    32  69  85    32  68  84  
  35  80  98    30  75  93    30  72  91    33  74  93    32  73  93    30  68  88    37  75  94    35  72  91    33  73  91    34  74  92    32  72  90    31  71  90    32  72  91    32  72  90    33  74  92    32  74  91    32  73  91    33  75  92    34  76  93    35  77  95    35  76  94    34  75  93    32  75  92    31  74  90    31  73  90    30  73  89    28  70  87    26  68  85    29  71  88    34  77  93    29  71  88    25  67  84    31  74  90    31  74  91    31  74  91    31  74  90    25  68  85    31  73  89    31  68  84    32  69  85    35  71  87    34  71  87    32  68  84    29  65  81    30  66  82    32  68  84    34  70  86    35  71  87    34  70  86    32  68  84  
  30  72  89    31  71  89    31  72  90    31  71  89    30  71  89    32  70  89    39  76  95    31  68  87    34  71  90    39  76  95    35  72  91    33  70  89    34  72  91    32  69  88    34  71  90    34  71  90    34  72  91    36  74  93    37  75  94    37  75  94    35  73  92    33  71  90    36  76  93    32  74  90    29  71  87    28  70  86    29  71  87    31  73  89    32  74  90    33  75  91    26  68  84    31  73  89    36  78  94    35  77  93    31  73  89    28  70  86    30  72  88    34  74  91    32  69  85    30  67  83    32  69  85    36  73  89    34  71  87    31  68  84    33  69  85    38  74  90    37  73  89    35  71  87    33  69  85    31  67  83  
  26  65  82    26  64  82    27  66  84    30  67  86    32  71  88    35  72  90    32  69  88    26  63  82    28  65  84    32  69  88    28  65  84    28  65  84    32  69  88    30  67  86    30  67  86    29  66  85    29  66  85    30  67  86    31  68  87    31  68  87    31  68  87    30  67  86    31  70  87    30  70  87    30  70  87    31  71  88    33  73  89    32  72  89    31  71  87    30  69  86    25  65  82    30  69  86    33  73  89    32  72  89    30  69  86    28  68  85    32  71  88    35  74  91    33  70  86    29  66  82    29  65  82    31  68  84    31  68  85    31  67  83    32  68  84    35  71  87    35  71  87    34  70  86    33  69  85    31  67  83  
  29  66  84    31  67  85    32  69  87    34  69  88    32  69  87    31  68  86    34  71  89    28  64  84    29  67  86    31  68  87    26  63  82    28  65  84    34  71  90    32  69  88    29  66  85    27  64  83    26  63  82    26  63  82    28  65  84    29  66  85    29  66  85    28  65  84    29  66  84    29  66  84    29  68  85    32  69  87    32  71  88    32  69  87    28  67  84    27  64  82    26  65  82    29  66  84    30  69  86    30  67  85    27  66  83    28  65  83    30  69  86    34  71  89    41  78  94    36  73  89    32  69  84    30  67  83    31  68  84    30  67  83    30  66  82    28  64  80    35  71  87    35  71  87    35  71  87    34  71  87  
  33  69  85    37  69  87    36  71  87    37  70  87    33  69  85    33  67  86    37  74  93    33  70  89    35  72  91    33  70  89    26  63  82    29  66  85    35  72  91    33  70  89    31  68  87    29  66  85    28  65  84    28  65  84    30  67  86    31  68  87    31  68  87    30  67  86    29  66  84    29  64  83    27  64  82    29  64  83    29  66  84    30  65  84    28  65  83    28  63  82    31  68  86    33  68  87    33  69  88    33  68  87    30  67  85    30  65  84    31  67  86    33  69  87    32  69  85    29  67  83    28  65  81    28  65  81    31  68  84    35  72  88    36  72  88    34  70  86    35  71  87    34  71  87    34  70  87    34  70  86  
  35  67  85    34  66  84    34  66  84    36  68  85    38  70  88    39  72  91    36  73  91    34  72  90    37  74  93    33  70  89    25  62  81    29  66  85    35  72  91    32  69  88    32  69  88    30  68  87    31  68  87    32  69  88    33  71  90    34  71  90    33  70  89    32  69  88    31  66  85    30  65  83    29  63  82    29  64  83    30  65  84    31  66  85    31  65  84    30  64  83    30  64  83    31  65  84    31  66  85    31  66  85    30  65  83    29  63  82    30  64  83    30  65  84    26  63  80    28  65  81    28  65  81    26  63  80    27  64  80    31  68  84    33  69  85    31  67  83    33  69  85    32  68  84    30  66  82    29  65  81  
  35  66  84    36  67  85    36  67  85    37  68  86    37  68  86    36  69  88    33  70  88    33  71  90    37  75  94    33  71  90    25  63  82    30  68  87    37  75  94    33  71  90    30  68  87    30  68  87    31  69  88    32  70  89    34  72  91    34  72  91    32  70  89    31  68  87    32  67  86    34  67  86    34  67  86    35  68  87    36  69  88    36  69  88    34  67  86    32  65  84    32  65  84    34  67  86    36  69  88    37  70  89    37  70  89    36  69  88    36  69  88    35  69  88    28  65  81    33  70  86    34  71  87    30  67  83    27  64  80    29  66  82    31  67  83    29  65  81    34  70  86    32  68  84    30  66  82    27  63  79  
  33  66  83    33  66  83    32  65  82    32  64  82    34  67  84    36  70  89    33  70  88    32  70  89    33  71  90    30  68  87    28  66  85    30  68  87    35  73  92    36  74  93    29  67  86    31  69  88    34  72  91    37  75  94    37  75  94    36  74  93    33  71  90    31  68  87    32  67  86    35  68  87    35  69  88    35  67  86    36  68  87    38  70  90    36  69  88    33  65  85    32  66  85    38  71  90    39  72  91    35  68  87    34  67  86    38  71  90    40  74  93    40  73  92    32  69  85    32  69  85    34  71  87    34  71  87    31  68  84    28  65  81    30  66  81    33  69  85    33  69  85    32  68  84    30  67  83    30  66  82  
  30  66  82    29  64  83    27  63  79    27  62  81    31  67  83    35  70  89    33  71  90    34  72  91    34  72  91    32  70  89    32  69  89    31  69  88    32  70  89    33  71  90    31  69  88    31  69  88    30  68  88    32  70  89    32  70  89    32  70  89    33  71  90    34  72  91    32  67  86    36  69  88    36  69  88    35  68  87    36  69  88    39  72  91    38  71  90    34  67  86    35  69  87    38  71  90    39  72  91    36  69  88    34  67  87    38  71  90    40  73  92    38  73  92    32  69  85    32  69  85    36  73  89    39  76  92    36  73  89    30  67  83    31  67  83    34  70  86    37  72  89    34  71  87    32  68  84    31  67  83  
  31  68  86    30  68  86    28  65  83    28  65  84    31  68  86    33  71  90    29  67  86    29  70  88    32  73  91    33  74  92    32  73  91    30  71  89    28  69  87    28  69  87    28  69  87    28  69  87    27  68  86    28  69  87    29  70  88    29  70  88    31  72  90    34  72  91    30  67  85    33  68  87    33  68  87    32  67  86    33  68  87    36  71  90    35  70  89    32  67  86    37  72  91    34  69  88    32  68  87    35  70  89    37  72  91    35  70  89    34  69  88    36  71  90    31  68  84    33  70  86    37  74  90    40  77  93    38  75  91    33  70  86    33  69  85    35  71  87    40  76  92    37  73  89    33  69  85    32  68  84  
  33  74  93    33  74  93    31  73  91    31  72  91    32  74  92    33  75  93    29  70  88    30  71  89    33  75  92    34  75  93    33  74  92    32  73  91    31  72  91    32  73  91    27  68  86    30  71  89    32  73  91    35  76  93    35  76  94    34  75  93    31  72  91    31  70  88    30  67  85    32  68  87    31  69  87    31  67  86    32  70  87    36  72  91    34  72  90    31  67  86    37  75  92    31  67  86    29  66  84    36  72  91    38  76  93    34  70  88    30  68  86    33  70  88    31  67  83    33  70  86    36  73  89    37  74  90    34  71  87    33  70  85    34  70  86    36  72  88    39  75  91    36  72  88    34  70  86    33  69  85  
  35  80  98    35  80  99    34  79  97    33  78  97    32  77  96    33  77  96    34  76  93    34  75  93    34  75  93    32  73  91    30  71  89    29  70  88    30  71  89    32  73  91    34  75  93    34  75  93    34  75  93    34  75  93    34  75  93    34  75  93    34  75  93    33  74  92    34  73  90    36  74  92    36  75  92    35  73  90    35  74  91    39  77  94    37  76  93    33  71  89    38  77  94    34  72  89    32  71  88    37  75  93    38  77  94    35  73  91    33  72  89    36  74  91    33  70  86    35  72  88    36  73  89    33  70  86    30  67  83    32  69  85    36  72  88    37  73  89    36  72  88    35  71  87    34  70  86    35  71  87  
  35  83 102    35  83 104    35  83 102    34  82 103    32  80  99    32  78  98    33  76  95    34  75  93    34  75  93    31  72  90    30  71  89    29  70  88    30  71  89    32  73  91    39  80  98    37  78  96    34  75  93    32  73  90    31  72  90    32  73  91    34  75  93    35  76  94    37  78  94    38  79  95    38  79  95    35  76  93    36  77  94    38  80  96    36  78  94    32  74  90    34  75  91    34  75  92    34  75  91    33  75  91    33  74  90    35  75  92    35  77  93    38  77  94    33  70  86    37  74  90    37  74  90    33  70  86    30  67  83    32  69  85    36  72  88    36  72  88    36  72  88    35  70  87    34  70  86    33  70  86  
  38  88 109    38  88 109    38  88 109    37  87 109    34  84 105    34  82 103    34  79  98    37  80  99    39  82  99    41  84 103    41  83 101    42  84 103    43  86 103    45  87 106    37  80  97    37  80  99    38  80  97    37  80  99    35  78  95    34  77  95    31  74  91    30  73  90    36  77  95    37  79  95    36  78  94    34  76  92    34  76  92    36  78  94    34  76  92    29  71  87    26  68  85    33  75  91    34  76  92    27  69  85    25  68  83    31  73  89    35  77  93    34  76  92    33  70  86    39  76  92    41  78  94    37  74  89    34  71  87    35  72  88    36  72  88    34  70  86    39  76  92    37  73  89    33  69  85    32  68  84  
  35  85 108    32  82 105    33  83 106    36  86 109    36  86 109    35  83 105    35  83 103    36  83 103    44  91 109    44  91 111    35  82 100    34  81 101    40  87 105    39  86 106    33  80  98    34  81 101    34  82 100    36  84 104    37  84 102    34  82 102    31  78  96    29  74  93    31  74  91    32  75  92    32  75  92    33  76  93    32  75  92    33  76  93    35  79  95    38  81  98    37  80  97    36  79  96    33  76  93    30  73  90    32  75  92    36  79  96    36  79  96    33  74  91    34  71  87    35  71  87    35  71  87    32  68  84    31  67  83    33  69  85    38  74  90    42  78  94    32  68  84    35  71  87    35  71  87    31  67  83  
  40  90 110    37  86 109    38  88 109    42  91 114    42  92 113    41  90 111    43  91 111    39  87 107    41  89 109    42  90 110    37  84 104    39  87 107    44  91 111    40  88 108    35  83 103    33  80 100    31  79  99    32  80 100    34  81 101    33  81 101    31  78  98    28  75  95    30  75  91    31  73  91    30  72  90    32  75  92    35  78  95    35  78  95    32  75  92    29  71  89    35  77  95    35  78  95    32  75  92    30  72  90    31  74  91    34  76  94    33  75  93    31  71  89    33  70  86    36  72  88    36  72  88    34  70  86    32  68  84    33  69  85    36  72  88    39  75  91    32  68  84    35  71  87    35  71  87    31  67  83  
  38  86 105    37  84 105    39  87 106    44  91 112    44  92 111    41  89 109    47  94 114    40  87 107    41  88 108    44  91 111    41  88 108    45  92 112    48  95 115    43  90 110    42  89 109    38  85 105    34  81 101    34  81 101    37  84 104    39  86 106    37  84 104    34  79  99    37  80  97    35  76  94    34  75  93    36  77  95    39  80  98    39  80  98    34  75  93    28  69  87    34  75  93    35  76  94    34  75  93    32  73  91    32  73  91    33  74  92    32  73  91    30  68  87    29  66  82    33  69  85    35  71  87    34  70  86    32  68  84    31  67  83    32  68  84    34  70  86    29  65  81    32  68  84    33  69  85    33  69  85  
  31  78  94    30  76  95    33  80  96    38  83 103    38  84 101    35  80 100    34  80  99    31  76  96    36  82 101    40  86 105    36  82 101    38  84 103    42  88 107    38  83 103    40  86 105    36  81 101    32  77  97    32  77  97    36  81 100    38  83 103    37  83 102    37  80  99    39  81  99    40  79  98    39  78  97    38  77  96    37  76  95    36  75  94    35  74  93    34  73  91    33  71  90    35  74  93    35  74  93    32  71  90    32  71  89    33  71  90    32  71  90    30  68  87    30  67  83    35  71  87    38  74  90    38  74  90    35  71  87    33  69  85    33  69  85    34  70  86    34  70  87    34  70  86    34  70  86    34  70  86  
  30  71  89    29  70  88    31  74  91    34  77  95    33  76  93    29  73  90    28  71  88    28  71  90    35  80  99    41  84 103    34  79  98    36  79  98    37  82 101    35  78  97    34  79  98    35  78  97    32  77  96    34  78  97    35  80  99    39  82 101    37  82 101    39  82 101    43  84 102    45  84 102    44  82 102    42  80  99    39  78  97    39  77  96    40  78  97    42  80  99    37  75  94    40  78  97    41  79  98    38  76  95    36  74  93    38  76  95    39  77  96    39  76  94    31  68  84    36  72  88    40  76  92    40  76  92    38  74  90    36  72  88    35  71  87    36  72  88    35  71  87    33  69  85    32  68  84    33  69  85  
  33  72  89    31  70  87    31  73  89    33  75  91    32  74  90    27  68  86    35  76  94    31  72  90    33  76  93    38  79  97    34  77  94    37  77  95    35  78  95    30  71  89    29  72  89    34  74  92    37  79  97    40  81  99    39  81  99    39  80  98    39  82  99    42  82 101    43  82  99    43  82  99    42  81  98    42  81  98    43  82  99    43  82  99    41  80  97    41  80  97    38  77  94    41  80  97    42  81  98    38  77  94    37  76  93    40  79  96    42  81  98    43  80  98    28  65  81    33  69  85    37  73  89    38  74  90    36  72  88    34  70  86    34  70  86    35  71  87    33  69  85    30  66  83    30  66  82    34  70  86  
  36  73  90    33  72  88    32  70  87    34  72  89    33  71  88    31  69  86    41  80  97    31  69  88    31  71  89    34  72  91    28  68  86    34  72  90    35  75  93    24  62  81    26  66  84    32  70  88    35  75  93    39  76  95    35  76  94    36  74  93    35  76  93    38  76  95    36  75  92    35  73  90    34  73  90    37  75  92    40  78  96    40  78  95    35  73  91    30  69  86    33  72  89    35  73  91    34  73  90    30  69  86    29  67  84    32  70  87    34  73  90    36  73  91    31  67  83    35  71  87    37  73  89    36  72  88    35  72  88    37  73  89    37  73  89    35  71  87    37  73  89    35  71  87    34  70  86    35  72  88  
  40  76  92    36  73  89    33  70  86    34  71  87    36  73  89    36  73  90    43  80  98    31  67  85    36  74  91    37  73  91    24  62  79    34  70  88    42  80  98    26  62  81    32  70  88    33  69  87    31  69  87    34  70  89    36  74  91    37  73  91    33  71  89    31  68  86    36  73  91    35  72  90    34  71  89    35  72  90    37  74  92    36  73  91    32  69  87    30  67  85    38  75  93    36  73  91    34  71  89    32  69  87    31  68  86    31  68  86    32  69  87    33  70  88    34  70  86    36  72  88    32  68  84    28  64  80    32  68  84    40  76  92    37  73  89    29  65  81    34  70  86    34  70  86    32  68  84    32  68  84  
  36  72  88    33  70  86    33  69  85    35  71  87    35  71  87    33  69  85    38  74  91    30  63  81    32  69  85    35  68  86    23  59  76    32  66  83    38  74  91    26  60  77    32  69  85    30  64  82    26  63  79    32  66  83    37  73  90    40  74  91    34  70  87    29  66  82    35  72  88    35  71  87    33  69  86    33  70  86    34  71  87    34  70  87    32  69  85    30  67  83    35  71  87    35  71  88    35  72  88    35  71  88    35  71  88    35  71  88    35  71  87    35  71  88    38  74  90    38  74  90    34  70  86    31  67  83    36  72  88    43  79  95    41  77  93    32  68  84    35  71  87    36  72  88    36  72  88    36  72  88  
  36  72  88    33  69  85    33  69  85    35  71  87    33  69  85    29  65  81    38  71  88    32  65  82    34  68  85    36  69  86    28  62  79    32  65  82    37  70  87    29  63  79    37  70  87    34  67  84    32  65  82    34  68  84    38  71  88    38  71  88    34  67  84    30  63  80    37  73  89    36  72  88    35  71  87    34  70  86    34  70  86    34  70  86    34  70  86    34  69  86    36  72  88    36  72  88    35  71  87    34  70  86    33  69  85    33  69  85    32  68  84    32  68  84    35  71  87    37  73  89    36  72  88    34  70  86    35  71  87    39  75  91    40  76  92    36  72  88    37  73  89    39  75  91    41  77  93    42  77  94  
