P3
50 50
255
  36  62  75    36  62  75    35  61  74    33  59  72    31  57  70    32  58  71    34  60  73    34  60  73    33  59  72    32  58  71    33  59  72    33  59  72    34  60  73    34  60  73    34  60  73    34  60  73    34  60  73    34  60  73    34  60  73    34  60  73    35  61  74    34  60  73    34  60  73    34  60  73    34  60  73    35  61  74    35  61  74    35  61  74    36  59  73    36  59  73    36  59  73    37  60  74    36  59  73    36  59  73    35  58  72    34  57  71    32  55  69    33  56  70    34  57  71    34  57  71    35  58  72    35  58  72    35  58  72    34  57  71    35  58  72    36  59  73    36  59  73    35  58  72    34  57  71    34  57  71  
  36  62  75    36  62  75    35  61  74    33  59  72    32  58  71    34  60  73    35  62  75    35  61  74    35  60  74    35  60  74    35  61  73    36  61  75    34  60  73    34  60  73    34  60  73    34  60  73    34  60  73    34  60  73    34  60  73    34  60  73    35  61  74    34  60  73    34  60  73    34  60  73    34  60  73    35  61  74    35  61  74    36  62  75    36  59  73    36  59  73    36  59  73    37  60  74    36  59  73    36  59  73    35  58  72    34  57  71    32  56  70    33  56  71    34  57  71    35  58  72    36  59  73    36  59  73    35  59  73    35  59  73    35  58  72    35  59  73    35  59  73    35  59  73    35  58  72    35  58  72  
  37  63  76    37  63  76    35  61  74    34  60  73    34  60  73    34  60  73    34  60  73    32  58  71    32  58  71    33  59  72    36  62  75    38  64  77    34  60  73    34  60  73    34  60  73    34  60  73    34  60  73    34  60  73    34  60  73    34  60  73    35  61  74    34  60  73    33  59  72    33  59  72    34  60  73    35  61  74    36  62  75    37  63  76    36  59  73    36  59  73    36  59  73    37  60  74    36  59  73    36  59  73    35  58  72    34  57  71    36  59  73    36  59  73    36  59  73    37  60  74    36  59  73    36  59  73    35  58  72    35  58  72    34  57  71    35  58  72    35  58  72    35  58  72    34  57  71    34  57  71  
  35  59  72    35  59  72    34  58  72    34  58  71    36  60  74    36  60  73    35  59  73    34  58  72    34  58  71    34  58  71    35  59  72    36  60  73    35  58  72    35  58  72    35  58  72    35  58  72    35  58  72    35  58  72    35  58  72    35  58  72    35  59  72    35  59  73    35  59  73    36  60  73    36  60  73    35  60  73    36  60  73    36  59  73    36  59  73    36  59  73    36  59  73    36  59  73    36  59  73    36  59  73    35  59  73    35  58  72    36  58  72    36  59  73    37  60  74    38  60  75    37  60  74    36  59  73    35  58  72    35  58  72    36  59  72    36  58  72    35  58  71    35  58  71    34  57  70    35  57  70  
  35  58  72    34  57  71    34  57  71    34  57  71    36  59  73    36  59  73    36  59  73    36  59  73    36  59  73    35  58  72    35  58  72    35  58  72    35  58  72    35  58  72    35  58  72    35  58  72    35  58  72    35  58  72    35  58  72    35  58  72    35  58  72    35  58  72    36  59  73    36  59  73    36  59  73    36  59  73    35  58  72    35  58  72    36  59  73    36  59  73    36  59  73    36  59  73    36  59  73    36  59  73    36  59  73    36  59  73    35  58  72    36  59  73    37  60  74    38  61  75    38  61  75    37  60  74    36  59  73    35  58  72    37  59  72    37  59  72    36  58  71    35  57  70    35  57  70    35  57  70  
  35  58  72    35  58  72    34  57  71    34  57  71    35  58  72    35  58  72    35  58  72    35  58  72    36  59  73    36  59  73    36  59  73    36  59  73    35  58  72    35  58  72    35  58  72    35  58  72    35  58  72    35  58  72    35  58  72    35  58  72    35  58  72    35  58  72    36  59  73    36  59  73    36  59  73    36  59  73    35  58  72    35  58  72    36  59  73    36  59  73    36  59  73    36  59  73    36  59  73    36  59  73    36  59  73    36  59  73    35  58  72    36  59  73    37  60  74    37  60  74    37  60  74    37  60  74    36  59  73    35  58  72    36  58  71    36  58  71    35  57  70    35  57  70    35  57  70    36  58  71  
  36  59  73    35  58  72    34  57  71    34  57  71    34  57  71    34  57  71    35  58  72    35  58  72    35  58  72    35  59  73    36  59  73    36  59  73    35  58  72    35  58  72    35  58  72    35  58  72    35  58  72    35  58  72    35  58  72    35  58  72    35  58  72    35  58  72    35  58  72    35  59  73    35  59  73    35  58  72    35  58  72    35  58  72    35  58  72    35  58  72    35  58  72    35  58  72    35  58  72    35  58  72    35  58  72    35  58  72    36  59  73    36  59  73    35  59  73    35  59  73    35  59  73    35  59  73    36  59  73    36  59  73    36  58  71    35  57  70    35  57  70    35  57  70    36  58  71    36  58  71  
  36  59  73    35  58  72    34  57  71    34  57  71    34  57  71    34  57  71    34  57  71    35  58  72    35  58  72    35  58  72    36  59  73    36  59  73    35  58  72    35  58  72    35  58  72    35  58  72    35  58  72    35  58  72    35  58  72    35  58  72    34  57  71    35  58  72    35  58  72    35  58  72    35  58  72    35  58  72    35  58  72    34  57  71    35  58  72    35  58  72    35  58  72    35  58  72    35  58  72    35  58  72    35  58  72    35  58  72    36  59  73    36  59  73    35  58  72    35  58  72    35  58  72    35  58  72    36  59  73    36  59  73    36  58  71    36  58  71    35  57  70    35  57  70    36  58  71    36  58  71  
  35  58  72    34  57  71    34  57  71    34  57  71    35  58  72    35  58  72    35  58  72    34  57  71    34  57  71    34  57  71    34  57  71    34  57  71    35  58  72    35  58  72    35  58  72    35  58  72    35  58  72    35  58  72    35  58  72    35  58  72    34  57  71    34  57  71    35  58  72    35  58  72    35  58  72    35  58  72    34  57  71    34  57  71    35  57  71    35  57  71    35  57  71    35  57  71    35  57  71    35  57  71    35  57  71    35  57  71    37  59  73    36  58  72    35  58  72    35  57  71    35  57  71    35  58  72    36  58  72    37  59  73    37  59  72    37  59  72    35  58  70    35  57  70    35  57  70    35  57  70  
  34  57  71    34  57  71    34  57  71    34  57  71    35  58  72    35  58  72    35  58  72    34  57  71    34  57  71    33  56  70    33  56  70    33  56  70    35  58  72    35  58  72    35  58  72    35  58  72    35  58  72    35  58  72    35  58  72    35  58  72    33  56  70    34  57  71    34  57  71    35  58  72    35  58  72    34  57  71    34  57  71    33  56  70    35  57  71    35  57  71    35  57  71    35  57  71    35  57  71    35  57  71    35  57  71    35  57  71    37  59  73    36  58  72    35  57  71    35  57  71    35  57  71    35  57  71    36  58  72    37  59  73    38  60  73    37  59  72    36  58  71    36  58  71    35  57  70    35  57  70  
  35  58  72    35  58  72    35  58  72    34  57  71    35  58  72    35  58  72    35  58  72    35  58  72    35  58  72    35  58  72    35  58  72    35  58  72    35  58  72    35  58  72    35  58  72    35  58  72    35  58  72    35  58  72    35  58  72    35  58  72    35  58  72    35  58  72    35  58  72    35  58  72    35  58  72    35  58  72    35  58  72    35  58  72    36  58  72    36  58  72    36  58  72    36  58  72    36  58  72    36  58  72    36  58  72    36  58  72    35  57  71    36  58  72    37  59  73    37  59  73    37  59  73    37  59  73    36  58  72    35  57  71    37  59  72    37  59  72    37  59  72    36  58  71    36  58  71    35  57  70  
  36  59  73    36  59  73    36  59  73    36  59  73    35  58  72    35  58  72    35  58  72    35  58  72    35  58  72    35  58  72    35  58  72    35  58  72    35  58  72    35  58  72    35  58  72    35  58  72    35  58  72    35  58  72    35  58  72    35  58  72    35  58  72    35  58  72    35  58  72    35  58  72    35  58  72    35  58  72    35  58  72    35  58  72    36  58  72    36  58  72    36  58  72    36  58  72    36  58  72    36  58  72    36  58  72    36  58  72    35  57  71    35  58  72    36  58  72    37  59  73    37  59  73    36  58  72    35  58  72    35  57  71    37  59  72    37  59  72    37  59  72    36  58  71    36  58  71    35  57  70  
  36  59  73    37  60  74    37  60  74    37  60  74    35  58  72    35  58  72    35  58  72    35  58  72    35  58  72    35  58  72    35  58  72    35  58  72    35  58  72    35  58  72    35  58  72    35  58  72    35  58  72    35  58  72    35  58  72    35  58  72    35  58  72    35  58  72    35  58  72    35  58  72    35  58  72    35  58  72    35  58  72    35  58  72    36  58  72    36  58  72    36  58  72    36  58  72    36  58  72    36  58  72    36  58  72    36  58  72    35  57  71    35  57  71    36  58  72    37  59  73    37  59  73    36  58  72    35  57  71    35  57  71    36  58  71    36  58  71    36  58  71    36  58  71    36  58  71    35  57  70  
  36  59  73    35  58  72    36  58  72    36  58  72    35  58  72    35  58  72    35  58  72    35  58  72    35  58  72    35  58  72    35  58  72    35  58  72    35  58  72    35  58  72    35  58  72    35  58  72    35  58  72    35  58  72    35  58  72    35  58  72    35  58  72    35  58  72    35  58  72    35  58  72    35  58  72    35  58  72    35  58  72    35  58  72    35  57  71    36  56  71    36  56  71    36  56  71    36  56  71    36  56  71    36  56  71    36  56  71    36  56  71    36  56  71    37  56  71    37  56  71    37  56  71    37  56  71    36  56  71    36  56  71    35  57  70    35  57  70    35  57  70    35  57  70    35  57  70    35  57  70  
  35  58  72    35  58  72    34  57  71    34  57  71    35  58  72    35  58  72    35  58  72    35  58  72    35  58  72    35  58  72    35  58  72    35  58  72    35  58  72    35  58  72    35  58  72    35  58  72    35  58  72    35  58  72    35  58  72    35  58  72    35  58  72    35  58  72    35  58  72    35  58  72    35  58  72    35  58  72    35  58  72    36  58  72    35  57  71    37  56  71    37  56  71    37  56  71    37  56  71    37  56  71    37  56  71    37  56  71    38  57  72    37  56  71    36  55  70    36  55  70    36  55  70    36  55  70    37  56  71    38  57  72    34  56  69    34  56  69    34  56  69    35  57  70    35  57  70    35  57  70  
  36  59  73    36  59  73    35  58  72    35  58  72    35  58  72    35  58  72    35  58  72    35  58  72    35  58  72    35  58  72    35  58  72    35  58  72    35  58  72    35  58  72    35  58  72    35  58  72    35  58  72    35  58  72    35  58  72    35  58  72    35  58  72    35  58  72    35  58  72    35  58  72    35  58  72    35  58  72    35  58  72    36  58  72    35  57  71    37  56  71    37  56  71    37  56  71    37  56  71    37  56  71    37  56  71    37  56  71    38  57  72    37  56  71    36  55  70    35  54  69    35  54  69    36  55  70    37  56  71    38  57  72    33  55  68    34  56  69    34  56  69    34  56  69    35  57  70    35  57  70  
  35  58  72    36  59  73    37  59  73    37  59  73    35  57  71    35  57  71    35  57  71    35  57  71    35  58  71    35  58  72    36  58  72    36  58  72    35  58  71    35  58  71    35  58  71    35  58  71    35  58  71    35  58  71    35  58  71    35  58  71    35  57  71    35  58  71    35  58  72    36  58  72    36  58  72    35  58  72    35  58  71    35  57  71    36  55  70    36  55  70    35  55  69    35  54  69    35  54  69    35  55  69    36  55  70    36  55  70    38  57  71    37  56  70    36  55  70    36  55  69    35  54  69    36  55  70    37  55  70    37  56  71    33  55  68    34  55  68    35  55  69    35  55  69    36  57  70    36  57  70  
  35  57  70    35  57  70    36  58  71    36  58  71    34  56  69    34  56  69    34  56  69    34  56  69    35  57  70    36  58  71    37  59  72    38  60  73    35  57  70    35  57  70    35  57  70    35  57  70    35  57  70    35  57  70    35  57  70    35  57  70    34  56  69    35  57  70    36  58  71    37  59  72    37  59  72    36  58  71    35  57  70    34  56  69    37  56  70    37  56  70    36  55  69    35  54  68    35  54  68    36  55  69    37  56  70    37  56  70    37  56  70    37  56  70    37  56  70    37  56  70    36  55  69    36  55  69    36  55  69    36  55  69    36  55  69    36  55  69    36  55  69    36  55  69    37  56  70    37  56  70  
  35  57  70    35  57  70    36  58  71    36  58  71    35  57  70    34  56  69    34  56  69    34  56  69    35  57  70    36  58  71    37  59  72    37  59  72    35  57  70    35  57  70    35  57  70    35  57  70    35  57  70    35  57  70    35  57  70    35  57  70    34  56  69    35  57  70    36  58  71    36  58  71    36  58  71    36  58  71    35  57  70    34  56  69    38  57  70    37  56  70    37  55  70    35  55  69    35  55  69    37  55  70    37  56  70    38  57  70    37  56  70    37  56  70    37  56  70    37  56  70    36  55  69    36  55  69    36  55  69    36  55  69    37  55  70    37  55  70    37  55  70    37  55  70    36  55  69    36  55  69  
  35  57  70    35  57  70    36  58  71    36  58  71    35  57  70    35  57  70    34  56  69    34  56  69    35  57  70    36  58  71    36  58  71    37  59  72    35  57  70    35  57  70    35  57  70    35  57  70    35  57  70    35  57  70    35  57  70    35  57  70    35  57  70    35  57  70    35  57  70    36  58  71    36  58  71    35  57  70    35  57  70    35  57  70    38  57  71    38  57  71    37  56  70    37  56  70    37  56  70    37  56  70    38  57  71    38  57  71    37  56  70    37  56  70    37  56  70    37  56  70    36  55  69    36  55  69    36  55  69    36  55  69    38  57  71    37  56  70    37  56  70    37  56  70    36  55  69    36  55  69  
  35  57  70    35  57  70    36  58  71    36  58  71    35  57  70    35  57  70    35  57  70    35  57  70    35  57  70    35  57  70    36  58  71    36  58  71    35  57  70    35  57  70    35  57  70    35  57  70    35  57  70    35  57  70    35  57  70    35  57  70    36  58  71    35  57  70    35  57  70    35  57  70    35  57  70    35  57  70    35  57  70    36  58  71    37  56  70    37  56  70    38  57  71    38  57  71    38  57  71    38  57  71    37  56  70    37  56  70    37  56  70    37  56  70    37  56  70    37  56  70    36  55  69    36  55  69    36  55  69    36  55  69    38  57  71    37  56  70    37  56  70    37  56  70    36  55  69    36  55  69  
  35  57  70    35  57  70    36  58  71    36  58  71    36  58  71    36  58  71    35  57  70    35  57  70    35  57  70    35  57  70    35  58  70    36  58  71    35  57  70    35  57  70    35  57  70    35  57  70    35  57  70    35  57  70    35  57  70    35  57  70    36  58  71    36  58  71    35  57  70    34  56  69    34  56  69    35  57  70    36  58  71    36  58  71    35  55  69    37  55  70    37  56  70    38  57  70    38  57  70    37  56  70    37  55  70    35  55  69    37  56  70    37  56  70    37  56  70    37  56  70    36  55  69    36  55  69    36  55  69    36  55  69    37  55  70    37  55  70    37  55  70    37  55  70    36  55  69    36  55  69  
  35  57  70    35  57  70    36  58  71    36  58  71    36  58  71    36  58  71    35  57  70    35  57  70    35  57  70    35  57  70    35  57  70    36  58  71    35  57  70    35  57  70    35  57  70    35  57  70    35  57  70    35  57  70    35  57  70    35  57  70    37  59  72    36  58  71    35  57  70    34  56  69    34  56  69    35  57  70    36  58  71    37  59  72    35  54  68    36  55  69    37  56  70    37  56  70    37  56  70    37  56  70    36  55  69    35  54  68    37  56  70    37  56  70    37  56  70    37  56  70    36  55  69    36  55  69    36  55  69    36  55  69    36  55  69    36  55  69    36  55  69    36  55  69    37  56  70    37  56  70  
  33  56  68    34  56  69    36  58  71    37  59  72    37  59  72    36  58  71    35  58  70    35  58  70    35  57  70    34  56  69    34  56  69    34  56  69    33  56  68    35  57  70    35  58  70    35  58  70    35  57  70    35  57  70    35  58  70    36  58  71    36  57  71    35  57  70    35  57  70    35  57  70    35  57  70    35  57  70    35  57  70    36  57  71    37  56  70    37  56  70    37  56  70    38  57  70    38  57  70    37  56  70    37  56  70    37  56  70    36  55  68    36  55  69    36  55  69    36  55  69    37  55  70    37  55  70    37  56  70    37  56  70    35  55  69    36  55  69    36  55  69    36  55  69    36  55  69    36  55  69  
  33  55  68    34  56  69    36  58  71    36  58  71    35  57  70    35  57  70    35  57  70    35  57  70    35  57  70    35  57  70    36  58  71    36  58  71    33  55  68    35  57  70    36  58  71    36  58  71    35  57  70    35  57  70    36  58  71    37  59  72    35  57  70    35  57  70    35  57  70    35  57  70    35  57  70    35  57  70    35  57  70    35  57  70    37  56  70    37  56  70    37  56  70    37  56  70    37  56  70    37  56  70    37  56  70    37  56  70    36  55  69    36  55  69    36  55  69    36  55  69    37  56  70    37  56  70    37  56  70    37  56  70    36  55  69    36  55  69    36  55  69    36  55  69    36  55  69    36  55  69  
  34  56  69    35  57  70    35  57  70    36  58  71    34  56  69    34  56  69    34  56  69    35  57  70    36  58  71    36  58  71    37  59  72    37  59  72    33  55  68    35  57  70    36  58  71    35  57  70    35  57  70    34  56  69    35  57  70    37  59  72    35  57  70    35  57  70    35  57  70    35  57  70    35  57  70    35  57  70    35  57  70    35  57  70    36  55  69    36  55  69    36  55  69    36  55  69    36  55  69    36  55  69    36  55  69    36  55  69    37  56  70    37  56  70    37  56  70    36  55  69    36  55  69    36  55  69    36  55  69    36  55  69    36  55  69    36  55  69    36  55  69    36  55  69    36  55  69    36  55  69  
  34  56  69    35  57  70    35  57  70    35  57  70    35  56  70    35  56  70    35  57  70    35  57  70    35  57  70    35  58  70    35  57  70    35  57  70    34  56  69    35  57  70    36  58  71    35  57  70    34  56  69    34  55  69    35  57  70    35  58  70    35  57  70    35  57  70    35  57  70    35  57  70    35  57  70    35  57  70    35  57  70    35  57  70    35  54  68    35  54  68    35  54  68    35  54  68    35  54  68    35  54  68    35  54  68    35  54  68    37  56  70    37  56  70    37  55  70    36  55  69    35  55  69    35  54  68    35  54  68    35  54  68    36  55  69    36  55  69    36  55  69    36  55  69    36  55  69    36  55  69  
  35  57  70    35  57  70    35  57  70    35  57  70    37  59  72    37  59  72    36  58  71    36  58  71    35  57  70    35  57  70    34  56  69    34  56  69    34  56  69    35  57  70    36  58  71    35  57  70    34  56  69    33  55  68    34  56  69    35  57  70    35  57  70    35  57  70    35  57  70    35  57  70    35  57  70    35  57  70    35  57  70    35  57  70    35  54  68    35  54  68    35  54  68    35  54  68    35  54  68    35  54  68    35  54  68    35  54  68    37  56  70    37  56  70    36  55  69    36  55  69    35  54  68    35  54  68    35  54  68    35  54  68    36  55  69    36  55  69    36  55  69    36  55  69    36  55  69    36  55  69  
  35  58  70    35  57  70    35  57  70    34  56  69    36  58  71    36  58  71    35  57  70    35  57  70    35  57  70    35  57  70    35  57  70    35  57  70    34  56  69    35  57  70    35  57  70    35  57  70    33  55  68    32  54  67    33  55  68    34  56  69    35  57  70    35  57  70    35  57  70    35  57  70    35  57  70    35  57  70    35  57  70    35  57  70    35  54  68    35  54  68    35  54  68    35  54  68    35  54  68    35  54  68    35  54  68    35  54  68    35  54  68    35  54  68    35  54  68    35  54  68    35  54  68    35  54  68    35  54  68    35  54  68    36  55  69    36  55  69    36  55  69    36  55  69    36  55  69    36  55  69  
  36  58  71    35  57  70    35  57  70    34  56  69    34  56  69    34  56  69    34  56  69    35  57  70    36  58  71    36  58  71    36  58  71    37  59  72    34  56  69    35  57  70    35  57  70    34  56  69    33  55  68    32  54  67    32  54  67    33  55  68    35  57  70    35  57  70    35  57  70    35  57  70    35  57  70    35  57  70    35  57  70    37  56  70    36  55  69    36  55  69    36  55  69    36  55  69    36  55  69    36  55  69    36  55  69    36  55  69    34  53  67    34  53  67    34  53  67    35  54  68    35  54  68    36  55  69    36  55  69    36  55  69    36  55  69    36  55  69    36  55  69    36  55  69    36  55  69    36  55  69  
  39  58  72    37  56  70    36  55  69    34  53  67    37  56  70    37  56  70    37  56  70    37  56  70    37  56  70    37  56  70    37  56  70    37  56  70    37  56  70    36  55  69    35  54  68    34  53  67    33  52  66    34  53  67    35  54  68    35  54  68    35  54  68    34  53  67    34  53  67    34  53  67    36  55  69    36  55  69    36  55  69    35  54  68    33  53  64    34  52  64    36  54  66    37  55  67    38  56  68    37  55  67    36  54  66    36  54  66    37  55  67    37  55  67    37  55  67    37  55  67    37  55  67    37  55  67    37  55  67    37  55  67    38  56  68    37  55  67    36  54  66    36  54  66    37  55  67    38  56  68  
  38  57  71    39  58  72    38  57  71    37  56  70    35  55  69    35  55  69    35  55  69    35  55  69    35  55  69    35  55  69    35  55  69    35  55  69    37  55  70    36  55  69    36  55  69    36  55  68    36  55  68    35  54  68    35  54  68    35  54  68    36  55  69    34  53  67    34  53  67    34  53  67    36  55  69    36  55  69    35  55  69    34  53  67    35  52  65    35  53  65    36  54  66    37  55  67    37  55  67    37  55  67    35  54  65    35  53  65    36  54  66    36  54  66    36  54  66    36  54  66    36  54  66    36  54  66    36  54  66    36  54  66    38  55  68    37  55  67    35  54  65    36  54  66    37  55  67    38  56  68  
  36  55  69    37  56  70    38  57  71    38  57  71    35  54  68    35  54  68    35  54  68    35  54  68    35  54  68    35  54  68    35  54  68    35  54  68    36  55  69    37  56  70    38  57  71    38  57  71    38  57  71    37  56  70    36  55  69    35  54  68    36  55  69    35  54  68    34  53  67    34  53  67    36  55  69    36  55  69    35  54  68    34  53  67    37  55  67    37  55  67    37  55  67    37  55  67    37  55  67    36  54  66    35  53  65    35  53  65    36  54  66    36  54  66    36  54  66    36  54  66    36  54  66    36  54  66    36  54  66    36  54  66    37  55  67    36  54  66    35  53  65    36  54  66    37  55  67    38  56  68  
  33  52  66    35  54  68    36  55  69    38  57  70    35  55  69    35  55  69    35  55  69    35  55  69    35  55  69    35  55  69    35  55  69    35  55  69    36  55  69    37  56  70    38  57  71    38  57  71    38  57  71    37  56  70    36  55  69    35  54  68    37  55  70    35  55  69    34  53  67    35  54  68    35  54  68    36  55  69    34  53  67    33  52  66    37  55  67    37  55  67    37  55  67    36  54  66    35  53  65    35  53  65    35  53  65    35  53  65    35  53  65    35  53  65    35  53  65    35  53  65    35  53  65    35  53  65    35  53  65    35  53  65    37  55  67    36  54  66    35  53  65    35  53  65    36  54  66    37  55  67  
  35  54  68    36  55  69    38  57  71    39  58  72    37  56  70    37  56  70    37  56  70    37  56  70    37  56  70    37  56  70    37  56  70    37  56  70    36  55  69    37  56  70    37  56  70    37  56  70    37  56  70    36  55  69    35  54  68    35  54  68    37  56  70    36  55  69    35  54  68    35  54  68    35  54  68    35  54  68    34  53  67    33  52  66    37  55  67    37  55  67    36  54  66    35  53  65    35  53  65    35  53  65    36  54  66    36  54  66    36  54  66    36  54  66    36  54  66    36  54  66    36  54  66    36  54  66    36  54  66    36  54  66    36  54  66    35  53  65    34  52  64    35  53  65    36  54  66    37  55  67  
  35  54  68    36  55  69    37  56  70    38  57  71    36  55  69    36  55  69    36  55  69    36  55  69    36  55  69    36  55  69    36  55  69    36  55  69    37  56  70    36  55  69    36  55  69    35  54  68    35  54  68    35  54  68    35  54  68    35  54  68    38  57  71    36  55  69    35  54  68    35  54  68    35  54  68    35  54  68    34  53  67    32  51  65    37  55  67    36  54  66    35  53  65    35  53  65    35  53  65    36  54  66    37  55  67    38  56  68    36  54  66    36  54  66    36  54  66    36  54  66    36  54  66    36  54  66    36  54  66    36  54  66    36  54  66    35  53  65    34  52  64    35  53  65    36  54  66    36  54  66  
  34  53  67    34  53  67    35  54  68    35  54  68    35  54  68    35  54  68    35  54  68    35  54  68    35  54  68    35  54  68    36  55  68    36  55  68    37  55  70    36  55  69    35  54  68    34  53  67    33  52  66    34  53  67    35  54  68    35  54  68    38  57  70    36  55  69    35  54  68    35  54  68    35  54  68    36  55  68    35  53  67    33  52  66    35  54  65    35  54  65    35  53  65    35  52  65    35  53  65    36  54  66    37  55  67    37  55  67    36  54  66    37  55  67    37  55  67    37  55  67    37  55  67    37  55  67    37  55  67    37  55  67    35  54  65    35  53  65    34  52  64    35  53  65    35  54  65    35  54  65  
  35  54  68    35  54  68    35  54  68    35  54  68    35  54  68    35  54  68    35  54  68    36  55  69    36  55  69    36  55  69    37  56  70    37  56  70    36  55  69    36  55  69    35  54  68    34  53  67    34  53  67    35  54  68    36  55  69    36  55  69    37  56  70    36  55  69    35  54  68    35  54  68    36  55  69    37  56  70    36  55  69    35  54  68    35  53  65    35  53  65    36  54  66    36  54  66    36  54  66    36  54  66    35  53  65    35  53  65    35  53  65    36  54  66    36  54  66    36  54  66    36  54  66    37  55  67    37  55  67    37  55  67    35  53  65    35  53  65    35  53  65    35  53  65    35  53  65    35  53  65  
  35  54  68    35  54  68    35  54  68    35  54  68    35  54  68    35  54  68    35  54  68    36  55  69    36  55  69    36  55  69    36  55  69    36  55  69    36  55  69    35  54  68    35  54  68    34  53  67    34  53  67    35  54  68    35  54  68    36  55  69    36  55  69    35  54  68    34  53  67    35  54  68    36  55  69    37  56  70    36  55  69    35  54  68    35  53  65    35  53  65    36  54  66    36  54  66    36  54  66    36  54  66    35  53  65    35  53  65    35  53  65    35  53  65    35  53  65    36  54  66    36  54  66    36  54  66    36  54  66    36  54  66    35  53  65    35  53  65    35  53  65    35  53  65    35  53  65    35  53  65  
  36  55  69    36  55  69    36  55  69    36  55  69    35  54  68    36  55  69    36  55  69    36  55  69    36  55  69    36  55  69    36  55  69    36  55  69    35  54  68    35  54  68    35  54  68    35  54  68    35  54  68    35  54  68    35  54  68    35  54  68    36  55  69    35  54  68    34  53  67    35  54  68    36  55  69    36  55  69    35  54  68    34  53  67    35  53  65    35  53  65    36  54  66    36  54  66    36  54  66    36  54  66    35  53  65    35  53  65    35  53  65    35  53  65    35  53  65    35  53  65    36  54  66    36  54  66    36  54  66    36  54  66    35  53  65    35  53  65    35  53  65    35  53  65    35  53  65    35  53  65  
  36  55  69    36  55  69    36  55  69    36  55  69    36  55  69    36  55  69    36  55  69    36  55  69    36  55  69    36  55  69    36  55  69    35  54  68    35  54  68    35  54  68    35  54  68    35  54  68    35  54  68    35  54  68    35  54  68    35  54  68    36  55  69    35  54  68    34  53  67    34  53  67    35  54  68    36  55  69    35  54  68    34  53  67    35  53  65    35  53  65    36  54  66    36  54  66    36  54  66    36  54  66    35  53  65    35  53  65    34  52  64    34  52  64    35  53  65    35  53  65    35  53  65    35  53  65    36  54  66    36  54  66    35  53  65    35  53  65    35  53  65    35  53  65    35  53  65    35  53  65  
  36  55  69    36  55  69    36  55  69    36  55  69    36  55  69    36  55  69    36  55  69    36  55  69    36  55  69    35  54  68    35  54  68    35  54  68    34  53  67    35  54  68    35  54  68    36  55  69    36  55  69    35  54  68    35  54  68    34  53  67    35  54  68    34  53  67    33  52  66    34  53  67    35  54  68    35  55  69    35  54  68    34  53  67    35  53  65    35  53  65    36  54  66    36  54  66    36  54  66    36  54  66    35  53  65    35  53  65    34  52  64    34  52  64    34  52  64    35  53  65    35  53  65    35  53  65    35  53  65    35  53  65    35  53  65    35  53  65    35  53  65    35  53  65    35  53  65    35  53  65  
  37  56  70    37  56  70    37  56  70    37  56  70    37  56  70    37  56  70    36  55  69    36  55  69    36  55  69    35  54  68    35  54  68    35  54  68    34  53  67    35  54  68    36  55  69    36  55  69    36  55  69    36  55  69    35  54  68    34  53  67    35  54  68    34  53  67    33  52  66    34  53  67    35  54  68    35  54  68    34  53  67    33  52  66    35  53  65    35  53  65    36  54  66    36  54  66    36  54  66    36  54  66    35  53  65    35  53  65    34  52  64    34  52  64    34  52  64    34  52  64    35  53  65    35  53  65    35  53  65    35  53  65    35  53  65    35  53  65    35  53  65    35  53  65    35  53  65    35  53  65  
  37  56  70    37  56  70    37  56  70    36  55  68    36  55  68    36  55  68    36  55  69    36  55  69    35  54  68    35  54  68    34  53  67    34  53  67    35  54  68    34  53  67    34  53  67    35  53  67    36  55  69    37  55  70    35  54  68    35  54  68    33  52  66    34  53  67    34  53  67    35  54  68    35  54  68    35  54  68    34  53  67    33  52  66    35  54  65    35  54  65    36  54  66    36  54  66    36  54  66    36  54  66    35  54  65    35  54  65    35  53  65    35  53  65    35  53  65    35  53  65    35  54  65    35  54  65    35  54  65    35  54  65    35  54  65    35  53  65    34  52  64    35  53  65    35  54  65    35  54  65  
  37  56  70    38  57  71    37  56  70    36  55  69    37  56  70    37  56  70    37  56  70    37  56  70    37  56  70    37  56  70    36  55  69    35  54  68    35  54  68    34  53  67    34  53  67    34  53  67    36  55  69    36  55  69    36  55  69    35  54  68    34  53  67    34  53  67    34  53  67    35  54  68    35  54  68    34  53  67    34  53  67    34  53  67    36  54  66    36  54  66    36  54  66    36  54  66    36  54  66    36  54  66    36  54  66    36  54  66    36  54  66    36  54  66    36  54  66    36  54  66    36  54  66    36  54  66    36  54  66    36  54  66    36  54  66    35  53  65    34  52  64    35  53  65    36  54  66    36  54  66  
  37  56  70    38  57  71    37  56  70    36  55  69    37  56  70    37  56  70    37  56  70    37  56  70    37  56  70    37  56  70    36  55  69    35  54  68    36  55  69    35  54  68    34  53  67    35  54  68    35  54  68    36  55  69    35  54  68    34  53  67    35  54  68    35  54  68    34  53  67    34  53  67    34  53  67    34  53  67    35  54  68    35  54  68    36  54  66    36  54  66    36  54  66    36  54  66    36  54  66    36  54  66    36  54  66    36  54  66    36  54  66    36  54  66    36  54  66    36  54  66    36  54  66    36  54  66    36  54  66    36  54  66    36  54  66    35  53  65    34  52  64    35  53  65    36  54  66    36  54  66  
  38  57  71    38  57  71    37  56  70    36  55  69    35  54  68    35  54  68    36  55  69    36  55  69    35  54  68    35  54  68    34  53  67    34  53  67    37  56  70    36  55  69    35  54  68    35  54  68    35  54  68    35  54  68    34  53  67    33  52  66    36  55  69    35  54  68    34  53  67    34  53  67    34  53  67    34  53  67    35  54  68    36  55  69    36  54  66    36  54  66    36  54  66    36  54  66    36  54  66    36  54  66    36  54  66    36  54  66    35  53  65    35  53  65    35  53  65    35  53  65    35  53  65    35  53  65    35  53  65    35  53  65    36  54  66    35  53  65    34  52  64    35  53  65    36  54  66    36  54  66  
  38  57  71    39  58  72    38  57  71    37  56  70    36  55  69    36  55  69    37  56  70    37  56  70    36  55  69    36  55  69    35  54  68    35  54  68    37  56  70    36  55  69    35  54  68    35  54  68    35  54  68    36  55  69    35  54  68    34  53  67    36  55  69    36  55  69    35  54  68    35  54  68    35  54  68    35  54  68    36  55  69    36  55  69    36  54  66    36  54  66    36  54  66    36  54  66    36  54  66    36  54  66    36  54  66    36  54  66    35  53  65    35  53  65    35  53  65    35  53  65    35  53  65    35  53  65    35  53  65    35  53  65    36  54  66    35  53  65    34  52  64    35  53  65    36  54  66    36  54  66  
  39  58  72    39  58  72    38  57  71    37  56  70    37  56  70    37  56  70    37  56  70    37  56  70    37  56  70    37  56  70    36  55  69    35  54  68    35  54  68    34  53  67    34  53  67    34  53  67    35  55  69    36  55  69    35  55  69    35  54  68    35  54  68    36  55  69    35  55  69    35  55  69    35  55  69    35  55  69    36  55  69    35  54  68    36  54  66    36  54  66    36  54  66    36  54  66    36  54  66    36  54  66    36  54  66    36  54  66    35  53  65    35  53  65    35  53  65    35  53  65    35  53  65    35  53  65    35  53  65    35  53  65    36  54  66    35  53  65    34  52  64    35  53  65    36  54  66    36  54  66  
  39  58  72    39  58  72    38  57  71    37  56  70    35  54  68    35  54  68    36  55  69    36  55  69    35  54  68    35  54  68    34  53  67    34  53  67    35  54  68    34  53  67    33  52  66    34  53  67    36  55  69    37  56  70    36  55  69    35  54  68    35  54  68    35  54  68    36  55  69    37  56  70    37  56  70    36  55  69    35  54  68    35  54  68    36  54  66    36  54  66    36  54  66    36  54  66    36  54  66    36  54  66    36  54  66    36  54  66    34  52  64    34  52  64    34  52  64    34  52  64    34  52  64    34  52  64    34  52  64    34  52  64    36  54  66    35  53  65    34  52  64    35  53  65    36  54  66    36  54  66  
