P3
50 50
255
  85 166 187    86 167 188    86 167 188    87 168 189    86 167 188    83 164 185    81 162 183    84 165 186    88 169 190    91 172 193    89 171 192    84 165 186    92 174 194    94 175 196    80 161 182    81 162 183    90 171 192    84 165 186    87 168 189    85 166 187    84 165 186    86 167 188    90 171 192    90 171 192    86 167 188    81 162 183    88 168 191    91 171 194    92 172 194    88 168 191    85 165 188    86 166 189    87 167 190    86 166 189    93 173 196    90 170 193    87 167 189    85 165 188    86 166 189    87 167 189    85 165 188    84 164 187    79 159 182    80 160 183    89 169 192    77 157 180    89 169 192    84 164 187    92 172 195    85 165 188  
  88 169 190    89 170 191    87 168 189    88 169 190    88 169 190    87 168 189    85 166 187    86 167 188    89 170 191    92 173 194    86 167 188    81 162 183    88 169 190    91 172 193    82 163 184    85 166 186    91 172 193    87 168 189    85 167 188    84 165 186    84 165 186    86 167 188    88 169 190    89 170 190    87 168 190    86 167 188    94 174 197    93 173 196    88 168 191    84 164 187    86 166 189    90 170 192    88 168 191    84 164 187    84 164 187    84 164 187    85 165 188    87 167 190    88 168 191    86 166 189    82 162 185    78 158 181    82 162 185    82 162 185    88 168 191    79 159 182    88 168 191    84 164 187    91 171 194    86 166 189  
  87 168 189    89 170 191    88 169 190    88 169 190    89 170 191    90 171 192    90 171 192    89 170 191    90 171 192    93 174 195    86 167 188    82 163 184    85 166 187    87 168 189    84 165 186    86 167 188    88 169 190    85 166 187    86 167 188    86 167 188    86 167 188    86 167 188    86 167 188    87 168 189    89 170 191    90 171 192    93 173 196    91 171 194    87 167 190    84 164 187    87 167 190    91 171 194    89 169 192    83 163 186    88 168 191    87 167 190    88 168 191    88 168 191    89 169 192    89 169 192    87 167 190    86 166 189    88 168 191    87 167 190    89 169 192    83 163 186    88 168 191    86 166 189    91 171 194    89 169 192  
  85 166 187    87 168 189    87 168 189    85 166 187    86 167 188    90 171 192    91 172 193    89 170 191    88 170 191    91 172 193    88 169 190    87 168 189    85 166 187    85 167 188    87 168 189    88 169 190    86 167 188    86 167 188    89 170 191    88 169 190    88 169 190    86 167 188    84 165 186    85 166 186    87 168 189    90 171 191    84 164 187    87 167 190    87 167 190    86 166 189    87 167 190    88 168 191    87 167 190    84 164 187    84 164 187    83 163 186    82 162 186    81 161 185    81 161 185    83 163 186    85 165 187    86 166 188    90 170 193    89 169 192    87 167 190    86 166 189    86 166 188    87 167 190    89 169 192    90 170 193  
  87 168 189    89 170 191    87 168 189    82 163 184    83 164 185    89 170 191    91 172 193    88 169 190    87 168 189    91 172 193    87 168 189    92 173 194    89 169 191    87 168 189    92 174 194    92 173 194    89 169 191    93 174 195    92 173 194    90 171 192    88 169 190    86 167 188    85 166 187    85 166 187    86 167 188    87 168 189    80 160 183    86 166 189    89 169 192    88 168 191    86 166 189    87 167 190    88 168 191    86 166 189    87 167 189    89 169 192    92 172 195    93 173 196    93 173 196    91 171 194    89 169 192    89 169 192    87 167 190    86 166 189    81 161 184    88 168 191    82 162 185    86 166 189    83 163 186    88 168 191  
  86 167 188    87 167 189    88 169 190    81 162 183    81 162 183    88 169 190    91 172 193    88 169 190    87 168 189    92 173 194    84 165 186    93 174 195    89 170 191    86 167 188    92 172 194    88 169 190    84 165 186    93 174 195    92 173 194    89 170 191    86 167 188    86 167 188    87 168 189    88 169 190    88 169 190    86 167 188    89 169 192    90 170 193    89 169 192    86 166 189    86 166 189    89 169 192    89 169 192    87 167 190    85 165 188    87 167 190    91 171 194    92 172 194    90 169 192    88 168 191    86 166 189    86 166 190    85 165 188    86 166 189    80 160 183    91 171 194    83 163 186    88 168 191    82 162 185    89 169 192  
  84 165 186    85 166 187    91 171 192    85 166 187    83 164 185    88 169 190    90 171 192    88 169 190    88 169 190    92 173 194    84 164 185    94 174 195    92 170 192    84 165 186    89 166 188    84 164 185    83 160 183    89 169 191    91 168 190    88 168 189    88 165 187    86 165 187    90 167 190    91 171 192    91 169 191    87 167 188    99 176 199    92 171 194    87 165 188    84 163 186    89 167 190    91 171 194    93 171 194    89 168 191    92 170 193    92 171 194    93 171 194    89 169 191    88 165 189    87 166 189    90 167 190    89 169 192    90 170 192    88 167 190    83 162 185    90 169 192    87 166 189    90 169 192    86 165 188    88 168 191  
  89 170 191    91 172 193    89 170 191    88 169 190    87 168 189    88 169 190    88 169 190    88 169 190    89 170 191    91 170 192    91 168 190    95 172 194    96 172 195    91 168 190    89 165 188    91 168 190    93 169 192    91 168 191    87 163 186    92 169 191    94 170 193    90 167 189    90 166 189    93 170 192    94 170 193    91 168 191    96 172 195    88 165 188    85 161 184    89 166 188    93 169 192    93 170 192    94 170 193    95 172 195    97 173 196    98 175 198    98 174 197    94 171 193    92 168 191    93 170 192    91 167 190    87 164 187   100 178 200    93 171 193    90 168 190    85 163 185    92 170 192    90 168 190    90 168 190    86 164 186  
  92 171 193    89 168 190    89 168 190    90 169 190    92 170 192    93 172 193    92 171 193    91 170 192    89 168 190    88 166 188    94 170 193    97 173 195    97 173 196    95 171 194    94 170 193    94 170 193    92 168 191    88 165 187    91 167 190    94 170 193    97 173 196    95 171 194    94 170 193    95 171 194    95 170 194    93 169 192    94 170 193    91 167 190    89 165 188    91 167 190    92 168 191    91 167 190    91 167 190    93 169 192    97 173 196    99 175 198   100 176 198    96 172 195    95 171 194    96 172 195    94 170 193    90 166 189    93 171 193    96 174 196    87 165 187    96 174 196    87 165 187    97 175 197    90 168 190    93 171 193  
  92 170 192    86 164 186    92 170 192    93 171 193    94 172 194    94 172 194    93 171 193    91 169 191    89 167 189    87 165 187    97 173 196    96 172 195    94 170 193    94 170 193    96 172 195    97 173 196    93 169 192    89 165 188    94 171 194    97 173 196    98 174 197    96 172 195    95 171 194    95 171 194    96 172 195    96 172 195    95 171 194    94 170 193    94 169 193    93 169 192    92 168 191    91 167 190    94 169 193    97 172 195    90 165 189    93 168 191    94 170 193    92 168 191    92 168 191    94 170 193    93 169 192    90 166 189    85 163 185    90 168 190    88 166 188    95 173 195    86 164 186    93 170 193    88 166 188    92 170 192  
  93 169 192    89 165 188    87 163 185    86 163 185    87 163 186    88 164 187    90 166 189    93 169 192    95 171 194    96 172 195    96 172 195    93 169 192    90 166 189    91 167 190    94 170 193    94 171 194    94 170 193    94 170 193    98 174 197    97 173 196    95 171 194    94 170 193    92 168 191    93 169 192    95 171 194    99 175 198    94 170 193    94 170 193    93 169 192    90 166 189    89 165 188    92 168 191    96 172 195    99 175 198    88 164 187    91 167 190    93 169 192    93 169 192    94 170 193    98 174 197    98 174 197    95 171 194    92 169 192    92 170 192   100 178 200    92 169 192    94 172 194    84 162 184    90 168 190    88 166 188  
  94 170 193    95 171 194    96 172 195    95 170 193    92 168 191    91 167 190    91 167 190    94 169 192    96 172 195    98 174 197    94 170 193    91 167 190    90 166 188    91 167 190    92 168 191    91 167 190    93 169 192    96 172 195    95 171 194    93 169 192    93 169 192    93 170 192    93 169 192    91 167 190    94 170 193    98 174 197    94 170 193    95 171 193    93 169 192    89 165 188    91 167 190    95 171 194    97 173 196    95 171 194    89 165 188    91 167 191    92 168 191    91 167 190    92 168 191    97 173 196    98 174 197    97 173 196    88 166 188    87 165 187    96 174 196    88 166 188    96 174 196    88 166 188    95 174 195    93 171 193  
  93 168 191    98 173 196    99 174 197    97 172 195    95 170 193    93 168 191    92 167 190    92 167 190    94 169 192    95 170 193    93 169 192    92 168 191    93 169 192    96 172 195    94 170 193    90 166 189    90 166 189    95 171 194    92 168 191    90 166 189    93 169 192    97 173 196    97 173 196    93 169 192    93 169 192    96 172 195    98 174 197    99 175 198    98 174 197    96 172 195    99 175 198   102 178 201    98 174 197    91 167 190    94 170 193    95 171 194    94 170 193    90 166 189    91 167 190    95 171 194    97 173 196    96 172 195    91 169 191    93 171 193    91 169 191    95 173 195    90 168 190    94 172 194    91 169 191    93 171 193  
  98 173 196    99 174 197    97 172 195    92 167 190    90 165 188    92 167 190    95 170 193    95 170 193    95 170 193    96 171 194    92 168 191    92 168 191    93 169 192    94 170 193    93 170 192    92 168 191    92 168 191    93 169 192    91 167 190    92 168 191    91 167 191    92 168 191    93 169 192    95 171 194    93 169 192    90 166 189    97 173 196    93 169 192    91 167 190    93 169 192    95 171 194    93 169 192    93 168 192    93 169 192    93 169 192    91 167 190    93 169 192    95 171 194    94 170 193    90 166 189    91 167 190    95 171 194    93 171 193    96 174 196    94 172 194    94 172 194    90 168 190    95 172 195    91 169 191    89 167 189  
 100 175 198   102 177 200   106 181 204    99 174 197    95 170 193    97 172 195    99 174 197    95 170 193    92 167 190    91 166 190    94 171 194    94 171 194    94 171 194    95 172 194    96 172 194    97 172 195    97 172 195    97 172 195    94 170 193    97 173 196    97 173 196    94 170 193    94 170 194    98 174 197    98 174 197    95 171 194    90 167 190    87 163 186    87 163 186    90 166 189    92 168 191    91 167 190    91 167 190    93 169 192    94 170 193    93 169 192    95 172 194    98 174 197    96 172 195    92 168 191    93 169 192    98 174 197    93 171 193    95 173 195    95 173 195    93 171 193    94 172 194    97 174 197    96 174 196    91 169 191  
  97 173 196   100 177 199   104 179 202   100 176 199    98 174 197   100 176 199   101 177 200    99 175 198    96 172 195    95 171 194    96 172 195    96 172 195    97 173 196    98 174 197    98 174 197    98 174 197    98 174 197    97 174 197    91 167 190    96 172 194    98 174 197    96 172 194    93 169 192    94 170 193    97 173 196    98 174 197    90 166 189    93 169 192    94 170 193    92 168 191    91 167 190    92 168 191    90 166 190    87 163 186    91 167 190    94 170 193    95 171 194    92 167 190    91 167 189    94 170 193    95 171 194    94 171 194    96 174 196    95 173 195    92 170 192    92 170 192    95 173 195    98 176 198    94 172 194    88 166 188  
  93 169 192    94 171 194    99 176 199    98 175 197    99 176 198   100 177 199   102 178 201   101 177 200    99 175 198    97 174 197    96 172 195    96 172 195    97 173 196    97 173 196    97 173 195    95 171 194    94 170 193    93 169 192    92 168 191    93 170 192    94 170 193    93 170 192    94 170 193    94 170 193    95 171 194    96 172 195    88 164 187    95 171 194    96 172 195    91 167 190    90 166 189    96 171 195    98 174 197    93 170 193    90 166 189    95 171 194    95 171 193    88 165 187    89 165 188    96 171 195    96 172 196    92 168 191    96 174 196    92 170 192    88 166 188    90 168 190    94 172 194    95 173 195    90 168 190    85 162 185  
  88 166 188    87 165 187    93 171 193    95 173 195    96 174 196    95 173 195    96 174 196    97 175 197    97 175 197    95 173 195    97 173 196    98 174 197    98 174 197    98 174 197    97 173 196    94 170 193    92 168 191    90 166 189    99 175 198    95 171 194    93 169 192    95 171 194    99 175 198    98 174 197    97 173 196    95 171 194    88 164 187    93 169 192    93 169 192    89 165 188    88 164 187    94 170 193    98 174 197    98 174 197    93 169 192    95 171 194    94 170 193    90 166 189    91 167 190    96 172 195    96 172 195    92 168 191    93 171 193    89 167 189    87 165 187    90 168 190    95 173 195    96 174 196    93 171 193    90 168 190  
  82 162 183    81 161 182    79 160 181    84 164 185    86 166 187    86 166 187    87 167 189    92 172 194    95 175 196    95 173 195    96 171 195    96 172 196    97 173 196    98 174 197    98 174 197    95 171 194    93 169 192    90 167 190    98 174 197    93 170 192    92 168 191    95 171 194    96 172 195    94 170 193    92 168 191    93 169 192    92 168 191    92 168 191    93 169 192    91 167 190    87 163 186    86 162 185    89 165 188    93 169 192    92 168 191    89 165 188    88 164 187    90 166 189    91 167 190    90 166 189    88 164 187    87 163 186    90 168 190    87 165 187    87 165 187    92 170 192    95 173 195    94 172 194    93 171 193    94 172 194  
  77 158 179    81 162 183    79 159 181    83 164 185    83 164 185    79 160 181    80 160 181    85 165 187    87 168 189    86 167 188    90 168 190    93 169 192    95 171 194    97 173 196    97 173 196    96 172 195    94 170 193    92 168 191    96 172 195    94 170 193    95 172 194    97 173 196    94 170 193    88 164 187    89 165 188    95 171 194    85 161 184    85 161 184    89 165 188    95 172 194    94 170 193    89 165 188    92 168 191   101 177 200    95 172 194    89 165 188    88 164 187    94 169 192    94 170 194    89 165 188    86 162 185    87 164 187    92 170 192    87 168 189    89 167 189    92 170 192    91 169 191    88 165 188    86 165 186    89 167 189  
  74 154 177    84 164 187    76 156 179    78 158 181    79 159 182    79 159 182    78 158 181    78 158 181    81 161 184    84 164 187    81 162 183    86 164 186    90 169 190    92 169 192    91 167 190    91 167 190    95 170 194   101 176 199    97 172 195    94 169 192    92 168 191    92 168 191    90 168 190    87 165 187    89 167 189    94 172 194    86 164 186    92 170 192    92 170 192    86 164 186    88 166 188    94 172 194    91 169 191    80 158 180    84 162 184    85 163 185    84 162 184    84 162 184    88 166 188    92 169 192    90 168 190    85 163 185    80 161 182    79 161 182    80 161 183    80 162 183    82 163 184    84 165 186    87 168 189    88 169 189  
  75 155 178    80 160 183    70 150 173    77 157 180    82 162 185    79 159 182    72 152 175    70 150 173    76 156 179    83 163 186    75 156 177    79 160 182    86 165 187    88 165 188    87 163 185    86 162 185    92 167 190    97 172 195    95 170 193    93 168 191    92 168 191    94 170 193    91 169 191    86 167 188    87 168 189    90 172 193    88 167 189    87 166 188    87 166 188    88 167 188    88 167 189    89 168 189    90 169 190    90 169 191    84 163 185    88 166 188    88 167 188    84 163 185    83 162 184    86 165 186    88 167 189    85 167 188    82 164 185    83 165 185    84 166 187    85 167 188    85 166 187    84 166 187    84 165 186    85 166 187  
  76 156 179    76 156 179    74 154 177    74 154 177    74 154 177    73 153 176    73 153 176    73 153 176    74 154 177    74 154 177    72 154 176    77 159 180    83 164 185    84 164 185    85 162 185    88 164 187    92 167 190    94 169 192    87 162 185    86 162 185    88 164 187    91 168 191    90 170 191    86 167 188    87 168 189    89 171 192    88 169 190    86 167 188    86 167 188    86 167 188    84 165 186    81 162 183    84 165 186    89 170 191    82 163 184    86 167 188    87 168 189    83 164 185    79 160 181    80 161 182    82 163 184    82 163 184    81 163 184    81 163 184    81 163 184    79 161 182    79 161 182    80 162 183    84 165 186    88 169 190  
  75 155 179    72 152 177    79 159 184    74 154 178    68 148 172    70 150 174    75 155 179    78 158 182    73 153 177    68 148 171    70 152 174    72 154 176    74 155 177    76 156 179    82 161 183    87 165 188    87 163 187    83 158 182    81 157 181    81 157 181    85 161 185    88 166 189    86 166 188    83 163 186    81 163 185    84 166 188    79 159 182    85 166 188    86 166 189    79 159 182    75 156 178    77 157 180    78 159 181    76 157 179    82 162 184    83 164 186    84 164 186    82 162 185    81 161 184    82 162 184    79 160 182    75 155 177    79 161 183    80 163 184    81 163 184    79 161 183    78 160 182    80 162 183    85 165 188    89 170 192  
  73 153 178    71 151 176    75 155 180    76 156 181    76 156 181    74 154 179    72 152 177    71 151 176    73 153 178    75 155 180    70 152 174    73 155 177    74 154 177    74 154 177    82 160 183    88 166 189    86 162 186    77 153 177    86 162 186    85 161 185    86 164 187    88 166 189    83 163 186    78 158 181    75 157 179    78 160 181    75 155 178    86 166 189    87 167 190    78 158 181    76 156 179    84 164 187    84 164 187    76 156 179    82 162 185    82 162 185    82 162 185    81 161 184    83 163 186    85 165 188    80 160 183    71 153 175    73 155 178    79 161 183    84 166 188    84 167 189    81 163 185    77 159 181    78 158 181    79 159 182  
  71 153 177    70 152 176    71 153 177    75 157 181    77 159 183    74 157 180    70 152 176    70 151 175    73 155 179    76 158 182    69 151 174    77 159 181    81 161 184    78 158 181    81 159 182    86 164 187    87 162 187    80 156 180    85 161 185    84 160 184    84 162 185    85 164 187    81 161 184    75 155 178    73 155 177    75 157 179    82 164 186    83 165 187    80 162 184    76 158 180    77 159 181    81 163 185    82 163 186    77 159 181    76 158 180    79 161 183    78 159 182    74 156 178    75 157 179    77 159 181    78 159 182    75 157 179    71 153 175    74 159 180    78 163 184    76 161 182    74 156 178    71 153 175    73 155 177    76 158 180  
  69 151 176    68 149 174    75 157 182    73 154 179    68 150 175    67 149 174    72 154 179    74 156 180    73 155 180    73 155 179    64 147 171    73 156 179    79 160 183    76 156 180    76 155 178    80 158 182    83 159 183    79 155 180    79 155 180    77 154 178    78 156 180    80 160 183    78 158 181    72 154 177    72 154 177    75 158 181    83 165 188    75 158 180    69 151 174    70 152 175    71 153 176    69 152 174    69 152 174    71 154 177    72 155 177    74 157 180    74 157 179    70 152 175    67 149 172    72 155 177    75 158 180    73 155 178    74 158 180    73 158 180    74 158 180    74 159 181    73 155 178    72 155 177    77 159 182    85 167 189  
  63 144 171    60 141 168    67 148 175    69 150 177    64 145 172    64 145 172    72 153 180    73 154 181    71 152 179    74 156 181    65 149 173    68 152 176    71 153 177    71 153 177    75 155 180    79 159 184    81 158 184    78 155 181    78 155 181    73 150 176    74 152 178    79 159 184    78 159 183    70 152 176    68 151 175    72 156 180    75 159 183    69 153 177    65 149 173    66 150 174    68 152 176    67 151 175    67 151 175    69 153 177    68 152 176    64 148 172    66 150 174    67 151 175    64 148 172    69 153 177    72 156 180    64 148 172    73 157 181    68 152 176    69 153 177    76 160 184    77 161 185    72 156 180    75 157 181    81 163 187  
  59 142 169    58 141 167    53 136 162    62 145 171    64 147 174    67 150 176    73 156 182    69 152 178    63 146 173    65 148 175    65 149 173    67 151 175    70 152 176    69 151 175    73 153 178    76 156 181    78 156 181    75 152 178    83 160 185    75 152 178    71 151 176    75 155 180    75 157 181    69 151 175    63 147 171    65 149 173    67 152 175    61 147 170    59 144 168    61 146 169    63 148 171    62 147 170    63 148 171    65 151 174    65 150 173    55 140 163    58 143 166    65 150 173    60 145 169    59 144 167    65 150 173    67 153 176    71 157 180    69 154 177    66 152 175    67 153 176    69 153 177    70 153 177    73 156 180    76 160 184  
  61 145 171    63 147 173    54 138 164    62 146 172    62 146 172    60 145 170    64 148 174    60 144 170    56 140 166    62 146 172    65 149 173    67 151 175    69 151 175    68 150 174    71 151 176    75 155 180    76 153 179    72 149 175    76 153 179    70 147 173    67 147 172    69 149 174    68 150 175    62 145 170    59 143 167    59 145 168    61 147 170    57 143 166    56 142 165    58 144 167    58 144 167    57 143 166    58 144 167    61 147 170    69 154 177    60 146 169    62 148 171    66 152 175    58 144 167    57 143 166    66 152 175    70 156 179    65 151 175    66 152 175    65 151 174    61 147 170    62 146 170    67 151 175    69 153 177    69 153 177  
  59 143 169    65 149 175    57 141 167    64 147 174    61 145 171    57 141 167    60 144 170    58 142 168    57 141 167    65 149 175    63 149 172    64 151 174    66 149 174    66 149 173    69 149 174    73 153 178    74 151 177    69 147 173    67 144 169    68 145 171    68 148 173    68 148 173    61 144 168    54 138 162    54 139 162    57 144 167    60 146 169    56 144 166    56 144 166    57 145 167    56 144 166    54 142 164    55 143 165    58 146 168    57 145 167    57 145 167    59 147 169    54 142 164    47 135 157    55 143 165    64 152 174    60 148 170    57 143 166    60 146 169    61 147 170    59 145 168    60 146 169    62 149 172    63 147 171    60 144 169  
  58 142 168    61 145 171    52 136 162    58 142 168    57 141 167    56 140 166    63 147 173    62 145 172    59 143 169    65 149 175    58 144 168    60 146 170    61 145 170    60 144 169    64 145 170    68 149 174    69 147 173    65 143 169    62 140 166    66 146 171    70 150 175    67 149 174    57 141 166    51 135 160    50 135 159    52 138 162    50 138 161    50 138 160    50 138 161    51 139 162    50 138 161    46 134 157    48 136 159    52 140 163    49 137 160    49 137 160    51 139 161    46 134 157    43 131 153    53 141 164    62 150 172    55 144 166    53 139 162    52 138 162    55 141 165    59 145 168    60 145 169    57 143 167    57 141 165    57 141 166  
  55 139 165    55 139 165    53 137 163    55 139 165    50 134 160    48 132 158    56 140 166    58 142 168    56 140 166    61 145 171    53 139 164    55 141 166    56 140 166    56 140 166    59 141 168    64 145 172    63 144 171    59 140 167    55 135 162    59 140 167    63 144 171    62 144 171    57 141 167    54 138 164    50 136 161    48 134 159    45 133 157    45 133 157    47 135 159    49 137 161    48 136 160    45 133 157    47 135 159    52 140 164    53 141 165    43 131 155    44 132 156    48 136 160    46 134 158    49 137 161    55 143 167    53 141 165    52 138 163    47 133 158    49 135 160    57 143 168    59 145 170    53 139 164    53 137 163    59 143 169  
  49 133 161    49 133 160    48 133 160    49 133 160    48 132 159    48 133 160    52 135 163    53 137 165    54 138 165    55 139 167    56 142 168    55 141 167    54 139 166    52 138 165    53 138 165    57 140 168    57 141 168    57 140 168    52 135 162    55 138 166    55 138 166    52 137 164    51 136 163    53 138 165    51 137 164    48 134 160    41 127 153    41 128 154    43 129 155    45 132 158    46 133 159    47 133 159    49 136 162    51 137 163    47 134 160    44 130 156    42 129 155    42 129 155    43 130 156    47 133 159    48 135 161    47 134 160    49 135 160    43 130 155    45 131 156    52 138 163    54 140 165    48 134 159    49 135 160    56 142 167  
  53 137 165    52 135 164    45 129 157    46 130 158    47 131 159    48 132 160    49 133 161    50 134 162    50 134 162    50 134 162    53 138 165    52 138 165    52 138 165    51 137 164    51 137 164    52 138 165    54 140 167    56 142 169    47 133 160    50 136 163    49 135 162    45 131 158    45 131 158    47 133 160    46 133 160    43 129 156    45 131 158    45 131 158    45 131 158    46 132 159    46 132 159    47 133 160    47 133 160    47 133 160    47 134 160    48 134 161    46 132 159    43 129 156    43 129 156    45 131 158    45 131 158    42 128 155    47 133 158    41 127 152    41 127 152    48 134 159    51 137 162    47 133 158    47 133 158    52 138 163  
  47 131 159    43 127 155    45 129 157    45 129 157    46 130 158    47 131 159    48 132 160    48 132 160    48 132 160    48 132 160    44 130 157    47 133 160    49 135 162    49 135 162    48 134 161    48 134 161    49 136 163    52 139 165    47 133 160    49 135 162    49 135 162    46 132 159    45 131 158    46 132 159    45 131 158    42 128 155    39 126 153    40 126 153    41 127 154    42 128 155    44 129 157    44 131 158    46 132 159    47 133 159    46 132 159    49 134 162    48 134 161    45 131 158    43 129 156    44 130 157    43 129 156    39 125 152    47 133 158    40 126 151    38 124 149    45 131 156    49 135 160    47 133 158    46 132 157    47 133 158  
  41 125 153    40 124 152    45 129 157    45 130 158    47 130 159    49 133 160    50 134 162    50 134 162    50 134 162    51 135 162    42 128 155    46 131 159    49 134 161    49 134 161    47 132 160    46 131 158    47 132 160    49 134 161    46 132 159    47 132 160    47 132 159    46 131 159    45 130 158    44 129 157    43 128 156    42 127 154    40 126 153    40 126 153    40 126 153    41 127 154    41 127 154    41 127 154    41 127 154    42 128 155    40 126 153    44 130 157    46 132 159    43 129 156    42 128 155    42 128 155    41 127 154    38 124 151    47 133 158    40 126 151    37 123 148    43 129 154    49 135 160    48 134 159    45 131 156    44 130 155  
  41 125 153    44 128 156    43 127 155    44 128 156    45 129 157    47 131 159    48 132 160    49 133 161    50 134 162    50 134 162    48 132 160    50 134 162    51 135 163    51 135 163    50 134 162    49 133 161    48 132 160    48 132 160    46 130 158    44 128 156    43 127 155    44 128 156    43 127 155    42 126 154    41 125 153    42 126 154    44 130 157    44 130 157    42 128 155    41 127 154    40 126 153    38 124 151    37 123 150    37 123 150    37 123 150    42 128 155    45 131 158    42 128 155    39 125 152    39 125 152    39 125 152    36 122 149    46 132 157    41 127 152    39 125 150    42 128 153    47 133 158    48 134 159    45 131 156    43 129 154  
  40 122 151    42 124 152    42 124 153    43 125 153    44 126 154    45 127 156    45 127 156    46 127 156    46 128 156    46 128 156    48 132 160    46 130 158    45 129 157    47 131 159    49 133 161    49 133 161    46 131 158    44 128 156    46 130 158    42 126 154    41 125 152    42 126 154    42 126 154    40 124 152    42 125 154    45 129 157    34 120 147    35 121 148    35 121 148    36 122 149    36 122 150    38 124 150    38 124 151    39 125 152    35 121 147    41 126 153    43 129 156    40 126 153    37 123 150    38 124 150    38 124 151    37 123 150    42 128 153    40 126 151    40 125 150    40 126 151    43 129 154    44 130 155    43 130 155    41 127 152  
  44 124 154    44 124 154    45 126 155    45 126 155    45 126 155    45 126 155    44 125 154    43 124 153    42 123 152    42 123 152    41 125 153    38 122 150    36 120 148    38 122 150    43 127 155    45 129 157    43 127 155    39 123 151    42 126 154    37 121 149    35 118 146    36 120 148    37 121 149    35 119 147    38 122 150    44 128 156    35 121 148    35 122 149    37 122 149    37 123 150    38 124 151    39 125 152    39 125 152    40 126 153    30 116 143    37 123 150    41 127 154    39 125 152    38 124 151    40 126 153    42 129 155    43 129 156    38 124 149    39 125 150    40 126 151    39 125 150    39 125 150    40 126 151    41 127 152    40 126 151  
  43 124 153    41 122 151    34 115 144    39 120 149    43 124 153    44 126 154    44 124 154    42 123 152    42 123 152    44 124 154    38 120 148    42 123 152    46 127 156    47 128 157    44 125 154    41 122 151    40 121 150    41 122 151    38 119 148    41 122 151    40 121 150    34 115 144    31 112 141    33 114 143    36 117 146    35 119 147    34 120 147    33 119 146    35 121 148    38 124 151    42 127 154    42 129 155    41 127 154    38 124 151    30 116 143    37 122 149    38 124 151    35 121 148    36 122 149    41 127 154    39 124 152    31 117 144    41 127 152    36 122 147    35 121 146    38 124 149    39 125 150    37 123 148    38 124 149    40 126 151  
  39 120 149    40 120 149    39 119 148    40 120 150    42 122 151    42 122 151    41 121 150    40 120 150    40 120 150    39 120 149    45 126 155    44 125 154    43 124 153    42 123 152    42 123 152    42 123 152    43 124 153    43 124 153    40 121 150    42 123 152    41 122 151    36 117 146    35 116 145    38 119 148    39 120 149    35 119 147    34 118 146    32 118 145    33 119 145    34 120 147    37 123 150    38 124 151    37 123 150    36 122 149    35 121 148    32 118 145    34 120 147    38 124 151    39 125 152    35 121 148    34 120 147    36 122 149    38 124 149    34 120 145    33 119 144    38 124 149    42 128 153    40 126 151    37 123 148    36 122 147  
  37 116 146    39 118 148    44 123 153    42 121 151    40 119 149    40 119 149    41 120 150    41 120 150    40 119 149    38 117 147    44 125 154    40 121 150    36 117 146    37 118 147    41 122 151    44 125 154    45 126 155    43 124 153    40 121 150    41 122 151    40 121 150    38 119 148    40 121 150    42 123 152    41 122 151    34 118 146    37 121 149    34 120 147    33 119 146    33 119 146    35 121 148    36 122 149    36 122 149    37 123 150    38 124 151    32 118 145    32 118 145    38 124 151    37 123 150    32 118 145    33 119 146    39 125 152    40 126 151    37 123 148    34 120 145    36 122 147    39 125 150    40 126 151    40 126 151    40 126 151  
  35 114 144    37 116 146    40 119 149    37 116 146    34 113 143    35 114 144    38 117 147    40 118 148    39 118 148    38 117 147    41 121 151    36 116 146    32 113 142    34 115 144    40 121 150    42 123 152    40 121 150    36 117 146    37 118 147    38 120 148    37 118 147    36 117 146    40 121 150    41 122 151    39 120 149    31 115 143    37 121 149    35 121 148    33 119 146    32 118 145    32 118 145    33 119 146    35 121 148    36 122 149    34 120 147    36 122 149    36 122 149    32 118 145    31 117 144    33 119 146    35 121 148    35 121 148    34 120 145    36 122 147    37 123 148    36 122 147    35 121 146    36 122 147    39 125 150    41 127 152  
  34 113 143    35 114 144    32 111 141    30 110 140    29 108 138    30 109 139    33 112 142    35 114 144    36 115 145    36 115 145    42 123 152    38 119 148    34 116 144    36 117 146    39 120 149    38 119 148    33 115 143    28 109 138    34 115 144    36 117 146    36 117 146    35 116 145    35 116 145    37 118 147    35 116 145    29 113 141    32 116 144    31 117 144    31 117 144    29 115 142    28 114 141    29 115 142    31 117 144    34 120 147    30 116 143    38 124 151    39 125 152    30 116 143    27 113 140    34 120 147    36 122 149    32 118 145    23 109 134    30 116 141    38 124 149    39 126 151    38 124 149    36 122 147    34 120 145    33 119 144  
  33 112 142    32 111 141    29 108 138    30 109 139    31 110 140    31 110 140    31 110 140    33 112 142    35 114 144    37 116 146    38 119 148    35 116 145    32 113 142    33 113 142    34 115 144    34 115 144    30 111 140    26 107 136    32 113 142    36 117 146    37 118 147    34 115 144    32 113 142    33 114 143    33 114 143    28 112 140    30 114 142    30 116 143    30 116 143    29 115 142    28 114 141    28 114 141    31 117 144    33 119 146    31 117 144    34 120 147    36 122 149    33 119 146    30 116 143    29 115 142    32 117 144    34 120 147    27 113 138    31 117 142    34 119 144    35 121 146    39 125 150    40 126 151    37 123 148    30 116 141  
  35 111 141    31 109 139    31 108 137    33 111 141    36 112 142    33 112 141    34 110 140    33 111 141    36 113 143    35 113 143    32 111 140    32 110 140    33 111 140    34 113 142    35 113 142    32 112 141    31 110 139    30 111 139    34 114 143    36 117 145    36 117 145    34 115 143    32 113 141    31 111 140    31 112 140    31 112 140    30 113 141    29 115 141    32 115 143    30 115 142    30 113 141    29 115 141    32 117 144    34 119 146    34 119 146    33 118 145    35 120 147    37 122 149    32 118 144    26 112 139    28 114 140    35 121 148    37 123 148    37 122 148    32 118 143    30 115 141    36 122 147    42 128 153    40 126 151    35 121 146  
  38 113 142    37 113 142    29 104 133    33 109 137    34 109 138    32 108 136    33 108 137    36 112 141    36 111 140    33 109 137    36 112 140    36 112 141    40 116 145    43 119 147    39 116 144    32 111 138    33 110 138    37 115 143    37 117 144    33 113 140    32 112 139    36 116 143    36 116 143    33 113 140    30 111 138    32 113 140    31 112 139    30 112 139    31 112 139    30 112 139    31 112 139    31 114 140    31 115 141    32 116 142    34 118 144    35 119 145    36 120 146    35 119 145    32 118 143    30 116 141    31 117 142    32 118 143    34 118 146    42 126 154    38 122 150    32 116 144    34 120 147    35 121 148    33 119 146    36 122 149  
  36 112 139    36 112 139    29 104 131    32 108 135    34 110 136    34 110 137    36 112 139    40 115 142    40 116 143    39 115 142    40 115 144    37 112 141    36 111 140    37 112 141    36 112 141    34 111 139    36 113 141    40 117 145    35 115 143    32 112 139    32 112 139    35 115 142    36 116 143    34 114 141    32 113 140    33 113 140    31 112 139    31 112 139    31 112 139    31 112 139    32 113 140    33 114 140    32 115 142    32 116 142    36 120 146    31 116 141    28 112 138    29 113 139    33 119 144    35 121 146    33 119 144    30 116 141    34 118 146    41 125 153    38 122 150    33 117 145    35 122 149    35 121 148    33 119 146    37 123 150  
  32 108 134    32 108 134    32 109 134    34 110 136    35 111 137    35 111 137    35 111 137    36 112 138    36 112 138    35 111 137    31 106 135    31 106 135    34 109 138    38 113 142    39 115 144    37 114 142    32 109 137    31 108 136    38 118 145    36 116 143    36 116 143    36 116 143    37 117 144    36 116 143    34 114 141    33 113 140    32 113 140    32 113 140    31 112 139    31 112 139    32 113 140    33 114 141    32 116 142    32 116 142    38 122 148    31 115 141    25 109 135    26 110 136    30 116 141    33 119 144    30 116 141    26 112 137    34 118 146    39 123 151    36 120 148    33 117 145    35 121 148    34 120 147    32 118 145    37 123 150  
