P3
50 50
255
  47 145 174    47 145 174    49 147 176    51 149 178    49 147 176    45 143 172    45 143 172    48 146 175    54 152 180    54 152 181    53 151 179    49 147 176    46 144 173    45 143 172    46 144 173    46 144 173    50 145 175    52 147 177    51 146 176    48 143 173    50 145 175    54 149 179    53 148 178    49 144 174    52 147 177    53 148 178    51 146 176    49 144 174    50 145 175    52 147 177    53 148 178    53 148 178    55 150 178    52 147 175    50 145 173    50 145 173    53 148 176    54 149 177    54 148 176    52 146 174    54 148 176    57 151 179    61 152 181    58 149 178    55 146 175    55 146 175    58 149 178    61 152 181    57 148 177    55 146 175  
  43 141 170    47 146 175    50 148 177    48 146 175    45 144 173    47 145 174    48 146 175    49 147 176    49 147 176    51 149 178    50 148 177    46 144 173    45 143 172    47 146 175    49 147 176    49 147 175    50 145 175    53 148 178    52 147 177    48 143 173    50 145 175    56 151 181    56 151 181    51 146 176    46 141 171    51 146 176    55 150 180    55 150 180    55 150 180    56 151 181    54 149 179    50 145 175    53 148 176    52 147 176    52 147 175    53 148 176    55 149 177    56 150 179    57 151 179    58 152 180    56 150 178    56 150 178    59 150 179    62 153 182    67 158 187    69 160 189    61 151 181    51 141 170    61 151 181    60 150 179  
  41 139 168    51 149 178    54 152 181    47 145 174    45 143 172    52 150 179    55 153 182    53 151 180    47 145 174    52 150 179    53 151 180    49 147 176    47 145 174    49 147 176    50 147 176    47 144 173    52 147 177    56 151 181    54 148 178    48 143 173    49 143 174    55 150 180    56 150 180    49 144 174    56 150 180    51 146 176    52 146 176    57 152 182    57 151 181    50 145 175    49 143 174    53 148 177    55 150 178    57 151 179    58 152 180    57 151 179    56 150 178    55 149 177    58 151 179    61 153 182    56 147 176    59 150 179    60 151 180    60 151 180    63 154 183    66 157 186    64 153 183    58 147 177    63 152 182    61 150 180  
  53 151 180    51 149 178    47 145 174    43 141 170    45 144 173    52 150 179    56 152 182    55 151 181    53 149 179    54 150 179    54 150 180    55 151 181    58 154 184    59 155 184    54 148 178    47 141 172    55 150 178    45 139 168    53 145 174    51 145 174    50 141 171    57 151 180    55 147 177    46 141 169    62 154 183    58 152 180    57 149 178    54 148 177    52 143 173    48 143 171    54 146 175    61 153 181    60 152 181    59 151 178    59 151 178    59 151 178    58 150 177    55 146 174    55 145 173    57 148 175    55 145 172    58 148 176    61 151 179    61 152 179    58 148 176    56 146 174    61 150 178    67 156 184    62 152 182    63 153 182  
  51 149 178    49 147 176    48 146 175    49 147 176    50 148 177    50 148 177    49 144 174    47 142 172    55 150 180    54 149 179    53 148 178    53 148 178    56 149 180    56 149 180    56 149 180    55 148 179    64 155 184    47 138 167    55 146 175    54 145 174    50 141 170    60 151 180    58 149 178    52 144 172    50 141 170    54 145 174    58 149 178    59 150 179    59 150 179    59 150 179    60 152 180    63 154 183    63 153 180    60 150 177    60 150 177    62 152 179    62 152 179    58 148 175    57 147 174    59 149 176    60 150 177    60 150 177    62 152 179    62 152 179    57 147 174    53 143 170    59 149 176    67 157 184    74 165 194    67 158 187  
  44 142 171    48 146 175    52 150 179    54 152 181    53 151 179    49 147 176    48 143 173    46 141 171    48 143 173    52 147 177    56 149 180    54 147 178    50 143 174    49 142 173    54 147 178    57 150 182    72 163 192    55 146 175    57 148 177    51 142 171    48 139 168    59 150 179    57 148 177    57 148 177    52 143 172    55 146 175    59 150 179    62 153 182    63 154 183    62 153 182    59 150 179    57 148 177    62 152 179    60 150 177    60 150 177    63 153 180    63 153 180    60 150 177    60 150 177    62 152 179    65 155 182    64 154 182    65 155 182    63 153 180    60 150 177    59 149 176    64 154 181    72 162 189    71 162 191    60 151 180  
  46 145 173    50 147 176    52 150 179    52 150 179    50 147 176    49 146 175    54 149 179    57 152 182    45 139 169    50 144 174    56 149 180    58 150 182    55 148 179    52 145 176    53 146 176    55 147 178    67 158 187    56 147 176    57 148 177    50 141 170    51 142 171    60 151 180    56 147 176    61 152 181    62 153 182    60 150 180    58 149 178    58 149 178    59 150 179    61 151 181    61 152 181    61 152 181    60 150 177    58 148 175    59 149 176    63 153 180    64 154 180    62 152 179    62 152 179    64 154 181    59 149 176    61 151 178    62 152 179    62 152 179    62 152 179    63 153 180    66 156 183    69 159 186    60 151 180    56 147 176  
  48 146 175    51 149 178    54 152 181    53 151 180    51 146 176    49 144 174    51 146 176    54 149 179    54 147 178    54 147 178    54 147 178    55 148 179    56 149 180    57 150 181    58 149 180    58 149 180    56 147 176    54 145 174    57 148 177    53 144 173    60 151 180    67 158 187    60 151 180    68 159 188    62 153 182    61 152 181    61 152 181    61 152 181    61 152 181    62 153 182    62 153 182    62 153 182    60 150 177    58 148 175    59 149 176    63 153 180    63 153 180    61 151 178    62 152 179    64 154 181    59 149 176    61 151 178    62 152 179    62 152 179    63 153 180    64 154 181    63 153 180    60 150 177    63 154 183    58 149 178  
  50 145 175    53 149 179    56 152 182    56 152 182    53 148 178    49 144 174    48 141 172    47 141 172    60 153 184    57 150 181    53 146 177    53 145 177    56 148 179    59 150 181    60 152 183    60 152 183    55 144 174    57 147 176    60 149 179    55 144 174    64 154 184    68 158 188    57 147 177    69 158 188    63 153 183    66 156 186    69 158 188    68 158 187    64 154 184    60 150 180    57 146 176    56 145 175    62 152 179    60 150 177    60 150 177    64 154 180    64 154 180    62 152 179    61 151 178    63 153 180    65 155 182    66 156 183    65 155 182    63 153 180    65 155 182    66 156 183    63 153 180    58 148 175    64 154 183    61 150 180  
  54 149 179    55 150 180    55 150 180    54 149 179    53 148 178    52 147 177    52 145 176    53 146 177    56 149 180    57 150 181    57 150 182    58 151 182    60 152 182    59 150 181    58 149 180    57 148 179    61 150 180    64 153 183    64 153 183    54 143 173    62 151 181    62 150 180    47 136 166    59 148 178    60 149 179    64 153 183    68 157 187    67 156 186    63 152 182    61 150 180    61 150 180    64 153 183    66 156 183    63 153 180    64 154 181    66 156 183    66 156 183    62 152 179    61 151 178    63 153 180    63 153 180    63 153 180    60 150 177    58 148 175    60 150 177    65 155 182    64 154 181    58 148 175    60 149 179    68 157 187  
  52 147 177    49 144 174    57 152 182    57 152 182    49 142 173    56 149 180    64 157 188    56 149 180    54 147 178    58 151 182    57 148 179    57 148 179    62 153 184    59 150 181    56 147 178    61 152 183    61 150 180    58 147 177    61 150 180    69 158 188    69 158 188    62 151 181    62 151 181    68 157 187    58 147 177    66 155 185    64 153 183    61 150 180    68 157 187    69 158 188    64 153 183    63 152 182    64 154 181    58 148 175    56 146 173    61 151 178    66 156 183    66 156 183    64 154 181    63 153 180    59 149 176    63 153 180    65 155 182    64 154 181    64 154 182    67 157 184    63 153 180    57 147 174    60 148 178    61 150 180  
  59 154 184    55 150 180    53 147 177    53 147 178    58 151 182    64 157 188    61 154 185    52 145 175    56 148 179    59 151 182    56 147 178    55 146 177    60 151 182    59 150 181    57 148 179    62 152 184    63 152 182    64 153 183    66 155 185    67 156 186    66 155 185    63 152 182    62 151 181    63 152 182    60 148 178    67 156 186    64 153 183    61 150 180    67 156 186    69 158 188    64 153 183    64 153 183    67 157 184    62 152 180    62 152 179    65 155 182    66 156 183    65 155 182    63 153 181    65 155 182    63 153 180    67 157 184    67 157 184    65 155 182    64 154 181    66 156 183    67 157 184    65 155 182    66 155 185    63 152 182  
  53 148 178    59 154 184    56 149 180    53 146 177    60 153 184    60 153 184    54 147 178    56 149 180    61 152 183    66 157 188    62 153 184    59 150 181    64 153 185    64 153 185    61 150 182    64 153 185    60 149 179    67 156 186    69 158 188    64 153 183    63 152 182    67 156 186    67 156 186    62 151 181    62 151 181    67 156 186    63 152 182    62 151 181    68 157 187    68 157 187    64 153 183    66 155 185    64 154 181    63 153 180    64 154 181    67 157 184    67 157 184    66 156 183    67 157 184    71 161 188    56 146 173    64 154 181    71 161 188    72 162 189    69 159 186    66 156 183    63 153 180    61 151 178    72 161 191    67 156 186  
  52 146 177    64 157 188    61 154 185    57 150 181    64 157 188    59 152 183    57 148 179    68 159 190    58 149 180    66 157 188    64 153 185    60 150 181    63 152 185    62 151 183    57 146 178    57 146 178    59 147 177    69 157 187    70 158 188    63 151 181    63 150 180    71 159 189    72 159 189    65 153 183    64 152 182    67 155 185    64 152 182    64 152 182    71 158 188    69 157 187    65 152 182    68 155 185    60 150 177    60 150 177    62 152 179    66 156 183    66 156 183    65 155 182    67 157 184    72 162 189    62 152 179    64 154 181    66 156 183    64 154 181    60 150 178    59 149 176    63 153 180    67 157 184    71 159 189    69 157 187  
  62 155 186    60 153 183    54 147 178    56 149 180    66 159 190    66 159 190    63 154 185    65 156 188    57 148 179    67 158 189    66 155 187    61 150 182    64 153 185    64 153 185    58 147 179    56 145 177    63 149 179    71 158 188    72 159 189    65 152 182    63 150 180    70 157 187    71 158 188    65 152 182    64 151 181    67 154 184    65 152 182    67 154 184    74 161 191    70 157 187    64 151 181    68 155 185    64 154 180    62 152 179    62 152 179    65 155 182    65 155 182    63 153 180    63 153 180    66 156 183    66 156 183    65 155 182    64 154 181    64 154 181    60 150 177    59 149 177    64 154 181    69 159 186    62 149 179    64 150 180  
  65 158 189    53 146 177    51 144 175    57 150 180    59 150 181    62 153 184    64 155 186    60 151 182    60 151 182    69 161 192    67 156 188    59 148 180    64 154 186    69 158 190    66 155 187    65 154 186    64 151 181    68 155 185    69 156 186    66 153 183    65 152 182    69 156 186    70 157 187    69 156 186    64 151 181    66 153 183    65 152 182    70 157 187    76 163 193    70 157 187    63 150 180    68 155 184    67 157 184    62 152 179    60 150 177    64 154 181    66 156 183    64 154 181    63 153 180    63 153 180    63 153 180    61 151 178    64 154 182    70 160 187    70 160 187    65 155 182    61 151 178    62 152 179    63 150 180    63 150 180  
  65 157 187    57 149 179    61 152 182    65 155 186    59 149 180    58 148 179    65 155 186    69 159 190    60 151 181    65 155 186    62 150 182    56 145 176    62 151 183    69 158 189    69 158 189    69 158 188    62 150 180    65 152 181    66 154 183    66 154 183    67 155 184    70 158 187    72 160 189    72 159 188    61 149 178    64 152 181    66 154 183    71 159 188    75 163 192    68 156 185    63 151 180    67 155 183    63 153 180    62 152 179    60 150 176    63 153 179    69 159 186    68 158 184    65 155 181    67 157 184    65 155 182    63 153 180    63 153 180    66 156 183    68 158 185    66 156 183    65 155 182    65 155 182    72 160 188    69 157 184  
  64 154 184    66 156 185    64 153 183    66 155 185    70 159 189    64 153 183    61 150 180    69 158 188    68 157 187    64 153 183    61 150 180    62 151 181    66 155 185    68 157 187    66 155 185    63 152 182    65 154 183    66 156 183    67 157 184    65 155 182    67 157 184    70 160 187    70 160 187    66 156 183    63 153 180    63 153 180    67 157 184    72 162 189    71 161 188    66 156 183    64 154 181    67 157 184    61 151 177    68 158 184    65 155 181    63 153 179    69 159 185    66 156 182    61 151 177    68 158 184    65 155 181    68 158 184    69 159 185    67 157 183    67 157 183    68 158 184    66 156 182    62 152 178    64 154 180    62 152 178  
  60 149 179    68 157 187    68 157 187    65 154 184    66 156 186    64 153 183    59 148 178    64 153 183    67 156 186    67 156 186    67 156 186    67 156 186    68 157 187    68 157 187    66 155 185    64 153 183    68 158 185    68 158 185    67 157 184    64 154 181    65 155 182    69 159 186    70 160 187    66 156 183    71 161 188    67 157 184    66 156 182    69 159 186    70 160 187    68 158 185    65 155 182    64 154 181    66 156 182    64 154 180    65 155 181    66 156 182    66 156 181    65 155 181    62 152 178    58 148 174    73 163 189    73 163 189    68 158 184    61 151 177    60 150 176    64 154 180    66 156 182    66 156 182    72 162 188    70 160 186  
  62 152 182    70 159 189    65 154 184    58 148 178    65 154 184    72 161 191    72 161 191    73 162 192    70 159 189    69 159 189    68 157 187    64 153 183    63 152 182    65 154 184    71 159 189    75 164 194    70 160 187    69 159 186    66 156 183    62 152 179    63 153 180    68 158 185    69 159 186    67 157 184    70 160 187    67 157 184    64 154 181    65 155 182    67 157 184    68 158 185    67 157 184    67 157 184    71 161 187    61 151 177    66 156 182    71 161 187    66 156 182    69 159 184    69 159 185    57 147 173    68 158 185    70 160 186    69 159 185    66 156 182    67 157 183    71 161 187    72 162 188    71 161 187    70 160 186    68 158 185  
  71 158 188    75 162 192    67 154 184    60 146 176    68 155 185    74 161 191    69 156 186    65 152 182    77 164 194    76 163 193    73 160 190    67 154 184    63 150 180    63 150 180    67 154 184    72 159 189    68 155 183    68 155 183    66 153 181    63 150 178    63 150 178    67 154 182    68 155 183    66 153 181    70 157 185    71 158 186    72 159 187    69 156 184    67 154 182    67 154 182    70 157 185    71 158 186    77 164 191    68 155 181    71 158 185    76 163 190    71 158 185    74 161 188    76 163 189    63 150 177    72 159 186    74 161 188    74 161 188    71 158 184    69 156 183    70 157 184    68 155 182    64 151 178    65 155 181    65 155 181  
  65 152 181    69 156 186    67 154 183    67 154 183    73 160 190    70 158 187    62 149 179    60 147 176    69 156 185    71 158 187    72 159 188    72 159 188    70 157 186    67 154 184    68 155 185    69 156 185    70 157 185    71 158 186    71 158 186    69 156 184    71 158 186    73 160 188    73 160 188    68 156 183    72 159 187    75 163 190    78 165 193    73 160 188    70 157 185    69 156 184    69 156 184    69 156 184    77 164 191    73 161 187    73 160 187    73 160 187    72 159 186    72 159 186    72 159 186    68 155 182    76 163 190    77 164 191    73 160 187    68 155 182    67 154 181    70 157 184    72 159 186    71 158 185    68 157 183    69 158 184  
  67 154 182    72 159 187    73 160 188    75 162 190    77 164 192    69 156 184    65 152 180    74 161 189    71 158 186    71 158 186    71 158 186    71 158 186    70 157 185    70 157 185    71 158 186    71 158 186    66 153 181    70 157 185    72 159 187    72 159 187    74 161 189    76 163 191    73 160 188    68 155 183    69 156 184    73 160 188    74 161 189    73 160 188    74 161 189    75 162 190    71 158 186    65 152 180    69 156 183    74 161 188    69 156 183    66 153 180    72 159 186    71 158 185    68 155 182    75 162 189    71 158 185    72 159 186    70 157 184    67 154 181    67 154 181    71 158 185    73 160 187    72 159 186    66 153 180    69 156 183  
  71 156 185    75 161 190    79 165 193    79 165 194    77 162 191    73 159 188    75 161 189    82 168 196    76 161 190    72 158 187    70 155 184    71 157 185    74 160 188    75 161 189    70 156 185    65 151 179    70 155 184    73 158 187    73 158 187    70 155 184    71 156 185    74 160 188    74 160 189    70 156 185    73 158 187    73 159 188    76 161 190    77 163 192    75 161 189    71 157 186    71 157 186    74 159 188    65 152 179    73 159 186    69 155 182    66 153 180    73 159 186    73 159 186    68 154 181    71 157 184    70 156 183    70 157 184    74 160 187    76 162 189    74 161 187    72 158 185    72 158 185    75 161 188    70 157 184    74 161 188  
  69 154 183    73 158 187    77 162 191    76 161 190    73 158 187    72 157 186    75 160 189    78 163 192    70 155 185    68 153 182    69 154 183    71 156 185    75 160 189    77 162 191    75 160 189    73 158 187    73 158 187    76 161 190    75 160 189    72 157 186    70 155 184    72 157 186    71 156 185    68 153 181    79 164 192    74 159 188    73 158 186    78 163 192    81 166 195    78 163 192    74 159 188    72 157 185    75 161 188    81 167 194    76 162 189    72 158 185    77 163 189    77 163 189    72 157 184    72 158 185    74 160 187    72 158 185    72 158 185    75 160 188    73 158 185    68 154 181    69 155 182    73 159 186    71 158 185    75 162 189  
  70 155 184    72 158 185    74 160 187    73 159 186    71 157 184    70 156 183    72 158 185    74 160 187    72 158 185    73 159 186    73 159 186    73 159 186    73 159 186    73 159 186    73 159 186    74 159 187    72 157 186    75 160 189    77 162 191    75 160 189    74 159 188    73 158 187    70 155 184    68 153 181    74 159 188    71 156 185    71 156 185    77 162 191    80 165 194    78 163 192    73 158 187    70 155 183    72 158 185    77 163 190    71 157 184    66 153 180    72 158 185    73 159 185    69 155 182    70 155 183    80 166 193    75 161 188    71 157 184    71 157 184    72 158 185    71 157 184    73 159 186    76 162 189    77 163 190    80 166 193  
  75 161 188    76 161 188    75 160 188    75 160 187    74 159 186    73 158 186    72 158 185    73 158 185    73 158 186    74 159 186    74 159 187    75 160 188    76 161 188    75 161 188    74 159 186    72 157 185    74 158 188    75 160 189    77 161 190    78 162 192    78 162 192    77 161 190    76 160 189    74 158 188    66 150 179    71 155 184    75 159 189    75 159 189    71 155 185    69 153 183    72 156 186    76 160 190    71 157 184    78 163 190    75 160 188    72 158 185    78 164 191    80 165 192    75 160 188    75 161 188    77 163 190    74 159 186    70 155 183    71 156 184    74 159 187    76 162 189    77 163 190    77 162 189    75 161 188    79 165 192  
  78 162 190    76 160 188    75 159 187    76 160 188    77 161 189    76 160 188    73 157 185    70 154 182    73 157 185    73 157 185    73 157 185    77 161 189    80 164 192    81 165 193    77 161 189    73 157 185    78 161 191    77 160 190    77 160 190    78 161 191    77 160 190    75 158 188    75 158 188    75 158 188    72 155 185    73 156 186    72 155 185    71 154 184    71 154 184    74 157 187    76 159 189    76 159 189    70 154 182    76 160 188    75 159 187    72 156 184    78 162 190    78 162 190    72 156 184    72 156 184    76 160 188    76 160 188    74 158 186    74 158 186    75 159 187    77 161 189    76 160 188    73 157 185    68 154 181    74 160 187  
  76 160 188    74 158 186    73 157 185    75 160 188    78 162 190    77 160 189    72 156 184    66 151 178    80 164 192    79 163 191    77 161 189    77 161 189    76 160 188    75 159 187    74 158 186    72 156 184    77 161 191    76 158 188    76 159 189    78 161 191    76 159 189    72 155 185    71 153 183    71 155 185    75 158 188    74 157 187    70 153 183    69 152 182    74 157 187    80 163 193    78 161 191    72 156 186    76 160 188    81 165 193    77 161 189    72 156 184    78 162 190    80 164 192    75 159 187    76 160 188    78 162 190    81 165 193    81 165 193    78 162 190    77 160 189    78 162 190    78 162 190    75 159 187    70 156 183    76 162 189  
  76 160 188    74 158 186    74 158 186    77 161 189    81 164 193    79 163 191    73 157 185    66 150 178    78 162 190    79 163 191    79 163 191    75 159 187    71 155 183    72 156 184    77 160 189    82 166 194    73 157 185    72 156 184    76 159 189    82 165 194    81 164 194    75 159 188    72 155 185    73 157 185    67 150 180    74 158 186    77 160 190    73 157 185    70 153 183    72 156 184    74 157 187    74 158 186    76 160 188    80 164 192    73 158 185    68 152 180    75 158 186    79 163 191    79 163 191    83 167 194    73 157 185    79 163 191    80 164 192    76 160 188    74 158 186    77 161 189    81 165 193    79 164 192    76 161 189    80 165 193  
  78 163 190    70 156 181    69 155 180    76 162 187    82 168 193    81 167 192    77 163 188    77 163 188    83 169 194    73 159 184    67 153 178    71 157 182    77 163 188    77 163 188    74 160 185    73 159 184    80 164 190    71 155 181    80 165 192    72 156 182    74 158 186    83 167 193    74 158 185    82 166 192    77 161 189    75 159 185    73 157 185    72 156 182    73 157 185    74 158 184    75 159 187    76 160 186    84 168 194    83 167 193    80 164 190    78 162 188    78 162 188    79 163 189    81 164 191    82 166 192    77 161 187    78 162 188    79 163 189    79 163 189    78 162 188    75 159 185    74 158 184    73 157 183    84 167 194    84 165 192  
  82 168 193    76 162 187    72 158 183    75 160 185    78 164 189    79 165 190    80 166 191    84 170 195    81 167 192    76 161 186    72 158 183    76 162 187    78 165 190    78 164 189    76 161 186    76 162 187    78 162 188    74 158 184    85 169 195    81 165 191    81 165 191    84 168 194    72 156 182    74 158 184    79 163 189    77 161 187    76 160 186    76 160 186    76 160 186    77 161 187    78 162 188    80 163 190    79 163 189    79 163 189    78 162 188    77 160 187    77 161 187    77 161 187    78 162 188    80 163 190    75 159 185    75 159 185    76 160 186    76 160 186    76 160 186    77 161 187    78 162 188    80 164 190    81 162 189    83 164 191  
  76 162 187    75 161 186    76 162 187    77 163 188    77 163 188    76 162 187    77 163 188    80 166 191    78 164 189    77 163 188    78 164 189    80 166 191    80 166 191    78 164 189    78 164 189    78 164 189    81 165 191    77 161 187    80 164 190    77 161 187    76 160 186    80 164 190    77 161 187    81 165 191    78 162 188    78 162 188    78 162 188    77 161 187    77 161 187    79 163 189    80 164 190    81 165 191    74 158 184    75 159 185    76 160 186    77 161 187    78 162 188    79 163 189    80 164 190    80 164 190    83 167 193    81 165 191    80 164 190    79 163 189    80 164 190    81 165 191    82 166 192    82 166 192    82 163 190    83 164 191  
  73 158 184    77 162 188    82 167 192    82 167 193    80 165 190    78 163 189    78 163 189    80 164 190    75 159 185    78 162 188    80 165 190    81 166 191    80 165 190    79 163 189    78 162 188    78 162 188    73 157 183    76 160 186    79 163 189    81 165 191    80 164 190    79 163 189    78 162 188    77 161 187    78 162 188    79 163 189    79 163 189    79 163 189    78 162 188    78 162 188    80 164 190    82 165 192    80 164 190    80 164 190    81 165 191    81 165 191    80 164 190    77 161 187    75 159 185    74 158 184    85 168 195    82 166 192    81 165 191    81 165 191    80 164 190    80 163 190    77 161 187    75 159 185    84 165 192    81 162 189  
  77 161 187    80 164 190    81 165 191    78 163 188    76 160 186    79 163 189    82 166 192    84 168 194    73 157 183    77 161 187    80 164 190    79 163 189    79 163 189    79 163 189    79 163 189    77 161 187    77 161 187    84 168 194    80 164 190    84 168 194    81 165 191    74 158 184    81 164 191    78 162 188    80 164 190    82 166 192    84 167 194    83 167 193    80 164 190    79 163 189    81 165 191    83 167 193    81 165 191    82 166 192    83 167 193    83 167 193    83 167 193    81 165 191    80 164 190    79 163 189    81 165 191    80 164 190    79 163 189    81 165 191    83 167 193    82 166 192    78 162 188    75 159 185    85 166 193    79 160 187  
  74 158 184    78 162 188    78 162 188    75 160 185    76 160 186    80 164 190    82 166 192    81 164 191    74 158 184    78 162 188    79 163 189    77 161 187    78 162 188    81 165 191    81 165 191    77 161 187    83 167 193    89 173 199    77 161 187    78 161 188    75 158 185    69 153 179    86 170 196    85 169 195    80 164 190    83 167 193    85 169 195    84 168 194    80 164 190    78 162 188    79 163 189    82 166 192    79 163 189    80 164 190    81 165 191    83 167 193    85 169 195    86 169 196    86 170 196    86 170 196    81 165 191    79 163 189    77 160 187    78 162 188    82 166 192    83 167 193    82 165 192    79 163 189    82 163 190    80 161 188  
  75 158 184    80 163 189    84 167 193    84 167 193    84 167 194    85 168 194    84 167 193    80 163 189    78 161 188    80 163 189    80 163 189    79 162 188    80 163 189    82 165 192    81 164 191    77 160 187    74 158 184    82 166 192    77 161 187    82 166 192    79 163 189    73 157 183    85 169 195    83 167 193    79 163 189    79 163 189    84 168 194    83 167 193    78 162 188    77 161 187    79 163 189    77 161 187    81 165 191    84 168 194    85 169 195    81 165 191    80 164 190    81 165 191    82 166 192    81 165 191    79 163 189    77 161 187    75 159 185    76 160 186    78 162 188    79 163 189    77 161 187    75 160 185    82 164 190    82 164 190  
  85 166 193    88 169 196    90 171 198    88 169 196    83 164 191    79 160 187    79 160 187    80 161 188    82 163 190    82 163 190    82 163 190    82 163 190    81 162 189    80 161 188    79 160 187    78 159 186    80 164 190    81 165 191    82 166 192    80 164 190    78 162 188    79 163 189    84 168 194    87 171 197    78 162 188    74 158 184    82 166 192    85 169 195    78 162 188    79 163 189    82 166 192    76 160 186    71 155 181    81 165 191    83 167 193    75 159 185    72 156 182    78 162 188    81 165 191    79 163 189    79 163 189    81 165 191    81 165 191    81 165 191    78 162 188    77 161 187    77 161 187    77 161 187    83 167 193    83 167 193  
  81 162 189    84 165 192    86 167 194    85 166 193    82 163 190    80 161 188    82 162 190    83 164 191    81 162 189    81 162 189    81 162 189    81 162 189    80 161 188    80 161 188    80 161 188    79 160 187    85 169 195    84 168 194    83 167 193    82 166 192    82 166 192    82 166 192    82 166 192    82 166 192    78 162 188    79 163 189    78 162 188    78 162 188    79 163 189    79 163 189    77 161 187    79 163 189    77 161 187    79 163 189    80 163 190    78 162 188    77 161 187    80 164 190    82 166 192    82 166 192    82 166 192    81 166 191    80 164 190    77 161 187    75 159 185    75 159 185    78 162 188    80 164 190    80 163 190    80 164 190  
  86 167 194    87 168 195    87 169 195    86 167 194    83 164 191    81 162 189    82 163 190    83 164 191    85 167 194    85 167 194    84 166 193    84 165 192    83 164 191    83 164 191    83 164 191    82 163 190    87 171 197    85 169 195    82 166 192    83 167 193    86 170 196    85 169 195    81 165 191    77 161 187    81 164 191    86 170 196    78 162 188    73 157 183    82 166 192    79 163 189    73 157 183    81 165 191    82 166 192    76 160 186    74 158 184    77 161 187    80 164 190    80 164 190    81 165 191    83 167 193    72 156 182    74 158 184    77 161 187    78 162 188    78 162 188    77 161 187    77 161 187    77 161 187    78 162 188    77 161 187  
  84 165 192    84 165 192    84 165 192    84 164 192    84 165 192    83 164 191    85 165 193    85 166 193    87 168 195    86 167 194    84 165 192    82 163 190    81 162 189    80 161 188    80 161 188    80 161 188    81 165 191    78 162 188    76 160 186    78 162 188    82 166 192    82 166 192    77 161 187    72 156 182    82 166 192    86 170 196    77 161 187    72 156 182    82 166 192    81 165 191    76 160 186    84 168 194    84 168 194    77 161 187    73 157 183    73 157 183    75 159 185    74 158 184    73 157 183    74 158 184    72 156 182    74 158 184    76 160 186    78 162 188    77 162 187    77 161 187    78 162 188    78 162 188    79 165 190    75 161 186  
  78 159 186    78 159 186    80 161 188    82 163 190    84 165 192    86 167 194    87 167 195    86 167 194    88 169 195    86 167 194    85 165 193    83 164 191    82 163 190    82 163 191    83 164 191    83 164 191    81 165 191    80 164 190    78 162 188    80 164 190    83 167 193    83 167 193    80 164 190    76 160 186    81 165 191    78 162 188    74 158 184    73 157 183    78 162 188    82 166 192    82 166 192    84 168 194    88 172 198    86 170 196    80 164 190    75 159 185    74 158 184    76 160 186    75 159 185    72 156 182    82 166 192    81 165 191    78 162 188    75 159 185    74 158 184    76 160 186    80 164 190    83 167 193    78 164 189    75 161 186  
  85 166 192    84 166 191    85 166 193    86 167 193    85 166 193    84 166 191    82 163 190    80 162 187    84 165 192    82 164 189    81 162 189    81 162 188    81 162 189    83 164 190    84 165 192    86 167 194    86 170 196    85 169 195    84 168 194    84 168 194    85 169 195    84 168 194    83 167 193    81 165 191    85 169 195    75 159 185    74 158 184    76 160 186    73 157 183    78 162 188    82 166 192    75 159 185    80 164 190    84 168 194    81 165 191    73 157 183    72 156 182    81 165 191    82 166 192    78 162 188    80 164 190    80 164 190    79 163 189    78 162 188    76 160 186    77 161 187    80 164 190    82 166 192    75 161 186    77 163 188  
  84 166 189    81 163 186    81 163 188    85 167 190    86 168 193    84 166 189    83 165 189    84 166 188    86 168 193    89 171 194    86 168 193    80 162 185    81 163 188    88 170 193    88 169 194    81 162 187    81 163 190    85 167 194    88 170 197    85 167 194    80 162 189    79 161 187    81 162 189    83 165 192    88 170 196    82 163 190    82 164 190    84 166 193    80 162 189    78 160 186    77 159 186    75 157 183    79 163 188    78 162 187    77 161 186    77 161 185    77 161 185    78 162 187    80 164 188    80 164 189    80 164 188    79 163 188    79 163 188    80 164 189    79 163 188    79 163 187    79 163 187    80 164 188    77 163 188    76 161 186  
  88 168 191    84 166 188    83 164 187    86 168 190    87 169 191    84 166 188    82 164 186    84 166 188    88 170 192    88 170 193    86 168 190    84 166 188    84 166 188    86 168 190    86 168 190    84 166 189    81 162 189    86 167 194    88 169 196    84 165 192    81 162 189    81 162 189    83 164 191    81 162 189    86 167 194    83 164 191    82 163 190    83 164 191    82 163 190    78 159 186    77 158 185    79 161 188    83 167 191    79 163 187    78 162 186    80 164 188    80 164 188    78 162 186    78 162 186    80 164 188    83 167 191    82 166 190    81 165 189    80 164 188    80 164 188    80 164 188    81 165 189    82 166 190    84 170 195    80 166 191  
  91 171 194    87 169 191    86 168 190    88 170 192    88 170 192    85 167 189    83 165 187    83 165 187    87 169 191    83 165 187    83 165 187    87 169 191    86 168 190    82 164 186    83 165 187    89 171 193    82 163 190    88 169 196    88 169 196    82 163 190    82 163 190    88 169 196    87 168 195    79 160 187    85 166 193    82 163 190    80 161 188    81 162 189    81 162 189    80 161 188    82 163 190    85 166 193    83 167 191    80 164 188    78 162 186    80 164 188    81 165 189    79 163 187    79 163 187    80 164 188    81 164 189    80 164 188    79 163 187    77 161 185    77 161 185    78 162 186    79 163 187    79 163 187    81 167 192    78 164 189  
  88 168 191    86 168 190    85 168 190    86 168 190    88 170 192    86 168 191    85 166 188    83 165 187    85 167 189    88 170 192    89 171 193    86 168 190    83 165 187    83 165 187    85 167 189    86 168 190    81 162 189    90 171 198    91 171 198    82 163 191    82 163 190    89 170 197    88 169 196    81 161 188    83 164 191    83 164 191    83 165 191    85 166 192    86 166 193    86 167 194    87 168 195    88 169 196    82 165 190    80 164 188    78 162 186    79 163 187    81 165 189    83 167 191    82 166 191    81 165 189    78 162 185    81 165 188    82 166 190    80 164 188    80 164 188    81 165 189    80 163 187    77 160 185    77 162 187    75 160 185  
  86 166 189    86 168 190    86 168 190    85 167 189    87 169 191    89 171 193    87 169 191    84 166 188    84 166 188    93 175 197    95 177 199    85 167 189    82 164 186    88 170 192    88 170 192    81 163 185    82 163 190    90 171 198    92 173 200    86 167 194    82 163 190    85 166 193    86 167 194    83 164 191    81 162 189    84 165 192    86 167 194    86 167 194    87 168 195    88 169 196    87 168 195    85 166 193    83 166 190    81 165 189    79 163 187    78 162 186    82 166 190    86 170 194    85 169 193    81 165 189    75 159 183    81 165 189    84 168 192    82 166 190    82 166 190    83 167 191    80 164 188    74 158 182    80 164 190    77 161 187  
  86 166 189    89 169 192    88 169 191    86 167 190    87 168 190    90 171 194    89 169 192    85 165 188    86 167 189    91 172 194    91 172 195    85 166 189    85 166 189    90 170 193    87 168 191    81 162 184    88 168 195    87 168 195    88 168 195    88 169 195    86 166 193    83 163 190    82 162 189    83 163 191    84 165 192    87 168 195    88 168 195    86 166 193    86 166 193    88 168 195    87 167 194    83 164 191    88 170 194    85 168 192    82 164 188    80 163 187    83 166 190    88 170 194    85 167 191    78 161 185    74 156 180    80 163 187    82 165 189    78 160 184    78 160 184    81 164 188    79 162 186    73 155 179    80 164 190    76 160 186  
  89 169 193    93 173 196    92 172 194    88 168 191    89 169 192    91 171 194    89 169 192    84 164 187    88 168 191    84 164 187    84 164 187    88 168 191    89 169 193    87 167 190    84 164 187    84 164 188    94 174 199    85 165 192    82 162 189    88 168 195    89 169 197    83 163 190    79 159 186    81 161 188    91 171 198    93 173 200    92 172 199    86 166 193    85 165 192    88 168 195    89 169 196    86 166 193    92 174 199    90 172 197    85 167 191    81 163 187    83 165 189    87 169 193    83 165 189    75 157 181    80 162 186    85 167 191    84 167 191    79 161 185    78 160 184    84 167 190    84 166 190    79 161 185    81 165 191    78 162 188  
