P3
50 50
255
  32  41  50    32  41  50    33  42  51    33  42  51    33  42  51    34  43  52    34  43  52    34  43  52    32  42  51    32  42  51    32  42  51    32  42  51    32  42  51    32  42  51    32  42  51    32  42  51    32  42  51    32  42  51    32  42  51    32  42  51    32  42  51    32  42  51    32  42  51    32  42  51    32  42  51    32  42  51    33  43  52    33  43  52    33  43  52    33  43  52    34  44  53    34  44  53    33  43  52    33  43  52    33  43  52    33  43  52    33  43  52    33  43  52    33  43  52    33  43  52    34  44  53    34  44  53    34  44  53    34  44  53    34  44  53    34  44  53    34  44  53    34  44  53    35  45  54    35  45  54  
  33  42  51    33  42  51    33  42  51    33  42  51    33  42  51    34  43  52    34  43  52    34  43  52    32  42  51    32  42  51    32  42  51    32  42  51    32  42  51    32  42  51    32  42  51    32  42  51    32  42  51    32  42  51    32  42  51    32  42  51    32  42  51    32  42  51    32  42  51    32  42  51    32  42  51    32  42  51    33  43  52    33  43  52    33  43  52    33  43  52    34  44  53    34  44  53    33  43  52    33  43  52    33  43  52    33  43  52    33  43  52    33  43  52    33  43  52    33  43  52    34  44  53    34  44  53    34  44  53    34  44  53    34  44  53    34  44  53    34  44  53    34  44  53    35  45  54    35  45  54  
  34  43  52    34  43  52    34  43  52    33  42  51    33  42  51    33  42  51    33  42  51    33  42  51    32  42  51    32  42  51    32  42  51    32  42  51    32  42  51    32  42  51    32  42  51    32  42  51    32  42  51    32  42  51    32  42  51    32  42  51    32  42  51    32  42  51    32  42  51    32  42  51    32  42  51    32  42  51    33  43  52    33  43  52    33  43  52    33  43  52    34  44  53    34  44  53    33  43  52    33  43  52    33  43  52    33  43  52    33  43  52    33  43  52    33  43  52    33  43  52    34  44  53    34  44  53    34  44  53    34  44  53    34  44  53    34  44  53    34  44  53    34  44  53    35  45  54    35  45  54  
  34  43  52    34  43  52    34  43  52    33  42  51    33  42  51    33  42  51    32  41  50    32  41  50    32  42  51    32  42  51    32  42  51    32  42  51    32  42  51    32  42  51    32  42  51    32  42  51    32  42  51    32  42  51    32  42  51    32  42  51    32  42  51    32  42  51    32  42  51    32  42  51    32  42  51    32  42  51    33  43  52    33  43  52    33  43  52    33  43  52    34  44  53    34  44  53    33  43  52    33  43  52    33  43  52    33  43  52    33  43  52    33  43  52    33  43  52    33  43  52    34  44  53    34  44  53    34  44  53    34  44  53    34  44  53    34  44  53    34  44  53    34  44  53    35  45  54    35  45  54  
  34  43  52    34  43  52    34  43  52    33  42  51    33  42  51    33  42  51    33  42  51    33  42  51    32  42  51    32  42  51    32  42  51    32  42  51    32  42  51    32  42  51    32  42  51    32  42  51    32  42  51    32  42  51    32  42  51    32  42  51    32  42  51    32  42  51    32  42  51    32  42  51    32  42  51    32  42  51    33  43  52    33  43  52    33  43  52    33  43  52    34  44  53    34  44  53    33  43  52    33  43  52    33  43  52    33  43  52    33  43  52    33  43  52    33  43  52    33  43  52    34  44  53    34  44  53    34  44  53    34  44  53    34  44  53    34  44  53    34  44  53    34  44  53    35  45  54    35  45  54  
  33  42  51    33  42  51    33  42  51    33  42  51    33  42  51    34  43  52    34  43  52    34  43  52    32  42  51    32  42  51    32  42  51    32  42  51    32  42  51    32  42  51    32  42  51    32  42  51    32  42  51    32  42  51    32  42  51    32  42  51    32  42  51    32  42  51    32  42  51    32  42  51    32  42  51    32  42  51    33  43  52    33  43  52    33  43  52    33  43  52    34  44  53    34  44  53    33  43  52    33  43  52    33  43  52    33  43  52    33  43  52    33  43  52    33  43  52    33  43  52    34  44  53    34  44  53    34  44  53    34  44  53    34  44  53    34  44  53    34  44  53    34  44  53    35  45  54    35  45  54  
  32  41  50    32  40  50    32  41  50    33  42  50    33  42  51    34  43  52    34  43  52    34  43  52    32  42  51    32  42  51    32  42  51    32  42  51    32  42  51    32  42  51    32  42  51    32  42  51    32  42  51    32  42  51    32  42  51    32  42  51    32  42  51    32  42  51    32  42  51    32  42  51    32  42  51    32  42  51    33  43  52    33  43  52    33  43  52    33  43  52    34  44  53    34  44  53    33  43  52    33  43  52    33  43  52    33  43  52    33  43  52    33  43  52    33  43  52    33  43  52    34  44  53    34  44  53    34  44  53    34  44  53    34  44  53    34  44  53    34  44  53    34  44  53    35  45  54    35  45  54  
  32  41  50    32  41  50    31  40  49    32  41  50    34  43  52    35  44  53    35  44  53    34  43  52    32  42  51    32  42  51    32  42  51    32  42  51    32  42  51    32  42  51    32  42  51    32  42  51    33  43  52    33  43  52    33  43  52    33  43  52    33  43  52    33  43  52    33  43  52    33  43  52    33  43  52    33  43  52    33  43  52    33  43  52    33  43  52    33  43  52    33  43  52    33  43  52    32  42  51    32  42  51    33  43  52    33  43  52    33  43  52    33  43  52    34  44  53    34  44  53    33  43  52    33  43  52    33  43  52    34  44  53    34  44  53    34  44  53    34  44  53    34  44  53    35  45  54    35  45  54  
  33  42  50    32  41  50    31  40  49    32  41  50    34  43  52    35  44  53    35  44  53    34  43  52    32  42  51    32  42  51    32  42  51    32  42  51    32  42  51    32  42  51    32  42  51    32  42  51    33  43  52    33  43  52    33  43  52    33  43  52    33  43  52    33  43  52    33  43  52    33  43  52    33  43  52    33  43  52    33  43  52    33  43  52    33  43  52    33  43  52    33  43  52    33  43  52    32  42  51    32  42  51    33  43  52    33  43  52    33  43  52    33  43  52    34  44  53    34  44  53    33  43  52    33  43  52    33  43  52    34  44  53    34  44  53    34  44  53    34  44  53    34  44  53    35  45  54    35  45  54  
  33  42  51    32  41  50    32  41  50    32  41  50    34  43  52    35  44  53    34  43  52    33  42  51    32  42  51    32  42  51    32  42  51    32  42  51    32  42  51    32  42  51    32  42  51    32  42  51    33  43  52    33  43  52    33  43  52    33  43  52    33  43  52    33  43  52    33  43  52    33  43  52    33  43  52    33  43  52    33  43  52    33  43  52    33  43  52    33  43  52    33  43  52    33  43  52    32  42  51    32  42  51    33  43  52    33  43  52    33  43  52    33  43  52    34  44  53    34  44  53    33  43  52    33  43  52    33  43  52    34  44  53    34  44  53    34  44  53    34  44  53    34  44  53    35  45  54    35  45  54  
  34  43  52    33  42  51    32  41  50    33  42  51    34  43  52    35  44  53    34  43  52    33  42  51    32  42  51    32  42  51    32  42  51    32  42  51    32  42  51    32  42  51    32  42  51    32  42  51    33  43  52    33  43  52    33  43  52    33  43  52    33  43  52    33  43  52    33  43  52    33  43  52    33  43  52    33  43  52    33  43  52    33  43  52    33  43  52    33  43  52    33  43  52    33  43  52    32  42  51    32  42  51    33  43  52    33  43  52    33  43  52    33  43  52    34  44  53    34  44  53    33  43  52    33  43  52    33  43  52    34  44  53    34  44  53    34  44  53    34  44  53    34  44  53    35  45  54    35  45  54  
  34  43  52    33  42  51    32  41  50    33  42  51    34  43  52    34  43  52    33  42  51    32  41  50    32  42  51    32  42  51    32  42  51    32  42  51    32  42  51    32  42  51    32  42  51    32  42  51    33  43  52    33  43  52    33  43  52    33  43  52    33  43  52    33  43  52    33  43  52    33  43  52    33  43  52    33  43  52    33  43  52    33  43  52    33  43  52    33  43  52    33  43  52    33  43  52    32  42  51    32  42  51    33  43  52    33  43  52    33  43  52    33  43  52    34  44  53    34  44  53    33  43  52    33  43  52    33  43  52    34  44  53    34  44  53    34  44  53    34  44  53    34  44  53    35  45  54    35  45  54  
  35  44  53    33  42  51    33  42  51    33  42  51    34  43  52    34  43  52    33  42  51    32  41  50    32  42  51    32  42  51    32  42  51    32  42  51    32  42  51    32  42  51    32  42  51    32  42  51    33  43  52    33  43  52    33  43  52    33  43  52    33  43  52    33  43  52    33  43  52    33  43  52    33  43  52    33  43  52    33  43  52    33  43  52    33  43  52    33  43  52    33  43  52    33  43  52    32  42  51    32  42  51    33  43  52    33  43  52    33  43  52    33  43  52    34  44  53    34  44  53    33  43  52    33  43  52    33  43  52    34  44  53    34  44  53    34  44  53    34  44  53    34  44  53    35  45  54    35  45  54  
  33  43  52    33  43  52    33  43  52    33  43  52    33  43  52    33  43  52    33  43  52    33  42  51    32  42  51    32  42  51    32  42  51    32  42  51    32  42  51    32  42  51    32  42  51    32  42  51    33  43  52    33  43  52    32  42  51    32  42  51    32  42  51    33  43  52    34  44  53    34  44  53    34  44  53    34  44  53    34  44  53    34  44  53    34  44  53    34  44  53    34  44  53    34  44  53    33  43  52    33  43  52    34  44  53    34  44  53    34  44  53    34  44  53    34  44  53    34  44  53    34  44  54    34  44  54    34  44  54    35  45  54    35  45  54    35  45  54    35  45  54    35  45  54    35  45  55    35  45  55  
  33  43  52    33  43  52    33  43  52    33  43  52    33  43  52    33  43  52    33  43  52    33  43  52    32  42  51    32  42  51    32  42  51    32  42  51    32  42  51    32  42  51    32  42  51    32  42  51    33  43  52    33  43  52    32  42  51    32  42  51    32  42  51    33  43  52    34  44  53    34  44  53    34  44  53    34  44  53    34  44  53    34  44  53    34  44  53    34  44  53    34  44  53    34  44  53    34  44  53    34  44  53    34  44  53    34  44  53    34  44  53    34  44  53    34  44  53    34  44  53    35  45  55    35  45  55    35  45  55    35  45  55    35  45  55    35  45  55    35  45  55    35  45  55    35  45  55    35  45  55  
  33  43  52    33  43  52    33  43  52    33  43  52    33  43  52    33  43  52    33  43  52    33  43  52    32  42  51    32  42  51    32  42  51    32  42  51    32  42  51    32  42  51    32  42  51    32  42  51    33  43  52    33  43  52    32  42  51    32  42  51    32  42  51    33  43  52    34  44  53    34  44  53    34  44  53    34  44  53    34  44  53    34  44  53    34  44  53    34  44  53    34  44  53    34  44  53    34  44  53    34  44  53    34  44  53    34  44  53    34  44  53    34  44  53    34  44  53    34  44  53    35  45  55    35  45  55    35  45  55    35  45  55    35  45  55    35  45  55    35  45  55    35  45  55    35  45  55    35  45  55  
  33  43  52    33  43  52    33  43  52    33  43  52    33  43  52    33  43  52    33  43  52    33  43  52    32  42  51    32  42  51    32  42  51    32  42  51    32  42  51    32  42  51    32  42  51    32  42  51    33  43  52    33  43  52    32  42  51    32  42  51    32  42  51    33  43  52    34  44  53    34  44  53    34  44  53    34  44  53    34  44  53    34  44  53    34  44  53    34  44  53    34  44  53    34  44  53    34  44  53    34  44  53    34  44  53    34  44  53    34  44  53    34  44  53    34  44  53    34  44  53    35  45  55    35  45  55    35  45  55    35  45  55    35  45  55    35  45  55    35  45  55    35  45  55    35  45  55    35  45  55  
  33  43  52    33  43  52    33  43  52    33  43  52    33  43  52    33  43  52    33  43  52    33  43  52    32  42  51    32  42  51    32  42  51    32  42  51    32  42  51    32  42  51    32  42  51    32  42  51    33  43  52    33  43  52    32  42  51    32  42  51    32  42  51    33  43  52    34  44  53    34  44  53    34  44  53    34  44  53    34  44  53    34  44  53    34  44  53    34  44  53    34  44  53    34  44  53    34  44  53    34  44  53    34  44  53    34  44  53    34  44  53    34  44  53    34  44  53    34  44  53    35  45  55    35  45  55    35  45  55    35  45  55    35  45  55    35  45  55    35  45  55    35  45  55    35  45  55    35  45  55  
  33  43  52    33  43  52    33  43  52    33  43  52    33  43  52    33  43  52    33  43  52    33  43  52    32  42  51    32  42  51    32  42  51    32  42  51    32  42  51    32  42  51    32  42  51    32  42  51    33  43  52    33  43  52    32  42  51    32  42  51    32  42  51    33  43  52    34  44  53    34  44  53    34  44  53    34  44  53    34  44  53    34  44  53    34  44  53    34  44  53    34  44  53    34  44  53    34  44  53    34  44  53    34  44  53    34  44  53    34  44  53    34  44  53    34  44  53    34  44  53    35  45  55    35  45  55    35  45  55    35  45  55    35  45  55    35  45  55    35  45  55    35  45  55    35  45  55    35  45  55  
  33  43  52    33  43  52    33  43  52    33  43  52    33  43  52    33  43  52    33  43  52    33  43  52    32  42  51    32  42  51    32  42  51    32  42  51    32  42  51    32  42  51    32  42  51    32  42  51    33  43  52    33  43  52    32  42  51    32  42  51    32  42  51    33  43  52    34  44  53    34  44  53    34  44  53    34  44  53    34  44  53    34  44  53    34  44  53    34  44  53    34  44  53    34  44  53    34  44  53    34  44  53    34  44  53    34  44  53    34  44  53    34  44  53    34  44  53    34  44  53    35  45  55    35  45  55    35  45  55    35  45  55    35  45  55    35  45  55    35  45  55    35  45  55    35  45  55    35  45  55  
  33  43  52    33  43  52    33  43  52    34  44  53    34  44  53    35  45  54    35  45  54    35  45  54    32  42  51    32  42  51    32  42  51    33  43  52    33  43  52    34  44  53    34  44  53    34  44  53    32  42  51    32  42  51    32  42  51    32  42  51    32  42  51    32  42  51    32  42  51    32  42  51    34  44  53    34  44  53    34  44  53    34  44  53    34  44  53    34  44  53    34  44  53    34  44  53    34  44  53    34  44  53    34  44  53    34  44  53    34  44  53    34  44  53    34  44  53    34  44  53    35  45  55    35  45  55    35  45  55    35  45  55    35  45  55    35  45  55    35  45  55    35  45  55    35  45  55    35  45  55  
  32  42  50    32  42  50    32  42  51    33  43  52    33  43  52    33  43  52    34  44  53    34  44  53    32  42  51    32  42  51    32  42  51    33  43  52    33  43  52    34  44  53    34  44  53    34  44  53    32  42  51    32  42  51    32  42  51    32  42  51    32  42  51    32  42  51    32  42  51    32  42  51    34  44  53    34  44  53    34  44  53    34  44  53    34  44  53    34  44  53    34  44  53    34  44  53    34  44  53    34  44  53    34  44  53    34  44  53    34  44  53    34  44  53    34  44  53    34  44  53    35  45  55    35  45  55    35  45  55    35  45  55    35  45  55    35  45  55    35  45  55    35  45  55    35  45  55    35  45  55  
  32  42  51    32  42  51    32  42  51    32  42  51    32  42  51    33  43  52    33  43  52    33  43  52    33  43  52    33  43  52    33  43  52    33  43  52    33  43  52    33  43  52    34  44  53    34  44  53    33  43  52    33  43  52    33  43  52    33  43  52    33  43  52    33  43  52    33  43  52    33  43  52    34  44  53    34  44  53    34  44  53    34  44  53    34  44  53    34  44  53    34  44  53    34  44  53    34  44  53    34  44  53    34  44  53    34  44  53    34  44  53    34  44  53    34  44  53    34  44  53    35  45  55    35  45  55    35  45  55    35  45  55    35  45  55    35  45  55    35  45  55    35  45  55    35  45  55    35  45  55  
  33  43  52    33  43  52    33  43  52    33  43  52    33  43  52    33  43  52    33  43  52    33  43  52    33  43  52    33  43  52    33  43  52    33  43  52    33  43  52    33  43  52    33  43  52    33  43  52    33  43  52    33  43  52    33  43  52    33  43  52    33  43  52    33  43  52    33  43  52    33  43  52    34  44  53    34  44  53    34  44  53    34  44  53    34  44  53    34  44  53    34  44  53    34  44  53    34  44  53    34  44  53    34  44  53    34  44  53    34  44  53    34  44  53    34  44  53    34  44  53    35  45  55    35  45  55    35  45  55    35  45  55    35  45  55    35  45  55    35  45  55    35  45  55    35  45  55    35  45  55  
  35  45  54    35  45  54    34  44  53    34  44  53    34  44  53    34  44  53    33  43  52    33  43  52    34  44  53    34  44  53    33  43  52    33  43  52    33  43  52    33  43  52    32  42  51    32  42  51    34  44  53    34  44  53    34  44  53    34  44  53    34  44  53    34  44  53    34  44  53    34  44  53    34  44  53    34  44  53    34  44  53    34  44  53    34  44  53    34  44  53    34  44  53    34  44  53    34  44  53    34  44  53    34  44  53    34  44  53    34  44  53    34  44  53    34  44  53    34  44  53    35  45  55    35  45  55    35  45  55    35  45  55    35  45  55    35  45  55    35  45  55    35  45  55    35  45  55    35  45  55  
  34  44  53    34  44  53    34  44  53    33  43  52    33  43  52    33  43  52    32  42  51    32  42  51    34  44  53    34  44  53    34  44  53    33  43  52    33  43  52    32  42  51    32  42  51    32  42  51    34  44  53    34  44  53    34  44  53    34  44  53    34  44  53    34  44  53    34  44  53    34  44  53    34  44  53    34  44  53    34  44  53    34  44  53    34  44  53    34  44  53    34  44  53    34  44  53    34  44  53    34  44  53    34  44  53    34  44  53    34  44  53    34  44  53    34  44  53    34  44  53    35  45  55    35  45  55    35  45  55    35  45  55    35  45  55    35  45  55    35  45  55    35  45  55    35  45  55    35  45  55  
  33  43  52    33  43  52    33  43  52    32  42  51    32  42  51    31  41  50    31  41  50    31  41  50    33  43  52    33  43  52    33  43  52    33  43  52    33  43  52    32  42  51    32  42  51    32  42  51    34  44  53    34  44  53    34  44  53    34  44  53    34  44  53    34  44  53    34  44  53    34  44  53    35  45  54    35  45  54    35  45  54    34  44  53    34  44  53    34  44  53    34  44  53    34  44  53    34  44  53    34  44  53    34  44  53    34  44  53    34  44  53    34  44  53    34  44  53    34  44  53    34  45  55    34  45  55    34  45  55    34  45  55    34  45  55    34  45  55    34  45  55    34  45  55    34  45  55    34  45  55  
  33  43  52    33  43  52    33  43  52    32  42  51    32  42  51    32  42  51    32  42  51    32  42  51    32  42  51    32  42  51    33  43  52    33  43  52    33  43  52    33  43  52    34  44  53    34  44  53    34  44  53    34  44  53    34  44  53    34  44  53    34  44  53    34  44  53    34  44  53    34  44  53    36  46  56    36  46  56    36  46  56    35  45  55    34  44  54    34  44  54    33  43  53    33  43  53    34  44  54    34  44  54    34  44  54    34  44  54    35  45  55    35  45  55    35  45  55    35  45  55    33  46  55    33  46  55    33  46  55    33  46  55    33  46  55    33  46  55    33  46  55    33  46  55    33  46  55    33  46  55  
  33  43  52    33  43  52    33  43  52    33  43  52    32  42  51    32  42  51    32  42  51    32  42  51    33  43  52    33  43  52    33  43  52    33  43  52    33  43  52    34  44  53    34  44  53    34  44  53    34  44  53    34  44  53    34  44  53    34  44  53    34  44  53    34  44  53    34  44  53    34  44  53    36  46  56    36  46  56    35  45  55    35  45  55    34  44  54    34  44  54    33  43  53    33  43  53    34  44  54    34  44  54    34  44  54    34  44  54    35  45  55    35  45  55    35  45  55    35  45  55    33  46  55    33  46  55    33  46  55    33  46  55    33  46  55    33  46  55    33  46  55    33  46  55    34  47  55    34  47  55  
  34  44  53    33  43  52    33  43  52    33  43  52    33  43  52    32  42  51    32  42  51    32  42  51    33  43  52    33  43  52    33  43  52    33  43  52    34  44  53    34  44  53    34  44  53    34  44  53    34  44  53    34  44  53    34  44  53    34  44  53    34  44  53    34  44  53    34  44  53    34  44  53    35  45  55    35  45  55    35  45  55    35  45  55    34  44  54    34  44  54    34  44  54    34  44  54    34  44  54    34  44  54    34  44  54    34  44  54    35  45  55    35  45  55    35  45  55    35  45  55    33  46  55    33  46  55    33  46  55    33  46  55    33  46  55    33  46  55    33  46  55    33  46  55    34  47  56    34  47  56  
  34  44  53    34  44  53    34  44  53    33  43  52    33  43  52    33  43  52    33  43  52    32  42  51    33  43  52    33  43  52    34  44  53    34  44  53    34  44  53    34  44  53    35  45  54    35  45  54    34  44  53    34  44  53    34  44  53    34  44  53    34  44  53    34  44  53    34  44  53    34  44  53    35  45  55    35  45  55    35  45  55    35  45  55    34  44  54    34  44  54    34  44  54    34  44  54    34  44  54    34  44  54    34  44  54    34  44  54    35  45  55    35  45  55    35  45  55    35  45  55    33  46  55    33  46  55    33  46  55    33  46  55    33  46  55    33  46  55    33  46  55    33  46  55    33  46  55    33  46  55  
  34  44  53    34  44  53    34  44  53    34  44  53    33  43  52    33  43  52    33  43  52    33  43  52    34  44  53    34  44  53    34  44  53    34  44  53    34  44  53    35  45  54    35  45  54    35  45  54    34  44  53    34  44  53    34  44  53    34  44  53    34  44  53    34  44  53    34  44  53    34  44  53    35  45  55    35  45  55    35  45  55    35  45  55    35  45  55    35  45  55    35  45  55    35  45  55    34  44  54    34  44  54    34  44  54    34  44  54    35  45  55    35  45  55    35  45  55    35  45  55    33  46  55    33  46  55    33  46  55    33  46  55    33  46  55    33  46  55    33  46  55    33  46  55    32  45  54    32  45  54  
  35  45  54    34  44  53    34  44  53    34  44  53    34  44  53    33  43  52    33  43  52    33  43  52    34  44  53    34  44  53    34  44  53    34  44  53    35  45  54    35  45  54    35  45  54    35  45  54    34  44  53    34  44  53    34  44  53    34  44  53    34  44  53    34  44  53    34  44  53    34  44  53    34  44  54    34  44  54    34  44  54    34  44  54    35  45  55    35  45  55    35  45  55    35  45  55    34  44  54    34  44  54    34  44  54    34  44  54    35  45  55    35  45  55    35  45  55    35  45  55    33  46  55    33  46  55    33  46  55    33  46  55    33  46  55    33  46  55    33  46  55    33  46  55    34  47  56    34  47  56  
  33  43  52    33  43  52    33  43  52    33  43  52    33  43  52    33  43  52    33  43  52    33  43  52    34  44  53    34  44  53    33  43  52    33  43  52    33  43  52    33  43  52    34  44  53    34  44  53    34  44  53    34  44  53    34  44  53    34  44  53    34  44  53    34  44  53    34  44  53    34  44  53    35  45  55    35  45  55    35  45  55    35  45  55    35  45  55    35  45  55    35  45  55    35  45  55    35  45  55    35  45  55    35  45  55    35  45  55    35  45  55    35  45  55    35  45  55    35  45  55    33  46  55    33  46  55    33  46  55    33  46  55    33  46  55    33  46  55    33  46  55    33  46  55    34  47  56    34  47  56  
  33  43  52    33  43  52    33  43  52    33  43  52    33  43  52    33  43  52    33  43  52    33  43  52    34  44  53    34  44  53    33  43  52    33  43  52    33  43  52    33  43  52    34  44  53    34  44  53    34  44  53    34  44  53    34  44  53    34  44  53    34  44  53    34  44  53    34  44  53    34  44  53    35  45  55    35  45  55    35  45  55    35  45  55    35  45  55    35  45  55    35  45  55    35  45  55    35  45  55    35  45  55    35  45  55    35  45  55    35  45  55    35  45  55    35  45  55    35  45  55    33  46  55    33  46  55    33  46  55    33  46  55    33  46  55    33  46  55    33  46  55    33  46  55    34  47  56    34  47  56  
  33  43  52    33  43  52    33  43  52    33  43  52    33  43  52    33  43  52    33  43  52    33  43  52    34  44  53    34  44  53    33  43  52    33  43  52    33  43  52    33  43  52    34  44  53    34  44  53    34  44  53    34  44  53    34  44  53    34  44  53    34  44  53    34  44  53    34  44  53    34  44  53    35  45  55    35  45  55    35  45  55    35  45  55    35  45  55    35  45  55    35  45  55    35  45  55    35  45  55    35  45  55    35  45  55    35  45  55    35  45  55    35  45  55    35  45  55    35  45  55    33  46  55    33  46  55    33  46  55    33  46  55    33  46  55    33  46  55    33  46  55    33  46  55    34  47  56    34  47  56  
  34  44  53    34  44  53    34  44  53    34  44  53    34  44  53    34  44  53    34  44  53    34  44  53    34  44  53    34  44  53    33  43  52    33  43  52    33  43  52    33  43  52    34  44  53    34  44  53    34  44  53    34  44  53    34  44  53    34  44  53    34  44  53    34  44  53    34  44  53    34  44  53    35  45  55    35  45  55    35  45  55    35  45  55    35  45  55    35  45  55    35  45  55    35  45  55    35  45  55    35  45  55    35  45  55    35  45  55    35  45  55    35  45  55    35  45  55    35  45  55    33  46  55    33  46  55    33  46  55    33  46  55    33  46  55    33  46  55    33  46  55    33  46  55    34  47  56    34  47  56  
  34  44  53    34  44  53    34  44  53    34  44  53    34  44  53    34  44  53    34  44  53    34  44  53    34  44  53    34  44  53    33  43  52    33  43  52    33  43  52    33  43  52    34  44  53    34  44  53    34  44  53    34  44  53    34  44  53    34  44  53    34  44  53    34  44  53    34  44  53    34  44  53    35  45  55    35  45  55    35  45  55    35  45  55    35  45  55    35  45  55    35  45  55    35  45  55    35  45  55    35  45  55    35  45  55    35  45  55    35  45  55    35  45  55    35  45  55    35  45  55    33  46  55    33  46  55    33  46  55    33  46  55    33  46  55    33  46  55    33  46  55    33  46  55    34  47  56    34  47  56  
  35  45  54    35  45  54    35  45  54    35  45  54    35  45  54    35  45  54    35  45  54    35  45  54    34  44  53    34  44  53    33  43  52    33  43  52    33  43  52    33  43  52    34  44  53    34  44  53    34  44  53    34  44  53    34  44  53    34  44  53    34  44  53    34  44  53    34  44  53    34  44  53    35  45  55    35  45  55    35  45  55    35  45  55    35  45  55    35  45  55    35  45  55    35  45  55    35  45  55    35  45  55    35  45  55    35  45  55    35  45  55    35  45  55    35  45  55    35  45  55    33  46  55    33  46  55    33  46  55    33  46  55    33  46  55    33  46  55    33  46  55    33  46  55    34  47  56    34  47  56  
  35  45  54    35  45  54    35  45  54    35  45  54    35  45  54    35  45  54    35  45  54    35  45  54    34  44  53    34  44  53    33  43  52    33  43  52    33  43  52    33  43  52    34  44  53    34  44  53    34  44  53    34  44  53    34  44  53    34  44  53    34  44  53    34  44  53    34  44  53    34  44  53    35  45  55    35  45  55    35  45  55    35  45  55    35  45  55    35  45  55    35  45  55    35  45  55    35  45  55    35  45  55    35  45  55    35  45  55    35  45  55    35  45  55    35  45  55    35  45  55    33  46  55    33  46  55    33  46  55    33  46  55    33  46  55    33  46  55    33  46  55    33  46  55    34  47  56    34  47  56  
  34  44  54    34  44  54    33  43  53    33  43  53    33  43  53    33  43  53    34  44  54    34  44  54    34  44  54    34  44  54    34  44  54    34  44  54    34  44  54    34  44  54    34  44  54    34  44  54    35  45  55    35  45  55    35  45  55    35  45  55    35  45  55    35  45  55    35  45  55    35  45  55    33  46  55    33  46  55    33  46  55    33  46  55    33  46  55    33  46  55    33  46  55    33  46  55    33  46  55    33  46  55    33  46  55    33  46  55    33  46  55    33  46  55    33  46  55    33  46  55    33  46  55    33  46  55    33  46  55    33  46  55    33  46  55    33  46  55    33  46  55    33  46  55    33  46  55    33  46  55  
  34  44  54    34  44  54    33  43  53    33  43  53    33  43  53    33  43  53    34  44  54    34  44  54    34  44  54    34  44  54    34  44  54    34  44  54    34  44  54    34  44  54    34  44  54    34  44  54    35  45  55    35  45  55    35  45  55    35  45  55    35  45  55    35  45  55    35  45  55    35  45  55    33  46  55    33  46  55    33  46  55    33  46  55    33  46  55    33  46  55    33  46  55    33  46  55    33  46  55    33  46  55    33  46  55    33  46  55    33  46  55    33  46  55    33  46  55    33  46  55    33  46  55    33  46  55    33  46  55    33  46  55    33  46  55    33  46  55    33  46  55    33  46  55    33  46  55    33  46  55  
  34  44  54    34  44  54    33  43  53    33  43  53    33  43  53    33  43  53    34  44  54    34  44  54    34  44  54    34  44  54    34  44  54    34  44  54    34  44  54    34  44  54    34  44  54    34  44  54    35  45  55    35  45  55    35  45  55    35  45  55    35  45  55    35  45  55    35  45  55    35  45  55    33  46  55    33  46  55    33  46  55    33  46  55    33  46  55    33  46  55    33  46  55    33  46  55    33  46  55    33  46  55    33  46  55    33  46  55    33  46  55    33  46  55    33  46  55    33  46  55    33  46  55    33  46  55    33  46  55    33  46  55    33  46  55    33  46  55    33  46  55    33  46  55    33  46  55    33  46  55  
  34  44  54    34  44  54    33  43  53    33  43  53    33  43  53    33  43  53    34  44  54    34  44  54    34  44  54    34  44  54    34  44  54    34  44  54    34  44  54    34  44  54    34  44  54    34  44  54    35  45  55    35  45  55    35  45  55    35  45  55    35  45  55    35  45  55    35  45  55    35  45  55    33  46  55    33  46  55    33  46  55    33  46  55    33  46  55    33  46  55    33  46  55    33  46  55    33  46  55    33  46  55    33  46  55    33  46  55    33  46  55    33  46  55    33  46  55    33  46  55    33  46  55    33  46  55    33  46  55    33  46  55    33  46  55    33  46  55    33  46  55    33  46  55    33  46  55    33  46  55  
  34  44  54    34  44  54    33  43  53    33  43  53    33  43  53    33  43  53    34  44  54    34  44  54    34  44  54    34  44  54    34  44  54    34  44  54    34  44  54    34  44  54    34  44  54    34  44  54    35  45  55    35  45  55    35  45  55    35  45  55    35  45  55    35  45  55    35  45  55    35  45  55    33  46  55    33  46  55    33  46  55    33  46  55    33  46  55    33  46  55    33  46  55    33  46  55    33  46  55    33  46  55    33  46  55    33  46  55    33  46  55    33  46  55    33  46  55    33  46  55    33  46  55    33  46  55    33  46  55    33  46  55    33  46  55    33  46  55    33  46  55    33  46  55    33  46  55    33  46  55  
  34  44  54    34  44  54    33  43  53    33  43  53    33  43  53    33  43  53    34  44  54    34  44  54    34  44  54    34  44  54    34  44  54    34  44  54    34  44  54    34  44  54    34  44  54    34  44  54    35  45  55    35  45  55    35  45  55    35  45  55    35  45  55    35  45  55    35  45  55    35  45  55    33  46  55    33  46  55    33  46  55    33  46  55    33  46  55    33  46  55    33  46  55    33  46  55    33  46  55    33  46  55    33  46  55    33  46  55    33  46  55    33  46  55    33  46  55    33  46  55    33  46  55    33  46  55    33  46  55    33  46  55    33  46  55    33  46  55    33  46  55    33  46  55    33  46  55    33  46  55  
  34  44  54    34  44  54    33  43  53    33  43  53    33  43  53    33  43  53    34  44  54    35  45  55    35  45  55    35  45  55    34  44  54    34  44  54    34  44  54    34  44  54    35  45  55    35  45  55    35  45  55    35  45  55    35  45  55    35  45  55    35  45  55    35  45  55    35  45  55    35  45  55    33  46  55    33  46  55    33  46  55    33  46  55    33  46  55    33  46  55    33  46  55    33  46  55    33  46  55    33  46  55    33  46  55    33  46  55    33  46  55    33  46  55    33  46  55    33  46  55    33  46  55    33  46  55    33  46  55    33  46  55    33  46  55    33  46  55    33  46  55    33  46  55    33  45  55    33  45  55  
  34  44  54    34  44  54    34  44  54    34  44  54    34  44  54    35  45  55    35  45  55    36  46  56    36  46  56    36  46  56    35  45  55    35  45  55    35  45  55    35  45  55    36  46  56    36  46  56    35  45  55    35  45  55    35  45  55    35  45  55    35  45  55    35  45  55    35  45  55    35  45  55    33  46  55    33  46  55    33  46  55    33  46  55    33  46  55    33  46  55    33  46  55    33  46  55    33  46  55    33  46  55    33  46  55    33  46  55    33  46  55    33  46  55    33  46  55    33  46  55    33  46  55    33  46  55    33  46  55    33  46  55    33  46  55    33  46  55    33  46  55    33  46  55    33  46  55    33  46  55  
  34  44  54    34  44  54    34  44  54    34  44  54    34  44  54    35  45  55    35  45  55    36  46  56    36  46  56    36  46  56    35  45  55    35  45  55    35  45  55    35  45  55    36  46  56    36  46  56    35  45  55    35  45  55    35  45  55    35  45  55    35  45  55    35  45  55    35  45  55    35  45  55    33  46  55    33  46  55    33  46  55    33  46  55    33  46  55    33  46  55    33  46  55    33  46  55    33  46  55    33  46  55    33  46  55    33  46  55    33  46  55    33  46  55    33  46  55    33  46  55    33  46  55    33  46  55    33  46  55    33  46  55    33  46  55    33  46  55    33  46  55    33  46  55    33  46  55    33  46  55  
  34  44  54    34  44  54    34  44  54    34  44  54    34  44  54    35  45  55    35  45  55    36  46  56    36  46  56    36  46  56    35  45  55    35  45  55    35  45  55    35  45  55    36  46  56    36  46  56    35  45  55    35  45  55    35  45  55    35  45  55    35  45  55    35  45  55    35  45  55    35  45  55    33  46  55    33  46  55    33  46  55    33  46  55    33  46  55    33  46  55    33  46  55    33  46  55    33  46  55    33  46  55    33  46  55    33  46  55    33  46  55    33  46  55    33  46  55    33  46  55    33  46  55    33  46  55    33  46  55    33  46  55    33  46  55    33  46  55    33  46  55    33  46  55    33  46  55    33  46  55  
