P3
50 50
255
   3 135 148     2 136 148     1 134 146     1 133 145     1 141 154     3 147 158     6 149 163     4 150 163     2 148 161     3 151 163     5 156 167     7 159 170     4 160 172     4 162 172     3 164 174     5 168 177     5 169 179     3 170 179     1 167 176     1 164 173     4 172 181     1 172 180     1 171 179     1 172 180     2 173 183     2 174 184     2 174 184     1 175 184     2 176 187     2 179 189     3 180 190     3 181 191     3 181 191     5 183 193     7 185 195     7 188 197     1 183 194     1 185 197     4 186 197     5 187 198     7 189 200     7 189 200     8 189 198     8 189 198    17 198 207    16 194 204    16 194 202    19 196 204    22 200 207    21 198 206  
   3 137 149     1 137 149     2 139 151     3 141 154     1 142 154     5 148 160     6 152 165     4 150 163     1 148 161     1 152 163     5 156 168     5 159 170     1 155 166     1 159 169     1 163 173     4 168 177     3 170 179     3 170 180     2 171 180     2 171 180     6 177 185     5 176 184     3 175 183     4 175 183     4 177 186     6 178 188     4 179 187     3 178 186     2 180 190     3 181 191     3 182 191     3 181 191     2 181 191     3 182 192     3 185 194     4 185 197     1 183 196     2 186 198     5 187 199     7 189 201     9 190 202    10 190 202     9 190 199    11 189 199    27 205 215    20 197 207    13 191 198    15 191 200    18 194 202    21 195 203  
   1 138 150     1 138 148     3 141 154     5 146 158     4 147 160     6 151 164     5 152 165     3 150 163     3 153 164     6 158 170     6 160 173     3 159 170     3 161 172     4 165 176     6 169 179     5 170 180     2 169 178     1 170 179     4 175 183     7 179 186     5 178 185     2 176 184     1 174 181     2 176 184     5 179 188     6 182 190     5 182 190     4 181 189     5 183 193     6 184 194     4 185 194     3 184 193     2 183 192     1 182 191     2 184 195     3 185 196     7 189 201     7 189 201     7 189 201     7 189 201     8 189 200    10 189 200    11 191 200    13 191 201    20 197 207    17 194 204    18 194 202    22 196 205    21 195 203    18 191 199  
   1 141 151     1 138 148     1 139 150     1 142 154     6 152 165     3 152 165     1 151 164     1 150 162     1 153 165     2 157 169     2 162 172     3 164 175     1 164 174     2 166 176     2 168 178     1 170 180     1 170 180     1 173 182     5 176 186     7 181 189     4 179 187     2 178 188     1 177 185     1 176 186     1 176 186     1 179 188     3 181 190     5 183 192     5 182 192     2 179 189     1 179 188     2 181 191     1 180 190     1 176 186     1 179 189     5 184 194     6 187 197     6 185 195     5 186 196     9 188 198    10 189 200    12 189 198    14 191 200    17 194 203    14 191 201    21 198 208    23 199 209    17 193 203    17 193 203    23 199 209  
   4 145 155     4 145 155     4 148 157     6 153 163     6 157 168     4 155 169     3 156 168     1 156 168     1 158 169     2 159 171     1 163 174     2 164 175     1 167 177     3 169 178     2 172 182     3 173 183     1 173 183     1 173 183     1 174 183     1 176 185     4 182 192     4 182 192     4 182 191     3 180 190     1 179 189     2 180 190     4 182 192     6 184 194     9 187 197     7 185 195     7 185 195     8 186 196     7 185 195     6 184 194     8 186 196    13 191 201    16 195 202    10 189 197     7 186 193     7 186 193     9 186 195    11 188 196    17 194 202    22 199 207    16 193 203    22 199 209    22 199 209    14 191 201    13 191 201    21 199 209  
   4 148 159     3 147 158     4 151 161     6 154 164     3 155 166     3 157 169     3 159 171     4 160 172     4 162 173     3 161 172     1 161 172     1 160 171     2 169 178     5 172 181     5 176 186     6 177 187     4 176 186     1 175 184     1 175 183     1 175 183     4 182 192     5 183 193     6 184 194     5 183 193     3 181 191     3 181 191     4 182 192     5 183 193     2 180 190     5 183 193     5 183 193     3 181 191     2 180 190     5 183 193     8 186 196     8 186 196    11 192 199    10 191 198    15 194 201    19 198 205    19 198 205    14 193 200    12 191 198    12 191 198    20 199 206    22 201 208    20 198 208    17 195 205    16 194 204    18 196 206  
   3 148 159     1 148 158     3 150 160     6 155 167     2 157 167     2 159 171     4 161 172     5 164 175     6 165 176     5 166 176     3 166 177     2 167 176     2 170 179     3 172 181     5 175 185     5 178 188     5 179 188     5 180 188     4 181 190     5 182 191     2 180 190     4 182 192     5 183 193     6 183 193     5 182 192     3 181 191     2 181 191     3 181 191     4 182 192    10 188 198    11 189 199     5 183 193     5 183 193    11 189 199    14 192 202    10 188 198    12 193 200    11 192 199    14 194 201    19 198 205    18 197 205    14 194 201    12 191 198    12 192 199    24 203 210    23 202 209    22 200 209    21 200 209    21 199 209    21 199 208  
   5 153 163     3 153 162     6 155 165     8 160 171     2 160 170     2 161 171     3 163 173     3 165 175     6 167 178     6 169 180     6 172 181     6 174 183     4 174 184     4 176 186     5 176 186     5 178 187     3 179 187     4 181 189     6 183 193     8 186 196     3 181 191     5 183 193     7 185 195     8 186 196     7 185 195     6 184 194     6 184 194     6 184 194     3 181 191     7 185 195     9 187 197     6 184 194     5 183 193     9 187 197    11 189 199     9 187 197    16 197 204    12 193 200     9 190 197    10 191 198    10 191 198    11 192 199    15 196 203    20 201 208    20 199 206    21 200 207    21 200 207    21 199 206    22 199 207    25 201 209  
   5 155 166     2 154 164     3 155 165     2 158 168     1 160 170     1 160 171     1 163 173     2 165 175     4 167 178     3 170 179     3 171 182     3 173 183     5 177 187     5 178 188     5 179 190     4 180 190     3 180 189     2 180 189     3 181 191     3 183 192     2 183 192     5 185 194     6 187 196     7 188 197     7 187 197     7 187 196     7 187 196     9 189 198     8 187 197     8 188 197    10 190 199    10 191 200     9 190 199     9 189 198     9 189 199    11 191 200     8 191 197     7 190 196     9 192 198    14 197 203    15 198 204    13 195 202    13 195 201    16 197 204    13 192 198    20 199 205    20 198 205    15 192 199    18 193 200    27 200 207  
   5 157 168     3 157 167     4 158 169     4 162 173     4 166 177     3 169 178     5 172 181     7 174 183     7 175 184     7 175 184     6 176 186     4 176 186     1 173 183     3 177 186     4 181 191     6 183 193     4 182 192     3 181 191     1 181 190     1 181 190     1 182 191     2 183 192     4 185 194     5 186 195     5 186 195     5 186 195     7 188 197     9 190 199     6 187 196     3 185 193     5 185 195     9 190 199     8 189 198     3 184 193     4 185 194     9 190 199    13 196 202     9 192 199     8 191 197    10 193 200    11 195 200    12 195 201    14 198 204    20 201 208    11 190 195    21 200 205    22 199 205    14 188 195    16 189 196    28 199 207  
   4 160 172     5 162 174     5 162 174     3 164 174     4 169 179     5 173 182     2 170 179     1 168 177     3 174 184     2 174 184     1 172 182     5 179 188     2 176 187     1 178 188     3 180 190     4 182 192     4 185 194     4 185 194     1 183 194     1 180 191     1 181 190     4 185 194     6 187 196     6 187 196     7 188 197     9 190 199     9 190 199     5 186 195     3 184 193     3 184 193     5 186 195     9 190 199    11 192 201    12 193 202    12 192 202    11 192 201    15 196 205    10 191 200    10 191 198    17 198 205    18 201 207    13 196 202    11 194 197    12 194 198    19 198 203    19 196 202    21 196 201    23 196 202    30 199 206    36 203 211  
   3 161 173     1 162 173     1 162 173     1 162 172     1 170 178     4 175 183     1 171 180     1 171 179     5 177 187     4 179 188     2 177 187     6 184 192     6 183 193     4 183 193     4 182 193     3 184 193     5 186 196     6 187 197     4 187 197     4 186 197     5 187 196     8 190 198     9 191 199     7 188 197     7 188 197     9 191 199     8 190 198     5 186 195     9 191 200     9 191 200     9 191 200     8 189 198     7 189 197     8 190 198     9 190 199    10 191 200     9 189 198    17 197 207    19 199 207    13 194 202    13 196 202    22 203 210    22 205 209    18 197 202    19 197 202    20 197 202    24 197 202    30 198 205    36 201 209    43 205 214  
   4 165 177     4 167 177     4 167 178     2 168 177     1 172 181     4 177 186     1 175 184     1 175 183     6 182 190     6 183 191     4 181 191     8 186 196     7 187 196     5 186 195     3 185 196     3 185 196     5 187 198     6 188 199     5 189 199     5 188 199     5 188 196     8 191 199     8 191 199     6 189 197     6 189 197    10 193 201    10 193 201     8 191 199    11 194 202    13 196 204    14 197 205    12 195 203     9 192 200    10 193 201    13 196 204    18 199 208    18 195 205    16 193 203    19 196 206    23 201 211    19 199 206    11 191 198    14 194 199    24 202 208    24 200 205    27 200 206    31 201 206    37 202 208    43 203 211    49 205 214  
   4 168 179     3 169 180     5 170 181     4 172 182     1 174 183     4 180 188     1 178 185     1 178 185     5 184 191     5 183 190     1 181 190     5 185 195     5 187 195     4 187 195     4 187 197     5 188 199     6 190 200     7 190 200     3 190 199     3 187 197     3 186 194     6 189 197     6 189 197     5 188 196     6 189 197    10 193 201    11 194 202     9 192 200     3 186 194     8 191 199    12 195 203    12 195 203    10 193 201    10 192 201    13 196 204    18 199 208    10 187 197    22 197 208    28 203 214    24 201 211    20 198 206    22 200 207    25 203 209    25 202 208    26 200 205    30 200 207    36 202 208    41 203 210    49 204 213    53 205 215  
   1 166 178     1 166 178     1 167 179     1 169 179     1 177 185     4 183 190     2 181 188     1 180 187     7 186 193     5 184 191     1 181 190     4 185 194     6 189 197     7 189 198     7 191 201     9 193 203    10 194 204     9 193 203     4 191 200     4 188 198     5 189 197     9 192 199     9 192 199     6 189 197     6 189 197     8 191 199     8 191 199     6 189 197     4 187 194     8 191 199    12 195 203    13 196 204    12 195 203    10 193 201    11 194 202    13 194 203    13 187 198    24 196 208    29 203 214    27 202 213    23 199 208    24 201 209    26 203 209    29 203 210    25 198 204    31 198 206    38 201 208    46 204 213    54 208 216    61 209 219  
   1 167 179     1 170 180     2 170 181     1 172 182     1 178 186     3 184 191     2 183 190     2 183 190     8 189 198     6 187 196     2 185 193     6 189 197     8 192 202     7 191 201     7 191 201     7 192 202     7 194 202     7 194 203     5 191 203     5 189 199     5 189 197     9 192 200    10 193 201     8 191 199     8 191 199    10 193 201     9 192 200     6 189 197    11 194 202    12 195 203    12 195 203    12 195 203    12 196 204    13 196 204    13 196 204    14 195 204    27 201 212    22 192 205    23 195 206    31 203 215    27 201 210    17 191 200    21 195 202    34 207 214    32 203 210    37 203 209    43 205 210    50 207 214    58 209 216    66 213 221  
   3 172 183     4 175 186     5 177 187     5 178 188     1 178 186     3 184 193     2 185 192     3 185 194     7 190 198     6 189 198     5 188 197    10 193 201     7 191 201     5 190 200     5 189 199     6 190 200     4 190 200     4 190 199     4 189 201     6 190 200     3 187 197     8 191 200    10 193 201    10 193 201     9 193 201    11 194 203    11 194 202     9 192 200    11 195 202    10 193 201     7 190 197     6 190 197     7 192 199    12 195 203    13 198 206    17 199 207    17 195 204    25 199 210    24 197 206    25 197 206    27 198 208    31 202 209    40 209 217    41 207 214    46 208 214    49 208 213    54 208 216    58 210 216    63 211 218    67 211 218  
   2 175 187     3 176 188     3 178 189     2 179 189     1 180 190     2 185 195     5 189 198     6 189 200     3 187 197     3 187 197     6 190 200    10 194 204     7 191 201     5 189 199     6 190 200     8 192 202     6 190 200     3 187 197     5 189 199    10 194 204     6 190 200     9 193 203    10 194 204    10 194 204     8 192 202     7 191 201     8 192 200     9 193 201    10 194 202     9 193 201     7 193 198     6 192 197     6 193 198    10 196 201    12 199 204    15 200 205    15 197 202    21 199 206    16 190 197    31 204 211    36 206 214    32 197 206    50 211 217    54 210 217    52 204 212    56 206 213    60 208 215    64 209 217    65 209 216    66 209 215  
   3 177 188     2 178 189     2 180 190     1 180 190     1 181 192     2 185 195     5 189 199     7 191 201     7 191 201     7 191 201     6 190 200     6 190 200     7 191 201     4 188 198     3 187 197     4 188 198     3 187 197     3 187 197     6 190 200    12 195 205     8 192 202     9 193 203    11 195 205    11 195 205    10 194 204     9 193 203    10 194 202    12 195 204    11 195 203    10 194 202     8 194 199     8 193 198     8 194 199    10 195 200    11 197 202    14 198 204    23 203 208    29 207 212    22 196 203    28 199 207    33 201 208    38 201 210    54 213 219    56 210 218    58 209 216    60 207 215    59 206 213    61 205 212    61 206 211    61 206 211  
   2 179 189     2 180 190     3 181 191     1 182 191     4 185 197     2 186 196     2 186 196     5 189 199     7 191 201     8 192 202     6 190 200     3 187 197     4 188 198     3 187 197     2 186 196     2 186 196     3 187 197     4 188 198     8 192 202    11 195 205     6 190 200     6 190 200     7 191 201     7 191 201     7 191 201     8 192 202     9 193 201    10 194 202     8 192 200     6 190 198     3 188 193     3 188 193     6 191 196    13 196 202    18 203 208    25 206 213    23 200 206    34 209 216    34 207 214    33 202 210    37 204 212    45 208 217    51 210 216    45 199 207    57 208 215    59 208 215    59 206 213    60 204 212    60 205 210    61 206 211  
   2 180 190     2 183 192     2 183 194     2 184 195     6 190 200     3 187 197     1 184 194     1 184 194     4 188 198     6 190 200     5 189 199     4 188 198     1 185 195     2 186 196     2 186 196     3 187 197     5 189 199     7 191 201     8 192 202     7 191 201     4 191 200     3 190 199     2 189 198     3 190 199     6 190 200     7 191 201     8 192 200     9 193 201     3 186 194     6 189 197     9 192 198    13 196 202    16 198 204    17 198 204    16 199 205    18 197 204    18 192 199    28 199 207    37 205 214    34 200 209    42 205 214    56 217 227    54 213 219    48 202 210    49 202 208    55 204 211    58 205 212    57 204 211    55 203 207    55 203 207  
   2 183 193     2 185 194     3 186 196     3 186 196     7 191 201     4 188 198     1 185 195     1 184 194     1 185 195     4 188 198     5 189 199     4 188 198     2 186 196     3 187 197     3 187 197     3 187 197     5 190 200     9 193 203     9 193 203     6 190 200     7 194 203     5 191 201     3 190 199     3 190 199     7 191 201     8 192 202     9 193 201    10 193 200    17 200 208    16 198 206    13 195 202    12 193 200    13 193 200    16 195 202    18 198 205    23 199 208    32 204 211    32 200 209    38 206 215    31 195 205    37 200 209    53 214 224    49 208 214    51 205 213    54 207 213    56 207 215    61 210 216    62 210 217    62 210 213    61 209 213  
   2 185 195     2 186 196     3 187 197     3 187 197     6 190 200     6 190 200     5 189 199     4 188 198     4 188 198     4 188 198     4 188 198     4 188 198     6 190 200     6 190 200     4 188 198     1 185 195     4 188 198    10 194 204    11 195 205     8 192 202     9 196 205     6 193 202     3 190 199     3 190 199     7 191 201     9 193 203    10 193 201     9 191 200    18 200 208    18 197 207    15 195 202    16 194 202    18 196 204    25 200 209    30 206 214    36 209 218    41 210 219    35 200 210    41 206 216    33 196 207    39 201 211    54 213 224    45 204 210    53 207 215    57 211 216    56 207 214    57 208 213    63 212 218    70 218 222    71 219 223  
   3 187 197     5 189 199     3 189 198     2 188 198     4 188 198     5 189 199     5 188 198     4 188 198     3 187 197     3 187 197     5 189 199     6 190 200     4 188 198     8 192 202     7 191 201     2 186 196     3 187 197     9 193 203    11 195 205     6 190 200     3 189 198     4 191 201     6 193 202     5 192 201     7 190 200     7 191 201     8 191 199     9 190 199     7 188 197    14 192 202    25 202 210    19 194 202    27 202 211    29 201 211    37 209 219    34 205 215    33 200 209    34 196 207    37 199 210    47 209 220    40 201 211    51 209 220    47 206 212    55 209 217    60 215 220    50 201 208    53 205 210    62 211 217    64 212 216    74 220 224  
   4 188 198     6 190 200     3 190 199     2 189 198     4 188 198     4 188 198     4 188 198     3 187 197     2 186 196     3 187 197     5 189 199     7 191 201     3 187 197     4 188 198     4 188 198     2 186 196     3 187 197     6 190 200     6 190 200     3 187 197     2 189 199     3 191 200     3 190 199     2 189 198     3 187 197     9 191 202    14 197 205    20 201 210    15 193 203    21 198 208    26 200 209    29 201 211    31 203 213    38 209 219    37 208 218    36 205 216    40 204 214    35 197 208    34 196 207    42 204 215    33 195 205    39 200 210    44 203 209    48 205 212    43 198 203    53 204 211    60 209 215    62 209 216    66 212 217    68 212 218  
   4 188 200     5 189 201     3 189 201     3 189 201     2 186 196     3 187 197     3 187 197     3 187 197     2 186 196     3 187 197     6 190 200     8 192 202     8 192 202     4 188 198     3 187 197     6 190 200     8 192 202     7 191 201     6 190 200     6 190 200     4 192 201     3 191 200     2 190 199     3 190 199     5 190 200     9 191 202    16 199 207    26 204 214    21 198 208    23 196 207    17 189 199    35 206 216    28 199 209    40 208 219    29 197 208    34 200 212    43 207 217    32 194 205    35 197 208    35 197 208    41 202 212    40 201 211    51 210 216    49 206 213    38 193 198    64 215 222    66 215 221    61 208 215    71 214 220    64 205 212  
   3 187 199     5 188 200     3 189 200     3 189 201     1 185 195     2 186 196     3 187 197     2 186 196     2 186 196     3 187 197     6 190 200     8 192 202    10 194 204     3 187 197     1 185 195     8 192 202    11 195 205     7 191 201     5 189 199     5 192 201     3 190 200     3 192 200     7 195 204    11 197 206     9 196 205     9 190 202    11 192 201    16 194 204    23 200 210    20 192 204    21 192 202    35 203 214    34 201 213    30 196 208    27 192 204    35 199 211    42 206 216    31 194 204    40 202 213    36 198 209    48 211 220    45 206 216    54 213 219    43 200 208    49 204 209    59 210 217    64 212 219    66 210 218    69 210 217    68 207 214  
   4 186 199     4 186 199     4 188 200     5 189 201     1 185 195     2 186 196     2 186 196     2 186 196     2 186 196     3 187 197     6 190 200     8 192 202     7 191 201     3 187 197     3 187 197     8 192 202    10 194 204     6 190 200     4 188 198     5 192 201     4 192 201     1 192 200     5 193 202    10 197 206     8 195 204     8 190 201    11 192 201    20 197 207    27 203 213    22 194 206    33 204 214    35 202 214    44 209 221    28 191 203    35 198 211    41 204 216    48 212 222    36 200 210    39 203 213    34 197 208    43 206 215    44 206 216    53 214 219    44 201 208    54 209 214    51 202 209    67 214 221    75 218 226    63 202 209    68 204 212  
   2 184 197     1 183 196     2 185 197     4 186 199     2 185 195     2 186 196     2 186 196     2 186 196     1 185 195     1 185 195     4 188 198     6 190 200     3 187 197     7 191 201    11 195 205    10 194 204     8 192 202     7 191 201     8 192 202     6 193 202     6 194 203     1 191 199     1 190 198     6 192 201     6 193 202     8 190 200    16 197 206    30 208 218    26 200 211    24 195 207    33 202 213    35 202 214    42 206 218    33 195 208    37 199 212    41 202 216    45 209 219    37 203 213    34 200 210    36 200 210    37 201 210    51 214 223    58 220 225    54 212 218    55 210 215    55 207 213    69 214 222    74 216 225    66 203 211    68 202 211  
   2 184 197     1 182 195     1 183 196     3 185 198     3 187 197     3 187 197     3 187 197     2 186 196     1 185 195     1 185 195     3 187 197     5 189 199     1 181 191     8 192 202    13 197 207     8 192 202     3 187 197     6 190 200     8 192 202     4 191 200     8 196 205     3 191 200     3 191 200     9 195 204    10 195 204    10 193 201    20 198 208    32 209 219    26 200 211    29 200 212    26 195 205    40 206 218    37 201 213    47 209 222    38 200 213    40 202 215    37 203 213    37 204 213    32 199 208    41 207 215    32 196 205    50 213 220    49 211 216    47 204 211    51 205 210    59 208 215    55 199 207    61 202 211    82 219 227    82 216 225  
   9 191 202     7 189 199     9 192 202    12 196 206     1 181 191     3 187 197     6 190 200     5 189 199     4 188 198     5 189 199     3 187 197     1 183 193     5 189 199     8 192 202     7 191 201     3 187 197     4 188 198     8 192 202     8 192 202     5 189 199     2 189 196    12 196 204    11 194 202     3 186 194    10 192 200    24 206 213    25 204 211    12 189 197    30 204 213    35 207 217    34 205 213    33 202 210    31 199 208    24 191 200    27 194 203    45 212 221    32 199 207    30 200 206    47 214 222    28 195 201    33 198 204    33 195 200    42 200 206    52 206 211    57 209 214    64 213 219    60 205 210    62 204 210    79 218 223    81 217 223  
   5 188 198     4 186 197     4 188 198     5 189 199     1 182 192     3 187 197     6 190 200     5 189 199     4 188 198     6 190 200     5 189 199     3 187 197     4 188 198     8 192 202    10 193 203     6 190 200     4 188 198     6 190 200     7 191 201     7 191 201     9 193 201     8 192 201     8 191 200     9 192 200    16 196 204    20 201 209    22 201 208    18 195 203    25 199 208    33 207 215    30 203 210    26 197 205    31 200 208    33 201 210    30 197 206    31 198 208    43 213 220    35 204 211    40 209 214    36 203 209    42 207 212    49 211 216    48 205 211    57 210 217    51 204 209    64 212 219    72 217 223    74 217 223    72 212 218    70 207 214  
   4 188 198     4 188 198     3 187 197     2 186 196     1 185 195     5 189 199     7 191 201     5 189 199     4 188 198     8 192 202     8 192 202     8 192 202     8 192 202    10 194 204    11 195 205     9 193 203     8 192 202     9 193 203     9 193 203     9 193 203    14 198 206    11 195 203    11 194 202    14 197 205    16 198 207    16 197 206    18 197 204    18 196 204    22 198 206    31 205 214    28 201 208    25 197 204    34 204 212    40 208 217    33 201 210    27 195 204    33 204 211    29 199 206    34 204 211    46 214 221    40 205 211    46 208 216    37 196 202    54 210 217    49 202 208    48 198 205    58 205 212    68 211 219    67 209 215    72 212 219  
   3 190 199     4 190 200     2 188 198     1 185 195     3 187 197     7 190 200     7 191 201     5 189 199     5 189 199     8 192 202    10 194 204    10 194 204    11 195 205     8 192 202     6 190 200     8 192 202    12 196 206    12 196 206     9 193 203     6 190 200     7 191 200    11 195 205    13 196 204    12 195 203    13 196 204    19 200 209    23 201 210    20 198 207    23 200 208    27 201 210    23 197 206    26 199 208    34 207 214    34 204 213    30 200 208    34 205 213    28 201 208    27 198 206    33 204 211    47 216 223    35 201 209    40 204 212    31 191 199    53 210 219    55 208 216    49 201 209    59 209 216    66 213 221    58 204 211    63 206 214  
   2 189 198     3 190 199     1 188 197     1 186 195     4 188 198     7 191 201     8 192 202     5 189 199     5 189 199     8 192 202    10 194 204     9 193 203     9 193 203     4 188 198     3 187 197     7 191 201    11 195 205    10 194 204     6 190 200     3 187 197     7 191 201    16 200 210    18 202 210    10 194 202     9 192 200    15 198 206    19 199 208    15 193 203    21 200 207    20 197 205    17 194 202    24 198 207    30 204 211    26 199 206    26 199 206    40 213 220    42 215 222    29 202 209    26 198 205    31 201 209    32 201 208    43 209 217    38 201 208    51 212 220    57 215 222    53 207 215    55 208 215    59 210 217    60 209 216    64 212 219  
   1 189 198     1 189 198     1 188 197     1 187 196     3 187 197     7 191 201     8 192 202     6 190 200     5 189 199     7 191 201     8 192 202     7 191 201     6 190 200     5 189 199     8 191 201    10 195 205    10 194 204     6 190 200     5 189 199     8 191 201    13 197 207    16 200 210    17 201 211    14 198 208    10 193 201     7 190 198    10 191 200    14 192 202    16 195 204    21 198 208    18 195 203    20 195 204    29 203 212    30 204 213    30 203 213    35 209 219    35 209 216    23 197 204    26 199 206    18 189 197    29 200 208    39 207 216    41 208 216    48 211 220    47 208 216    45 204 213    40 197 206    47 202 210    63 217 225    66 220 228  
   2 190 199     2 190 199     1 189 198     2 189 198     4 188 198     6 190 200     7 191 201     5 190 200     6 190 200     8 192 202     8 192 202     7 191 201     4 188 198     7 191 201    11 195 205    13 197 207     8 192 202     4 188 198     6 191 201    13 197 207     8 193 202     5 191 200     8 192 202    12 197 207    12 195 204     8 191 200    11 194 202    20 201 210    11 192 201    23 200 210    19 197 205    17 194 202    24 202 209    31 206 215    32 207 215    26 201 210    22 197 204    25 199 207    35 211 218    22 196 203    32 205 213    36 208 216    42 211 218    42 209 217    36 200 209    48 210 220    48 210 218    48 208 217    53 211 220    48 207 216  
   2 189 198     3 190 199     2 189 198     1 187 196     6 190 200     4 188 198     3 187 197     4 188 198     7 191 201    10 194 204    10 194 204    10 194 204     7 191 201     8 192 202     8 192 202     8 192 202     7 191 201     7 191 201     8 192 202    10 194 204     8 195 204     6 193 202     6 190 200     6 190 200     8 192 202    10 193 204    11 194 202    10 192 201     9 191 200    20 200 209    13 193 202    16 194 204    19 198 205    21 199 207    25 203 211    13 191 199    24 202 210    34 212 220    28 206 214    19 194 203    27 202 211    39 212 222    38 210 218    34 203 212    27 196 204    36 202 211    42 207 216    41 206 215    36 199 209    34 196 206  
   3 187 197     2 187 196     2 186 196     1 186 196     3 187 197     2 186 196     1 185 195     1 186 196     4 188 198     7 191 201     7 191 201     7 191 201    12 196 206    10 194 204     8 192 202     9 193 203    11 195 205    11 195 205     9 193 203     6 190 200     7 193 205     6 192 203     5 190 201     5 190 201     6 190 200     7 191 201     7 191 200     7 190 200     7 191 198    14 196 204     6 188 196    11 191 201    18 199 207    21 202 210    25 205 213    11 192 199    18 199 207    25 203 212    19 197 206    14 191 201    21 199 208    27 203 213    24 200 208    25 198 207    24 197 205    29 200 210    34 204 213    34 204 213    33 200 210    30 197 208  
   3 187 197     2 184 195     1 185 195     3 187 197     2 186 196     1 185 195     1 185 195     1 185 195     2 186 196     4 188 198     5 189 199     6 190 200     7 190 200     5 189 199     5 189 199     7 191 201     9 193 203    10 194 204     8 192 202     5 189 199     4 190 202     3 189 201     3 189 201     3 189 201     5 189 199     6 190 200     6 190 200     6 190 200     3 186 194     9 192 200     2 185 193     7 190 198    13 196 204    15 196 205    21 202 209    10 191 198    20 201 210    23 204 213    20 200 209    22 200 210    28 206 216    21 199 209    13 191 199    15 191 199    33 210 218    30 204 214    25 199 208    28 200 212    34 205 216    35 207 219  
   3 185 196     2 183 194     2 184 195     3 185 196     2 186 196     2 186 196     2 186 196     2 186 196     2 186 196     3 187 197     5 189 199     7 191 201     1 185 195     4 188 198     6 190 200     6 190 200     4 189 199     4 187 197     4 187 197     5 189 199     1 184 197     1 186 198     1 187 199     2 188 200     3 189 201     3 189 201     6 190 200     7 191 201     1 185 195     9 193 203     4 188 196     9 192 200     9 192 200     7 190 198    16 199 207    11 194 202    26 209 218    23 206 214    13 196 204    14 195 204    19 200 209    15 196 205    12 193 202    20 199 209    16 194 204    21 197 210    23 200 211    24 198 212    23 197 208    24 198 212  
   4 184 195     4 184 195     4 184 195     4 185 195     4 185 197     3 187 197     3 187 197     3 187 197     2 185 195     3 187 197     5 189 199     7 191 201     5 188 198     7 190 200     8 192 202     6 190 200     2 185 195     1 183 193     1 184 194     2 186 196     1 181 193     1 183 195     1 186 198     1 187 199     2 188 200     1 187 199     4 189 198     6 190 200     3 187 197    12 195 205     6 190 199    10 195 203     9 192 200     5 188 196    15 198 206    14 197 205    10 193 201    12 195 203     9 192 200    10 193 201    18 200 209    16 198 207    10 192 201    13 193 203    20 198 210    18 197 208    16 195 207    18 195 208    21 197 211    22 199 212  
   5 183 195     7 185 197     6 184 196     4 184 195     3 185 196     4 187 197     4 188 197     3 186 197     1 185 194     2 185 195     4 188 197     7 190 201     6 190 199     4 187 198     3 186 195     2 184 195     2 185 194     2 185 196     2 185 194     1 184 195     1 181 192     1 184 196     2 187 199     2 187 199     2 187 199     1 186 198     1 187 196     3 189 198     6 190 200     9 193 203     3 187 197     8 192 202    10 194 202     6 190 198    15 199 207    12 196 204     5 188 196    12 194 203     9 192 200     8 191 199    16 198 209    17 199 210    12 193 204    10 191 202    15 196 207    16 197 208    17 198 209    19 198 210    19 198 212    17 196 210  
   3 181 191     5 182 193     5 181 194     3 181 193     1 182 192     2 183 193     1 184 191     2 183 193     1 184 191     2 184 193     2 186 192     4 185 195     1 185 191     1 182 192     1 182 189     1 182 191     1 183 190     2 183 193     1 183 190     1 182 192     1 181 192     1 182 194     3 185 196     4 186 197     5 187 198     4 186 198     4 186 197     4 187 198     9 192 203     6 189 200     6 188 199     8 190 201     6 188 198     6 189 199    11 194 204     8 190 201    12 193 203    16 195 206    11 193 203     8 190 200    12 193 204    17 198 209    15 195 207    10 191 202     7 188 199     9 191 202    13 195 206    13 195 206    12 193 205    10 191 203  
   5 179 190     6 180 191     3 179 192     3 180 190     2 181 188     1 182 189     1 182 189     1 182 189     2 183 190     2 183 190     2 183 190     4 183 190     2 183 190     4 183 190     3 182 189     2 181 188     1 180 187     1 179 186     1 179 186     1 177 187     7 185 195     6 184 197     6 184 196     4 182 194     3 181 193     3 181 193     1 182 193     2 183 194     6 188 198     2 183 194     5 187 198     7 189 200     4 186 197     7 189 200    12 194 205     8 190 201     8 189 200    14 192 204    14 193 205    12 190 202    10 191 202    13 194 205    14 195 206    12 193 204     9 191 202     9 191 202     8 192 202     8 192 202     8 192 202     6 190 200  
   4 178 189     5 179 190     5 179 190     2 179 189     2 181 188     2 181 188     2 181 188     2 181 188     2 181 188     3 182 189     3 182 189     4 181 189     1 179 186     2 178 186     2 179 187     1 178 186     1 178 186     1 177 185     1 177 185     1 177 187     4 182 192     2 180 192     1 179 191     1 178 190     1 179 191     4 182 194     5 186 197     7 188 199     3 184 195     1 180 191     3 185 196     7 189 200     4 186 197     7 189 200    11 193 204     7 189 199     4 185 196     9 190 201    12 193 204    10 191 202     8 189 200     9 190 201    11 193 204    12 194 205     9 192 202     9 192 202     9 192 202     9 192 202     6 193 202     6 193 202  
   4 178 189     5 179 190     5 179 190     4 178 189     1 177 185     1 177 185     1 177 185     2 178 186     2 178 186     2 178 186     2 178 186     4 177 186     1 173 182     1 173 182     1 175 183     1 175 184     1 178 186     4 178 187     3 180 188     4 180 190     2 179 189     1 179 191     1 179 191     1 179 191     2 181 192     4 182 194     4 185 196     6 187 198     4 185 196     1 182 193     5 187 198     8 190 201     4 186 197     6 188 199     8 190 201     4 186 197     6 187 198     7 189 200     7 189 200     7 188 199     7 188 199     7 188 199     7 189 200     7 189 200     4 188 198     4 188 198     4 188 198     4 188 198     4 191 200     5 192 201  
   5 177 189     6 178 190     5 179 190     4 177 189     2 175 185     3 175 185     2 175 185     2 175 184     2 175 184     2 175 184     2 175 184     2 174 184     1 173 183     1 173 183     1 174 184     2 174 184     3 176 185     4 176 186     4 177 186     4 178 189     5 182 192     4 182 194     5 183 195     5 183 195     5 183 195     4 182 194     1 182 193     1 181 192     4 185 196     1 182 193     5 187 198     8 190 201     4 186 197     7 189 200    10 192 203     6 188 199    10 192 203     6 188 199     3 185 196     5 187 198     7 189 200     6 188 199     3 187 197     1 185 195     4 188 198     3 187 197     2 188 197     2 188 197     2 189 198     2 189 198  
   4 176 188     5 177 189     5 177 189     4 176 188     2 173 183     4 172 183     2 173 183     3 171 182     1 172 182     2 171 181     1 171 181     1 171 181     2 173 183     2 173 183     1 172 182     1 172 182     1 172 182     1 172 182     1 172 182     1 173 185     1 178 188     1 179 191     2 180 192     2 180 192     3 181 193     4 182 194     2 183 194     2 183 194     4 185 195     1 181 192     2 185 196     6 187 198     2 184 195     6 187 198    10 191 202     6 188 199     8 191 202     3 187 197     2 185 195     5 188 199     6 189 199     3 186 196     1 185 195     2 186 196     7 190 200     6 190 200     6 191 201     6 190 200     5 190 200     4 189 199  
   4 176 188     5 177 189     5 177 189     5 175 188     4 172 183     4 170 182     3 171 182     3 171 182     2 170 181     2 170 181     1 169 180     1 169 180     1 168 178     1 169 179     1 169 179     1 170 180     1 171 181     1 172 182     2 173 183     1 173 185     7 184 194     4 182 194     2 180 192     1 177 189     1 176 188     1 176 188     1 178 190     1 179 190     7 188 199     2 183 194     3 185 196     4 186 197     1 181 192     1 183 194     5 187 198     1 183 194     3 187 197     2 186 196     4 188 198     7 191 201     4 188 198     1 184 194     2 186 196     7 191 201     1 184 194     1 185 195     3 186 196     3 187 197     3 187 197     2 186 196  
