P3
50 50
255
  62 162 194    62 162 194    64 163 194    66 165 196    68 167 198    67 166 197    64 163 194    62 161 192    73 171 200    68 166 195    64 162 190    67 165 194    77 172 200    80 175 203    76 171 199    70 165 193    81 172 203    78 167 199    78 167 199    83 172 204    86 175 205    86 175 205    89 176 206    91 178 208    96 183 211    92 179 207    90 175 204    91 176 205    94 179 208    94 179 208    90 176 203    84 171 198    89 179 205    88 178 204    85 175 201    83 173 199    84 174 200    85 175 201    85 177 202    85 177 202    82 174 199    84 176 201    82 176 201    80 174 199    80 174 199    81 175 200    80 174 199    75 171 195    70 170 195    66 168 193  
  63 163 194    62 162 194    65 163 195    66 165 196    67 165 197    66 165 196    64 163 193    62 161 192    68 166 195    69 167 196    70 168 196    70 168 196    72 167 195    72 167 195    72 167 196    75 169 197    80 171 202    77 166 198    76 165 196    81 170 201    86 175 205    87 175 205    89 175 205    90 177 207    93 180 208    92 178 206    92 177 206    93 178 207    96 182 210    96 182 210    94 179 206    90 176 203    85 173 199    86 175 200    87 177 202    89 178 204    88 178 203    86 176 202    83 175 200    83 174 199    80 172 196    83 175 199    82 176 200    81 175 199    83 176 201    86 179 204    83 177 202    78 174 198    78 177 201    71 173 198  
  65 166 196    68 167 198    70 169 200    68 167 198    66 165 196    66 165 196    70 169 198    74 173 202    70 168 197    69 167 196    68 166 193    68 166 193    72 167 195    75 170 198    77 172 200    81 175 203    85 175 205    80 169 200    79 167 196    84 172 201    90 177 206    90 177 206    90 177 206    90 177 206    86 171 200    90 175 203    94 179 208    94 180 208    92 178 205    90 176 203    92 176 204    93 179 206    88 175 199    88 176 200    89 177 201    89 177 201    87 176 200    87 177 201    87 177 201    88 178 202    87 178 202    88 180 203    87 179 202    86 178 201    87 179 202    88 180 203    84 177 200    76 171 196    82 179 204    74 173 199  
  65 167 198    67 167 198    68 168 199    67 166 198    66 167 197    66 167 197    67 166 197    68 167 197    73 171 200    68 166 195    68 164 193    74 169 199    80 173 204    81 174 204    79 173 201    81 172 200    90 178 206    84 172 200    88 174 201    93 179 206    90 176 203    89 175 203    92 179 206    92 178 205    87 172 200    87 173 199    95 181 209    89 175 201    94 180 205    85 172 197    91 176 202    89 175 200    90 177 202    90 177 202    90 177 201    90 177 202    92 178 203    91 179 203    91 180 204    91 180 203    94 183 207    90 181 205    87 177 201    88 178 202    90 181 205    91 182 206    86 177 201    80 172 196    79 173 198    80 175 200  
  67 170 202    66 169 199    65 165 197    63 163 195    64 165 195    66 167 197    68 167 198    68 167 198    68 166 195    65 163 192    69 164 194    76 171 201    82 175 206    82 175 206    82 176 204    84 175 202    93 180 207    88 174 199    92 178 203    96 182 207    91 177 202    91 177 202    95 181 206    94 180 205    92 178 204    91 177 202    96 182 207    91 177 202    95 181 206    90 176 201    94 180 205    92 178 203    94 179 204    93 179 204    93 179 204    94 180 205    95 181 206    95 181 206    93 181 205    91 179 203    94 182 206    92 180 204    88 178 202    89 179 203    92 182 206    92 182 206    88 178 202    83 173 197    83 175 199    84 177 200  
  68 169 199    68 169 199    66 167 197    65 166 196    66 165 196    67 166 197    70 168 197    70 169 197    76 171 201    73 168 198    75 169 197    79 173 201    82 173 202    81 172 201    82 173 202    85 175 202    95 181 208    89 173 199    93 177 203    98 182 208    93 177 203    93 177 203    97 181 207    95 179 205    98 182 208    99 183 209    95 179 205    98 182 208    94 178 204    98 182 208    95 179 205    97 181 207    97 183 206    96 182 205    95 181 204    96 182 205    97 183 206    96 182 205    94 182 204    92 180 202    92 179 202    91 179 201    90 181 202    91 182 203    92 183 204    91 182 203    89 180 201    86 178 198    91 181 205    87 179 202  
  63 163 193    66 167 196    70 170 200    73 171 202    72 171 201    70 168 197    69 166 195    68 165 194    77 172 202    77 171 199    80 173 201    82 175 203    84 175 203    83 173 202    85 176 204    92 181 208    95 181 207    89 172 198    92 175 200    98 181 207    95 178 204    95 179 204    98 182 207    96 180 205   100 183 209   103 186 212    95 179 204   105 188 213    95 178 204   104 187 212    94 177 203    96 180 205   100 184 208    98 184 207    97 183 206    97 183 206    97 183 206    96 182 205    94 180 203    92 179 202    89 177 199    91 179 201    94 182 204    95 185 206    95 186 207    95 186 207    95 185 206    94 184 206    94 184 207    93 182 206  
  67 166 195    70 169 198    73 171 200    74 172 201    73 169 199    72 169 197    74 169 198    76 171 199    76 170 198    76 168 196    79 170 198    84 175 202    88 178 205    88 178 205    91 180 207    97 184 211   100 184 210    94 176 200    96 178 202   102 184 208   101 183 207   102 184 208   104 186 210   101 183 207   104 186 210   106 188 212   101 183 207   109 191 215   103 185 209   109 191 215   100 182 206    99 182 206   102 185 209   100 184 208    99 183 207    99 183 207    99 183 207    97 182 206    95 181 204    93 179 202    92 178 201    92 179 202    94 181 204    97 185 207    99 187 209   100 188 210   101 189 211   101 188 211    97 184 206    99 186 208  
  74 173 200    77 173 201    77 173 201    75 171 200    75 169 198    76 170 197    80 174 201    87 178 206    85 177 204    83 173 200    84 174 200    90 178 205    92 180 207    90 178 205    90 176 204    90 177 202   105 187 212    97 178 201    99 180 203   106 187 210   105 185 209   107 187 210   109 189 213   105 185 209   110 191 214   107 187 211   105 185 209   105 185 208   109 189 213   108 189 212   108 188 212   104 186 208   104 185 210   102 185 209   102 184 208   102 184 208   100 184 208    99 183 207    98 182 206    96 180 204    97 182 205    94 180 203    92 178 201    95 181 204    98 185 207   101 187 210   101 187 210    99 185 208   101 187 208   101 187 208  
  76 171 199    81 175 201    84 178 206    84 178 204    84 175 202    82 174 200    84 176 203    89 179 205    92 182 208    89 177 204    89 176 203    95 182 209   100 186 213    99 185 210    96 180 208    94 179 204   107 187 210    98 178 201   102 180 203   106 186 209   108 186 209   108 188 211   112 190 213   106 186 209   115 194 217   104 184 207   107 185 208    96 176 199   111 189 212   103 183 206   114 192 215   108 188 211   107 187 212   105 187 211   104 186 210   104 186 210   104 187 211   102 186 210   101 185 209    99 183 207   102 186 209    97 181 205    91 177 200    91 177 200    96 182 205    99 185 208    98 184 207    95 180 201   108 191 212   103 185 207  
  83 177 203    82 174 199    82 173 200    86 178 203    89 179 205    86 176 202    87 177 203    94 181 208    86 173 200    92 178 203    95 181 206    98 182 208   100 184 210   103 186 210   102 183 210    97 179 203   112 190 213   109 187 209   107 183 206   106 184 206   110 186 209   111 189 211   112 188 211   111 189 211   114 190 213   110 188 210   109 185 208   108 185 208   111 187 210   111 189 211   110 186 209   108 185 207   111 191 214   109 189 212   107 187 210   104 186 208   104 186 208   103 185 207   101 183 205    99 181 203    98 182 203    95 180 201    96 181 202    99 184 205    99 184 205    98 183 204   100 185 206   105 190 211    98 180 202   103 185 206  
  84 176 201    84 174 199    86 176 201    91 181 206    92 182 207    91 178 205    91 178 204    94 179 204    90 176 201    95 178 204    98 181 206   100 181 205   103 185 208   108 189 213   109 190 214   108 187 210   112 188 211   111 187 209   109 185 207   110 185 208   112 188 210   113 189 211   113 188 211   113 188 211   115 190 213   116 191 214   116 192 215   115 191 213   113 189 211   112 188 210   113 189 212   114 190 213   110 189 212   108 188 211   108 187 211   107 187 211   107 187 210   104 185 207   101 182 204    97 179 201   104 186 208   101 185 206   101 185 206   103 187 208   102 187 208   100 184 205   100 185 206   104 189 210   101 182 203   105 186 206  
  86 175 200    87 175 199    90 178 202    94 181 206    95 182 207    94 180 204    94 179 203    95 179 203   102 185 209   106 188 211   107 188 212   105 185 208   105 185 208   109 188 211   110 189 212   110 187 210   116 192 214   116 191 212   116 191 212   116 191 212   117 192 213   118 193 214   117 192 213   116 191 212   115 190 211   118 193 214   119 194 215   118 193 214   115 190 211   113 188 209   115 190 211   116 192 214   113 190 213   112 190 213   112 190 213   111 190 213   110 190 213   107 187 210   104 184 207   100 181 203   105 186 209   103 185 207   103 185 207   105 187 209   103 185 207   100 182 204    98 183 204   103 186 207   103 185 204   105 187 205  
  94 182 206    94 181 204    95 182 205    96 181 205    97 182 206    99 184 207   102 185 209   102 185 207   101 182 205   106 187 210   110 189 212   110 188 210   109 188 210   113 190 213   114 191 214   113 189 212   118 193 214   120 194 213   120 194 213   121 194 214   120 194 213   120 193 213   119 193 212   119 193 212   118 192 212   118 191 211   117 191 210   118 191 211   118 191 211   117 191 210   115 189 208   113 188 209   116 192 215   114 191 214   111 189 211   111 188 211   109 188 210   109 188 210   108 186 209   105 185 207   102 182 204   101 182 203   102 183 205   105 186 207   103 185 206   100 182 203    99 182 203   103 185 205   103 185 204   103 186 204  
  96 182 205    97 183 206    97 181 205    94 178 202    95 179 203   100 184 208   105 187 209   105 187 209   102 182 205   108 188 211   114 192 214   113 191 213   113 189 212   115 191 214   116 192 215   116 191 212   119 192 211   120 193 212   121 194 213   120 193 212   119 192 211   118 191 210   119 192 211   120 193 212   123 196 214   120 193 212   119 192 211   120 193 212   122 195 214   122 195 214   119 192 211   114 188 207   119 194 217   115 191 214   110 188 210   108 186 208   108 186 208   109 187 209   110 188 210   109 188 210   102 183 204   101 182 203   104 185 206   108 189 209   106 188 209   103 184 206   103 184 206   106 188 209   103 186 204   103 186 204  
  94 180 203    98 182 206    98 182 203    95 180 200    98 180 202   103 185 207   105 185 208   104 184 207   111 189 211   116 194 216   119 194 218   115 191 214   113 188 209   114 189 210   117 192 213   117 192 213   122 195 214   123 194 214   123 194 214   122 193 213   119 190 210   119 190 210   121 192 212   123 194 214   123 194 214   123 194 214   124 195 215   125 196 216   125 196 216   124 194 214   121 192 212   118 191 210   121 196 219   117 193 216   115 190 213   113 190 212   113 190 212   113 191 213   113 191 213   112 190 212   104 185 206   104 185 206   106 187 208   110 191 212   110 191 212   106 187 208   105 187 208   108 190 210   105 188 206   104 187 203  
 100 183 207   103 187 208   105 186 209   103 184 206   104 185 207   110 190 212   110 190 212   107 187 209   110 187 209   114 191 213   116 192 214   114 191 211   116 190 211   119 193 214   123 197 217   126 199 218   126 197 217   127 197 217   125 195 215   123 193 213   120 191 210   121 191 211   125 195 214   127 198 217   123 193 213   126 196 216   127 197 217   126 196 216   122 192 212   121 191 211   122 192 211   124 195 214   123 197 217   121 195 216   120 194 215   119 195 215   119 195 215   119 195 215   117 194 213   115 192 212   111 188 208   110 188 207   110 188 207   113 190 210   112 189 209   107 188 206   107 187 206   109 189 207   107 189 207   103 186 203  
 104 186 208   105 186 209   105 186 208   103 184 205   106 185 207   111 189 211   112 190 212   110 188 210   112 189 210   114 191 211   117 192 213   119 194 215   123 195 216   123 196 215   123 196 215   124 196 215   128 198 217   128 196 215   126 194 213   123 191 210   122 190 209   124 192 211   128 196 215   131 199 218   130 198 217   130 198 217   129 197 216   126 194 213   124 192 211   124 192 211   127 195 214   129 198 217   125 196 215   123 195 214   122 195 213   121 195 213   122 196 214   122 196 214   121 195 213   120 194 212   119 194 212   117 193 210   115 191 208   113 190 207   112 189 206   113 191 207   114 192 209   115 194 210   112 193 211   103 186 204  
 100 182 203   105 185 207   107 188 209   105 186 207   108 185 208   112 190 212   116 193 214   116 193 214   115 190 211   116 192 212   120 193 213   122 195 215   124 197 215   125 198 217   125 197 217   125 197 217   129 197 216   130 198 215   129 197 214   128 195 213   127 195 212   129 196 214   131 198 216   133 200 218   130 198 216   130 197 215   130 197 215   130 197 215   130 197 215   130 197 215   129 197 214   128 197 214   126 198 213   125 197 212   124 196 211   124 196 211   125 197 212   125 197 212   123 196 211   122 195 211   118 192 207   118 192 207   116 192 207   116 192 207   116 192 207   116 192 207   117 194 208   117 194 210   115 195 212   107 190 206  
 101 182 203   107 188 209   111 192 213   109 189 211   109 187 209   112 190 212   117 194 214   119 196 216   118 193 214   118 193 214   121 194 213   123 196 215   124 197 216   125 198 217   127 198 218   127 198 216   127 194 211   129 196 213   130 197 214   130 197 214   129 196 213   130 197 214   131 198 215   133 200 217   132 199 216   130 197 214   128 195 212   129 196 213   132 199 216   133 200 217   131 198 215   129 196 213   129 199 215   127 199 214   125 197 212   126 198 213   127 199 214   127 199 214   126 198 213   124 197 212   123 196 211   123 196 211   123 197 211   120 197 210   119 196 209   118 194 208   116 192 206   114 192 205   113 192 209   107 188 205  
 104 185 206   113 191 213   116 194 214   113 191 211   112 189 209   114 191 211   118 193 214   119 194 214   119 194 213   119 194 213   121 194 213   122 195 214   124 195 213   125 196 214   126 197 215   127 198 216   127 194 211   129 196 213   130 197 214   130 197 214   130 197 214   130 197 214   131 198 215   132 199 216   135 202 219   132 199 216   129 196 213   129 196 213   132 199 216   134 201 218   134 201 218   132 199 216   133 202 218   132 201 217   131 200 216   131 200 216   132 201 217   130 202 217   129 201 216   128 200 215   127 199 214   126 199 214   126 199 214   126 199 214   124 197 212   122 195 210   119 192 207   117 192 206   116 193 211   111 192 209  
 109 190 210   115 193 213   118 195 215   116 193 213   115 191 211   117 193 213   118 193 214   117 192 211   121 196 215   121 196 214   123 195 214   123 195 212   125 195 213   126 196 214   128 198 215   130 198 215   132 199 216   133 200 216   134 201 217   133 200 217   132 199 216   132 199 216   134 201 217   136 202 219   139 205 222   137 203 220   135 202 219   135 201 218   135 201 218   136 203 219   136 203 220   136 203 220   132 199 215   130 199 215   129 198 214   129 198 214   130 199 215   131 199 215   129 198 214   126 198 213   127 198 213   128 199 214   128 199 214   127 200 215   126 199 214   126 198 213   125 197 212   123 196 211   119 196 211   116 195 212  
 113 191 211   116 194 214   118 195 214   117 194 212   119 194 213   122 197 216   121 196 215   117 193 210   125 198 216   125 198 215   126 197 215   126 197 215   128 196 214   130 199 215   131 200 216   132 200 216   135 202 218   136 202 218   136 202 218   135 201 217   134 200 216   134 200 216   136 202 218   137 203 219   136 202 218   139 205 221   140 206 222   140 206 222   138 204 220   135 201 217   136 202 218   135 202 218   136 203 219   134 201 217   134 200 216   134 201 217   135 202 218   135 202 218   134 201 217   132 200 215   134 202 217   133 202 217   132 201 216   130 201 215   129 200 214   127 199 213   126 197 211   124 197 211   124 199 214   121 197 213  
 114 191 210   116 194 212   120 195 214   120 195 214   120 196 213   120 196 213   121 195 212   120 194 210   122 193 211   124 196 212   129 198 215   130 200 216   132 200 216   131 199 215   131 198 215   131 198 215   137 203 219   138 202 217   138 202 217   137 201 216   136 200 215   136 200 215   137 201 216   138 201 217   139 203 218   139 203 218   140 203 219   140 203 219   139 202 218   138 202 217   139 203 218   139 203 219   140 205 220   138 204 218   138 202 217   138 204 218   139 205 220   139 205 220   136 202 216   132 200 214   135 202 216   134 202 216   134 202 216   132 200 214   130 199 212   128 199 211   129 198 211   129 199 213   127 199 214   123 197 212  
 115 192 210   117 194 212   120 195 214   121 197 213   120 196 212   120 196 212   122 195 212   122 195 210   122 194 209   125 197 212   131 200 216   133 202 218   133 200 217   132 199 215   132 199 215   133 199 213   138 201 216   138 201 216   138 201 216   138 201 216   139 202 217   140 203 218   141 204 219   142 204 219   143 206 221   142 205 220   141 204 219   140 203 218   140 203 218   141 204 219   142 205 220   143 206 221   142 205 220   140 203 218   139 202 217   139 202 217   141 204 219   139 205 219   137 203 217   134 201 214   136 202 216   135 203 216   135 203 216   134 202 215   132 200 213   131 199 212   132 200 213   133 201 214   127 196 211   125 197 212  
 118 194 210   119 195 211   123 196 213   123 196 213   122 195 212   122 195 210   124 196 211   125 197 212   128 197 213   130 199 214   133 200 216   134 201 217   134 200 216   134 200 216   134 200 216   135 201 215   139 202 217   140 202 215   141 203 216   141 203 216   142 204 217   143 205 218   144 206 219   144 206 219   145 207 220   145 207 220   144 206 219   143 205 218   143 205 218   143 205 218   144 206 219   144 206 219   144 206 219   142 204 217   141 203 216   140 202 215   142 204 217   141 205 217   141 205 217   140 204 216   140 204 216   138 204 216   138 204 216   137 203 215   135 201 213   134 200 212   135 201 213   136 204 217   133 200 215   131 200 215  
 120 195 210   121 196 212   123 196 213   123 196 213   123 196 211   123 196 211   127 198 213   129 200 215   132 201 216   133 202 217   135 202 217   135 201 217   134 200 215   135 201 216   137 202 216   140 202 217   144 206 219   145 206 219   145 206 219   145 206 219   145 206 219   144 205 218   143 205 217   143 204 217   145 206 219   145 207 219   145 206 218   145 206 218   145 206 218   143 205 217   144 205 218   144 205 218   143 205 217   143 204 217   144 206 218   145 206 218   145 206 219   144 206 219   143 205 218   142 205 217   142 205 217   142 206 218   142 206 218   140 205 217   138 203 215   138 203 215   139 205 216   140 206 217   141 207 221   137 204 220  
 122 195 210   123 196 211   125 198 213   125 198 213   126 198 213   126 198 213   130 199 214   132 201 216   134 201 217   135 202 218   136 202 216   136 202 216   136 202 216   136 202 216   140 203 218   142 205 219   144 205 217   146 206 217   147 207 218   148 208 219   148 208 219   148 208 219   147 207 218   147 207 218   145 205 216   146 206 217   146 206 217   146 206 217   147 207 218   146 206 217   146 206 217   146 206 217   145 205 216   146 206 217   149 209 220   150 210 221   149 209 220   146 207 218   145 207 218   144 206 217   144 206 217   144 207 218   144 208 218   143 207 217   142 206 216   142 206 216   143 207 217   144 208 219   141 204 219   139 204 218  
 121 194 209   123 196 211   126 199 214   127 199 214   127 199 214   128 200 214   130 200 215   132 201 216   132 200 214   134 202 216   136 202 216   137 203 217   138 202 217   138 202 217   140 204 217   142 206 218   143 203 214   144 204 215   146 206 217   148 208 219   149 209 220   149 209 220   148 208 219   147 207 218   144 204 215   145 205 216   145 205 217   147 207 218   148 208 219   148 208 219   147 207 218   147 207 218   149 208 219   150 209 221   150 209 221   150 208 220   147 207 218   146 206 217   147 208 219   148 209 220   144 206 217   145 207 218   145 207 218   144 207 218   143 206 217   143 206 217   144 208 218   145 210 220   139 202 217   139 202 217  
 121 193 208   124 196 210   129 198 214   131 200 215   131 200 215   131 200 215   131 200 215   133 200 216   131 199 212   133 201 214   136 202 216   137 203 217   139 202 217   139 202 217   141 205 217   142 206 218   143 205 217   147 207 218   148 208 219   149 209 220   148 208 219   147 207 218   145 205 216   144 204 215   144 204 215   145 205 216   147 207 218   149 209 220   150 210 221   151 211 222   151 209 221   151 209 221   154 212 224   154 212 224   151 209 221   147 205 217   144 202 214   144 204 215   149 209 220   153 213 224   146 206 217   145 207 218   145 207 218   145 207 218   144 206 217   144 206 217   145 207 218   146 210 220   144 206 219   142 204 218  
 127 194 210   128 196 209   129 196 212   131 199 212   134 202 215   136 204 217   137 205 218   139 205 219   139 205 219   140 206 220   141 207 221   140 206 220   139 205 219   138 204 218   139 205 219   142 205 220   142 204 219   143 205 218   145 204 218   144 203 217   144 203 217   144 203 217   147 206 220   149 208 222   151 209 221   150 208 220   149 207 219   149 207 219   151 209 220   151 209 220   151 208 219   150 207 218   153 209 222   153 209 222   152 208 221   151 209 221   151 209 221   151 209 221   152 210 222   151 211 222   149 209 220   149 209 220   149 209 220   149 209 220   149 209 220   147 209 220   147 209 220   147 209 220   143 205 216   144 206 217  
 132 198 212   133 199 213   133 200 213   135 201 215   135 201 215   137 203 217   138 204 218   138 204 218   136 202 216   138 204 218   139 205 219   139 205 219   138 204 218   138 204 218   139 205 219   142 205 220   144 206 220   146 207 222   148 207 221   148 207 221   147 206 220   146 206 220   147 206 220   149 208 221   151 209 221   150 208 220   149 207 219   151 208 220   152 209 220   153 211 221   153 210 221   152 210 221   153 210 222   153 210 222   152 209 221   152 209 221   152 210 221   152 210 221   152 210 222   152 210 222   151 210 221   151 210 221   151 211 221   151 211 221   151 211 221   151 211 221   149 211 221   149 211 221   146 209 219   148 210 221  
 137 203 217   136 202 216   136 202 216   137 203 217   136 202 216   137 203 217   137 203 217   136 202 216   135 201 215   137 203 217   138 204 218   138 204 218   137 203 217   137 203 217   138 204 218   142 205 220   145 207 220   149 208 222   151 210 224   151 210 224   150 209 223   149 208 222   150 208 220   150 208 220   151 209 221   150 208 220   151 208 219   153 210 221   154 211 222   156 213 224   155 212 223   155 212 223   155 212 223   155 212 223   155 212 223   156 213 224   156 213 224   155 212 223   154 212 223   154 212 223   154 212 223   154 212 223   153 213 223   153 213 223   153 213 223   153 213 223   153 213 223   153 213 223   149 212 221   151 214 223  
 140 205 217   140 204 217   139 204 216   138 203 216   138 203 215   137 202 215   137 201 214   136 201 213   136 200 213   137 202 215   139 204 216   139 204 216   138 203 216   139 204 216   140 205 217   142 205 218   145 207 220   149 208 222   152 210 222   152 210 222   150 209 221   150 208 221   150 208 220   150 209 220   153 210 222   152 209 220   152 209 220   154 210 222   157 212 222   159 214 224   159 214 224   158 213 223   159 214 225   159 214 226   160 215 227   160 215 227   159 216 227   159 216 227   158 215 226   157 214 225   156 214 225   156 214 225   156 215 225   156 215 225   156 215 225   156 215 225   155 215 225   155 215 225   152 213 222   154 215 224  
 142 206 218   142 206 218   142 206 218   141 205 217   140 204 216   140 204 216   139 203 215   139 203 215   139 203 215   141 204 217   142 206 218   142 206 218   141 205 217   141 205 217   142 206 218   144 206 219   147 206 220   149 209 220   152 210 222   152 210 222   152 210 222   152 210 222   152 210 222   153 211 222   155 212 223   155 212 223   154 211 222   156 213 222   159 213 223   161 215 225   160 214 224   159 213 223   161 215 227   162 216 228   163 217 229   164 218 230   164 218 230   161 218 229   160 217 228   159 216 227   159 216 227   158 216 227   158 216 227   158 216 227   158 216 227   158 216 227   158 216 227   157 217 227   156 216 226   158 218 228  
 145 207 218   145 207 218   145 207 218   145 207 218   145 207 218   144 206 217   144 206 217   144 206 217   143 205 216   145 207 218   145 207 218   145 207 218   144 206 217   144 206 217   145 207 218   146 208 219   149 209 220   151 209 221   153 209 222   154 211 222   154 211 222   155 212 223   157 214 225   158 215 226   159 213 225   158 212 222   158 212 222   159 213 223   161 213 224   162 215 223   161 214 222   160 213 221   161 213 224   162 214 225   164 216 227   164 218 228   164 218 228   163 217 227   161 215 225   158 215 224   159 216 225   159 216 225   159 216 225   159 216 225   159 216 225   158 217 225   158 217 225   158 217 225   158 217 225   159 218 226  
 147 208 219   147 209 220   148 210 221   149 210 221   149 210 221   148 210 221   148 210 220   148 210 220   147 208 219   148 209 220   147 209 219   147 208 219   146 207 218   146 207 218   147 208 219   149 209 220   152 210 222   153 211 223   155 212 223   155 212 223   156 212 223   157 213 224   161 217 227   163 220 229   161 214 225   161 214 224   160 214 223   161 214 224   163 216 224   163 216 224   162 215 222   162 214 221   162 214 224   163 214 225   164 216 226   164 216 227   163 217 227   163 216 226   161 215 225   160 215 224   162 216 226   160 216 225   160 216 225   161 217 226   160 217 226   159 216 225   158 217 224   158 217 225   159 215 224   160 216 225  
 152 212 222   152 212 222   153 213 223   154 214 224   154 214 224   153 213 223   152 212 222   152 212 222   152 212 222   151 211 221   150 210 220   149 209 219   149 209 219   151 211 221   152 212 222   153 212 222   156 213 224   157 214 225   159 216 227   159 216 226   161 215 225   162 216 226   165 219 229   166 221 229   162 215 224   163 216 224   165 218 226   165 218 226   166 219 227   165 218 225   166 216 223   166 216 223   168 218 227   168 218 227   167 219 227   166 219 227   166 219 227   166 219 227   166 219 227   165 219 227   166 220 228   163 218 225   164 219 226   166 221 228   165 221 228   160 217 224   160 217 224   162 218 225   164 219 226   165 220 227  
 154 214 222   154 213 221   154 213 221   154 213 222   154 213 222   154 213 221   154 213 221   154 214 222   151 210 219   152 211 220   153 212 221   154 214 222   154 214 222   155 214 223   155 214 223   154 213 222   155 212 221   159 214 224   162 217 227   163 218 228   165 217 228   164 218 226   165 218 226   165 218 226   166 217 225   166 217 224   167 218 225   167 218 225   167 218 226   166 217 224   167 217 224   167 216 221   168 217 225   168 218 226   168 218 226   167 218 226   168 219 226   168 219 226   169 220 227   167 220 227   168 221 228   165 219 225   165 218 225   166 221 226   166 221 226   162 218 223   162 218 223   165 220 226   165 219 225   166 220 226  
 154 213 221   154 213 221   153 212 220   152 211 219   152 211 219   153 212 220   154 213 221   154 213 221   153 212 220   154 213 221   155 214 222   156 215 223   157 216 224   158 217 225   158 217 225   159 216 224   159 214 224   162 216 226   164 218 228   165 219 229   166 219 227   166 219 227   166 219 227   167 220 228   169 219 226   169 219 226   169 219 226   169 219 226   169 219 226   168 218 225   168 217 222   168 217 222   169 218 225   169 218 225   168 218 225   169 219 226   170 220 227   171 221 228   171 221 228   171 221 228   170 223 229   167 220 226   166 219 225   167 220 226   166 221 226   164 219 224   165 220 225   169 223 229   169 219 226   169 220 227  
 157 214 223   156 213 222   155 212 221   154 211 220   154 211 220   155 212 221   156 213 222   157 214 223   157 214 223   157 214 223   156 213 222   156 213 222   157 214 223   159 216 225   161 218 227   162 219 228   164 219 226   166 219 227   166 219 227   166 219 227   165 218 226   166 219 227   170 220 227   172 222 229   171 221 228   171 221 228   171 220 225   171 220 225   170 219 224   170 219 224   170 219 224   170 219 224   170 219 224   170 219 224   170 219 224   171 220 225   172 221 226   173 222 227   172 223 227   172 223 227   173 224 228   170 221 225   167 220 224   169 222 226   169 222 226   167 220 224   168 221 225   171 224 228   171 222 226   171 222 226  
 160 217 225   160 216 225   160 216 225   160 216 225   160 216 225   160 216 225   160 216 225   160 217 225   161 217 226   160 216 225   158 215 223   157 214 222   158 215 223   160 217 225   162 219 228   164 221 229   167 220 228   168 221 229   167 221 228   167 220 228   166 218 226   168 220 228   172 222 229   174 224 230   172 222 229   172 222 228   172 221 226   172 221 226   171 220 225   172 221 226   173 221 226   174 222 227   172 220 226   172 220 226   172 221 226   172 221 226   173 222 227   173 222 227   172 223 227   173 223 228   173 224 228   170 221 225   169 221 225   172 225 228   171 225 228   169 222 226   170 223 227   172 225 229   173 222 227   173 222 227  
 160 217 224   161 218 225   161 218 225   162 219 226   162 219 226   161 218 225   162 218 225   161 217 224   163 219 226   163 219 226   164 220 227   164 220 227   164 220 227   164 220 227   164 220 227   165 221 228   167 220 228   168 221 228   170 223 231   170 223 230   172 222 229   171 221 228   172 222 229   172 222 229   174 223 228   173 222 227   173 222 227   172 221 226   173 222 227   174 223 228   176 224 228   177 225 229   175 222 228   175 222 228   174 223 228   174 223 228   174 223 228   173 222 227   173 222 227   173 222 227   173 224 228   171 222 226   172 223 227   176 227 231   175 227 231   171 224 228   172 224 228   174 226 230   175 224 229   175 224 228  
 162 217 224   163 218 225   164 219 226   165 220 227   165 220 227   164 220 227   165 218 226   164 217 225   166 220 227   166 220 228   167 220 228   167 221 228   167 221 228   167 220 228   168 219 228   168 219 228   171 222 229   170 222 226   169 220 227   171 222 227   173 224 228   173 224 229   173 222 228   172 221 226   175 224 229   175 224 229   175 223 228   175 222 228   175 223 228   175 223 229   177 224 229   177 224 230   175 223 229   174 223 228   174 223 228   173 222 227   173 222 227   173 222 227   174 223 228   174 223 228   174 224 228   174 223 228   174 224 228   176 226 230   176 226 230   174 226 230   176 225 230   176 226 230   178 226 230   178 226 229  
 165 220 227   165 220 227   166 221 228   166 221 228   168 221 229   167 220 228   167 220 228   167 220 228   169 220 229   169 220 229   169 220 229   169 220 229   169 220 229   169 220 229   171 219 229   171 220 227   173 224 228   172 223 227   171 222 226   172 223 227   174 225 229   175 226 230   175 224 229   173 222 227   176 225 230   176 225 230   176 223 229   176 223 229   175 222 228   176 223 229   176 223 229   176 223 229   174 223 228   174 223 228   174 223 228   173 222 227   173 222 227   174 223 228   174 223 228   175 224 229   175 224 229   175 224 229   176 225 230   176 225 230   176 225 230   177 226 231   177 226 231   177 226 230   181 226 231   181 226 229  
 167 222 227   167 222 227   168 221 227   168 221 227   168 221 227   169 222 228   169 222 228   170 223 229   172 222 229   172 222 229   172 222 229   172 222 229   173 222 229   173 222 229   173 222 229   173 222 229   174 225 229   173 224 228   172 223 227   173 224 228   175 226 230   175 226 230   176 225 230   175 224 229   177 226 231   176 225 230   176 223 229   175 222 228   175 222 228   175 222 228   175 222 228   175 222 228   174 223 228   174 223 228   174 223 228   174 223 228   174 223 228   175 224 229   176 225 230   177 226 231   176 225 230   176 225 230   176 225 230   177 226 231   177 226 231   177 226 231   177 226 231   177 226 230   181 226 231   181 226 229  
 171 225 230   170 224 229   169 222 228   169 222 228   169 222 228   170 223 229   172 224 230   173 225 231   173 223 231   173 223 231   174 223 231   174 223 231   175 223 231   175 223 231   175 223 231   175 223 231   175 225 230   175 225 229   175 225 229   176 226 230   176 226 230   176 227 230   177 226 230   177 226 230   177 226 230   176 225 230   177 223 229   176 223 229   176 222 228   176 222 228   176 222 228   175 222 228   176 223 229   175 223 228   175 223 228   176 224 229   176 224 229   177 226 230   178 227 232   178 227 232   177 226 231   177 226 231   177 226 231   177 226 231   177 226 231   178 227 232   178 227 232   179 227 231   182 227 230   182 227 230  
 172 225 231   171 224 230   171 224 230   171 224 230   171 224 230   172 225 231   174 224 231   175 225 232   175 225 232   175 225 232   176 225 232   176 225 232   176 225 232   176 225 232   176 225 232   176 225 231   176 225 230   177 226 230   178 227 231   177 226 230   177 226 230   177 226 230   178 226 230   179 227 231   178 226 230   178 226 230   179 224 229   179 224 229   179 224 229   179 224 229   179 224 229   179 225 230   179 225 230   178 226 230   177 225 229   178 226 230   178 226 230   179 227 231   180 228 232   181 229 233   180 228 232   180 228 232   180 228 232   180 228 232   180 228 232   179 227 231   179 227 231   179 227 231   183 228 231   183 228 231  
 170 223 229   171 224 230   171 224 230   172 225 230   173 224 230   173 224 231   174 224 231   173 223 231   175 225 232   175 225 232   176 225 232   176 225 232   176 225 232   176 225 232   177 224 232   177 224 230   175 222 228   177 225 229   179 227 231   178 226 230   177 225 229   176 224 228   179 225 230   181 227 232   179 225 230   179 225 230   180 225 230   180 225 230   181 225 230   182 225 231   183 226 232   182 227 232   181 226 231   181 227 231   180 226 230   180 226 230   180 226 230   180 226 231   181 227 232   182 227 232   182 228 233   182 228 233   182 228 233   181 227 232   181 227 232   181 227 232   180 226 231   180 226 231   184 229 232   184 229 232  
 169 222 228   170 223 229   171 224 230   172 225 231   175 225 232   174 224 231   173 223 230   173 223 230   176 225 232   176 225 232   176 225 232   176 225 232   176 225 232   176 225 232   177 224 232   177 224 230   175 223 227   177 225 229   179 227 231   178 226 230   176 224 228   176 224 228   179 224 229   182 227 232   180 225 230   180 225 230   180 225 230   181 226 231   183 226 232   184 227 233   185 228 234   186 229 235   184 227 233   182 227 232   182 227 232   181 226 231   181 226 231   181 226 231   182 227 232   182 227 232   184 229 234   183 228 233   183 228 233   183 228 233   182 227 232   182 227 232   181 226 231   181 226 231   184 229 232   184 229 232  
