P3
50 50
255
  80 162 186    82 164 188    85 167 192    87 169 193    86 168 192    91 173 197    91 173 197    85 167 191    80 162 186    80 162 186    81 163 187    82 164 188    84 166 190    85 167 191    86 168 192    87 169 193    87 169 193    86 168 192    85 167 191    83 165 189    89 171 195    86 168 192    85 167 191    89 171 195    89 171 195    85 167 191    83 165 189    83 165 189    82 164 186    82 164 186    83 165 187    84 166 188    86 168 190    87 169 190    87 169 190    85 167 189    83 165 187    82 164 186    84 166 188    87 169 191    87 169 191    82 164 186    80 162 184    81 163 185    81 163 187    82 164 188    83 165 189    85 167 191    86 168 192    84 166 190  
  85 167 191    85 167 191    81 164 188    77 159 183    78 161 185    81 164 188    82 164 188    79 162 186    79 162 186    82 164 188    83 166 190    82 164 188    85 167 191    85 168 192    86 169 193    86 169 193    86 169 193    86 169 193    85 168 192    85 167 191    86 168 193    82 165 189    80 162 186    80 163 187    80 162 186    79 162 186    83 166 190    89 171 195    85 167 189    84 166 188    82 165 187    82 165 187    82 165 187    82 165 186    82 165 186    81 164 186    83 166 188    81 164 185    82 165 186    85 168 190    85 168 189    82 165 187    80 163 185    83 166 187    82 164 188    80 162 186    78 160 184    78 160 184    80 162 186    81 164 188  
  87 171 195    87 171 195    81 165 189    75 159 183    80 164 188    81 165 189    80 164 188    79 163 187    82 166 190    85 169 193    84 168 192    80 164 188    84 168 192    84 168 192    83 167 191    83 167 191    83 167 191    84 168 192    84 168 192    85 169 193    79 163 187    81 165 189    84 168 192    86 170 194    83 167 191    78 162 186    78 162 186    82 166 190    83 168 189    82 167 188    81 166 187    80 165 186    79 164 185    79 164 185    81 166 187    82 167 188    81 166 187    78 163 184    78 163 184    81 166 187    81 166 187    79 164 185    80 165 186    82 167 188    77 161 185    77 161 185    76 160 184    78 162 186    79 163 187    80 164 188  
  86 170 194    85 169 193    84 168 192    83 167 190    82 166 190    81 165 189    79 163 187    78 162 186    82 166 190    85 169 193    82 166 190    75 159 183    82 166 190    82 166 190    81 165 189    81 165 188    81 165 188    81 165 189    81 165 189    82 166 190    86 170 194    85 169 193    85 169 193    84 168 192    79 163 187    76 160 184    80 164 188    87 171 195    82 167 188    82 167 188    81 166 187    80 165 185    79 164 185    79 164 185    82 167 188    84 169 190    80 165 187    78 163 184    77 162 183    79 164 185    80 165 185    79 164 185    80 165 185    83 168 189    77 161 185    77 161 185    78 162 186    80 164 188    81 165 189    80 164 188  
  82 166 190    81 165 189    83 167 191    86 170 194    81 165 189    81 165 189    80 164 188    80 164 188    84 168 192    87 171 195    84 168 192    77 161 184    81 165 189    81 165 189    81 165 189    80 164 188    79 163 187    78 162 186    77 161 185    77 161 185    83 167 190    81 165 189    81 165 189    82 166 190    79 164 188    78 162 186    81 165 189    87 171 195    83 168 189    84 169 190    84 169 190    82 167 188    79 164 185    78 163 184    80 165 186    83 168 189    84 169 189    81 166 187    79 164 186    82 167 188    82 167 188    80 165 186    81 166 187    85 170 191    83 167 191    81 164 189    77 161 185    75 159 183    75 160 183    77 161 185  
  82 166 190    81 165 189    82 166 190    83 167 191    79 164 188    82 166 189    82 166 190    82 166 189    84 168 192    87 171 195    84 168 192    79 163 187    82 166 192    82 166 192    82 166 192    81 165 191    80 164 190    78 162 188    76 160 186    74 158 184    77 161 187    78 161 188    80 164 190    85 169 195    85 169 195    81 164 191    78 162 188    78 162 186    78 163 184    81 166 187    84 169 189    82 167 188    79 164 185    77 162 183    79 164 185    82 167 188    83 168 189    79 164 186    79 164 185    81 166 187    81 166 187    79 164 184    79 164 184    82 166 188    81 165 189    77 161 187    74 158 184    73 157 183    74 158 184    76 160 186  
  82 166 191    83 167 191    82 166 191    81 165 190    80 164 189    80 163 188    80 164 189    80 164 189    81 165 190    81 165 190    79 163 188    76 160 184    82 165 191    80 163 189    81 164 191    83 167 193    80 164 190    75 158 184    74 157 184    78 161 187    86 169 195    80 164 190    78 162 188    81 165 191    82 165 191    78 161 188    79 162 188    84 167 193    77 160 184    78 162 184    80 164 186    80 164 186    80 164 186    79 163 185    80 164 186    81 165 187    79 163 185    77 161 183    77 161 183    78 162 184    79 163 185    77 161 183    77 161 183    78 161 185    75 159 183    76 160 186    76 160 185    77 161 186    79 163 188    80 164 189  
  81 165 191    80 164 190    80 164 190    81 165 191    86 170 196    81 165 191    79 163 189    82 166 192    83 167 193    80 164 190    79 163 189    80 164 190    83 164 191    77 158 185    79 160 187    85 166 193    80 161 188    71 152 179    75 156 183    87 168 195    81 162 189    78 159 186    81 162 189    89 170 197    88 169 196    79 160 187    78 159 186    86 167 194    84 166 190    81 163 187    79 161 185    80 162 186    82 164 188    83 165 189    81 163 187    77 159 183    82 164 188    83 165 189    82 164 188    79 161 185    79 161 185    81 163 187    80 162 186    77 159 183    76 160 184    81 165 189    78 162 186    76 160 184    81 165 189    81 165 189  
  83 167 193    82 165 192    81 165 191    82 166 192    80 164 190    79 163 189    76 161 186    75 159 185    75 159 185    78 162 188    83 167 193    85 169 195    81 165 191    82 165 191    81 164 190    78 161 188    76 160 186    75 158 185    76 159 185    77 160 186    81 164 190    80 163 189    81 164 190    82 165 191    82 165 191    79 162 188    76 159 185    76 159 185    79 162 186    80 163 187    80 163 187    80 164 188    79 162 186    79 163 187    81 164 188    82 165 189    80 163 187    82 165 189    81 164 188    78 161 185    76 160 184    77 161 185    76 160 183    73 156 180    74 158 182    79 163 187    75 159 183    74 158 182    78 162 186    76 160 184  
  81 165 191    79 163 189    79 163 189    79 163 189    74 158 184    78 162 188    77 161 187    71 155 181    70 154 180    77 161 187    83 167 193    85 169 195    78 162 188    77 161 187    76 160 186    76 160 186    79 162 189    80 164 190    79 164 189    77 161 187    78 162 188    80 164 190    78 162 188    75 159 185    77 161 187    81 165 191    79 163 189    71 155 181    79 163 187    80 164 188    79 163 187    77 161 185    75 159 183    75 159 183    76 160 184    78 162 186    72 156 180    76 160 184    78 162 186    76 160 184    75 159 183    77 161 185    77 161 185    74 159 183    79 162 187    81 165 189    77 161 185    77 161 184    81 164 189    77 161 185  
  79 163 189    78 162 188    77 161 187    78 162 188    74 158 184    77 161 187    78 162 188    74 158 184    73 157 183    76 160 186    79 164 189    82 166 192    84 168 194    76 160 186    75 159 185    83 167 193    87 171 197    83 167 193    81 165 191    84 169 194    78 162 188    81 165 191    78 162 188    72 156 182    74 158 184    79 164 189    79 162 189    70 154 180    81 165 189    78 162 186    76 160 184    75 159 183    76 160 184    77 161 185    77 161 185    76 160 184    78 162 186    83 167 191    85 169 193    82 166 190    79 164 187    79 164 187    79 163 187    77 161 185    77 161 185    78 162 186    75 159 183    76 160 184    80 164 188    74 158 182  
  79 163 189    78 162 188    79 163 189    81 165 191    80 164 190    77 160 187    76 160 186    80 163 190    79 163 189    75 159 185    75 160 185    81 165 191    83 167 193    76 160 186    75 159 185    82 166 192    83 167 193    78 162 188    75 159 185    78 162 188    82 166 192    84 168 194    80 164 190    75 158 185    72 156 182    75 159 185    75 159 185    71 155 181    79 163 188    77 161 186    75 159 183    75 159 184    77 161 186    80 164 189    82 165 190    82 166 190    67 151 175    73 158 182    77 161 186    76 160 185    74 158 183    75 159 183    76 160 184    74 158 183    77 161 186    77 161 185    74 158 182    76 161 185    81 166 190    75 158 182  
  77 161 187    78 162 188    80 164 190    82 166 192    88 172 198    76 160 186    73 157 183    82 166 192    83 167 193    75 159 185    76 160 186    84 168 194    76 160 186    79 163 189    79 163 189    76 160 186    76 160 186    77 161 187    76 160 186    71 155 181    82 166 192    81 165 191    80 164 190    77 161 187    74 158 184    72 156 182    75 159 185    78 162 188    77 161 187    78 162 188    79 163 189    76 160 186    74 158 184    75 159 185    79 163 189    83 167 193    67 151 177    74 158 184    79 163 189    76 160 186    74 158 184    73 157 183    74 158 184    73 157 183    78 162 186    77 161 185    73 157 181    78 162 186    83 167 191    76 160 184  
  85 169 195    79 163 189    78 162 188    73 157 183    85 169 195    82 167 192    80 164 190    80 164 190    80 164 190    79 163 189    79 163 189    80 164 190    64 150 175    75 160 185    79 164 190    75 160 185    73 159 184    76 161 187    76 162 187    71 157 182    77 162 187    78 164 189    80 165 190    78 164 189    75 161 186    74 159 185    77 162 187    81 166 192    73 158 184    77 162 187    79 165 190    78 163 189    74 160 185    72 157 182    72 157 182    73 158 184    74 160 185    73 159 184    80 165 190    73 159 184    79 165 190    71 156 182    73 159 184    68 154 179    75 159 183    73 157 181    71 155 178    71 155 179    73 157 181    71 155 179  
  87 171 197    77 161 187    80 164 190    73 157 183    71 155 181    78 162 188    80 164 190    75 159 185    72 155 182    75 159 185    78 162 188    80 164 190    71 157 182    78 164 189    81 167 192    76 162 187    74 160 185    77 163 188    78 164 189    74 161 186    74 160 185    76 162 187    78 164 189    77 163 188    74 160 185    73 159 184    76 162 187    79 165 190    73 159 184    76 162 187    79 165 190    78 164 189    75 161 186    72 158 183    71 157 182    71 157 182    70 155 180    71 157 182    76 162 187    70 156 181    75 161 186    73 159 184    72 158 183    64 150 175    79 163 187    77 161 185    74 158 182    72 157 180    72 156 179    72 156 180  
  79 164 189    70 154 180    77 161 187    75 159 185    66 150 176    75 159 185    81 165 191    77 161 187    70 154 180    70 154 180    75 159 185    81 165 191    75 161 186    79 164 189    77 164 189    71 157 182    71 157 182    77 163 188    79 165 190    75 161 186    74 160 185    75 161 186    76 162 187    74 160 185    72 158 183    72 158 183    75 161 186    78 164 189    70 156 183    72 158 185    73 159 186    72 158 185    71 157 184    69 155 182    69 155 182    69 155 182    68 154 181    75 161 188    73 159 186    76 162 189    73 159 186    80 166 193    74 160 187    69 155 180    77 161 185    77 160 184    74 158 182    72 156 180    71 155 179    72 156 180  
  78 162 188    71 155 181    77 161 187    76 160 186    74 158 184    79 163 189    81 165 191    78 162 188    72 156 182    69 153 179    71 155 181    75 159 185    73 159 184    76 163 187    75 161 186    71 158 182    73 160 184    81 167 192    81 168 192    77 163 188    75 161 186    75 161 186    75 161 186    73 160 184    71 157 182    72 158 183    74 160 185    75 162 187    72 159 186    72 158 185    72 158 185    71 157 184    70 156 183    70 156 183    70 157 184    71 157 184    73 160 187    73 159 186    65 151 178    79 165 192    71 157 184    78 164 192    71 157 184    79 165 192    73 157 181    73 157 181    73 157 181    72 156 180    72 156 180    75 159 183  
  81 165 191    75 159 185    81 165 191    77 161 187    81 165 191    77 161 187    75 159 185    75 159 185    75 159 185    74 158 184    73 157 183    73 157 183    72 159 183    77 165 189    78 166 190    74 162 186    75 163 187    81 169 193    79 167 191    73 161 185    74 162 186    74 162 186    74 162 186    73 161 185    72 160 184    72 160 184    72 160 184    73 161 185    77 164 191    75 162 189    74 161 188    73 160 187    73 160 187    73 160 187    74 161 188    73 160 187    76 163 190    67 154 181    59 146 173    74 161 188    70 157 184    71 158 185    69 156 183    83 169 196    73 158 182    75 159 183    76 160 184    75 159 183    74 158 182    75 159 183  
  78 162 188    71 155 181    77 161 187    75 159 185    83 167 193    75 159 185    71 155 181    73 157 183    78 162 188    78 162 188    77 161 187    78 162 188    66 154 178    74 162 186    76 165 188    72 160 184    70 158 182    74 162 186    73 161 185    68 156 181    72 161 185    72 161 185    72 160 184    73 161 185    73 161 185    71 159 183    70 157 181    68 156 180    74 161 188    72 159 186    70 157 184    70 157 184    71 158 185    71 158 185    69 156 183    67 154 181    73 160 187    69 156 183    67 155 182    68 155 182    72 159 186    72 159 186    75 162 189    79 165 192    68 154 177    72 156 180    74 158 182    73 157 181    71 155 179    70 154 178  
  77 161 187    68 152 178    77 161 187    79 162 189    80 164 190    71 155 181    66 150 176    68 152 178    73 156 183    73 156 183    73 157 183    76 160 186    64 150 175    72 160 184    76 164 188    71 159 183    68 156 180    73 161 185    75 164 187    74 162 186    70 158 182    70 158 182    71 159 183    72 160 184    72 160 184    70 158 182    67 155 179    64 152 176    74 161 188    72 159 186    70 157 184    70 157 184    71 158 185    70 157 184    67 154 181    64 151 178    63 150 177    69 156 183    75 162 189    58 145 172    69 156 183    73 160 187    79 166 193    65 152 179    64 150 175    70 154 178    73 159 182    75 159 183    72 157 181    72 156 179  
  77 161 189    80 164 192    77 161 189    71 155 183    81 165 193    74 158 186    79 163 191    83 167 195    74 158 186    67 151 179    70 154 182    72 156 184    56 142 169    72 158 184    79 165 192    71 157 184    67 153 180    74 160 187    74 161 188    69 155 182    78 164 191    74 160 187    74 160 187    78 164 191    79 164 192    74 161 188    73 159 186    74 160 187    70 157 184    72 159 186    73 159 187    72 159 186    71 158 185    69 156 183    68 155 182    68 155 182    71 158 185    69 156 183    73 160 187    74 161 188    67 154 180    65 152 179    67 154 181    61 148 175    65 153 177    70 156 181    73 161 184    74 160 185    71 159 183    69 156 180  
  76 160 188    75 159 187    70 153 181    63 147 175    76 160 188    70 154 182    72 156 184    75 159 187    71 155 183    72 156 184    74 158 186    69 153 181    71 157 184    69 155 182    69 155 182    70 156 183    72 158 185    72 158 186    72 158 186    72 158 185    76 162 189    72 158 185    71 157 184    74 160 187    75 161 188    72 158 185    70 156 183    72 158 185    68 155 182    69 156 183    70 157 184    70 157 184    69 156 183    70 157 184    72 159 186    73 160 187    70 157 184    68 155 182    72 159 186    71 158 186    63 150 177    63 150 177    68 155 182    66 153 180    68 156 180    70 157 181    71 158 182    69 157 181    67 155 179    66 154 178  
  75 159 187    76 160 188    74 158 186    70 154 182    76 160 188    72 156 184    73 157 185    71 155 183    69 153 181    75 159 187    78 162 190    67 151 179    78 164 191    69 155 182    64 150 177    70 156 183    75 161 188    74 160 187    74 160 187    76 162 189    71 157 184    69 155 182    67 153 180    70 156 183    71 157 184    72 158 185    72 158 185    73 159 186    68 155 182    69 156 183    70 157 184    70 157 184    70 157 184    71 158 185    72 159 186    73 160 187    67 154 181    66 153 180    72 159 186    74 161 188    67 154 181    67 154 181    70 157 184    66 153 180    69 157 181    71 159 183    72 160 184    72 160 184    71 159 183    70 158 182  
  70 156 183    72 157 184    72 158 185    71 156 183    72 158 185    73 159 186    75 161 188    71 156 184    65 150 177    72 157 185    77 163 190    68 154 181    65 152 179    65 152 179    64 150 177    64 150 177    67 154 181    72 158 186    72 159 186    72 158 185    69 155 183    68 154 181    67 153 180    67 154 181    68 155 182    71 158 185    72 159 186    72 158 186    63 152 178    65 154 181    67 156 182    68 157 183    65 155 181    63 152 179    61 150 177    61 150 176    69 158 184    64 153 180    67 156 183    71 161 187    69 158 185    70 160 186    71 160 187    64 153 179    67 155 179    67 155 179    67 155 179    67 155 179    67 155 179    66 154 178  
  68 154 181    71 157 184    72 158 185    70 156 183    66 152 179    68 153 180    73 159 186    72 158 185    65 151 178    69 155 182    76 162 189    72 159 185    59 146 173    67 154 181    69 156 183    65 152 179    66 153 180    72 159 186    74 162 189    72 159 186    72 159 186    72 159 185    69 157 184    68 155 182    68 155 182    69 156 183    68 155 182    65 153 180    64 154 179    67 157 183    69 159 184    69 159 185    66 156 182    63 153 179    60 150 176    58 148 174    75 165 191    66 156 182    63 153 179    64 154 180    63 153 179    69 159 185    74 164 190    69 159 185    72 160 184    68 156 180    62 150 174    60 148 171    60 148 172    64 152 176  
  72 158 185    77 163 190    76 162 189    71 157 184    71 157 184    64 150 177    69 155 182    74 160 187    70 156 183    70 156 183    74 160 187    72 158 184    69 156 183    68 155 182    69 156 183    71 158 185    70 157 184    69 156 183    71 158 185    76 163 190    69 156 183    70 157 184    70 157 184    67 154 181    68 155 182    70 157 184    68 155 182    63 150 177    66 156 182    67 157 183    68 158 184    68 158 184    67 157 183    67 157 183    67 157 183    68 158 184    69 159 185    64 154 180    66 156 183    66 156 182    59 149 175    63 153 179    70 160 186    70 160 186    72 160 184    69 157 181    65 153 177    64 152 176    65 153 178    68 156 180  
  73 159 186    74 160 187    71 158 184    67 153 180    75 161 188    67 153 180    68 154 181    74 160 187    71 157 185    69 156 183    71 157 184    70 156 183    73 160 187    64 152 179    60 148 175    67 154 181    68 156 182    63 151 178    65 153 180    73 161 187    64 152 179    66 154 181    67 155 181    65 153 179    66 154 180    69 157 184    69 157 183    66 154 181    64 154 180    62 152 178    61 151 177    62 152 178    64 154 180    65 155 180    68 158 184    72 162 188    62 152 178    62 152 178    69 159 185    71 161 187    63 153 179    60 150 176    64 154 180    66 156 182    63 151 175    65 153 177    68 156 180    70 158 182    70 158 182    67 155 179  
  70 157 184    67 154 181    66 153 180    67 154 181    65 152 179    66 153 180    66 153 180    65 152 179    64 151 178    66 153 180    69 156 183    73 160 187    69 159 185    65 155 181    61 151 177    61 151 177    64 154 180    67 157 183    67 157 183    66 156 182    65 155 181    66 156 182    65 155 181    64 154 180    63 153 179    65 155 181    68 158 184    71 161 187    72 162 188    64 154 180    61 151 177    66 156 182    68 158 184    64 154 180    65 155 181    71 161 187    67 157 183    67 157 183    66 156 182    64 154 180    63 153 179    63 153 179    63 153 179    62 152 178    65 153 177    68 156 180    71 159 183    70 158 182    67 155 179    65 153 177  
  72 159 186    68 155 182    65 151 178    63 150 177    63 151 177    65 151 178    66 153 180    66 153 180    65 153 180    68 155 182    70 157 184    72 160 186    66 156 182    65 155 181    64 154 180    64 154 180    65 155 182    66 156 182    66 156 182    66 156 182    62 152 178    63 153 179    64 154 180    64 154 180    64 154 180    65 155 181    67 157 183    70 160 186    66 157 183    61 152 178    61 152 178    66 157 182    65 156 182    61 152 178    62 153 178    68 159 185    62 153 179    67 159 184    67 158 183    59 150 176    58 150 175    63 155 180    63 155 180    58 148 174    71 159 183    67 155 179    64 152 176    64 152 176    67 155 179    67 155 179  
  69 156 183    67 154 181    66 153 180    66 153 180    64 151 178    64 151 178    65 152 179    66 153 180    66 153 180    67 154 181    68 155 182    68 155 182    66 156 182    66 156 182    65 155 181    64 154 180    64 154 180    66 156 182    69 159 186    73 163 189    61 151 177    62 152 178    63 153 179    63 153 179    63 153 179    63 153 179    64 154 180    65 155 181    60 152 177    59 151 176    61 153 178    64 156 181    61 153 178    56 148 173    57 149 174    61 153 178    69 161 186    60 153 178    59 151 176    64 156 181    63 155 180    58 150 175    60 152 177    70 160 186    67 157 181    65 153 177    62 150 174    63 151 175    67 155 179    68 156 180  
  66 156 182    68 158 184    68 158 184    69 159 185    66 156 182    65 155 181    65 155 181    65 155 181    65 155 181    65 155 181    64 154 180    64 154 180    64 154 179    65 155 181    66 156 182    65 155 181    64 154 180    64 154 180    64 154 180    66 156 181    66 156 182    67 157 183    67 157 183    66 156 182    64 154 181    64 154 179    64 154 180    65 155 181    66 158 183    65 157 182    65 157 182    65 157 182    62 154 179    57 149 174    55 146 171    55 147 172    69 161 186    57 149 174    54 146 171    61 153 178    62 154 179    57 149 174    62 154 179    75 165 191    59 149 174    62 150 174    64 152 176    66 154 178    67 155 179    67 155 179  
  64 154 180    63 153 179    61 151 177    58 148 174    70 160 185    67 157 183    65 155 181    64 154 180    64 154 180    65 155 181    65 155 180    64 154 180    61 152 177    62 153 179    64 155 181    66 157 183    65 156 182    62 152 178    56 147 172    53 143 169    66 157 182    66 157 182    65 156 182    63 154 180    61 151 177    60 150 176    61 152 177    62 153 179    58 150 175    57 149 174    57 149 174    59 151 176    62 154 179    63 155 180    61 153 178    58 151 176    59 151 176    60 152 177    57 150 175    55 147 172    56 148 173    61 153 178    65 157 182    66 156 182    58 148 172    63 151 175    65 154 178    66 154 178    65 153 177    65 153 177  
  59 149 175    61 151 177    62 152 178    60 150 176    67 157 183    64 154 180    61 151 177    60 150 176    61 151 177    63 153 179    63 153 179    62 152 178    65 157 182    62 153 179    59 151 176    59 151 177    62 154 179    64 155 181    62 154 179    60 151 177    65 157 182    65 156 182    63 155 180    61 153 179    59 151 176    60 151 177    61 153 178    64 156 181    61 153 178    58 150 175    54 147 172    57 149 174    62 155 180    66 158 183    63 155 180    58 150 175    61 153 178    56 148 173    58 150 175    64 156 181    64 156 181    59 151 176    58 150 175    63 154 180    65 155 179    67 155 179    64 153 177    63 151 175    62 150 174    64 152 176  
  61 152 178    62 152 179    59 150 177    56 147 174    59 150 177    61 152 179    54 144 171    56 147 174    62 152 179    64 154 181    66 157 183    57 147 174    62 155 181    56 149 176    55 148 174    59 152 180    62 155 181    60 153 181    61 154 180    65 158 186    60 153 179    59 152 180    59 152 178    60 153 180    60 154 180    60 153 181    59 152 178    57 150 176    53 147 172    58 151 176    53 149 173    63 157 182    56 151 176    62 156 181    54 147 172    53 146 171    68 162 187    60 153 178    58 150 175    61 154 179    61 154 179    58 150 175    61 152 177    68 160 185    64 155 180    59 149 174    55 146 171    58 147 173    61 150 174    62 151 175  
  63 154 181    63 154 181    60 152 179    59 150 177    51 143 170    60 151 178    56 147 174    61 152 179    63 154 181    60 151 178    63 154 181    53 144 171    61 155 182    61 155 183    61 155 183    61 155 183    61 155 183    62 155 184    62 156 183    60 154 182    59 153 180    58 152 180    58 152 179    59 153 181    61 155 183    61 155 183    59 153 180    57 150 178    50 145 169    54 150 174    53 149 173    60 155 180    54 150 174    57 153 177    54 148 173    55 149 174    63 157 182    56 150 175    53 145 170    54 146 171    58 150 175    60 152 177    60 152 177    62 154 179    65 157 182    62 154 179    58 150 175    59 150 176    63 153 177    64 154 179  
  61 152 179    60 151 178    62 153 180    64 154 182    50 140 168    61 152 179    59 151 178    62 153 180    58 149 176    54 145 172    61 152 179    58 149 176    56 149 178    62 156 184    62 156 184    55 149 177    55 149 177    61 155 183    61 155 183    54 148 176    59 153 181    58 152 179    56 149 178    56 149 178    57 152 179    59 154 182    60 154 182    60 154 182    55 151 175    53 149 173    56 152 176    52 148 172    58 154 178    56 152 176    61 155 180    61 155 180    58 152 177    50 144 169    50 141 166    55 147 172    62 154 179    63 155 180    60 152 177    57 149 174    65 157 182    67 159 184    63 155 178    57 149 172    60 150 174    66 156 180  
  57 148 175    55 146 173    56 147 174    59 150 177    56 147 174    62 153 180    56 147 174    58 149 175    55 146 173    53 144 171    65 156 183    66 157 184    55 149 177    57 151 179    57 151 179    56 150 178    57 151 179    58 152 180    58 152 180    58 152 180    56 150 178    55 149 177    53 147 175    53 147 175    53 147 175    55 149 177    58 152 180    60 154 182    57 153 177    52 148 172    58 154 178    50 145 170    61 157 181    53 149 173    62 156 181    58 152 177    60 154 179    56 150 175    56 148 173    61 152 177    64 156 181    63 155 180    62 154 179    63 155 180    59 151 175    65 156 181    63 155 178    55 146 170    56 146 171    65 155 179  
  57 148 175    53 144 171    53 144 171    55 146 173    57 148 175    59 150 177    52 143 170    59 150 177    61 152 179    57 148 175    65 156 183    62 153 180    60 154 182    55 149 177    55 149 177    60 154 182    61 155 183    55 149 177    55 149 177    61 155 183    55 149 177    55 149 177    54 148 176    54 148 176    53 147 175    55 149 177    57 151 179    59 153 181    55 151 175    51 147 171    55 151 175    50 146 170    59 155 179    53 149 173    57 151 176    52 146 171    59 153 178    57 151 176    59 151 176    60 152 177    58 150 175    57 149 174    61 153 178    67 159 184    59 149 173    66 156 180    65 155 179    60 150 174    61 151 175    68 158 182  
  54 147 173    52 145 172    54 147 173    55 149 175    55 148 174    56 149 175    50 143 169    58 152 178    61 154 181    54 147 173    58 151 177    54 147 173    56 151 179    52 147 175    52 147 175    55 150 178    55 150 178    52 147 175    52 147 175    55 149 177    52 146 175    53 148 176    55 150 178    55 150 178    54 149 177    53 148 176    54 149 177    55 150 178    54 150 174    52 148 172    50 146 170    53 149 173    55 151 175    57 153 177    55 149 174    52 146 171    55 149 174    54 148 173    56 148 173    57 149 174    56 148 173    55 147 172    59 151 176    65 156 181    61 151 175    65 155 178    66 156 180    65 155 179    67 155 178    69 157 180  
  49 143 169    52 146 172    56 150 176    59 153 179    57 152 177    57 151 177    48 142 168    54 148 174    53 147 173    45 140 165    53 147 173    53 147 173    49 144 172    54 149 178    55 150 179    51 146 174    53 148 176    59 154 182    60 155 183    55 150 178    48 143 171    51 146 174    55 150 178    55 150 178    53 148 176    50 145 173    50 145 173    50 145 173    57 153 177    57 153 177    48 144 168    59 154 179    54 150 174    65 161 185    59 152 177    60 154 179    56 150 175    52 146 171    54 146 171    59 151 176    61 153 178    61 153 178    62 154 179    64 156 181    61 151 175    60 150 174    62 152 176    65 155 179    67 155 177    64 152 174  
  59 153 179    55 149 175    54 147 174    60 154 180    52 146 172    54 148 174    59 153 179    62 155 182    55 149 175    48 142 168    48 142 168    53 147 173    49 144 172    54 149 177    56 151 179    54 149 178    56 151 179    59 154 182    57 152 179    53 148 176    54 149 177    57 152 180    54 149 177    46 141 169    45 140 168    52 147 175    54 149 177    50 145 173    55 151 175    53 149 173    52 148 172    54 150 174    52 148 172    51 147 171    58 152 177    66 160 185    59 154 179    58 152 177    57 149 174    57 149 174    57 149 174    58 150 175    58 149 174    58 150 175    65 155 179    65 153 175    63 151 173    64 152 174    68 156 178    70 158 180  
  57 152 177    53 148 173    49 144 170    54 149 175    48 142 168    47 142 167    50 145 170    57 151 177    60 154 180    56 151 176    52 147 173    52 147 173    47 143 171    51 147 175    53 149 176    51 147 175    52 148 175    53 149 177    52 148 176    49 145 173    57 152 180    52 148 176    49 145 173    51 146 174    51 146 174    49 145 173    51 147 175    56 151 179    57 153 177    53 149 173    52 148 172    55 151 175    57 153 177    55 151 175    54 148 173    55 149 174    55 149 174    57 150 175    60 152 177    57 149 174    55 147 172    54 146 171    57 149 174    61 151 177    66 157 178    68 156 178    68 156 178    68 156 178    68 156 178    69 157 178  
  58 154 179    55 151 176    48 144 169    50 146 171    55 151 176    51 147 172    49 145 170    53 149 174    57 153 178    54 150 175    47 143 168    43 139 164    47 145 172    49 147 174    50 148 175    50 148 175    49 147 174    50 148 175    49 147 174    47 145 172    54 152 179    48 146 173    47 145 172    52 150 177    52 150 177    49 147 174    50 148 175    57 155 182    57 153 177    54 150 174    53 149 173    56 152 176    58 154 178    56 152 176    54 148 173    51 145 170    54 148 173    57 151 176    63 155 180    62 154 179    60 152 177    60 152 177    65 157 182    70 160 186    67 158 179    71 159 181    74 162 184    74 162 184    71 159 179    70 158 178  
  57 153 178    54 150 175    47 143 168    49 145 170    53 149 174    51 147 172    49 145 170    50 146 171    50 146 171    51 147 172    49 145 170    47 143 168    48 146 173    48 146 173    48 146 173    49 147 174    48 146 173    47 146 172    47 145 172    47 145 172    48 146 173    49 147 174    50 148 175    49 147 174    50 148 175    53 151 178    54 152 179    53 151 178    54 150 174    55 151 175    56 152 176    55 151 175    54 150 174    55 151 175    56 150 175    56 150 175    57 151 176    57 151 176    60 152 177    60 152 177    60 152 177    60 152 177    60 152 177    61 151 178    64 155 176    69 157 179    73 161 181    74 161 182    72 159 179    70 158 178  
  59 156 181    57 153 178    50 147 172    53 149 174    47 143 168    50 146 171    51 147 172    49 145 170    47 143 168    50 146 171    54 149 174    54 150 175    47 145 172    45 143 170    45 143 170    47 145 172    47 145 172    45 143 170    45 143 170    47 145 172    42 140 167    50 148 175    52 150 177    47 145 172    48 146 173    56 154 181    56 154 181    49 147 174    53 149 173    57 153 177    58 154 178    54 150 174    52 148 172    55 151 175    59 154 179    62 156 181    53 147 172    52 146 171    55 147 172    58 150 175    62 154 179    63 155 180    62 154 179    62 152 177    64 152 174    66 154 176    70 157 177    71 158 178    71 158 178    70 157 177  
  59 155 180    55 151 176    50 146 171    55 151 176    47 144 169    52 149 174    54 150 175    51 147 172    49 145 170    51 147 172    51 147 172    49 145 170    47 145 172    44 142 169    43 141 168    47 145 172    47 145 172    45 143 170    46 144 171    49 147 174    44 142 169    45 144 170    49 147 174    49 147 174    50 148 175    52 149 177    50 149 175    49 147 174    56 152 176    59 155 179    58 154 178    55 151 175    55 151 175    59 155 179    62 156 181    60 154 179    54 148 173    56 150 175    62 154 179    65 156 181    67 159 184    69 161 186    70 162 187    74 164 187    72 160 181    71 158 178    70 157 177    71 158 178    73 160 180    73 160 180  
  53 149 175    47 144 169    42 139 164    46 142 168    46 142 168    50 147 172    52 148 173    50 147 172    53 149 174    56 153 178    52 150 175    44 142 167    49 147 174    46 144 172    43 141 169    48 146 174    50 148 175    46 144 171    48 145 173    50 147 174    48 146 172    45 142 169    46 144 170    52 149 176    53 151 177    52 146 174    50 148 174    56 151 176    62 155 180    62 155 180    58 152 177    56 151 176    60 155 180    63 158 182    61 155 180    59 154 178    59 154 178    64 158 182    67 161 185    67 159 184    64 157 179    64 157 181    66 158 180    68 158 181    77 165 184    77 164 183    75 162 181    76 163 183    77 164 182    77 164 183  
  50 148 176    46 144 172    43 141 168    44 142 169    48 146 173    52 150 177    50 148 173    47 145 170    50 149 174    57 156 180    51 151 175    41 140 164    51 149 176    50 148 177    41 139 168    50 148 177    53 151 178    45 143 170    51 146 174    46 141 169    53 149 174    52 148 173    51 147 172    52 148 173    55 150 175    58 152 178    60 155 180    63 156 181    62 153 179    65 153 180    59 150 176    61 154 179    66 160 185    61 155 180    56 152 174    62 158 180    56 154 175    63 159 181    64 160 181    61 156 177    61 156 176    68 161 183    69 161 182    65 156 176    71 160 178    76 163 181    80 167 184    80 167 185    78 165 182    77 164 181  
  51 149 178    49 147 176    50 148 175    53 150 178    44 142 169    48 146 173    50 148 173    50 148 173    50 149 174    51 149 174    48 147 171    45 144 168    49 147 174    51 149 177    44 142 170    51 149 177    52 150 177    45 143 170    53 149 175    50 145 171    52 148 173    52 148 173    54 149 174    56 150 175    58 152 177    59 153 178    60 154 179    62 154 179    60 150 176    65 152 179    61 151 177    63 155 180    67 162 185    62 157 180    55 151 173    59 155 177    59 156 176    65 161 181    65 163 182    63 158 178    64 159 179    70 163 184    71 164 183    67 158 177    72 160 179    76 163 180    80 167 184    80 167 184    79 166 183    79 166 183  
  53 151 180    51 149 178    49 147 174    50 148 175    49 147 174    47 145 172    47 145 170    50 148 173    48 146 171    44 142 167    42 140 165    44 142 167    48 146 173    53 151 178    48 146 173    52 150 177    51 149 176    46 144 171    56 152 177    54 149 174    54 151 176    56 152 177    57 151 176    56 150 175    55 149 174    54 148 173    55 149 174    57 149 174    68 158 184    71 158 185    64 154 180    62 152 178    65 160 182    64 159 181    61 157 179    66 162 184    60 157 176    66 161 181    65 160 180    61 153 174    62 154 175    70 161 182    73 164 183    71 159 179    74 162 179    77 164 181    80 167 184    81 168 185    80 167 184    80 167 184  
