P3
50 50
255
 124 222 228   117 220 224   109 215 220   100 210 217    93 207 214    80 202 210    76 200 208    76 201 210    76 203 212    73 200 207    73 200 207    80 203 211    80 203 211    81 204 212    77 201 211    74 198 208    72 200 212    68 200 214    53 192 207    34 183 197    23 182 194    15 178 190     7 173 185     5 169 181     8 168 182     5 161 176     3 156 172     5 157 173     1 152 169     2 149 165     3 147 164     3 143 161     6 142 160     2 136 155     1 130 150     1 128 147     1 130 148     2 129 146     1 126 142     1 125 144     2 127 149     5 130 152     3 129 151     2 130 151     1 131 151     1 131 150     2 136 155     2 136 155     1 134 153     4 135 155  
 129 221 224   123 219 223   116 216 219   108 212 217    98 208 215    89 204 212    82 202 210    82 204 212    81 205 212    76 200 208    77 200 208    82 205 213    83 204 213    84 205 214    81 202 211    79 200 209    78 200 212    72 199 213    57 192 207    39 186 200    22 180 192    19 184 195    11 179 190     4 170 182     7 169 182     5 162 177     1 157 172     3 160 175     1 156 171     1 151 168     1 150 166     2 146 163     5 144 161     5 141 160     4 137 156     4 135 153     7 136 154     6 135 151     3 130 147     2 129 146     1 128 148     5 132 154     3 131 152     1 131 152     1 131 150     1 132 151     2 137 155     1 136 155     1 135 154     4 137 156  
 135 218 222   131 217 220   125 216 220   118 214 220   110 212 217   101 209 217    93 205 215    88 204 213    86 204 212    81 200 208    81 200 208    88 206 215    90 207 216    87 205 213    86 205 213    87 204 214    82 201 214    73 196 212    59 192 207    44 189 204    22 179 192    23 189 199    15 187 197     7 176 188     8 171 186     8 167 184     4 162 179     1 160 176     1 157 174     1 154 172     1 151 168     2 148 165     1 142 160     5 142 161     7 140 159     7 138 156    10 139 157     8 138 154     4 134 150     4 131 150     3 129 151     7 133 155     4 132 153     2 132 153     1 133 152     1 134 153     3 137 156     1 134 153     1 136 155     4 137 156  
 143 221 225   141 220 224   136 219 224   130 220 225   122 218 224   114 216 224   105 211 220    95 205 215    93 205 216    86 200 210    86 200 210    93 206 216    94 207 218    90 206 214    90 207 214    92 206 216    86 201 213    75 195 210    61 191 206    48 190 204    26 183 195    24 192 201    20 193 203    14 185 197    13 179 193    13 174 190     9 169 186     1 164 181     1 162 178     1 156 173     1 153 169     1 149 166     1 142 160     4 142 160     4 139 158     5 138 155     7 138 155     6 136 152     2 132 148     2 132 148     6 133 152     7 134 156     3 133 153     2 135 154     2 135 154     1 136 155     4 138 157     1 135 153     2 138 156     2 137 156  
 151 222 226   149 221 225   145 222 227   140 222 229   133 221 229   123 218 228   114 213 224   104 208 219   101 208 220    95 203 215    93 201 213    98 206 218    97 207 218    96 210 218    95 210 217    93 205 216    89 202 215    81 197 213    64 191 207    48 188 205    29 186 199    20 188 198    19 192 203    20 192 204    19 185 199    17 179 194    12 175 190     6 172 188     3 166 183     1 158 176     1 153 171     2 152 170     2 147 164     3 144 161     3 138 157     3 136 153     5 136 153     5 135 151     2 132 148     3 132 151     8 134 156     7 134 156     2 131 152     3 133 154     4 137 156     1 136 155     3 138 157     1 138 156     2 137 156     1 136 155  
 152 222 224   152 221 224   148 221 226   143 221 227   136 219 227   126 216 224   118 213 221   113 211 221   109 210 221   100 204 215    98 202 213   100 206 216    99 206 216   103 212 219   101 210 217    94 203 213    91 202 215    84 201 216    67 194 210    47 186 202    32 185 198    16 180 191    17 186 197    25 194 204    24 189 200    16 177 190    12 176 189    10 179 193     4 172 187     1 160 177     1 155 171     2 154 173     4 151 171     4 146 164     1 140 159     1 138 156     2 138 154     4 137 153     3 135 150     5 136 154     7 136 157     4 134 154     1 131 151     1 134 153     2 139 157     1 137 155     1 141 158     2 142 159     1 137 155     1 135 154  
 153 224 228   155 225 227   153 225 230   150 224 230   145 222 228   139 219 226   133 218 226   126 215 224   118 210 220   110 206 215   106 207 217   109 212 221   110 214 223   110 212 222   110 211 223   103 208 221    95 205 219    84 204 218    68 198 211    50 190 204    33 182 195    24 179 191    22 181 193    24 183 194    29 186 197    28 183 195    13 177 188     3 177 187     2 175 186     1 168 181     2 165 182     3 161 180     1 153 174     2 150 170     1 144 165     1 141 161     6 142 160     8 144 160     5 141 155     2 138 154     4 137 156     4 137 157     1 137 156     2 140 159     2 143 161     1 140 157     2 143 161     4 146 163     1 139 156     2 139 158  
 155 226 228   156 226 229   156 227 231   153 225 230   149 222 228   145 221 227   140 220 226   134 219 226   126 215 223   116 209 217   111 210 216   110 212 220   109 212 220   111 210 220   113 209 221   105 208 220    97 207 219    86 206 219    70 199 212    51 190 204    47 194 207    39 190 204    38 191 203    36 190 201    38 192 202    36 190 200    21 186 195     9 184 192     6 181 190     1 174 185     1 169 182     3 165 183     1 158 179     1 153 175     1 148 168     1 143 162     3 143 161     4 144 160     1 141 156     1 138 154     2 137 156     3 139 159     2 140 159     4 145 163     2 147 164     1 143 159     1 146 162     3 146 163     1 141 157     1 140 159  
 158 229 233   158 228 230   157 228 231   155 226 232   151 224 230   149 224 230   144 222 230   139 222 230   131 219 227   122 214 222   117 214 221   115 214 223   111 213 221   113 210 219   116 210 220   109 211 223   100 209 222    90 207 221    73 200 214    55 193 205    48 192 205    39 190 202    37 190 203    32 187 199    32 188 200    34 191 203    27 190 200    18 191 199    15 187 197     8 179 191     4 172 185     5 167 184     5 163 182     5 158 179     1 150 173     1 146 166     1 145 164     2 144 161     1 141 156     1 140 155     2 137 156     5 141 161     5 143 162     7 149 166     5 150 167     1 147 163     2 149 165     2 147 164     1 143 160     3 144 162  
 158 229 231   158 229 230   157 228 230   155 226 230   155 226 232   152 225 232   146 224 230   138 221 228   132 220 226   127 217 225   123 218 224   120 219 225   116 217 222   116 212 219   119 213 221   115 214 225   106 212 223    93 209 220    75 201 214    57 193 205    42 187 198    34 183 196    31 185 198    25 182 194    22 182 194    29 189 201    29 192 203    26 194 203    22 190 199    15 183 193     7 172 185     3 168 183     6 167 184     6 164 183     1 157 176     1 151 169     1 149 166     1 146 163     1 142 159     1 141 158     1 140 159     5 143 162     3 143 162     4 148 165     5 152 168     4 151 167     6 153 169     3 149 165     1 146 163     5 147 165  
 157 228 232   158 228 230   157 227 229   156 226 230   155 226 232   153 226 233   149 225 231   141 221 229   137 221 228   130 219 227   127 220 227   124 219 227   119 216 223   120 214 221   123 216 223   119 217 224   110 215 224    96 210 220    78 202 213    61 195 205    48 191 203    39 188 200    34 189 201    25 184 197    20 182 195    26 190 202    29 193 205    28 192 202    25 189 199    19 183 195     9 175 187     4 170 184     5 171 185     5 169 185     1 163 180     1 158 175     1 154 172     1 150 167     1 146 162     1 145 162     3 144 162     4 145 163     1 144 161     1 147 163     2 152 167     4 154 169     8 158 173     4 152 168     3 149 165     7 151 168  
 157 227 229   157 227 229   158 228 230   156 227 230   156 227 231   154 227 233   151 225 232   147 225 231   142 223 230   135 221 228   129 221 226   125 219 226   120 215 221   121 214 219   126 217 222   123 219 224   112 216 222   101 212 219    85 206 213    69 199 209    58 197 208    43 190 204    35 190 202    23 183 196    12 177 191    15 183 196    22 186 200    27 186 198    26 185 196    23 185 196    16 180 191     9 175 187     6 174 186     5 172 186     2 168 184     2 165 180     3 162 178     1 157 173     1 151 167     1 150 167     1 146 165     4 148 165     1 146 162     1 148 164     1 153 167     5 156 170     9 161 175     5 156 171     5 153 169     8 153 170  
 156 226 228   157 227 230   160 230 232   160 229 233   159 228 233   157 228 234   153 226 233   149 225 232   145 224 231   138 221 229   134 221 228   132 221 227   127 218 223   123 212 217   124 214 218   123 217 222   116 215 221   106 213 221    93 209 219    80 205 217    62 199 211    44 190 202    33 187 200    20 182 194     7 175 187     6 176 191    15 180 192    26 183 195    26 183 195    28 187 199    24 188 199    15 182 193    10 179 191     4 174 187     2 172 185     3 170 186     5 167 185     2 161 180     1 155 175     1 154 172     1 148 165     3 151 169     1 151 168     1 152 169     2 155 171     3 156 172     8 161 177     7 159 175     5 155 173     6 156 173  
 156 226 228   158 228 231   161 231 233   162 231 235   161 230 235   159 228 233   154 226 232   149 223 229   145 223 228   141 221 228   138 223 228   137 225 229   134 223 227   124 212 214   124 212 214   124 215 218   118 215 219   110 214 220   100 213 220    89 210 221    68 201 213    48 190 204    37 189 203    24 185 198     9 178 191     7 180 194    15 182 196    26 182 193    27 182 193    30 191 201    30 194 204    21 188 198    14 183 194     5 177 187     3 173 186     3 173 186     5 171 188     3 165 182     1 158 177     1 157 176     1 148 166     2 154 171     3 156 172     4 159 174     2 158 173     1 156 171     5 161 176     7 161 177     5 158 174     5 156 173  
 158 226 229   160 228 230   161 229 232   158 226 230   157 224 230   158 225 231   156 225 232   149 221 228   149 223 230   148 225 231   144 226 230   139 223 229   135 220 224   132 217 220   129 217 219   129 218 222   126 220 226   119 219 225   108 215 224   100 216 226    74 201 213    58 197 210    41 192 205    25 187 199    14 183 198     9 182 198    15 183 197    31 188 200    27 182 194    20 181 191    25 188 199    30 197 206    27 195 205    13 184 194     8 178 191     7 177 189     5 172 186     1 167 183     1 162 180     1 159 177     1 155 173     9 163 178     8 164 179     1 156 171     7 164 179     4 161 176     4 158 173     1 153 168     7 163 178    11 164 180  
 158 226 227   160 227 229   161 229 232   158 226 230   158 226 229   159 226 232   159 227 232   156 226 232   153 225 231   150 225 231   144 224 229   140 221 225   138 220 224   135 219 221   132 217 220   131 219 221   129 220 224   122 218 223   111 214 222   103 215 225    79 201 212    59 193 205    38 185 197    22 181 194    12 181 194     6 179 193     9 178 192    25 185 197    29 187 198    27 187 199    30 192 203    29 193 203    21 186 196    20 188 198    19 187 198    13 181 193     7 175 188     3 170 185     1 166 182     1 164 180     3 163 179     6 164 178     4 163 177     1 155 169     3 164 177     2 163 176     6 166 180     5 164 178     9 166 181     9 165 180  
 158 226 227   160 227 228   162 227 229   161 226 230   161 226 230   161 226 230   161 228 234   163 231 236   158 228 233   151 224 230   147 222 227   143 220 225   142 220 224   139 220 225   136 219 223   134 219 222   131 219 224   125 216 223   116 212 221   108 214 224    92 207 218    67 194 208    41 183 196    24 180 193    15 182 195     7 179 194     7 177 191    18 182 195    25 187 200    29 189 201    31 191 203    32 192 204    25 185 197    31 193 204    30 194 206    22 186 199    15 181 195    11 179 193     7 176 191     5 172 188     4 167 182     3 165 180     4 166 181     1 161 176     2 164 179     1 162 177     9 171 186    11 172 187     7 167 183     7 164 181  
 158 226 227   160 227 228   163 228 230   163 228 231   162 227 231   162 227 231   163 228 233   166 232 238   161 230 235   155 226 230   151 225 228   148 223 228   146 222 227   144 224 228   139 222 226   137 220 224   135 218 225   128 215 223   120 212 222   114 214 224   102 214 225    79 202 216    54 191 205    33 186 199    20 185 197    13 185 199    10 182 195    13 181 194    18 182 197    20 182 195    27 187 200    38 195 207    42 198 211    35 191 203    27 185 197    20 181 193    16 180 193    13 180 193     8 178 191     3 173 188     3 170 183     2 167 181     6 172 186     3 170 183     4 167 182     1 161 176     7 170 185     8 170 185     5 167 182     5 167 182  
 159 227 228   160 227 228   163 228 230   164 229 230   165 229 231   164 227 232   163 226 231   165 229 233   162 229 232   159 229 231   156 228 230   151 225 228   148 224 228   146 226 230   141 224 230   140 220 227   137 218 225   132 215 224   125 212 222   121 214 226   108 212 226    89 207 221    64 198 211    39 189 201    21 184 196    13 183 196    10 183 197     8 181 195    10 181 196    13 179 193    26 185 199    44 198 212    54 205 219    45 195 209    39 191 205    37 190 204    33 192 207    27 193 206    18 189 201    12 184 196     8 178 191     5 173 186     8 175 189     6 171 186     6 172 186     1 167 181     6 172 186     3 167 182     6 169 184    10 172 187  
 159 227 228   160 227 228   163 228 230   166 230 232   167 231 233   165 228 233   163 226 231   163 226 231   163 227 232   161 229 232   159 229 231   155 226 229   152 225 230   148 225 230   141 224 230   141 221 228   140 220 228   136 216 225   130 213 223   124 216 227   105 207 219    91 207 219    71 202 214    44 190 204    21 182 194    10 181 191     6 181 193     4 182 196     8 183 198    14 182 198    29 189 205    46 197 211    52 199 214    52 196 211    52 198 213    50 201 215    45 203 215    36 201 212    25 195 206    18 192 203    17 189 201    10 180 193     8 177 190     3 171 184     8 176 189     8 175 189    12 178 192     3 169 183     9 173 188    16 179 194  
 159 227 228   161 226 228   163 228 230   167 231 233   168 232 234   168 229 232   166 226 230   166 228 233   162 227 231   159 227 230   158 226 229   156 226 228   155 227 229   149 226 232   143 223 232   143 221 231   142 220 230   139 217 228   133 214 226   129 217 229   111 208 220    98 210 222    80 208 219    56 200 212    34 191 203    16 183 194     5 181 192     1 182 196     4 182 197    13 181 197    29 189 205    46 195 212    50 193 210    43 183 199    43 184 200    43 190 205    35 190 204    25 189 200    16 187 197    13 187 196    18 189 202    17 187 200    14 184 197     7 177 190    16 184 197    11 179 192    12 180 193     9 175 189     9 175 189    15 181 195  
 159 227 230   161 226 230   163 228 231   167 231 233   168 232 234   168 229 232   166 227 230   168 230 234   162 227 231   158 223 227   155 223 226   155 225 226   156 227 230   150 225 232   144 222 232   144 222 232   144 221 229   141 219 226   136 216 224   130 217 226   122 215 226   109 215 227    94 215 226    73 210 221    50 201 212    26 190 199    10 183 195     1 182 196     1 179 194     6 177 192    25 186 201    44 196 211    50 195 211    43 186 200    44 187 200    47 193 206    41 192 206    34 191 202    30 194 204    32 199 208    15 182 191    23 189 199    25 191 203    19 185 197    24 192 205    11 179 192     8 176 190    11 178 194     6 173 189    10 177 193  
 162 227 233   165 227 235   167 230 236   170 232 237   170 231 236   168 229 232   168 229 232   171 232 235   165 228 231   161 226 228   159 227 230   157 226 229   155 225 230   154 227 233   151 225 234   150 224 233   149 226 232   146 225 229   139 219 223   133 216 222   130 220 226   113 210 219    97 210 219    77 204 214    52 193 203    31 185 194    14 181 192    11 187 201    15 191 206     8 180 194     9 177 190    30 192 204    49 205 217    46 198 209    52 200 212    47 193 206    50 194 205    50 194 205    54 198 209    50 196 206    44 195 204    34 187 196    37 192 203    28 187 198    21 185 197    19 187 200    10 180 196    18 189 206    16 187 203     6 176 193  
 160 224 233   163 226 234   166 229 236   169 230 236   170 231 236   170 231 234   169 230 232   167 230 230   162 227 228   158 226 227   158 228 230   157 228 230   156 227 232   155 225 233   150 223 232   148 223 229   147 224 230   144 224 226   138 219 221   134 217 221   130 215 220   115 209 215   101 208 216    84 204 214    64 199 209    43 193 200    21 183 195     8 183 196     7 183 197     5 178 192     8 180 192    24 190 201    35 198 208    40 198 207    49 201 211    48 194 204    56 197 209    57 196 207    65 199 211    63 198 210    51 192 201    41 187 194    41 192 200    30 185 196    21 183 194    20 186 200     7 177 193     3 175 192     3 176 193     1 172 190  
 158 222 231   161 225 233   165 228 235   167 230 236   168 231 236   170 231 234   168 230 232   163 227 227   160 225 226   157 225 226   157 227 229   156 227 230   155 227 232   152 226 232   149 222 231   146 221 227   145 222 228   143 222 226   139 219 222   136 219 223   138 223 229   124 216 225   107 211 220    86 205 215    69 202 213    46 191 201    19 179 192     8 182 195     1 177 190     5 179 192    13 184 196    20 187 200    25 188 200    36 193 205    44 196 207    42 190 200    54 197 208    54 193 204    59 193 205    62 196 208    58 197 206    52 194 203    51 197 205    37 189 198    28 185 196    26 189 202    19 186 200    18 188 204    17 188 205    17 188 205  
 160 224 233   161 226 234   164 228 235   166 229 235   167 231 233   167 231 233   166 230 231   162 227 227   158 226 226   155 225 225   154 225 227   152 226 227   152 226 230   150 225 231   147 221 230   144 221 227   144 223 227   142 222 225   139 220 223   139 222 226   127 213 218   118 210 219   105 208 217    90 207 218    81 212 224    61 204 214    31 190 201    11 185 198     1 177 190     8 181 195    15 187 199    15 185 194    21 186 196    36 195 206    42 194 205    41 188 198    56 199 210    55 194 205    57 192 204    62 194 206    69 203 212    65 205 211    62 205 212    47 196 205    37 191 201    33 194 206    27 191 204    16 184 198    13 183 198    17 187 202  
 161 228 236   163 227 235   165 230 236   165 230 235   164 229 231   164 229 231   163 229 228   162 229 228   159 228 228   154 225 227   150 224 227   148 223 226   148 223 228   149 224 229   145 222 230   144 223 228   143 224 228   140 222 226   138 221 225   140 223 229   135 221 228   126 217 227   110 212 221    92 206 218    81 208 221    57 196 207    27 183 195    15 187 200     5 181 194    10 184 196    12 184 196    10 179 192    19 184 195    36 198 208    44 198 210    46 193 205    64 206 217    67 203 215    69 201 214    72 202 215    72 205 212    74 210 216    69 208 217    55 200 208    45 196 205    39 196 208    36 197 209    33 198 211    25 192 205    20 187 203  
 163 230 236   163 230 236   165 230 235   164 229 232   164 229 231   163 229 228   163 230 228   162 231 231   159 230 231   153 227 228   147 223 226   143 221 223   143 222 226   144 223 229   144 223 230   143 224 228   141 224 228   138 222 226   135 220 223   138 223 227   125 210 220   118 208 218   108 209 219    96 209 221    87 212 224    68 204 215    38 191 202    16 187 198     7 185 195    11 186 197     9 183 194     7 178 188    16 183 193    27 191 200    35 192 204    39 189 200    60 202 215    67 204 216    73 205 218    73 203 216    73 202 210    77 209 215    72 207 214    60 201 209    51 198 206    42 194 206    34 191 203    28 190 201    20 186 197    19 185 197  
 162 229 235   162 229 235   163 231 235   164 230 232   165 230 232   165 231 230   164 231 231   163 232 232   160 231 232   153 227 228   147 223 226   143 221 225   143 222 227   142 221 228   141 221 230   141 224 230   139 224 229   136 221 226   132 217 222   132 219 225   132 219 229   123 213 225   114 214 226   100 211 223    82 205 217    63 196 208    39 189 199    19 188 198    14 188 197    16 190 199    14 187 197    12 183 193    14 182 193    19 183 194    29 187 198    32 184 195    50 194 207    60 198 210    67 200 213    65 194 205    74 201 208    80 208 215    75 206 212    66 202 210    60 200 209    46 193 202    36 189 198    31 190 199    22 184 195    17 181 191  
 161 229 232   161 229 232   163 231 234   164 230 232   166 231 233   167 233 232   164 232 232   161 232 231   158 231 232   152 228 228   145 224 226   142 221 225   142 223 227   140 220 226   137 220 228   139 224 229   136 225 229   131 220 224   127 216 222   128 217 224   128 216 226   119 211 222   115 215 227   103 214 226    84 206 217    66 199 209    45 193 203    25 191 201    20 192 202    22 194 204    22 196 204    18 191 200    13 185 195    19 187 196    33 193 205    36 189 201    49 195 207    59 198 210    66 199 211    60 188 199    76 203 210    84 210 216    79 207 213    73 205 211    67 204 212    52 195 203    41 190 197    38 193 202    31 191 199    26 189 198  
 165 230 234   165 230 234   164 229 232   163 228 230   162 227 229   162 228 227   160 227 227   161 230 231   161 232 233   154 228 231   146 224 228   142 222 226   140 221 226   138 220 228   137 222 229   133 222 228   132 222 227   130 221 226   127 218 225   128 217 225   119 207 218   118 211 222   105 205 217    85 196 208    75 197 208    71 200 211    51 197 207    26 189 198    19 186 196    14 185 193     9 182 192     7 181 191    10 183 195    13 182 193    26 190 200    40 196 208    50 198 209    58 198 211    66 201 214    79 210 220    74 198 206    83 208 214    82 207 215    71 201 209    72 206 215    64 203 211    42 187 195    34 185 192    35 191 199    36 196 206  
 165 230 232   165 230 233   164 229 231   163 228 230   163 228 230   162 228 227   161 228 227   161 230 231   161 232 233   155 229 232   147 225 229   143 223 227   139 221 226   136 220 227   133 220 227   129 221 226   125 219 224   124 218 224   124 217 224   124 217 225   118 210 221   114 210 222   104 206 219    95 207 219    89 211 222    72 204 212    51 195 204    32 191 200    15 181 190    11 179 188    14 186 196    13 187 197    10 184 195    13 185 195    23 189 201    32 191 203    44 195 208    58 201 213    66 204 214    76 208 218    68 195 202    80 205 212    84 209 217    77 205 213    77 209 217    71 209 215    56 198 205    47 195 202    39 192 200    36 196 204  
 167 231 233   167 230 233   167 229 232   167 228 230   164 228 228   164 228 228   161 228 227   160 229 230   161 232 233   155 230 233   149 227 231   144 223 229   139 220 227   134 220 226   130 219 225   124 218 224   120 215 222   118 215 221   119 214 222   121 215 224   117 211 221   112 209 221   103 208 220    95 210 220    91 213 224    74 206 214    55 200 209    42 199 208    25 188 197    17 184 193    17 188 198    14 189 198    10 186 198    13 188 200    20 189 200    25 186 197    41 193 205    59 204 216    66 205 216    71 205 214    65 193 202    73 201 208    82 209 216    80 209 215    76 207 215    73 209 214    64 204 212    56 201 209    38 189 198    31 189 199  
 170 231 234   169 230 233   169 230 233   167 228 230   167 228 229   164 228 228   163 227 228   161 229 230   160 231 232   156 230 233   152 227 232   146 224 230   140 221 227   132 217 224   127 218 223   123 218 224   119 217 222   116 215 221   114 212 220   114 212 221   112 210 221   110 212 225   100 208 220    85 201 211    75 202 209    72 206 213    63 207 214    52 206 214    44 201 212    34 197 206    20 188 197     9 184 193     9 187 198    11 189 199    15 188 200    23 186 198    39 195 206    58 206 216    62 204 213    66 201 210    68 199 207    71 198 205    79 206 213    80 208 215    73 204 209    67 201 207    60 198 204    54 196 204    35 184 193    25 181 192  
 170 231 234   171 230 233   171 231 232   169 229 230   169 229 230   167 228 229   164 228 229   161 228 230   160 229 233   155 227 233   151 226 232   146 224 230   140 221 228   130 215 224   126 216 224   124 219 225   120 218 224   115 217 222   111 212 219   108 209 219   110 212 224   107 212 224    98 207 219    83 201 211    72 200 206    67 203 207    62 204 212    54 203 213    48 203 215    40 199 211    23 191 202    10 184 195     6 184 196     6 184 196    14 188 199    24 191 202    40 199 209    54 205 215    57 201 211    61 199 207    73 206 213    70 197 206    76 204 213    80 208 217    74 204 212    66 199 207    58 194 203    54 195 204    39 188 196    28 183 195  
 172 232 233   172 231 234   171 231 232   170 230 231   169 229 230   168 229 230   166 228 230   162 228 230   159 228 230   153 226 229   150 225 230   147 224 230   141 222 229   129 216 224   123 216 223   123 218 224   118 219 224   113 216 222   109 212 220   104 208 217   109 214 224   100 209 219    93 207 217    87 209 217    78 209 214    62 201 204    53 196 202    51 197 206    40 191 202    34 192 203    27 194 204    16 189 199     5 184 195     4 183 195    14 191 201    25 195 205    39 201 210    50 204 212    53 199 207    58 197 207    73 207 216    70 201 208    75 205 213    80 208 217    77 208 216    71 204 212    62 197 207    58 198 208    48 194 204    37 190 202  
 174 232 234   173 231 234   173 231 233   172 230 232   171 229 231   170 230 231   167 229 230   163 228 231   158 225 230   152 223 229   149 222 229   146 223 232   142 221 230   131 216 225   123 216 223   118 215 221   113 214 219   109 213 218   106 211 219   103 210 218   102 209 219    94 203 213    88 203 213    84 207 214    74 207 210    57 199 202    52 195 201    51 196 205    40 189 200    32 188 200    27 192 202    17 190 202     9 189 200     8 189 200    16 194 204    23 194 204    35 199 208    48 203 212    51 199 207    55 197 206    69 206 214    72 205 214    76 208 217    74 205 213    74 205 213    73 207 215    66 201 210    61 200 211    49 195 207    37 189 203  
 174 232 234   174 231 234   175 230 233   173 230 232   171 229 231   170 230 231   167 229 230   163 228 230   157 226 227   149 221 227   145 222 228   145 224 232   140 223 231   131 219 227   123 217 223   114 214 219   107 210 216   103 210 217   101 211 220   101 214 222    90 205 215    85 204 213    79 202 210    68 198 204    58 195 198    55 199 203    56 204 209    53 200 209    47 198 209    37 194 205    22 187 197    14 186 196    15 194 205    16 197 208    18 196 206    20 193 202    32 196 205    47 202 211    53 199 208    56 197 206    65 202 210    74 207 216    76 209 218    67 199 207    66 199 206    71 204 213    65 200 209    59 199 210    43 190 202    30 183 195  
 174 232 234   175 233 235   172 230 232   170 229 230   174 232 234   174 234 234   168 230 232   162 230 232   155 227 230   148 225 229   142 224 228   133 220 225   125 216 221   121 217 221   120 222 225   112 216 219   100 209 213   100 213 220    97 215 222    83 206 214    76 204 213    70 202 212    68 203 214    64 204 213    58 202 210    54 201 208    50 200 208    46 199 210    44 200 211    32 192 204    19 185 197    14 187 197    11 190 200    10 190 200    20 199 206    25 199 206    28 192 200    52 204 214    57 198 209    65 199 211    65 199 210    67 200 211    65 198 207    68 201 210    77 210 219    75 208 217    61 199 209    52 194 205    39 186 198    37 190 202  
 173 231 233   174 232 233   172 230 231   170 229 230   174 232 233   171 232 232   166 228 230   162 230 231   154 228 228   147 226 230   139 224 228   130 221 225   122 218 222   115 214 216   111 215 218   104 212 215    95 205 210    90 206 213    84 206 214    74 204 214    72 207 217    60 201 211    54 199 208    51 200 207    50 199 206    48 199 206    46 200 209    36 194 206    33 193 205    33 195 206    25 191 203    15 187 197    13 192 202     6 188 195     7 189 193    19 193 199    27 191 200    50 202 211    60 199 210    67 199 212    60 193 205    67 200 211    73 206 215    77 210 219    80 213 222    74 209 217    68 206 214    60 203 212    42 191 200    38 192 201  
 173 231 233   172 231 233   172 230 232   171 229 230   172 230 231   168 229 229   163 227 228   163 230 232   155 228 231   148 226 230   139 224 228   131 221 225   123 218 222   116 217 220   114 218 221   108 217 220   100 212 219    90 208 216    82 207 216    77 210 219    71 209 219    56 199 209    46 193 203    43 193 203    44 197 205    45 199 207    42 200 210    31 193 203    26 188 200    33 197 209    28 197 208    13 187 197    14 192 202    15 195 203     8 190 196    27 200 207    38 202 211    56 208 217    69 208 220    76 209 222    61 195 206    67 201 210    76 209 218    78 211 219    74 207 214    71 205 214    69 206 215    60 200 210    53 199 209    45 196 209  
 173 233 234   172 232 233   172 231 233   172 230 231   170 230 230   166 228 229   163 227 228   162 230 232   155 229 232   148 228 231   139 224 228   131 221 225   123 219 223   120 221 225   115 220 224   109 219 224   104 218 225    94 214 222    83 210 218    78 212 222    68 210 220    52 200 210    41 193 203    38 194 203    39 197 206    39 200 208    37 201 208    31 195 205    26 191 202    28 194 205    24 195 205    15 189 199    12 191 200    15 197 203     5 187 191    25 199 204    35 199 205    47 199 206    62 201 212    68 200 212    70 204 214    67 201 210    70 203 212    71 203 211    65 198 205    66 200 208    72 208 217    66 206 216    50 195 205    41 192 203  
 174 234 235   172 233 234   172 233 234   173 233 234   171 231 232   167 228 229   163 228 228   161 230 232   155 229 232   148 228 231   138 224 227   129 221 224   123 218 223   118 220 225   110 215 219   100 209 215    98 212 221    90 212 221    76 206 215    65 202 212    60 204 215    45 197 208    35 194 204    32 195 205    30 197 205    28 197 204    29 197 205    30 197 206    29 195 206    22 189 200    18 190 199    20 196 204    14 194 201    15 198 204     8 190 194    27 201 206    35 197 203    46 195 203    62 199 210    66 198 210    73 207 216    67 200 209    68 201 208    71 203 210    67 198 206    67 198 206    69 203 212    66 205 215    65 208 219    56 204 215  
 174 234 236   170 232 233   171 232 233   172 233 234   169 230 231   168 229 230   164 230 230   160 229 231   154 230 232   146 227 231   135 224 228   127 219 225   122 217 224   116 218 223   106 213 218    96 207 214    93 210 217    88 212 220    73 205 216    55 197 207    47 196 208    36 194 205    29 194 203    24 194 202    19 192 199    16 190 197    17 190 197    22 193 201    27 198 207    18 189 199    17 189 199    24 200 208    18 198 205    16 198 203    17 196 200    32 204 208    35 197 201    51 201 207    68 205 215    75 207 217    70 203 212    70 202 210    75 207 214    80 211 219    78 209 217    73 204 212    71 203 211    66 202 211    55 195 205    48 194 204  
 172 234 235   166 230 232   168 230 231   170 232 233   168 229 230   167 228 229   164 230 230   159 228 230   154 230 232   146 227 231   134 222 227   127 218 224   122 217 224   115 216 221   108 217 222   100 214 220    92 211 219    86 213 222    72 208 219    52 198 208    39 192 203    31 194 204    25 194 204    17 192 201    10 188 198     8 189 198    12 190 197    19 192 199    26 198 207    24 196 206    22 194 204    22 197 205    17 196 203    11 192 197    18 197 202    26 198 204    24 184 189    47 195 202    65 200 211    73 204 214    70 201 211    76 207 215    81 211 218    82 211 217    83 210 217    81 208 215    73 202 211    63 196 206    62 199 210    54 197 208  
 169 233 235   163 229 230   164 229 229   167 230 230   165 229 229   165 229 229   164 231 233   157 229 231   153 230 233   146 227 231   134 222 227   126 217 223   121 217 224   109 212 218   107 215 220   101 214 220    87 207 215    79 208 216    67 205 215    48 195 207    37 194 206    30 196 206    24 198 207    14 194 203     6 189 197     6 190 198    12 194 202    17 194 201    25 199 207    31 205 214    26 200 209    16 191 200    13 191 198    16 195 200    30 208 213    33 205 209    26 186 191    54 200 206    70 205 213    81 209 218    78 206 215    85 214 220    83 211 217    75 202 209    79 204 212    84 208 216    80 207 215    75 206 215    68 204 213    61 203 213  
 166 231 233   162 230 230   163 229 231   165 231 231   166 232 231   165 230 232   162 228 230   157 229 232   151 227 231   143 225 229   134 222 227   125 217 223   117 212 219   113 214 221   107 215 222   104 217 225    96 218 225    84 214 222    71 211 221    55 205 216    37 196 207    26 194 204    14 189 199     6 187 198     4 190 200     6 194 203     8 193 200    12 191 198    15 192 200    22 197 205    22 196 205    17 192 200    17 194 202    24 201 208    20 193 199    46 212 218    56 212 218    50 193 200    75 208 217    91 219 228    78 205 214    81 205 213    79 202 210    81 204 211    83 206 213    84 208 215    87 212 220    83 212 221    78 211 222    61 198 209  
 164 230 232   160 229 230   161 229 230   162 230 229   164 231 230   164 229 231   159 228 229   155 227 230   149 226 230   142 225 229   135 224 228   127 218 224   118 214 221   110 214 218   105 214 219   102 216 222    89 210 216    72 202 210    66 205 215    60 210 221    37 199 208    23 193 202    10 187 196     4 187 197     4 192 201     3 194 202     6 193 199    14 195 202    18 195 203    20 197 205    22 196 205    20 194 203    22 196 204    29 204 209    15 187 191    26 190 194    50 203 208    68 208 213    84 214 222    80 203 211    82 205 213    85 207 215    85 206 214    88 208 216    88 209 217    88 209 217    91 215 222    85 211 220    72 203 212    68 206 215  
 161 229 232   159 229 230   159 228 228   160 228 229   161 229 230   161 229 230   158 228 229   153 226 228   147 225 229   141 224 230   134 224 230   128 219 227   121 216 223   113 214 220   105 213 216   100 214 219    87 208 214    73 201 209    64 204 212    57 207 216    38 200 210    22 192 203     9 185 195     4 186 196     5 192 201     3 191 199     3 190 198    14 195 203    18 196 204    17 194 202    18 192 201    22 195 204    24 197 204    25 197 204    28 195 201    38 200 205    56 206 212    73 210 217    87 214 221    89 210 218    92 211 219    94 212 220    93 210 218    94 211 218    94 211 218    92 209 216    94 214 222    86 211 220    71 201 211    72 208 218  
 160 230 232   158 229 230   158 229 228   159 229 229   160 228 229   159 229 229   157 229 231   152 227 230   147 225 229   142 225 231   134 224 230   127 220 228   120 216 223   115 218 222   104 213 215    98 211 215    94 215 220    86 215 222    70 210 217    48 198 207    41 200 211    25 193 203    13 188 198     7 188 197     3 190 199     1 189 198     3 189 195    10 191 198    16 194 201    16 190 199    17 189 199    22 193 203    23 194 201    25 195 200    40 206 210    48 207 211    57 205 210    74 208 214    85 209 216    97 214 223   103 217 227   103 216 226    99 212 220    98 211 219    96 211 218    93 208 215    92 211 218    87 210 218    77 206 213    68 204 212  
