P3
50 50
255
  78 159 186    81 162 189    81 162 189    82 163 190    87 167 194    86 167 194    82 163 190    86 166 193    87 167 194    83 163 190    79 159 186    79 159 186    81 161 188    85 165 192    85 165 192    86 166 193    89 169 195    85 165 192    80 160 187    81 161 188    82 162 189    93 173 201    92 172 199    86 166 193    85 165 192    86 166 193    87 167 194    85 165 192    88 168 195    91 171 198    92 172 199    87 167 194    86 166 193    91 171 198    86 166 193    85 165 192    85 165 192    87 167 194    90 170 197    87 167 194    90 170 197    89 169 196    91 171 198    93 173 200    92 172 199    86 166 193    84 164 192    97 176 206    93 172 202    83 162 192  
  86 167 194    83 164 191    78 159 186    76 157 184    82 163 190    86 167 194    85 166 193    87 167 194    86 166 193    83 163 190    81 161 188    81 161 188    82 162 189    85 165 192    85 165 192    85 165 192    87 167 194    84 164 191    81 161 187    81 161 188    84 164 191    88 168 195    85 165 192    87 167 194    92 172 199    87 167 194    82 162 189    82 162 189    82 162 189    83 163 190    84 164 191    81 161 188    83 163 190    87 167 194    83 163 190    83 163 190    84 164 190    85 165 192    88 168 195    86 166 193    84 164 191    87 167 194    91 171 198    93 173 200    92 172 199    91 171 198    91 170 198    92 171 201    89 168 198    86 165 195  
  87 168 195    84 165 192    79 160 187    77 158 185    80 162 189    84 165 192    84 165 192    87 167 194    85 165 191    83 163 190    83 163 190    83 163 190    83 163 190    85 165 192    85 165 192    84 164 191    85 165 192    83 163 190    81 161 188    82 162 189    80 160 186    84 164 191    83 163 190    88 168 195    94 174 200    89 169 195    86 166 193    88 168 195    86 166 193    86 166 193    85 165 192    86 166 193    90 170 197    87 167 194    82 162 189    83 163 190    85 165 193    86 166 193    89 169 196    86 166 193    80 160 187    85 165 192    90 170 197    88 168 196    88 168 195    90 170 197    93 173 200    87 166 196    86 165 195    89 168 198  
  82 163 190    83 164 191    83 164 191    83 164 191    82 163 190    80 161 188    81 162 189    87 167 194    82 162 189    82 162 189    83 163 190    84 164 190    83 163 190    85 165 192    85 165 192    83 163 190    83 163 190    82 162 189    82 162 189    83 163 190    72 152 179    86 166 193    89 169 196    87 167 194    89 169 196    90 170 197    93 173 200    92 172 199    90 170 198    92 172 199    89 169 196    90 170 197    95 175 202    88 168 195    83 163 190    86 166 193    88 168 195    88 168 195    91 171 198    89 169 196    84 164 191    86 166 192    87 167 194    85 165 191    83 163 190    84 164 191    87 166 194    87 166 196    85 164 194    86 165 195  
  80 161 188    81 162 189    83 164 191    83 164 191    81 162 189    80 161 188    82 163 190    86 166 193    80 160 187    81 161 188    83 163 190    83 163 190    84 164 191    85 165 192    85 165 192    83 163 190    82 162 189    82 162 189    84 164 190    84 164 191    78 158 185    91 171 198    91 171 198    87 167 195    87 167 194    87 167 194    88 168 195    84 164 191    85 165 192    90 170 197    86 166 193    86 166 193    87 167 194    85 165 191    82 162 189    86 166 193    87 167 194    87 167 194    90 170 197    89 169 196    91 171 198    87 167 194    86 166 193    85 165 192    85 165 192    84 164 191    83 163 191    89 168 198    87 166 196    81 160 190  
  84 165 192    81 162 189    80 161 188    78 160 186    78 159 186    81 162 189    86 166 193    85 165 192    81 161 187    82 162 189    83 163 190    82 162 189    86 166 193    85 165 192    85 165 192    84 164 191    82 162 189    83 163 190    85 165 192    85 165 192    91 171 198    93 173 200    88 168 195    88 168 195    90 170 197    83 163 190    80 160 187    81 161 188    84 164 191    92 172 199    86 166 193    85 165 192    85 165 192    83 163 190    82 162 189    85 165 192    85 165 192    84 164 191    88 168 195    88 168 195    92 172 199    88 168 195    87 167 194    89 169 196    91 171 198    89 169 196    86 166 194    91 170 200    89 168 198    81 160 190  
  86 167 194    82 163 190    81 162 189    79 160 187    76 157 184    78 160 186    85 166 193    86 166 193    82 162 189    84 164 192    84 164 191    83 163 190    89 169 196    85 165 192    84 164 192    84 164 192    82 162 189    85 165 192    87 167 194    85 165 192    90 170 197    91 171 198    86 166 193    86 166 193    89 169 197    84 164 192    83 163 190    84 164 191    87 167 194    96 176 203    88 168 195    88 168 195    89 169 196    87 167 194    85 165 192    88 168 195    87 167 194    85 165 192    89 169 196    90 170 197    89 169 196    89 169 196    89 169 196    90 170 197    90 170 197    89 169 196    88 168 196    89 168 198    89 168 198    87 166 196  
  83 164 191    83 165 191    86 167 194    84 165 192    77 158 185    74 155 182    80 160 188    87 167 194    84 164 191    87 167 194    84 164 192    83 163 190    92 172 199    85 165 192    84 164 192    85 165 192    83 163 190    86 166 193    87 167 194    85 165 192    79 159 186    88 168 196    87 167 194    82 162 189    84 164 192    89 169 196    92 172 199    85 165 192    87 167 193    94 174 201    85 165 192    88 168 195    89 169 196    91 171 198    91 171 198    93 173 200    90 170 197    88 168 195    92 172 199    95 175 202    84 164 191    88 168 195    90 170 197    87 167 194    84 164 191    84 164 191    88 168 196    87 166 196    87 166 196    93 172 202  
  85 166 193    80 160 188    80 161 188    79 160 187    82 163 189    84 164 192    78 158 185    75 156 183    80 161 188    81 162 189    83 164 191    80 162 189    83 164 191    83 165 191    87 167 194    87 168 194    83 164 191    83 164 191    81 162 189    76 157 184    88 169 196    85 166 193    83 164 191    85 166 193    88 169 196    85 165 192    81 161 188    82 162 189    83 161 188    82 159 187    86 163 191    84 161 189    83 160 188    90 167 194    93 170 196    92 169 195    90 167 193    89 166 192    89 166 192    90 167 193    90 167 193    93 170 196    89 166 192    98 175 201    97 174 200    83 160 186    84 161 188    91 168 196    94 171 199    93 170 198  
  89 170 197    82 163 190    79 160 187    76 157 185    80 161 188    87 168 195    86 167 194    84 165 192    79 160 187    77 158 185    85 166 193    84 165 192    80 161 188    84 165 193    88 169 196    87 168 195    84 165 192    81 162 189    80 161 188    81 162 189    73 154 181    86 167 193    92 173 200    86 167 194    80 161 188    80 160 187    80 160 187    86 166 193    93 170 198    91 168 196    88 164 193    86 163 191    94 171 199    95 172 198    93 170 196    93 170 196    90 167 193    87 164 190    87 164 190    89 166 192    89 166 192    91 168 194    89 166 192    90 167 193    89 166 192    84 161 187    87 164 191    89 166 194    92 169 197    91 168 196  
  84 164 192    80 161 188    81 162 189    78 159 186    79 161 188    86 167 194    87 168 195    87 168 195    80 161 188    77 158 185    85 166 193    86 167 194    84 165 192    88 169 196    88 169 196    87 168 195    84 165 192    79 160 187    78 159 186    85 166 193    83 165 191    90 171 197    88 169 196    81 162 189    79 160 187    87 167 194    89 169 197    88 168 195    95 173 200    93 170 198    92 169 197    91 168 196    99 176 204    95 172 198    93 170 196    94 171 197    89 166 192    86 163 189    86 163 189    90 167 194    90 167 193    91 168 194    92 169 195    85 162 188    83 160 186    90 167 193    91 168 194    89 166 194    90 167 195    88 165 193  
  73 154 181    77 158 185    84 165 192    82 163 190    80 161 188    81 162 189    79 160 187    81 162 189    83 164 191    81 162 189    83 164 191    83 165 191    88 169 196    90 171 197    85 166 193    86 167 194    87 168 195    78 159 186    75 156 183    86 167 194    92 173 200    84 165 192    77 158 185    78 159 186    86 167 194    89 169 196    85 165 192    84 164 191    85 163 191    89 166 194    96 173 201    95 172 200    93 170 198    91 168 194    92 169 195    93 170 196    90 167 193    87 164 190    89 166 192    94 171 197    93 170 196    91 168 194    96 173 199    87 164 190    86 163 189    96 173 199    92 169 196    90 167 195    90 167 195    87 164 192  
  73 154 181    78 159 186    86 167 194    84 165 192    82 163 190    82 163 189    77 158 185    78 159 186    82 163 190    83 164 191    84 165 192    82 163 190    85 166 193    86 166 193    83 164 191    86 167 194    88 169 196    79 160 187    75 155 183    84 165 192    79 160 187    75 156 183    77 158 185    86 167 194    91 172 199    79 159 186    70 150 177    80 160 187    83 161 189    88 165 193    97 174 202    93 170 198    87 164 192    88 165 192    91 168 194    92 169 195    90 167 193    90 167 193    93 170 196    99 175 202    93 170 196    89 166 192    95 172 198    90 167 193    90 167 194    96 173 199    90 167 193    91 168 196    91 168 196    89 166 194  
  84 166 193    82 163 190    84 165 192    81 162 189    83 164 191    87 168 195    85 166 193    81 162 189    78 159 186    79 160 187    87 168 195    84 165 192    78 159 186    80 161 188    82 163 190    86 167 194    88 169 196    82 163 190    78 159 186    82 163 190    82 163 190    83 164 191    85 166 193    86 167 194    89 170 197    85 165 192    78 158 185    80 160 187    90 168 196    95 172 200    94 171 199    88 165 193    88 165 193    90 167 193    90 167 193    89 166 192    89 166 192    91 168 194    95 172 198    99 176 202    89 167 192    86 163 190    90 167 193    90 167 193    93 169 196    92 169 195    88 165 191    90 167 195    91 168 196    92 169 197  
  87 168 195    82 163 190    81 162 189    78 160 186    82 162 189    87 168 195    84 165 192    82 163 190    77 158 185    77 158 185    85 166 193    83 164 191    78 159 186    81 162 189    85 166 193    86 167 194    85 165 193    84 165 192    84 165 192    85 166 193    91 172 199    90 171 198    85 166 193    81 162 189    85 166 193    93 173 200    92 172 199    86 166 193    94 172 200    95 172 200    94 171 199    89 166 194    89 166 194    92 169 196    90 167 193    87 164 190    87 164 190    91 168 194    93 170 195    94 171 197    88 165 191    89 166 192    87 164 190    91 168 194    93 170 196    90 167 193    90 167 194    88 165 193    91 168 196    94 171 199  
  82 162 189    78 159 186    79 160 187    79 160 187    81 162 189    80 161 188    76 157 184    78 159 186    80 161 188    78 159 186    79 160 187    80 161 188    86 167 194    86 167 194    87 168 195    85 167 194    82 163 190    85 166 193    88 169 196    87 168 195    81 162 189    80 162 189    80 161 188    81 162 189    84 166 193    84 164 192    85 165 193    93 173 200    90 168 195    90 167 195    96 173 201    94 171 199    88 165 193    92 169 196    90 167 193    85 162 188    85 162 188    89 166 192    90 167 193    89 166 192    90 167 193    94 171 197    88 165 191    92 169 195    94 171 197    91 168 194    95 172 199    86 163 191    90 167 195    94 172 199  
  80 161 188    85 166 193    85 166 193    84 165 192    86 167 194    84 165 192    80 161 188    85 166 193    86 167 194    77 158 185    80 161 188    85 166 193    88 169 196    80 161 188    82 163 190    84 165 192    83 165 191    84 165 192    79 160 187    75 156 183    83 164 191    82 163 190    83 164 191    87 168 195    90 171 198    91 171 198    88 168 195    83 163 190    82 160 187    84 162 189    90 167 195    92 170 197    95 172 200    91 168 195    90 167 193    89 166 192    89 166 192    92 169 195    95 172 198    98 175 201    96 173 199    88 165 191    93 170 196    88 165 191    87 164 190    94 171 197    91 168 195    94 171 199    95 172 200    97 174 202  
  80 161 188    82 163 190    81 162 189    80 162 189    84 164 192    85 166 193    80 162 188    80 161 188    84 165 192    80 161 188    84 165 192    82 163 190    81 162 189    81 162 190    86 167 194    86 167 194    85 166 193    88 169 196    86 167 194    85 166 193    87 168 195    86 167 194    87 168 195    89 170 197    91 172 199    92 172 199    88 168 195    80 160 187    81 159 187    85 162 190    89 166 194    89 166 194    91 168 196    94 171 197    92 169 195    89 166 192    87 164 190    87 164 190    86 163 189    85 162 188    91 168 194    88 165 191    92 169 195    89 166 192    87 164 190    89 166 192    88 165 191    88 165 193    91 168 196    94 172 199  
  84 165 192    83 164 191    81 162 189    79 160 187    82 163 189    84 165 192    83 164 191    83 164 191    84 165 192    86 167 194    87 168 195    82 163 190    84 165 192    81 162 189    82 164 190    81 162 189    80 161 188    84 165 192    85 166 193    87 168 195    84 165 192    83 164 190    82 163 190    83 164 191    84 165 192    85 165 192    84 164 191    86 166 193    89 167 194    94 170 199    94 171 199    93 170 198    95 172 200    91 168 195    87 164 190    85 162 188    87 164 190    90 167 193    89 166 192    87 164 190    88 165 191    90 168 194    91 168 194    94 171 197    90 167 193    85 162 188    88 165 192    86 163 191    89 166 194    94 171 199  
  88 169 196    86 167 194    84 165 192    81 162 189    81 162 189    82 163 190    83 164 191    84 165 192    79 160 187    81 162 189    82 163 190    81 162 189    88 169 196    82 163 190    82 163 190    80 161 188    79 160 187    83 164 191    83 164 191    84 165 192    81 162 189    80 162 189    80 161 188    80 162 189    82 163 190    83 163 190    86 166 193    91 171 198    94 172 199    96 173 201    94 171 199    93 171 198    97 174 202    92 169 195    90 167 193    91 168 194    91 168 194    91 168 194    92 169 195    92 169 195    90 166 193    93 170 196    90 167 193    96 173 199    93 170 196    86 163 189    92 169 196    91 168 196    92 169 197    95 172 200  
  83 164 191    82 163 190    83 164 191    82 163 190    81 162 189    81 162 189    81 162 189    77 158 185    71 152 180    75 156 183    77 158 185    77 158 185    84 165 192    85 166 193    88 169 196    88 169 196    86 166 193    87 168 195    85 166 193    84 165 192    85 166 193    85 166 193    85 166 193    85 167 194    87 168 195    90 170 197    91 171 198    89 169 196    89 166 194    89 166 194    87 164 192    86 163 191    92 169 197    95 172 198    99 175 202    99 177 202    94 171 197    87 164 190    85 163 189    89 166 192    89 166 192    92 169 195    87 164 190    93 170 196    92 169 195    86 163 189    94 171 198    95 172 200    94 170 199    92 169 197  
  76 157 184    76 156 183    79 160 187    81 162 189    81 162 189    81 162 189    82 163 190    77 158 185    78 159 186    84 165 192    85 166 193    85 166 193    85 166 193    85 165 193    89 169 197    87 167 194    83 165 191    84 165 192    81 162 189    79 160 187    83 164 191    83 164 191    84 165 192    83 164 191    85 166 193    89 169 196    91 171 198    91 171 198    90 168 196    90 167 195    88 165 193    87 165 192    91 168 196    88 165 192    90 167 194    94 171 197    91 168 194    88 165 191    90 167 193    94 172 197    88 165 191    86 163 189    84 161 187    88 165 191    89 166 192    85 162 188    91 168 195    95 172 200    92 169 197    90 167 195  
  81 162 189    78 159 185    79 160 187    80 162 189    80 161 188    82 163 190    85 166 193    84 165 192    85 166 193    88 169 196    85 166 193    90 171 197    87 168 195    83 164 190    86 167 194    81 162 189    77 158 185    78 159 186    76 157 185    78 159 186    81 162 189    81 162 189    81 162 189    78 160 186    79 160 187    83 163 190    88 168 196    94 174 201    94 171 199    96 173 201    94 172 199    91 168 196    90 167 195    87 164 191    86 163 189    86 163 189    88 165 191    92 169 195    95 172 198    97 174 200    88 165 191    83 161 186    88 165 191    90 167 193    90 167 193    89 166 192    87 164 191    92 169 197    92 169 197    92 169 197  
  92 173 200    86 167 194    83 164 191    81 162 190    79 160 187    82 163 190    86 167 194    83 164 191    80 161 188    76 157 184    72 153 180    82 163 190    81 162 189    85 166 193    91 172 199    83 164 191    78 160 186    81 162 189    82 163 190    84 166 193    86 167 194    87 168 195    85 166 193    82 163 190    82 162 189    85 165 192    88 168 196    90 169 196    90 168 195    94 172 199    94 172 199    89 166 194    83 160 188    98 175 202   100 177 203    91 168 194    88 166 191    90 167 193    87 164 190    81 158 184    91 168 194    84 161 187    95 172 198    95 172 198    94 171 197    94 171 197    86 163 190    92 169 197    94 171 199    98 175 203  
  73 157 185    82 166 194    78 162 190    75 159 187    86 170 198    84 168 196    76 159 187    82 163 190    77 158 185    71 152 179    73 153 180    79 160 187    82 163 190    85 166 193    78 159 186    81 163 190    85 166 193    78 159 186    79 160 187    79 160 187    85 165 190    85 165 190    86 166 191    90 170 195    86 166 191    85 164 190    91 168 194    88 165 191    88 165 191    91 167 193    92 168 194    90 166 192    87 163 189    88 164 190    91 167 193    92 168 194    91 167 193    93 169 195    93 169 195    91 167 193    87 163 189    95 171 196    94 170 196    91 167 193    90 166 192    90 166 192    92 169 196    89 167 195    84 164 191    88 168 195  
  72 155 184    78 162 191    77 161 189    74 158 186    79 163 191    79 163 191    76 159 186    82 163 190    77 158 185    73 154 181    75 156 183    81 162 189    83 164 191    79 160 187    75 156 183    88 169 196    93 174 202    84 165 192    77 158 186    74 155 182    89 169 194    86 166 191    85 165 190    87 167 192    84 164 189    87 164 190    91 168 194    88 165 191    87 163 189    88 164 190    91 167 193    92 168 194    93 169 195    93 169 195    95 171 197    93 169 194    90 165 192    90 166 192    90 166 192    89 165 191    90 166 192    95 170 197    93 169 195    93 169 195    94 170 196    92 168 194    91 167 194    87 165 193    88 168 195    91 171 198  
  75 159 187    78 162 190    78 162 190    76 160 188    76 160 188    76 160 188    77 160 187    81 162 189    78 160 186    76 157 184    78 159 186    83 165 191    85 166 193    84 165 192    81 162 189    86 167 194    87 168 195    80 161 188    80 161 188    84 164 192    91 171 196    87 167 192    84 164 189    85 165 190    83 163 188    87 164 190    93 170 196    89 166 192    87 163 190    87 163 189    90 166 192    92 168 195    95 171 197    93 170 196    94 170 196    92 168 194    89 165 190    89 165 191    90 167 193    90 166 192    94 170 196    95 170 197    94 170 196    94 170 196    97 173 199    94 170 197    87 165 191    84 164 191    92 172 199    91 171 198  
  84 169 197    80 164 192    81 165 193    82 166 194    80 164 192    78 162 190    78 162 189    80 161 188    79 160 187    79 160 187    81 162 189    85 166 193    85 166 193    87 168 195    84 165 192    82 163 190    81 162 189    80 161 188    82 163 190    87 169 195    89 169 194    86 166 191    85 165 190    87 167 192    85 165 190    88 165 190    94 170 197    92 169 195    90 166 192    89 165 191    89 165 191    90 166 192    90 166 192    87 163 189    89 164 191    90 166 192    91 166 192    94 170 196    97 173 199    96 172 198    94 170 196    94 170 196    95 171 197    93 169 195    96 172 198    95 172 197    89 165 192    85 164 191    90 170 197    87 167 194  
  90 174 202    80 164 192    80 164 192    85 169 197    83 167 195    79 163 191    78 161 189    80 161 188    80 161 188    80 161 188    82 163 190    86 167 194    85 166 193    83 164 191    82 163 190    82 163 190    87 168 195    89 170 197    83 164 191    78 159 186    85 165 190    85 165 190    86 166 191    90 170 195    87 167 192    88 165 190    93 170 196    90 167 193    90 166 192    91 167 193    91 167 193    89 165 191    87 163 189    84 160 186    87 162 189    91 167 193    95 171 197    99 175 201   100 176 202    98 174 200    92 168 194    93 169 195    97 173 199    90 166 192    91 167 193    95 172 198    89 167 194    85 165 192    86 166 193    82 162 189  
  86 170 198    78 162 190    77 161 189    81 165 193    82 166 194    78 162 189    76 160 187    81 162 189    81 162 189    80 161 188    82 163 190    85 166 193    84 165 192    84 165 192    85 166 193    79 160 187    81 162 189    85 166 193    83 164 191    82 163 190    85 165 190    85 165 190    87 167 192    91 171 196    88 168 193    88 165 190    91 168 194    87 164 190    89 165 191    92 168 194    93 169 195    92 168 194    89 165 191    87 163 189    90 167 192    94 170 196    96 171 197    98 174 200    97 173 199    94 170 196    91 167 193    92 168 194    97 173 199    88 164 190    88 164 189    96 172 198    92 168 195    87 166 193    83 163 190    82 162 189  
  80 164 192    79 163 191    77 161 189    76 160 188    78 162 190    78 162 190    77 161 188    81 162 189    80 161 188    79 160 187    81 162 189    84 165 192    83 164 191    84 165 192    89 169 197    78 159 186    72 153 180    77 158 185    81 162 189    91 172 199    90 170 195    88 168 193    87 167 192    89 169 194    85 165 190    85 163 189    92 169 195    91 168 194    90 167 193    92 168 194    93 169 195    94 170 195    92 168 194    92 168 194    93 169 195    93 169 195    92 168 194    93 169 195    94 170 196    92 168 194    94 169 195    92 168 194    96 172 198    89 165 191    89 165 192    97 173 199    90 167 194    87 167 194    85 165 192    88 168 194  
  76 160 188    82 166 195    81 165 193    74 158 186    76 159 188    79 163 191    80 163 191    82 163 190    81 161 188    78 159 186    80 161 188    83 164 191    82 163 190    76 157 184    85 166 193    85 166 193    80 161 188    79 160 187    78 159 185    87 168 195    95 175 200    90 170 195    87 167 192    87 167 192    83 163 188    85 162 188    93 170 196    97 174 200    94 170 196    92 168 194    92 168 194    92 168 194    92 168 194    93 169 195    93 169 195    90 167 192    87 163 189    89 165 191    93 169 195    94 170 196    97 173 199    90 166 192    94 170 196    90 166 192    93 169 195    99 175 201    90 166 192    88 167 194    88 168 195    93 173 200  
  78 161 190    83 167 195    80 164 192    76 160 187    79 162 190    77 162 189    77 160 188    79 160 187    73 154 181    78 159 186    79 160 187    82 163 190    79 160 187    80 161 188    83 164 191    82 163 190    84 165 192    87 168 195    85 166 193    90 171 198    82 162 187    85 165 190    87 167 192    89 169 194    89 169 194    90 167 193    89 166 192    89 166 192    91 167 193    86 162 188    88 163 190    93 169 195    92 168 194    89 165 191    92 168 194    94 170 196    93 169 195    93 169 195    93 169 195    92 168 194    93 169 195    95 171 197   101 177 203    98 174 200    93 169 195    94 170 196    92 170 196    89 169 196    81 161 188    82 162 189  
  75 159 187    79 163 191    77 161 189    74 158 186    78 162 190    79 164 192    75 158 186    75 156 183    83 164 191    89 169 197    81 162 189    78 160 186    77 158 185    77 158 185    78 159 186    76 157 184    80 161 188    84 165 192    81 162 189    83 164 191    88 168 193    84 164 189    84 164 189    87 167 192    91 171 196    92 169 195    90 168 194    92 169 195    92 168 195    89 165 191    92 168 194    98 174 200    96 172 198    90 166 192    91 167 193    92 168 194    92 168 194    93 169 195    94 170 196    91 167 193    94 170 196    93 169 195    99 175 201    98 174 200    94 170 196    95 171 197    93 169 196    90 169 196    86 166 193    87 167 194  
  76 160 188    79 163 190    76 160 188    73 157 185    77 160 189    78 162 189    79 162 190    88 169 196    86 167 195    77 158 185    68 148 175    76 158 184    86 167 194    83 164 191    80 161 188    78 159 186    83 164 191    88 169 196    83 164 191    82 163 190    91 171 196    84 164 189    81 161 186    85 165 190    91 171 196    94 171 197    91 168 195    94 171 197    92 169 195    89 165 191    93 169 195    98 174 200    94 170 196    90 166 192    90 166 192    90 166 192    91 167 193    95 171 197    95 171 196    91 167 193    95 172 197    93 169 195    97 173 199    97 173 200    96 172 198    96 172 198    91 169 195    87 167 194    89 169 196    90 170 197  
  82 166 194    81 165 193    77 161 189    74 158 186    76 160 188    74 159 187    76 159 187    86 167 194    86 167 194    81 162 189    80 161 188    84 165 192    77 158 185    79 160 187    81 162 189    78 159 186    85 166 193    90 171 198    83 164 191    80 161 188    89 169 194    83 163 188    81 161 186    84 164 189    89 169 194    92 169 195    92 169 195    93 170 196    90 166 192    86 162 188    90 166 192    92 168 194    88 164 190    88 164 190    90 166 192    88 164 190    90 166 192    95 171 197    96 171 197    90 166 192    97 173 199    92 168 194    95 171 197    97 173 199    97 173 199    97 173 199    91 168 194    85 163 191    86 166 193    89 169 196  
  83 167 195    81 165 193    78 162 190    76 160 188    77 161 189    76 159 188    76 159 186    84 165 192    85 166 193    82 163 190    85 166 193    84 165 192    74 155 182    75 156 183    77 158 185    74 155 182    81 162 189    86 167 194    78 159 186    74 155 182    82 162 187    82 162 187    84 164 189    85 165 190    87 167 192    89 166 192    90 166 192    90 167 193    86 163 189    86 162 188    89 165 191    92 168 194    89 165 191    90 166 192    90 166 192    88 164 190    89 165 191    95 171 197    96 171 197    90 166 192    97 173 199    91 167 193    95 171 197    96 172 198    96 172 198    95 172 198    89 167 194    84 164 191    84 164 191    89 169 195  
  79 163 191    77 160 189    77 161 189    79 163 191    81 165 193    79 163 191    79 162 190    86 167 194    84 165 192    78 158 185    76 157 184    76 156 183    81 162 189    82 163 190    81 162 189    79 160 187    84 165 192    87 168 195    79 160 187    77 158 185    79 159 184    83 163 188    86 166 191    87 167 192    86 166 191    88 165 191    87 164 190    88 165 191    88 164 190    89 165 191    92 168 194    95 171 196    96 172 198    94 170 196    93 169 195    91 167 193    91 166 192    94 170 196    95 171 197    91 167 193    95 171 197    92 168 194    96 172 198    96 171 197    94 170 196    94 169 196    90 167 193    88 166 194    87 167 194    90 170 197  
  76 160 188    74 158 186    76 160 188    80 164 192    81 165 193    79 163 191    76 159 187    75 156 183    78 159 186    84 165 192    89 170 197    76 157 184    73 154 181    82 163 190    86 167 194    85 166 193    88 169 196    89 170 197    83 164 191    83 164 191    82 162 187    82 162 187    85 165 190    88 168 193    90 170 195    89 166 192    87 165 191    90 167 193    91 168 194    92 168 194    92 168 194    93 169 195    97 173 199    95 171 197    95 171 197    94 169 196    91 167 193    92 168 194    94 170 195    92 168 194    94 170 196    93 169 195    98 174 200    95 171 197    91 167 193    91 167 193    87 165 191    86 166 193    89 169 196    92 172 199  
  77 161 189    74 158 186    76 160 188    80 164 192    79 163 191    74 159 187    77 160 188    83 164 191    66 147 174    68 149 176    84 165 192    79 160 187    78 159 186    82 163 190    83 164 191    82 163 190    84 165 192    84 165 192    78 159 186    79 161 188    87 167 192    83 163 188    83 163 188    89 169 194    93 173 198    91 168 194    89 166 192    93 170 196    94 170 197    93 169 195    89 165 191    87 163 190    91 167 193    94 170 196    97 173 199    95 172 197    92 168 194    92 168 194    93 169 195    93 169 195    93 169 195    93 169 195    99 175 201    95 171 197    89 165 191    89 165 191    85 162 188    84 162 190    88 168 195    91 171 198  
  80 164 192    79 163 191    76 160 188    75 159 187    80 164 192    79 163 191    78 161 190    83 164 193    78 159 188    82 162 192    76 157 186    69 150 179    78 159 188    80 161 190    80 161 190    84 165 194    84 165 194    78 159 188    78 159 188    86 167 194    86 165 190    83 160 186    84 161 187    88 165 191    89 166 192    87 164 190    89 166 192    94 171 197    88 166 191    88 165 191    85 162 188    90 167 193    96 173 199    88 164 189    90 166 190    99 175 199    98 174 198    92 168 192    93 169 193   102 178 202    92 168 192    92 168 192    92 168 192    91 167 191    93 169 193    97 173 197    99 175 200    91 168 194    85 163 189    89 167 192  
  80 164 192    79 163 190    78 162 190    79 163 191    81 165 193    81 165 193    83 166 194    84 165 194    77 158 187    79 160 189    82 163 192    78 159 188    78 159 188    78 159 188    79 160 189    82 163 192    83 164 193    80 161 190    80 161 190    88 167 197    92 169 196    87 164 190    87 164 190    88 165 191    89 166 192    86 163 189    87 163 190    91 168 194    89 165 192    90 167 193    87 164 190    91 168 194    94 171 197    90 167 191    91 167 191    95 171 195    96 172 196    93 169 193    92 168 192    94 171 194    96 172 196    98 174 198    99 175 199    96 172 196    94 170 194    93 169 193    92 168 193    89 166 192    86 163 189    91 168 194  
  77 161 189    75 158 186    79 163 191    81 165 193    78 162 190    79 163 191    84 167 195    83 164 193    81 162 191    82 163 192    83 164 193    82 163 192    79 160 189    79 160 189    79 160 189    79 160 189    80 160 190    79 160 189    79 160 189    83 164 191    91 170 196    89 166 192    88 165 191    89 166 192    90 167 193    88 165 191    86 163 190    87 164 190    88 165 191    91 168 194    89 166 192    91 168 195    92 169 195    92 169 193    92 168 192    92 168 192    93 169 193    94 170 194    91 167 191    87 163 187    96 172 196    99 175 199   101 177 201    99 175 199    94 170 194    90 166 190    89 165 190    89 166 192    88 165 191    92 169 195  
  74 157 185    71 155 183    78 162 190    80 163 191    73 157 185    74 158 186    78 161 189    77 158 187    88 169 198    85 166 195    78 159 188    80 161 190    82 163 192    89 170 199    90 171 200    88 169 198    87 168 197    88 169 198    88 169 198    90 169 199    88 165 193    88 165 190    87 164 190    88 165 191    92 169 194    92 169 195    90 167 193    87 164 190    88 165 191    90 167 193    88 165 191    91 168 195    92 169 195    92 168 193    93 169 193    92 168 192    92 168 192    94 170 194    92 168 192    87 163 187    92 168 192    94 170 194    95 171 195    94 170 194    92 168 192    92 168 192    92 168 192    90 167 193    89 165 192    91 168 194  
  75 159 187    73 157 185    78 162 190    80 163 191    71 155 183    72 156 184    76 159 187    76 157 186    87 168 197    83 165 193    77 158 187    80 161 190    81 162 191    76 157 186    74 155 184    72 153 182    72 153 182    75 156 185    77 158 187    75 156 183    84 164 189    88 165 190    86 163 189    86 163 189    90 167 194    93 170 196    90 167 193    87 164 190    88 165 191    88 165 191    86 163 189    92 169 195    92 169 195    89 165 190    93 169 193    96 172 196    93 169 193    93 169 193    94 170 194    93 169 193    95 171 195    93 169 193    91 167 191    89 165 189    91 167 191    95 171 195    97 173 198    92 169 195    90 167 193    87 164 190  
  80 164 192    78 162 190    80 164 192    81 165 192    76 160 188    76 160 188    80 163 191    80 161 190    78 160 188    76 157 186    80 161 190    84 165 194    78 159 188    76 157 186    79 160 189    80 161 190    82 163 192    87 168 197    90 170 200    89 168 198    88 165 193    90 167 193    87 164 190    84 161 187    88 165 191    90 167 193    88 165 191    89 166 192    90 167 193    88 165 191    86 163 189    91 168 195    90 167 193    86 162 187    93 169 193    98 174 198    93 169 193    92 168 192    95 171 195    97 173 197   102 178 202    99 175 199    94 170 194    91 166 191    91 167 191    96 172 196    97 173 198    94 171 197    90 167 193    84 161 187  
  80 164 192    80 164 192    79 163 191    80 164 192    81 165 193    81 165 193    82 165 193    83 164 193    75 156 185    75 156 185    81 162 191    84 165 194    78 159 188    74 155 184    77 159 187    81 162 191    81 162 191    85 166 195    86 167 196    84 165 192    86 166 191    90 168 194    87 164 190    84 161 187    88 165 191    91 168 194    88 165 191    88 165 191    92 169 195    91 168 194    88 165 191    92 169 195    88 165 191    85 161 186    94 170 194    97 173 197    92 168 192    92 168 192    95 171 195    96 172 196    99 175 199   100 175 200    98 174 198    95 171 195    92 168 192    92 168 192    92 168 193    93 170 196    91 168 194    84 161 187  
  77 161 189    77 161 189    75 159 187    76 160 188    82 166 194    82 167 194    81 164 192    83 164 193    80 161 190    79 160 189    79 160 189    78 160 188    81 162 191    78 159 188    82 163 192    86 167 196    83 164 193    83 164 193    82 163 192    79 158 188    85 162 190    89 166 192    87 164 190    85 162 188    91 168 194    96 173 199    90 168 193    88 165 191    94 171 197    94 171 197    91 168 194    92 169 195    85 162 188    85 162 186    94 170 194    95 171 195    90 166 190    92 168 192    95 170 195    93 169 193    90 166 190    95 171 195    99 175 199    98 174 198    93 169 193    88 164 188    86 163 187    92 169 195    91 168 194    85 162 188  
  78 162 189    75 159 187    75 159 187    77 160 189    75 159 187    78 163 190    85 168 196    84 165 194    82 163 192    82 163 192    78 159 188    81 162 191    82 163 192    82 163 192    76 158 186    80 160 190    86 167 196    85 166 195    82 163 192    79 160 187    80 160 185    84 161 187    86 163 189    94 171 197    94 171 197    91 168 194    95 173 198    93 170 196    95 173 199    96 173 199    93 170 196    86 163 189    87 164 190    94 170 195    90 166 190    87 163 187    93 169 193    97 173 197    93 169 193    88 164 188    88 164 188    90 166 190    94 170 194    98 174 198    93 170 193    89 165 189    94 170 195    97 174 200    93 170 196    85 163 188  
  81 165 193    81 165 193    80 164 192    78 162 190    78 162 190    81 165 193    83 166 194    80 161 190    79 160 189    79 160 189    77 158 187    81 162 191    84 165 194    80 161 190    73 155 183    78 159 188    85 166 195    87 168 197    88 169 198    88 167 197    88 165 193    88 165 191    87 164 190    93 170 196    91 168 194    88 165 190    92 169 195    92 169 195    93 170 196    92 169 195    90 167 193    84 161 187    86 163 189    92 168 193    91 167 191    92 168 192    94 170 194    93 169 193    91 167 191    91 167 191    90 166 190    93 169 193    92 168 192    91 167 191    87 163 187    90 166 190    96 172 197    90 167 193    90 167 193    86 163 189  
