P3
50 50
255
  75  83  66    66  70  55    50  54  37    49  55  35    51  55  38    58  65  47    51  58  42    50  56  42    39  42  31    47  49  38    49  47  38    36  32  23    48  41  35    75  68  62   211 205 196   238 234 226    84  80  71    66  63  54   145 145 137    99 100  92    28  30  19    44  46  35    75  77  66    71  72  59    68  70  56    69  71  58    40  40  28    98  98  87   207 207 200   230 230 222   244 243 239   242 241 237   197 196 194   133 132 130   206 205 203   253 253 249   239 239 235   247 246 241   229 230 222   164 164 155   180 180 170   247 247 237   213 210 201   177 175 166   157 154 147    92  89  82    31  28  23    47  44  39   106 102  99    74  71  66  
  44  52  36    44  52  36    31  39  20    30  39  17    40  47  28    52  62  42    53  62  44    49  58  41    52  58  44    43  46  34    36  36  26    29  26  17    49  42  35    57  50  44   148 142 133    79  75  66    70  66  56   237 235 226   248 249 241   216 218 210   120 122 111    61  63  52    81  83  70    42  45  31    34  37  23    31  34  20    33  33  21    74  74  62   132 132 124   159 159 151   159 158 154   154 154 149   171 170 168   228 227 225   231 232 230   231 231 230   235 236 234   239 240 236   204 205 200   159 159 152   176 176 169   207 207 198   217 217 208   207 207 197   228 226 219   231 228 222   192 189 185   159 155 151   156 152 149   146 145 141  
  46  54  38    43  52  36    39  48  28    45  55  33    45  54  34    47  58  37    50  60  41    53  62  45    52  58  44    47  50  37    42  40  31    36  33  24    52  45  37    53  46  38    57  53  44    70  66  57   161 158 147   235 235 225   222 223 215   170 172 164   128 131 120    59  62  51    46  50  36    42  46  32    43  47  32    34  38  23    37  39  26    52  54  42   120 121 113   169 169 163   189 189 184   196 196 192   220 219 216   228 227 225   231 233 231   224 226 224   232 234 231   206 208 204   159 162 156   155 157 149   176 177 170   208 210 200   175 175 166   166 166 157   226 226 219   245 243 238   246 244 240   228 224 221   213 211 209   220 219 215  
  49  58  36    50  59  39    47  54  38    55  62  48    45  52  37    43  50  34    53  60  45    58  64  49    54  57  44    61  60  48    44  41  31    35  29  22    53  45  39    86  79  72    87  84  75   133 132 122   198 199 186   175 176 165   172 172 166    86  86  80    37  38  29    53  56  45    61  65  51    31  37  22    46  50  35    50  54  39    37  39  26    46  46  36   130 127 120   167 165 160   198 194 191   229 226 222   220 216 213   172 171 167   172 175 166   221 224 213   199 202 191   107 110  99    71  77  64    96 100  87   101 103  91   156 158 145    97  97  85   151 150 138   209 207 196   197 194 186   207 204 199   205 204 199   211 211 207   207 207 203  
  63  72  46    51  59  36    42  48  35    50  55  45    43  49  37    42  45  34    55  59  45    61  63  50    55  53  41    51  47  38    45  36  31    46  37  32    47  38  33   103  96  90   234 231 224   199 199 189   157 159 148   214 216 205   142 140 135    20  18  13    35  35  25    67  69  57    49  53  38    85  92  74   133 138 121    79  83  68    51  51  39    52  52  42   127 124 117   196 191 187   211 206 204   209 206 201   214 211 206   187 186 179   128 130 116    92  96  79    97 101  84    63  67  50    54  62  41    76  84  64    66  69  50    56  58  40    80  79  64   100  98  85    77  74  62   130 126 117   188 185 178   195 194 189   216 217 212   234 237 230  
  46  54  30    55  63  42    38  42  28    46  50  40    46  49  38    38  40  30    42  44  31    54  54  42    55  51  42    46  39  31    33  24  19    49  38  34    55  44  42   116 107 102   254 249 243   250 247 238    57  59  48    78  80  69   155 152 144    78  75  66   130 130 118    97  99  85    48  53  33   126 131 111   165 170 150    98 102  85   102 102  90    26  26  16    77  74  67   175 172 165   227 224 219   248 246 241   246 243 238   233 233 223   209 211 197   114 117 100    56  61  41    48  56  35    57  65  44    62  70  49    89  92  73    99 102  83   110 108  93    37  35  22    82  79  67   201 197 188   209 206 199   228 227 222   233 234 229   227 229 223  
  56  61  38    38  45  25    39  43  29    50  53  43    54  57  46    44  46  35    38  38  26    50  48  37    54  50  41    44  35  28    34  23  19    47  35  31    47  35  33   106  95  92   215 207 202   204 198 192   164 163 154    40  39  29    45  41  32   178 174 162   237 235 221   116 117 100    43  47  25    79  84  62    94  98  76    99 102  82   124 125 110    89  89  77    70  67  58   149 146 138   225 223 217   241 240 235   230 230 222   195 197 186   146 150 134   105 110  92    67  75  54    52  60  39    44  52  31    52  60  39    50  53  34    59  60  42    78  76  61    63  61  48   144 139 129   240 236 227   238 235 230   244 240 235   232 231 227   222 222 217  
  84  89  67    28  33  13    35  37  23    41  43  32    46  48  37    42  44  33    41  41  31    53  50  41    54  50  41    40  31  24    39  28  24    53  39  36    46  32  29    61  50  46   102  92  88   165 158 152   184 180 174    59  56  47    65  60  49   145 142 126   140 139 121    81  83  62    40  44  21    43  47  23    56  60  37    59  62  41   121 122 106   183 184 170   124 121 112    78  75  66   149 149 141   183 183 175   196 197 189   196 199 188   130 136 118    69  77  56    42  50  29    50  58  37    44  52  31    40  48  27    42  45  26    29  30  13    40  38  24   105 101  89   119 112 103   191 185 177   227 223 219   235 232 227   237 236 233   221 220 216  
  57  60  40    32  36  17    44  46  32    40  42  29    40  42  30    44  46  35    53  53  43    65  62  54    63  58  51    51  42  36    42  31  26    47  35  30    54  40  36    65  54  49   192 181 177   220 214 208   126 121 115    34  31  22    57  51  39    81  78  61    50  49  31    55  57  35    75  79  56    43  47  22    37  41  18    41  44  23    83  83  68    90  89  76    94  91  82   137 134 127    91  90  84    74  73  68   132 133 126   103 106  95    61  68  50    54  62  41    52  61  40    47  56  35    55  62  42    36  44  23    31  34  16    40  41  25    61  59  46    93  89  78    81  74  66   139 132 124   203 198 194   212 209 204   205 204 202   221 220 216  
  48  51  32    50  53  36    52  54  38    47  49  35    47  49  36    54  56  45    60  61  53    61  60  53    53  48  42    44  37  31    39  30  23    48  37  31    48  35  28    63  53  44   147 138 131   210 203 195   242 240 234   200 197 188    75  70  57    62  59  44    84  81  64   111 110  90   120 122 100    90  94  70   106 109  88    82  83  65    67  65  52   154 152 140   188 185 177   207 204 197   240 239 234   217 218 212   234 235 229   177 180 171   101 108  92    68  76  55    51  59  38    47  56  35    45  53  32    48  56  35    37  40  23    49  50  36    83  81  69    99  95  84   131 124 116   153 146 138   220 215 211   250 250 245   241 240 236   215 214 210  
  51  52  36    57  60  43    53  56  39    40  44  29    57  60  47    52  55  44    50  53  44    49  50  44    41  38  33    36  31  25    41  32  25    51  43  33    54  44  34    67  58  47    30  21  13    18  11   5    88  84  75   147 144 136   130 123 113   113 109  97   106 103  88    61  60  42    64  66  45    79  81  61    86  88  67    71  72  55   158 155 143   193 188 178   175 170 164   241 238 233   239 237 233   246 246 242   142 143 138   143 146 137   109 113  98    50  57  39    44  51  33    37  44  26    48  55  37    62  69  52    31  33  19    32  33  19   110 108  96   187 183 172   124 118 109   112 105  97   103  98  94   115 112 107   210 209 205   247 246 241  
  42  43  27    52  53  37    37  40  23    65  68  54    49  53  40    42  44  35    41  43  36    40  41  35    49  48  43    43  38  32    47  39  29    60  52  40    54  44  30   151 142 127   164 157 142   119 114  98   100  96  84    60  56  49    49  45  35    88  84  74    73  72  59    40  38  23    61  62  45    79  80  63   128 128 111   140 139 124   212 208 196   234 230 221   215 210 204   187 182 177   130 127 123   149 147 143   105 106 101    20  24  15    86  89  75    72  76  60    44  48  31    37  43  26    62  69  52    93  99  84    89  91  77    27  28  15    84  82  70   193 189 178   186 180 171   171 167 158   173 170 163   124 123 118    74  73  68   160 159 153  
  48  46  31    52  51  36    58  60  43    53  55  41    48  51  40    39  41  34    46  47  43    39  39  35    52  50  46    50  45  39    50  43  32    59  50  36    59  49  31   139 129 111   203 195 176   233 228 207   255 252 236   217 215 202   182 178 169   115 111 103    84  81  71    58  56  44    33  34  19    75  76  60   118 116 101   158 156 141   228 224 212   255 253 243   253 250 243   219 214 208   152 149 143   110 110 103    90  92  83    79  82  72   102 104  91    84  87  72    83  86  71    79  83  69    50  55  40    73  78  64    93  95  82    61  62  50    47  44  35   106 103  94   199 195 186   226 223 214   196 195 187   176 177 169   177 177 169   138 139 130  
  32  30  15    78  76  61    77  76  62    48  49  36    65  66  57    38  37  32    43  42  40    44  40  39    48  43  40    47  40  33    56  47  35    48  38  21    57  46  25   139 128 105   208 197 174   168 159 135   150 141 122   201 196 179   247 243 234   237 235 227   223 220 211   158 157 145    46  46  33    33  33  18    28  27  10    54  52  37   114 110  96   181 176 164   250 245 235   250 248 238   241 240 230   178 178 167    97  99  86   111 114 100   158 158 146   173 176 162   119 121 107   125 129 117    70  74  62    60  63  51    66  68  56    73  75  63    52  49  40    27  24  15   102  98  89   161 158 150   185 185 175   196 198 187   200 203 193   171 174 161  
  48  46  31    54  52  37    56  52  40    51  47  36    46  42  36    26  22  19    38  33  34    49  44  44    42  35  33    45  36  29    50  38  26    66  53  34    59  45  22   151 137 110   218 204 177   183 172 146   139 127 104   191 183 165   254 252 241   243 243 235   206 206 196   146 146 134    63  64  49    24  25   7    48  47  29    86  85  67    46  41  25    27  21  13    72  66  54   127 122 110   160 156 144   189 188 173   119 120 104   114 117 101   172 172 160   224 224 212   168 170 159    77  79  68    33  36  25    22  25  14    31  33  22    49  51  40    61  58  49    36  33  24    31  28  19   105 105  95   193 193 183   154 158 144   130 134 120   122 129 113  
  48  45  31    54  51  36    45  39  27    41  34  24    35  27  24    35  30  27    47  38  41    55  46  48    46  36  34    52  41  35    59  45  32    68  51  33    74  58  33   190 175 146   247 232 203   245 230 201   202 186 161   203 192 171   224 220 209   143 143 135    86  86  76    66  68  54    57  60  43    29  30  12    58  58  39   131 130 110   171 166 147   125 119 103    87  80  64    62  56  40    43  40  23    28  27  11    32  34  13    95  96  78   162 160 148   205 205 195   243 245 234   215 217 206    97  99  88    33  35  24    41  42  31    29  30  19    27  24  15    27  24  15    91  89  77   112 112 100   122 122 111   153 156 142   160 164 150   106 112  96  
  64  62  50    30  27  17    42  36  27    35  28  22    48  44  40    45  39  39    41  36  36    43  35  35    42  33  30    45  35  28    60  45  32    70  54  35    77  61  36   146 130  99   189 173 141   198 184 148   144 130  96   111 102  75   185 182 169   197 197 190   174 176 165   125 127 115    54  56  43    44  44  30    93  94  77   108 107  90   110 108  89   166 164 145   203 199 183   215 213 197   176 176 159   165 164 148   114 115 100    55  56  43    57  57  45    77  77  65   140 140 132   151 151 138   138 138 127   106 105  93    77  76  66   118 117 105   122 119 109    91  88  77    76  74  62    46  44  32    40  40  28   152 154 141   187 190 176   137 140 125  
  96  93  84    19  17  11    40  38  33    35  33  30    39  37  34    45  43  41    43  40  37    41  38  33    45  38  32    47  38  29    56  43  30    64  50  32    81  65  40   157 142 111   162 149 114   128 116  76    95  85  41    84  79  42   165 164 145   193 194 184   182 183 172   143 144 133    98  97  86    59  58  46    76  75  61   111 111  94    75  74  56   126 126 108   215 216 200   230 231 216   219 221 209   246 247 237   238 238 233   184 185 178   164 164 154   103 103  90    52  51  42    56  54  41    69  66  55    75  72  60    51  46  35   128 123 112   216 212 201   239 235 224   187 186 175    85  83  71    23  23  11    53  54  42    76  78  65    83  85  71  
  48  44  35    38  36  31    43  40  36    37  34  32    40  37  36    45  41  40    42  39  35    46  43  38    53  46  40    48  38  29    58  46  34    63  50  33   106  89  68   224 209 181   235 226 193   181 169 131   124 115  73    74  69  29    71  71  38   104 105  79   168 169 143   112 112  89    69  67  46    52  50  28    70  68  48    79  77  55    76  74  54    94  92  73   204 202 186   245 244 231   231 229 219   238 237 232   253 252 252   221 220 219   184 183 178   210 209 202   192 189 182   206 204 197   167 164 155    77  74  66    91  86  77    79  74  65    67  63  53    90  86  75   148 147 135   109 107  95    17  17   5   103 103  91    94  96  82    18  20   6  
  37  30  20    34  29  23    30  25  22    39  35  34    35  30  30    35  31  30    47  42  39    46  41  38    44  36  33    55  44  38    65  52  43    65  51  38    98  81  62   195 179 156   241 228 199   241 231 196   168 160 122    92  87  49    79  76  41   117 117  83    63  62  31    67  64  35   103  99  72    98  94  69    52  47  25    73  68  46    75  68  49    99  94  75   157 152 137   249 245 233   253 252 243   240 235 231   244 238 239   251 251 251   224 224 221   206 205 203   234 231 229   253 249 246   183 179 175   126 123 117   240 235 231   238 237 230   103  98  92    99  95  86    98  95  86    42  40  28    48  48  36    54  54  42    43  45  31    42  44  31  
  36  29  19    35  30  24    24  19  16    34  29  26    34  28  28    38  32  32    45  40  37    38  32  29    37  29  26    56  45  42    70  57  49    75  61  50    83  65  52   172 155 138   222 207 185   225 214 187   181 172 141   169 163 131   135 130 106    57  52  32    37  31  13    94  87  71   152 144 131   166 158 145    84  76  63    93  85  72    92  82  70   112 104  91   125 117 106   164 156 144   151 142 135   213 206 200   251 249 245   250 244 244   244 240 241   218 216 217   234 232 233   233 232 230   165 161 160   186 182 179   242 238 235   250 247 242   130 127 120   166 163 154   252 251 243   208 205 196   136 136 124    55  55  43    39  40  26    40  41  27  
  22  13   7    44  37  31    38  30  27    31  25  22    40  33  33    47  40  40    39  33  30    38  30  28    47  37  36    52  41  40    67  53  48    62  47  40    63  46  36   156 140 125   208 195 177   228 215 193   214 204 179   171 164 137   157 151 128   150 145 124   103  95  78    58  50  36    61  51  39   142 132 121   140 129 118    68  58  46   106  95  82    98  87  74    99  88  75   113 102  89   137 127 116   186 176 166   199 189 181   222 214 209   246 243 241   243 240 240   223 221 221   229 227 225   230 227 225   222 219 216   228 225 221   249 247 242   230 227 222   193 191 184   198 195 188   234 234 225   134 134 124    94  93  82    85  84  72    63  64  51  
  20  11   7    36  28  22    44  36  33    38  30  28    40  32  30    43  35  33    42  34  32    46  38  36    54  44  43    57  46  44    62  48  45    64  49  44    46  29  22    66  50  43   118 104  90   152 140 122   173 162 142   161 153 130   164 158 133   228 222 198   217 210 190   153 145 127   113 104  89   103  94  79   153 141 127   100  88  73    83  72  55    95  84  66    98  86  68   106  95  76   153 142 124   199 190 173   180 171 155   166 158 144   195 191 183   248 244 238   249 245 240   234 231 226   214 212 208   186 185 181   235 234 228   251 250 244   229 228 223   248 247 241   160 160 152   148 148 139   193 190 181   176 174 163   187 185 174   152 151 139  
  21  12   4    32  24  19    41  33  30    45  37  35    41  35  32    38  32  28    42  36  32    48  41  38    51  41  40    56  45  43    62  48  45    64  49  44    76  59  52    59  42  36    28  14   9    51  39  24    47  35  25    51  43  33    67  60  44    99  92  77   132 124 111   161 152 141   186 176 165   161 151 140   179 167 154   200 188 172   130 119 100    59  49  25   112 103  78   133 126  97   113 106  77   173 166 137   211 204 176   174 168 142   139 135 118   159 156 142   232 229 218   202 200 189   187 185 175   159 157 147   215 215 206   191 191 182   119 119 112   199 199 192   234 234 227   126 126 118   172 169 161   247 246 238   211 206 199   195 192 182  
  91  83  72    61  55  47    28  21  15    39  33  30    38  33  28    35  30  26    38  33  29    45  40  36    46  38  35    53  42  38    79  65  62    42  27  22   130 113 106   214 197 189    32  18   8   100  88  74   219 207 192   166 157 143   140 132 119   106  98  87    35  26  17    20  12  12    31  21  17    32  22  16    51  39  27    88  76  60   149 138 118   101  94  68    75  68  40   145 138 109   155 149 119   158 153 123   177 172 142   170 164 138   110 104  82    77  72  53   162 157 138   185 183 166   200 197 182   216 214 201   161 162 148    78  78  67   130 130 120   160 160 152   226 226 218   241 241 233   128 125 118   187 185 178   239 234 228   196 193 186  
 210 202 189   136 129 119    12   6   1    37  33  27    45  40  34    43  40  33    41  38  31    46  41  35    46  39  33    58  47  42    59  47  40    44  29  22   112  96  88   255 246 238   185 171 160    32  20   6   199 187 171   254 253 234   254 249 227   212 204 183   202 194 174   182 173 155   135 125 108   113 104  87   102  90  74    38  26  16    33  25  15    48  40  21    23  15   6    50  43  25    93  86  70    78  70  59    86  77  68    93  84  72    86  78  57    68  60  36   115 107  86   192 185 165   244 241 222   186 185 167    73  73  59    61  61  49   192 192 182   172 172 162   215 215 207   243 243 235   236 233 226   146 143 136   128 123 116   241 238 231  
 229 219 201   113 106  91    12   8   3    33  31  23    44  42  34    38  36  28    47  45  37    45  42  34    48  42  33    54  46  38    52  42  33    55  42  32   113  99  89   228 212 200   218 205 191   110  98  81    51  39  23   194 186 165   248 241 215   219 211 183   193 182 157   189 182 155   206 195 171   247 236 211   240 229 204   200 191 162   203 193 164   177 171 144   128 121  95    69  63  39    52  46  24    36  29  16    37  31  16    45  38  21    65  54  33    59  47  24    45  34  15    85  77  56   142 137 118   100  97  80    52  51  37    75  74  62    91  91  81    86  86  76   175 175 166   194 194 185   215 211 204   129 126 118    79  74  67   131 128 120  
 197 187 164    74  66  47    35  32  20    37  38  27    41  42  31    29  30  19    40  40  30    38  37  26    49  46  34    53  47  34    56  46  35    56  44  31   136 123 108   134 121 105   117 104  86   247 240 221   152 141 122    39  30  19   170 159 136   225 213 188   172 158 134   175 163 136   210 198 169   238 227 195   206 195 160   203 194 154   212 204 161   217 214 170   188 183 140   170 165 123   142 137  99   145 141 106    97  93  61    59  53  24   101  88  64   114  98  78    42  28  15    52  40  23    65  57  41    53  47  32    57  54  42    62  60  48    45  45  35    35  35  25    77  77  67   101 101  91   105 102  93    49  46  36    78  74  64   113 110 100  
 107  96  69    52  44  22    51  49  35    44  46  35    42  44  31    35  39  26    31  32  20    31  31  19    40  38  25    47  41  27    62  54  39    48  36  21   112  99  82   121 107  89   156 142 123   190 181 160   196 185 164   116 106  90    34  22  15   107  90  72   228 212 192   226 210 188   197 182 156   200 188 155   153 139 102   184 173 131   199 189 143   146 139  90   129 123  73   130 126  78   131 127  83   168 165 124   156 153 116   170 164 132   182 166 146   138 120 105   118 101  88    82  66  55    66  55  44   118 110  99   154 148 137   186 183 173   190 190 181   133 133 125    62  62  52    45  45  35    67  64  53    34  32  19    44  40  28    54  52  39  
  71  62  33    53  47  21    62  63  47    47  50  37    39  43  29    57  61  47    50  53  40    59  61  48    49  47  34    38  35  20    48  41  23    47  38  19    25  14   7   107  95  72   184 172 147   167 156 129   169 158 129   184 173 146   157 145 125    52  37  18    65  48  32   176 160 143   172 157 136    92  80  53    95  84  52   181 173 135   221 216 173   137 133  88   101  97  52    88  85  41    86  82  43   104 100  63   122 116  80   201 192 163   250 239 223   244 236 225   244 232 221   191 173 163    91  78  67    54  44  34    79  71  60   155 148 138   253 250 239   247 246 235   155 152 143   192 190 178   229 227 215   166 162 151    81  77  66    18  16   4  
  96  95  65    42  45  18    53  58  38    44  52  37    48  56  41    63  69  55    84  90  78    91  95  81    51  52  38    53  51  36    57  52  33    48  42  19   116 107  82   133 122  94   108  95  61   112  98  61   106  92  52   117 105  64   152 144 107   116 109  79    56  45  25    47  35  19   112 102  90    67  60  44    46  44  20    88  90  59   119 126  90    97 106  69    72  79  45    77  80  50    97  97  67    97  92  63    90  81  50   154 140 113   235 216 201   243 221 210   242 220 209   253 248 233   225 207 192    96  80  64   106  93  77    76  64  48   103  94  78    97  89  76   147 140 128   242 235 225   247 240 234   246 241 238   120 115 112     9   4   2  
  52  55  26    46  51  23    43  52  30    46  56  39    53  62  44    51  59  44    58  63  49    61  65  51    55  57  43    70  68  53    75  72  53    49  43  22   196 188 164   230 219 190   185 172 138   192 178 140   159 142 101   145 132  88   109 102  60   126 122  85   101  94  69    65  58  40    44  38  25    42  39  23    32  34  13    49  55  27    50  61  29    58  71  39    67  77  50    78  84  58    82  82  58    97  92  65   100  88  58   136 120  92   177 158 138   209 188 170   237 218 198   235 217 197   245 231 209   173 156 135   162 148 125   211 198 178   149 138 119   112 103  86   138 130 116   189 182 172   179 172 165   122 117 114    43  37  38    69  65  64  
  46  50  24    47  54  24    49  57  33    49  58  38    50  57  39    49  56  39    58  62  47    55  58  44    63  65  51    68  66  51    72  67  51    72  65  46   201 193 170   223 212 185   169 155 125   228 213 178   238 221 185   185 172 132   160 153 111   194 190 153   182 177 148   108 103  81    57  53  34    31  30  10    27  29   7    46  52  24    67  76  46    68  78  50    66  74  51    79  83  61   105 104  81   115 110  81   116 105  71   154 139 104   227 210 179   238 219 190   193 176 147   190 173 144   205 193 164   200 185 158   166 152 126   194 183 158   173 162 142   210 202 184   230 223 208   239 233 222   134 128 121    17  12   9   118 113 112   237 233 229  
  59  64  41    73  79  52    63  71  48    55  63  41    45  50  31    43  48  30    51  54  39    44  46  32    60  61  47    61  60  45    58  52  36    73  66  48   172 164 142   218 206 181   192 178 151   202 187 156   228 212 179   238 225 189   165 159 118   127 125  86   142 138 106    82  81  54    58  56  33    63  63  40    43  45  21    29  35   8    49  58  32    64  72  48    88  94  73    92  95  74   111 109  86   119 113  84   147 138 100   179 165 125   221 206 166   221 202 164   198 182 145   168 152 117   148 133 100   145 131 102   108  94  68   144 133 110   208 197 179   200 193 176   186 178 166   117 110 101    28  24  22    70  65  62   237 233 232   210 208 203  
  50  54  38    83  88  67    83  88  68    73  78  58    49  53  36    40  44  27    43  45  31    40  41  27    55  53  40    61  58  43    54  48  34    58  51  33   183 172 152   191 179 155   195 181 155   201 186 156   203 186 155   227 214 180   176 171 133    83  83  45    93  93  59   142 143 111    95  95  67    72  75  48    44  48  23    27  32   8    34  39  19    39  44  26    72  76  58   103 103  84   138 133 111   124 117  88   150 142 103   193 180 136   238 223 182   237 219 181   215 197 161   247 232 199   203 187 156   107  91  65   120 105  81   227 214 195   239 227 211   178 169 156    88  80  69    12   6   5    58  51  44   141 136 130   136 131 125    70  66  56  
  34  36  25    47  49  39    74  76  64    77  79  65    54  56  42    39  41  27    39  39  28    45  45  33    49  47  34    57  54  39    65  59  44    44  37  19   164 153 133   197 185 161   199 185 159   188 173 144   173 156 126   190 177 143   160 156 119   101 101  64    81  81  47   114 115  83    62  62  34    33  36  10    35  38  15    38  41  22    58  60  46    47  49  36    37  35  23    62  58  43   100  94  72    93  84  55   127 117  79   212 198 160   239 220 189   232 211 187   223 203 180   239 228 206   192 174 154   115  97  80   178 162 146   189 176 160   166 154 140   155 146 131    31  22   8    20  13   9   176 169 151   200 195 175    75  70  50    66  61  38  
  35  33  28    39  37  34    46  46  39    60  61  52    49  50  41    34  36  26    28  27  18    38  36  25    42  38  27    57  53  41    64  57  41    68  61  43   101  90  69   138 128 103   193 179 153   185 171 142   169 154 123   186 173 141   164 160 125   119 119  84   108 108  74    55  56  24    48  50  20    88  90  64    80  83  63    47  49  33    59  58  47    67  66  57    50  45  34    50  43  29    55  46  25    60  50  22    81  71  36   127 114  79   157 137 109   146 124  99   140 119  96   118  97  76   112  91  73   160 141 125   152 133 118   170 154 139   222 208 192   147 135 118    16   4   1   140 131 110   226 218 194   166 160 133   127 122  92    83  77  46  
  59  52  48    40  34  32    30  27  24    35  34  30    43  42  38    42  41  36    36  33  27    38  35  27    45  41  31    61  57  45    67  61  45   127 120 101   147 138 115   111 101  74   204 192 164   183 169 140   158 144 113   222 210 178   175 170 136   133 132  98   110 108  75   106 106  75    93  95  66    56  58  37    57  58  41    37  36  23    48  44  36    85  79  72    70  60  51    46  35  21    61  49  29    89  77  52   111  99  70   165 151 120   219 201 168   229 209 176   224 203 173   206 186 159   210 189 165   234 216 193   235 217 197   246 229 210   200 185 166    37  24  14    67  56  44   204 192 168   214 205 177   203 195 164   174 167 133   113 104  69  
  56  46  37    33  25  21    32  28  25    27  24  22    40  36  35    37  34  31    40  37  32    42  39  32    53  49  40    58  55  42    57  51  35    83  76  57    89  81  60    86  76  50   173 162 135   177 165 136   150 138 108   200 189 157   216 210 176   168 165 130    75  72  39    82  81  50    68  68  42    37  37  18    97  96  82   116 112 103    77  69  63   150 141 131   171 160 147   117 104  86    69  56  35    81  67  45   103  91  70   158 144 117   213 197 163   229 213 173   215 196 160   213 196 164   217 200 169   202 186 156   240 225 198   221 206 179    75  61  36    30  17   1   189 178 149   232 221 189   204 195 160   236 227 190   218 209 169   169 160 120  
  99  90  75    33  24  16    46  41  38    27  23  22    32  28  27    33  29  26    40  37  32    49  46  39    58  54  43    53  49  37    41  35  19    62  57  38   100  93  71    60  51  28   121 114  88   160 150 123   117 105  79   182 173 142   247 238 205   169 164 129    63  59  25    64  61  30    70  68  43    89  86  67   172 168 156   180 173 163    78  68  58   144 132 119   220 207 188   181 166 144   106  91  69    91  76  55    94  80  64   102  89  71   113  99  71   172 157 125   190 175 143   152 137 107   143 129 100   111  97  68   151 137 110   119 105  76    22   9   1   108  98  64   205 195 160   187 178 138   199 190 147   244 236 190   215 207 159   207 199 152  
  67  59  40    40  32  20    49  44  40    32  28  25    30  26  23    39  36  30    39  36  29    57  54  44    58  56  44    54  52  39    47  44  27    84  80  61   145 140 121   137 130 111   154 146 125   170 162 140   125 114  92   191 181 154   180 171 138   104  96  59   105 101  64   106 103  70   110 108  83   152 148 129   213 207 195   209 201 190   121 109  94   152 139 119   222 206 179   132 116  87   132 118  90   175 160 139   154 140 128   167 154 145   179 166 158   184 173 161   192 180 169   164 152 139   110  99  83    94  83  66    91  78  60    20   8   1    35  24  11   108 100  64   171 164 123   180 173 128   176 170 119   180 175 120   155 151  91   192 187 131  
  65  57  36    46  38  25    50  46  37    35  32  26    29  26  18    34  32  23    37  35  25    53  52  40    55  53  40    56  54  41    40  37  22    80  77  61   176 170 154   225 220 202   155 148 131    90  81  65   210 201 184   202 192 168   164 153 118   195 185 146   193 187 148   174 170 137   117 113  88   175 170 150   204 196 184   214 203 191   137 124 105   110  96  69   194 179 144   190 175 138   200 185 153   172 157 135   163 148 140   193 180 176   216 206 202   233 224 218   241 232 226   239 231 223   232 223 214   132 124 112    55  47  35    28  20   6   168 161 138   206 201 176   119 113  84   133 128  94   203 195 158   197 192 151   182 176 134   156 150 106  
  83  76  53    46  40  27    49  46  34    33  30  21    31  28  19    38  37  25    60  60  47    69  70  56    62  60  47    54  52  38    41  38  23    97  94  79   211 205 191   240 237 224   172 164 152    54  46  34   195 188 177   244 237 218   217 206 174   202 189 152   217 209 172   215 211 178   119 114  90   196 191 172   185 177 161   175 163 146   131 116  93    77  62  31   183 166 127   229 214 172   211 196 162   181 167 142   211 197 187   203 192 186   206 198 189   229 224 211   229 224 211   201 196 183   210 205 194    88  83  71     9   2   1    82  75  62   244 239 225   230 227 213   194 186 172   169 161 146   147 139 123   179 172 154   161 153 136    98  91  67  
  51  46  24    57  53  41    48  45  37    46  44  38    53  52  44    63  64  53    71  73  59    67  67  52    51  49  34    58  56  41    62  58  43    80  75  61   143 136 124   191 185 175   117 110 100    59  52  42   111 104  95   139 133 120   181 171 149   161 150 122   181 174 143    94  89  59    70  65  45   185 180 161   174 166 140   145 135 106    77  63  35    53  38  10   209 191 152   243 228 186   178 164 129   155 143 114   197 189 165   203 196 178   220 216 200   231 229 212   188 185 169   159 156 139   108 105  88    32  28  13    23  18   4   105  99  83   199 195 179   188 183 166   141 134 120   176 169 155   184 177 162   196 190 177   110 104  91    40  36  20  
  42  37  15    55  53  40    48  47  42    40  41  36    50  51  43    53  55  44    42  44  30    46  48  31    52  51  33    63  60  43    77  71  57    53  47  33    36  28  17    41  33  23   103  95  86   190 183 173   140 133 124    69  63  49    58  49  32   134 126 103   183 177 151    88  84  56    41  36  14   124 120  94   162 158 122   179 171 132   126 113  82    74  59  27   178 163 124   254 252 213   217 202 171   145 134 106   118 111  82   226 222 195   153 151 130   151 150 130   200 197 178   155 152 134    59  57  36    24  21   1    60  55  35    75  70  50    91  86  66    93  88  68    88  83  65   151 146 127   145 139 123   148 142 127    88  82  68    33  31  16  
  38  37  16    57  55  42    45  45  37    33  34  25    38  40  29    36  40  26    41  43  29    51  54  37    61  59  42    59  56  39    68  62  46   114 106  93    74  64  52    18  10   2    68  59  47   143 137 123   106 100  84   127 122 101   171 166 137   205 201 171   166 162 133    94  93  63    42  42   8    97  95  57   147 143 105   168 163 125   225 214 182   156 141 107   159 144 103   250 241 204   244 229 206   186 175 157    61  53  30    91  86  64    60  58  38   116 115  95   189 186 167    62  59  40    27  22   2    68  63  43   177 170 151   181 174 155    79  71  53    46  39  20    49  42  24    92  85  67   130 123 105   122 117  98    58  52  36    25  21   7  
  34  34  13    48  49  35    37  39  28    40  42  30    39  43  29    37  41  26    57  59  45    55  58  41    58  56  41    63  60  44    28  22   6   160 152 136   212 202 187    80  71  55    49  40  26    49  43  24   114 107  87   124 120  95   125 121  93   121 118  90    55  53  32    65  64  35    80  80  44    99  99  61   100  98  59    68  64  26   102  93  54   104  92  52   107  95  53   206 192 155   206 193 166   213 202 179   161 154 130    80  74  52    46  42  23    68  67  50    52  49  31    38  35  16    57  52  33    66  60  40    91  84  65    94  86  67    46  38  19    32  25   7    86  79  61   122 115  97   181 174 156   228 220 203   196 188 172   122 116 100  
  51  54  34    51  53  39    41  44  30    39  43  29    41  45  30    43  47  32    48  50  36    44  46  31    56  54  40    59  56  41    49  42  26   167 158 142   172 161 144   168 159 139   138 129 107    40  33   9    62  56  30    78  74  48    72  69  47    45  43  23    14  13   1   115 114  91   187 188 158   124 125  91    76  75  39    89  85  47   151 144  99   165 156 110   101  91  51   194 183 146   235 226 188   236 227 192   229 221 192   139 133 108    41  36  17    28  25  11    31  28  10   112 108  89   195 191 172   184 180 161   118 110  91   119 111  92    65  57  38    71  63  44    66  58  39    91  83  64   124 114  97   156 147 130   177 168 151   176 169 152  
  61  64  46    64  67  53    51  55  39    42  46  29    36  40  25    42  46  31    40  42  28    43  43  31    50  48  36    39  34  21    49  39  26   228 217 200   226 213 194   114 104  82    85  75  49    38  31   3    51  46  16    55  51  24    38  36  20    47  47  33    48  48  34   105 105  86   166 165 142   118 118  90    63  63  33    96  93  57   162 157 110   193 187 139    93  85  47   133 123  88   230 221 178   198 189 147   133 124  91    65  59  32    37  32  12    45  42  23    66  62  43   147 142 123   227 222 203   247 242 223   227 219 199   194 184 165   130 120 100   117 107  87    91  81  62    69  59  39    64  51  35   134 124 106   212 201 184   216 208 191  
  53  57  40    63  67  50    53  58  38    59  63  46    36  40  25    34  38  24    38  40  29    43  43  33    39  35  26    34  27  17    40  30  18   113 101  85   121 108  89   103  91  67    39  29   2    78  71  42   194 189 157    91  87  60    21  19   4    50  50  38    52  52  40    43  44  28   128 127 106   213 213 187   150 148 123    79  76  44   111 108  64   154 150 105    95  89  54    69  60  29   188 180 140   155 145 108    59  51  21    27  19   1    26  21   1    69  67  46    60  55  36    97  92  72   183 176 157   216 208 187   230 219 199   218 207 187   119 108  88   100  89  69   133 120 101   115 103  84   150 137 118   114 101  84   110  99  81   200 192 173  
