P3
50 50
255
  24  20  21    46  42  43    67  66  64    70  69  65   114 113 108   117 116 111    61  60  56    49  48  44   166 165 161   151 150 146   163 162 158   103 102  98    71  70  66    80  79  75    34  33  29    27  26  22    27  26  22    47  46  42   108 107 103   101 100  96    49  48  44    73  74  69    77  80  73    46  51  44    26  29  22    44  47  40    40  43  36    43  46  39    31  34  27    33  36  29    39  42  35    41  44  37    40  41  35    34  35  29    33  34  28    40  41  35    29  30  24    40  43  36    40  45  38    50  55  48    66  71  64    82  87  80    71  75  67    90  93  84    54  57  48    14  17   8    37  40  31   113 116 107    70  71  65    32  33  27  
  53  48  49    32  28  27    40  39  37    80  79  74    62  62  56   156 156 148   167 166 162    29  28  24    14  13   9    72  71  68   156 155 151    94  93  89   155 154 150   190 189 185    69  68  64    23  22  18    34  33  29    45  44  40    30  29  25    41  40  36    55  54  50    38  39  34    30  33  26    39  44  37    48  51  44    40  43  35    45  48  41    42  45  38    43  46  39    40  43  36    40  42  36    38  41  34    56  57  51    72  73  67    51  52  46    56  57  51    41  41  36    52  53  47    51  54  47    35  40  33    63  68  60    71  76  68    62  65  56    35  39  30    29  32  23    35  38  28    63  66  57    72  75  66    65  65  59    89  90  84  
  55  51  51    42  38  37    40  39  36    46  45  40    32  32  25    53  54  46    74  73  69    79  78  73   108 107 103    69  68  66    29  28  25    36  35  32    95  94  90   160 159 155    64  63  59    34  33  29    87  86  82    47  46  42    35  34  30    33  32  28    33  32  28    36  37  32    35  37  31    45  48  41    55  58  52    48  51  44    46  48  42    41  44  37    46  48  42    46  49  42    33  34  29    47  49  42   102 103  98    71  72  66    47  48  42    48  49  43    41  41  36    68  69  63    59  62  55    36  40  33    52  56  47    40  44  35    35  38  29    68  71  62   147 150 140    92  95  85    76  77  69   111 112 105   119 118 113   127 126 121  
  84  82  79    69  67  64    40  37  32    78  76  71    64  62  54    52  52  44    73  73  64   122 122 115   200 200 195   198 198 198    82  82  83    18  18  17    50  50  46   152 152 147    84  85  78    43  44  37   155 156 151   112 112 109    40  39  37    24  25  20    28  29  23   110 111 105   133 134 129    97  98  92    75  76  73    50  51  46    33  35  31    41  43  38    44  48  44    44  49  43    76  80  76    93  97  91   106 111 106    52  54  49    36  38  34    32  34  28    40  42  38    40  41  36    38  40  33    32  34  28    36  38  31    47  49  42    79  80  73   184 185 179   218 219 212   101 103  96   115 116 109   160 161 155   110 110 107   143 142 140  
  65  64  60    69  68  63    31  27  22    81  78  73   123 120 113   133 133 125   169 169 159   200 202 191   209 211 206   201 201 199   194 194 194   173 173 173    87  87  85    19  20  15    93  94  87   152 153 146   153 154 148    97  98  94    82  83  79    71  72  67    41  42  36    73  74  68   186 188 183   241 241 239   111 111 109    37  37  35    54  56  53    21  23  20    27  32  28    60  65  61    86  92  88    26  32  27    50  55  51    84  89  85    39  41  38    26  28  25    48  50  47    39  41  36    44  43  38    43  43  36    47  46  41    40  40  32    65  66  60   100 101  93    69  70  64    54  55  49   148 149 143   213 215 210   226 226 225   212 212 212  
  33  32  28    19  18  14    38  34  30    49  47  42    48  45  40    97  96  91   166 164 160   219 220 214   238 240 231   244 245 239   238 239 234   235 235 232   107 107 107    21  21  22    39  39  37    71  72  67    36  37  29    45  47  36    77  79  68    90  91  82   102 103  99    33  33  31    62  61  57   142 141 137    68  69  64    69  70  65    78  80  75    27  29  24    37  41  35    57  62  56    65  70  64    53  58  53    47  52  46    56  61  55    41  43  38    38  40  35    32  34  29    32  34  29    34  34  26    41  41  31    42  42  34    41  41  31    43  43  35    75  75  65   127 128 120   140 141 133   193 194 186   252 252 246   243 243 239   221 221 219  
  73  71  69   157 155 151    86  82  80    73  70  65    73  69  65    71  68  63    60  59  55    61  62  56    89  90  82   108 109 102   107 107 101    61  61  57    32  32  34    41  40  43    36  36  38    42  42  37    37  37  29    43  44  31    92  93  80   108 110  99   135 134 133    92  91  89    51  50  46    42  41  37    52  53  48    56  57  51    33  35  30    58  60  55    53  55  49    40  45  39    62  66  60    52  57  50    34  38  32    29  33  27    32  34  28    31  33  28    37  39  33    41  42  35    46  46  38    42  42  31    33  33  23    43  43  32    71  71  60    96  96  86   124 126 114   183 185 174   219 220 211   175 176 168   126 127 121    70  71  66  
  73  69  68   140 136 134   132 128 126   175 171 168   202 197 194   196 192 187   195 194 190   174 174 170   144 143 138    98  97  92    97  96  93   105 104 103    45  43  46    36  34  36    41  39  41    44  43  39    44  44  36    54  54  43   118 118 107   146 146 137   130 129 126    93  92  89    64  63  59    62  61  56    58  59  53    29  30  24    41  42  36    96  98  92    62  64  58    38  41  34    46  49  42    39  42  35    25  28  21    35  38  31    34  37  30    36  39  32    42  43  37    40  41  33    86  86  76    84  84  72    48  48  36    54  54  42    65  65  53    74  74  62    80  82  69   109 111  98   121 123 112    95  96  87   135 136 128   127 128 121  
 177 173 174   100  97  95   181 177 176   243 241 238   245 240 237   238 233 229   255 253 247   246 244 240   212 209 207   209 205 207   227 223 227   136 132 136    17  13  15    35  32  30    51  47  45    44  42  37    29  26  21    41  39  34    65  62  57    76  74  68    71  69  64    68  66  59    56  55  50    61  60  55    43  43  38    37  36  31    38  38  32    45  46  40    44  45  39    40  42  36    38  40  33    41  42  36    35  37  30    49  50  44    44  45  39    52  54  48    73  74  68    75  77  69    83  83  73   122 122 111    94  94  83    60  60  50    59  59  48    56  56  45    24  25  14    29  30  19    90  91  82   130 132 123    85  86  78    61  62  54  
 249 245 246   215 211 212   163 159 158   217 213 212   211 206 203   242 237 233   228 225 218   207 204 199   236 232 233   205 200 206    78  72  81    36  31  38   119 115 116   151 147 144   172 169 164   183 180 175   126 122 118    50  46  45    38  34  33    44  40  36    50  47  40    46  43  36    58  57  52    51  50  45    42  40  35    59  58  53    72  71  66    58  57  52    50  49  44    42  43  37    38  39  33    40  41  35    45  46  40    62  63  57    79  81  74    56  57  51    69  70  64    72  73  67    49  49  40    88  88  78    83  83  75    56  56  48    36  36  28    36  36  27    53  53  45    51  51  43   103 104  96    65  66  58    12  13   7    43  44  38  
  28  25  25    47  42  43    25  19  19    27  21  21    54  48  48    66  61  58    42  39  32    81  78  73   123 119 121    54  49  55    11   8  15    55  50  56   147 143 145   139 135 132   137 134 129   156 153 148   146 142 141    56  52  53    39  35  36    44  41  39    48  45  40    52  49  42    52  49  44    42  39  34    57  54  49    71  68  63    66  63  58    58  55  50    67  64  59    67  65  60    52  51  46    41  40  35    48  47  42    49  48  43    49  49  43    30  31  25    87  87  82   130 131 125   112 111 106    74  71  64    62  61  56   109 108 103    51  50  45    53  52  47    69  68  63    69  68  63    51  50  46    74  73  68    86  87  82    34  34  29  
 118 114 115   117 113 114    78  73  73    42  36  36    44  38  38    71  65  63    51  48  48    57  54  50    78  74  74    96  91  94    96  92  96    85  80  86    86  81  85    28  24  26    46  42  41    73  69  68    39  36  35    65  62  59    84  80  78    51  47  46    50  46  44    56  52  51    56  53  48    51  48  43    45  42  37    47  44  39    52  49  44    50  47  42    61  58  53    62  59  54    50  47  42    49  47  42    38  37  32    57  56  51    87  86  81    94  94  89   102 102  97   122 121 116   166 163 158   107 103  99   113 111 108   184 182 179   152 150 147    98  96  93    71  70  67    48  47  43    45  44  43    83  82  79    78  78  74    57  57  53  
 160 156 157   188 184 185   240 236 236   153 147 147    95  89  89   171 165 165   166 162 162   179 175 174   233 230 227   201 198 195    98  94  93   134 129 132   155 150 156    97  92 100    94  89  94   122 117 120   115 111 108    87  84  78   138 134 130   106 102 101    47  42  46    69  65  68   103  99  97    56  53  48    49  46  41    53  50  45    52  47  43    60  55  51    59  54  50    56  52  47    59  55  51    53  50  45    44  41  36    31  29  24    65  63  58    82  81  76    67  66  61   130 129 125   194 190 188   210 206 204   112 108 107    90  86  85   140 136 135    91  87  86    51  49  49    47  46  45    54  52  53    58  57  55    64  63  61   102 101  98  
 209 204 204   149 144 144   156 151 151   212 206 206   114 106 105    93  87  85    73  69  69    91  89  86   133 132 127   151 149 144   143 141 137   129 127 128   117 114 121   187 184 193   200 196 203   127 124 127    75  73  69   121 120 114   192 191 187   168 166 164    97  95 100    81  78  83    75  71  70    64  60  57    71  67  64    64  60  56    54  49  46    36  31  28    57  50  48    59  54  51    80  75  71    99  94  91    79  74  70    63  59  56   130 126 123    82  79  75    17  16  13    50  49  45    90  86  85   106 102 101    60  56  55    22  18  17    39  35  36    36  32  33    21  19  20    32  30  31    28  26  26    34  33  31    72  71  69   122 121 117  
 253 247 247   241 235 235   165 159 159   138 133 133   109 101  99   168 163 160   186 182 179    59  58  54    28  27  22   136 135 131   205 204 202   193 191 194   208 206 211   222 220 225   239 237 242   194 192 195   180 179 176   202 200 198   158 157 155   148 146 147   143 141 146   116 114 119    68  63  63    59  55  52   146 141 138    94  89  86    95  90  87   133 128 125    75  67  65    53  45  43    46  41  38   113 108 105    94  89  86   108 103 100   162 158 155    92  88  85    90  89  85    38  37  33   177 173 172   141 137 136    87  83  82    80  76  75   107 103 104   101  97  98    28  26  27    22  20  19     6   6   4    15  14  10    33  32  28    63  62  57  
 144 137 137   169 163 163   207 202 199    55  50  47    10   4   4   126 121 118   149 146 139   163 163 155   181 180 178   127 125 126   184 182 185   234 232 237   244 242 245   242 240 240   212 210 210   202 200 201   208 205 209   203 201 206   200 197 202   213 210 215   197 195 198    63  61  62   135 130 130   118 114 113    64  58  58    82  76  76    94  85  86   204 195 196   186 177 178   100  91  92    68  59  60    37  29  29    38  32  32    42  37  37    29  25  24   113 109 108   237 237 235   128 127 125    37  33  30    49  45  42    71  68  65   171 167 165   244 243 242   250 246 245   125 121 120    35  31  30   116 114 112    72  71  67    25  23  19    42  41  36  
 219 213 213   188 182 183   197 192 192   167 162 159    89  83  83    86  81  79   156 153 147   214 213 206   226 224 222   222 219 221   204 202 206   184 182 184   159 157 158   145 143 142   159 157 156   199 197 198   202 197 203   211 206 212   179 173 180   152 147 154   218 213 218   166 161 163   177 173 173   251 246 245   118 111 112   117 110 111    68  59  61   156 148 149   208 198 200   187 177 179   134 125 129    91  82  83    95  89  89    81  75  76    51  46  46    31  27  27    59  58  56   126 124 122   115 111 111    62  57  57    41  37  37    79  75  74   123 119 118   167 162 161   104  99  96    53  49  45   173 170 165   125 123 118    25  24  18    34  34  28  
 220 216 217   229 225 226   248 245 246   219 215 215   211 207 208   155 151 150   122 118 116   228 224 220   226 222 219   240 236 234   232 229 229   211 207 207   185 181 182   178 174 175   195 190 192   184 178 182   168 161 168   177 170 177   146 137 145   158 150 157   203 194 202   136 129 135   132 126 128   231 225 225   198 189 192   104  95  98   132 123 126   229 220 223   231 220 225   248 237 242   221 214 219   162 153 157   153 147 149   196 190 192   158 154 155    94  90  91    49  48  46    32  28  27    43  37  40    78  71  74    82  76  78    35  29  30    35  29  29    43  38  35    51  46  42   102  98  91   105 102  95    59  56  49    43  43  35    41  41  33  
 210 206 207   214 210 211   243 239 240   206 202 203   204 200 201   240 236 235   113 109 108   120 116 113   221 217 215   219 215 214   210 206 205   224 220 219   233 229 230   243 239 240   248 243 247   223 218 222   211 206 210   231 225 230   233 225 232   226 218 225   186 179 186   173 167 172   214 208 210   231 226 225   242 235 237   207 200 202   125 118 120   216 209 211   230 221 226   206 197 202   198 191 195   218 209 214   204 198 200   177 171 173    79  75  76    94  89  90    98  97  95   126 122 121    89  83  87    57  48  53   138 132 134   121 115 117   136 131 131    65  60  57    52  47  43    53  48  44    58  55  49    76  72  67    53  52  46    36  36  30  
 204 200 201   219 215 216   239 235 235   233 229 230   187 183 184   199 195 196   211 207 206   130 126 123    68  63  63   197 193 192   240 236 235   214 210 209   224 220 221   229 224 226   194 189 193   175 170 173   200 195 198   201 196 200   182 177 183   144 139 145   184 177 184   247 242 246   230 226 227   235 231 230   231 226 228   247 242 244   139 133 135    89  83  85   196 189 193   117 109 114   119 110 115   163 156 161   141 135 137   119 114 116   148 144 145   191 187 188   131 131 129   147 144 142   143 137 139    67  58  63    26  20  22    73  67  69   224 218 218   208 202 202   119 114 111    52  47  43    45  41  38   113 110 105   193 192 188   185 184 180  
 229 227 228   236 234 235   233 231 232   235 234 234   238 236 237   227 225 226   246 242 241   253 252 251   142 137 137    87  83  82   210 206 207   212 208 209   203 199 200   192 188 189   179 177 178   195 193 194   214 211 214   207 205 208   225 223 225   203 201 204   199 195 199   202 200 203   232 229 231   223 222 220   219 217 218   247 243 244   180 176 177    65  60  61    93  88  92   190 184 188   244 242 244   243 237 241   185 180 182   201 197 198   246 242 243   251 247 248   242 238 237   199 195 194   166 160 162   220 213 215   223 217 219    63  57  59    14  10  10    89  83  84   177 173 172   200 196 193   181 177 176    68  63  61    72  68  67    92  87  87  
 239 237 238   221 219 220   232 231 232   230 228 229   230 229 230   226 225 226   231 227 226   235 231 230   255 252 251   167 163 163   133 129 130   233 229 230   222 219 220   223 219 220   241 239 240   238 236 237   229 228 230   229 227 229   229 228 230   235 234 236   201 200 202   196 195 195   228 226 227   224 223 222   227 225 226   235 233 234   209 205 206   206 203 204   202 199 202   171 167 170   164 158 162   200 194 197   227 223 224   224 220 221   217 213 214   224 219 221   229 225 225   247 243 243   208 202 203   192 186 188   216 210 212   205 199 201   144 139 141   131 126 128   121 117 118    74  71  70    96  92  94   107 103 103   136 131 133   151 147 146  
 241 239 240   237 235 236   227 227 227   224 224 224   228 228 228   225 224 225   236 232 231   231 227 226   242 238 239   239 236 237   154 150 151   181 177 178   238 236 237   232 230 231   230 228 229   227 225 226   229 229 229   230 230 230   225 225 225   227 227 227   220 220 220   206 206 206   226 226 226   224 224 224   228 228 228   220 220 220   190 188 189   222 220 221   238 237 238   233 231 232   219 215 216   189 185 186   167 163 164   182 178 179   193 189 190   208 204 205   208 204 205   190 186 187   149 143 143   189 183 183   222 216 217   236 230 232   230 226 227   204 200 201   216 212 214   190 187 189   153 148 152   109 105 107    93  88  92   128 123 126  
 227 225 226   211 209 210   227 227 227   215 215 215   223 223 223   223 223 223   233 229 228   233 229 228   225 221 221   240 237 237   232 228 228   162 158 157   173 172 171   243 242 240   237 235 236   229 227 228   230 230 230   228 228 228   225 225 225   231 231 231   225 225 225   220 220 220   226 226 226   225 225 225   232 232 232   184 184 184   204 203 203   228 227 228   226 225 225   226 225 225   231 228 229   231 229 230   224 221 222   197 194 195   167 163 164   180 176 177   181 177 178   148 144 144    83  78  76   133 128 125   187 182 182   174 168 170   174 170 171   179 174 177   175 170 175   197 193 198   210 205 210   230 225 231   161 155 159   129 123 127  
 190 188 189   184 182 183   220 220 220   215 215 215   192 192 192   228 227 227   239 235 234   233 229 228   218 215 213   224 220 219   248 244 243   239 235 234   134 133 131   169 168 166   252 250 251   234 232 233   233 233 233   232 232 232   225 225 225   231 231 231   225 225 225   233 233 233   228 228 228   235 235 235   206 206 206   189 189 189   230 230 230   228 228 228   221 221 221   230 230 230   229 227 228   220 218 219   235 233 234   232 230 231   233 229 230   244 240 241   247 246 247   245 244 243   121 116 112   144 139 135   222 217 214   222 216 217   211 208 208   207 202 206   194 189 195   171 166 172   183 178 184   235 230 236   196 190 194   190 184 186  
 109 107 108   231 229 230   251 249 251   236 234 235   207 205 206   191 189 190   226 222 221   228 224 221   229 225 222   235 231 228   229 225 224   249 245 244   241 238 236   178 174 173   175 174 172   234 233 231   241 239 240   231 229 231   234 232 233   228 226 227   232 229 231   228 226 227   233 231 234   215 213 216   200 198 199   221 219 219   232 230 231   227 225 226   231 231 229   222 222 220   231 230 228   234 233 231   226 224 225   228 226 228   236 232 233   237 234 234   242 237 241   222 218 217   111 106 102   174 169 162   245 240 236   235 230 227   242 238 239   245 240 244   236 234 239   242 240 245   248 243 249   253 251 253   170 164 168    93  86  88  
 158 156 157   183 181 182   223 221 222   234 231 233   237 235 236   183 181 180    73  69  66   129 125 121   229 228 224   235 231 228   231 227 226   224 220 218   241 237 236   236 232 231   196 195 193   172 170 169   201 198 199   224 222 223   237 234 236   233 230 232   238 233 235   236 233 235   198 193 197   189 186 190   222 219 220   237 234 235   229 227 228   227 225 226   233 233 231   211 211 209   189 187 185   227 227 224   231 229 230   234 232 233   228 224 225   234 230 230   245 240 244   179 175 174   118 113 107   157 153 144   212 207 201   227 222 218   223 219 218   229 225 226   238 236 241   232 230 235   247 243 248   213 208 212   143 137 138   104  98  97  
 238 234 235   218 214 215   192 188 189   183 179 180   231 227 228   159 155 154    25  21  18    79  76  71   136 133 128   142 139 134   191 187 184   225 221 218   226 222 221   238 234 233   238 234 233   222 218 217   201 197 198   182 178 179   188 182 186   213 207 211   201 195 199   199 193 197   209 203 207   229 225 228   234 229 231   236 232 233   233 230 231   228 226 227   229 228 226   231 230 228   191 190 188   196 195 193   236 234 235   231 229 230   232 228 229   236 232 233   252 247 251   174 170 169    71  66  60    76  72  62   204 199 192   246 241 237   232 228 227   231 227 228   235 233 237   237 235 240   241 237 241   139 134 138    98  92  92   100  94  91  
 188 184 183   222 218 218   228 224 225   190 186 187   142 138 139    65  61  60    41  37  33   114 112 105   144 141 136   145 142 137   158 154 151   164 160 157   187 183 181   218 214 212   235 230 230   234 228 228   235 230 232   235 232 234   215 207 211   189 180 185   156 148 153   166 158 163   206 197 202   227 222 225   230 225 227   241 237 238   238 234 235   234 230 231   234 233 231   237 235 234   211 210 208   190 189 187   238 235 237   224 222 223   235 231 231   240 236 237   243 238 242   145 140 140    75  70  62   166 162 151   235 231 222   236 231 227   238 234 232   233 230 231   246 244 247   252 250 253   197 192 197    88  84  86    97  91  89    95  87  82  
 133 129 128   193 189 188   218 215 214   155 152 151    33  30  29    12   9   6   103 100  95   150 147 140   125 122 117   174 171 166   214 210 207   205 201 198   181 177 174   190 186 183   205 200 199   219 215 214   235 229 231   224 219 221   239 232 235   245 239 241   245 237 240   213 206 209   186 180 182   181 175 177   204 198 200   194 188 190   207 203 203   214 210 211   208 204 203   204 203 201   179 178 176   211 210 208   239 237 238   231 229 230   231 227 228   249 245 246   224 219 224    62  57  57    40  36  28   123 121 109   200 195 189   252 250 246   246 240 240   223 219 220   200 195 199   255 251 255   149 144 148    66  62  61   102  97  93   113 106  99  
 118 114 111   156 152 149   129 126 121    39  36  30    77  74  67   137 134 127   117 112 106   104  99  95   185 181 178   145 141 137   165 161 160   234 230 229   234 233 231   214 213 211   206 205 203   204 203 201   229 225 224   228 224 223   229 224 224   231 227 226   234 229 228   229 225 224   232 231 229   229 228 226   220 215 215   201 197 196   200 194 196   192 187 189   177 173 174   186 182 183   214 212 213   239 237 238   225 225 225   230 230 230   229 227 228   249 245 246   172 168 169   103  99  98   100 100  91    75  75  63   110 105  99   221 213 210   255 246 248   208 197 201   101  90  94   144 135 138    88  82  82    98  94  91   125 123 115   115 112 103  
 180 176 173   109 105 100    68  64  60   149 146 137   206 203 194   204 201 192   241 236 230   113 108 104   112 108 105   204 200 197   175 172 171   185 182 180   220 219 217   226 225 223   227 227 225   222 221 220   228 227 226   224 223 221   224 221 220   230 227 224   229 225 223   226 225 222   214 213 212   208 208 206   225 221 220   236 232 231   236 230 231   233 227 228   214 211 212   228 224 225   237 235 236   228 226 227   227 227 227   224 224 224   237 235 236   223 221 222   194 188 190   233 228 225   172 171 164   122 121 111   117 112 106   220 210 209   254 247 249   170 158 162    77  65  70    82  72  76    94  88  88    92  89  84   117 117 108   137 135 123  
 166 161 158   201 196 192   170 165 161   143 138 131   144 140 131   155 151 142   227 222 216   199 194 190   128 124 121   164 160 157   194 193 191   181 180 178   188 187 185   212 211 209   212 212 212   221 221 221   229 227 228   228 227 226   220 218 218   223 222 220   224 220 219   230 229 227   209 209 207   193 193 191   222 218 217   231 227 226   222 216 216   216 210 210   196 192 193   224 220 221   232 230 231   226 224 225   219 219 219   224 224 224   234 232 233   223 221 222   201 195 197   152 147 144   107 104  97   118 115 106   149 143 137   253 247 245   241 230 233   110  99 103    92  82  88   102  94  97   104  99  99    80  77  72    93  93  83   131 129 117  
  95  90  87   162 157 154   118 113 109    40  35  29    93  89  80   131 127 118   191 186 180   187 182 178   181 178 174   183 179 176   179 178 176   213 213 210   196 196 195   196 196 195   220 220 220   224 224 224   215 215 217   213 213 213   206 204 205   210 209 209   209 206 207   213 212 210   216 216 214   205 206 202   233 229 227   223 219 217   209 204 202   196 190 188   187 183 183   228 224 224   223 222 221   209 208 206   218 218 217   232 232 231   235 233 234   250 249 250   216 210 212   102  97  94    91  87  81   122 118 109   139 131 127   241 235 233   234 224 227    93  83  88    99  93  97   113 109 110   108 104 103   103 102  97   113 112 101   127 124 110  
  64  59  56   122 117 114   163 158 154    52  47  41    92  87  81   152 148 139   203 198 192   228 223 219   202 199 194   219 215 211   183 180 177   188 187 185   236 234 235   221 221 221   220 220 220   230 230 230   228 228 230   220 220 221   200 198 199   189 187 188   189 187 189   191 189 190   219 219 217   162 163 158   160 156 153   197 193 190   215 210 207   188 183 180   184 180 177   226 222 221   198 197 195   216 216 213   234 234 233   230 230 228   241 239 240   246 244 245   167 161 163    73  68  65   114 109 103   218 212 204   225 218 215   242 233 234   253 246 250   124 117 121   110 105 111   106 101 105   104 103 100    93  92  87   100  98  86   117 114  97  
  58  49  50    51  43  41    87  79  76    62  55  49    41  34  28    85  78  70   186 181 175   243 238 232   223 218 214   209 206 201   219 215 212   174 173 171   222 220 221   224 222 223   234 234 235   236 236 238   239 239 241   242 242 244   232 232 234   211 211 213   198 197 200   172 171 171   163 163 161    58  59  54    38  34  31   212 208 205   251 248 245   177 172 169   162 158 155   183 179 176   218 217 213   236 234 231   225 226 221   238 239 234   249 248 246   235 234 232    90  84  84   157 152 149   202 195 189   199 192 186   219 209 211   252 247 250   244 237 244   125 120 126   108 103 110    82  81  84    64  63  61    79  75  70   120 115 104   140 134 120  
  42  33  34    79  70  72    49  41  39    51  43  40    53  45  39    58  51  43    71  66  60   157 151 145   234 231 227   220 215 211   235 231 228   223 218 216   219 217 218   235 233 234   231 230 232   222 222 224   224 224 226   228 228 230   225 224 226   216 215 218   222 220 223   176 174 175   118 118 116    41  42  37    98  94  91   213 209 206   185 180 176   138 133 129    67  64  59    80  77  71   199 198 192   230 229 225   236 237 231   234 235 229   239 238 236   240 238 236   212 206 206   240 231 230   215 205 203   208 198 197   207 198 199   232 226 229   231 226 232   127 123 130    79  76  83    66  64  69    68  66  65    76  72  67   126 119 109   153 145 132  
  78  69  70    36  27  28    50  42  40    68  60  58    65  57  53    91  84  78    51  44  38    79  72  66   154 148 144   226 221 217   233 228 225   230 226 223   230 227 227   232 230 231   227 225 228   222 220 223   208 208 210   185 185 187   169 167 170   176 174 177   187 185 188   142 140 141   119 120 116    63  64  59    83  80  75   119 116 111   117 112 108    83  78  73    34  31  25    43  40  33   118 118 110   152 152 145   158 159 153   200 201 195   236 235 231   239 238 234   243 237 237   217 208 209   195 185 184   230 220 219   236 227 230   251 246 250   235 231 236   109 106 112    61  59  63    86  83  85    87  83  81    73  67  62   125 117 108   162 152 140  
 204 198 199    96  89  90    43  37  34    35  29  26    50  44  41   167 159 155   158 152 145   130 122 116   156 147 144   198 191 187   229 224 220   230 226 222   227 223 222   232 229 228   224 222 224   225 223 225   195 194 195   178 176 177   197 195 197   153 151 152    76  73  74    87  86  85    57  58  53    62  63  57    85  82  77   104 101  96   150 145 140    60  55  49    36  33  26    74  71  63    85  85  76    92  92  83   101 102  95   116 117 111   181 180 176   241 240 236   238 232 232   242 237 238   216 206 205   126 116 115   143 135 134   194 188 189   140 136 138   104 100 103    82  78  79    90  86  84    96  89  86    66  57  51   124 114 105   161 149 139  
 204 198 200   157 151 153   193 188 187   114 109 106    19  14  10    52  43  41   109 100  95    81  72  67   151 141 139   182 172 170   239 232 229   229 224 221   234 228 228   223 219 218   226 222 223   229 228 229   233 230 232   213 211 210   201 199 200   108 107 105    45  41  40    78  78  74    44  43  38    66  67  61    87  84  79    88  85  78    65  60  54    39  34  26    66  63  54    78  75  66   102 102  92   198 198 188   189 190 182   130 131 123   165 164 159   211 209 206   182 176 176   217 209 208   158 148 146    85  76  72    91  83  80   127 122 119   100  97  92   124 121 116   106 101  97    86  81  75   103  94  85   105  95  86   148 136 127   129 117 105  
 189 183 185   178 172 174   225 218 218   252 251 248   158 153 149    54  46  43    35  24  20    48  37  33    63  52  48   134 125 120   227 217 215   226 218 215   225 220 217   229 225 222   229 224 223   217 213 211   214 211 209   204 200 197   135 131 130    43  39  35    50  46  42    50  49  44    66  65  60    89  90  84    71  68  61    37  33  27    51  46  40   105 101  92    87  84  74   102 100  88    85  85  73    91  91  81   182 183 175   236 237 229   243 242 237   174 173 168   106 101  98   118 110 108    68  59  52   102  93  84   130 123 114   132 128 119   129 126 117   130 126 114   103  97  84    85  77  64   133 121 108   162 148 135   183 169 156   136 122 109  
 207 202 204   213 207 209   189 183 183   212 207 204   246 244 241   207 200 197    78  67  63    49  35  32    49  35  32    59  48  44   113 103 101   186 176 174   218 210 208   201 196 193   190 184 183   200 196 193   204 200 197   111 107 104    73  69  65   108 103 100    67  63  60    44  41  36    69  68  63    59  60  54    71  68  61   137 134 127   159 155 146   153 149 140   170 168 156   151 149 137   165 165 153   156 156 144   192 193 182   223 224 216   251 250 245   133 132 127    89  84  81    77  72  67    57  48  39   104  99  84   133 127 113   129 125 112   120 117 101   101  99  81   108 101  82   143 135 114   151 137 119   152 135 118   156 140 123   148 134 118  
 215 211 211   240 236 236   213 209 208   187 183 180   206 203 199   244 238 235   173 163 160    70  58  55    67  54  53    52  42  39    60  50  48    82  73  71   132 124 122   184 178 175   207 202 199   222 217 214   164 159 155    77  72  67    72  67  62   103  98  93   114 109 105    90  87  82   121 120 115   128 128 122   119 116 109   181 178 171   182 178 169   165 161 151   207 204 194   194 191 181   114 113 102    98  96  86   173 174 164   243 244 235   240 238 232   110 108 102    90  85  82    87  81  74    81  74  61   128 122 105   119 114  96   105 101  81    92  87  66   128 123 100   162 154 130   169 158 133   153 138 114   151 135 112   151 135 115   136 121 106  
 177 173 172   252 248 245   234 230 228   228 225 221   221 217 212   228 225 220   222 216 212   134 128 127   168 161 164    90  83  85    31  24  25    57  50  50    67  61  58    90  84  81   118 113 110   128 123 120    89  84  79   107 103  95   110 106  97   173 168 160   231 226 223   184 179 176   173 171 166   197 195 188   153 149 144   176 173 167   213 208 203   165 160 154   227 223 218   193 189 184    66  61  56    48  43  38   124 119 112   239 234 225   155 149 142    88  83  75   134 126 118   114 106  97   118 112  99   162 156 139   115 109  90   114 106  82   151 139 113   185 172 143   181 167 135   172 157 126   160 146 116   156 142 116   154 142 120   129 118 102  
 213 209 207   204 200 197   253 250 245   254 252 247   212 209 202   187 187 179   165 163 158    98  98  96    99  96 101    46  42  49    22  17  21    46  42  41    56  51  47    46  41  35    52  47  44    42  37  34    67  62  56   160 156 146   163 159 147   231 228 218   228 223 220   210 204 203   181 178 173   199 196 189   213 210 205   187 184 179   238 233 230   172 167 163   205 200 197   179 174 171    64  56  54    86  78  75    82  73  68    75  67  60    52  43  34    69  61  51   100  90  80    95  87  76   148 142 128   177 171 155   122 114  94   101  89  63   185 168 139   199 180 148   179 160 127   171 152 119   151 136 103   151 137 110   173 162 140   144 137 119  
  73  69  66    97  93  90   121 118 113    93  90  85   123 120 113   167 167 159   104 104  98   174 174 172   180 178 183   108 106 111   116 112 113    66  62  59    33  28  22    57  52  46    50  45  42    43  38  34    73  68  61   163 159 148   193 189 177   220 215 205   237 232 229   215 209 209   219 215 212   209 206 201   225 220 216   199 194 190   232 227 223   223 218 214   222 214 211   128 120 117    72  64  60    76  69  63    64  55  48    42  33  24    81  72  63   124 116 105   104  94  84   123 115 102   181 176 159   157 150 132    72  64  40   134 122  96   191 176 145   178 162 128   180 164 130   169 153 119   130 118  84   144 133 105   177 169 146   135 129 110  
 107 103 100   132 128 125    90  87  82    21  18  13   178 175 168   224 224 216   193 193 185   196 197 192   187 184 187   192 190 193   115 111 111    41  38  34    57  52  45    66  63  54    49  44  41    51  46  42    45  40  34    46  42  31   104 100  88   219 215 204   242 237 234   224 218 218   216 212 209   216 213 208   234 228 225   225 219 216   225 220 215   255 252 248   195 188 181    75  68  61    72  64  57   124 116 107   124 116 106   116 108  96   130 123 111   163 155 143   113 103  91   136 127 112   195 188 169   146 140 118   131 123  96   205 194 166   180 166 134   163 149 116   175 162 127   150 137 103   109  98  67   121 112  83   171 165 139   136 129 109  
 233 229 226   169 165 162    99  96  91    48  45  40   126 123 116   126 126 118    92  92  83    99 100  93    97  95  95   106 104 105    43  39  37    28  25  19    74  70  61   160 156 147   134 129 124    53  48  43    39  35  27    34  30  19    41  37  25   106 102  91   197 192 189   248 243 243   223 217 216   188 183 180   224 216 213   246 241 238   243 236 230   204 200 193   141 134 125    88  81  70   116 108  98   124 116 104   112 104  92   165 157 144   184 176 163   152 144 131   108  98  86   146 137 122   192 184 164   164 157 132   166 156 129   194 184 155   182 170 139   156 144 113   168 156 124   125 115  84    85  77  48    93  87  59   133 128 102   110 105  83  
 227 223 220   163 159 156    56  53  48    26  23  18    52  50  44    47  47  39    26  26  14    67  69  59    94  93  91    64  63  62    42  39  35    48  45  36    67  63  53    91  87  76   182 177 171   165 160 154   131 126 117    71  67  56    30  26  14    42  38  27    70  65  61   198 193 193   246 239 240   185 178 176   208 200 197   255 249 246   209 202 196   103  96  88   136 129 118   136 128 116   129 121 109   109 102  87    94  86  71   144 137 122   179 172 157   129 122 107   108 100  85   155 148 130   187 178 158   161 153 129   171 161 136   189 179 152   188 177 150   166 157 127   117 109  80    98  92  62    82  77  51    86  82  56    97  94  71   115 110  88  
 109 105 102    78  74  71    34  31  26    59  56  51    33  30  25    42  42  33    60  60  48    57  59  48    44  43  39    24  23  21    50  47  42    97  94  85    65  61  50    77  73  62   195 190 184   226 221 215   243 239 230   155 151 140    23  20   5    43  39  28    43  38  34    56  50  50   159 150 151   191 183 181   236 228 225   255 253 248   166 159 153    94  88  78   149 141 130   143 135 123   142 135 119    96  89  73   123 116  98   157 150 132   140 133 117   129 122 106   150 143 127   164 157 139   184 176 155   177 170 147   196 185 162   182 171 148   164 154 129   196 188 164   132 126 102    48  43  21    59  56  35    72  71  50    81  80  60   114 111  90  
