P3
50 50
255
  60  69  50    45  57  37    44  55  34    49  57  34    63  69  43    86  92  66   106 112  86   150 154 132   112 115  96    44  47  28    42  43  25    36  37  19    90  91  73    62  62  44    30  29  11    45  44  26   179 177 163   156 154 141    63  58  44    41  34  19    36  27  12    75  65  49    76  67  51    81  73  58    47  38  23    59  50  33   224 218 198   241 236 211   143 132 104    70  63  34    87  86  61    55  57  38    38  41  26    39  42  30    36  39  28    47  49  36    53  50  37    97  90  75   189 180 163   235 225 205   178 168 141   170 164 129   205 200 160   143 138 100   109 103  69   134 130  97   144 141 111    93  92  65    56  58  33    62  65  43  
  56  68  46    44  56  32    46  57  32    47  57  30    64  71  44   121 127 101   141 147 122    94  98  75    86  90  68    54  58  38    30  31  13    49  50  32    91  92  74    98  99  81    35  34  16    57  56  38   145 144 126    66  64  45    49  43  24    34  26   5    66  55  35   184 171 152   149 137 117   128 117  97   121 112  93    19  11   5   111 103  82   186 177 152   137 128  99    81  74  46    76  74  54    73  74  59    50  52  43    50  53  46    50  51  43    66  67  52   103 101  81   104  97  76   209 199 176   181 171 144   215 207 173   198 191 147   169 163 112   181 174 126   153 146 104   216 209 170   236 235 201   144 142 109    90  90  61    72  74  49  
  35  48  22    68  81  54    63  75  47    39  46  18    56  60  33   110 115  88   109 113  87    59  63  39    53  56  34    50  51  31    49  52  31    49  51  30    84  87  66   104 107  86    48  51  30    64  67  46    52  53  31    48  47  25    28  24   6    96  86  62   192 180 153   234 221 193   187 173 147   110  97  73   220 210 185   172 164 141    70  62  38    64  57  31   100  93  66   148 142 116   196 195 176    96  97  86    33  34  27    36  37  31    50  52  41    70  67  52   159 156 133   136 129 102   138 129 100   199 189 157   215 207 167   156 150  99    92  87  29   145 138  86   188 180 134   221 212 170   182 175 137   108 105  70    90  88  58    95  95  69  
  32  42  17    81  91  63    78  89  59    44  51  23    44  48  21    79  83  56    76  80  53    73  77  52    48  51  28    42  44  22    46  49  28    63  65  44    72  75  54    67  70  49    65  68  47    85  89  66    41  44  19    50  48  22    91  86  58   144 135 106   164 150 121   228 216 187   203 193 164    99  88  59   228 218 191   247 240 214   133 127 103    48  43  18   113 108  82   157 151 129   169 168 151    51  52  39    27  29  18    33  35  24    57  58  45    50  46  29    77  71  48    89  81  54   116 106  75   217 207 171   127 118  75    96  89  38    82  77  21   169 162 113   197 188 146   186 177 138   139 133  96   100  97  64   104 103  74   100 100  76  
  36  46  21    51  61  34    67  77  47    59  65  35    47  50  21    35  38  11    52  55  28    80  82  58    77  79  57    56  58  36    40  42  20    75  78  56    66  70  47    59  63  40    53  58  35    54  60  34    47  52  26    43  44  17   134 131 102   203 196 168   168 156 126   159 145 114   152 137 107    84  72  44   151 141 116   146 140 116   100  96  74    85  83  62   120 118  97    82  80  60    27  28  11    68  71  53   133 136 115    70  72  51    40  41  20    41  38  19    69  61  42   153 141 119   105  92  62   136 124  86   117 105  63    87  79  34    81  74  30   209 205 167   214 207 177   165 158 129    97  93  64   106 103  77   177 175 152   122 121  98  
  42  47  24    67  73  47   113 119  92   127 131 104    47  50  23    36  40  13    66  69  43    91  93  69    70  72  49    93  95  73    55  57  35    54  56  34    95  99  76    59  64  41    46  51  28    50  59  32    51  56  30    44  46  19    90  87  59   193 188 158   155 146 115   130 118  89   135 122  94    77  67  40    65  58  34    57  52  31    86  84  65   103 103  85    72  73  55    49  50  32    11  14   6   112 115  93   181 185 159    81  84  57    37  37  13    60  55  36    70  62  46    92  78  60    59  44  18   127 113  79   138 126  86   180 171 131   161 154 120   179 173 145   215 209 187   122 117  96    42  40  19    65  64  43    94  96  75    59  61  40  
  49  54  34   103 107  85   149 152 128   142 145 119    54  54  28    49  49  23    63  63  38    98  98  74    92  91  69    89  89  68    61  63  41    48  50  28    72  76  53    49  55  30    50  59  32    48  57  30    37  45  19    39  43  19    38  39  14   112 108  81   188 183 154   151 143 114   115 106  80    57  50  26    56  54  33    66  66  48    77  79  63    85  87  73    59  62  48    46  48  35    41  44  25    64  68  44    76  81  52    61  64  35    44  44  18    78  73  54    64  53  39    47  33  16    93  77  54   198 183 153   235 222 188   228 220 187   201 196 168    73  70  47   145 144 126   104 105  87    43  44  28    53  56  39    30  33  15    29  32  13  
  50  53  36   118 119 100   138 138 117   126 126 103    86  86  61    69  69  45    38  38  14    99  98  76   136 135 114    86  85  65    48  51  28    38  41  19    41  45  22    39  44  20    47  56  29    44  54  27    38  47  23    45  51  29    32  35  13    83  83  59   180 177 152   106 101  75    72  67  44    46  43  21    52  52  34    64  66  52    80  84  70    74  78  65    51  54  43    46  50  36    47  50  30    52  55  33    44  47  23    51  52  28    42  41  17    54  46  28   126 117  98   175 161 143   167 152 130   214 199 174   252 251 223   207 199 170   123 118  91    44  42  20    54  57  39    64  67  50    65  69  52    57  61  44    44  48  31    53  57  40  
  58  58  44   120 118 101   131 130 110   122 121 100    75  77  55    76  75  54    73  72  51    70  69  49    84  84  64    78  77  57    50  52  31    31  34  13    45  49  27    34  41  17    36  44  20    41  51  26    31  41  18    41  49  30    61  67  47    49  53  30    43  45  21    81  81  58    80  79  58    57  58  39    42  44  29    49  54  40    59  65  53    50  56  44    61  65  54    67  71  57    51  54  37    54  57  39    50  52  36    51  50  35    42  39  21    52  46  24   182 171 148   217 204 180   196 179 158   143 128 107   212 200 176   182 174 145   116 113  81    60  62  33    49  54  31    70  76  54    34  42  19    30  38  17    50  55  35    58  63  43  
  62  60  47    72  70  52    67  66  45    62  63  41    64  67  44   123 122 101   143 142 122    65  64  45    36  35  17    67  66  48    47  46  28    35  37  16    46  49  28    35  40  18    41  48  25    35  45  20    34  44  21    39  48  29    53  61  41    56  61  41    43  46  25    51  53  33    66  69  49    54  58  42    41  47  33    41  47  33    43  49  37    47  51  40    53  55  43    51  53  39    79  82  65    76  79  63    57  58  45    50  49  36    43  38  22    64  58  35   156 146 119   230 218 191   239 223 201   158 143 123   142 131 108   207 201 173   183 182 148    92  94  62    37  40  13    47  54  26    66  72  46   100 105  81    61  66  43    72  75  54  
  43  41  25    59  59  37    59  59  34    79  80  57    82  85  64    65  67  46    60  60  42    41  40  22    42  40  22    46  45  27    31  30  12    37  39  20    51  55  36    53  60  39    49  57  34    48  58  34    45  55  32    43  52  33    40  48  28    52  57  37    43  48  28    29  34  14    27  33  14    34  41  24    21  29  14    14  22   7    37  43  29    53  56  41    26  27  12    41  42  25    63  66  47    61  63  47    59  60  47    52  50  38    52  47  28    75  67  44   193 186 158   252 244 216   193 179 156   160 147 128    89  82  60   132 128 100   114 114  81    62  62  29    22  23   2    39  43  10   151 155 124   194 199 168    67  71  43    63  65  41  
  51  52  34    84  83  60    79  81  54    74  78  54    66  69  50    31  32  14    30  30  14    48  46  31    46  43  28    24  21   6    43  41  26   152 151 135    94  96  79    53  57  38    45  53  32    53  62  41    49  57  37    40  49  28    56  64  43    64  72  51    51  56  36    91  96  77    44  51  33    25  34  17    21  30  14    30  37  22    39  45  29    60  62  43    65  64  43    45  43  22    50  52  31    56  58  40    60  60  42    68  65  47    54  49  29    52  43  20   195 182 156   228 214 188   125 110  88   141 128 106    65  57  37    26  23   4    43  44  14    56  54  22   126 123  88   138 136 102   122 122  88   112 113  80    60  61  30    79  82  51  
  36  39  17    95  98  70   115 118  88    75  78  55    67  70  53    55  56  40    39  39  24    42  40  26    34  30  18    34  30  18   145 143 130   198 200 183   106 110  93    40  46  28    44  52  31    55  64  43    40  49  28    46  55  33    42  51  27    44  52  29    52  60  38    51  60  39    44  53  34    25  35  18    41  50  33    58  66  49    40  43  25    66  67  44   143 140 115    94  90  65    32  34  12   107 110  86    98 101  73    98  99  71    74  71  43    47  39  16   116 105  83   184 170 148   103  91  67    48  38  13    21  15   3    54  53  31    77  78  57   148 145 117   192 187 153   209 203 169   173 169 134    86  83  49    47  46  12   133 133  99  
  56  58  34    97 100  70   155 157 127    99 100  79    64  66  51    57  58  44    40  40  26    32  30  17    30  28  15    65  63  50   169 167 152   146 147 130    89  92  73    47  52  32    58  66  45    58  66  45    51  59  36    47  55  32    46  54  31    44  52  29    37  44  22    32  41  20    32  41  22    33  42  25    30  39  22    46  52  34    72  76  56    65  66  43   124 121  96   126 122  97    76  75  54   100 102  75   183 184 150   204 202 168   118 113  82    31  20   9   129 116  99   106  93  73    46  34  10    13   3   1   112 106  82   127 123 104   125 121 103   183 175 146   199 187 150   203 191 151   130 119  81    63  56  21    44  40   6    87  87  53  
 147 143 114   132 129  99    90  89  62    83  83  66    48  48  38    36  36  26    32  32  22    30  30  19    26  26  13   101 102  86   172 173 154   114 118  96    65  69  45    60  64  40    65  69  46    46  51  28    58  63  41    60  63  43    52  55  36    40  45  25    29  37  16    38  45  27    42  49  31    33  39  21    26  33  15    35  42  24    66  70  52    61  64  44    73  73  52    83  82  62   123 122 101    65  65  36   183 181 144   237 232 195   165 156 126    42  29  12    76  63  46    38  27  17    44  34  18    68  60  37   110 102  83    92  84  66   118 110  87   159 147 109   144 129  79   186 169 117   153 136  88   107  96  53    50  44  12    44  42  13  
 200 195 163   186 183 151   104 101  75    97  97  81    49  49  39    23  23  13    31  31  21    49  49  38    66  67  53    87  88  72    87  90  69    57  60  35    44  48  21    54  58  32    50  54  29    35  39  16    50  54  31    64  65  46    39  41  22    36  39  20    69  74  57    76  83  65    38  45  27    36  43  25    26  33  15    43  47  30    41  45  28    39  42  24    31  33  14    44  45  27    61  60  41    52  51  24   133 130  93   225 217 182   186 174 147    47  34  20    13   2   1    70  58  44   130 119  97    79  71  48    44  33  15    47  36  17    72  61  36    68  56  15   122 108  54   192 173 118   207 188 137   166 152 109    77  70  37    54  54  27  
 228 227 195   204 204 168   126 127  93    64  65  43    24  26  12    22  24  11    53  55  42    58  60  47    67  70  53    47  50  32    77  81  58    63  67  41    53  58  29    74  79  51    42  46  18   118 122  97   132 136 113    47  49  28    41  44  23    23  27   5    96 101  81   113 118  99    36  43  25    32  39  22    48  56  39    51  55  40    55  59  42    55  58  41    52  54  38    63  64  48    35  36  21    56  55  34    77  75  46   110 104  75    72  61  39    20   9   7   109  95  81   167 155 137   183 172 149    46  36  14   101  90  68    70  59  37    98  86  60   139 126  88   180 166 117   237 219 171   192 174 129   114 101  62    81  76  46    84  85  63  
 199 199 172   138 139 108    57  59  28    24  27   4    26  28  13    35  37  23    74  76  62    68  71  55    74  77  58    78  81  60    67  71  46    44  48  20    99 104  74   142 146 119    45  49  22   122 126 101   117 120  96    47  49  27    66  68  46    30  33  12    54  58  39    45  50  31    33  38  21    37  44  27    48  52  37    56  59  45    46  47  33    50  51  37    44  45  31    53  54  41    43  43  33    33  33  19    38  36  15    30  25   3    34  26   5    51  39  25    81  67  54   184 171 153   234 222 199   111 100  73   123 112  84   102  91  63    82  69  42   129 117  82   148 136  94   217 202 161   183 169 130   100  90  57    67  65  38   106 108  86  
  81  81  68    37  38  19    24  27   6    30  34  12    44  52  31    41  48  28    76  80  64    72  77  58    69  74  53    81  86  63    46  50  24    29  34   6   111 116  86   171 176 148    69  73  46    34  38  13    43  46  23    69  71  47    69  71  48    61  65  42    29  32  12    29  34  14    44  48  31    51  55  40    54  58  43    51  54  40    48  50  37    51  53  39    53  54  40    48  48  38    23  24  18    26  27  19    47  46  35    77  72  57    79  72  54    67  55  41    57  45  31   109  95  80   219 207 183   224 213 183    58  48  13    48  34   5    30  16   1    62  48  25    83  70  37    88  75  41   111 101  69    75  68  39    43  43  19    89  93  73  
  25  26  18    11  15   4    35  39  21    46  53  31    57  65  42    43  51  30    58  65  45    67  72  52    73  78  57    79  84  61    50  54  30    24  28   4   103 107  80   161 165 138    57  61  36    23  27   4    58  60  37    68  68  44    64  63  41    41  42  20    30  32  12    56  59  41    55  59  42    55  59  43    53  57  42    31  33  20    48  49  36    52  52  40    71  69  57    58  58  48    18  19  13    39  40  35    43  44  36    92  90  77    79  73  57    34  24   9    74  62  49    67  52  39   124 110  87   150 137 104    50  38   4   124 111  76   171 157 130   162 150 123   223 212 186    89  79  52    46  40  13    47  44  20    45  47  25    39  43  23  
   5   9   2    27  35  16    40  48  26    48  57  34    52  62  37    46  56  32    45  54  31    52  60  38    57  65  41    53  61  37    44  50  24    42  47  20   106 110  83   107 111  85    30  34  11    45  47  26    48  50  28    93  93  68    90  90  66    36  38  16    57  60  39    57  61  40    58  62  44    45  49  33    26  30  16    42  44  31    50  51  39    50  50  40    41  39  29    31  31  21    41  44  37    35  37  32    35  37  30    62  63  51    59  57  40    34  27   9    45  34  19    48  33  18    63  49  25   117 103  67   162 148 105   194 182 146   244 235 209   134 123 100   161 153 130    80  74  50    55  51  29    43  44  23    29  35  14    61  69  50  
  29  35  21    58  66  47    55  64  43    38  48  25    38  48  24    43  53  29    48  56  35    60  68  47    52  60  38    43  50  27    48  53  30    72  78  52    72  76  51    48  52  28    45  48  27    40  41  23    50  49  29   109 107  84   130 129 106   124 123 102    79  81  60    60  63  45    53  57  41    35  39  25    22  26  12    33  35  22    41  43  31    35  35  25    34  32  23    44  44  34    38  41  30    39  45  36    36  40  32   115 118 103   184 183 164    41  35  15    40  30  13    65  50  34   141 126 100   168 154 116   209 196 152   116 102  64    88  75  50    98  87  64    55  46  25    51  47  27    51  49  30    31  34  15    32  38  20    62  70  49  
  68  77  60    59  68  49    52  61  43    47  56  36    29  39  15    40  50  26    38  47  26    55  63  42    58  67  45    46  54  32    64  69  46    67  72  48    35  38  16    49  52  32    43  46  29    30  32  17    42  42  25    90  89  67   176 176 152   155 154 132    27  29   8    54  58  39    53  57  40    37  41  26    34  38  24    30  32  21    26  28  17    26  26  16    46  44  35    61  61  49    48  52  37    44  51  36    26  32  19    95 100  81   151 153 130    33  30   5    87  79  57   171 156 137   135 118  91   194 179 141   215 201 157    92  78  45    45  32  14   100  88  66    65  57  36    56  52  33    54  56  37    23  29  10    28  36  16    54  63  42  
  58  65  49    49  58  42    42  50  36    41  50  31    42  52  28    33  42  21    38  46  25    52  59  41    53  61  41    50  55  35    51  56  34    47  51  29    64  67  47    78  81  63    36  38  24    37  37  25    31  31  16    59  57  37   138 137 116   125 124 104    72  73  55    51  54  37    49  53  37    44  48  34    41  45  31    35  37  27    31  33  22    33  33  23    46  44  35    46  47  33    46  51  31    40  48  27    31  40  20    58  67  44    59  63  37    30  29   6   128 120  97   215 200 179   159 143 113   233 215 177   217 202 160   142 127  92   106  93  70    95  83  61    75  67  44    66  63  44    51  53  35    39  45  27    38  45  26    53  61  38  
  38  45  31    45  51  40    44  49  41    45  52  36    43  51  29    37  45  24    51  59  39    49  54  37    41  45  28    35  40  20    28  33  11    60  63  43    97 100  81    84  87  69    58  60  46    45  47  34    36  36  21    54  52  34   105 103  83    89  88  70    99 101  83    60  63  46    41  45  29    32  38  24    32  37  24    34  38  24    33  37  23    37  39  26    49  50  37    44  47  30    63  68  46    37  45  21    31  41  16    59  69  43    64  70  43    35  37  10    81  75  50   203 190 165   244 227 196   172 154 117   203 188 148   233 219 187   192 180 158   114 100  76    97  87  62    87  82  63    51  53  35    43  50  32    46  54  34    51  56  34  
  43  48  33    51  58  43    64  70  58    51  58  39    47  52  30    46  51  31    39  44  25    40  44  27    50  54  37    35  40  20    56  60  38   108 111  90    83  86  66    47  50  32    59  61  47    39  41  28    36  35  23    62  60  44   120 118 101   104 102  87    44  45  29    45  48  33    36  40  25    18  24   9    22  28  14    35  39  25    34  38  24    31  33  20    45  47  33    51  54  37    56  61  38    33  42  15    29  40  13    48  59  32    85  94  67    52  53  29    86  81  55   201 188 160   206 191 157   173 155 117   185 169 134   255 247 218   236 226 205   151 136 112   164 150 123    97  93  71    74  77  57    59  65  47    46  52  32    29  33  12  
  53  56  35    56  62  37    68  73  50    63  68  45    62  67  44    36  41  19    35  38  18    44  47  28    37  40  21    36  39  18    68  71  50    72  75  53    33  36  14    51  54  36    47  49  35    37  39  26    40  40  27    44  42  27    53  51  36    63  64  50    32  34  20    27  30  15    16  21   6    25  31  16    32  39  22    41  48  32    37  43  27    23  27  11    36  39  22    51  54  37    44  49  29    31  42  15    47  60  30    55  68  39    82  92  67    54  56  35    81  76  53   174 161 132   198 181 147   230 212 174   130 114  82   183 170 145   192 181 160   162 147 120   213 197 167   142 137 111   142 145 125    43  48  32    34  38  20    39  41  20  
  64  67  45    58  62  35    68  72  45    88  92  66   115 119  96    55  59  36    47  50  29    63  66  47    37  40  20    34  38  15    59  63  40    91  95  72    71  75  52    48  52  31    34  37  20    35  37  23    33  33  19    41  38  26    44  41  28    38  38  25    23  25  11    25  29  15    26  32  18    42  49  34    45  52  36    48  55  39    42  49  32    26  30  13    37  40  23    50  54  37    34  39  22    38  47  24    55  67  38    45  58  30    51  60  38    47  50  32    50  45  24   143 131 101   208 191 155   215 197 161    90  73  43   162 149 125   190 179 158   200 184 154   160 141 108    45  39  12   115 115  97    53  57  42    44  46  29    52  51  31  
  78  79  64    89  92  70    88  91  65   139 142 115   126 128 104    53  55  33    61  63  41    80  82  61    60  62  40    40  42  20    51  55  30   127 131 106   139 143 119    60  63  42    24  26   7    22  25   8    31  31  18    36  34  22    35  34  22    23  23  11    38  40  27    28  32  18    39  45  31    51  59  43    46  55  38    47  54  36    41  49  30    28  36  15    41  47  27    52  57  37    38  42  27    48  56  36    53  65  36    47  60  34    51  60  43    53  55  41    48  43  24   109  97  66   166 149 112   155 137  99   123 106  79   161 148 125   191 181 159   120 103  71   128 108  73    86  77  51   139 139 119    95  99  83    34  36  20    44  41  23  
  82  80  68   100  99  80    78  79  58    86  88  66    44  46  24    45  47  23    59  59  35    64  64  39    96  96  68    86  87  56    54  55  24    89  89  61    95  95  68    62  63  40    39  40  22    33  34  17    36  36  23    28  28  17    25  25  15    38  39  27    42  44  31    34  38  23    37  43  27    46  53  36    46  53  35    47  53  35    40  44  26    28  32  14    41  46  26    47  52  32    47  51  36    53  61  41    52  62  36    55  67  43    46  55  38    35  37  24    51  47  29    63  54  26   104  90  58   116 101  70   100  87  61    86  74  55    69  60  38    68  53  20   209 191 153   219 210 178   144 141 117    57  59  42    37  37  21    42  39  23  
  48  46  33    47  44  29    38  36  21    36  36  22    53  54  36    53  52  28    84  83  54    81  77  46   163 159 119   148 145 102    81  77  40    93  89  54   128 123  91   125 120  97    66  60  44    49  46  29    39  37  26    25  26  19    29  30  21    50  52  39    48  51  34    43  46  27    39  43  23    43  48  28    47  52  32    47  51  34    45  49  32    33  37  20    39  42  25    54  58  39    61  67  46    50  58  34    53  61  38    55  61  40    58  62  45    38  40  26    60  57  41    58  52  32    42  35  14    50  42  21    40  32  13    50  42  23    70  62  40   173 160 128   211 198 155   212 205 159    99  94  60    42  39  18    42  39  24    50  51  36  
  23  20   5    37  33  19    38  35  23    50  49  37    45  46  32   108 107  83   108 107  78    64  60  28   181 177 135   224 218 172    89  81  45   108  99  68   155 147 116   162 155 133    59  53  36    31  25   9    29  26  16    26  26  21    34  35  28    49  51  38    47  50  33    46  49  29    43  46  25    45  48  27    53  56  37    50  53  36    48  51  35    35  37  23    40  42  26    76  81  61    69  77  54    45  52  29    46  51  30    65  69  49    81  84  67    44  45  29    37  37  21    34  32  16    35  32  15    48  42  26    82  77  58    84  79  60    87  81  58   157 148 116   187 175 136   217 209 163    86  80  42    47  43  19    45  43  27    48  47  35  
  62  61  42    79  77  60    53  53  38    35  35  23    19  20   4   102 101  79    78  76  51    61  57  30   140 135  99   244 239 201   111 104  76    82  75  48   156 149 122    78  73  52    64  61  43    62  59  42    29  28  15    25  27  19    37  40  30    44  47  33    43  47  30    44  49  28    43  48  26    51  56  34    52  57  37    44  48  31    48  52  35    40  44  27    45  50  31    77  82  62    64  72  51    44  52  31    46  54  34    48  53  35    43  47  31    20  23   8    30  31  15    44  44  28    50  49  32    79  76  59    85  82  62    55  53  31    49  45  23    96  88  60   159 151 116   182 177 139    48  45  11    35  34  10    44  44  29    32  34  21  
  99 100  82   113 114  97    87  88  72    40  41  26    36  37  22    58  57  35    47  46  23    58  55  32    97  92  64   234 227 198   163 155 136    82  76  56   114 108  86    31  27  17    77  75  61    89  89  69    27  29  13    23  26  16    34  38  26    38  42  27    39  43  26    39  44  23    39  44  23    38  43  23    32  37  17    42  46  29    52  56  39    36  40  22    28  33  13    24  32  11    23  32  13    26  35  16    29  36  18    25  30  14    32  36  21    31  35  20    40  42  28    49  51  34    53  53  36    62  63  45    47  48  28    55  54  33    57  56  34    70  66  42   104  99  70    97  94  63    44  44  15    37  38  14    56  58  42    45  47  34  
  79  81  60   157 160 140   100 103  85    39  41  26    61  64  47    51  53  32    58  56  36    51  47  29    25  20   2   165 159 138   152 144 133    44  37  26    34  30  12    47  46  29    45  48  31    38  42  21    29  35  16    24  31  17    29  37  22    34  42  26    36  45  26    31  40  19    32  41  20    39  48  27    32  41  22    40  49  30    46  55  35    28  38  15    32  42  18    44  54  30    46  55  37    40  49  32    38  47  30    39  46  30    34  41  25    31  38  22    39  43  27    40  44  27    46  49  31    42  45  26    47  50  29    67  70  48    57  59  37    56  55  34    60  58  37    40  40  16    40  41  17    47  49  27    70  72  56    39  43  28  
  70  72  51   114 118  97    42  47  28    36  39  24    66  69  52    45  46  25    65  64  45    86  83  68    62  57  39    72  65  47    86  79  71    22  16   7    41  39  25   141 142 127   113 116 101    26  32  11    30  38  18    30  39  23    31  40  24    38  47  28    40  49  28    33  42  21    33  42  21    34  43  23    26  35  16    29  38  19    45  54  32    39  49  25    38  48  21    50  60  35    62  71  50    66  74  55    43  50  32    30  36  18    36  43  25    44  52  34    39  45  27    35  39  21    34  39  19    39  44  24    45  48  27    47  50  28    48  51  30    44  45  27    76  76  59    53  54  36    28  31   8    60  64  40    76  80  61    68  72  57  
  49  51  31    49  53  32    23  27   9    40  43  29    49  51  37    41  42  24    59  59  43   161 159 145   114 110  91    17  12   6    29  22  12    36  32  21    44  44  28   121 124 110    91  97  83    30  39  20    35  44  24    35  47  27    36  48  28    42  54  32    41  53  31    36  48  26    36  48  26    35  46  26    29  41  21    31  43  21    46  57  34    51  61  35    48  58  29    35  46  16    47  55  31    59  67  43    44  52  28    44  52  28    43  51  28    38  46  25    31  39  18    34  42  21    36  44  23    41  49  28    35  40  20    34  39  19    41  45  25    38  41  22    51  54  37    31  34  17    50  53  30    97 101  74    76  79  58    65  68  51  
  25  25   5    26  27  10    38  40  25    40  43  31    43  45  32    44  45  27    75  73  56    81  77  61   112 107  87   131 126 104    46  40  26    46  41  28    59  60  42    69  73  57    42  47  33    42  51  32    43  55  35    39  51  31    41  53  32    47  59  37    43  55  33    41  53  31    39  51  29    36  48  28    38  50  30    42  54  32    38  49  25    50  60  33    77  88  56    61  70  39    70  77  46    92  96  69    65  70  43    54  60  33    48  57  30    44  52  28    36  44  20    41  49  25    36  44  22    33  38  18    44  49  29    39  43  26    37  41  24    42  45  27    36  39  22    23  27   9    65  69  45    88  92  62    88  91  66    61  62  43  
  66  63  44    44  44  26    41  42  28    41  42  33    44  46  35    39  39  23    50  48  29    47  43  24   183 179 152   202 197 168    38  31  13    36  31  14    69  70  49    80  84  67    32  40  25    44  56  38    40  52  32    41  53  32    48  60  37    44  56  32    35  46  23    43  55  31    55  65  41    53  62  40    44  53  32    38  48  24    47  57  31    49  60  31    84  94  61    88  95  61    75  81  47   111 115  82    87  92  59    69  75  42    57  64  33    55  61  33    51  57  29    64  70  45    41  46  24    38  43  22    37  41  24    33  36  21    35  38  22    38  43  24    28  33  11    47  50  29    71  75  48    94  96  64    91  91  65    57  56  35  
 129 124 104    85  82  64    61  60  47    43  43  33    35  35  25    20  19   1    42  40  19   100  94  72   141 136 105   216 210 176    80  72  49    61  56  33    61  60  36    45  47  28    40  47  31    35  44  27    38  50  30    37  49  28    42  54  30    42  52  28    47  57  34    45  55  31    59  69  45    54  64  40    39  47  24    46  54  31    42  50  26    45  54  25    69  78  45    74  81  47    63  67  30    85  88  52    87  91  56    79  85  51    52  58  25    50  58  25    65  72  41    80  85  60    54  59  37    38  43  23    39  42  25    33  35  22    32  34  21    38  42  22    17  22   2    86  90  67   108 111  82   114 114  83   114 112  87    39  35  15  
  95  88  69   100  96  77    91  89  73    43  42  30    18  18   6    52  51  30    76  73  50    79  73  47    86  79  44   201 193 156   132 122  96    74  68  41    90  88  59    69  71  48    44  48  31    54  61  43    46  55  36    47  56  36    40  49  26    40  50  26    46  56  31    54  63  36    64  72  47    52  61  37    45  53  29    55  62  39    53  58  34    53  60  31    54  61  29    59  65  32    53  57  20    70  73  34    87  91  54    75  81  44    48  54  20    43  50  18    56  63  33    75  84  56    58  64  40    36  41  20    39  42  25    37  39  25    40  41  28    39  43  23    34  39  16    88  93  67    76  79  50    96  96  65    92  88  64    21  15   6  
  72  66  44    56  50  31    51  47  29    33  30  16    37  35  20    54  52  28    85  80  53   104  96  69   148 138 104   157 147 112   171 160 132   100  91  65   110 104  75    95  93  70    37  39  20    46  51  29    48  54  33    38  45  27    43  51  30    41  46  24    39  46  19    58  64  36    64  70  43    43  49  23    51  56  30    59  63  38    55  59  34    49  52  25    56  59  31    95  98  67    80  82  48    71  75  40    80  85  50    59  65  30    42  49  15    48  55  22    58  67  37    69  78  50    63  71  46    44  49  26    38  42  25    38  40  26    41  42  28    26  31  12    61  65  43    81  83  59    50  50  23    87  84  58    61  54  34    12   5   2  
  31  25   4    35  29  16    85  81  60    64  61  41   121 119  98    66  61  34    61  54  25   157 146 119   223 210 177   225 212 178   164 151 125   166 155 130   164 157 128   115 112  85    55  55  31    45  49  22    46  50  27    40  44  26    50  55  36    53  58  35    59  64  36    73  78  48    57  62  32    49  54  24    49  52  25    57  59  33    52  54  28    43  45  18    45  45  18    84  84  56   135 138 109    67  70  39    54  60  27    48  55  22    43  52  21    45  54  23    52  63  33    59  70  41    61  71  46    52  60  37    44  49  29    44  47  31    42  45  28    27  31  14    57  62  42    56  60  35    33  34  11    59  57  38    44  39  24    24  16   3  
  56  51  26   104  98  72   101  97  71    47  44  19   154 150 124   134 129  99    87  79  51   191 178 153   225 210 181   251 236 207   155 137 117   124 109  88   225 215 187   185 178 151   101 100  72    68  69  37    41  43  17    40  42  24    55  58  40    83  87  64    71  75  48    91  94  63    84  87  56    56  59  28    55  55  27    74  74  46    55  53  28    42  40  15    40  39  12    67  65  40    79  81  57    43  47  22    47  55  27    48  57  28    44  55  25    42  53  24    47  57  31    51  61  34    50  60  34    48  58  33    43  51  28    43  48  28    38  43  24    34  38  23    42  46  31    42  46  23    41  41  22    38  35  22    28  22  12    31  24  13  
 159 155 128   208 205 176    85  84  59    66  63  37   161 157 127   194 190 155   150 140 111   192 176 153   208 192 167   236 218 194   136 118 104    61  46  40   192 179 154   139 132 104    94  91  60    95  95  60    61  62  33    34  35  18    39  40  23    78  80  59    84  87  58   111 112  81   109 110  78    78  79  47   108 107  77    84  82  54    54  53  26    64  61  36    77  72  47    90  88  64    48  51  30    34  40  20    37  46  23    38  48  24    38  51  25    40  53  27    43  58  32    50  63  37    42  55  29    39  49  24    34  44  19    27  35  12    29  37  16    44  51  37    47  50  40    57  60  41    59  59  44    38  34  27    25  19  13    39  32  24  
 139 137 114   155 150 125    53  49  27    84  80  55   178 173 144   194 187 155   130 118  89   157 140 116   233 214 188   254 235 210   109  88  72    61  43  28   134 120  96    86  79  53    64  63  33    95  96  62    71  73  45    48  50  30    52  52  30    72  69  42   108 103  73   112 108  73   105 101  65   113 107  71   206 200 166   128 119  86    81  71  39    82  73  42    86  79  49    91  87  59    60  62  41    38  41  24    46  52  33    59  67  46    40  52  28    34  46  22    44  58  33    46  59  34    38  50  26    33  43  19    31  41  17    24  32   9    40  48  26    49  56  40    36  42  30    63  67  50    59  61  49    30  29  22    26  23  15    34  30  19  
 176 173 156    86  81  65    21  15   1    99  93  72   197 190 167   187 177 150   106  94  63   162 145 112   247 230 196   203 183 150   125 104  75   136 118  92    93  81  55    55  49  24    46  48  24    79  85  59    54  59  34    50  52  26    87  84  53   138 128  93   120 105  67   129 114  75   129 115  75   176 159 119   204 185 144   154 132  87   187 165 118   141 122  78   136 121  81    84  74  40    47  42  21    50  52  31    51  54  33    77  82  60    44  52  29    32  42  18    40  53  31    38  50  30    31  43  23    31  40  21    32  41  19    31  38  15    36  44  20    46  55  33    50  59  39    47  53  38    48  50  40    26  26  17    30  28  16    38  37  20  
 174 172 156    89  83  67    74  67  50    99  92  73   226 218 197   211 200 177   106  94  65   151 136 103   194 176 142   129 110  77   126 107  75   101  87  61    38  29   8    47  43  19    37  38  16    53  58  36    44  49  26    61  63  35    95  90  55   134 119  77   183 164 119   169 149 104   153 134  91   201 181 138   154 130  86   171 143  96   185 158 110   222 198 150   176 157 112   146 136  99    86  80  57    36  34  15    63  63  42    64  68  45    37  41  18    37  45  22    45  55  34    36  46  28    22  32  15    22  31  12    20  28   7    29  36  13    44  51  27    42  52  27    52  61  39    57  64  50    30  35  26    26  28  18    40  41  27    41  40  20  
  79  78  60    42  38  32   175 169 150   129 122 101   150 144 120   180 171 148   101  90  67    67  55  30   124 111  85   137 126  98   123 112  82    85  76  46    72  66  37    71  68  42    36  36  12    34  36  15    43  44  23    96  92  69   115 103  71   143 126  83   213 193 142   225 206 155   183 164 119   159 137  97   176 152 113    83  55  16   140 111  71   218 193 150   190 171 127   234 224 185   119 114  90    29  29   9    63  66  44    56  61  38    38  43  20    49  57  33    49  59  36    36  45  25    28  37  18    32  41  22    30  38  16    38  45  22    42  48  25    32  41  16    56  65  44    39  45  31    28  33  23    29  31  20    38  41  24    42  44  23  
  30  28   7    60  54  32   132 126 104   122 116  91    61  55  29   106  99  78    75  67  49    44  35  18   104  96  77    90  82  61   169 164 135    87  82  52    74  69  38    68  64  34    56  52  26    80  75  55    61  56  36   104  96  74   134 121  88   195 177 132   213 192 139   231 210 156   177 157 111    91  70  31   109  86  51   109  80  48   217 189 154   221 197 158   212 195 152   206 196 159    92  87  65    30  30  11    66  68  47    56  60  37    31  37  12    43  52  25    44  53  28    36  45  23    37  46  25    42  49  30    40  47  26    44  49  28    34  39  17    28  35  13    47  54  36    28  34  20    26  32  22    25  28  17    36  40  24    41  44  23  
