P3
50 50
255
 198 199 201   195 196 200   191 192 197   182 183 188   176 177 182   162 163 168   159 159 165   150 149 155   150 149 154   146 145 150   152 151 156   147 145 148   149 147 149   141 136 140   114 111 114   121 116 120   122 117 121   122 117 120   120 115 121   117 111 117   120 118 123   115 113 118   117 115 118   114 112 115   114 112 115   100  98 101   105 103 106   116 114 114   107 105 106   112 110 111   136 132 133   118 114 115   110 106 107   116 110 112   123 116 120   113 107 111   114 108 110   134 128 128   140 135 132   113 108 105   114 109 106   121 116 113   118 113 113   129 123 123   125 122 120   125 120 117   133 128 125   114 109 105   100  95  89    95  90  84  
 195 196 198   192 193 197   185 187 190   174 175 180   164 165 170   158 159 164   157 156 162   152 151 157   147 146 151   145 144 149   146 144 147   143 141 144   148 145 146   138 134 135   131 127 128   126 122 123   125 119 121   125 120 121   112 106 109   113 106 112   117 112 115   112 107 110   113 111 113   111 109 111   116 114 116   114 112 114   105 104 104   111 110 110   107 106 105   105 104 104   131 127 128   130 126 126   124 118 119   122 116 118   128 120 124   108 100 104   108 102 104   124 118 118   121 116 113   111 106 103   119 114 111   126 121 118   123 119 118   155 151 150   158 154 154   144 140 139   110 107 103    94  92  87    83  81  74    78  75  68  
 194 195 197   189 190 194   178 181 185   164 167 172   151 153 158   155 156 161   152 153 158   149 150 155   141 141 146   141 140 145   145 144 146   147 145 148   141 139 140   120 118 119   132 128 129   132 128 129   122 118 119   116 112 113   120 114 116   122 116 119   122 118 118   121 117 118   125 123 123   120 119 118   116 115 114   115 113 113   116 115 113   108 107 105   110 109 107   109 108 106   132 128 127   135 131 130   127 121 121   123 117 118   117 111 114   105  99 103   126 120 121   128 122 122   114 109 106   111 106 103   113 109 106   102  98  95   104 100  99   100  96  96   108 104 105   125 121 121   123 122 119   117 116 112   113 112 106    98  96  91  
 192 193 197   186 186 191   169 172 177   157 160 166   143 146 151   149 151 156   144 146 151   144 145 150   135 136 140   137 136 141   145 145 148   139 139 141   123 121 122   112 111 111   121 117 118   123 119 120   116 112 112   130 126 125   143 137 138   138 133 133   126 122 120   125 121 120   133 130 127   136 133 131   131 130 127   132 131 127   126 125 122   111 110 107   117 114 111   115 112 109   129 125 123   131 127 125   123 117 115   118 112 112   114 109 110   100  95  98   133 128 128   129 124 123   122 118 115   119 115 112   124 122 118   103 101  97    92  90  89    87  84  85    87  84  85    82  80  81    94  93  91   114 113 109   128 127 123   103 102  97  
 190 191 195   181 182 187   159 164 168   149 153 160   139 142 147   141 145 150   139 142 147   138 140 145   134 135 139   135 136 140   141 141 143   124 124 126   103 101 101   100  98  99   107 103 104   119 115 116   115 111 110   129 125 124   124 119 117   129 124 121   127 123 120   132 128 125   139 134 132   145 142 139   138 137 133   134 133 129   117 116 112   115 114 110   117 113 110   106 102  99   114 110 107   121 117 114   120 115 112   111 105 105   108 104 105    92  87  91   118 114 113   116 112 111   112 109 106   101  97  94   120 119 115   122 121 118   111 109 110   110 108 111    97  95  98   100  98 101   108 107 107   133 132 130   131 130 126   107 106 103  
 187 188 192   175 177 182   152 157 161   143 148 154   136 141 147   132 137 144   138 141 146   135 138 143   135 136 140   130 132 135   125 125 127   111 111 113   103 101 102    93  91  92    93  92  90   108 107 105   112 108 107   106 102 101   117 113 110   123 118 116   121 117 114   122 118 115   116 112 109   124 120 118   119 115 114   112 108 107   104  99  99   114 110 109   113 109 108   102  98  97   106 103 101   107 103 102   114 109 109   108 104 103   101  99 100    96  94  97    97  96  95    97  96  94    87  86  82    76  75  71    94  94  91   108 108 106   101 101 101    96  96  97    85  85  87   106 105 108   119 119 119   114 114 114    98  98  96    94  93  91  
 183 184 188   166 169 174   150 155 162   138 144 150   135 140 146   128 133 139   137 140 145   134 137 142   132 133 137   123 124 128   109 109 112   103 103 105   111 109 110   104 102 103    98  96  95    96  94  92   104 100  99   108 104 103   110 106 105   112 108 107   111 107 105   115 111 110   106 102 100   123 119 119   117 113 113   102  98  98   100  96  96   115 110 112   109 105 105   107 103 105   115 111 111   102  98 100   108 104 104   111 107 108    90  88  91    86  84  87    75  74  75    88  87  85    90  89  85    98  97  93   110 110 107   114 114 114   104 104 104   103 103 105    99  98 103    89  88  93   105 105 107   108 108 108    98  98  96    80  80  78  
 174 175 180   153 156 162   146 151 157   133 140 146   130 135 141   118 123 129   136 139 144   132 135 140   121 122 126   112 113 117   104 104 106   106 106 108   105 103 104   107 105 106   114 110 109   111 107 106   107 103 102   112 108 107   121 117 117   115 111 113   113 109 109   117 112 115   103  99  99   113 109 110   113 109 110    97  93  94   105 101 103   115 110 114   109 105 107   105 100 104   122 118 120   107 102 106    95  90  93   102  98 102    91  90  92    81  81  83    81  81  81    99  99  98   108 108 105   109 109 106   113 113 111   115 115 115    89  89  90    91  91  93   114 113 118   107 106 111    96  96  98   113 113 114   103 103 101    87  87  85  
 164 165 172   144 147 154   135 140 146   127 134 141   119 124 130   107 112 118   133 136 141   129 132 137   115 115 120   108 110 113   106 106 108   104 104 106   106 104 105   107 104 105   107 103 102   111 107 106   115 110 108   111 106 106   117 112 115   115 112 117   118 113 116   118 113 119   109 104 107    95  90  93   108 103 106    90  84  87   105  99 103   115 109 113   117 112 116   103  98 102   104  99 103   104  99 103   104 101 103    91  89  92   107 107 109   109 108 112    87  87  88   100 100 100   115 115 112   122 122 120   120 120 118   116 116 116   101  99 102   102 101 105   121 120 125   129 127 132   117 115 118   120 118 121   123 122 120   121 120 118  
 158 158 166   140 143 150   128 133 141   113 120 128   118 123 129   123 128 134   127 130 135   129 132 137   121 122 126   112 111 116   105 105 107   104 102 105   106 102 103   107 103 104   106 102 101   111 105 105   116 111 108   117 111 111   110 105 109   108 106 111   114 109 114   113 108 115   116 111 117   104  99 105   114 108 112    91  84  89   103  97 101   117 111 115   114 109 113   108 104 105    93  88  90    78  74  75   103 101 102   103 101 102    88  87  92    92  91  96    77  76  81   106 106 108   108 108 108   118 118 118   127 127 127   116 116 118   113 111 116   105 103 108   115 113 118   127 125 130   131 129 132   117 115 118   126 125 123   119 118 116  
 156 156 164   138 140 148   125 129 138   120 124 133   123 127 136   134 138 147   115 118 125   119 122 127   111 112 116   114 114 119    99  99 101   104 101 105   106 102 103   113 109 108   123 118 115   119 114 111   119 113 110   133 127 127   131 126 130   107 105 110   101  99 104   104 103 108   108 103 108   106 101 105   109 102 104   111 105 107   109 103 105   110 105 106   111 106 107    97  93  92   101 100  98    91  90  88    67  66  64    57  55  56    58  57  62    78  77  84    84  83  88   122 122 124   111 111 111   103 103 103   121 119 120   132 130 133   119 117 122   120 118 123   110 108 113   124 122 127   116 111 115   118 113 117   126 122 121   127 123 122  
 152 152 160   136 136 144   125 129 138   125 130 139   116 120 129   118 121 130   113 116 123   124 124 132   108 107 112   111 110 115   109 107 110   111 106 110   105 102 100   111 105 105   122 117 114   118 110 108   115 108 105   128 121 122   121 117 120   111 109 113   104 102 106   102 100 104    96  92  95   103  98 101   105  99 100   111 105 106   110 104 105   113 107 106   124 120 118   122 119 115   111 110 106   113 112 108   111 111 105    62  61  59    68  67  73    91  90  98    90  89  95   116 115 120   122 122 124   102 102 103    96  94  97   115 113 116   125 123 128   127 125 130   125 122 127   125 122 127   128 123 127   127 123 124   131 127 126   120 116 115  
 148 148 156   134 136 143   124 128 137   123 127 136   126 129 138   113 116 125   110 113 120   128 128 135   128 128 132   114 113 118   111 109 112   107 102 106   106 102 102   116 110 110   124 118 117   125 117 115   121 113 111   117 108 109   104 100 101   109 107 110   104 102 105   107 105 108   104 100 101   100  96  97   108 102 102   107 101 101   107 101 101   113 108 105   120 116 113   116 112 108   100  99  95    91  90  86   104 103  97    88  87  85    85  84  90    91  90  98    89  88  94   105 103 108   122 120 123   113 111 113    94  92  94    87  85  88   103 101 105   109 107 111   116 112 117   119 114 119   126 122 124   125 121 122   114 110 108    95  91  88  
 142 145 152   131 135 141   122 126 135   120 123 132   128 133 140   118 121 129   110 113 119   122 123 128   122 123 127   112 111 116   106 105 108   103 100 104   102  99 100   108 103 104   127 123 123   149 142 142   139 133 132   119 112 113   115 111 112   112 108 112   112 108 112   111 107 110   110 106 107    90  86  87   111 106 107   129 124 125   124 119 120   119 115 114   114 110 110    94  90  90    96  92  93    93  90  91    76  72  74    84  83  85    95  94  99    95  94 100   103 101 105   107 105 107   122 118 119   120 117 117   109 106 105    93  91  91    92  91  91    91  91  92   101 101 102   113 110 112   104 102 103   116 114 115   112 108 105    99  95  92  
 135 138 145   125 128 135   118 122 131   115 119 128   123 128 134   121 125 132   115 119 124   115 117 122   109 110 114   109 110 114   109 109 112   102 102 104    96  94  95    86  84  84    88  84  85   105 100 101   121 115 115   136 130 132   135 131 132   124 119 123   118 113 117   115 110 114   120 116 117   102  98  99   113 109 110   121 118 119   121 117 118   104 100 101   110 105 109   107 102 106    94  89  95    81  76  83    64  59  65    67  62  69    73  72  77    86  86  88   107 105 106   110 106 105   114 109 106   111 106 104   114 110 107   114 110 107   111 110 108   107 107 106   100 100 100   105 104 105    98  96  97   104 103 101   102  98  95   114 109 106  
 125 128 135   116 119 126   114 118 127   120 124 133   125 130 136   119 124 130   118 121 126   116 119 124   110 111 115   111 112 116    95  95  97    87  87  89    90  88  89    90  88  89    89  86  86    89  85  86    93  86  86   105  99 101   121 117 118   120 115 119   104  99 103    95  90  94   114 110 111   135 131 132   139 134 136   115 111 112   112 108 109   100  96  97   104  99 102   113 108 112   102  97 103    83  78  84    80  75  81    88  83  89    87  86  91    95  95  97   111 109 110   119 115 114   128 123 120   123 118 114   124 121 116   120 116 113   115 114 112   116 115 113   104 104 104   105 104 105    97  96  94   101  99  98   107 103 100   123 118 115  
 121 123 131   116 119 126   116 120 129   130 134 143   128 133 139   115 120 126   118 121 126   123 126 131   120 121 125   112 113 117    97  97  99    94  94  96    98  97  98    97  95  96   102  98  99   106 102 103    99  93  93    95  89  91   100  96  97   110 105 109   102  97 101    92  87  91    98  94  95   122 118 119   129 125 125   109 105 105   105 101 101   111 107 107    98  93  94   101  96  99   108 104 107   101  96 101   110 105 108   128 123 128   131 129 133   131 129 132   133 129 130   133 127 127   133 128 124   118 113 109   117 113 108   112 109 104   107 106 102   105 104 102   108 107 106   103 101 101    93  92  90    98  94  93   123 118 115   126 118 115  
 125 128 135   127 130 137   123 127 136   130 134 143   123 126 133   118 121 128   122 125 130   124 126 131   119 120 124   110 110 114    97  97  99    97  96  99   102 100 101    99  97  98   101  97  98   105 101 102   102  96  96   103  97  99    96  92  93   103  98 102   107 102 106   106 101 105   100  96  97   104 100 101   115 111 110   108 104 103   104 100  99   110 106 105   101  97  96   109 105 105   123 119 120   127 123 125   131 127 128   122 118 120   116 114 117   112 109 112   110 106 106   119 114 112   129 122 119   119 111 108   121 116 112   115 111 107   113 110 107   111 110 107   111 110 108   105 104 102   110 108 104    94  89  86   118 113 109   131 123 120  
 130 133 140   135 138 145   127 130 139   123 126 135   115 118 125   118 121 128   123 125 130   121 121 126   118 119 123   109 108 113   105 105 107    97  95  98    98  96  97   103  99 100   110 106 107   113 109 110   106 100 100   105  99 101   101  97  98   109 104 108   117 112 116   107 102 106   103  99 100   107 103 104   122 118 118   106 102 102    98  94  93   110 106 105   120 116 115   121 117 116   106 102 101    97  93  93   101  97  97    95  91  92   101  99 102   107 102 106   112 108 107   127 122 119   133 125 122   115 108 103   121 115 109   117 112 108   114 110 107   117 113 110   108 107 104   115 114 111   126 123 119    97  92  88   107 102  96   132 125 120  
 132 135 142   133 136 143   125 128 137   122 125 134   113 116 123   113 116 123   117 118 123   122 123 128   128 127 132   112 111 116   102 100 103   104 102 105   112 108 109   107 104 104   104 100 101   105 101 102   102  95  95   101  95  95    91  87  88   110 105 109   134 129 133   120 115 119   106 102 103    96  92  93   120 116 117   115 111 112   103  99  98   101  97  96    93  88  88    92  88  87    99  95  94    89  85  84    82  78  77    92  88  87    89  86  88    92  87  91    94  90  89   115 110 107   129 121 118   114 107 101   124 117 111   122 115 109   112 109 104   110 107 104    98  97  93   115 114 110   108 105 100    95  90  86   109 104  97   125 118 112  
 133 138 144   128 131 138   122 125 134   119 119 129   117 117 124   117 117 124   118 119 124   128 129 134   114 113 118   113 112 117   111 109 112   103 100 103   110 106 107   116 112 113   110 106 107    98  94  95    93  89  88   102  98  97   104 100 101   102  98  99    97  93  94   109 105 106   122 117 118    98  94  95   115 112 112   105 101 102   108 104 105   107 103 104   103  99  98    96  92  91    93  89  88   102  98  97    88  84  81    84  80  79    72  70  71    81  76  80    91  87  86   102  97  94   112 104 101   124 116 113   130 123 117   117 110 104   108 106 101   113 110 105   104 103  99   102 101  97   117 114 109   102  97  93   116 111 105   121 114 108  
 135 140 146   131 134 141   115 118 128   113 113 123   110 110 118   111 111 119   121 121 126   125 125 131   112 111 116   109 108 113   113 111 113   109 107 110   109 105 106   116 112 113   117 113 114   115 111 112   115 111 110   109 105 104   108 104 105   108 104 105    99  95  96    97  93  94    97  92  94   109 105 107   115 111 113    99  95  97    97  93  95    91  87  89    99  95  95    98  94  94   107 103 102    97  93  92    88  84  81    89  85  84    82  80  81    91  86  90    94  90  91    94  88  88   103  95  93   124 116 113   132 126 120   118 113 109    98  95  90   109 106 102   101 100  96    97  96  92   121 118 113   129 124 120   122 117 111   122 115 109  
 134 139 145   128 131 138   110 112 121   107 107 117   105 105 113   101 101 109   115 114 120   109 108 114    96  95 100    92  91  96   114 112 115   106 104 107    88  84  85   115 111 112   114 110 111   118 114 115   118 114 113   116 112 111   118 114 115   120 116 117   117 113 114   114 110 111    93  88  92   112 107 111   118 113 117   115 110 114   104  99 103    92  87  91   101  97  98   105 101 102    96  92  92    99  95  94    98  94  93    85  81  82    78  76  79    88  85  89    99  94  97    96  90  91    93  87  84   107  99  96   122 117 113   133 129 125   118 116 112   107 106 102   113 112 108   117 116 112   118 116 111   130 126 122   133 128 122   129 122 116  
 127 132 138   114 117 124   111 111 121   112 110 121   110 109 118   105 104 113   114 113 119   104 103 109    97  96 101    92  90  95    98  96  99    89  87  90    73  69  70   112 108 108   120 117 118   116 111 112   113 109 108   117 113 112   118 114 114   119 115 115   124 120 121   130 127 128   103  98 102    92  87  91   102  97 102   102  97 102   106 101 106   111 106 111    97  93  96    96  91  94   102  97 101   112 108 108    96  92  92    84  80  83    76  74  79    82  81  86   102  97 100   109 102 105   107 102  99   107 101  98   111 107 103   127 123 120   124 123 119   116 115 111   130 129 127   127 126 123   103 101  97   102 100  95   137 132 126   128 122 116  
 119 124 130   106 109 116   105 105 115   111 109 120   113 112 120   112 111 119   115 114 120   114 113 119   118 116 121   109 107 112    88  85  89    83  81  84    80  76  77    89  85  86   126 122 123   115 111 112   124 120 119   125 121 120   124 120 119   121 117 116   118 115 115   120 116 117   107 102 106    89  84  89    98  93  99    85  80  86    97  92  98   107 102 108   100  95  99    90  85  89    99  94  98    90  85  89    95  91  92   103  98 102    74  73  78    77  76  82    94  91  96   102  98  99   112 106 106   115 110 107   106 102  99   115 111 108   110 109 105   123 122 118   132 132 130   123 123 121   108 108 103    85  84  80   124 121 114   135 130 124  
 112 117 123   108 111 118    94  94 103   100  99 109   101 100 108   106 105 113   103 102 108   114 114 119   124 123 128   110 108 113    90  88  91    98  96  99    96  92  93    86  82  83   127 123 123   121 117 118   116 111 111   115 111 110   118 114 113   118 114 113   119 115 116   107 103 104    99  94  98    94  89  93    95  90  96    89  84  90    95  90  97    84  79  86    85  80  86    90  85  91    90  85  91    89  84  90   114 109 113   117 112 118    76  75  81    72  71  77    82  80  85    88  84  85    99  93  93   103  97  97    93  89  87   108 105 102   110 109 107   117 117 115   124 124 121   122 122 120   118 117 113    99  97  93   115 112 105   131 127 121  
 110 112 119   109 108 116    93  92 100    94  92 100    93  91  99   104 103 109    99  98 103   113 112 118   120 118 123   102 100 105   114 112 115   120 118 121    99  95  97    82  79  80   110 106 108   121 117 119   105 101 103   113 109 109   109 105 104   113 109 108   126 122 123   110 106 107    96  92  92    95  91  91    91  87  89    90  86  88    92  88  92    97  93  97    94  89  94   100  95 100    91  86  89    91  86  90   103  98 102   115 110 116    87  84  91    71  70  76    79  77  80    86  85  85   101  98  97    92  89  88    80  79  79    93  92  92   105 105 106   111 111 110   121 122 117   117 116 110   112 110 103   116 112 104   121 117 110   115 110 104  
 113 110 117   111 107 114   100  97 103    91  89  95    94  91  97   110 108 113   109 107 112   113 111 116   116 114 119   105 103 108   121 119 122   110 108 111    96  94  97    85  83  86    99  97 100   116 114 117   113 111 114   115 113 115   117 113 113   108 104 103   108 104 103   100  96  95    98  94  92   105 101  99   110 106 104    92  88  86    88  84  84    88  84  84    89  85  85    92  87  90    96  90  92   100  94  97   104  98 101   108 102 107    95  91  98    81  79  83    85  85  84    84  84  81   101 102  98    90  90  90    92  92  94    94  93  98    95  94  98   114 113 114   131 129 123   120 117 107   125 120 108   126 118 107   130 122 113   122 114 107  
 107 104 111   103 100 107    95  92  98    90  87  94    89  87  92    88  86  91    89  87  92    87  85  90   106 104 109   110 108 113   112 110 114   104 102 106    98  96 100    92  90  94    96  94  97   103 101 104   104 102 105   110 108 111   116 111 112   116 112 112   112 108 107   107 103 102   105 102 100   116 112 111   119 115 112   111 107 105    94  90  87    94  89  89    94  88  88    94  88  89    99  93  93   104  98 100   107  98 101   103  97 101    97  91  96    92  89  90    99  96  93    93  92  87   109 108 103   100  99  98    99  97  98   108 106 109   109 107 111   127 123 123   138 134 126   121 116 103   120 113  98   134 125 111   129 119 110   133 123 114  
  93  90  97    90  87  94    88  85  91    83  80  87    71  69  74    62  60  65    64  62  67    58  56  61    68  67  72    77  75  80    80  78  83    79  77  82    81  79  84    72  70  75    63  61  64    75  73  76    84  81  85    78  76  79    91  88  89   110 106 107   110 106 105   103 100  98    93  89  88    98  94  93    99  95  92   107 102  99   120 115 112   126 121 118   126 121 118   115 109 109   105 100  97   104  95  96   105  96  97   104  95  98    94  85  88    92  86  86   105 100  96   108 104  98   120 115 109    98  95  92    88  84  84   108 104 105   111 107 109   136 132 128   142 137 125   143 137 121   146 137 120   140 129 113   140 128 116   136 124 113  
  93  91 100    85  84  92    76  75  81    79  78  84    67  66  72    72  71  77    73  72  78    67  66  72    61  60  66    64  63  69    77  76  81    72  72  77    76  75  80    87  86  91    82  81  86    67  66  71    69  67  72    83  81  84    87  84  86   103 100 101   107 103 104   112 108 109   111 107 106   111 107 106   106 101  98   113 108 105   117 112 108   124 116 113   123 115 112   119 111 109   119 110 107   122 112 111   122 112 111   119 109 108   116 106 107   113 104 102   122 115 109   120 113 105   126 119 111   109 103  99    93  88  85   115 108 109   126 121 118   131 124 118   123 115 102   112 103  86   126 114  94   126 113  96   145 131 118   143 129 115  
  96  95 103    86  85  93    82  81  87    86  85  92    76  75  82    84  83  90    84  83  89    81  80  86    78  77  83    83  82  88    86  85  90    95  94  99    88  88  93    89  88  94    97  96 101    91  90  95    76  75  80    64  63  68    80  77  81   107 105 106   115 112 113   108 104 105   111 107 106   126 120 120   128 123 120   125 117 115   125 118 114   126 118 114   123 115 111   118 108 105   115 106 103   119 108 106   124 113 111   127 117 115   126 116 115   126 116 115   135 126 119   125 116 107   127 120 111   124 117 110   103  95  93   109 100 101   119 111 108   113 104  98   129 121 107   114 104  86   119 108  88   124 111  93   138 122 107   142 129 113  
  93  92 100    91  90  98    93  92 100    91  90  98    86  85  93    87  86  94    91  90  96    85  84  90    88  87  93    89  88  94    90  89  95    91  90  96    93  92  98    95  94 100    90  89  94    98  97 102   104 103 108    77  76  81    66  64  67    90  88  91   113 111 112   114 110 111   117 113 112   117 111 111   124 117 115   124 116 113   123 115 109   130 121 116   136 127 122   135 126 121   129 119 114   125 114 110   126 115 111   131 120 118   130 118 118   123 111 111   131 122 115   125 116 107   126 119 109   128 121 114   102  94  92   102  93  94   117 109 106   102  94  87   118 111  95   142 132 114   145 134 114   137 124 105   143 129 113   145 132 116  
  95  94 100    97  96 103    92  91 100    97  96 104    94  93 102    88  87  96   102 101 107    97  97 102    96  95 101    96  95 101    98  97 103    90  89  95    89  88  94    84  83  89    86  85  90    86  85  90    93  92  97    94  93  98    79  78  82    66  65  69    78  76  78   104 100 101   131 127 126   122 116 116   118 110 108   129 121 118   124 115 110   123 114 109   139 128 123   140 130 124   137 126 120   131 120 115   136 127 121   144 134 130   144 133 133   128 117 117   130 123 116   128 120 112   125 120 111   121 115 109   114 108 105   108 101 101   116 110 108   107 100  94   114 108  93   121 114  96   151 142 123   153 142 123   141 128 114   133 120 106  
 100  99 105    94  93  99    94  94 100   100  99 107    95  94 102    95  94 102   103 102 108   100  99 105    90  90  95    94  93  99   102 101 107    94  94  99   100  98 105   104 103 109   103 102 107    82  81  86    74  73  78    81  80  85    97  96 101   102 101 106    79  77  80    67  62  66   110 107 107   151 145 145   150 141 140   149 141 139   150 141 138   143 134 129   144 133 127   147 136 130   143 132 126   145 136 129   139 130 123   139 130 125   116 106 105   128 118 117   137 130 124   133 126 118   133 129 120   123 118 112   110 106 105   106 102 103    99  95  94   121 116 111   143 139 127   109 103  87   117 110  92   144 134 117   153 143 131   142 130 118  
 113 112 117   103 102 108   101 100 106   102 101 107    94  93  99    98  97 103    90  89  95    89  89  94    87  86  92    98  97 103    95  94  99    98  97 102    95  94  99   103 102 107   107 106 111    99  98 103    79  78  83    72  71  76    87  86  92    90  89  95    83  81  86    71  66  70    78  74  75   136 130 130   147 138 137   122 114 112   122 112 110   114 104 102   115 106 101   114 105 100   128 119 112   128 121 113   106  99  91    84  77  71   103  95  93   131 123 121   129 125 116   117 113 102   126 123 113   125 122 115    97  96  94   103  99 100   107 103 102   113 108 104   134 130 119   126 120 106   131 124 108   126 117 102   142 132 122   172 162 152  
 110 108 113   108 107 112   104 102 109    98  97 103    92  91  96    93  92  97    93  91  97    92  91  96    89  88  94    91  90  95    93  92  97   101 100 105    89  88  93    94  93  98   103 101 106   111 110 114   100  98 103    90  89  94    83  82  88    73  73  78    71  70  75    71  66  73    69  65  66    74  68  70    81  72  73    96  88  86    89  79  77    82  72  70   100  92  87    87  78  74    97  90  83    86  80  73   108 102  94   123 116 110    95  88  84   120 112 109   118 113 104   106 102  91   109 106  94   110 107 100    83  81  77    95  91  91   129 125 124   126 121 117   114 110  99   108 102  88   132 125 109   115 106  94    90  80  71    98  88  79  
 112 110 113   108 106 110   104 102 108   102  99 106   103 101 106    99  97 102   109 107 112   106 104 109   103 101 106    97  95 100   100  98 103   108 106 111    98  96 101   103 101 106   103 101 104   106 104 107   107 105 108   101  99 104    89  88  93    80  79  85    93  91  96    87  82  88    79  75  77    82  76  78    99  90  91   102  93  93   111 101 100   113 103 101   131 123 120   117 109 106   108 103  97   102  98  92   119 115 108   129 124 118   127 120 114   137 128 122   142 134 123   134 128 115   130 125 112   128 124 114   112 107 104   133 128 127   135 131 129   140 134 130   137 131 121   129 122 109   138 131 115   141 132 119   124 114 105   103  92  85  
 108 107 110   100  95  99    91  89  94    99  97 102   102 100 105   100  98 103   106 103 108   101  98 103   102 100 105   111 109 114   106 104 108   110 108 111   103 101 105   103 101 105    97  95  98    96  94  97   106 105 107    92  90  95    82  81  86    90  89  95    95  93  98    79  74  80    79  74  78    94  88  90   103  94  95   103  94  95   105  96  94   113 104 102   124 118 115   110 104 100    86  83  78   104 100  95   118 116 110   118 114 107   129 120 114   132 122 114   147 138 124   146 139 124   152 146 131   138 133 121   111 104  99   126 118 117   134 127 124   120 112 107   125 119 107   135 127 114   134 127 111   151 142 128   150 140 130   112 100  94  
  94  89  95    93  88  94    87  85  90    94  92  97    91  89  94   103 101 106   112 110 115   109 107 112    99  97 102   113 111 116   112 110 113   106 104 107   111 109 112   119 117 120   103 101 104    79  76  79    99  97 100    97  95 100    88  87  93    77  76  82    86  84  89   100  98 103    92  87  91    91  85  89    96  90  92   117 110 110   120 115 112    97  92  88   118 113 109   128 123 117   108 103  97    93  88  82   105 102  97   115 110 104   109  98  92   122 109 100   142 133 118   139 132 114   152 146 130   127 121 109    91  84  80   110 102 100   124 116 113   104  97  91   120 112 101   151 143 130   140 131 116   126 117 102   133 123 113   137 126 118  
  94  91  98   101  98 105    94  92  97    97  95 100    91  88  95    86  83  90    94  91  98    95  92  99    86  83  90    98  96 101   101  96 101    98  93  97    99  95  96    89  85  86    87  83  84   101  96 100    93  88  92    73  68  74    93  90  97   104 101 108   106 103 110   104 101 108    78  76  81    69  64  68   120 116 117   128 125 122   125 122 117   114 109 103   104  99  90   110 103  94   118 109 102   106  97  90   117 108 103   122 111 107   112  98  95   132 119 111   139 130 113   126 120 101   137 131 117   129 125 117    95  89  89   108 102 104   116 108 106   120 113 105   135 127 116   146 138 125   145 137 124   139 130 118   145 137 124   162 154 143  
 106 103 109   103  99 106    93  92  97    95  94  99    90  88  93    85  82  89    88  85  92    96  93 101    92  89  96   101  98 103   120 115 119   113 109 112   107 103 103   116 111 112    75  71  72    89  84  88    97  92  96    76  71  77    98  95 100   112 109 115    92  89  94    84  81  85    72  69  74    85  82  85   107 105 104   113 109 106   108 105  98   106 102  93   101  95  85   107  97  88   119 109  99   108  98  92   117 104  98   124 110 107   125 109 109   120 107 101   140 131 114   136 129 110   126 123 108   131 127 120    86  82  82    92  86  89   126 121 117   116 109 101   132 124 112   143 134 122   144 135 125   136 127 116   124 117 104   111 103  90  
 132 127 132   120 115 120   110 108 112   109 107 111   108 106 110   111 109 115   106 103 109   113 110 117   106 104 109   108 106 110   119 115 117   127 123 124   115 111 110   119 115 114    89  85  86   105 101 103   116 111 115    86  81  86    92  87  92   103  98 102    93  88  91    79  74  78    82  78  80    93  88  91   108 104 102   124 119 116   113 109 101   123 118 109   125 117 107   124 115 106   134 124 115   121 110 104   124 110 106   134 120 118   118 102 102   122 108 104   156 147 131   136 129 110   133 130 115   128 124 115    89  85  84   102  96  97   127 121 116   116 108  98   123 115 101   121 111  98   119 109  98   132 122 112   137 129 116   136 127 113  
 130 126 128   137 131 134   137 134 135   116 112 116   107 103 107   108 104 110    97  93  99   101  97 103   100  96 100   107 103 106   105 103 104   106 104 103    96  94  93    98  96  94    95  93  94   112 110 110   118 116 119    98  93  97   105 101 102   104  99  99    99  94  94    83  77  80   102  97  97   117 111 112   115 110 108   107 102  98   110 106  96   140 132 123   147 139 129   126 117 108   129 119 110   125 114 108   122 108 105   120 106 105   100  84  85   119 104 101   145 136 121   121 114  96   143 140 123   139 135 125   113 109 106   122 116 114   117 110 103   118 110  99   123 114  97   136 127 110   150 140 128   163 153 143   122 113 101    98  90  75  
 123 118 119   142 136 138   149 145 146   119 115 116   109 105 107   108 103 108    99  94 100    90  85  91    91  86  90   100  95 100    95  94  92    94  93  90    91  90  88    94  93  91    77  76  74   103 101 102   109 107 108    86  81  83   103  99  96   113 108 105   116 111 108   122 117 114   127 122 119   135 127 125   113 108 105   105  99  93   131 125 115   133 125 115   120 112 101    96  87  78   117 107  98   131 120 116   125 111 108   112  98  98   126 110 113   137 122 121   138 128 116   112 105  87    99  96  79   106 102  91   103  98  94   128 120 117   143 136 126   165 157 144   159 150 133   131 121 105   122 112 100   143 133 123   116 106  94   118 106  90  
 127 121 121   134 128 128   125 121 120   106 102 103   114 110 111   116 111 115   118 113 119    98  93  99    97  92  96   101  96 100    95  94  92   113 112 110   103 102  98    90  89  87    77  76  74    97  95  96   122 120 121    98  94  93   111 106 102   129 122 116   125 118 112   134 126 123   136 127 124   117 107 105    99  92  86   117 108 101   112 103  93    94  86  75   108  99  88   134 124 115   161 151 142   157 146 141   159 148 144   184 170 170   174 158 161   141 127 126   106  96  84    80  73  55    81  78  61   102  98  87    98  93  89   154 146 143   163 157 145   163 156 140   166 158 139   134 123 105   120 108  94   122 110  98   122 109  97   146 134 118  
 136 130 130   135 129 129   104 100  99    97  94  92   114 111 112   115 111 115   115 111 117    97  93  99   111 106 110   118 115 116   115 113 111   130 128 125   100  98  94    67  65  62    77  75  72    75  73  71   106 104 102   103  99  97   104 100  93   129 122 114   126 119 111   105  97  92   112 103  98    96  87  82   102  92  85   137 127 119   139 130 120   142 134 122   164 154 144   168 158 148   170 160 151   150 139 133   140 129 125   140 128 127   125 110 113   114 100  99    99  89  77   116 110  91   159 155 139   141 137 125    90  85  79   140 133 127   160 152 139   140 131 114   143 132 112   104  91  74   106  92  79   122 107  96   121 109  94   122 109  93  
 138 133 133   120 115 115   103 101  99   115 113 113   129 127 129   138 136 140   116 114 119   103 101 106   125 123 126   132 130 131   135 131 130   139 135 132   117 114 109    76  72  68    71  67  64    82  78  76    87  83  81    90  85  82   103  99  90   112 105  97   115 107 100   113 104  98   131 122 117   119 110 105   104  93  86   115 105  96   113 103  92   141 131 119   160 150 138   141 131 120   126 116 106   109  98  91   121 110 105   118 107 105   105  91  92   101  87  86    92  84  70   151 144 125   152 149 132   140 136 124   105 100  94   112 105  99   146 138 125   145 135 118   155 143 124   114 100  80    98  84  68   145 129 115   143 128 112   141 126 110  
 130 126 126   118 113 116   120 119 119   132 131 133   135 134 136   144 143 148   129 127 132   129 128 133   131 129 132   115 113 114   119 115 114   118 114 111   109 105 101    96  92  87    87  82  79    98  93  90    86  81  78    87  82  79   138 134 127   153 146 138   135 128 120   144 137 130   154 145 140   124 115 110   126 116 107   115 105  96   111 101  89   115 105  93   115 106  92   111 101  89   119 109  97   128 118 108   139 129 121   129 118 115    98  84  83    81  67  64   139 132 116   172 165 146   106 103  86   119 115 103   139 133 127   114 105 100   136 126 114   148 136 120   166 154 133   138 123 102   102  86  68   155 138 121   159 143 124   171 154 135  
  92  90  93   100  98 103   116 115 117   118 117 121   124 123 128   114 113 119    94  93  99    94  93  99   112 110 115    82  80  80    65  61  60   106 102  99    83  78  74    75  70  66    93  88  84   113 108 104   110 105 101    99  94  90   118 113 107   150 145 139   151 146 140   149 142 136   127 120 114    91  81  76   103  94  87    97  87  79   107  97  86   120 110  98   131 122 107   139 130 116   139 130 116   143 133 121   143 133 123   128 117 111    84  70  67   110  96  91   171 164 146   166 159 140   126 123 106   123 118 108   120 112 108   117 107 105   128 118 107   146 133 117   165 150 129   144 128 105   131 114  94   152 135 115   159 143 120   162 146 124  
