P3
50 50
255
  40  50  15    63  76  39   120 135  96   110 122  84    65  71  35    51  55  20    60  64  29    68  74  38    51  61  26    50  62  26    57  68  34    34  41   8    30  33   2    38  37   7    40  39   9    74  71  40    87  82  52    97  91  59   129 123  91   167 161 129   213 208 176   218 216 180   172 173 139   118 124  88    72  80  43    47  55  18    62  68  32    67  72  38    90  91  59   102 107  69    98 110  64   117 125  78   158 153 113   200 187 153   204 195 164   194 184 157   192 180 158   172 157 138   109  91  76    64  45  30    94  72  58    89  61  47   165 129 117   115  79  65    42  15   1    83  60  42   106  79  62    57  31  19    69  44  40    99  76  70  
  76  83  48    61  73  37    75  87  49    79  91  53    60  65  29    62  65  30    67  70  36    77  83  47    77  87  51    73  83  47    81  90  56    55  60  27    52  53  22    54  53  23    65  67  35    90  92  59   128 126  93   167 163 131   189 185 152   193 189 154   197 195 159   152 155 117   126 131  93   120 129  89    83  94  54    49  59  21    44  52  15    53  59  23    74  75  43   100 104  66   117 131  80   124 135  82   168 163 120   193 182 146   208 200 168   178 169 142   199 186 165   115  99  83    33  15   1    87  69  55    98  79  65    76  51  38   127  91  79    85  47  33    55  28   8   100  77  56    84  60  41    40  15   4    53  30  26   107  84  78  
  85  92  56    90 101  64    92 103  67   108 118  81    96 101  65    72  75  39    83  85  51    77  82  47    70  78  41    78  88  51    79  86  51    51  56  22    59  59  28    48  48  16    58  63  28    82  88  51   114 116  81   177 178 142   206 204 168   200 199 161   184 185 146   142 147 107   115 122  81    85  95  53    57  68  26    51  61  21    50  58  20    59  65  29    80  81  47    98 103  63   117 131  80   121 134  82   109 106  63    96  87  50   138 133 101   141 135 108   124 114  94    45  31  23    50  31  17   103  83  70    75  56  42    61  37  22   136 100  87    99  62  45    56  27   6    89  65  42    87  65  44    64  41  27    36  16  10   100  79  72  
  42  48  15    61  69  36    59  69  34    80  90  55    83  90  56    62  68  34   113 118  84    94 100  66    70  77  41   132 142 105   145 155 116    70  79  41    77  84  46    71  79  40    59  66  25   103 108  68   106 111  71   168 170 131   203 204 165   209 210 171   155 157 118   116 119  79    93  99  59    60  66  26    47  53  14    50  55  18    56  61  24    82  87  50    92  93  57   106 110  73   118 128  87   127 135  95    81  81  46    45  40   9    80  75  48    78  74  49    26  23  15    71  62  49   145 124 110   109  83  69    77  53  37    65  39  20   126  92  73    82  45  25    85  50  27   108  78  55    85  63  44    78  58  44    29   9   1    85  65  58  
  54  57  26    71  77  44    60  68  34    43  53  19    35  45  11    26  35   3    54  64  29    82  90  54   117 124  88   148 159 119   137 149 107   101 114  72   104 120  75   105 118  74    62  70  29    48  52  15    87  92  52   124 129  89   164 166 127   167 169 130    86  88  49    80  82  42    86  89  49    68  70  31    79  82  43    62  64  25    61  63  24    83  85  46   100 102  63   121 125  90   140 145 112   132 137 107    72  73  46    59  59  32    53  51  28    23  21   3    38  41  19   168 163 141   155 132 117   124  92  77    96  68  50    86  58  36   114  82  60    80  44  20   119  80  55   101  67  45    71  48  30    71  53  39    32  12   2    83  63  56  
 120 124  90   160 165 131   145 153 118    68  78  43    25  37   4    39  51  13    29  42   4    55  66  29    82  93  55    83  94  54    78  91  48    91 104  61    93 109  64   112 124  84    99 106  74    60  64  37    53  58  29    65  70  38    90  94  61   104 105  71   151 152 116   163 163 125    97  96  59   118 119  79   136 138  98    98 100  60    89  91  51   102 104  64   107 112  71   113 117  80   119 124  92    78  82  55    36  36  10    40  40  13    26  24   1    36  36  12    92  97  71   107 103  78   128 105  87   120  89  70    66  39  18    89  63  40   108  78  54   107  73  48   128  90  67    75  40  20    85  61  45    57  39  25    44  24  13    96  76  69  
 128 131  93   121 127  88    87  98  57    73  86  47    66  82  42    59  75  35    61  76  37    65  78  39    40  52  12    49  61  21    73  85  43    74  87  45    56  70  27    58  70  30    54  64  32    52  60  31    48  54  25    43  48  17    39  42  11    54  55  23   106 104  74    94  91  59   106 102  69   141 140 104   127 126  90   117 118  82   137 139 102   126 128  91    85  90  52    66  72  37    39  44  16    28  32   7    29  32   6    27  27   1    47  45  20    86  86  60   109 114  86    61  57  30   110  88  66   125  95  74    64  38  16    83  57  34    82  52  31   119  88  65   123  87  66    72  39  21    90  67  51    28  10   1    53  33  24   100  80  73  
 109 111  72   110 117  75    69  81  39    66  82  40    81  98  56    64  81  39    55  73  31    69  85  43    63  79  37    56  69  30    59  71  32    77  89  50    66  78  39    42  54  14    56  69  30    54  66  28    80  89  52    93  99  64   119 121  89   127 127  97    86  81  53   105  99  73   139 131 106   131 124  98    80  76  48    83  81  53   114 114  85    65  66  37    51  55  24    69  74  44    84  89  64    46  50  26    26  29   5    45  46  20    88  86  60   108 109  79    75  80  49    94  91  61   119  97  73   115  87  65    92  68  44   123 100  76    93  65  44    82  53  32   102  68  50    93  63  46    83  60  47    37  17   8    75  55  47    97  78  71  
  92  93  52    74  81  38    67  80  36    67  85  41    82 102  60    74  94  51    48  68  27    55  72  32    87 103  63    74  89  52    54  66  30    75  88  51    79  89  53    50  62  22    51  66  21    68  82  35    74  85  41   103 110  71   130 131  98   121 118  88   146 139 115   231 222 202   211 199 180   140 129 111    61  52  32    25  19   4    46  42  19    42  42  16    83  86  57    90  94  68    64  70  44    30  35  12    31  35  10    71  74  47    89  88  60    97  98  67    69  75  41   116 116  82   125 103  77   136 108  84    92  70  46   115  93  69    93  67  45    55  28   8   104  74  57   106  78  65    59  35  24    40  18  11    59  39  32    60  42  34  
  91  92  50   100 107  65   117 130  86    65  82  38    58  79  36    68  91  49    62  83  42    49  67  29    67  83  46    67  81  46    62  73  39    73  85  52    96 105  74    87  97  62    66  79  35    65  78  32    85  94  51    77  83  44    64  64  30    39  34   7    77  66  44   130 117  98   118 103  84    61  46  27    75  62  44    98  90  68    88  84  59    94  93  65   115 117  86    82  87  58    37  46  19    48  57  30    60  64  39    61  64  36    72  73  42    79  80  48    68  74  38    70  70  36    86  65  38   179 151 127    93  71  47   105  85  61    93  71  50    50  24   7   101  73  58   103  75  64    62  37  29    50  27  21    45  25  18    34  15   8  
  70  71  31   110 117  77    94 106  64    64  81  39    55  75  33    35  56  15    44  64  26    50  67  31    42  57  22    42  55  23    40  51  21    27  36   7    36  42  14    47  56  28    58  68  35    59  70  36    70  77  44    50  53  22    49  45  16   140 133 104   188 176 149   179 166 138   185 169 142   149 135 108   176 165 136   189 180 148   190 185 153   155 152 119    84  85  51    47  53  19    46  55  29    59  69  42    68  74  48    53  56  27    66  67  36    62  63  31    82  88  52    46  45   9    68  47  18   140 112  88    89  66  42   152 131 108   104  81  63    84  58  43    53  25  13   109  82  71    90  65  58    49  26  20    48  28  21    38  19  12  
  96  98  60    91  98  58    72  84  45    85 102  61    56  74  35    49  69  30    47  63  27    26  42   7    41  55  22    41  51  21    33  41  14    27  32   7    27  32  11    33  38  16    47  54  32    71  79  56    67  73  47    67  70  40   137 135 102   214 209 172   237 230 191   230 222 182   141 129  90   158 147 109   210 201 163   174 167 130   176 171 140   119 116  87    42  42  14    38  42  15    43  53  26    63  74  46    81  88  59    46  49  19    66  67  36    97  98  66   121 127  91    58  54  20    72  51  22   100  72  48   108  83  61   153 131 110    83  60  42    70  47  31    51  22  12   101  74  65    93  68  62    41  20  14    59  40  33    41  22  15  
  89  93  56    91  99  60    81  93  55    67  82  43    50  67  29    52  69  32    64  79  43    48  60  26    51  61  29    46  54  25    56  61  35    81  85  60    84  88  64    78  83  60    60  68  48    54  62  41    89  95  69   112 117  84   123 124  86   139 138  93   168 166 116   158 155 104   135 130  80   148 144  96   170 165 122   132 129  91    95  93  63    50  49  26    30  28  10    39  42  23    58  70  42    78  91  60    85  94  62    67  72  40    73  74  42   107 108  76   122 126  91    71  67  35    86  64  38    94  64  43    93  67  46   117  94  75    74  51  34    80  55  40    43  15   3    98  71  62    91  68  62    49  28  23    71  52  45    39  20  12  
  83  89  52    85  93  56    56  68  28    56  68  29    84  99  61    65  78  40    54  65  28    82  91  57    73  79  48    96 101  72   134 138 109   170 173 147   153 157 130   104 110  85    96 104  79    31  40  15    44  53  22   101 109  71   106 112  70    90  95  47    96  99  48   153 156 104   147 149  98   124 125  77   115 116  75    84  84  50    35  37  11    37  39  20    29  30  15    39  45  27    66  81  50    83  98  63    75  86  51    77  84  51    67  68  36   105 106  74   133 137 103    98  93  63   122  98  75    77  46  26    98  71  52   120  95  78    72  46  31    82  56  41    48  20   8    73  45  35    75  54  47    68  48  42    68  49  42    27   9   2  
  98 105  68    78  88  49    65  77  37    78  90  50    98 110  70    72  82  45    87  95  58    96 102  66    70  74  41   110 113  82   136 139 108   134 136 108   105 110  80    61  68  37    50  59  30    44  54  23    43  54  20    70  80  42    95 103  62    65  73  30   116 123  78   143 149 105   121 127  83   119 125  83    78  84  45    35  40   6    46  53  22    69  74  49    47  52  31    41  51  26    45  62  26    72  90  52    71  83  47    83  90  56    81  83  51    60  61  29    85  90  56   118 113  84   116  90  69    92  59  42   115  88  71    88  62  45   106  80  65    96  70  55    47  19   7    79  52  41    45  25  17    85  66  59    74  56  46    29  11   1  
  85  93  54    70  80  40    76  89  48    87  99  57    91 101  59    83  90  51    79  85  47    59  63  27    35  39   7    76  77  45   135 136 104    92  95  64    48  53  21    87  94  61    78  89  57    70  84  51    66  80  47    63  74  43    50  61  30    94 105  72   121 132 101   104 115  82   121 131  98    78  88  54    34  44  10    56  67  30    90 100  63    51  64  23    53  66  25    84  99  58    59  77  35    51  69  29    41  56  18    67  75  39    98 100  67    67  68  36    45  48  17    82  77  50   124  97  78   109  76  61   102  75  58    64  38  23   106  78  64    72  44  31    70  41  26    80  54  41    34  14   5    80  63  55    73  55  45    39  22  10  
  47  58  20    85  96  56    85  97  55    88  99  57    91  99  55   102 108  65    70  75  32    92  94  54   140 142 104   125 125  92    90  91  60    68  71  41    61  66  34    66  73  40    56  64  34    46  56  26    44  53  24    55  63  37    65  73  48    72  80  55    75  84  59    87  95  71    70  79  53    43  54  25    46  57  26    58  70  35    57  69  31    62  77  36    80  96  53    90 107  65    84 102  62    70  88  50    72  86  51    75  85  50    74  79  46    89  90  59    82  79  52    73  65  39   117  93  74    90  61  44    80  53  37    98  72  57   101  73  59    44  16   3    95  66  52    72  45  32    48  24  14    71  51  44    54  37  29    34  18   9  
  54  67  26    53  66  23    81  92  51    93 103  60    96 104  57   134 139  90   126 128  80   159 159 115   197 196 158   175 173 141    88  89  58    43  46  17    56  61  30    46  53  22    38  43  16    36  41  16    42  45  21    35  38  16    72  75  53    85  88  66    63  66  43    53  58  35    60  65  42    66  73  48    62  72  43    51  62  32    37  51  18    44  60  25    51  69  33    57  74  38    78  93  60    86 101  69    65  79  45    64  75  42    72  78  47    62  63  35    88  82  56   106  94  70   126 106  85    87  62  42    78  51  34   102  74  58    77  49  35    52  24  10   115  88  74    85  58  46    51  23  13    81  57  49    51  33  28    30  17   9  
 116 128  82    70  81  38    67  76  33    62  71  26    99 106  62   138 141  96   161 162 116   151 149 107   129 125  87    76  73  39    55  54  23    51  52  23    48  53  25    34  39  12    62  66  39   110 113  87    89  91  68    56  58  34    46  47  26    49  51  29    45  49  26    51  54  32    43  48  25    49  54  31    57  66  39    66  76  49    55  67  37    44  57  26    37  51  20    43  55  24    62  68  41    63  70  42    47  57  27    37  48  18    52  62  30    48  54  23    59  56  29    94  84  59   123 102  83    68  40  23    89  55  42   129  95  82    83  52  40    54  28  14    85  64  49    55  34  20    61  34  23    89  65  56    52  34  28    31  16   9  
 166 177 134   105 117  72    83  92  47    74  83  38    68  74  33    95  97  57   170 172 131   200 198 159   153 149 111   119 115  77   119 116  84   102 101  72    57  59  35    79  82  59   189 192 165   140 143 114    46  49  22    46  48  22    39  41  17    30  34   9    53  57  34    63  67  44    53  58  36    50  55  32    42  47  24    47  56  29    49  58  30    76  85  58    57  66  39    28  35   8    33  33   7    61  61  35    73  78  51    51  58  30    72  79  48    65  70  40    80  76  49   135 124  99   124 102  83    68  36  21   113  77  65   154 118 106    79  47  36    41  17   3    69  52  36    42  26  10    62  39  25    85  61  51    48  30  23    31  14   6  
 148 159 116   121 132  87    71  81  36    98 107  65    99 103  66    65  66  32   100 100  64   226 223 186   203 201 160   175 173 132   211 208 173   121 120  90    42  40  19   103 102  82   119 119  91    59  59  29    40  40  12    69  72  43    68  71  44    50  54  27    50  54  29    55  61  35    48  54  30    51  56  33    45  50  27    21  25   3    24  28   4    30  34  11    30  32  10    63  64  42    94  94  70    54  52  27    57  57  31    60  59  33   111 108  84   152 147 123   118 107  85   134 119  98   114  91  73    68  41  24   114  85  71   144 114 103    71  44  33    44  20   8    87  69  55    38  21   5    60  39  24    88  66  53    43  23  14    32  11   3  
  48  59  18    45  57  14    62  74  31    85  94  53   101 108  71   113 118  85    89  89  55   133 131  96   136 135  95    99  98  59   120 118  83    59  58  28    53  52  31    62  61  41    48  45  24    32  30   6    56  55  31    45  48  23    55  58  33    76  79  54    57  63  37    46  52  26    53  60  33    44  50  22    50  54  27    55  57  31    60  61  35    59  58  32   103 100  74    74  71  44    88  85  60    63  58  34    39  34  10    50  43  19    60  50  27   111  98  76   100  84  64    77  59  39   102  79  61    50  25  10    74  49  36   105  80  67    55  32  19    56  35  22   111  92  79    54  35  21    51  30  13    93  72  58    46  26  16    43  19  11  
  56  68  28    51  63  22    64  76  36    72  84  45    65  74  37    80  87  51    62  65  33    45  46   9    59  60  21    59  60  24    52  52  19    58  57  28    80  80  58    64  63  44    53  48  30    53  47  32    43  40  21    29  29   9    41  44  23    72  76  53    79  87  60    54  63  35    44  53  23    46  53  21    60  66  33    69  72  38    74  74  41    85  81  47   114 109  76   133 127  96   150 142 116   117 108  85   101  91  68   122 110  88   105  90  69    72  55  35    66  48  28    75  53  34   102  77  62    73  48  33    85  60  47    88  65  52    38  16   6    75  55  44   119 100  90    45  26  14    47  29  11    89  70  53    54  34  23    49  26  16  
  52  64  25    54  66  29    37  50  14    46  58  21    40  51  14    39  49   9    41  47   9    76  80  41    95  99  61    68  71  37    53  53  22    61  63  34    56  59  33    71  73  48   144 140 115   180 175 151    72  71  45    49  48  23    50  54  27    48  55  26    51  60  30    36  46  15    43  52  21    29  36   4    31  36   6    48  50  18    67  66  35    91  86  55   165 159 129   224 214 186   204 189 166   147 132 110   194 182 158   167 156 132    91  82  57    72  59  36    50  34  13    90  69  50   103  75  61   103  72  59    94  62  51    66  35  25    36  11   2   117  97  86   110  97  85    25  11   1    50  34  17   105  88  71    55  36  26    46  25  16  
  67  77  42    66  77  42    43  55  22    41  54  19    44  56  16    60  72  29    91 100  57   100 107  66    88  92  57    50  53  22    52  55  28    47  50  23    88  93  63   182 185 154   204 201 171   134 131  99    84  84  51    88  89  55    82  88  55    77  84  50    81  91  57    70  81  47    42  52  18    40  49  18    25  32   1    31  34   5    33  31   5    57  53  27   119 111  88   139 126 104    98  83  60    92  75  53   115 103  80   129 122  96    99  93  67    53  47  21    38  26   4    80  62  42    91  63  49   121  88  76   130  93  85    71  37  28    55  28  19   105  85  74    73  62  50    19  10   1    53  37  21   102  84  70    56  39  29    33  15   5  
  56  64  27    42  52  18    40  51  19    51  63  27    71  83  41    97 109  63   106 115  70   101 108  66    42  46  12    36  39   9    98 100  73   120 123  96   153 158 126   192 195 162   132 132  96    77  75  38   109 109  71    91  94  55   100 106  69   107 115  76    80  90  52    55  65  28    49  61  25    74  84  49    41  49  17    25  30   2    43  44  17    38  36  12    32  27   4    34  26   5    81  69  45   108  97  70    83  73  46    76  69  41   105 100  71   163 156 128   174 159 136    73  54  34   107  81  66   111  82  68    94  61  52    95  65  55    75  48  39    50  30  21    58  44  35    33  21   9    50  34  19    94  78  63    47  33  24    40  26  17  
  74  77  39    63  68  32    47  53  19    48  57  19    82  93  51    88  98  54    98 107  63    84  91  49    53  56  25    83  85  53   133 133 106   165 167 140   173 175 145   125 128  97    64  63  35    94  94  64   128 128  98   102 105  74    96 100  66    80  88  51    63  71  32    71  82  42    74  86  47    72  85  45    69  80  40    56  65  27    62  69  31    52  57  20    69  72  35    68  67  34   108 105  74   164 158 129   189 183 154   206 199 171   207 200 172   184 173 146   112  97  74    73  55  33    91  68  50   101  77  61    66  40  27   113  87  75    76  53  43    58  38  29    76  57  49    34  16   7    59  41  30    82  67  55    43  33  26    57  47  41  
 117 115  74    76  76  36    68  71  32    63  69  29    83  90  48    91  97  56    69  73  33    91  95  55   154 155 117   181 182 147   189 187 156   158 157 128   121 119  91   100  99  73    60  58  37    69  67  46    82  82  59    78  80  55    57  60  31    44  51  17    74  82  45   102 113  72    83  96  52    79  92  47    77  90  43    76  89  39    89 100  51    83  95  45    99 110  59   130 138  92   160 164 126   185 187 155   186 184 153   189 185 154   191 183 154   165 154 126    78  63  39    77  60  37    78  58  39   111  90  72    57  34  20   100  77  64    87  64  54    52  30  20    54  31  24    67  47  40    73  54  45    43  29  21    32  23  19    37  31  26  
 160 152 109   119 115  72   115 115  72   135 137  96   116 117  79    83  85  48    62  63  26   105 104  65   144 143 104   148 146 108   179 176 140   159 157 126    86  81  56    68  65  40    76  75  45    95  96  64    92  94  59    70  75  38    49  54  17    50  57  17    83  92  51    99 109  67    68  81  37    52  65  21    63  77  32    82  97  51    93 107  63   100 115  71    92 106  63    89  99  59   130 135  99   150 152 118   122 123  90   123 125  91   145 145 114   125 122  91    73  64  37    72  57  34    84  64  44   137 112  95    62  34  22   107  79  67   114  88  79    40  18   7    40  20  11    87  68  59   105  85  78    40  25  18    24  18  14    15  13   9  
 142 134  88   157 150 105   195 191 149   196 193 155    90  87  52    66  64  32   154 151 119   176 173 139   162 159 123   174 171 136   137 135 101   150 146 117   137 132 110    98  96  71    72  75  39    89  96  52    59  64  23    78  84  41    75  82  40    61  68  26    72  79  37    95 103  62    53  64  22    32  44   4    73  86  47    86 100  63    94 109  72   104 118  82    92 103  69    42  52  17    73  77  42   141 142 108   138 144 108   127 133  97   126 132  98    70  73  41    65  60  31   101  85  62   102  76  58   129  96  84    89  54  42   135 101  91   106  78  67    44  21   9    40  18   7    78  58  49    93  73  66    38  23  16    22  17  13    20  21  15  
  55  52   8   121 114  72   230 222 185   139 130  98    31  22   2   127 121  95   236 230 204   236 232 207   244 244 221   195 195 170    72  72  48    95  97  73   100 102  80    74  78  53    73  86  50    69  84  43    80  90  53    77  85  47    69  75  39    79  83  48    99 103  68    73  79  44    39  49  12    57  68  31    74  86  50    80  92  56   105 115  80   139 146 112    90  96  62    38  43  10    71  78  40   122 130  90   158 166 129   131 139 102    79  86  52    55  59  27    70  60  33   113  92  71   126  90  76    88  48  38    82  44  34   148 114 103   105  77  65    50  22  10    56  26  15    79  49  39    75  50  45    47  30  23    25  22  13    20  20  12  
  42  42   7    96  94  53   109 104  67    40  33   4    64  57  27   169 164 136   161 156 130   140 140 113   121 123  96    72  75  48    32  36  11    48  52  25    46  50  25    68  73  44    83  96  61    94 108  72    91 102  67    54  63  29    52  58  24    80  84  51    68  73  40    65  71  37    59  66  31    73  83  48    94 106  69   110 119  83   124 130  96   145 148 113    89  89  57    31  31   1    60  64  26   103 109  69   117 121  86    93  97  62    84  90  56    52  56  23    79  70  45    93  73  52   120  85  71    93  52  42    77  40  29   139 106  94   110  83  68    49  22   8    69  35  23    89  55  45    78  51  47    55  38  31    22  17   8    29  25  17  
  69  74  32    84  87  47    58  58  19    50  50  20    62  62  27    61  61  36    66  68  36    51  56  22    53  60  25    40  47  12    50  56  23    71  77  43    71  75  43    73  77  44    72  81  48    79  88  54    76  85  51    67  73  40    60  65  32    62  67  33    46  52  18    55  62  26    87  96  59    99 109  72    97 107  70    98 105  67   107 111  74    80  80  42    75  70  37    70  64  29    66  60  24    93  89  52   105 102  68   137 136 103   124 129  96    76  80  47    95  90  63    89  75  51   105  75  59    86  52  38    68  37  24   133 105  91    94  72  55    36  11   1    71  38  26    74  41  31    65  41  34    63  46  39    39  28  19    28  20  11  
  65  75  34    78  85  44    73  79  39    81  86  47    57  64  24    50  56  22    59  68  28    63  73  31    48  58  17    49  59  18    66  75  34    56  62  22    47  52  13    65  68  31    66  69  37    68  72  42    80  84  53    66  70  39    53  57  24    53  59  25    57  64  28    67  76  39    67  77  40    65  76  36    68  76  38    96 101  62   152 151 113   115 109  72   119 108  74   137 124  90   123 109  75   110  97  63   105  95  63   194 189 157   186 188 156   130 134 101   101 100  72    79  68  44    96  74  55   113  85  68    53  28  13    87  65  48    57  39  22    36  14   1    79  47  35    76  43  34    46  25  16    62  45  37    61  44  37    45  29  22  
  56  65  27    63  71  32    85  92  51    88  96  55    89  98  56   107 118  75   128 141  96    85  97  52    53  66  20    81  93  47    88  97  52    76  84  40    65  68  25    51  51  13    59  56  25    79  76  48    67  67  37    49  51  20    41  45  12    43  50  16    87  96  59    92 102  65    70  82  42   109 120  80   112 119  78   112 114  74   177 173 135   183 170 135   140 122  89   181 162 129   216 197 165   163 147 114   138 125  93   222 217 183   201 202 170   114 118  85    84  83  53    95  88  62   117  96  77   130 104  87    57  36  19    93  74  57    61  44  28    52  33  18    89  59  48    75  45  35    35  17   7    46  29  21    60  35  30    67  43  38  
  64  68  33    64  67  30   107 111  71    81  85  45    81  87  46   120 129  84   127 138  93    90 103  57    73  85  39    79  91  45    86  95  52    93 100  58    97  99  59   112 109  74    94  87  59    50  42  16    61  57  30    64  63  33    48  52  19    55  62  28    62  72  35    73  85  47   111 123  83   172 183 143   175 182 141   159 160 120   189 181 143   204 190 153   165 145 110   203 183 148   241 225 192   176 162 131   139 129  97   245 241 206   226 227 195    92  96  63    55  54  24   104  94  69   112  89  71   104  77  60    56  32  17    96  77  60    46  30  14    52  35  19   115  89  76    81  54  43    33  16   4    46  28  18    81  52  46    83  53  47  
 117 112  80   136 132  97   190 185 151   127 125  87    75  75  36    96 101  60    97 104  63    77  86  44    97 106  65    90  98  57    80  87  48   100 105  67   137 139 104   175 172 140   113 103  77    42  32   7    50  43  17    98  97  67    73  77  44    59  66  32    57  67  30    43  55  17    68  80  40   128 136  95   166 170 130   180 178 139   188 179 140   224 208 172   233 212 176   220 201 166   228 216 182   171 165 131   117 113  78   183 180 145   144 146 112    78  78  46    74  67  39    76  60  35   106  77  59    92  61  46    54  27  12   124 104  87    67  51  35    34  18   4    91  68  54    77  54  42    21   5   1    52  34  24   114  81  75    91  57  52  
 172 160 129   165 153 121   193 182 150   170 162 128   124 119  83    83  81  45    67  67  31    48  52  15   125 128  93   145 149 115   107 111  79   120 122  92   177 177 149   157 152 125    65  55  31    60  49  23    73  66  38   115 114  84    95 100  66    52  59  25    48  58  21    48  59  21    80  90  50   113 118  79   137 138  99   175 171 133   213 204 166   242 227 190   233 214 180   224 210 175   198 195 158   139 141 105    78  80  44   101 103  66    81  85  50    61  61  28    71  61  33    79  56  33   118  83  67   140 102  88    73  42  29   133 108  93    78  61  46    30  14   2    76  56  42    57  35  22    40  21  11    81  59  48   115  80  74    90  54  47  
 224 209 176   203 187 156   216 200 170   212 198 168   192 179 151   158 149 119   150 144 114    88  85  55    97  94  66   181 181 154   184 184 159   174 172 148   162 160 136    90  84  60    50  40  16    83  76  48    83  77  49   125 126  94   108 114  80    56  63  29    69  79  41    81  91  54    98 105  67   129 131  94   151 149 113   190 186 149   200 191 156   156 145 109   195 180 146   210 201 165   193 195 158   166 173 134    75  80  43    64  68  31   111 115  80    90  88  54    77  63  36    80  54  33    94  56  40   131  88  75    80  45  33   106  79  65    83  65  51    38  22   7    64  44  32    39  17   4    65  44  31   105  80  67   111  77  69    85  51  41  
 234 219 186   204 187 157   229 212 184   229 212 186   218 200 176   194 179 156   197 186 164   175 167 144   122 116  94   136 131 109   167 162 142   168 166 145    67  63  42    25  20   4   107 101  75   110 105  75    45  43  12    58  62  29    65  71  37   104 111  77   104 113  76    72  80  43   102 106  71   159 159 123   191 187 154   224 220 185   207 201 167    65  58  24    91  84  50   132 128  93   141 145 108   182 188 150   174 178 141   107 111  74   151 155 120   146 143 110    70  56  29    89  63  41    84  45  30    75  31  18    52  15   3   107  79  65    80  62  48    65  49  34    70  50  39    37  13   3    58  32  21    84  56  44   117  84  74    74  42  31  
 208 199 164   160 147 115   180 164 138   230 212 188   233 215 196   229 213 193   230 217 199   221 210 190   215 208 189   228 223 203   139 134 112    35  30  10   125 120  98   152 148 121   157 157 127   107 108  74    51  55  20    53  59  23    72  80  43   123 130  94    91  99  62    81  87  51   104 105  71   137 134 101   195 190 160   211 206 174   132 129  96    24  24   2    57  59  25   160 161 127   171 173 136   147 147 111   207 207 171   171 171 135    76  76  42    99  96  63    63  53  24    98  74  50   100  64  47   109  71  56    74  41  29    60  35  20    42  24  10   104  88  74    94  72  61    41  14   5    49  19   9    60  30  19    73  45  31    51  24  10  
 171 170 132   121 116  82    62  52  24   167 153 129   226 210 192   235 219 201   223 208 192   109  98  80    83  75  56   161 155 133   108 104  80   167 163 137   232 228 200   116 115  85   116 118  85    86  91  55    58  64  28    85  94  56   118 127  90   110 118  81   125 131  96   142 145 111   144 143 112   195 192 161   218 213 183   145 142 112    41  43  13    53  58  25    65  73  39   129 136 102   197 193 160   208 200 166   179 173 139   182 178 143    90  90  55    81  79  45    77  68  39    99  81  55    77  45  28   142 108  91   121  90  77    35  13   1    44  26  12   114  96  84    76  50  43    45  14   8    81  46  37    65  32  21    44  19   4    80  57  41  
 116 122  82   135 134 101    95  90  61   128 118  95   152 139 119   204 190 173   168 156 140    99  88  70    60  52  32    90  85  61   183 180 152   175 172 142   106 105  77    66  67  33    84  89  52    86  96  56    91 100  61   108 119  78   160 171 132   196 205 167   197 202 166   125 128  93    84  83  49   172 168 136   194 190 160   143 140 110    67  69  42    72  78  46   107 115  84   136 141 110   173 164 134   169 155 125   185 172 142   183 176 145   111 110  77    76  76  44    74  65  38    82  65  41    79  51  34   140 110  93   147 120 106    52  30  17    38  20   6   101  81  69    66  39  32    58  26  20   111  76  67    73  41  30    40  18   1    88  68  51  
 115 124  81   174 177 141   149 147 117   110 105  79    97  89  68   102  92  74    97  88  70    50  42  23    36  31   7   116 115  87   130 132 100    78  82  47    57  63  27    72  79  38    83  93  53    76  87  47    81  92  51    82  94  51   132 145 100   182 195 149   153 165 119    90 100  55    58  63  20   100 102  64   170 169 133   213 210 177   167 164 135   142 139 113   170 166 143   186 179 157   172 160 134   146 134 106   152 141 115   128 121  96    86  87  62    58  57  34    71  59  40    83  61  46    80  50  37   119  88  75   142 119 104    72  50  36    49  24  12   104  77  70    55  27  22    54  27  22    97  71  61    56  31  19    49  27  12    88  67  52  
 101 112  66   119 126  85    94  95  63    55  54  26    71  67  43    73  67  46    50  44  22    29  24   2    52  52  24   121 124  93    94 100  64   129 140  98   122 135  91    55  67  23    79  90  52    80  90  53    67  78  38    75  88  44   101 114  68   109 125  76    79  96  44    89 102  50    79  91  41   101 108  62   101 102  63   131 128  94   166 159 130   157 148 123   178 164 143   182 168 147   144 133 107    96  88  59    54  47  21    34  29   7    30  33  12    53  52  34    97  81  68   106  79  70    75  42  33   102  70  59    69  46  32    39  17   4    91  61  51   109  79  71    36   9   5    68  45  39    74  56  44    43  24  10    59  35  23    94  71  60  
 109 121  76    94 102  61    57  61  26    36  38   6    34  33   5    51  49  23    48  44  19    63  61  35    62  63  34    67  72  39    57  65  28    96 107  65    95 108  65    64  76  36    55  65  31    59  68  38    42  51  20    47  59  23    68  80  40    67  80  37    38  54   8    36  50   2    75  87  40    84  93  46   100 106  62   168 169 129   192 188 154   150 141 110   127 116  88    79  68  40    24  18   4    47  42  10    83  79  49    55  54  28    19  23   1    69  68  47   101  85  69    92  66  52    79  45  33   100  68  55    50  28  12    68  48  30   101  75  62    69  41  29    43  18  10    91  68  60    95  76  62    51  29  16    46  19  12    62  37  30  
  90 101  58   111 120  78    64  71  31    32  36   8    40  41   9    50  49  18    59  59  30    68  68  39    75  78  47    60  66  31    58  66  29    52  64  24    61  74  32    70  83  43    74  81  47    66  72  42    76  82  50    80  89  54    90 100  62    85  96  56    74  87  45    34  46   6    75  86  44   121 130  88   165 170 132   191 191 156   130 125  95    92  85  56    88  78  54    73  64  36   123 122  84   133 133  95    72  73  37    47  48  16    43  47  18    66  66  41    89  73  54    95  68  52   101  68  52   109  78  59    39  17   1   108  90  70   142 119 102    62  37  23    40  18   6    83  61  50    88  66  52    57  32  20    57  30  21    73  47  38  
 100 111  68    77  86  43    40  47   6    47  51  23    52  54  17    60  62  25    73  74  40    66  68  33    60  64  29    45  51  15    57  65  28    60  71  33    70  82  43   104 115  77   162 167 132   139 141 107   112 114  80    99 104  68    91  98  61    95 104  65    77  86  48    43  52  15    68  77  40   125 132  97    95  99  68    74  75  46   138 134 109   129 122 100    79  68  50   167 161 135   190 190 152   102 106  64    54  56  16    70  72  36    54  59  25    66  63  35    78  61  39    94  67  47    98  65  47   104  73  53    39  17   1   113  94  72   149 127 108    56  34  17    38  17   2    76  53  40    85  59  48    55  26  16    54  26  13    97  70  58  
 110 119  76    57  65  22    95 102  60   164 169 129   120 122  83   120 121  81   113 114  75    67  69  30    50  52  14    39  44   7    40  46  10    64  72  35    85  94  57   125 132  98   200 201 171   214 209 181   175 172 143   149 150 120   144 146 116   164 169 138   110 116  84    75  81  50   107 112  81    62  67  35    45  48  19   110 109  80   109 105  77   117 112  85   205 195 171   225 220 190   191 192 153   125 131  87    71  75  34    77  79  41    52  53  17    62  56  25    87  67  42    75  45  24    98  63  44   100  67  50    74  50  32    91  70  49   112  91  72    59  38  21    68  47  31    62  37  23   100  70  59    69  37  27    44  15   3    96  68  56  
  59  66  24    98 104  60   162 168 125   146 149 106   166 167 125   156 156 115   116 114  73   108 109  68   108 109  70    62  65  26    43  47  10    45  49  14    94 100  66   193 195 163   235 229 205   233 225 204   215 207 186   219 214 191   232 231 205   217 217 191   113 116  89    59  63  36    48  51  22    55  59  29    70  71  40    66  65  35    81  76  46   196 190 161   230 220 190   201 195 161   201 202 162   195 200 156   102 107  66    85  87  48    86  83  48    86  76  45   118  95  70    92  61  41    80  44  28    88  55  40   115  88  71    85  63  44    95  73  56    61  38  22    91  65  50    58  30  16    78  46  35    74  42  32    44  14   6    91  62  54  
