P3
50 50
255
 137 134 130   136 133 129   129 125 122   125 121 118   123 119 118   124 120 119   130 126 127   136 133 133   141 137 138   143 139 140   144 140 141   150 146 147   147 143 144   148 144 145   157 154 152   160 156 155   157 153 152   159 158 156   156 155 153   157 157 157   157 157 157   155 155 155   155 155 155   158 158 158   159 159 161   159 159 161   158 158 160   159 159 161   162 162 164   167 167 169   171 171 173   175 175 177   181 181 183   187 187 189   194 194 196   195 195 197   198 198 200   200 200 202   202 202 204   205 205 207   207 207 209   209 209 211   209 209 209   209 209 209   210 210 210   211 211 211   212 212 212   213 213 213   214 214 214   214 214 214  
 133 131 128   134 132 129   131 127 124   134 130 128   138 134 133   140 136 135   142 138 139   143 139 140   145 141 142   146 142 143   148 144 145   147 143 144   141 137 138   142 138 139   153 149 148   158 154 153   158 154 151   159 158 156   157 155 156   157 157 157   158 158 158   156 156 156   156 156 156   157 157 157   158 158 160   158 158 160   160 160 161   161 161 163   165 165 167   170 170 172   174 174 176   178 178 180   183 183 185   188 188 190   194 194 196   196 196 198   198 198 200   200 200 202   202 202 204   204 204 206   207 207 209   208 208 210   209 209 209   209 209 209   210 210 210   211 211 211   212 212 212   213 213 213   214 214 214   215 215 215  
 138 134 131   141 137 134   143 139 138   143 139 138   146 142 141   148 144 143   150 146 147   148 144 145   144 140 141   140 136 137   143 139 140   140 136 137   136 132 133   140 136 137   151 147 147   157 153 152   157 153 152   156 155 153   157 155 156   158 158 158   158 158 158   158 158 158   157 157 157   157 157 157   157 157 159   157 157 159   162 162 164   163 163 165   168 168 170   174 174 176   178 178 180   181 181 183   185 185 187   190 190 192   196 196 198   197 197 199   199 199 201   201 201 203   202 202 204   204 204 206   206 206 208   208 208 210   210 210 210   210 210 210   211 211 211   212 212 212   213 213 213   214 214 214   215 215 215   215 215 215  
 135 129 128   136 131 130   142 138 138   141 137 137   141 137 137   143 139 139   145 140 143   144 139 142   139 134 137   135 130 133   135 131 134   134 129 132   137 132 135   145 141 142   152 148 149   155 151 152   156 152 152   153 151 151   155 153 154   156 156 156   157 157 157   158 158 158   158 158 158   157 157 157   157 157 159   157 157 159   162 162 164   165 165 167   170 170 172   176 176 178   180 180 182   183 183 185   187 187 189   190 190 193   196 196 198   197 197 199   199 199 201   201 201 203   202 202 204   204 204 206   206 206 208   207 207 209   210 210 210   210 210 210   211 211 211   212 212 212   213 213 213   214 214 214   215 215 215   215 215 215  
 128 122 122   128 123 123   131 127 128   135 131 132   139 135 136   139 135 136   136 131 135   132 127 131   132 127 130   132 127 131   136 131 135   135 130 134   142 137 141   152 147 151   154 150 151   155 151 152   158 154 155   157 154 155   155 153 154   154 154 154   156 156 156   158 158 158   159 159 159   158 158 158   158 158 160   159 159 161   164 164 166   166 166 168   172 172 174   178 178 180   182 182 184   185 185 187   188 188 190   192 192 194   196 196 198   197 197 199   199 199 201   201 201 203   202 202 204   204 204 206   206 206 208   207 207 209   209 209 209   210 210 210   211 211 211   212 212 212   213 213 213   214 214 214   215 215 215   215 215 215  
 135 129 129   133 128 128   129 125 126   134 130 131   137 133 134   136 132 133   131 126 130   128 123 127   130 125 132   135 130 135   140 135 141   138 133 139   147 142 146   156 151 155   155 151 152   155 151 152   159 155 156   156 154 154   156 154 155   155 155 155   156 156 156   159 159 159   160 160 160   158 158 158   159 159 161   161 161 163   165 165 167   168 168 170   173 173 175   180 180 182   184 184 186   186 186 188   190 190 192   193 193 195   196 196 198   197 197 199   199 199 201   201 201 203   203 203 205   205 205 207   207 207 209   208 208 210   209 209 209   209 209 209   210 210 210   211 211 211   212 212 212   213 213 213   214 214 214   215 215 215  
 140 134 134   140 134 134   133 129 130   131 127 128   133 129 130   132 128 129   133 128 132   135 130 134   137 132 138   142 137 143   142 137 143   141 136 142   149 144 148   157 152 156   156 152 153   156 152 153   157 153 154   153 151 152   158 155 157   155 155 155   157 157 157   160 160 160   160 160 160   160 160 160   160 160 162   162 162 164   168 168 170   171 171 173   176 176 178   181 181 183   185 185 187   187 187 189   190 190 192   193 193 195   195 195 197   197 197 199   199 199 201   201 201 203   203 203 205   205 205 207   207 207 209   208 208 210   209 209 209   209 209 209   210 210 210   211 211 211   212 212 212   213 213 213   214 214 214   214 214 214  
 137 131 131   139 133 133   134 130 131   128 124 125   133 129 130   132 128 129   135 130 134   140 135 139   138 133 139   144 139 145   145 140 146   148 143 149   151 146 150   153 148 152   156 152 153   158 154 155   158 154 155   155 153 154   158 156 157   156 156 156   157 157 157   160 160 160   162 162 162   162 162 162   162 162 164   164 164 166   173 173 175   176 176 178   180 180 182   185 185 187   186 186 188   186 186 188   188 188 190   191 191 193   196 196 198   197 197 199   199 199 201   202 202 204   203 203 205   205 205 207   207 207 209   208 208 210   209 209 209   210 210 210   211 211 211   212 212 212   213 213 213   214 214 214   214 214 214   215 215 215  
 131 125 125   132 126 126   129 125 126   131 127 128   136 132 133   133 129 130   135 130 134   141 136 140   140 135 140   141 136 141   146 141 146   148 143 147   149 144 148   150 145 148   152 148 150   157 153 154   160 155 157   158 156 157   157 156 156   156 156 156   157 157 157   159 159 159   161 161 161   161 161 161   164 164 165   167 167 169   175 175 177   177 177 179   180 180 182   183 183 185   184 184 186   184 184 186   186 186 188   190 190 192   195 195 197   197 197 199   200 200 202   202 202 204   204 204 205   205 205 207   207 207 209   208 208 210   209 209 209   210 210 210   210 210 210   211 211 211   212 212 212   213 213 213   214 214 214   215 215 215  
 135 129 129   133 127 127   134 130 131   140 136 137   146 142 143   144 140 141   143 138 142   146 141 145   146 141 145   145 140 144   149 144 148   150 145 149   151 146 150   151 147 148   153 149 150   157 153 154   160 156 157   158 156 157   156 154 155   156 156 156   157 157 157   158 158 158   159 159 159   162 162 162   167 167 169   172 172 174   178 178 180   178 178 180   180 180 182   182 182 184   182 182 184   183 183 185   186 186 188   190 190 192   195 195 197   197 197 199   200 200 202   203 203 205   205 205 207   206 206 208   207 207 209   208 208 210   210 210 210   210 210 210   210 210 210   211 211 211   212 212 212   213 213 213   215 215 215   215 215 215  
 144 140 137   133 129 126   143 139 138   148 144 143   150 146 145   153 149 148   151 147 148   147 144 144   150 146 147   151 147 148   151 147 148   153 149 150   155 151 152   156 152 153   158 154 155   161 157 156   162 158 157   160 159 157   156 154 155   157 157 157   159 159 159   160 160 160   162 162 162   167 167 167   173 173 175   178 178 180   178 178 180   179 179 181   180 180 182   181 181 183   182 182 184   183 183 185   187 187 189   192 192 194   195 195 197   197 197 199   200 200 202   203 203 205   205 205 207   206 206 208   207 207 209   208 208 210   210 210 210   210 210 210   210 210 210   211 211 211   212 212 212   213 213 213   215 215 215   215 215 215  
 141 138 134   137 134 131   141 137 135   145 142 140   145 141 140   148 144 143   148 144 145   144 140 141   149 145 146   148 144 145   150 146 147   153 149 150   155 151 152   157 153 154   160 156 155   163 159 158   165 160 159   162 161 159   157 155 156   158 158 158   160 160 160   161 161 161   165 165 165   170 170 170   175 175 177   177 177 179   179 179 181   179 179 181   180 180 182   182 182 184   182 182 184   184 184 186   188 188 190   193 193 195   196 196 198   198 198 200   201 201 203   203 203 205   205 205 207   206 206 208   208 208 210   208 208 210   209 209 209   210 210 210   210 210 210   211 211 211   212 212 212   213 213 213   214 214 214   215 215 215  
 137 136 133   138 137 133   139 135 133   148 144 142   145 141 140   146 142 141   146 142 143   148 144 145   156 152 153   151 147 148   150 146 147   151 147 148   153 149 150   153 149 150   156 152 151   160 156 155   162 158 156   160 159 157   159 158 159   161 161 161   162 162 162   163 163 163   168 168 168   173 173 173   176 176 178   176 176 178   181 181 183   181 181 183   182 182 184   183 183 185   183 183 185   184 184 186   189 189 191   193 193 195   197 197 199   198 198 200   201 201 203   203 203 205   205 205 207   206 206 208   208 208 210   210 210 212   209 209 209   210 210 210   211 211 211   212 212 212   213 213 213   214 214 214   214 214 214   215 215 215  
 138 136 136   136 135 133   138 136 136   146 143 144   148 146 146   149 146 147   147 144 145   147 145 146   151 149 150   152 150 150   148 145 147   150 147 148   152 149 150   153 150 151   152 150 150   152 149 150   156 153 153   159 158 158   160 160 160   161 161 162   163 163 164   167 167 168   171 171 172   173 173 175   176 176 177   177 177 179   177 177 179   179 179 181   181 181 182   182 182 184   184 184 185   186 186 188   190 190 192   194 194 195   196 196 197   197 197 198   198 198 199   201 201 202   204 204 205   206 206 206   207 207 208   208 208 208   209 209 209   210 210 210   211 211 211   212 212 212   212 212 212   213 213 213   214 214 214   214 214 214  
 142 139 140   143 141 142   145 143 144   145 143 144   145 143 144   147 145 146   149 148 149   150 148 149   148 146 147   145 144 145   150 148 149   152 150 151   155 154 154   157 155 157   156 154 155   155 153 154   158 156 157   164 162 162   164 164 165   164 164 165   167 167 169   171 171 173   174 174 176   175 175 177   177 177 179   179 179 181   176 176 178   178 178 180   180 180 182   182 182 184   184 184 186   187 187 189   191 191 193   194 194 196   196 196 196   197 197 197   198 198 198   201 201 201   204 204 204   206 206 206   207 207 207   207 207 207   209 209 209   210 210 210   211 211 211   212 212 212   212 212 212   213 213 213   214 214 214   214 214 214  
 143 141 142   147 145 147   147 145 146   142 140 141   138 136 137   141 139 140   147 144 145   150 149 149   150 148 149   148 145 146   149 147 148   152 150 151   157 155 156   160 158 159   160 158 159   160 158 159   162 160 161   166 164 165   166 166 168   166 166 168   169 169 171   173 173 175   176 176 178   176 176 178   178 178 180   180 180 182   177 177 179   178 178 180   180 180 182   182 182 184   184 184 186   187 187 189   191 191 193   194 194 196   196 196 196   197 197 197   199 199 199   201 201 201   204 204 204   206 206 206   207 207 207   207 207 207   209 209 209   210 210 210   211 211 211   212 212 212   212 212 212   212 212 212   213 213 213   214 214 214  
 139 137 138   142 140 141   146 144 145   144 142 143   143 141 142   143 141 142   144 142 143   147 145 146   150 149 150   153 150 152   151 148 150   154 152 153   158 156 157   161 160 161   163 161 162   164 162 163   165 163 164   166 164 165   166 166 168   166 166 168   169 169 170   173 173 175   175 175 177   175 175 178   177 177 179   179 179 180   177 177 179   179 179 181   181 181 183   182 182 184   184 184 186   187 187 189   191 191 193   194 194 196   196 196 196   197 197 197   199 199 199   202 202 202   205 205 205   207 207 207   207 207 207   207 207 207   209 209 209   210 210 210   210 210 210   211 211 211   211 211 211   212 212 212   213 213 213   214 214 214  
 137 135 136   140 138 139   147 145 146   147 145 146   148 146 147   149 147 148   150 148 149   150 148 149   150 148 149   150 148 149   153 151 152   156 154 155   160 158 159   162 160 161   165 163 164   167 165 166   168 166 167   167 165 166   167 167 169   167 167 169   169 169 171   173 173 175   175 175 177   176 176 178   177 177 179   179 179 181   178 178 180   180 180 182   181 181 183   183 183 185   185 185 187   188 188 190   192 192 194   195 195 197   197 197 197   198 198 198   199 199 199   202 202 202   205 205 205   207 207 207   208 208 208   208 208 208   209 209 209   209 209 209   210 210 210   211 211 211   211 211 211   212 212 212   213 213 213   214 214 214  
 137 135 136   141 139 140   141 139 142   142 140 142   144 142 145   148 146 148   151 149 152   153 151 153   151 149 152   149 147 150   155 153 155   157 155 157   159 157 159   160 158 160   163 161 164   168 165 168   169 167 169   168 165 168   168 168 170   168 168 170   170 170 172   174 174 175   175 175 178   176 176 178   177 177 179   179 179 181   178 178 180   180 180 182   182 182 184   183 183 185   185 185 187   188 188 190   192 192 194   195 195 197   197 197 197   198 198 198   200 200 200   202 202 202   205 205 205   207 207 207   208 208 208   208 208 208   208 208 208   209 209 209   210 210 210   211 211 211   211 211 211   211 211 211   212 212 212   213 213 213  
 137 135 136   142 140 141   143 141 144   144 142 144   145 143 146   146 144 147   146 144 147   148 146 149   152 150 153   154 152 155   158 156 159   159 157 160   160 158 161   162 160 163   166 164 167   171 169 172   172 170 174   172 169 172   170 170 172   170 170 172   171 171 173   174 174 176   176 176 178   176 176 178   176 176 178   178 178 180   179 179 181   180 180 182   182 182 184   183 183 185   185 185 187   188 188 190   192 192 194   195 195 197   197 197 197   198 198 198   200 200 200   202 202 202   205 205 205   207 207 207   208 208 208   208 208 208   208 208 208   209 209 209   210 210 210   210 210 210   211 211 211   211 211 211   212 212 212   213 213 213  
 142 142 142   142 142 142   144 142 145   147 145 148   148 146 149   148 146 149   149 147 150   153 151 154   155 153 156   155 153 156   156 154 157   156 154 157   159 157 160   164 162 165   168 166 169   168 166 169   168 166 169   170 168 171   173 173 175   173 173 175   174 174 176   174 174 176   175 175 177   177 177 179   178 178 180   179 179 181   179 179 181   179 179 181   180 180 182   182 182 184   184 184 186   187 187 189   190 190 192   191 191 193   195 195 195   197 197 197   200 200 200   203 203 203   204 204 204   206 206 206   207 207 207   208 208 208   208 208 208   208 208 208   209 209 209   210 210 210   211 211 211   211 211 211   212 212 212   212 212 212  
 146 146 146   148 148 148   148 146 149   150 148 151   150 149 151   151 149 152   153 151 154   156 155 158   157 156 158   157 155 158   157 156 158   157 156 158   160 159 161   165 163 166   166 165 168   167 165 168   168 166 169   170 168 171   174 174 176   174 174 176   174 174 176   175 175 177   176 176 178   177 177 179   178 178 180   178 178 180   179 179 181   180 180 182   181 181 183   182 182 184   185 185 187   188 188 190   191 191 193   193 193 195   196 196 196   198 198 198   200 200 200   203 203 203   204 204 204   206 206 206   207 207 207   208 208 208   208 208 208   208 208 208   209 209 209   210 210 210   211 211 211   211 211 211   212 212 212   212 212 212  
 149 149 149   152 152 152   152 152 154   152 152 154   153 153 155   155 155 157   157 157 159   159 159 161   158 158 160   156 156 158   158 158 160   160 160 162   162 162 164   165 165 167   165 165 167   166 166 168   169 169 171   171 171 173   175 175 177   175 175 177   176 176 178   176 176 178   177 177 179   178 178 180   179 179 181   180 180 182   180 180 182   180 180 182   181 181 183   183 183 185   186 186 188   190 190 192   193 193 195   195 195 197   196 196 196   198 198 198   201 201 201   203 203 203   204 204 204   206 206 206   207 207 207   208 208 208   208 208 208   208 208 208   209 209 209   210 210 210   211 211 211   211 211 211   212 212 212   212 212 212  
 150 150 150   152 152 152   155 155 157   154 154 156   155 155 157   157 157 159   159 159 161   160 160 162   158 158 160   156 156 158   160 160 162   162 162 164   165 165 167   165 165 168   165 165 168   167 167 169   170 170 172   173 173 175   174 174 176   175 175 177   176 176 178   177 177 179   178 178 180   179 179 181   180 180 182   181 181 183   180 180 182   180 180 183   182 182 184   184 184 185   187 187 189   190 190 192   194 194 195   196 196 198   197 197 197   198 198 198   201 201 201   203 203 203   204 204 204   205 205 205   206 206 206   207 207 207   208 208 208   208 208 208   209 209 209   210 210 210   211 211 211   211 211 211   212 212 212   212 212 212  
 154 154 154   154 154 154   157 157 159   156 156 158   157 157 159   160 160 162   161 161 163   161 161 163   159 159 161   159 159 161   163 163 165   165 165 167   167 167 169   167 167 169   168 168 170   170 170 172   173 173 175   174 174 176   174 174 176   175 175 177   176 176 178   178 178 180   180 180 182   181 181 183   182 182 184   183 183 185   181 181 183   182 182 184   183 183 185   185 185 187   188 188 190   191 191 193   194 194 196   196 196 198   197 197 197   199 199 199   201 201 201   203 203 203   204 204 204   205 205 205   206 206 206   206 206 206   208 208 208   208 208 208   209 209 209   210 210 210   211 211 211   211 211 211   212 212 212   212 212 212  
 157 157 157   159 159 159   157 157 159   157 157 159   159 159 161   162 162 164   163 163 165   162 162 164   162 162 164   164 164 166   164 164 166   166 166 168   168 168 170   168 168 170   170 170 172   174 174 176   175 175 177   174 174 176   175 175 177   176 176 178   177 177 179   179 179 181   181 181 183   182 182 184   182 182 184   183 183 185   183 183 185   184 184 186   185 185 187   188 188 190   191 191 193   193 193 195   195 195 197   196 196 198   197 197 197   199 199 199   201 201 201   203 203 203   204 204 204   205 205 205   206 206 206   206 206 206   208 208 208   208 208 208   209 209 209   210 210 210   211 211 211   211 211 211   212 212 212   212 212 212  
 158 158 159   160 159 160   159 158 161   158 158 160   160 159 162   162 161 164   164 163 165   164 163 165   165 164 167   167 167 169   165 165 167   167 167 169   168 168 170   169 169 171   171 171 173   173 173 175   175 175 177   174 174 176   175 175 176   176 176 178   178 178 181   181 181 182   181 181 183   182 182 184   182 182 185   182 182 185   184 184 187   185 185 187   187 187 189   190 190 192   192 192 194   194 194 195   195 195 197   197 197 198   197 197 197   199 199 200   201 201 201   203 203 203   204 204 205   205 205 206   205 205 206   206 206 207   208 208 208   208 208 208   209 209 209   210 210 210   211 211 211   211 211 211   212 212 212   212 212 212  
 157 155 158   158 156 159   161 159 162   160 158 161   160 158 161   161 159 162   162 160 163   163 161 164   165 163 166   166 164 167   165 165 167   167 167 169   169 169 171   170 170 172   171 171 173   171 171 173   173 173 175   175 175 177   175 175 175   178 178 178   180 180 182   182 182 184   183 183 185   183 183 185   184 183 188   184 183 188   186 185 190   186 185 190   189 189 191   192 192 194   194 194 196   194 194 196   195 195 195   198 198 198   198 198 200   200 200 202   202 202 204   203 203 205   205 205 207   205 205 207   206 206 208   207 207 209   208 208 208   208 208 208   209 209 209   210 210 210   211 211 211   211 211 211   211 211 211   211 211 211  
 159 157 160   159 157 160   159 157 160   159 157 160   160 159 162   162 160 163   163 160 164   163 161 164   163 161 164   163 161 165   163 163 165   166 166 168   169 169 170   170 170 173   172 172 174   173 173 175   175 175 177   175 175 178   177 177 177   179 179 179   180 180 183   182 182 184   183 183 185   184 184 185   185 184 189   185 184 189   187 185 190   187 185 190   190 190 192   193 193 195   195 195 197   195 195 197   195 195 195   199 199 199   199 199 200   200 200 202   202 202 204   203 203 205   203 203 205   204 204 206   205 205 207   206 206 208   208 208 208   208 208 208   209 209 209   210 210 210   211 211 211   211 211 211   211 211 211   211 211 211  
 160 158 161   160 158 161   159 157 160   159 157 160   160 158 161   161 159 162   162 160 163   163 161 164   163 161 164   163 161 164   165 165 167   168 168 170   171 171 173   172 172 174   173 173 175   173 173 175   174 174 176   175 175 177   179 179 179   180 180 180   182 182 184   183 183 185   184 184 186   185 185 187   186 185 190   187 186 191   187 186 191   188 187 192   190 190 192   194 194 196   195 195 197   195 195 197   197 197 197   199 199 199   200 200 202   201 201 203   202 202 204   202 202 204   203 203 205   204 204 206   206 206 208   207 207 209   208 208 208   208 208 208   209 209 209   210 210 210   211 211 211   211 211 211   211 211 211   211 211 211  
 157 155 158   157 155 158   159 157 160   160 158 161   160 158 161   161 159 162   162 160 163   163 161 164   164 162 165   165 163 166   167 167 169   169 169 171   172 172 174   173 173 175   173 173 175   173 173 175   174 174 176   174 174 176   179 179 179   180 180 180   183 183 185   185 185 187   186 186 188   186 186 188   187 186 191   187 186 191   187 186 191   188 187 192   190 190 192   194 194 196   195 195 197   196 196 198   197 197 197   199 199 199   199 199 201   200 200 202   201 201 203   202 202 204   203 203 205   204 204 206   206 206 208   208 208 210   208 208 208   208 208 208   209 209 209   210 210 210   211 211 211   211 211 211   211 211 211   211 211 211  
 156 154 157   157 155 158   159 157 160   159 157 160   160 158 161   161 159 162   162 161 163   164 162 165   165 163 166   166 164 167   167 167 169   169 169 171   172 172 174   173 173 175   174 174 176   174 174 176   176 176 177   177 177 179   179 179 179   181 181 181   183 183 185   185 185 187   185 185 188   187 187 189   187 186 191   188 187 192   188 187 192   188 187 192   191 191 193   194 194 196   196 196 198   196 196 198   198 198 198   200 200 200   199 199 201   200 200 202   201 201 203   203 203 205   204 204 206   205 205 207   205 205 208   207 207 209   208 208 208   208 208 208   209 209 209   210 210 210   211 211 211   211 211 211   211 211 211   211 211 211  
 156 154 157   157 155 158   158 156 159   159 157 160   161 159 162   163 161 164   165 163 166   166 164 167   166 164 167   166 164 167   168 168 170   170 170 172   172 172 174   173 173 175   174 174 176   175 175 177   177 177 179   178 178 180   181 181 181   182 182 182   183 183 185   184 184 186   185 185 187   186 186 188   188 187 192   190 189 194   190 189 194   190 189 194   193 193 195   196 196 198   198 198 200   198 198 200   199 199 199   202 202 202   199 199 201   201 201 203   203 203 205   204 204 206   204 204 206   205 205 207   205 205 207   206 206 208   208 208 208   208 208 208   209 209 209   210 210 210   211 211 211   211 211 211   211 211 211   211 211 211  
 156 154 157   160 158 161   159 157 160   159 157 160   161 159 162   163 161 164   165 163 166   167 165 168   167 165 168   167 165 168   168 168 170   170 170 172   172 172 174   172 172 174   172 172 174   174 174 176   176 176 178   179 179 180   182 182 182   183 183 183   184 184 186   185 185 187   186 186 188   187 187 189   189 188 193   190 190 195   190 189 194   191 190 195   194 194 196   197 197 199   198 198 200   199 199 200   200 200 200   202 202 202   200 200 202   202 202 204   204 204 205   205 205 207   205 205 207   205 205 207   205 205 207   205 205 207   208 208 208   209 209 209   210 210 210   210 210 210   211 211 211   211 211 211   212 212 212   212 212 212  
 155 153 156   159 157 160   160 158 161   160 158 161   161 159 162   162 160 163   165 163 166   167 165 168   168 166 169   168 166 169   168 168 170   170 170 172   172 172 174   173 173 175   173 173 175   174 174 176   177 177 179   179 179 181   182 182 182   183 183 183   185 185 187   186 186 188   187 187 189   188 188 190   189 188 193   190 189 194   191 190 195   193 192 197   195 195 197   197 197 199   198 198 200   199 199 201   200 200 200   201 201 201   200 200 202   202 202 204   204 204 206   205 205 207   205 205 207   205 205 207   205 205 207   206 206 208   208 208 208   209 209 209   210 210 210   211 211 211   211 211 211   211 211 211   212 212 212   212 212 212  
 156 154 157   158 156 159   161 159 160   161 159 160   161 159 160   162 160 161   164 162 163   166 164 165   168 166 167   168 166 167   168 168 168   170 170 170   172 172 172   173 173 173   174 174 174   175 175 175   178 178 178   180 180 180   183 183 183   184 184 184   185 185 187   186 186 188   187 187 189   188 188 190   189 188 193   190 189 194   193 192 197   194 193 198   196 196 198   197 197 199   198 198 200   199 199 201   200 200 200   201 201 201   200 200 202   202 202 204   203 203 205   205 205 207   205 205 207   205 205 207   206 206 208   207 207 209   208 208 208   209 209 209   211 211 211   211 211 211   211 211 211   211 211 211   212 212 212   213 213 213  
 159 157 160   160 158 161   162 160 161   161 159 160   161 159 160   162 160 161   164 162 163   166 164 165   167 165 166   168 165 167   169 169 169   170 170 170   172 172 172   174 174 174   175 175 175   176 176 176   179 179 179   180 180 180   183 183 183   184 184 184   185 185 187   186 186 188   187 187 189   188 188 190   189 188 193   190 189 194   194 193 198   195 194 199   196 196 198   197 197 199   198 198 200   199 199 201   200 200 200   201 201 201   201 201 203   202 202 204   204 204 206   205 205 207   205 205 207   205 205 207   206 206 208   207 207 209   209 209 209   210 210 210   211 211 211   211 211 211   211 211 211   212 212 212   212 212 212   213 213 213  
 156 154 157   157 155 158   161 159 160   161 159 160   161 159 160   163 161 162   165 163 164   167 165 166   167 165 166   167 165 166   171 171 171   171 171 171   173 173 173   175 175 175   177 177 177   179 179 179   181 181 181   182 182 182   184 184 184   185 185 185   187 187 189   188 188 190   188 188 190   189 189 191   190 189 194   191 190 195   196 195 200   196 195 200   197 197 199   198 198 200   198 198 200   199 199 201   201 201 201   202 202 202   203 203 205   204 204 206   205 205 207   205 205 207   205 205 207   205 205 207   206 206 208   207 207 209   210 210 210   210 210 210   211 211 211   211 211 211   211 211 211   212 212 212   213 213 213   214 214 214  
 153 151 154   155 153 156   158 156 157   160 157 158   160 158 159   163 161 162   165 164 165   168 165 167   168 165 167   168 165 167   171 171 171   172 172 172   173 173 173   175 175 175   178 178 178   180 180 180   182 182 182   183 183 183   184 184 184   185 185 185   187 187 189   188 188 190   189 189 190   190 190 192   191 190 195   192 191 196   196 195 200   196 195 200   197 197 199   198 198 200   198 198 200   200 200 202   201 201 201   203 203 203   203 203 205   204 204 206   204 204 206   205 205 207   205 205 207   205 205 208   207 207 209   208 208 210   210 210 210   210 210 210   211 211 211   211 211 211   211 211 211   212 212 212   213 213 213   215 215 215  
 157 154 157   158 156 159   156 154 155   157 155 156   160 158 159   163 161 162   167 165 166   169 167 168   170 168 169   170 168 169   172 172 172   172 172 172   173 173 173   175 175 175   178 178 178   181 181 181   182 182 182   183 183 183   185 185 185   186 186 186   187 187 189   189 189 191   190 190 192   191 191 193   193 192 197   194 193 198   196 195 200   196 195 200   197 197 199   198 198 200   198 198 200   200 200 202   202 202 202   203 203 203   202 202 204   203 203 205   204 204 206   205 205 207   205 205 207   206 206 208   208 208 210   209 209 211   210 210 210   211 211 211   211 211 211   211 211 211   211 211 211   212 212 212   214 214 214   215 215 215  
 157 155 158   158 156 159   155 153 154   157 155 156   160 158 159   163 161 162   165 163 164   167 165 166   168 166 167   168 166 167   169 169 169   171 171 171   173 173 173   176 176 176   178 178 178   180 180 180   182 182 182   183 183 183   184 184 186   185 185 187   187 187 189   189 189 191   190 190 192   192 192 194   194 194 196   195 195 197   195 195 197   196 196 198   196 196 198   197 197 199   198 198 200   199 199 201   202 202 204   203 203 205   207 207 207   206 206 206   206 206 206   206 206 206   206 206 206   207 207 207   208 208 208   209 209 209   210 210 210   211 211 211   211 211 211   211 211 211   212 212 212   213 213 213   214 214 214   214 214 214  
 155 154 157   155 153 156   155 153 154   157 155 156   160 158 159   162 160 160   164 162 163   165 164 165   168 165 167   169 167 168   169 169 169   171 171 171   174 174 174   176 176 176   178 178 178   180 180 180   182 182 182   183 183 183   185 185 187   186 186 188   188 188 190   189 189 191   190 190 192   192 192 194   194 194 195   195 195 197   195 195 197   196 196 198   196 196 198   197 197 199   198 198 200   200 200 202   202 202 204   203 203 205   205 205 205   205 205 205   205 205 205   206 206 206   206 206 206   207 207 207   209 209 209   209 209 209   211 211 211   211 211 211   211 211 211   211 211 211   212 212 212   213 213 213   214 214 214   214 214 214  
 156 154 157   155 153 156   156 154 155   158 156 157   160 158 159   162 160 161   164 162 163   165 163 164   167 165 166   169 167 168   169 169 169   171 171 171   174 174 174   177 177 177   179 179 179   181 181 181   182 182 182   183 183 183   186 186 188   186 186 188   188 188 190   189 189 191   190 190 192   192 192 194   193 193 195   195 195 197   195 195 197   196 196 198   197 197 199   198 198 200   199 199 201   201 201 203   203 203 205   204 204 206   205 205 205   205 205 205   205 205 205   206 206 206   208 208 208   209 209 209   210 210 210   211 211 211   211 211 211   211 211 211   211 211 211   211 211 211   212 212 212   213 213 213   214 214 214   214 214 214  
 156 154 157   155 153 156   157 155 155   159 157 158   161 159 160   163 161 162   165 163 164   166 164 165   168 165 167   168 166 167   169 169 169   171 171 171   174 174 174   177 177 177   178 178 178   180 180 180   181 181 181   182 182 182   185 185 187   185 185 187   186 186 188   187 187 189   188 188 190   190 190 192   192 192 194   193 193 195   195 195 197   196 196 198   197 197 199   199 199 200   200 200 202   202 202 204   203 203 205   205 205 207   204 204 204   205 205 205   205 205 205   207 207 207   208 208 208   210 210 210   210 210 210   211 211 211   211 211 211   211 211 211   211 211 211   211 211 211   212 212 212   213 213 213   213 213 213   214 214 214  
 155 153 156   154 152 155   157 155 156   159 157 158   162 160 161   165 163 164   166 164 165   167 165 166   168 166 167   168 166 167   170 170 170   171 171 171   173 173 173   175 175 175   177 177 177   179 179 179   181 181 181   182 182 182   184 184 186   185 185 187   185 185 187   186 186 188   187 187 189   189 189 191   192 192 194   193 193 195   194 194 196   196 196 198   198 198 200   199 199 201   201 201 203   202 202 204   204 204 206   205 205 207   204 204 204   205 205 205   206 206 206   207 207 207   209 209 209   210 210 210   211 211 211   211 211 211   211 211 211   211 211 211   211 211 211   211 211 211   212 212 212   213 213 213   213 213 213   213 213 213  
 154 152 155   154 152 155   158 156 159   160 158 161   162 160 163   164 162 165   165 163 166   166 164 167   167 165 168   168 166 169   170 170 172   171 171 173   173 173 175   174 174 176   176 176 178   178 178 180   181 181 183   182 182 184   184 184 186   184 184 186   185 185 187   186 186 188   187 187 189   189 189 191   192 192 194   194 194 196   194 194 196   196 196 198   198 198 200   200 200 202   201 201 203   203 203 205   204 204 206   206 206 208   205 205 205   205 205 205   206 206 206   208 208 208   209 209 209   210 210 210   211 211 211   211 211 211   211 211 211   211 211 211   211 211 211   211 211 211   212 212 212   212 212 212   213 213 213   213 213 213  
 156 154 157   156 155 157   158 156 159   160 158 160   161 159 162   163 161 164   164 162 165   165 163 166   167 165 168   168 166 169   170 170 172   171 171 173   172 172 174   173 173 175   175 175 177   178 178 180   181 181 182   182 182 184   184 184 186   184 184 186   185 185 187   185 185 187   187 187 189   190 190 192   193 193 195   195 195 197   194 194 196   196 196 198   198 198 200   200 200 202   201 201 203   203 203 205   205 205 207   205 205 208   205 205 205   206 206 206   207 207 207   208 208 208   209 209 209   210 210 210   211 211 211   211 211 211   211 211 211   211 211 211   211 211 211   211 211 211   212 212 212   212 212 212   213 213 213   213 213 213  
 158 156 159   158 156 159   158 156 159   159 157 160   161 159 162   163 161 164   165 163 166   166 164 167   166 164 167   167 165 168   167 167 169   170 170 172   172 172 174   173 173 175   175 175 177   180 180 182   183 183 185   183 183 185   185 185 187   184 184 186   184 184 186   184 184 186   186 186 188   189 189 191   192 192 194   194 194 196   196 196 198   197 197 199   200 200 202   201 201 203   202 202 204   203 203 205   204 204 206   205 205 207   206 206 206   207 207 207   208 208 208   208 208 208   210 210 210   211 211 211   212 212 212   212 212 212   211 211 211   211 211 211   211 211 211   211 211 211   212 212 212   213 213 213   214 214 214   214 214 214  
 158 156 159   158 156 159   159 157 160   160 158 160   161 159 162   162 160 163   163 161 164   164 162 165   164 162 165   165 162 166   165 165 167   169 169 171   173 173 175   174 174 176   175 175 177   178 178 180   181 181 183   181 181 183   184 184 186   183 183 185   183 183 185   184 184 186   186 186 188   190 190 192   193 193 195   195 195 197   196 196 198   198 198 200   200 200 202   202 202 204   203 203 205   204 204 205   205 205 207   205 205 208   206 206 206   207 207 207   207 207 207   208 208 208   210 210 210   211 211 211   211 211 211   212 212 212   211 211 211   211 211 211   211 211 211   212 212 212   212 212 212   213 213 213   214 214 214   214 214 214  
 159 157 160   159 157 160   160 158 161   160 158 161   161 159 162   162 160 163   163 161 164   164 162 165   164 162 165   165 163 166   169 169 171   172 172 174   173 173 175   171 171 173   171 171 173   175 175 177   179 179 181   182 182 184   183 183 185   183 183 185   183 183 185   184 184 186   187 187 189   190 190 192   193 193 195   195 195 197   197 197 199   199 199 201   201 201 203   202 202 204   203 203 205   204 204 206   205 205 207   206 206 208   208 208 208   208 208 208   209 209 209   209 209 209   209 209 209   209 209 209   210 210 210   210 210 210   212 212 212   212 212 212   212 212 212   212 212 212   213 213 213   213 213 213   213 213 213   214 214 214  
