P3
50 50
255
  90  95  60    80  82  48    59  59  31    91  87  58   125 120  84   132 124  85   125 118  82    80  74  40    72  65  36    59  54  25    40  37  10    45  44  16    58  57  29    78  76  48    93  93  65    86  86  58   113 113  85    83  83  57   104 104  80    92  91  71    36  33  24     9   6   1    35  28  22   106  99  91    63  53  44    37  27  18    41  30  24    32  20  14    24  15  11    20  10   8    39  31  29    42  37  33    35  27  24    49  40  35    41  32  25    54  43  37    46  32  29    45  31  28    47  33  30    56  43  35    84  70  59    66  52  39    77  64  48    68  55  38    70  57  40    65  52  35    61  49  32    70  56  45    74  61  52   129 116 108  
  50  54  24    44  47  19    61  63  41    73  73  49    92  88  53   131 127  87   122 117  81    66  62  27    46  42  12    45  42  12    54  53  25    56  55  27    58  57  28    80  79  50    71  72  41    83  83  53   161 160 133    82  82  56   106 105  81    84  83  63    26  23  14    17  14   7    63  56  51    90  81  74    56  46  37    48  37  28    32  21  15    26  15   9    22  12  10    20  12   9    27  19  17    31  26  23    46  39  36    52  45  42    32  23  18    53  44  39    46  35  31    39  25  21    55  42  36    55  42  34    82  68  58    64  50  38    78  64  49    59  46  29    61  49  32    79  67  49    76  63  47    77  64  49    72  61  47   102  90  78  
  57  62  34    56  62  33    71  77  50    61  65  35    60  59  22   113 111  71   108 105  69    63  62  27    54  52  21    75  74  45    90  90  63    67  67  40    74  74  47    57  57  29    45  45  18    62  62  35   113 111  86    89  87  63    95  93  71    70  67  51    14  11   3    53  50  44    79  72  66    37  28  21    41  31  22    46  33  25    36  23  17    30  19  13    27  16  13    23  14  12    33  25  23    39  34  31    39  34  31    38  33  30    29  21  18    55  46  41    47  36  31    46  33  26    57  44  37    61  48  40    62  47  39    57  43  33    74  60  48    95  83  68    84  72  55    78  67  49    76  65  46    76  67  45    75  64  42    59  50  26  
  74  80  50    73  80  47    57  67  30    51  58  20    62  65  26    52  52  15    80  78  46    81  82  50    81  80  53   122 124  97   107 109  84    66  67  43    56  56  32    24  24   4    65  65  40    85  85  61    97  95  73   117 115  94    82  77  60    47  43  31    14  11   4   113 110 105   112 105  99    23  14   7    36  26  17    50  37  29    45  32  25    33  22  16    33  22  18    43  33  31    40  32  30    40  33  31    32  27  24    23  18  14    34  26  23    56  47  42    43  31  23    52  39  30    55  41  32    47  33  26    59  45  37    59  46  38    80  67  58   134 124 111    93  84  68    75  66  47    72  63  39    68  62  33    75  68  35    97  93  55  
  66  72  44    82  91  57    93 106  63    42  52  10    73  79  41    76  79  46    38  39   8    45  48  19   110 111  87   132 134 112   105 107  85    65  67  45    52  52  30    41  40  20    53  52  31    48  47  26    94  91  72    91  88  71    61  55  41    41  37  26    50  47  42    97  94  89    70  64  58    32  23  16    38  28  19    64  51  43    49  37  29    32  19  11    49  38  33    50  41  36    29  19  17    25  17  15    34  27  25    30  25  21    37  29  26    50  40  35    42  29  20    55  41  30    51  37  28    81  66  59    79  66  60    56  43  37    62  52  43   150 140 130   131 122 107    82  76  54    90  85  56    98  96  59    74  71  27   106 106  55  
  37  42  19   106 115  88   182 194 158   117 129  91    82  89  56    64  69  40    59  63  36    68  72  47    70  74  52    59  62  41    67  70  50    43  46  25    52  54  33    67  69  48    76  75  55    67  66  48    51  48  33    67  61  49    61  54  44    39  35  26    49  46  41    43  40  35    40  35  29    55  46  39    34  21  13    44  30  21    49  34  26    40  26  18    41  28  21    42  30  26    30  20  18    27  19  16    39  31  28    35  27  24    32  22  20    44  33  27    49  35  26    69  52  42    47  32  24    85  70  63    85  72  66    74  61  55    57  48  38   122 114 103   127 121 102   115 111  86   104 101  67   127 129  86   108 108  58    81  85  26  
  83  85  67   106 114  89   154 166 131   145 157 121    65  72  41    45  52  24    99 103  78    86  90  68    56  60  38    65  68  48    48  52  33    49  52  33    49  51  31    66  68  48    63  61  44    66  64  49    77  71  59    98  91  81    69  61  54    63  57  51    36  32  29    24  20  17    37  32  28    48  39  32    45  32  24    48  34  25    64  50  41    45  30  22    34  19  12    42  29  23    38  27  23    34  24  21    37  27  24    31  21  17    31  22  17    47  36  30    47  31  25    74  57  50    63  45  40    64  49  42    80  67  59    77  67  58    39  32  19    58  52  35    63  59  36    64  64  32    54  54  16    86  90  44   109 114  61    70  77  19  
 111 115  94    78  87  58    78  90  53   114 127  90    92 102  70    59  68  39    94 101  76   123 130 106   114 119  98   103 108  88    58  63  43    47  51  32    36  38  20    38  39  21    42  40  25    41  39  24    66  60  48    48  41  33    54  45  39    45  38  33    18  14  11    21  17  14    26  21  17    29  20  13    43  30  22    53  39  30    66  49  41    49  33  25    47  31  24    47  33  27    37  25  20    34  23  19    33  22  18    32  21  16    47  36  31    60  47  41    40  22  20    64  45  43    62  44  41    59  44  37    67  54  45    66  58  43    41  35  15    72  69  44    94  94  63    63  66  29    52  56  14    70  77  29    61  69  17    41  50   1  
 103 108  79    62  70  33    46  58  19    72  87  48    72  83  51    62  72  43    52  60  36    71  79  55    75  82  61    58  65  44    53  58  38    57  62  42    33  36  17    47  48  30    65  64  47    53  51  36    38  32  20    19  13   4    53  44  39    32  24  21    13   9   5    21  17  14    23  18  14    35  26  19    41  27  20    53  40  31    58  41  32    46  29  19    47  30  23    46  31  24    35  22  16    43  31  25    35  23  18    33  20  14    60  47  41    59  45  41    34  16  17    61  40  44    54  36  36    68  53  47    69  56  45    63  56  38    56  51  26    84  84  51    90  91  54    81  87  44    63  70  26    87  96  48    74  83  35    44  55   6  
  78  84  48    50  58  19    47  59  20    52  66  29    69  80  48    71  82  52    78  87  60    66  74  50    67  75  52    48  56  35    40  45  25    61  64  45    52  53  35    48  47  29    78  75  58    56  53  38    29  23  10    29  22  12    50  43  34    28  23  17    25  21  17    29  26  21    48  41  35    55  46  39    41  28  19    46  32  23    64  47  37    52  35  25    51  34  26    46  32  23    31  18  10    49  36  30    39  26  20    30  17  11    56  43  38    38  23  20    37  18  20    62  42  47    47  29  29    72  57  52    77  65  53    55  48  27    68  64  35    81  81  45    64  67  25    67  75  26    72  80  30    70  79  28    75  85  35    47  56   9  
  55  62  29    51  61  27    44  55  23    50  61  29    64  74  41    84  94  61   122 133 101    73  84  54    59  67  43    52  57  35    44  47  28    61  60  42    71  65  51    87  79  66    49  41  28    35  27  14    28  22   8    23  20   5    45  46  30    39  40  26    42  39  30    47  42  36    44  37  29    51  41  32    48  35  26    41  27  16    66  52  41    44  30  19    47  34  23    42  29  20    28  16   8    41  30  24    37  23  20    37  23  22    44  28  28    29  13  13    42  26  26    54  39  36    49  34  30    72  57  50    84  71  60    73  65  46    81  75  47   174 172 134   145 148 101    44  53   2    73  82  25    98 109  49    92 103  44    63  71  16  
  48  58  22    53  63  28    55  64  31    41  50  18    56  64  34    85  93  64   101 109  82    71  79  53    61  68  45    42  47  26    56  56  39    57  53  39    48  40  28    64  53  42    43  30  21    32  22  11    28  21  10    49  47  32    60  62  46    51  53  40    35  33  22    32  28  19    28  21  13    43  33  24    49  36  27    47  33  23    58  45  34    47  34  23    45  32  21    43  30  21    34  24  15    36  25  19    36  22  19    38  25  23    47  30  32    38  22  22    46  32  29    42  29  23    46  30  26    59  44  37    89  75  64    73  61  45   119 112  87   212 209 175   183 186 140    71  78  25    57  66   7   111 122  62   135 144  85    88  97  41  
  59  67  28    62  71  33    66  75  38    59  68  34    71  76  50    80  85  61    60  64  43    51  55  34    41  45  26    30  32  15    48  45  32    49  43  31    38  28  19    56  43  34    46  33  25    23  13   3    42  33  24    70  66  55    73  74  62    44  46  34    30  28  20    40  37  29    37  31  23    33  25  17    37  25  16    58  45  36    57  44  35    42  29  20    46  35  25    38  28  18    36  25  18    33  22  16    42  28  25    41  27  25    44  28  29    45  29  29    53  38  35    50  35  32    57  39  37    48  31  28    97  83  75    93  80  68   152 143 122   196 191 160   132 133  93    93  98  50   103 111  57    84  93  37   121 128  74   120 127  74  
  85  92  55    90  97  60    72  78  44    64  69  38    55  57  37    40  42  25    30  32  16    18  20   6    21  23   8    34  33  19    38  34  23    45  37  27    53  43  34    55  42  34    37  25  19    25  16   9    54  47  38    46  43  35    49  49  40    30  32  23    31  31  23    39  36  29    38  33  26    34  28  19    35  24  17    55  45  36    48  35  27    39  26  18    41  31  22    37  27  18    38  29  22    33  22  15    43  30  26    41  27  24    41  25  25    41  25  25    51  34  31    67  50  48    70  53  52    50  32  30    95  77  74    84  70  61   119 108  91   136 130 103    73  73  37   100 103  59   122 128  79    67  74  22    80  85  34    92  96  48  
  57  61  33    45  49  21    29  34   8    30  32  10    28  29  15    20  18   6    21  21   9    18  18   6    21  19   7    74  72  60    38  31  21    31  22  13    62  52  42    48  37  28    22  11   5    39  30  23    40  34  28    20  17  10    21  22  16    26  27  21    33  33  25    27  27  19    31  28  21    39  34  28    49  39  33    60  49  43    54  41  35    43  32  23    32  22  13    44  34  25    46  37  30    32  23  16    32  21  17    40  26  23    45  29  29    36  21  18    49  31  29    66  48  46    65  47  45    60  42  40    91  73  71    71  57  49    79  70  55   107 103  78    77  77  43    75  79  38    74  80  34    52  58  10    45  50   2    61  64  19  
  23  24   9    13  14   2    22  22  10    16  16   6    20  20  10    20  20  10    24  24  14    35  35  25    43  41  29   110 108  96    91  85  73    86  80  68    77  69  58    38  33  21    30  23  13    55  51  42    35  32  25    20  21  12    18  19  13    15  18  10    18  19  11    19  19  11    25  22  15    25  20  14    36  28  23    51  42  36    58  47  41    35  24  18    37  26  20    44  36  29    38  28  23    34  25  20    27  16  12    39  25  22    52  37  34    39  24  21    50  35  30    57  43  37    44  29  26    52  38  34    88  73  70    74  61  53    58  52  36    98  97  73    69  71  39    52  59  18    48  55  11    45  53   6    40  48   2    59  66  20  
  26  25  19    22  21  17    21  19  17    27  26  22    26  27  18    29  30  19    47  47  36    40  40  27    66  64  51    96  94  79   119 115 102   132 130 114    76  74  58    13  12   1    40  38  25    70  69  56    42  43  32    42  44  32    38  42  31    22  25  15    20  21  13    24  24  16    22  18  11    20  15   8    23  16  10    37  28  23    51  40  35    32  21  15    48  39  32    40  31  25    26  17  12    40  31  26    30  19  15    35  24  20    55  40  36    41  26  21    50  35  28    47  35  26    62  47  41    41  29  22    25  13   6    73  64  53   100  95  79    44  45  20    53  59  25    60  69  27    60  70  24    69  79  32    61  71  24    46  54  10  
  73  72  68    23  22  19    24  22  21    19  19  15    32  35  22    51  54  39    53  55  39    48  50  32    81  80  62    83  82  63    44  43  25    78  77  58    59  59  40    15  17   2    77  79  60    69  73  55    29  32  15    65  70  52    48  52  36    34  37  22    51  53  41    44  44  34    21  17   8    25  19  11    27  19  14    37  28  23    38  27  23    32  21  17    50  41  36    38  29  24    29  20  15    44  35  30    32  21  17    34  23  19    59  44  41    38  24  18    56  45  36    50  40  31    49  37  29    25  15   5    20  11   2    56  49  34   121 120  98    69  73  44    71  79  41    69  81  37    72  85  36    87 100  50    72  84  37    39  48   5  
  41  42  33    55  56  46    44  45  34    27  29  15    50  54  34    49  54  33    41  45  23    46  50  28    88  87  67    65  64  44    26  25   5    71  70  49    45  47  26    35  39  16    71  75  53    40  45  24    46  51  30    59  64  42    34  38  17   103 106  86   112 113  98    43  42  30    21  17   7    27  20  11    32  23  17    50  40  34    51  37  34    34  23  19    47  37  34    41  31  28    30  20  17    32  22  19    36  25  21    34  23  19    57  43  40    46  33  27    45  35  26    45  35  25    53  43  33    35  25  15    18  10   1    42  39  19   111 111  84    92  98  63    69  79  37    81  95  47    87 101  51    84  98  47    76  88  42    65  73  32  
  32  35  19    50  53  34    56  59  37    64  70  43    51  57  30    36  42  14    45  49  22    45  48  22    92  91  68    62  60  38    48  46  25    26  25   5    23  25   3    49  53  30    46  51  28    20  25   2    39  44  21    40  44  19    79  82  58   151 153 130    94  93  75    31  27  15    26  20   9    35  26  17    34  24  15    56  43  37    56  42  39    37  23  20    36  25  23    44  34  32    32  22  20    32  22  20    43  32  28    36  24  21    45  31  28    43  30  24    34  21  13    49  39  29    65  52  43    56  46  34    29  22   6    43  38  16    90  91  60   111 117  79   119 131  85    73  87  36    84  97  46    84  98  47    69  80  36    72  80  40  
  38  43  21    38  44  15    91  98  65   162 170 133   126 134  99    74  81  48    46  49  18    51  51  23   117 112  88    64  58  36    39  33  14    25  23   2    31  33  12    59  62  41    52  56  33    65  69  45    63  67  42    29  32   5    93  93  64   105 102  77    39  36  17    61  55  38    37  29  16    33  23  12    43  30  22    52  37  32    36  21  18    37  22  19    41  30  28    47  36  34    25  15  13    32  22  20    47  38  33    45  34  30    36  23  19    35  22  19    50  36  31    60  47  39    61  46  39    77  64  54    50  41  26    55  48  27    66  65  35   125 129  92   193 202 156   137 149  99    84  96  46    66  78  30    56  64  23    49  54  21  
  31  37  14    63  73  39   119 130  90   135 146 104   131 139 100    84  89  53    33  34   5    89  87  57   140 134 110    65  59  37    37  29  11    26  21   3    42  40  21    40  41  21    45  46  24    77  78  54    83  84  58    58  57  29    91  86  57    71  64  38    35  30   9    72  65  47    40  31  15    36  24  11    42  28  19    50  34  27    42  27  22    32  18  15    46  32  31    45  34  32    25  15  13    31  21  20    39  30  25    38  28  23    33  22  18    45  31  28    62  46  44    61  45  42    56  37  34    72  58  49    64  51  37    82  76  54    57  53  24    83  87  47   141 148 102   162 173 123   131 140  91    72  81  37    56  62  25    47  49  20  
  50  57  32    75  85  52   112 122  85   132 142 103   111 119  79    78  83  46    97  97  64   129 126  97   151 144 120    97  90  68    37  29  11    30  24   8    49  46  29    60  59  40    69  68  48    66  65  43    60  58  35    62  59  34    80  74  48    47  41  16    59  53  32    67  61  42    39  31  14    38  26  13    47  33  24    50  34  27    47  32  27    29  15  12    47  33  31    37  26  23    30  20  18    34  25  21    42  33  28    35  26  21    40  29  25    53  39  36    45  28  28    46  28  28    64  45  43    72  55  48    59  46  31    87  80  56    59  57  23    59  61  19   106 112  65   103 112  62   100 108  62   102 109  67    84  89  55    47  49  22  
  50  57  26    90  96  66    89  95  67    96 102  72    83  90  55   124 131  94   136 142 108   107 110  79   104 105  77    92  90  67    38  35  15    56  54  35    89  87  70   104 104  88    78  78  61    65  66  48    51  52  34    50  50  32    43  41  23    52  51  33   103 102  85    63  60  44    14   9   4    21  12   3    35  22  14    37  22  14    27  12   7    28  13   8    49  36  31    34  23  18    40  29  26    35  25  21    42  33  28    32  23  18    44  33  29    48  36  32    35  22  18    49  36  31    59  43  40    73  59  50    50  44  22    71  70  35    82  89  41    75  83  28    98 106  55   105 113  64    83  92  48    95 104  66    71  81  46    38  47  16  
  63  68  38    81  85  61    54  57  39    40  43  23   118 125  96    99 109  73    74  83  49    94 101  70    83  86  59    47  50  26    35  36  14    59  60  40    77  77  60    76  77  61    56  57  43    59  60  46    64  66  52    54  56  43    30  32  18    37  41  27    79  81  67   107 108  94   117 115 103   111 104  94   110 100  90   119 106  98    85  70  63    62  47  40    44  30  25    21   9   3    39  28  23    47  36  30    32  23  18    35  26  21    52  41  37    40  28  25    39  30  23    48  38  31    54  40  37    77  66  56    54  53  24    62  70  24    99 114  52    78  94  27    80  91  31   107 115  63   102 113  68    93 106  63    47  63  22    48  63  25  
  39  44  24    60  64  49    73  76  64    60  64  49    56  61  38    69  74  47    98 104  78   116 122  96    68  72  50    22  25   4    32  34  13    52  53  35    60  59  44    63  64  48    69  69  53    55  56  40    67  68  52    86  88  73   121 123 109   170 172 158   184 187 170   164 165 149   168 165 150   157 149 138   170 160 150   181 168 159   111  96  89   102  87  80    97  83  75    87  74  66    50  38  32    22  11   8    31  22  15    53  44  37    41  30  26    36  25  21    33  22  18    43  31  28    49  34  31    78  65  56    67  66  36    50  59  11    91 108  43    85 105  33    44  59   1    50  61   2    76  90  35    58  75  23    28  46   2    50  66  17  
  49  55  33    62  68  48    55  61  41    46  52  33    25  30   8    62  67  45    85  89  69    63  65  46    48  51  33    41  41  24    30  30  13    43  43  28    51  48  33    62  60  45   105 103  87   138 138 122   169 169 153   164 164 145   134 135 116   133 135 116   120 123 105   101 101  84    18  15   1    35  28  14    46  35  24    40  26  16    42  25  16    39  22  15    50  35  28   102  89  81   141 131 124   107  96  89    56  46  40    46  36  29    38  27  22    32  21  16    43  29  25    62  47  43    56  37  36    78  65  55    85  83  53    64  74  24    84 103  37    93 113  41    67  83  14    41  55   1    75  90  33    70  88  33    73  93  34    67  83  28  
  64  70  40    38  48  17    42  52  20    36  45  17    39  43  21    61  63  45    57  59  44    47  48  33    46  46  31    38  36  22    34  32  18    52  50  36   114 111  96   123 121 106   127 126 109   112 111  93    82  81  63    64  63  43    51  50  30    80  80  60   126 126 107   104 103  85    13   8   1    48  41  25    64  52  40    56  42  31    56  39  29    45  28  19    32  18   9    39  26  17    61  50  41    75  65  57    91  80  74    62  51  45    26  15   9    42  29  22    45  29  22    64  46  40    72  51  49    76  60  50    75  72  43    94 103  55   103 122  57    91 113  40    80  96  31    50  64   4    48  64  11    55  72  19    80  99  44    95 110  57  
  91  99  56    51  62  23    44  54  20    53  60  33    56  57  38    63  62  47    46  45  32    42  41  27    30  28  15    44  42  29    62  59  47    60  57  44    71  67  54    74  71  56    48  45  30    33  31  13    31  29  11    47  44  26    49  46  28    72  71  51   102 101  81    88  87  68    20  15   1    46  37  21    58  46  32    52  38  25    62  46  36    52  35  25    40  27  18    57  44  35    44  31  23    16   6   1    42  30  24    60  49  43    35  24  18    49  36  28    56  40  29    61  41  31    95  75  69    70  53  41    57  53  24   104 113  68   106 125  62    76  98  31    56  74  14    54  69  15    45  61  15    43  59  15    40  56  12    70  82  39  
  62  69  27    65  73  38    49  56  29    55  60  38    59  60  42    56  55  37    54  52  37    44  42  28    23  21   6    56  54  41    67  63  51    66  62  50    83  79  67    62  58  45    24  20   8    34  31  16    56  53  37    50  47  32    39  36  20    59  56  39    90  89  71    64  61  42    24  19   1    38  29  12    53  41  27    41  27  14    53  36  26    54  37  27    33  19  10    44  31  22    52  39  31    32  22  13    16   5   1    55  44  38    47  36  30    49  35  27    65  48  34    45  26  12    86  64  56    49  33  20    67  63  33   119 128  83   100 120  59    74  96  32    66  83  29    41  54   7    31  46   6    32  46  10    34  49  12    60  70  35  
  23  25   5    29  31  17    25  27  17    32  33  23    31  32  15    34  33  13    36  35  15    29  28   8    25  24   6    34  32  17    23  21   5    32  30  15    38  34  22    38  34  22    41  38  26    47  43  31    68  64  52    57  52  41    49  42  31    56  52  40    88  87  69    52  49  32    30  24   8    47  38  24    51  39  27    41  27  16    48  31  23    48  31  23    37  23  14    60  47  39    46  33  25    36  26  17    37  28  21    35  26  19    44  34  28    49  37  27    55  38  22    59  40  25    87  65  55    65  49  34    70  66  37    75  84  40    78  98  39    67  89  27    57  74  22    47  60  16    35  46   8    27  38   4    40  52  15    51  58  24  
  33  32  19    33  33  20    24  24  13    30  30  17    37  36  14    45  45  20    20  21   1    26  26   4    41  41  21    39  39  20    46  46  27    53  52  36    38  37  24    23  19   7    24  21  10    28  25  13    36  32  22    42  38  28    53  46  37    66  62  51    53  51  36    32  31  14    32  26  13    42  33  21    50  38  27    44  29  21    44  28  20    38  24  15    32  18  10    55  42  34    44  34  25    49  40  31    33  24  17    38  29  23    43  34  28    46  36  26    53  37  23    61  43  28    91  71  63    69  53  40    71  67  39    70  78  36    75  93  38    80 101  41    60  74  22    63  76  31    57  67  26    66  78  39    55  67  27    70  78  38  
 101 102  78    54  54  31    43  43  18    72  72  46    77  78  49    65  66  37    23  26   1    50  52  27    55  57  34    52  54  33    67  68  49    79  80  63    48  49  34    35  34  21    44  43  30    32  30  18    34  31  20    22  18   8    25  21  11    31  28  17    25  24  11    20  18   4    40  35  23    41  32  22    52  39  30    45  30  23    44  29  23    42  27  21    35  21  14    44  32  26    38  28  21    35  27  20    26  18  13    31  24  18    50  43  37    58  49  41    50  37  24    67  49  37    85  65  60    74  57  48    66  62  37    57  63  24    66  81  27    83 101  43    77  89  37    67  77  31    54  62  20    81  90  49    91 104  58    80  89  43  
  97 102  67    83  87  48    96 101  56    86  90  47    80  83  48    35  39   9    41  44  15    90  93  66    74  77  52    54  58  35    34  36  15    22  24  12    38  40  22    76  78  62    80  82  66    39  39  26    41  41  28    37  34  22    30  27  15    25  24  11    21  21  10    17  15   5    40  36  26    42  33  25    55  43  36    45  31  25    43  28  25    49  34  30    31  18  14    31  20  16    27  18  13    18  11   5    25  18  12    21  15   9    39  34  28    51  43  35    40  29  19    73  58  50    73  54  53    82  66  61    55  49  31    36  40   7    49  62  14    68  81  31    87  95  51    70  76  36    61  67  31    68  76  39    81  92  51    66  74  31  
  77  86  43   111 119  72   110 119  66    80  87  36    48  52  15     9  14   1    68  72  42   106 110  83    84  88  63    55  61  35    39  44  21    21  26   5    53  58  36    73  76  57    45  48  29    42  45  27    51  52  34    45  46  29    38  37  20    50  50  35    22  22  12    11  11   3    26  21  17    38  31  25    55  44  42    40  26  23    35  20  19    43  29  26    34  23  19    28  19  14    20  12   6    19  14   8    20  14   8    19  14   8    20  15   9    29  22  16    30  20  13    78  64  60    74  54  58    93  77  78    51  45  33    27  30   5    41  50  12    53  61  22    53  58  24    46  46  19    45  47  24    35  39  15    24  30   4    55  60  29  
  50  61  19    97 105  64   113 120  78    81  88  48     9  15   1    39  43  16    89  94  66   108 114  86    79  85  58    50  56  30    39  44  21    20  28   4    51  59  35    56  61  39    36  41  19    47  50  29    47  49  27    49  51  29    78  80  58    70  71  53    19  19   9    17  16  11    24  19  16    44  36  33    52  40  40    33  22  20    38  24  24    56  42  41    55  44  42    28  18  16    27  19  16    31  26  22    20  15  11    21  18  13    29  26  21    24  19  13    29  20  15    59  48  46    64  48  55    75  58  64    44  37  31    31  30  13    38  41  15    38  42  13    33  32  13    26  22  10    25  21  13    20  19  12    15  18   5    48  50  37  
  40  50  10    48  55  19    68  75  42    38  44  16    44  51  17   101 108  71    83  91  55    83  90  58    56  61  33    46  52  26    44  48  25    37  42  19    36  40  17    29  33  10    43  46  23    58  61  37    54  56  34    47  49  27    76  78  57    26  27  11    14  14   4    21  20  12    26  22  16    42  35  30    42  33  30    25  14  11    33  22  19    58  48  45    61  51  48    26  16  13    38  30  26    37  32  27    29  23  19    31  28  20    55  49  45    30  24  18    43  33  28    55  41  39    56  40  42    57  43  44    45  38  31    43  40  28    45  46  26    32  33  12    35  32  17    36  32  20    29  25  16    30  28  20    46  47  36    43  44  31  
 115 122  84    99 104  71    19  26   5    20  27   4    80  89  45   101 110  63    70  77  35    63  69  34    47  51  21    35  38  14    54  57  34    63  66  44    36  36  14    37  38  14    60  61  37    85  86  62    55  57  35    37  39  19    34  35  18    25  24  12    40  39  27    29  26  14    31  27  17    40  34  25    43  36  29    39  31  25    38  29  24    41  32  27    40  31  26    30  21  16    33  24  19    42  34  28    29  21  15    39  34  25    67  60  53    28  19  12    51  37  31    68  53  47    45  31  26    44  34  27    44  37  26    40  37  25    42  41  24    26  24   8    30  27  11    37  34  17    28  25   8    41  39  21    80  78  59    74  74  53  
 150 153 120    51  52  25    27  32  13    89  95  66    85  93  51    70  81  34    67  75  34    72  79  45    55  60  30    26  29   4    48  50  28    55  57  35    66  65  44    81  81  57    71  71  47    77  77  53    56  56  34    28  27   9    18  17   1    57  55  42    56  53  41    29  23  11    32  27  15    44  37  26    38  29  21    43  35  26    46  35  30    34  23  18    31  21  17    34  24  20    35  25  21    54  45  40    32  23  15    32  23  16    50  42  35    29  19  13    43  30  23    63  49  43    44  33  25    34  26  16    48  43  32    43  40  28    33  31  16    26  26  10    26  24   7    30  28   8    36  34  14    42  41  18    58  57  34    48  48  23  
  47  45  20    15  13   1    62  64  43    88  92  67    67  77  37    54  65  21    55  63  26    66  73  40    86  90  63    59  63  40    58  60  39    68  70  49    82  81  61   119 118  97   101 101  79    68  67  46    44  43  23    18  17   1    42  39  24    66  62  50    42  36  24    30  22  11    37  30  19    43  33  23    31  22  13    35  26  17    36  25  19    41  30  24    40  26  23    35  24  20    42  31  27    55  44  40    35  25  19    47  38  31    40  31  24    42  31  25    39  26  20    42  29  23    44  34  25    40  33  23    54  50  39    54  52  40    39  40  26    21  22   6    31  30  12    43  42  22    48  47  26    58  58  34    54  54  29    47  50  23  
  17  15  11    83  78  59    93  92  74    72  76  53    83  93  58   109 121  84   129 139 104   134 143 112   124 130 104    83  86  65    76  78  57   114 116  96   104 103  83    98  95  76   108 105  87    80  78  58    35  31  13    20  16   1    44  39  25    44  38  24    34  24  12    30  20   8    40  30  18    38  26  14    27  14   5    54  41  32    50  36  28    38  25  17    34  19  14    35  21  15    44  31  25    55  44  38    44  33  27    51  40  34    38  27  21    39  28  22    47  33  27    43  30  24    50  39  33    44  37  29    51  47  36    46  44  32    33  33  19    22  23   7    29  30  12    52  53  33    52  51  30    59  59  35    60  63  36    53  56  29  
 138 136 115   152 148 128   103 103  84    70  74  52    86  95  65    96 107  74    86  94  65    66  75  49    44  49  26    40  45  23    57  58  40    79  80  62    55  52  35    44  41  23    71  67  49    70  67  49    50  45  29    34  28  11    21  14   4    62  54  40    47  35  23    27  15   3    49  36  25    61  46  35    38  23  14    60  45  36    52  37  30    35  20  13    36  21  15    42  27  22    39  24  19    54  41  35    53  40  34    36  24  18    49  37  31    42  29  23    41  26  20    54  38  33    61  49  42    61  52  44    56  51  41    35  32  21    19  17   6    24  24  10    42  42  28    65  63  47    50  48  29    35  34  14    57  57  34    60  63  38  
 118 118  97    95  94  71    59  62  39    49  54  30    52  61  33    65  75  47    66  74  49    79  87  64    91  96  74    90  94  74    83  84  68    69  69  52    37  34  17    41  38  21    43  37  21    30  24   8    39  33  17    40  34  18    55  48  32    83  75  59    47  35  23    34  20   9    54  39  28    66  49  39    42  25  17    54  37  29    44  27  20    53  36  29    51  34  27    38  22  15    38  21  17    47  32  27    59  44  39    33  19  13    54  41  35    48  34  27    42  24  17    52  34  27    69  56  47    88  77  68    63  55  47    36  31  22    25  21  12    24  21  10    47  44  34    51  47  36    30  27  13    33  31  15    49  47  29    51  52  31  
 108 111  86    96  99  73    87  94  65    87  97  68    66  75  50    47  56  32    54  60  37    71  77  55   103 107  85   126 129 108    85  86  69    58  56  39    67  64  48    59  56  41    37  31  16    29  23   8    26  21   5    28  22   6    36  30  15    62  54  38    52  40  28    34  20  10    48  31  22    59  42  34    50  32  24    40  21  14    46  28  21    62  43  36    52  34  27    34  17  10    41  24  18    34  17  11    45  30  23    45  30  24    41  27  21    62  45  39    56  36  27    52  32  24    85  69  59   115 102  93    61  52  43    33  25  17    27  21  14    26  20  13    35  29  22    23  17  10    28  22  13    62  56  45    67  62  48    43  40  24  
  90  95  65    91  98  66    85  96  63    53  67  34    34  42  19    50  56  35    44  49  27    48  51  30    89  92  71    99 101  80    73  72  54    63  62  44    64  61  46    29  26  11    29  23   9    23  17   3    43  37  21    67  61  45    69  64  45    31  24   8    47  34  25    41  27  18    61  44  37    64  47  39    47  30  22    38  19  12    48  29  22    62  43  36    45  27  20    41  22  15    54  37  30    43  26  19    38  23  16    46  31  24    35  20  15    61  44  37    51  28  20    51  29  18    94  76  66   100  85  77    51  38  30    34  23  17    26  16  14    28  20  17    25  18  14    22  15   9    42  33  28    44  35  27    74  68  56    67  62  47  
  74  81  50    85  91  59    47  57  23    20  34   1    33  41  18    46  49  30    37  40  19    42  44  22    64  65  44    76  75  54    75  74  54    57  56  38    34  31  16    38  35  20    23  20   5    86  83  68   150 147 130    78  76  58    74  72  52    87  82  65    41  31  21    41  28  21    62  47  43    59  44  37    43  28  21    50  33  26    47  30  22    58  41  33    50  31  24    47  28  21    48  31  23    46  29  21    35  18  11    48  31  24    41  24  17    50  31  24    51  30  18    59  37  26    80  60  51    79  62  54    58  45  37    42  31  25    37  27  24    33  23  21    25  16  11    45  36  31    56  47  39    42  33  24    47  41  26    51  46  29  
  47  52  21    51  55  24    30  39   7    34  44  15    37  41  21    42  43  25    45  46  26    68  67  46    94  93  71    89  87  66    52  50  29    32  31  11    73  70  53    58  55  40    25  23   8   112 110  95   143 141 124    98  98  78   101 101  80   119 117  98    38  30  21    28  15  12    37  24  21    39  25  20    39  24  19    56  42  35    42  25  18    46  30  22    52  33  26    45  26  19    40  23  15    50  34  25    36  19  11    46  29  22    44  27  20    45  26  19    56  35  24    77  56  45    57  38  29    63  47  38    54  42  34    37  28  21    40  31  25    20  14   8    30  22  14    71  65  54    80  73  59    72  67  49    68  64  42    52  50  24  
  50  51  23    45  45  18    52  56  30    54  58  34    48  48  30    42  40  22    49  47  27    73  71  49    92  90  66    62  60  36    63  61  37    67  65  43    52  49  31    33  31  14    43  41  26   101 100  84    90  90  72   101 104  82   110 113  90    99  99  79    34  28  21    31  20  19    35  25  23    29  16  14    31  19  14    54  41  34    43  28  22    44  29  22    49  32  24    42  25  17    45  28  20    59  42  34    42  25  17    42  25  17    39  22  15    41  22  15    49  29  20    73  53  43    62  44  35    70  57  48    50  39  32    32  24  16    23  18   9    23  20  10    43  38  25    37  35  18    59  56  34    59  59  31    67  68  33    92  95  56  
  52  48  23    55  51  30    54  53  33    67  67  48    56  54  38    38  33  17    64  60  40    87  83  60    63  60  34    52  48  22    87  84  59    59  57  34    20  17   1    22  21   3    52  50  35    79  80  62    60  62  43    73  78  55   120 125 100    96  99  78    23  19  13    31  23  21    36  27  25    21  11   9    22  11   7    36  24  18    38  25  19    41  27  19    50  36  27    43  28  20    51  34  26    55  38  30    42  25  17    42  25  17    41  24  16    46  28  21    44  24  17    56  37  29    67  52  43    80  70  61    55  45  39    30  25  17    21  18   7    41  41  27    61  60  41    61  63  38    45  45  15    49  52  15    70  75  31    91  99  49  
  47  45  22    49  44  24    42  41  21    45  44  26    94  91  76   105 101  84    80  76  57    56  53  32    49  47  23    84  82  59    52  50  28    27  25   4    22  20   1    32  33  15    66  67  49    66  69  50    68  73  51    72  77  54    96 102  76    92  95  74    24  19  13    24  15  14    26  16  15    19   9   7    28  17  13    28  15   9    34  21  15    39  26  18    45  30  23    49  35  26    70  53  45    60  43  36    43  26  19    41  26  19    49  32  25    65  48  40    65  48  40    77  63  54    71  58  49    64  56  45    48  44  30    44  43  26    60  61  41    53  57  31    79  85  52    98 106  66    75  81  38    91 101  50    98 109  52    89 100  39  
