P3
50 50
255
 248 246 249   239 238 238   125 124 121    41  41  34    63  63  53    30  31  19   155 157 143   184 187 173    95  98  84    59  63  49    80  87  71    61  69  50    36  44  25    31  36  21    30  33  22    40  43  32    44  48  36    46  52  38    56  62  48    53  59  45    62  68  54    61  67  53    54  60  47    67  73  62    77  83  73    64  70  60    38  40  31    57  58  50    54  54  48   156 155 153   177 172 174   197 191 196   155 148 155    57  51  58   212 205 212   242 235 239   222 216 218   228 223 221   187 184 178    79  76  67    49  51  36    45  50  30    53  58  36    71  79  52    76  85  56    75  86  56    77  87  58    73  82  57    62  70  46    50  55  33  
 223 221 224   175 174 174   143 142 138   134 134 127    45  45  34    69  71  56   180 182 168   162 166 151    63  67  52    51  58  42    77  84  66    45  52  33    36  44  24    44  49  33    51  55  41    50  54  40    62  67  52    51  57  43    56  62  48    45  51  36    93  99  85   131 137 123   118 124 112    72  78  67    67  74  64    35  40  30    50  55  45    60  62  54    38  37  31   101 100  96   124 120 121   148 143 148   143 136 143   127 120 127   213 206 213   229 223 227   230 224 227   231 226 227   196 192 190   112 110 105    73  73  63    59  61  46    70  73  54    71  75  52    83  87  62    90  96  70    89  95  70    78  83  60    72  77  55    58  63  41  
 144 142 147   170 168 170   229 228 225   186 187 178    40  42  29    85  89  73   130 135 117    71  78  60    42  49  32    63  72  55    51  60  41    44  53  34    46  55  34    66  74  55    61  66  51    48  55  39    50  56  42    49  55  41    56  62  50    35  41  29    70  76  64   186 192 180   188 196 183   123 131 118    30  38  25    28  36  23    58  63  51    59  61  51    52  53  45    89  90  84    77  76  72   135 133 132   142 138 140   184 179 183   191 186 190   235 230 234   224 219 222   222 219 220   226 225 224   218 217 213   153 153 145    92  93  80    88  89  73    78  79  59    79  81  59    71  73  51    72  74  52    82  86  64    71  75  54    55  58  39  
 155 153 157   242 241 242   239 238 234   176 177 168    51  53  40    60  64  49    57  62  45    58  65  47    49  57  40    50  59  42    58  67  48    50  59  37    47  57  33    55  64  42    51  55  38    61  68  52    60  67  52    56  62  48    40  46  34    83  89  77   148 155 143   189 196 183   211 219 206   141 149 136    20  28  15    58  66  51    65  70  57    54  57  46    56  58  47   121 122 113    97  96  92   120 118 115   134 130 130   186 182 183   190 185 189   237 232 236   216 214 216   223 221 222   229 227 228   227 226 224   183 182 178   140 140 131   115 114 103    90  89  72    62  59  40    67  64  45    99  98  78    86  86  67    62  63  45    45  48  29  
 254 253 254   224 223 224   174 175 171   155 157 148    81  85  71    35  42  24    41  48  30    45  54  35    53  62  43    60  69  50    50  62  40    39  50  28    54  65  41    48  56  34    40  48  27    52  59  41    57  64  48    55  61  47    45  51  38   131 137 127   238 246 235   245 253 242   211 219 206    97 105  91   141 149 134   107 116  99    52  58  43    46  49  35    50  52  39    72  74  62    62  62  55    99  98  93   156 155 150   168 167 165   192 190 191   226 224 225   219 219 219   217 217 217   210 210 212   218 218 218   187 186 184   149 148 142   132 129 120    75  72  58    46  43  26   122 119 102   122 119 102    77  74  57    51  51  33    45  47  30  
 238 236 238   238 236 236   188 188 183   227 228 221   157 161 148    27  31  16    52  59  42    55  62  44    44  51  33    43  52  32    44  53  32    35  44  22    44  54  30    42  50  29    36  44  23    36  43  25    47  54  37    43  48  33    40  44  32    49  55  45   166 171 161   240 246 236   155 161 151    69  75  64   121 128 116    72  80  67    43  48  35    41  44  30    58  60  47    45  47  36    48  48  40   112 111 106   171 170 166   146 145 141   189 188 186   229 228 227   210 209 209   213 212 213   214 214 214   208 208 208   219 217 218   157 155 152    63  60  54    58  55  45    68  64  52   107 103  91    86  83  68    60  57  42    44  43  28    54  57  40  
 182 179 174   166 165 160   126 125 120   215 215 208   119 120 112    56  58  47    49  53  39    57  63  46    41  49  29    50  58  36    46  54  31    46  55  32    81  89  68    71  79  58    50  58  37    51  55  38    48  52  36    43  47  32    43  46  35    37  40  29    53  56  47   101 105  96    79  82  75   143 146 140    93  98  92    38  43  37    32  37  29    41  44  34    57  60  49    46  47  39    50  50  43   101 100  95   135 131 127   110 106 104   199 195 192   228 224 221   220 219 215   220 219 216   220 219 218   218 217 215   215 214 212   207 206 204   109 108 105    94  93  88   136 136 128    37  37  27    48  49  38    49  51  38    35  39  25    57  61  46  
 112 109 102    57  54  48   102 101  96   207 206 201   205 204 199   127 128 120    49  52  40    53  57  41    51  56  37    53  58  36    48  56  33    49  57  36    96 104  83   112 120  99    60  67  49    65  69  52    43  47  32    42  44  30    42  43  32    62  64  53    60  61  53     8   9   1    75  76  70   218 220 216   220 222 219    34  39  35    23  28  21    46  49  40    59  61  53    43  44  38    52  51  46    70  68  64    92  88  85   151 147 144   216 211 208   234 230 227   218 214 211   204 200 197   227 225 222   205 204 200   190 189 187   230 228 228   225 224 222   160 160 156   137 138 133    97  98  91    70  72  63    63  66  55    50  55  42    46  52  38  
  50  50  40    55  55  48   143 142 137   230 230 225   251 250 245   122 123 117    95  97  87    70  74  59    58  62  46    57  62  42    61  69  48    53  61  40    58  66  46    80  87  69    59  66  50    47  51  36    32  35  22    77  79  66   104 106  94   118 121 110    77  78  70    66  67  59   163 164 158   195 197 192   194 196 191   105 110 104    61  65  58    59  61  52    62  63  55    59  59  53    41  39  35    50  48  45   150 146 144   219 213 213   217 211 211   224 221 219   212 208 206   173 169 166   198 196 192   197 196 192   185 184 182   246 245 243   195 194 192   122 123 119   181 182 177   189 190 184   165 166 157    98 101  90    54  57  46    43  47  33  
  51  51  41    81  81  71   104 103  97   113 112 108   127 126 122   143 144 139   146 148 140    74  78  65    60  64  49    67  71  54    63  70  52    63  70  53    56  63  46    61  68  52    49  56  41    43  47  34    70  73  62   144 146 135   233 235 224   133 134 126    37  38  30   158 159 152   170 171 165   106 108 102   143 145 140   140 144 138   149 151 145    66  67  61    39  40  34    48  49  44    63  62  58    95  93  92   205 201 200   210 204 204   211 205 205   225 221 220   215 211 209   149 145 142   130 128 124   173 172 168   208 207 205   195 194 191   128 127 125   189 189 185   196 197 192   114 115 109   175 176 170   156 159 149   104 107  96    43  46  35  
  35  35  23    76  76  66    95  94  88    61  60  56   109 108 106   214 214 211   181 181 176    80  81  74    42  45  33    55  59  44    62  65  50    68  72  57    61  65  51    49  52  40    40  43  32    49  52  41    84  87  76   145 146 137   153 153 146    77  78  72   138 139 133   117 118 112    60  61  55    72  75  68   107 110 103   160 163 156   167 169 162    66  67  62    39  39  35    50  49  45    95  93  90    93  91  90   180 176 176   199 195 196   222 218 219   208 203 203   219 216 214   196 192 191   103 101  98    74  73  69   117 116 112   125 124 120   190 189 185   220 219 214   140 139 134    52  53  47   145 146 140   154 155 148   105 107  98    31  34  24  
  41  41  29    58  58  47    63  63  55   131 130 126   207 206 203   208 208 206   199 199 196   147 148 143    81  83  74    55  58  47    48  52  38    54  58  44    75  79  66    66  69  59    50  54  46    40  43  36   107 109 102    92  93  87    51  52  46   154 155 149   216 217 211    74  75  71    18  19  16    58  60  53    43  47  40   131 133 127   123 123 118   133 134 129    88  87  83    73  72  70   137 136 134   106 104 103   103  99 100   128 124 125   230 225 226   225 221 220   206 202 201   188 184 183    92  90  87    30  29  25    18  17  13   121 119 116   217 216 212   184 183 178   109 107 102    69  70  64   160 161 155   177 178 172   120 122 116    28  31  22  
  41  41  28    35  35  24    81  81  73   153 153 150   186 186 186   212 212 212   195 195 194   209 210 206   170 171 165    98  99  91    42  44  33    41  43  32    79  81  71   149 150 144   104 105 100    62  63  58   132 133 128    56  57  52    93  94  89   164 165 160   147 148 142   111 112 106    44  45  39    28  29  21    60  61  53   116 117 110   169 170 165   183 183 180   132 131 129    87  86  84   163 162 160   158 156 157   130 126 127   101  97  98   192 188 189   228 224 225   223 219 219   137 133 132    31  29  26    22  21  17   123 122 117   146 145 140   155 154 149   160 159 154    75  74  69    57  56  52   105 104 100   200 201 196   201 202 196    63  64  58  
  45  46  32    46  46  35   103 103  96   162 161 158   219 219 219   224 224 226   212 212 211   231 231 229   194 194 190   111 112 106    82  83  77   103 104  96   108 109 102   169 169 166   102 102 102    82  82  82    89  89  87   111 111 109   136 136 134    47  47  43    30  31  26    54  55  49    46  47  41    37  38  30    57  58  50   128 129 121   192 192 187   195 194 191   180 179 177   152 150 150    96  94  95   201 199 200   163 159 160   149 145 146   207 203 204   210 206 207   232 228 228   184 180 179    95  93  90    52  52  47   134 133 128   162 162 155    95  94  89    71  70  65    55  54  50    72  71  67   115 114 110   234 234 230   206 206 202    73  74  68  
  52  54  41    49  51  39    58  59  53   104 104 101   167 167 167   232 232 232   231 231 230   227 226 224   156 155 152   144 143 138   173 172 167   198 197 192   192 191 186   177 177 175   153 153 153    63  63  63   111 111 111   217 217 216   165 165 163   110 111 106    90  91  86    43  44  38    42  43  37    44  45  38    40  40  33    67  68  60   151 151 147   168 166 165   205 200 201   204 200 201    76  72  73   187 182 186   187 185 188   183 181 182   215 212 214   225 223 224   222 220 220   213 212 210   198 194 192   104 101  96   129 129 121   188 187 180   113 112 107    18  17  13    30  29  25    53  52  48   116 115 113   218 217 215   181 180 178   150 149 145  
  80  82  71    44  46  36    45  46  41    82  83  80   107 107 106   182 182 182   223 222 221   193 192 189   112 111 107   143 142 138   180 179 175   222 221 217   219 218 215   146 144 146   111 111 114    73  73  75   192 192 193   214 214 214   187 187 187   187 187 185   173 173 171    88  90  85    62  63  57    43  44  38    46  47  41    56  57  51    80  78  74   130 126 126   217 213 214   187 183 184   153 148 152   194 190 194   204 202 205   211 209 210   226 224 225   223 221 223   213 211 211   219 218 216   215 212 209   158 155 150   190 190 182   213 212 205   146 145 140    51  50  46    51  50  46    22  21  19    77  76  74   104 103 101    96  95  93   212 211 209  
 170 172 161   107 108 101    77  78  72    91  92  89   117 117 115   158 157 155   216 216 213   148 147 143    54  53  48    97  96  92   211 207 204   241 239 239   121 118 120    71  69  72   106 104 109   128 126 129   213 212 215   210 210 211   197 197 197   172 172 170   175 175 173   106 106 104   105 105 102   111 110 106    85  84  79    81  80  75    64  62  59   131 126 129   205 200 204   175 170 174   227 222 226   222 218 222   194 192 195   219 217 218   214 211 213   211 210 208   216 215 212   216 215 211   213 211 206   222 219 214   220 220 212   213 213 206   208 207 202   171 170 166    95  94  90   112 112 110   153 151 150    79  75  76   147 144 143   216 212 211  
 186 187 181   177 178 172   161 162 157   156 156 153   198 198 196   156 155 151   196 195 191   107 106 100    23  22  16   132 131 126   248 247 244   147 143 144    83  78  83   196 191 197   220 218 223   165 163 166   200 199 201   211 211 213   207 207 208   169 169 169   195 195 195   145 145 143   120 120 118   172 171 169   168 167 165   106 105 102   106 102 102   184 178 181   193 187 191   194 189 193   228 223 227   206 202 205   195 193 196   215 213 215   213 210 211   218 217 215   216 215 212   220 219 215   227 225 220   223 220 215   205 205 197   204 204 197   228 227 222   166 165 160    78  76  74   243 242 240   168 166 165   111 107 108   219 215 214   235 231 230  
 200 202 197   216 217 213   217 217 215   194 194 190   212 213 208   142 141 135   145 145 136    82  82  72    34  32  24   114 111 105   103  99  97    78  74  76   175 169 175   235 230 236   235 230 234   189 187 190   180 179 182   203 203 205   209 209 211   184 184 184   186 186 186   196 196 196   158 158 158   190 189 190   197 196 194   117 113 112   163 158 160   208 202 206   179 173 177   220 214 218   226 221 225   184 180 183   203 201 202   214 213 212   211 211 209   216 214 211   209 208 204   208 207 202   210 208 201   162 162 154   178 179 171   182 182 175   171 170 165    86  84  80   142 142 139   197 193 192   120 116 117   187 183 184   224 219 221   221 215 215  
 214 216 215   218 219 216   218 218 216   170 171 167   112 112 107    63  63  55    53  53  43    48  48  36    38  36  26    16  13   5    93  89  86   196 191 194   193 186 194   184 179 185   191 186 190   205 202 206   182 180 183   188 188 190   204 204 206   213 213 215   202 202 202   204 204 204   211 211 211   216 215 216   165 163 165   179 175 176   217 212 214   181 175 179   190 184 188   228 222 226   197 192 196   184 180 183   215 213 214   209 208 208   211 211 209   213 213 208   190 189 185   167 166 161   153 151 144    99  96  89   127 127 119   113 114 108    94  93  88   102 101  99   183 181 181   114 110 112   217 213 214   239 235 236   212 207 209   183 177 179  
 208 210 208   215 217 216   212 214 212   166 167 163    88  89  83    31  31  21    23  23  10    44  45  31    38  37  24    17  14   7   145 140 138   228 222 227   211 204 212   179 173 180   180 175 179   183 181 184   193 192 195   193 193 195   203 203 205   199 199 201   208 208 210   213 213 215   220 220 222   196 195 197   164 162 165   222 217 221   190 185 189   167 159 164   210 203 208   223 217 221   178 173 177   204 199 203   210 208 209   210 210 209   206 206 205   209 208 204   188 187 182   144 144 137    97  95  87    76  75  67    88  90  82    46  47  41    63  64  59   138 137 134   100  98  98   201 197 199   244 238 242   236 230 234   196 190 192   157 151 151  
 212 214 213   214 216 215   206 208 206   206 207 203   184 185 180    61  61  53    29  29  19    40  40  28    35  35  24    43  40  33    40  36  33   108 103 106   181 176 182   201 196 201   195 190 194   190 188 191   187 186 188   200 200 202   202 202 204   218 218 220   209 209 212   205 205 207   188 188 190   178 177 180   208 206 209   205 200 204   172 166 170   196 190 194   213 207 211   198 193 197   178 173 177   213 210 211   208 206 206   206 206 204   211 212 207   206 205 201   171 171 165   149 149 141    88  86  77    55  55  45    44  44  37    40  41  35    45  46  41    85  85  82   173 171 172   229 225 226   228 223 227   227 221 225   208 202 205   187 181 183  
 214 214 212   210 210 208   211 211 208   210 211 206   183 184 179    65  66  60    21  22  16    51  52  46    46  47  41    39  38  33    32  31  27    42  41  38   102 101 100   180 178 179   192 190 191   197 195 196   196 194 195   197 195 196   182 180 181   180 179 179   195 193 194   171 169 170   181 179 180   201 199 200   169 167 168   156 154 155   204 201 203   210 205 209   209 205 206   182 180 181   194 192 193   212 211 209   205 204 201   208 207 203   212 211 206   208 207 201   152 152 144   109 109 100    64  64  54    38  38  28    35  35  25    32  32  23    45  45  38   117 116 111   218 217 215   209 205 204   209 205 206   218 214 215   222 217 220   213 209 210  
 146 147 142   210 211 206   206 207 202   184 185 180   174 175 170   123 124 119    56  57  52    98  99  94    92  93  88    56  57  52    50  51  46    44  45  40    67  67  64   129 128 128   189 187 188   212 210 211   205 203 204   198 196 197   188 186 187   188 186 187   194 192 193   185 183 184   209 207 208   180 178 179   136 134 135   200 198 199   212 210 212   212 210 213   184 183 184   183 181 182   209 208 206   202 201 199   207 206 202   203 202 198   200 199 194   204 203 197   181 181 173   102 102  93    63  63  53    28  28  18    22  22  12    38  38  29    77  77  70   139 138 134   181 181 176   208 204 203   203 199 199   212 208 209   222 218 221   236 231 235  
 127 127 125   205 205 203   212 212 210   202 202 200   204 204 202   179 179 177    92  92  90   145 145 143   156 156 154    80  80  78    60  60  58    61  61  58    75  75  73   137 136 136   203 201 202   208 206 207   201 199 200   205 203 204   207 205 206   208 206 207   188 186 187   208 206 207   180 178 179   139 137 138   163 161 162   223 221 222   205 203 204   194 192 193   179 177 178   200 197 198   208 207 205   203 202 200   204 203 200   207 205 202   206 205 200   207 206 201   202 202 197   106 105  99    55  55  47    41  41  32    32  32  22    33  33  24    66  66  58    94  94  88   117 117 112   119 115 114   185 181 181   243 239 240   221 217 218   192 188 189  
 207 207 205   203 203 201   204 204 202   206 206 205   203 203 201   177 177 175   117 117 115   152 152 150   198 198 195   137 137 135   120 120 118   137 137 135   149 149 147   187 185 186   211 208 210   202 199 200   201 198 200   206 204 205   201 199 200   194 192 193   198 195 197   192 190 191   150 148 149   127 125 126   202 200 201   205 203 203   204 202 203   181 179 180   196 194 195   209 208 209   200 199 197   206 205 203   202 201 199   204 203 200   203 202 198   209 208 204   206 205 201   115 114 110    25  24  19    50  50  42    49  49  41    52  52  42    43  43  35    55  54  48    64  63  59    82  78  77   157 153 152   182 178 179   159 156 157   178 174 175  
 209 209 209   204 204 204   203 203 203   196 196 196   208 208 208   191 191 191   149 149 149   169 169 169   205 205 205   187 187 187   185 185 185   202 202 202   202 202 202   206 205 205   201 199 200   204 202 204   200 198 199   199 197 198   195 193 194   193 191 192   204 202 203   170 168 169   162 160 161   157 155 156   217 215 216   186 183 185   177 175 176   194 192 193   205 203 204   200 198 198   201 199 200   201 200 200   205 204 202   203 202 200   207 206 204   198 197 194   186 185 181   168 167 163    92  91  87    60  59  54    84  84  76    65  65  57    55  55  47    32  31  25    61  59  54   107 106 102    94  92  89   125 121 120   196 192 191   232 227 227  
 204 204 204   202 202 202   206 206 206   203 203 203   197 197 197   205 205 205   195 195 195   200 200 200   200 200 200   202 202 202   200 200 200   203 203 203   203 203 203   203 202 203   197 195 196   203 201 202   190 188 189   191 189 190   195 193 194   195 193 194   182 180 181   178 176 177   147 145 146   177 175 176   182 180 181   191 189 190   193 191 192   206 204 205   201 199 200   198 196 197   202 200 202   201 199 199   203 202 200   198 197 196   206 205 203   199 199 197   199 199 196   224 223 221   186 185 183    77  75  72    86  85  79    68  68  60    63  63  55    64  63  57    88  87  82    82  81  77   160 158 155   220 216 215   225 221 220   236 232 231  
 204 204 204   202 202 202   200 200 200   201 201 201   196 196 196   204 204 204   202 202 202   203 203 203   200 200 200   205 205 205   204 204 204   196 196 196   200 200 200   201 200 200   200 198 199   199 197 198   194 192 193   191 189 190   185 183 184   172 170 171   160 158 159   189 187 188   129 127 128   188 186 187   195 193 194   209 207 208   203 201 202   201 199 200   199 197 198   203 201 202   199 197 198   203 201 202   199 197 198   202 200 201   199 197 198   201 199 200   209 207 208   208 206 207   195 193 194   115 114 112   108 107 102    86  85  80    48  47  42    60  59  54    34  33  28    52  51  46   180 179 174   217 216 212   219 216 213   240 237 233  
 202 202 202   199 199 199   198 198 198   199 199 199   204 204 204   197 197 197   200 200 200   199 199 199   197 197 197   194 194 194   200 200 200   197 197 197   201 201 201   199 198 198   203 201 202   198 196 198   204 202 203   199 197 198   191 190 191   185 183 185   200 199 199   185 183 184   167 165 166   204 202 203   200 198 199   198 196 197   199 197 198   198 196 197   200 198 199   199 197 198   200 198 199   199 197 198   202 200 201   200 198 199   203 201 202   206 204 205   197 195 196   207 205 206   209 207 208   139 137 137   127 126 122   136 135 130    44  43  38    30  29  24    33  32  27    46  45  40    64  63  58    94  93  88   147 144 140   176 172 169  
 199 199 201   199 199 201   199 199 201   199 199 201   199 199 201   199 199 201   198 198 200   198 198 200   199 199 201   199 199 201   198 198 200   198 198 201   201 201 203   201 200 201   197 195 196   196 194 195   199 197 198   199 197 198   199 197 198   204 202 202   207 205 206   183 181 182   168 166 167   200 198 199   196 194 195   199 198 199   198 196 197   200 198 199   199 197 198   199 197 198   199 197 198   199 197 198   200 198 199   201 199 200   202 200 201   203 201 204   200 198 201   205 203 206   202 200 203   178 176 177   128 128 126   178 179 174   156 157 152    85  85  80    92  91  86    95  95  87    74  74  66    55  54  48    73  73  68    55  54  49  
 199 199 201   199 199 201   199 199 201   199 199 201   198 198 200   198 198 200   198 198 200   198 198 200   198 198 200   198 198 200   197 197 199   195 195 197   194 194 196   197 196 197   200 198 199   200 198 199   199 197 198   199 197 198   199 197 198   198 196 197   194 192 193   181 179 180   182 180 181   201 199 200   195 193 194   202 199 201   199 197 198   199 197 198   199 197 198   199 197 198   199 197 198   199 197 198   200 198 199   200 198 199   201 199 200   202 200 203   200 198 201   200 198 201   200 198 201   195 193 195   179 179 179   208 208 206   213 214 210   116 116 111   106 105 100   141 141 133    84  84  77    56  56  48    54  54  48    45  44  39  
 198 198 198   198 198 198   198 198 198   198 198 198   198 198 198   198 198 198   198 198 198   198 198 198   196 196 196   197 197 197   198 198 198   194 194 194   189 189 189   192 192 192   198 198 198   199 199 199   196 196 196   198 198 198   199 199 199   194 194 194   185 185 185   180 180 180   193 193 193   199 199 199   194 194 194   202 202 202   198 198 198   199 197 198   199 197 198   199 197 198   199 197 198   199 197 198   200 198 199   199 197 198   200 198 199   200 198 199   201 199 200   199 197 198   198 196 197   207 205 206   208 208 208   199 199 197   209 209 206   154 155 149   103 104  98   112 112 104    71  71  61    60  60  50    51  51  43    40  39  34  
 198 198 198   198 198 198   198 198 198   197 197 197   197 197 197   197 197 197   197 197 197   198 198 198   196 196 196   197 197 197   199 199 199   198 198 198   193 193 193   182 182 182   182 182 182   187 187 187   188 188 188   189 189 189   187 187 187   181 181 181   189 189 189   184 184 184   196 196 196   196 196 196   197 197 197   199 199 199   197 197 197   199 197 198   198 196 197   198 196 197   198 196 197   199 197 198   200 198 199   200 198 199   200 198 199   198 196 197   202 200 201   203 201 202   198 196 197   204 202 203   202 202 202   203 203 203   210 210 208   176 177 173   155 156 150   145 145 137    44  44  34    36  36  26    31  31  22    23  23  15  
 197 197 197   197 197 197   197 197 197   197 197 197   197 197 197   196 196 196   196 196 196   197 197 197   196 196 196   197 197 197   198 198 198   199 199 199   198 198 198   200 200 200   197 197 197   191 191 191   190 190 190   190 190 190   193 193 193   199 199 199   191 191 191   191 191 191   197 197 197   196 196 196   199 199 199   195 195 195   197 197 197   199 197 198   198 196 197   198 196 197   198 196 197   199 197 198   199 197 198   198 197 196   201 199 198   199 198 196   201 200 198   204 203 201   199 198 196   200 198 199   203 203 203   198 198 197   204 204 201   170 171 165   124 125 117   118 120 109    41  43  31    25  25  13    29  29  18    40  40  32  
 197 197 197   197 197 197   197 197 197   196 196 196   196 196 196   196 196 196   196 196 196   196 196 196   196 196 196   196 196 196   196 196 196   196 196 196   198 198 198   199 199 199   197 197 197   198 198 198   200 200 200   195 195 195   189 189 189   189 189 189   188 188 188   196 196 196   199 199 199   199 199 199   198 198 198   193 193 193   199 198 199   199 197 198   198 196 197   198 196 197   198 196 197   198 196 197   199 197 198   197 196 194   200 199 197   200 199 197   198 197 195   200 199 197   200 199 197   203 202 199   196 196 197   202 202 203   207 208 205   179 180 174    62  63  56    21  22  11    33  35  23    39  39  27    31  31  21    35  35  26  
 197 197 197   197 197 197   197 197 197   196 196 196   196 196 196   196 196 196   196 196 196   196 196 196   196 196 196   195 195 195   195 195 195   195 195 195   196 196 196   195 195 195   195 195 195   196 196 196   197 197 197   194 194 194   189 189 189   187 187 187   191 191 191   197 197 197   199 199 199   200 200 200   196 196 196   195 195 195   198 197 198   198 196 197   198 196 197   198 196 197   198 196 197   198 196 197   199 198 196   199 198 196   198 197 195   200 199 197   200 199 196   198 197 193   200 199 195   202 201 199   200 200 200   198 198 198   209 209 206   197 198 193    95  95  88    21  23  12    32  34  21    54  54  42    52  52  41    28  28  20  
 197 197 197   197 197 197   197 197 197   196 196 196   196 196 196   196 196 196   196 196 196   196 196 196   195 195 195   196 196 196   197 197 197   197 197 197   196 196 196   193 193 193   196 196 196   197 197 197   194 194 194   197 197 197   200 200 200   197 197 197   200 200 200   198 198 198   195 195 195   198 198 198   195 195 195   199 199 199   196 195 196   198 196 197   198 196 197   197 195 196   198 196 197   198 196 197   199 198 196   202 201 199   196 195 193   198 198 195   203 202 199   200 199 195   200 199 195   197 196 194   198 196 197   201 201 201   198 199 195   215 216 210   189 189 181    77  77  69    26  26  18    57  57  49    63  63  55    66  65  59  
 197 197 197   197 197 197   197 197 197   196 196 196   196 196 196   196 196 196   196 196 196   196 196 196   196 196 196   196 196 196   195 195 195   195 195 195   195 195 195   195 195 195   196 196 196   196 196 196   196 196 196   196 196 196   196 196 196   196 196 196   196 196 196   196 196 196   197 197 197   197 197 197   197 197 197   197 197 197   197 197 196   198 197 195   196 196 194   196 196 194   196 196 194   196 196 194   197 197 195   197 197 195   198 198 196   198 198 196   197 196 194   198 197 195   203 200 198   199 198 196   202 201 199   200 199 196   199 198 194   207 206 202   180 177 173   127 123 120   119 115 112    54  50  48    73  69  68   113 109 108  
 197 197 197   197 197 197   197 197 197   196 196 196   196 196 196   196 196 196   196 196 196   196 196 196   196 196 196   195 195 195   195 195 195   195 195 195   195 195 195   195 195 195   195 195 195   196 196 196   196 196 196   196 196 196   196 196 196   196 196 196   196 196 196   196 196 196   197 197 197   197 197 197   197 197 197   197 197 197   197 197 196   198 197 195   196 196 194   196 196 194   196 196 194   196 196 194   196 198 195   195 195 193   197 197 195   199 199 197   198 197 195   197 196 194   199 195 194   204 199 199   203 202 198   208 207 203   210 209 205   214 211 209   165 161 160   170 164 166   200 194 196    61  55  57    63  58  60   133 129 130  
 196 196 196   196 196 196   196 196 196   196 196 196   196 196 196   196 196 196   195 195 195   195 195 195   195 195 195   195 195 195   195 195 195   195 195 195   195 195 195   195 195 195   195 195 195   195 195 195   195 195 195   196 196 196   196 196 196   196 196 196   196 196 196   196 196 196   197 197 197   197 197 197   197 197 197   197 197 197   197 197 196   198 197 195   196 196 194   196 196 194   196 196 194   196 196 194   196 198 195   196 196 194   198 198 196   198 198 196   199 199 197   202 201 199   202 198 197   204 201 199   200 199 195   198 197 193   193 192 188   200 197 195   189 185 184   189 183 185   131 125 127    90  84  86    99  94  95   103  99 100  
 196 196 196   196 196 196   196 196 196   196 196 196   196 196 196   195 195 195   195 195 195   195 195 195   195 195 195   195 195 195   195 195 195   195 195 195   195 195 195   195 195 195   195 195 195   195 195 195   195 195 195   195 195 195   195 195 195   196 196 196   196 196 196   196 196 196   197 197 197   197 197 197   197 197 197   197 197 197   197 197 196   198 197 195   196 196 194   196 196 194   196 196 194   196 196 194   196 198 195   199 199 197   197 197 195   197 197 195   201 201 198   204 203 201   197 194 193   178 174 173   177 176 172   166 165 161   153 152 148   191 188 186   220 216 215   165 159 161    91  85  87   173 167 169   172 168 169   164 160 161  
 196 196 196   195 195 195   195 195 195   195 195 195   195 195 195   195 195 195   195 195 195   195 195 195   195 195 195   195 195 195   195 195 195   195 195 195   195 195 195   195 195 195   195 195 195   195 195 195   195 195 195   195 195 195   195 195 195   195 195 195   196 196 196   196 196 196   197 197 197   197 197 197   197 197 197   197 197 197   197 197 196   198 197 195   197 197 195   196 196 194   196 196 194   197 197 195   196 198 195   199 199 197   195 195 193   199 199 197   196 196 194   193 192 190   179 176 174   137 133 130   156 155 150    96  95  90   138 137 133   192 189 187   150 146 145    96  92  93   179 175 176   209 205 206   204 199 202   214 209 213  
 195 195 195   195 195 195   195 195 195   195 195 195   195 195 195   195 195 195   195 195 195   194 194 194   194 194 194   194 194 194   194 194 194   195 195 195   195 195 195   194 194 194   194 194 194   195 195 195   195 195 195   195 195 195   195 195 195   195 195 195   196 196 196   196 196 196   197 197 197   197 197 197   197 197 197   197 197 197   197 197 196   198 197 195   197 197 195   196 196 194   196 196 194   197 197 195   196 198 195   199 199 197   196 196 194   195 195 193   184 183 181   176 175 173   165 162 161   128 123 121   142 141 136    71  70  65   102 101  96   118 115 111    43  39  37   148 144 145   223 219 220   201 197 198   212 207 210   209 204 208  
 195 195 195   195 195 195   195 195 195   195 195 195   194 194 194   194 194 194   194 194 194   194 194 194   194 194 194   194 194 194   194 194 194   194 194 194   195 195 195   194 194 194   194 194 194   194 194 194   194 194 194   195 195 195   195 195 195   195 195 195   196 196 196   196 196 196   197 197 197   197 197 197   197 197 197   197 197 197   197 197 196   198 197 195   197 197 195   196 196 194   196 196 194   197 197 195   196 198 195   198 199 196   199 199 197   191 191 189   178 178 176   169 168 166   151 147 146   124 120 117   106 105 100    76  76  69    60  59  54    52  49  46   118 115 113   217 213 214   203 200 201   208 204 205   202 197 200   202 197 201  
 195 195 195   195 195 195   195 195 195   194 194 194   194 194 194   194 194 194   194 194 194   194 194 194   194 194 194   194 194 194   194 194 194   194 194 194   195 195 195   194 194 194   194 194 194   194 194 194   194 194 194   195 195 195   195 195 195   195 195 195   196 196 196   196 196 196   197 197 197   197 197 197   197 197 197   197 197 197   197 197 196   198 197 195   197 197 195   196 196 194   196 196 194   197 197 195   196 198 195   196 196 194   200 200 198   192 192 190   184 183 181   168 167 165   129 126 125   101  97  94    97  97  91    61  61  54    21  20  15    89  86  82   213 209 208   203 199 200   196 192 193   191 187 188   196 192 195   208 203 207  
 194 194 194   194 194 194   194 194 194   194 194 194   194 194 194   194 194 194   194 194 194   194 194 194   193 193 193   193 193 193   193 193 193   193 193 193   194 194 194   194 194 194   193 193 193   193 193 193   193 193 193   195 195 195   195 195 195   194 194 194   195 195 195   195 195 195   196 196 196   196 196 196   196 196 196   197 197 197   197 197 196   198 197 195   198 198 195   198 198 196   198 198 196   197 198 195   196 198 195   196 196 194   200 200 198   194 194 192   190 190 188   166 165 163    82  79  78    49  47  44    64  65  59    40  40  35    22  21  16    61  60  56   106 104 102   156 152 153   189 185 186   192 188 189   196 193 196   203 201 204  
 193 193 193   193 193 193   193 193 193   193 193 193   193 193 193   193 193 193   193 193 193   194 194 194   193 193 193   193 193 193   193 193 193   193 193 193   194 194 194   194 194 194   193 193 193   193 193 193   193 193 193   195 195 195   195 195 195   194 194 194   195 195 195   195 195 195   196 196 196   196 196 196   196 196 196   197 197 197   197 197 196   198 197 195   198 198 195   198 198 196   198 198 196   197 198 195   196 198 195   195 195 193   197 197 195   196 196 194   188 188 186   176 175 173    87  84  83    11   7   6    15  14  10    14  15   9    37  36  31    79  78  75    65  64  62    67  63  64   148 144 145   201 197 198   206 203 205   199 197 200  
 193 193 193   193 193 193   193 193 193   193 193 193   193 193 193   193 193 193   193 193 193   193 193 193   193 193 193   193 193 193   193 193 193   193 193 193   193 193 193   193 193 193   193 193 193   193 193 193   193 193 193   194 194 194   194 194 194   194 194 194   195 195 195   195 195 195   196 196 196   196 196 196   196 196 196   197 197 197   197 197 196   198 197 195   198 198 195   198 198 196   198 198 196   197 198 195   196 198 195   199 200 198   195 195 193   196 196 194   188 187 185   170 169 167    95  92  90    15  13  12    29  30  25    40  41  36    46  47  42    51  50  47    96  95  93   116 112 113   105 101 102   157 153 154   197 194 195   198 196 197  
 193 193 193   193 193 193   193 193 193   193 193 193   193 193 193   193 193 193   193 193 193   193 193 193   193 193 193   193 193 193   193 193 193   193 193 193   193 193 193   193 193 193   193 193 193   193 193 193   193 193 193   194 194 194   194 194 194   194 194 194   195 195 195   195 195 195   196 196 196   196 196 196   196 196 196   197 197 197   197 197 196   198 197 195   198 198 195   198 198 196   198 198 196   197 198 195   196 198 195   195 196 193   196 196 194   198 198 196   193 193 191   188 187 185   153 150 149    76  72  71    57  56  52    69  70  65    54  54  51    53  52  51    63  62  60   135 131 132   146 142 143   157 153 154   199 196 197   203 201 202  
