P3
50 50
255
  50  52  38    29  29  20    41  42  27    26  27   9     7   9   1    21  23   2    42  45  31    32  34  23    17  18  12    21  22  14    28  30  18    30  32  19    26  28  15    22  24   8    27  30   9    35  38  17    40  41  25    31  32  18    23  23  11    17  17   7    22  22  14    24  24  19    16  15  11    17  16  14    13  12  10    25  23  21    41  40  36    32  31  26    22  22  14    24  24  16    22  22  12    27  23  12    39  26  17    49  35  26    42  32  22    27  18   9    24  19   8    21  21   9    16  18   5    22  25  12    27  32  18    41  47  35    22  27  15    15  18   7    22  24  13    24  24  14    29  30  21    21  21  11    25  28  11    21  24   3  
  24  25  15    30  29  23    27  27  18    29  30  17    24  26   6    44  46  25    68  70  56    32  32  24    13  13   8    18  18  14    22  23  16    21  22  16    19  19  16    21  23  12    31  35  10    41  46  17    33  34  16    33  33  21    37  37  25    27  26  17    19  18  11    21  20  15    18  16  12    14  12  10    26  24  21    30  28  24    27  25  21    16  14   9    22  21  13    27  27  16    21  20   8    31  26  15    50  37  28    58  41  33    58  44  35    42  32  22    22  15   4    27  23  12    36  36  22    23  24  11    28  32  16    29  34  20    16  22   8    14  18   6    18  22   8    20  22  10    27  29  17    28  30  17    23  26   9    28  32  10  
  21  22  12    16  16   7    29  29  19    32  32  20    41  42  23    63  65  44    57  58  45    25  25  16    20  19  14    22  21  17    19  20  15    14  14  14    14  13  17    24  25  19    39  43  17    49  53  23    27  28  11    43  41  30    46  43  33    27  24  16    19  16   9    20  17  12    20  17  13    31  28  24    41  38  34    24  20  16    22  19  13    24  21  13    23  20  10    27  25  13    29  27  14    28  22  10    36  23  14    45  29  21    61  47  38    67  55  46    36  28  16    30  24  11    51  49  34    38  38  23    21  23   6    20  23   7    19  23   7    21  25  11    30  34  18    40  44  29    36  40  25    27  29  16    30  32  15    26  27   8  
  17  17   6    36  34  21    47  47  26    30  30   6    41  42  17    42  42  22    32  32  23    25  24  20    14  13  10    16  15  11    15  15  10    12  11   8    14  13  13    21  20  15    26  29  10    28  30   9    19  19   6    34  31  24    44  41  33    31  28  21    21  18  11    20  17  11    24  21  15    36  33  27    30  27  21    16  13   5    27  24  15    34  32  20    21  18   6    30  28  15    44  42  28    32  28  14    24  15   4    26  16   6    37  28  16    60  53  40    50  43  28    33  29  13    49  48  31    46  45  28    20  21   2    25  27   9    32  35  17    29  32  16    31  36  16    42  46  30    39  43  27    32  34  20    30  30  17    24  23   8  
  31  30  13    61  61  38   102 103  70    67  68  34    27  27   1    26  24   8    30  29  24    19  18  15    14  14   9    17  17   9    18  17  10    18  17  12    19  18  14    20  19  14    16  18   7    14  14   3    20  18  10    12   9   2    35  32  25    39  36  29    18  15   8    24  22  14    35  32  25    24  21  12    11   8   2    28  26  15    35  33  21    27  25  12    20  18   5    34  33  19    51  49  34    43  41  26    24  21   8    28  26  13    23  20   5    33  31  16    40  39  21    38  36  19    48  47  27    54  53  33    37  39  18    39  41  21    40  43  22    42  45  26    41  46  26    38  43  23    36  41  21    37  39  24    39  39  29    30  27  18  
  38  38  12    40  41   6    89  91  51    98 100  63    34  33  13    29  26  17    32  30  24    20  17  10    15  17   1    16  17   3    17  16  11    19  18  16    18  17  15    15  14  12    14  13   8    15  15   7    20  17  12    10   7   2    23  20  15    28  25  19    22  19  12    37  34  27    37  34  25    18  15   6    12  10   1    29  27  14    36  34  21    35  33  18    27  25  10    28  26  11    41  40  22    37  38  22    22  24  10    31  36  20    27  31  14    22  25   8    29  32  13    36  37  19    41  43  22    50  52  30    77  76  55    72  72  51    46  48  26    38  40  20    38  42  21    34  37  16    39  43  22    42  43  28    41  38  31    32  27  21  
  53  53  26    41  43   9    44  46  11    95  99  69    68  70  54    25  26  16    15  17   7    18  19   6    14  15   2    15  16   1    18  18   9    23  22  19    19  18  16    15  14  11    17  16  13    15  15  11    11  10   5    18  18  12    13  13   7    20  18  10    40  38  29    42  40  29    29  27  17    21  19   8    17  15   4    15  14   1    30  29  16    48  47  34    30  29  16    20  19   4    30  31  15    28  30  11    22  28   9    26  32  13    26  32  13    27  32  12    33  36  17    32  36  17    30  32  13    33  35  15    33  35  16    40  42  23    25  27   8    17  19   2    18  21   3    19  22   4    25  28  10    28  29  15    42  40  31    42  39  30  
  56  59  34    28  29   4    44  47  23    66  70  49    66  72  55    42  47  33    20  25  11    14  18   4    15  18   4    19  21   8    16  16   6    20  19  13    18  17  12    14  13   9    18  18  16    16  16  14    18  19  13    20  21  12    19  20  11    31  32  21    33  34  21    21  21   8    26  26  13    34  34  22    21  21   9    17  17   6    24  24  13    36  36  24    23  24  11    22  23   9    25  28  11    26  29  10    27  32  10    30  35  13    31  36  14    40  45  25    35  38  19    20  23   5    25  28  12    29  32  16    20  22   9    19  20   7    24  25  12    23  24  11    25  25  12    29  30  16    25  26  12    28  29  15    52  50  38    39  37  24  
  47  50  29    23  25   6    18  21   4    22  27   9    23  30  14    28  35  21    21  27  13    16  20   8    13  17   5    18  21  10    15  15   5    13  13   5    18  17  12    15  15  10    11  11   9    21  21  19    23  24  16    17  18   7    37  38  26    42  43  30    25  27  13    29  31  15    37  39  23    35  36  23    30  31  18    23  25  13    25  26  14    24  25  12    24  26  12    33  36  20    38  41  22    28  31  12    30  35  14    28  33  12    27  32  12    41  46  28    46  49  32    33  35  20    27  29  15    25  27  13    28  30  17    35  37  24    37  38  25    34  35  22    32  33  19    31  32  17    28  29  14    22  23   8    21  19   9    20  18   5  
  67  70  50    37  40  23    19  23   6    28  32  16    15  23   8    13  21   6    22  27  15    45  48  37    27  30  18    11  12   3    15  15   7    14  13   7    10  10   5    18  17  13    16  16  14    17  18  14    16  16   8    40  40  28    46  47  33    51  52  37    49  52  35    44  47  30    47  50  33    37  40  24    40  42  28    38  40  27    40  42  29    30  32  18    33  36  19    39  43  26    46  49  29    34  37  18    31  35  18    29  34  18    28  32  15    39  43  28    52  54  40    47  49  35    36  38  24    31  33  19    40  42  28    50  52  38    47  48  34    46  47  33    39  40  24    31  32  16    30  31  13    21  20   2    17  13   2    23  19   7  
  35  40  21    31  33  19    19  23   8    20  24  10     9  17   2    15  23   9    26  32  20    41  44  33    35  38  29    16  17   9    16  16   8    15  14   9    13  12   7    21  20  16    17  18  13    16  17  11    35  35  25    45  43  31    30  31  17    30  32  15    38  41  22    30  33  13    29  34  14    40  44  26    41  45  28    38  43  28    40  44  29    30  34  19    31  34  17    29  32  15    34  37  16    28  31  12    25  27  13    24  26  13    23  25  11    20  23  10    25  27  14    32  34  21    29  31  18    25  27  14    31  33  19    38  40  26    38  39  23    44  45  29    41  42  24    32  33  15    34  36  15    32  30  13    38  34  22    30  25  15  
  16  21   4    29  32  18    28  33  18    25  31  17    19  27  11    20  28  12    30  36  22    36  39  27    41  44  33    35  36  28    20  20  12    12  12   6    18  17  12    18  19  12    18  22  14    35  36  29    49  48  39    29  26  15    35  36  22    38  39  23    36  39  20    32  36  15    24  29   9    42  48  28    28  36  17    28  35  19    32  36  21    33  37  23    36  39  23    33  36  19    33  35  17    36  38  20    29  31  16    25  27  14    32  34  21    29  31  18    23  25  12    30  31  19    30  31  19    25  27  14    22  23  10    25  26  13    30  30  17    36  37  22    37  38  23    35  36  18    34  35  18    36  34  20    30  25  15    28  21  13  
  36  43  22    33  37  21    27  34  17    36  43  25    42  51  32    28  37  18    32  39  22    36  40  25    39  41  29    39  40  31    32  32  23    29  29  20    20  21  12    15  16   6    30  34  22    44  46  36    23  20  11    20  16   6    32  30  18    35  34  20    30  32  14    28  31  13    24  29   9    27  35  15    37  44  27    37  44  29    30  37  22    30  34  20    25  27  13    27  29  14    33  34  19    47  48  32    45  48  31    28  31  15    37  39  24    35  37  23    22  22   9    25  25  13    26  26  14    23  23  11    22  22  10    23  23  11    31  31  19    29  29  16    30  30  17    34  35  21    28  29  15    29  26  15    22  15   7    29  22  15  
  38  46  25    31  36  17    27  35  13    38  46  24    59  69  45    52  62  38    45  52  31    35  40  21    30  32  18    32  32  21    29  29  19    49  47  37    24  25  13    22  24  11    45  49  35    54  56  44    45  42  34    29  24  17    23  21  11    25  23  11    24  25  11    35  37  23    27  31  13    23  28  12    30  34  20    23  27  15    17  21   9    16  19   7    11  13   2    28  30  18    36  36  24    46  46  32    54  56  38    57  59  40    35  37  19    29  30  15    29  30  15    53  54  40    41  41  29    35  35  23    36  36  26    27  27  16    25  25  14    25  25  16    26  26  17    27  27  17    21  21  11    17  14   6    16   9   2    32  25  19  
  26  31   9    37  42  20    28  36  12    25  34   7    37  48  19    57  66  38    37  46  20    70  75  53    51  54  37    28  26  13    30  29  17    34  31  22    26  26  14    49  50  36    56  59  42    40  42  28    32  31  23    22  19  14    23  20  13    33  30  21    30  31  17    33  34  20    29  31  17    27  27  15    20  23   9    29  31  20    16  18   9    12  13   5    18  19  11    25  26  18    27  27  17    36  36  24    43  44  26    38  40  18    31  33  13    35  36  18    26  27  11    37  38  24    35  36  22    31  31  19    30  30  20    25  25  17    24  24  16    23  22  17    16  15  10    13  12   7    19  18  13    26  23  17    32  25  19    45  38  30  
  42  47  23    62  68  42    58  67  37    44  53  21    25  35   2    53  61  30    49  57  28    74  78  55    54  55  37    24  22   9    36  33  22    32  28  19    35  33  21    33  33  20    29  32  15    18  20   6    17  18  10    15  14   9    22  23  14    36  36  25    42  40  27    34  32  19    39  37  24    38  36  24    25  22  10    40  37  28    28  25  18    16  15  10    22  20  15    18  17  12    29  29  21    35  35  24    43  42  24    43  42  21    54  53  34    44  43  25    31  32  16    32  33  19    38  39  25    19  19   7    27  27  17    19  19  10    16  15   8    16  15  10    16  15  10    22  21  17    33  32  28    42  39  34    43  38  32    60  53  45  
  61  67  40    39  45  17    26  36   4    42  52  16    53  62  27    45  53  18    47  53  22    32  35  12    25  23   6    23  19   7    34  30  21    43  38  31    39  35  27    14  12   1    21  22   7    26  28  14    19  21  12    10  11   5    21  23  12    24  24  12    35  34  20    34  31  18    35  30  18    42  36  24    33  26  16    31  22  15    34  28  22    22  18  12    21  18  13    26  26  20    41  41  33    39  39  29    24  23   7    64  63  44    83  82  66    54  53  36    32  32  17    41  41  28    48  48  36    33  32  22    23  23  15    15  15   7    16  15   9    22  21  15    28  27  21    34  34  28    38  37  31    37  34  28    31  27  17    58  54  43  
  37  43  15    37  44  13    45  55  23    47  57  20    50  58  21    34  41   5    32  37   5    23  24   2    25  22   7    25  19  10    40  33  29    51  43  40    29  24  19    20  16   8    25  25  12    23  25  12    19  23  14    15  19  11    39  42  29    31  31  18    41  39  25    50  45  31    38  30  16    48  38  26    44  33  24    30  18  11    33  23  18    22  14   9    35  31  25    44  42  35    28  28  20    27  27  17    27  26  13    33  31  17    45  43  32    54  51  40    36  33  23    41  39  28    36  33  24    19  16   7    21  21  13    18  18  10    22  22  14    27  27  18    28  28  19    31  31  21    32  32  22    31  29  19    28  25  15    58  55  43  
  31  37   9    54  61  30    59  67  33    31  39   6    33  41   2    63  69  33    58  63  32    26  26   4    23  20   7    34  27  21    41  33  31    41  32  32    21  15  14    24  19  14    28  28  17    23  25  13    15  21   9    23  30  18    45  49  35    34  36  22    43  40  24    62  55  40    42  31  16    45  31  19    50  36  26    38  24  16    31  19  11    25  15   9    41  34  27    43  41  32    12  12   3    17  17   7    26  26  17    15  12   4    27  24  17    49  46  39    18  15   7    12   9   4    18  15   8    25  22  14    29  29  20    23  23  13    21  21  11    22  22  11    24  25  12    31  32  18    35  38  22    34  35  20    38  37  24    63  61  48  
  66  70  43    59  66  35    21  28   3    48  56  18   130 138 101   122 129  95    66  70  45    11  12   1    22  19   7    82  78  67    43  37  32    11   5   3    21  16  10    29  26  18    45  43  32    28  29  16    19  26  11    32  39  24    33  37  22    22  25   8    33  32  14    59  53  37    42  33  18    34  22   8    48  36  24    35  22  10    28  15   6    29  20  12    21  14   6    23  20  11    16  16   8    19  20  12    31  31  23    32  29  22    19  16   9    13  11   4    13  10   3    33  30  23    40  37  30    42  39  31    27  27  17    26  26  14    27  27  15    29  30  16    28  29  15    32  33  17    33  36  18    31  32  15    32  33  17    63  64  48  
  82  85  59    19  24   1    33  41   2    65  73  32    67  74  40    62  68  40    23  27  10    23  25  11    41  44  27    55  56  38    60  62  40    17  19   2    19  21   2    61  60  40    66  65  44    42  44  22    37  39  18    28  29  11    34  37  18    27  28  12    31  32  16    52  50  35    41  39  24    31  25  11    38  30  17    31  24  10    29  21   9    27  20  10    24  20  11    25  23  16    25  24  19    19  20  12    35  35  25    18  19   6    10  10   2    20  20  10    48  45  36    46  43  34    26  23  14    37  35  23    30  28  16    31  29  16    38  36  23    29  27  14    39  37  24    50  48  35    33  33  18    32  33  15    43  45  24    83  85  63  
  44  46  23    39  43  18    51  56  20    33  38   3    27  34   4    17  22   1    29  33  20    43  45  34    30  34  16    24  27   5    32  35   9    38  40  14    42  43  20    64  63  40    65  64  40    55  55  32    49  48  28    38  37  19    30  31  13    24  25   9    29  31  17    41  42  28    33  34  20    28  26  13    37  35  20    25  21   6    25  20   7    31  27  16    29  26  17    28  27  22    29  30  24    24  26  19    10  10   1    18  19   6    33  33  22    33  33  21    50  49  37    38  37  25    22  20   8    21  20   7    29  27  14    32  31  17    38  36  23    33  32  18    37  36  22    46  45  31    38  39  22    35  36  18    45  47  25    62  64  43  
  28  29  12    53  53  35    61  64  35    39  43  12    22  25   1    37  39  19    55  56  46    39  40  31    40  42  26    63  63  43    66  67  43    47  47  22    57  56  36    50  48  29    49  47  27    46  44  24    45  44  25    38  36  20    22  23   6    19  20   5    25  27  14    28  29  17    29  30  16    32  31  18    36  34  19    35  32  17    41  37  25    37  33  22    19  18   8    17  16  11    20  22  16    14  15   9    24  25  14    39  39  27    42  42  30    41  41  29    43  44  30    47  48  34    30  31  17    22  23   9    29  30  16    34  35  20    38  39  23    38  39  23    36  38  21    40  42  25    42  45  26    33  36  17    49  50  31    62  63  46  
  19  18  12    41  38  27    33  33  11    27  28   4    19  18   1    45  44  29    37  35  26    35  33  26    41  40  25    76  75  55    85  84  62    64  63  41    86  84  66    52  47  32    36  31  16    33  31  14    40  39  23    40  40  24    29  31  16    29  30  17    30  32  19    24  26  14    25  25  13    30  30  18    34  32  18    42  40  26    50  46  34    36  32  21    12  12   2    14  13   8    26  29  22    27  28  22    40  42  31    51  51  39    43  44  31    41  42  28    25  26  12    38  39  25    31  34  17    27  30  13    30  32  16    34  37  18    37  40  21    41  43  25    40  44  25    47  52  30    57  62  41    51  54  34    45  46  30    54  54  41  
  48  45  43    32  28  23    39  37  19    44  42  21    35  34  14    34  32  17    23  20  11    45  42  33    40  38  23    32  31  11    32  32   8    51  49  28    71  68  53    57  51  39    32  26  14    25  21   8    23  21   7    26  27  13    30  32  19    33  35  24    34  36  24    31  33  22    27  29  16    30  30  18    35  33  20    23  21   8    17  13   3    21  19   7    26  26  16    28  29  22    24  27  20    16  19  12    20  22  11    31  31  19    44  45  31    44  45  31    35  36  22    30  31  17    32  35  18    18  21   4    32  35  16    32  37  17    35  40  20    33  38  18    32  37  15    41  46  24    51  56  34    54  57  38    54  56  41    38  38  26  
  70  67  60    26  21  18    43  41  25    52  51  30    50  50  29    42  41  23    32  32  20    26  27  13    27  29   8    35  35  11    49  49  25    49  48  27    38  36  21    36  32  21    27  23  12    34  31  20    21  19   7    16  16   4    24  27  14    24  26  15    31  34  23    48  49  41    44  46  35    40  40  28    23  22   8    24  22   9    22  20   7    28  26  14    32  32  22    24  26  17    16  19  12    20  23  16    17  19   8    18  18   6    30  31  17    35  36  22    39  42  25    37  40  23    46  51  31    22  27   7    28  34  11    31  39  16    39  47  24    28  36  13    23  31   8    26  34  11    27  32  10    39  42  23    55  57  43    46  46  34  
  32  29  23    29  27  21    39  39  19    31  32   7    28  29   3    22  25   4    37  38  21    41  42  25    32  37  12    50  53  25    59  62  34    40  41  16    36  38  21    27  26  14    27  25  15    51  49  40    31  31  19    22  22  12    21  23  12    14  16   5    22  25  16    41  44  35    37  39  28    31  31  21    18  19   5    33  31  18    36  34  21    24  22   9    23  25  12    23  25  14    18  23  15    31  33  26    21  23  11    22  22  10    25  27  13    37  39  25    33  36  19    37  41  23    45  51  30    23  29   8    25  33   9    32  40  17    46  54  31    39  47  23    36  43  21    30  37  15    27  32  10    43  46  27    33  35  20    53  53  41  
  31  28  21    43  43  30    37  40  12    23  27   1    32  37   4    27  32   5    51  56  32    51  55  32    30  37   7    40  46  14    46  51  20    46  50  23    47  50  31    26  27  14    27  28  18    44  44  36    32  32  22    30  30  20    21  23  13    17  18  10    20  23  14    21  23  14    16  18   7    15  15   4    26  25  12    36  34  21    50  48  35    31  29  16    25  27  13    23  25  13    17  21  11    30  33  23    34  36  23    26  27  13    26  28  14    43  46  30    34  38  20    25  30  10    38  46  23    32  40  17    22  30   8    33  41  17    35  43  19    50  57  34    55  60  38    35  40  18    36  41  19    44  47  28    27  29  12    42  42  29  
  40  39  23    53  55  33    37  42   6    43  49  11    47  54  14    59  65  30    53  60  30    29  35   8    43  50  18    66  73  39    64  71  37    38  44  14    36  40  20    28  30  17    23  25  14    24  25  17    25  25  15    24  24  14    20  21  13    16  17   9    12  14   6    16  17   9    21  23  12    25  25  12    34  32  19    33  31  16    53  50  36    53  51  38    34  35  21    26  28  15    18  21  10    23  26  15    29  30  18    24  25  11    24  27  10    38  42  25    31  36  16    23  28   8    35  42  20    34  41  19    29  37  15    32  40  16    33  39  17    34  39  17    44  49  27    50  53  33    42  46  26    58  59  42    42  43  27    41  42  27  
  61  60  33    42  46  14    21  28   1    99 107  58    93 101  55    63  70  29    63  70  37    40  47  16    40  47  13    85  92  58    65  73  38    14  20   1    29  34  14    30  32  19    13  14   5    21  21  13    27  27  18    19  19   9    16  17   9    17  18  10    17  18  10    26  27  19    36  37  27    36  36  24    32  30  15    33  31  16    45  42  27    48  45  30    34  35  19    41  42  28    28  32  18    19  23   9    23  25  11    21  22   8    21  24   7    37  40  23    35  40  20    25  30  10    26  34  11    25  33  10    37  45  21    46  54  31    49  54  32    38  41  21    52  56  36    48  49  33    54  55  39    34  35  19    37  38  22    37  38  22  
  63  64  23    39  41   2    41  45   1   120 127  73   130 137  86    56  62  18    47  52  18    46  51  21    33  39   5    29  35   2    31  36   4    16  20   2    20  23   6    24  26  15    20  21  15    17  15  11    22  22  14    14  11   4    14  14   6    25  25  17    29  30  22    30  31  23    31  31  20    25  25  13    27  25  10    38  35  18    38  35  18    36  33  16    30  31  15    40  41  26    27  31  16    20  24   9    22  24  10    33  35  21    32  36  19    32  36  19    30  38  17    29  37  14    29  37  14    26  34  11    39  47  24    51  58  35    50  54  33    37  40  21    36  37  21    41  39  26    57  54  42    13  10   1    18  19   3    49  50  34  
  77  79  32    46  46   6    62  67  10    99 104  46    75  78  27    59  64  18    45  48  13    50  54  25    46  50  18    33  37   7    50  54  25    40  41  20    21  23   9    20  19  12    22  20  16    14  12   8    16  13   8    35  31  25    45  45  37    39  39  31    30  31  23    31  31  23    28  28  16    23  21   8    27  24   9    37  33  16    44  40  21    43  40  21    34  33  15    28  29  13    24  27  10    21  25   9    21  24   8    42  44  29    43  47  30    32  36  19    29  38  14    28  36  13    21  29   7    19  27   4    24  31   9    30  35  13    29  32  15    28  29  13    22  20   7    53  49  38    45  40  30    13   9   1    27  25  12    57  58  42  
  60  63  18    36  37   1    83  87  29   100 105  46    85  89  35    67  71  25    55  58  22    47  50  20    49  52  22    47  50  22    63  66  42    45  43  27    25  23  13    17  14   9    18  14  10    28  25  21    32  29  23    40  37  30    38  38  29    34  34  25    30  30  21    25  25  15    22  22   9    26  25  11    26  24   6    31  26   9    48  45  25    51  49  29    39  38  19    31  32  14    37  40  22    25  28  11    33  36  19    35  38  21    32  35  18    33  37  20    40  47  25    30  36  15    18  25   5    31  38  16    33  38  17    25  29   8    14  17   3    13  14   2    24  22  10    57  53  42    34  30  20    22  18   7    21  19   6    50  50  35  
  28  36   2    33  43   1    84  94  39   113 125  65   110 120  65    70  79  29    66  73  31    55  61  25    50  54  26    37  38  20    30  30  20    20  18  13    14  11   5    27  24  17    45  42  34    43  40  32    35  32  22    29  26  17    23  23  12    26  26  15    26  27  15    19  21   6    14  18   1    17  21   2    24  28   4    35  37  12    40  45  16    47  50  25    41  44  19    38  42  18    34  38  16    25  28  10    37  40  23    31  33  18    24  25  10    31  34  19    39  43  25    34  38  20    33  36  20    34  37  21    25  28  12    15  17   1    17  18   3    13  13   3    40  39  27    54  51  39    17  15   3    27  24  12    18  15   3    50  46  36  
  29  41   4    43  59  14    52  69  16    88 103  51    90 103  52    52  64  17    38  49   7    49  56  23    35  38  16    13  13   2    13  12   8    24  20  19    37  34  27    56  54  43    57  55  40    39  37  23    25  24  11    32  29  18    35  35  23    34  35  21    28  30  14    23  27   8    23  28   6    23  32   5    24  33   4    34  43  12    32  42   8    41  48  16    41  48  17    32  38  10    26  32   6    30  33  12    24  26   9    39  40  26    29  30  16    28  30  15    37  38  24    28  29  14    17  17   5    13  13   2    11  11   1    16  16   4    23  23  11    23  23  11    49  49  37    45  45  33    19  18   6    28  26  14    28  24  15    34  27  19  
  51  62  12   107 122  65    62  74  28    34  45   4    36  47   6    60  67  34    40  45  24    14  15   2    12  14   3    11  11   3    30  31  16    38  36  22    42  39  27    52  48  36    40  38  17    26  25   4    39  37  22    39  41  26    36  39  24    29  31  17    25  29  12    27  32  12    30  35  13    29  35   9    34  43  14    45  54  23    36  43  10    25  32   1    36  42  12    37  41  16    34  38  15    26  29  10    25  26  10    33  34  21    29  30  16    33  34  20    36  37  23    19  20   6     8   9   1    14  14   2    28  28  16    30  30  18    25  25  13    24  24  12    49  49  37    43  43  31    30  30  18    29  27  15    35  31  20    36  30  21  
 100 110  58    92 102  49    35  43   5    49  55  22    57  62  34    39  42  24    15  16   4    15  14   5    22  22  12    45  43  29    55  55  33    46  45  23    39  37  18    45  43  25    50  47  27    42  40  20    24  25   6    30  31  16    33  36  18    29  32  15    26  31  13    35  40  20    55  60  38    71  77  51    50  58  29    64  70  40    55  62  32    39  43  14    43  47  21    33  37  13    32  34  13    27  29  11    32  33  16    23  24   9    26  26  12    27  28  13    14  15   4    11  12   1    24  25  11    32  33  19    41  41  29    40  40  29    27  27  15    32  32  20    45  45  33    26  26  14    29  29  18    27  25  14    33  29  18    48  44  33  
 101 107  65    73  79  38    34  38   9    34  37  17    25  25  10    14  13   3    24  23  10    30  28  12    47  46  27    63  62  39    44  44  19    40  38  13    43  42  16    44  42  20    59  55  37    52  49  33    41  42  24    34  37  19    31  34  15    32  35  16    32  37  17    30  35  15    31  36  14    34  40  17    41  47  20    52  57  30    53  58  30    44  47  21    36  39  16    22  24   2    31  33  13    42  43  25    43  44  26    29  30  13    21  22   6    16  17   2    17  18   7    27  28  12    35  36  22    42  43  29    35  35  23    36  36  24    28  28  16    44  44  32    41  41  31    14  14   4    23  23  13    24  23  13    28  25  14    37  33  22  
  63  65  39    60  61  36    29  30   5     8   9   1    21  21   6    36  36  19    34  35  12    27  29   5    59  62  31    66  69  38    39  41  13    36  35  10    40  40  12    32  31   7    39  37  20    38  36  22    32  34  14    29  32  12    29  32  12    32  35  15    33  37  18    30  33  14    25  28   7    22  27   5    33  37  12    42  46  20    39  43  17    33  35  11    26  28   7    37  37  18    50  49  34    49  48  32    42  41  23    20  20   4    11  11   1    21  21   4    39  38  23    41  40  25    27  28  13    31  32  18    32  32  20    28  28  16    17  17   5    44  44  32    37  37  27    20  20  10    24  24  15    23  23  13    25  23  11    24  22  10  
  16  17   3     7   5   3    17  16   1    29  30  10    34  36  15    61  65  40    57  62  31    36  42   7    47  53  16    59  65  29    43  47  16    30  33   5    35  38   9    32  34  10    28  28  10    28  28  13    29  32  12    31  34  12    27  30   9    23  26   5    22  25   6    27  30  11    29  33  12    29  33  11    40  44  21    46  49  26    45  47  23    45  47  25    29  29  10    35  33  18    38  36  23    26  24  11    21  20   2    12  11   1    35  34  17    46  45  27    36  34  19    35  33  18    27  28  12    19  20   4    22  23   9    22  22  10    16  16   4    46  46  34    30  30  20    23  23  13    23  23  15    22  22  12    31  28  19    26  24  12  
  13  15   4    42  43  25    61  62  47    19  21   2    59  63  38    78  85  54    58  65  32    41  48  15    39  46  12    45  54  16    32  41   3    36  44   6    30  36   8    30  33  12    28  33  10    26  30   7    34  38  15    30  34  11    29  32  11    30  33  12    18  21   2    17  20   3    34  35  17    41  43  22    62  64  43    40  39  19    28  27   6    67  66  47    52  51  33    22  20   5    15  13   2    45  43  30    49  48  30    13  12   1    51  50  32    64  63  45    56  55  37    29  28  10    22  20   5    27  25  10    22  23   9    17  18   4    22  22  10    42  42  30    28  28  18    22  22  12    24  24  14    24  24  14    29  26  17    22  19   9  
  68  72  50    92  95  73    29  33  18    44  48  28    78  86  55    51  61  26    36  46  10    29  40   2    38  51   8    50  62  17    61  74  26    68  79  37    39  49  18    29  35  14    34  40  22    35  39  20    36  39  18    23  28   5    31  34  13    35  37  18    39  41  23    45  45  30    41  41  24    52  52  35    34  33  16    26  24   7    38  37  18    55  53  36    43  41  26    20  18   8    10   8   1    62  60  48    76  74  57    35  33  14    38  36  19    66  64  46    77  76  58    61  60  42    14  12   1    25  22   7    26  26  12    23  23  10    31  31  19    43  43  32    27  27  17    21  21  10    21  21  11    22  22  12    30  28  19    18  16   7  
  70  74  47    35  39  21    30  36  16    79  85  58    70  80  47    40  51  13    38  52   9    29  44   3    33  50   2    49  65  12    49  63  12    45  58  16    40  51  19    38  46  25    33  39  29    32  35  25    39  42  24    38  41  19    30  32  12    49  49  32    30  30  15    40  38  25    49  47  33    42  40  26    23  21   7    41  39  25    56  55  38    40  38  24    17  15   3     5   3   1    38  38  29   104 103  93    79  77  62    37  34  17    48  45  28    55  52  35    58  55  38    55  52  35    28  26  11    27  25  10    39  37  24    27  25  12    34  34  21    47  47  35    35  35  23    29  29  17    29  29  17    32  32  21    35  35  26    18  18  10  
  51  56  25    15  20   1    68  75  40    77  84  47    53  64  26    41  53  11    32  49   4    42  60   7    41  59   2    57  75  20    47  60  14    24  36   1    25  35   4    25  33  12    20  25  19    28  30  26    46  48  33    38  40  21    21  22   5    36  34  20    33  31  18    26  22  12    14  10   6    33  29  18    40  37  25    40  37  25    52  50  36    39  37  25    13  13   1     7   6   1    72  73  65   144 144 134    77  74  59    32  27  11    39  36  20    29  26  10    38  34  19    34  31  15    32  31  16    34  32  17    50  48  33    35  33  20    40  41  27    41  42  29    33  33  20    33  34  20    35  36  23    37  37  25    21  22  14    16  17  10  
  14  20   2    60  66  30    75  84  39    52  62  13    37  49   2    39  53   2    41  59   3    61  79  21    66  83  27    53  66  19    50  62  25    37  46  17    28  37  10    24  30   8    25  29  16    27  29  19    27  28  14    30  29  13    30  28  15    25  23  10    39  36  27    22  18   9    44  40  32    71  67  58    39  35  24    10   7   2    39  37  25    36  33  24    23  23  13    22  22  14    36  37  31    70  70  62    86  82  70    43  38  22    30  27  12    27  24   9    21  18   3    39  36  21    45  43  28    27  25  10    29  27  12    39  37  22    60  61  47    44  44  31    29  30  16    34  35  21    32  33  19    21  21   9    13  14   6    17  18  12  
  49  57  14    89  95  48    62  70  19    54  64   9    42  56   6    59  73  12    77  92  37    64  77  32    47  59  23    32  43  13    47  57  33    46  53  32    31  39  18    22  27   4    31  35   8    43  46  19    25  27   6    38  36  21    36  33  21    25  21  10    25  21  12    28  23  17    77  72  66    52  47  40     4   1   1    11   7   1    55  52  43    43  40  31    22  22  12    23  23  14    12  13   7    25  25  16    98  94  81    65  59  45    32  26  12    35  30  15    22  19   4    62  59  43    65  62  47    14  11   1    28  25  10    39  37  21    62  63  46    36  37  21    18  19   3    27  28  12    31  32  16    23  23  11    20  21  13    17  18  13  
  88  97  45    58  68  13    49  58   8    88  96  44    95 105  52    82  91  40    61  70  26    38  47   7    38  47  10    38  46  13    45  50  22    36  41  16    32  37  15    27  32   9    28  33   4    40  43  17    50  48  30    40  38  25    24  20   8    22  18   7    34  31  21    61  56  49    44  42  32    12  10   1     8   6   1    28  28  15    47  49  36    43  43  31    25  26  14    21  21   9    22  22  12    35  32  21    82  80  63    79  77  58    41  38  20    40  37  19    31  29  11    44  42  24    63  61  42    48  45  27    36  33  14    38  36  17    60  59  40    41  40  21    26  27   8    25  26  10    23  27  10    20  23  10    19  20  14    17  18  13  
 109 120  59    60  70  11    36  44   1    52  60  16    57  64  26    49  55  18    48  53  14    62  66  24    69  74  27    66  71  25    63  69  28    47  53  18    32  37  10    30  35  12    35  42  20    31  34  16    44  43  29    33  30  18    31  27  15    40  36  24    39  36  25    40  37  27     9   8   2    28  30  19    44  46  35    40  44  28    49  54  36    49  53  36    34  37  18    34  34  16    34  33  15    36  35  14    67  67  44    75  76  52    48  49  26    42  42  21    40  41  20    40  39  19    68  67  46    80  78  57    51  47  25    43  39  17    54  51  29    49  47  26    33  35  14    26  29  11    21  26  10    22  27  14    21  23  18    25  25  23  
  78  91  24    65  77  16    59  68  25    59  65  29    54  60  26    63  67  31    62  68  23    75  80  31    69  74  26    58  63  20    73  78  43    51  55  26    39  43  17    25  30   5    44  51  26    32  37  16    18  21   7    27  27  13    60  58  45    61  56  44    40  35  23    12   5   2    24  18  10    84  80  66    76  75  59    43  46  26    49  52  30    41  46  23    56  60  36    68  71  46    50  53  25    41  43  17    56  58  34    71  71  49    58  60  38    41  43  24    53  54  35    63  62  44    41  41  20    69  66  47    64  59  38    39  33  14    46  41  21    55  53  35    38  38  21    22  24   9    15  21   6    18  24  14    17  18  13    23  23  21  
  94 106  44    78  89  31    73  82  37    58  66  27    57  65  25    64  70  27    62  71  19    71  80  27    94 101  53    65  72  31    44  49  19    36  40  16    39  43  20    34  38  13    47  51  24    62  66  41    30  33  14    66  67  53    52  48  36    26  20   8    15   6   2    30  18   7    61  49  37    58  47  33    26  20   5    53  49  29    65  66  42    38  41  15    58  65  35    67  74  41    35  44  10    38  44  14    52  54  30    63  62  42    62  63  44    48  49  33    38  39  22    54  51  36    35  32  17    52  47  32    50  44  27    33  25   9    40  34  18    36  33  18    39  37  24    21  21  11    22  25  16    16  19  12    18  19  14    19  20  15  
