P3
50 50
255
 160 136 110   190 165 138   178 155 127   169 149 119   190 172 144   180 163 135   138 121  95   149 132 107   162 144 120   150 132 108   138 120  98   145 129 106   171 154 134   160 143 123   144 128 105   136 119  97   126 110  91   124 109  95   137 122 109   168 152 139   165 149 134   157 142 126   154 139 119   163 148 128   165 150 129   171 159 137   166 154 134   176 166 150   174 165 152   171 161 149   161 149 131   146 136 117   157 148 133   182 175 164   154 148 139   120 116 107   131 129 116   133 131 115   142 141 122   154 152 132   157 154 135   158 152 137   154 147 135   121 116 109   139 134 128   161 154 145   152 142 133   130 120 109   135 125 113   135 126 115  
 161 138 107   157 133 102   167 143 112   179 157 126   169 148 117   168 148 118   170 149 121   162 141 115   170 149 125   158 138 114   135 117  96   158 141 121   167 150 131   147 129 110   154 136 116   137 119  99   129 113  95   119 104  90   139 124 111   162 146 133   150 132 120   152 134 120   158 141 124   164 147 129   157 140 122   147 132 113   127 113  95   133 121 106   120 110  97   119 109  97   140 129 111   144 133 114   164 156 139   177 169 157   138 131 121   102  98  86   128 125 112   158 156 140   148 146 127   149 146 127   175 170 151   177 171 155   171 164 150   135 127 119   120 113 107   139 130 123   136 127 117   112 102  89   145 136 121   119 111  98  
 158 138 102   148 127  90   171 149 112   177 154 119   181 157 123   166 141 110   167 142 113   170 146 119   171 148 124   166 148 128   151 134 118   153 137 122   157 141 128   145 127 114   141 122 107   148 129 114   128 111  93   142 129 111   139 124 108   139 124 105   156 139 121   153 136 118   156 137 119   152 134 114   146 128 108   109  92  72   106  91  72   123 110  91   118 106  88   124 112  96   162 153 138   171 161 149   158 150 138   154 145 135   146 138 127   128 122 110   126 120 107   147 141 127   152 145 130   172 165 149   180 172 156   184 175 160   168 159 145   155 145 135   130 120 113   112  99  91   122 109  99   126 114 100   149 139 124   127 120 104  
 136 117  84   166 145 111   171 148 114   173 149 114   178 152 117   174 148 115   180 155 124   185 160 132   172 151 126   131 113  92   117 102  84   141 125 110   163 150 134   141 127 109   143 127 107   165 147 125   155 138 115   152 139 115   154 140 117   172 157 136   184 167 147   163 146 126   149 131 111   154 136 116   165 147 127   152 135 115   142 128 107   154 142 120   163 152 130   158 149 128   178 171 155   169 161 148   143 135 122   159 151 138   169 162 149   152 144 131   130 122 109   133 125 112   122 112 100   146 136 124   165 155 143   166 157 142   140 131 117   156 146 136   154 142 133   118 106  94   119 107  92   107  95  79   125 115  98   131 124 108  
 140 118  97   154 131 107   167 142 117   168 142 113   175 151 118   180 156 122   179 155 122   184 160 129   180 160 131   134 116  90   116 102  76   131 119  93   167 154 127   149 134 104   154 138 106   162 144 108   144 129  97   136 121  96   150 135 112   171 156 133   181 165 142   173 155 133   158 140 118   157 139 117   163 144 123   162 145 125   148 132 112   150 137 115   165 154 132   161 150 130   160 152 133   152 146 127   138 131 112   159 152 134   175 168 150   179 172 154   147 139 123   133 124 109   107  97  84   102  92  79   109  99  87   120 110 100   126 116 105   121 111  99   142 133 118   112 103  86   111 100  83   103  94  75   105  96  79   114 107  91  
 167 143 127   161 135 115   178 151 129   175 149 121   179 155 121   186 162 128   171 148 116   169 147 115   188 168 138   181 166 137   156 142 115   145 134 106   162 151 122   152 139 107   155 141 106   152 137  98   144 128  95   144 129 101   143 129 102   163 147 122   180 162 139   174 157 134   164 146 124   156 138 116   156 138 116   162 147 124   154 140 119   149 137 115   161 149 127   175 166 145   159 152 133   150 143 124   151 144 125   166 159 141   183 176 158   180 173 155   146 138 121   158 149 133   120 112  97   123 114  99   136 126 111   129 120 105   154 145 130   149 141 124   148 141 122   117 110  91   125 118  99   120 113  95   101  94  76   135 129 113  
 153 131 109   178 153 127   174 149 120   184 159 128   182 159 127   180 157 125   183 160 129   185 163 133   175 154 128   159 143 120   153 138 117   154 142 123   163 151 130   159 145 122   159 144 119   164 147 121   163 147 119   160 144 117   156 140 113   175 158 132   181 163 138   159 140 116   165 145 121   174 155 131   162 144 122   149 134 111   149 135 112   150 138 116   136 125 103   139 131 110   143 136 120   115 107  94   131 123 110   150 141 127   157 147 132   161 152 135   168 159 141   175 167 149   159 151 132   170 162 141   181 170 150   177 166 146   184 175 152   181 174 152   160 155 133   152 147 125   152 145 126   146 140 121   122 117 100   135 132 116  
 165 145 119   177 153 122   170 145 113   180 157 123   175 154 120   170 150 115   174 154 122   174 154 123   151 133 106   145 129 105   150 135 114   153 141 123   148 137 119   139 126 108   147 132 111   158 142 118   165 148 122   165 150 121   162 146 117   163 146 118   169 152 124   159 141 116   160 141 116   174 156 132   165 148 124   143 128 105   138 124 101   152 141 119   142 133 111   143 135 114   135 128 113   168 160 146   181 174 158   165 157 142   174 166 149   189 181 164   199 190 173   168 159 141   150 142 123   182 174 154   193 182 162   191 180 160   188 179 158   178 171 151   135 130 110   147 142 123   124 118 103   120 114 101   125 120 109   114 110 100  
 177 160 129   182 163 126   181 159 119   164 145 103   158 140 100   161 143 103   169 151 113   174 156 121   150 133 102   140 124  98   162 147 124   151 140 118   154 142 122   150 136 115   154 138 115   148 130 108   158 140 115   173 156 127   178 161 131   161 145 116   151 131 104   153 134 109   160 143 117   150 132 108   153 137 112   174 159 136   166 152 129   161 150 128   157 148 126   160 152 129   154 147 124   155 147 125   168 160 139   164 156 135   170 162 143   178 169 151   176 166 150   163 151 136   142 130 116   161 149 136   162 150 138   167 155 143   175 164 153   159 151 140   126 118 107   139 132 122    98  92  85   103  98  94   134 126 126   104  95  96  
 173 159 129   165 149 115   148 130  93   157 141 102   168 153 114   177 161 124   177 159 124   174 157 124   145 130  98   125 111  83   124 112  86   103  93  69   129 118  96   137 126 102   146 132 106   142 126  99   170 153 124   173 156 126   169 152 122   171 154 124   153 133 106   143 126  99   161 145 119   162 146 121   150 136 110   177 162 139   172 161 137   167 156 134   171 162 139   164 155 133   160 152 131   136 128 107   173 165 144   163 155 135   126 118  99   156 147 129   181 171 155   188 176 161   118 107  92   112 100  88   120 108  96   113 101  89   133 120 111   126 115 104    82  74  63    94  85  77    92  85  78    93  86  82   103  95  93   101  91  90  
 141 127 108   129 114  90   162 146 120   185 169 144   153 137 112   165 149 123   165 148 122   153 136 110   149 133 107   145 130 104   161 149 125   151 141 116   152 142 116   125 115  87   119 106  74   143 128  95   147 132 100   147 130 100   150 133 103   153 136 106   155 138 110   150 133 105   162 145 119   172 156 131   141 127 101   146 131 108   158 146 123   166 155 133   171 162 140   178 170 151   178 168 156   158 148 138   180 170 160   165 153 142    86  74  62    64  52  39   102  90  76   122 110  95    87  75  59    82  71  54   110  97  80   121 108  90   111  98  79    95  83  62   111 100  78   124 116  95   119 112  95    94  88  73    88  81  68   108 100  85  
 133 123 111   144 129 116   158 142 126   152 136 120   188 172 156   142 127 108   141 124 105   174 157 137   176 160 140   183 170 151   180 169 149   186 175 155   178 171 146   160 151 124   146 135 106   134 121  89   135 120  89   152 136 106   160 143 113   164 147 118   166 149 121   178 162 136   181 166 140   176 162 136   150 138 112   152 140 116   159 147 124   162 151 129   170 162 139   157 149 130   133 123 111   124 114 104   117 107  97   105  93  83    92  80  68    93  81  69   101  89  75   122 110  94   138 126 109   126 115  97   121 108  91   134 121 104   133 121 100   104  91  68   134 122  98   156 145 125   132 124 106   107 100  84    92  84  67   104  93  73  
 103  94  87    95  84  74   127 114 103   169 155 144   169 155 144   106  92  79   154 138 125   194 178 163   191 175 160   176 160 147   167 153 140   187 176 161   188 179 163   183 173 155   165 153 132   144 128 105   141 125 100   165 149 123   166 150 124   169 153 127   183 167 141   176 162 136   183 169 143   176 161 137   172 159 135   159 147 125   129 118  96   149 138 116   170 161 139   129 121 100   102  91  71   121 110  92   142 131 113   146 136 117   145 133 117   171 159 143   192 180 164   187 173 160   173 159 148   137 123 112   130 116 105   120 106  95   110  96  84   104  89  74   120 104  91   133 120 111   116 107  98    96  87  80    82  72  63   103  90  77  
  74  65  57   111 102  92   156 146 135   180 170 156   121 109  93   141 129 111   191 177 161   175 159 143   198 182 166   173 159 143   155 143 129   181 170 158   167 157 144   173 162 146   134 123 105   126 112  93   137 122  99   139 125  99   153 139 113   145 131 105   154 140 114   141 127 101   144 131 106   183 171 147   179 166 144   150 139 117   118 107  85   123 112  90   129 120  99   134 126 105   151 141 119   173 162 141   194 183 163   198 187 167   183 172 152   169 157 139   165 153 136   163 150 134   143 129 115   122 108  95   115 101  90    94  80  69    84  69  58    88  70  60    82  65  56    86  71  66    77  66  63    56  47  43    70  60  52   110  96  86  
 144 136 125   133 126 113   160 152 135   168 161 137   157 150 122   177 168 139   188 176 148   179 165 139   182 170 145   176 164 142   168 157 137   179 171 153   119 110  93   154 144 126   152 141 121   134 121 101   126 114  92   136 123  99   137 122  99   132 120  96   123 112  88   115 104  81   143 132 110   161 150 128   128 118  97   140 129 109   156 146 126   148 140 119   117 109  88   132 124 103   160 148 130   166 155 136   162 151 133   146 133 116   127 114  97   117 104  85   117 104  85   118 105  86   114 101  82   117 104  84   110  95  74   113  98  78   114  99  79   110  93  77   116  99  89   114 102  94    88  78  72    51  44  38    70  61  52   108  96  82  
 154 144 132   125 117 103   126 119 102   169 162 138   163 158 129   160 153 124   177 167 139   168 156 128   181 169 142   189 179 154   196 188 165   148 140 119   110 102  81   171 161 140   178 167 145   163 151 127   141 129 105   145 133 110   126 114  92   131 118  96   126 114  92   102  91  69   140 129 107   125 114  94   114 104  84   168 157 137   154 144 124   129 121 100   127 119  98   136 128 107   130 119  99   139 128 108   140 129 109   134 121 102   138 125 106   133 121  99   122 110  88   130 118  95   134 122  98   153 141 117   163 149 123   157 143 117   163 148 124   165 148 130   171 155 142   164 153 141   139 132 123    91  87  77    70  63  51    92  80  64  
 128 118 108   129 119 108   120 112  98   142 136 120   119 113  96   127 117 100   183 171 153   185 172 153   185 172 153   178 165 146   114 103  85   113 106  87   150 143 123   181 171 150   174 164 139   149 137 111   123 111  86   143 132 111   135 124 104   111 101  81   117 106  86   111 103  82   125 117  96   147 139 118   126 118  97   155 147 128   152 144 125    97  89  70    93  85  66   131 123 103   133 123  98   127 116  91   147 135 111   156 144 120   152 140 116   153 141 117   145 133 109   132 120  96   133 119  96   156 141 118   171 156 133   140 125 102   119 104  81   118 101  80   113  97  81   126 117 102   135 129 116   125 121 108   101  96  80   115 107  87  
 136 124 110   145 134 121   132 122 109   139 130 119   126 117 108   132 121 111   156 143 131   179 166 151   183 170 153   137 124 107    96  83  66   152 141 123   193 182 161   184 173 149   176 162 136   118 105  77    99  87  63   111 101  83   125 116 100   115 106  89   110 101  84   113 104  87   106  98  79   129 122 101   138 130 109   148 140 121   138 129 111   108 100  82   113 106  88   110 103  84   144 134 109   150 139 111   161 150 122   148 136 109   141 130 102   150 139 112   146 134 107   142 130 105   146 132 110   135 120  99    96  81  60   107  92  71   111  96  74    71  56  33    56  41  20    91  80  62    92  85  68   115 109  93   121 114  97   127 119 100  
 142 127 106   157 142 123   134 120 102   128 115 104   155 144 135   135 122 112   164 152 139   193 178 165   164 148 134   156 139 123   161 144 128   164 147 129   194 176 155   193 175 153   193 173 149   141 122  98    82  67  49    73  63  50   100  91  81   120 110 100   108  98  88   100  87  77   103  91  77   115 104  87   115 105  86   108  99  81    89  81  64    83  77  62   104  98  85   145 137 124   177 163 144   161 147 121   150 136 108   151 136 105   146 133 100   145 131 100   157 143 115   162 147 124   139 124 104   121 105  89   124 111  94   102  89  71   123 109  89   109  94  71    87  72  49   103  91  69   118 106  87   124 113  96   140 129 112   127 115  99  
 140 124  99   147 131 106   151 136 115   117 104  89   120 108  96   166 154 140   162 150 136   187 173 157   181 164 148   195 179 161   167 150 130   138 120  97   174 155 130   188 168 143   189 168 144   167 145 122    84  69  49    66  57  47    85  77  69    89  80  73   109  98  92    90  77  70    87  75  64    97  87  73    86  77  61    77  70  52    79  73  57    86  81  68   100  96  86   116 109  99   158 145 129   138 123 102   154 140 115   162 148 120   150 137 105   161 148 116   176 162 134   175 161 137   153 137 120    86  70  55   143 130 114   131 118 101   117 104  84   120 106  83   119 104  81   121 106  85   148 133 115   157 144 127   138 124 110   126 112  99  
 134 118  90   129 114  88   159 144 120   162 150 129   111 103  84   129 118  98   153 142 120   192 179 156   177 162 139   184 168 143   182 166 141   131 114  88   137 119  90   196 177 147   192 173 141   179 160 128   135 120  98   110 100  88   101  92  85    62  53  46    58  48  43    69  61  53    90  81  73   109 101  91   103  95  82    82  76  63    84  80  68    86  82  72    92  89  81    92  85  79    91  81  72   109  95  83   157 144 127   168 155 133   165 153 127   176 164 138   169 157 132   175 163 142   165 152 135    93  80  63   119 106  89   138 125 105   139 127 105   135 121 100   128 113  92   122 107  87   152 137 119   153 140 123   112  98  84    87  74  62  
 135 119  93   115 101  75   118 105  80   154 143 118   140 132 107   104  94  69   138 128 102   174 163 137   170 159 131   169 155 128   183 169 140   151 136 106   124 108  76   170 154 121   189 170 137   179 161 128   126 112  87   126 116 102   157 149 139   114 105  98    96  87  82    95  88  82   101  96  90   108 103  95   112 107  97    91  89  77    86  84  73    79  76  68    82  79  73    86  81  77    85  75  73    78  67  62   121 111 100   149 138 123   161 150 132   176 165 145   174 161 142   188 175 157   155 142 125    90  77  60   138 125 106   162 150 127   163 151 127   145 131 109   142 127 108   144 129 110   141 126 110   135 121 107    99  85  74    80  66  55  
 141 124 104   117 102  83    92  78  59   113 102  79   134 127  99   102  95  67   145 138 110   182 174 146   184 174 146   173 162 134   177 166 136   177 163 133   137 123  92   130 115  84   189 174 141   173 157 125   136 123  96   103  92  76   123 114 103    93  85  75    72  66  60    83  78  74    75  72  69    84  84  79   103 104  98    88  89  81    87  88  80    86  86  79    85  84  79    89  86  84    88  78  83    76  66  70    88  78  78   105  95  88   132 122 111   164 155 139   175 163 147   187 175 158   156 145 126    91  80  60   150 138 115   155 143 119   153 141 116   143 129 108   149 133 116   168 152 136   150 134 119   135 119 105    92  75  64   105  88  78  
 156 142 121   150 137 118   109  97  77   127 118  96   143 136 110   115 108  82   128 120  94   166 159 133   193 184 159   200 190 165   183 173 146   187 175 149   184 171 144   125 111  84   174 158 132   207 192 163   162 147 122   124 112  93   115 105  90    92  84  72    34  28  22    51  49  45    62  62  60    72  74  71    83  85  80    64  66  61    67  69  63    79  80  74    77  77  72    72  68  69    74  67  75    75  68  75    78  70  73    94  86  84   126 117 110   153 145 134   163 154 139   169 158 143   162 150 133   129 118  98   160 148 125   149 137 112   145 133 108   141 127 106   153 138 121   155 139 124    99  83  68   109  93  79   111  95  82   101  85  74  
 156 142 115   163 151 125   130 119  94   137 128 106   168 160 141   132 124 105   114 106  87   140 132 113   191 183 164   194 183 165   190 179 161   187 174 156   204 190 171   175 160 139   125 110  88   168 153 132   163 148 126   149 136 113   133 121 103   116 105  93    74  67  60    63  61  57    62  63  61    71  73  72    69  74  70    63  64  61    61  62  57    72  72  67    77  73  70    69  65  65    56  51  58    82  76  85    76  70  74    70  65  64   101  95  89   142 135 125   155 148 135   141 133 116   138 128 110   119 109  89   152 140 118   142 130 106   153 141 117   142 129 109   124 111  94   116 103  86    88  74  59   100  84  69   113  97  82   102  86  73  
 149 137 111   164 153 126   136 126 101   114 105  85   165 156 139   130 121 104   139 130 113   124 115 100   173 164 149   195 186 171   194 182 168   187 175 161   190 178 163   171 158 142   111  96  81   119 103  88   163 147 127   166 150 125   143 129 108   134 122 108    94  85  76    91  89  83    85  87  84    75  77  76    74  79  75    89  91  88    77  77  72    70  68  64    74  71  66    67  63  61    57  55  60    51  48  55    51  48  51    49  45  43    46  41  35    94  90  79   147 140 127   119 112  95   128 121 102   130 119  99   158 147 124   149 137 114   136 124 102   117 104  84    95  82  65    94  81  64   119 106  89   111  97  80    99  83  67   131 116 100  
 130 117  98   138 126 109   132 120 103   112 100  84   130 118 104   138 126 112   153 141 128   143 133 121   147 137 125   166 156 146   160 149 139   159 147 135   124 111  98    85  71  58   151 137 124   163 147 133   155 139 118   172 154 127   180 163 138   151 138 120   100  90  79   101  96  88    91  89  86    70  71  68    58  60  57    95  95  90    96  96  90    84  80  76    66  61  57    55  50  46    47  45  46    49  47  47    49  47  44    50  47  43    50  46  38    55  51  39   107 100  85    99  92  73   114 107  86   116 105  85   133 122 102   108  96  77    97  84  65   110  99  79   111 100  80   111 100  80   126 113  94   123 110  92   117 102  86   127 111  95  
 138 124 106   129 117  99   150 139 121   139 128 110   119 107  91    94  81  66   110  99  83   118 109  93   128 119 104   131 121 109   131 122 109   135 125 110    76  64  50    85  72  58   175 162 146   187 171 156   166 148 125   166 147 116   175 158 130   161 146 124   122 111  97    91  85  76    83  81  76    79  79  74    47  48  43    62  63  57   103 101  94    94  89  82    89  83  75    75  69  63    53  52  47    56  55  50    68  66  60    75  72  64    68  66  55    62  58  43    73  67  50   116 109  90   149 141 120   104  96  75   107  95  76   105  94  76   119 107  91   126 116  98   134 126 105   128 120  99   124 113  93   125 113  93   131 118  99   135 120 101  
 144 132 108   131 119  95   147 137 113   143 131 109   129 117  95   106  94  72    86  74  54   102  91  72   136 127 108   148 140 121   162 151 133   157 145 128   115 102  84   138 124 105   166 151 131   181 164 143   166 148 122   157 138 107   162 145 117   176 161 140   167 155 141   100  90  81    71  66  59    68  65  60    60  58  53    61  61  53    80  77  68   111 106  97   112 104  96   109 102  92    84  82  70    79  77  64    65  62  51    88  84  73   127 123 111   122 116 100   134 129 110   164 158 137   160 152 131   169 161 140   136 125 107   116 104  89   136 124 110   124 114  98   131 123 104   137 128 107   143 132 111   143 131 109   147 135 113   155 143 121  
 156 144 119   130 119  95   129 118  94   153 139 114   163 149 122   146 132 107   122 110  86   126 115  92   139 128 106   151 140 118   157 146 124   153 142 120   142 130 107   135 120  97   132 118  92   190 174 148   180 162 133   162 143 112   164 147 120   167 152 130   166 154 139   114 105  96    65  59  52    76  72  66    91  88  81    97  94  85   108 104  95   134 128 118   112 105  95   120 114 102   125 122 107    94  91  76    86  83  69   117 113 101   153 147 134   119 113  96   142 137 116   145 139 117   130 122 101   168 160 139   158 146 130   122 110  97   124 113 103   103  95  81    96  89  70   102  95  76   124 116  95   140 130 109   148 137 115   152 140 118  
 134 118 101   155 141 122   170 158 137   173 158 133   185 170 141   148 132 106   135 121  94   120 107  82   116 104  80   145 134 112   158 147 125   142 132 107   145 133 108   124 110  83   115  99  73   182 165 137   177 160 130   160 144 114   170 154 128   170 155 134   143 131 116   121 111 101    92  85  76   103  97  89   120 116 107   124 120 111   119 114 104    99  93  83   110 103  94   121 114 104   126 120 103   119 114  96   132 125 110   127 119 106   129 120 107   115 107  91   140 133 113   136 128 106   133 125 103   158 150 129   153 144 127   129 119 108   116 106  97   131 124 111   133 127 111   114 108  92   115 108  89   141 131 112   162 151 131   152 141 121  
 124 108  92   123 108  92   151 137 118   160 144 119   185 168 140   178 162 134   148 133 107   120 105  81   103  90  66   113 101  77   153 143 118   151 140 116   146 133 108   126 110  84   118 103  74   166 149 121   183 167 138   173 159 131   166 151 127   153 140 120    87  75  61    95  87  76   132 125 116   117 112 104    93  89  80    91  87  76    99  95  84    99  95  84   117 113 103   117 110 100   132 125 109   125 118 101   132 125 109   142 135 121   126 118 105   138 131 115   163 156 136   125 117  95   143 136 112   161 153 131   116 107  91   125 115 104   129 119 110   118 112 101   126 123 108   133 129 114   138 132 115   146 139 120   168 158 139   182 171 151  
 135 120 102   127 112  93   119 103  83   123 104  81   135 115  91   182 164 140   155 137 116   117 101  80    96  84  62   101  88  69   134 121 102   150 138 116   160 145 123   150 134 110   121 104  78   152 133 107   196 180 154   184 171 144   169 157 134   111 100  81    65  55  43   131 121 112   112 104  96    92  87  78   106 102  93   114 110  99   109 106  95   128 125 116   116 113 106    88  82  72   114 105  90   141 129 114   136 124 111   147 134 124   134 123 111   135 126 111   144 135 118   122 114  94   153 145 122   173 165 144   131 122 105    97  88  76   113 104  96   107 102  92   104 101  89   113 109  96   116 110  95    99  91  75   110  99  83   141 129 113  
 131 115  92   134 119  97   150 134 113   174 154 134   106  86  62   136 117  93   163 146 124   134 117  96   103  87  66   108  95  76   114 103  85   146 135 117   146 133 115   122 108  87   110  95  70   153 137 111   182 167 141   167 154 128   168 157 133   159 146 127   130 118 102   152 144 129   104  97  84   108 103  92   136 134 122   118 116 104   122 120 111   121 121 113   114 113 107   111 108 102   104  97  87   126 119 107   127 118 109   122 113 104   124 115 106   126 118 107   128 120 104   131 123 105   136 128 108   103  95  76    98  89  74    83  75  64    77  69  61    95  89  83   109 104  98   111 108  98   116 111 100   110 103  90   106  96  84    99  89  77  
 139 122  96   110  94  70   132 115  94   188 170 149   147 127 103   117  97  72   157 138 113   145 128 102   114  99  75   118 106  86   118 109  93   128 119 105   121 113  99   100  90  73   130 119  97   171 159 132   168 153 126   162 145 119   159 142 116   182 166 141   156 142 116   124 113  88   130 122 101   128 123 106   115 116 102   104 106  95   112 113 106    99 100  96    90  90  90    86  86  85    87  89  84   111 112 107   108 108 103    89  88  84    78  75  70    72  67  58    73  66  55    90  82  70   103  95  80    91  84  68   102  94  83    83  74  66    63  55  50    95  86  86    91  85  85    90  84  84    86  81  78    78  72  67   111 104  99   114 107  99  
 158 141 115   136 119  96   112  95  75   145 127 105   180 162 138   167 148 121   151 134 105   146 130 101   122 109  82   105  94  74   106  99  83   106 100  88   106 100  89   106  99  84   116 108  89   146 136 111   181 168 142   160 141 116   150 130 103   182 164 136   152 137 109   121 108  80   123 115  90   125 123 102   113 115 100   104 107  97    89  92  86    94  96  94    82  83  84    55  57  56    62  67  63    54  60  56    73  77  73    71  73  68    48  45  40    56  51  44    88  80  70   107  99  87   125 117 102   114 106  92   102  94  83   106  97  88   100  92  85    92  84  81    84  75  75    68  62  61    65  60  57    71  66  62    89  84  79   107 103  94  
 160 145 120   160 145 123   139 123 103   132 114  91   158 141 115   171 154 126   149 132 102   137 121  92   131 118  93    98  87  66   105  97  85   105  98  89   102  95  87   103  95  86    93  84  70   112 101  80   180 167 142   168 151 126   162 145 118   167 149 122   161 147 117   124 114  87   102  96  73   113 111  92   114 114 101   114 115 108   101 102  98   111 111 110   105 104 105    84  84  82    69  71  66    79  81  74    93  93  87    84  82  76    75  69  61    93  84  75   126 116 105   127 116 103   117 105  89    67  57  40    92  83  69   130 120 109   117 108 100    98  89  83    93  84  79    86  79  73    78  71  64   100  93  85   102  95  86    65  58  47  
 163 148 126   149 134 113   144 129 109   140 124 100   135 118  90   162 145 117   157 142 111   133 119  90   132 121  95   107  99  80    98  92  80   106 100  93   109 104  98   119 112 104   118 110  98   110 101  83   166 153 130   181 165 139   174 157 129   164 148 122   155 141 114   132 121  98    85  78  58    95  92  77   118 119 108   109 112 106   106 107 105   104 103 102    94  93  91    68  67  64    50  50  42    77  76  66    67  64  55    92  86  76   157 149 139   146 136 124   126 114 100   121 110  93   118 107  87    89  78  60   114 102  86   116 106  92    89  79  68    93  83  76    71  62  57    75  66  61    80  73  67    79  72  64    87  80  70   119 112 102  
 175 160 137   133 120  99   136 122 102   149 135 111   144 129 100   135 120  92   131 116  87   134 119  92   129 117  94   117 108  90    98  92  82   105 100  95   114 107 104   116 107 101   129 119 110   122 110  96   148 135 115   176 162 134   164 148 121   160 144 118   156 141 118   136 126 105    96  88  73    75  71  61   101 100  94   100 101  98    80  82  79    60  60  58    51  47  45    41  36  30    67  63  51    65  59  45    73  65  52   128 119 107   176 164 152   157 143 129   150 137 119   137 123 104   144 129 109   139 127 105   117 104  85   102  89  74    75  63  51    61  50  44    64  53  52    67  55  55    61  50  49    57  47  45    74  64  62   152 142 140  
 153 141 119   119 107  85   133 120 100   128 114  89   133 119  92   142 126 100   138 124  97   141 128 103   129 120 100   127 119 103   103  99  89    82  77  71    83  78  74    85  78  72   103  93  83   102  90  76   106  92  73   141 126  99   167 151 124   158 144 118   139 127 105   123 113  97   100  92  81    76  72  66    66  65  63    64  64  64    55  54  54    51  48  46    52  47  43    85  79  71   131 123 110    93  84  67    98  88  71   145 133 117   163 150 134   167 151 135   178 163 143   162 147 125   140 125 102   157 142 119   130 118  96    96  83  66    88  76  62    91  80  72    88  77  74    85  74  72    82  71  68    75  64  60    83  73  69   125 115 113  
 153 138 115   134 119  98   140 125 104   133 118  95   131 117  92   151 137 111   153 138 116   152 138 118   141 131 114   124 115 102    72  68  59    62  59  52    83  79  73    81  74  65    73  64  54    93  81  66   121 107  86   141 127  99   155 141 113   148 133 110   122 110  91   147 136 124   122 115 108    69  65  62    64  61  62    74  74  75    68  68  68    62  60  57    67  61  56   112 103  95   118 106  90    93  80  61   103  90  73   139 126 109   137 121 105   141 126 107   154 138 117   170 155 131   156 142 116   146 131 108   140 128 106   110  98  81   114 102  87   125 113 101   108  96  84   112 101  89   122 110  98   104  91  82   105  94  84   110 100  91  
 162 147 124   155 140 118   148 133 110   136 121 100   144 129 108   155 140 119   136 121 101   131 119 101   118 107  94    82  76  64    68  64  55    72  69  60   103  99  89    98  92  79    75  66  51   113 100  83   162 147 123   158 144 115   160 147 119   150 138 114   120 109  91   115 105  95    85  78  73    66  62  62   105 103 105    96  96  97    65  62  62    64  59  56    87  79  73   103  93  82   117 106  85   119 106  84   106  91  71   119 104  85   113  98  79   118 101  83   126 111  90   160 146 121   168 155 128   147 135 111   152 139 120   120 109  91   113 101  85   130 119 101   125 113  95   117 106  88   126 115  98   122 110  94   122 112  97   119 110  97  
 157 139 114   151 133 109   144 127 103   146 131 111   157 141 125   161 145 129   135 120 105   119 106  94   106  95  85   102  94  84    93  89  78    85  81  69    95  90  76    85  78  60    94  83  63   160 146 122   171 157 129   174 160 131   162 148 121   155 140 117   104  92  75    72  62  52    52  45  42    53  48  51    92  90  95    69  67  69    66  63  62   134 128 123   124 116 108   105  94  80   159 147 125   159 144 121   137 122 102   125 110  91   118 103  85   117 102  83   134 119  97   154 140 117   163 151 127   160 149 127   156 145 125   131 123 104   106  97  80   109 101  83   114 106  85   116 108  87   124 115  95   126 115  97   125 113  97   118 106  90  
 157 140 115   162 145 119   160 142 117   156 138 118   157 141 125   142 126 111   128 112 100   129 115 105   105  94  85    99  90  81    90  85  72    84  81  65    95  91  72   132 125 103   153 142 116   178 163 134   180 165 136   169 155 125   155 141 114   150 135 112   125 113  96    79  69  60    51  44  41    37  31  34    57  55  58    65  63  65    84  80  78   133 126 121   136 126 117   150 138 122   172 157 134   162 148 123   143 128 106   137 122 102   130 115  97   117 102  82   113  99  79   128 116  93   156 144 122   164 154 133   151 143 124   131 122 106   113 104  88   112 103  85   140 132 111   130 122 101   113 105  85   116 107  88   116 104  88   125 113  97  
 162 142 117   171 151 126   169 150 125   159 142 122   145 127 113   115  97  83    92  76  64   114 101  91   121 110 101    93  85  74    71  65  51    85  79  62   129 124 102   171 163 135   173 160 131   175 159 126   167 152 119   164 149 119   149 134 107   138 123  99   129 116 100    78  67  57    31  24  20    23  19  19    44  39  42    75  70  74    81  75  74    90  81  75   115 104  93   170 158 141   156 141 118   146 130 106   135 118  97   137 120 101   144 127 109   137 122 103   127 113  93   123 111  89   134 123 102   148 137 117   136 128 109   121 112  95   120 111  97   116 108  93   144 136 121   139 131 115   115 106  91   103  94  79   100  88  75   105  92  83  
 161 141 117   168 148 123   167 148 122   156 138 116   154 137 120   151 133 119   128 110  99   125 109  99   127 114 102    93  83  71    86  79  63    99  92  72   149 142 116   167 158 128   159 144 111   164 146 110   148 130  97   151 135 104   150 135 108   149 133 110   147 132 116   117 106  94    67  59  54    55  48  47    43  39  40    66  62  61    70  65  61    54  46  38    76  65  52   137 122 104   154 139 114   151 135 109   145 129 105   137 120  99   138 121 102   139 124 105   136 122 102   135 123 101   131 118  98   132 120 101   131 120 102   115 105  89    95  85  72    88  80  65   101  93  78   128 121 105   132 125 109   115 107  91   110 101  88    96  84  72  
 156 138 114   161 143 117   163 146 119   162 145 120   161 143 123   155 136 119   152 135 120   136 119 108   115 102  91   120 111  96   121 115  96   142 135 112   159 150 123   163 149 119   147 131  98   142 122  87   142 121  88   144 126  97   148 132 105   145 129 106   143 128 110   144 132 119   129 120 112   101  96  92    70  65  64    68  64  61    63  57  52    70  59  50    99  87  72   129 114  93   142 125  98   156 137 108   163 145 118   150 133 109   141 123 103   144 127 107   142 125 105   144 129 108   147 132 111   131 117  98   140 127 110   138 124 111    95  82  69    76  67  50    79  74  55   101  96  77   116 109  91   114 106  88   117 108  91   100  91  74  
 164 147 124   160 143 118   161 144 117   163 144 118   164 144 120   160 142 120   157 139 122   132 116 100   127 112  98   155 143 127   146 138 119   156 148 123   151 141 112   151 137 105   151 133 100   146 123  90   147 125  94   146 125  97   154 136 109   153 135 113   143 126 108   128 116 101   128 119 109   110 105  99    60  57  52    41  37  32    73  67  60   129 119 108   150 137 123   147 131 111   137 117  90   151 132 101   162 143 114   152 134 109   139 121  99   137 121  98   139 122 102   144 128 107   146 131 110   139 124 103   142 126 110   139 125 110   107  94  81    83  76  61   102  98  81    94  91  74    91  85  69   103  97  81    99  90  75    87  78  63  
 168 151 131   162 146 122   162 145 118   170 151 122   168 148 118   159 139 114   151 131 111   133 115  99   137 121 106   148 136 120   141 130 109   139 128 105   144 132 104   158 142 112   172 152 119   161 136 106   152 127  97   163 140 114   163 142 118   158 140 118   147 130 110   127 112  98   125 114 104   101  94  87    46  41  35    34  29  22    98  91  82   141 131 118   126 113  98   140 123 104   144 125  95   150 129  98   155 134 106   152 131 106   141 121  97   137 119  97   143 125 103   142 125 103   143 127 104   147 130 109   137 119 104   129 111  98    99  83  72    75  66  55   104 101  92    97  94  85    85  80  71   101  93  84    91  82  73    67  57  48  
 161 144 123   161 145 120   167 150 123   164 147 118   165 149 119   153 135 108   158 140 117   144 128 108   130 116  98   155 144 124   145 134 112   154 144 118   155 144 117   157 143 116   159 139 112   150 129 103   155 134 109   161 142 117   154 136 114   151 134 114   143 127 111   129 118 105   115 107  99    78  74  68    57  54  49    42  39  34    75  69  62   126 118 107   127 115 101   142 127 107   158 141 112   160 140 110   161 141 115   161 141 116   147 129 105   140 123 100   147 130 107   146 129 107   149 133 110   142 125 105   130 115  97   152 136 121   115 100  89    77  70  63    86  84  80    75  74  70    58  55  50    72  67  62    85  79  73    58  49  44  
