P3
50 50
255
 242 236 218   121 112  96    23  14   4    33  22  15    34  22  10    37  21   7   139 123 107   201 185 169   141 126 108    55  38  21    61  44  26    48  31  15    39  21   9    51  33  22    66  48  37    45  27  17    33  15   5    45  25  14    45  26  12    54  36  22    48  31  21    46  32  23    46  32  23    40  26  17    37  23  14    44  30  21    53  39  30    61  47  38    48  31  23    46  29  21    66  49  41    56  39  31    45  29  20    59  42  34    38  21  13    40  23  15    43  30  22    35  24  18    28  18  13    26  19  13    20  15   9    27  22  18    27  22  16    49  41  35    52  41  37    48  34  31    48  35  29    50  37  31    62  50  45    69  60  53  
  98  88  78    75  66  49    39  34  15    34  26  12    41  28  20    29  14   9    52  39  30   130 116 104   161 148 134    67  52  37    43  27  11    51  33  19    39  20   7    50  32  20    65  46  35    53  32  23    36  15   6    42  21  11    51  31  19    55  37  26    41  24  14    40  25  16    46  30  21    41  26  17    41  27  18    48  35  26    45  31  22    45  31  22    42  26  18    39  23  14    51  35  27    45  28  21    42  25  17    62  45  37    45  28  20    46  31  23    37  25  19    33  22  17    32  21  16    34  24  19    27  19  13    28  21  14    43  35  27    53  43  38    30  16  13    37  23  19    42  27  22    32  17  12    40  26  20    57  46  39  
  26  14   9    53  44  30   110 106  73    50  45  14    27  17   7    36  22  20    31  19  14    54  43  34   101  90  79    65  52  40    51  36  22    54  37  22    38  20   6    57  36  24    71  50  39    59  36  28    35  12   5    38  15   9    51  30  23    46  28  20    41  23  15    43  26  16    50  33  23    42  25  15    40  26  17    49  35  26    46  32  23    46  32  23    41  27  18    32  18   9    40  25  18    39  24  17    42  25  18    55  38  31    62  45  38    44  29  23    34  20  16    34  23  19    31  20  14    31  20  13    25  16   8    29  18  10    57  47  38    51  39  32    42  28  22    44  29  24    36  21  16    35  20  15    41  26  19    44  30  22  
  27  12  10    43  33  21   140 136  97   125 121  81    34  24  11    24  12  11    34  24  20    30  21  12    48  39  28    56  46  33    55  41  28    49  33  20    39  20   5    65  43  30    68  46  35    57  32  25    45  22  17    32  10   7    43  23  21    42  23  20    51  32  25    56  38  28    51  33  23    40  23  13    41  27  18    44  30  21    43  29  20    48  34  25    48  34  26    45  30  23    34  19  12    40  25  18    43  25  20    50  32  27    57  39  34    48  31  27    41  27  24    38  27  23    33  20  15    30  18  10    31  19  10    48  34  26    65  54  42    48  35  26    45  30  23    40  25  19    34  19  14    40  25  20    47  31  24    51  35  27  
  27  13   3    21   9   1    73  67  32   181 175 142    69  59  46    27  16  12    29  20  13    35  26  17    33  24  15    39  31  20    45  33  21    41  25  12    40  21   7    61  40  28    63  39  29    59  34  28    52  28  24    30   9   8    41  22  24    47  29  29    55  36  29    59  41  31    49  32  22    38  21  11    38  24  15    42  28  19    42  28  19    44  30  21    48  33  26    52  37  30    38  23  16    41  26  19    40  22  18    47  29  25    48  29  25    41  23  19    38  23  20    41  27  24    37  24  16    43  29  20    48  34  24    67  51  38    64  50  37    41  28  17    44  30  21    43  28  21    30  15  10    34  19  14    49  32  24    47  30  20  
  85  71  44    28  16   1    24  13   1    46  36  24    81  71  62    44  34  27    28  19  10    33  26  16    24  18   7    31  25  13    45  35  23    52  38  25    40  21   7    55  33  22    67  43  33    71  46  41    61  37  35    33  11  13    39  21  24    45  26  28    51  32  27    55  35  28    50  31  24    40  23  15    36  22  13    40  27  17    41  28  19    38  25  16    42  29  21    47  34  27    43  28  21    40  25  18    37  19  15    46  28  24    50  31  27    37  19  15    40  25  22    48  35  29    43  28  19    47  30  20    55  39  24    67  49  35    62  45  30    49  33  20    43  29  20    45  30  23    38  25  20    39  24  19    48  31  23    44  27  17  
 167 154 117    83  70  39    43  32  16    29  16   8    33  23  13    43  34  25    30  23  13    28  22  12    25  21  11    36  29  19    40  30  20    45  31  20    44  24  13    55  31  19    71  44  34    72  46  39    59  35  31    33  13  11    35  19  20    36  20  21    46  27  22    48  28  21    50  31  24    48  29  22    38  24  16    35  21  13    37  24  15    39  26  17    42  29  21    44  30  23    44  30  22    40  25  18    38  20  16    43  25  20    47  28  24    42  24  20    43  28  25    50  35  30    48  31  22    44  26  14    58  40  24    55  37  21    56  39  23    55  39  25    43  29  19    49  35  27    40  27  22    38  25  19    49  34  27    40  23  13  
 198 186 148   188 176 144   129 118  98    46  34  21    30  20   9    34  25  16    32  25  16    28  23  16    21  16   9    37  30  23    45  35  26    42  28  18    46  26  15    57  31  20    67  40  29    63  36  26    55  32  25    38  19  13    36  21  18    33  19  16    42  23  17    45  25  18    50  31  25    50  31  25    38  23  16    30  15   8    35  22  14    46  33  25    46  33  25    42  29  21    44  31  23    43  28  21    44  28  21    39  22  15    38  19  13    42  25  19    45  30  26    45  30  25    46  29  19    48  30  16    69  50  33    54  34  16    53  36  17    55  39  23    42  28  17    49  36  28    29  18  12    32  20  14    46  32  24    69  52  42  
 233 218 197   225 212 194   233 221 204   166 154 140    52  40  30    23  13   4    27  21  12    30  25  18    20  17  10    33  27  21    47  37  30    46  32  23    45  25  15    58  30  20    66  40  27    63  37  24    63  43  30    48  31  22    35  24  15    31  18  11    36  17  11    47  26  21    49  30  24    44  25  19    35  20  12    29  14   7    35  22  14    48  35  27    42  31  22    39  28  20    44  31  23    41  26  20    50  35  28    40  23  16    33  14   8    45  28  21    50  35  30    44  29  22    42  26  14    60  41  26    71  53  34    56  35  15    50  32  12    59  42  26    42  28  17    40  27  18    31  20  14    30  18  12    57  44  36   112  98  88  
 147 132 124   135 120 113   119 107  94   128 116 102    57  47  37    25  16   7    28  24  13    26  22  13    30  25  19    31  26  20    38  29  22    52  39  30    51  33  21    57  34  22    62  38  26    59  35  23    67  48  33    52  36  21    35  21  10    34  20  11    30  11   5    50  29  24    51  32  26    39  22  15    34  19  12    33  19  12    34  21  13    43  32  23    44  34  25    45  32  24    46  33  25    37  22  15    54  37  30    43  26  19    34  15   9    49  33  26    47  30  24    47  31  23    47  29  17    79  60  45    70  52  32    54  33  14    43  24   6    62  45  29    41  27  16    36  23  14    34  24  15    15   4   1   104  91  83   101  87  78  
  29  15   6    18   5   2    20   6   2    18   8   1    27  21   7    26  24   8    34  33  12    21  18   3    39  34  23    43  36  28    31  23  12    44  33  20    48  34  21    60  43  33    46  27  19    56  36  28    60  41  26    38  19   2    50  32  18    64  45  37    38  19  13    33  14  10    51  36  31    39  27  21    24  13   7    32  21  15    30  20  11    39  29  20    50  40  31    49  36  28    43  28  21    39  22  15    43  25  18    43  26  19    40  23  16    47  28  21    50  30  20    51  29  18    65  46  32    77  58  44    60  41  27    43  24  10    48  30  16    63  45  33    47  30  20    40  26  15    29  15   5    53  38  29   100  86  77    56  39  31  
  47  35  25    53  41  31    49  37  27    45  36  23    50  47  29    54  53  32    59  58  34    72  69  48    53  47  33    56  47  37    44  36  23    31  22   8    48  36  23    56  42  31    42  25  18    64  45  38    56  37  22    40  19   3    59  37  24    92  69  61    60  41  37    33  15  13    41  26  22    37  24  19    26  17  10    30  21  14    27  18  10    37  26  18    47  37  28    47  32  25    41  26  19    46  29  22    48  30  24    45  28  21    48  31  24    50  32  24    60  38  27    59  35  24    61  39  26    67  45  32    54  34  23    49  29  18    48  30  18    55  37  25    49  32  22    31  14   4    47  30  20   100  83  73    64  46  38    48  30  22  
  66  57  46    81  72  58    81  72  57    99  93  74   110 107  83   105 102  76   113 110  84   127 123  99    56  51  33    53  46  32    46  38  25    32  22  10    47  36  24    45  31  21    45  28  20    67  48  41    63  44  31    39  17   3    60  37  24    84  61  52    67  48  44    31  15  12    37  23  20    41  28  25    29  20  13    27  18  11    26  17  10    36  26  20    43  33  24    47  32  25    39  24  17    47  30  23    45  26  19    42  23  16    52  35  27    47  29  19    62  40  29    72  48  36    68  46  33    66  44  31    51  31  20    54  34  23    49  31  19    49  31  19    47  30  20    29  12   2    78  61  51    92  75  65    36  17  10    57  38  31  
  34  28  16    78  73  55    81  76  52    87  83  53   110 106  73    97  92  59   111 105  77   143 138 112    73  67  45    39  32  14    44  37  21    42  32  20    48  38  28    32  19  10    40  25  16    59  40  31    55  35  25    41  19   7    66  42  30    71  49  38    58  39  35    30  14  13    37  23  21    41  30  28    30  22  16    27  19  13    27  19  11    34  25  18    40  30  21    48  33  26    38  24  15    40  23  15    36  18   8    40  21  12    56  39  30    47  29  19    50  29  18    70  46  34    73  51  38    65  43  30    47  27  16    54  34  23    51  33  21    46  27  16    54  37  27    44  27  17    90  73  63    54  38  28    36  17  10    61  41  35  
  21  15   2    65  60  40    95  95  60    94  93  50   112 105  64   123 114  78   120 111  81   160 153 126   113 106  79    22  16   1    40  33  15    56  48  37    48  38  29    34  21  12    47  33  22    77  60  50    45  25  18    55  31  25    68  44  32    52  30  19    52  34  30    33  18  17    31  20  18    34  24  22    30  23  17    29  23  17    27  20  12    29  20  13    38  28  19    47  34  26    40  26  17    36  19  11    36  18   8    45  27  17    62  44  34    57  39  27    43  21   8    59  35  23    69  47  34    58  35  23    44  24  13    54  34  23    60  42  30    48  29  18    57  40  30    83  66  56    83  66  56    40  23  13    34  15   8    55  35  28  
  23  18   1    25  20   1    93  94  50    89  88  33   105  96  49   151 139  99   143 131  99   155 143 115   150 143 111    63  57  28    36  29  11    43  35  24    45  34  28    28  15   7    52  38  27    95  77  67    50  29  26    74  49  45    81  57  47    46  23  15    49  32  29    37  23  23    30  19  17    29  19  17    31  23  20    27  22  19    23  17  11    28  19  14    34  24  18    41  28  20    40  26  17    38  21  13    41  23  13    47  29  19    54  38  25    62  44  32    48  30  15    56  34  21    75  53  40    60  38  25    45  25  14    50  30  19    67  49  37    52  34  22    51  33  23   113  95  85    75  57  47    38  20  10    31  12   5    53  34  27  
  34  28  16    10   5   1    68  67  22   136 134  80    95  85  35   147 134  90   162 147 114   143 128 100   149 140 105   105  98  68    44  35  18    49  41  29    71  60  53    35  22  14    54  40  27    82  64  54    44  23  20    73  48  48    87  62  55    45  22  14    42  27  24    35  23  22    32  22  20    29  21  18    27  22  18    25  20  17    20  15  10    27  19  14    30  21  15    35  22  16    39  24  17    40  22  15    47  29  19    45  27  17    43  26  13    58  40  28    57  38  23    61  39  26    84  62  49    60  39  26    46  27  16    42  23  11    67  49  37    48  30  18    54  36  26   112  94  84    63  45  35    39  21  11    39  20  13    48  29  22  
 147 137 112    36  26  12    36  31   1   172 166 124   153 140  95   140 125  83   186 171 138   198 183 154   202 191 156   192 182 152    89  79  60    37  26  13    74  64  54    46  33  24    51  37  24    70  53  43    38  18  17    77  54  54    82  58  51    45  24  16    42  28  25    29  18  16    29  20  18    23  16  14    18  13  10    26  21  18    25  21  16    24  16  13    28  19  14    33  20  15    43  28  22    43  26  18    55  36  28    47  29  19    41  23  11    57  39  27    59  40  26    67  45  32    83  64  50    60  41  27    48  30  18    41  23  11    60  42  30    43  25  13    65  47  37   108  90  80    49  31  21    50  32  22    34  15   8    46  27  20  
 215 201 178   115 103  85    18   7   1   161 150 124   226 212 176   153 137 100   157 142 110   161 146 117   209 195 164   240 229 200   116 104  84    24  11   2    64  53  42    54  40  30    40  26  15    61  46  37    38  20  17    72  52  51    75  55  49    50  32  25    38  26  22    30  20  19    25  16  14    20  15  11    16  12   9    21  16  13    25  22  18    23  17  13    26  17  12    32  18  16    41  26  21    45  28  21    47  28  21    47  28  20    42  24  13    51  33  21    48  29  15    67  47  33    78  59  45    72  53  39    49  31  19    47  29  17    48  30  18    45  27  15    86  67  57   102  84  74    44  26  16    53  35  25    33  14   7    51  31  24  
 217 203 177   173 158 141    25  11   3    62  48  36   254 240 214   199 184 152    57  42  13   108  92  66   133 119  92   170 155 132   152 137 116    54  41  25    53  39  26    53  39  28    40  26  15    52  38  29    45  30  25    59  44  39    73  58  52    48  35  29    32  21  17    31  23  20    19  14  10    21  18  13    19  18  14    18  17  13    27  23  20    20  15  12    22  12  10    29  15  12    37  22  17    47  29  24    41  22  16    48  29  22    45  27  17    45  27  17    43  24  10    65  46  32    78  59  45    62  43  29    52  34  22    43  25  13    46  28  16    56  38  26   110  92  82    81  63  53    41  23  13    48  30  20    39  19  12    41  21  14  
 222 208 182   198 183 163    54  39  32    17   2   1   139 124 106   164 148 124    96  80  55   141 125 100   184 167 147   180 163 145   240 223 203   142 127 108    40  24   8    49  33  20    41  27  18    52  37  30    40  28  19    44  31  23    62  48  45    38  27  23    32  23  18    33  26  20    20  15   9    19  17  11    20  20  15    20  19  14    27  24  21    24  19  16    22  14  11    28  17  15    36  21  18    49  31  27    43  24  18    51  32  25    52  34  24    46  28  18    45  26  12    74  55  40    83  64  50    55  36  22    52  34  22    42  24  12    44  26  14    71  53  41   111  93  83    52  34  24    37  19   9    58  40  30    52  32  25    40  20  13  
 229 215 188   192 177 153    76  62  49    16   1   1    44  30  15   138 123 105   171 156 134   150 134 112   207 190 174   195 177 162   187 169 149   141 124 104    44  28   9    56  40  25    35  21  12    48  35  27    37  27  16    44  34  25    41  32  28    23  14  12    26  20  14    32  27  20    29  26  19    26  26  18    26  27  21    25  23  18    21  20  16    24  19  16    27  19  16    28  17  16    34  19  15    45  27  25    47  28  22    48  29  23    51  32  25    41  23  13    53  33  22    79  60  46    69  50  36    57  38  24    58  41  28    58  40  28    36  18   6    74  56  44   113  95  85    41  23  13    36  18   8    64  46  36    50  30  23    38  18  12  
 207 193 164   200 187 160    99  87  66    22  11   1    36  23  10    76  62  46   119 105  84   161 145 123    97  80  65   148 129 115   191 174 155   115  98  78    50  33  14    70  54  39    48  34  25    40  27  20    39  29  18    32  24  14    25  16  14    23  15  13    25  19  12    36  30  22    42  39  31    34  31  24    30  29  22    26  24  19    19  16  12    30  23  20    35  26  24    33  22  20    33  19  16    41  25  21    51  32  27    44  26  19    47  28  21    37  19   9    51  31  20    77  58  44    66  47  33    64  45  31    68  49  38    62  43  31    34  15   4    89  70  58   111  92  82    36  18   8    46  28  18    60  42  32    50  30  23    33  13   6  
 161 148 124   180 168 147   104  97  75    22  16   1    28  20   3    54  45  27    83  72  48   171 159 135    97  81  61   112  95  78   165 149 133   107  91  74    45  31  14    73  60  45    63  51  38    31  18   9    30  20  11    26  15   8    26  13  11    34  22  19    38  29  20    34  25  16    54  45  36    47  38  32    31  22  16    32  24  19    29  20  16    36  26  22    38  29  25    31  22  18    38  27  23    39  27  21    37  23  17    44  28  23    50  33  25    36  18  10    46  26  15    83  62  49    65  43  32    55  34  22    80  59  47    68  47  36    33  11   2    97  75  66   103  80  72    35  16   7    50  31  23    58  39  31    44  25  18    42  22  15  
  91  79  57   179 170 153   124 119 100    25  19   4    36  30  13    33  26   8    75  67  46    93  82  60   106  93  74   129 112  97   129 115 101    82  68  57    27  15   2    47  34  24    42  32  22    27  17   8    27  16  10    33  19  16    38  24  21    39  25  20    41  28  20    42  29  20    48  33  26    56  41  34    34  20  15    35  20  15    33  20  14    34  23  17    35  26  21    28  19  14    37  28  21    39  30  23    32  21  14    38  25  19    43  28  21    37  20  12    53  33  22    88  66  53    62  42  31    47  25  14    79  57  46    66  45  33    38  15   7   116  93  85   107  84  76    35  15   6    40  20  13    53  33  26    49  30  23    49  31  24  
 104  95  64    40  32  10    34  25  17    38  30  25    43  36  29    34  28  18    92  84  72    66  57  43    97  85  74   177 164 155   155 142 136    50  36  33    21   8   7    24  12  13    23  13  12    28  17  17    31  20  18    40  26  25    54  41  35    46  33  25    41  28  19    53  40  31    42  27  20    50  35  28    47  32  27    32  17  12    34  20  17    30  19  15    34  25  20    25  18  12    27  20  14    35  26  21    36  25  21    34  20  17    35  20  15    35  19  12    50  32  20    80  62  48    60  42  28    46  27  13    73  53  42    66  46  35    42  23  12   127 108  96   106  86  77    34  16   6    33  15   5    45  29  19    54  38  30    38  25  16  
 162 154 116   106  96  70    33  22  17    30  21  19    54  49  46    30  25  23    34  28  21    40  32  24    19  10   1    37  27  18    75  65  57    30  19  15    27  15  14    30  18  22    36  24  28    36  25  29    43  32  32    36  25  23    55  43  36    46  34  25    44  31  22    51  38  29    47  32  25    40  25  18    61  46  41    39  24  19    33  19  16    26  15  11    33  23  19    26  19  14    17  10   5    25  18  12    33  24  20    32  21  18    33  20  17    33  18  12    48  33  21    81  64  50    51  36  21    40  22   8    53  36  23    66  49  36    41  23  11   110  92  80    85  68  57    33  17   6    37  21  11    40  27  16    50  37  27    25  13   4  
 107  99  60   150 141 112    91  79  63    20  11   4    27  21  21    29  26  27    21  17  14    19  15   8    22  18   2    20  14   1    63  57  36    68  60  42    40  30  19    42  31  28    54  42  43    43  30  32    48  36  35    32  21  16    47  37  28    46  36  26    45  32  23    48  35  26    50  35  28    40  25  18    58  43  38    55  40  35    28  15  12    23  13  10    28  19  16    31  23  20    17  12   8    19  13   9    25  18  15    27  18  15    35  24  22    36  24  18    64  51  40    96  82  66    53  40  24    44  30  14    44  28  13    72  56  41    56  40  27   103  87  74    69  54  41    36  22   9    42  29  17    43  31  19    48  37  25    24  14   2  
 107  99  72   109  99  76    60  48  31    29  17   7    28  23  21    24  21  21    29  25  20    46  44  29    52  50  23    70  68  32    83  80  36    91  88  46    64  57  27    47  37  17    58  46  37    49  35  30    39  27  21    34  22  14    45  33  25    52  40  32    45  33  24    49  35  27    52  37  30    43  28  20    44  29  24    61  46  41    28  17  13    24  14  12    26  18  15    31  25  22    18  14  10    19  14  11    19  14  11    21  13  11    34  24  23    33  22  17    67  55  41    91  79  62    53  38  22    51  36  20    42  26  11    65  49  34    76  60  47   115  99  86    65  51  38    40  26  13    42  30  18    48  36  24    46  36  24    25  15   4  
  69  59  48    30  18   6    26  12   1    31  19   7    26  20  12    26  22  16    28  26  14    72  72  49    85  85  44   102 103  47   117 117  53    93  92  29    81  75  26    44  34   1    56  43  25    66  49  40    39  23  13    43  29  20    40  25  18    45  32  24    45  32  23    47  34  26    55  40  33    38  23  17    35  20  15    51  36  33    33  22  20    22  12  10    32  24  22    29  24  21    14  10   7    20  16  13    22  17  14    22  14  12    32  24  22    25  15  10    75  61  48    87  71  55    50  34  19    50  34  19    38  22   7    48  31  16    93  78  64   139 123 110    61  45  33    35  21   8    38  25  13    52  40  28    47  35  23    26  16   4  
  31  22  20    28  15   9    34  19  14    36  21  14    59  52  36    86  83  63     6   3   1    80  79  49   132 134  86   122 124  61   148 150  75   200 197 126   143 136  82    63  49  12    75  59  36    65  47  33    42  24  12    43  26  16    35  20  11    39  24  17    39  26  18    38  24  17    47  32  25    36  21  16    29  14   9    47  32  29    42  32  29    20  10   8    31  23  20    31  26  22    21  17  14    23  19  16    22  17  13    24  16  13    40  32  29    32  20  14    79  65  54   100  82  68    44  26  12    55  37  23    37  19   5    40  21   7   108  90  78   131 113 101    52  34  22    42  25  13    39  22  12    61  47  36    51  37  26    27  14   3  
  37  31  22    53  45  31    30  15  11    59  44  37   156 150 123   148 144 112    24  20   1    53  51  27   166 167 123   152 153  96   142 143  74   172 168 103   116 105  57    75  59  28    98  79  61    54  34  24    53  34  23    42  25  15    40  26  17    46  32  25    36  23  15    38  25  17    39  24  19    34  19  14    32  17  14    42  27  24    42  31  28    24  14  13    26  18  15    33  27  23    22  18  15    24  19  15    25  20  16    28  20  16    37  27  24    30  17  11   100  83  73    98  80  66    43  25  11    57  38  25    49  30  17    40  19   8   106  85  74   118  97  87    44  26  15    50  31  22    36  19   9    60  43  33    52  37  27    27  12   2  
 120 118  84   113 109  80    35  24  13    33  23  18   120 115  78   180 176 136    50  46  20    11   7   1    95  94  61   175 175 131   167 166 111   149 143  91    76  62  27    51  33  12   109  87  78    74  51  46    42  22  14    48  31  21    40  27  18    46  34  26    44  31  23    52  39  31    37  22  17    35  20  15    41  26  23    46  31  28    51  39  37    35  24  22    23  14  12    37  29  26    24  19  15    26  20  15    33  27  21    38  30  24    39  29  23    39  25  18   122 105  95    90  70  58    44  24  13    55  35  24    49  28  17    41  19   8   114  91  82   105  82  74    47  27  18    51  31  22    38  19  11    58  39  32    59  42  34    33  16   8  
 145 147 100   145 143 102    42  35  14    50  42  26    48  44   9   108 104  60    68  64  42    11   7   1    33  32  15   152 152 121   194 192 149   157 152 108    90  77  49    41  22   7    65  41  36    94  70  67    71  53  44    38  23  12    35  24  15    38  28  21    44  32  25    60  47  41    37  22  17    33  18  13    44  29  25    47  32  29    53  39  37    30  19  16    24  15  11    39  32  27    28  22  17    33  26  18    41  32  26    45  35  29    42  30  22    52  37  30   113  95  85    77  57  46    48  28  17    51  31  22    50  29  20    55  34  24   117  96  87    90  69  60    64  44  36    43  23  15    39  20  13    47  28  21    52  35  28    33  16   9  
 129 131  84   155 156 114    30  26   1   108 103  75   170 166 121    42  37   2    15   9   5    36  33  28    47  47  35    67  68  46   122 123  83   171 168 126   121 110  82    58  41  25    45  25  17    63  43  36   115  99  86    52  40  28    27  18   8    43  36  30    41  30  24    63  50  44    42  27  22    37  22  17    47  32  29    50  35  32    51  37  34    24  13   9    29  19  14    39  32  26    33  26  18    44  35  28    47  37  28    46  33  25    40  25  18    63  46  38   109  91  81    56  36  25    58  38  29    59  39  30    32  12   3    73  53  44   128 108  99    64  44  37    68  48  41    39  20  13    41  22  15    44  27  19    45  28  21    28  13   6  
  75  76  46    56  55  25    10   8   1    83  79  53   169 165 120   160 157 116    59  55  44    29  25  24    32  33  25    19  23   2    90  92  53   118 117  72   101  91  57    50  34  11    70  51  36    38  20   6    81  67  51    96  87  72    27  20  12    32  24  21    37  26  22    55  42  36    42  27  24    37  22  19    41  26  22    45  30  27    48  34  31    28  17  13    33  24  17    35  27  20    32  24  15    49  40  31    45  34  24    41  27  19    41  26  17    78  61  51   102  85  75    43  25  15    57  39  29    56  38  28    21   3   1    92  74  64   122 103  97    43  24  17    60  41  34    51  34  26    32  15   8    49  34  27    47  32  25    27  14   6  
  95  98  76    33  36  16    14  13   1    79  78  57   105 108  64   131 135  92    70  71  51    11  12   3    39  41  31    17  19  10    77  77  48   204 199 166   136 124  97    53  36  16    68  48  36    49  28  19    36  18   6   101  87  77    73  61  54    40  29  24    39  27  21    53  41  33    42  30  23    37  26  17    39  24  17    45  30  24    54  39  33    39  25  22    34  26  21    32  23  19    27  18  13    48  35  31    46  28  23    47  25  19    51  30  20    96  76  66    83  66  56    46  30  20    47  30  20    46  27  18    40  22  12   119  98  90    94  73  66    44  23  16    61  41  34    68  48  42    29  11   6    50  34  27    47  32  23    30  16   8  
  92  99  72    54  58  41    10  11   2    47  50  33   104 111  70   145 154 107    63  71  37    11  16   1   154 157 137   126 124 106    20  15   1   141 131 112   184 168 151    67  48  36    68  44  39    58  34  31    40  18  14    50  30  26   101  82  75    82  66  57    39  26  17    48  38  28    42  34  21    36  29  14    40  26  14    48  31  22    56  39  32    31  17  14    30  22  20    31  24  23    23  14  12    45  29  29    50  25  24    52  24  20    61  33  25    98  74  64    84  67  59    45  31  23    46  29  21    49  30  23    56  36  27   131 108 100    73  50  42    46  22  14    54  30  22    65  42  35    59  39  30    58  40  31    54  37  27    35  21  11  
 122 132  93    72  79  49     6   9   1    58  61  39   103 109  69   118 122  80    84  87  53    12  13   1   142 141 121   213 209 190    90  83  64    35  23   9    58  42  37    60  41  28    75  52  45    62  38  34    38  16  12    49  30  25    64  46  37    90  74  64    71  55  46    45  32  23    38  29  14    52  41  26    49  33  20    46  28  18    52  34  27    35  21  16    34  29  25    32  27  25    18  12   9    40  28  25    43  20  16    47  21  15    80  56  45    86  65  52    62  45  37    47  32  25    49  32  24    37  18  11    70  50  41   117  94  86    56  33  25    50  27  19    56  33  25    50  29  20    71  51  42    67  49  39    54  37  28    34  20  10  
 140 150 107    49  55  17    13  16   1   124 125  95   137 136  98   132 130  94   104 101  73    12   8   1   146 140 122   251 246 229   201 190 172    47  32  13    39  22   6    73  54  39    67  45  34    64  43  37    36  17  10    54  37  29    42  28  15    39  24  12    84  67  57    72  53  46    26  14   1    58  44  31    62  44  32    49  29  18    53  34  27    42  27  21    41  36  31    31  30  25    17  14   9    29  21  15    44  26  19    56  35  25    90  73  57    71  55  39    44  27  17    46  29  22    50  33  25    29  10   3    85  66  57   111  91  82    35  14   6    56  36  27    62  42  33    41  23  13    51  33  23    64  47  37    48  34  25    41  27  18  
  98 103  66    15  18   1    32  33   1   131 128  94   140 134 101   150 141 113   103  95  74    16   7   2   127 118 103   216 204 190   227 214 195   110  95  73    95  78  58    93  74  57    53  35  20    61  41  32    39  20  13    46  30  21    50  38  24    22   9   1    51  33  23    98  78  71    58  44  31    50  33  20    73  54  40    57  37  25    46  28  18    43  30  21    38  35  26    19  21  13    17  18  10    29  25  15    51  39  29    53  37  22    57  45  25    46  33  14    48  31  21    48  29  22    41  22  15    41  22  15   113  95  85    83  65  55    33  15   5    57  39  29    59  42  32    39  22  12    31  14   4    53  38  28    56  42  33    41  27  18  
  91  94  55    20  20   1    35  33   6   105 101  75   161 154 129   177 167 146   156 144 129    39  27  16    68  59  48   205 196 183   195 182 163   105  91  70    36  21   1    64  46  26    61  42  27    68  50  38    48  31  21    38  24  13    62  50  36    48  36  22    47  29  19    66  46  39    78  62  49    57  41  28    66  47  33    54  32  19    50  32  20    55  42  32    47  45  35    17  20  10    17  18   9    23  21   9    42  33  19    46  35  18    49  41  17    61  50  30    57  40  27    52  33  25    37  19  11    68  49  41   123 106  96    44  27  17    40  24  13    53  37  26    57  43  32    39  25  14    31  17   7    37  23  14    56  42  33    40  25  17  
 116 118  74    11  11   1    48  44  26   103  96  83   181 174 156   202 195 177   118 110  99    34  26  17    64  56  47   189 184 173   188 178 160   152 140 118    51  37  16    52  36  16    66  50  34    77  60  48    57  40  31    31  17   7    52  40  27    61  49  36    65  47  38    54  35  28    48  33  21    61  46  33    72  54  39    60  40  26    44  26  13    56  44  32    45  43  31    20  22  11    17  19   7    20  18   5    35  27  12    60  49  31    72  63  38    73  61  39    51  33  19    52  32  23    46  28  18    86  68  58    98  81  71    39  22  12    39  26  13    52  39  25    55  43  31    36  24  12    35  22  13    32  19  10    47  32  24    56  41  34  
 105 105  67    16  15   1    48  42  24    96  89  77    96  92  75    92  88  74    67  65  55    50  48  40    63  58  51    75  70  59    70  64  45    90  83  59    57  47  22    47  34  12    66  50  35    76  60  49    60  44  36    23   8   3    49  35  25    40  26  16    55  40  31    81  65  57    51  40  28    55  42  28    76  60  44   101  83  69    70  52  38    52  38  27    45  42  30    16  17   5    19  20   8    23  20   7    40  29  15    64  49  33    70  59  36    49  35  13    43  25  11    52  30  22    64  44  33    96  78  66    58  42  30    44  28  16    36  23  10    47  35  21    57  45  33    30  18   6    29  16   7    36  23  14    39  24  17    49  34  27  
  56  56  22    12  10   1    59  54  34   122 119 102    92  93  75    69  71  57    61  63  52    21  21  13    39  40  32   101 100  89   102  99  80    63  58  35    48  40  17    53  42  22    38  24  11    61  44  35    63  46  39    24   7   3    48  33  26    49  35  26    49  34  27    47  33  25    53  45  32    67  58  43    57  41  26    89  71  57   135 117 105    59  45  34    31  27  15    18  16   4    16  15   3    31  23  13    46  33  19    73  55  41    65  50  29    37  22   3    47  28  14    48  25  16   101  81  70   112  93  81    37  19   7    40  24  11    39  25  12    44  32  18    62  50  39    46  34  22    28  15   6    32  19  10    41  26  19    42  27  22  
  86  87  49    26  25   1    33  31   6   105 104  83    78  82  59    67  72  52    72  76  62    24  27  16     4   8   1    42  44  31    72  71  51    84  82  59    97  91  67   110 100  80    83  68  56    73  56  49    52  33  29    36  17  13    49  32  25    57  44  35    45  32  24    34  24  15    48  40  27    76  67  53    66  50  35    28  10   2    95  75  64   125 108 100    32  25  15    19  15   7    16  12   3    29  18  12    39  21  12    66  46  35    57  40  22    55  38  20    52  33  19    48  28  17   126 106  95    83  63  52    34  16   4    45  28  15    47  30  18    50  35  22    61  47  36    49  34  24    32  18   9    38  23  15    38  25  17    36  23  17  
 106 108  67    39  38   7    18  16   1    97  97  76    93  97  71    88  93  68    76  81  62    28  32  16    17  23   8    47  51  35    59  61  40    85  84  60    70  64  40    55  44  28    92  78  65   120 103  96    94  76  71    63  44  40    38  21  13    42  27  18    43  29  23    36  24  18    31  23  12    53  43  31    83  66  53    58  38  27    52  31  22   144 127 119    66  58  51    17  12   6    19  14   9    26  15  12    55  36  31   104  84  76    60  42  29    47  29  14    42  24  10    84  65  53   128 109  97    39  19   8    47  27  16    50  32  20    43  24  12    56  37  25    66  48  38    38  20  13    39  24  15    42  27  20    29  16  10    32  19  13  
 143 145 107    62  62  33     4   4   1    80  81  62   112 114  84   110 113  80    84  88  62    28  31  10    22  25   6    60  63  43    75  76  53   110 108  83    88  82  58    33  22   9    36  23   8    66  49  40    79  62  55    62  45  39    59  42  33    68  51  43    51  35  30    41  27  21    39  28  19    32  19   9    47  28  17    69  47  37    63  40  33   129 111 105    87  79  73    20  16  12    25  20  16    15   5   4    55  37  34   156 137 131    70  53  42    38  21   7    47  30  16   124 106  92   109  90  76    38  19   5    46  26  12    50  30  16    38  17   6    56  35  24    73  52  43    44  25  18    45  27  19    36  20  13    30  16  11    32  19  14  
 121 123  98    70  71  50     9  10   1    87  89  69   127 127  92   122 120  83    83  84  53    28  28   3    30  30   9    73  72  51    70  68  44    86  83  57    85  78  53    52  41  21    46  34  17    71  54  44    81  64  56    34  17   9    37  22  10    74  58  48    62  44  40    60  42  38    63  49  41    61  45  36    60  37  29    42  17  10    33  11   9   134 115 110   110 100  97    23  19  16    25  20  17    12   3   2    86  69  68   182 164 161    62  48  39    27  13   2    78  62  49   133 115 101    65  46  32    50  31  17    43  21   8    48  24  12    41  18   7    54  31  21    69  44  37    57  35  28    45  26  19    37  20  13    36  21  16    33  19  16  
  15  14   8    23  24   9    13  14   1    43  42  24    97  96  65    96  93  60    94  93  65    45  43  22    19  16   1    84  81  64    91  89  65    59  55  28    59  52  24    40  30   6    54  41  24    70  56  43    81  65  52    50  34  21    35  19   6    67  50  40    59  40  34    34  15  11    47  30  22    72  54  44    72  49  39    55  30  22    28   5   1   148 129 123   141 130 125    20  13   8    20  13  10    11   1   1   119 104 101   149 131 127    35  21  12    34  20   9   101  86  73   125 108  94    39  23   8    62  43  29    60  38  25    40  16   4    40  13   4    54  27  18    69  44  37    62  37  32    45  25  18    47  28  24    30  15  10    30  16  13  
