P3
50 50
255
  40  30  18    53  44  32    60  52  42    42  33  26    29  18  13    50  36  33    58  42  39    52  35  29    40  21  14    45  28  20    56  41  34    43  31  24    33  23  15    51  38  29    61  47  36    54  40  29    52  38  27    51  37  28    52  38  30    55  42  34    40  29  24    39  28  23    42  34  29    33  26  22    41  36  32    38  33  29    41  35  28    59  52  42    73  66  57    69  62  55    51  41  39    32  22  19    26  17  10    32  25  12    42  36  20    39  33  17    37  31  16    46  42  29    43  40  30    45  42  37    34  33  31    18  16  16    27  25  22    47  40  37    34  25  20    42  30  24    48  34  28    48  33  25    41  27  18    45  31  22  
  41  31  19    42  34  22    52  44  34    37  28  22    25  15  12    59  45  42    74  59  56    66  50  46    59  41  35    60  43  35    53  37  29    48  34  27    50  39  30    56  44  35    60  47  38    58  45  35    64  50  41    58  44  35    46  33  24    39  29  19    39  30  20    39  31  22    32  25  15    36  31  22    52  48  39    34  29  23    27  20  11    45  38  28    46  39  31    54  47  39    65  58  52    62  55  49    54  47  40    44  37  27    59  53  39    62  56  42    75  69  53    68  62  47    50  44  32    49  44  35    41  40  35    22  21  17    31  29  25    70  65  61    56  50  44    43  34  26    35  24  15    36  23  14    30  17   8    83  70  61  
  39  26  18    50  40  30    41  31  23    45  34  33    23  11  13    43  30  28    64  49  49    56  39  40    51  34  29    51  34  24    40  23  16    37  20  13    53  37  30    44  30  24    25  14   8    33  20  14    44  31  25    61  46  40    51  38  29    36  26  14    42  35  19    32  27   8    27  23   5    38  33  16    33  27  13    57  51  39    39  32  22    39  33  24    59  55  46    55  51  42    28  23  17    38  33  29    47  42  38    49  44  40    61  55  49    99  90  81   145 134 123    99  86  71    85  72  53   123 114  96    57  53  42    20  17   8    24  21  12    51  47  38    79  72  64    41  34  24    26  18   8    29  20   9    22  12   3   137 125 113  
  44  34  25    43  33  23    39  28  20    38  27  26    31  19  23    33  22  20    51  37  37    41  27  28    37  23  16    50  36  26    62  45  38    54  37  30    57  41  33    52  40  33    16   6   3    25  14   8    46  33  27    43  30  23    33  22  11    51  44  28    51  46  27    48  44  23    58  56  34    60  56  36    43  37  21    62  54  42   122 114 103    43  38  28    36  33  24    44  42  32    45  42  35    20  17  10    17  13   9    29  24  22    55  47  45    64  55  50   111  99  89    96  81  65   118 103  81   172 160 138    80  75  61    31  29  17    30  28  16    46  42  31    33  29  18    43  36  26   107  99  89    65  57  46    20  11   5   109  99  88  
  40  30  20    34  26  15    34  26  17    30  20  19    30  20  21    39  30  25    39  27  25    36  24  23    58  48  40    72  63  49    56  46  37    62  52  42    55  44  32    31  22  11    93  84  77   164 153 147    80  67  59    88  75  67   104  93  82   184 175 160   130 123 105   131 127 106    69  67  45    87  83  63   102  96  80    31  23  11   109 100  91    58  53  47    23  20  13    41  38  29    35  32  23    35  33  26    28  25  20    33  29  25    32  25  22    40  30  25    65  55  44    59  46  31    75  60  40   197 184 165   126 120 107    35  31  20    33  29  18    25  19   9    65  59  49   155 148 138   144 136 126   101  92  83    65  57  46    42  34  23  
  97  89  76    64  58  42   129 122 108    46  39  33    25  17  15    40  33  25    40  32  26    39  32  27    65  58  47    64  59  41    29  23   9    30  24  11    36  30  14    45  39  26   204 197 186   208 199 188    78  68  58   114 104  93   198 189 175   174 167 149    85  80  60    89  85  64    81  79  57   122 118  99   193 185 172    62  52  42    59  51  41   107 101  92    42  39  30    45  42  33    43  40  31    55  52  44    42  39  33    39  34  31    36  31  28    49  42  36    64  55  45    44  33  19    38  25   7    98  87  69   104  96  84    45  41  30    33  27  17    13   7   4    40  33  24   204 197 187   131 123 114    79  70  61    61  52  42    43  35  24  
 159 152 134    96  91  72   145 139 124    58  50  45    36  31  27    45  41  30    32  27  18    40  35  28    50  49  33    35  34  14    52  53  37    50  51  35    36  36  18    75  72  55   113 107  93    30  24  10    35  27  14    78  68  56   164 155 140   174 167 149    55  50  30    56  52  32   155 153 133   193 188 171   247 239 225   141 131 121    41  31  22    84  76  67    42  37  26    29  25  14    60  57  48    53  50  44    34  31  26    25  21  18    31  26  22    25  17  12    57  49  41    78  69  56    67  59  41    13   5   3    59  51  40    85  76  67    67  59  49    31  24  15     7   1   1    90  83  75   121 114 105   110 103  93    60  53  42    85  77  66  
 145 139 120   113 109  88    81  79  60    29  26  16    45  40  34    67  65  52    29  27  15    42  40  30    55  57  39    57  61  36    67  70  49    49  54  34    69  73  52    97  97  77    14  11   8    57  54  37   101  95  79    74  66  50    79  71  54   205 198 180    97  92  72   127 123 103   176 174 154   152 147 130   221 213 202   202 192 183    50  41  35    21  14   9    62  57  47    39  35  24    32  29  20    61  58  50    41  38  32    17  13   9    27  23  20    33  28  24    45  39  29    69  62  50    53  45  29    51  44  28    33  25  14    45  36  27    95  86  77   108 100  92    55  48  40    35  28  20   107 100  91   125 118 108    69  62  51   229 223 211  
 135 128 109   185 180 158   203 198 179    70  63  52    28  21  13    64  61  46    32  30  16    36  35  22    67  71  50    76  82  56    55  60  38    42  50  27    66  72  49    33  36  19    36  36  15   183 180 161   130 124 106    81  74  56    78  71  53    71  64  46    63  58  38    89  86  66   133 129 111   110 102  89   160 150 140   178 165 157    70  60  53    34  26  17    94  89  78    80  76  65    18  14   4    58  55  46    50  47  41    23  19  15    28  24  21    44  41  36    32  27  19    45  40  29    64  58  43    49  42  26    44  34  24    37  27  18    63  53  44    92  83  75    68  59  52    68  61  55    57  50  43    64  57  49    60  55  45   193 186 176  
 154 147 128   174 169 147   231 226 205   108 102  89    22  14   5    70  67  50    40  38  22    30  30  17    59  62  40    69  75  47    65  73  49    60  68  43    76  86  59    43  49  23    47  49  25   113 112  89   118 115  95   113 107  88   101  94  76    75  70  51    64  62  41    70  68  48   119 116  98   150 145 130   141 133 123   124 113 107    44  34  27    57  49  39    55  50  40    78  74  63    42  37  27    28  24  14    45  42  34    29  26  20    21  17  14    44  40  35    31  28  22    83  79  70   189 186 172    55  48  35    67  57  45    73  61  52    36  26  17    58  48  41    67  58  51    36  29  23    65  58  52    47  40  33    51  46  38    61  57  47  
 117 109  89   170 162 141   184 177 157    87  78  67    21  12   5    91  85  71    48  45  30    32  32  19    72  75  53    60  66  38    62  71  44    60  69  44    88  98  70    82  89  61    54  57  30    35  34  11    71  68  48   113 108  89   100  95  76   155 150 131    90  86  68    80  77  59   170 165 150   241 233 221   147 137 128    46  33  27    66  55  51    84  76  68   111 105  95    63  56  46    55  51  41    37  32  24    34  29  24    26  22  18    23  19  16    32  28  25    35  32  26    57  54  46    90  86  76    42  36  24    46  34  24    54  40  31    31  19  11    71  62  55    77  68  61     9   3   2    40  34  28    54  49  43    70  65  59    56  52  43  
  27  18   8   141 133 113   177 168 151    60  51  41    25  16   9    84  76  63    55  50  37    34  31  22    83  84  63    76  80  53    68  74  48    52  61  33    59  69  39    71  78  48    72  77  47    79  82  55    64  63  40    67  64  44    78  73  54   100  95  76    47  44  25   107 104  85   174 171 155   200 195 182   106  97  89    25  14  10    81  71  66    61  53  46   103  96  87    73  66  56    36  32  21    36  32  21    30  26  18    31  28  22    28  24  21    23  19  16    33  29  25    27  24  18    22  18  10    62  56  46   100  87  78   122 109  98    75  64  55    36  27  19   111 102  95    56  49  43    13   6   4    28  23  19    50  45  40    57  52  46  
  18   9   1    54  45  28    95  86  71    39  28  22    34  23  19    69  59  47    54  46  35    46  40  30   125 124 103   107 110  83   103 108  83    63  69  45    63  72  44    77  84  54    76  80  51    92  91  66   109 106  84   101  96  77    82  76  59    46  39  23    43  40  23   117 115  98   198 195 182    99  93  82    15   6   5   118 107 103   197 187 184    80  72  66    89  82  75   107 100  92    35  28  18    19  12   3    23  19  11    47  42  38    37  32  28    24  19  16    31  26  23    32  27  22    40  35  27   139 133 123   157 144 135   192 178 168   153 140 132    37  26  19   131 122 117   106  99  95    23  18  14    31  26  23    46  41  37    55  50  45  
  80  72  59    40  30  17    39  29  18    36  25  20    45  34  32    97  88  78    57  50  41    52  47  39   157 155 137   113 115  89    88  92  67    80  86  62    83  91  62   111 117  85   130 135 105   126 129 103   102 101  78    65  61  41    79  73  56    98  95  78   110 109  91    71  70  53   108 106  92   109 105  94    21  15   8   117 107 105   223 214 211   134 127 121    60  53  46    68  61  53    54  47  37    41  35  25    22  18   9    44  39  32    39  34  30    30  25  22    25  20  16    28  23  19    33  28  22   120 114 104   163 150 140   136 122 112   116 105  96    39  30  22    78  71  65    58  53  49    24  19  15    20  15  12    32  27  23    87  82  79  
 181 175 163   114 106  95    66  58  49    19  11   9    57  45  47   161 150 144    61  51  43    45  37  29   146 142 125   142 143 120    67  71  48    80  85  61    67  73  46    83  88  59   137 140 111   165 165 139    94  91  71    51  46  28    58  54  39    87  84  69   120 118 103    87  85  71   144 142 129   188 185 173   119 112 105    51  41  40    30  21  20    46  38  35    28  21  16    44  37  29    77  70  60    44  37  28    35  28  21    40  32  29    35  26  23    29  21  19    26  18  15    30  22  19    30  24  19   115 108 100   155 143 131    53  40  29    36  23  14    49  37  31    64  55  50    40  32  29    18  13  10    27  23  20    43  38  35    83  78  74  
 176 172 161   104  97  87    54  46  39    22  12  13    37  26  30    77  66  62    44  36  32    40  35  30   174 172 155   191 192 169    64  68  45    70  74  50    73  79  52    95 101  71   139 142 113   175 175 150   126 124 104   114 109  92   103  99  83   182 179 164   168 166 151   129 128 113    97  95  82    79  76  66    86  82  75    23  15  13    21  12  10    67  59  56    68  60  55    42  35  29    49  42  34    35  27  18    41  34  26    32  25  19    21  14  10    21  13  11    31  23  21    35  27  24    31  25  20    54  47  40    71  58  46    78  64  52   100  89  79    51  42  34    39  32  26    83  78  74    49  44  41    43  39  36    41  36  33    54  49  45  
  77  74  65    41  36  30    50  43  39    34  25  28    29  19  24    30  20  18    21  12   8    32  24  19   112 107  92   123 121 101    57  59  38    56  60  37    78  84  57    75  80  51   130 133 104   165 165 139   130 127 107   135 130 112   121 117 102   144 141 126   119 117 104   119 118 105   107 107  94    35  33  23    29  25  18   102  94  91   100  92  90    93  85  82    66  57  53    45  36  31    47  38  31    51  42  35    59  50  44    43  33  30    34  24  22    25  15  14    30  21  19    23  15  12    31  24  18    27  18  11    71  59  47   115 101  90    92  79  71    26  16  14    99  89  87   173 165 163    98  93  91    57  53  52    12   8   6    36  31  28  
 147 147 137    63  60  53    52  48  43    23  18  20    19  13  17   121 116 112    91  86  80    27  22  16    21  17   4    20  19   1    55  58  39    83  89  66    75  83  57    56  64  33    71  76  46    80  83  56    76  75  52    83  80  62   113 110  93    69  66  51    72  68  56    84  83  69    90  88  75    58  55  45    70  67  60   191 186 182   112 107 103    72  66  62    75  68  64    43  36  30    31  24  15    35  28  18    39  32  23   104  96  91    97  89  87    18  10   7    29  21  17    38  31  25    31  23  19    29  20  15    71  58  48    64  52  41    36  24  15    39  29  19    69  59  52    85  78  72    87  82  78    30  26  24    20  16  14    45  40  37  
  98  98  86    66  66  59    34  35  29    18  20  17     8  10   9   118 118 116   112 110 106    23  20  13    32  28  17    33  31  16    23  27   8    46  54  32   100 111  86   106 118  88    69  78  47    57  64  33   101 104  79   109 109  88    94  91  73   142 139 124   163 159 147    51  48  39    20  17  11    64  62  50    60  60  49    54  54  44    62  61  51    73  70  60    95  90  86    79  74  71    71  68  59    62  60  47    52  50  36    87  84  77    69  65  62    23  18  15    43  38  35   117 110 101    44  37  33    33  24  24    40  29  24    65  55  46   131 121 111    91  81  71    33  24  15   130 121 115   140 134 128    66  61  57    19  15  14    24  20  18  
  47  48  35    39  40  31    38  40  34    20  25  20     2   7   3    69  70  67    94  94  88    19  15   7    57  53  42   120 117 103    67  68  50    13  19   1    30  41  18    73  84  56    83  94  62    74  83  54   118 123  98   120 120  99    59  56  37   111 105  89    72  66  52    37  30  17    40  35  23   100  98  85   117 117 103    54  55  41    74  74  59    73  71  57    32  29  23    36  33  29    69  66  57    60  61  46    71  72  55    56  56  48    43  40  36    29  26  21    41  35  27    96  89  78    37  28  26    34  23  27    34  23  21    83  72  65   196 186 177   135 125 114    44  34  22   211 203 193   192 183 175   157 151 147    43  40  39    13   9   6  
  40  38  25    43  42  31    32  32  25    11  12   7    78  79  74    65  66  61    33  31  25    67  62  52   102  96  83   119 113  97    62  61  43    81  85  63    57  63  41    17  25   5    48  54  29    99 103  80   142 143 121   126 124 105    72  67  48    70  63  45    64  57  41   108 101  85   111 104  88    81  75  60    60  56  41    44  41  26    74  71  57    52  47  36    73  65  61    62  57  54    25  21  11    28  25  12    41  38  24    35  31  24    46  41  40    49  44  41    25  18  11    35  27  19    31  22  19    40  30  31    30  19  17    51  40  33   113 103  93   136 126 114    40  30  18   183 175 162   148 140 130   170 163 156    65  59  55    17  12   8  
  30  27  12    60  56  45    30  28  20     6   5   1   141 139 135   120 119 114    14  10   7    49  42  31   134 127 112   191 184 166    86  83  64    92  92  71   120 123 102    64  67  46     9  12   2    44  45  27    92  90  72    68  64  45    55  47  29    50  38  22    67  55  39   164 152 135   198 188 171   112 104  86   105  98  80    99  94  75    68  61  46    60  51  40   101  91  87    69  61  58    32  26  17    46  41  28    43  38  25    44  39  33    52  44  42    45  37  33    32  24  17    27  18  10    30  20  18    32  22  23    42  31  29    34  23  16    80  70  60   109 100  86    34  25  10   104  97  82   141 133 121   153 146 137    60  54  47    20  15   9  
  48  42  28    41  34  23    30  25  15    18  14   7    67  62  56    66  61  55    21  14   8     8   1   1    54  46  35   180 171 154   167 161 142    55  51  31    45  45  26    43  44  29    32  30  17    41  37  24    34  27  13    35  27  11    62  50  34   101  88  71   181 168 151   172 159 142   182 169 152   152 141 123   212 202 183   113 104  86    34  25  13    72  62  51    58  47  42    39  29  27    36  27  20    46  38  26    64  56  44    55  47  40    43  33  30    45  35  33    50  40  35    49  38  32    28  16  15    36  23  25    39  29  27    39  30  25    71  63  54    78  70  56    48  39  22    27  19   3    69  60  46    87  79  67    59  52  42    21  14   6  
  76  69  57    36  29  18    46  39  30    24  18  11    42  37  31    42  34  26    69  60  51    71  61  50    21  11   7    43  34  19    51  42  25    48  42  24    78  75  58    48  45  32    38  34  24    71  64  54    84  75  64    83  72  59    42  30  14    82  67  51   254 243 224   231 216 197   155 140 121    80  67  49   114 101  84    64  53  35    32  21   7    51  38  28    49  37  32    18   7   3    70  59  52    81  72  62    45  37  26    39  31  22    25  15  13    69  59  56    53  44  38    51  40  35    43  31  30    23  13  12    31  21  20    38  29  25    61  52  44    90  81  70    61  51  37    53  44  27   129 120 103    76  69  54    86  80  67    53  46  36  
  36  30  18    58  50  40    72  65  56    25  18  12    91  84  78    65  56  49    83  73  64   130 120 109    75  66  51    48  39  24    14   5   1    28  20   4    50  43  29    53  46  37    41  34  28    54  47  39    84  74  65   138 125 115   110  95  81    67  51  36    89  72  56   202 187 171   243 230 214   150 136 120    38  24  11    36  22  10    54  40  30    50  37  28    39  26  19    89  76  71   179 169 160    88  78  69    19   9   1    50  41  34    77  68  62   116 107 102    68  59  55    27  18  15    48  39  37    36  26  25    34  24  23    24  15  12    47  38  32    86  76  67    61  51  39    56  47  32   176 167 150   159 150 136   115 106  95    47  40  30  
  38  31  21    58  51  42    56  49  41    25  18  11    76  69  63    51  42  35    61  52  43    87  79  67   143 135 122   233 223 211   159 149 137    58  49  37    24  16   6    26  19  12    33  26  20    48  39  32    76  65  56   126 112 102   144 130 117   114  98  83    72  55  40    93  77  62   148 133 119   100  86  74    45  31  20    90  76  67    84  71  62    36  24  16    45  35  26   129 119 109   106  96  87    28  18  10    42  33  23    48  39  30    80  71  64    81  72  65    75  66  61    23  15  10    29  22  17    40  32  30    44  35  36    38  30  29    36  28  24   109  99  92    66  56  46    48  39  24   160 151 136   159 149 136    76  68  56    63  56  46  
  26  21  13    65  58  50    96  89  82    35  27  23    11   3   1    23  16  10    57  50  41    60  52  42    67  60  49   152 144 133   196 188 178   111 101  93    32  21  15    20  10   5    61  52  47    72  61  55    74  63  56    99  86  77   133 119 109    87  73  62    57  43  32    32  18   8    37  23  14    37  22  14    60  47  41    85  71  68    83  72  65    42  32  23    52  42  32    28  20   9    94  86  75   122 113 103    70  61  52    58  49  40    73  65  56    36  29  20    15   8   4    36  29  23    59  52  46    41  35  32    37  31  33    55  46  48    40  31  31    83  72  69   100  89  83    40  30  20   111 101  89   140 130 118    81  72  61    74  65  57  
  31  27  18    63  59  51    82  76  70    27  19  15    26  18  16    26  19  13    42  35  26    54  49  38    28  24  12    12   6   1    42  33  24    45  35  29    46  35  31    65  56  51    61  52  45    61  51  44    35  24  15    55  42  33    68  55  45    56  42  33    39  25  16    62  47  40    49  35  28    69  56  52    65  53  49    29  18  16    43  34  28    56  48  39    60  52  39    50  42  29   154 146 133   159 151 140    95  86  77   103  96  85    86  80  68    80  74  63    28  21  13    28  23  17    59  55  47    47  42  38    21  14  15    41  34  36    46  37  39    60  51  49   158 147 143    55  45  36    96  86  76   184 174 164    57  49  40    65  58  49  
  31  28  21    59  54  49    66  60  56    24  16  13    27  17  15    82  75  69    74  68  59    28  24  12    39  35  23    77  73  62    60  53  45    29  20  16   104  92  90   109  97  93    47  37  28    20  10   1    55  45  36   176 163 155   169 156 148    69  56  50    32  18  13    38  24  20    47  34  31    66  55  53    54  44  42    33  24  22    34  26  21    48  41  29    62  56  41   109 104  85    81  73  60    70  61  51   116 108  98   112 104  92    54  47  31   119 113  99    60  53  44    31  26  20    38  33  25    50  46  37    53  47  47    33  26  28    36  27  29    39  28  28    89  78  76    68  57  50    62  52  42   113 103  93    60  52  41    98  91  81  
  30  27  19   102  98  91    73  67  61    23  14   9    25  16  11    72  65  57    76  70  60    76  73  60    83  81  68    89  86  73    50  43  35    51  39  36   145 131 130   105  92  87    88  75  67    46  33  25    62  49  41   100  87  79   170 157 150    78  65  59    33  19  16    19   8   5    37  27  23    30  21  16    33  26  20    56  48  44    48  41  33    59  53  41    88  83  65   100  95  75   102  95  79    97  89  76   125 117 106    77  70  54    37  30  12    99  92  77    82  75  65    41  34  28    32  25  16    21  17   6    59  54  51    34  27  28    31  22  23    34  25  24    38  27  25    49  38  34    65  54  47    85  76  65    99  93  81   137 133 121  
  50  47  38   127 123 115    73  67  61    25  16  12    32  21  15    69  60  51    72  66  54    94  91  77   107 104  89    28  22  10    17   7   6   105  90  88   135 118 118   169 151 146   222 208 199   135 121 112    71  56  49    26  11   5    32  17  13    40  26  23    66  52  49   136 125 121   115 105  99    46  37  30    34  27  19    30  24  14    38  34  23    58  52  38   102  96  76   102  96  74   100  91  75    74  64  52    77  66  55   113 101  85   111 103  84    85  76  60   111 102  93    31  22  17   110 102  92   110 104  92    19  15   7    31  25  22    30  22  20    36  26  25    30  20  19    29  18  14    56  46  39    62  54  42    68  64  49    67  65  50  
  43  41  29    85  80  69    80  72  62    24  15   7    57  47  39    92  82  71    87  79  66    64  60  44    83  80  63    43  37  23    36  26  17   115 100  96   122 103 102   153 134 128   156 139 129    94  77  69    60  43  36    45  29  23    42  27  23    39  24  21    50  36  33   144 134 128   106  97  89    46  39  28    89  84  70    59  56  41    18  14   3    40  34  19    32  27   8    49  43  20   130 122 103   121 111  97    67  55  42   140 129 111   196 185 165   106  94  78   114 102  92    44  32  26   142 132 121   130 121 108    57  51  40    27  22  14    34  26  22    32  22  21    38  28  26    29  18  14    17   7   4    42  35  21    50  46  29    61  62  42  
  31  27  15   143 137 127   134 125 116    26  16  13   115 103  94   194 182 170    99  91  75    61  55  39    92  86  70    83  77  61    74  60  52   124 105 103   151 130 130   155 135 130   107  87  78   106  86  79    74  55  50    58  40  36    61  43  40    60  45  42    35  22  17    11   1   1    21  13   5    69  63  48   150 145 126   130 128 105    44  41  27    67  61  52   150 143 120   112 105  79   113 102  84    46  33  22    75  61  52   150 137 118   211 199 177   133 120 104   112  98  89    51  37  31    74  61  51    75  66  51    77  72  58   101  96  85    40  33  26    19  10   6    63  53  52   182 172 169    57  47  39    38  31  17    69  66  47    67  69  47  
  14  10   2    45  39  27    55  44  34    26  12   5    86  72  59   161 148 132   142 130 113   118 108  90    48  39  21    67  58  43   140 127 116   127 110 104   158 139 135   167 148 142   205 187 177   136 116 109    50  30  23    63  43  36    82  63  56    58  40  31    61  45  34    67  53  39    62  50  33    34  25   7    68  62  40   157 151 127   148 142 122    83  75  59   189 181 158   252 244 219   152 141 121    76  62  47   103  88  74    89  74  53   117 102  79   113  98  80   115  99  88    63  48  41   120 107  96    94  81  68   116 107  93   152 143 131    43  35  29    25  16  13    32  22  20   179 170 165    92  84  75    33  27  13    35  32  14    34  33  12  
  53  47  35    26  18   7    33  22  11    25  11   6    85  67  54   171 152 137   185 164 147   195 175 158    82  64  48   109  92  77   130 116 103    98  85  74    93  78  70   162 147 142   110  93  86    33  14   7    39  19   7    57  37  22    82  61  41   113  91  69   154 134 109   192 173 148   155 138 113   102  87  63    22  10   5    47  36  14   143 131 114   143 130 117   149 136 117   245 230 207   111  96  77   181 166 150   182 169 152   134 118  95   138 122  97    65  50  29    42  26  13    41  27  19   117 106  95   140 129 115   194 181 164   160 147 131    51  41  34    21  14   8    29  24  18    35  30  24    58  52  46    45  38  28    29  23   9    23  20   5  
 159 152 142    58  49  40    36  25  14    37  22   8   116  99  83   220 199 182   201 178 162   207 184 168   105  83  68   167 149 134   215 199 186   108  94  82    61  48  38    63  50  41    26   9   4    59  41  29    68  48  32    87  66  44   172 149 122   205 182 151   215 192 160   216 193 161   167 147 118   161 143 117   183 166 143    54  39  20    46  31  25   133 119 108    95  81  65   100  86  65   210 194 176   208 191 175   236 219 201   164 148 124   124 109  83   167 152 130    72  59  46    29  17  11    58  50  38    95  86  69   123 108  89   130 115  97    78  66  52    41  33  23    57  52  43    37  34  27    66  62  55    64  58  49    48  40  29    47  40  29  
 100  91  82    64  55  46    33  22  13    39  23  14    69  51  39   150 131 117   171 148 135   137 115 101   145 125 111   133 115 101   112  96  83    61  47  34    31  17   4    42  27  12   152 135 119   143 126 106   103  84  61   186 163 137   213 189 159   197 172 141   209 185 151   201 178 146   152 132 103   134 116  90   221 205 181   188 173 152    92  77  63    64  50  41    54  41  27    28  13   2   143 127 111   142 124 110   149 132 117    91  75  53    27  13   2   200 185 163   169 156 141    44  33  21   104  96  80   176 168 150   140 124 108    62  47  32    54  44  31    76  69  59    28  23  14    94  90  83   106 100  94    25  18   9    61  54  43    54  48  36  
 105  95  89    27  17  11    38  26  19    39  25  16    28  11   2    81  63  51   209 191 179   105  86  77    70  51  39    59  41  27    20   2   1    41  25  19   117 101  85   101  86  65   155 138 112   138 121  95   174 154 124   230 208 176   213 189 156   193 169 135   189 165 132   177 155 123   171 150 121   172 154 128   178 160 136   247 231 208   206 190 176    79  65  58    34  21   8   132 119 102    70  57  41   148 132 119   115  99  85    88  72  52   174 162 136   166 155 133   152 141 124    34  26  10   121 114  96   205 197 176   213 200 183   118 104  90   120 110  98    44  37  26    22  18   9    64  61  54    41  36  26    55  48  38    70  62  51    92  86  75  
  89  80  74    34  24  20    51  40  35    39  26  21    30  15   8    44  30  21   120 103  93    85  67  56    44  26  13    49  31  17    67  49  34   103  85  71    82  64  47   117 100  75   142 123  90   141 122  89   184 163 130   204 181 147   214 191 155   186 161 127   194 169 136   201 176 145   167 145 116   185 165 139   190 172 148   195 179 155   207 192 175   159 146 136    89  76  62   112  99  82   218 203 190   125 108  99   102  85  76   170 154 138   249 247 226   150 138 116   101  91  74    52  44  29   107 101  81   103  97  75    72  60  44   131 118 107   168 159 149    38  31  29    44  40  31    18  13   5    67  62  53    74  68  57    32  25  13    67  59  48  
  22  13   8    68  59  54    70  59  55    20   9   4    38  26  20    25  12   4    26  13   3    58  43  31    95  79  64   120 103  87   117 100  84   106  89  71   119 102  82   172 153 124   180 162 124   176 156 119   191 171 135   207 185 151   206 183 149   202 179 147   206 183 152   209 187 156   185 164 136   183 165 138   196 179 154   133 117  92   110  95  77   163 151 138   247 237 222    96  85  67    86  71  59   129 115 107    69  55  47   116 102  88   226 215 195   247 244 226   128 120 104    32  25  11    79  74  54    98  92  70   178 169 154   130 118 109    66  58  49    30  23  14    30  26  17    26  22  13   126 121 110   110 104  92    30  22  11    27  21   9  
  40  31  26    53  44  39    37  28  23    31  22  16    43  32  26    76  66  57    38  28  17    59  47  34   163 150 135   188 173 157   172 155 137   176 159 139   200 182 160   200 181 151   194 176 138   219 201 165   208 188 154   202 181 149   210 189 158   193 172 143   204 183 156   209 189 163   202 184 158   183 166 141   232 218 192   144 131 106    31  19   7   126 116 100   234 223 206   248 237 219    71  59  45    81  68  60   104  91  84   101  89  77   171 159 143   203 193 179   113 105  93    50  43  30   130 125 105   181 176 155   153 145 132   209 200 191    86  78  71    20  13   5    45  38  30    33  26  16    52  45  34   154 148 135    90  84  71    30  23  12  
  39  32  27    70  61  56    28  19  14    24  15   9    53  46  36   101  94  83    50  42  31    21  12   1    85  75  59   198 185 167   223 208 187   215 198 175   198 180 156   212 195 164   218 203 169   211 195 161   213 194 162   203 184 155   204 184 159   215 195 171   204 185 162   211 193 170   201 185 162   160 145 122   186 173 148   124 112  86    74  64  41   172 164 145   219 209 188   177 166 146   207 195 181   136 123 115    40  27  21   113 100  90   227 217 203    85  77  64    91  84  74    55  48  38    90  86  69   128 125 106    64  58  47    58  51  43    45  38  30    30  23  15    25  18  10    38  32  22    46  40  29   112 106  93    98  92  79    58  52  40  
  22  15   9    92  85  77    72  65  57    25  18  10    50  42  33    75  68  56    58  52  37    38  30  13    28  17   1   115 102  84   213 198 177   233 216 193   210 192 169   218 200 175   193 176 150   200 183 157   216 200 175   210 193 172   220 203 183   220 203 185   217 202 182   205 191 171   205 193 171   211 199 177   127 116  92    72  62  37   143 136 111   208 200 177   219 211 186   135 128 102   206 198 182   237 232 223   108  97  92    46  36  28   143 133 123   179 170 161   153 144 139    42  35  30    47  43  32    52  49  35    56  51  41    32  25  18    52  45  39    42  34  29    24  15   8    42  33  24    40  31  22   120 114 102   108 102  90    74  67  57  
  63  56  50    85  78  70    45  38  30    18  13   4    82  78  66    87  84  69    56  50  33    75  68  50    37  29  13    25  14   1    81  68  46   166 151 128   213 197 174   222 205 183   187 172 151   200 185 164   203 187 169   205 191 174   218 205 188   207 194 178   214 201 185   222 211 193   224 213 194   228 217 197    85  74  52    88  80  57   124 117  93   154 147 122   138 132 104   168 161 135   163 155 137   159 149 138   162 151 146    79  69  61    68  58  50   223 214 207   177 169 164    33  25  23    47  42  35    49  45  33    45  41  30    57  51  43    64  57  51    45  36  31    32  23  18    27  18  11    41  33  23    59  53  42    60  54  42    52  46  34  
  62  57  50    85  80  73    25  21  15    23  19  11   115 111 100   104  98  81    79  74  55    89  82  64    76  68  47    25  14   4    15   5   3    82  69  50   131 117  98   160 145 128   210 194 179   196 180 165   180 166 153   210 197 185   223 211 199   221 210 198   223 212 197   218 209 194   234 225 209   160 151 134   124 116  97   164 156 135   120 112  91   117 109  87   148 140 114   172 165 138   115 106  88   111 100  92   146 135 131    86  76  69    12   5   4    62  53  49    61  51  51    29  20  22    30  23  19    28  24  15    12   8   2    40  35  27    51  43  37    43  33  30    47  37  33    54  43  39    47  38  30    30  23  13    15  10   1    21  17   5  
  27  22  18    25  20  14    34  30  22    34  30  20   149 146 131    91  86  69    69  64  45   101  94  75   147 139 120   139 131 112    21  13   1    71  59  45   182 170 155   138 124 111    82  68  55    60  46  35    88  75  64   138 126 114   193 182 170   250 243 231   251 241 229   244 237 224   237 232 217   168 159 144   243 234 217   227 219 200   154 146 127   135 127 107   139 132 107    49  41  18    27  18   4    59  48  40    44  33  28    25  16   8    37  28  19     7   1   1    13   6   7    39  30  32    38  30  28    12   8   2    75  72  60    40  35  27    31  24  21    58  48  45    44  34  31    44  33  29    52  42  37    48  42  33    35  32  20    30  29  15  
  48  43  40   110 106 102    47  44  36    40  37  26    87  84  70    72  66  49    71  64  46   103  96  77   161 154 136   230 224 207   160 153 138    28  18  11   157 149 139   246 236 225    61  47  34    20   6   1    28  14   1    32  20   8    65  55  43   103  93  81   129 119 107   182 172 161   151 141 129   110  98  86   146 134 120   106  94  81    74  62  49    76  64  51    76  65  46    98  87  67   104  95  81   103  93  84    95  84  78    33  24  17    32  24  13   118 109 102   103  94  92    12   5   5    47  38  36    66  59  52   103  99  87    70  65  54    69  60  54    70  57  55    17   5   5    37  23  22    38  29  23    34  28  19    28  26  13    37  35  22  
  28  24  23   104 100  98    43  40  34    44  40  30    40  34  21    29  21  11   154 147 129   174 167 149   148 142 125   221 213 200   241 239 229    85  76  71    49  41  37   109  98  88   127 114  98   174 161 146   153 140 124   109  97  81    67  57  41    75  66  49    70  61  46    43  34  21    15   5   1    34  23  15    53  39  28   133 120 109   165 151 142   200 187 178   243 231 217   188 176 160   169 159 147   227 217 209   155 144 138    93  84  75    65  57  44   231 222 214   173 165 161    24  17  16    62  55  50    68  61  52    63  60  45    66  62  49    49  40  32    36  23  19    28  12  11    36  22  21    43  33  30    32  27  20    89  88  77   103 104  91  
  22  19  20     7   5   4    26  23  19    40  36  28    57  52  40    31  23  10    59  51  35   165 156 139   231 223 209   247 239 228   191 184 177    71  63  61    14   6   3   115 104  93   245 235 217   232 218 199   236 223 204   217 206 186   152 141 122   132 121 103   186 173 158   108  96  80   109  96  83   190 176 165   211 194 186   225 208 200   227 211 205   245 231 226   168 155 145    49  37  25    76  66  57   129 118 113    50  39  34    76  67  56    64  57  42   132 124 113   102  93  87    44  34  32    46  37  32     9   3   3    40  36  20    78  73  58    50  39  31    85  70  66   158 142 141    56  42  42    42  32  29    49  44  36   112 109  98    94  95  81  
  21  20  16    22  20  18    21  16  13    42  36  29    61  52  43   147 137 127    71  61  52    46  38  29   135 129 114   106  99  88    98  91  85   198 190 189    83  75  75    78  67  57   215 200 182   218 203 184   197 182 163   218 205 186   251 240 222   144 132 115    67  54  38    84  70  57   146 132 120   155 140 130   119 102  94    55  39  31   114  99  93   104  91  87    22  12  10    26  16   5    51  41  32    94  83  77   127 117 109    95  87  75    82  74  61    18  10   1    24  14   6    27  16  10    63  53  43   112 105  90    23  17   6   113 106  93   191 181 172   179 165 161   125 109 109    38  24  23    30  20  17    51  45  38    83  80  68   108 107  92  
