P3
50 50
255
  46  46  11    34  34   7    43  45  23    38  39  21    25  28  10    34  38  21    39  45  31    38  42  32    25  22  17    31  26  20    26  24  13    35  34  17    32  35  11    16  22   1    29  37   1    52  61  15    64  74  25    42  52   3    63  71  24    50  57  15    41  45  10    30  33   4    33  33   9    31  32   9    28  34   1    37  43   6    70  77  39    42  50  12    43  51  15    32  40   4    28  38   4    42  52  19    57  66  35    39  48  17    32  38   7    55  62  31    62  67  35    49  54  21    28  33   1    32  38   4    37  42  10    35  41   7    36  45   2    59  71  21    63  79  21    53  71  11    35  53   1    21  36   1    63  75  26    70  79  34  
  73  73  30    41  40   6    31  31   6    31  33  13    29  32  13    20  24   8    38  45  28    39  43  29    25  25  16    24  19  15    16  14   7    19  19   9    25  27  13    21  25   5    21  27   3    31  38   4    50  58  19    41  49   7    44  51  10    55  61  22    49  52  21    42  45  19    27  26   7    30  28  10    27  30   4    38  42  13    69  73  46    70  75  50    54  59  35    42  47  24    25  32   8    27  34   8    20  30   1    25  34   7    43  50  20    59  66  34    56  62  30    45  50  19    37  42  12    34  40   9    34  40   8    40  48  10    40  52   7    46  60   9    64  82  25    52  71  12    48  65   9    47  60  10    41  53   9    61  68  29  
  85  84  36    76  76  33    56  58  25    32  35   6    25  29   5    41  47  23    32  41  16    29  36  15    28  28  15    29  26  18    27  26  20    17  16  12    17  17  13    26  27  19    29  31  18    38  41  23    44  48  23    44  49  19    37  42  10    39  44  14    37  39  15    40  41  21    37  35  21    33  31  17    34  36  15    29  31   8    38  40  21    47  49  33    30  32  18    33  36  22    32  36  20    33  38  17    27  35  10    17  26   3    26  33   6    28  35   5    30  37   6    33  39  12    43  49  25    36  41  17    37  44  12    46  54  17    50  61  21    50  63  18    56  72  25    37  54   7    35  50   7    34  46   7    36  44  10    54  59  30  
  81  79  38    90  88  48    73  75  37    57  61  26    72  78  45    70  77  41    25  38   2    30  40   3    32  36   8    30  31  12    29  30  16    23  23  14    17  18  14    30  30  27    25  25  21    30  31  23    26  28  14    30  33  14    34  36  14    32  35  12    30  32  10    33  34  16    41  41  28    40  40  26    28  28   8    22  22   2    24  25   9    24  24  12    15  17   6    31  33  22    48  52  37    49  54  34    45  52  25    36  44  12    45  52  17    55  62  28    34  41   9    24  30   2    42  47  25    29  34  11    26  32   7    28  34   8    38  49  20    44  55  26    35  48  20    22  35   9    17  28   6    15  23   4    21  26   8    33  36  19  
  34  34   4    78  78  43    61  63  28    35  39   4    56  62  24    48  57  12    26  39   1    55  68  15    50  57  16    31  35   3    34  36  13    26  27  11    13  15   5    25  25  21    28  29  24    16  17  12    22  23  14    30  32  18    36  37  20    37  38  19    35  37  18    37  38  20    40  41  25    41  42  26    35  34  14    30  29   9    25  26  12    23  23  11    21  22  14    24  25  16    28  32  17    31  36  16    44  50  23    44  52  20    36  43   9    40  47  14    38  45  14    26  31   7    29  34  13    29  34  16    22  27   7    14  19   1    15  22   5    18  26  12    15  23  13    17  25  16    19  25  20    20  22  17    25  27  21    27  26  20  
  17  19   1    53  55  23    48  49  18    25  28   2    25  31   2    33  42   1    50  61   4    72  83  24    54  62  11    38  45   4    49  55  18    38  42  14    23  27   5    18  20   6    28  30  19    24  26  17    20  20  10    26  26  14    32  32  19    33  34  17    35  36  18    38  40  19    37  39  18    34  35  17    43  42  25    47  45  32    39  39  27    34  34  26    31  32  26    18  19  13    16  19   8    38  42  27    36  41  20    35  41  15    32  38  10    30  36  10    28  32   9    25  28  12    26  28  15    25  27  14    20  23   7    13  16   1    13  16   5    15  20  13    15  20  15    16  20  19    20  24  23    23  25  24    28  27  23    28  24  19  
  35  40   6    41  46   9    41  46   7    48  53  16    46  51  18    40  44  10    55  61  22    78  85  42    75  82  36    80  88  42    68  75  33    48  54  17    45  49  20    44  48  23    34  37  18    24  26  10    27  27  14    28  28  16    28  30  16    28  29  13    29  30  13    29  31  12    27  28   8    22  23   6    27  26  13    38  37  25    38  38  28    33  33  25    27  28  22    19  21  13    22  25  14    39  43  29    23  27  10    25  29   9    35  39  19    30  34  15    21  23   8    23  24  13    24  24  17    22  24  14    15  16   3    19  21   6    21  23  12    25  28  19    21  25  17    17  19  13    23  25  20    28  28  25    30  26  21    25  20  15  
  50  57  20    64  72  25    65  73  24    51  58  16    40  43  14    30  31  11    27  28  11    37  40  19    48  53  21    67  73  35    64  71  32    54  60  23    39  45  10    45  51  19    44  46  20    34  36  14    38  39  22    34  35  21    29  30  17    27  28  16    26  26  14    22  23   9    21  22   6    21  22   7    24  24  12    27  27  16    30  30  20    28  29  18    21  23  11    23  25  11    27  31  15    27  31  14    28  33  15    31  35  18    36  39  22    33  35  21    28  30  17    28  30  20    27  26  20    22  22  14    20  18   8    25  24  13    20  21   8    25  27  14    25  28  15    19  21   9    26  27  16    30  29  19    31  27  18    26  22  13  
  32  41  11    32  39   6    51  59  17    42  48  12    26  29   5    29  30  15    25  23  13    25  23  13    29  32  11    31  36  10    40  44  15    56  61  28    45  51  17    35  41   7    38  41  10    35  38  12    36  37  19    28  28  16    25  25  16    28  27  21    25  24  18    19  18  11    21  22  12    28  29  16    33  33  17    25  26   8    27  29  10    34  36  15    30  34  10    26  30   4    27  33   6    28  34   7    39  43  18    32  36  13    28  32  11    32  35  16    29  30  13    30  31  16    33  34  20    15  15   4    33  30  25    36  32  29    22  20  11    26  27  14    32  33  18    22  24   8    24  25  11    22  20   8    25  20  15    29  25  20  
  23  28   5    28  35   4    47  54  19    31  37   4    27  31   7    35  37  16    14  13   2    15  16   1    33  37  16    40  49  22    37  44  14    37  44  11    48  56  19    34  40   4    33  39   5    36  39  10    33  35  13    25  26  10    24  24  12    30  29  22    26  26  18    17  17   9    20  20  12    33  33  21    40  42  22    21  23   1    24  27   1    55  58  28    70  76  41    53  59  22    36  43   3    36  42   5    33  38   5    45  50  19    26  30   3    32  36  13    51  53  32    44  45  28    41  42  26    39  39  29    42  38  39    43  37  43    21  17  14    23  20  13    29  28  15    19  18   4    24  22  10    23  20  10    23  18  14    26  20  20  
  59  63  33    61  67  32    49  55  17    46  53  12    54  60  22    42  48  12    34  38   3    50  56  19    53  66  27    52  67  25    36  49   8    35  47   7    25  36   1    50  58  21    51  59  22    39  45  11    49  54  22    37  43  12    21  25   1    30  33  11    34  37  18    26  29  11    28  30  16    24  26  11    28  30   9    32  34  11    26  29   1    38  42   7    67  72  32    57  63  19    55  61  15    51  59  14    44  51  10    44  50  14    28  33   3    24  28   5    51  54  37    44  46  33    14  16   5    31  30  26    25  20  27    20  14  24    21  17  18    12   9   5    12   9   4    21  16  10    22  17  11    21  16  11    22  18  14    16  11   8  
  59  62  35    43  47  16    39  44  11    44  50  14    41  47   9    40  46   8    53  59  22    66  74  35    40  53  10    38  53   9    43  58  14    45  58  16    48  58  19    42  50  14    41  49  13    54  60  27    65  71  36    62  68  35    34  39   6    33  38   8    36  41  15    23  27   4    29  34  13    34  37  17    23  27   5    47  49  25    37  40  11    31  35   2    55  59  20    73  78  36    65  72  27    62  68  26    58  64  24    48  53  19    49  54  26    38  41  21    20  23   7    15  17   6    13  14   5    13  12   8    16  14  16    20  15  17    20  17  13    26  23  16    23  19  12    20  16   9    19  14  10    26  22  17    20  18  13    20  16  15  
  35  37  18    30  31  10    31  35  10    38  43  15    35  40  11    32  37   8    47  51  25    66  73  42    53  64  26    34  46   5    40  52  13    40  51  15    61  69  34    47  54  21    36  42   9    47  52  21    41  46  13    56  61  29    48  53  21    48  53  22    45  50  21    33  38  11    38  44  17    40  45  20    31  35  11    43  45  21    45  48  20    39  43  13    60  64  29    67  71  34    46  52  15    39  44  10    37  42  12    44  49  22    58  61  40    46  49  32    21  23   9    16  18   5    20  22  10    20  20  10    21  19   9    27  25  12    26  24   9    25  24   8    30  28  14    21  21   8    22  21  12    20  19  13    19  18  16    17  16  17  
  25  27  12    30  31  15    30  33  12    33  37  13    38  42  18    36  39  17    43  46  26    59  64  39    46  54  22    32  41   5    37  48  12    26  34   2    33  40   8    42  47  16    36  41  11    36  40  12    29  34   3    33  38   8    45  50  19    47  52  20    45  51  19    57  64  31    58  65  32    42  48  17    36  40  12    35  38  12    60  65  36    77  81  51    61  66  35    34  38   7    11  16   1    21  25   1    13  16   1    23  26   7    23  24   9    16  16   5    18  19   6    22  23  10    23  24  11    24  24  10    27  26   5    40  39  16    39  40  19    33  35  14    25  25   9    19  21   8    19  21  10    17  19  13     8  10   6    14  15  13  
  33  34  20    25  26   9    26  29   8    33  37  14    34  38  15    39  42  21    38  41  22    28  31  10    33  37  10    43  49  18    52  59  30    34  38  11    14  18   1    36  40  15    38  42  15    30  34   7    32  37   9    20  25   1    32  37   7    31  37   3    24  32   2    50  58  20    59  67  27    35  43   4    21  27   1    41  46  14    59  64  32    63  68  38    20  24   3    18  23   1    13  16   1    22  25   7    25  27  13    27  29  18    25  25  15    22  22  12    16  16   4    21  21   9    34  35  21    33  35  14    30  30   2    37  38   7    36  38  15    53  56  37    26  27  13    33  37  23    17  21   7    24  30  18    33  39  27    35  40  27  
  36  39  18    32  36  12    33  37  12    41  45  17    45  49  23    39  44  19    24  29   6    12  16   1    17  21   2    40  42  18    46  50  25    37  39  15    27  29   5    39  41  19    37  40  16    27  31   6    37  41  16    34  38  11    33  38   9    41  47  13    30  38   1    38  46   5    63  72  29    45  54  11    29  36   2    48  54  16    47  53  16    36  41   9    25  29   5    26  30   7    28  31  14    26  28  15    50  50  42    32  31  26    16  15  10    18  18  10    15  15   5    23  24  10    42  43  26    39  41  19    38  40   8    26  27   1    32  34  13    46  48  34    26  30  16    43  49  34    25  32  13    28  37  15    62  72  47    50  60  32  
  33  38  12    41  45  17    37  43  13    41  47  17    51  55  28    34  39  13    15  20   1    23  27   4    42  44  24    44  45  25    37  39  17    19  21   1    24  26   4    30  33  10    33  37  14    36  40  17    34  38  14    34  38  13    18  24   1    32  38   8    33  40   3    48  57  16    74  83  38    46  55   8    53  61  13    65  72  28    64  71  28    60  66  28    81  86  55    30  34  10    25  28  10    29  31  19    22  21  16    19  18  14    11  10   6    19  18  13    21  21  10    23  24  10    28  30  11    37  40  15    39  43  10    24  27   1    43  46  25    32  36  19    21  28   9    37  46  21    30  41  10    28  41   5    52  66  29    46  58  21  
  47  51  25    45  50  21    42  48  19    45  51  23    43  49  23    26  32   8    17  22   1    27  30  11    39  40  23    25  23   7    31  33  13    19  21   2    31  33  11    36  38  16    28  32   8    37  41  18    51  55  32    38  42  18    17  23   1    15  22   1    31  39   4    91  99  59   104 113  67    54  64  14    38  46   2    82  90  40    93 101  54    94 101  59    85  91  56    40  44  18    32  35  16    22  24  11    21  22  15    17  18  13    14  13   9    19  18  12    25  25  12    33  34  17    29  31   8    37  41  13    32  36   4    34  40   9    47  52  27    43  48  23    35  45  11    37  48   9    35  48   2    39  54   6    47  63  20    48  60  20  
  48  52  29    38  43  18    27  33   8    25  30   7    24  28   9    14  18   1    12  16   2    25  27  15    27  28  15    22  22   8    27  28  10    33  35  14    33  36  12    34  37  13    15  20   1    38  43  18    68  73  49    37  42  19    12  18   1    11  17   1    24  31   2    59  67  29    61  69  27    40  49   7    61  69  24    54  61  12    58  65  20   101 107  66    75  79  45    40  43  16    25  27   7    34  35  21    28  29  19    25  26  18    22  24  14    15  16   5    26  29  11    28  32  10    37  41  13    31  37   4    53  61  24    49  58  22    40  49  17    52  61  25    60  72  23    46  60   4    44  59   1    54  68  11    44  58  14    33  44  10  
  32  37  17    22  27   5    15  20   1    16  20   3    17  21   6    12  15   4    13  16   8    21  24  17    34  36  25    36  37  23    37  38  20    45  47  25    44  48  21    43  48  18    17  24   1    38  44  16    63  69  43    42  47  24    28  33  11    19  24   2    24  30   3    41  48  15    42  50  12    47  53  15    70  76  34    71  76  35    45  50  10    42  46  10    61  64  33    64  67  40    36  38  16    32  33  18    34  36  23    35  37  24    32  34  20    19  21   3    23  27   5    43  48  19    52  58  25    50  57  19    59  70  28    43  54  11    21  31   1    28  39   2    89 102  46   118 132  70    79  91  28    53  64   8    42  51  13    20  26   2  
  23  28   8    15  20   1    15  20   1    22  26  11    22  26  12    15  18   9    12  14   9    14  17  10    26  28  17    39  41  27    43  46  25    37  41  16    43  50  17    47  54  19    37  47  13    53  62  30    55  64  37    48  57  32    34  42  19     9  17   1    20  25   3    41  47  22    43  48  19    43  48  17    38  41  11    38  38   9    34  35   5    27  27   1    40  40  14    41  41  18    36  38  16    43  44  26    40  43  24    29  33  13    32  38  15    28  35   8    39  46  14    52  59  22    46  55  13    53  65  19    64  79  23    58  72  19    40  53  10    40  51  12    84  95  49   108 118  67    87  95  42    78  86  40    40  44  17    22  25   6  
  25  30   7    17  23   1    20  25   5    29  33  15    27  31  16    20  23  13    18  21  14    16  19  11    16  18   7    26  28  13    33  37  15    28  33   5    40  48  13    41  50  12    34  45   8    35  46  12    38  48  18    24  32   8    16  24   3    21  28   8    45  50  31    43  48  27    34  38  14    32  34  10    32  31  12    30  28  10    29  27   9    34  33  14    37  36  15    36  35  14    32  35  12    40  42  21    49  52  31    32  36  13    27  34   6    32  39   8    55  64  26    48  57  15    48  61  13    67  81  27    80 100  33    66  84  23    32  44   8    34  43  16    36  42  15    20  25   1    40  44  10    64  66  35    46  47  28    35  36  19  
  37  45  15    29  37   7    32  39  12    40  45  20    36  40  22    31  35  21    32  35  23    30  34  22    24  28  15    24  28  12    30  35  12    33  40  11    37  45  10    31  41   4    26  37   1    29  40   8    31  40  14    19  28   5    15  22   3    30  35  18    47  52  33    28  32  13    24  27   7    24  25   7    32  30  17    34  31  19    36  33  18    40  38  21    40  41  21    32  32  11    30  33   9    26  29   5    40  46  19    54  60  31    26  33   1    33  41   4    43  54  10    42  54   6    60  72  22    81  96  37    83 104  31    61  81  15    31  45  11    22  31  11    15  19   6     7  10   3    17  18   1    21  19   2    28  26  12    31  30  13  
  49  61  21    35  48   7    47  58  21    50  59  26    39  46  17    36  41  18    35  39  18    42  45  27    34  36  23    28  30  18    36  39  23    34  38  18    31  36   8    27  34   5    20  27   3    30  35  16    27  31  18    21  23  12    17  21   5    23  26   8    23  27   6    27  30   8    25  27  11    24  25  11    37  37  19    34  35  12    40  42  14    46  49  19    39  42  17    40  44  18    37  43  11    33  39   5    33  43   4    65  75  37    71  80  44    35  45   5    39  51   2    43  56   4    50  62  13    55  70  13    77  99  24    61  84  10    62  80  27    49  63  27    40  48  25    10  17   1    19  22   4    20  20   5    27  25  12    27  25  12  
  40  55  12    30  44   1    44  56  16    40  50  15    33  40   9    37  41  16    32  36  13    32  35  16    26  28  15    23  25  14    29  31  18    34  36  22    28  31  13    25  28   9    18  21   4    26  28  17    21  23  17    18  19  13    17  18   2    15  18   1    24  27   1    38  41  14    31  32  17    27  28  12    26  30   7    33  38   6    32  38   1    35  40   3    53  60  29    67  74  43    52  63  23    50  60  18    40  53   7    36  49   5    66  77  37    51  62  20    67  80  26    66  79  23    70  82  32    61  76  21    65  87  14    53  77   3    63  83  22    65  81  34    54  66  31    24  33   7    24  29   7    24  27   7    35  37  17    28  27   8  
  35  47  12    27  38   4    36  47  15    30  39  12    23  28   6    29  32  15    27  29  16    30  30  18    23  25  11    25  28  11    17  19   5    20  22   9    25  26  14    37  39  25    34  38  15    17  20   2    17  18  11    14  16   7    22  26   2    35  40   7    52  58  24    54  59  29    41  45  22    38  41  19    36  40  17    39  43  16    38  45  11    24  31   1    39  48  18    74  83  52    79  90  50    59  72  26    46  58  10    41  53   5    38  49   6    42  54   8    60  73  15    54  68   7    48  58   5    44  57   1    60  78  13    43  61   1    43  60   9    59  72  29    55  65  29    50  57  26    32  37   9    23  28   1    40  44   8    41  47   4  
  30  41   8    28  37   7    35  43  16    31  36  14    23  26   9    23  24  11    24  24  13    28  27  18    26  28  16    25  27  15    17  19   6    19  21   8    28  30  19    39  42  24    66  72  36    57  63  26    24  28   6    12  16   1    33  39   1    66  74  31    63  70  34    52  58  26    44  48  21    56  60  34    53  58  31    54  60  29    60  69  33    38  47   9    23  32   5    25  35   2    47  58  17    60  73  26    66  78  30    62  74  26    40  52   6    49  61  13    49  62   4    50  62   2    45  56   4    45  55   3    52  66  12    40  54   3    31  45   1    27  37   1    31  39   5    49  56  20    51  57  22    47  53  16    56  63  19    62  71  18  
  36  46  11    37  45  14    34  39  12    27  30   7    25  27   9    32  32  18    30  29  17    25  22  15    28  28  22    26  25  19    25  25  16    23  23  13    19  21   9    18  22   1    69  78  25    83  92  35    40  48   8    32  39   6    54  64  14    75  85  34    46  54  16    32  40   9    33  40  11    47  55  24    61  70  34    56  64  26    55  66  23    46  58  15    46  56  18    36  46  10    44  55  11    68  80  33    63  75  27    56  68  20    55  67  21    62  73  26    60  70  16    51  61   6    61  70  19    49  58  11    33  45   3    43  54  10    43  55   8    32  42   4    42  51  14    50  57  17    61  68  28    60  67  26    52  60  14    65  76  23  
  47  55  20    41  48  17    29  33   6    26  28   6    34  35  17    42  40  27    37  35  23    29  26  19    22  21  19    26  24  24    23  23  17    18  18  10    18  20   5    42  48  18    78  88  24    70  81  13    48  58  10    57  65  23    75  87  36    63  74  25    38  48   8    23  34   1    27  38   1    35  46   5    53  64  17    52  63  14    54  67  15    44  57   6    37  49   6    53  65  18    57  70  22    50  63  15    27  40   4    41  53   7    55  64  22    50  58  16    56  65  20    45  53   7    51  59  15    44  53  12    34  45   4    50  61  18    51  63  18    63  74  27    86  97  48    60  68  23    50  60  19    43  52  14    37  47   4    51  64  13  
  35  42  11    26  30   2    22  25   2    41  43  22    52  51  35    37  35  23    24  21  11    23  20  13    27  26  22    27  26  22    15  15  10    23  23  14    26  29   9    67  73  36    70  80  19    40  51   1    43  52   4    58  66  27    71  82  39    37  48   6    40  52  12    26  39   1    39  53   1    50  65   9    66  80  22    68  82  23    59  73  14    55  68  12    66  79  26    84  96  44    61  74  24    44  58   9    52  64  18    38  49   6    43  51  10    58  66  27    45  51  13    41  47  10    38  44   7    35  44   5    39  52   6    38  51   6    14  27   2    37  50   7    63  76  32    23  34   2    21  32   2    35  46   6    46  56  13    38  51   1  
  38  42  19    34  37  16    25  26  10    36  37  23    28  26  16    19  16   9    24  21  16    33  30  25    25  25  14    21  21   9    19  19   8    20  21   7    45  49  24    60  66  28    40  50   1    33  43   1    30  40   5    40  49  23    34  44  18    20  31   1    27  42   1    21  38   1    51  71   2    73  90  18    63  77  15    59  73  15    58  71  16    57  70  16    75  89  33    87 100  47    61  75  23    42  55   7    55  67  19    53  66  20    59  68  24   102 110  68    58  65  26    29  35   2    46  52  16    40  48   7    44  58   9    57  74  22    47  64  17    57  72  33    31  44  15     6  16   1    20  32   1    42  55   9    52  65  10    60  74  13  
  39  43  19    45  48  28    40  42  24    31  32  18    15  15   4    23  22  13    26  24  16    22  20  11    22  23   7    16  17   1    19  20   5    28  30  11    47  52  21    56  63  24    43  52   8    38  46   6    31  40  11    22  30   9    17  26   7    28  38  11    31  47   2    53  72   9    80 101  25    82 100  26    58  71  13    28  40   1    29  40   1    42  54   8    41  54   5    34  47   1    30  43   1    39  52   5    48  60  14    42  54   7    48  58  10    51  60  13    38  46   4    52  60  17    52  59  16    45  55   9    50  68  11    69  87  32    56  73  30    37  53  19    14  26   3    15  27   4    32  43  10    39  52   8    49  62  14    90 104  46  
  51  55  26    41  45  19    38  42  19    35  38  16    23  26   6    31  33  15    26  28  10    25  27  10    18  21   1    21  24   3    34  37  17    40  44  20    41  48  13    47  55  14    44  52  11    38  46   9    33  42  14    25  33  10    23  32   9    50  61  28    46  62  12    58  76  13    65  86  16    74  91  25    67  79  31    31  38   5    26  35   2    44  54  19    44  56  13    37  49   4    41  53   9    51  62  19    58  70  25    51  63  15    54  67  13    59  70  16    56  65  16    46  56   6    48  58   4    46  57   3    57  73  13    49  67  13    43  58  19    32  46  18    18  30   4    18  30   4    30  40  12    49  61  26    72  82  43    57  68  23  
  44  51  14    40  47  13    43  49  18    37  43  12    26  32   3    40  44  16    37  43  13    39  45  17    25  30   4    29  34   9    44  49  25    52  57  30    43  50  15    44  52  11    47  57  13    39  49   8    31  42   9    36  46  15    42  54  18    58  71  26    59  76  22    61  79  20    45  63   6    38  52   3    43  51  14    34  39  11    27  33   9    31  38  10    33  43   7    35  46   6    40  50  12    44  55  14    55  66  24    54  66  18    54  67  12    72  86  30    68  80  28    50  60   7    79  90  31    71  82  24    44  57   4    38  50   5    39  52  12    22  34   4    13  25   1    24  32   8    26  35   8    31  40  11    34  45  13    30  41   7  
  46  54  14    53  61  22    48  56  19    35  42   8    29  36   3    45  52  19    42  49  15    37  44  10    33  40   8    35  42  10    49  56  24    58  64  32    40  46  13    27  35   1    37  49   3    43  54  11    30  41   7    23  34   2    43  56   5    51  66   8    51  69  10    56  73  18    55  71  23    40  52  13    29  36   3    37  41  16    32  37  14    33  38  14    38  48  13    40  51  11    43  53  16    45  55  18    41  52  10    32  44   2    38  51   1    51  64   8    53  65  14    48  60  10    71  82  24    55  66  12    41  48   6    31  38   3    40  48  11    30  37   4    23  30   3    26  34   8    30  39  12    34  43  14    35  46  15    32  42   9  
  53  60  23    54  61  27    33  43   8    33  43   9    43  53  19    49  59  25    43  53  19    41  52  16    41  49   7    45  55  11    48  56  14    46  54  17    27  36   9    19  28   2    34  45   6    36  47   8    40  51  21    34  46  10    56  72  10    62  79  10    50  69   5    36  53   1    37  52   9    46  58  22    46  53  19    35  40  10    21  25   3    29  34   8    40  48  11    46  54  13    51  61  24    43  53  16    40  52  12    40  53   9    45  58   4    44  57   4    44  56  11    43  55  10    45  58   4    35  44   2    24  27   1    28  27   5    40  42  18    29  32   4    20  24   1    24  30   2    37  46  16    36  46  11    41  53  13    42  55   9  
  57  63  22    67  74  32    45  53  12    44  52  12    44  53  16    39  50  13    40  53  14    36  51   5    50  65   8    58  73  14    48  58   7    31  39   1    26  31   9    39  43  24    43  50  24    29  36   9    21  29   5    40  51  18    62  76  23    57  73  14    48  65  13    34  49   5    15  27   1    25  35   6    52  62  29    31  39   6    20  28   2    22  30   1    29  38   1    41  53   9    49  60  20    39  49  10    39  51  11    57  70  28    48  60  14    36  47   3    38  48   8    43  53  13    54  65  19    56  65  23    38  42  10    37  39  10    51  55  22    53  58  22    42  49   8    31  40   3    48  59  18    48  59  16    48  60  13    66  79  30  
  57  63  18    64  69  22    57  61  15    56  63  17    42  51   6    31  44   1    48  65  17    46  65   9    50  70   3    71  88  17    67  81  24    38  46   5    20  26   1    33  36  18    41  45  28    32  36  17    25  33   6    33  43  11    45  57  16    29  45   5    24  38   1    28  41   8    17  26   4    20  29   7    34  44  16    24  35   2    31  42   6    27  38   3    46  58  17    58  71  25    44  55  12    38  49   7    41  51  13    45  55  18    39  49  14    35  45  12    38  46  12    31  39   4    35  43   5    57  65  26    52  59  21    49  57  15    49  57  12    60  69  21    56  68  15    65  78  25    80  93  41    51  63  14    48  58  13    58  68  26  
  53  56  28    59  61  34    55  57  27    51  57  20    70  79  35    76  90  40    59  76  25    57  77  16    64  85  12    73  90  15    61  77  14    56  66  14    56  65  23    56  62  27    51  57  21    35  40   5    36  47   3    48  60  12    59  72  23    41  56  10    31  45   4    32  43  10    24  33  10    29  38  15    19  30   3    33  44  10    41  53  15    49  61  20    64  76  33    58  70  27    36  47   6    33  44   7    26  35   2    21  30   3    29  35   9    44  50  26    42  48  22    25  30   4    27  33   5    51  58  27    60  67  34    41  49  13    36  44   4    51  60  16    36  48   2    61  73  25    82  94  48    54  65  23    35  43   6    29  35   5  
  16  18   3    32  32  21    36  37  22    32  36  10    62  70  29    83  95  45    66  84  26    66  85  21   110 130  58    97 115  44    56  72   9    67  78  22    51  61  10    44  52   6    34  42   2    42  50   2    57  70  17    68  81  28    73  87  35    53  66  19    39  51  10    34  43  12    22  30   6    22  30   6    43  54  22    41  53  17    36  48  10    50  61  23    46  56  19    41  51  14    32  42   7    18  27   1    28  37  12    12  20   1    19  23   7    40  44  28    40  44  27    25  29  11    24  29   9    34  39  19    28  33  10    17  23   1    25  32   1    36  44  10    28  38   1    20  30   2    46  56  20    54  64  30    42  48  21    31  36  13  
  22  26   6     8  10   2    24  26  12    40  42  22    29  37   2    45  58   5    75  91  23    63  83  12    65  84  21    61  76  18    71  85  33    95 104  58    34  43   1    22  28   1    32  38   2    34  41   5    31  41   7    24  34   1    27  38   4    38  48  17    44  53  26    35  43  20    28  35  17    39  44  24    56  65  34    46  57  19    26  36   1    38  48  11    37  47  12    38  47  14    34  43  14    19  27   4    35  39  22    22  26  13    22  25  14    29  32  23    27  29  19    28  32  18    30  35  20    28  32  17    19  22   3    36  39  18    22  27   4    12  18   1    39  46  16    34  41  10    25  34   4    36  45  18    54  59  37    32  35  19  
  47  53  33    36  38  23    19  21   7    20  23   1    22  29   3    47  57   5    78  92  22    65  83  10    46  63   6    39  53   6    58  72  24    62  70  27    35  44   4    29  35   2    35  40   8    32  39   8    28  37  10    29  37  13    31  40  17    37  47  25    40  48  27    31  35  17    23  27   8    24  29   6    25  35   2    39  49   9    30  39   3    32  42   5    42  51  18    38  46  17    34  41  17    36  43  23    36  40  25    25  29  17    19  22  13    19  22  12    25  29  16    37  40  28    37  41  24    23  27  10    32  35  15    32  35  14    30  35  12    39  45  18    30  36   9    28  34   9    19  28   1    24  32   7    29  34  12    27  32  14  
  30  38  16    47  53  33    29  35  15    21  27   2    41  48  14    58  67  21    67  79  15    65  79  14    49  63  11    39  52  10    55  67  23    60  69  25    52  60  16    44  51  11    27  34   1    34  41   7    34  43  14    30  39  14    19  29   7    22  31  11    33  41  19    36  41  20    33  37  15    27  31   4    31  39   3    31  39   1    29  37   1    28  36   1    43  50  17    46  52  24    43  48  25    34  38  20    28  32  16    23  27  12    22  25  11    24  28  11    30  35  16    36  41  22    32  38  15    21  27   4    26  30   6    37  41  16    49  55  28    39  45  17    22  28   1    19  25   1    21  30   4    25  34   6    25  34   8    24  32   9  
  30  41  13    33  40  17    32  40  17    15  23   1    30  36   5    67  75  38    63  70  30    40  47   7    25  36   1    28  39   5    29  40   4    55  64  21    62  70  23    49  57   8    33  43   1    48  57  11    42  52  13    23  32   2    18  29   1    15  23   2    21  30   5    27  32   9    31  35  12    32  37   7    45  53  11    50  58  14    37  44   4    26  32   1    35  41   7    35  40  11    44  48  23    32  36  14    21  26   5    20  25   3    32  37  14    39  45  19    28  35   6    31  37   7    42  49  17    32  38   8    34  39  10    40  44  17    47  51  24    34  38  11    34  40  12    42  48  19    35  44  15    31  40  11    36  45  18    31  39  15  
  37  47  14    23  34   3    41  52  21    29  38   8    40  47  16    57  62  36    34  36  18    19  21   5    23  30  11    21  29   5    33  39  11    45  52  15    41  48   5    43  51   4    66  76  26    78  87  40    44  55  12    32  42   5    22  33   1    26  37   8    33  42  15    20  25   2     8  12   1    25  30   1    53  60  18    48  56   9    44  50   9    50  56  19    37  43   9    37  42  12    40  44  17    40  44  19    36  42  15    29  35   7    29  35   5    47  54  20    53  61  25    46  54  16    46  54  15    43  51  14    35  40   8    31  35   8    36  40  15    35  39  14    31  37  10    31  37  11    24  33   6    22  31   4    32  41  14    52  60  36  
  36  48  10    27  39   2    39  52   8    60  71  33    71  78  47    35  38  18     8   8   1    15  14  10    16  19  10    12  14   4    37  41  24    37  40  19    29  33   7    35  39   9    55  62  29    54  61  28    44  54  21    37  47  18    15  25   1    28  38  13    41  49  25    42  48  24    35  40  16    44  49  19    59  64  24    48  54  11    50  55  15    64  68  33    59  64  32    54  59  29    38  42  15    43  47  20    45  50  20    44  49  17    55  61  27    65  71  33    51  58  17    47  54  14    58  66  25    54  62  23    44  49  19    39  40  19    28  31  10    23  26   5    22  27   7    32  37  18    39  44  22    23  28   6    19  27   4    41  49  26  
  27  41   1    62  80  24    44  59   6    53  66  21    47  53  22    13  15   1    14  13   7    19  15  13    13  13   5    12  13   3    22  24  11    28  29  15    41  41  25    36  37  18    16  21   1    20  26   2    28  38  12    33  43  16    30  41  12    36  47  17    36  48  15    44  54  21    55  63  28    43  49  14    51  55  18    59  64  26    54  58  23    51  55  24    69  73  45    48  51  26    29  32   8    28  32   6    34  39  11    38  42  12    52  57  25    62  67  33    48  54  18    43  48  12    54  61  25    52  57  25    39  41  15    32  34  12    22  25   4    29  32  13    26  30  13    24  28  11    33  38  18    25  30  10    20  29   5    21  29   5  
  36  51   4    86 104  41    66  84  25    46  60  12    26  33   2    22  23   9    19  16  10    16  12   7    18  17   5    13  14   1    18  17   4    34  34  21    39  39  26    33  34  19    14  18   3    28  33  12    34  44  17    35  45  15    32  47  10    40  54  13    53  66  23    47  58  13    54  64  18    55  62  21    69  73  37    66  70  39    39  42  13    37  39  15    41  42  23    30  31  13    31  33  14    28  30  10    28  32   9    25  29   4    22  26   2    33  38   9    42  47  18    39  43  16    40  44  18    40  44  20    30  32   7    29  31   7    35  38  15    53  56  36    44  48  29    19  23   5    17  22   2    24  29   7    33  41  16    24  32   7  
  55  68  24    58  74  24    46  62  13    25  37   3    21  28   1    26  27  13    17  12  10    22  17  17    16  13   6    15  14   4    26  23  13    41  38  29    33  31  19    25  26  10    27  30   9    32  38  10    36  48  11    39  51  10    36  52   4    39  56   4    57  70  19    56  68  17    64  76  26    93 100  57    70  73  41    50  51  25    19  22   1    25  27   8    19  20   6    26  26  13    37  37  24    36  37  22    26  28  10    27  30  10    25  29   8    20  23   1    11  15   2    21  23   7    37  39  25    31  33  17    27  30   2    38  42  11    43  48  20    41  44  21    38  43  19    28  33  11    20  26   2    26  31   5    41  50  20    36  45  13  
  33  42  12    29  40   7    30  42   9    16  25   1    25  30   7    18  20   5    22  18  17    18  12  14    19  14  11    25  20  16    23  20  12    21  18   9    25  26  13    25  27   7    42  48  18    40  51  12    30  44   1    30  47   1    37  55   1    43  59   5    53  67  14    71  83  35    45  55  11    17  23   6    17  19   3    23  22   3    29  28  13    20  20   6    21  21  11    15  15   5    21  21  11    33  33  23    23  25  11    33  36  19    30  33  15    25  28  11    25  27  13    21  23  10    24  26  15    26  28  14    28  32   6    44  49  19    46  52  22    24  31   1    21  28   1    25  31   1    20  30   1    38  47  13    55  64  28    64  75  36  
