P3
50 50
255
  52  29  13    82  56  42    73  46  35    69  41  29    86  59  43    87  61  38    79  53  28    77  51  30    71  43  30    66  39  30    58  35  23    63  41  27    55  31  16    52  24  10    69  38  24    65  33  20    56  27  13    52  23   9    50  22   8    66  38  24    70  41  27    58  29  13    58  30  14    66  42  24    56  35  18    42  23   8    44  26  13    44  29  17    37  24  15    37  27  15    34  25   9    52  44  24    50  40  19    41  30   8    38  26   2    39  24   1    41  25   3    42  26   2    45  31   1    46  34   3    43  34   5    32  24   3    33  24   9    30  21   7    31  20   2    39  29   4    38  29   3    53  45  17    53  47  22    44  39  18  
  54  29  12    53  26  11    58  30  18    58  30  16    62  32  15    59  31   7    62  35   8    70  43  18    62  34  16    47  21   8    47  25  12    55  35  21    59  35  20    60  33  17    68  39  23    70  42  26    72  45  29    64  36  22    68  41  26    72  46  31    76  49  32    77  50  32    80  52  33    75  49  31    71  48  32    58  37  24    47  27  16    48  30  21    39  24  15    19   6   1    32  18   5    57  44  27    66  50  30    63  46  26    67  46  25    70  45  25    76  49  33    86  59  44    75  52  33    65  44  23    69  52  34    67  51  38    58  41  34    41  24  16    33  16   6    46  29  13    56  40  21    55  39  22    36  21  10    39  26  18  
  69  48  31    35  11   1    45  18   9    51  23  13    51  23   9    53  27   4    48  23   1    38  14   1    40  14   1    48  26  12    33  15   1    46  30  15    51  32  15    44  22   4    50  27   9    48  25   7    50  27   9    68  46  30    59  38  23    53  31  17    55  32  16    62  38  20    69  44  24    70  45  25    66  43  25    68  46  32    65  46  33    50  33  23    35  20  10    26  13   1    28  11   1    50  33  16    76  56  35    82  56  35    71  40  20    67  34  14    76  41  24    79  46  31    64  34  15    50  23   2    51  29   9    52  31  16    47  24  15    46  23  13    47  25  12    51  29  10    51  31  10    61  42  25    61  43  31    60  43  36  
  71  53  39    47  27  14    64  41  30    62  38  26    51  25  11    54  30   9    69  45  21    63  41  18    56  33  14    57  34  20    53  36  22    42  26  11    44  27  12    41  22   6    49  30  13    51  32  15    45  26   9    48  29  13    51  30  16    53  31  17    42  21   4    40  17   2    57  35  14    65  40  22    50  26  10    48  27  13    52  33  20    43  25  14    34  16   6    31  13   1    34  15   2    55  35  20    65  43  26    59  33  15    62  31  11    64  31  10    61  26   9    64  31  16    63  33  16    56  29  10    55  29  12    56  33  18    54  31  20    69  47  35    59  37  23    50  28   9    48  27   6    48  27   9    41  19   6    33  13   3  
  52  35  25    69  52  41    79  60  48    72  51  38    60  37  23    43  20   4    47  23   8    66  40  25    69  43  28    59  35  21    57  35  22    45  26  12    35  16   2    41  22   9    44  26  12    39  21   7    42  23   8    43  22   8    49  26  12    54  29  15    52  26  11    49  24   6    47  21   3    57  31  16    63  39  25    49  30  16    44  26  13    45  28  15    68  47  36    62  39  29    38  14   4    38  17   4    43  25   9    42  24   7    44  23   6    60  33  16    60  34  18    63  40  24    62  40  23    53  30  14    49  26  12    60  38  26    60  39  29    50  31  20    36  18   4    30  12   1    39  19   4    56  35  18    63  40  25    52  29  15  
  33  20  11    40  25  16    48  31  20    47  28  15    48  26  12    43  21   7    41  18   4    43  20   6    44  21   7    45  21   9    43  18   6    47  24  12    46  25  12    50  32  20    56  38  26    45  27  15    38  17   6    44  21   8    58  32  20    78  52  39    80  52  38    74  47  30    59  33  16    48  24  10    49  27  13    45  26  12    50  32  18    47  28  16    58  36  25    58  35  25    48  26  14    44  23  11    43  25  11    43  26  10    41  22   7    43  22   5    34  14   1    37  20   3    36  18   2    38  19   4    44  24  13    40  20  10    41  22  12    34  17   5    29  13   1    29  13   1    37  18   4    60  40  24    74  52  34    66  40  23  
  39  24  17    38  21  13    43  25  14    43  24  12    46  24  12    45  24  10    41  19   6    41  18   5    48  24  12    61  37  25    56  32  20    60  37  25    60  39  28    56  36  26    56  36  25    50  30  19    46  26  15    46  23  13    42  16   5    54  27  15    58  30  18    67  40  26    58  34  18    55  34  19    51  33  19    44  24  13    52  30  19    39  18   8    30  11   1    33  14   4    53  35  23    53  34  23    56  35  24    58  36  23    59  39  26    63  46  30    51  35  19    38  21   6    38  20   5    45  26  12    49  29  19    43  23  14    41  22  13    44  27  17    46  30  17    37  21   6    31  13   1    51  30  15    69  44  27    56  31  15  
  37  24  16    34  19  10    38  21  12    45  27  17    49  30  19    49  29  18    47  27  16    46  26  15    47  27  16    54  32  21    61  39  28    54  33  22    52  33  21    42  24  12    33  16   3    38  21   9    46  27  15    50  29  18    53  30  20    57  34  22    44  20   8    45  22   8    43  22   8    39  22   7    40  24  10    47  27  16    72  48  38    63  41  30    38  20   9    31  17   6    36  22   9    52  35  23    60  38  27    55  31  19    47  28  14    53  37  21    45  32  16    34  19   4    38  22   7    44  26  13    38  20  10    46  27  18    44  26  16    45  27  17    59  42  32    56  40  27    37  18   5    37  16   3    47  24   9    43  20   5  
  37  22  14    35  19  12    35  17  10    33  14   7    42  24  14    52  34  24    55  35  26    50  31  21    39  21  11    35  17   7    43  25  15    37  21  11    38  25  14    35  24  12    31  21   9    35  25  13    39  26  17    40  26  16    39  23  13    42  24  12    39  23  10    43  27  14    44  30  17    41  28  14    40  23  13    38  18   9    49  26  18    47  26  17    37  20  10    40  28  16    36  24  12    47  30  20    48  26  18    38  16   6    30  10   1    37  21   6    38  25  10    41  26  13    46  30  17    47  29  19    38  19  10    44  25  18    41  22  15    37  19  10    45  28  18    48  32  19    47  29  15    51  31  16    49  26  11    38  15   1  
  40  25  18    43  27  20    43  26  19    35  18  11    43  24  17    45  26  19    36  19  11    33  16   8    37  20  12    45  28  20    30  13   5    32  15   5    28  15   3    29  18   6    37  29  16    37  27  17    29  18   8    36  23  14    38  22  14    36  19   9    29  15   4    28  15   4    31  19   7    39  26  15    44  28  18    42  23  13    38  18   9    37  18   9    38  21  11    45  31  20    44  30  19    44  27  17    41  22  13    43  23  12    41  23  11    42  27  14    37  23  10    34  20   8    35  21  10    40  24  14    45  26  19    35  16   9    34  15   8    37  20  10    40  23  13    44  28  15    50  33  20    52  33  19    47  26  12    44  22   8  
  32  17  12    36  21  16    40  23  19    34  16  12    41  23  19    42  24  20    37  19  15    36  20  15    34  19  14    31  14   8    47  27  20    50  31  24    39  21  13    34  19  10    44  30  21    44  27  20    42  24  17    48  29  23    42  22  16    44  23  18    45  25  19    48  29  22    42  25  17    40  21  14    40  21  14    40  23  15    32  18   9    33  18   9    34  16   8    37  17  10    38  18  11    38  20  13    40  25  16    46  32  22    43  27  17    38  20  10    32  15   5    29  15   5    26  12   3    39  23  15    56  37  31    42  23  17    43  24  18    53  35  28    46  29  21    36  19   9    42  25  13    49  30  17    45  24  11    41  22   8  
  34  19  14    33  18  13    37  22  17    39  22  18    42  24  20    34  19  14    36  21  16    52  37  32    52  39  33    38  23  16    48  29  23    55  35  28    43  25  18    35  20  11    33  20  11    36  20  14    46  29  22    49  31  25    47  28  22    53  34  28    46  30  23    51  34  27    46  31  24    45  27  20    40  20  13    34  21  12    32  19  10    40  26  17    45  27  20    45  22  16    42  19  13    38  20  13    35  21  12    36  24  12    35  21  10    51  33  23    57  39  32    44  31  22    36  22  13    47  30  22    54  35  29    42  23  17    39  20  14    43  25  18    42  25  17    37  20  10    39  22  11    43  25  13    43  24  11    49  29  18  
  36  21  14    37  21  15    38  20  16    35  17  13    33  15  11    29  14   7    42  27  20    42  29  21    42  29  21    37  24  16    31  18  10    28  16   8    30  21  12    33  25  16    26  19   9    33  24  15    40  31  22    41  29  21    38  25  17    34  21  13    33  22  16    34  25  18    29  21  12    33  18   9    40  22  14    37  23  14    26  16   6    39  27  17    62  44  37    66  46  39    43  23  16    32  14   7    30  18   8    30  20  10    36  23  14    48  29  22    53  35  28    50  36  27    38  24  15    35  18  10    38  19  13    32  12   7    39  20  14    45  27  20    32  15   7    41  26  18    46  28  20    40  22  12    38  18   8    36  18   6  
  33  18  11    36  19  12    38  21  14    43  26  19    51  34  27    50  35  28    40  27  18    30  17   8    24  11   2    34  21  12    33  20  12    31  21  12    30  21  12    21  14   4    31  23  13    39  30  21    28  18   9    36  24  16    31  17  10    35  22  14    33  23  14    24  16   9    27  19  11    38  25  16    39  22  14    35  21  12    33  20  11    38  25  16    45  29  20    42  23  16    34  15   8    45  29  21    47  33  24    43  31  21    38  25  15    32  14   7    28  12   5    33  19  10    37  21  13    33  14   7    34  14   7    43  23  18    47  28  22    40  22  15    39  22  14    44  29  20    41  26  17    50  33  23    53  35  25    35  18   8  
  32  15   7    37  18  11    60  41  34    69  50  44    54  35  29    52  35  27    33  16   8    28  13   4    38  24  13    48  34  23    45  26  19    45  26  20    46  28  22    33  18  10    34  20  11    47  30  22    43  24  17    44  24  17    45  25  17    39  18  13    38  19  13    42  23  17    45  29  22    37  23  14    32  15   7    38  18  11    41  21  14    34  15   8    30  12   3    33  18   7    39  24  15    36  18  11    51  32  25    69  48  43    47  27  22    27  10   3    36  21  14    35  21  11    39  23  13    42  23  16    37  17  10    40  18  12    37  17  10    36  19  11    35  18  10    37  23  14    38  23  14    46  28  20    46  27  20    41  24  16  
  60  42  32    62  43  33    53  35  25    41  23  13    35  17   7    29  11   1    31  15   5    50  34  21    46  30  15    43  27  14    49  30  23    57  38  32    63  44  38    58  40  33    46  29  21    38  19  12    42  21  14    38  15   9    41  18  12    33  10   4    33  10   4    41  21  14    53  35  27    43  28  19    31  18   8    37  16  10    45  22  16    41  20  13    34  18   8    37  24  12    34  21  12    35  19  11    46  24  18    56  32  28    44  23  18    29  15   8    35  21  12    36  21  10    38  20  10    42  22  13    44  21  13    43  20  14    39  18  11    40  21  14    36  19  11    38  24  15    40  26  17    37  20  12    31  14   6    41  24  17  
  50  30  19    49  29  20    38  18   9    44  24  15    46  26  15    51  31  20    57  39  25    56  38  24    57  39  24    38  22   7    31  15   7    37  22  16    35  21  14    37  24  15    51  38  29    46  32  21    52  35  25    60  41  31    45  25  16    58  38  29    69  51  41    48  31  23    33  19  10    38  24  15    46  32  23    60  40  33    64  41  34    52  30  22    35  20   9    31  19   7    30  18   6    34  18   8    44  23  16    42  18  14    32  10   5    33  18  13    39  23  16    39  22  11    41  22  11    37  15   5    41  17   7    41  16   9    38  14   7    33  13   6    32  14   7    35  20  13    34  19  12    40  24  17    38  21  14    36  18  14  
  89  70  56    81  61  50    64  44  33    61  39  28    77  55  42    65  46  32    52  34  19    39  21   6    42  25   8    57  40  23    43  27  19    32  18  12    34  21  13    31  18  10    41  29  17    43  29  18    47  29  17    50  30  19    54  32  21    61  38  30    60  41  31    41  23  13    30  15   4    34  20  10    41  24  17    50  31  24    63  43  35    68  49  40    55  37  27    36  22  11    39  25  14    35  17   8    39  20  13    40  19  13    35  16  10    36  18  14    36  19  11    41  22  12    48  26  15    63  39  28    67  40  31    46  20  10    51  28  19    60  39  32    43  24  17    33  16   9    34  19  12    41  26  19    40  23  18    35  20  15  
  62  40  27    73  51  38    78  56  43    62  38  26    57  34  20    62  40  26    63  42  24    62  41  22    76  55  36    86  67  52    78  59  52    46  28  22    34  17  10    27  11   3    34  16   6    32  11   2    46  23  12    69  44  33    71  43  33    50  23  14    48  24  14    54  33  22    53  33  23    52  32  24    46  27  20    31  14   4    26  12   2    43  28  17    65  48  36    83  64  53    78  58  49    44  26  17    34  19  10    39  24  17    33  16   9    36  17  13    49  28  22    44  23  11    50  27  15    75  52  40    82  55  44    68  39  31    77  51  43    87  63  57    59  40  33    44  28  21    39  24  18    36  21  16    35  20  16    39  22  19  
  46  32   6    71  56  34    95  80  59    97  82  60    79  65  39    70  56  29    75  61  34    90  74  50    80  63  42    70  51  36    64  47  39    42  25  18    26   9   3    50  33  25    96  78  66    78  59  45    74  51  38    99  75  61   100  74  61    89  65  52    95  73  59    92  74  58    83  66  51    67  49  35    64  45  33    59  43  30    50  36  23    44  29  16    38  19   8    40  18   9    56  33  25    78  57  48    74  57  47    66  52  41    67  51  38    60  39  28    61  36  26    69  43  31    64  38  25    48  22   9    43  16   5    53  27  16    48  25  15    38  18   8    39  20  13    46  29  21    30  13   6    31  13   7    47  28  21    45  26  20  
  71  73  28    41  39   4    71  69  31   108 108  66   124 127  80    80  84  34    56  56  14    67  60  30    77  63  44    83  69  55    45  35  23    45  37  26    37  29  15    52  40  25    91  76  60    98  79  62   107  88  70   113  92  72   100  81  59    92  76  53    97  82  59    68  57  32    65  55  30    85  71  48    79  62  42    93  76  58    75  58  42    61  41  28    68  44  36    72  45  38    71  44  37    67  43  35    73  50  38    71  52  34    74  55  34    71  50  26    58  31  10    74  42  25    81  49  35    76  48  34    64  38  25    39  18   6    38  21   9    33  19   5    43  29  16    68  51  39    73  54  41    70  46  33    78  50  38    81  54  43  
  71  80  28    42  45   3    61  65  21    78  86  34    97 109  48   122 134  73   107 114  62    44  43  12    52  43  25    73  61  47    46  40  26    49  45  30    55  48  32    63  52  36    58  45  28    63  46  28    64  47  25    76  60  34    74  59  31    66  56  25    82  76  42    77  75  40    55  54  17    65  60  23    73  65  29    56  45  15   101  86  60   103  86  66   102  84  69    86  66  55    82  62  53    83  63  52    65  46  33    60  42  24    72  56  33    84  68  43   103  79  57   118  84  68   106  73  58    73  45  30    60  39  25    50  33  20    30  19   5    32  23   8    50  38  23    66  50  35    67  48  32    66  41  25    69  40  23    76  49  32  
  47  52   9    41  43   6    49  53  13    49  58   3    57  70   2    90 106  36   110 123  63    47  51  13    40  36  13    30  23   4    41  36  20    39  35  20    52  45  29    56  45  29    45  32  15    59  44  24    53  39  16    44  32   4    50  40   8    52  47  10    65  66  24    73  77  31    65  71  22    48  55   3    69  74  21    58  60  12    49  49   7    73  70  34    66  59  31    53  42  23    53  41  26    72  60  48    88  77  65    65  55  43    55  48  32    78  70  54    86  69  53   102  74  60   125  98  83    96  73  59    72  54  40    59  48  31    39  30  13    39  30  13    53  44  27    66  54  36    84  69  49    90  70  49    74  50  30    77  51  34  
  33  34   4    35  34   9    63  65  31    63  72  16    59  74   3    50  68   5    91 106  43    51  58  17    25  25   1    32  27   8    37  34  17    37  31  15    49  42  26    46  38  22    53  41  25    53  40  22    53  41  18    55  47  17    66  61  26    65  66  23    62  70  18    60  72  15    60  74  14    63  77  12    71  86  19    85  98  37    64  74  19    44  50   6    39  41   5    46  45  16    32  29   9    36  32  17    48  44  33    34  31  21    50  47  38    53  52  44    20  10   1    40  20   8    57  37  23    76  58  44    76  63  47    61  52  35    68  62  44    60  55  36    53  46  27    57  48  27    89  77  54    99  83  60    74  57  33    73  55  33  
  17  15   2    38  35  22    63  65  39    51  60  11    76  91  22    60  78   5    78  93  31    51  61  18    25  30   2    30  29   8    34  31  12    41  34  18    44  37  21    42  34  18    50  41  26    45  33  17    43  36  13    53  49  19    72  72  34    63  69  21    64  76  19    62  77  13    59  78   8    75  96  24    98 120  47    65  86  15    94 111  49    60  73  20    46  55  12    39  44  11    28  32   8    33  35  18    35  37  26    46  47  40    40  41  36    18  19  16    21  15   9    42  27  18    38  23  11    46  33  19    53  44  29    50  43  26    60  55  36    60  55  35    51  46  24    42  37  15    54  47  23    60  52  26    54  43  17    58  48  23  
  15  11   9    22  18  15    36  36  18    61  69  24    76  91  25    61  78   9    71  85  29    49  58  21    32  36  10    34  37  14    36  34  13    49  44  24    42  36  19    42  34  20    31  23  10    31  24   8    35  28   9    50  47  21    64  65  29    55  63  16    53  66  10    50  67   4    78  99  29    65  88  16    85 108  38    96 117  52    99 117  57    74  87  36    63  72  29    44  51  16    26  30   4    38  40  21    37  39  27    48  49  42    31  32  27     4   6   3    21  19  13    38  29  21    39  30  20    42  34  22    34  28  14    23  18   2    32  29  11    46  44  24    55  53  30    58  54  29    50  46  21    50  45  18    55  49  23    54  50  23  
  15  13  16    18  16  19    27  28  15    63  71  33    83  97  39    80  95  39    68  81  36    49  56  28    36  40  19    35  37  16    38  38  14    49  47  23    44  41  20    45  39  22    32  24  11    31  23  10    35  29  13    45  41  20    54  54  25    56  61  21    53  63  13    46  60   6    96 111  49    71  88  31    42  59   6   129 143  93    92 103  58    41  48   8    41  45  10    39  40   9    34  32   7    31  29   9    52  48  34    54  52  40    25  22  12    13  10   3    23  20  13    34  29  23    39  33  25    31  24  16    28  24  13    32  29  15    31  28  10    31  29   8    42  40  19    51  49  26    50  48  24    50  47  22    47  43  18    37  35  10  
   8   8   7    14  14  14    31  33  19    48  55  20    62  73  24    64  76  29    52  61  26    38  43  22    20  23   4    42  44  22    77  80  49    66  68  37    45  44  18    27  24   4    30  24  10    25  19   7    33  27  15    42  36  21    55  52  31    53  54  24    51  56  18    41  48   2    58  66  18    73  82  40    52  60  25    54  60  27    39  44  12    31  33   3    37  36   8    39  35  10    35  30   8    43  36  17    61  55  38    49  43  29    30  24  10    30  25  13    26  23  13    26  23  17    22  18  14    24  19  13    28  24  14    27  23  11    29  26  10    37  34  16    35  33  13    32  30   8    43  40  18    49  47  24    37  35  12    26  25   2  
  20  26  12    13  16   5    25  29  10    41  48  14    38  47   4    41  49  13    39  43  16    26  27  10    27  27   8    36  36  11    78  84  48    70  76  39    44  48  17    32  32   8    23  20   3    30  24  12    34  27  18    44  35  27    49  42  30    54  49  30    42  38  15    28  27   1    33  32   3    39  40  16    39  40  24    29  26  11    29  25   8    38  32  15    36  29  11    40  32  14    40  31  14    49  40  23    58  49  32    37  27  11    36  29  11    38  31  14    29  24  14    22  17  14    19  14  11    30  25  21    25  18  12    28  21  13    36  28  18    42  34  21    46  38  25    43  37  20    40  35  16    41  36  16    40  35  15    44  39  19  
  25  36   7    28  38  11    59  68  37    72  80  41    63  71  30    49  55  22    42  44  20    37  36  18    40  38  15    53  53  22    47  55  14    71  79  39    63  70  35    41  43  17    25  24   4    25  22   7    29  21  12    31  22  15    35  26  19    35  25  16    27  17   6    27  18   3    31  23   7    27  22  11    20  16   9    17  12   6    23  19   9    32  24  14    32  24  12    30  21   6    42  33  18    56  47  30    59  50  32    40  33  14    31  24   5    41  36  16    36  30  17    23  18  14    24  20  16    27  22  18    20  13   8    26  18  12    28  19  11    35  26  17    43  35  24    43  35  22    37  30  14    37  30  13    41  34  16    47  42  23  
  24  42   2    57  72  27    90 102  59    84  93  49    71  80  37    52  58  23    46  48  23    49  48  26    48  45  15    52  54  15    41  50   7    58  69  27    58  67  30    44  49  18    34  36  11    22  19   2    23  16   5    23  14   7    24  13   9    37  23  20    35  20  17    32  16  13    33  17  14    28  18  15    14  11   6    14   9   5    19  14   8    23  15   9    32  23  15    36  28  17    35  27  16    50  42  28    56  50  32    54  50  31    40  37  18    38  37  16    26  24   8    24  20  11    25  18  12    26  19  13    24  15  10    29  19  15    26  15  10    31  20  14    38  26  18    39  26  18    29  19   8    27  17   4    34  25  10    37  30  14  
  43  64   1    51  70  12    70  85  33    77  90  40    67  76  31    41  46   9    29  31   2    35  35   8    39  38   3    41  43   1    38  48   5    44  57  14    47  58  19    38  46  11    30  35   4    19  19   1    32  28  11    31  23  12    27  17  10    33  19  16    35  18  18    42  24  25    37  19  21    24  14  12    17  12   8    24  18  12    28  21  15    23  15   9    25  16   8    29  21  12    35  27  16    35  27  13    29  24   7    25  23   3    26  27   6    33  35  11    27  27   7    35  31  17    25  19   8    28  21  11    31  22  15    29  19  13    25  14  10    25  14   9    28  15   9    30  17   9    28  15   7    36  23  13    50  36  23    46  36  21  
  57  78   7    45  65   3    59  75  22    81  94  43    73  81  36    52  56  20    36  39   7    38  39   8    45  47  10    40  44   5    31  42   2    31  42   5    35  45   8    38  46  11    42  48  14    35  38   7    48  47  22    36  30  11    21  12   1    37  24  15    41  26  19    34  16  15    33  16  16    31  18  15    30  21  14    32  23  16    35  27  20    33  23  15    28  18  10    32  22  12    28  20   9    36  31  15    39  37  17    20  21   3    27  30   4    33  38   8    34  36  10    53  49  28    41  35  18    37  29  16    34  25  15    29  20  12    25  15  10    24  13   9    26  12   9    29  16  10    31  16   8    42  26  17    56  40  28    51  38  22  
  49  71   1    47  67   5    35  50   1    55  68  21    58  68  25    48  55  15    33  38   4    36  40   7    51  55  21    50  55  19    28  38   4    33  44  10    31  41   5    37  46   9    53  61  24    62  68  32    68  70  37    52  49  20    33  27   4    30  21   4    37  25  13    39  25  17    38  23  18    41  28  20    39  26  18    34  21  13    37  24  16    43  30  22    42  29  21    42  29  20    50  40  28    55  49  31    60  59  35    40  42  14    52  57  25    56  61  28    46  48  16    60  55  28    56  50  27    41  34  15    32  25  10    35  27  17    35  26  20    30  21  16    32  21  17    35  22  15    33  18  10    39  22  11    48  31  17    49  33  18  
  49  70   2    54  73  15    32  47   5    29  41   1    47  56  14    55  62  21    44  50  14    46  51  20    57  62  30    55  62  31    52  61  32    44  53  23    33  40   8    42  50  14    59  68  29    70  77  36    77  81  41    74  75  38    41  40   7    26  23   1    33  27   5    39  29  13    49  36  26    44  28  20    38  19  12    40  21  14    45  26  19    49  30  23    50  32  24    41  24  14    58  45  29    59  49  29    57  53  24    49  48  15    61  66  26    66  72  30    51  54  15    62  57  24    59  54  24    42  36  12    34  29  10    37  31  18    39  31  23    34  25  19    35  25  21    36  23  17    37  21  13    46  29  18    55  37  23    61  44  29  
  61  80  16    60  78  22    46  60  14    32  44   1    52  64  22    58  66  28    43  49  14    44  48  19    53  57  29    59  65  39    60  69  40    61  70  40    51  59  27    48  56  20    39  47   6    56  64  21    72  78  36    71  75  35    52  53  18    36  32   3    42  36  12    42  33  15    35  25  10    45  30  18    45  27  17    48  29  22    45  27  20    45  26  20    57  39  32    53  36  28    38  25  11    51  41  22    49  44  18    46  45  12    49  51  13    62  68  24    57  62  19    68  67  30    58  55  23    45  40  13    39  32  14    33  25  10    32  24  12    35  27  17    36  27  18    28  19   9    31  20   7    45  30  17    50  34  20    55  39  24  
  61  74  18    63  78  24    63  77  26    62  74  27    56  68  25    40  48   9    40  45  12    39  42  15    37  39  16    42  46  21    47  57  23    58  68  33    62  72  35    50  61  22    42  50  10    49  55  15    62  66  27    77  78  42    65  63  31    41  35   9    37  29   8    38  26  10    31  19   6    35  23   9    53  41  27    38  24  13    39  24  17    36  21  16    51  36  32    36  23  17    42  30  23    51  42  30    36  30  11    42  40  14    47  48  16    69  73  36    58  63  23    61  66  27    56  56  24    47  43  17    42  34  16    31  22   6    52  43  29    59  52  37    29  24   5    39  34  15    38  33  14    37  31  13    43  34  21    51  41  29  
  44  54   2    62  75  21    86 100  46    80  92  43    75  86  42    46  54  18    24  30   1    28  31   5    36  38  15    35  37  13    31  38   4    49  59  21    63  74  34    59  70  29    54  62  21    46  53  13    38  44   4    53  56  20    64  61  31    55  49  23    52  44  23    55  45  27    50  39  23    44  36  18    36  29  10    39  30  15    48  38  26    51  40  33    36  25  19    43  32  26    74  66  58    54  47  34    32  28   9    34  34   8    42  45  13    65  69  32    55  62  21    45  53  12    68  73  38    48  47  19    39  32  11    38  30  11    52  43  25    60  54  33    45  43  20    45  45  19    39  39  15    42  40  20    47  42  25    46  38  25  
  51  61  11    69  79  27    80  92  41    71  83  35    69  80  37    57  65  29    50  56  25    44  47  22    41  43  21    47  49  25    44  49  19    53  59  24    51  57  21    55  61  24    63  69  31    44  51  12    29  36   3    41  45   6    43  44   9    54  53  22    65  61  35    67  62  38    64  59  37    47  44  19    39  37  14    70  65  45    87  82  64    76  69  54    44  36  23    75  67  54    74  68  54    49  46  28    34  33  10    37  39  10    44  50  15    47  54  13    40  50   6    47  59  14    74  81  42    77  79  46    41  37  11    29  23   1    36  31   9    51  48  24    60  60  32    59  59  31    50  50  22    52  51  27    52  48  27    42  37  18  
  50  59   9    66  77  25    67  80  28    65  77  30    63  74  32    64  71  35    80  85  54    67  71  45    39  42  18    34  36  12    57  60  31    61  64  33    42  47  12    43  49  12    57  63  25    52  59  18    49  56  15    51  57  16    54  59  21    56  60  25    60  62  30    66  67  35    60  61  30    50  52  21    71  74  43    76  76  48    67  67  42    54  52  29    48  45  24    48  46  25    46  46  22    47  47  22    36  39   9    44  49  15    56  64  25    46  55  13    37  51  10    55  71  22    37  50   5    94 101  62    80  81  49    47  47  17    37  36   8    45  46  16    61  62  30    59  64  31    56  58  27    50  50  21    44  42  16    31  29   8  
  48  55  11    58  67  20    72  81  34    61  72  26    66  77  34    73  81  45    73  80  48    55  60  32    34  38  13    34  37  13    52  52  24    48  49  18    41  44  10    52  56  20    68  73  36    68  74  34    60  67  25    62  70  27    81  90  47    90  98  57    66  74  35    45  52  14    55  61  25    58  66  29    76  84  47    73  79  43    62  67  33    34  38   7    42  43  13    41  42  11    48  51  20    60  65  31    44  51  14    58  66  26    74  85  42    76  90  45    68  85  34    76  95  40    49  67  14    54  67  20    80  87  47    85  89  55    71  72  40    47  48  14    37  40   5    42  46  11    55  58  23    51  52  19    49  49  18    44  42  16  
  59  65  21    52  61  14    61  70  23    61  72  26    60  71  29    60  68  31    65  72  39    55  60  31    43  47  21    56  58  32    40  40  12    41  42  11    57  59  26    63  67  31    64  71  31    69  77  34    57  66  22    61  70  25    86  97  53    88  99  56    68  79  36    55  65  23    63  73  31    50  61  19    56  67  25    66  76  34    57  65  25    41  48   9    54  59  22    64  69  32    55  61  23    62  70  29    51  61  19    68  79  36    78  90  47    88 104  57    84 103  51    84 105  47    86 106  49    46  61   9    84  92  48    80  86  47    81  84  47    60  63  26    30  34   2    33  37   2    53  55  18    57  59  22    60  60  25    60  61  29  
  39  44   4    36  43   3    56  64  18    63  72  28    60  68  27    58  66  27    68  75  41    56  63  31    45  51  21    61  64  35    51  52  21    46  47  16    56  58  25    68  72  35    65  72  31    56  63  21    53  62  17    66  76  31    60  72  26    61  72  29    69  80  37    62  73  31    68  79  37    65  76  34    56  68  25    56  69  25    75  86  43    81  89  46    66  73  29    72  79  35    56  63  19    49  58  13    48  58  13    59  71  25    63  76  30    68  84  37    70  89  37    79 100  42    90 110  53    49  66  13    65  76  31    71  79  37    71  76  37    70  73  36    49  51  14    45  47   8    51  51  13    57  57  19    55  53  17    56  56  24  
  47  52  11    59  66  21    61  69  22    53  61  16    58  67  24    51  59  20    54  62  26    62  69  35    54  60  26    37  43   9    55  60  26    55  60  26    50  56  19    67  74  34    63  72  29    41  51   7    57  69  23    80  92  46    56  68  22    41  53   9    60  71  28    61  72  30    61  72  30    68  81  38    81  94  50    57  70  24    67  79  33    87  96  51    73  81  35    78  86  39    77  86  39    51  61  14    49  61  13    47  59  13    58  71  25    62  78  31    63  80  29    69  90  32    81 101  44    73  90  36    37  50   2    53  62  19    55  60  21    56  58  21    50  50  14    49  49  13    46  43   8    56  54  17    52  50  12    56  57  22  
  79  81  41    79  82  39    60  66  20    48  55  10    49  57  14    51  57  20    59  65  29    67  73  38    43  49  15    27  33   1    61  69  32    62  70  31    61  69  29    64  72  31    43  54  11    35  46   3    67  78  35    77  88  45    53  62  19    37  45   4    31  39   1    50  56  18    58  65  27    57  67  26    61  73  30    59  70  27    54  64  21    65  73  29    72  79  35    74  82  38    75  82  35    50  59  12    54  63  18    51  62  16    58  71  24    60  73  28    50  67  16    55  74  18    66  85  29    72  86  35    38  50   2    50  57  15    60  63  25    67  66  31    66  61  29    53  48  16    51  46  14    71  67  34    59  57  19    51  51  16  
  77  79  38    69  73  29    54  60  16    54  60  16    50  57  15    39  45   7    46  52  14    69  75  39    56  62  26    39  45   9    63  74  34    52  62  22    43  54  13    45  56  14    47  58  15    49  62  18    59  72  28    68  79  36    59  68  27    33  41   2    22  28   1    38  44   8    49  55  19    44  53  15    46  57  16    53  63  21    50  58  17    60  67  25    73  80  38    69  75  32    59  66  22    53  61  17    60  69  24    57  68  22    54  66  20    49  62  18    46  61  13    45  62   9    46  61   8    66  80  29    65  74  29    40  46   5    55  57  22    64  62  30    54  49  20    46  39  11    62  56  27    70  65  34    60  56  22    52  53  19  
  72  74  35    60  62  21    53  56  13    52  56  15    56  61  21    48  52  15    39  43   8    54  58  25    55  59  25    56  62  26    63  73  36    47  59  21    38  50  11    38  50  10    57  69  29    67  79  39    61  73  33    72  83  43    63  72  32    29  35   3    26  30   1    36  40   7    44  48  15    50  57  23    43  51  14    41  49  12    45  52  14    49  54  16    60  64  25    68  73  33    68  73  33    62  68  27    65  73  30    58  69  24    40  52   6    38  50   5    40  53   7    32  44   1    47  59  12    75  84  37    61  70  28    38  42   7    65  64  32    57  52  25    55  48  24    55  45  22    60  50  25    58  52  23    63  60  26    48  49  14  
  47  49  12    50  52  13    56  58  18    56  60  20    63  67  30    55  59  25    42  45  13    47  51  19    47  50  18    55  61  27    45  55  20    39  50  15    37  49  13    37  49  12    54  66  28    63  74  36    52  63  26    61  71  34    50  59  22    31  37   2    48  54  20    48  52  20    43  46  15    38  43  11    42  49  15    50  56  22    48  53  19    38  42   8    41  43   8    49  53  16    61  65  28    50  57  16    57  65  23    54  65  20    31  44   2    37  50   4    45  57   9    39  48   1    57  67  20    73  82  37    44  51  11    30  34   5    52  50  19    47  41  16    45  37  16    48  37  17    57  48  26    67  61  33    74  73  40    54  55  21  
  50  50  18    56  57  22    52  54  18    52  54  21    63  64  32    61  62  31    48  48  20    45  45  17    39  39  11    51  54  25    37  44  16    34  43  14    34  43  14    38  47  16    45  54  23    44  54  20    40  50  16    55  65  30    49  57  23    33  39   5    48  54  20    50  54  21    50  53  21    37  42  10    27  34   1    54  59  27    74  79  47    45  48  17    33  37   6    48  51  19    36  40   7    35  41   3    47  55  13    48  59  13    36  50   1    55  69  20    52  64  17    52  60  16    64  72  27    89  97  52    88  97  54    64  68  32    43  43  13    38  34  10    49  41  23    63  51  35    51  43  23    65  60  34    76  75  42    62  66  31  
  58  59  28    61  62  30    49  50  18    44  45  14    50  50  22    51  51  25    44  44  19    41  41  17    33  33   9    45  47  23    39  42  21    31  36  14    29  34  11    36  42  16    35  44  17    30  39   9    28  37   6    41  51  18    62  70  36    53  60  26    48  55  21    56  62  26    64  70  35    71  78  44    44  51  20    39  44  14    49  54  24    37  40  11    49  53  24    45  50  18    40  46  13    47  55  18    45  54  13    40  52   7    49  65  14    84 101  49    66  78  29    57  64  21    70  78  34    88  97  52    98 107  64    95 101  64    60  61  31    58  53  32    49  40  23    52  43  26    54  47  26    53  52  24    49  54  19    70  74  37  
