P3
50 50
255
  56  46  34    57  49  36    30  24   8    35  23   7    64  39  24    75  46  32    36  13   1    82  56  39    93  58  38    87  50  32    67  37  27    29   2   1    43  17   1    82  57  37    79  54  37    69  43  27    98  65  49    45  20   7    27  20  14    19   8   2    55  22   5   103  62  40    89  58  38    48  26  12    20   9   4    32  15   6   128  92  70   152 108  80    88  52  27    67  39  18    64  45  31    73  51  38   130  96  77    94  63  42    26  14   2    37  34  25    27  18  10    79  66  57    60  41  29    55  31  14   128 101  72   186 157 125   187 162 132    64  43  13    69  60  21    93  89  51    70  69  38    48  49  18    58  60  22    67  69  29  
  58  50  37    66  60  45    29  25   9    26  17   1    64  41  27    64  36  22    29   7   1    71  47  27    94  60  35    95  60  41    62  37  26    25   5   1    36  14   1    74  54  32    73  56  40    60  43  28    57  33  21    36  18   7    22  20  15    17  11   3    71  38  20   114  74  52   112  86  63    44  26  10    18   6   1    57  39  28   135  95  70   131  84  54    77  40  11    77  47  23    73  54  39    60  38  24   115  77  52   105  72  48    29  20   7    22  23  12    35  26  11    91  74  59    59  36  24    64  37  22   111  83  57   158 130 101   118  92  66    47  27   6    83  72  35    76  72  33    44  45  10    44  49  12    49  56   9    48  55   7  
  58  49  38    60  53  40    32  25  11    34  23   9    72  54  39    62  40  23    32  13   1    62  38  17    90  60  35    98  69  47    51  33  19    26  10   1    47  29   9    58  40  19    45  30  14    38  25   9    26   8   1    33  20   9    19  20  14    23  17   9    87  56  36   104  66  42   103  75  52    47  28  10    18   4   1    73  54  43   129  89  64   118  71  41    95  56  27    93  63  40    91  71  57    49  26  13   101  63  41   115  80  59    46  35  22    14  10   2    68  55  31   123 103  80    45  17   3    85  55  41   141 108  90   112  80  62    96  67  53    80  57  38    76  66  30    53  51  10    56  60  18    71  79  33    67  77  21    49  59   3  
  56  44  36    44  34  25    38  28  18    47  33  21    48  29  15    54  30  14    51  24   8    66  35  16    87  53  31    91  60  39    39  20   6    32  14   3    53  32  15    52  28  12    40  20   6    36  20   6    25   8   1    33  20   9    21  18  13    38  27  19   104  71  52   107  70  44    99  71  47    57  36  16    19   4   1    59  37  25   111  71  46   103  57  28    79  39  12    91  60  39    83  62  48    42  18   7   103  65  46   122  87  67    45  30  17    18   8   1    88  68  46   121  95  73    46  15   1   109  75  61   155 119 101   125  91  73   103  74  60    98  76  53    60  51  10    58  58   8    78  86  35    75  87  33    75  89  29    69  81  21  
  49  36  28    38  25  17    46  33  24    46  30  19    29   7   1    63  36  23    86  50  36    81  42  25    81  44  23    75  42  23    33  10   1    46  26  15    67  40  27    62  32  21    51  24  13    45  24  12    27   9   1    30  13   3    23  12   8    38  22  15    95  61  41   101  64  38    91  61  35    39  17   2    23   5   1    50  28  14   103  63  38    78  33   4    85  45  19    84  53  31    39  15   5    47  20  11   127  89  73   129  92  74    34  12   1    49  32  18   141 115  98    91  60  42    59  26  11   119  82  66   128  92  71   111  76  55   101  73  53   111  90  64    57  50   3    66  69  14    59  68  15    58  71  17    78  92  32    77  88  29  
  42  27  20    43  28  19    49  32  24    44  26  16    36  14   4    82  52  42   105  65  53    86  43  27    80  39  19    71  36  17    34   8   1    52  28  16    94  65  55    69  36  28    53  24  16    67  43  33    36  19   7    35  18   8    33  18  15    41  17  13    82  47  28    99  62  39    91  61  35    49  25   1    35  13   1    67  39  25   111  71  48   107  61  35   100  60  35    72  39  20    28   1   1    57  30  22   135  97  84   134  97  81    59  33  18    56  32  18   121  93  81    57  24  11    70  34  18   147 111  89   157 122  94   116  83  54    87  60  36    96  78  46    72  66  19    76  79  26    58  66  17    58  69  22    78  88  37    66  75  23  
  49  35  25    49  32  23    49  31  21    54  37  27    26   8   1    69  45  34    97  61  47    78  37  20    78  41  22    63  32  15    32  10   1    48  27  14    82  58  49    46  20  14    45  20  10    76  55  44    37  23  10    34  22  12    38  22  17    41  19  13    89  58  41    89  55  33    69  41  15    55  30   7    40  16   1    80  51  35    98  57  35   108  65  40    86  48  26    65  33  14    41  14   5    39  11   5    93  55  46   121  83  70   105  75  58    55  27   9   116  87  69    74  44  23    82  48  25   142 107  80   156 124  93   159 128 100    87  61  40    82  65  39    65  61  19    70  71  25    71  77  37    59  67  28    65  73  30    67  72  24  
  55  41  29    46  29  18    53  36  24    70  55  44    19   8   1    46  30  19    79  49  35    69  34  15    80  50  30    44  20   2    34  17   1    55  41  25    54  38  28    35  16   9    47  28  16    57  40  27    26  17   2    39  31  20    48  35  28    33  14   5    71  43  28    68  36  17    61  34  11    61  35  13    47  21   5    80  49  34    91  52  32    86  45  24    72  35  15    88  56  40    51  25  18    39  11   8    73  38  30   122  84  71   115  80  60    55  23   1   139 112  85    84  58  28    66  36  10   119  87  56   132 101  72   126  97  75    88  63  50    74  56  39    57  52  15    50  52  10    49  55  18    52  59  25    53  58  20    49  50   8  
  46  32  19    46  30  17    53  37  24    59  45  34    20  12   4    37  22  14    56  28  14    59  28  10    82  53  34    46  21   2    42  22   5    64  48  33    39  24  17    34  18  12    54  34  24    62  43  31    36  23  10    52  39  28    57  41  33    29   9   1    60  33  21    59  30  15    50  24   3    73  47  27    59  32  15    64  32  17    82  45  27    77  38  20    65  30  10    86  56  42    64  39  34    31   5   2    55  23  18   132  95  82   107  70  45    88  52  23   150 121  90    91  65  32    55  26   1   104  73  43   113  82  59    99  70  54    71  48  39    65  49  34    52  50   8    84  88  37    65  73  28    38  45   6    47  49  16    62  59  26  
  44  30  17    47  33  20    50  36  23    48  34  25    21  10   6    43  28  23    53  27  14    53  21   6    69  40  24    40  12   1    50  23   9    72  51  38    41  26  20    25  10   6    69  47  38    67  44  32    45  26  15    63  44  34    46  26  16    32   8   1    66  41  34    52  25  15    37  14   1    75  49  32    66  39  22    58  26  11    83  47  30    88  51  35    62  31  13    60  32  18    69  45  39    42  18  13    42  13   7   118  84  69   110  69  42   131  91  56   159 128  98    72  42  14    72  41  13    97  65  39    89  58  38    99  71  57    67  44  36    68  55  34    58  58   7   100 109  46   109 119  64    55  63  19    38  42   9    60  56  29  
  37  25  14    35  23  12    45  33  21    51  38  30    26  13  12    42  25  23    49  23  11    54  22   7    68  36  21    48  15   2    59  26  11    73  45  34    34  20  17    24  11  10    71  47  39    58  30  19    37   9   1    60  32  23    56  30  18    50  23  14    58  36  30    39  17  11    39  17   3    67  44  26    67  39  23    65  34  19    70  37  23    63  30  15    41  12   1    83  57  44    77  55  46    39  18  13    29   2   1    81  48  33   121  79  47   113  70  35   120  83  62    44  11   1   100  65  43   106  71  49   111  78  59   114  87  70    60  41  26    50  42  12    70  75  11   114 127  52   111 127  62    76  90  36    80  86  50    57  58  31  
  42  30  21    32  20  11    36  24  13    37  27  19    28  18  18    37  23  22    53  34  20    60  35  17    63  37  22    51  21   7    61  29  14    74  47  36    30  21  18    19  11   9    44  26  16    50  23  12    37   9   1    44  17   8    71  46  33    72  49  39    44  23  21    33  13  10    43  23  13    58  35  20    63  35  20    71  42  28    68  36  24    46  15   4    43  15   1    81  58  44    86  67  57    45  25  19    40  15  10    75  43  28   115  72  37   127  81  46    96  54  38    49   9   1   133  95  75   114  77  55   105  72  50   122  95  75    31  12   1    61  52  22    80  86  24    87 104  28    65  84  25    36  54   5    30  42   6    47  54  21  
  40  28  19    31  19  10    38  26  17    41  31  25    19  14  12    29  22  19    53  43  29    48  33  15    43  24   9    48  25  11    64  36  22    71  49  37    17  14   9    19  17  12    58  43  29    59  37  22    35  13   2    34  12   2    68  48  33    85  66  53    40  23  21    26   9   8    35  18  10    54  34  21    60  34  21    65  36  23    70  40  30    57  27  18    37  13   1    47  26  14    76  57  47    42  22  16    28   7   3    76  46  30   117  76  41   141  94  60   102  59  44    54  12   3   150 107  87   110  70  46   111  75  51   106  78  55    41  23   9    59  53  24    82  91  35    68  83  18    43  60  11    43  59  16    80  93  50    93 103  61  
  30  16   5    36  19  10    62  44  34    73  58  50    22  13  10    23  18  15    34  29  23    25  18   9    27  13   5    35  17   8    65  45  33    60  42  32    16   7   4    27  17  11    88  68  52    79  56  39    29  11   2    25   7   1    62  42  26    74  55  40    32  21  15    22  14  11    36  26  21    43  30  22    40  21  11    49  26  15    63  37  31    51  25  22    32  15   8    38  21  13    59  36  28    52  27  18    34  13   5    69  43  26   127  91  61   127  85  57    63  28  14    67  30  18   138  92  74   100  53  30   152 114  84   105  78  48    52  42  10    49  51  16    74  82  35    60  69  18    59  65  18    89  92  47   111 114  71    99 102  58  
  37  21   8    39  19   8    65  44  33    89  69  61    36  21  14    16   9   3    21  20  16    22  18  17    21   7   6    35  17  13    63  49  38    40  26  16    25  11   8    32  13   7    75  49  32    70  46  29    32  17  10    25  10   5    55  34  19    60  41  26    23  16   6    16  15  10    31  25  21    30  21  15    31  20  11    44  27  19    49  28  25    36  16  15    34  23  19    25  12   6    31   8   2    74  47  38    52  30  16    56  31  11   151 117  92   125  90  68    30   1   1    86  53  42   134  87  70    94  42  20   149 107  75   107  81  44    72  66  27    86  93  52    72  79  40    44  51   9    53  54  11   106 103  60   143 141  96   103 100  56  
  50  34  21    47  27  16    58  36  25   101  78  70    60  43  36    19   7   1    16  11   6    26  18  15    25  10   5    35  16   9    43  26  14    25   8   1    34  16  12    45  26  20    62  36  19    56  33  15    35  20  13    25  10   5    50  28  14    57  39  25    27  20  12    17  12   8    28  14   8    25  10   3    28  19  12    27  16  10    34  15   9    43  22  17    51  38  30    34  24  17    25   7   3    56  33  27    52  26  11    78  50  28   143 111  88    93  62  43    28   6   1    77  51  38   127  82  66   108  58  37   150 105  76   114  84  50   113 104  68   102 108  68    79  90  50    39  50  10    54  62  19    83  87  42    55  56  12    25  26   1  
  53  36  24    62  42  31    38  16   6    65  42  34    47  27  20    31  16   8    28  16   9    20   7   2    36  15   8    63  39  30    45  27  14    27   9   1    37  19  15    63  42  37    73  50  34    59  37  21    27  13   4    24   9   2    54  35  22    58  40  27    32  22  16    23  13   7    34  15   6    34  15   8    31  22  14    25  16  10    33  14   8    61  41  34    60  47  38    29  19  10    34  19  16    55  35  28    88  62  45    82  53  32    57  26   7    44  17   3    27  11   1    74  54  39   113  73  55   115  67  45   159 113  87    99  66  36    99  88  54    87  91  55    69  81  44    56  68  31    77  90  46   112 122  78    65  73  29    48  51  13  
  50  33  23    70  50  41    31   9   1    46  22  12    53  31  22    54  34  24    65  48  38    29  10   2    38  11   3    88  60  50    64  44  30    23   5   1    36  16  12    64  42  36    74  52  37    56  35  18    25   8   1    41  25  17    61  43  32    42  25  12    21   5   1    60  41  34    60  36  25    23   4   1    26  14   4    64  53  45    57  38  30    56  37  29    51  39  29    27  17   8    46  30  23    52  31  22    97  73  56    71  44  24    88  57  39    91  64  46    21   9   1    94  78  60   114  78  58   117  72  50   152 109  83    88  56  28    70  56  26    77  79  47    87  98  63    90 104  68    60  75  33    50  64  22    73  85  42    75  83  44  
  49  34  23    57  38  28    34  13   2    61  37  27    71  45  34    60  35  23    87  63  50    48  22   9    54  22  11    97  66  55    69  47  34    29   9   2    37  14  10    58  35  29    63  41  27    42  22   7    27   8   1    59  42  34    58  43  34    23   6   1    64  41  30   147 119 110   117  89  78    45  21  13    61  41  28   120 102  89    71  52  39    52  34  23    49  39  25    31  20   7    62  42  29    59  34  20    60  38  24    67  40  24   148 116  97   144 114  94    32  18   4    89  72  54   112  77  57   109  66  44   140 100  75    90  59  33    61  47  19    47  47  18    57  63  32    71  82  50    71  83  45    32  45   6    38  51  10    60  69  34  
  74  60  49    52  34  24    31  11   1    56  32  22    54  28  15    59  30  16    96  67  52    62  29  13    86  49  34   111  77  65    58  36  23    25   5   1    42  18  13    62  37  31    60  41  27    33  13   1    29   7   1    65  47  37    50  38  29    23   6   1    89  58  43   160 125 109   118  87  76    88  61  49   119  94  75   124 102  82    38  17   4    72  54  40    62  50  34    31  18   1    87  61  43    75  46  28    28   5   1    98  75  59   154 119 100   153 121 100    53  35  15    84  64  45   106  71  51    82  41  21   151 115  91    96  70  45    65  53  27    47  43  18    41  42  15    54  58  29    52  58  24    33  41   4    48  58  21    71  81  47  
  67  53  42    62  44  34    37  17   6    52  30  19    64  37  25    62  33  19    99  66  47    75  40  20    98  58  41    83  47  33    36  15   3    27   9   1    53  28  20    72  46  39    52  33  19    28   9   1    43  20   6    62  42  31    35  25  16    35  18  10    80  44  28    98  56  38   115  78  64   103  71  55   107  79  57    95  69  45    40  14   1    67  45  30    45  29  11    47  29   9   130  98  77    60  28   7    30   4   1   116  89  72   144 109  89   108  71  52    61  33  14    70  42  23   119  82  63   122  84  63   117  88  63    77  56  31    50  40  15    44  39  15    59  54  29    61  56  30    37  34   3    23  24   1    28  34   1    33  40   6  
  45  31  20    63  46  35    35  17   6    61  39  26    84  58  47    45  16   3    88  55  34    97  61  38    85  44  24    77  41  25    25   6   1    32  15   6    65  40  32    66  39  30    37  18   8    39  20   5    69  40  25    56  32  18    15   5   1    46  32  24   107  73  54    99  54  33   103  61  41    94  58  38   101  74  52    52  27   5    64  36  17    81  54  36    32  12   1    75  54  30   129  97  76    60  25   6    40  10   1   116  86  66   104  69  49   130  93  76    80  46  30    53  18   1   150 112  92   131  95  73   102  76  51    74  58  32    51  44  21    45  39  16    61  52  29    70  61  35    60  53  23    49  46  12    52  56  21    53  60  27  
  52  39  27    65  49  36    26   8   1    62  42  28    65  42  31    42  15   2    77  45  23    97  60  35    82  41  20    91  56  40    30  11   1    46  30  23    83  59  49    56  29  19    24   6   1    50  31  16    81  51  31    59  31  15    23  13   6    55  43  35    82  50  30    82  38  15    93  48  24    90  52  29    71  46  25    44  23   3   117  88  67    90  58  38    40  15   1    97  72  47   110  79  59    45  11   1    60  27   4   128  95  71   130  96  78   170 136 120    77  39  22    93  53  36   138  97  77   104  69  47   104  82  55    81  68  42    44  38  14    39  34  11    66  56  32    75  65  37    67  60  27    74  71  35    85  89  53    75  80  47  
  57  45  33    67  51  38    36  18   6    57  39  25    36  17   7    53  30  16    75  44  20    78  42  16    72  33  10    87  54  37    36  21  12    53  39  33    76  52  42    55  28  17    28   9   1    53  34  19    89  55  34    78  46  27    33  23  14    34  23  17    69  39  21    92  51  27    87  45  20    79  42  20    47  25   6    45  26   8   109  80  61    77  45  24    47  20   1   101  73  50   106  75  57    40   7   1    75  41  18   113  80  56   109  77  61   100  67  52    66  28  11   150 109  91   125  84  64    91  56  34   100  79  52    68  56  30    55  49  25    62  58  33    58  51  25    74  68  38    73  70  33    62  63  23    70  76  37    56  61  26  
  53  41  28    55  39  24    45  29  13    56  38  24    26   9   1    57  38  24    82  54  30    68  31   5    62  24   1    93  61  46    51  38  30    12   4   3    51  27  17    71  44  33    34  17   4    40  21   6    95  59  36    95  60  40    35  22  14    22  11   5    73  45  27    93  56  32    89  52  30    70  36  17    42  21   2    58  38  22    96  67  51    66  35  16    41  14   1    93  65  43   121  88  70    57  22   4    93  62  41   130 102  81   105  77  63    91  62  47    69  32  14   150 112  91   106  65  43    87  53  28   111  88  62    64  50  24    51  45  21    62  60  35    50  46  19    57  56  23    73  78  37    67  73  30    90  98  55    78  82  47  
  52  40  26    38  22   7    45  29  13    65  49  34    30  16   7    38  20   8    82  56  33    77  43  16    52  16   1    70  40  24    41  31  22    18   9   4    48  24  14    81  54  43    36  19   9    29  10   1    82  45  20    83  48  26    31  18  10    27  16  10    62  35  16    78  45  22    85  57  39    68  43  26    28   7   1    67  45  26    97  69  55    66  38  23    44  18   1    75  48  28   118  82  60    51  15   1    68  41  24    99  76  60   102  75  62   106  77  63    81  47  28   139 103  81    85  47  24    97  61  37   122  96  71    72  56  31    33  27   3    49  47  22    75  76  46    75  81  46    55  66  23    60  73  28    72  85  41    66  70  33  
  48  34  21    37  20   5    50  32  17    73  55  41    33  20  10    36  17   6    92  60  36    93  55  27    67  28   4    85  52  36    48  31  24    23   7   4    60  36  26    81  54  43    37  19  10    33  13   1    68  32   9    62  28   6    27  15   8    25  13   8    61  31  14    84  47  26    79  49  31    69  43  27    32  11   1    74  51  33   100  70  52    97  66  50    40  15   3    63  38  23   105  76  55    49  19   1    68  41  25    78  52  39    99  72  59    89  59  45   106  71  53   133  97  76    59  21   1    97  64  37   109  86  57    80  67  39    43  40  14    44  45  22    74  75  50    84  87  58    37  46  10    51  62  22    64  77  34    76  83  45  
  51  35  22    43  25  11    41  22   8    66  46  35    48  34  24    36  14   2    84  48  25    95  51  25    66  23   1    87  51  35    59  35  29    25   5   2    78  54  44    80  56  44    32  12   5    41  18   7    77  42  20    66  33  14    36  24  20    29  14  13    75  42  27    89  47  28    81  46  27    65  36  18    37  15   1    70  46  28    94  61  38    87  52  31    43  14   6    60  36  28    77  57  38    37  15   1   110  79  62   122  88  74    94  61  49    75  41  28   119  80  65   125  85  66    61  23   3    95  64  36    86  69  36    69  62  29    55  56  27    76  79  54    67  67  45    42  40  19    42  44  18    59  63  33    73  82  46    79  86  50  
  52  36  23    57  38  26    35  16   2    59  40  28    43  30  21    40  21   9    83  50  29    81  39  16    63  20   1    86  50  35    48  23  19    32  13   9    71  45  35    57  30  19    32  12   4    64  41  27    78  40  19    69  34  15    38  22  16    30  13  10    67  35  20    87  47  27    89  52  31    77  44  26    49  22  11    57  29  16    78  45  20    78  45  21    47  19   9    47  26  18    61  42  26    43  19   2   110  74  56   134  96  79    63  31  18    55  23   6   140 104  79   115  78  49    76  41  13   102  72  45    58  43  12    80  75  42    68  71  36    70  75  41    98 100  66    50  49  19    28  29   2    42  46  16    46  52  22    57  64  34  
  41  23  11    58  38  26    35  13   1    50  32  20    33  20  12    44  29  18    90  63  43    67  31  10    63  22   4    74  38  26    30  11   5    40  22  18    68  41  32    39  11   1    37  17   6    74  48  33    70  32  10    71  34  15    47  27  18    28  11   5    60  31  17    81  44  25    74  38  14    73  38  18    53  23  13    46  16   6    78  48  22    79  51  24    41  17   2    40  20  11    73  52  39    49  21   7    94  54  34   128  87  67    51  22   8    54  27   8   145 112  78    90  55  18    70  35   5   122  92  68    69  53  28    84  79  49    79  84  45    62  68  25    55  59  10    90  93  47   106 111  71    50  56  21    19  28   1    38  43  19  
  39  20   8    44  24  13    43  21   8    60  40  29    33  22  13    43  30  21    83  62  43    51  21   1    71  34  16    72  38  26    26  10   3    39  24  19    70  41  33    35   5   1    41  23   8    64  42  24    72  32   9    84  46  25    66  44  33    28   9   1    59  31  18    87  55  34    75  39  13    81  45  23    64  29  23    51  18   9    87  60  34    77  53  23    33  12   1    36  16   4    61  37  27    45  13   2   115  70  49   123  81  57    47  18   4    67  40  21   130  98  60    81  46   6    97  62  34   127  96  75    68  51  32    60  55  29    66  73  32    63  73  23    52  59   4   113 119  60   116 124  69    84  92  44    61  72  34    57  64  37  
  44  24  13    42  20   9    56  32  20    71  50  39    28  15   7    31  21  10    62  46  27    48  22   2    87  50  34    85  52  41    31  17   8    35  22  14    66  37  31    41  11   3    44  25  10    61  38  20    70  32  10    84  46  28    72  48  35    34  14   5    38  12   1    73  42  22    74  41  15    75  40  21    55  21  14    62  30  20    87  60  34    68  44  14    31   9   1    68  45  32    65  38  31    59  26  15   128  82  59   110  66  41    42  12   1    80  54  38   128  95  65    74  38   7   105  70  46   104  73  55    64  48  29    63  57  34    59  65  29    61  70  25    87  94  38    97 105  43    82  92  28    94 107  45    68  82  32    67  78  40  
  46  26  15    45  22  11    64  38  27    71  48  36    28  13   2    35  23   9    55  39  19    52  27   7    76  39  23    77  43  32    29  15   5    39  28  19    82  53  48    52  22  14    30  12   1    56  36  17    72  37  19    85  50  34    65  41  30    32  11   1    49  23   7    69  39  19    76  47  24    58  27   9    40   8   2    83  52  40    90  62  38    70  43  18    42  15   1    78  50  38    57  31  21   104  73  60   140  96  73   105  61  37    49  17   2    87  59  45   123  91  68    59  23   2    78  43  22    95  66  48    67  52  33    47  42  22    42  49  20    42  53  16    58  65  19    85  93  37   126 137  70   112 127  58    84 103  41    64  79  29  
  54  34  23    59  35  24    48  21  10    55  29  17    55  35  22    41  24   7    62  44  23    57  32  12    60  23   7    63  28  16    29  14   1    45  32  21    86  58  54    55  26  20    24   7   1    44  27   8    74  45  31    82  51  40    44  23  14    35  13   3    61  33  17    84  54  34    76  50  32    41  16   1    38  11   1   106  77  60    93  64  40    48  17   3    61  27  10    71  38  26    44  22   7   117  93  74   137  96  73   115  72  50    49  17   1    78  50  34   133  99  79    73  36  16   101  66  46   101  73  53    56  41  21    31  26   5    33  39  15    29  39  10    62  68  33   126 132  88   120 131  74   104 118  56   111 129  68    86 103  49  
  50  30  17    52  28  16    38  11   1    63  35  23    82  59  42    43  21   1    80  60  37    68  41  22    65  28  12    81  45  31    28  10   1    49  33  23    86  58  54    67  38  34    28  11   1    34  17   1    64  40  30    66  40  33    35  15   6    46  24  11    70  39  22    80  49  31    69  45  29    39  17   4    53  28   7   100  72  51    87  56  35    52  17   1    70  29  15    98  62  48    37  18   1    73  52  29   138 102  78   133  90  70    49  16   1    93  62  45   140 105  85    75  39  17   123  88  66   110  82  60    63  49  24    41  37  13    43  48  25    27  35  11    47  52  26    65  68  38    44  52  12    40  52   7    49  65  15    52  69  19  
  48  29  15    57  34  20    39  13   1    69  41  27    84  57  38    41  16   1    72  50  27    77  50  31    73  36  20    89  53  39    38  15   1    52  32  21    90  66  62    79  54  49    34  14   1    28  11   1    45  25  18    38  17  12    32  12   3    58  34  22    73  40  23    62  29  12    48  26  13    28   9   1    67  43  19    90  60  36    75  43  22    52  16   1    85  42  26   107  70  54    41  23   1    49  33   8   133  97  73   119  78  58    49  16   1   104  73  53   116  81  53    84  47  18   129  93  67    98  68  43    64  48  22    47  42  13    54  58  30    49  55  29    29  33  10    11  13   2    18  23   2    34  41  19    40  53  21    46  59  24  
  52  33  18    56  34  19    39  14   1    78  51  33    87  59  38    55  28   7    45  20   4    80  53  37    70  35  21    65  29  17    56  29  14    45  21  10    59  36  32    51  27  23    36  13   1    47  27  11    48  32  25    29  11   7    41  20  10    72  45  31    78  45  28    67  34  18    48  26  13    33  13   1    78  50  28    97  66  43    77  46  25    65  29  10   104  59  42   108  70  52    47  30   8    46  29   7   136 100  75   111  70  47    40  10   1    89  60  38    81  46  14   112  76  42   141 106  76   103  73  46    80  65  35    57  52  20    49  54  21    50  57  26    61  64  41    32  33  16    24  27  14    21  27  14    41  53  32    54  67  39  
  49  32  15    46  25   8    39  16   1    71  45  26    99  71  50    65  38  18    35  11   1    74  46  34    62  31  19    59  26  15    72  41  28    43  15   4    32  11   8    33  12   7    58  31  15    76  51  35    53  36  29    25   7   2    50  25  12    79  49  32    86  54  37    64  34  18    42  19   7    45  21   6    79  46  28    86  52  32    55  25   7    56  25   4   104  62  42   103  66  47    34  16   1    39  20   2   157 119  91   133  90  63    44  17   1    93  67  46    74  39  12   130  92  62   149 113  85   112  82  53    68  53  19    47  43   8    44  50  13    43  50  16    43  47  21    33  34  15    33  36  23    23  30  16    32  44  25    43  54  30  
  44  27   9    33  11   1    62  39  19    78  53  33    78  52  32    49  22   6    49  25  15    64  39  30    54  26  17    75  44  34    82  49  38    47  18   7    26   6   2    42  22  16    81  51  34    76  46  29    42  24  17    29  12   5    64  36  19    91  57  38    81  50  32    46  18   4    35  10   1    69  41  25   102  63  50    91  53  37    54  28   7    72  45  21   108  70  45    82  46  25    31  10   1    62  38  21   158 115  86   132  88  57    45  22   1    91  68  52    82  47  29   123  82  63   147 110  85   108  78  48    56  40   5    39  35   1    44  50  12    53  59  26    51  54  26    37  39  15    29  32  11    30  39  15    43  56  29    55  65  37  
  44  26   6    29   7   1    83  60  41    73  47  30    42  19   2    36  12   1    76  49  38    72  43  35    54  24  14    81  51  40    79  47  36    38  10   1    28   8   1    58  38  29    92  61  43    59  27  12    33  14   7    39  20  13    65  36  18    79  47  26    60  33  18    34  10   1    53  25   5    97  62  43   114  72  56    81  42  24    55  29   5    90  66  38    93  59  32    67  32  11    34  11   1    74  47  32   148 101  73   133  88  57    47  25   2    72  53  38    92  58  43   106  66  49   130  91  69    92  61  32    74  60  22    56  54  15    35  41   5    53  60  27    69  72  43    60  63  35    32  39   8    35  44  14    51  62  30    46  57  27  
  63  38  18    33   6   1    67  41  25    74  51  36    33  14   1    53  30  14   108  74  61    89  49  37    65  28  10    91  57  40    70  42  30    32   8   1    31   9   1    84  60  48    87  60  46    45  18   6    34  10   6    59  36  30    71  45  28    54  33  12    33  21   5    24   5   1    79  43  19   109  63  37    96  55  27    68  31   4    62  35   5    74  48  19    97  65  42    77  45  26    30   4   1    84  52  34   140  90  67   122  74  52    38  15   1    61  43  23   120  90  65   100  63  37   138 101  74    85  56  26    70  62  26    68  72  35    41  49  12    36  43  10    47  50  21    66  68  39    47  54  23    25  35   6    28  37   8    27  36  10  
  69  43  24    43  15   1    88  63  48    65  44  30    40  22   9    49  25  12    89  51  35    90  47  31    75  34  17   102  66  51    58  32  19    24   5   1    50  28  13    78  55  41    66  40  29    31   7   1    40  17  13    68  49  41    66  46  28    36  20   2    22  17   3    30  15   4   104  62  38   122  72  44    86  45  16    70  35   6    91  55  29    72  40  16    78  51  31    54  30  11    40  16   1   107  77  59   136  90  70   133  86  66    41  12   1    88  64  44   116  83  57    95  56  29   140  96  73    94  61  35    75  66  34    62  67  33    40  49  15    35  44  12    41  41  14    52  52  27    45  51  24    32  42  16    23  33   6    22  31   7  
  57  30  14    51  24   8    71  48  35    51  32  19    54  34  25    55  28  18    85  47  29    84  41  24    74  33  22    81  46  36    43  18   5    33  14   3    55  35  18    56  34  20    41  19  12    30   9   3    49  33  24    68  54  40    53  38  19    25  13   1    16  12   1    38  23  10    91  50  30   105  55  32    77  39  14    81  45  21   102  61  42    70  33  16    61  38  22    37  20   4    33  15   2    97  72  56   127  88  68   106  63  43    53  19   2   118  84  67    99  62  40    90  46  24   141  94  74   105  68  47    80  69  41    58  63  31    43  53  22    36  45  16    32  32  10    40  39  18    32  37  14    36  46  21    38  49  24    22  32   8  
  46  22   8    62  38  24    39  19   7    43  23  15    55  34  28    55  27  20    86  50  31    80  37  21    71  33  23    61  28  20    31   8   1    44  25  11    66  47  30    47  27  12    31  12   3    30  12   5    45  34  22    56  47  30    40  30  12    29  17   2    39  27  18    43  22  11    63  25   7    97  54  33    74  44  22    71  42  22    78  43  28    67  34  21    74  48  36    48  27  17    26  10   1    66  43  30   124  88  69    78  37  19    50  16   1   113  78  62    93  55  34   113  68  47   152 100  82    93  53  33    54  41  12    50  55  22    50  64  29    36  47  16    22  20   1    29  27   5    32  38  13    40  52  26    40  54  26    35  47  21  
  48  25  12    71  49  36    37  19   9    48  31  24    60  41  35    53  28  21    66  32  19    68  31  17    61  28  18    64  35  27    26   6   1    45  27  15    72  53  37    44  25  10    31  13   1    28  14   3    40  32  19    53  46  30    42  34  15    40  27  10    63  44  35    54  26  17    68  34  17    99  67  47    61  38  20    58  38  23    62  38  24    54  26  15    75  45  39    58  31  26    31  14   7    44  25  13   112  79  62    77  38  19    54  21   4   127  94  75    88  50  28   115  71  47   138  86  65    97  55  32    65  52  20    64  72  33    60  76  37    40  54  19    49  48  19    51  47  21    44  49  19    43  54  24    34  49  17    33  44  14  
  48  29  15    69  50  36    37  20  10    49  34  27    61  46  39    45  26  19    49  20  13    48  19   9    50  24  12    64  43  32    28   9   2    39  22  14    77  58  44    42  23   8    38  21   4    43  30  14    44  35  26    39  31  20    30  19   2    45  28  11    62  33  25    48  16   8    53  25   7    56  34  14    42  27  11    55  42  29    60  42  30    48  23  16    57  24  22    59  30  27    29  14   8    39  22  12   103  73  55    73  36  17    69  38  18   123  91  70    79  44  16   107  66  38   116  67  42    99  60  31    67  57  21    60  71  28    56  75  30    57  72  31    72  72  35    71  65  33    62  66  30    76  83  48    73  84  46    45  54  19  
  53  34  21    71  51  40    26  12   3    40  28  20    47  38  30    30  17  10    42  24  17    36  15   7    47  30  16    58  42  30    29  15   7    33  16   9    66  46  35    42  20   4    46  28   8    60  44  28    45  34  25    27  15  10    34  19   5    63  43  26    82  55  43    52  23  12    38  12   1    33  15   2    46  33  21    50  36  28    49  29  21    51  25  18    53  26  21    63  41  35    22  10   4    40  28  16   108  85  65    58  28   4    70  37  15    92  56  33    74  41  13   123  88  59   132  88  62   101  67  38    54  49  11    50  62  19    50  69  23    58  72  30    75  72  35    58  52  16    58  59  22    84  89  51    73  79  41    59  62  25  
  49  29  18    76  56  45    37  23  15    27  17  11    40  34  27    24  17  11    30  18  12    26  14   5    38  29  16    51  41  30    29  17  10    24   7   1    34  10   3    62  35  20    79  57  38    77  59  44    38  23  15    22   7   1    49  30  16    67  45  29    74  52  38    48  24  11    36  13   1    43  24  10    41  30  21    43  29  24    51  24  20    50  21  15    57  39  28    59  47  37    16   7   1    46  36  24   111  94  71    58  31   7    85  45  24   125  84  62    75  44  20   102  74  48   106  70  47    65  37  12    65  63  29    58  71  31    50  66  26    48  58  20    74  70  37    58  51  18    44  41   7    69  70  35    58  57  22    55  53  19  
  43  24  11    70  50  39    50  35  28    16   7   2    21  17  13    20  18  13    22  17   6    19  14   3    23  19  11    31  25  19    30  19  13    27   9   1    36   8   1    77  48  33    99  74  58    79  58  45    35  19   6    21   4   1    52  29  17    84  58  46    68  45  31    47  25  11    40  22   6    52  37  25    38  29  23    32  20  18    40  17  11    51  27  18    39  22   9    45  32  19    47  36  27    50  37  25    80  62  40    64  38  13    97  58  35   129  90  69    62  34  16    67  43  26    65  36  21    44  21   4    70  69  43    55  65  35    45  55  24    40  45  13    68  63  35    66  58  31    41  37   7    54  52  21    52  48  17    44  37   8  
  39  20   6    51  31  18    39  25  16    20   9   5    14  10   9    16  15  11    20  18   5    18  16   3    14  13   9    18  14  12    25  14  10    34  16   6    57  28  13    75  45  27    88  60  46    65  43  30    48  32  16    29  12   1    56  32  20    88  59  51    65  38  27    43  21   8    32  18   4    47  36  26    33  24  22    25  15  14    26  12   3    38  21   6    42  23   8    56  35  22   111  93  86    67  48  38    61  40  19    80  52  28    82  47  22   120  85  65    70  43  31    50  27  18    39  13   6    62  45  32    50  49  28    58  62  40    59  62  37    65  64  40    64  58  34    67  60  34    45  41  13    49  43  17    50  43  15    57  47  20  
