P3
50 50
255
  64  70  36    52  58  22    48  52  20    40  42  13    79  80  53    60  58  33    33  31   6    42  40  15    62  60  35    31  26   4    46  41  22    35  31  13    27  22   6    36  30  12    37  28  11    29  22   5    26  20   5    31  24  13    34  29  20    31  26  20    27  24  18    30  28  23    30  27  21    31  27  20    26  21  15    20  16   7    23  18  10    27  20  14    21  13   6    35  26  17    52  42  32    38  28  16    41  32  17    32  23   7    18   9   1    93  86  70   102  97  82    24  22   9    25  24  12    30  28  15    38  34  22    39  33  22    38  32  20    56  49  38    42  36  24    26  20   8    29  23  11    29  22  12    30  24  13    34  29  17  
  26  25   5    18  17   3    31  30  11    30  28  12    34  31  16    34  31  16    35  32  17    28  25  10    24  21   6    20  17   2    25  22   9    24  21  10    35  32  22    45  38  26    52  43  28    38  31  16    26  19   7    34  27  18    35  29  22    20  15   9    32  27  23    23  20  15    21  17  13    21  16  10    19  14   8    23  20  10    27  23  15    25  22  15    27  23  15    38  31  23    52  45  34    29  21  10    24  15   5    29  19   7    15   5   1    27  19  10   114 107  95    66  60  49    18  13   2    26  22  11    33  29  20    29  26  17    28  25  16    53  49  41    39  35  26    25  21  12    40  33  23    42  35  25    40  33  22    33  26  15  
  32  25  15    28  24  15    29  25  17    34  29  25    33  25  23    41  33  30    42  35  30    36  32  24    26  22  13    30  27  20    35  33  26    25  23  19    33  31  27    49  42  34    54  41  32    45  35  26    41  32  23    38  29  21    31  24  17    32  24  20    27  19  15    25  17  14    35  27  24    35  28  23    32  25  19    31  24  18    24  20  13    32  30  21    39  37  28    34  31  22    52  48  39    42  35  27    43  34  27    51  42  33    46  36  28    36  26  16    72  63  54    95  86  78    34  25  18    34  27  19    20  17  10    21  18  13    21  18  13    48  45  39    38  33  27    20  15   9    28  20  12    24  16   7    28  20   9    26  16   6  
  23  15  10    28  20  17    28  20  17    34  25  25    22  13  14    31  22  23    32  24  22    26  19  15    23  18  12    26  22  15    22  19  14    19  16  12    19  17  12    19  12   4    33  20  11    33  23  14    27  18   9    28  19  12    32  23  17    38  30  27    29  21  18    27  19  16    32  24  20    31  25  18    33  26  20    32  25  19    25  23  13    35  36  24    43  43  33    25  22  13    38  34  25    36  31  23    39  31  26    42  31  27    41  30  24    40  29  23    49  38  32   105  94  88    69  58  52    28  19  12    26  21  18    25  24  20    23  21  16    47  44  39    38  33  27    19  14   8    27  19  11    36  27  18    39  29  20    47  37  27  
  29  20  16    25  15  13    29  19  17    37  27  26    33  21  20    29  18  16    29  20  14    28  19  12    25  16   8    26  19   9    25  18   8    31  27  19    27  21  14    40  31  22    62  49  40    57  44  36    34  21  14    27  16  10    26  15  10    20  11   6    21  12   7    25  17  12    27  18  13    34  25  20    36  27  20    28  19  12    26  21  10    25  25  11    32  31  18    21  18   8    28  24  15    25  17  12    16   6   4    22  12  10    27  16  12    11   1   1    21  10   4    74  63  56    94  84  76    21  12   7    21  16  11    25  20  16    25  20  16    48  43  39    43  36  31    30  23  17    37  30  21    54  45  36    62  52  42    78  68  56  
  30  21  14    35  26  20    34  25  20    19   9   6    29  18  16    28  17  13    26  15   8    38  25  16    44  33  22    37  27  15    34  24  12    31  23  11    40  31  21    69  57  48    64  51  42    40  27  18    26  14   5    24  13   6    28  17  11    42  31  25    42  33  26    46  37  30    39  30  23    49  40  33    45  36  27    28  19  10    34  29  16    32  30  15    23  20   7    16  13   1    32  25  17    40  32  26    37  28  24    26  16  14    26  15  11    40  29  25    31  22  15    39  30  20    94  86  75    81  74  63    14   7   1    21  14   8    27  20  14    48  41  34    37  30  22    22  15   5    22  14   5    26  18   8    33  25  14    48  40  28  
  35  28  20    56  49  40    48  40  33    35  24  20    44  33  27    50  37  29    56  42  33    64  50  38    69  56  40    64  50  34    58  45  29    65  49  34    70  55  43    64  52  40    55  42  33    48  35  26    53  40  31    61  48  40    65  52  44    67  54  48    59  48  41    68  58  49    40  30  21    31  21  12    34  24  14    24  15   4    35  27  15    40  34  18    47  39  26    50  41  30    30  21  12    62  52  46    52  41  37    31  21  17    35  26  21    63  55  49    54  48  38    57  51  38    55  49  35   109 103  89    86  77  67    57  47  37    29  19   9    47  37  27    43  35  24    38  30  18    39  31  20    27  19   8    23  15   4    22  14   3  
  24  20   9    32  28  17    35  29  20    33  24  17    45  34  28    50  37  29    50  37  26    54  39  25    51  35  19    54  37  22    59  42  26    55  37  23    49  32  18    47  32  20    50  38  26    60  46  38    66  52  43    69  56  47    80  67  58    96  83  74    81  71  62    80  70  60    63  53  43    53  43  33    46  36  26    33  23  12    35  25  12    54  45  30    65  56  43    48  38  26    21  11   2    35  25  16    36  25  19    32  23  16    33  24  17    24  17   9    30  24  12    35  32  16    24  21   4    81  75  59   154 144 130    69  57  44    32  20   7    54  44  29    43  33  21    71  63  50    64  56  43    39  31  18    29  22  10    22  16   4  
  22  18   7    20  16   5    30  24  17    31  23  17    36  25  19    38  24  18    37  22  14    39  22  11    31  14   1    32  14   2    32  12   1    34  14   5    48  29  19    50  36  25    38  28  16    29  19   7    26  15   4    28  15   5    33  20  12    44  31  22    55  42  33    57  44  35    75  62  53    88  77  68    87  77  67    79  69  59    79  66  53    97  83  70   104  90  78    99  85  74    81  67  58    54  41  33    27  15   8    25  15   9    28  19  10    30  23  13    31  25  12    25  22   6    17  15   2    30  25   7   107  95  79    84  71  60    24  11   3    58  46  30    47  35  21    28  19   4    31  22   8    29  21   8    36  29  17    40  34  22  
  29  26  17    24  21  13    28  23  17    28  21  15    37  28  23    48  37  30    56  43  36    60  45  35    65  48  38    69  52  42    60  42  32    53  34  27    67  49  41    80  66  57    63  53  41    40  30  18    36  25  13    37  25  13    36  23  13    38  25  16    36  23  14    23  10   1    26  13   4    33  22  12    41  31  21    53  42  32    55  42  32    60  45  34    79  64  53    94  81  71   108  94  85   124 110 102   108  95  87    69  58  50    26  18   7    26  18   7    30  24  10    28  23   8    31  28  10    30  25   7    51  39  23   118 105  89    66  54  39    44  32  17    36  24   9    27  18   4    41  32  20    41  33  20    34  26  15    30  24  12  
  27  24  15    31  27  19    32  26  20    31  22  19    34  24  23    36  25  20    48  35  28    52  39  30    47  33  24    45  31  22    45  31  22    48  34  27    56  43  37    57  47  38    52  44  33    50  40  30    48  38  28    44  34  24    43  31  22    47  34  25    51  38  30    41  28  20    29  16   8    22  11   2    20   9   3    19  10   3    22  11   2    20   4   1    19   4   1    20   6   1    18   4   2    54  40  31    87  74  65   111 100  90    88  78  66    40  30  19    20  12   1    26  19   5    37  31  15    35  29  13    26  14   3    83  71  57   126 114 100    56  44  30    36  26  14    49  39  27    37  27  17    34  24  14    40  30  20    40  31  22  
  23  20   8    28  26  15    28  23  15    29  22  16    29  20  15    18   9   4    24  13   6    27  17   8    24  14   4    23  13   3    28  18   8    34  25  17    38  29  22    33  24  16    34  25  15    39  31  20    42  32  22    41  31  21    39  27  17    39  26  18    34  21  13    40  27  19    34  21  14    31  20  14    34  23  17    31  22  15    35  23  17    42  27  22    42  27  22    32  17  10    27  12   5    31  17  10    18   5   1    38  27  18    91  81  69    92  82  70    65  55  43    36  26  14    44  34  22    32  22  10    28  18   9    32  22  16   110 100  90    93  83  73    38  28  18    54  44  34    37  27  17    31  21  11    33  23  14    40  27  19  
  51  47  35    43  38  27    36  29  19    28  21  12    26  19  11    24  16   8    28  20  10    26  18   6    26  19   5    26  20   8    21  17   5    19  15   5    20  16   7    23  17   7    25  16   7    24  15   6    27  18   9    34  24  15    35  22  14    28  15   8    32  19  13    41  29  23    38  27  22    38  27  23    42  31  28    40  30  28    43  31  27    52  38  35    48  34  31    44  31  25    34  22  14    30  17   9    36  23  14    37  25  13    30  18   5    49  37  25   105  93  82    52  39  31    26  13   4    44  31  22    32  22  13    29  20  13    56  47  40   103  94  85    27  18   9    42  32  23    50  39  31    40  27  19    43  30  22    42  27  20  
  47  41  29    43  35  23    50  42  32    45  36  27    40  31  22    42  33  24    46  38  27    41  33  21    34  27  14    36  29  16    37  32  19    32  28  16    31  25  15    32  25  14    37  29  17    38  28  18    35  25  16    38  28  19    38  26  19    33  20  13    38  25  19    40  29  24    39  28  24    33  22  20    32  21  19    29  19  17    30  18  16    42  28  26    36  23  19    42  29  23    34  20  13    33  19  11    33  19  10    30  15   5    38  24  13    38  21  11    76  59  50    61  44  36    36  19  11    34  19  12    36  25  19    39  30  23    33  24  17    85  75  67    63  53  44    24  11   3    43  30  22    39  24  16    40  25  16    42  25  17  
  41  28  20    42  29  21    42  29  21    44  31  23    48  34  26    48  34  26    44  31  22    40  27  18    39  26  17    45  32  23    43  31  19    38  26  14    45  32  22    52  39  26    45  31  18    43  31  19    41  29  18    38  25  16    37  25  19    30  20  14    31  20  16    22  11   7    24  14  10    23  12   8    23  12   8    27  17  12    25  13  10    30  16  13    33  18  15    30  15  10    30  15   8    36  20  12    37  20  13    41  22  15    32  13   6    54  35  28    82  63  56    58  39  32    45  26  19    50  33  26    46  33  25    39  28  19    32  19  11    75  61  52   107  90  82    21   2   1    38  19  12    42  23  16    42  23  16    40  21  14  
  44  29  22    41  25  18    38  23  16    39  25  17    41  27  18    39  24  15    36  21  12    37  23  14    38  24  15    43  29  20    42  27  17    39  24  13    46  29  19    44  28  16    34  18   3    31  17   5    33  19   9    27  14   5    23  12   3    22  11   5    24  13   7    24  14  10    31  22  17    32  22  17    30  19  15    29  19  14    29  17  13    42  28  24    47  34  28    43  28  23    43  28  21    54  37  30    55  37  30    47  28  22    49  30  23    47  28  21    75  56  49    54  35  28    42  23  17    44  27  20    44  32  22    40  29  19    37  24  15    54  37  28   112  94  84    86  67  58    29   9   1    35  15   6    39  19  10    37  19   9  
  30  15   9    27  12   5    28  13   6    34  20  11    38  24  15    36  22  13    35  21  11    35  21  12    31  17   8    32  18   9    32  18   7    29  15   4    29  15   4    32  16   4    31  15   2    34  20   9    42  28  18    39  26  17    35  24  15    42  31  25    41  32  25    46  37  30    44  35  28    40  29  23    36  25  19    35  24  18    37  26  20    40  28  22    45  32  25    40  25  19    37  22  15    43  26  18    45  28  20    44  27  19    50  31  24    43  24  17    81  62  55    50  32  25    33  16   9    31  16   9    32  19  11    34  23  15    37  24  15    36  20  11    92  73  66   133 115 105    59  41  31    41  23  13    46  27  20    46  27  20  
  31  16   9    28  13   6    31  16   9    35  21  12    36  22  13    34  20  11    32  18   9    36  22  13    44  30  21    45  31  22    40  26  15    43  30  18    54  40  29    55  40  27    58  42  29    62  48  37    63  50  39    54  41  32    39  28  19    39  29  19    40  32  25    45  36  29    34  25  18    26  16  10    24  13   7    25  15   9    32  21  15    31  20  13    30  20  11    36  24  15    32  19  11    26  12   3    33  19  10    50  35  26    31  17   7    23   9   5    68  54  45    48  33  26    41  26  19    40  27  19    21  11   2    32  22  12    35  23  14    32  18  10    42  25  17   104  87  77   106  87  77    44  26  16    40  22  14    49  32  24  
  37  22  15    35  20  13    35  20  13    35  20  14    37  22  15    39  25  16    45  31  23    54  40  31    50  36  27    45  31  22    45  31  22    48  34  25    47  33  24    45  31  20    47  34  22    42  28  19    34  20  11    31  18   9    29  18   9    32  22  14    29  20  11    38  29  20    33  24  15    31  21  12    30  20  11    29  19  10    35  25  16    35  25  16    38  28  19    47  34  25    41  28  19    29  16   7    32  19   9    37  23  14    30  16   7    48  34  25    55  42  34    37  24  16    37  24  17    41  29  24    37  27  18    27  17   8    23  12   3    37  23  14    28  11   4    44  27  19   102  85  77    69  52  44    39  22  14    45  31  22  
  38  23  16    36  21  14    33  18  11    31  16   9    35  20  13    42  28  19    43  29  20    37  23  14    36  21  12    32  18   9    32  18   9    35  21  12    36  22  13    35  22  13    40  26  17    40  26  17    32  19  10    30  18   9    27  17   8    22  12   3    25  15   6    29  20  11    27  18   9    29  19  10    30  20  11    26  16   7    29  19  10    33  23  14    42  32  22    41  31  21    38  25  16    35  22  12    31  19   7    23  11   1    43  30  22    58  45  36    31  21  11    29  19  10    31  20  13    29  18  12    29  19  10    28  18   9    31  21  12    29  17   8    25  10   2    18   4   3    74  60  51    95  81  72    46  32  23    36  23  14  
  41  26  19    41  26  19    36  21  14    31  16   8    34  19  12    38  21  14    37  20  13    37  20  12    32  17   8    33  19  10    39  25  16    42  28  19    40  26  17    39  25  15    36  21  14    36  23  15    34  21  13    32  21  12    31  21  12    23  14   5    34  24  15    28  19  10    24  15   6    28  18   9    30  20  10    27  17   7    29  19   9    38  27  17    43  30  21    33  21   9    29  17   5    36  24  12    38  24  13    30  18   6    55  43  31    51  41  31    32  22  12    31  22  13    30  21  13    27  18  11    25  16   9    25  16   9    29  19  13    23  13   5    30  17   9    29  15   7    44  29  21    84  70  63    49  36  28    22   9   1  
  36  21  14    41  26  19    41  26  19    40  25  18    44  29  22    44  27  20    39  22  15    41  24  16    43  28  19    43  29  20    38  24  14    35  21  12    37  23  14    39  24  16    30  15   8    30  17   9    34  22  13    32  22  13    31  22  13    24  15   6    35  26  17    25  16   7    25  16   7    33  23  13    35  25  15    30  20  10    25  14   5    22   9   1    25  13   2    28  16   4    43  31  19    72  58  47    95  81  70   100  88  76    85  73  61    33  23  13    35  25  15    31  22  13    29  20  12    27  18  11    33  24  17    27  18  11    24  15   8    26  16   7    25  15   6    38  24  16    32  19  11    76  63  55    63  50  42    22  11   3  
  39  26  18    41  27  20    44  29  22    44  27  21    45  28  21    48  31  24    46  29  22    43  26  19    41  24  16    41  24  16    38  24  15    34  21  12    29  16   7    29  16   8    32  19  12    27  14   8    33  21  14    35  25  16    29  20  11    25  16   7    31  22  13    27  18   9    20  11   2    18   9   1    24  14   5    37  27  18    54  43  34    84  71  62   109  95  86   130 113 105   131 114 104   110  93  83    91  74  64    98  84  74    63  49  40    22   9   1    26  14   6    31  20  14    27  16  11    30  19  14    27  18  13    25  16  11    28  19  14    27  16  11    26  15   9    30  20  11    33  23  14    67  57  48    93  82  75    32  23  16  
  33  20  14    33  20  12    35  20  13    35  19  12    37  20  13    40  23  16    42  25  18    45  28  21    43  26  18    43  26  18    41  27  18    39  25  16    35  22  14    30  17  10    25  12   6    26  13   7    36  26  19    32  22  13    25  15   6    25  16   7    14   5   1    14   5   2    41  32  23    76  67  57   107  97  88   127 117 108   133 123 114   136 122 114   129 113 104   120 103  95    79  62  52    43  26  16    38  21  11    42  28  18    35  21  12    26  13   5    26  14   6    27  16  10    31  20  14    36  24  19    30  21  16    28  20  15    31  22  17    30  19  14    28  17  11    30  20  11    27  17   8    38  28  19    83  73  66    43  35  28  
  22   9   3    26  13   7    31  16  11    33  16  10    32  15   8    31  12   6    32  13   7    35  16  10    34  17  10    33  16   9    31  17   8    30  17   8    30  17   9    25  12   5    22   8   5    23  12   8    24  13   9    11   2   1    16   8   3    33  23  16    56  47  38    97  88  80   135 126 119   122 112 105    93  82  76    78  66  60    59  46  39    37  22  15    29  14   7    30  15   8    35  18  10    37  21  12    46  29  21    41  24  16    39  22  14    46  31  24    45  31  24    35  22  16    30  18  12    32  21  14    29  20  15    30  20  17    32  23  18    30  21  16    26  17  12    26  17  10    24  15   8    25  16   9    64  55  49    58  49  44  
  26  15   9    28  14   9    27  12   7    28  12   5    30  13   6    33  14   8    34  15   9    31  12   6    31  13   7    31  14   7    28  14   5    28  14   5    28  15   6    31  18  12    29  15  12    28  17  13    42  32  27    68  59  52   109 100  93   129 120 113   123 114 105   120 111 103    83  74  67    29  19  13    18   7   3    21  11   7    12   2   1    24  11   4    28  15   7    34  19  12    48  33  26    44  30  21    63  49  40    41  27  18    46  32  22    58  43  36    40  27  20    29  17  11    30  19  13    25  15   8    27  18  13    27  17  15    28  19  14    26  17  12    23  14   9    22  13   6    22  13   6    24  15   8    49  40  34    75  66  61  
  28  17  11    33  20  14    35  20  15    38  20  16    37  19  15    36  17  11    38  19  13    41  22  16    43  25  18    43  26  19    40  25  18    38  23  16    36  24  17    31  20  15    23  12   9    32  21  17    73  62  58   106  97  92   111 102  95    82  73  66    45  36  29    16   8   3    10   2   1    22  12   8    27  16  14    25  14  12    27  16  14    27  15  11    30  17  14    57  44  38    64  51  45    46  31  24    78  63  56    54  39  33    34  21  13    35  22  14    32  22  14    27  16  10    25  14   8    24  15  10    28  17  15    29  18  15    27  16  14    25  15  11    24  15  10    23  14   9    24  15  10    27  18  13    29  21  15    57  50  44  
  37  26  20    37  26  20    35  21  16    37  20  16    39  21  17    40  21  15    43  24  18    41  22  16    43  25  18    44  27  20    40  25  18    37  25  16    34  24  16    32  21  16    27  16  14    28  17  13    32  22  17    23  14   9    16   7   1    10   1   1    20  11   4    25  16  10    27  18  13    29  19  16    29  18  16    23  11  11    18   7   7    15   5   3    29  20  15    57  47  42    43  32  26    35  24  17    51  41  32    36  26  17    38  28  19    41  31  22    29  19  10    23  13   7    27  18  11    28  19  14    29  18  16    30  19  17    27  16  14    26  16  12    26  17  12    26  17  12    26  17  12    27  18  13    30  22  16    33  26  19  
  30  19  13    35  24  18    37  23  17    41  24  20    40  22  18    36  17  11    37  18  12    35  16  10    35  17  10    35  18  11    32  17  10    29  17   9    27  16   9    25  14  10    23  12  10    18   8   5    23  14  11    23  14   9    22  15   9    24  17  11    22  13   8    35  25  21    39  29  27    31  19  18    28  16  16    31  19  21    29  20  18    27  19  16    25  17  14    24  14  12    21  12   7    56  46  41    49  38  32    30  20  12    28  19  10    28  19  12    28  19  12    27  19  11    27  20  12    30  21  16    27  16  14    29  17  17    26  15  13    25  14  11    27  16  12    24  15  10    26  17  12    25  16  11    24  17  11    20  13   6  
  27  16  10    32  20  15    33  20  14    35  21  16    34  19  14    31  14   7    34  17  10    36  19  12    35  18  11    33  18  11    33  18  11    32  19  11    31  19  12    27  16  12    34  23  21    26  16  14    21  12   9    21  14   8    19  14   8    16  11   5    21  14   8    20  12   7    30  22  19    29  19  18    29  19  18    34  24  25    29  20  18    22  16  11    28  22  16    24  17  11    23  14   9    55  46  41    40  31  24    26  17  10    31  22  14    29  20  13    22  13   6    23  15   8    25  19  10    21  13   7    23  12  10    26  15  13    23  12  10    22  11   8    22  13   8    20  11   6    21  12   7    19  11   7    19  11   8    19  14  10  
  30  19  13    32  20  13    35  22  16    32  19  13    27  14   8    30  18  11    34  21  15    31  18  12    30  17  11    30  15  10    34  19  14    38  23  18    34  20  14    27  16  11    27  16  14    26  16  14    23  15  12    19  14  10    16  13   8    16  13   8    10   9   4    15  13   8    16  12   9    22  17  14    31  26  23    26  18  16    25  18  14    22  17  11    24  18  12    20  13   5    28  21  13    44  37  30    34  27  21    27  19  14    27  18  13    26  17  12    28  19  14    27  17  13    23  12   8    27  15  13    25  14  12    24  13   9    21  10   6    24  14  11    24  14  12    19   9   7    19  11   9    18  11   9    16  11   7    16  12  10  
  31  18  12    31  18  12    32  19  13    29  17  11    27  16  10    29  18  12    31  20  14    30  19  13    30  18  12    32  19  13    34  21  15    35  20  15    36  22  17    32  20  16    30  19  17    28  18  16    24  17  13    20  16  11    16  15  10    17  16  11    14  15   9    13  13   8    12  11   7    21  17  14    31  27  24    24  19  16    23  18  13    28  23  16    26  20  12    32  25  17    48  41  33    31  24  17    21  14   8    26  18  13    29  20  15    27  18  13    28  18  14    31  20  16    30  18  16    28  17  15    26  15  11    26  15  11    25  14  10    25  14  12    23  13  11    18  10   8    17  10   7    16  11   8    17  13  11    20  16  15  
  33  20  14    33  18  13    32  19  13    30  19  13    32  21  15    32  21  15    31  20  14    30  19  13    28  17  11    32  19  14    32  19  13    31  17  11    36  23  17    35  23  18    31  20  16    27  18  16    23  15  12    20  16  11    18  17  12    19  18  13    16  15  11    14  13   9    13  12   8    20  17  14    29  25  22    21  16  13    21  15  10    25  18  11    27  20  12    45  38  30    63  56  48    30  22  16    19  10   6    24  15  10    27  18  13    27  18  13    27  18  13    34  25  20    37  27  24    33  23  21    25  15  13    25  15  12    27  17  15    25  15  13    23  13  11    19  12   9    18  11   8    18  13  10    18  14  11    21  17  16  
  33  18  13    33  19  14    31  18  12    29  18  12    32  21  14    32  21  14    29  18  12    28  17  11    27  16  10    29  18  12    28  17  11    28  16  10    32  19  13    31  20  15    29  18  14    25  15  13    22  13  10    20  14  10    20  16  11    19  18  13    14  13   9    15  14  10    16  15  11    19  16  13    23  19  16    17  12   9    19  13   8    19  12   5    24  17   9    39  32  24    46  39  31    32  25  18    24  15  10    32  23  18    37  28  23    32  23  18    28  19  14    28  19  14    27  17  15    26  16  14    26  16  14    23  13  11    26  16  14    25  15  13    25  15  13    23  15  13    19  12   9    19  14  11    17  13  10    19  15  12  
  29  14  11    31  17  14    29  15  12    26  14  10    27  16  12    27  18  13    25  15  10    25  16  11    26  17  12    24  15  10    25  16  11    28  17  13    27  16  12    27  14  10    27  13  10    24  13   9    23  14  10    22  15  12    20  17  12    21  18  13    13  12   8    14  13  10    18  17  15    19  16  15    20  16  15    15   9   9    22  16  12    34  26  19    37  28  21    39  30  23    35  25  18    41  31  25    37  28  23    37  28  23    37  28  23    32  23  18    28  19  14    23  16  10    20  13   9    25  17  14    28  20  17    22  14  11    23  15  12    22  15  11    24  17  14    25  17  14    19  11   8    19  14  10    18  13  10    19  14  11  
  31  16  13    33  18  15    31  17  14    27  15  11    26  15  11    26  17  12    26  17  12    25  16  11    25  16  11    23  14   9    24  15  10    28  18  14    25  14  10    25  12   8    26  12   9    24  13   9    25  14  11    25  16  14    23  18  14    21  18  13    18  14  11    12  11   7    15  14  12    19  16  15    21  17  16    15   9   9    18  10   7    27  18  12    34  25  18    34  25  18    34  25  18    35  26  20    31  22  17    29  20  15    27  18  13    25  16  11    27  18  13    25  18  12    24  17  13    32  24  21    29  21  18    24  16  13    22  14  11    22  14  11    23  15  12    22  14  12    18  10   7    19  14  10    22  17  14    20  15  12  
  32  17  14    31  16  13    32  17  14    31  16  13    27  16  12    27  18  13    27  18  13    24  15  10    22  14   8    21  14   8    23  14   9    24  15  10    23  13   8    24  11   8    25  11   8    24  13   9    25  15  11    26  17  14    23  17  13    21  16  12    21  16  13    15  11   8    17  13  12    19  14  13    21  15  15    16  10  12    19  10   9    24  14   9    36  25  19    39  28  22    42  31  24    37  26  21    32  23  18    30  21  16    29  20  15    26  19  13    26  18  12    26  19  13    23  16  12    24  16  13    26  18  15    26  18  15    23  15  12    23  15  12    22  14  11    20  12   9    21  13  10    24  16  13    26  18  15    23  15  12  
  28  13  10    25  10   8    26  11   8    27  13  10    26  12   9    24  13   9    25  16  11    23  14   9    18  11   5    20  13   7    21  12   7    18   9   4    21  12   7    23  12   8    25  11   8    23  12   8    24  13  10    24  14  12    23  15  12    20  15  11    21  16  13    17  12  10    21  15  15    17  11  11    17  11  11    19  12  14    27  18  17    34  24  18    40  29  23    36  25  19    32  21  15    35  25  19    34  25  20    27  18  13    28  19  14    26  19  13    25  18  12    30  23  17    27  19  15    20  11   8    20  13  10    25  18  15    24  16  13    24  15  13    21  13  10    19  11   8    25  17  14    27  19  16    23  15  12    23  15  12  
  28  13  10    31  14  12    28  13  10    26  12   9    26  12   9    24  13   9    28  17  13    27  18  13    25  16  11    23  14   9    24  15  10    26  17  12    26  16  11    31  18  15    34  20  17    28  17  13    25  14  10    27  17  13    26  17  14    20  12   9    21  13  11    20  12  10    22  14  12    21  12  13    19  10  11    21  12  13    28  18  16    40  28  23    43  32  25    35  24  18    25  14   8    26  15  10    30  19  15    30  20  16    30  21  16    27  18  13    24  15  10    24  17  11    23  16  12    21  13  10    24  14  12    23  13  11    26  16  14    26  16  14    24  14  12    25  16  11    28  20  14    27  20  14    26  20  13    20  13   8  
  30  14  11    35  17  15    34  19  16    32  18  15    30  16  13    27  16  12    28  18  13    29  20  15    28  19  14    27  18  13    26  17  12    27  18  13    28  18  14    27  16  12    28  14  11    24  13   9    23  12   8    25  14  10    23  13  10    21  11   9    22  14  11    20  12  10    19  11   9    18  10   8    16   8   6    17   9   7    24  14  12    32  20  15    35  24  18    33  22  16    30  19  13    29  18  12    27  16  12    25  16  11    27  18  13    27  18  13    25  17  12    25  18  12    24  16  13    22  12  10    25  15  13    25  15  13    27  17  15    27  17  15    27  17  15    28  19  14    28  19  14    25  17  11    24  17  11    22  15   9  
  30  15  12    35  17  15    34  19  16    33  19  16    32  18  15    28  17  13    30  19  15    29  18  14    28  17  13    29  18  14    27  16  12    25  13  10    28  17  13    29  18  14    28  17  13    28  17  13    29  18  14    27  16  12    25  14  10    26  15  11    27  18  13    24  14  12    24  13  11    24  13  11    23  11  11    24  12  12    27  16  14    28  17  12    26  15   8    26  15   9    29  18  12    30  19  13    29  18  14    27  16  12    27  16  12    26  17  12    26  17  12    28  19  14    27  17  15    26  16  14    30  19  15    30  20  15    29  18  14    27  16  12    28  17  13    28  17  13    28  17  13    27  17  12    26  17  12    25  16  11  
  30  15  12    32  15  13    30  15  12    29  15  12    30  16  13    29  18  14    31  20  16    29  18  14    27  16  12    29  18  14    27  16  12    24  13   9    28  17  13    33  22  18    33  22  18    33  22  18    34  23  19    29  18  14    25  14  10    28  17  13    26  15  11    24  13   9    24  13   9    25  14  10    25  14  10    26  15  11    28  17  13    28  17  11    24  13   7    25  14   8    28  17  11    29  18  13    31  20  16    31  20  16    30  19  15    28  19  14    27  18  13    28  19  14    29  19  16    30  19  17    30  16  13    31  18  12    30  16  12    28  14  11    29  17  14    30  19  15    29  18  14    32  21  17    28  18  13    26  17  12  
  29  14   9    31  14  10    29  14   9    29  16  10    31  18  12    32  19  13    35  22  16    34  21  15    31  18  12    33  20  14    33  19  14    31  16  11    34  20  14    31  20  15    27  18  13    28  19  14    31  21  16    28  17  11    24  13   7    27  17  10    29  18  12    30  17  11    31  17  13    31  17  14    30  16  13    29  15  12    28  15  10    26  16   9    26  17  10    29  21  14    29  19  12    26  15  10    28  17  13    31  20  16    31  20  16    31  20  16    30  19  15    29  18  14    27  16  14    27  16  12    24   9   4    27  12   7    27  12   7    28  13   8    32  19  13    36  23  17    35  21  16    33  19  16    29  17  13    27  16  12  
  31  13   9    33  16  12    33  18  13    35  21  15    34  21  15    33  20  14    34  21  15    33  20  14    30  17  11    32  19  13    33  18  13    32  17  12    34  19  14    27  15  11    20  11   6    22  13   8    28  19  13    30  20  13    29  18  12    31  20  14    39  26  20    39  25  20    38  25  19    36  22  16    33  20  12    33  18  11    30  18  12    30  20  13    29  20  13    29  20  13    26  15   9    25  13   8    28  17  13    29  18  14    30  19  15    32  21  17    32  21  17    29  18  14    26  15  12    26  12   9    32  17  12    34  17  10    33  16   9    31  15  10    32  17  12    32  19  13    30  17  12    29  15  12    28  16  13    27  16  12  
  33  15  11    35  18  14    34  19  14    35  20  15    35  20  15    32  19  13    32  19  13    31  16  11    32  17  12    31  16  11    32  14  10    33  16  11    35  18  14    28  16  12    22  15   9    23  15   9    29  20  15    34  25  18    34  23  17    34  23  17    36  23  15    36  23  15    36  21  14    33  18  11    33  18  11    37  20  13    36  22  16    35  25  19    30  21  14    25  16   9    24  15   8    27  17  11    32  21  17    31  20  16    30  19  15    33  19  16    34  20  17    32  18  15    29  15  14    31  16  13    44  27  19    41  22  15    40  21  15    38  20  13    35  18  11    31  16  11    30  16  11    31  17  14    31  19  15    27  16  12  
  34  19  14    33  18  13    31  17  11    30  17  10    30  17  11    30  17  11    32  18  12    33  18  13    35  20  15    33  18  13    33  15  11    36  18  14    39  22  17    33  22  17    27  19  16    25  17  14    30  22  16    35  26  20    35  25  18    33  20  14    33  20  12    36  21  14    38  21  13    38  20  13    42  24  14    47  29  19    46  30  22    38  26  17    32  22  13    30  20  11    32  22  13    35  24  16    34  21  15    35  22  16    34  21  15    32  19  13    33  18  13    33  18  13    35  20  15    39  24  19    43  24  17    40  21  14    42  23  16    44  26  18    42  25  18    40  25  18    40  26  20    37  24  18    36  23  17    30  16  10  
  29  15  12    28  14  11    31  17  14    28  15  10    28  15   9    31  18  12    30  17  11    33  18  13    34  18  12    40  23  16    41  22  16    43  24  18    42  24  19    33  20  19    25  16  17    23  15  13    34  26  23    33  23  20    30  17  12    28  15   9    31  14   7    40  20  13    41  21  13    46  24  15    49  24  17    47  23  15    47  27  15    39  22   9    36  20   9    36  19   9    37  23  14    39  25  15    37  23  14    36  22  13    31  17   8    34  19  10    42  25  16    45  28  18    47  30  20    51  33  23    44  26  16    43  24  15    47  29  19    46  29  19    49  32  24    53  39  30    51  36  29    40  25  18    31  17   8    35  21  12  
  26  15  11    27  16  12    29  18  14    26  15  11    25  14   8    30  17  11    30  17  11    31  17  12    32  17  12    37  20  13    39  22  15    44  27  20    39  23  17    28  16  13    22  14  12    23  15  13    36  28  25    36  26  20    30  18  10    30  16   7    39  22  12    43  24  12    44  23  12    50  27  15    54  27  16    45  19   8    40  18   5    36  18   5    37  19   7    39  22  11    41  24  14    45  27  17    47  30  20    42  25  15    41  24  14    42  25  15    41  24  14    44  26  15    48  30  18    47  29  17    47  29  17    45  26  15    46  29  18    45  28  18    45  31  22    48  34  25    44  30  22    37  23  14    31  17   8    29  15   4  
  24  14  12    25  15  13    27  17  15    25  14  12    23  12   8    26  15  11    28  14  11    28  14  11    30  16  13    30  15  10    30  15  10    35  20  15    31  17  11    21  12   5    25  21  12    30  22  14    37  28  18    44  34  23    49  38  26    45  32  19    46  30  15    47  30  14    47  27  11    53  32  15    55  32  16    47  24   9    47  25  12    51  32  22    46  28  18    42  23  16    39  22  14    40  23  15    48  31  23    45  28  21    46  29  22    46  29  21    39  21  13    41  23  14    45  27  17    40  23  13    36  18   8    35  18  10    38  21  13    38  21  13    34  19  12    30  15   9    26  12   6    28  15   8    29  16   8    26  13   4  
  23  13  11    23  13  11    24  14  12    22  12  10    21  11   9    22  12  10    23  12   8    25  14  10    29  18  14    27  16  12    23  12   8    25  13   7    25  13   7    17  11   3    16  13   4    26  22  11    46  39  27    47  38  26    44  32  19    45  31  18    44  28  13    48  30  15    47  29  12    47  28  11    49  30  13    51  32  15    56  37  23    57  38  29    53  35  27    50  31  24    42  25  17    35  19  12    37  20  13    39  22  15    43  26  19    41  24  17    35  17   9    37  18  11    40  20  14    34  15   8    35  19  10    29  15   6    25  11   3    23   8   1    23  10   2    24  11   5    22  10   4    22  11   5    26  13   6    29  16   8  
