P3
50 50
255
  39  35  23    44  42  27    47  44  29    52  46  32    59  53  41    78  70  59    60  50  40    53  41  32    48  36  26    72  57  50    75  60  53    49  36  28    67  54  47    75  61  58    34  20  19    34  20  17    28  18  13    41  33  24    40  35  23    54  52  37    83  84  66    65  68  48    44  48  26    43  48  25    49  54  31    37  42  19    36  40  20    43  45  27    50  54  32    62  66  41    55  60  31    65  67  41    50  49  27    47  42  28    41  34  25    37  30  24    38  35  25    45  46  30    54  59  37    46  52  26    55  59  34    46  48  27    51  51  33    63  59  47    62  55  47    55  46  41    56  45  41    59  47  41    67  54  47    65  52  43  
  54  52  39    59  59  44    55  53  38    68  63  49    78  71  57    75  65  53    67  56  46    54  41  32    56  43  34    73  59  50    76  61  54    65  51  43    67  54  47    69  56  53    54  40  40    30  16  15    29  18  13    45  35  27    63  56  45    58  54  40    83  85  66    64  68  46    52  57  34    60  65  40    55  61  35    45  51  25    48  51  30    44  45  28    46  48  29    49  53  28    60  64  37    52  55  30    46  47  27    49  44  30    36  30  19    39  33  24    36  30  19    34  35  17    42  48  23    46  52  24    59  62  38    52  51  31    43  41  24    42  36  25    50  41  34    47  36  30    41  28  22    44  31  24    62  49  40    53  39  30  
  77  75  60    61  62  44    67  66  48    49  47  29    55  49  33    55  48  32    26  15   4    31  18   8    33  19   9    48  34  25    80  66  57    63  48  40    71  57  51    74  63  58    29  18  16    16   5   1    25  14  10    40  30  22    58  51  40    64  60  46    63  64  46    69  73  51    61  66  42    51  57  30    44  50  22    49  53  26    49  53  29    45  46  27    44  46  26    58  61  38    69  75  49    49  52  30    44  45  24    49  44  28    57  49  38    26  18   7    38  32  17    36  35  16    44  49  24    37  43  17    38  41  14    35  34  11    30  28   9    37  32  19    52  43  34    83  72  64    81  68  60    70  56  48    40  27  18    51  39  27  
  47  46  30    45  45  27    85  83  65    89  84  68    98  91  75    69  60  45    64  52  39    97  83  72    94  80  71    58  44  36    56  43  33   106  92  83   114 100  93    51  39  32    19  10   5   112 100  94   116 103  97    97  84  75    66  57  45    55  49  34    49  49  29    59  62  40    53  58  33    64  69  44   110 114  88   107 110  83    63  64  39    80  79  58    83  85  63    87  91  66    59  63  40    47  50  28    58  58  38    72  66  49   181 172 157   153 141 127    75  67  52    84  82  64    34  38  15    22  28   2    68  71  44   165 164 141   131 128 109    31  26  20    36  29  19   191 181 172   242 232 224   179 166 157   135 123 112    94  84  72  
  39  38  20    49  49  31   104 102  82   180 176 157   179 173 155   122 113  96   213 201 186   238 224 211   233 219 207   126 113 101    21  10   9   142 129 120   137 124 116    23  13  11   101  91  82   237 224 215   220 206 196   219 205 194   177 164 151    39  32  16   134 131 112    98  99  78    31  35  11    61  63  39   192 192 166   178 176 151    91  89  62   162 159 132   174 174 146   124 127 100    70  74  49    48  51  29    52  49  30    52  44  27   163 152 135   199 186 170   105  95  78   110 106  88    30  32  16    50  55  34    92  95  68   182 184 158   187 186 164    89  84  67    13   6   4   112 104  93   247 237 227   194 184 172   183 174 160   168 161 145  
  35  34  16    63  63  45    65  63  44    80  76  57    84  76  59    92  80  64   174 161 146   204 190 177   240 226 215   207 193 182    46  32  23    42  28  20    34  21  16    57  46  36   176 167 153   204 190 177   211 195 182   225 209 196   217 202 189    56  44  28   142 135 117   108 106  87    32  34  12    34  34  13   101  99  76   152 147 124   172 166 139   213 208 177   173 171 140    59  62  32    52  54  30    54  55  34    49  44  25    53  43  25    63  48  32    84  68  52    78  64  48    69  63  48    43  43  29   104 107  89   102 106  81    68  70  44    97  97  75   119 116  98    45  39  25    18  11  10   143 135 124   151 143 130   110 103  88   166 160 144  
  28  28   8    47  48  27    73  71  51    68  63  44    47  41  22    61  53  34    71  60  42    80  67  51   126 111  97   151 133 123    69  55  46    31  19  13    37  26  21   174 164 149   224 216 198   174 160 143   196 180 164   202 185 169   206 190 174    51  39  23   122 115  97   167 163 144    92  91  71    43  41  22    13   8   1   108 100  81   220 213 186   221 216 179   183 182 146    76  77  45    34  36  12    36  37  16    54  49  30    55  44  24    98  81  61   102  84  65    51  36  20    34  24  12    56  51  41    87  88  75   107 111  86    55  59  30    92  93  69   151 149 129   116 113  96    17  11   1    33  27  18    85  81  64    71  68  51   163 162 144  
  38  35  18    31  29  11    66  61  45    78  71  54    43  34  17    69  60  42   158 146 128   160 147 130   174 161 144   175 162 146    65  51  40    31  18   9    46  33  24   127 117 102   121 113  94   167 154 135   217 201 182   208 191 174   201 184 168    53  37  21   142 131 113   197 189 171   100  97  77    77  73  53    16  11   5    27  20   6   126 119  91   205 200 165   213 212 177   173 174 143    66  66  42    34  33  12    44  40  18    65  55  33    79  64  43    73  56  36    54  40  23    39  29  17    49  44  34    72  70  58    77  77  52    54  53  26    86  84  60   162 158 137   210 205 186   127 121 106     9   2   1    46  40  28    86  82  66   160 157 142  
  56  47  36    21  12   5    39  30  23    62  52  41    64  55  41    60  52  34   135 126 105   210 199 177   218 207 185   192 181 161    48  36  20    34  22  10    34  21  11    76  67  52   106  97  80    96  87  68   172 160 140   216 200 180   216 199 179    85  70  51    82  68  49   143 132 112   137 130 109   150 145 121    86  82  57    31  30   4    19  18   7    90  90  61   182 182 154   150 150 124    96  96  72    56  55  31    40  37  12    57  52  26    51  44  18    43  35  12    56  48  29    46  37  24    56  49  40    45  39  27    93  87  64   103  96  69    74  66  42   144 134 113   186 175 155   165 154 136    43  31  19    20  11   1    73  64  49   154 146 133  
  38  29  21    50  41  35    40  31  24    88  79  70   105  95  83   124 115  98    91  82  62   168 158 134   212 202 177   183 172 149    50  38  21    32  20   6    33  21  10    35  24  13    88  81  65   141 131 114   118 106  88   152 138 118   232 217 196    84  67  49    64  47  29   182 168 149   199 189 169   182 175 152   187 183 156   161 160 130    70  71  47    19  20   4    87  89  65   121 123  99    82  82  58    55  55  29    35  34   8    57  56  28   113 110  80   136 131 105    83  78  57    39  31  16    51  42  32    57  47  35   124 113  93   138 126 102   107  95  72   163 151 129   179 167 147   111  98  81    61  49  33    32  20  11    27  15   6   109  98  88  
  34  28  16    57  49  42    81  74  65    54  48  36    97  90  77   183 176 160    96  88  68   106  98  75   173 163 140   149 138 118    39  26   9    87  73  61    96  82  72    27  15  10    11   4   1    76  67  50   131 122 103   117 105  86   141 128 109   110  97  78    68  54  36   200 188 170   216 207 187   202 195 172   202 198 172   212 208 179   205 204 175   103 103  77    31  31   5    81  81  55    70  73  46    50  54  26    44  46  16    45  46  15   139 138 108   239 238 210   157 154 131    35  30  12    42  35  22    94  86  73   128 121  99   144 136 113   139 131 109   212 204 183   201 193 174   163 155 136   166 157 140   135 126 110    30  22  18    37  29  19  
  29  25  14    63  59  50   102  98  89    27  21  18    75  68  58   124 117 101   107  99  80    45  37  16    77  67  46    85  74  54    52  39  23    87  73  61   163 147 139   119 108  97    36  28  16    10   2   1    51  42  24    89  78  59   158 147 127   184 171 154    40  27  15   197 186 168   234 225 206   211 204 183   197 191 167   210 204 178   214 211 185   170 169 143    61  61  35    33  33   6    47  50  23    56  59  30    56  59  28    51  55  23    58  59  27   135 136 105   125 122  96    40  35  15    55  48  33    77  70  54   105  97  78   161 152 132   155 147 127   197 188 170   212 204 186   213 204 187   189 180 165   161 152 138    38  29  25    16   8   1  
  39  37  24    74  71  60   190 187 178    90  86  76    73  69  57    56  50  34    93  86  68    54  46  26    43  33  13    68  57  39    67  54  38    46  31  20   170 157 148   218 207 196    97  87  73    47  39  22    22  14   1    26  18   6   124 116  97   181 173 154    36  28  11   167 158 141   234 225 208   213 204 186   203 195 174   213 205 183   173 168 143    80  78  50    50  50  23    34  34   8    34  37   8    83  88  58    72  78  45    54  60  25    62  67  33    44  45  14    40  38  10    49  44  21    61  54  35    75  68  52    89  82  62   148 142 120   150 144 123   193 186 167   181 174 156   173 167 149   177 171 155   118 111  96   106  99  87    41  35  23  
  41  39  25    42  40  32   187 185 176   171 168 158    36  32  20    77  71  57    49  43  26    59  52  33    50  43  24    92  81  64    89  77  63    53  40  29    98  84  75   194 181 172   133 122 111    52  43  28    42  33  16    44  35  17    36  28   9    91  83  65    47  38  21   139 130 115   229 220 205   204 195 179   207 196 178   217 207 189   187 180 158    99  96  71    95  95  69    96  96  70    14  17   1    55  61  30    78  85  51    49  55  21    39  45  11    60  64  31    92  92  63    58  55  31    56  49  30   125 118 100   120 113  93    80  74  53   113 106  87   194 187 169   164 157 139   195 188 172   152 145 129   155 147 134   212 205 193    86  79  68  
  42  39  24    37  33  21    59  55  44    83  79  68    34  27  17   111 104  92    86  80  66    46  40  23    59  52  34    91  82  65    85  76  61    52  42  32    54  44  37   138 128 118   120 110  98    53  45  29    65  58  40    66  60  41    27  22   8    26  21   3    44  38  22    98  90  77   221 211 199   229 218 204   221 209 193   216 204 188   202 192 173   164 160 136   134 133 108   157 159 135    55  58  34    18  23   1    41  48  16    49  56  23    32  39   4    77  83  49   129 131 102    56  53  29    37  31  12   101  94  76    98  91  72    94  87  66   144 136 115   181 173 153   192 184 165   237 229 212    77  68  52   157 150 134   234 228 213   117 111  97  
  57  52  38    40  34  22    45  39  28    26  18   8    24  17   7    38  31  21    69  63  50    52  46  31    53  47  30    54  48  32    48  42  28    42  37  23    33  27  15    69  62  51   154 145 134   144 136 122    92  85  69    95  90  72    95  90  71    48  42  26    25  19   5    37  30  18   109 100  89   184 173 161   192 180 166   182 168 155   202 192 174   178 173 151   154 151 128   194 192 171    98 100  77    77  81  55    39  45  17    41  48  17    51  58  25   103 108  76   119 122  94    33  32  11    79  75  56   152 145 127    90  83  61   180 172 150   171 163 142   173 165 145   192 182 164   144 133 116    91  82  65   190 182 166   163 156 140    73  67  52  
  54  47  31    38  28  16    79  69  59    81  71  62    35  26  17    17   8   1    20  14   2    34  30  14    43  40  23    37  34  17    59  57  42    68  66  51    39  36  23    43  37  27   153 145 134   162 154 141   107 100  84   109 103  87   173 169 152   142 139 124    97  91  77    58  52  40    26  17   7    52  41  29    56  44  30    67  53  40   113 102  85    96  90  71   127 124 103   145 144 123    70  72  50   153 157 133   152 156 130    67  72  44    50  57  26    83  88  58    85  87  61    32  31  18    95  92  80   240 235 216   132 123 102   132 122 100    94  83  63    82  71  51   123 112  92    84  73  55    77  66  48   169 159 142   156 147 130   124 117 101  
  48  39  22    55  43  30    57  45  34    81  68  60    53  42  36    70  62  53    65  57  48    40  35  22    37  35  20    31  30  13    32  33  17    51  52  36    56  55  42    35  30  19    36  27  18    99  91  80    93  86  72    84  78  63   153 149 134   205 202 187   212 206 194   125 118 107    30  21  12    30  21  11    20   9   1    18   6   1     8   1   1     8   2   1    21  17   4    32  29  10    28  28   8    79  81  59   160 163 140   162 166 141    55  59  32    39  43  16    56  58  34    40  41  22    62  61  46   135 129 114   120 112  93   129 118  97   123 112  92    97  85  65   162 149 131   163 150 133   103  91  74   184 173 155   189 177 161   154 144 127  
  49  40  22    55  42  26    50  37  25    78  65  56    76  66  57    97  88  81   107 101  90    51  48  34    55  52  37    83  83  67    91  94  75    42  45  27    37  39  23    44  42  30    25  18   8    55  49  37    90  84  70   109 103  89   167 161 147   220 214 200   213 207 195   152 144 135    38  30  24   107  99  90   179 169 157    99  91  75   164 158 139   160 156 136   106 104  84    76  73  54    49  46  29    18  18   1    28  28  11    68  70  46    67  69  45    36  38  15    31  33  11    49  51  31    41  42  25    19  18   2   162 153 134   175 162 143   230 217 198   218 205 187   193 180 163   144 131 114   118 105  88   225 213 196   246 234 217   230 220 203  
  47  39  18    55  42  24    52  39  25    52  40  30    66  56  47    71  62  55    84  76  68    60  55  44    74  71  57   151 149 134   185 186 168   151 152 135    42  44  29    32  30  18    39  32  24    36  29  19    58  52  40    98  92  79   190 185 170   249 241 230   228 219 210   231 222 213   131 122 113    78  70  60   239 234 221   238 232 216   193 189 169   208 206 185   220 218 197   222 219 199   197 194 175   154 150 132    47  44  31    30  28  10    38  38  14    39  38  17    43  45  23    42  44  24    38  40  23    49  48  33    77  68  51    82  70  52   135 122 105   143 131 113   106  93  77    29  16   1    39  26  17   111  98  82   158 146 130   142 132 117  
  68  61  39    83  72  51    63  53  36    41  31  20    33  23  14    94  85  78   115 106  98    98  92  81    67  63  49   170 167 152   188 187 169   153 152 134    67  65  49    70  66  56    48  44  35    29  22  13    34  27  18    80  72  61    88  80  69   128 120 109   202 193 184   244 237 228   194 189 179    50  43  34   130 127 112   218 215 197   203 203 181   181 181 156   151 149 125   167 165 144   219 214 194   217 213 194   143 136 117   130 124 103    41  36  13    32  30   7    43  43  22    46  48  28    44  48  30    38  41  24    36  30  14    38  26  10    28  16   2    14   4   1    51  40  25    88  76  60    92  80  64    76  65  50    34  24   9    67  60  44  
  79  75  50    96  89  67    55  48  30    36  28  15    39  30  21    94  86  78    90  82  74   121 114 103   135 129 115   192 186 172   208 202 186   134 128 112    75  69  54   110 106  95    75  70  64    22  15   7    46  39  28   119 110  99   140 130 120    94  84  74    40  30  21    97  87  78   117 109  99    39  36  22    34  33  15   100  99  79   163 166 142   186 189 161   145 146 119   148 143 121   150 144 122   156 148 129   160 152 132   180 171 151   147 141 119    63  58  36    38  39  15    42  45  24    36  43  24    36  39  22    43  37  23    37  27  14   105  94  82   105  93  81   164 152 140   220 208 196   220 211 199   210 200 188   114 106  93   239 236 225  
  78  76  51    96  92  67    70  65  45    32  26  10    27  19   9   107  98  92   160 151 143    96  87  77   163 155 142   232 223 208   176 167 150    98  89  72    77  69  54   101  96  86    38  33  27    27  20  12    33  26  16    92  83  72   134 124 114   181 168 159   115 102  93    36  27  16    52  45  33    41  37  23    21  20   2    50  52  31    75  80  53    89  93  63   103 103  75   156 152 127   173 167 143   138 129 106   109  98  76   141 130 108   207 198 175   102  98  73    36  35  13    38  41  19    37  44  23    41  46  28    38  35  20    40  32  19   102  94  81   177 169 156    83  75  62   171 163 150   209 201 189   199 191 179   131 124 112   221 215 202  
  87  86  58    99  95  69    91  86  66    51  44  29    16   7   2    73  64  57   162 153 145   103  95  85    66  57  45    90  81  66   153 144 129    98  88  73    58  49  35    52  45  36    98  92  86   110 102  95    35  28  20    76  67  60   189 179 170   190 177 169   207 194 186   139 127 118   185 176 165    84  79  64    58  57  37    34  38  15    54  58  32    48  52  21    54  55  26    72  71  45   184 179 157   153 144 123    57  46  25   143 132 109   185 174 152   156 150 126    57  54  29    39  41  18    48  55  32    45  50  30    47  45  30    52  45  32    49  43  31    63  56  45    90  82  71   196 188 177   232 224 213   193 185 174   126 120 108   143 136 125  
 110 105  77   133 127 102   118 112  93    71  62  50    23  12   6    46  35  29    93  83  76   118 108  98    81  73  61   107 100  84   114 108  92    79  73  60    27  22  10    58  50  39   171 163 152   228 221 211   122 115 106    22  17  12   107  99  96   240 229 225   119 106 100    50  37  31   136 125 115   113 106  90    87  86  65    47  51  26    57  63  35    58  62  35    55  58  33    45  44  23    77  74  55    71  65  46    56  46  28   155 144 125   210 199 177   199 188 166   116 111  85    57  57  31    41  45  18    48  54  28    43  46  25    52  52  35    90  87  73    30  24  19    51  42  34   126 116 107   219 211 202   239 234 223   152 144 133    99  91  80  
 162 157 128   194 187 162   164 156 138    89  78  68    27  14   7    65  52  48   102  90  83   135 125 116   138 129 117   242 235 220   163 157 143    59  56  42    49  45  33    83  76  63   129 121 108   201 195 183   182 179 168    52  48  41    24  18  13    93  82  78    73  59  56   129 115 109    97  85  75    45  39  22    49  48  25    55  59  32    61  66  39    47  51  26    54  57  34    60  62  41    31  30  12    61  57  42    47  39  23    77  66  49   144 133 115   201 190 170   189 182 159    97  95  70    36  39  13    40  46  20    52  57  34    39  42  23    51  50  36   141 135 124   107  98  89    18   8   2    76  66  57   180 172 161   187 178 166    91  83  70  
 196 190 162   203 196 172   215 206 187   161 149 138    24  12  11    64  51  45   129 117 110   144 134 123   140 132 117   245 242 226   132 126 112   108 105  91   161 157 145    84  77  64   109 101  88   161 155 141   139 136 124    37  34  23    29  22  14   157 148 141   189 178 172   182 169 161   191 180 168    74  67  49    36  34  11    41  45  18    45  49  23    41  45  22    33  37  17    34  37  20    42  43  29   124 122 108    78  73  59    40  34  18    52  43  26    84  76  57   181 174 155   197 194 175    96  97  77    36  38  18    48  51  30    55  58  40    38  37  23   144 137 127   248 239 232   115 105  96    61  52  42    43  35  24    78  72  59    79  73  59  
 187 180 152   199 192 167   227 218 199   205 194 181    63  50  41    54  41  33    76  64  55    81  71  60   108 100  85   216 209 193    88  82  68    81  76  62   191 186 173   123 117 102   118 112  96   153 150 133   114 112  97    28  25  13    31  25  16   166 157 150   239 228 221   174 162 153   148 138 124   124 116  98    63  61  38    61  64  37    46  50  24    39  43  21    30  33  14    38  41  23    36  38  24    55  55  41    59  56  44    54  49  35    97  91  75   130 123 108   117 111  95   137 134 118   102 100  85    47  48  32    48  49  31    46  46  30   102  99  87    44  37  28    78  69  62   137 126 119   156 146 137    69  61  50    39  33  20    46  40  26  
 193 185 158   197 190 165   213 205 184   195 186 170    59  49  39    38  28  19    73  63  54    70  62  50   108 100  85    92  85  69    41  35  19    39  33  17    96  90  76    85  80  62    65  60  41    67  64  47    87  83  69    62  58  46    23  18   7   137 128 119   220 210 201   220 208 198   190 180 165   113 106  87    64  62  37    50  50  23    52  55  29    42  46  22    31  35  13    40  45  25    49  53  36    38  42  25    29  31  15    67  66  49    85  82  65   141 135 119   130 125 109    28  25  10    40  38  23    35  35  19    36  37  22    22  21  10    97  92  81   102  94  86    19   8   7    57  46  40   165 155 146   123 116 104    80  76  62    33  30  15  
 189 182 156   202 195 170   217 209 188   186 177 161    52  42  30    28  18   8    79  69  58    86  78  65   116 109  94    79  72  56    41  35  19    46  40  24    48  42  26    75  70  52    78  75  56    40  37  20    79  76  62    99  95  83    20  15  12    67  58  50   148 137 127   178 165 155   203 193 179   110 102  84    46  41  19    37  35  10    59  60  34    54  57  30    38  44  17    27  35  12    39  47  26    42  50  29    48  54  34    52  55  34    30  29   9    97  94  75   221 220 204    74  71  61    48  45  34    39  37  24    16  14   3    30  27  18    32  24  21   142 131 126    87  76  72    29  18  14    83  75  67   187 180 169   156 152 138    34  31  16  
 203 197 169   190 183 158   197 189 167   180 173 154    81  74  57    46  39  24    45  38  25    42  36  22    58  52  37    70  64  48   119 113  97    78  72  56    85  80  62    80  76  57    84  81  62    54  51  34    32  29  12    49  46  32    35  29  18    17   9   1    24  14  10   146 136 125   154 145 131    68  60  42    68  63  41    67  62  40    41  40  13    56  61  29    47  55  23    33  42  13    42  52  25    47  57  32    63  73  48    59  65  41    32  36  13    46  45  24   149 146 126   113 108  91    68  62  47   109 106  91    55  52  38    41  36  25    38  30  21    50  40  34    13   5   4   135 126 121   164 156 148    72  67  56   119 115 101   117 114  99  
 192 185 159   164 157 131   169 162 137   173 166 146   118 112  93    88  83  64    35  29  13    43  37  22    42  36  21    69  63  47   158 152 136   113 107  90    75  70  51   127 123 104    80  79  61    34  31  15    56  52  38    43  37  26    30  21  12    36  27  20    25  14   8    53  43  34    56  47  35    69  61  45   113 106  88    59  54  34    48  48  23    52  56  24    49  56  25    49  59  29    54  67  39    60  73  47    61  73  47    75  83  59    75  80  57    77  79  58    38  35  27   126 121 103    52  46  34   151 145 133   167 163 149    44  37  26    32  23  16    43  32  29    23  12  10    61  52  47   243 234 228   146 141 131    18  14  11   100  97  84  
 174 167 141   143 137 111   142 136 111   169 165 140   111 109  86    70  68  47    36  33  15    42  39  22    47  45  27    38  35  18    95  90  70   146 141 121   123 119 100   114 113  94    74  72  57    82  79  64    76  71  60    34  27  18    29  21  14    23  14   7    65  56  49    61  52  45   113 105  95   106  98  86    43  36  20    34  28   9    49  45  24    51  53  26    45  50  24    42  52  26    59  72  46    64  77  53    61  72  48    62  70  47    64  68  47    85  87  66    67  66  49   133 129 115   109 102  92    88  81  71   174 168 156    69  62  50    22  13   8    84  73  70   206 195 193    57  47  45    50  44  37   104 100  89    43  40  26    16  14   1  
 174 166 143   172 166 140   141 136 109   134 132 104    90  90  64    36  36  12    45  44  24    43  42  23    49  48  30    54  51  34    48  45  26   113 108  88   154 149 129    73  69  51    58  56  41    99  95  83    65  58  49    33  25  17    32  23  17    49  40  35    78  69  64    81  74  68   142 135 126   214 206 195   159 151 138    38  30  17    42  37  20    43  44  24    38  42  22    36  44  23    36  48  28    97 109  89    66  77  57    35  40  23    30  33  16    45  43  28    49  44  32    59  52  43    90  83  77    42  35  29    92  85  75   145 138 127    81  72  65    34  23  21   200 188 187   188 178 176    23  16  12    89  85  75    96  93  81    28  26  11  
 191 185 159   184 180 152   148 146 116    71  71  41    47  50  20    47  50  24    43  47  23    48  50  29    46  47  28    78  77  59   100  97  77    86  83  62   133 130 108    81  80  61    47  45  30    53  49  37    39  32  21    62  53  45    48  39  33    66  56  51   122 115 109    57  52  45    68  64  54   132 126 115   164 156 145    61  53  43    63  57  45    45  45  32    28  32  18    27  33  20    29  37  26    54  62  51    31  38  27    21  24  13    41  41  31    29  26  17    29  23  16    42  34  31    54  45  45    32  24  22    71  65  54   161 154 143    97  88  80    20  10   8    47  36  34   120 111 110    41  35  30    78  74  64    47  44  32    38  36  21  
 193 188 163   171 168 140   121 121  90    58  60  29    58  62  30    82  87  57    50  54  30    39  42  20    40  43  23    50  51  33   100  99  79   117 114  90   121 117  93   117 114  95    41  38  23    45  39  27    57  49  38    56  46  38    40  29  23    53  44  39   190 185 179   122 117 110   115 111 102   113 109  98    67  60  50    38  30  19    41  34  25    32  30  22    28  29  22    29  32  25    16  21  15    13  17  11    29  32  25    39  40  32    34  31  24    36  31  25    22  14  10    37  29  28    57  48  50    41  33  32    34  27  17    62  55  44    88  79  71    36  26  21    15   5   3    56  48  46    96  89  85   116 111 104    74  72  60    90  88  73  
 166 163 138   143 142 114   102 103  72    77  82  48    68  74  40    74  82  51    55  65  36    40  47  22    44  48  28    35  37  16    82  81  60   159 156 133    74  71  46    58  56  35    50  47  30    70  64  50    59  51  40    41  31  21    30  19  12    28  19  12   144 140 131   187 183 174   143 140 131    69  66  55    61  55  45    71  63  53    77  69  61    69  66  61    32  31  26    26  27  22    29  30  25    25  27  22    45  45  40    56  53  47    42  39  30    37  30  22    50  43  37    43  35  32    33  27  26    39  34  30    50  45  33    44  38  24    60  51  42    42  33  27    20  11   8    30  22  20   140 133 129    91  87  79   191 189 177   120 117 102  
 135 131 106    97  96  68    88  91  59    68  74  39    48  55  21    45  55  21    55  64  36    60  68  43    55  61  40    33  36  17    55  57  35   148 148 123   137 135 110   130 128 106    95  93  75    81  74  58    71  60  48    53  40  30    42  31  22    26  17   9    47  43  34   149 147 137   117 117 106    41  40  27    44  39  27    85  77  66   133 125 116   120 117 109    66  64  58    38  37  32    27  26  20    39  39  32    53  51  43    57  54  43    64  59  47    53  45  34    54  45  37    66  59  52    55  49  44    22  19  13    54  50  38    86  82  68    66  58  49    44  35  29    30  20  18    26  18  16    45  38  35    38  34  28   167 165 154   140 136 124  
 107 104  78    78  78  47    93  97  64   103 111  75   101 111  74    62  74  39    54  65  34    51  60  34    70  76  53    64  67  46    38  40  18   149 148 123   183 182 154   106 105  80    69  66  47    40  33  16    57  47  33    78  66  55    53  42  33    51  43  32   116 112 100   123 122 108   110 111  97    91  90  77    80  74  60    44  36  23   131 124 112   135 132 119    65  63  51    49  48  36    24  22  10    40  38  26    77  74  60    69  64  47    81  74  56    80  73  55    47  40  23    49  44  29    44  42  28    36  34  21    46  43  28    67  63  49    75  68  58    47  38  32    35  25  23    31  23  21    24  19  14    56  53  45    90  86  76   122 118 106  
  96  95  71    70  71  45    88  91  63   101 105  74   127 134 101   102 109  78    61  67  39    51  56  31    41  45  23    86  88  67   152 154 131    99  98  74    86  84  59    93  89  64    85  79  57    60  49  29    70  56  40    80  64  50    45  31  19    59  49  37   181 175 161   152 151 137    66  67  52    98  97  82   131 128 111    58  51  35    73  66  50   129 125 109    90  87  72    58  56  41    60  58  43    36  33  18    64  59  44    64  58  40    72  65  46    71  63  45    59  52  34    52  48  30    40  38  22    31  29  14    48  45  28    35  32  16    44  38  27    36  29  21    29  21  18    46  38  35    30  25  20    32  29  22    62  58  50    98  94  83  
  75  77  56    54  57  38    56  57  39    56  55  36    76  75  55    91  88  69    65  62  42    58  53  33    43  38  18   130 128 107   190 187 167    56  54  39    73  70  57   193 186 161   133 123  96    71  56  33    81  63  44    71  53  36    52  36  21    34  20   7   153 146 130   223 221 203    92  93  75    30  31  13    76  75  55   106 102  83   122 116  97   102  95  78    79  72  56    51  48  31    74  71  54    38  35  20    40  37  22    58  53  37    48  41  25    51  43  30    54  47  33    52  48  33    38  35  22    33  34  18    40  39  19    67  66  47    88  86  70    52  49  36    27  24  15    36  33  26    38  35  28    18  15   8    32  28  19    95  91  80  
  46  49  32    37  39  23    31  31  17    42  39  27    62  58  46    90  84  70    96  88  72    55  46  28    50  43  22   171 164 144   223 218 198   116 112  93    66  62  44   111 104  80   127 116  89    83  66  42    70  52  31    71  52  34    55  37  22    24   9   2   108 101  85   204 201 184    81  81  63    30  31  13    49  48  28    66  63  44   127 121 103   108 101  83    27  21   9    63  58  40   113 110  93    84  81  64    55  52  37    58  53  39    57  49  36    58  50  39    54  49  37    63  59  47    36  34  21    56  57  41   116 115  95    82  81  62   119 118 101   104 102  89    52  50  38    14  14   4    44  43  35    28  25  18    21  17   8    73  69  60  
  51  54  36    43  47  31    40  42  28    51  50  37    53  49  37    59  53  39    74  67  51    52  45  26    60  53  34   151 144 125   204 199 179   130 127 108    79  75  57    58  53  30    89  82  57    89  77  55    69  53  35    68  50  35    56  38  25    48  34  23    57  49  36   188 186 171   127 126 109    56  55  37   112 111  93    79  76  59    63  58  39    84  77  59    56  50  33    64  61  44    82  81  62    91  90  72    67  65  50    58  52  38    44  38  24    45  39  27    38  33  21    59  56  44    35  35  22    56  57  41   111 110  90    65  63  43    52  51  33   139 137 123   127 125 113     5   5   3    49  48  41    45  42  35    26  23  15    40  37  28  
 107 110  93    66  69  53    52  53  39    65  64  50    64  61  47    43  37  21    35  30  10    55  49  30    51  45  26    99  93  74   148 145 126    73  70  52    58  55  37    68  63  43    69  63  42    79  71  52    53  39  22    56  40  26    47  31  20    49  36  26   129 121 110   109 104  92   152 149 135    84  82  67   123 120 103   145 139 123    35  29  13    34  29  12    48  44  26    76  75  57    73  72  54    61  59  42    60  58  43    74  72  57    61  56  41    75  69  57    52  47  35    43  39  27    33  30  18    39  37  22   110 108  88    92  90  70    42  41  22    79  77  61    80  78  66    16  16   6    38  37  30    60  57  50    37  33  25    37  34  25  
 166 168 153   111 114  99    74  76  59    77  75  60    68  67  49    49  46  29    52  49  30    60  58  37    49  47  26    63  61  40    94  91  72    56  55  35    53  52  34    85  82  64    64  62  41    46  40  22    20  10   1    47  34  24    42  29  20    16   5   1   183 175 165   130 124 114   138 134 123   130 126 114   108 102  88    75  69  55    45  39  23    88  83  67    78  77  59    43  44  26    69  70  52    68  69  51    53  53  35    58  56  40    78  75  60   135 129 115   111 106  92    45  42  29    22  23   9    44  45  30   136 135 115   147 145 125    81  78  60    44  41  26    41  39  26    17  17   7    36  36  27    49  49  41    35  35  27    28  28  18  
 183 184 170   133 135 120    68  70  52    60  61  43    50  50  30    47  44  25    90  87  67    83  81  60    46  44  23   144 141 122   160 159 139    46  45  26    39  38  20    68  68  50    72  71  53    42  39  22    40  34  21    63  54  44    51  41  31    36  27  18    90  81  72   174 167 157   136 129 119   145 139 127   162 155 143   125 116 104   123 117 103    97  95  77   117 117  99    67  70  51    50  53  34    45  48  29    34  36  17    38  37  21    71  68  53   123 120 105   117 111  98    53  49  37    28  25  13    93  91  76   165 162 143   179 177 156   112 109  91    60  58  42    94  92  79    32  32  20    34  34  25    43  43  35    35  35  26    19  19  11  
 186 187 174   136 138 123    72  73  56    61  62  42    67  69  48    76  75  54   124 123 102   137 136 115    39  38  20   104 103  85   138 139 121    55  56  38    20  21   3    48  50  32    86  89  72    77  78  62    75  73  59    70  65  53    50  43  33    94  85  76    39  30  21   160 151 141   131 123 112   179 171 159   186 176 164   170 161 146   185 180 163   152 150 132   146 147 128   117 120 101    53  58  38    58  63  43    57  61  42    31  33  14    49  48  30   101  98  83    98  95  81    50  47  34    22  22   9   100 101  87   160 159 139   116 113  93   113 110  92    65  63  47    93  91  78    42  42  31    19  19  10    39  40  32    47  48  40    24  25  17  
 166 166 153   149 150 133   123 124 105    84  85  64    84  86  64    98  97  76    86  86  65    86  85  65    49  48  29    50  49  31    45  46  28    44  45  27    26  28  10    32  36  18    80  84  67    90  92  76    58  58  43    46  43  31    38  35  22   120 113 103    82  73  64   128 120 108   188 179 167   145 135 123   222 213 198   192 184 169   209 203 187   207 205 188   199 199 181   114 117  98    60  65  45    68  75  54    66  71  51    44  48  29    19  20   2    59  57  42    77  73  59    64  61  49    30  29  17    54  52  39    85  82  63   121 119  98   124 121 103    69  67  51    81  79  65    39  39  27    20  21  11    44  45  37    80  81  73    60  61  53  
 168 166 154   178 179 163   163 164 145   122 124 101    94  97  70   116 119  92    99 101  78    60  62  40    50  51  32    50  51  35    47  48  32    34  35  18    34  36  17    38  42  23    52  57  37    47  52  32    47  50  31    30  32  15    53  51  36   169 164 150   116 108  95   105  96  84   152 143 129   109 100  85   169 158 142   247 238 221   209 203 186   208 207 190   207 209 190    94  99  79    79  88  67    68  76  55    52  58  36    48  51  32    29  30  12    33  31  16    44  42  27    52  50  37    40  40  27    68  69  55    82  81  61   117 116  95   127 126 107    67  67  51    67  68  54    36  37  25    18  20   8    50  52  41    83  85  74    59  61  50  
 199 196 184   194 192 176   203 204 184   179 182 156   129 133 106   125 128 100   111 115  89    74  77  56    62  64  47    48  49  33    83  84  68    41  41  25    42  44  25    49  54  34    55  62  42    37  42  22    44  49  29    42  44  26    66  65  49   198 195 180   106  98  84   108 100  85   144 133 119   147 135 119    98  86  70   231 222 205   202 197 179   201 199 182   198 198 180   130 133 114    84  89  69    50  58  37    57  63  41    48  51  32    36  38  20    53  52  37    39  37  23    34  32  19    35  35  23    38  39  25    90  89  71   110 108  89   108 106  90    69  69  55    73  74  60    33  35  22    18  20   8    49  51  40    73  75  64    62  64  53  
