P3
50 50
255
  42  50  11    60  69  27    71  83  38    50  62  14    38  50   1    57  69  19    62  73  14    71  81  16    76  84  28    59  65  20    61  66  25    69  74  32    63  69  25    68  73  34    75  78  48    84  85  68    30  31  16    25  26   7    32  35   4    33  39   1    48  56  23    40  48  17    38  45  14    52  57  27    33  38   8    44  48  19    42  45  18    61  64  36    83  86  56    45  49  14    39  44   4    69  76  30    61  69  19    43  51   3    47  55   4    50  59  10    60  69  22    38  47   6    46  54  13    48  55  11    54  57  13    53  56  10    73  77  27    83  89  36    93 104  47    69  83  24    59  74   9    75  89  21    55  66   7    52  62  14  
  48  56  17    68  76  36    46  55  13    39  48   3    44  55   7    39  51   4    33  43   2    72  81  21    65  72  17    57  63  14    51  57  11    61  66  23    64  69  28    53  57  22    41  44  14    25  27   5    32  33  12    26  29   4    34  38   7    46  52  16    41  48  15    43  52  20    44  51  18    46  51  20    24  29   2    35  38  11    42  45  18    40  43  16    44  47  19    51  54  22    55  60  20    63  70  24    58  66  16    55  64  12    48  58   5    47  57   5    74  84  35    62  71  24    42  51   4    46  54   7    48  54   8    65  71  22   117 124  72    76  84  28    76  87  27    64  78  16    82  97  31    91 106  38    45  60   7    49  62  10  
  40  44   9    38  44   6    45  52  12    47  54  13    52  59  15    54  60  17    52  58  16    50  55  14    69  76  28    69  76  24    80  87  33    66  73  23    62  67  24    41  45   9    37  40   7    63  67  32    75  79  45    37  40   9    28  30   6    38  41  18    36  43  11    47  56  22    34  41   8    39  45  14    50  55  25    37  40  13    43  45  21    42  44  19    34  37   9    42  45  14    54  58  20    47  53  11    47  55   6    72  83  28    57  67  12    53  65   9    62  75  22    59  72  19    55  68  17    46  57   7    96 104  55    99 105  56   115 123  70   113 123  66    82  93  33    32  47   2    82  98  32    99 116  49    79  95  34    36  51   3  
  61  65  30    59  63  28    77  81  45    63  68  29    62  69  27    51  58  14    60  65  27    59  63  29    73  78  34    73  80  24    88  96  37    73  80  29    58  63  23    36  40   6    23  26   1    89  94  53   103 109  66    54  58  20    41  44  18    26  29   8    38  44  16    61  70  36    44  51  18    43  49  18    64  69  39    42  45  18    25  27   3    28  30   5    44  47  18    54  57  27    43  47  11    32  38   1    44  52   3    62  72  18    60  71  13    65  78  22    56  70  14    64  79  24    81  95  41    74  86  34   150 160 110    96 104  54    68  77  25   112 122  66   120 133  73    68  84  21    66  82  19    75  91  29    78  96  37    62  80  22  
  76  75  45    67  68  36    70  71  36    60  62  24    46  49  10    43  45   5    69  74  35    54  59  20    42  48   3    58  66  10    77  85  29    68  74  26    64  69  32    44  47  17    25  29   1    51  57  16    61  67  23   103 108  65   117 121  86    45  50  20    30  37   4    38  45  12    46  53  20    49  55  23    57  62  31    46  49  20    31  34   7    36  39  12    50  52  24    47  51  18    37  43   4    43  50   7    56  64  15    53  61   9    67  78  22   100 113  57   106 120  64   100 115  59   101 114  61    97 107  55    95 103  54    91  99  52    81  89  39    61  71  17   123 134  76    99 113  52    41  57   2    39  54   4    32  48   1    48  65  11  
  65  63  33    47  46  16    49  50  17    40  41   5    49  51  12    63  65  25    72  74  35    46  51  11    46  52   4    60  67  15    45  52   1    39  45   1    49  54  12    48  52  14    46  51  11    47  52  11    82  88  44   114 120  77   108 112  73    56  60  25    58  64  30    60  67  34    53  60  26    53  60  26    66  72  38    51  54  23    34  37   7    57  60  30    68  72  39    36  41   6    67  74  33    85  92  49    66  74  25    71  80  28    66  75  22    72  82  29    97 110  54    74  88  32    52  65  12    63  73  23    40  48   5    95 102  58    79  87  41    57  65  15    55  66  10    50  64   5    51  64   7    45  59   8    38  52   3    42  56   5  
  57  54  29    55  54  25    56  57  26    50  52  16    50  52  15    57  59  20    47  50  11    55  60  20    53  58  15    49  54   7    66  73  21    96 104  47    82  90  30    66  74  15    64  71  18    69  75  30   104 108  69    53  57  22    31  35   1    39  43  10    86  91  59   105 110  77    75  81  46    54  59  23    43  48  13    25  30   1    37  42   7    51  55  20    60  65  28   105 111  71   124 131  88    86  95  49    76  85  35    44  51   6    59  65  18    61  69  18    59  70  18    48  61   8    43  53   5    44  53   7    53  60  18    65  70  30    60  65  25    58  65  20    54  63  12    45  56   1    43  53   7    59  68  23    49  57  16    49  60  17  
  44  42  17    44  44  17    70  71  41    54  55  22    49  52  15    88  90  51    38  41   3    67  73  29    66  72  26    56  62  14    86  93  38   105 113  51    84  94  26    98 108  40    82  90  29    58  64  16    52  56  17    37  41   7    39  43   9    66  70  35    58  64  30    67  73  39    65  71  34    49  53  16    51  56  16    67  72  32    74  79  39    75  80  40    69  75  34    78  85  43   103 112  67    64  73  25    92 101  50    63  67  20    60  64  19    59  65  17    57  65  16    48  58   8    33  42   1    28  35   1    34  37   1    38  39   7    50  51  16    47  51  11    61  69  23    55  63  12    49  57   8    47  53  13    55  61  26    49  56  20  
  28  28   4    28  28   3    71  73  43    81  85  51    56  61  24    66  71  31    59  64  21    67  73  24    67  74  22    60  67  13    57  65   5    52  62   1    59  69   4    79  88  22    63  71  12    48  55   5    41  47   7    67  71  35    46  50  14    60  64  29    62  68  34    48  54  19    94  99  60    86  91  50    47  52  11    63  69  25    75  81  37    45  51   7    39  46   2    33  41   1    57  67  17    55  66  14    63  73  21    54  59  13    54  55  14    59  62  19    69  76  30    62  70  24    51  58  16    46  50  13    33  34   2    37  36   7    30  30   1    35  36   1    52  58  14    68  74  27    49  54  11    36  40   4    35  38   8    38  42  12  
  34  34   8    49  50  21    50  52  20    45  49  15    51  55  20    68  72  35    53  58  15    55  62  12    72  81  26    83  91  33    64  73  10    63  73   5    75  84  16    73  82  18    69  77  18    48  54   4    35  40   1    56  60  24    40  44  14    56  60  26    68  74  36    50  57  19    75  81  42    75  82  41    45  52   8    48  56   9    83  90  44    81  88  45    34  41  12    37  46   2    54  64  14    66  77  26    45  56   8    55  59  19    57  58  24    44  45  10    74  80  38    73  80  36    68  74  32    58  60  25    47  48  16    40  39  10    42  42  13    38  39   4    57  62  22    60  68  19    53  58  15    47  49  14    52  54  24    45  48  18  
  51  50  20    62  61  30    45  45  14    47  48  15    73  74  40    63  65  31    34  39   1    45  53   6    65  73  21   102 111  55    85  95  32    81  91  25    92 101  35    69  77  15    58  65  11    97 100  55   101 103  66    38  38  11    31  30   4    55  59  27    60  69  24    35  47   2    35  46   7    59  68  27    32  41   3    57  66  19    75  82  39    83  90  53    40  48  17    22  31   1    53  62  15    59  71  25    40  49  12    34  39  12    28  32   8    34  38  14    66  69  34    70  76  29    47  50   8    42  43   8    42  43   9    33  34   2    42  44  12    41  47  10    64  71  27    73  83  31    43  50   5    51  54  19    55  58  22    55  59  22  
  41  45  12    40  44  11    41  45  12    48  53  18    40  46  10    36  42   6    40  47   7    40  49   6    45  55   6    94 105  49    82  92  32    80  90  28    67  76  16    44  52   1    45  53   1   119 124  77   137 138 100    52  52  20    13  12   1    41  43  15    57  67  21    63  77  31    56  68  31    47  58  20    49  60  17    56  65  20    66  74  34    34  41  12    17  24   1    51  59  20    50  62  16    57  68  25    66  76  42    40  46  20    10  15   1    24  27   7    42  47  15    49  55  12    55  58  19    41  43   8    35  37   5    87  89  50    67  72  35    57  65  23    78  87  41    73  85  36    45  53  12    37  40  10    38  42   7    32  37   1  
  29  39   5    46  56  22    58  68  33    45  55  20    26  36   2    37  47  12    52  63  22    61  73  25    49  59  11    51  61  11    53  63  13    65  73  20    58  67  11    44  54   1    64  72  14    79  87  30    76  82  34    54  57  19    45  45  17    52  55  28    64  72  35    65  75  37    56  66  33    50  58  23    53  61  20    60  68  24    56  64  25    30  37   5    64  73  40    87  98  59    59  71  25    77  89  45    59  70  33    52  60  28    34  38  10    22  24   1    25  27   1    42  42  13    66  67  36    82  84  47    66  70  19   118 123  72    84  91  46    71  80  30   103 113  63    82  93  52    29  35   7    24  26   5    28  31   4    34  40   6  
  34  45  11    68  79  45    89 101  65    69  81  45    51  63  27    42  54  18    43  55  12    53  65  16    50  60  14    57  66  23    49  58  15    59  68  22    56  65  14    42  52   2    65  75  15    76  85  26    73  80  28    52  57  16    58  62  30    95  98  71    34  41  10    37  46  16    58  67  39    55  64  29    54  62  22    60  69  26    39  47  10    30  36   9    81  90  58    65  75  38    42  53   9    56  68  23    29  41   1    30  39   3    47  53  19    48  51  22    29  31   6    29  29   6    43  43  16    52  54  16    64  70  11    68  77  17    60  69  17    68  78  24    70  81  31    50  59  26    14  20   3    24  26  13    25  28   8    43  48  18  
  41  45  12    60  64  31    56  60  27    47  51  18    62  66  33    43  47  14    38  45   5    55  66  19    74  85  41    59  70  30    38  48   9    55  63  23    57  66  20    60  71  17    46  56   2    71  80  21    78  87  32    58  65  18    77  83  45   124 129  98    78  84  58    40  45  23    54  59  34    55  62  28    79  87  47    68  76  34    62  68  32    80  86  57    89  97  68    30  40   7    24  37   1    45  59  10    61  74  26    63  72  30    61  67  31    75  78  48    60  62  37    28  27   7    30  30   4    37  39   1    62  68   7    72  79  16    52  61   4    55  66   9    44  56   5    54  63  33    26  31  17    20  21  15    28  30  15    45  51  24  
  40  40   6    43  44  10    46  47  13    55  56  22    52  53  19    33  34   2    59  64  25    79  89  46    73  84  42    56  66  26    50  61  21    51  61  21    55  64  21    79  88  40    61  71  19    55  65  12    67  75  23    89  97  48   109 116  73   111 117  83    57  62  39    37  42  21    33  39  12    59  67  30   119 128  86    98 105  63    46  52  16    55  62  33    38  46  18    28  38   4    56  69  25    59  72  22    80  93  40    88  98  49    85  92  50    78  81  51    73  75  48    70  70  44    62  62  35    46  48  12    68  74  19    66  74  15    44  54   2    53  65  12    49  61  10    84  96  61    33  39  22    21  24  17    33  37  21    34  40  14  
  50  54  17    34  38   3    60  64  27    68  72  35    38  42   7    42  46  11    68  75  36    73  82  41    61  72  30    62  73  31    36  47   5    56  67  24    69  80  37    64  75  30    63  74  29    51  62  17    60  69  23    69  78  31    69  79  32   102 110  69   100 104  79    63  66  44    41  46  15    59  66  24    77  85  38    83  91  45    25  32   1    15  22   1    30  38  11    39  48  18    49  62  18    64  80  26    74  91  33    62  72  20    48  53  13    23  26   1    38  41   8    58  60  23    41  41  10    32  33   2    48  50   7    52  56   9    48  55   7    52  61  12    72  84  36   103 116  73    19  27   1    14  18   8    34  38  19    37  46  17  
  54  56  16    58  59  19    64  65  25    45  45   6    79  79  40   123 123  86    71  74  35    60  70  28    44  55  13    62  73  30    43  54  11    47  58  15    60  71  29    56  67  26    45  55  15    45  56  16    50  60  18    47  56  11    45  55   5   119 128  84   140 145 115    63  68  38    51  58  19    58  66  19    50  58   7    56  64  16    26  34   1    18  25   1    22  30   1    30  39   8    31  44   2    55  71  17    50  67   6    45  56   2    44  49   7    40  44  11    42  46  10    48  50   9    45  46  14    40  40  16    56  57  25    62  67  31    65  72  33    44  55  12    53  65  17    82  96  44    33  45  10    11  17   1    23  31   5    38  48  15  
  47  42   3    85  80  38    88  83  43    83  78  38   119 114  74   101  97  56    87  87  46    82  89  47    49  58  15    95 104  61   103 112  69    62  71  28    66  74  34    67  77  39    19  29   3    48  58  23    50  61  22    52  63  20    69  81  34   161 170 125    83  89  54    41  47  11    69  77  28    78  87  33    71  79  24    82  90  41    86  93  53    27  34   4    35  44  16    47  56  23    48  60  19    45  60   6    51  68   6    50  61   6    53  60  16    58  62  27    62  65  27    53  56  13    41  41  13    51  50  34    80  79  58    84  84  62    72  76  49    37  44  12    45  56  10    85 100  42    51  65  22     9  19   1    14  24   1    23  33   1  
  61  59  11    81  78  33    74  71  26    99  96  51    93  90  45    73  70  25    87  90  45    88  95  50    62  70  25   106 116  72   117 125  84    60  68  29    67  75  38    62  72  36     7  17   3    37  47  12    80  90  53    51  62  21    89 100  58   123 132  89    53  60  17    66  74  25    87  96  41    80  89  32    86  95  40    96 104  58    87  94  55    52  59  25    50  58  27    59  69  35    74  86  45    68  83  29    69  86  22    64  77  18    54  63  15    61  67  27    81  85  48    91  94  58    91  90  70    88  85  76    65  63  50    50  48  35    28  30  12    29  35   3    54  66  19    82  97  38    63  76  25    25  35   1    23  33   1    30  41   1  
  79  92  39    56  69  18    50  63  12    49  62   9    71  83  33   140 152 102    97 106  54   111 118  69   117 123  78    39  45   8    42  48  14    57  62  31    57  62  31    44  51  17    29  37   1    62  69  30    51  59  20    43  51  13    82  90  55    77  85  48    57  64  19    69  79  24    99 109  49   104 113  55    87  95  43    50  57  16    34  40   7    45  50  17    35  42  10    39  45  13    76  88  47    87 100  48    74  90  26    77  89  29    72  80  30    69  75  34    62  66  32    56  58  35    49  47  37    18  14  11    14  11   2    32  31  20    26  27  15    34  41  10    63  73  24    64  77  24    45  57   9    57  70  25    57  69  22    36  49   2  
  96 113  58    76  93  38    51  68  13    47  63   9    52  69  15    84 101  47    81  93  40    80  88  37    83  88  45    58  63  27    16  20   1    41  45  18    54  58  30    39  45  11    36  44   3    48  57  15    24  33   1    35  42   7    36  43  11    70  77  43    69  77  31    44  53   4    74  84  24    82  91  37    47  54  11    15  21   1    28  33   4    24  29   1    35  41  11    39  46  13    41  51  13    44  58   5    65  80  17    70  84  25    54  64  13    41  50   7    26  31   3    12  13   1    19  16  13    24  20  19    33  30  21    24  21  13    15  15   5    28  32   3    62  71  27    54  65  23    26  37   6    60  73  28    53  66  17    43  55   7  
  73  88  33    78  93  38    61  76  21    71  84  30   100 113  59    44  57   3    38  47   1    48  51  13    75  75  37    42  43  11    20  20   1    22  22   6    50  51  24    35  39   8    29  35   1    34  41   3    70  77  36    76  82  45    28  34  11    23  28   1    42  52   2    63  74  17    77  88  30   104 112  66    22  27   7    26  30   7    19  22   1    24  28   5    40  44  17    36  41  11    32  39   4    51  62  13    67  81  21    58  72  16    48  57  11    33  41   5    31  33  12    38  37  29    36  33  34    22  18  19    20  18   8    25  23  13    18  17   9    14  17   1    53  59  25    61  68  37    31  39   4    45  56  14    50  62  15    62  74  28  
  39  52   1    48  61   7    61  72  19    84  94  42    89  99  46    47  57   4    34  41   1    43  44  11    95  95  60    57  56  25    50  50  24    34  34   8    42  42  14    49  52  20    68  72  35    83  90  49    65  72  32    60  66  29    42  48  13    46  52  15    46  56   5    66  77  21    82  93  40   115 122  84    56  60  36    16  18   5    17  19   6    17  21   3    22  26   3    38  42  13    50  57  22    69  80  32    82  96  37    57  69  17    41  52  11    30  39   9    36  40  21    32  32  24    18  14  16    24  20  21    20  17   8    17  16   5    19  19   9    24  26   7    37  41  15    40  45  23    46  53  26    44  54  19    25  36   1    61  73  28  
  94 104  53    71  81  29    61  70  18    67  75  24    49  57   6    64  72  21    58  62  20    63  61  31    34  30   5    50  47  18   102 101  71    74  73  43    46  45  15    60  60  29   106 107  75   118 122  87    32  36   3    40  44   7    48  54  14    44  51   9    56  67  16    93 105  52    80  90  42    43  49  18    26  28  14    19  19  17    20  20  15    21  21   6    25  28   6    35  39  12    55  61  28    74  82  37    75  87  31    41  53   6    32  41   9    20  28   8    17  21   5    18  20   6    16  13  11    21  17  18    26  23  16    28  26  15    26  24  13    27  27  14    30  32  17    19  21   8    32  37  17    48  58  27    25  34   4    24  33   1  
  70  80  28    82  91  39    56  64  13    52  60   9    65  73  22    83  91  40    96 100  58    66  66  34    46  45  15    59  59  26   110 112  75    77  79  42    57  59  23    47  50  15    58  62  27    42  48  12    33  38   2    42  48   9    52  60  16    65  74  27   120 133  80    80  91  40    60  68  25    17  22   5     8   9   2    15  15  18    22  23  22    30  32  19    31  36   9    42  48  12    63  69  31    69  77  29    65  77  22    39  51   7    29  39  10    21  24   8    18  20   6    18  19   5    15  12   7    18  14  12    20  17   9    21  19   7    24  22  10    25  22  11    28  28  18    27  29  16    36  41  23    43  48  23    51  57  25    45  51  15  
  54  60  12    56  64  15    56  64  15    60  68  19    66  74  25    98 108  57    86  93  46    36  41   4    35  40   1    70  76  32    78  86  39    63  72  25   101 110  65    63  72  29    21  29   1    66  77  35    61  72  31    33  44   2    37  49   4    57  71  18   121 135  76   105 116  63    85  93  54    25  31  12    14  18   4     9  10  12    20  21  21    27  31  17    26  33   4    63  73  23    72  82  32    59  70  17    70  80  26    38  48   6    32  42  13    30  31  13    24  21   9    31  27  17    32  29  23    17  16  12    17  17   9    14  10   4    28  21  10    29  25  13    40  40  25    42  46  29    33  37  19    33  35  15    48  49  26    59  62  35  
  64  70  24    73  80  34    54  62  18    51  59  14    91  99  51    56  66  16    65  74  25    54  62  13    47  55   6    48  56   5    51  61   9    57  68  18    92 104  55   108 120  74    76  87  43    99 112  69    59  72  30    65  78  34    79  94  46    37  51   4    67  80  22   149 158 109    88  95  58    17  23   5    16  21   2    27  30  24    31  34  28    28  33  13    36  45   1    72  83  24    67  77  24    72  82  28    69  80  27    38  50   8    28  38   8    31  33  12    34  30  17    36  29  22    32  27  21    21  20  15    17  15  10    24  20  12    20  13   4    35  28  16    47  45  30    33  37  20    28  33  16    35  35  18    34  33  13    37  37  13  
  52  58  14    54  60  16    88  95  51   140 147 103    75  82  38    39  48   3    54  63  15    69  79  26    66  76  23    65  75  23    66  76  24    56  67  18    72  84  39    89 100  57    72  83  42    69  81  41    57  69  28   108 121  77   109 123  75    91 105  54    75  87  39    51  60  19    77  84  49    54  61  27    15  22   2    27  35  14    36  43  24    24  33   9    36  48   4    80  94  36    60  73  20    54  66  15    61  73  23    48  60  19    34  41  12    31  30  11    36  29  18    30  22  14    23  19  12    20  19  14    17  16  12    12   8   4    32  24  17    73  66  56    46  44  31    18  22   8    33  37  23    27  29  14    32  33  13    28  30   4  
  51  56  16    62  68  27    79  86  45   109 116  75    64  71  29    57  67  23    59  68  19    69  80  25    85  96  40    73  83  30    64  74  22    57  68  21    50  62  18    66  76  38    51  61  24    65  77  39    76  89  49    89 102  58    94 108  60   141 154 105    84  94  52    47  55  15    74  82  45    63  71  31    34  42   3    19  28   1    23  31   6    33  43  10    55  68  19    69  82  26    58  71  19    54  67  16    53  66  15    53  65  23    45  54  23    31  32  14    25  20   8    20  13   4    15  10   2    17  16  11    20  19  17    19  14  12    30  21  17    49  41  32    27  22  12    17  18  10    18  21  12    18  20   6    36  38  16    36  39   9  
  44  48  13    50  55  20    63  69  33    88  96  58    81  89  51    44  52  12    51  61  14    51  65   8    72  86  27    63  76  20    66  79  27    73  85  38    43  54  12    39  49  13    60  70  36    55  65  31    48  58  22    62  73  31    63  75  30    46  58  10    36  47   5    81  92  49    48  59  21    51  63  19    67  79  35    27  37   4    14  23   1    36  45  14    42  53   9    41  54   1    61  74  21    61  74  19    53  66  12    45  58  12    48  55  26    34  32  17    20  15   4    20  14   4    14  13   1    17  17   9    17  15  16    26  21  21    20  11   8    15   7   1    15  11   2    24  26  21    10  12   6    26  29  15    55  60  33    36  42   4  
  48  52  19    37  41   8    53  59  25    70  78  42    60  68  31    35  43   5    46  56  10    58  71  15    61  75  16    75  88  32   124 137  85   134 146  97    76  88  44    46  57  18    53  63  28    43  53  19    42  53  16    38  49   8    55  66  23    42  54   9    58  70  25    81  93  46    63  75  26    63  76  24    67  79  33    37  47  12    49  59  28    62  71  39    51  62  18    43  56   3    53  66  12    57  70  13    64  77  21    33  45   7    30  39  12    26  26  13    20  14   8    25  20  10    18  17   6    15  16   7    18  15  17    18  12  15    23  14  12    30  22  14    18  14   3    20  22  17    24  27  19    25  30  11    53  59  28    58  65  24  
  57  57  30    26  29   1    37  42  10    57  64  30    85  92  57    53  63  27    41  53   9    50  62   9    55  68  12    79  92  37   136 149  95   126 139  88    65  77  31    66  77  36    61  71  34    29  39   4    48  57  22    65  73  35    66  74  34    58  69  26    45  57   9    67  81  29    71  85  32    50  64  11    46  60  10    61  73  35   102 114  79    87  99  61    50  62  15    67  79  24    77  90  34    58  71  15    55  67  14    30  42   6    15  24   1    18  17   8    24  19  14    28  22  15    23  22  11    18  19  11    22  21  22    21  17  18    25  17  13    26  18   7    19  15   2    18  19  13    30  33  22    31  37  12    46  53  15    46  55   8  
  41  41  13    30  33   5    29  34   4    53  59  26    60  67  33    43  53  18    53  64  22    65  77  27    54  67  14    64  77  23    83  96  42    47  60  11    50  62  18    88 100  53    59  70  28    39  50  10    44  54  17    53  61  24    65  73  36    31  41   4    41  55   6    50  64  11    58  73  18    60  74  21    38  51   2    56  69  25    47  60  17    34  48   8    39  52   2    62  76  17    66  80  22    54  67  15    39  51   7    38  50  17    15  23   4    16  15  10    30  23  22    29  22  18    28  27  18    26  27  19    15  15  13    18  15  12    31  22  16    24  16   3    21  18   1    25  27  15    32  36  19    35  42  11    50  59  16    51  61  12  
  38  41  12    37  40  10    38  43  11    31  38   4    49  56  22    40  50  13    42  53  14    60  71  29    59  71  24    72  85  33    96 109  52    77  90  34    77  90  34    70  82  29    54  66  17    52  63  20    31  41   9    17  25   1    61  68  35    48  58  21    68  81  36    70  86  33    69  83  29    66  80  26    37  51   2    54  68  17    47  62   7    89 104  43   101 116  52    54  69   5    53  66  11    36  48   8    24  33  10    36  45  23    20  26  13    14  12  10    23  16  17    29  23  20    28  28  20    27  30  19    26  26  20    15  12   7    22  14   4    36  29  11    41  36  16    24  26   9    20  26   5    19  27   1    48  57  15    70  80  30  
  46  49  20    53  56  27    43  48  16    38  45  11    89  99  64    78  88  51    45  55  18    35  46   7    34  45   3    45  57   7    56  69  14    62  76  17    70  84  23    46  59   5    47  60   7    44  56   8    48  58  16    54  62  25    50  56  23    63  73  36    48  61  15    43  60   7    55  70  15    51  65  13    62  76  25    64  79  23    97 112  51   102 118  51   104 120  50    76  91  25    60  73  18    30  40   5    20  27  10    35  42  27    24  27  17    18  14  13    24  17  17    26  19  16    24  24  15    27  31  18    29  31  20    27  26  13    42  37  20    34  28   7    66  64  41    45  49  25    23  30   3    42  50  13    77  86  39    54  63  16  
  57  59  29    55  58  27    50  55  23    46  53  19    63  73  38    81  91  54    78  89  54    52  62  27    40  50  11    37  49   1    35  48   1    37  51   1    53  67   9    57  71  11    59  72  18    36  48   1    63  74  30    86  97  56    38  48  10    50  61  20    50  65  13    69  84  26    53  68  10    59  73  20    65  79  30    81  94  40    93 106  47    56  71   7    45  58   1    71  83  20    80  90  36    35  43   7    22  26  11    25  28  20    20  21  15    19  15  12    23  15  13    22  15  12    18  18  11    20  23  10    15  19   2    25  26   5    54  51  27    75  71  46    51  50  22    15  19   1    34  41   6    65  72  30    86  93  49    31  38   5  
  55  58  27    41  45  13    38  44  12    47  56  21    33  43   8    48  60  22    63  74  39    51  61  26    50  61  22    68  80  35    48  61   7    73  86  30    61  75  16    51  64   7    56  69  15    44  57   5    56  68  19    83  94  50    51  62  19    68  80  32    93 108  51   106 122  58    73  89  25    57  72  16    53  66  17    73  86  35    53  66  13    61  75  19    74  87  25    65  76  16    66  76  22    54  61  25    39  43  27    18  21  14    17  18  12    20  15   9    20  13   7    22  15  12    23  22  15    20  24  10    24  29   6    47  49  22    34  31   4    74  70  44    56  55  28    25  31   1    40  48  10    68  74  35    64  71  32    30  36   3  
  64  67  38    52  56  26    62  68  36    80  89  55    63  73  39    43  55  19    52  63  28    41  49  15    46  53  16    79  88  45    58  67  20    79  90  37    78  91  37    58  71  18    68  81  28    88 102  49   100 114  61   104 118  65    79  93  40    90 105  49   115 131  68    68  85  16    70  87  18    77  91  33    39  51   3    47  59  12    38  49   1    67  77  25    59  69  17    54  64  12    61  69  20    36  42   8    50  53  34    30  31  23    13  13   5    18  12   1    21  13   2    20  13   7    23  22  15    25  29  14    44  50  21    68  73  39    67  67  36    61  59  34    35  35   9    38  44  10    56  62  27    59  62  30    44  44  16    39  39  15  
  41  44  15    51  56  25    62  69  36    64  74  40    82  92  58    60  71  37    80  89  54    61  69  31    45  53  13    37  46   3    41  50   4    55  65  17    51  63  15    44  56   8    62  75  27    91 105  54   143 158 103   110 125  67    68  84  22    84 100  37    70  86  22    54  70   2    67  85  12    64  79  16    37  50   2    37  50   2    58  71  18    58  68  17    15  25   3    38  47   5    76  84  38    26  32   1    21  24   8    26  28  18    10  10   2    28  23   4    43  36  18    27  21  10    21  20  12    25  29  13    43  50  17    37  43   6    62  62  29    44  42  18    21  23   1    49  57  20    62  69  33    33  35   9    33  32  11    42  41  23  
  54  58  31    72  77  48    47  54  28    28  36   8    67  76  45    58  67  36    72  81  45    64  71  31    45  52  10    49  56  14    41  49   7    39  49   6    38  49   6    31  42   1    43  55  10    44  58   9    75  90  33    52  69  13    45  64   1    97 117  48    65  80  23    55  70   9    78  93  23    71  86  19    98 112  50    94 105  45   103 114  55    65  76  23    36  44   3    49  56  15    79  86  44    47  51  22    20  21   7    27  27  18    19  17   5    52  46  22    64  57  35    36  29  16    27  25  15    26  30  13    22  32   1    49  56  12    46  46  14    25  23   2    44  45  25    57  65  27    29  34   4    15  13   1    32  29  15    44  39  28  
  74  81  50    76  83  50    47  56  22    41  51  17    42  52  17    46  56  21    71  81  43    63  72  30    43  52   9    48  57  14    67  75  34    64  73  31    55  66  24    53  64  22    68  80  34    69  81  33    42  57   3    61  77  12    54  71   4    73  90  22    69  84  26    52  67   8    85 100  36    81  96  34   107 121  60   133 145  83    55  66  10    52  61  15    43  50  12    22  27   2    34  40   4    51  55  29    23  24  13    20  21  11    18  19   2    54  53  25    54  49  23    22  18   2    26  25  14    22  26   7    29  37   3    69  75  33    66  69  33    54  54  30    55  57  35    46  54  18    31  36   6    28  26  12    30  26  17    22  19  12  
  62  72  36    33  43  10    71  82  43    73  85  45    79  92  49    40  53  10    84  97  54    77  88  45    43  54  10    63  74  31    58  69  26    45  56  13    50  59  16    66  75  30    99 108  61    58  69  18    75  88  33    73  87  28    80  94  32    62  77  12    60  75   8    88 101  42    82  91  42    87  97  48   127 137  85    80  89  37    79  86  43    44  49  21    27  32   6    23  30   1    51  59  20    41  47  20    19  24  11    17  24  10    17  25   3    46  52  24    53  55  31    23  21   6    29  28  16    25  26   9    32  37   7    99 106  65    84  90  52    70  74  44    76  80  55    68  73  40    27  31   6    21  20  12    14  15  10    17  18  13  
  37  50  11    33  46  13    74  87  44    58  71  27    66  79  33    34  47   2    58  70  24    53  66  21    61  74  30    84  96  53    54  65  22    48  57  13    39  48   5    61  70  25    90 100  50    50  60   8    57  67  13    56  68  12    48  62   4    59  73  12    77  92  25   112 125  68    79  88  46    59  68  25    87  95  48    64  72  24    72  78  43    27  31  11    10  13   1    23  29   4    78  86  49    47  54  26    18  24   8    19  27   8    22  32   8    48  57  26    87  92  67    52  54  37    27  27  13    37  36  17    27  31   4    83  91  48    71  79  38    53  59  25    64  69  39    58  64  29    18  20   1    11  13   4    17  20  11    31  34  26  
  71  82  40    64  75  33    62  73  31    40  51   8   109 121  75    90 103  57    46  58  12    44  56  10    66  78  31    62  71  26    67  76  31    97 104  60    64  71  27    52  60  13    44  52   3    69  77  26    57  66  13    69  79  23    66  77  20   128 139  81   101 112  53   139 148  99   105 112  72    34  41   7    47  55   5    76  83  33    60  64  30    20  20   6    21  21  10    32  34  14    66  72  38    50  56  23    30  37  13    18  27   1    37  48  18    64  74  40    57  61  33    36  36  18    12  11   1    55  55  32   120 124  87    54  60  22    38  46  11    47  54  18    38  45  10    68  74  36    26  31   4    26  29  15    41  43  23    32  35  14  
  94 106  63    69  80  38    34  45   4    80  92  48   139 151 103    77  91  42    44  57   9    37  49   4    42  52   8    40  50   5    70  77  33   104 111  67    85  92  47    71  78  30    54  61  10    58  67  14    66  75  20    82  91  35    90 100  42   136 147  89    92 103  46    76  85  36    59  65  26    88  94  52    62  68  20    49  55  10    50  53  24    19  19   9    27  27  18    61  63  43    66  72  38    46  52  16    58  66  35    21  32   8    34  45  13    71  80  44    49  54  29    13  14   1    57  56  35    62  62  34    78  83  43    54  61  17    48  57  13    45  53  13    48  56  17    45  52  11    33  39   4    51  56  26    51  56  27    28  32   7  
  47  55  14    53  62  20    56  65  22    85  94  50    69  78  31    40  52   4    48  59  12    52  61  16    65  72  28    60  67  23    52  60  13    58  65  18    56  62  15    74  80  32    85  92  41    64  70  18    74  81  27    77  84  29    73  81  24    85  95  35    83  93  34    69  77  30    47  51  19    95  98  64    52  56  19    35  37   1    37  38  11    21  19   6    26  26  11    47  49  26    65  69  32    67  72  34    44  50  19    27  37   4    25  35   1    80  87  48    95  99  63    53  53  24    66  64  39    56  56  26    18  23   1    52  59  13    54  63  16    41  50   6    45  54  11    45  54   7    45  53  13    48  52  24    21  25   2    26  28   4  
  57  65  24    41  49   7    58  67  24    57  66  22    66  75  28    78  90  42    46  57  10    80  89  44    96 105  60    77  85  38    77  85  38    62  70  21    47  55   5    68  75  25    72  79  27    65  72  18    64  72  15    68  77  20    81  91  32    72  82  21   103 113  51    88  96  44    57  62  25    56  59  27    45  48  17    41  44  13    33  32  10    20  20   5    32  34  15    73  76  47    55  60  20    44  50  12    42  48  16    37  46  11    57  68  28    89  97  56    55  59  21    56  56  23    44  43  12    32  32   1    30  36   3    72  80  32    64  73  25    38  47   4    55  64  18    66  76  26    50  58  18    24  29   6    17  19   1    31  33   9  
  54  60  22    41  48   9    48  55  14    55  62  20    71  78  34    62  71  26    50  60  15    55  67  21    51  63  16    58  67  20    80  89  42    68  76  27    63  71  21    55  64  13    62  71  18    58  67  12    53  62   5    62  71  13    90 100  40    83  94  33   122 135  66    58  69  12    68  76  36    57  62  29    26  29   1    34  37  10    28  30   7    28  29  11    36  37  15    88  93  60    68  75  33    35  43   3    66  73  40    56  65  28    74  82  41    93 100  58    61  65  26    52  53  17    63  63  29    45  45   9    41  43   3    60  66  21    53  61  14    51  62  14   114 126  76    71  81  29    77  84  45    38  41  18    25  27   7    34  36  12  
  52  58  19    58  64  26    70  76  37    74  81  40    74  81  39    33  42   2    55  65  19    44  56  10    43  56   8    58  70  22    40  51   2    64  74  24    77  87  35    46  56   8    56  67  12    70  81  23    60  71  14   109 120  60    72  83  23    54  67   5    80  95  26   104 116  56    81  90  44    67  75  36    26  32   4    38  43  13    39  43  19    27  30  11    32  35  12    39  46  14    69  77  36    31  40   1    50  59  22    60  71  30    53  62  19    74  81  39    70  74  34    54  55  17    62  62  26    79  81  42    70  75  34    52  60  17    48  57  11    62  73  24   122 134  84    81  91  39    47  55  13    50  54  26    47  50  27    20  20   2  
