P3
50 50
255
  32  26   6    25  22   2    25  21   4    60  57  42    56  55  37    30  27  10    38  28  16    52  40  28    38  25  16    45  35  24    63  50  41    36  26  16    34  26  15    38  32  20    33  29  17    34  32  14    42  44  23    65  69  44    65  71  40    47  56  21    44  54  17    36  48  10    48  59  24    40  50  16    42  51  20    52  58  30    46  51  28    47  50  29    48  52  33    32  33  14    25  24   6    33  32  14    34  32  14    49  46  29    37  34  17    31  28  12    31  24  10    21  16   5    23  22  17    21  20  15    28  29  12    25  26   8    35  35  26    26  27  18    20  24   9    23  32   3    37  51   2    65  84  22    64  85  18    49  69   6  
  50  44  18    45  39  17    60  55  37    82  79  62    59  57  39    19  15   1    32  23   8    61  49  35    31  21   9    34  23  11    64  54  44    50  40  30    29  20  11    44  38  26    41  35  23    29  28  10    42  41  20    49  53  26    43  48  16    38  46  12    40  50  13    48  60  22    43  53  18    51  61  27    45  52  21    52  59  31    54  59  37    45  50  28    33  36  16    31  34  13    32  34  12    29  29   7    39  37  15    88  87  65    51  47  28    38  34  15    34  28  11    26  21   8    21  19  11    25  25  15    34  35  14    22  25   3    28  29  14    33  35  21    33  37  21    26  37   5    29  46   6    46  67   9    71  94  23    55  77  13  
  74  68  41    35  29   7    91  86  67   116 111  95    39  36  21    15  12   3    45  36  21    58  46  31    47  35  22    33  21   9    72  62  52    53  43  33    31  22  13    59  52  41    48  42  30    26  25   8    37  36  16    45  49  24    46  50  22    48  55  22    43  53  17    42  52  16    40  50  15    45  55  21    40  49  17    40  49  19    37  43  18    28  33  10    28  32  10    32  36  14    30  32   9    34  36  11    65  65  41    91  91  67    56  54  32    55  53  32    56  52  32    26  23   5    19  21   3    23  27   7    40  43  16    40  43  14    43  45  20    47  51  27    45  50  28    35  46  13    69  85  31    91 111  46   104 126  56    80 101  40  
  69  64  34    81  75  50    77  70  52    42  36  26    11   9   2    74  69  52    94  85  68    50  38  22    53  41  26    28  16   2    60  50  38    60  50  40    37  28  18    47  40  30    43  37  25    29  27  12    32  31  12    41  45  22    41  45  20    39  46  14    42  52  17    37  47  12    40  52  16    34  46  10    33  43  10    30  39   8    38  44  17    34  40  14    48  52  27    44  48  24    51  54  28    35  38  10    59  61  35    49  51  25    46  46  21    55  55  31    62  62  39    50  49  27    35  39  14    35  41  11    43  48  15    38  44  11    39  43  10    53  59  27    53  59  31    42  52  16    54  68  15    70  88  27    78  99  36    73  91  37  
 119 113  87    84  78  53    29  22   5    14   7   1    55  51  31   101  97  73    91  83  62    46  35  17    65  53  37    44  32  16    35  25  13    63  53  43    47  38  29    43  36  26    36  30  18    35  33  20    30  28  13    35  38  17    33  37  12    27  33   5    36  45  14    36  46  12    36  48  12    37  49  12    34  44  10    27  37   3    43  49  19    31  38  10    48  52  25    64  68  42    70  73  44    43  46  15    44  47  18    37  40  11    52  52  24    62  62  36    50  50  24    58  61  34    56  61  30    41  48  14    34  40   4    34  40   4    35  41   5    46  53  17    48  55  19    52  63  21    47  60   9    49  66  11    67  83  33    35  51   7  
  50  43  28    42  35  19    34  28   6    63  58  29   111 108  76   106 101  70    41  33  10    38  28   8    65  54  36    54  42  26    23  13   1    36  26  16    39  30  21    42  35  25    39  32  22    37  35  22    32  30  15    33  35  17    40  44  21    35  41  15    28  37   8    30  39   8    36  48  12    33  45   7    37  47  13    61  71  37    62  69  38    37  44  12    27  32   2    38  43  13    53  58  26    66  72  37    59  62  31    50  53  21    50  53  22    61  64  35    41  44  15    32  37   7    43  50  17    56  64  29    55  61  28    46  52  19    48  53  24    68  73  41    56  63  23    42  54   8    65  79  30    77  93  49    65  79  45    18  32   1  
  19  11   1    28  20   8    49  43  22    68  63  35    84  81  46    79  76  40    52  46  19    43  36  15    52  41  23    44  36  18    30  21   6    21  13   1    29  20  11    30  23  13    37  33  22    36  34  22    34  32  19    28  29  13    35  38  18    35  40  17    24  30   4    44  53  23    53  63  28    35  47  11    55  65  31    85  95  61    55  62  31    36  43  12    28  33   3    40  45  14    56  62  28    86  91  57    76  80  46    56  61  27    43  48  15    47  51  19    51  55  25    37  43  11    48  55  22    50  60  27    55  58  34    56  60  38    55  59  36    57  62  33    38  45   7    42  51   7    44  54  15    50  60  29    16  26   6    22  34   9  
  20  13   1    27  20   6    76  69  52    60  54  32    62  60  27   101 100  64    82  78  50    46  41  17    42  35  16    46  40  21    34  27  11    23  16   5    21  13   4    29  24  13    37  33  24    36  34  23    28  27  15    29  30  15    34  37  19    31  35  14    32  37  15    81  89  61    75  85  52    40  50  15    47  57  23    50  60  26    43  50  19    50  57  26    35  40   8    44  50  17    84  88  55    89  93  58    67  71  35    57  61  25    53  59  25    52  58  24    46  52  20    45  52  19    69  79  45    45  52  25    33  36  22    36  37  27    36  37  20    30  34   7    54  60  26    79  87  44    46  53  27    13  21   3     8  17   5    32  42  17  
  49  42  30    42  36  22    71  64  50    55  50  30    39  37  12    61  59  31    74  71  46    44  41  16    43  37  18    54  50  31    54  47  31    35  31  19    25  20   9    32  28  19    36  32  23    34  31  22    23  23  11    28  29  15    36  39  22    28  31  12    33  38  16    53  59  33    44  53  22    44  54  20    37  45  13    37  45  13    64  69  41    66  72  41    51  55  24    65  69  36   112 113  81   116 117  83    72  77  40    82  86  49    76  82  48    71  77  43    48  55  22    34  41   8    34  42  10    29  34  10    20  21  14    22  22  19    31  32  15    44  47  19    95  99  61    71  77  41    31  35  18    11  17   5    40  48  29    40  50  20  
  63  57  43    40  33  23    43  37  25    54  51  36    52  51  30    52  51  29    52  52  28    43  43  19    38  36  15    39  38  18    41  39  23    34  30  18    33  29  18    46  41  33    26  23  14    26  23  14    24  24  12    20  20   7    27  29  15    25  28   9    27  30  11    20  25   2    26  33   4    65  75  43    70  77  46    43  48  20    57  61  34    49  52  25    40  43  14    67  69  38   104 105  73   101 102  68    62  66  29    90  94  59    63  69  35    38  44  10    42  49  18    53  60  27    56  63  30    60  66  40     8   9   3    82  81  77   106 106  85    76  77  47    76  80  47    19  24   3     3   7   2    35  42  27    59  69  42    59  71  34  
  35  29  15    32  26  15    27  23  14    27  23  12    17  16   1    21  24   3    32  34  10    35  37  13    31  33  11    33  35  14    36  37  21    32  30  17    33  31  19    45  42  33    40  37  30    25  22  13    34  34  23    26  27  13    27  28  14    28  31  12    29  32  13    32  37  14    35  41  13    66  72  44    81  85  58    43  47  22    47  48  24    54  54  29    44  44  16    55  55  25   106 107  75    84  85  51    57  61  26    37  41   6    33  39   5    34  40   6    29  36   5    76  83  50   137 144 110    58  65  34    12  15   2    95  96  78    83  83  55    75  76  44    74  76  48    36  40  16    40  45  24    34  42  18    55  67  32    69  84  41  
  36  31  21    28  24  15    53  48  42    36  33  23    45  46  27    57  61  37    58  63  37    44  49  23    23  26   5    24  28   8    30  32  16    24  25  11    30  28  19    40  38  28    41  39  32    28  26  17    35  35  25    27  28  14    29  30  16    43  44  26    33  36  17    25  29   6    28  33   8    32  37  10    47  51  27    34  36  12    37  37  14    61  61  37    63  61  36    59  58  28    65  66  34    40  41  11    38  39   6    38  42  10    39  45  11    34  39   7    40  47  16    58  65  32    67  74  40    33  39   4    51  55  19    69  71  35    58  57  25    55  54  25    26  26   1    55  57  33    78  83  55    32  41   8    75  88  47    76  92  46  
  19  15   8    31  27  20    53  50  40    82  80  65    96  98  74    69  74  46    66  71  47    52  57  33    26  30  10    24  28   9    29  31  16    25  27  13    26  26  15    19  19   8    21  21  11    23  23  12    25  26  14    29  30  15    27  28  13    41  42  24    39  42  23    31  34  12    35  39  15    26  30   5    31  34  11    40  42  19    27  28   4    41  43  16    57  58  30    54  55  24    51  51  20    34  36   9    42  45  12    58  62  26    49  55  20    33  39   6    49  56  25    62  68  38    40  46  12    44  50  10    64  70  22    67  70  25    49  49  14    44  44  16    38  40  14    61  65  38    43  50  14    33  44   3    58  71  27    69  85  38  
  41  41  24    54  53  35    27  27   6    41  40  18    58  60  29    26  30   8    39  42  20    45  47  30    34  36  21    30  31  16    28  29  16    26  27  13    28  30  15    22  24   8    24  26   9    25  28   9    22  25   6    27  29  10    30  32  13    30  32  13    32  34  16    39  41  22    31  36  12    33  37  12    43  47  21    54  60  29    34  40   5    39  45   8    48  54  16    43  51  15    46  51  20    44  50  19    53  60  24    54  61  20    47  55  13    44  52  12    38  44  12    57  62  32    65  70  35    55  59  21    49  53  16    42  45  10    61  65  34    63  66  35    43  48  16    60  66  33    44  53  18    37  48  11    37  51   9    66  82  37  
  49  53  27    69  72  44    51  52  21    70  72  36   111 113  74    91  92  61    39  39  19    16  14   3    26  24  12    46  44  32    15  15   3    21  23   9    35  38  21    40  43  23    36  40  17    38  43  18    32  36  11    23  27   2    26  30   8    36  39  18    36  39  20    31  34  13    36  40  17    36  40  13    41  47  19    45  52  18    31  42   1    35  46   3    43  54  12    42  54  14    36  45  12    40  49  18    55  64  27    49  59  17    51  60  13    53  62  17    47  53  18    46  52  18    52  55  19    45  49  12    34  37   9    34  38  12    69  76  45    57  66  32    37  47  10    57  67  30    56  67  33    50  61  26    27  42   2    57  72  29  
  55  60  30    58  61  30    48  52  18    67  72  32   103 108  67    79  83  47    41  41  21    37  36  22    42  40  27    32  31  18    19  20   6    24  27  10    32  35  16    51  56  34    48  54  28    39  45  17    37  43  12    34  41  10    28  34   6    29  35   8    35  40  16    34  39  16    34  40  14    36  42  14    42  48  20    42  49  16    41  48  15    39  47  10    44  52  15    45  55  18    51  58  24    48  55  20    49  56  22    50  58  21    45  53  14    42  50  12    40  49   9    39  46   5    45  52   9    48  55  14    36  43   8    30  37   3    53  61  26    44  54  17    37  48   8    48  60  20    50  62  25    61  73  35    29  41   2    24  37   1  
  49  53  28    53  56  30    48  51  23    49  55  23    71  77  43    54  60  28    22  24   4    52  50  37    47  46  32    15  16   4    35  38  20    31  34  14    41  46  23    56  63  36    60  67  37    63  73  40    71  79  45    56  66  31    38  46  14    42  52  20    49  56  28    32  39  13    24  31   4    37  44  16    47  54  23    38  44  13    42  47  18    37  43  15    44  51  19    51  58  24    49  54  18    62  69  31    54  60  28    53  59  30    40  46  17    35  42   8    39  49   5    58  68  19    71  81  32    54  64  17    58  68  25    49  61  19    46  58  17    30  43   2    26  39   1    49  62  21    60  73  32    89 103  58    61  73  30    32  45   8  
  37  39  23    39  42  25    37  40  21    30  35  14    46  53  28    47  53  29    40  41  23    53  52  36    34  35  19    31  33  15    45  48  28    41  46  22    55  62  36    50  60  29    52  63  27    51  63  25    62  73  33    57  70  30    43  54  16    42  55  18    41  51  18    20  30   1    22  32   2    41  50  20    50  57  25    36  43  12    38  42  18    39  42  20    51  54  29    62  66  35    66  69  32    75  80  43    57  61  32    32  36  11    36  42  16    43  50  17    56  69  18    76  90  33    66  80  26    52  68  15    80  96  44    56  72  22    35  50   5    30  46   2    28  43   2    54  69  26    66  82  36    95 111  63    71  85  37    52  64  20  
  25  26  13    35  38  23    38  42  23    31  36  14    28  36  11    33  41  15    48  50  30    55  57  37    21  22   5    30  33  13    48  52  28    54  60  32    52  62  29    51  63  26    46  58  19    47  62  19    56  71  25    55  72  25    54  69  26    64  81  38    61  75  36    34  48  12    36  47  13    47  57  24    52  59  25    47  54  23    46  50  25    48  50  28    50  50  26    55  56  28    58  58  26    53  55  20    40  43  13    33  37   9    54  61  32    83  91  53    78  91  37    73  89  28    61  79  22    42  61   3    64  83  23    54  75  15    43  61  11    23  40   1    18  34   1    67  83  39   102 118  70    72  89  36    64  78  29    36  47   4  
  32  34  23    42  44  30    35  39  21    25  33  10    21  30   3    38  47  20    50  54  31    46  48  26    22  25   3    28  32   9    51  57  29    47  57  23    44  55  20    56  70  30    51  67  22    47  65  17    53  70  21    56  74  24    57  75  27    63  80  35    61  78  34    44  61  19    53  67  31    50  61  27    43  53  19    51  58  25    48  53  23    45  48  22    36  34   9    36  34   9    36  36   5    49  50  19    47  48  17    52  58  25    48  56  18   119 131  86   101 116  59    77  95  35    57  77  18    56  78  16    57  79  14    47  69   5    60  79  27    37  56  11    17  34   1    50  67  23    77  93  44    72  86  33    35  47   3    34  44   1  
  30  32  20    29  31  20    28  33  18    30  37  18    22  30   8    34  42  18    31  34  11    36  38  13    27  31   6    28  32   5    49  56  25    46  56  21    49  62  23    50  65  22    42  58  11    45  63  11    52  70  18    54  74  21    49  69  18    39  59   9    33  52   7    34  51   9    56  71  32    56  68  32    39  49  14    50  57  23    44  51  14    40  44  10    37  36   6    64  63  35    68  66  43    63  63  37    47  48  16    50  57  15    58  68  17    30  43   1    63  78  23    77  96  40    51  71  13    46  70   8    73  98  33    57  82  20    42  62  11    36  55  10    19  35   1    43  59  18    72  88  41    98 112  61    57  68  21    45  53  11  
  34  36  19    29  33  11    23  29   4    28  37   7    37  47  12    33  43  10    46  51  22    52  56  27    42  47  18    40  47  16    47  57  22    44  56  18    45  61  17    51  67  21    54  72  22    50  68  15    51  72  16    52  72  19    44  64  13    38  58   9    34  53   8    29  46   4    41  56  15    55  67  29    55  65  29    56  64  27    77  84  43    61  66  26    54  56  21    74  75  46    82  81  60    60  61  37    42  46  11    75  83  35    74  85  27    51  65   4    53  68  14    65  83  30    71  92  36    62  85  26    47  70  10    38  61   5    47  66  19    36  54  13    19  34   3    34  48  12    43  56  14    55  67  23    59  68  26    75  82  43  
  54  59  29    55  61  27    56  64  24    55  66  20    57  71  19    52  65  18    52  59  23    54  60  27    39  45  12    39  48  12    41  52  13    44  56  15    43  59  13    47  63  15    56  74  22    51  70  15    46  67  11    57  77  24    63  83  33    44  64  16    27  45   2    31  48   7    39  53  12    48  60  20    54  64  27    55  64  25    69  77  35    69  75  33    63  68  30    56  61  28    75  76  53    63  66  41    62  67  29    72  81  31    62  74  15    61  75  14    64  78  25    64  79  30    59  77  26    62  82  29    36  56   7    30  48   5    50  67  26    44  60  24    34  48  14    40  54  20    34  46  10    27  39   3    39  47  10    51  58  23  
  57  62  31    60  67  33    59  69  28    61  74  28    54  71  20    56  72  22    56  66  27    49  57  21    27  35   1    33  44   5    43  56  14    56  70  26    53  69  22    49  65  16    51  69  17    58  77  22    55  74  21    52  71  20    53  71  25    47  64  20    38  55  15    40  55  18    46  58  19    39  49  11    43  54  15    50  61  21    51  62  20    61  69  28    66  74  35    58  66  30    59  65  35    36  42  10    50  57  20    76  86  41    83  97  42    82  95  39    73  85  34    61  74  26    45  62  14    43  61  14    31  47   8    16  31   1    18  33   5    21  34   6    23  36   6    39  52  22    37  47  18    29  40  11    27  33   3    28  35   3  
  44  48  23    51  57  28    42  52  17    60  74  33    59  78  31    53  71  23    45  57  17    45  53  14    32  43   4    38  49   7    44  57  13    56  70  24    64  80  31    67  84  33    65  84  29    55  74  19    59  77  25    54  72  22    43  60  15    55  72  30    64  78  42    47  58  24    38  48  13    53  63  26    54  65  25    33  44   4    41  52  11    46  57  17    55  66  26    53  64  25    50  60  23    47  56  20    62  72  35    80  91  51    64  76  32    70  82  36    73  85  35    77  89  39    61  74  28    35  50   9    37  48  15    21  34   6     9  22   1    13  26   1    16  29   1    40  54  27    42  52  30    37  46  22    24  32   7    28  34   5  
  17  20   1    27  32   9    37  48  16    50  67  28    47  68  22    37  56  10    42  55  12    43  54  12    42  52  10    39  50   8    36  49   5    36  50   4    51  67  18    55  72  20    64  82  27    54  73  18    53  70  19    56  72  26    54  69  27    55  70  31    48  61  29    32  43  12    27  37   3    61  68  34    60  70  33    36  46   9    40  52  16    53  65  29    56  68  30    51  66  25    50  63  19    61  74  30    60  72  36    40  50  17    16  25   2    31  40   4    58  67  18    58  71  18    44  55  12    25  37   1    33  41  16    29  38  16    29  38  16    33  43  19    23  33   8    29  39  15    24  31  15    22  29  13    24  32   9    29  38  11  
  25  29   8    28  34  11    58  69  37    54  70  31    45  64  18    44  63  16    49  61  19    41  52  13    38  49   8    40  53  10    49  62  18    52  68  21    61  78  25    54  71  17    46  65  10    60  78  26    54  71  22    43  59  15    46  61  23    38  51  17    19  31   2    15  25   1    40  47  14    48  55  20    47  57  21    60  72  34    43  53  19    52  62  28    55  63  29    50  61  23    50  65  22    45  60  17    53  64  27    48  57  22    55  60  27    35  39   4    54  61  14    60  69  20    35  46   4    37  48  11    39  49  18    40  49  22    45  55  29    53  63  39    39  48  25    21  31  10    26  33  17    26  33  16    32  39  18    31  39  12  
  34  40  16    31  40  13    59  70  38    48  63  24    47  64  17    47  64  16    44  56  17    44  54  18    40  52  12    40  53  10    47  61  15    54  71  20    55  73  19    52  71  16    55  74  19    51  69  17    48  66  19    48  63  21    45  58  23    38  49  18    28  37  11    22  30   4    33  37   6    38  44   8    44  55  19    57  71  33    49  59  25    50  58  23    68  72  39    54  61  26    45  57  18    42  54  14    45  54  15    56  61  23    85  83  46    59  58  18    58  60  16    61  68  22    36  47   6    43  55  14    39  51  11    44  56  18    48  59  26    52  62  35    51  60  39    22  31  13    33  40  24    35  43  23    35  40  16    36  42  14  
  28  35   5    38  48  15    40  51  17    53  66  28    47  61  17    38  52   8    35  45   8    46  56  19    40  51  11    36  49   6    50  66  19    57  74  22    53  72  17    55  74  19    54  72  20    57  75  24    61  77  32    59  74  33    55  66  31    46  57  25    40  48  22    37  43  16    32  36   5    37  43   7    52  65  27    50  65  24    71  81  41    51  60  19    60  66  25    56  64  20    44  57  11    54  67  21    54  63  18    70  76  31    76  73  33    69  66  25    61  62  22    43  48   7    56  65  25    51  63  22    44  57  16    34  46   8    43  54  20    47  57  31    45  54  33    16  25   7    24  31  14    23  31  10    34  40  14    36  42  12  
  28  35   1    49  57  19    61  69  31    82  93  53    63  74  34    42  53  13    37  48   9    44  55  15    37  50   7    37  50   6    50  66  19    56  72  23    51  69  17    51  70  17    48  66  15    58  76  26    65  81  36    63  75  35    54  66  30    48  58  24    45  54  23    45  52  22    57  62  30    52  60  23    50  64  24    48  65  20    64  78  30    53  64  15    50  58   6    60  71  16    57  72  16    69  83  29    64  74  23    78  84  37    76  74  32    84  80  42    70  70  32    19  23   1    43  51  14    49  60  22    48  58  21    34  46   8    23  34   2    35  46  16    31  41  17    25  34  13    23  30  10    22  29   7    38  44  17    41  48  17  
  67  74  29    58  67  22    89  98  54    80  89  47    64  73  36    55  65  28    45  56  16    37  50   6    36  49   5    42  55   9    45  61  12    50  66  17    55  73  23    59  77  27    55  71  22    62  78  29    66  79  35    58  71  28    51  60  23    52  59  25    55  61  28    55  62  29    49  55  21    56  66  29    53  70  26    48  68  17    47  64   9    62  75  19    62  74  13    61  75  13    62  81  16    65  83  21    72  85  29    88  95  44    81  80  38    83  81  43    80  82  45    45  48  15    26  32   2    36  46  12    41  51  14    41  51  14    39  49  13    47  56  25    31  41  16    22  32   8    18  28   4    21  31   5    23  32   1    41  50  19  
  63  71  21    56  67  15    48  58  10    61  73  28    66  75  37    66  76  39    55  68  24    46  59  13    48  61  15    56  69  23    56  72  23    56  72  23    57  75  25    59  77  27    57  73  24    63  79  32    65  78  34    59  70  28    58  66  26    60  68  30    60  66  29    55  62  27    50  57  22    58  70  32    57  76  30    54  75  24    46  64   9    53  69  10    70  84  22    76  92  27    63  84  18    52  73   9    61  75  19    74  82  32    69  70  28    62  60  23    56  57  26    47  50  19    44  49  19    56  64  31    68  76  41    70  79  42    79  89  51    60  70  36    40  50  22    19  29   3    18  29   1    31  42  11    35  46  11    58  68  34  
  70  81  29    63  77  22    72  86  31    76  91  40    72  86  43    84  97  56    72  85  40    62  75  28    48  61  15    53  66  20    67  83  36    70  86  39    59  77  29    55  73  25    58  74  28    59  74  29    55  67  23    48  59  16    52  59  18    60  67  27    60  64  27    52  58  21    54  62  25    69  81  41    55  74  28    59  81  31    48  68  14    44  61   5    52  67   9    60  77  17    60  81  19    56  77  17    63  78  26    64  72  27    58  59  21    58  55  22    37  38   9    33  36   7    54  59  29    65  71  39    56  64  27    59  67  27    57  66  27    41  52  14    39  49  16    35  46  14    26  37   5    41  53  19    64  76  38    46  58  20  
  98 112  60    80  97  39   111 128  70    86 104  49    76  94  45    72  88  44    74  87  41    59  72  25    41  54   8    39  52   6    51  67  21    66  82  36    67  84  38    60  77  31    68  82  38    59  72  29    46  57  15    36  47   5    46  53  12    58  65  24    71  76  37    52  59  19    61  69  31    63  75  35    48  67  22    45  68  20    41  61  11    31  48   1    32  47   2    54  71  19    46  66  14    35  56   6    56  71  26    45  53  14    35  34   3    30  29   4    29  29   4    29  32   5    37  42  12    39  44  11    31  37   1    42  51   8    36  43   3    34  45   3    39  49  14    41  51  17    30  41   6    41  53  16    72  85  43    41  54  12  
 107 120  74    98 115  61    71  90  32    83 101  45    84 103  51    68  85  38    68  80  35    56  67  24    44  56  12    38  51   7    38  52   8    46  61  16    57  73  28    62  78  33    54  67  24    52  65  22    49  60  18    44  52  11    48  55  14    48  55  14    63  67  30    63  68  31    63  69  31    60  72  32    59  78  35    45  67  21    37  56  11    46  63  19    54  69  26    57  74  29    31  52   9    20  42   1    29  43   7    37  47  13    42  42  13    53  51  26    40  40  16    43  45  20    45  50  20    47  53  19    36  43   3    30  39   1    36  45   2    42  50   9    42  52  15    31  41   6    24  36   1    26  38   1    55  68  25    51  64  21  
  64  77  35    76  92  43    56  75  20    61  80  25    68  86  34    53  68  20    44  55  13    41  52  10    40  50   9    42  55  12    47  60  17    44  57  14    42  55  12    46  59  16    52  65  22    52  65  22    51  62  22    46  54  16    54  60  22    44  50  13    46  50  16    69  73  38    64  69  34    58  68  31    50  66  27    33  54  12    38  56  14    59  76  34    57  72  33    39  55  16    32  53  14    30  53  14    27  42   9    41  49  21    50  50  26    60  59  38    36  38  16    45  49  24    67  72  42    66  72  36    61  69  28    58  67  24    60  69  28    38  49   9    37  47  12    38  48  14    32  44   8    22  34   1    30  43   1    53  66  23  
  30  41   5    38  51   9    53  67  22    53  68  22    60  73  27    66  77  34    59  66  28    52  60  22    42  50  12    42  52  13    54  65  24    54  67  25    46  59  16    44  57  14    48  61  18    51  63  21    41  52  12    29  38   2    43  49  13    40  46  12    32  35   3    59  63  30    62  66  33    51  57  24    30  45   7    25  43   4    42  59  17    44  61  18    36  50   8    44  60  19    46  69  26    37  60  19    42  58  23    39  48  18    46  48  24    40  39  19    32  33  13    32  36  14    37  43  12    50  56  21    58  67  26    61  69  29    54  65  25    43  53  16    39  50  17    30  39   9    35  46  14    38  50  15    32  44   5    45  57  16  
  43  52  15    54  62  26    61  69  33    82  90  54    75  81  44    76  82  46    72  76  43    66  72  39    51  57  24    38  47  11    40  50  11    44  55  15    44  56  14    45  58  15    49  62  19    54  67  24    39  49  11    28  37   4    45  51  18    49  54  23    35  38   8    51  54  25    57  58  30    41  46  15    35  48  12    41  58  16    47  63  19    41  57  10    43  57   9    60  78  29    61  84  35    46  70  23    56  73  33    52  62  29    40  42  17    29  28   8    28  29  12    18  21   1    25  32   3    59  66  33    77  85  47    71  79  41    36  46  11    33  42   9    39  49  22    36  46  21    46  56  29    44  54  25    27  37   3    35  45   9  
  41  48  11    51  55  23    62  64  36    66  66  39    50  49  20    38  38  11    30  31  10    32  36  10    36  41  11    38  45  11    39  47  10    41  52  12    45  56  14    46  57  15    54  67  24    50  63  20    32  42   5    41  51  16    59  66  35    58  64  35    39  43  16    40  42  17    45  45  21    33  36   8    37  47  12    42  58  15    43  57  11    43  58   6    45  60   5    48  68   9    60  83  26    52  76  21    62  81  34    67  78  40    40  43  14    32  31  11    32  33  19    23  27   9    22  28   2    46  53  21    59  69  33    71  80  44    54  63  31    29  38  10    22  31   9    32  41  21    32  41  19    28  38  14    22  31   1    29  38   6  
  40  46  12    38  41  14    43  43  17    33  32   4    28  27   1    44  45  13    35  38  10    26  30   4    31  38   5    42  50  14    49  57  18    49  60  18    49  60  18    42  53  11    44  56  16    39  51  11    29  41   1    58  68  32    66  75  42    51  60  29    40  46  20    44  48  23    50  52  30    55  57  31    47  57  23    36  49  10    42  55  12    46  60  10    49  64  10    67  85  29    71  93  33    58  82  24    59  77  26    61  74  30    45  51  16    32  37   6    28  34   9    13  21   1    22  28   2    50  57  26    34  44  10    12  22   4    33  42  13    36  45  18    31  41  19    30  39  18    27  36  15    26  36  12    26  35   6    24  33   2  
  31  35   8    43  47  22    29  34   4    50  56  17    84  92  42   103 114  63   103 114  76    50  60  26    58  69  28    53  65  19    43  55   6    48  61  15    51  63  21    40  53  13    52  64  26    49  61  23    51  63  23    55  68  28    49  61  21    52  64  28    40  51  19    37  46  17    38  43  17    39  43  15    33  40  11    29  38   7    43  54  23    42  53  19    46  58  20    53  66  24    49  64  20    40  56   7    53  67  16    87 100  49    84  96  45    34  49   3    73  89  39    57  73  28    30  40   6    37  43  15    35  44  13    42  50  22    57  66  37    56  65  38    37  47  22    26  36  12    25  35  10    40  50  23    26  35   6    37  46  15  
  44  49  22    63  67  39    67  75  39    83  92  46   103 117  57    90 104  44    78  90  46    65  77  37    63  73  30    75  88  40    51  65  14    45  59  10    40  53   8    52  63  23    59  71  32    47  59  20    49  61  23    37  51  13    40  54  15    38  52  14    35  48  13    31  42   9    31  39   7    40  49  16    44  54  24    38  49  18    31  42  12    34  46  14    31  43   9    39  52  15    37  48   8    38  49   6    42  53   6    77  89  38    98 112  59    59  76  20    69  87  31    65  80  32    30  40   4    31  40   8    42  52  20    46  56  26    34  44  15    26  36   8    22  32   6    17  27   2    35  45  18    46  56  27    36  45  16    46  55  25  
  60  65  34    65  70  36    65  74  32    72  82  31    95 109  47    83  97  36    63  74  23    53  64  17    64  73  28    78  88  42    54  64  18    51  63  15    50  62  16    62  73  29    58  69  28    42  53  16    34  45  11    27  38   6    28  39   7    37  48  15    38  50  15    38  50  13    35  48  10    29  43   4    40  56  17    48  64  25    36  52  14    36  51  13    24  40   1    33  46   6    33  45   3    41  52   9    48  57  13    61  71  26    67  78  32    51  63  16    50  62  16    41  54  11    48  59  20    51  62  26    46  57  22    38  49  16    35  46  15    30  41  11    25  35   8    23  33   7    26  36  10    31  41  15    24  33   7    32  41  13  
  61  64  33    66  72  36    72  81  38    69  79  29    63  77  19    54  68   8    76  86  30    75  85  31    72  80  34    61  69  24    37  44   4    48  58  12    59  69  23    48  58  11    37  48   6    32  42   5    28  38   8    26  35   8    15  25   1    26  37   5    28  40   3    35  50   7    34  51   7    30  49   2    49  70  23    48  69  22    37  58  13    40  60  13    42  62  15    44  61  15    44  56  11    32  43   1    32  41   4    44  52  10    47  54  15    46  55  16    46  54  18    48  58  20    51  63  21    56  70  28    41  56  16    35  48  12    50  63  29    46  58  28    26  38  11    24  36  10    21  31   7    27  37  13    22  30   7    21  30   5  
  39  42  13    44  48  13    54  61  20    51  60  15    36  48   1    49  62  11   123 132  75   139 148  91    93 101  52    86  93  49    57  64  21    40  49   4    45  54   7    39  51   3    39  50   7    28  38   1    30  39   8    22  32   5    28  39  10    36  47  12    45  58  14    46  63  14    34  52   2    33  53   2    48  71  18    45  70  15    39  63   9    31  56   1    37  60   6    29  49   2    43  58  10    40  53   7    32  41   1    36  44   5    51  57  21    43  50  17    28  35   4    38  48  13    30  46   2    32  48   3    35  50   7    39  54  15    39  54  19    31  44  14    23  36   8    24  36  12    24  34  12    37  46  25    33  41  20    23  31   9  
  32  35   8    45  48  18    45  50  17    32  39   6    27  37   4    59  70  31   111 120  68   120 129  72   104 112  61   110 118  71    80  89  44    35  44   1    27  36   1    50  62  16    49  60  18    30  42   4    27  39   4    22  36   2    37  51  14    50  65  21    57  74  21    55  74  19    54  72  19    44  64  11    35  57   2    51  75  17    58  84  23    54  80  19    52  76  16    31  52   1    23  40   3    41  55   6    45  56  13    37  48   8    42  50  15    33  43   9    26  36   5    28  40   4    46  62  16    56  74  24    55  72  27    41  58  16    30  46   9    23  38   5    21  35   9    26  40  16    21  33  11    33  42  23    27  34  16    17  24   6  
  30  32   8    49  52  25    50  54  25    35  41  14    30  35  12    53  62  32    94 103  57    62  71  19    68  76  26    58  69  19    53  63  16    45  57  11    39  50   8    54  67  25    50  62  23    39  54  15    38  54  13    56  72  29    53  70  21    51  70  15    44  65   6    55  75  15    90 106  53    88 105  54    56  76  21    58  81  21    71  94  32    78 103  37    81 106  40    59  81  18    70  89  32    72  89  36    69  82  38    52  65  24    38  51  12    29  41   6    34  47  13    30  45   7    37  55   7    63  81  31    47  65  20    21  38   1    24  40   4    26  41   8    19  33   7    21  35  12    21  33  13    24  36  17    18  25  10    15  21   6  
  46  48  24    46  49  21    41  45  17    29  35   8    28  33  10    47  56  29    63  70  33    52  61  17    68  79  30    63  75  25    54  66  18    47  58  14    45  56  15    52  64  26    50  63  26    35  50   9    36  53   6    78  97  44    86 107  47    60  82  17    43  66   3    68  88  27    79  93  43    82  95  48    56  71  19    51  70  13    64  85  23    67  91  25    64  89  23    62  85  22    76  97  39    79  98  44    59  76  28    35  51   9    34  50   9    43  60  20    47  64  24    45  63  21    43  61  14    50  67  20    34  51   6    27  43   6    30  46   9    27  42   9    25  39  13    17  31   7    14  26   6    17  27  10    16  22   8    15  21   7  
  35  36  10    34  37   6    34  39   7    28  35   3    26  31   5    40  49  20    41  50  18    49  59  22    59  70  26    51  63  16    53  66  20    48  61  17    45  57  20    47  58  23    36  50  15    33  48   7    38  56   6    45  64   8    71  93  28    66  88  21    52  75   7    56  76  17    51  63  16    50  59  16    42  54   5    52  66  13    55  75  16    73  95  31    51  75  12    41  65   5    62  83  27    51  71  19    51  68  22    40  57  15    28  46   4    35  53  11    42  60  18    50  68  26    39  56  13    42  57  15    39  54  14    44  59  22    43  58  22    34  48  17    27  40  13    15  28   4    17  27   8    20  29  13    26  32  18    25  31  17  
  29  29   1    37  40   9    45  48  17    40  47  14    36  43  10    44  53  22    42  51  22    50  59  27    35  45   8    40  51   8    39  50   8    56  68  28    54  64  30    50  61  29    40  51  17    47  62  23    68  84  37    48  65  10    60  79  18    68  89  24    56  77  13    43  60   5    29  37   1    36  44   5    40  51   8    39  53   3    37  56   2    49  70  10    93 116  56   103 126  70    81 101  49    54  73  27    52  68  29    40  56  16    26  42   3    26  45   4    24  41   1    32  50   8    42  56  19    44  59  23    48  62  27    44  58  25    34  48  15    37  50  20    42  55  27    34  47  21    32  41  20    42  51  32    48  55  39    37  43  29  
