P3
50 50
255
  20  21  13    30  31  23    27  28  20    25  27  16    32  35  24    24  27  16    31  35  22    34  38  24    16  20   5    14  19   4    23  27  12    29  31  18    22  24  13    19  19  11    25  22  17    24  20  17    25  21  18    23  21  17    17  18  12    19  21  10    15  16   2    20  17   2    39  32  16    40  27  18    33  18  13    39  20  18    30   9   6    37  13   8    38  13   3    56  35  17    88  70  48    72  52  25    94  67  37   113  84  52    78  55  27    72  55  33    32  21   4    30  22   9    30  23  15    23  19  12    41  36  30    44  39  33    21  17   8    44  40  29    59  57  44    35  36  20    19  23   4    27  28  11    25  21  10    28  21  14  
  15  17   9    22  25  16    19  22  13    24  27  18    13  18   9    21  25  16    26  31  20    23  28  16    25  29  14    12  16   1    17  20   4    32  33  19    37  38  25    34  35  27    28  28  20    17  15  11    19  16  12    19  15  11    15  15   8    16  17   7    17  19   7    19  20   7    25  21   9    28  18   8    41  24  16    51  28  23    76  52  46    57  30  25    35  12   7    46  25  13    60  42  20    65  45  22    88  64  34   117  94  63    89  70  44    68  54  32    23  15   1    22  16   3    19  16   5    35  32  23    45  41  32    43  37  28    25  18   7    61  56  43    78  75  59    34  34  15    17  21   1    26  29   9    31  28  11    29  22  10  
  16  17   9    17  18  10    20  23  16    22  25  18    16  19  12    22  25  17    33  36  25    29  32  21    17  21   6    13  17   2    19  21   7    24  26  12    26  27  15    32  32  24    30  30  23    17  16  11    19  16  10    18  15   9    17  18  12    13  14   7    17  18  11    20  20  12    17  12   5    26  17   9    34  18  10    55  36  25    76  54  43    55  32  20    67  46  30    95  75  58    51  33  15    56  38  23    57  34   9    80  58  32    88  71  49    70  58  40    21  16   3    21  19   7    21  22  11    26  27  16    29  27  17    30  27  15    20  16   3    64  59  41    64  60  41    25  24   2    28  29   6    39  39  15    41  36  14    38  31  13  
  18  19  10    15  14   8    17  19  13    14  16   9    22  23  17    19  20  14    31  34  23    44  47  36    25  28  14    12  15   1    16  18   5    29  31  18    31  31  19    26  26  18    24  22  17    20  18  13    27  24  16    27  25  16    26  27  21    16  17  11    15  16  13    20  19  16    20  16  12    38  29  23    39  27  16    53  37  23    60  40  25    47  28  10    68  49  32    74  55  39    44  26  11   105  86  71    83  61  40    50  28   6    51  35  16    36  27  12    16  13   1    23  24  12    33  36  26    27  29  18    26  28  15    26  26  11    18  15   1    60  55  35    44  39  16    40  36  11    53  50  22    42  39  11    38  33   5    53  46  22  
  20  21  14    19  17  12    11  12   6    14  16   9    15  16  10    16  17   9    20  23  12    51  54  41    52  54  40    31  33  19    28  31  16    39  41  28    39  39  27    29  29  22    28  25  20    26  23  18    33  29  21    32  32  22    30  29  24    19  20  15    14  14  14    17  15  16    25  22  19    43  36  30    29  19   7    46  33  17    76  60  40    57  40  20    59  40  23    32  13   3    24   6   1    65  45  32    70  45  27    65  42  24    71  54  37    34  26  11    24  22  10    23  25  14    32  35  24    26  29  18    29  33  19    38  40  23    43  40  22    72  67  45    45  39  15    55  49  23    60  56  27    36  32   3    35  28   1    49  42  16  
  21  22  16    19  18  13    23  22  17    25  25  20    15  15  10    15  16   8    17  19   8    41  43  30    56  58  44    44  47  30    39  40  26    34  34  21    25  25  13    26  26  18    33  30  25    30  27  22    27  27  17    27  27  17    24  23  17    22  21  17    17  16  14    16  15  13    26  23  18    27  23  14    18  10   1    48  36  22    73  61  42    48  33  14    39  22   4    39  22   6    42  23   9    56  34  20    65  38  21    48  20   3    43  24   9    43  31  17    41  37  24    26  26  16    17  20   8    14  17   6    34  37  22    42  43  25    61  58  39    81  76  54    72  66  42    59  53  28    49  43  17    37  31   5    41  34   7    34  26   3  
  21  20  14    19  18  13    38  37  32    37  36  31    23  24  17    15  16   8    18  20   7    30  31  17    46  49  32    30  33  16    27  29  12    31  32  18    24  24  12    18  18  10    22  19  14    24  21  17    24  23  16    22  22  14    20  20  12    27  26  20    22  21  14    20  19  12    24  22  14    17  14   4    23  18   6    35  28  15    38  30  14    52  39  24    43  28  12    47  30  14    40  21   8    67  43  26   101  69  51    82  49  31    70  45  29    67  50  35    35  26  12    24  22   9    25  27  14    17  21   6    15  17   2    40  41  23    68  65  46    73  68  49    62  57  36    32  26   6    33  28   5    49  43  21    42  34  13    35  26   7  
  31  28  21    37  34  29    41  40  35    44  43  38    29  29  21    21  21  12    19  21   8    31  33  18    39  42  24    31  34  16    30  33  15    30  32  18    24  24  12    19  19  11    19  18  13    19  18  14    22  21  16    19  19  11    18  18   9    25  25  13    21  21   7    20  21   6    21  22   8    19  18   5    26  25  13    28  24  12    30  24  13    51  42  31    38  25  10    37  21   5    66  49  30    83  58  37    94  58  38   111  73  54   111  81  63    89  68  52    48  35  20    21  17   2    25  24  10    23  25  11    27  29  12    50  49  34    53  50  34    55  51  34    38  32  16    24  19   4    38  33  16    47  41  25    35  27  13    38  29  17  
  37  34  26    41  37  31    31  31  24    30  29  22    27  28  18    21  23  12    28  30  16    23  27  10    36  40  21    45  50  30    45  48  29    32  34  18    24  26  12    25  26  16    23  22  17    15  14  10    20  20  14    21  22  14    22  22  10    23  24   9    32  34  14    23  24   4    26  28   9    24  27  11    26  27  14    21  21  10    31  28  18    33  26  16    35  24  12    41  27  11    74  57  37    87  63  39    91  57  32   117  80  57   114  83  63    71  49  29    45  32  14    25  18   1    24  21   6    32  31  16    35  34  18    40  38  23    33  31  16    48  43  30    28  22  10    26  21   8    33  28  16    35  31  19    32  25  15    32  24  16  
  26  23  14    38  35  28    41  41  33    30  30  21    26  28  17    20  22   9    30  33  16    28  31  12    30  35  14    43  48  26    46  49  28    39  42  25    30  32  18    19  21  10    13  14   8    18  17  12    15  16   8    22  24  11    20  21   5    31  32  14    48  51  29    34  36  14    31  34  13    33  38  18    39  43  28    27  31  17    20  20  10    19  15   4    39  30  17    59  46  30    64  47  27    74  52  29    85  53  28    93  62  34    99  73  48    75  56  33    33  22   2    29  23   4    26  23   6    29  27  12    49  47  32    47  44  29    47  41  29    57  51  39    24  17   7    18  11   1    21  18   9    21  18   9    23  18   9    22  18   9  
  14  14   2    30  30  22    59  59  49    38  38  28    21  23  10    18  20   5    22  27   7    37  42  19    27  33   9    28  33  10    29  34  12    34  39  19    34  38  21    21  23  10    14  15   7    21  22  14    34  36  22    38  41  22    21  22   4    41  43  22    55  57  36    45  47  26    40  44  23    50  55  35    42  49  31    25  32  15    14  18   3    16  17   3    40  34  18    41  29  13    44  27  11    88  68  47    76  50  25    71  46  19    88  69  44    83  68  45    34  29   6    23  20   1    26  26   7    38  37  19    55  53  38    33  30  15    44  38  24    65  57  46    42  35  25    18  11   1    19  16   7    22  19  10    22  20   8    20  18   6  
  26  26  13    26  26  17    45  46  35    32  33  23    23  26  11    28  32  15    21  26   6    36  41  19    33  40  14    31  38  12    31  37  14    38  44  23    45  49  32    42  46  32    33  34  25    24  27  15    50  53  32    57  62  37    35  37  14    48  50  29    53  54  37    41  42  25    33  37  19    32  39  19    22  32  10    32  42  19    45  53  31    34  37  17    35  33  15    25  13   1    43  27  14    88  69  53    59  40  15    67  52  22    81  69  42    70  64  38    53  52  28    26  26   6    33  35  14    58  60  41    37  35  19    33  27  13    53  46  32    64  55  42    41  34  23    27  20  10    29  25  16    26  24  14    36  34  20    30  28  14  
  26  26  13    24  24  14    31  33  22    32  34  23    23  26  13    28  32  16    28  33  14    46  51  30    38  45  20    34  41  16    30  37  14    26  32  11    25  29  14    30  34  20    30  33  22    19  23   9    27  31  10    46  50  22    34  37  13    36  39  19    45  47  32    33  34  21    32  36  21    18  24   6    19  28   6    36  45  20    51  58  34    48  51  28    26  22   4    32  20   6    51  34  24    69  51  38    53  38  14    72  62  33    68  62  33    65  62  37    60  61  38    41  43  22    39  42  22    53  55  37    39  37  21    53  49  33    71  64  49    69  60  48    35  28  15    34  27  16    32  28  17    28  26  12    42  43  23    34  36  16  
  18  18   9    21  21  13    22  23  14    25  28  19    17  22  14    15  20   9    21  27  15    34  38  24    37  41  24    35  39  20    23  25   7    16  18   1    10  12   1    12  14   2    26  28  17    29  32  20    14  18   2    20  24   4    28  32  14    25  28  12    33  36  21    35  39  24    40  44  29    34  38  23    32  37  19    27  32  11    48  50  30    50  48  30    19  12   1    31  19   5    44  28  16    67  50  36    64  49  26    72  59  32    51  41  16    59  50  28    39  34  15    38  35  17    57  55  41    39  37  24    30  28  15    39  37  24    68  65  51    66  62  47    26  23   7    42  39  23    37  35  17    33  31  13    44  46  24    28  30   9  
  29  29  21    22  22  14    14  15   7    18  21  13    17  22  15    14  19  12    11  17   7    22  25  14    32  36  22    30  33  18    24  26   9    27  25  12    24  25  12    23  23  12    34  36  25    42  44  33    28  32  18    15  19   4    20  24  10    20  24  10    23  29  13    30  36  20    41  45  30    52  56  41    34  37  20    33  34  18    40  38  23    35  29  15    21  14   1    19  10   1    40  28  14    65  52  36    65  49  26    67  51  26    48  33  12    71  58  38    30  21   4    48  41  27    66  62  51    24  21  12    24  24  14    23  23  11    60  61  47    63  64  48    22  23   5    42  44  23    44  43  22    47  46  26    41  45  22    40  43  22  
  32  32  21    26  26  14    19  21   8    13  15   4    15  22   9    25  31  19    12  18   4    20  24   9    30  34  17    24  27  10    28  30  11    32  33  15    32  33  15    32  33  17    33  35  21    44  47  32    42  46  32    26  29  18    20  24  10    22  26  12    18  22   8    21  24  11    22  26  12    31  35  21    40  42  28    36  37  23    22  20   5    16  10   1    24  16   3    30  20   8    56  44  32    41  28  12    43  28   9    54  39  19    67  54  36    80  69  52    46  37  22    64  56  43    45  42  30    14  12   1    22  22  10    13  13   1    56  57  43    64  65  49    19  20   2    28  30   9    34  33  13    43  43  22    47  51  28    49  52  31  
  20  20   8    32  30  19    40  42  29    13  15   4    13  19   5    24  30  16    15  21   6    16  20   5    30  34  18    27  30  12    36  37  19    30  30  13    23  25   7    26  27  10    25  28  11    38  41  27    42  46  33    35  38  27    25  29  16    26  29  16    16  20   6    19  23  10    15  18   5    13  17   4    22  24  10    26  27  13    30  28  15    29  23  10    23  17   3    49  41  29    80  70  58    50  38  25    40  27  11    37  25   8    61  50  35    46  37  23    54  47  34    56  51  39    23  21   8    20  19   6    19  20   7    14  15   2    63  64  50    67  68  55    19  20   5    21  22   5    25  23   6    30  29  11    39  42  21    41  44  23  
  17  17   6    33  30  22    52  53  44    26  27  18    20  26  13    18  24  11    17  23  10    18  23  10    23  27  13    30  32  17    38  39  25    28  29  15    18  20   5    20  23   7    21  25   9    30  34  19    38  40  29    32  33  25    23  25  14    28  30  19    20  23  12    20  23  12    22  25  14    23  25  14    21  22   9    24  24  12    29  27  15    30  25  14    25  19   7    47  39  28    51  42  32    43  33  22    47  37  24    28  20   7    28  20   9    32  24  13    45  40  28    37  34  21    30  29  16    23  24  10    20  22   8    23  25  11    71  72  58    65  66  52    22  23   9    24  25  10    27  25  11    30  28  14    19  22   4    34  37  17  
  18  18   9    23  20  15    33  34  27    28  30  23    18  24  14    18  24  14    19  25  15    14  20   9    14  18   9    23  24  16    28  27  20    26  25  18    20  22  12    20  21  11    22  25  13    23  26  15    30  31  22    27  27  21    22  24  15    25  26  17    20  21  12    13  14   5    21  22  13    19  21  12    21  21  11    29  29  18    31  29  17    26  22  11    28  22  11    32  24  14    26  18   8    41  32  23    30  23  14    26  18  11    21  16   7    52  48  39    45  43  31    28  28  15    34  35  21    26  27  13    27  29  13    33  36  20    73  74  60    55  56  42    17  18   5    20  21   8    21  18   6    24  22  10    14  16   2    26  28  12  
  33  33  25    30  28  25    21  22  16    31  33  27    19  25  15    37  43  33    33  38  28    10  16   6    16  19  12    19  20  15    15  16  11    25  24  20    26  27  21    22  23  15    26  29  19    24  25  17    25  26  20    31  30  25    27  28  20    17  18  10    13  15   6    13  14   6    29  30  22    21  22  14    24  24  14    26  26  16    30  28  16    20  18   6    24  20   9    28  21  11    31  24  14    22  15   7    22  17  13    19  15  10    22  19  13    42  39  31    43  43  33    33  33  21    21  23   9    36  38  24    36  39  22    43  46  29    76  77  63    51  52  38    18  18   6    18  18   8    14  11   2    17  17   7    19  21  10    15  17   4  
  47  49  35    37  37  28    20  23  11    19  23   8    15  22   6    15  24   6    37  45  29    18  24  11    19  23  13    18  19  13    22  23  16    22  21  15    30  31  23    26  27  19    23  26  15    17  19   8    25  26  18    34  33  28    20  19  14    15  14   9    18  17  12    15  14   9    27  27  19    38  38  31    31  31  23    29  29  21    24  21  12    17  14   5    18  15   6    28  24  15    36  32  21    38  34  25    41  37  34    36  35  33    38  37  33    30  29  24    27  29  19    25  27  14    32  34  20    29  31  17    15  18   2    50  53  36    78  79  65    27  28  14    26  26  14    17  17   8    19  19  12    11  10   5    16  17  11    12  13   7  
  42  46  27    33  37  17    28  34  11    17  26   1    21  31   4    18  29   1    25  34  11    37  45  24    33  40  23    33  36  23    20  22  10    20  20   9    24  26  13    25  27  13    19  23   6    27  30  14    26  26  17    31  29  24    25  24  19    19  18  13    20  19  14    21  19  14    21  21  13    23  23  15    21  21  13    24  24  16    26  23  14    32  30  21    39  37  28    31  29  19    28  27  15    42  40  31    29  28  24    22  20  18    21  20  16    23  22  17    21  21  13    18  19   8    21  22   9    23  24  11    11  14   1    61  63  49    69  70  56    20  20   8    28  28  18    15  15   6    15  14   9    20  19  14    14  15  11    10  11   7  
  35  42  17    37  44  16    47  58  25    34  46  11    39  52  14    33  47   9    27  40   6    53  63  34    59  67  44    38  41  23    17  19   4    17  18   3    22  23   6    49  51  31    49  52  29    28  31  11    22  21  11    23  20  15    29  26  21    22  19  14    18  15  10    20  17  12    15  15   7    18  18  10    25  25  17    43  43  35    46  46  36    38  38  28    37  37  27    32  32  22    28  28  16    36  36  26    22  21  16    17  16  13    16  15  11    25  24  19    18  18  10    15  15   6    16  16   5    23  23  11    23  23  10    78  79  66    58  58  45    21  21  10    37  37  28    19  19  11    15  14   9    20  19  15    15  15  13    14  14  12  
  27  36   8    50  60  27    74  86  49    60  74  35    50  66  23    42  57  14    43  58  20    55  66  34    39  46  22    21  24   5    22  23   9    21  20   6    20  19   3    49  49  30    60  59  38    25  25   6    28  25  17    20  17  12    24  21  16    18  15  10    14  11   5    20  17  10    22  20  13    34  32  24    33  33  24    30  30  21    30  30  20    32  32  22    29  29  18    26  26  15    25  26  14    23  24  13    17  16  11    18  17  13    19  18  14    27  26  21    18  18  10    19  19  11    16  16   6    18  18   7    29  29  18    73  73  62    39  39  28    27  27  17    37  37  29    22  22  14    19  18  13    14  13   9    11  11   9    17  17  15  
  31  41  14    48  59  25    63  76  40    59  74  35    49  66  22    42  59  17    48  62  26    33  44  14    14  22   1    19  21   6    26  26  15    20  17   8    23  21   8    21  20   6    30  29  11    29  27  12    25  22  13    18  15  10    18  15  10    19  17  12    23  20  13    25  22  15    25  22  15    30  27  20    32  32  22    13  13   3    18  18   8    33  33  23    29  29  17    27  27  15    30  32  19    26  28  17    19  19  11    20  19  14    21  20  15    23  22  17    22  22  14    28  28  20    20  20  10    10  10   1    39  39  29    64  64  54    28  28  18    35  35  25    29  29  21    19  19  11    23  22  17    17  15  11    17  18  13    23  24  19  
  38  48  25    30  43  15    30  45  13    39  54  19    50  68  29    45  61  24    41  53  24    23  33   9    16  20   5    20  21  14    18  16  13    21  17  16    33  28  25    29  24  18    26  22  11    34  30  19    14   9   3    28  23  18    27  22  15    26  21  14    27  24  17    23  20  13    19  16   9    15  12   5    22  19  10    25  23  13    28  28  18    24  24  14    14  16   3    21  23  10    29  31  18    26  28  17    17  17   9    21  18  11    26  23  16    24  21  14    27  24  17    28  25  18    26  23  16    13  10   3    64  61  54    70  67  60    21  21  13    33  33  25    20  20  12    16  16   8    17  18  10    19  20  14    18  19  14    17  19  12  
  27  33  16    15  23   3    18  28   5    27  37  10    39  50  23    38  48  21    33  42  18    28  35  15    29  32  18    30  32  23    28  28  22    36  33  30    33  30  25    34  29  25    18  16   9    16  13   3    29  25  11    53  49  33    38  34  18    26  22   8    26  24   9    19  18   4    21  20   8    20  18   8    23  20  10    32  29  20    33  30  22    25  21  13    19  18   9    21  20  11    21  20   9    16  16   7    14  14   7    18  15  10    27  23  19    24  20  14    25  21  14    23  19  12    24  21  13    20  16   9    76  73  63    64  61  54    12  13   4    21  21  13    17  17   9    17  17  10    18  17   9    21  19  14    17  17  12    13  14   8  
  30  33  19    19  22   8    27  30  15    26  29  12    26  30  13    42  46  29    45  49  32    40  43  27    38  40  26    38  40  27    36  36  25    29  29  19    20  20  11    18  17   8    20  20  13    45  43  30    66  61  40    71  67  40    45  44  17    32  31   8    41  41  20    36  37  18    26  27  11    26  26  13    30  27  17    37  34  26    37  32  26    28  22  16    19  15   9    20  16   9    20  17   9    15  14   7    18  17  13    18  15  13    25  21  18    25  20  16    25  20  14    25  19  13    26  22  13    28  25  15    81  80  68    49  49  38    22  24  13    20  21  13    28  28  20    27  25  20    28  24  20    25  22  17    19  19  12    20  22  12  
  30  32  20    20  22  10    25  27  15    24  26  13    20  22   9    30  33  19    40  40  28    44  45  32    36  37  24    26  26  14    20  20   8    11  11   1    29  29  19    40  40  30    45  45  37    53  51  39    62  58  38    50  45  23    54  53  29    54  53  31    55  56  37    51  54  35    30  32  17    32  32  20    27  24  15    28  25  18    28  23  17    25  19  15    20  15  11    21  16  11    23  20  15    26  23  18    24  23  19    23  22  19    27  24  19    26  21  16    25  20  13    17  12   6    26  22  13    34  30  20    79  79  69    29  29  19    17  19   8    20  21  13    27  27  19    23  20  15    25  20  17    22  19  14    19  19  11    32  33  22  
  38  40  29    33  35  26    31  33  22    23  25  14    19  21   9    26  28  17    29  29  17    23  23  11    17  17   5    10  10   1    20  20   8    31  31  22    48  48  38    42  42  34    28  28  20    24  22  12    28  24  11    27  24   8    34  32  16    45  46  32    39  41  26    24  26  12    21  23  10    21  23  12    17  17   7    18  15   8    26  22  16    38  33  29    40  35  31    30  27  22    23  20  15    21  20  15    20  21  16    19  19  15    16  15  10    20  16  11    25  22  15    17  12   7    16  12   3    47  44  35    70  70  60    10  10   1    13  15   4    18  18  10    24  21  16    19  16  11    23  18  15    19  14  10    21  18  11    37  37  25  
  28  28  21    29  28  23    27  27  19    24  24  16    22  22  14    22  22  14    19  19   9    10  10   1    19  16   8    37  34  25    48  45  37    39  36  29    23  20  13    28  25  18    21  18  12    20  17  10    23  19  11    23  19  11    13  11   2    17  17   7    20  22  11    15  18   6    16  19   8    16  18   7    21  21  11    36  33  26    41  38  31    33  30  23    25  22  17    23  22  17    20  19  15    12  13   8    22  23  17    22  23  17    18  17  12    21  18  13    25  22  15    21  18  11    10   6   1    80  77  68    63  63  53    14  14   4    24  24  16    21  21  13    22  19  14    20  17  12    26  21  18    19  14  10    30  26  18    52  50  38  
  15  13   9    18  17  12    17  16  11    22  20  16    21  19  14    13  12   5    18  17   9    22  21  14    33  30  24    34  31  24    36  33  27    34  31  25    25  21  15    32  28  22    22  18  14    15  12   6    19  15   8    20  18  10    23  23  12    22  24  12    23  26  14    30  35  20    32  36  21    29  33  19    27  29  15    29  29  19    27  27  16    24  22  14    20  20  12    20  20  14    19  20  14    16  18  12    18  22  14    22  25  17    22  23  16    19  19  11    19  16   9    15  12   4    23  20  10    97  94  85    44  44  34    21  21  11    27  27  20    22  22  14    19  16  11    19  14  10    28  23  20    28  23  19    34  32  22    50  49  37  
  17  16  12    24  23  19    16  15  11    17  16  12    20  16  13    19  16  12    32  29  24    38  35  30    27  24  19    12   9   4    22  19  14    29  26  21    26  21  17    19  14  10    21  16  12    29  26  19    29  27  17    38  38  26    39  41  26    46  49  34    27  33  17    22  29  12    48  53  35    30  34  18    23  26  10    22  23  10    24  24  11    26  26  15    25  27  17    21  22  15    18  21  13    19  22  14    11  17   7    14  19   8    19  21  12    19  20   9    19  18   7    11   9   1    51  49  37    93  91  79    32  32  22    30  30  20    29  29  20    25  25  17    19  16  10    17  12   8    28  23  19    38  33  29    41  41  31    33  34  21  
  21  20  16    24  23  19    11  10   6    11  10   6    31  27  24    36  32  29    29  25  21    23  20  16    21  17  14    14  10   7    17  13  10    21  18  14    26  21  17    27  22  18    31  26  22    35  32  24    36  37  21    57  59  40    53  57  36    50  54  33    21  29   6    46  53  31    51  56  34    16  21   4    21  24   4    25  28  11    26  27  12    19  20   6    24  26  14    17  20  10    17  22  11    24  29  18    14  21   7    19  25  12    21  25  12    21  23  10    23  24  11    15  14   4    74  74  62    67  67  55    18  19   7    30  31  21    23  25  14    27  27  19    17  14   7    19  14  10    18  13  10    37  32  27    52  53  43    30  34  20  
  18  16  13    18  16  13    16  15  10    23  22  18    31  28  25    19  15  12    11   6   4    21  17  14    17  13  10    27  23  20    32  28  25    32  28  25    35  30  26    39  34  30    31  26  22    16  13   4    41  43  22    57  61  36    51  57  32    39  45  19    25  34   7    44  53  27    42  47  24    27  32  11    32  35  13    27  30  11    20  20   5    19  20   4    29  32  18    21  25  12    14  20   6    20  26  13    34  42  26    33  40  24    24  31  14    24  27  13    14  16   2    29  30  17    84  84  71    38  38  26    15  17   4    19  21   8    17  19   6    19  20  10    18  17   8    19  16   9    28  23  17    47  43  37    37  39  28    28  32  18  
  12  11   6    18  17  11    20  20  12    21  20  14    23  22  17    26  26  21    28  27  22    28  27  22    30  26  23    31  27  24    28  24  21    24  21  18    26  23  18    30  27  22    30  27  22    27  25  13    36  38  16    38  42  16    39  45  17    37  43  16    43  52  25    20  29   3    16  21   1    27  32  11    53  56  35    40  41  23    23  24   8    30  30  15    34  38  21    30  34  19    23  30  14    34  43  24    42  51  31    36  43  24    34  42  21    44  47  30    25  28  10    74  75  61    91  92  78    13  15   1    25  27  13    15  19   5    19  23   9    11  13   2    18  18   8    18  15   8    36  33  26    44  41  34    10  13   1    15  20   5  
  21  21  13    23  24  13    26  27  16    24  25  16    25  25  16    35  35  29    36  35  29    21  20  15    22  19  14    19  15  12    19  16  12    21  18  15    24  21  16    23  21  16    25  22  17    26  26  16    23  26   7    32  36  13    39  44  20    35  40  19    43  51  29    27  35  14    21  26   7    20  22   7    36  37  22    35  35  20    28  30  14    37  38  22    32  37  19    33  38  17    31  40  18    46  55  33    52  61  37    35  43  20    37  42  20    41  44  25    35  36  17   103 105  88    83  84  67    20  22   7    35  39  23    27  31  16    27  32  17    16  20   6    19  22   8    28  28  18    39  39  29    25  25  15    19  20  10    23  26  13  
  34  36  24    26  28  15    30  32  18    33  35  23    25  27  15    20  21  12    22  22  14    19  19  12    20  19  14    17  16  11    17  16  11    21  20  15    22  21  16    21  20  15    23  22  17    27  27  18    24  26  12    29  32  16    31  36  19    24  27  13    21  28  15    29  34  23    29  32  22    14  16   6    17  17   8    25  25  15    29  29  16    36  37  22    34  38  18    41  46  24    45  54  28    53  63  37    57  66  40    38  45  20    37  42  18    34  37  15    50  52  31    96  98  78    46  49  29    23  26   8    26  30  13    24  28  12    23  30  14    22  27  12    24  28  14    43  46  33    43  44  32    18  18   8    22  22  12    25  26  15  
  36  38  24    31  34  18    30  32  16    26  28  14    20  22   9    24  26  15    29  29  21    27  28  20    22  22  16    14  15   9    17  15  10    27  26  21    28  27  22    21  20  15    24  23  18    35  34  28    32  33  26    20  22  14    18  21  13    21  23  18    19  22  18    17  20  17    19  20  18    16  16  14    19  18  15    22  19  15    26  23  15    24  24  10    25  28   9    34  39  16    44  53  24    46  57  28    52  61  32    37  43  17    30  36  10    29  33  10    71  74  51    73  75  54    29  32  11    35  38  19    21  25   8    14  20   2    13  20   4    25  32  16    29  33  19    39  43  29    34  35  23    19  19   9    20  18   9    27  25  15  
  32  33  18    38  41  24    39  42  25    28  30  16    20  22   9    21  23  13    24  25  17    20  21  15    19  20  14    20  21  15    22  21  16    22  21  16    23  22  17    25  24  20    30  29  25    33  32  28    23  24  19    17  17  15    13  15  12     9  11  10    18  19  21    15  16  17    20  20  22    20  20  20    24  24  22    24  22  19    29  29  21    24  24  11    22  25   8    18  23   1    26  35   7    25  34   5    32  38  12    29  33   8    25  29   4    40  42  20    98 100  78    61  63  42    32  35  14    42  45  26    41  45  28    20  24   9    18  22   8    35  39  25    36  39  25    24  26  13    18  18   6    21  18   9    22  17  11    34  29  23  
  40  41  23    24  25  10    29  29  17    33  33  23    17  17   9    16  15  10    24  23  18    17  16  11    19  20  14    18  19  13    14  15   9    26  27  21    18  19  14    18  18  16    19  19  18    27  27  25    22  24  19    32  34  29    13  16  10    15  17  14    16  18  15    18  20  17    19  21  16    22  24  18    27  28  22    21  22  14    30  32  20    23  25  12    25  29  12    28  33  13    20  25   3    42  46  23    46  47  27    35  33  14    29  28   8    62  61  40   115 114  93    44  43  22    25  27   7    34  35  18    21  23   9    20  22   9    19  18   9    19  19  11    23  20  13    21  18  11    20  15   9    22  17  10    31  24  19    39  32  26  
  37  38  20    33  35  21    23  24  12    22  23  14    21  21  15    16  15  11    17  17  12    17  16  12    21  22  16    22  23  17    22  23  17    26  27  21    13  14   9    15  15  12    18  18  15    19  20  17    23  24  18    23  23  17    31  34  26    37  37  31    27  29  22    25  26  19    21  23  16    21  22  13    18  19  10    19  21  10    24  25  12    26  28  15    25  27  11    21  23   7    24  25   8    34  34  16    58  55  38    34  28  12    22  19   1    85  82  63    89  88  67    34  33  13    24  26   5    13  14   3    24  25  11    24  24  14    26  24  17    27  24  19    28  23  18    30  25  20    33  26  20    30  23  17    34  27  24    34  27  23  
  36  37  20    46  49  33    33  35  21    30  32  20    31  32  24    16  17  11    17  18  12    27  28  21    19  20  12    19  20  11    29  30  21    31  32  25    15  16   9    17  18  13    22  23  18    21  21  16    18  19  10    19  19   9    32  32  22    61  61  52    29  30  20    26  24  16    25  24  14    22  21  11    20  19   8    19  17   7    19  17   6    27  25  13    28  24   9    25  21   7    33  29  15    33  29  13    54  49  33    31  25   9    25  22   5    93  90  71    66  65  44    40  39  19    33  35  14    29  30  14    34  35  21    26  26  15    23  23  14    22  20  13    21  17  10    31  26  19    39  34  25    34  28  21    35  31  26    25  21  15  
  26  29  12    35  38  21    30  34  19    34  38  24    32  34  24    19  20  12    32  32  25    52  53  45    23  24  14    10  11   1    23  24  12    31  31  20    25  25  14    25  26  17    23  23  16    16  16   8    17  17   5    21  21   8    18  17   4    84  82  71    52  50  38    17  13   3    25  21   9    25  19   9    24  20   8    18  13   3    29  23  12    43  36  24    46  37  24    42  34  21    37  28  16    32  23  11    26  19   4    33  26  10    54  50  31   113 110  91    70  69  48    47  45  25    47  49  28    35  36  20    25  26  12    23  23  11    28  28  18    27  27  17    20  17   9    29  25  15    41  36  26    38  35  24    38  37  29    28  27  19  
  24  27  10    21  26   6    25  29  12    31  35  20    26  30  16    18  20   9    23  25  14    39  41  30    35  35  23    20  20   8    35  36  23    39  40  26    34  35  21    31  29  17    26  23  14    26  23  14    21  22   9    18  19   3    21  19   6    95  94  81   111 107  95    29  25  13    31  25  13    37  29  18    29  22  11    32  23  11    54  45  33    68  56  44    56  44  30    38  26  12    30  18   4    40  28  14    50  41  26    31  24   8    93  88  69    92  88  69    34  32  11    39  38  18    43  44  26    43  44  28    28  29  15    25  25  13    28  28  18    30  30  20    27  25  14    28  26  14    31  27  15    24  22  10    24  26  15    23  24  16  
  31  35  18    26  34  13    32  40  21    27  32  17    27  32  17    24  28  14    12  14   2    25  27  14    38  38  26    29  30  16    48  47  32    41  39  24    38  36  21    36  34  21    36  34  21    44  42  30    28  29  15    15  16   2    16  16   3    45  43  30   111 107  95    51  47  35    24  18   4    43  35  22    40  32  19    78  68  53    77  68  53    46  34  20    24  12   2    37  24   8    63  50  34    69  57  41    54  45  29    30  21   6   106  99  81    69  64  45    24  21   2    34  32  12    22  21   3    32  30  15    33  34  20    26  26  14    23  23  13    25  25  15    30  28  16    28  26  13    26  23   8    24  22   9    22  25  14    18  21  12  
  46  51  31    45  53  32    46  54  33    23  30  14    23  27  12    26  30  16    12  13   2    25  27  14    30  31  17    25  25  11    32  30  14    25  23   8    37  34  19    48  46  31    42  38  26    45  43  30    36  37  25    23  24  12    31  31  20    30  31  17   101  99  86    95  91  79    24  18   6    34  26  13    48  41  25    53  44  27    37  28  10    44  34  15    54  44  25    56  44  24    69  58  37    61  50  32    56  45  29    72  62  47    96  88  70    57  50  32    42  37  18    30  28   9    38  37  19    43  41  26    38  39  25    39  39  27    35  35  25    39  39  29    31  29  16    21  19   6    26  23   8    22  24   9    20  23  11    21  24  12  
  30  35  15    36  44  22    53  61  40    35  42  26    19  23   8    23  27  13    19  21   8    22  24  11    23  24  10    23  24   8    31  30  12    23  21   5    32  29  14    51  47  34    41  37  25    42  40  28    33  35  24    16  18   8    34  36  25    31  31  20    64  63  51   132 129 117    53  49  34    18  11   5    30  24   6    33  25   8    57  50  31    74  67  46    65  58  36    40  32   9    59  52  28    61  51  31    40  28  12    94  82  68    99  90  73    35  27  10    36  30  12    26  22   4    27  25   8    27  25  11    29  29  16    29  29  18    23  23  13    40  40  30    34  32  20    31  29  16    44  42  27    19  19   3    25  28  14    24  25  12  
  22  27   6    24  32   9    47  54  33    41  48  32    21  25  10    14  18   4    15  17   4    25  27  14    26  27  13    32  33  19    68  66  50    29  27  12    22  20   5    37  35  22    44  40  28    47  44  34    35  36  27    19  22  14    25  26  17    25  25  15    25  25  13   108 106  94    99  96  81    30  24  14    44  39  20    38  33  14    57  51  32    63  58  37    56  51  28    34  29   6    44  41  18    37  31   9    28  16   2    85  72  56    80  69  53    41  32  15    38  31  15    23  17   1    25  22   7    23  21   8    19  19   9    18  18   9    19  19  10    20  20  10    24  24  13    27  26  14    50  48  33    47  45  30    21  20   7    21  18   6  
  19  24   1    14  22   1    13  21   3    16  22   7    30  34  19    25  28  15    16  18   4    35  37  24    16  17   3    57  58  44    89  87  72    25  23  10    15  13   1    24  22  10    36  32  21    46  43  34    29  30  22    30  31  23    22  24  13    24  24  14    11  10   1    51  47  35   145 142 127    62  58  43    30  24   8    35  30  11    32  27   8    41  38  19    47  44  24    40  39  19    24  22   2    32  29   9    40  28  13    85  72  56    72  60  44    76  64  48    64  57  41    26  20   5    22  18   6    29  27  15    22  22  12    21  21  13    27  27  19    25  25  17    22  22  14    15  15   5    27  25  12    41  39  26    24  19   5    27  22   9  
