P3
50 50
255
  48  31  23    33  19  10    64  46  42   164 149 142   241 227 218   132 120 106   109  98  81   223 211 197   234 224 215   243 232 228   188 177 171   152 142 132   189 178 161   243 232 214   190 178 163   107  98  88    63  52  50    23  13  12    19   9   7    42  35  25    82  76  62   156 150 133   111 103  93    74  66  56   245 241 235   254 243 234   197 184 165   184 170 144   188 173 145   172 157 128   228 211 183   239 222 196   253 238 214   218 198 174    80  59  36   145 123 100   215 193 169   151 131 104   213 196 168   156 140 114   114  99  73   119 104  81    62  50  28    48  37  14    47  41  16    44  40  14    98  94  71   111 107  86    24  20   4     8   5   1  
  69  54  45    25  10   2    38  23  18    45  30  25   140 127 118   184 173 158    87  79  58   202 194 175   228 219 210   208 199 192   241 233 226   184 176 164   130 121 105   141 133 115   196 188 171   220 218 203   133 125 116   148 141 133   121 115 105    41  38  22    25  21   2    27  23   3    24  19   8    42  36  26   114 106 101   193 185 176   196 188 170   157 148 123   210 197 170   211 196 167   221 204 177   245 229 201   236 217 192   250 231 207   232 217 194   126 107  84   128 107  85   177 158 136   138 118  97   210 192 170   195 177 154   121 105  80    53  37  14    53  41  15   102  97  67    82  78  48    56  55  25    85  84  56    77  77  51    39  38  14  
 114  97  87    20   3   1    38  22  15    77  62  56    96  83  74    78  66  53   101  93  73   110 102  83   192 183 174   242 236 230   212 205 197   210 202 194   210 201 195   202 195 186   178 172 154   120 117  95    80  77  53   158 157 133   180 179 154   113 114  86    73  73  45    54  53  30    68  65  49    43  39  29    36  28  24    36  30  26    65  58  46    65  57  45   123 112  87   187 172 146   164 149 124   215 199 175   239 221 199   228 210 189   209 199 179   208 190 170   192 172 154   161 143 125   104  86  67   157 140 121   152 134 114   148 133 112   132 117  95    65  53  29   115 110  80   102  99  67    73  72  38    83  83  49    91  92  59    77  78  47  
 169 152 140    35  19  10    27  10   3    52  37  30   152 138 129   169 157 145    75  67  48    31  23  11    81  72  64   209 202 197   219 212 204   209 202 194   222 214 212   231 226 218   223 220 199   150 150 121    64  65  33    66  69  36    66  68  37    93  95  64    92  95  62   136 138 108   145 143 123    29  26  12    48  40  32    44  38  32    80  72  62    62  53  45    27  15   8    54  39  29    57  43  27   135 119 101   180 164 143   149 134 112   110  94  69    87  73  48   171 155 130   165 150 126    64  47  26    84  68  49   124 108  92   109  95  81   106  92  80    63  51  36    80  72  52    86  81  57    61  58  30    57  56  26    67  67  38    70  71  43  
 242 224 212    84  66  54    32  13   6    38  21  14   102  85  77   216 203 192   160 149 131    91  82  66    15   6   3    65  58  52   218 211 203   233 226 216   225 221 213   213 209 197   163 161 134   140 141 108    97 101  64    69  73  38    33  37   7    51  56  26    38  42   9   114 119  86   118 117  90    51  49  29    48  42  29    64  57  46   134 126 115   191 181 171   100  87  79    52  38  28    20   6   1    34  21   8    46  32  15    46  33  14    56  41  20    67  55  32    59  43  22    71  58  38    75  59  42    37  24   8    76  62  49   142 128 117   101  87  78    26  13   4    58  48  35    88  82  65    53  47  30    49  44  24    76  74  52    77  76  54  
 254 243 229   161 142 128    33  15   5    37  19  12    59  42  34   179 165 154   190 178 163   202 193 178   113 104  97    19  13  12   107 100  90   241 241 225   244 238 222   189 186 163   146 146 111   103 105  66    92  96  63    73  76  47    34  37  16    44  46  26    50  53  24    63  67  34    82  83  49    69  68  37    79  74  53   208 201 184   130 120 110    64  54  42    89  81  62   105  95  70   161 150 130   140 128 112    47  34  23    22   9   1    22   7   5    24  10   9    27  11  11    66  52  49    78  63  58    73  60  51   105  93  77   194 183 163   184 173 151    78  69  49    42  34  23    59  50  43    58  51  43    48  41  31    80  76  64    92  89  73  
 236 217 201   224 205 189    60  41  30    37  18  10    44  27  19   105  91  80   198 185 170   191 182 168   121 112 105   162 155 149   131 127 116   100  96  80   207 202 182   217 212 184   169 166 128   127 126  88    97  98  66    76  78  53    57  57  41    26  26  11    67  69  43   110 111  79    98  98  61   122 119  86    64  58  33   216 206 189   255 247 236   151 140 129    37  28  25    68  60  41   193 182 167   186 175 162    79  67  56    61  49  41   101  89  83    88  76  71    47  34  29    65  52  46    46  34  26    37  26  20    66  55  42    26  15   1   119 111  92   222 213 198    80  70  62    48  39  33    70  61  55    43  36  27    62  58  46    63  60  44  
 226 208 189   202 183 165   104  85  72    37  19   9    36  18  10    74  60  49   197 183 170   151 141 129   156 147 140   229 222 215   242 238 226   149 143 127    91  83  66   190 183 159   182 177 142   119 116  80   113 111  80   150 149 123   120 118 101    33  31  14    59  59  32    88  89  57    86  84  48   158 154 121    80  72  48   170 158 141   204 195 184   171 157 148   111  99  92    40  30  23    61  51  42    47  37  32    68  59  43   189 181 163   188 179 159   190 181 161   133 125 105    74  65  46    44  35  18    35  26  19    31  21  11    20   9   3    34  25  21    93  82  78    59  48  42    43  33  25    74  65  55    65  58  46    71  66  51    86  83  63  
 249 231 210   242 234 212   192 173 159    50  32  22    38  19  12    40  27  15   165 151 137   177 167 155   184 175 168   216 209 201   226 223 208   249 244 229   172 160 151    64  51  39   113 103  78   161 156 123   148 144 112   200 199 167   165 165 137    46  46  20    66  66  36   101 102  69   101  97  66   158 152 126    85  76  57    88  76  61    74  60  48    52  41  38    92  79  69   192 180 170   100  90  79    44  35  24    49  40  23   143 135 116   176 170 148   143 137 114   131 123 103    92  85  66    41  32  14    71  62  47    60  50  40    44  34  26    41  29  25    26  13   8    36  24  18    36  26  19    37  27  17    39  32  17    60  55  37    92  90  69  
 193 177 154   249 232 210   209 190 175    86  68  56    28  11   1    50  36  25    92  78  65   173 164 149   198 189 180   212 208 197   205 201 185   218 212 198   251 246 245   160 144 143    23  10   5   113 107  80   174 169 139   189 189 155   100 100  69    75  75  44   156 157 123    96  97  65    69  67  41    49  44  24    24  14   6    27  15   4    53  41  26   127 116 100   155 144 124   152 141 122   144 133 114   210 202 183   154 146 127    41  33  14   124 117  99   191 184 166   180 173 156   140 133 116    63  54  39    49  39  27    39  29  17    83  73  61   111  98  87   114 100  92    65  52  46    44  30  27    37  27  18    11   3   1    19  12   3    26  23   6  
 136 120  97   215 199 176   253 247 231   154 136 124    38  21  11    58  44  33    28  13   1   136 127 112   229 220 211   148 144 133   146 144 124   196 190 174   210 196 194   171 155 154    36  22  11    46  38  19    80  76  52    69  68  41    19  19   1    47  50  20    60  64  29    37  40   9    27  27   3    41  38  21    44  38  26    69  61  48   212 204 183   247 237 210   193 184 155   108  99  68   197 187 160   178 167 144   230 222 202   198 189 171    49  39  26    76  66  55   155 145 136   161 151 140    83  73  63    47  37  25    37  25   8   131 120 102   176 163 143   162 149 133   120 106 100    36  22  21    31  20  16   148 139 132   150 142 133    17  13  12  
 173 159 135   218 202 177   214 196 179   205 187 175    80  63  53    47  33  22    36  23   9    78  69  54   100  91  82    58  55  42    81  79  57    67  63  42    47  35  24    42  27  20    79  66  56    69  60  47    19  13   3    35  33  19    42  44  25    37  41  19    39  44  14    44  50  18    48  51  28   101 101  82    78  74  61    69  64  48   203 198 170   156 150 118   110  99  68   118 107  76   146 135 107   138 128 101   150 139 116   172 163 141   152 144 126   147 139 120    76  67  52    64  55  39    64  54  39   130 121 105    80  69  51   102  90  72   168 154 137   163 150 136   213 198 191   151 138 133    40  29  24    83  75  70   204 195 188   141 137 127  
 103  90  65   136 123  98    96  80  63    83  66  56    67  50  41    42  28  18    40  27  15    32  23   9    65  57  45    83  80  64    73  72  47    58  56  28    76  67  45   141 130 112   102  92  77    78  70  60    61  56  52    45  42  38    57  57  49    71  74  59    37  42  17    45  51  23    50  53  30    87  89  68    74  72  56    25  22   5   139 137 107   146 140 107   142 131 104   173 160 134    98  85  59   121 111  82   127 117  89    90  81  53   156 150 122   229 223 195   198 192 165   116 110  83    74  66  43    77  68  48    74  63  46    50  38  26    73  59  47   106  93  81   139 126 115   174 161 151    95  85  75    31  23  19    72  64  56   100  96  86  
  54  42  21    71  60  39    82  68  54   103  88  78    80  64  57    37  22  16    38  26  18    15   5   1    94  87  72   162 160 139   110 111  82    85  85  52   125 121  92   153 148 121    89  84  61   126 120 102   177 171 160    65  61  51   117 113 103    65  63  49    43  42  24    57  56  35    44  42  22    41  39  20    47  45  26    20  17   1   165 164 140   218 212 186   211 197 171   186 170 142   136 123  91   129 119  85    83  75  46   102  96  67   134 132 103   158 156 127   154 156 124   165 167 134   126 126  97    71  70  47    61  57  38    40  36  20    55  49  34    56  50  33    90  82  67   133 125 110    77  68  56    34  26  15    41  33  29    37  32  27  
 106  97  79   227 218 201   229 216 204   222 209 200    81  66  61    46  31  26    33  20  14    38  28  19    31  24   7   106 104  79   116 117  85    85  89  54   113 113  80    78  77  46    56  55  25    87  83  58   169 164 144    80  75  57   116 109  93    91  82  67    24  16   2    40  34  16    55  48  30    61  56  37    84  79  60    40  37  18    91  88  71   111 104  84    80  65  42   156 141 112   239 226 192   165 156 123    74  69  40    97  93  68    80  80  56    49  52  24    98 104  68    98 104  68    66  72  38   129 134 105   120 122 100    68  70  49    80  80  57    36  35  12    47  44  24    64  59  40    65  58  43    35  26  17    61  53  50    63  54  55  
  70  62  49   118 110  98   116 106  94   118 106  96   105  91  83    94  79  71    27  14   4    35  25  13    25  18   1    55  53  29   102 103  72   111 114  82    89  93  58   113 117  84    43  44  13    53  51  26    88  83  61    62  55  37    54  44  27    38  26  10    75  63  47    92  81  63    45  34  16   157 149 130   255 254 237   108 101  84    14   7   1    56  48  33   169 159 141   224 213 190   249 245 218   177 172 143   122 119  94   105 103  80    69  68  47    34  36   9    49  53  18    70  74  37    68  71  36    96  99  66    70  70  42   119 118  90   193 191 160    91  90  59    63  62  32    51  49  26    42  36  22    41  34  26    54  47  41    57  50  44  
  54  46  36    40  32  22    68  58  48   115 105  94   201 189 176   124 111  99    41  29  14    28  19   3    37  31  10    15  13   1   108 108  83   200 204 174   189 195 161   178 184 150   104 107  76    75  75  48    80  75  52    39  32  12    99  87  69    66  52  35    33  17   4   171 157 140   169 155 138    93  80  63   198 192 176   136 126 111    20  10   5    79  71  58   135 130 110   196 192 166   180 176 145   180 177 146   185 184 157   110 108  84    62  60  38    48  47  21    47  47  15    52  53  17    58  57  24    58  56  26    68  64  39   103  98  73   136 132 103    91  87  55    94  94  60    78  78  49    48  43  28    61  54  43    40  33  24    34  27  16  
  47  40  31    49  42  32    80  72  62   104  95  82   179 167 152   172 160 142    80  69  50    20  12   1    33  27   6    18  16   1    71  70  51   178 181 157   161 168 136   127 134 100   115 118  87    83  83  55    64  59  33    48  39  17    94  79  60    89  73  52    84  67  53    89  71  52   136 119 100   128 111  95    63  49  33    62  50  37    47  37  27    71  64  51    67  66  42   126 128  95   160 161 125   146 147 109   144 144 112    80  77  50    46  43  19    54  49  25   111 107  77    91  87  56    98  93  65   146 141 116   113 105  88    66  58  39    91  84  61    77  71  43    87  87  54    73  74  43    50  47  27    60  56  41    45  38  25    35  27  14  
  37  32  23    38  31  21    51  42  33    58  50  37   170 159 141   222 211 191   165 154 134    72  64  47    22  15   1    25  23   5    19  17   5    65  66  50   163 168 140   191 197 164   142 143 114    78  75  47    34  27   4    71  59  36    72  54  33    74  54  31   127 107  87   158 138 117   111  93  73   132 115  97   135 119 104    92  79  68    34  24  14    92  86  70   109 109  82    93  97  60   119 121  82    79  81  41   102 102  67   103 100  69    82  77  51    93  86  63   212 205 177   214 208 179   193 185 161   242 234 214   178 170 157    59  51  37    58  51  32    72  67  44    65  65  37    68  68  41    51  49  25    59  57  35    40  32  17    25  17   4  
  71  67  56    19  14   4    38  30  19    35  27  14    64  53  35   146 135 115   248 237 217   157 149 130    16   9   1    21  18   6    26  22  17    21  18   9    85  87  65   120 121  93    62  61  33    70  64  38    43  32  10    95  80  57    81  63  41    71  51  27   138 116  93   173 153 130   102  84  62    68  51  33   103  90  74    93  81  67    36  27  16    34  29  14    45  45  21    61  65  31    41  43   5    68  68  30   177 174 141   149 144 115    76  69  43   115 104  82   167 157 130   218 208 183   219 211 188   215 208 189   193 186 170    80  73  58    49  44  22   120 117  93   100 100  75    69  71  46    54  53  25    57  53  29    39  32  14    72  64  51  
  59  56  44    19  15   3    55  47  35    77  70  54    50  38  22    33  21   4    88  77  59   106  97  80    83  75  64    33  28  22    16  10  10    21  18  13    51  48  31    93  88  64   110 104  80   119 111  88    44  31  12    57  40  21    84  66  47    66  46  25   119  99  75   158 139 115   118 103  80   115 100  79    61  51  32    38  32  16    65  59  47    32  29  16    67  64  47    44  42  21    38  33   6    75  70  40   149 144 115   107 100  74    65  54  32   145 135 113   147 137 110   167 157 130   202 195 169   227 221 197   214 209 189    95  93  70    80  81  49   177 178 146   132 134 112    68  70  49    56  53  31    40  35  13    48  41  23    84  75  62  
  28  25  13    33  27  13   138 130 117   141 134 119    62  50  35    54  42  27    46  34  20    32  23  10    87  78  70    70  65  61    20  16  17    17  13  10    20  14   3   123 116  97   166 158 140    84  73  56    77  61  46   101  84  69    58  40  23    77  59  40    93  73  53   111  94  72    97  82  60   119 108  85    81  73  54    34  29  15    59  53  39    28  24   9    79  72  60    87  81  62    36  30  13    71  63  34    93  85  58    55  45  19    81  70  48   111 100  78   143 133 107   198 191 163   237 231 206   234 229 206   236 234 212   140 140 115    97 101  67   121 125  91   113 114  92    70  69  51    41  39  19    46  41  22    65  56  39    61  51  33  
 122 116  99    60  54  39    61  53  44   134 125 113   133 120 109    58  46  34    69  56  46    42  32  23    23  14   8    39  34  29    27  24  20    24  21  15    21  15   6    50  43  27    85  75  63    55  44  32    78  63  52   133 117 106    85  67  55    63  46  32    96  78  62   101  85  65    68  54  34   119 108  87   198 190 170    98  92  73    31  25   9    18  12   3    99  91  76   146 138 117    95  87  57   109 101  67    62  53  23    46  37   9   104  93  70   119 109  87   146 138 112   226 219 194   231 224 204   218 213 195   248 245 228   149 147 126    94  96  66    96  98  66    68  68  44    43  41  22    38  33  19    61  54  40    59  49  31    88  77  56  
 131 125 106    72  66  50    21  12   2    61  51  41    85  72  64    71  56  49    72  59  53    61  51  44    63  54  46    50  46  36    32  30  19    26  24  13    29  24  13    34  26  15    33  26  17    27  19  10    34  22  17    89  77  70   131 117 108    74  60  50    82  68  54   166 153 136   118 105  86   132 120 101   228 218 198   150 140 120    86  76  57    77  67  53    55  44  24    96  86  60    78  71  37   105  99  60   107 101  64    51  44  11    62  54  27   132 124  99   164 156 132   174 168 145   146 139 122   193 186 173   227 221 209   103  97  82    83  80  56   113 111  82    61  59  36    36  34  13    40  33  18    56  48  32    43  32  11    80  69  44  
 154 147 129    55  48  32    20  10   1    56  43  35    39  24  19    83  68  64    84  70  67    57  46  40    91  83  72    48  45  29    34  33  13    34  36  15    37  35  23    23  20  13    39  36  28    24  19  15    17   9   7    26  17  14    34  25  20    56  45  38    49  39  28    41  29  15    55  42  25   142 129 110   150 136 115    98  83  62   118 103  82   187 172 151    39  28   8    57  50  24    66  60  24    83  78  38   101  96  58   129 125  90   120 113  85    78  72  46   174 168 144   179 173 151    81  74  58    68  60  49    99  89  80    45  36  23    66  58  37    79  74  48    54  49  27    39  34  12    70  64  42    45  37  16    86  74  50    83  71  45  
 104  95  80    49  40  25    34  21  12    55  42  36    52  37  34    31  16  15    59  46  44    60  49  43    71  63  50    82  80  59   100 101  72    68  71  44    17  19   4    18  19  13    64  63  59    89  88  84    54  50  49    26  22  21    31  26  22    27  20  13    12   3   2    64  54  42    62  50  34    77  62  43   184 167 147   153 135 113    64  46  24   160 143 124    95  84  68    18  11   1    66  61  33   103  99  64   137 132 100   182 179 148   186 180 154    61  55  31    25  19   7    79  73  49   118 109  92    60  52  36    70  58  44    92  81  62   143 132 104   206 197 166    97  91  67    80  76  51   148 143 113   109 102  72   110 100  72   107  95  69  
 157 148 132   196 187 171    65  55  44    35  24  14    58  45  41    52  39  34    46  36  31    48  40  29    49  44  27    83  82  58   111 113  83    64  67  41    19  20   6    16  15   9    28  26  22    33  31  25    74  69  64    66  62  55    55  49  40    48  41  29    67  58  43   125 117  98   167 156 136    97  85  65   188 172 153   185 168 149    63  45  27   127 111  97   108  99  90    30  25  13    41  37  17    60  57  30    80  77  48   132 130  99   176 173 143   153 150 122   136 131 104   109 103  78    91  83  63    89  81  61    94  83  64   163 151 129   128 115  86   167 158 128   114 108  84   189 186 158   152 149 112   106 104  65   103  99  67    80  75  47  
 185 177 159   127 119 101    47  38  22    59  52  37    71  62  51    51  44  32    40  33  21    53  49  33    53  50  30    45  45  21    87  89  62   125 125 103    37  34  22    20  14   7    27  21  14    39  33  24    47  39  29    46  40  26    38  30  13    85  77  57   121 113  90    56  49  23   115 105  81   168 157 135   205 192 173   240 231 215   128 113 100    51  38  28    97  90  84    27  24  16    39  36  22    57  55  35    28  28   2    58  58  27   169 168 136   219 218 186   200 197 167   189 185 156   150 143 120    66  59  35    58  48  27   121 110  88   136 125 102   143 134 109   120 115  88   201 202 168   118 122  77   101 106  60    91  96  58    53  58  26  
 181 171 152    88  77  59    45  34  18    56  47  32    86  78  63    83  77  61    63  56  40    96  91  73   100  96  74    63  62  37    58  57  28    97  95  71    50  45  32    21  14   4    23  16   7    38  32  20   116 108  95    73  66  48    25  17   1    60  52  29    66  59  33    75  68  40   158 148 122   226 216 191   199 186 167   198 188 173   105  91  78    34  21  12    86  79  70    37  34  24    45  42  29    69  67  51    49  47  27    44  43  18    97  96  67   183 183 149   186 185 151   175 172 138   142 138 106    66  61  32    33  27   2    57  48  27    80  70  52   106  99  79   130 128  99   107 109  70    86  93  43    96 104  54    71  80  35    54  64  25  
 207 196 176   173 162 142    52  41  23    52  41  25   190 178 162   171 163 146   181 172 155   152 145 126    97  91  67    89  85  58    58  55  24    65  64  36    86  80  64    46  40  28    15   9   1    58  52  38   102  95  79    44  37  19    63  55  34    68  61  35    25  18   1   111 104  76   141 131 104   148 138 113   148 134 116   119 106  89    69  56  42    33  21   9   106  98  87    65  61  50    35  29  17    50  47  32   102  99  82   152 150 129   139 138 110    84  84  49   140 140 102   167 167 128   103 102  65    61  58  25    43  38  12    82  76  56    55  47  34    80  74  58   221 222 191   155 159 119    89  96  51    65  74  27    56  68  20    79  90  47  
 244 231 212   192 178 160   116 104  86    90  77  60   161 148 131   206 195 177   214 206 186   210 204 182   153 147 121   135 131 102    83  79  46    50  46  17    93  88  69    98  92  78    37  31  17    51  45  31    51  44  27    33  26  10    63  55  34   158 151 124    78  72  43    62  55  26   123 113  89   130 120  95   165 153 131   190 177 160   136 122 109    41  29  15    67  58  46   119 113  99    34  26  13    51  45  31   158 155 135   186 184 160   147 147 119   130 132  97    95  97  58   119 121  81   118 120  81    93  94  60    38  37   9    87  85  64    78  74  62    32  30  15   112 114  90   115 120  89    58  63  30    38  46  10    70  80  39    81  93  51  
 188 173 157   179 164 148   213 200 183   148 135 118    80  67  51   228 217 199   220 212 191   198 190 167   214 208 182   197 192 162    82  79  46    82  79  48    76  71  50    83  77  62    65  59  44    30  24   8    65  58  40   126 119 100   108 100  79   104  97  71   134 127  99    47  40  11    40  30  22    51  41  14    96  84  62   172 160 141   207 194 178    77  65  51    97  86  77   163 155 144    40  31  19    50  44  25   158 153 129   111 110  81    80  81  47   213 215 177   214 217 179    90  93  55   107 109  74   134 139 107    72  73  48    60  62  41    36  35  19    41  42  25    36  38  13    34  38  11    41  44  21    55  60  35    71  78  44    66  76  38  
  63  49  35    62  50  42   112  98  84   100  87  71    45  33  18   156 146 129   207 199 179   176 169 147   172 166 140   156 152 122   101  98  65   126 123  93   120 115  93    96  91  73    47  40  24    58  51  35    54  47  29    82  75  56   152 144 123   133 126 100    65  58  30    58  51  22   148 139 110    73  63  36    27  17   4   102  91  70   175 162 144    99  85  72    51  38  31   131 119 112    96  87  73    29  23   6   100  95  66   139 139 103   131 132  93   123 125  86   145 149 112   133 137 103    73  77  47    65  70  42    64  67  45    43  46  24    57  59  39    63  66  42    77  81  50    42  46  16    39  39  20    43  45  26    57  61  33    85  90  58  
 172 159 147    72  62  52    46  33  21    27  17   5    35  24  11    64  55  40   120 111  94   147 141 121   144 139 114    98  94  67    63  59  29    94  91  63    89  84  63    74  68  51    31  24   8    62  55  39    63  56  39    55  48  29    49  41  29   130 122  98   136 129 102    82  74  46   113 105  76   148 138 111   105  95  77    36  25   5    45  34  27    50  38  23    52  39  31   141 128 120   176 167 151    54  48  27    31  26   8    85  85  47    73  74  34    81  83  43   109 113  76   122 126  93    77  82  52    47  51  25    22  26   7    37  41  17    87  91  67    81  85  53   123 126  83    85  88  47    56  55  29    49  48  26    57  57  30    99 100  69  
 188 178 168   154 144 131   208 197 186    85  75  63    33  23  11    24  14   2    33  26  10    52  45  27    80  75  52    96  92  66   116 114  86   169 167 142    97  90  72    23  16   4    36  29  13    41  34  18    47  40  26    63  56  40    92  84  67    80  72  51   114 107  81   105  98  70    91  81  54   209 199 172   149 139 114    69  58  34    96  85  65    45  34  16    36  23  12   133 123 111   157 149 130   107 101  77    53  50  21    86  86  50    86  88  49   105 107  68   150 154 117   150 153 119   122 126  94    57  62  31    26  29   2     4   8   1    80  83  56   113 117  82   148 152 101    99 102  52    82  82  48    95  91  66    59  56  27    54  49  20  
  98  88  78   123 113 101   191 181 169   183 173 161    99  91  80    45  37  24    51  43  30    19  12   4    21  16   4    20  15   2    98  96  75   213 210 188   102  95  80    51  43  30    66  58  45    23  15   3    24  14   4    40  30  18    92  83  68   123 115  96    63  55  32    47  40  14    61  55  27    82  75  47    54  44  19    94  84  59   190 179 157   131 120  98    38  30   8    47  42  20    78  72  50   203 197 175   177 173 148    96  95  66   203 205 173    81  83  46    84  86  48   114 116  77   101 103  64    57  61  24    33  34   1    45  48  17    30  30   4    36  37   6    72  74  28   139 141  92   109 106  73    83  79  52    77  71  45    67  60  34  
 123 112  99   195 184 172   198 187 175   201 191 178   225 217 207   112 103  92    86  77  64    98  90  77    85  77  61    81  76  57    49  43  31    40  35  15    29  22  11    66  57  47    79  70  61    31  22  14    27  17   9    39  29  20    44  34  22    63  54  37    87  79  61    63  55  32    58  51  25    97  91  63    73  64  39    66  57  31   117 106  83   144 137 111    73  68  39    42  39  15    38  32  14   119 115  92   206 204 181   101  99  74   174 174 144   125 126  93    79  80  42   106 108  68   119 122  79    72  73  32    44  43   5    73  72  38    69  67  38    34  32  11    39  39   8    91  92  55    92  90  59    96  92  65    57  51  27    47  40  14  
 194 182 167   244 232 217   213 200 185   216 204 190   251 243 231   148 137 125    53  42  30   199 190 177   178 170 155   163 156 138   133 125 107    43  36  19    52  43  35    42  33  25    49  38  33    40  29  24    33  22  17    35  24  19    64  54  44   133 123 110   108  99  82    51  43  22    51  43  19    79  72  46    76  69  43    85  78  52    83  73  48    84  77  49    80  77  46    81  80  49   123 121  92    95  94  67    82  81  55    33  32   6    64  63  35   140 139 108    93  93  58   110 109  71   102 101  61    82  79  40   129 126  88    96  92  55   146 141 107   111 107  75    30  28   9    43  44  15    72  72  41    74  72  41    50  45  18    64  58  30  
  91  79  62   153 140 123   205 189 173   224 211 195   237 222 209   169 155 143    21   7   3   144 132 119   226 215 200   174 165 148    70  59  43    27  18   7   156 147 138   179 169 164    58  47  44    19   8   6    29  18  16    32  20  17    68  58  51   120 110  99   125 117 101    54  46  26   105  97  75   150 143 119   165 158 132    88  80  54    70  62  36    87  81  54    80  78  48    68  68  37   173 173 142   123 123  92    85  85  54   104 104  74    42  40  10    47  46  29    79  76  45   113 110  78    71  67  34   163 158 123   239 234 196   150 144 103   127 120  78   122 117  80    50  49  22    44  46  18    54  56  18    88  89  48   147 145 107   129 125  89  
  52  39  20    52  37  19   132 116  98   188 172 156   243 227 212   225 209 194    86  70  57   130 117 101   179 166 150   122 111  93    45  34  15    64  52  37   173 161 151   226 214 208   160 147 141    55  41  39    17   3   1    49  36  32    52  38  35    28  18   9    31  21  10    35  26  11    69  61  42    94  86  64   153 145 122   111 104  78   119 110  85    97  89  64    52  48  25    51  49  24   155 156 125   122 123  89    66  68  32   121 121  85   123 123  89    39  36   7    32  28   4    66  59  31    58  51  22   155 149 115   177 172 133   131 126  84    99  96  51    85  82  43    41  41  15    53  56  29    61  66  25   124 127  80   180 183 138   169 170 126  
  97  85  64    88  76  55   129 114  93   156 141 120   173 156 138   237 220 202   105  88  70   142 127 108   192 177 157    70  58  36   192 180 156   217 205 183   131 117 101    89  74  61   142 128 116   146 132 122    51  33  28    36  18  16    59  44  41    36  22  18    29  18  12    51  42  33    47  39  26    39  30  13    24  16   2    22  11   2   127 115  91    99  87  65    30  23   7    44  38  22    84  82  57    83  82  51   151 151 115   229 229 193   232 227 197   133 126  98    30  20   1    40  28   5    39  28   8    63  55  18    92  89  48    82  83  41    82  87  46    58  63  28    27  27   3    42  41  20    91  94  63   112 118  81   103 113  70   130 140  95  
 184 171 157   164 151 134   153 138 115   176 161 137   219 203 179   220 208 188   145 128 113    66  50  36    87  71  59    86  71  55   179 167 143   203 190 164   179 164 141   109  93  72    96  81  62   209 197 179   110  98  84    20   8   1    52  41  33    41  29  21    44  33  25    50  39  29    97  85  74   117 104  88    77  65  44    89  79  53    92  82  55    97  87  64    41  32  19    51  44  32    44  42  19    76  75  45   155 155 120   218 215 182   155 149 121    76  65  41    40  27   6    86  72  47   132 119  86    67  57  20    47  42   2    70  68  36    78  82  45    68  71  39    44  41  21    39  36  16    65  67  40    87  93  61    85  95  55    82  93  50  
 241 228 219   222 208 194   168 153 131   101  87  61   147 131 106   222 212 193   252 239 230    90  73  67    41  25  21    98  84  73   119 107  85   156 142 114   153 135 107   195 178 150   148 136 108   140 132 107   108 104  82    34  32  14    50  45  29    35  28  13    57  45  32    53  38  24    46  31  24   123 107  88   154 141 117   142 134 105   115 111  78   106 103  76    78  72  58    59  53  41    51  48  26    36  35  14    85  85  53   204 200 170   147 141 116    58  47  27    58  42  25    53  37  18   114  98  70   115 100  68    95  82  49    82  74  50    56  52  19    62  59  31    62  56  37    64  61  40    71  71  45    56  60  28    59  67  29    66  75  34  
 196 184 169   199 186 166   216 201 174   207 194 163   129 115  87   143 128 105   150 136 123    57  40  32    79  65  54   175 162 146    79  69  43   120 108  78   194 177 145   194 178 146   205 194 164   133 128  98    73  72  45    47  47  22    41  38  18    34  28  10    32  20   9    78  62  48    96  79  69    85  69  52    79  66  44    69  61  35    92  88  58   122 120  95   127 121 107    55  49  37    45  40  20    58  55  34    55  54  25   105 101  75    91  85  64    40  30  13    63  49  33    68  50  35    46  28   8   140 121  94   213 197 169   221 213 184   171 157 130    93  83  58    43  35  16    72  67  47    86  84  61    44  45  16    30  36   4    49  56  17  
 170 159 138   238 226 200   252 245 212   179 166 131   142 129  95   159 145 118    63  47  29    66  49  35    49  36  20    76  62  44   111 102  73   158 147 115   208 195 163   154 141 108   122 113  84   108 103  74    69  67  41    41  40  16    39  36  17    41  33  20    24  14   2    38  25  13   128 114 102   111  97  84    48  36  19    31  24   4    52  47  26   105 101  81    97  89  76    60  53  40    65  58  40   104  99  77    89  85  62    78  73  51    49  44  25    90  81  66   168 156 142    99  83  68    65  47  30    82  64  43   168 151 128   223 207 182   251 233 209   234 218 198   135 124 106    43  37  18    48  44  22    40  39  13    38  41  10    46  50  16  
 140 129 108   198 186 160   209 196 162   145 133  94   128 116  78   143 130 100   150 135 116   139 123 110    16   2   1    59  45  27   176 167 136   150 142 107    94  88  57    69  62  35    80  73  48    82  74  53    82  73  56   126 118 103    99  91  80    34  25  16    19  10   4    33  24  18    25  16  10    42  33  27    62  52  44    49  41  31    31  23  12    17   9   1    58  48  38    82  72  60    52  44  27    51  46  26    38  33  13    47  42  22    35  30  11    82  75  59   197 187 175    99  87  75   200 187 172   181 166 150    39  23   5   140 122 103   186 168 148   189 173 155   247 235 219   119 112  94    18  13   5    32  30   7    39  39  13    67  67  40  
  49  37  16    50  38  18    57  44  15    57  43  15    59  45  19    32  17   1    62  46  30    76  60  45    35  21   7    47  33  18    91  80  60    66  58  35    63  57  33    63  59  36    54  48  27    51  42  25    50  38  27   100  87  81    94  83  77    51  42  37    34  24  22    28  20  17    19  14  11    16  11   8    33  26  23    52  45  40    43  34  30    25  15   9    46  32  24    98  86  72    71  62  47    66  59  41    65  60  41    77  72  53    66  61  42    51  46  29    53  49  33    57  51  37    94  86  73   113 102  88    44  33  18   141 127 111   178 164 145   125 111  92   140 129 112   114 107  92    76  71  52    93  88  68    46  43  21    49  48  25  
 121 110  85    91  78  62   132 115  99   132 114 103    53  34  27    83  65  55    90  73  57    99  84  64   120 108  87    56  43  28    59  46  39    83  71  63    59  53  35    48  42  23    53  46  28    94  86  71    78  67  56    36  26  20    65  55  48    61  52  46    31  21  18    34  25  23    24  17  14    16  10   7    28  22  19    40  33  30    54  45  43    35  26  20    31  20   9    77  66  52    74  65  50    45  37  20    54  48  29    51  46  26    43  40  21    47  46  25    37  37  18    46  46  29    41  40  24    27  24  10    32  27  13    44  38  24    66  57  44    48  39  21    38  30  13    38  31  19    65  59  43    83  78  60    66  61  43    52  49  31  
 184 170 142   169 154 128   200 183 166   157 138 126    68  49  40   130 111 101   156 139 121   139 124 103   141 128 108    95  82  65    71  58  50   100  86  78    61  50  34    78  68  47    71  65  44   101  96  77    94  91  73    64  61  45    80  75  62    48  42  31    29  19  10    19   8   7    75  64  57    74  62  56    32  23  16    38  33  24   121 117 108   111 108  96    38  31  16    40  31  15    89  80  65    82  73  58   105  98  80   113 108  87    95  93  70    34  36   9    23  27   3    18  22   9    44  48  31    58  61  46    69  68  55    35  35  22    61  57  43   133 129 110   121 117  98    46  40  25    29  23   6    53  47  31    60  54  39    42  40  24  
 106  91  61   138 123  93    89  71  47    28  12  10    72  53  39    78  59  42    74  56  34   109  93  69   136 122  96    94  82  61    26  13   4    59  45  32    50  36  17    54  42  20    57  51  29    27  25   6    80  81  59   156 158 136   154 153 133    54  49  31    30  18   4    19   5   1   129 114 101   172 158 145    19  10   1    15  12   2    50  51  33   126 128 108    74  70  51    18  13   1    64  57  41   128 121 103   110 103  84   132 128 104   182 181 151   126 127  96   111 116  85    72  77  51    26  31  12    39  43  28    79  81  68    53  54  40    56  55  37   179 178 158   227 225 205   160 157 137    53  49  31   119 113  97   142 136 122    59  56  41  
