P3
50 50
255
  80  61  46    93  75  65    70  51  50    40  24  20    48  34  27    45  35  26    25  16   7    25  16   7    31  24  14    31  24  18    24  15  18    24  15  15    32  25  18    23  15  11    20  14  13    30  25  20    35  28  22    25  18  12    18  11   5    24  14  12    24  14  16    21  10  15    22  10  15    21   8  11    18   6   6    23  11   9    28  15  12    29  17  15    27  17  15    25  17  14    23  16  10    21  16  10    24  18  10    26  18  10    29  21  14    32  22  13    25  15   6    26  19   8    37  31  19    26  20   9    23  14   5    26  16   7    32  22  13    39  27  19    40  27  18    37  23  14    47  33  24    39  25  17    33  19  11    29  16  10  
  91  75  59    47  31  20    41  24  23    42  27  25    43  31  26    43  35  28    29  22  14    22  16   8    18  14   5    22  18  13    29  25  26    30  24  24    19  14   8    17  11  10    22  14  15    25  17  15    25  17  13    24  17  11    26  18  14    30  21  19    29  19  21    27  15  19    32  20  23    32  21  20    28  17  13    33  22  13    39  25  19    36  21  19    33  18  17    30  19  17    30  21  16    27  20  13    24  16   8    25  15   9    30  20  12    31  18   9    30  17   8    34  21  12    42  31  21    53  45  34    24  17   7    22  17   9    29  22  13    31  23  14    34  25  16    29  19  10    31  21  12    37  27  19    35  24  18    29  20  15  
  37  23   4    31  19   5    26  13  12    23  13  10    23  16  10    25  20  14    27  23  17    18  16   8    19  19   9    33  32  26    27  25  26    14  13  11    15  14   5    16  10   5    20  11   9    25  16  11    28  19  12    34  25  15    34  26  16    30  20  13    33  22  18    31  20  18    39  27  22    41  28  20    41  29  13    42  31  11    46  28  15    51  28  26    47  26  26    44  26  24    41  28  22    36  24  17    32  22  13    33  20  12    33  19  10    34  17   9    38  20  10    42  24  13    51  34  21    67  52  41    27  24  13    14  13   3    19  16   7    25  21  12    29  22  14    30  23  15    36  27  20    30  22  16    30  22  16    29  24  18  
  39  26   9    30  18   5    28  17  13    25  16  11    25  18  12    28  23  17    23  18  12    24  21  14    46  43  34    34  32  27    12  11   9    17  15  12    18  15   7    22  16   9    25  14  10    24  13   7    27  16   7    31  18   9    30  17   8    29  16   8    34  19  14    31  16  10    32  17   9    32  18   6    38  25   9    42  29   8    40  21   6    43  18  12    45  21  17    44  23  18    40  21  15    39  22  16    41  26  18    47  31  22    41  24  16    45  26  19    47  27  20    45  25  16    53  33  24    48  31  23    38  32  24    31  28  21    21  17  11    15  11   3    25  18  10    25  18  10    26  19  12    25  18  12    23  17  11    28  23  17  
  35  21  12    37  24  15    36  23  16    37  25  19    41  30  24    35  26  19    28  19  12    54  46  39    45  38  31    17  10   4    25  16  15    28  20  18    25  17  13    29  20  17    34  24  22    33  22  17    33  20  14    40  24  18    44  27  20    47  28  22    48  29  23    48  30  23    48  31  23    49  32  22    49  32  22    46  32  21    47  29  17    53  28  18    58  33  23    52  29  18    48  28  18    51  32  22    45  28  19    39  22  14    49  32  25    42  25  18    44  25  20    40  21  17    34  15  11    75  56  52    33  21  15    35  26  19    34  25  18    36  27  20    26  17  10    30  21  16    20  11   6    24  17  11    22  16  11    14   9   5  
  39  24  17    40  26  18    39  26  18    37  24  16    30  18  10    33  20  14    57  46  40    47  36  30    26  15  10    24  13   9    30  19  15    22  11   9    29  18  16    34  23  21    33  22  20    35  21  18    37  21  18    41  23  19    45  27  21    48  27  22    46  26  19    47  27  20    47  28  21    47  29  22    48  31  23    46  31  24    48  30  22    54  33  23    57  35  24    49  29  18    45  25  16    43  25  15    37  20  13    32  17  10    35  20  15    33  18  13    35  20  16    32  17  14    35  18  17    68  50  48    92  78  72    24  11   5    28  15   9    34  21  15    38  27  21    29  19  14    26  17  12    27  19  13    25  18  14    23  18  14  
  38  24  15    43  29  18    40  26  16    29  15   6    43  30  21    75  62  54    52  39  31    30  17   9    32  19  12    33  22  16    27  16  10    30  19  13    33  22  17    31  20  16    27  16  12    32  19  13    33  20  13    34  18  11    40  22  15    41  22  15    36  18   8    34  17   7    33  16   6    31  16   7    30  16   7    29  16   7    30  15   7    34  17  10    33  16   9    29  14   7    28  13   8    27  13   8    24  12   8    25  14  10    21  10   6    24  13   9    30  19  17    28  17  15    27  13  12    29  15  12    91  76  69    89  75  66    25  12   7    30  18  12    26  16   7    27  17  11    24  15   8    26  17  10    35  26  21    42  34  29  
  42  25  17    38  24  13    38  24  13    44  30  21    71  57  48    56  41  34    41  28  20    40  27  19    42  29  22    50  37  31    42  29  23    34  21  15    30  17  11    30  19  13    26  15  10    33  20  14    35  22  15    33  17  10    37  19  12    39  20  13    34  16   6    31  14   4    29  13   3    28  14   4    28  15   6    28  15   6    28  14   7    29  12   8    27  12   7    28  13   8    29  15  12    30  16  13    32  19  14    35  22  16    32  19  13    33  20  14    29  16  10    25  12   6    29  15   9    30  15   8    26  12   7    98  84  75    72  58  49    17   6   3    33  21  13    35  23  15    33  22  16    37  27  21    40  30  25    44  34  29  
  37  20  12    33  16   6    57  40  30    82  65  55    53  39  28    39  26  17    37  23  14    39  25  16    41  27  19    40  25  18    31  16   9    27  12   5    32  18  10    31  20  11    25  15   6    31  18  10    34  21  12    32  18   9    35  19  11    36  19  11    36  19   9    34  18   8    33  19  10    34  21  12    36  25  16    37  27  18    40  26  18    43  25  19    41  22  16    41  22  16    40  21  14    38  19  12    40  22  14    47  29  19    46  28  18    41  23  11    42  23  11    48  29  15    48  30  16    43  24  10    42  25  15    51  34  24   105  89  79    85  71  61    19   5   5    40  26  17    52  39  30    48  37  28    38  27  20    36  27  20  
  40  23  14    55  38  28    78  61  51    54  36  26    33  16   6    26  13   3    31  17   8    27  13   4    19   4   1    22   7   1    33  18  11    32  17  10    33  19  11    32  20  11    29  19  10    33  20  12    36  22  14    37  23  14    38  22  14    40  23  15    45  28  20    41  25  17    37  24  15    35  24  14    35  25  16    33  24  15    34  22  14    39  23  16    38  21  14    38  19  13    35  16   9    33  15   7    37  19  10    42  24  14    47  29  18    45  26  14    43  23   9    45  23   9    45  23   9    49  29  14    43  25  13    39  22  12    49  32  22   107  92  83    90  76  67    28  14   5    27  12   6    37  24  17    31  20  14    29  18  14  
  32  17   9    70  56  47    45  31  22    23   9   1    24  10   2    32  18   9    31  17   8    33  18  11    40  25  19    32  17  10    33  18  11    40  25  18    32  19  11    35  22  14    42  29  20    39  26  18    40  26  19    45  30  23    42  27  20    43  28  21    46  31  24    41  27  20    37  24  16    33  22  13    30  21  14    27  18  11    25  15  10    27  16  14    29  18  15    28  17  13    26  15  11    29  16  10    35  22  15    33  18  11    31  16   9    36  19  12    41  25  16    41  24  15    34  17   7    31  13   3    31  15   5    36  22  11    29  15   6    31  17   9    87  73  64    98  83  75    44  30  25    12   1   1    17   6   2    30  19  15  
  69  55  46    46  32  24    32  18   9    35  21  12    39  25  16    35  21  13    40  25  18    35  20  13    37  22  15    47  32  25    41  26  19    30  16   9    32  19  11    33  21  12    39  26  18    33  20  12    32  18  10    38  23  16    33  18  11    33  18  12    31  16  11    28  14   8    27  14   8    27  15   9    27  18  11    26  17  10    23  14  10    23  15  13    26  17  15    25  15  14    22  12  10    26  15  13    32  21  17    32  19  16    25  12   9    30  15  11    35  20  15    35  20  14    41  25  18    47  30  23    38  24  13    36  22  11    34  20   9    27  13   3    20   6   1    69  54  47   104  90  83    74  61  55    33  19  15    18   7   3  
  63  51  42    32  22  13    38  28  19    33  23  14    27  17   8    39  29  20    35  24  18    36  24  18    38  25  19    35  22  16    40  27  21    37  24  18    33  20  14    34  20  14    30  15  10    36  21  16    38  23  18    32  17  12    32  17  12    28  13   8    30  15  10    34  20  15    35  21  17    30  18  15    29  18  14    29  18  14    28  19  15    26  18  15    27  19  15    27  19  16    29  19  17    33  23  21    33  22  20    35  22  21    32  18  15    35  20  17    37  22  19    32  17  13    32  17  12    37  22  16    34  22  12    32  19   8    33  19  10    37  23  14    33  18  10    28  13   6    45  30  23    85  71  65    88  74  70    53  41  37  
  29  16   8    32  22  13    34  24  15    32  22  13    33  23  14    32  21  15    29  18  12    30  19  13    31  19  13    28  15   9    32  19  13    35  23  17    35  22  16    32  18  13    27  12   7    30  15  10    40  25  20    39  24  19    35  20  16    39  24  21    36  21  18    42  27  24    43  28  25    40  26  23    40  26  23    37  24  20    34  23  17    36  25  19    32  21  15    31  20  14    31  20  14    31  18  12    35  21  15    44  29  24    46  31  26    48  30  26    44  26  22    38  20  16    35  18  14    39  22  15    36  22  13    37  23  12    36  22  13    38  24  15    40  23  15    39  22  15    37  20  13    35  19  13    60  45  40    90  75  72  
  28  15   6    30  20  11    29  19  10    33  23  14    30  20  11    25  12   4    30  16   8    30  17   9    29  16   8    31  18  10    31  18  10    30  17  10    32  19  13    38  23  16    41  24  17    36  18  14    41  23  19    41  23  19    32  14  10    35  17  13    36  18  14    39  21  17    36  20  15    33  18  13    36  22  15    36  22  14    34  19  11    36  22  11    36  22  11    36  19   9    39  22  12    39  21  11    43  24  15    41  21  12    49  29  20    46  26  17    38  18   9    47  27  17    47  27  16    36  18   8    37  20  10    42  28  17    43  28  17    38  21  11    35  18   8    37  20  12    41  25  16    38  21  14    31  15   7    44  29  24  
  21   8   1    24  11   3    29  16   8    26  13   5    32  19  11    40  27  19    37  22  15    38  23  16    38  23  16    43  28  21    40  25  18    34  19  12    34  19  12    37  21  14    45  28  21    41  24  17    39  22  15    46  28  23    46  28  24    42  25  18    42  25  18    46  29  22    44  27  20    40  23  16    44  27  19    47  29  22    44  27  19    50  33  22    51  35  22    40  24  11    40  22  10    40  22  10    41  21  10    43  23  12    40  21   7    32  13   1    39  21   7    47  29  15    41  23   9    42  24  10    40  24  11    42  26  13    47  29  17    43  24  13    40  20  11    43  23  14    46  26  17    45  25  16    38  18  11    21   2   1  
  77  64  53    43  31  19    37  24  12    35  21  10    37  24  12    43  29  18    38  24  13    44  28  18    44  27  17    40  23  13    39  22  12    43  26  18    44  27  19    39  20  13    42  23  16    43  24  17    39  20  13    45  26  19    52  33  26    48  29  22    38  19  12    46  27  20    48  30  20    44  26  14    44  26  14    41  24  12    36  19  10    36  22  14    36  23  15    31  18  10    33  18  11    34  20  11    36  22  12    36  22  11    39  27  14    34  23   9    32  21   6    33  24   7    33  25   7    46  36  18    60  44  29    40  22   8    38  17   4    38  15   3    37  13   3    41  17   7    46  22  12    65  41  31    90  68  57    95  75  64  
 150 133 123   124 106  96    87  70  60    62  45  35    60  42  32    51  33  23    37  19   9    46  28  18    46  28  18    37  17   6    39  19   8    46  26  15    44  25  13    42  24  12    40  22  12    41  23  13    40  22  12    37  19   9    37  19   9    38  20  10    44  26  16    44  24  13    39  19   7    33  14   1    36  15   1    42  20   6    40  21  11    35  19  13    36  21  14    43  28  21    44  29  22    38  24  15    39  25  13    34  21   6    29  18   1    29  18   1    32  22   2    27  20   1    40  34  12    84  73  51    64  47  29    50  28  14    72  49  35   104  79  66   123  95  83   127  99  87   131 103  91   149 121 109   155 129 116   161 137 123  
  75  59  46   103  85  71   129 111  97   136 118 104   122 104  90   114  95  81   112  93  79    90  71  57    75  56  42    60  41  27    59  40  26    52  33  19    55  36  22    55  36  22    55  36  22    55  36  22    59  39  28    61  41  30    57  37  26    60  40  29    59  39  28    64  42  28    68  46  31    70  49  32    68  47  30    64  42  24    58  38  22    52  32  23    47  29  20    48  28  17    46  26  15    52  33  18    54  36  17    58  42  19    70  54  29    79  65  38    80  69  38    86  78  43    96  89  53   104  94  61    64  46  24   101  78  60   156 129 114   167 138 124   147 118 104   142 109  97   130  98  84   100  68  53    76  46  31    62  35  18  
  36  19   9    41  23  11    69  50  39    99  79  68   108  88  77   111  90  80   125 103  92   134 112 101   125 103  92   136 113 103   128 106  93    71  52  38    55  36  22    70  50  38    85  66  54    84  66  54    89  69  58   101  82  69    97  78  64    96  77  63    85  63  50    80  58  45    81  59  45    86  65  49    91  69  53    90  69  52    92  71  55    97  75  63    93  71  60    85  64  51   101  79  66   152 130 115   172 152 133   141 123  98   118 103  74   101  86  55    96  81  48   112  99  64   121 108  73   105  90  59    88  66  45    82  56  41    83  55  41    63  34  20    46  17   3    49  20   6    49  20   4    54  25   9    57  30  13    58  31  14  
  37  22  15    31  14   7    33  14   8    45  25  18    61  41  33    64  41  33    55  31  21    61  36  28    71  48  40    97  74  66   142 123 113    80  62  52    64  46  38   116  98  91   136 119 111   117 100  92   111  93  85   147 129 118   153 134 122   149 129 118   163 143 132   148 129 117   146 127 113   145 125 113   135 115 104   141 121 110   151 131 118   161 139 126   149 128 117   130 110 100   133 113 104   160 142 130   154 136 120   102  85  64    94  78  52    91  76  47    68  51  23    54  37   9    57  38  12    62  41  19    76  50  35    62  36  21    46  20   5    44  20   4    49  25   9    49  26  10    51  28  12    54  31  15    57  36  19    59  38  21  
  33  20  14    34  18  13    36  18  14    35  16  10    44  24  17    67  44  38    78  53  45    63  39  32    31   8   5    30  10   4    83  64  57    93  76  69    73  57  50    66  51  44    82  67  60    93  76  69    87  70  61    95  77  67    94  74  63    95  75  64   105  85  74   103  83  72   103  83  72    99  79  69    88  70  60    83  65  55    74  56  43    65  46  32    53  34  23    53  34  27    50  32  24    43  27  17    32  16   5    36  20   3    55  41  16    72  56  30    70  53  27    64  45  22    62  40  21    59  36  20    69  46  32    70  46  34    67  43  31    64  42  29    58  39  25    55  36  22    58  39  25    54  35  21    47  28  14    58  39  25  
  31  20  16    38  23  19    50  33  29    50  33  27    43  24  17    41  21  14    52  32  25    82  62  55    86  66  59    46  27  20    24   7   5    88  74  66   138 123 116    94  80  71    70  55  46    71  57  47    68  53  43    67  50  39    61  43  30    54  36  22    55  37  23    55  37  23    52  34  22    49  31  19    46  30  17    49  32  22    46  28  18    42  24  12    29  11   2    24   7   1    28  11   4    29  15   7    30  17   6    27  16   1    28  16   1    32  17   1    38  22   1    45  27   9    47  28  13    46  24  11    45  24  10    53  31  18    55  35  21    55  37  23    55  37  23    56  38  24    58  40  26    53  35  21    48  30  16    44  26  12  
  35  23  19    33  19  15    38  23  18    44  27  23    44  27  20    42  23  17    37  18  10    37  18  11    55  36  30    81  63  56    59  45  36    45  32  23    60  47  38    48  34  25    31  17   6    31  17   6    31  16   5    34  18   5    39  22   8    41  23   9    36  18   4    37  19   6    42  25  12    47  31  18    46  30  17    54  37  27    59  42  32    57  40  30    51  34  26    52  37  29    53  38  33    37  24  17    32  20  11    33  24   9    36  25   7    37  24   5    36  21   3    35  18   3    37  19   6    42  23  12    48  28  17    43  23  14    37  18   9    32  15   5    31  13   3    30  12   2    31  13   3    39  21  11    45  27  17    34  16   6  
  24  13   9    30  18  15    34  21  16    35  21  15    41  24  18    43  26  19    43  26  19    42  25  17    33  16   8    40  26  17    62  50  41    75  65  55    66  56  46    37  26  14    28  14   1    35  21   8    37  23  10    44  28  15    42  26  12    39  23   8    43  27  14    41  25  12    38  23  10    34  20   9    25  13   1    30  18   6    36  22  11    39  26  17    45  32  25    40  28  24    46  35  31    48  39  34    43  34  27    43  35  24    41  34  19    41  32  17    45  33  19    45  32  20    42  28  18    42  25  17    39  23  14    36  19   9    34  17   7    35  18   8    35  21  10    34  19   9    32  18   7    36  22  11    39  25  14    48  31  21  
  33  22  18    38  24  21    33  19  16    30  15  11    34  19  14    38  21  14    38  21  14    38  24  15    39  25  15    27  14   5    21  11   2    42  33  23    60  51  41    67  55  44    64  50  38    52  38  25    32  18   5    33  18   5    35  18   6    36  20   7    31  15   2    39  25  14    40  27  15    37  26  13    32  20  10    32  19  10    30  20  10    32  22  14    28  17  12    29  19  17    32  22  20    23  15  12    26  19  14    32  25  17    34  28  18    39  31  20    37  27  18    32  21  13    34  21  15    41  26  21    36  21  14    37  23  14    40  26  17    42  28  19    44  30  21    48  34  25    47  33  24    45  31  22    44  30  21    48  34  25  
  36  25  21    36  22  18    32  18  12    34  19  14    39  21  17    38  21  14    39  23  15    35  21  12    34  20  11    44  31  22    36  26  16    26  17   6    24  15   5    36  24  13    54  41  29    73  59  48    65  51  40    52  39  27    37  25  13    27  15   3    31  19   8    33  20  11    30  19   9    32  22  12    30  20  11    32  22  13    31  22  15    27  18  14    21  13  10    17   9   7    18  10   8    20  15  11    21  17  13    22  19  12    23  18  12    25  20  14    30  23  17    31  23  19    28  18  16    25  14  10    31  20  14    34  21  13    38  26  18    37  27  18    40  30  22    45  35  26    45  32  24    43  30  22    42  29  21    32  19  11  
  34  19  14    38  22  17    41  23  19    40  22  18    36  17  13    38  19  13    43  27  19    41  26  17    40  26  17    39  26  17    38  25  16    36  26  16    33  23  13    29  17   8    25  10   2    32  18   9    41  27  18    55  42  33    61  47  39    51  38  30    38  26  17    32  22  13    36  25  18    45  34  28    33  22  16    26  17  10    29  20  16    27  19  16    21  15  12    16  11   8    16  11   8    23  18  15    24  20  17    21  17  14    19  15  12    19  14  11    22  16  13    28  20  18    30  21  20    30  20  18    29  18  12    30  20  11    37  27  18    40  30  21    40  30  21    37  27  18    35  24  15    43  30  22    41  28  20    35  22  14  
  39  20  16    44  25  19    48  29  23    44  25  19    44  25  19    51  32  26    50  32  25    45  27  20    43  26  18    38  24  15    38  24  15    34  22  12    34  21  11    34  21  12    38  25  17    31  18  10    28  16   8    22  12   3    31  20  14    38  27  21    57  46  40    53  44  37    32  23  17    35  26  21    29  20  15    19  10   5    26  17  14    28  21  18    21  17  14    14  10   7    16  13   8    21  17  13    23  19  16    22  18  15    18  14  13    19  13  13    21  14  14    24  15  16    25  16  17    22  14  12    25  16  11    28  19  12    27  18  11    30  20  14    32  21  15    27  16  10    27  15  10    29  16  10    30  18  12    29  16  10  
  45  24  19    46  23  17    48  26  21    49  28  23    52  31  26    51  30  25    45  24  18    43  23  16    43  24  17    43  26  18    44  28  20    42  28  18    44  30  20    48  35  26    43  30  24    26  13   7    28  15   9    22  11   6    21  10   6    22  11   7    25  17  12    52  43  38    58  49  44    46  37  34    22  12  10    25  15  13    38  29  27    27  20  18    18  13  10    24  19  15    21  16  12    19  14  10    24  19  16    19  14  11    18  12  12    20  14  16    22  13  15    20  11  12    18  10   8    22  12  10    30  21  15    27  18  11    28  18  11    31  20  14    29  16  10    23  10   4    25  11   6    26  13   7    26  13   7    27  14   8  
  46  23  15    45  21  13    48  25  17    51  28  20    54  31  24    48  25  19    38  18  11    38  19  12    42  23  16    49  32  24    52  36  28    49  35  25    53  39  29    52  39  32    41  27  24    20   9   5    30  19  15    27  16  13    19   9   7    19   9   8    20  10   8    23  13  10    46  36  34    61  51  49    44  34  32    45  34  32    46  37  35    23  15  13    20  12   9    24  19  14    20  15   9    22  17  11    21  16  11    20  15  12    24  17  15    23  14  15    24  14  15    22  12  11    17   7   6    23  14   9    27  18  11    22  12   3    26  15   6    35  22  14    34  21  13    34  20  13    40  25  18    38  23  16    36  21  14    37  22  15  
  43  19   9    48  24  14    53  29  19    51  27  19    49  26  18    47  24  18    43  21  15    41  21  14    46  27  20    56  37  30    57  40  32    52  36  27    54  40  30    49  36  29    40  27  23    25  14  10    36  25  21    33  22  20    26  15  13    28  18  16    29  19  17    26  16  14    27  17  15    28  18  16    34  23  19    64  53  49    76  66  64    50  40  38    26  17  13    28  19  12    31  22  13    30  21  13    36  27  21    28  19  16    22  12  11    16   6   5    23  12  12    29  17  16    26  15  12    34  23  17    34  24  15    31  18  10    33  19  11    37  22  15    41  24  17    47  30  23    52  35  28    47  30  23    40  23  16    32  16   9  
  42  16   3    51  26  13    54  30  17    49  27  16    47  25  14    48  28  19    51  31  23    48  29  22    48  30  22    51  34  26    47  33  24    42  28  18    46  32  22    48  35  27    44  33  27    35  24  18    41  30  25    34  25  20    28  19  14    28  19  14    29  20  15    26  17  12    29  18  13    31  20  13    23  10   4    33  20  14    45  34  29    54  44  40    56  47  39    41  33  22    32  24  11    33  23  11    38  28  19    36  25  20    30  19  17    26  15  13    31  20  17    34  23  18    31  20  12    37  24  15    39  25  16    39  25  14    41  25  15    41  24  14    44  27  17    50  33  23    52  35  25    48  31  21    46  30  20    43  26  16  
  55  29  14    61  36  21    60  37  22    57  35  22    57  35  24    58  38  28    64  44  36    64  45  38    57  39  32    51  34  26    45  32  22    42  28  19    48  34  24    47  36  27    40  29  22    34  23  17    43  33  27    36  27  22    32  23  18    26  17  12    19  10   5    31  22  15    33  22  15    35  23  14    41  28  20    45  32  24    34  21  14    30  18  12    35  24  15    48  36  24    61  49  35    44  32  18    29  16   5    33  20  13    37  22  19    40  25  22    41  26  23    38  23  17    35  20  11    38  24  11    37  21   8    43  25  15    47  29  19    43  25  15    44  25  16    49  29  20    49  29  20    51  32  23    49  31  21    43  25  15  
  70  44  27    71  48  30    66  45  29    62  42  27    59  40  26    58  40  28    58  40  29    50  33  23    42  27  17    35  21  12    32  19  10    32  20  11    37  24  15    40  29  20    27  17   8    28  19  10    44  35  27    34  25  18    33  26  18    30  23  15    32  23  16    25  16   7    26  16   7    29  17   8    37  25  13    46  32  21    31  18   9    28  15   7    31  19   8    39  27  13    54  42  26    55  42  26    49  35  21    36  22  12    30  15  10    36  21  16    38  23  18    36  22  14    40  26  15    43  27  12    49  31  17    46  28  15    49  30  16    45  26  12    40  21   7    40  21   7    38  19   5    40  21   7    40  21   7    39  21   7  
  60  39  22    60  41  24    53  34  20    45  26  12    39  21   9    36  18   6    37  20  10    37  20  10    34  19  10    32  18   9    33  20  11    34  21  12    37  24  15    38  27  18    23  13   4    30  20  12    47  38  30    30  21  14    30  22  14    34  25  18    32  23  14    27  17   8    35  25  16    39  27  17    53  40  31    65  52  41    43  29  20    40  25  18    39  25  16    46  32  19    44  31  15    47  31  16    62  46  32    64  47  38    52  35  28    49  32  25    45  28  21    42  25  16    46  29  17    40  24   9    50  30  19    42  22  11    45  26  13    48  27  13    45  23  10    45  25  14    51  31  20    56  37  25    47  29  17    41  25  12  
  38  21  11    37  23  12    35  21  11    36  22  13    37  23  14    42  28  19    50  35  27    49  35  26    44  30  21    38  24  15    38  23  16    41  26  19    43  29  22    41  30  21    26  16   9    30  19  13    57  47  41    29  20  13    28  19  12    30  21  14    25  15   9    33  22  16    36  25  18    32  20  11    57  44  36    66  53  45    43  28  21    42  26  19    40  22  15    40  23  15    45  28  18    50  33  23    51  34  24    59  41  31    75  56  48    75  58  50    60  43  35    37  20  10    39  24  13    41  24  14    45  25  16    51  28  20    65  43  33    61  40  29    53  33  22    47  29  19    43  27  19    40  26  18    33  20  12    33  20  12  
  52  38  29    47  34  26    45  31  24    49  34  27    49  35  26    46  32  23    47  33  24    44  30  21    34  20  11    32  18   9    31  17   8    25  10   4    29  14   7    43  30  23    35  22  16    27  14   8    58  47  41    31  21  15    27  17  11    20  11   4    27  17  10    25  14   8    32  21  15    31  20  13    43  30  24    45  32  26    29  15  10    32  17  12    34  19  14    38  22  15    44  27  20    47  30  22    42  24  16    34  15   8    41  24  16    58  41  33    69  52  44    51  35  27    38  25  16    26  11   4    44  24  19    42  22  16    40  20  12    33  13   4    36  18   8    30  13   5    22  10   2    23  12   7    21  11   6    17   8   3  
  54  40  29    46  32  21    37  23  12    33  19   8    32  15   5    27  10   1    28  12   2    38  21  11    38  21  11    35  18   8    48  31  21    62  45  37    57  40  32    51  35  28    50  35  28    37  22  15    68  55  47    41  29  21    32  22  14    30  20  11    29  20  11    22  13   5    31  22  13    34  25  16    47  38  29    48  38  30    37  26  20    37  25  19    38  25  19    37  24  18    40  26  20    44  29  22    39  25  17    37  23  14    26  12   3    26  12   3    47  34  25    43  30  21    39  26  18    32  19  11    27  11   5    36  19  12    40  21  14    38  19  12    44  27  19    41  27  18    40  28  20    42  32  26    41  34  28    38  29  24  
  32  15   5    36  19   9    41  24  14    42  25  15    39  22  12    39  22  12    39  23  13    41  24  14    51  34  24    54  37  27    71  54  44    79  62  52    58  41  33    49  32  24    55  38  31    42  25  18    68  53  45    56  42  35    39  28  19    41  31  22    35  26  17    34  25  15    33  24  15    31  22  13    50  41  32    44  35  26    28  18  12    35  25  22    33  23  21    32  21  17    30  19  15    32  19  13    32  19  13    28  15   9    20   8   2    26  13   7    45  32  26    35  23  17    39  28  22    49  38  34    40  29  25    46  32  27    56  41  35    63  46  39    64  47  40    54  39  33    51  39  33    36  25  22    34  25  23    34  26  23  
  43  25  13    47  29  15    52  34  21    49  31  19    46  28  16    50  32  20    54  36  25    52  34  24    47  29  19    53  35  25    58  40  30    48  30  20    43  25  16    48  29  23    54  34  29    42  23  17    57  40  34    69  55  47    42  31  22    39  29  20    36  27  18    39  31  21    35  28  18    30  22  12    50  43  33    36  29  20    17  10   4    24  19  15    28  21  18    32  24  21    27  19  16    22  13   8    26  16  11    31  20  14    31  20  14    37  26  20    55  46  39    44  35  29    35  25  20    34  27  21    44  37  31    33  25  20    34  23  17    42  27  20    46  31  24    37  22  15    35  23  17    35  25  22    28  19  16    27  19  16  
  50  32  18    48  31  16    51  33  20    51  32  21    48  30  18    48  30  18    48  30  20    52  34  24    48  30  20    45  27  17    43  24  14    42  24  14    52  34  25    52  33  26    56  37  31    57  38  32    53  37  29    70  56  49    48  37  28    44  34  25    34  26  17    32  23  14    31  24  14    32  25  15    56  47  38    46  37  28    30  24  17    25  20  17    26  21  18    29  24  22    29  21  18    27  19  16    35  26  21    42  33  28    47  38  33    47  38  33    56  47  42    38  29  24    22  13  10    27  19  16    28  25  20    28  23  18    28  19  13    21   9   2    29  14   7    33  18  13    32  17  13    34  22  19    32  22  21    26  18  16  
  49  30  16    50  32  20    58  42  29    60  44  31    55  38  28    46  29  19    36  22  13    43  29  20    53  39  30    50  36  27    47  33  24    50  33  25    48  31  23    43  26  18    50  33  25    58  42  33    46  32  23    65  51  42    57  46  36    40  31  20    32  24  13    27  20   8    29  21  10    31  23  13    53  43  34    38  28  19    28  20  14    23  21  16    22  20  15    19  16  11    20  15  11    25  19  15    32  25  19    32  24  17    34  25  18    28  19  14    48  39  34    43  34  29    22  12   9    26  18  15    18  15  10    26  24  19    37  30  24    23  11   5    23   9   2    34  17  10    31  14  10    32  18  15    36  25  22    26  18  15  
  51  33  22    45  28  18    43  28  17    41  26  17    42  28  19    46  31  24    42  29  21    38  25  17    38  25  17    43  29  21    44  29  22    36  21  14    34  18  10    37  20  12    31  16   8    32  19   9    30  16   7    59  47  38    61  53  42    18  11   3    24  16   5    30  22  11    36  27  17    40  28  19    58  45  37    31  16  10    16   7   3    23  19  14    25  22  17    20  15  10    20  15  10    26  19  13    21  13   7    18   9   2    23  12   6    17   6   2    42  31  27    38  27  23    17   6   2    30  22  19    26  23  18    20  19  11    39  32  23    39  27  19    41  25  18    45  26  20    41  22  17    50  33  30    47  34  31    25  16  11  
  48  31  21    41  26  17    41  27  18    31  18  10    33  23  14    27  16  10    31  20  14    29  18  12    29  18  12    33  20  14    26  13   7    34  21  13    38  25  17    33  20  11    36  24  13    36  24  12    34  24  12    51  42  32    70  62  51    31  23  12    29  21  10    30  21  11    33  22  13    39  25  17    56  39  32    43  24  19    37  24  19    30  24  18    22  17  11    28  21  15    28  21  15    45  36  29    45  35  27    38  28  19    35  25  16    25  15   6    45  35  26    56  45  38    30  19  13    27  17  12    23  20  13    23  19  12    45  36  28    50  37  28    38  20  10    45  25  16    44  24  18    51  32  27    49  35  29    30  18  12  
  39  25  16    32  19  11    35  23  16    29  18  12    33  24  19    22  13   8    21  12   7    22  13   8    25  15  10    39  28  24    52  39  33    52  39  33    52  39  32    41  28  19    38  26  14    38  28  16    39  30  18    52  44  33    65  57  46    42  33  22    55  47  36    28  17   8    27  13   6    45  28  21    62  41  36    62  42  37    80  64  59    50  42  35    16   9   5    39  30  23    59  50  43    46  35  28    65  54  45    75  62  53    65  53  45    68  55  47    69  56  48    65  52  44    50  37  31    46  35  29    24  19  12    29  23  16    61  50  42    56  40  30    62  43  33    80  57  49    75  52  45    71  52  45    51  35  28    32  19  13  
  44  33  27    38  27  21    32  22  15    28  19  13    41  33  30    25  17  14    20  12   9    31  23  20    39  30  27    46  37  32    56  45  39    50  38  32    41  28  20    27  16   6    34  24  12    28  18   8    36  27  16    29  21  10    47  41  29    56  50  38    55  46  37    42  31  22    32  18  10    54  36  31    70  49  46    54  33  31    41  24  20    35  25  19    26  17  10    35  25  16    45  35  26    34  21  13    38  25  16    49  35  26    41  27  18    57  43  34    71  57  48    69  55  46    44  29  22    53  42  35    32  26  19    20  14   5    37  26  17    59  42  32    92  72  61    94  72  61    89  70  60    74  57  48    50  35  27    27  14   6  
  31  22  17    91  81  75    81  72  66    35  27  24    38  30  27    26  18  15    25  17  14    38  29  26    36  26  24    43  32  28    40  28  22    29  16   8    36  22  14    57  44  35    55  43  31    37  24  15    47  37  27    44  35  25    55  47  36    79  72  62    52  43  34    28  18   9    32  18  12    54  36  31    74  53  50    47  26  23    42  25  20    39  27  21    28  17  11    26  13   5    36  23  15    50  37  29    35  21  12    32  19  10    32  18   9    26  12   3    38  24  15    69  55  46    41  26  18    42  29  23    27  18  13    27  18  12    41  28  22    47  30  21    46  26  15    51  31  20    72  53  44    58  41  32    54  38  31    35  22  14  
  32  21  15    68  58  51    62  53  46    42  35  28    40  32  29    17   9   5    23  15  12    28  18  16    28  19  15    29  19  13    33  20  12    57  42  33    81  64  56    72  55  47    70  53  45    65  51  42    46  32  23    64  53  43    77  67  58    81  72  63    64  55  46    24  14   8    34  22  16    39  25  20    83  66  63    62  44  42    77  60  58    49  37  32    21  10   4    38  25  19    40  27  19    44  29  21    48  34  25    40  26  17    32  18   9    35  21  12    43  29  20    62  49  41    48  35  27    47  34  28    37  27  25    30  20  18    59  46  42    60  44  37    33  15   5    38  20  10    48  30  20    54  38  29    57  43  35    39  28  22  
  31  18  12    24  13   7    28  18  12    52  43  38    63  54  51    30  22  19    40  30  28    52  41  38    46  35  29    59  46  38    65  50  41    81  64  54   102  83  74    86  66  58    82  62  55    69  50  43    72  56  48    57  44  35    50  40  31    54  45  36    82  73  66    42  33  26    31  21  14    45  32  28    70  55  52    69  54  51    59  45  42    37  24  21    20   7   4    34  21  15    36  21  16    34  19  12    43  28  20    42  28  19    30  16   7    42  28  19    42  27  20    67  54  46    88  75  67    37  26  20    38  27  26    26  13  13    48  33  31    61  45  39    41  22  15    33  14   7    30  14   5    37  23  15    45  33  26    38  27  21  
