P3
50 50
255
  29  45   6    59  81  35    62  84  37    45  63  23    24  33  14    14  20  10    16  19   9    21  24  13    18  21  10    20  23  12     6   9   1    10  14   6    16  18  13    15  17  14    13  13  13    16  16  14    23  24  19    17  18  12    12  13   7    19  21  10    20  23   9    45  49  32    28  33  14    26  34  11    24  31   8    30  40  15    25  33   9    14  22   1    32  38  21    20  24   9     5   7   1    16  15   8    13  10   3    23  18  12    48  43  37    29  20  18    38  30  28    25  16  14    43  39  30    53  48  38    30  27  18    20  18  10    23  22  18    24  23  19    24  25  20    16  17   9    20  23   6    40  43  23    32  36  13    25  29   6  
  57  73  34    65  82  41    52  72  31    35  51  18    20  29  11    19  25  12    20  24  12    13  18   3    11  15   1    17  20   8    15  18   7    19  22  12    16  18  12    15  17  14    14  14  12    18  18  16    23  23  20    17  18  13    12  13   8    18  18  11    26  27  17    26  30  16    23  26  10    18  22   4    28  33  12    39  46  24    35  40  21     9  13   1    16  20   5    24  25  13    12  12   5    14  10   6    17  12   8    29  23  20    35  27  24    25  17  15    29  22  19    29  22  19    53  49  40    36  32  21    32  30  18    25  22  14    25  24  20    17  16  12    21  22  17    29  30  22    31  33  19    34  37  18    26  29   8    27  30  11  
  61  73  44    44  58  30    28  41  17    16  29  10    17  26   9    32  38  23    43  50  34    28  35  18    21  26   8    19  23   7    25  29  14    26  30  17    15  16   9    14  15  10    15  16  12    19  19  17    21  21  19    17  17  14    14  13   9    17  16  12    17  17  11    25  25  17    19  21   9    16  18   4    35  37  22    56  60  43    38  40  25    31  33  20    49  50  38    28  28  19    16  14   9    13   9   6    15  10   7    27  19  17    28  20  18    26  18  16    25  20  17    30  25  20    53  49  39    21  18   6    30  28  14    22  19   8    19  19  12    23  22  18    34  35  29    36  38  28    31  33  19    31  34  15    32  33  15    31  32  17  
  24  31  15     8  18   3     8  16   6    13  22  11    26  33  17    35  42  23    42  50  28    32  40  18    32  39  17    28  34  13    33  38  21    29  33  18    13  15   5    13  14   8    16  17  12    20  20  16    19  18  16    15  15  12    14  13   9    15  13  10    14  13   9    22  21  17    12  13   4    21  22  11    55  57  43    83  85  72    43  45  32    42  44  31    62  62  52    18  18   9    16  14   9    17  13  10    25  21  18    25  19  16    26  20  16    24  18  15    25  20  16    40  36  28    48  45  31    12  11   1    24  23   4    32  32  15    23  24  12    23  23  13    26  26  17    27  28  16    28  30  14    34  35  17    40  40  22    31  30  16  
  14  20  10    12  15   6    13  17  10    21  24  13    23  31  11    25  33   9    24  31   8    25  33   7    31  39  15    30  38  14    35  40  20    28  32  15    16  18   7    15  16   8    19  21  15    23  24  19    18  17  15    15  14  12    15  14  10    13  12   8    21  20  18    13  12   8    19  18  13    18  18   8    27  29  18    36  38  25    20  22   8    17  18   5    28  28  18    12  12   4    15  14   9    11   9   5    34  30  27    28  24  19    20  16  11    27  22  16    21  16  10    47  45  34    53  52  34    35  34  14    29  31   7    37  39  17    30  31  14    34  35  19    33  33  20    30  31  15    28  30   9    25  27   6    35  34  16    33  31  19  
  24  28  12    22  26   7    14  17   1    21  25   3    31  37  13    33  42  15    24  33   7    28  37   8    28  37  10    30  38  12    31  36  14    22  27   8    16  18   5    14  17   6    21  22  16    23  24  19    17  16  12    14  13   9    16  15  11    14  13   9    14  14  12    12  13   8    23  24  18    19  20  10     7   9   2     7   9   2    15  17   4    31  33  21    14  16   5    18  19  11    12  13   7    10  11   5    21  20  15    27  26  21    21  20  15    32  29  22    20  18   6    44  42  27    56  55  34    61  64  37    44  46  18    32  35   8    36  38  16    43  45  24    46  47  29    36  38  17    30  32  10    22  24   2    35  34  16    38  36  24  
  65  72  45    48  56  26    50  58  26    50  58  28    46  55  31    42  52  29    27  36  13    28  35  14    26  33  12    32  36  17    29  33  16    18  22   7    16  18   6    13  15   4    20  21  14    19  20  13    16  16   9    13  12   6    18  17  10    24  23  16    21  19  12    22  20  13    21  20  11    28  28  18    41  40  30    42  41  32    25  24  16    43  42  35    25  24  18    18  16  12    12  11   8    19  18  14    17  15  10    31  29  24    30  27  19    34  31  21    25  22  11    40  38  24    46  48  29    56  58  36    43  46  24    37  39  17    42  44  24    36  39  19    40  42  24    31  34  14    28  30  11    32  33  14    42  40  25    38  36  24  
  56  68  31    44  57  18    92 106  65    68  83  47    20  33  10    19  31  12    25  34  16    24  31  15    21  25  12    23  25  13    20  21  12    16  18   8    22  23  15    20  21  13    20  23  14    13  15   5    19  19   8    21  21  10    26  24  11    44  42  29    32  28  16    33  28  17    71  68  58    63  59  49    56  53  44    44  40  34    27  23  19    36  31  29    26  22  22    17  13  14    15  10  12    14   9  10    27  22  19    38  34  30    20  16   7    28  26  14    30  27  17    25  25  13    25  25  13    34  35  20    30  32  17    30  32  17    34  36  21    46  48  33    56  58  43    39  41  26    17  17   3    26  27  14    40  38  27    33  31  20  
  49  60  25    46  61  23    63  77  39    37  51  16    14  28   4    17  29   7    22  31  11    22  30  10    22  25  12    22  24  11    20  20   9    17  17   8    16  18   8    20  22  12    21  23  13    22  24  12    23  23  11    33  33  21    33  31  19    45  43  31    43  39  27    41  36  25    82  78  67    62  59  47    17  14   7    19  16   9    19  15   9    21  18  14    23  19  17    26  22  21    13   9   8    13   9   7    28  23  20    45  42  37    21  17   8    27  25  13    24  22  10    23  24  11    24  24  11    21  21   6    22  24  10    26  29  13    35  37  21    39  41  27    40  42  28    24  26  13    18  18   7    28  28  17    40  37  29    32  29  22  
  33  42  14    26  37   7    33  44  14    43  56  26    31  44  17    17  30   2    12  20   1    26  32  10    32  35  16    19  22   5    16  17   3    22  22  11    33  33  21    27  29  18    31  33  22    47  48  37    44  44  32    33  33  21    28  25  14    41  40  28    30  26  15    22  18   7    16  12   6     8   5   4    12   9   1    21  19   7    16  13   4    17  17   7    18  15   9    20  17  12    11   8   3    19  16  11    37  34  27    46  43  36    27  22  14    26  24  12    21  22   6    37  38  20    59  61  43    42  43  26    18  21   2    14  17   1    32  35  18    29  32  15    22  24  10    17  19   6    24  24  14    23  23  15    34  30  25    37  34  28  
  11  16   1    14  21   1    20  28   6    40  50  25    33  46  16    26  39   9    25  34   6    48  54  28    55  58  37    34  35  17    28  26  11    31  31  18    41  41  29    46  46  34    59  61  48    61  63  50    47  47  35    18  18   6    17  15   3    21  16   5    19  17   5    22  20   8    27  25  13    37  37  25    45  46  32    20  21   7    31  32  17    24  26  12    20  22   7    14  14   2    18  19   6    35  35  23    56  53  44    40  37  27    29  26  17    21  19   7    25  26   8    39  41  20    55  57  36    53  55  34    45  48  27    24  27   7    24  27   9    33  36  19    25  27  13    20  22   9    26  26  16    16  16   8    23  20  15    34  31  28  
  17  20   6    20  23   9    19  22   7    26  33  13    37  47  20    50  61  32    40  49  21    41  45  20    42  44  23    35  35  17    37  35  20    35  33  20    36  36  24    37  37  26    33  35  22    19  21   8    16  16   6    18  19   8    38  34  23    32  28  15    37  36  23    44  45  31    47  48  34    52  54  38    52  54  36    18  21   2    34  38  17    41  45  22    29  33  10    33  37  15    35  36  16    45  47  29    65  64  49    37  36  22    31  29  16    24  22   9    34  35  18    49  51  29    38  40  20    34  36  16    53  56  35    42  45  25    23  26   7    32  34  18    28  30  16    23  25  12    29  30  19    24  25  16    28  26  20    32  29  25  
  21  22  13    19  21  11    25  26  16    29  33  18    30  39  16    55  64  39    38  45  21    22  26   5    23  24   6    26  25   8    30  28  14    19  17   6    16  16   5    14  14   3    17  19   6    39  41  28    41  42  28    36  37  22    38  35  21    28  26  11    41  39  25    46  47  30    44  46  28    36  39  19    38  42  20    27  33  10    26  32   4    37  43  13    44  51  20    70  76  45    47  52  23    37  41  16    54  56  34    32  34  15    27  25  11    30  28  15    51  52  35    43  45  26    24  25   8    24  25   8    36  39  21    46  49  31    32  35  18    24  27  10    26  28  14    32  34  20    36  38  24    28  30  18    31  31  22    33  33  25  
  25  25  19    17  18  10    25  26  18    20  22  10    25  32  15    29  36  18    22  26   9    21  24   8    16  16   3    23  21   8    27  24  14    16  13   4    21  21  11    21  21  11    24  27  13    41  43  30    42  43  29    28  29  13    30  26  11    39  37  20    41  39  22    34  35  15    26  28   8    33  36  14    44  50  25    56  64  36    65  74  41    61  70  36    63  72  36    69  79  41    48  55  20    41  45  15    47  50  24    27  29   8    23  21   6    39  37  24    46  46  33    26  26  15    18  18   5    24  24  11    23  26  11    29  32  16    29  33  17    24  28  13    29  33  17    30  33  17    36  38  22    36  38  24    31  32  20    29  30  18  
  29  29  24    13  13   5    15  15   7    19  21  10    15  21   9    18  24  10    13  16   5    12  14   3    18  16   6    24  22  14    47  44  37    65  62  54    44  44  36    38  38  28    29  32  20    26  28  15    26  27  13    24  25   9    31  29  12    40  39  21    29  31  10    55  57  36    42  46  23    54  59  36    55  61  35    46  55  26    74  84  50    64  74  39    31  42   4    28  39   3    63  71  32    72  78  44    49  52  24    30  32  11    23  21   6    27  26  13    24  24  15    18  18  10    22  22  13    24  24  14    15  18   6    15  17   4    22  26  12    28  32  17    28  32  17    24  28  11    30  33  15    35  37  21    35  38  22    37  40  23  
  29  29  21    18  18  10    15  15   7    26  28  17    26  32  20    21  27  15    22  25  15    22  23  15    31  29  22    24  21  16    43  40  35    53  51  44    31  31  23    26  28  17    21  23  12    18  20   7    19  21   7    30  31  15    39  38  20    38  37  19    48  50  29    83  85  63    75  78  57    57  62  39    46  51  28    21  30   3    14  25   1    16  27   1    21  31   1    16  27   1    72  80  43    67  73  40    34  37  10    35  34  14    20  16   4    19  16   7    24  23  18    19  18  13    21  20  15    23  23  15    20  20  13    21  23  12    23  27  13    23  27  12    39  44  29    32  36  21    26  30  14    28  32  15    39  42  24    49  52  33  
  17  18   9    21  21  12    21  22  12    26  28  17    40  45  33    20  26  13    27  30  18    44  45  35    37  37  28    28  26  20    31  29  23    16  15   9    16  17  10    15  16   8    20  22  13    26  28  17    30  32  20    40  42  28    46  47  32    42  41  24    21  23   3    25  27   8    28  31  13    30  35  15    24  29   9    25  33  10    31  41  16    18  28   2    23  33   1    28  37   2    57  63  30    35  39   9    24  26   5    38  37  21    20  15   8    22  17  12    29  26  21    24  23  18    21  20  15    22  21  16    24  25  17    28  30  19    28  32  18    28  31  18    33  38  23    28  32  17    22  26  12    24  28  11    33  36  20    39  42  26  
  20  22  11    24  26  15    26  28  17    29  33  19    41  47  31    28  36  18    18  22   6    33  36  22    37  37  26    36  36  27    30  30  21    26  26  18    15  16   9    13  15   8    19  22  13    27  30  20    29  32  22    30  33  21    32  33  21    30  30  16    24  25   7    18  20   4    15  17   3    27  31  15    19  23  10    21  28  12    42  51  32    23  33  10    20  29   5    34  43  14    58  63  35    40  43  18    25  24   9    34  31  20    27  20  19    21  15  14    21  18  13    23  23  16    23  22  17    22  22  15    21  23  13    22  24  13    26  30  16    35  39  25    34  38  24    33  37  23    29  33  19    28  32  19    30  33  20    26  30  17  
  20  22  11    23  26  15    22  24  13    32  35  21    42  50  28    40  50  26    18  23   2    16  20   3    32  33  18    33  33  20    24  24  12    27  27  18    12  13   5    13  16   8    17  20  12    21  26  18    26  29  21    21  25  16    18  20  12    18  19   8    33  34  17    41  42  25    33  35  22    18  21  10    23  26  16    24  30  19    18  27  13    34  43  26    37  44  24    34  43  20    60  63  41    50  51  32    17  14   4    17  12   7    26  17  21    23  15  17    24  21  16    24  24  14    21  21  14    24  24  15    27  29  18    22  24  12    19  23   9    26  30  16    38  41  29    38  41  30    30  34  22    24  27  18    25  28  18    21  25  15  
  13  16   5    28  32  19    23  24  12    36  40  24    26  36   9    35  46  16    31  39  11    18  24   1    21  25   2    19  20   2    31  32  16    34  35  21    19  21  10    20  23  14    16  19  12    14  16  11    19  21  15    18  19  14    13  14   9    14  15   9    46  48  34    52  53  40    36  39  28    25  28  17    20  26  16    28  33  26    44  51  40    43  49  37    29  34  19    10  14   2    33  35  20    36  36  24    17  13   6    16   7   7    17   8  13    26  17  22    24  20  17    22  22  14    22  22  14    29  29  19    36  38  25    27  29  17    18  20   7    22  24  11    19  21   8    25  27  16    22  24  13    17  20  11    26  29  21    27  30  23  
  20  22   9    24  27  12    23  27  10    18  26   3    27  41   8    50  64  29    31  41   8    28  35   2    30  35   5    35  37  10    33  35  13    27  29  10    29  31  16    27  29  18    15  16  10    12  13   8    20  20  18    17  17  15    13  12  10    19  19  17    24  26  21    26  31  24    12  19   8    25  32  19    28  34  19    48  53  41    42  45  36    18  21  12    20  21  15    11  10   6    41  38  33    38  33  30    10   4   1    22  13  14    18   9  14    18  12  16    24  23  21    21  22  17    21  23  16    24  26  18    40  40  30    29  29  17    22  23   9    26  26  12    20  21   7    15  15   1    22  22  10    23  25  13    32  33  25    18  20  13  
  18  20   7    20  22   8    27  32  13    33  41  18    49  61  33    67  81  51    42  52  21    36  43  12    59  64  34    59  62  35    44  46  23    31  33  13    28  30  14    29  31  18    24  26  19    20  21  16    19  19  16    17  17  14    15  14  11    15  14  14    12  15  15    10  16  12    32  40  27    33  42  24    35  41  22    28  33  16    20  22  11    20  21  15    12  11   7    28  27  23    53  50  44    23  19  13    18  11   5    19  12   9    21  13  15    15  10  11    18  17  12    29  30  23    28  29  22    28  30  21    25  25  15    27  27  16    30  27  16    24  21  10    22  20   7    25  23  10    28  29  15    31  31  18    39  41  28    33  36  22  
  18  20   8    18  20   6    34  38  22    52  60  41    50  59  40    45  56  35    27  33  12    20  25   2    41  43  22    50  52  31    58  60  40    47  48  31    34  36  22    27  29  18    24  27  18    23  26  20    21  22  16    21  22  16    21  20  15    13  13   9    10  11  11    17  22  17    47  53  38    33  41  19    29  34  11    28  33  12    13  15   4    13  15   8    16  15   9    37  36  30    42  39  29    15  13   1    19  16   4    16  12   3    15  10   8    19  16  12    19  20   7    26  29  12    24  26  11    38  41  27    32  32  21    26  26  16    29  26  18    28  25  17    36  33  24    33  30  20    25  25  12    33  34  18    49  52  33    57  60  40  
  17  19   8    14  16   4    27  31  17    45  49  36    33  39  30    20  26  16    20  23  11    20  22   9    23  23  10    25  24   9    40  41  26    34  35  22    35  37  25    18  19  10    14  17   9    20  22  16    20  21  15    24  25  18    29  29  20    22  24  14    11  14   6    18  21  12    30  35  21    24  30  12    15  19   1    14  18   3    13  16   1    21  24   8    18  18   5    38  39  27    34  33  21    15  15   4    14  13   3    20  16   7    17  14   5    21  20   3    30  33   5    38  44   9    26  31   1    20  24   5    25  27   8    23  23  11    29  28  19    29  27  22    24  23  18    27  26  20    25  25  16    32  32  21    35  37  22    40  43  24  
  19  22  11    17  19   8    18  21   9    23  26  16    16  21  15    16  18  15    13  15   9    15  15   9    27  24  17    22  19   9    23  23  11    36  36  26    31  32  24    15  16   8    13  16   9    18  21  12    15  16   9    20  21  11    28  28  16    27  28  14    19  21   8    18  22   7    20  23  11    16  19   7    14  16   3    15  18   1    62  66  43    79  83  57    36  38  15    39  40  22    38  38  28    19  19  13    18  17  12    17  17   7    26  27  11    44  47  19    70  76  33    76  84  36    62  69  26    26  32   1    24  27   1    22  23   5    24  24  14    22  20  15    24  22  19    21  20  18    20  20  15    27  26  21    33  35  23    31  33  19  
  18  19  11    18  19  11    17  19  11    16  19  12     8  10   7    16  17  14    14  15  10    18  17  12    26  23  16    24  21  11    11  11   1    22  22  12    20  21  13    14  15   7    13  15   6    13  16   7    12  15   6    20  22  11    22  22  10    13  14   1    16  19   1    20  23   6    15  16   8    11  12   6    11  12   4    40  43  26    83  87  62    73  78  47    46  51  21    36  39  17    27  29  18    19  19  14    23  24  19    27  29  18    25  28   7    67  71  38    92  98  52    67  73  24    55  61  16    30  34   1    11  14   1    17  19   2    22  22  10    29  29  21    24  23  19    19  18  16    22  21  19    22  20  16    31  31  23    26  26  14  
  16  17   9    13  15   6    15  18  11    15  17  12    13  15  11    14  14  11    15  14   9    17  16  10    11   8   1    19  17   4    17  17   6    23  23  13    22  24  13    23  24  15    18  21  12    26  29  20    29  31  21    39  41  30    36  36  26    16  16   4    17  18   4    19  21   8    11  11   3    22  23  16    19  20  10    42  44  29    48  51  27    20  24   1    34  38  13    34  37  17    16  18   7    16  16  10    20  21  15    43  44  33    26  28  11    51  55  28    51  55  21    28  32   2    30  34   1    31  35   6    21  23   9    34  35  19    36  36  24    35  35  27    33  33  26    22  22  16    24  23  16    28  28  20    40  41  29    33  33  19  
  21  22  14    19  20  12    18  21  14    19  22  15    17  18  12    17  18  11    16  16   7    20  20   9    10   8   1    19  17   4    23  23  10    24  25  12    36  38  26    33  36  25    21  24  15    36  39  30    30  31  23    34  35  25    35  33  25    19  17   9    19  19  11    25  24  17    19  19  11    25  25  15    27  28  15    20  21   5    25  27   8    24  25   7    40  42  26    31  33  18    17  19   8    15  17   7    15  16   8    30  32  21    32  34  21    27  30  15    19  20   5    26  27  12    24  25  10    31  32  18    35  36  24    34  34  23    40  40  30    36  36  25    30  30  19    23  23  11    33  33  20    50  51  36    46  47  31    29  30  12  
  18  19   9    24  26  15    13  16   8    19  22  13    19  20  13    18  20  10    15  15   3    17  18   5     9   7   1    16  13   2    42  43  28    35  36  23    40  42  29    28  32  21    18  21  12    16  19  11    16  17  10    14  14   6    23  20  13    22  19  12    18  17  12    21  20  15    26  26  18    18  18   8    22  22   9    27  28  14    19  20   4    27  28  12    37  39  25    24  26  13    16  17   8    13  14   5    14  15   9    17  18  10    20  22  11    16  17   8    15  14   8    24  23  19    24  23  17    24  23  17    24  24  16    26  27  16    30  31  21    25  27  14    19  20   7    22  23  10    27  29  14    30  32  17    31  31  18    27  27  13  
  19  22  10    15  17   6    19  22  11    19  22  11    14  15   7    17  19   8    17  17   5    19  19   5    48  45  31    37  35  21    52  52  37    45  47  33    19  21   8    12  15   4    10  14   6     8   9   3    17  16  11    20  17  10    21  16  10    24  19  13    16  13   8    11  10   5    19  18  13    16  16   8    25  25  15    34  34  22    21  22   6    34  35  19    33  35  21    18  20   9    16  17  11    15  16  10    19  20  15    14  15   9    18  19  11    16  17   9    20  19  15    22  21  19    20  19  15    22  21  16    24  26  18    28  29  19    26  28  17    19  21   8    19  21   8    21  23  10    14  16   3    11  13   2    24  24  16    32  31  25  
  25  27  14    38  40  27    48  52  38    24  27  16    21  24  16    19  20  12    16  16   6    22  22  10    64  65  51    71  72  58    42  43  29     7   9   1     9  11   1    10  14   3    10  11   5    12  13   7    19  19  11    31  28  21    24  19  13    20  16   7    20  17  10    13  13   5    13  12   7    20  20  11    25  25  15    23  23  11    28  31  14    47  50  34    26  28  14    15  17   6    16  18  11    15  15  13    19  19  16    12  13   8    16  17   9    14  16   5    21  21  12    18  15   8    18  18   8    22  22  12    24  27  16    23  25  14    19  20  10    18  20  10    17  18  10    24  24  17    22  23  17    20  21  16    26  24  23    27  25  26  
  37  39  26    60  62  49    33  36  22    23  26  14    30  32  26    19  22  16    10  11   4    21  22  13    20  20   9    36  36  25    24  24  12    15  17   5    15  18   7    17  21  11    13  14   8    13  12   7    17  14   7    28  23  17    36  29  21    28  24  15    21  19  13    15  16   8    14  15   4    30  31  16    37  38  23    37  39  23    43  45  31    39  40  28    17  19   8    20  22  13    26  28  20    22  24  15    14  15   8    12  13   7    16  17  12    16  16  10    20  18  10    18  15   7    23  23  15    25  25  16    21  22  13    18  20  10    15  15   9    23  24  19    19  20  15    20  21  16    20  21  16    20  21  18    22  21  18    23  21  19  
  36  38  24    39  41  27    18  21   5    17  21   7    15  17  12    24  26  24    16  16  13    17  18  12    16  16   8    10  10   1    17  19   8    26  28  16    20  23  12    19  22  13    18  19  12    14  14   7    17  14   7    17  13   6    46  41  31    42  36  29    15  14  10    17  18  12    24  26  11    31  33  12    36  38  17    50  52  33    49  50  38    23  23  16    18  19  14    36  37  31    45  47  35    36  38  24    13  15   1    13  14   5    14  14  12    16  15  15    19  15  12    17  14   9    23  20  16    18  17  13    16  16  12    19  20  15    15  15  12    21  22  18    22  22  19    20  21  16    24  25  19    26  27  21    22  21  15    21  21  12  
  21  23  12    26  28  14    25  28  11    15  18   4    22  24  19    35  36  34    20  21  17    12  13   7    20  21  11    10  11   1    26  28  15    26  28  14    18  20   8    20  22  11    21  23  13    13  15   5    19  18   9    20  18   8    28  26  15    39  38  27    22  21  12    12  13   4    30  29  15    30  30  13    26  25   8    47  45  31    35  33  22    24  23  13    31  31  23    25  26  15    21  24  12    27  30  16    12  14   2    13  14   6    15  14  12    17  13  15    18  14  15    17  13  11    15  11   9    16  15  10    24  23  17    21  21  13    12  14   5    17  19  10    19  20  13    21  22  15    27  26  21    33  33  27    25  23  17    18  16  10  
  18  24  14    20  22  11    22  23   9    19  19   7    31  32  27    27  27  25    15  15  10    17  17  10    19  21  10    17  19   5    23  25   9    28  31  14    20  22   9    15  18   4    15  17   4    13  15   4    17  19   6    16  18   5    21  22   9    49  51  38    43  44  28    14  14   1    25  23  10    25  21   8    23  16   6    40  35  25    55  51  39    52  50  37    24  25  11     4   6   1    31  33  21    26  29  18    10  11   3     8   7   3    21  18  17    17  13  14    16  10  14    13   8   9    18  14  13    30  28  23    33  33  24    28  29  15    20  22   8    17  19   5    20  22   9    20  22  11    23  23  15    25  24  19    20  16  13    19  15  12  
  21  26  19    20  23  16    22  21  16    21  20  15    24  24  22    17  18  13    16  17  11    19  22  11    14  16   3    24  26  12    22  26   9    31  34  17    24  27  12    21  23   9    19  21   8    17  19   6    17  19   6    15  17   4    27  29  14    57  59  45    60  61  45    26  27   9    27  25  10    30  28  13    36  32  20    43  39  27    74  71  59    48  46  33     1   2   1    73  76  59    85  87  73    18  20   7    19  19  11    15  14  10    12   8   7    22  18  19    18  14  15    11   7   6    22  18  15    34  32  24    32  32  20    30  31  17    29  30  16    19  20   6    20  20   8    20  20  10    28  28  20    24  24  16    19  16  11    21  18  13  
  22  25  17    20  22  17    24  23  22    24  22  21    19  19  16    18  19  14    19  20  11    16  19   7    16  18   4    33  37  19    40  44  26    36  40  22    25  27  13    35  37  22    36  38  25    24  27  13    17  19   6    18  20   6    26  28  14    37  40  23    46  47  28    40  41  22    35  35  17    40  39  23    33  32  18    26  24  11    65  63  49    52  51  35     6   7   1    43  44  28    48  49  35    27  26  17    17  16   8    17  15  11    19  15  14    16  12  13    17  13  13    13   9   8    19  15  11    29  26  19    35  35  23    35  36  22    30  30  15    23  25   8    24  25  11    23  23  11    35  35  25    32  32  24    28  25  19    25  22  15  
  21  25  11    15  18   9    20  20  18    27  26  25    24  26  20    23  26  18    23  26  14    18  22   8    23  27  10    27  32  12    42  47  27    35  40  20    39  43  26    49  53  36    48  52  37    41  45  30    31  35  20    26  30  15    31  35  19    34  38  19    68  70  49    60  62  41    31  33  13    39  40  22    27  28  12    15  14   1    35  33  17    37  36  18    28  29  16    46  47  30    84  83  70    63  61  49    22  19  10    13  10   5    15  11  10    15  11  12    12   8   8    16  12  10    14  11   6    21  18  10    35  35  23    37  38  24    27  28  13    25  26  11    37  38  24    30  30  18    31  31  21    29  29  19    31  28  21    27  24  17  
  27  31  10    24  28  12    26  27  18    26  27  21    23  26  17    27  30  19    31  35  21    25  29  13    26  31  12    25  30   9    28  33  12    29  34  14    35  39  22    33  37  21    29  33  18    33  37  22    26  30  15    19  23   8    26  30  13    28  33  13    51  53  32    48  51  28    29  32  11    34  37  17    20  23   5    20  22   5    17  18   1     9   9   1    57  56  38    69  69  51    82  79  66    51  48  36    18  15   5    17  12   8    18  14  13    16  12  13    16  12  13    16  12  13    11   7   4    12   9   4    20  20  10    24  25  12    22  22  10    20  21   8    35  36  23    36  36  25    27  27  17    21  21  12    24  21  14    22  19  12  
  36  42  16    49  54  32    44  47  31    23  25  12    20  24  10    21  25  12    28  31  17    24  28  11    37  42  22    59  64  41    32  37  15    24  29   9    32  36  19    29  33  16    22  26  11    29  33  18    27  31  16    25  29  14    35  38  22    34  37  18    31  33  12    36  38  16    36  39  18    26  29   8    21  24   4    56  59  40    50  51  33    15  16   1    50  49  31    89  88  70    51  47  35    50  46  35    19  15   6    13   8   3    21  17  16    11   8   8    15  10  14    11   6  10    14  10   9    16  12   9    12  12   4    19  19   9    23  23  12    15  15   5    18  18   7    39  39  30    33  33  25    23  23  14    18  15   8    15  13   5  
  58  63  40    34  39  17    22  26   3    15  17   2    15  19   4    18  21   8    18  22   7    21  25   8    30  35  15    37  42  21    33  38  18    21  26   7    20  24   8    18  22   7    19  23   9    16  20   6    28  32  17    39  43  28    34  38  22    40  43  25    46  48  27    50  51  30    26  29  10    17  20   1    42  46  29    52  56  39    49  52  35    11  12   1    34  33  15    48  45  28    27  21   9    21  14   4    21  16  10    11   6   3    18  14  13    12  10  11    13  11  14     9   7  10    10   8   9    25  24  22    26  23  18    17  14   8    29  26  19    34  31  24    19  16  10    15  12   7    21  18  13    31  27  23    24  23  18    20  20  15  
  27  32  12    28  32  12    30  33  12    37  40  20    33  37  22    30  34  20    25  29  14    24  28  11    22  27   7    20  25   3    18  23   4    18  22   5    19  23   8    14  18   5    15  19   6    17  21   8    31  35  22    32  36  21    29  33  18    25  28  12    37  36  19    54  53  35    35  36  18    20  23   7    23  27  11    25  29  13    29  32  16    18  19   3    22  20   5    35  32  17    31  26  14    42  35  26    34  29  23    12   8   6    15  15  13    14  12  13    13  11  16    12  10  13    13  10  14    27  26  24    31  27  24    23  20  15    25  23  16    24  21  14    22  18  14    16  12   8    16  12   9    27  23  20    25  24  19    26  25  20  
  13  17   3    22  26  10    28  31  13    29  32  14    34  38  23    40  44  30    39  43  28    32  36  20    27  32  13    28  32  14    25  29  12    18  22   6    26  30  17    23  26  16    15  18   8    19  22  12    25  28  18    24  27  15    26  30  17    20  21   8    30  27  14    45  41  28    25  26  12    21  23  10    24  28  13    26  31  16    26  29  15    29  30  15    38  36  22    42  38  24    45  37  27    58  51  43    39  34  29    11   7   4    12  12  11    11  11  12    11  10  14    12  10  13    11   9  11    21  20  18    29  26  22    27  24  19    24  21  16    21  18  13    17  14  10    19  15  11    19  15  12    23  19  15    18  17  12    24  23  17  
  21  25  11    27  31  17    31  33  18    24  26  11    22  24  11    24  27  13    27  29  15    30  33  19    32  34  19    29  31  17    22  25  10    17  19   6    21  23  14    31  33  26    18  20  13    24  25  18    18  19  12    21  23  14    21  23  12    16  16   6    34  28  18    40  33  23    23  20  11    25  27  16    29  32  20    28  35  22    27  31  19    35  37  23    55  52  40    49  43  32    45  36  27    49  42  34    30  25  21    10   8   5    16  17  17    11  14  15    12  12  14    14  12  14    12  11  10    13  12   9    23  20  15    25  22  15    20  17  11    19  16  10    17  14   8    23  20  13    24  21  17    22  19  12    20  20  13    27  27  17  
  28  32  16    30  34  19    25  27  13    26  28  14    24  26  13    22  24  12    19  21   8    21  23   9    25  27  13    26  28  14    22  24  11    15  17   6    20  21  14    34  35  29    22  23  18    22  23  18    15  16  11    18  19  13    12  13   5    18  15   6    47  38  33    38  29  24    24  19  13    23  24  16    23  26  19    22  28  17    21  25  15    29  31  20    49  45  36    42  35  25    35  26  19    31  25  18    16  11   7     9   9   7    14  18  17     5  10  10    10  10  10    14  13  11    15  14  10    14  13   8    25  22  16    27  24  16    20  17   8    23  20  12    20  17   8    24  21  12    32  29  22    24  22  13    22  22  12    20  20   8  
  40  45  22    31  36  14    23  26   9    27  29  15    29  31  17    31  33  22    26  28  15    17  19   6    19  21   8    28  30  17    26  28  17    16  18   8    17  19  12    21  22  17    16  16  14    11  13   7    25  26  20    17  19  12     6   7   1    21  18  11    50  40  38    28  18  16    19  14  10    18  17  12    18  22  17    16  21  14    18  21  14    15  17   9    22  18   9    23  16   8    25  17  11    24  15  10    14  11   6    12  12   9    14  18  17     7  12  10     6   8   5    10  11   6    14  13   8    16  16   8    32  29  20    36  34  22    25  21  10    31  27  16    26  22  11    19  15   4    30  28  18    23  21   9    24  24  12    24  24  10  
  45  51  23    28  34  10    32  35  14    28  32  13    25  28  12    26  28  14    22  25  11    22  25  12    22  25  15    18  21  12    18  20  12    18  19  11    14  16   8    15  16   8    19  20  10    21  22  11    51  54  39    35  37  22    19  20   6    41  39  27    42  36  29    22  16  12    19  15  12    18  18  13    14  16  11    12  16   9    16  19  12    12  13   5    18  16   7    23  21  11    29  24  16    24  21  14    17  18  11    11  14   7    10  16  10     6  13   7    11  13   8    11  13   8    14  13   8    16  16   9    29  26  18    35  33  22    28  26  14    31  31  17    28  30  17     9  12   1    16  19   4    16  17   3    33  31  17    46  43  27  
  49  55  28    25  31   5    37  42  18    33  38  15    26  31  10    30  34  17    22  26  11    22  25  15    23  26  20    15  20  15    16  19  13    14  17   9    20  24  11    17  21   5    25  28   9    39  41  19    59  62  37    43  44  20    43  44  21    66  65  46    36  35  25    16  16  11    13  13   8    18  19  13    15  16  10    13  15   8    15  17   9    13  16   7    20  23  12    26  29  18    25  28  15    20  24  11    21  26  13    21  27  14    21  28  15    22  30  18    16  21  14    14  16  11    16  17  12    17  16  11    19  16  10    28  28  18    35  36  24    26  31  17    14  22   5    15  25   8    33  40  22    27  30  12    16  13   3    51  43  28  
  43  49  25    26  32   8    28  35  10    28  33  11    34  38  20    26  29  14    20  23  11    18  19  11    20  21  16    21  24  20    19  20  15    15  17  10    18  20   8    16  18   4    46  48  29    78  78  56    58  58  35    39  38  15    55  53  32    61  59  42    20  20  10    19  18  13    34  35  27    26  26  19    21  21  14    12  13   5    12  13   5    16  19   8    22  24  13    26  29  18    24  28  14    35  40  25    25  30  16    28  34  20    21  27  12    22  29  17    12  16   9    11  13  10    16  17  12    22  22  16    25  24  19    29  29  19    31  33  22    25  29  15    13  20   4    27  35  19    45  49  32    36  37  20    31  26  15    97  88  73  
  37  42  21    39  44  23    16  24   3    20  25   5    36  38  24    19  20   8    18  19  11    14  15   9    16  17  12    25  26  21    20  21  16    15  16  10    16  16   6    22  23   9    34  32  17    79  78  60    57  54  37    38  35  18    33  30  15    35  32  19    37  35  25    45  45  37    47  45  38    23  23  15     8   8   1    23  23  15    17  17   7    18  20   9    21  23  12    29  32  20    35  37  24    46  50  36    27  31  17    28  32  18    16  20   5    11  15   1     6   8   3     8   8   6    15  16  11    24  25  19    29  28  23    28  28  20    25  25  15    20  23  10    11  13   1    24  25  11    36  35  20    50  48  33   114 108  94    90  82  69  
