P3
50 50
255
  59  67  46    40  48  27    40  48  28    39  46  28    47  54  38    37  43  27    41  45  29    58  60  44    53  55  38    45  48  30    39  41  27    42  44  30    41  43  29    39  41  28    40  42  28    42  44  30    49  51  36    45  48  31    87  90  71   176 179 160   117 118 102    76  77  55   104 102  75   166 161 135   190 184 160   144 140 120   113 111  94   146 147 130   171 175 154    79  87  61    58  67  39    71  80  54    63  71  48    61  67  44    81  87  61    72  77  54    76  84  62    59  69  49    53  64  46    37  48  32    34  45  29    42  53  37    61  69  53    59  67  49    55  59  42    50  55  35    52  55  34    55  58  36    60  63  40    52  57  34  
  65  73  50    52  61  40    43  51  30    42  50  29    52  59  41    40  46  28    55  59  42    68  70  54    44  46  30    40  43  26    46  48  34    49  51  37    40  43  27    35  38  20    44  47  30    61  64  45    55  58  39    51  55  33    99 103  80   121 124 103    41  42  24    80  81  61   129 128 102   188 185 157   165 160 138   143 138 120   115 113  96    88  90  71    71  76  50   118 127  94   119 129  95   101 110  81    78  85  60    57  61  36    94  98  75    83  86  65    75  81  62    55  62  45    57  65  49    35  43  28    29  36  24    42  50  37    42  49  34    49  56  41    52  59  41    37  42  22    42  47  25    46  49  26    53  57  33    46  51  28  
  66  71  48    59  64  42    50  55  34    45  52  31    49  57  35    41  49  28    45  49  33    58  60  46    44  47  32    39  41  27    53  54  40    72  73  58    74  75  58    60  63  44    51  54  33    72  76  53    77  81  57    67  71  45    93  97  70   115 119  94    73  74  56    91  90  71   127 125 103   177 172 150   153 148 128   115 112  95   104 104  86    60  63  42    87  93  63   129 138 102   115 125  86   111 120  84    89  96  65    75  78  53    55  57  35   102 104  83    65  68  50    58  60  45    53  56  42    52  56  42    29  35  23    39  45  33    53  59  45    71  78  62    55  62  46    40  47  29    60  65  45    60  62  41    64  67  45    57  62  40  
  72  77  54    70  75  53    65  70  48    50  58  36    43  51  30    42  49  29    55  59  42    60  63  49    54  56  43    65  67  53    59  61  46    57  58  42    80  81  62    93  95  74    66  70  47    70  74  49    91  95  67    72  77  46    79  84  52   126 131 101    99 100  80    57  58  39   127 125 103   158 156 133   120 118  97   124 123 106    89  91  73    56  61  37    82  91  59    82  93  51    90 100  57    94 102  62    90  96  63    79  82  56    50  49  29    70  69  49    74  75  57    64  65  50    55  56  42    35  36  24    45  47  34    53  55  41    68  71  58    67  71  56    46  53  37    47  54  38    58  62  44    57  60  38    61  64  42    51  56  34  
  81  83  61    76  80  57    63  66  45    48  52  32    47  52  32    45  50  30    43  47  31    32  36  21    40  43  29    55  57  43    63  66  49    40  42  25    45  47  27    65  67  45    63  65  42    64  68  41    85  90  59    84  90  57    84  90  56   106 111  78   104 108  85   127 129 108   156 157 133   178 178 154   116 115  95   104 102  87    76  78  60    71  78  52    75  84  50    60  71  28    62  71  28   104 111  72    88  93  60    91  92  68    96  95  77    47  46  28    57  54  38    71  68  54    42  40  27    55  53  40    77  75  62    76  77  63    75  77  63    56  59  45    39  43  29    45  51  37    50  54  38    62  65  45    58  61  42    44  49  29  
  60  63  41    67  69  48    57  60  40    42  47  27    44  49  29    39  44  25    38  43  26    51  55  38    53  57  40    46  50  33    66  69  51    41  44  25    61  64  43    56  58  36    59  61  37    55  60  32    65  70  40    89  94  62    99 105  71    91  96  64   107 111  86   169 173 147   182 186 159   145 147 122   113 115  94    57  58  42    79  83  64    88  97  71    62  72  37    64  74  33    75  84  41   132 139 100   119 123  93   121 122  99   113 112  94    68  66  49    44  41  24    51  48  33    45  42  27    74  71  56    53  51  36    68  67  54    62  64  50    44  48  34    34  40  25    50  57  43    57  63  46    56  60  41    49  53  33    46  50  33  
  67  66  46    57  57  38    47  48  31    46  49  32    56  58  44    50  54  39    55  60  42    76  83  65    82  89  70    84  89  69    66  71  51    36  39  18    81  84  63    79  81  59    59  61  39    59  61  37    84  87  62    86  90  63    81  85  58    82  87  59    77  83  55    78  84  55    97 103  72    79  83  56    74  78  56    66  68  54    66  70  55    52  60  38    60  72  38    72  83  44   121 129  90   155 160 126   121 122  97    94  95  76    87  85  70    88  86  71    51  49  33    71  68  51    77  74  57    42  38  22    47  44  28    65  64  49    72  74  59    54  58  44    28  34  20    51  57  45    58  64  49    48  52  34    56  60  43    48  52  37  
  59  58  40    50  48  33    50  51  36    50  52  38    46  48  34    50  54  39    72  77  61    76  85  63    68  78  54    75  83  60    54  59  38    63  67  46    95  98  77    72  74  53    46  47  27    65  67  46   104 107  85    76  80  57    46  50  27    52  58  32    67  76  45    68  78  44    61  70  37    63  69  41    53  58  37    72  76  62    53  59  45    64  73  53    66  77  48    89  99  65   133 140 106   157 158 132   108 107  88    70  70  55    65  66  52    69  70  54    67  66  50    78  76  58    75  72  53    83  80  61    75  72  53    71  71  53    89  91  74    79  84  70    39  47  34    47  55  44    44  52  37    52  57  40    67  71  56    47  51  36  
  37  33  21    37  34  21    49  47  35    53  53  40    43  43  33    34  36  25    46  52  35    55  65  42    62  72  48    63  71  47    53  58  35    88  92  70   116 119  98    79  81  60    51  52  34    50  51  33    61  63  45    43  46  29    42  45  28    57  62  41    74  84  49    90 100  63    83  93  57    64  73  44   102 110  89    59  65  51    45  52  39    90  99  81    55  65  39    88  97  66   109 115  87   109 109  88    79  77  64    60  60  48    56  58  44    49  51  34    62  62  46    71  70  51    77  75  54    85  83  62    92  90  70    66  66  47    61  63  45    57  62  47    44  52  39    64  74  63    58  67  55    65  72  55    77  82  66    47  51  37  
  37  34  21    44  42  29    48  47  34    42  42  30    39  41  28    38  40  26    43  49  31    46  56  31    46  56  31    44  52  28    59  64  41    68  73  51    82  85  65    65  67  48    55  56  40    52  53  37    50  52  37    48  50  36    55  57  43    57  62  40    65  76  41    86  98  60    87  98  62    93 103  72   135 143 119   102 109  91    66  73  56    84  92  72    72  80  57    58  67  40    96 100  77    82  83  65    63  61  48    47  48  35    60  64  50    41  43  28    40  42  25    59  59  40    66  65  44    47  45  24    83  80  61    81  81  61    59  61  44    48  51  37    39  46  33    58  68  57    58  69  54    67  75  57    70  77  61    53  57  43  
  48  46  31    44  42  29    42  42  28    41  42  28    46  48  34    55  57  43    48  54  32    46  55  27    45  54  27    53  61  37    50  55  34    58  63  43    53  55  40    34  36  22    30  32  18    51  53  39    47  49  34    53  57  40    70  74  55    65  73  50    43  55  25    56  70  35    81  93  59    79  90  57    71  82  50   114 124  95    95 103  77    88  94  71    99 104  81    55  59  36    86  89  68    79  80  64    55  55  42    48  50  38    55  57  46    33  35  24    43  45  31    46  48  33    45  44  27    58  55  38    68  65  49    79  76  61    69  66  52    51  50  38    43  46  35    55  62  49    49  57  43    55  63  46    76  83  65    46  50  35  
  51  52  36    51  50  34    45  46  30    40  42  26    45  48  31    52  56  38    41  47  23    52  61  31    62  71  41    56  65  38    59  64  43    80  85  66    82  85  69    51  53  39    57  59  45    61  63  49    49  53  36    47  52  33    53  58  36    71  78  54    49  62  32    42  57  23    70  84  49    74  86  52    59  69  36    70  80  46   114 123  90   142 148 119   138 144 117    92  95  74    40  43  24    56  57  41    43  44  29    32  34  22    57  60  48    50  52  41    42  44  31    44  47  31    46  47  31    46  45  27    48  44  28    57  51  37    61  56  43    51  49  36    47  49  35    61  65  51    51  57  42    73  80  63    77  82  65    58  62  45  
  43  44  28    49  50  34    49  50  34    46  48  31    49  52  35    51  54  37    42  46  23    58  64  35    70  77  48    61  67  41    67  70  49    71  74  56    62  63  48    59  60  46    69  70  56    78  80  66    60  63  45    51  56  35    43  50  27    47  56  29    69  82  52    52  65  34    52  66  33    62  74  40    73  84  50    79  89  55   136 145 114   150 158 130   142 147 123   134 137 116    72  75  56    58  61  44    58  61  45    42  42  29    55  55  42    61  63  50    48  50  35    48  50  33    60  60  42    68  66  49    68  62  46    59  54  38    60  57  41    49  47  32    46  47  33    62  66  51    48  52  36    79  82  65    89  92  75    62  64  47  
  43  46  29    48  49  33    49  50  34    52  55  38    59  62  45    66  69  52    61  65  44    65  70  43    75  81  53    68  72  47    63  67  44    55  58  38    54  55  38    68  69  53    93  94  78   146 149 132    93  96  76    57  62  40    61  69  43    53  62  35    50  62  32    49  62  31    36  50  17    48  60  28    68  79  45    83  93  59   123 131 101   134 143 114   127 134 107   131 136 113   126 131 109   123 128 108   137 141 122   108 110  95    60  61  47    46  49  34    54  57  39    59  62  42    61  63  42    75  75  55    81  78  59    69  65  46    59  57  39    53  53  35    53  55  38    69  73  56    57  60  45    80  79  64   101  99  84    36  34  19  
  49  53  36    50  53  36    56  59  42    64  65  50    61  62  48    62  63  48    61  63  43    74  77  51    64  66  42    61  63  41    63  65  44    63  64  47    69  70  54    77  78  62   114 114  97   132 135 116    68  71  50    65  70  46    95 101  75    44  52  24    41  51  24    38  48  20    30  41  11    48  59  29    69  80  48    78  87  56   105 114  83   124 133 104   112 121  94    97 105  80   109 116  94   147 152 132   116 121 101    80  83  66    55  56  40    45  48  31    45  48  28    51  54  32    55  55  33    51  50  29    71  69  48    68  65  46    56  53  35    59  58  40    55  58  41    63  67  50    62  63  47    63  58  46    74  70  56    51  48  33  
  56  60  43    46  50  33    48  51  34    58  59  44    59  57  44    65  63  50    75  73  56    86  87  64    81  83  60    88  90  69    75  77  56    58  59  41    64  65  49    53  54  36    38  39  21    35  38  17    86  89  68    85  90  66    68  74  47    60  66  38    32  41  14    43  53  25    35  46  17    33  44  14    63  74  44    74  84  52    91 100  70    94 103  74    86  95  67    87  95  69    67  75  51    97 105  82    95 102  80    57  60  41    40  41  23    63  66  47    91  94  73    69  72  50    51  53  31    68  67  46    66  65  43    67  65  44    54  52  32    54  54  36    49  51  33    52  56  40    57  58  44    60  54  42    53  47  35    54  48  36  
  42  49  31    36  40  24    39  41  27    52  54  40    59  57  44    67  63  52    74  71  57    72  71  52    70  69  51    78  77  59    66  65  47    40  39  24    38  39  23    54  55  39    59  60  42    56  59  38    93  96  74   100 105  82    89  95  70    71  77  51    46  51  28    87  95  71    76  84  59    41  49  22    33  42  15    50  60  30    61  70  41    79  88  59    94 104  76    85  95  68    69  79  54    97 107  82   104 113  89    68  73  52    49  50  32    61  64  43    96  99  78    80  83  62    57  59  38    62  61  40    66  63  44    61  58  39    58  55  38    55  53  37    51  54  37    63  67  52    59  59  46    57  52  41    47  40  30    58  51  41  
  49  56  38    37  40  24    26  28  14    28  30  16    31  29  16    37  33  22    40  33  23    46  43  29    47  45  31    40  38  25    34  32  19    38  37  22    57  58  42    75  76  60    66  67  51    76  79  60    60  63  42    66  71  49    88  93  70    72  77  53    49  54  31    77  82  58    68  74  51    62  71  45    33  42  15    58  67  38    57  66  37    64  73  44    86  96  68    87  97  70    82  92  67    76  86  61    72  81  56    78  82  62    69  70  52    47  50  29    62  65  44    62  65  44    62  64  43    61  63  42    66  65  45    58  55  38    68  65  49    58  58  42    55  57  43    72  76  62    49  50  38    44  40  33    56  51  45    73  69  61  
  59  63  46    60  63  47    46  48  34    32  31  18    43  39  28    49  42  34    51  44  36    54  50  39    42  39  28    31  29  17    53  51  39    53  52  40    57  58  45    63  65  51    50  53  36    47  50  33    55  59  39    66  71  50    93  98  76    88  93  71    38  41  20    50  53  31    72  77  54   140 145 122    99 104  81    57  62  37    74  81  55    57  66  39    55  65  38    92 102  75    67  77  50    53  63  36    54  63  38    83  86  66    78  76  61    59  60  42    58  59  41    64  67  48    58  60  41    53  53  35    62  58  42    77  74  59    61  57  44    55  53  40    37  37  25    53  55  43    53  54  45    43  41  36    57  54  49    55  53  46  
  55  58  41    57  60  43    46  47  33    39  38  25    62  60  48    61  57  48    55  51  42    56  52  43    41  38  29    49  46  38    79  77  65    71  71  59    52  53  40    56  58  44    41  43  29    39  41  25    54  57  40    55  60  40    73  78  58    68  73  51    63  66  45    65  69  47    69  73  50   179 183 160   186 191 168    52  58  32    90  97  71    75  84  57    69  78  51    96 106  79    42  52  25    39  49  22    67  76  51    89  93  73    81  79  64    41  42  24    57  59  41    65  68  50    52  54  38    42  43  27    44  41  27    59  55  43    69  66  54    67  66  54    36  36  25    42  44  33    40  41  34    42  42  37    44  43  38    40  39  34  
  36  37  21    47  48  33    41  42  28    33  32  19    44  42  32    46  41  35    48  43  37    43  39  32    40  36  28    48  45  36    57  57  45    50  51  38    52  53  39    57  59  45    55  59  42    48  53  35    50  54  37    44  47  30    53  56  39    50  53  34    88  90  69    67  69  48    77  79  58   153 156 134   148 152 129    53  56  33    62  67  43    64  70  44    62  71  44    76  85  58    48  57  30    48  57  31    71  78  53   111 113  93   106 104  89    38  39  23    45  47  31    53  56  40    53  56  41    57  59  44    65  63  50    46  43  31    52  48  38    58  54  45    38  37  29    38  39  31    28  29  23    39  40  35    36  37  32    48  48  43  
  79  80  64    85  86  70    48  49  36    35  33  24    39  36  27    39  36  29    34  31  24    40  37  29    51  48  39    60  60  48    59  59  47    41  43  29    47  49  34    61  65  48    65  70  50    49  54  34    58  63  43    52  55  37    48  51  34    55  58  39    58  60  39    50  52  31    68  70  49    92  96  73    71  75  52    59  63  40    32  36  12    39  45  19    54  60  34    51  59  33    58  67  40    60  69  42    66  73  48    93  95  75    89  88  72    52  53  37    48  49  33    46  48  33    46  48  34    52  54  40    54  53  41    49  46  35    56  52  43    47  46  38    33  33  25    44  45  39    43  43  38    42  43  37    41  42  36    60  60  52  
 121 118 103    96  94  80    47  45  33    55  54  44    37  37  27    38  38  30    42  42  34    48  48  39    50  50  40    53  54  42    40  42  28    38  42  25    58  63  44    70  75  55    76  81  61    59  64  44    53  58  38    55  58  39    55  58  38    41  44  25    42  43  23    48  47  26    51  53  31   104 106  84    90  92  70    41  43  21    53  56  33    59  63  40    72  76  52    62  67  44    60  65  42    55  61  37    71  76  51    70  71  50    38  37  19    50  52  34    58  60  44    60  63  46    53  56  41    58  59  45    61  59  47    49  46  35    52  48  39    52  48  41    45  45  37    44  45  39    40  40  34    34  33  27    37  37  29    47  44  36  
 113 110  95   104 101  87    65  63  51    60  59  49    23  23  15    40  39  34    54  54  45    38  39  27    29  31  18    37  41  26    31  35  17    53  58  38    71  76  55    72  77  55    68  73  50    71  76  53    64  69  47    47  50  29    42  45  24    35  38  17    62  61  40    74  74  53    60  62  40   145 147 125   155 157 135    69  71  49    67  69  47    59  63  40    65  69  46    74  78  55    81  86  63    56  62  38    68  73  49    89  90  69    32  31  13    50  51  33    68  70  51    73  76  58    56  59  42    58  60  46    64  64  52    46  43  32    45  41  32    47  44  36    42  42  34    35  36  28    40  39  31    35  32  24    31  28  19    34  32  20  
  64  58  45    85  80  68    73  70  59    57  56  46    30  30  22    39  40  34    37  38  29    34  36  23    41  43  27    44  49  29    36  42  21    59  67  44    86  94  70    76  85  61    65  73  49    61  66  43    48  53  30    50  54  32    60  62  42    68  70  49    74  73  52   111 110  89    66  65  44    80  78  57   100  99  78    85  87  65    73  75  53    70  72  50    54  56  34    53  55  33    63  67  44    59  63  40    61  64  41   108 108  86    56  53  34    42  41  21    53  55  37    59  63  45    47  50  33    49  50  36    47  45  33    41  39  28    49  45  36    46  42  33    46  45  37    43  44  35    50  48  39    54  49  38    62  55  45    63  57  45  
 109 103  89    46  40  27    39  34  22    53  50  41    32  30  25    32  33  27    43  44  35    44  47  32    46  49  32    35  40  20    41  46  26    56  61  39    75  80  57    79  84  61    63  69  43    45  51  25    60  64  39    89  92  69    73  75  54    73  73  52    84  84  60    89  89  65    52  52  29    59  58  37    64  63  43    58  60  39    73  75  54    62  64  43    60  62  40    64  67  44    52  56  33    90  94  69    78  81  56    71  68  47    38  31  12    32  27   8    59  58  38    71  72  53    57  58  40    46  47  29    50  51  35    51  51  37    54  52  40    40  38  26    52  52  42    58  58  50    63  62  51    71  68  54    60  57  42    66  63  48  
 225 222 205   118 112  98    44  38  27    38  34  26    35  34  29    26  27  22    43  43  36    42  42  31    38  38  26    44  46  32    45  48  31    58  61  42    83  86  66    73  76  55    42  46  23    50  53  30    59  61  39    93  93  72    90  89  68   124 122  99   141 141 112   118 116  88    59  57  33    46  43  23    66  63  46    62  60  45    58  57  41    56  55  36    65  66  44    53  55  31    58  62  37    77  81  54    61  62  36    51  41  20    53  36  20    83  70  53   106  96  78    79  73  53    74  72  51    59  61  39    60  64  41    53  56  34    58  61  41    49  51  36    41  41  29    42  42  32    67  67  55    66  65  47    53  52  32    58  55  36  
 112 109  92   153 146 133    99  91  81    39  33  26    37  34  29    51  52  47    34  35  29    43  42  33    44  43  32    41  42  28    44  45  29    41  42  25    55  56  38    66  68  47    51  53  32    46  48  26    50  51  30    76  75  54    97  96  75   174 173 150   176 175 147   110 109  82   127 125 102    41  38  21    51  49  34    70  68  55    60  59  43    52  52  33    53  55  32    55  58  31    58  62  35    55  60  30    48  50  22    81  70  49    94  75  60   106  90  73   115 103  86    80  73  54    61  58  37    50  51  28    56  60  35    56  62  37    64  69  47    59  62  43    42  44  30    36  36  25    56  56  42    63  65  45    54  56  34    47  49  27  
  85  79  65   200 191 181   159 149 140    48  41  34    47  41  37    52  51  46    37  35  30    35  32  24    38  37  25    48  48  36    48  50  36    55  58  40    65  68  49    54  57  37    54  57  36    44  46  24    44  46  24    49  50  28    57  56  35   116 116  94   115 113  90   147 145 124   161 160 141    72  70  56    52  49  37    64  62  49    59  60  43    47  48  29    41  43  20    62  66  39    88  93  63    77  82  50    66  68  38    93  83  62    80  65  48    74  61  45    86  76  59    72  66  47    58  56  36    56  57  35    43  47  22    61  66  41    65  70  47    50  54  33    42  45  28    50  52  38    60  62  46    64  67  45    63  67  44    51  53  31  
  86  79  69   115 106  97    97  87  79    56  48  41    52  47  41    32  29  22    36  35  27    37  34  25    42  41  30    48  48  36    54  56  42    79  82  65    75  78  59    55  58  38    67  70  49    47  51  28    47  49  27    46  48  26    37  39  17    41  40  20    59  58  40   159 157 142   128 126 113    75  73  61    33  32  20    51  52  38    63  64  47    52  55  32    43  47  21    56  61  32    87  92  59    77  82  50    69  72  42    73  69  45    75  65  47    87  79  62    61  54  38    63  59  42    70  69  51    56  58  37    53  55  33    49  53  30    61  65  42    59  62  40    49  52  33    58  61  44    61  65  45    67  72  49    67  72  49    56  60  37  
  31  23  16    47  37  30    44  33  27    47  37  31    36  31  22    37  34  25    44  42  33    55  55  45    44  44  32    49  49  37    65  67  53    56  59  42    49  54  34    59  64  42    77  81  59    57  62  39    54  58  35    56  59  36    50  52  30    26  28   7    41  42  28   117 117 107   121 121 111    57  57  47    31  31  19    53  54  40    48  51  31    52  56  31    57  62  33    53  60  28    66  73  39    71  78  44    92  98  67   128 129 103    88  83  63    76  73  55    62  58  42    60  58  43    50  48  33    77  76  58    76  75  55    59  61  39    60  63  40    50  54  31    52  55  34    66  68  48    54  57  37    57  64  41    55  63  39    54  59  36  
  28  18  16    46  37  32    35  26  20    25  17   9    38  34  25    53  50  41    54  51  42    60  60  50    41  41  29    48  48  36    61  63  48    47  51  33    49  54  34    52  57  36    58  63  41    52  57  34    49  53  30    47  51  28    50  54  31    41  42  24    29  29  17    22  22  14    58  58  49    60  60  50    51  53  40    39  42  24    56  59  37    64  69  41    71  78  45    64  71  37    70  77  43    73  80  46    94 101  69   120 125  98    66  69  47    50  51  33    68  66  52    83  81  68    57  55  42    78  76  61   116 113  95    64  63  42    53  54  32    51  53  31    50  54  31    51  55  32    40  45  22    45  51  29    44  52  29    49  54  31  
  25  17  15    25  18  14    41  34  27    36  29  21    47  43  32    49  47  35    50  48  37    55  55  45    48  49  37    40  42  29    54  56  42    68  71  56    58  62  44    39  46  24    36  44  21    37  44  21    35  40  18    42  47  25    48  53  31    54  58  38    37  39  26    32  34  23    29  31  20    59  61  48    60  62  48    30  34  14    53  59  34    58  64  34    59  66  32    55  63  26    76  86  51    77  87  52    65  75  43    59  66  39    59  64  41    46  49  30    40  41  25   100  98  86   121 117 106    58  53  41    70  64  48    57  52  32    57  54  33    54  54  31    61  63  39    58  60  36    49  53  29    46  49  27    50  53  32    49  52  31  
  39  34  31    49  44  39    52  48  40    37  34  23    49  47  35    75  73  60    52  51  38    58  58  47    43  45  33    48  50  37    78  80  66    53  56  41    34  39  20    34  41  19    33  41  18    39  47  24    38  46  23    57  62  40    46  51  29    37  42  22    64  68  53    67  69  56    50  52  39    46  49  32    51  54  35    47  52  29    48  54  25    54  61  27    54  61  25    48  56  19    81  91  56    91 100  67    59  68  38    58  67  40    55  63  40    47  51  32    45  45  32    65  62  51   116 110 100    85  79  67    47  40  26    52  45  28    55  49  30    51  48  26    57  57  31    54  54  28    61  62  38    49  51  29    55  57  36    55  57  36  
  67  63  60    84  81  77    76  76  69    46  46  37    36  36  24    61  62  48    35  34  23    41  38  29    40  39  29    78  78  66    51  52  39    29  32  17    39  43  26    52  59  39    46  54  33    34  42  19    37  45  22    42  50  27    44  52  29    56  61  39    71  76  56    55  60  40    59  64  44    54  59  38    40  45  22    51  58  31    58  66  34    64  74  38    64  74  37    51  61  26    56  66  32    94 103  73    84  93  66    67  75  50    73  79  56    55  58  39    59  59  45    84  81  70   109 102  93    64  56  45    48  39  26    62  53  38    58  50  32    46  40  19    46  41  19    57  53  28    63  61  39    61  58  40    63  60  42    40  37  18  
  79  79  74    88  89  82   122 124 114    79  81  70    35  37  24    53  55  42    30  29  18    33  30  21    34  33  23    45  45  33    37  39  25    47  50  35    47  51  34    40  47  27    33  41  20    34  42  19    43  51  28    54  62  39    55  62  40    51  59  36    43  48  25    51  56  33    56  61  38    53  58  35    47  53  28    60  66  37    63  71  37    63  73  37    76  86  49    69  79  44    56  65  34    69  77  50    74  82  58    73  81  57    70  78  55    57  62  42    61  61  48   102  99  88    75  69  58    42  34  24    64  56  42    91  82  67    86  77  59    75  68  49    77  71  49    65  60  39    69  64  44    51  46  28    45  40  22    60  55  36  
  59  60  54    69  72  63    85  88  78    75  77  66    33  36  24    67  69  58    39  38  28    31  27  19    34  31  23    44  44  34    46  48  35    44  47  32    36  40  23    32  39  20    31  39  18    37  45  22    54  63  39    67  77  53    61  70  46    44  51  28    50  56  30    58  63  38    52  58  32    61  67  41    71  77  49    69  76  45    65  73  39    68  78  43    69  79  44    76  86  52    78  87  58    66  75  49    57  65  41    79  87  64   102 108  86    52  55  36    51  51  37    60  57  45    32  26  15    82  74  63   129 121 108   107 100  83   122 115  96   104  97  78    70  63  44    50  43  24    57  50  32    56  48  34    58  52  37    68  62  46  
  11  13   4    39  42  31    36  42  30    43  46  35    25  28  17    67  69  58    50  49  41    34  29  23    39  36  27    58  54  46    57  57  45    38  40  26    36  40  23    45  52  32    43  51  30    36  45  21    46  55  32    58  68  44    52  60  37    43  51  28    54  60  34    49  55  27    43  49  23    64  70  44    83  90  63    78  85  56    65  73  41    62  72  38    59  69  35    58  67  36    62  71  42    50  58  32    51  59  36    81  89  66   130 138 115    59  64  44    26  28  12    23  23   9    43  40  28   121 118 104   137 131 115   118 113  94   113 108  89    66  61  42    50  44  28    51  45  29    58  52  37    69  63  49    66  60  44    46  43  26  
  27  27  15    12  16   5    28  34  21    28  32  21    33  34  26    59  59  51    57  54  47    40  34  28    45  40  32    42  39  30    36  37  24    31  32  17    32  35  18    35  42  22    41  49  28    40  48  25    47  55  32    48  56  33    34  41  19    41  49  25    54  60  34    47  53  28    53  58  35    64  69  47    65  70  48    67  72  49    58  63  39    53  59  32    62  68  40    49  55  27    41  47  21    36  42  17    51  56  33    48  55  32    95 103  80    92  97  77    27  30  13    37  40  23    60  61  45    73  74  56    84  83  65   101 100  80    69  66  47    54  51  34    79  73  59    50  44  32    55  52  39    63  61  46    58  57  40    50  47  30  
  72  73  57    19  21   7    36  40  25    36  40  29    24  25  19    46  43  38    57  51  46    43  36  30    47  42  34    47  43  34    39  38  25    31  33  18    26  29  12    29  33  14    40  48  27    44  52  29    46  54  31    38  46  23    30  38  15    52  60  37    61  66  43    54  59  36    66  71  50    63  67  49    43  47  30    37  42  22    37  42  19    59  65  40    60  66  40    36  42  14    27  33   7    38  44  18    56  62  37    54  61  38    38  46  23    55  60  40    42  47  28    54  59  40    54  59  39    46  51  29    42  45  24    70  73  52    62  63  44    87  86  70    92  90  77    39  36  25    54  53  41    52  54  38    56  57  39    56  57  39  
  87  86  68    35  38  22    31  35  21    43  45  35    35  34  29    35  30  27    28  20  17    46  38  34    49  44  36    68  64  55    60  58  46    48  49  36    40  42  27    38  42  23    43  48  28    50  58  37    51  59  37    40  48  25    35  43  20    48  56  33    63  68  48    47  50  34    42  46  31    34  38  23    26  30  16    37  41  25    37  41  23    51  56  35    59  65  40    46  52  26    30  36   9    40  46  20    56  61  37    61  68  45    61  69  46    63  71  50    53  61  40    54  62  41    58  65  43    37  45  22    43  51  27    56  64  40    58  62  42    75  76  61    77  78  65    45  45  37    45  46  35    52  57  41    59  63  46    60  64  47  
  57  57  39    38  39  24    34  36  23    21  22  12    54  51  46    53  48  45    27  20  15    53  49  39    54  50  39    61  58  47    46  45  32    49  50  35    42  45  28    53  58  39    51  56  36    47  55  34    42  50  27    35  43  20    39  47  23    39  47  24    41  46  26    43  47  30    43  47  31    32  38  22    30  37  21    44  51  34    44  51  32    53  58  37    59  64  41    57  63  38    45  51  25    53  59  33    65  71  46    57  62  41    64  69  49    69  74  54    68  74  54    75  84  62    75  85  61    59  69  42    52  62  35    64  74  47    58  66  43    43  48  30    33  37  22    28  30  19    26  30  17    35  42  23    38  46  25    41  46  28  
 104 102  89    21  20   8    40  37  27    19  16  10    52  47  43    46  41  37    43  39  31    76  75  59    61  60  42    65  66  48    72  73  57    50  53  36    45  49  30    63  68  48    55  63  42    35  43  20    33  42  18    30  40  15    34  44  19    42  50  26    52  57  35    77  82  60    66  72  50    30  39  16    38  48  24    55  65  41    54  64  40    60  67  44    66  71  48    66  70  47    58  63  40    64  70  46    59  65  43    53  55  39    57  56  43    69  71  54    79  82  62    67  74  51    75  85  57    68  79  49    53  66  36    71  84  55    69  82  55    48  59  34    40  49  29    42  51  34    43  50  31    46  52  31    46  51  30    45  50  30  
  70  68  56    28  26  15    33  29  20    39  34  27    34  29  23    24  19  14   101 100  88   112 114  95    64  66  45    61  63  42    78  81  62    65  69  49    55  60  40    59  66  45    51  59  36    37  45  22    43  52  27    48  58  31    49  59  32    65  74  47    69  72  50    61  65  43    41  47  25    26  36  12    38  48  23    54  64  40    68  78  54    68  75  52    71  74  53    74  77  56    55  58  38    43  48  28    48  52  33    51  51  37    54  50  39    60  59  43    54  56  37    56  61  36    60  69  39    50  61  29    43  57  24    62  77  44    62  77  45    42  56  28    42  54  30    56  68  46    60  69  47    64  70  47    59  64  41    41  46  24  
  38  34  25    50  46  38    47  42  36    35  30  25    28  23  19    23  18  14    70  66  56    71  70  54    56  57  39    60  61  43    68  71  52    63  66  47    50  53  34    52  56  35    55  60  38    58  63  41    65  70  46    68  74  48    66  71  44    71  77  51    61  63  43    42  44  25    31  35  16    42  49  29    53  61  40    52  60  39    70  75  55    78  80  62    79  80  62    76  77  61    42  44  27    25  26  10    41  42  27    68  65  53    68  64  52    62  61  45    48  50  30    51  56  32    40  48  18    29  40   6    47  61  26    60  74  41    66  79  48    49  60  34    44  54  30    51  61  37    55  62  39    68  72  51    57  60  40    37  41  21  
  39  35  26    51  47  39    61  56  50    40  35  30    44  39  36    56  51  47    32  30  21    31  32  16    51  52  34    58  59  41    43  44  26    40  43  24    50  53  34    53  56  36    61  64  43    70  74  52    67  72  48    68  74  48    70  76  48    70  74  51    55  54  37    37  37  23    33  34  20    48  52  37    66  70  53    63  67  50    66  68  51    72  72  57    81  79  66    72  68  56    37  33  21    25  23  11    43  41  29    73  69  57    75  73  58    67  66  48    58  57  37    43  46  21    27  35   5    51  62  28    44  55  21    47  61  26    63  76  44    59  69  41    49  59  34    47  57  33    48  55  33    62  66  47    67  70  50    63  66  47  
  41  36  30    59  54  48    61  56  52    34  29  25    34  29  25    70  65  61    54  50  42    41  41  28    32  30  17    45  43  28    52  50  35    50  49  34    53  53  37    41  42  24    49  50  32    64  66  45    67  69  47    69  71  47    59  60  36    62  64  42    53  48  37    42  39  27    47  46  34    54  54  42    66  68  54    65  67  53    58  58  44    55  52  40    65  59  49    62  55  46    43  36  28    37  33  25    44  39  32    48  42  32    78  71  60    75  72  56    63  63  43    65  68  44    62  68  38    54  63  30    38  48  14    46  55  22    62  71  41    61  70  42    58  63  40    56  61  39    53  57  38    58  61  44    58  60  44    66  69  52  
  68  63  57    48  43  37    41  36  32    39  34  30    22  17  14    52  47  44    56  52  46    51  49  39    51  50  37    46  44  31    45  43  30    45  43  30    40  38  24    39  37  22    44  43  26    48  47  29    54  56  35    57  59  37    38  40  18    61  60  40    49  45  33    45  41  32    61  58  49    60  59  48    59  59  47    54  54  42    48  48  35    46  43  31    41  35  26    45  37  29    46  39  33    45  38  33    45  40  35    48  41  32    66  62  50    70  67  51    75  75  55    69  71  48    64  68  40    64  71  40    40  47  16    57  66  34    70  77  48    66  72  45    63  68  45    56  61  39    45  48  31    48  50  36    53  55  41    59  62  45  
  65  60  56    55  50  46    42  37  34    41  36  33    32  27  24    52  47  44    46  42  37    45  42  34    54  51  42    39  36  25    39  35  24    50  46  35    49  45  33    47  43  31    42  39  25    52  49  34    58  55  38    56  54  36    36  36  16    46  45  27    57  53  42    49  43  34    50  47  35    44  43  31    44  46  34    47  47  35    50  47  35    47  41  31    39  31  23    42  32  27    46  36  34    43  34  32    43  35  33    46  41  34    49  45  33    55  52  37    67  67  48    72  74  53    65  68  44    47  51  25    48  52  25    60  64  38    70  74  50    75  78  57    71  72  54    57  58  40    49  50  35    45  45  33    35  36  23    34  36  22  
  61  56  52    55  50  46    41  36  33    49  44  41    28  23  20    34  29  26    47  43  39    43  40  34    37  34  27    39  35  27    49  44  35    44  40  31    49  45  34    54  50  39    41  37  25    60  56  44    57  54  39    55  52  36    53  52  34    45  43  27    58  54  42    49  45  34    34  33  20    27  29  15    40  42  28    43  45  31    43  43  30    44  41  29    49  43  34    52  45  39    47  40  34    39  31  28    34  27  24    36  32  24    37  33  22    50  46  34    53  51  35    75  76  56    84  88  65    66  70  47    68  72  47    56  61  36    62  65  43    78  79  60    69  70  54    53  54  38    53  54  41    46  46  36    39  40  28    41  43  29  
