P3
50 50
255
   4  85 104     4  87 105     5  88 106     6  89 107     5  87 108     5  87 108     5  90 111     7  94 114     6  94 114     1  92 111     1  94 112     2  97 115     2  99 118     1  99 118     1  98 117     1  97 116     1  97 118     1  97 118     1  97 119     1  97 119     1 100 121     1 102 122     2 103 123     2 103 123     2 103 123     3 104 124     3 104 124     1 104 123     1 104 123     6 109 128     7 111 130     3 108 127     1 106 125     1 105 124     1 103 122     1 100 119     2 109 127     2 112 129     4 114 131     3 113 130     2 112 129     1 110 127     1 111 128     2 113 130     9 120 137     7 118 135     4 117 133     4 117 133     5 118 134     6 119 135  
   4  87 106     3  89 107     3  89 107     4  90 107     5  88 109     3  88 108     5  92 112     8  95 115     7  95 115     1  94 112     1  94 112     2  99 115     3 102 121     3 102 120     2 101 120     2 101 120     1 100 121     2 101 122     4 101 122     3 102 123     2 103 123     5 106 126     5 106 126     3 105 125     3 104 124     6 106 126     3 106 126     1 104 123     1 101 120     3 106 125     3 108 127     2 107 126     1 106 125     3 108 127     3 108 127     1 106 124     4 111 129     4 114 131     5 115 132     4 114 131     1 111 128     1 111 128     2 113 131     5 116 133     6 117 134     4 115 132     1 114 130     2 115 131     4 118 133     4 117 133  
   5  88 109     4  90 109     4  90 110     3  90 110     2  88 109     2  88 110     4  92 113     6  96 116     6  95 116     1  93 113     1  94 113     1  97 115     1  99 118     1  99 118     1 100 119     1 101 120     2 101 122     3 102 123     4 103 124     5 105 125     3 104 124     6 107 127     6 107 127     3 105 125     3 104 124     5 107 127     4 107 126     1 103 122     2 104 123     4 108 127     4 109 128     3 108 127     2 107 126     4 110 129     6 111 130     3 110 128     7 116 133     4 114 131     2 113 131     2 113 130     3 114 132     5 116 133     6 117 135     6 117 134     1 113 131     3 116 132     5 118 135     6 119 135     3 118 135     2 118 133  
   1  87 107     4  91 111     6  93 115     4  93 114     1  89 111     4  94 117     6  97 119     2  96 118     1  93 115     1  95 116     3  98 119     4  99 120     1  99 119     1 100 120     1 100 122     1 100 122     1  99 122     1  99 121     1 100 122     1 101 123     1 101 121     1 104 123     3 105 125     2 107 126     4 107 126     4 109 128     4 108 127     4 107 126     3 108 127     5 111 129     5 111 129     2 109 127     3 110 128     5 114 131     7 113 131     1 110 128     6 118 135     4 117 134     2 114 133     2 114 132     3 114 134     4 115 133     6 115 136     4 115 134     2 113 133     7 119 137     9 121 140     7 120 137     3 118 137     4 120 137  
   1  91 112     4  94 115     2  93 114     1  90 110     1  94 119     4  98 123     4 100 124     1  97 121     1  97 120     4 100 124     7 103 126     5 101 125     3 102 124     4 103 125     4 103 126     3 102 125     1 101 124     1 101 124     2 102 124     4 104 127     4 107 126     4 107 126     3 108 127     3 108 127     2 107 126     1 106 125     1 105 124     1 106 124     3 110 128     5 112 130     4 111 129     2 109 127     1 111 128     5 115 132     4 114 131     1 110 129     3 115 135     2 117 136     5 117 137     4 117 137     6 117 137     6 117 137     6 115 136     5 114 135     4 115 135     7 118 138     6 118 138     1 116 135     1 116 135     2 119 137  
   4  95 116     5  96 117     1  93 114     1  91 112     3  97 122     3  99 123     2  98 122     1  97 121     4 100 124     7 104 127     4 104 127     1 100 123     4 103 126     4 104 127     4 104 127     3 103 126     2 102 125     3 103 126     5 105 128     7 107 130     9 112 134     7 112 133     5 110 131     4 109 130     1 108 128     1 107 127     1 106 126     1 106 126     4 111 131     3 112 132     2 111 131     1 110 130     2 111 131     4 113 133     2 113 132     1 111 129     1 115 134     1 117 135     4 119 138     5 120 139     8 120 140     6 118 138     5 116 136     4 115 135    10 121 141    10 121 141     7 119 139     3 118 137     5 120 139     6 123 141  
   2  93 115     3  95 116     5  97 118     3  98 121     1  94 118     1  96 120     1  97 121     1  98 122     1  98 122     1 100 123     1 100 123     1 100 123     3 102 125     2 102 125     3 103 126     2 103 126     2 103 126     3 104 126     6 106 129     7 109 131     6 112 132     5 112 132     4 110 130     3 110 130     3 110 130     4 111 131     5 112 132     3 113 132     1 110 130     1 110 130     1 110 130     1 111 131     3 113 132     4 116 134     3 115 133     1 115 133     3 118 137     2 120 137     4 119 138     4 120 138     5 118 137     4 117 136     4 115 135     3 114 134    12 123 143     7 120 140     3 118 137     3 120 138     7 125 143     7 128 145  
   3  94 118     2  95 118     3  96 119     3  99 121     1  94 117     1  97 120     3 102 125     4 103 126     1 100 123     1  98 121     1 100 123     4 104 127     3 103 126     4 105 127     5 106 128     5 107 129     5 107 129     4 108 129     7 109 131     8 111 133     3 111 131     2 111 131     2 110 130     1 111 130     2 111 131     2 112 131     2 112 132     2 113 132     1 112 131     1 111 130     1 111 130     3 115 133     5 117 135     4 118 136     5 118 136     4 119 137     5 124 141     3 123 140     4 121 139     2 119 137     2 117 136     2 117 136     3 116 136     2 116 135     9 122 142     3 119 138     1 117 135     3 121 139     6 126 143     6 128 145  
   3  97 120     1  97 119     1  97 119     4 100 122     1  98 121     1  99 122     2 102 126     5 107 130     5 104 128     1 101 124     1 102 125     5 107 130     1 103 126     2 107 129     4 108 130     6 110 132     5 109 131     3 109 130     5 109 131     5 111 132     3 112 132     2 112 132     2 113 133     1 113 133     2 112 132     1 112 132     1 112 131     1 112 131     5 116 136     1 114 133     1 112 132     3 117 136     5 119 138     2 119 137     3 117 136     3 120 138     3 123 142     3 124 142     4 122 142     3 122 141     4 120 140     4 120 140     4 120 140     3 120 139     9 126 145     4 122 141     2 122 141     4 126 144     7 129 147     5 129 146  
   1  96 118     2  98 120     7 103 125    13 112 135     2 102 125     1  99 122     1 101 124     4 106 129     7 109 132     4 106 129     1 103 126     1 106 128     1 102 124     1 105 127     3 108 130     4 110 132     3 109 131     2 108 130     1 107 129     1 107 128     3 114 134     3 115 135     4 116 136     4 117 137     5 117 137     3 117 137     4 116 136     2 116 135     7 122 141     2 119 137     1 116 135     4 121 139     5 122 140     1 118 136     1 117 135     1 120 137     1 121 140     2 123 142     5 124 144     7 126 146     8 126 146     7 125 145     8 124 144     5 124 144     7 126 146     3 124 143     2 125 143     2 127 145     2 127 145     1 126 143  
   1  94 118     1  99 122    12 111 134    20 120 143     6 108 131     1 106 128     1 106 128     5 110 132     6 111 133     3 108 130     1 106 128     1 106 128     1 106 128     5 111 133     2 109 130     1 109 130     5 114 135     2 111 132     1 108 128     3 112 133     1 110 132     1 115 136     4 119 140     5 120 141     4 119 140     3 120 140     6 121 142     7 124 144     2 119 139     1 120 140     4 122 142     4 123 143     4 123 143     3 122 142     1 120 140     1 120 139     1 119 138     1 124 142     3 124 143     1 121 140     1 120 139     3 124 143     7 126 146     7 128 147     5 126 145     1 124 142     1 125 143     4 132 149     4 135 151     3 135 150  
   1 100 123     2 102 126     7 107 130    10 112 134     4 109 131     1 105 128     1 105 127     3 108 131     4 109 131     1 107 130     1 106 128     1 107 129     3 110 132     7 117 138     5 115 136     3 113 134     7 116 137     5 114 136     4 113 135     9 121 141     1 116 138     1 119 139     5 120 142     4 122 142     3 120 141     1 119 140     2 120 140     2 122 142     2 121 142     2 122 142     2 122 142     1 123 142     2 122 142     1 121 141     1 121 140     1 121 140     1 122 141     3 126 144     4 126 144     1 122 141     1 121 139     2 123 142     4 126 145     3 126 144     3 126 145     1 124 141     1 125 141     1 130 145     1 134 149     1 133 148  
   4 104 127     3 104 127     5 106 128     6 109 131     7 112 135     2 108 132     1 107 131     2 110 133     3 111 134     1 110 133     2 110 133     3 112 135     1 110 133     5 115 138     3 113 136     2 112 135     7 117 140     6 117 139     4 115 137     8 121 143     4 120 143     3 122 144     4 122 144     3 123 144     2 122 143     1 121 142     1 121 142     1 122 143     3 124 145     3 125 146     3 125 146     4 126 147     5 126 147     4 128 148     6 128 149     6 129 150     1 124 143     2 127 145     4 127 145     2 125 143     1 123 141     3 126 144     4 127 145     2 126 144     4 130 148     1 129 145     1 128 144     1 131 146     1 135 149     1 137 151  
   2 102 126     1 102 124     5 107 129     9 114 135     9 115 139     2 110 134     1 109 133     3 112 135     4 113 136     3 112 135     3 113 135     5 115 138     1 110 133     3 114 137     1 112 134     3 114 136    12 123 146    12 124 146     5 117 139     3 119 140     3 122 144     2 122 145     1 121 145     1 123 145     2 123 146     2 123 146     2 124 146     2 124 146     1 121 144     1 122 144     1 123 145     1 125 146     2 126 148     3 128 150     6 130 152     6 132 151     1 125 144     1 128 146     2 127 146     1 125 145     2 126 145     5 130 149     5 130 149     2 128 147     5 133 151     2 132 150     1 132 148     1 133 149     1 137 152     2 141 155  
   2 104 126     1 102 123     3 108 129    13 119 140     5 114 137     1 110 133     1 109 132     3 112 135     4 114 137     3 113 136     3 113 136     5 115 138     1 111 133     2 114 136     1 111 133     2 114 136    13 125 147    12 124 146     2 117 138     1 117 137     4 123 147     1 121 145     1 122 145     1 123 146     3 125 148     4 127 149     5 127 150     3 128 150     3 127 149     3 127 149     3 127 149     3 127 149     2 128 150     2 128 150     2 128 150     2 128 150     1 127 146     2 129 148     4 129 149     3 128 148     5 130 150     9 134 154     8 134 154     4 131 150     4 133 152     3 134 152     2 135 152     1 135 151     1 139 154     3 144 159  
   6 108 130     1 105 126     2 107 129     8 114 136     4 113 136     1 110 133     1 111 134     4 114 137     6 116 139     5 115 138     3 115 137     4 116 138     1 109 131     2 115 136     1 115 135     1 113 134     4 119 140     3 118 139     1 115 136     5 122 142     5 125 149     1 123 146     1 122 145     1 123 146     1 126 148     4 129 151     4 129 151     3 128 150     7 133 154     6 133 154     7 134 156     8 134 156     7 133 155     6 132 154     2 131 152     1 130 151     3 130 149     5 132 151     5 132 151     4 131 150     7 134 153    10 137 156     8 135 154     4 131 150     4 133 152     5 138 155     3 139 155     1 138 154     2 142 157     6 148 162  
   6 110 132     3 109 131     3 108 131     2 111 133     5 114 137     2 111 134     2 112 135     6 116 139     8 119 141     6 118 141     5 117 139     5 118 139     1 113 134     4 120 141     5 121 142     2 119 139     1 120 139     1 119 139     3 122 141     9 129 149     4 127 150     1 126 148     1 125 146     1 127 148     4 132 153     6 133 155     3 130 152     1 127 149     2 132 153     2 132 152     3 133 153     4 134 154     6 133 155     5 134 155     3 132 153     1 131 152     3 133 152     4 134 152     4 134 153     4 133 152     5 135 154     8 137 156     5 135 153     1 132 149     5 137 155     5 142 158     5 143 159     2 145 159     2 147 161     4 152 165  
   1 106 129     5 112 136     8 116 139     7 116 139     4 113 136     3 112 135     3 113 136     4 115 137     5 117 139     5 119 140     4 118 139     2 118 138     1 117 137     1 119 139     1 121 141     2 123 142     2 124 142     2 124 143     2 126 144     2 128 145     1 130 150     1 129 148     1 129 149     2 134 154     8 140 159     9 141 160     3 135 155     1 130 150     6 138 157     3 135 155     1 133 153     2 134 153     4 134 155     4 136 156     4 135 155     2 134 154     1 134 151     1 135 149     3 135 152     4 136 153     5 137 154     4 137 154     2 137 153     1 136 152     3 140 158     1 141 158     1 143 159     1 146 161     1 148 162     1 150 164  
   3 109 133     5 114 137     6 115 137     3 113 136     2 112 135     5 115 138     7 117 140     6 118 140     4 116 138     1 116 136     2 117 138     3 120 140     2 121 141     3 122 142     1 122 141     1 124 142     1 123 141     1 125 143     2 127 145     4 131 148     3 134 153     3 135 154     2 134 153     1 134 153     1 135 153     2 136 155     2 135 154     4 136 155     3 137 156     2 137 155     2 136 155     1 135 154     1 134 153     1 133 152     1 134 153     1 135 154     1 136 152     3 138 153     5 140 156     4 139 156     2 138 154     1 136 152     1 136 154     1 138 155     2 142 159     1 143 160     1 145 161     1 148 162     1 149 164     1 151 165  
   4 113 136     5 115 138     4 114 137     1 110 133     1 111 134     3 115 137     6 118 140     5 120 141     4 119 140     3 119 139     4 121 142     5 124 144     6 124 144     6 127 146     4 127 145     2 127 144     2 127 144     3 128 146     5 130 148     6 133 152     7 138 158     6 139 158     5 138 157     4 137 156     4 137 156     4 138 157     6 139 158     5 140 159     1 136 155     3 138 157     4 139 159     2 139 157     1 137 155     1 136 154     1 137 156     4 140 158     1 138 156     5 142 158     9 144 161     7 144 159     4 140 156     1 138 154     3 139 157     4 144 161     6 147 164     5 149 164     4 150 167     4 153 168     4 156 170     3 158 171  
   5 114 137     7 117 140     6 116 139     2 115 136     5 116 140     4 116 140     4 116 140     4 118 142     7 121 145     8 124 147     7 123 146     4 123 144     3 124 145     4 126 147     6 128 149     5 130 150     5 130 150     3 130 149     4 131 150     2 131 150     4 135 155     1 133 154     1 132 153     2 134 155     4 139 159     6 141 161     4 139 159     2 137 157     1 136 156     3 140 159     5 142 161     3 142 161     1 140 159     2 141 160     5 144 163     8 148 165     1 135 151     1 139 156     5 142 160     3 143 160     4 141 159     3 143 160     6 146 164    10 151 169     2 145 162     1 146 163     1 150 165     2 154 168     4 157 173     5 161 176  
   5 115 139     7 120 142     9 121 144     5 120 142     9 122 145     5 120 143     5 119 143     4 121 144     7 124 147     6 126 148     4 123 145     1 122 143     1 123 144     1 127 146     4 130 149     4 131 150     4 131 150     1 131 150     2 131 150     1 132 150     2 135 156     2 134 155     2 135 156     4 139 159     8 143 163    10 145 165     8 144 164     5 143 162     2 140 159     1 141 159     2 142 160     2 144 162     3 145 162     4 147 165     5 149 166     7 150 167     2 143 159     2 144 160     3 143 161     1 143 160     1 141 159     1 141 158     2 143 161     3 146 163     3 149 166     3 151 167     2 154 169     3 157 172     5 161 177     6 164 179  
   2 114 138     4 119 143     6 121 145     4 121 144     4 119 143     4 122 144     6 124 146     5 125 147     5 125 147     4 126 147     5 126 147     4 128 148     3 129 149     3 131 150     4 132 151     3 133 152     3 133 152     3 135 153     7 138 156     8 140 158     3 135 156     4 138 158     6 141 161     6 142 161     6 142 161     5 143 162     8 146 165     9 149 167     4 144 162     1 143 160     1 143 160     1 144 161     2 148 164     3 150 166     4 150 166     3 149 165     3 147 164     3 147 162     2 145 162     2 146 163     3 146 164     4 148 165     6 150 167     5 150 167     7 156 173     7 157 174     5 160 175     5 162 177     6 164 181     6 167 183  
   2 117 140     1 119 141     3 121 144     4 124 146     1 118 142     1 121 144     5 125 148     7 129 151     7 129 152     5 129 151     4 128 150     2 128 150     4 131 152     2 131 152     3 134 153     4 136 155     4 137 155     3 138 156     4 136 155     3 136 155     5 139 160     2 138 159     4 140 161     5 144 164     3 141 161     1 137 157     1 140 160     7 148 168     3 145 164     2 146 165     2 148 165     1 149 166     2 151 167     1 151 167     2 151 168     2 151 167     1 146 162     1 145 161     1 147 165     4 151 168     8 154 172     9 156 173     7 153 171     3 152 169     6 156 175     6 158 175     4 161 177     4 163 179     4 166 183     4 169 185  
   1 120 142     1 122 143     3 124 145     4 126 147     4 123 147     4 125 149     5 127 150     4 129 151     5 130 152     5 131 153     5 131 153     3 131 152     5 134 154     3 134 154     1 134 153     1 135 154     1 136 155     1 138 156     3 138 157     2 138 156     8 144 165     2 141 162     3 142 163     6 147 167     5 145 166     1 140 160     1 142 162     6 151 170     5 149 169     6 152 170     5 154 172     4 154 172     2 153 170     1 152 169     1 152 169     2 153 170     1 149 164     1 149 164     1 149 166     1 151 168     5 154 171     5 156 173     6 157 174     5 156 173     1 154 172     1 155 173     1 159 175     1 162 177     1 165 181     1 167 183  
   1 122 143     2 124 145     4 126 149     3 128 150     6 128 151     3 128 150     2 127 149     2 127 149     2 127 149     3 129 151     3 132 153     4 135 154     6 137 157     3 136 155     1 134 153     1 135 153     1 136 154     1 139 156     5 142 160     5 145 162     7 148 168     2 144 164     3 145 165     8 150 170     7 149 169     1 146 165     3 148 167     8 155 173     7 154 172     6 156 173     7 157 174     4 155 172     2 153 170     1 151 168     1 152 168     1 152 168     1 154 170     1 155 170     1 153 169     1 152 168     1 152 171     3 156 174     8 161 179    10 165 183     1 158 177     1 159 178     1 162 180     2 165 182     1 168 186     1 170 187  
   1 123 145     2 127 148     4 129 151     4 129 151     2 128 150     3 128 150     1 126 149     1 127 149     1 127 149     1 128 150     1 130 151     1 132 152     4 138 157     3 138 157     1 138 156     1 139 156     1 139 156     1 141 159     5 145 162     7 148 166     6 150 169     2 148 166     2 149 167     4 152 170     5 153 171     4 152 170     5 153 171     7 158 175     3 154 170     4 155 172     4 155 172     3 154 171     1 152 169     1 151 167     1 151 167     1 152 168     5 159 175     4 160 176     5 158 175     1 157 172     1 155 172     1 156 174     7 162 180    10 167 185     2 161 180     2 163 181     2 166 183     3 169 186     2 172 189     2 173 190  
   1 125 147     2 128 150     4 129 151     4 130 152     2 128 151     2 130 152     3 131 153     3 133 155     3 133 155     2 133 155     1 132 154     1 133 153     2 138 157     4 141 160     5 143 162     4 144 162     3 143 161     3 144 162     4 146 164     5 149 166     5 154 171     2 152 169     1 152 169     3 153 170     5 155 172     5 155 172     5 156 173     6 157 174     3 154 171     4 155 172     5 156 173     5 156 173     4 155 172     3 154 171     3 154 171     3 156 172     2 157 175     3 160 177     4 160 177     2 159 176     1 157 175     1 157 174     3 160 179     4 161 180     3 163 182     3 165 183     3 168 187     3 171 189     3 174 191     2 176 192  
   1 125 147     1 126 147     2 128 150     2 130 152     1 129 152     3 132 154     5 134 155     5 135 158     6 136 158     5 137 158     4 136 157     1 136 156     2 139 158     5 142 161     6 145 164     5 147 165     4 145 163     2 145 162     4 147 164     5 150 167     5 156 173     3 155 171     2 154 170     2 154 170     4 156 173     5 158 174     5 158 174     4 157 173     3 154 171     5 155 173     6 157 174     6 157 174     5 156 173     4 155 172     5 156 173     5 156 173     1 157 174     1 158 174     1 157 176     2 159 177     1 159 178     1 160 178     1 159 178     1 159 178     5 166 186     4 168 187     5 171 189     4 175 192     5 177 194     4 179 196  
   1 126 148     1 124 146     1 127 149     2 131 152     1 130 152     2 131 153     2 132 154     3 133 155     4 136 157     5 137 158     3 138 158     3 139 159     6 143 162     6 145 164     7 148 166     4 147 164     2 145 162     1 144 161     3 148 165     6 153 170     7 159 176     3 159 174     1 156 174     1 157 172     3 158 176     6 162 177     5 160 178     2 158 173     2 155 173     3 156 172     4 157 175     4 157 173     2 155 173     1 154 170     1 154 172     1 155 173     2 159 176     1 158 174     1 157 176     1 159 178     4 164 182     5 166 184     4 165 183     2 164 182     2 165 184     1 167 185     1 170 187     1 172 189     1 175 192     1 178 194  
   3 128 150     4 130 152     5 131 153     4 130 152     1 127 148     1 129 150     2 133 153     3 134 154     3 135 156     4 136 157     5 140 160     5 142 161     2 141 160     1 142 160     1 141 161     1 142 161     1 144 163     1 147 165     3 150 168     2 153 170     1 152 170     1 158 175     3 160 179     1 158 175     1 158 177     5 162 179     7 164 183     5 162 179     7 167 186     3 163 179     1 160 179     4 164 180     4 164 183     2 162 178     2 161 180     4 164 180     1 156 173     2 159 176     1 161 177     1 159 175     1 162 177     3 166 181     3 169 185     1 168 184     3 170 186     1 173 187     2 175 191     2 178 193     2 180 194     1 181 195  
   1 125 147     4 129 151     6 132 154     6 132 155     1 129 150     1 132 152     3 135 155     5 137 156     5 136 157     3 138 158     3 140 159     3 142 161     3 144 162     1 145 161     1 145 163     1 146 164     1 148 166     2 152 169     4 154 171     5 156 173     4 160 180     3 162 181     2 161 180     1 158 177     1 160 178     4 163 182     5 164 183     2 161 180     3 164 182     1 160 179     1 160 178     1 162 180     2 165 182     1 163 180     1 163 180     3 164 182     2 162 178     4 165 181     6 166 182     3 165 180     2 165 180     3 169 183     1 168 185     1 167 182     1 172 186     1 173 187     1 176 191     1 179 193     1 180 194     1 181 195  
   1 125 147     4 129 151     7 133 155     7 134 156     1 130 151     2 134 153     5 137 157     6 140 159     6 140 160     5 141 160     4 142 161     4 144 162     4 146 164     3 147 164     1 147 166     1 150 167     3 152 169     4 155 172     6 157 174     6 159 175     9 164 184     6 163 182     1 160 179     1 160 179     4 163 182     6 165 184     4 163 182     1 159 178     3 164 182     1 161 179     1 160 178     1 162 180     1 164 181     1 164 181     1 164 181     2 165 182     1 163 178     4 166 181     7 169 184     5 168 183     5 170 184     6 173 187     4 173 188     1 171 185     2 174 188     1 176 189     1 178 192     1 179 193     1 180 194     1 182 195  
   1 126 148     5 130 152     6 132 154     3 132 153     1 130 150     1 133 152     4 137 156     5 140 159     5 142 161     5 143 162     6 145 164     6 147 165     3 146 163     2 147 164     2 149 167     1 151 168     3 153 170     4 155 172     5 156 173     5 158 174     5 160 180     1 158 177     1 157 176     3 160 180     7 165 184     7 165 184     2 161 180     1 157 176     6 165 184     4 164 183     2 163 181     2 163 180     2 164 182     3 165 182     2 164 182     2 163 181     1 161 176     2 165 180     5 168 183     3 169 183     4 172 185     6 175 188     5 175 190     1 173 187     3 176 190     2 178 190     1 179 193     1 180 194     1 180 194     1 182 195  
   3 128 150     5 130 152     5 131 153     1 130 151     1 131 151     1 134 153     2 137 156     3 140 158     2 141 160     4 143 162     6 147 165     8 151 168     2 147 164     2 149 165     1 151 168     1 152 169     2 153 170     2 155 171     3 156 172     1 157 172     1 157 174     1 154 173     1 156 175     4 161 180     7 164 183     6 163 182     1 160 179     1 158 177     6 165 184     7 166 185     4 165 183     2 163 181     3 164 182     5 166 184     5 166 184     2 163 181     2 164 179     3 169 183     4 170 184     2 170 183     1 171 184     2 174 186     1 173 187     1 170 184     3 179 192     2 180 192     1 180 194     1 180 194     1 181 194     1 182 195  
   1 126 148     5 130 152     6 132 154     3 132 153     2 135 154     1 136 155     2 137 156     1 138 156     1 139 158     2 141 160     5 146 164     7 150 167     4 149 166     3 150 166     2 152 169     2 153 170     3 154 171     2 155 171     3 156 172     1 157 172     1 158 175     1 156 173     1 156 173     3 160 177     4 161 178     2 159 176     1 160 176     4 164 180     3 162 179     4 164 179     4 164 179     1 161 177     2 164 179     7 169 184     7 169 184     3 166 181     2 168 182     3 171 184     4 172 185     1 170 183     1 170 183     2 174 186     2 174 188     1 173 186     5 181 194     3 181 193     1 180 194     1 180 194     1 182 195     1 184 196  
   2 126 148     5 130 152     7 133 155     4 133 154     4 137 156     2 137 156     1 138 156     1 137 155     1 137 156     1 140 158     2 143 161     2 146 163     4 149 166     2 152 167     4 154 170     2 153 170     2 155 171     2 155 171     1 157 172     1 157 172     5 161 179     3 159 177     2 158 175     1 157 175     1 157 174     1 157 174     2 161 177     6 165 182     1 158 175     3 163 179     1 159 175     1 158 174     6 168 183     8 170 185     6 165 181     5 168 183     1 166 180     1 169 182     1 170 184     1 170 182     1 172 184     3 175 187     5 178 192     2 178 191     6 182 195     4 182 194     1 180 195     1 180 194     1 182 195     1 184 196  
   6 131 153     7 132 154     5 131 153     1 130 151     2 135 154     1 135 154     1 136 155     1 138 156     1 140 159     2 142 160     2 143 161     1 143 160     3 148 165     3 151 167     3 153 170     2 153 170     3 155 171     4 156 172     5 159 175     5 161 176     3 158 176     6 161 179     6 161 179     2 157 175     1 157 174     3 160 177     5 162 179     4 161 178     1 153 170     6 163 180     2 159 175     1 157 173     8 168 184     7 167 183     3 161 177     7 169 184     1 166 179     1 168 181     1 170 183     1 171 184     1 173 185     3 175 187     5 178 192     6 181 194     7 183 196     3 181 193     1 179 193     1 179 193     1 181 195     2 183 196  
   3 128 150     4 129 151     3 129 151     1 130 151     1 133 152     1 134 153     1 135 154     1 138 156     1 140 159     3 142 161     4 145 163     3 145 163     4 149 166     2 149 165     1 148 165     1 151 168     5 156 172     6 159 175     7 160 176     5 159 174     1 153 169     2 157 173     4 160 176     3 158 174     2 158 174     4 160 176     3 160 176     1 158 174     7 161 177     4 161 177     9 169 184     9 169 183     1 160 175     4 164 178    11 171 185     5 167 181     1 168 181     1 168 181     1 170 183     1 170 183     1 172 184     3 175 187     6 179 193     9 182 196     4 180 193     2 180 192     1 178 192     1 178 192     1 180 194     1 181 195  
   2 127 149     1 126 148     3 129 151     3 132 153     1 131 151     1 133 152     2 135 154     1 136 155     1 138 157     1 139 158     2 141 160     3 144 162     5 148 165     1 146 163     1 145 163     1 147 164     1 150 167     1 152 169     1 152 169     1 151 168     1 152 168     1 156 171     3 159 174     4 160 175     4 160 175     4 160 175     3 160 175     3 160 175     2 159 174     1 149 164     1 154 168     5 165 179     5 165 179     4 164 178     8 168 182    10 172 185     4 172 184     3 172 185     3 173 186     3 173 186     2 172 185     1 173 185     2 174 188     3 176 190     6 179 193     3 179 192     3 179 194     3 181 195     4 182 196     4 183 197  
   1 124 146     1 124 146     1 126 148     1 130 151     1 132 152     2 135 154     4 137 156     2 137 156     1 136 156     1 138 157     1 139 158     1 142 160     4 146 164     4 149 166     4 151 169     2 152 169     1 150 167     1 151 168     2 153 170     4 156 173     1 154 170     2 155 171     4 157 173     5 158 174     3 159 174     4 160 175     6 162 177     8 164 179    13 170 185    32 189 204    22 179 194     5 163 178    11 168 183     6 163 178     1 155 169     4 165 179     3 169 182     4 172 184     7 174 188     5 175 188     4 174 187     2 172 185     1 171 186     1 172 186     3 175 189     3 176 190     4 177 193     3 179 194     3 179 194     4 180 195  
   2 127 150     3 128 151     3 130 151     5 130 153     3 132 153     5 135 155     7 138 158     6 139 158     5 137 158     2 137 157     3 140 159     5 143 162     1 142 160     2 145 162     4 148 167     3 150 168     3 150 168     3 153 170     7 157 174    10 161 178     2 155 171     1 154 170     3 156 172     6 159 175     4 160 175     3 159 174     4 160 175     8 164 179    15 171 186    57 214 229    47 204 219     8 165 180     6 163 178    12 169 184     5 162 177     3 164 178     1 165 180     1 169 182     4 171 184     5 173 186     4 172 185     3 172 185     3 173 188     3 173 188     2 174 188     4 176 190     7 178 195     8 180 196     8 180 196     7 182 197  
   3 126 149     3 128 150     3 128 150     2 127 149     1 129 150     3 133 154     6 137 157     6 138 157     4 136 157     2 137 157     4 141 160     6 145 164     4 144 162     2 145 162     1 145 164     2 148 166     5 152 170     7 155 173     7 157 174     7 158 175     1 153 169     1 153 168     3 156 172     7 162 177     6 162 177     2 158 173     1 157 172     4 160 175     7 163 178    16 173 188    15 172 187     4 161 176     2 159 174    12 169 184    15 172 187     6 166 180     6 169 184     5 169 184     3 169 183     1 168 182     1 168 181     2 169 182     2 172 187     5 175 190     2 171 186     3 175 189     7 178 195     8 180 196     8 179 196     7 180 196  
   6 127 149     2 125 146     1 123 145     2 127 147     4 133 152     2 132 151     1 132 151     3 134 152     4 137 157     5 140 159     6 143 161     5 145 162     4 143 162     1 145 161     2 145 162     3 148 165     5 152 169     5 155 170     4 154 171     2 153 170     1 155 170     1 155 170     1 156 171     3 159 174     4 161 176     4 161 176     4 160 175     4 161 176     9 166 181     2 161 176     7 166 180     9 168 183     4 163 177     6 165 179    10 170 184     5 165 179     5 165 181     5 166 183     4 168 184     2 168 183     1 168 183     1 168 183     1 170 185     1 172 187     2 174 188     2 174 188     4 177 193     5 180 195     7 179 195     5 178 194  
   6 127 148     3 124 145     3 124 145     5 127 148     2 131 150     1 130 148     1 129 147     1 131 148     1 134 153     2 137 156     1 138 156     1 140 156     6 146 164     4 147 164     3 148 164     4 151 167     5 152 168     3 153 168     1 151 168     1 150 167     3 159 174     1 158 173     1 157 172     1 158 173     3 160 175     4 161 176     4 161 176     3 160 175     1 160 174     1 157 170     1 161 175     4 164 178     1 159 173     2 162 176     4 164 178     1 160 174     4 163 182     4 165 183     6 167 185     3 169 185     3 169 185     1 170 185     1 173 187     1 174 188     1 175 188     1 175 188     1 177 192     6 182 197     7 183 198     5 181 196  
   4 125 146     2 123 144     4 125 146     6 128 149     3 132 151     1 132 150     1 132 150     1 134 151     3 136 155     2 137 156     1 137 155     1 138 155     5 147 164     4 148 164     4 149 166     4 151 167     6 153 169     4 154 169     2 152 169     1 151 168     4 157 173     1 157 172     1 157 172     2 158 173     2 159 174     4 161 176     3 160 175     3 160 175     3 160 175     1 154 169     1 156 171     3 160 175     1 161 175     5 165 179     6 166 180     1 158 172     5 164 183     5 166 184     5 166 184     2 168 184     3 169 185     1 171 186     3 175 189     4 177 191     1 175 188     1 175 188     1 179 191     6 184 196     7 185 197     6 184 196  
   1 123 144     3 124 145     5 126 147     6 129 150     2 131 150     1 132 150     2 134 151     3 135 153     2 137 156     2 139 157     2 139 157     1 140 157     1 142 160     1 144 161     1 145 163     3 150 165     4 154 169     5 155 170     4 155 172     3 154 170     2 156 171     1 156 171     1 156 171     2 158 173     4 160 175     4 160 175     4 160 175     2 159 174     3 159 174     1 155 170     2 159 174     6 163 178     2 161 176     5 164 178     7 167 181     3 163 177     4 163 182     4 165 183     3 166 183     1 167 183     1 168 184     1 171 185     3 175 189     3 179 192     2 178 191     1 179 191     3 181 193     6 185 197     6 185 197     4 182 194  
   1 122 143     3 125 146     5 127 148     5 130 150     1 129 148     1 132 150     2 135 152     3 136 153     2 137 156     3 140 158     4 142 160     3 144 161     2 143 161     1 144 161     1 146 163     2 149 165     3 153 168     4 154 169     2 153 170     1 152 169     6 159 175     6 159 175     6 159 175     5 160 175     5 161 176     4 160 175     2 158 173     1 156 171     1 156 171     1 155 170     4 161 176     7 164 179     1 158 173     2 159 174     6 166 180     4 164 179     4 165 183     3 165 183     3 167 184     1 168 184     1 168 184     1 172 186     2 175 189     2 178 191     1 178 190     1 178 190     2 181 193     5 186 197     6 187 198     5 186 197  
   1 122 143     2 126 147     4 128 149     2 129 148     4 134 152     4 136 154     6 139 156     6 139 156     4 139 158     5 142 160     5 145 162     7 148 165     3 144 162     1 145 162     1 146 163     3 150 165     3 153 168     4 154 169     2 153 170     1 150 168     8 160 178     8 159 177     7 160 177     8 160 178     8 162 179     7 160 178     2 158 175     1 155 172     3 159 176     1 156 173     5 162 178     8 165 181     1 160 175     2 161 177     6 166 182     3 163 179     5 166 184     5 168 185     4 170 186     4 171 187     1 171 186     1 173 187     2 175 187     2 179 190     1 178 189     1 179 189     2 183 193     7 188 198     9 190 200     8 189 199  
   1 123 143     2 127 147     4 129 149     1 128 147     4 135 153     4 137 154     5 138 155     1 137 153     1 136 154     1 137 155     2 142 159     4 145 162     1 143 160     1 144 161     1 147 163     1 151 166     5 155 170     6 157 172     5 157 174     4 155 172     3 154 173     4 155 174     5 158 176     8 161 179    11 164 182    10 164 182     7 162 180     5 162 179     5 162 179     1 156 173     1 158 175     3 163 179     1 161 177     3 165 180     5 165 181     1 159 174     6 169 186     6 172 188     7 174 189     5 174 190     4 175 189     3 176 190     2 179 189     3 180 190     5 183 193     4 184 193     7 187 197    12 191 201    13 191 201    12 191 198  
