P3
50 50
255
  60 165 184    62 167 186    54 161 181    59 166 186    58 164 184    52 159 179    50 159 179    55 164 184    56 164 186    51 160 181    49 160 179    52 163 182    48 159 178    47 158 177    53 164 183    51 162 181    45 156 175    47 158 177    46 157 176    48 159 178    48 159 178    45 157 175    47 157 177    49 160 179    47 158 177    43 154 173    36 145 165    42 151 171    49 158 178    51 160 180    49 158 178    47 156 176    47 156 176    49 158 178    55 164 184    46 155 175    44 153 173    49 158 178    52 160 180    49 158 178    49 158 178    53 162 182    45 154 174    47 157 177    49 158 178    50 159 179    47 158 177    42 153 172    37 148 168    33 144 164  
  54 160 179    55 160 180    53 160 180    53 160 180    52 160 180    50 158 178    49 158 178    50 159 179    50 159 180    50 159 180    42 153 173    45 156 175    40 152 171    40 151 170    48 159 178    48 159 178    44 155 175    48 159 178    48 159 179    48 159 179    45 157 176    42 153 172    43 154 173    48 159 178    49 160 180    47 158 178    36 147 166    42 151 171    46 156 176    48 158 178    47 157 177    45 155 175    47 156 176    49 158 178    52 161 181    48 158 178    45 155 175    45 155 175    46 156 176    46 156 176    46 156 176    47 156 176    42 151 171    43 153 172    45 154 174    47 156 176    45 156 175    41 152 172    36 147 167    32 143 163  
  54 161 181    53 160 180    52 159 179    47 154 174    45 154 175    48 157 178    47 156 177    44 153 174    44 153 174    48 157 178    43 154 174    46 158 178    42 154 174    41 153 173    47 159 179    45 157 177    42 154 174    45 157 177    43 155 175    45 157 177    45 157 177    43 155 175    44 156 176    47 159 179    45 157 177    41 153 173    38 149 169    41 152 172    44 155 175    45 156 176    44 155 175    44 155 175    46 157 177    48 159 179    47 158 178    49 160 180    47 158 178    42 153 173    42 153 173    46 157 177    46 157 177    41 152 172    43 154 173    42 153 172    41 152 172    42 153 173    40 152 172    38 150 170    34 146 166    30 142 162  
  53 160 180    51 158 178    53 161 181    47 155 175    45 154 175    50 159 180    50 159 180    44 153 174    45 154 175    50 159 180    42 155 175    48 160 180    46 158 178    44 156 176    48 160 180    43 156 176    37 149 169    40 152 172    40 152 172    43 155 175    45 157 177    44 156 176    45 156 176    45 156 176    40 152 172    34 146 166    39 150 170    40 152 172    41 153 173    42 154 174    42 154 174    43 155 175    44 156 176    46 158 178    42 154 174    47 159 179    46 158 178    41 153 173    40 152 172    45 157 177    45 157 177    40 152 172    44 155 175    41 152 172    36 148 168    35 147 167    36 148 168    37 149 169    34 148 168    31 145 166  
  52 159 179    51 158 178    49 158 178    46 155 175    45 154 175    47 156 177    47 156 177    45 154 175    45 154 175    47 158 178    35 148 168    43 155 175    42 154 174    41 153 173    44 156 176    40 152 172    35 147 167    38 150 170    45 157 177    46 158 178    43 155 175    38 150 170    39 151 171    42 154 174    41 153 173    38 150 170    41 153 173    41 153 173    42 154 174    42 154 174    43 155 175    44 156 176    45 157 177    45 157 177    41 153 173    44 156 176    45 157 177    42 154 174    41 153 173    42 154 174    43 155 175    42 154 174    40 152 172    35 147 167    31 143 163    32 144 164    36 148 168    39 151 171    36 151 172    34 149 170  
  56 163 183    55 162 182    45 154 175    46 155 176    46 155 176    43 152 173    43 152 173    45 155 175    44 155 177    42 152 175    35 147 167    41 153 173    40 152 172    38 150 170    42 154 174    40 152 172    38 150 170    45 156 176    47 159 179    47 159 179    43 155 175    40 151 171    40 153 173    45 157 177    46 158 178    44 156 176    42 154 174    42 154 174    42 154 174    44 156 176    45 157 177    46 158 178    45 157 177    44 156 176    42 154 174    41 153 173    42 154 174    43 155 175    41 153 173    36 148 168    36 149 168    39 152 172    37 149 169    33 145 165    31 143 163    33 145 165    35 150 169    35 150 169    30 145 166    25 140 161  
  53 163 183    50 159 179    47 157 177    49 161 180    49 161 180    47 159 178    45 158 177    47 159 178    45 157 177    42 155 175    41 154 174    45 158 178    41 154 175    38 151 171    39 152 173    41 154 174    41 154 174    45 158 178    44 157 177    46 158 179    46 159 179    45 157 178    45 158 178    47 160 180    47 159 180    44 157 177    43 155 175    41 153 174    43 156 176    46 158 179    47 159 179    47 159 179    44 157 177    40 153 173    44 157 177    41 154 175    40 153 174    41 154 174    37 153 172    34 147 167    31 147 166    34 149 169    35 151 170    33 148 168    31 147 166    33 149 168    34 149 169    30 146 165    22 140 160    18 135 155  
  49 161 179    41 153 171    45 157 176    44 157 175    45 159 177    49 163 181    45 161 178    38 154 172    36 152 169    39 155 173    41 156 176    42 157 178    39 154 175    35 150 171    35 150 171    39 154 175    39 154 175    35 150 171    46 161 182    46 161 182    45 160 181    43 158 179    40 155 176    39 154 175    40 155 176    42 157 178    43 155 177    38 150 172    42 154 176    46 158 180    43 155 177    45 157 179    43 158 179    36 151 172    41 156 177    42 157 178    39 155 175    35 151 171    34 151 171    37 153 173    35 152 172    32 149 169    35 153 173    31 149 169    29 147 167    29 147 167    28 146 166    24 142 162    23 142 162    26 145 165  
  45 157 177    41 153 173    40 154 173    42 156 175    42 157 175    39 154 172    34 151 169    34 151 168    37 154 171    40 157 175    43 158 179    42 157 178    39 154 175    35 150 171    34 149 170    37 152 173    37 152 173    35 150 171    40 155 176    40 155 176    40 155 176    39 154 175    37 152 173    36 151 172    37 152 173    39 154 175    40 153 175    38 150 172    42 154 176    42 154 176    36 148 170    38 151 172    44 159 180    42 157 178    32 147 168    37 152 173    38 155 175    35 152 172    32 149 169    33 151 171    35 152 172    35 152 172    29 148 168    26 145 165    25 144 164    26 145 165    25 144 164    22 141 161    22 141 161    25 144 164  
  42 154 174    40 152 172    42 157 176    48 163 182    47 162 181    37 152 171    30 147 165    34 151 169    39 156 174    38 155 173    41 156 177    39 154 175    35 150 171    33 148 169    33 148 169    34 149 170    33 148 169    32 147 168    33 148 170    35 150 171    36 151 172    36 151 172    36 151 172    36 151 172    38 153 174    40 155 176    42 157 178    42 154 176    47 159 181    48 160 182    40 152 174    40 152 174    42 157 178    39 154 175    36 151 172    40 155 177    41 158 178    37 154 174    33 150 170    32 149 169    31 148 168    30 147 167    24 143 163    21 140 160    22 141 161    25 144 164    25 144 164    24 143 163    24 144 164    28 147 167  
  35 150 169    33 148 166    40 155 174    47 162 181    45 162 180    37 154 172    33 150 168    36 153 171    39 156 174    38 155 173    38 154 175    35 151 174    33 149 172    32 148 171    32 148 171    32 148 171    30 146 169    30 146 169    30 146 169    32 148 171    34 150 173    35 151 174    36 152 175    37 153 176    39 155 178    42 156 180    41 155 179    37 151 175    39 153 177    41 155 179    35 149 173    37 151 175    37 153 176    33 148 171    39 155 178    39 155 178    35 154 176    31 150 172    29 149 171    30 149 171    25 144 166    19 138 160    25 144 166    23 142 164    23 142 164    26 145 167    27 146 168    24 143 165    24 143 164    27 145 167  
  38 153 172    39 155 174    34 150 169    34 150 169    33 150 168    31 148 167    32 149 168    35 152 170    36 153 172    37 154 174    35 151 174    33 149 172    33 149 172    36 151 175    36 152 176    33 149 172    30 147 170    30 147 170    32 148 171    34 150 173    36 152 175    37 153 176    37 153 176    36 152 175    38 154 177    39 155 178    42 157 180    35 150 173    36 151 174    36 150 174    31 146 169    35 150 173    40 156 179    38 155 177    31 148 170    31 148 170    27 146 168    24 143 165    25 145 167    27 147 168    24 144 166    18 138 160    29 149 170    26 146 168    26 146 168    28 147 169    27 146 168    23 142 164    20 140 162    23 142 164  
  32 149 169    40 157 177    36 153 173    28 145 165    23 140 160    27 144 164    30 147 167    30 147 167    31 148 168    35 151 173    31 147 170    29 145 168    31 147 170    37 153 176    38 154 177    33 149 172    29 145 168    29 145 168    36 152 175    37 153 176    39 155 178    38 154 177    37 153 176    34 150 173    34 150 173    34 150 173    37 153 176    36 152 175    42 158 181    42 158 181    32 148 171    31 147 170    36 155 177    35 154 176    23 142 164    26 145 167    26 145 167    23 142 164    21 142 163    24 145 166    26 147 168    25 146 167    25 146 167    23 144 165    24 145 166    27 148 169    27 148 169    23 144 165    22 143 164    24 145 166  
  28 147 168    28 147 168    32 150 171    31 149 171    27 145 167    23 142 163    25 143 165    30 149 170    35 152 174    34 150 173    27 145 168    30 148 172    31 149 173    30 148 172    29 147 171    28 146 170    27 145 169    25 143 167    36 154 178    41 159 183    33 151 175    29 147 171    34 152 175    30 148 172    25 143 167    31 149 172    37 155 179    35 153 177    36 155 178    37 155 179    35 153 177    34 152 176    33 152 175    30 148 172    27 147 170    28 147 171    28 147 171    25 145 168    21 143 165    20 142 164    21 143 165    23 145 167    23 143 166    22 142 165    21 141 164    18 139 162    19 139 162    21 141 165    23 143 166    23 144 167  
  28 147 169    26 145 167    27 146 168    27 145 168    26 145 167    27 146 168    28 147 169    30 149 171    33 149 172    36 152 175    31 150 174    29 148 172    30 149 173    33 152 176    31 150 174    26 145 169    25 144 168    28 147 171    31 150 174    37 156 180    29 148 172    26 145 169    34 153 177    31 150 174    25 144 169    33 152 176    29 148 172    30 149 173    31 150 174    30 149 173    29 148 172    28 147 171    29 148 172    30 149 173    28 148 172    28 148 172    27 147 171    25 145 169    22 144 167    20 142 165    20 142 165    21 143 166    25 147 169    26 146 169    22 142 166    16 136 160    15 135 159    19 139 163    21 141 165    20 140 164  
  27 147 171    28 148 172    32 152 176    26 146 170    27 146 170    34 153 177    32 150 174    22 141 165    19 138 162    24 142 167    32 152 175    26 145 169    28 147 171    37 157 180    36 154 179    24 143 167    23 142 166    32 151 175    27 146 170    32 151 175    29 148 172    28 147 171    33 152 176    31 150 174    27 146 170    32 150 174    26 145 169    26 144 169    23 143 167    23 143 167    25 145 169    26 146 170    27 147 171    26 146 170    24 147 169    26 148 171    25 147 170    23 145 168    19 144 166    19 144 166    19 144 166    22 144 167    24 146 169    24 147 169    21 143 166    15 137 160    13 135 158    16 138 161    17 139 162    15 137 160  
  25 146 170    27 148 172    27 147 172    26 146 170    26 146 170    28 147 172    26 145 170    23 142 167    21 140 165    22 141 165    27 146 171    26 144 169    28 146 171    32 151 176    31 150 175    26 145 169    24 143 168    29 147 172    26 145 170    29 147 172    31 150 174    31 149 174    30 149 173    28 147 172    26 145 170    27 146 170    28 148 172    23 142 166    18 138 162    19 139 163    24 144 168    27 147 171    23 144 168    19 139 163    21 143 167    23 146 169    23 146 169    21 143 167    18 142 165    20 145 167    20 146 168    20 145 167    18 140 164    20 142 165    18 140 163    14 136 160    13 136 159    16 138 161    17 139 162    15 137 160  
  20 142 166    20 142 166    19 139 164    24 144 169    24 144 169    19 139 164    21 139 165    29 147 173    31 149 175    27 145 171    24 142 168    28 146 172    31 149 175    28 146 172    27 145 171    29 147 173    30 148 174    27 145 171    24 142 168    24 142 168    30 148 174    32 150 176    27 145 171    27 145 171    30 148 174    27 145 171    23 143 168    26 146 171    28 148 173    26 146 171    21 143 167    19 141 165    20 142 166    23 145 169    17 141 165    22 146 170    22 146 170    18 142 166    17 141 165    20 144 168    21 147 170    20 144 168    14 137 161    18 140 164    18 140 164    16 138 162    17 139 163    20 142 166    20 142 166    18 140 164  
  19 141 165    18 140 164    24 144 169    26 146 171    25 145 170    20 140 165    21 139 165    25 143 169    26 144 170    24 142 168    24 143 168    25 145 170    27 146 171    26 145 170    25 145 170    26 146 171    28 147 173    29 149 174    21 140 166    19 138 163    28 148 173    31 150 176    23 142 168    25 144 170    32 151 177    27 147 172    22 142 167    29 149 174    35 156 180    33 154 178    24 146 170    19 141 165    23 145 169    29 150 175    15 139 163    22 145 170    22 146 170    16 140 164    15 140 163    19 145 168    20 146 169    18 142 166    14 138 162    19 141 165    20 142 165    17 139 163    16 138 162    19 141 165    17 139 163    15 137 161  
  24 146 170    25 145 170    27 147 172    21 141 166    21 141 166    25 145 170    26 144 170    22 140 166    22 140 166    27 145 171    26 146 171    18 138 163    19 139 164    25 145 170    25 145 170    19 139 164    22 142 167    33 153 178    24 144 169    20 140 165    29 149 174    32 152 177    19 139 164    21 141 166    29 149 174    23 143 168    22 142 167    21 141 166    20 141 166    23 145 169    28 150 174    27 149 173    22 144 168    16 138 162    15 139 163    22 146 170    22 146 170    15 139 163    13 139 162    19 145 168    20 146 169    16 142 165    15 139 163    20 142 166    17 141 165    15 137 161    11 135 159    13 135 158    10 133 156     6 128 152  
  30 150 174    26 145 169    26 145 169    30 149 173    17 136 160    29 148 172    34 153 177    27 146 169    30 149 173    15 134 158    25 146 170    23 145 169    21 143 167    22 144 168    24 145 169    24 146 170    25 147 171    24 146 170    18 140 164    33 155 179    35 157 181    22 144 167    14 136 160    19 142 166    21 143 167    14 136 160    23 143 168    25 145 170    25 147 171    24 146 170    21 143 167    22 144 168    23 147 171    27 151 174    25 151 174    21 147 170    19 145 168    19 144 168    13 142 164     9 137 159    11 140 162    19 146 168    15 141 164    13 137 161    12 138 161    14 138 162    13 139 162    11 135 159    10 134 158    13 137 161  
  24 143 167    19 138 162    26 145 169    30 149 173    20 139 163    26 146 170    29 148 172    24 143 167    30 150 174    23 142 166    21 143 167    22 145 168    22 145 168    21 143 167    18 140 164    18 140 164    21 143 167    24 146 170    24 146 170    21 143 167    19 141 165    18 141 165    17 139 163    15 137 161    18 140 164    22 144 168    30 150 175    27 147 172    22 144 168    21 143 167    22 144 168    23 145 169    22 146 170    22 146 170    14 140 163    13 139 162    12 139 162    14 141 164    10 140 162     5 134 156     3 132 154     4 133 155    14 140 163    10 136 159     9 135 158    10 136 159    10 137 160     9 135 158    11 135 159    14 138 162  
  27 146 170    25 144 168    19 138 162    26 145 169    26 145 169    30 149 173    28 147 171    22 141 165    26 145 169    23 143 167    23 145 169    25 147 171    24 146 170    21 143 167    15 137 161    13 135 159    16 138 162    20 142 166    28 150 174    18 140 164    16 138 162    24 146 170    22 144 168    11 133 157    10 132 156    18 140 164    28 150 174    25 147 171    21 143 167    21 143 167    21 145 169    21 145 169    20 144 168    18 142 166    19 145 168    14 140 163     9 138 160     9 138 160     9 138 160     7 136 158     6 135 157     5 134 156    10 136 159     8 134 157     8 134 157    10 136 159    11 137 160     8 134 157    11 135 159    13 137 161  
  23 143 167    24 144 169    11 131 155    17 137 161    25 145 169    27 146 171    23 142 167    20 139 164    18 137 162    18 138 163    25 147 171    24 146 170    21 143 167    18 141 165    16 138 162    15 137 161    15 137 161    16 138 162    17 139 163    18 140 164    21 143 167    26 147 171    22 144 168    15 137 161    16 137 162    20 143 167    16 139 163    18 141 165    20 144 168    21 144 168    19 143 167    17 141 165    14 140 163    13 138 162    20 146 169    15 141 164     7 136 158     6 135 156     6 136 157     8 137 159     8 137 159     6 135 157     5 131 154     5 131 153     7 133 156    11 137 160    12 138 161     9 135 158     8 132 156    10 134 158  
  19 139 164    25 145 170    23 143 168    19 139 164    26 146 171    21 141 166    20 140 165    24 144 169    20 140 165    26 146 171    20 141 165    18 140 163    16 138 162    16 138 162    19 141 165    19 142 165    19 141 164    18 140 164    17 139 164    24 146 170    26 148 172    18 140 164    12 134 158    16 138 162    22 144 169    26 148 172     7 131 155    13 137 161    19 143 167    20 144 168    17 141 165    13 137 161    10 136 159    10 136 159    11 137 160    12 138 161     9 139 161     9 137 159     9 138 159    10 139 161     7 136 158     3 132 154     3 129 152     3 129 152     7 133 156    13 139 162    13 139 162     9 135 158     8 132 156     8 132 156  
  21 143 167    29 151 175    31 153 177    20 142 166    24 146 170    17 139 164    21 143 167    30 152 176    20 142 166    25 147 171    11 135 161    13 137 163    14 138 164    15 139 165    14 139 164    14 138 164    14 138 164    14 139 164    20 144 170    22 146 172    19 143 169    11 135 161     8 131 158    11 135 161    17 141 167    18 142 168    12 138 163    13 139 164    14 141 166    15 142 167    14 140 165    12 138 163     9 135 160     8 134 159     7 133 158    12 138 163    12 139 164     9 137 162     8 136 161     9 137 162     9 137 162     6 134 159     7 133 156     5 131 154     7 133 156    11 137 160    11 137 160     8 134 157     8 132 156    10 134 158  
  18 139 164    25 147 172    24 146 171    14 136 161    18 140 165    14 135 161    19 141 165    26 148 173    14 136 161    13 135 160    13 137 163    15 139 165    18 142 168    16 140 166    12 136 162    10 134 160    12 136 162    14 138 164    13 137 163    12 136 162    11 136 161    12 136 162    13 137 163    15 139 165    15 140 165    15 139 165    15 142 167    12 139 164    10 136 161     9 136 161    10 137 162    10 137 162     8 134 159     5 132 157     7 133 158     9 136 161     7 135 160     3 131 156     2 130 155     6 134 159    10 137 162    10 138 163     9 135 158     8 134 157     8 134 157     9 135 158     8 134 157     7 133 155     8 132 156    10 134 158  
  12 133 160    15 136 163    18 139 166    18 139 166    16 137 164    15 136 163    18 139 166    21 142 169    19 140 167    13 134 161    16 140 166    16 140 166    16 140 166    13 137 163    11 135 161    13 137 163    18 142 168    22 146 172    10 134 160    12 136 162    13 137 163    14 138 164    17 141 167    20 144 170    17 141 167    11 136 162     8 135 160     5 133 158     5 133 158     5 133 158     7 135 160     8 136 161     8 136 161     8 136 161     6 134 159     6 134 159     6 134 159     6 134 159     7 135 160     8 136 161    10 136 161    11 137 162     6 132 155    11 137 160    14 140 163    12 138 161     8 134 157     8 134 157     8 132 156     6 130 154  
  10 133 159    12 135 161     9 132 158    11 135 161    13 136 162    13 137 163    17 140 167    20 143 169    16 139 166    10 133 160    11 136 163    11 136 163    11 136 163    10 134 162     9 134 161    11 135 163    15 140 167    17 142 170     5 130 157    10 134 162    12 137 164    14 139 166    17 142 170    20 145 172    17 141 169    11 136 164     5 133 159     3 133 158     2 132 158     3 132 158     4 134 160     6 135 161     6 135 161     5 135 160     5 133 159     5 133 159     5 133 159     5 133 159     7 132 160     7 133 160     7 133 160     8 134 159     3 129 152    10 136 159    15 141 164    14 140 163    10 137 160    10 135 159     8 132 156     5 129 153  
  13 137 163    14 138 164     9 133 159    11 135 161    12 136 162    12 136 162    13 137 163    15 139 165    12 136 162     7 131 157    14 139 167    14 139 167    13 138 166    12 137 164    11 136 164    11 136 164    12 137 165    13 138 166     7 132 160    11 136 164    12 137 165    11 136 164    11 136 165    13 138 165    10 135 163     4 131 158     5 135 161     3 133 159     1 131 157     1 130 156     1 130 156     1 131 157     1 130 156     1 129 155     4 132 159     4 132 159     4 132 159     4 132 159     6 131 159     6 131 159     5 130 158     5 130 158     1 127 150     8 134 157    12 138 161    10 136 159     8 134 157     7 133 156     7 131 155     5 129 153  
   9 135 160     8 134 159     8 134 159    10 136 161    10 136 161     8 134 159     9 135 160    11 137 162    11 137 162     8 134 159    14 139 167    13 138 166    12 137 165    12 137 165    12 137 165    12 137 165    11 136 164    10 135 163    12 137 165    14 139 167    12 137 165     7 132 160     5 130 158     7 132 160     7 132 160     3 130 158     2 132 158     1 132 157     1 131 156     1 133 158     3 135 160     5 137 162     7 137 163     7 137 163     2 130 157     3 131 158     4 132 159     4 132 159     6 131 159     5 130 158     4 129 157     4 129 157     3 129 152     8 134 157    10 136 159     7 133 156     5 131 154     6 132 155     8 132 156     7 131 155  
  11 137 162     9 135 160     5 131 156     8 134 159     8 135 160     7 133 158     7 133 158    11 137 162    12 138 163    10 136 161     9 134 162     8 133 161     8 133 161    10 135 163    12 137 165    12 137 165    10 135 163     8 133 161    11 136 164    12 137 165    10 135 164     6 131 159     4 129 157     7 132 160    10 135 163     8 136 163     3 134 160     1 133 158     1 132 157     1 132 157     1 133 158     2 134 159     3 132 158     3 132 158     1 129 155     2 130 157     3 131 158     4 132 159     6 131 159     6 131 159     4 129 157     4 129 157     7 133 155    11 137 160    12 138 161     7 133 156     5 131 154     6 132 155     9 133 157     9 133 157  
   9 135 160     6 131 158     5 131 156    10 135 162    12 138 163    11 136 163    10 136 161    11 136 163     9 135 160     7 132 159    10 135 163     9 134 162     8 133 161    10 135 163    12 137 165    11 136 164     8 133 161     4 129 157     7 132 160    10 135 163    10 135 163     6 131 159     4 129 157     5 130 158     7 132 160     6 134 161     4 135 160     1 134 159     1 133 158     2 132 158     3 134 159     4 134 160     4 133 159     4 132 159     1 128 155     2 129 156     3 131 158     6 133 160     8 133 161     7 132 160     6 131 159     5 131 157     5 131 155    10 136 159    12 138 161     9 135 158     5 131 154     6 131 155     7 131 155     5 129 153  
   3 128 155     7 132 161     5 131 158     7 132 161    10 136 163    14 139 168    13 139 166     8 133 163     5 130 157     5 130 158    12 137 165    10 135 164     9 134 162     8 133 161     7 132 160     7 132 160     8 133 161     9 134 162     6 131 159     7 132 161     7 132 160     5 130 159     6 131 159     7 132 160     9 134 162     9 135 163     5 134 162     4 134 161     4 134 161     4 132 160     3 131 160     3 131 159     3 132 160     6 132 161     6 131 159     6 130 158     4 130 157     4 128 156     4 128 155     4 128 155     5 129 155     4 129 155     3 127 153     5 130 155     7 132 157     6 131 156     4 129 154     3 127 152     1 125 151     1 123 150  
   5 130 160    13 138 168    14 139 169     9 134 164     7 132 162     8 133 163     7 132 162     5 130 160     6 131 160    10 135 165     5 130 159     7 132 160    10 135 163     9 134 163     9 134 162     7 132 160     6 131 159     6 131 160    10 135 164     9 134 163     9 134 162     7 132 160     6 131 159     6 131 159     6 131 159     6 131 160     2 130 159     2 129 161     2 130 159     1 129 158     1 126 156     1 125 155     1 126 156     2 127 157    10 134 162     8 132 160     5 129 157     2 126 154     1 125 151     1 124 150     2 123 150     2 123 150     7 130 157     6 130 156     6 130 156     5 129 155     4 128 154     4 128 154     4 126 153     4 125 152  
   8 133 163    15 140 170    16 141 171    10 135 165     5 130 160     3 128 158     1 126 156     2 127 157     6 131 161     9 134 164     3 128 156     5 130 158     7 132 160     7 132 160     6 131 159     6 131 159     5 130 158     5 130 158    11 136 164    10 135 163     9 134 162     7 132 160     5 130 158     4 129 157     4 129 157     4 129 157     4 129 159     5 130 160     5 130 160     4 129 159     3 128 158     3 128 158     5 129 157     6 130 158     2 126 154     2 126 154     3 124 151     2 123 150     3 124 151     4 125 152     6 127 154     7 128 155     8 132 158     7 131 157     5 129 155     3 127 153     4 125 152     5 126 153     6 127 154     7 128 155  
   7 132 162     9 134 164     5 130 160     5 130 160     5 130 160     5 130 160     5 130 160     4 129 159     3 128 158     4 129 159     7 132 160     6 131 159     5 130 158     3 128 156     2 127 155     4 129 157     7 132 160    11 136 164     5 130 158     5 130 158     5 130 158     5 130 159     6 131 159     6 131 159     6 131 159     6 131 159     3 128 158     4 129 159     5 130 160     4 129 159     4 128 158     4 129 159     6 130 158     8 132 160     3 126 154     3 126 154     3 124 151     4 125 152     4 125 152     5 126 153     6 127 154     7 128 154     4 127 154     4 127 153     3 126 153     4 125 152     3 125 151     4 125 152     4 125 152     5 125 152  
   7 132 162     3 128 158     4 129 159     5 130 160     5 130 160     5 130 160     5 130 160     7 132 162     7 132 162     6 131 161     5 130 158     5 130 158     6 131 159     5 130 158     4 129 157     5 130 158     7 132 160     8 133 161     4 129 157     4 129 157     5 130 158     5 130 158     6 131 159     5 130 158     5 130 158     5 130 158     2 127 157     3 128 158     3 128 158     4 128 158     3 126 157     4 127 158     5 129 157     8 131 159     9 130 159     9 130 159     7 128 155     6 127 154     6 126 153     5 125 152     4 124 151     3 123 150     3 124 151     4 124 151     5 126 153     6 127 154     6 127 154     6 126 153     4 124 151     4 123 150  
  11 134 165     1 125 155     5 128 159     7 130 161     5 129 160     2 126 156     2 126 157     6 130 161     8 132 162     7 131 161     2 126 154     4 128 156     7 131 159     7 131 159     6 130 158     4 128 156     3 128 156     3 128 156     5 129 157     5 129 157     5 130 158     5 130 158     5 129 157     4 128 156     2 126 155     1 126 154     3 127 158     4 127 158     4 129 157     4 128 156     3 127 156     5 126 156     6 128 157     8 129 158     4 125 153     5 125 153     6 126 153     5 126 152     6 126 151     5 125 151     6 125 151     6 124 150     3 121 149     4 122 150     3 124 151     6 124 152     6 124 152     5 124 151     4 122 150     5 121 150  
  13 136 167     1 123 154     1 123 154     4 127 158     5 128 159     2 125 156     2 125 156     4 127 158     3 126 157     1 122 153     5 129 157     5 129 157     3 127 155     1 125 153     1 124 152     1 124 152     3 127 155     6 129 158     3 127 155     4 128 156     5 129 157     5 129 157     5 129 157     4 128 156     3 127 155     2 126 154     1 122 153     1 123 154     1 124 152     2 123 152     1 121 150     1 121 150     2 123 152     4 123 153     6 126 153     6 126 153     6 126 153     5 125 152     4 124 149     4 122 148     2 120 146     1 120 145     3 121 149     2 120 148     1 119 147     1 118 146     1 118 146     3 118 147     5 120 149     6 121 150  
   3 126 157     1 123 154     6 129 160     7 130 161     8 131 162     8 131 162     7 130 161     5 128 159     2 125 156     1 123 154     3 127 155     3 127 155     3 127 155     3 127 154     2 126 154     2 126 154     3 127 155     4 128 156     2 126 154     5 129 157     5 129 157     1 125 153     1 125 153     4 128 156     4 128 156     1 124 152     2 123 152     4 125 154     6 127 156     8 129 158     7 128 157     6 125 155     3 123 150     1 121 148     6 125 153     3 121 149     4 122 148     7 124 151     6 124 150     2 120 146     1 119 145     6 121 148    11 126 153     8 123 150     4 119 146     3 118 145     4 119 146     5 119 146     3 117 144     1 114 141  
   3 126 157     4 127 158     6 128 159     6 129 160     7 129 160     7 129 160     6 129 160     5 128 159     3 125 156     2 125 156     2 126 154     2 126 154     2 125 153     1 125 153     1 125 153     1 125 153     2 126 154     3 126 155     4 127 155     7 130 158     7 130 158     3 127 155     2 126 154     3 126 155     2 126 154     1 121 150     1 122 151     3 123 152     4 124 153     5 125 154     5 125 154     4 123 152     2 122 149     1 121 148     4 122 149     2 120 147     2 119 145     4 121 148     4 122 147     1 118 144     1 116 143     3 119 145     6 120 147     5 120 147     4 119 146     6 119 146     6 119 146     5 118 145     5 118 145     4 117 145  
   5 126 157     8 129 160     7 128 159     7 128 159     7 128 159     7 128 159     7 128 159     6 127 158     6 127 158     6 127 158     7 128 157     7 128 157     6 127 156     6 127 156     6 127 156     6 127 156     7 128 157     7 128 157     1 122 151     4 125 154     5 126 155     5 126 155     6 127 156     7 128 157     7 128 157     5 126 155     2 122 152     3 122 152     3 123 150     3 123 150     4 123 150     4 122 150     4 122 150     4 122 150     3 121 147     3 120 146     4 119 146     5 120 147     5 121 146     3 119 144     2 118 143     3 118 143     2 116 143     5 117 145     7 119 147     8 119 147     7 118 146     6 117 145     7 118 146     9 119 147  
   5 127 158     5 126 157     5 126 156     5 126 157     5 126 157     5 126 157     5 126 157     6 127 158     6 127 158     6 127 158     6 127 156     4 125 154     3 124 153     3 124 153     5 126 155     6 126 156     5 126 155     4 125 154     6 127 155     5 126 155     6 127 156     5 127 155     5 126 155     3 124 153     2 122 151     1 121 150     4 123 151     4 123 151     3 122 150     3 121 149     3 121 149     3 121 149     5 121 148     5 121 148     3 119 146     4 119 146     4 120 146     5 119 146     4 119 145     4 118 144     3 117 143     2 116 142     1 114 140     5 117 144     8 119 146     9 119 146     6 116 143     5 115 142     5 116 143     7 117 145  
   5 126 157     2 123 154     3 124 155     4 125 156     5 126 157     5 126 157     5 126 157     5 126 157     5 126 157     4 125 156     6 127 156     3 124 153     1 122 151     2 123 152     4 125 154     5 126 155     4 125 154     2 123 152     7 128 157     4 125 154     3 124 153     4 125 154     2 123 152     1 120 149     1 119 148     1 120 150     5 125 152     5 123 151     4 122 150     3 121 149     3 121 149     3 121 149     5 120 147     5 120 147     1 115 142     2 117 144     3 117 143     1 115 141     1 115 141     2 116 142     1 115 141     1 111 138     4 116 143     6 117 144     8 118 145     7 117 144     6 116 143     4 114 141     4 114 141     5 115 142  
   3 124 155     2 123 154     2 123 154     3 124 155     5 126 157     6 127 158     6 127 158     5 126 157     3 124 155     2 123 154     7 129 157     4 124 154     2 122 152     2 122 152     4 126 154     7 127 157     4 126 154     3 123 152     2 123 152     1 119 148     1 119 148     1 121 150     1 122 151     1 119 149     1 122 150     6 124 154     4 124 151     5 123 151     4 122 150     3 121 149     4 119 148     3 118 147     2 117 144     2 117 144     1 114 141     3 117 144     3 117 143     1 114 140     1 114 140     2 116 142     3 114 141     1 110 137     6 117 144     6 116 143     4 114 141     4 114 141     5 115 142     6 116 143     6 114 142     6 114 142  
   2 123 154     4 125 155     2 123 153     3 124 154     4 125 155     5 126 156     5 126 157     5 126 157     3 124 155     3 124 154     4 124 153     2 121 150     1 120 148     1 120 149     2 123 151     4 123 152     2 122 151     1 119 148     4 124 152     1 120 149     1 120 148     1 120 149     1 120 148     1 117 146     1 118 147     2 120 150     4 122 150     5 122 150     4 121 149     5 119 148     3 118 146     1 116 145     1 115 142     1 115 141     2 116 143     5 118 145     4 117 144     2 115 141     2 115 140     4 115 141     4 114 141     2 112 139     6 116 143     4 113 140     2 112 139     2 112 139     5 114 141     6 115 143     7 115 143     5 114 142  
   4 125 154     5 126 155     2 123 152     2 123 152     2 123 152     3 124 153     3 124 153     4 125 154     4 125 154     5 125 155     4 123 150     4 122 150     4 123 150     4 122 150     4 123 150     4 122 150     3 122 149     3 121 149     2 120 147     2 120 148     3 122 149     4 122 150     3 122 150     2 120 148     1 119 147     1 118 146     4 120 149     5 120 149     4 119 146     4 118 145     3 117 144     3 117 144     2 116 143     2 116 143     7 120 146     5 116 143     4 115 142     5 116 143     4 115 140     2 112 137     2 112 137     5 115 140     4 113 141     6 112 141     4 112 140     5 111 140     4 112 140     5 111 140     5 113 141     6 112 141  
   5 124 154     6 126 155     4 124 153     4 124 153     5 124 154     5 124 154     4 123 153     2 122 152     2 121 151     1 120 150     4 122 150     4 122 150     3 121 149     3 121 149     3 121 149     4 122 150     5 123 150     5 123 151     6 124 152     4 122 150     2 121 148     2 121 148     4 122 150     3 121 149     1 119 147     1 117 145     2 117 146     2 116 145     2 116 143     3 117 144     3 117 144     4 118 145     5 117 145     4 116 144     7 118 146     4 115 142     4 114 141     5 115 142     4 114 139     1 111 136     1 111 136     4 112 138     7 113 142     8 112 141     5 111 140     6 110 139     4 110 139     5 110 139     5 111 139     6 110 139  
   4 123 153     5 124 154     3 122 152     4 123 153     5 124 154     6 125 155     6 125 155     5 124 154     4 123 153     3 122 152     5 123 151     4 122 150     2 120 148     1 119 147     1 119 147     2 120 148     3 121 149     4 122 150     4 122 150     1 118 146     1 115 143     1 116 144     1 118 146     1 119 147     1 117 145     1 114 143     4 117 147     3 116 146     2 116 143     3 117 144     5 119 146     7 121 148     8 119 147     6 117 145     3 114 141     1 111 138     1 111 138     4 114 141     4 114 139     3 113 138     3 113 138     7 115 142     7 111 140     9 110 140     6 110 139     8 109 139     6 110 139     8 109 139     7 111 140     9 110 140  
