P3
50 50
255
   5 110 131     5 111 131     4 112 132     4 114 133     1 110 129     3 114 134     4 114 134     1 110 131     4 113 134     1 109 130     2 111 132     6 115 136     4 113 134     4 113 134     6 115 138     9 115 139     7 117 139     2 113 136     4 115 138     1 113 135     1 112 133     1 115 136     2 117 138     5 118 139     1 113 135     1 111 134     3 113 136     1 113 135     1 113 135     5 117 139     2 114 134     2 114 134     5 117 137     7 119 139     6 118 138     1 114 134     1 112 131     2 117 136     1 115 133     1 114 132     3 120 138     3 120 138     2 121 138     1 122 140     1 123 144     3 125 146     4 126 147     5 127 148     3 128 148     2 127 147  
   6 111 132     5 110 131     4 111 131     4 112 133     1 109 130     3 112 133     3 112 133     1 110 131     5 114 135     2 111 132     1 108 130     5 114 135     3 112 133     3 112 133     5 114 135     5 114 135     6 116 137     4 115 137     4 116 138     1 113 135     1 112 134     1 113 135     2 114 136     1 113 135     2 114 136     3 115 137     4 116 138     5 117 139     5 117 139     6 118 140     4 116 136     3 115 135     5 117 137     7 119 139     7 119 139     2 117 136     1 115 134     3 118 137     1 117 136     1 118 136     8 125 143    10 127 145     9 127 146     3 124 144     1 123 144     2 124 145     4 126 147     5 127 148     3 128 148     3 128 148  
   5 112 132     4 110 130     3 110 130     3 111 132     1 109 130     2 111 132     2 111 132     1 110 131     5 114 135     4 113 134     1 105 126     2 111 132     1 110 131     2 111 132     4 113 134     3 112 133     4 116 136     5 117 139     3 116 137     1 112 134     1 113 135     3 115 137     2 114 136     1 111 132     4 115 137     7 119 141     6 118 140     9 121 143    10 122 144     5 117 139     5 117 137     5 117 137     6 118 138     5 119 139     5 120 139     4 119 138     3 118 137     6 123 141     5 121 140     4 121 139     9 126 144     9 127 145     9 129 146     3 124 143     1 123 144     2 124 145     4 126 147     5 127 148     4 128 149     4 129 149  
   3 110 130     3 110 130     3 110 130     2 110 131     1 110 131     1 110 131     1 110 131     2 111 132     5 114 135     6 115 136     1 105 125     2 111 132     2 111 132     3 112 133     4 113 134     3 112 133     4 113 135     4 115 138     1 113 136     1 112 134     2 114 136     5 117 139     3 115 137     1 111 133     5 117 139     8 120 142     4 116 138     9 121 143    11 123 145     5 117 139     5 117 137     5 117 137     5 117 137     4 118 138     4 119 138     4 119 138     5 120 139     8 125 143     6 123 141     3 120 138     6 123 141     4 122 139     3 122 141     2 122 143     1 123 144     2 124 145     3 126 146     6 128 149     5 129 150     5 130 150  
   1 108 128     2 110 130     3 112 132     2 111 131     2 111 132     1 110 131     1 110 131     3 112 133     4 113 134     6 115 136     1 108 128     4 113 134     4 113 134     4 113 134     5 114 135     3 112 133     3 115 135     2 114 136     1 112 135     1 111 133     3 115 137     7 119 141     6 118 140     2 114 136     7 119 141     7 119 141     1 113 135     6 118 140     9 121 143     3 115 137     4 116 136     3 116 136     2 117 136     2 117 136     3 118 137     4 119 138     5 120 139     7 124 142     6 123 141     3 120 138     3 123 140     1 120 138     1 122 139     1 124 141     1 123 144     2 124 145     3 126 146     6 128 149     5 129 150     6 131 151  
   1 108 128     2 110 130     4 113 133     1 110 131     3 112 133     1 110 131     2 111 132     5 114 135     2 111 132     4 114 134     2 111 132     7 116 137     6 115 136     5 114 135     5 114 135     4 113 134     3 114 135     2 114 136     1 113 135     1 112 134     2 114 136     6 118 140     6 118 140     3 116 137     6 118 139     4 117 139     1 113 135     3 115 137     5 118 140     2 114 136     2 114 134     3 116 135     2 117 136     2 117 136     2 117 136     4 119 138     4 120 139     5 122 140     6 122 141     4 121 139     5 125 142     4 124 141     7 127 145     4 124 145     1 123 144     2 124 145     3 126 146     6 128 149     6 130 150     7 132 152  
   4 111 131     3 111 131     2 111 131     1 110 130     3 113 133     1 112 132     1 112 132     4 115 135     1 110 130     2 112 132     4 115 135     8 119 139     5 116 136     3 114 134     3 114 134     2 113 133     4 115 136     4 116 138     5 117 139     2 114 136     1 113 135     3 115 137     4 116 138     2 114 136     2 114 136     3 115 137     5 117 139     5 117 139     4 116 138     4 116 138     1 115 136     2 117 138     4 119 140     3 118 139     3 118 139     3 120 140     4 121 141     4 121 141     4 122 142     2 121 141     4 123 143     4 123 143     7 127 147     3 125 145     1 123 144     2 124 145     3 126 146     6 128 149     7 131 151     8 133 153  
   8 115 135     4 112 132     1 109 129     1 109 129     4 114 134     2 113 133     3 114 134     5 116 136     1 110 130     1 112 132     6 117 137     9 120 140     5 116 136     2 113 133     2 113 133     1 112 132     3 115 135     7 119 141     8 120 142     3 115 137     1 112 134     1 112 135     2 114 136     1 111 133     1 110 132     3 115 137     9 121 143     8 120 142     4 116 138     5 117 139     1 115 136     4 119 140     6 121 142     5 120 141     5 120 141     5 122 142     5 122 142     4 121 141     4 122 142     1 120 140     2 121 141     1 119 139     3 123 143     2 124 144     1 123 144     2 124 145     3 125 146     6 128 149     7 131 151     9 134 154  
   5 114 134     4 114 134     1 110 129     1 111 131     1 111 131     2 113 133     1 112 132     1 110 130     1 112 132     1 112 132     1 110 130     3 114 134     5 116 136     4 115 135     3 114 134     3 114 134     3 114 135     2 114 136     3 115 137     1 112 134     1 112 134     2 114 135     1 112 134     2 114 136     3 115 137     3 115 137     3 115 137     3 115 137     3 115 137     4 116 138     7 122 143     7 123 143     3 120 140     1 116 136     1 118 138     3 120 140     4 122 142     5 124 144     4 123 143     3 122 142     2 123 142     2 123 142     4 125 144     2 123 144     3 125 146     3 125 146     1 123 144     3 125 146     6 130 151     9 134 154  
   4 113 133     3 113 132     1 112 131     2 113 132     1 111 131     2 113 133     1 112 132     1 110 130     3 114 134     3 114 134     1 112 132     3 114 134     4 115 135     3 114 134     3 114 134     4 115 135     4 115 136     3 115 137     4 116 138     2 114 136     1 113 135     3 115 137     2 114 136     4 116 138     4 116 138     4 116 138     4 116 138     4 116 138     4 116 138     3 115 137     4 119 140     5 121 142     4 121 141     1 118 138     3 120 140     5 122 142     5 122 142     4 123 143     6 125 145     5 124 144     1 121 140     1 121 140     5 126 145     5 126 147     5 127 148     6 128 149     6 128 149     7 129 150     3 127 147     1 121 141  
   4 113 133     1 111 130     3 114 133     2 114 134     1 111 131     1 113 133     1 113 133     1 111 131     3 115 135     3 115 135     2 114 134     2 114 134     3 115 135     2 114 134     2 114 134     3 115 135     4 116 137     4 116 138     5 117 139     3 115 137     2 114 136     4 116 138     3 115 137     5 117 139     5 117 139     3 115 137     4 116 138     5 117 139     3 116 137     1 113 135     2 117 138     4 121 141     4 121 141     3 120 140     5 122 142     5 124 144     3 122 142     3 122 142     7 127 147     5 126 145     1 120 139     1 120 139     6 127 146     7 129 149     6 128 149     5 127 148     6 128 149     9 131 152     3 127 148     1 120 140  
   5 114 134     1 110 130     4 114 133     3 114 134     1 111 131     1 113 133     1 113 133     1 112 132     4 116 136     5 117 137     4 116 136     3 115 135     2 114 134     1 113 133     2 114 134     3 115 135     4 116 137     4 116 138     5 117 139     3 115 137     2 114 136     4 115 138     2 114 136     4 116 138     4 116 138     2 114 136     3 116 137     5 117 139     3 115 137     1 111 133     1 115 136     3 121 141     5 122 142     3 120 140     5 122 142     3 122 142     2 121 141     4 123 143     5 126 145     4 125 144     1 122 141     1 122 141     6 127 146     7 129 149     5 127 148     1 123 144     1 123 144     7 129 150     8 132 153     5 130 150  
   7 118 137     1 111 130     3 114 133     2 114 134     1 111 131     2 114 134     2 114 134     1 113 133     5 117 137     5 117 137     4 116 136     3 115 135     2 114 134     1 113 133     2 114 134     3 115 135     3 115 135     3 115 137     4 116 138     2 114 136     1 113 135     3 115 137     2 114 136     3 115 137     2 114 136     2 114 136     3 115 137     4 116 138     2 114 136     1 111 132     1 115 138     3 120 142     4 120 143     1 119 141     1 120 142     1 119 141     1 120 142     4 125 146     2 123 144     2 123 144     3 124 145     5 126 147     4 126 147     2 125 146     3 125 146     3 125 146     1 123 145     5 127 148     8 132 153    10 135 155  
   7 118 137     3 114 133     3 114 133     3 115 134     1 112 132     2 114 134     2 114 134     1 112 132     4 116 136     4 116 136     4 116 136     2 114 134     1 113 133     2 114 134     2 114 134     2 114 134     1 113 134     3 115 137     3 115 137     1 113 135     1 113 135     2 114 136     1 113 135     1 112 134     1 113 135     3 115 137     4 116 138     4 116 138     2 114 136     1 113 135     1 115 139     3 120 142     4 120 143     1 119 141     1 119 141     1 119 141     2 121 142     4 125 146     1 121 142     1 122 143     5 126 147     6 128 149     4 126 147     1 121 142     3 124 145     7 129 150     7 129 150     7 129 150     6 130 150     4 129 149  
   3 114 133     4 116 135     4 117 135     2 115 134     1 112 132     2 114 134     2 114 134     1 112 132     3 115 135     3 115 135     3 115 135     2 114 134     1 113 133     2 114 134     2 114 134     1 112 132     1 111 132     4 116 138     5 117 139     2 114 136     2 114 136     4 115 138     2 114 136     1 111 133     2 114 135     6 118 140     5 118 140     4 116 138     4 115 138     3 118 139     1 116 139     3 120 142     2 121 143     1 120 142     2 121 143     3 122 144     3 123 145     4 125 146     2 123 144     2 123 144     3 125 146     5 127 148     5 127 148     1 123 144     3 124 146     5 127 148     6 128 149     8 130 151     5 129 150     1 125 145  
   1 111 130     5 118 136     6 119 138     4 116 136     1 113 133     3 115 135     1 113 133     1 111 131     2 114 134     2 114 134     2 114 134     1 113 133     1 113 133     2 114 134     2 114 134     1 111 131     1 111 132     5 117 139     6 118 140     4 116 138     3 115 137     5 117 139     4 116 138     1 111 133     3 114 136     8 120 142     8 120 142     5 117 139     5 117 139     7 122 143     1 116 139     3 120 142     3 122 144     2 121 143     4 124 146     7 126 148     5 125 147     3 124 145     4 125 145     4 125 146     2 124 145     3 125 146     7 129 150     6 128 150     3 125 146     1 121 142     1 121 142     6 128 149     7 132 152     4 129 149  
   4 116 136     2 117 135     2 117 136     1 113 133     1 112 134     4 116 138     2 114 136     2 114 136     6 118 140     4 116 138     2 114 136     2 114 136     2 114 136     2 114 136     2 114 136     2 114 136     2 114 135     3 114 134     3 114 134     4 115 135     5 116 136     5 117 137     6 118 138     5 119 139     1 115 133     1 112 131     2 117 136     4 120 138     1 117 136     1 117 137     2 118 141     1 120 142     1 119 141     1 118 140     2 121 143     2 123 144     1 122 143     2 123 144     1 121 141     1 120 141     1 123 144     5 126 147     7 129 150     4 128 150     4 129 151     4 129 151     2 127 149     1 126 148     1 125 148     1 126 148  
   3 118 137     2 118 137     2 118 136     1 114 135     2 114 136     5 117 139     3 115 137     3 115 137     6 118 140     4 116 138     3 115 137     3 115 137     3 115 137     3 115 137     3 115 137     3 115 137     4 116 137     7 117 137     6 117 137     5 116 136     5 116 136     3 115 135     2 114 134     3 117 137     1 114 133     1 113 132     2 118 137     3 120 138     1 118 136     2 119 139     2 121 143     4 123 145     2 121 143     1 120 142     4 123 144     4 125 146     3 124 145     3 124 145     1 122 143     1 122 143     2 124 145     3 125 146     4 126 147     1 125 147     1 126 148     2 127 149     2 127 149     1 126 148     2 127 149     3 128 150  
   3 118 137     3 119 138     1 118 136     1 116 136     3 115 137     6 118 140     5 117 139     3 115 137     6 118 140     3 115 137     4 116 138     4 116 138     4 116 138     4 116 138     4 116 138     4 116 138     4 116 137     6 117 137     7 118 138     7 118 138     5 117 137     3 115 135     1 113 133     1 115 135     1 115 134     1 115 134     3 118 137     3 120 138     3 120 138     5 122 140     2 121 141     3 122 144     1 120 142     1 120 142     3 122 144     4 125 146     3 124 145     5 126 147     2 124 145     2 124 145     3 125 146     4 125 147     3 125 146     1 123 145     1 125 147     1 126 148     1 126 148     1 126 148     2 127 149     4 129 151  
   2 117 136     3 119 137     1 117 135     1 117 137     4 116 138     8 120 142     5 117 139     3 115 137     5 117 139     3 115 137     5 117 139     5 117 139     5 117 139     5 117 139     5 117 139     5 117 139     4 116 137     3 114 134     4 115 135     7 118 138     7 119 139     5 117 137     4 116 136     1 115 134     1 116 135     2 117 136     4 119 138     3 120 138     4 121 139     7 124 144     1 118 140     1 119 141     1 118 140     1 117 139     1 119 142     1 122 143     1 122 143     3 124 145     2 124 145     3 125 146     5 127 148     4 126 147     3 125 146     1 125 146     1 126 148     2 127 149     2 127 149     2 127 149     3 128 150     4 129 151  
   1 116 135     1 117 135     1 117 135     1 117 137     2 117 138     6 121 142     4 119 140     2 117 138     4 119 140     1 115 136     4 119 140     4 119 140     4 119 140     4 119 140     4 119 140     4 119 140     3 117 138     3 115 135     4 116 136     7 119 139     7 119 139     5 118 137     2 117 136     1 115 134     2 117 136     3 118 137     3 118 137     4 121 139     5 122 140     6 123 141     1 118 138     1 119 141     1 118 140     1 117 139     1 119 142     1 122 143     1 121 142     1 122 143     1 123 144     3 125 146     6 128 149     5 128 149     5 127 148     3 127 149     4 129 151     5 130 152     3 128 150     2 127 149     2 127 149     3 128 150  
   1 116 135     1 116 135     1 117 135     1 116 135     1 116 137     6 121 142     5 120 141     3 118 139     4 119 140     1 116 137     4 119 140     4 119 140     4 119 140     4 119 140     4 119 140     4 119 140     5 119 139     7 119 139     7 119 139     7 119 139     5 117 137     2 115 134     1 114 133     1 115 134     3 118 137     3 118 137     2 117 136     4 121 139     5 123 140     4 121 141     2 121 143     3 122 144     1 120 142     1 120 142     3 122 144     4 125 146     1 122 143     1 121 142     1 122 143     3 124 146     5 127 148     6 128 149     5 127 148     4 128 150     5 130 152     5 130 152     3 128 150     2 127 149     1 126 148     2 127 149  
   1 118 138     1 117 137     3 120 140     1 115 136     1 115 136     5 120 141     4 119 140     3 118 139     5 120 140     1 116 137     3 118 139     3 118 139     3 118 139     3 118 139     3 118 139     3 118 139     4 119 140     6 121 142     5 120 141     4 119 140     3 118 139     1 115 137     1 115 136     1 116 137     3 118 139     2 117 138     1 117 137     4 121 141     5 122 142     1 118 138     2 121 143     4 123 145     2 121 143     1 120 142     4 123 144     4 125 146     3 124 145     2 123 144     1 122 143     2 124 145     4 126 147     5 127 148     4 126 147     1 125 147     2 127 149     3 128 150     2 127 149     1 126 148     1 126 148     2 127 149  
   2 119 139     1 118 138     5 122 142     2 115 136     1 114 135     4 119 140     4 119 140     3 118 139     5 120 141     1 116 137     2 117 138     2 117 138     2 117 138     2 117 138     2 117 138     2 117 138     2 117 138     4 119 140     3 118 139     3 118 139     3 118 139     3 118 139     3 118 139     4 119 140     4 119 140     1 116 137     1 116 137     5 122 142     6 122 142     1 115 135     1 119 141     1 120 142     1 119 141     1 118 140     2 121 143     2 123 144     2 123 144     4 125 146     1 123 144     1 123 144     2 124 145     3 125 145     2 124 145     1 123 145     1 124 146     1 126 148     1 125 148     1 125 147     1 126 148     3 128 150  
   5 122 142     1 117 137     3 120 140     2 118 138     1 118 138     1 118 138     1 116 136     1 117 137     1 118 138     1 116 136     2 119 139     3 120 140     3 120 140     1 118 138     2 119 139     4 121 141     4 120 140     1 118 138     3 120 140     2 119 139     2 119 139     3 120 140     1 118 138     1 117 137     1 115 135     1 118 138     7 123 143     3 118 139     1 114 135     4 120 140     1 119 141     1 117 139     1 119 141     2 120 143     2 121 143     3 124 145     5 126 147     3 124 145     1 122 143     1 123 144     3 125 146     4 126 147     3 125 146     1 123 145     1 124 146     1 124 146     1 125 147     2 127 149     3 128 150     3 128 150  
   6 123 143     1 118 138     5 122 142     2 119 139     2 119 139     2 119 139     1 117 137     1 118 138     2 119 139     1 117 137     2 119 139     2 119 139     3 120 140     1 118 138     2 119 139     4 121 141     4 120 140     2 119 139     3 120 140     2 119 139     2 119 139     3 120 140     2 119 139     1 118 138     1 117 137     1 118 138     3 119 140     2 117 138     2 117 138     7 122 142     4 120 143     1 119 141     1 120 142     2 120 143     1 120 142     1 122 143     4 125 146     4 125 146     2 124 145     3 125 146     5 127 148     5 128 149     4 126 147     1 125 147     1 125 147     1 125 147     1 126 148     2 127 149     2 127 149     3 128 150  
   7 124 144     4 121 141     6 123 143     3 120 140     3 120 140     3 120 140     1 118 138     2 119 139     3 120 140     1 118 138     2 119 139     2 119 139     3 120 140     1 118 138     1 118 138     3 120 140     4 121 141     1 120 140     3 122 142     1 120 140     1 120 140     3 122 142     3 120 140     1 118 138     3 120 140     2 119 139     1 115 136     2 117 138     6 121 142     7 124 144     4 123 145     2 120 143     2 121 143     2 121 143     1 119 141     1 121 142     2 123 144     3 124 145     2 124 145     4 126 147     5 127 148     4 126 147     2 124 145     2 126 147     2 127 149     2 127 149     2 127 149     2 127 149     2 127 149     2 127 149  
   7 124 144     5 122 142     6 123 143     3 120 140     4 121 141     4 121 141     2 119 139     3 120 140     4 121 141     2 119 139     2 119 139     2 119 139     3 120 140     1 118 138     2 119 139     4 121 141     4 121 141     2 121 141     4 123 143     3 122 142     3 122 142     4 123 143     4 121 141     1 118 138     4 120 140     3 119 139     1 115 135     3 118 139     8 123 144     6 121 142     5 122 145     2 120 143     2 121 143     2 121 143     1 120 142     1 122 143     2 123 144     1 122 143     2 123 144     3 125 146     4 126 147     2 124 145     1 122 143     2 126 148     3 128 150     3 128 150     3 128 150     2 127 149     2 127 149     2 127 149  
   6 122 145     3 120 143     2 121 143     1 120 141     3 122 142     3 122 142     1 120 140     2 121 141     3 122 142     1 120 140     1 119 139     1 120 140     1 120 140     1 119 139     1 119 139     2 121 141     3 122 143     2 123 144     4 125 145     2 123 144     3 122 144     5 124 145     3 122 144     1 116 138     3 118 141     4 119 142     1 116 139     5 119 143     8 122 146     3 118 141     3 122 144     1 119 141     1 120 142     3 122 144     2 121 143     2 123 144     4 125 146     2 123 144     4 125 146     5 127 148     5 127 148     3 125 145     2 124 145     2 126 148     3 128 150     3 128 150     3 128 150     3 128 150     2 127 149     2 127 149  
   5 121 144     4 120 143     1 119 141     1 119 140     3 122 142     3 122 142     1 120 140     2 121 141     3 122 142     1 120 140     1 120 140     2 121 141     2 121 141     1 120 140     1 120 140     3 122 142     4 123 144     2 123 144     4 125 145     3 124 145     4 123 145     5 124 145     3 122 144     1 118 141     2 118 141     2 118 141     2 117 141     5 119 143     5 119 143     2 116 140     4 120 143     1 119 141     1 120 142     3 122 144     3 122 144     3 124 145     5 127 148     6 127 148     8 129 150     8 130 151     7 129 150     5 127 148     5 127 148     3 127 149     2 127 149     2 127 149     3 128 150     3 128 150     3 128 150     3 128 150  
   5 121 144     4 120 143     1 119 141     1 119 140     3 122 142     3 122 142     1 120 140     2 121 141     3 122 142     1 120 140     2 121 141     3 122 142     3 122 142     2 121 141     2 121 141     4 123 143     4 124 144     2 123 144     3 125 145     3 124 145     3 124 145     4 124 145     3 122 144     5 122 144     2 118 141     1 115 138     1 117 140     3 117 141     2 116 140     2 118 141     4 123 145     2 120 143     2 121 143     3 122 144     2 121 143     2 123 144     5 126 146     7 128 149     8 129 150     7 129 150     5 127 148     3 125 146     5 127 148     2 126 148     1 126 148     1 126 148     2 127 149     3 128 150     4 129 150     4 129 151  
   4 123 145     3 122 144     1 119 140     1 119 139     3 122 142     3 122 142     1 120 140     2 121 141     3 122 142     1 120 140     3 122 142     3 122 142     4 123 143     2 121 141     3 122 142     4 123 143     4 124 144     2 123 144     3 125 145     3 124 145     3 124 145     4 124 145     3 122 144     8 125 148     3 119 142     1 112 135     1 114 138     1 114 138     1 114 138     5 119 143     9 124 148     5 122 145     4 122 144     2 121 143     1 120 142     1 120 142     2 123 144     4 125 146     4 125 147     3 125 146     1 122 143     1 121 145     2 124 147     1 125 147     1 125 147     1 126 148     2 127 149     3 128 150     4 129 150     4 129 151  
   7 128 147     6 127 146     7 128 147     5 126 145     2 123 144     1 120 141     1 121 142     2 123 144     1 121 142     1 117 139     3 122 144     2 120 143     5 121 144     4 120 143     3 119 142     5 121 144     5 125 146     2 124 145     3 124 145     6 127 148     3 124 144     1 120 141     3 122 144     6 123 146     7 123 146     2 116 140     1 115 139     4 117 141     3 115 139     1 115 139     6 121 142     3 120 140     5 122 142     5 121 143     1 117 139     1 118 140     2 122 144     1 121 145     1 122 145     2 124 147     5 127 150     7 130 153     9 134 156     3 128 150     1 126 148     1 126 148     2 127 149     4 129 151     5 130 153     8 133 155  
   1 124 142     1 123 140     1 124 141     2 123 143     3 124 145     3 124 145     1 122 143     1 121 142     1 120 142     1 120 142     3 122 144     3 121 143     5 121 144     4 120 143     4 120 143     5 121 144     5 125 146     2 124 145     2 123 144     3 124 145     1 122 143     1 119 141     4 123 145     5 122 145     6 122 145     3 117 141     3 116 140     7 119 143     3 115 139     3 115 139     4 119 140     3 118 139     6 121 142     6 121 144     2 118 141     1 120 142     4 123 146     3 123 147     3 124 148     3 125 148     3 125 149     1 124 148     1 123 147     4 128 150     4 129 151     3 128 150     2 127 149     2 127 149     2 127 149     2 127 149  
   1 122 140     1 120 137     1 121 137     1 122 140     4 124 145     6 127 148     3 124 145     1 120 141     1 120 141     4 123 144     2 121 143     3 122 144     5 121 144     4 120 143     4 120 143     6 122 145     5 125 147     4 125 146     2 123 144     3 124 145     2 123 144     2 122 144     7 126 148     4 121 144     5 121 144     3 117 141     4 117 141     8 120 144     4 116 140     4 116 140     2 117 138     2 117 138     5 120 141     5 121 143     4 120 143     4 123 145     5 125 147     3 123 147     4 126 149     6 128 151     4 127 151     1 123 147     1 120 144     4 127 149     4 129 151     3 128 150     2 127 149     1 126 148     1 125 147     1 125 147  
   1 124 142     1 122 139     1 123 140     2 124 144     4 125 146     5 126 147     3 124 145     1 122 143     1 121 143     3 122 144     2 121 143     4 122 144     5 121 144     3 119 142     5 121 144     7 123 146     5 125 146     5 126 147     5 126 147     6 127 148     6 127 148     6 127 148     9 128 150     5 122 145     5 121 144     3 117 141     2 115 139     6 118 142     5 116 141     7 119 144     2 117 138     3 118 140     6 121 142     5 121 143     4 120 143     4 123 145     4 124 146     2 122 146     4 125 148     6 128 151     7 129 153     5 128 152     3 127 151     1 126 148     1 126 148     1 126 148     1 126 148     1 126 148     2 127 149     2 127 149  
   2 125 143     1 124 141     1 124 140     4 127 144     3 125 146     2 123 144     2 123 144     3 124 145     2 123 144     1 121 142     1 120 142     4 123 145     3 122 144     2 118 141     4 121 144     7 123 146     4 123 145     2 123 144     4 125 146     6 127 148     7 128 149     7 127 148     5 124 146     5 122 145     7 123 146     2 115 139     1 112 136     3 115 139     4 116 140    10 122 146     3 118 139     5 120 141     6 121 142     3 119 142     4 120 143     3 122 144     3 122 145     3 123 147     2 124 147     4 126 149     5 127 151     6 128 152     6 130 154     2 127 150     1 126 148     1 126 148     2 127 149     2 127 149     2 127 149     2 127 149  
   2 125 143     1 123 140     1 124 141     4 127 147     3 125 146     1 122 143     2 123 144     5 126 147     3 124 145     1 120 141     1 119 141     5 124 146     3 122 144     2 118 141     5 122 144     7 124 147     3 121 143     1 120 141     1 122 143     2 123 144     3 124 145     3 124 145     1 119 141     5 121 144     7 123 146     2 115 139     1 111 135     1 113 137     3 115 139    10 122 146     2 117 138     5 120 141     5 120 141     2 118 140     4 120 143     2 121 143     2 122 144     4 124 148     1 123 146     1 123 146     1 123 147     2 124 148     2 126 150     3 128 150     4 129 151     4 129 151     4 129 150     3 128 150     1 126 147     1 125 147  
   4 127 145     2 125 142     2 125 141     3 126 144     3 125 146     2 124 145     1 123 144     1 123 144     1 122 143     1 121 142     1 120 141     4 125 146     3 122 144     1 118 140     4 122 144     6 125 147     3 123 144     1 123 144     1 121 142     1 119 140     1 120 141     3 123 144     1 119 141     3 119 142     6 122 145     3 117 140     1 113 137     2 114 138     1 113 137     6 118 142     1 114 135     3 118 140     4 119 140     1 117 139     4 119 143     4 123 145     3 122 145     4 124 148     3 125 148     3 125 148     2 124 148     1 123 147     1 123 147     3 127 149     4 129 151     5 130 152     5 130 152     5 130 152     2 127 150     2 127 149  
   7 130 148     5 128 145     4 127 144     2 124 144     3 125 146     4 126 147     2 124 145     1 121 142     1 120 142     2 123 144     1 120 141     5 125 146     3 122 144     1 118 140     4 122 144     6 124 147     4 124 145     7 128 149     3 124 145     1 118 139     1 120 141     5 125 146     5 124 146     1 118 141     4 120 144     4 119 143     2 116 140     3 115 139     1 111 136     3 114 139     1 111 132     1 116 137     2 117 138     1 117 139     4 120 144     5 124 146     4 123 146     4 124 148     5 127 150     7 129 152     7 129 153     4 127 151     1 124 148     1 125 148     2 127 149     3 128 150     6 131 152     7 132 154     7 132 154     7 132 154  
   1 122 140     2 124 141     9 132 148     4 128 146     3 128 147     2 124 145     1 123 144     3 125 146     1 123 144     4 126 147     5 126 147     5 125 147     4 125 146     2 122 143     1 120 142     1 119 141     1 121 142     1 122 143     1 122 143     5 127 147     2 123 144     1 122 143     2 121 143     4 120 143     3 119 142     2 116 140     3 116 140     6 118 142     6 118 142     6 118 142     6 121 142     2 117 138     1 113 134     1 114 136     3 119 142     4 123 145     6 125 148     5 125 149     2 124 147     2 124 147     3 125 149     2 124 148     1 122 146     1 124 146     1 125 147     1 125 147     1 125 147     2 127 149     3 128 150     5 130 152  
   2 125 143     4 127 144     8 131 148     5 129 148     5 130 150     3 125 146     1 123 145     2 124 145     1 122 143     3 124 146     1 121 142     1 121 142     1 122 143     2 122 144     4 123 145     5 124 146     4 125 146     2 124 145     2 123 144     6 127 148     2 123 144     1 122 143     3 122 144     3 120 143     3 119 142     3 117 141     2 115 139     2 114 138     3 115 139     3 115 139     4 119 141     1 116 137     1 114 135     1 115 138     3 119 142     4 123 145     5 124 147     5 125 149     2 123 146     2 124 147     4 126 150     4 127 150     1 125 149     2 127 149     2 127 149     1 126 148     1 126 148     2 127 149     3 128 150     4 129 151  
   6 129 147     7 130 147     6 129 145     5 129 147     6 131 151     2 127 147     1 125 145     1 125 145     1 122 142     2 124 144     1 119 140     1 120 141     1 122 143     2 123 144     4 125 146     5 126 147     5 126 147     3 125 146     2 123 144     5 126 147     1 122 143     2 122 143     4 123 145     2 119 142     3 119 142     4 118 142     1 114 138     1 111 135     1 110 135     1 113 137     3 118 139     1 116 137     1 116 137     2 117 140     4 120 143     3 122 144     4 123 146     4 124 148     2 124 147     3 125 148     5 127 151     5 128 152     3 127 151     4 129 152     4 129 151     3 128 150     2 127 149     2 127 149     2 127 149     3 128 150  
   8 131 149     7 130 147     5 128 145     4 128 148     6 131 151     2 127 147     1 126 146     1 126 146     1 123 144     3 125 146     1 123 144     1 123 144     2 123 144     2 123 144     1 122 143     1 122 143     2 123 144     3 125 146     1 122 143     3 124 145     1 121 142     1 121 143     4 123 145     1 118 140     3 119 142     4 118 142     1 114 138     1 110 134     1 111 135     3 114 139     2 117 138     1 116 137     2 117 138     3 119 141     5 121 144     3 122 144     2 121 144     3 123 147     2 124 147     3 125 148     3 125 149     3 126 150     2 126 150     4 129 151     4 129 151     4 129 151     3 128 150     3 128 150     4 129 150     5 130 152  
   7 130 148     5 128 145     4 127 143     2 127 144     4 129 149     1 126 146     1 126 146     3 128 148     3 126 146     7 129 149     4 126 147     4 125 147     4 125 146     2 123 144     1 122 143     1 121 142     1 122 143     2 123 144     1 120 142     2 123 144     1 120 141     1 120 141     2 121 143     1 117 140     2 118 141     5 119 143     2 116 140     1 113 137     2 114 138     7 119 142     1 116 137     1 116 137     3 118 139     5 120 143     6 122 145     3 122 144     2 122 144     4 124 148     3 125 148     3 125 148     2 124 148     1 123 147     1 123 147     2 126 149     3 128 150     3 128 150     3 128 150     5 130 152     6 131 153     7 132 154  
   6 129 147     4 127 144     4 127 144     2 126 145     3 128 148     1 126 146     1 126 146     4 129 149     5 127 148     8 129 151     2 124 145     2 124 145     3 124 145     3 124 145     3 124 145     3 124 145     3 124 145     2 123 144     1 120 142     3 124 144     1 120 141     1 120 141     2 121 143     1 118 141     3 119 142     5 119 143     3 116 140     3 115 139     4 116 140     8 119 144     2 117 138     1 116 137     3 118 139     5 120 143     6 122 145     3 122 144     2 122 144     5 125 149     4 125 149     3 125 148     1 123 147     1 122 146     1 123 147     2 126 149     3 128 150     3 128 150     3 128 150     5 130 152     7 132 154     8 133 155  
   7 130 148     5 128 145     2 125 141     2 127 144     4 131 149     2 127 147     2 127 147     4 129 149     2 127 147     5 130 150     2 124 145     2 124 145     3 125 146     4 125 146     5 126 147     5 126 147     5 126 147     2 123 144     1 122 143     4 126 147     2 123 144     1 122 143     3 122 144     4 121 144     4 120 143     4 118 142     3 117 140     4 116 140     5 117 140     5 117 141     2 117 138     2 117 138     3 118 139     5 120 143     6 122 145     4 123 145     3 122 145     5 125 149     6 127 150     5 127 150     3 125 149     2 124 148     2 126 150     4 128 151     4 129 151     3 128 150     3 128 150     5 130 152     5 130 153     7 132 154  
   8 131 149     7 130 147     2 124 141     3 128 147     6 133 152     2 129 148     2 127 147     4 129 149     1 126 146     4 129 149     2 127 147     4 126 147     4 126 147     4 126 147     5 126 147     5 126 147     4 126 147     2 124 145     2 124 145     7 128 149     4 125 146     2 123 144     3 123 144     5 124 146     5 121 144     3 119 142     2 117 140     2 116 140     1 115 139     1 114 138     3 117 141     2 117 138     2 118 140     4 120 143     6 122 145     4 123 145     3 122 146     4 124 148     5 127 150     6 128 151     5 127 151     5 127 151     6 130 154     6 130 154     5 130 152     4 129 151     3 128 150     3 128 150     4 129 150     4 129 151  
   5 130 148     5 130 149     4 130 148     4 130 149     1 129 150     1 130 151     3 132 153     4 131 153     2 128 150     2 128 150     1 127 149     4 129 151     2 127 149     3 128 150     3 128 150     1 126 148     2 127 149     1 125 147     1 125 147     2 124 147     2 124 147     3 125 148     4 125 148     1 120 144     1 120 144     4 123 147     5 124 148     4 123 147     4 121 145     3 119 142     3 119 142     3 122 145     5 124 146     2 121 143     2 121 145     2 122 146     4 124 148     5 125 150     8 128 153    11 131 156     5 127 151     5 127 152     4 126 152     2 126 150     1 126 149     1 125 148     1 126 148     1 127 150     1 126 148     1 124 147  
   5 130 148     5 131 149     4 131 149     2 130 151     1 130 151     2 131 152     4 133 154     2 131 152     1 128 150     4 130 152     1 125 147     2 127 149     1 125 147     1 126 148     1 126 148     1 123 145     1 126 148     1 126 148     1 126 148     1 126 148     3 125 148     3 125 148     3 125 148     1 121 145     1 121 145     3 123 147     4 124 148     3 123 147     1 121 145     1 120 144     1 119 141     2 121 143     3 122 144     2 121 145     2 121 145     2 122 146     5 125 149     6 126 151     5 125 150     7 127 152     3 125 149     6 127 152     6 127 154     4 127 152     1 127 150     1 126 149     1 126 149     2 128 151     1 126 150     1 125 148  
