P3
50 50
255
 120 202 213   119 202 213   118 200 211   116 198 210   116 200 211   116 199 213   115 198 212   114 197 211   114 197 211   113 196 210   113 196 210   112 195 209   117 199 214   119 202 215   117 199 214   114 197 210   113 196 210   115 198 212   112 195 209   107 190 204   105 191 206   104 190 205   103 190 207   104 191 208   105 192 209   105 192 209   102 191 209   100 189 207    97 188 207    94 185 204    90 182 203    89 181 202    87 182 204    87 182 204    85 180 202    82 177 199    79 175 199    77 176 199    77 176 199    77 176 199    76 175 198    74 173 196    70 170 194    68 168 192    70 170 194    67 167 191    65 167 192    67 169 194    68 170 195    65 167 192  
 118 200 211   117 199 211   117 199 211   115 197 209   121 203 217   118 200 216   115 197 212   114 196 211   114 196 211   114 197 211   113 195 211   112 195 210   113 196 210   114 196 211   112 195 210   109 192 207   110 193 208   113 195 210   111 194 209   107 191 206   107 193 208   106 192 208   104 191 208   104 192 209   105 193 210   105 193 212   103 193 210   102 191 210    95 187 205    92 184 205    87 180 201    85 178 199    83 178 200    84 179 201    86 181 204    86 182 205    79 178 200    77 176 199    76 175 198    75 174 197    75 175 198    74 173 196    70 170 194    67 167 191    73 174 198    72 172 196    69 172 197    70 173 198    70 173 199    71 173 199  
 119 201 213   120 202 214   119 201 213   115 197 210   122 204 218   119 200 217   114 195 212   113 194 211   113 194 211   114 195 212   113 194 211   112 193 210   112 193 210   112 193 210   110 191 208   107 188 205   109 190 207   113 194 211   114 195 212   110 193 209   109 196 212   107 194 211   104 193 209   102 191 207   103 192 210   102 191 209    99 190 209    98 189 208    92 185 204    91 183 204    87 182 203    83 178 200    79 175 197    79 175 197    83 179 203    85 183 206    77 176 199    74 174 197    72 172 195    72 172 195    74 174 198    73 173 197    70 172 195    68 170 193    66 168 193    66 168 193    64 168 193    65 169 194    67 171 198    69 173 200  
 121 203 215   122 204 215   120 202 214   116 198 212   121 203 217   119 201 217   115 197 214   112 195 211   110 193 209   109 191 208   110 192 208   111 193 210   106 188 205   107 189 205   107 190 206   108 190 207   109 192 208   111 193 210   110 193 209   110 192 208   107 195 211   106 194 210   101 192 209   100 190 207    99 189 207   100 190 208   101 193 212   103 195 214    97 191 211    89 183 203    83 178 200    83 179 201    81 179 202    78 176 199    80 178 202    85 184 207    75 175 199    74 176 199    73 174 197    71 172 195    71 172 196    73 174 198    70 174 198    69 172 196    62 166 191    64 167 192    64 169 195    63 169 194    62 168 194    62 167 193  
 120 202 214   118 200 212   117 199 211   117 199 213   113 196 211   112 195 211   109 194 210   108 190 206   104 189 204   105 188 204   104 190 205   108 191 207   107 193 208   109 192 208   109 194 209   111 194 210   109 195 210   109 192 208   106 192 207   105 191 208   105 194 210   104 193 209    99 190 208    95 186 204    92 183 200    92 183 202    92 185 203    94 186 207    96 191 211    87 182 202    81 177 199    85 181 203    83 182 205    77 176 199    77 176 199    80 180 203    64 166 189    67 169 192    68 170 193    65 168 190    65 167 190    68 170 193    65 170 195    63 167 192    66 169 194    67 171 196    67 173 199    66 172 198    64 170 196    63 169 194  
 118 200 214   114 196 210   114 196 210   115 198 212   108 194 209   108 194 211   107 194 211   106 192 209   104 191 208   105 191 208   106 193 210   109 195 212   108 196 212   109 195 212   107 194 212   107 194 210   105 193 209   106 192 209   104 191 208   103 190 207   102 191 207    99 190 208    97 188 206    95 186 204    91 184 202    91 184 202    91 186 204    93 188 208    89 186 206    83 179 201    79 178 199    82 181 202    81 181 204    75 175 198    73 173 196    76 176 199    70 172 195    71 176 198    72 177 199    70 175 197    70 174 199    71 175 200    68 174 198    64 170 194    64 169 195    64 170 196    63 169 195    62 168 194    58 166 192    59 167 192  
 118 200 214   116 198 212   115 196 210   112 195 211   107 195 209   107 194 211   105 195 211   105 193 210   103 193 208   103 191 207   103 193 209   105 193 210   103 193 209   103 191 208   102 192 207   102 190 206   101 190 206   102 190 206   101 190 206   101 190 206    99 190 208    99 191 208    98 190 207    96 188 205    92 186 204    91 185 203    90 185 205    91 187 207    84 181 203    81 178 200    77 177 198    79 178 200    78 178 201    75 175 198    75 175 198    77 179 202    68 173 195    70 174 197    68 172 195    63 168 191    60 164 189    60 165 190    58 164 189    55 160 185    59 165 192    58 164 190    56 163 189    55 161 187    54 162 188    55 163 189  
 117 199 213   118 200 214   117 196 211   111 194 210   104 192 206   103 193 209   101 194 209   101 191 207    97 189 204    97 187 203    95 188 203    97 188 203   101 194 209   102 193 208   100 192 207   100 190 206    98 190 205    98 189 204    96 189 204    96 188 203    97 189 207    97 190 207    97 190 207    94 187 204    88 183 201    85 180 198    83 180 199    83 180 199    80 179 200    79 178 199    76 176 199    75 175 198    75 175 198    75 175 198    76 178 201    79 181 204    71 176 199    71 175 200    68 172 197    62 166 191    58 164 188    61 167 191    61 167 193    60 166 192    58 166 192    56 164 190    54 162 188    54 162 188    55 163 191    56 164 192  
 113 195 209   114 196 210   116 195 210   112 195 210   101 192 205   100 193 208    98 194 208    99 192 207    94 189 204    94 187 202    92 187 202    94 187 202    97 192 207    99 192 207    97 192 206    97 190 205    95 190 204    95 187 202    91 186 201    91 185 200    90 183 200    91 184 201    91 186 203    91 185 203    88 183 201    86 181 199    84 181 200    85 182 201    77 176 197    77 176 197    77 177 200    75 175 198    71 173 196    71 172 196    73 175 198    75 177 200    68 172 197    67 173 197    65 170 195    60 165 189    57 163 187    60 166 190    60 168 194    58 166 192    58 166 192    56 164 190    54 164 190    55 164 191    57 166 194    58 167 195  
 108 191 205   108 190 206   111 193 207   111 197 212    96 189 204    96 192 208    95 193 206    95 191 207    93 189 203    91 187 203    91 187 201    91 187 203    89 185 199    90 185 201    91 187 201    92 188 204    92 188 202    91 187 203    90 186 200    90 183 200    88 184 200    89 184 202    90 185 203    89 184 204    84 181 200    81 178 197    79 175 195    76 175 195    74 173 194    76 176 199    78 178 201    75 177 200    71 173 196    68 170 193    65 170 192    66 170 194    64 170 194    66 172 198    64 170 196    59 165 191    56 162 188    54 162 188    53 161 187    50 158 186    54 162 190    51 161 188    50 160 187    51 162 190    54 165 193    55 166 194  
 110 196 211   111 197 214   107 193 209   101 190 206    94 190 206    88 185 202    87 187 202    94 192 208    94 191 207    87 184 201    84 181 197    88 185 202    94 190 207    92 187 205    93 186 203    93 186 204    96 189 206    97 190 208    95 188 205    93 186 204    89 184 205    87 183 205    87 184 206    90 187 209    87 186 207    81 179 201    77 177 198    77 177 199    74 174 197    74 176 199    72 174 197    65 170 192    65 170 192    68 172 197    66 172 196    61 167 191    65 170 199    60 168 196    57 165 194    56 164 192    52 160 189    49 158 187    54 163 192    60 169 198    42 151 180    43 154 182    44 156 184    44 157 187    44 157 187    45 158 188  
 109 197 214   107 195 212   101 188 205    92 183 201    85 182 198    89 189 205    92 192 208    87 187 203    86 183 200    87 185 201    89 186 203    88 185 202    90 185 203    89 184 202    91 185 203    92 185 204    93 186 204    94 187 205    95 187 205    94 186 207    86 182 204    84 181 203    83 182 205    85 184 207    83 182 205    77 176 199    73 174 196    73 174 196    69 172 195    71 174 197    69 174 195    65 170 192    63 169 193    65 171 195    65 171 195    63 169 195    57 165 193    55 163 192    55 162 191    58 166 195    57 165 195    50 159 188    44 154 184    42 152 182    42 154 184    43 155 185    42 156 186    42 156 186    42 157 188    45 160 190  
 102 191 207   102 191 207    98 187 203    93 184 202    84 181 198    90 190 206    92 192 208    85 185 201    84 181 198    89 186 203    93 190 207    91 188 205    86 181 199    88 183 201    90 185 203    90 185 203    90 184 202    90 183 201    93 186 204    93 187 207    86 182 204    82 181 204    82 181 204    84 183 206    80 180 203    75 175 198    71 173 195    71 173 195    66 171 193    68 173 195    68 173 195    65 170 192    62 168 192    62 168 192    63 169 193    63 169 195    54 162 190    56 164 193    59 167 196    60 168 197    52 161 190    43 152 181    41 152 182    44 155 185    46 159 189    46 159 189    43 158 189    42 157 188    41 156 187    43 158 189  
  94 185 202    96 186 204    96 186 204    93 185 204    88 185 202    82 182 200    80 180 198    82 181 199    83 182 200    84 182 201    86 183 202    88 185 203    85 181 200    87 183 202    89 185 204    88 183 203    86 181 200    85 180 199    87 181 201    88 183 203    85 181 203    81 180 202    80 180 202    81 181 203    78 178 201    73 173 196    70 172 195    71 173 195    67 172 194    66 171 193    65 171 194    63 168 192    59 167 190    57 165 188    57 166 189    58 166 192    55 165 192    56 164 193    57 165 194    55 163 192    47 158 187    41 151 181    42 155 185    49 161 191    45 158 189    45 158 189    44 159 190    42 157 188    40 157 187    39 156 186  
  95 187 204    95 186 205    91 184 202    88 180 201    95 192 211    82 181 200    77 176 195    84 183 202    87 186 205    83 182 201    83 180 199    87 184 203    86 183 202    87 184 203    87 184 203    86 183 202    84 181 200    84 179 199    83 180 199    83 179 201    80 179 202    77 176 199    75 175 198    77 177 200    75 175 198    71 171 194    68 170 193    70 172 195    67 172 194    63 168 190    59 165 189    60 166 190    58 167 190    56 165 188    54 163 186    55 163 189    57 167 194    50 158 188    46 155 184    50 159 188    53 164 194    50 161 191    42 155 185    38 151 181    38 151 183    40 153 185    40 155 186    41 156 187    38 156 186    38 156 186  
  90 185 203    90 183 204    87 182 202    85 180 200    92 191 210    87 188 208    84 183 204    83 182 203    85 184 205    84 183 204    83 182 203    81 180 201    85 184 205    84 183 204    83 182 203    82 181 202    83 182 203    85 181 203    82 181 202    81 180 201    79 178 201    75 175 198    73 175 197    75 177 199    74 176 199    70 172 195    67 172 194    69 174 196    65 171 195    57 163 187    52 160 184    56 165 188    58 168 193    57 167 192    54 164 189    54 164 191    54 163 192    50 158 190    47 158 188    50 161 191    49 162 192    45 158 188    41 154 186    39 152 184    38 153 184    38 153 184    37 155 185    36 154 184    34 154 186    35 154 186  
  83 180 200    85 180 201    86 183 203    86 183 205    83 183 203    87 188 208    87 186 207    79 178 200    77 176 198    81 180 202    82 181 203    78 177 199    84 183 205    83 182 204    80 180 201    79 178 200    80 180 201    82 182 203    82 181 203    81 180 203    77 178 200    75 175 199    74 177 199    74 177 199    73 176 199    71 174 197    68 174 196    70 175 198    61 168 191    55 161 185    50 159 183    55 164 188    58 169 194    58 169 194    55 166 191    55 165 192    51 161 190    54 163 194    54 165 195    50 162 192    41 155 185    36 149 180    41 154 186    49 162 194    41 157 187    40 156 187    38 156 187    37 155 186    33 153 185    32 152 184  
  81 181 202    82 179 201    81 181 201    81 180 202    83 184 205    86 186 209    85 185 208    81 181 204    78 178 201    81 181 204    84 184 207    85 185 208    80 180 203    83 183 206    82 182 205    77 177 200    75 176 199    78 178 201    78 179 201    76 177 199    73 175 198    75 177 200    74 179 201    72 177 199    69 174 196    67 172 194    66 172 196    68 174 198    61 170 193    60 169 192    58 168 193    58 168 193    56 168 192    54 166 190    52 164 188    50 161 188    52 163 191    51 162 192    47 160 190    46 159 189    44 157 189    42 155 187    42 157 188    44 159 190    37 155 185    38 156 186    40 159 191    41 160 192    35 156 187    29 150 181  
  80 182 203    79 179 201    78 180 201    79 179 203    81 181 205    84 184 208    83 183 207    78 178 202    75 175 199    77 177 201    77 179 202    76 177 200    74 175 198    77 178 201    79 181 203    79 180 204    79 183 205    80 181 204    72 176 198    65 169 191    68 172 194    72 176 199    75 180 201    71 176 198    65 170 194    62 167 191    63 171 194    67 175 198    63 172 197    61 171 195    58 169 193    55 166 191    50 164 188    48 161 186    46 160 185    45 158 185    47 161 188    46 159 189    43 158 188    43 157 188    43 158 189    43 157 189    38 156 186    36 153 183    35 153 185    36 155 186    37 157 189    36 156 187    27 149 182    22 144 176  
  80 182 204    79 181 204    78 180 203    76 178 201    81 181 205    84 184 208    83 183 207    79 179 203    77 177 201    77 177 201    76 178 201    73 175 198    76 178 201    76 178 201    72 176 198    71 175 198    73 178 200    76 181 203    72 177 199    65 170 192    65 170 192    68 173 195    70 175 197    67 172 194    62 168 192    59 165 189    59 168 191    62 171 194    56 166 191    55 165 190    53 165 189    50 162 186    46 160 184    46 160 184    46 160 186    47 161 188    45 158 188    43 156 186    39 154 185    37 152 183    39 154 185    41 156 187    35 153 183    28 146 176    31 150 182    30 149 181    30 150 182    29 150 181    24 147 180    21 144 177  
  76 181 203    76 181 203    72 177 199    69 171 196    79 180 204    82 182 206    79 179 204    77 177 200    74 177 199    77 179 202    76 178 201    72 174 197    73 178 200    72 177 199    67 173 195    64 170 192    67 173 195    72 178 200    69 176 198    64 171 193    69 175 199    67 173 197    65 171 195    64 170 194    63 172 195    63 172 195    60 170 195    57 167 192    55 167 192    56 168 192    52 166 190    49 163 187    45 159 185    44 158 184    43 159 184    45 160 187    46 161 190    44 159 190    38 153 184    34 149 180    34 152 182    38 156 186    35 154 186    28 147 179    33 155 185    28 149 180    24 147 180    27 150 183    28 151 184    25 148 181  
  73 178 201    75 181 203    74 179 204    73 177 202    77 180 203    79 179 203    75 175 200    72 172 196    71 173 196    73 175 199    71 174 197    67 170 193    66 170 193    68 173 196    67 173 196    66 172 195    67 174 196    68 175 198    66 173 195    61 168 191    66 172 196    63 169 193    60 167 190    60 167 190    60 169 192    60 169 192    57 167 192    53 163 188    50 162 186    52 164 188    52 165 190    50 164 188    47 161 187    45 160 185    47 163 188    49 164 190    45 160 189    47 162 193    42 158 188    35 151 181    33 150 181    37 155 186    35 155 187    30 149 181    38 159 190    31 152 183    25 148 181    29 152 185    31 155 187    27 150 183  
  69 175 199    67 173 197    68 174 198    70 175 200    80 183 208    79 180 205    74 175 201    69 170 195    67 170 195    69 172 197    66 171 196    62 167 192    64 169 193    67 172 198    67 174 198    64 171 196    62 170 195    64 172 197    64 172 197    62 171 195    62 170 193    62 169 193    60 169 192    59 168 192    57 167 190    56 166 190    54 165 190    54 165 190    48 161 185    51 164 189    52 167 192    49 164 190    44 160 185    39 156 182    40 157 182    41 158 184    38 155 184    44 160 192    42 160 190    34 152 183    31 149 181    34 152 185    33 153 184    27 146 179    32 153 184    26 148 180    23 146 179    26 149 183    27 152 184    24 148 181  
  65 171 195    62 168 193    61 168 193    59 167 192    70 175 200    71 176 200    68 175 200    66 172 198    65 173 198    67 175 200    62 172 196    55 166 190    52 162 186    59 168 195    58 168 193    57 166 193    60 168 195    61 169 197    64 170 198    69 177 204    61 170 195    62 172 196    59 169 193    53 164 191    52 163 187    54 165 191    54 167 193    53 166 192    45 160 185    46 160 187    45 162 188    44 162 187    43 160 186    39 158 185    36 156 181    35 154 181    38 157 188    35 154 187    31 150 181    29 148 182    32 151 185    35 154 188    30 153 185    25 147 181    24 146 178    16 139 173    15 139 173    17 143 177    13 140 173    14 140 175  
  65 171 197    64 171 197    64 172 199    62 170 198    68 175 201    63 172 195    60 170 195    62 172 197    60 172 196    57 169 193    55 169 193    59 173 197    51 165 191    54 168 194    52 163 190    53 164 191    63 172 200    63 171 199    58 165 194    59 167 196    52 162 189    55 167 191    57 168 195    54 165 192    53 166 192    53 167 193    49 165 190    44 160 185    46 163 189    45 162 189    43 163 188    42 162 187    40 160 187    37 157 184    33 153 180    30 150 179    43 163 194    37 157 191    30 153 186    27 149 183    26 148 181    24 147 180    19 143 177    16 140 174    24 148 182    17 144 177    15 141 176    14 141 176    12 139 174    11 139 174  
  63 171 197    62 171 197    62 172 199    63 174 200    65 175 200    58 168 193    57 169 193    63 175 199    57 171 195    46 160 184    48 164 189    60 176 201    52 168 193    50 165 191    45 157 184    52 162 190    70 179 208    74 182 211    63 171 200    57 165 194    48 158 185    51 162 189    52 165 192    51 165 191    51 165 191    50 164 190    45 160 187    40 155 182    47 165 191    45 163 189    42 162 189    39 159 187    37 158 185    34 155 182    30 151 178    27 148 177    30 153 184    29 152 185    27 152 184    24 150 182    22 146 180    18 143 176    15 142 175    14 141 174    24 151 186    27 155 190    17 145 180    12 140 175    16 146 180    11 141 175  
  60 169 194    57 168 195    56 168 195    58 170 197    58 169 194    56 167 192    57 170 195    62 174 199    58 172 197    50 165 191    46 163 188    49 165 191    51 167 193    48 163 189    40 155 181    46 158 186    64 176 204    69 178 207    59 168 198    53 163 192    55 166 193    53 165 191    47 162 188    45 159 185    44 158 184    44 158 184    44 160 186    45 161 187    41 160 186    39 158 184    37 157 184    36 156 183    34 156 183    33 155 182    32 153 181    28 152 180    22 148 177    21 148 180    22 149 181    22 150 181    22 150 182    21 148 181    18 146 179    15 145 177    18 147 181    29 158 193    16 147 180     8 139 172    18 149 183    11 142 176  
  55 168 193    52 165 192    53 167 194    55 170 197    58 170 197    59 170 197    55 169 195    52 166 192    52 168 193    53 170 195    48 167 192    42 160 186    50 169 194    50 166 193    42 159 185    44 158 186    54 168 197    57 169 199    50 162 192    50 162 191    57 169 196    51 166 192    47 162 189    45 160 187    43 158 185    40 157 183    40 158 184    42 161 188    37 157 184    35 156 183    34 155 182    33 155 183    32 156 184    31 155 183    30 154 182    27 152 181    23 152 182    21 151 181    20 149 181    21 150 182    21 152 184    21 151 183    16 147 178    11 142 174    11 143 176    22 154 187    12 145 178     5 138 171    13 146 181     8 142 177  
  49 165 190    47 164 191    50 167 193    54 171 198    57 171 197    56 169 195    50 165 191    48 162 189    46 163 189    46 164 190    44 163 189    43 162 187    44 164 191    47 166 193    43 162 189    44 161 189    51 168 197    53 168 198    49 163 194    52 166 195    50 165 192    45 162 188    44 161 187    46 163 190    44 161 189    39 158 185    38 158 184    39 160 187    33 154 181    31 154 182    31 154 182    30 155 183    30 155 183    29 154 183    26 151 180    22 149 178    16 147 177    14 146 177    15 147 178    16 148 180    15 150 180    16 148 179    13 148 179    11 145 177     6 141 173    13 147 180    10 144 178     5 139 174     5 141 175     5 141 175  
  44 162 188    43 163 188    45 165 192    51 171 198    51 166 193    48 162 188    49 164 191    54 172 198    49 167 193    37 156 182    34 155 180    41 162 189    41 162 189    44 165 192    40 161 188    40 159 189    46 165 195    44 162 192    36 154 184    36 154 184    46 164 192    41 159 185    39 157 185    40 160 187    40 160 187    38 158 185    39 160 187    43 164 193    26 150 178    27 151 179    27 152 180    29 154 182    31 156 186    28 156 185    25 153 182    21 150 181    10 143 174    12 147 177    13 150 180    13 148 178     8 143 173     6 140 171     7 142 174     9 144 176     7 142 174     8 143 175     9 146 180     6 143 177     1 137 171     3 140 174  
  51 171 196    46 167 194    38 159 186    45 166 193    47 165 191    54 169 196    48 166 192    46 164 192    52 172 199    49 170 197    39 160 187    32 156 182    29 153 179    36 160 188    43 167 195    43 168 196    38 162 190    36 157 188    37 158 189    41 160 191    42 162 189    47 167 194    46 166 193    37 158 186    37 157 187    41 163 192    39 164 192    34 157 186    27 152 180    36 161 191    35 163 192    25 153 182    18 146 175    18 147 176    19 148 179    15 146 176    23 158 188    14 152 181     9 149 179    11 148 180     9 146 178     6 143 175     7 144 176    11 148 180     1 138 172     5 142 176     5 142 176     1 137 171     1 135 171     1 138 174  
  41 162 189    41 162 189    38 161 188    49 170 197    37 155 182    46 161 189    42 161 188    41 161 188    48 169 197    45 169 195    35 160 186    31 156 184    35 161 189    34 160 189    31 159 187    30 156 186    29 155 185    32 155 187    36 159 191    41 163 194    35 157 186    39 161 188    37 159 186    31 153 182    32 154 182    36 160 189    35 159 188    29 152 183    26 152 182    31 157 187    28 156 185    19 147 177    14 144 173    18 147 178    20 150 180    16 147 179    11 149 178     7 146 175     6 145 176     8 147 178     8 145 177     4 141 173     4 140 173     6 143 175     1 138 172     5 143 177     6 143 177     2 140 174     1 137 173     3 139 175  
  44 165 192    42 163 191    40 161 190    47 167 196    47 166 194    52 170 198    45 165 192    39 160 187    43 165 194    41 166 194    34 160 188    32 160 187    29 158 186    29 157 186    27 156 185    27 155 184    26 155 185    27 153 185    25 151 183    25 151 182    32 156 185    33 157 185    30 154 182    27 151 179    29 154 183    34 159 189    33 158 188    27 152 182    25 153 183    26 153 185    21 150 181    15 144 175    14 145 175    19 150 180    20 150 181    14 147 178     6 144 174     5 144 175     6 145 176     8 147 178     7 146 177     5 144 175     4 141 175     3 140 174     2 139 173     5 142 176     6 143 179     5 141 177     5 139 176     5 139 176  
  48 168 195    44 163 193    41 161 190    40 159 191    49 168 197    53 171 201    44 165 193    36 157 186    37 161 189    34 159 187    27 155 183    27 156 184    33 164 192    31 162 190    27 157 187    22 152 182    19 150 180    22 150 181    27 155 186    32 159 191    31 156 186    31 156 185    29 154 183    27 152 181    27 155 184    31 158 187    30 156 188    26 153 184    25 153 185    23 152 183    19 149 180    15 145 177    15 147 178    17 150 180    15 147 178     9 143 173     8 145 177     7 146 177     7 145 177     6 145 176     6 143 176     5 142 175     4 141 175     4 140 175     4 139 175     4 139 175     4 139 176     5 139 176     4 138 175     3 136 173  
  40 159 189    40 159 189    44 164 195    41 160 192    33 152 182    43 162 192    41 162 191    37 160 189    39 164 192    34 162 189    25 154 183    24 153 182    28 159 187    28 158 186    23 157 186    19 153 182    19 150 180    22 153 183    29 160 190    37 166 197    28 156 185    30 155 185    30 155 185    28 153 183    25 153 182    25 153 182    25 152 184    25 152 184    25 154 185    23 152 183    19 149 181    18 148 180    15 148 179    14 147 178    10 143 174     5 140 170     9 146 178     8 147 178     5 144 175     1 140 171     1 138 172     3 140 174     4 141 175     3 140 174     6 140 177     3 137 174     2 136 173     5 137 175     5 137 175     2 134 172  
  35 153 183    41 159 189    49 166 199    43 160 193    34 153 183    43 163 193    42 163 194    36 159 190    39 164 194    34 162 191    26 156 184    26 157 185    18 152 181    18 153 181    18 152 182    19 153 182    20 153 184    22 153 185    23 153 185    24 153 184    29 157 186    32 157 187    33 158 188    30 155 185    24 151 183    21 148 180    21 150 181    24 153 184    22 153 185    19 150 182    14 148 179    12 146 177    10 145 175     9 144 174     8 143 175     7 142 174     5 142 174     6 145 176     4 143 176     1 139 172     1 137 171     4 141 175     7 141 176     5 139 174     9 143 180     4 138 175     2 134 172     4 136 174     5 137 176     4 133 173  
  37 158 188    44 165 197    48 169 200    39 160 192    39 162 193    43 167 198    38 162 193    31 157 189    30 158 188    27 156 187    22 153 182    23 157 187    27 161 191    20 156 185    13 149 178    10 146 175    12 148 178    15 151 181    18 153 183    20 154 185    24 154 185    30 158 190    28 159 189    25 155 186    22 152 183    17 148 180    17 149 179    24 156 187    19 152 183    15 149 180    11 146 177     8 144 175     7 142 173     6 141 172     5 142 174     6 143 174     3 140 172     4 142 176     4 142 176     2 140 174     2 139 174     5 142 177     7 141 177     5 139 175     9 142 180     4 137 174     2 134 172     4 136 174     7 137 176     5 135 174  
  32 159 189    38 164 196    36 163 195    30 157 188    28 156 188    34 162 194    33 161 193    30 160 192    32 162 193    26 157 189    19 154 183    23 158 188    14 151 180    12 150 179     8 147 176     8 146 175     8 148 176     9 149 178    10 150 178    11 151 179     9 146 177    20 155 186    14 150 181    11 147 178    19 155 186    15 151 183     9 145 176    18 154 186    15 151 183    12 148 180     7 145 176     6 144 175     6 144 176     6 144 175     2 141 172     1 138 171     2 139 173     2 139 175     2 139 175     2 139 175     1 138 174     1 138 174     3 137 174     3 137 174     2 136 173     1 135 172     1 133 171     3 135 173     4 136 174     5 137 175  
  21 151 182    28 156 188    29 159 190    26 156 187    23 153 185    28 158 190    26 155 187    21 153 185    24 156 187    19 152 183    15 150 180    19 154 184    11 149 178     7 146 175     4 144 172     6 146 174     9 150 178    10 152 180     6 149 176     3 144 172    10 149 180    14 151 183     9 146 178     8 145 177    16 153 186    14 151 183     6 143 175     8 145 177    10 147 179     7 144 176     3 141 173     3 141 172     5 142 174     5 142 174     3 141 173     1 139 173     2 139 173     2 139 175     3 138 175     3 138 175     2 137 174     2 137 174     3 137 174     3 137 174     4 137 174     2 135 173     1 133 171     1 133 171     4 133 172     4 134 172  
  20 153 184    24 157 188    27 160 191    27 159 191    16 149 180    22 155 186    21 154 185    18 151 182    21 154 185    16 151 181    11 146 176    14 152 181     8 147 176     6 145 174     5 146 174     6 147 175     8 149 177     9 150 178     4 148 175     4 145 173     6 145 176     9 146 178     8 145 177     9 146 178    13 150 182    11 148 180     6 143 175     5 142 174     9 146 178     6 143 175     3 140 172     3 140 172     5 142 174     5 142 174     4 141 173     2 139 173     1 138 172     1 138 174     2 136 173     2 136 173     2 136 173     2 136 173     1 135 172     1 135 172     5 137 175     3 135 173     1 133 171     1 132 170     3 132 171     3 132 171  
  12 149 181    13 149 180    13 148 180    12 147 179    17 152 184    24 159 191    22 157 189    19 155 187    20 156 188    13 149 182     4 142 174     7 145 177     7 146 177     8 149 179     6 149 179     5 148 178     3 146 176     2 145 175     4 149 178     7 150 180     4 143 174     6 143 175    12 149 181    14 151 183    11 148 180    10 147 179    11 148 180    10 147 179    10 147 179     7 144 176     4 141 173     4 141 173     5 142 174     5 142 174     4 141 173     1 138 172     1 135 170     1 135 172     1 135 172     1 135 172     1 133 171     1 133 171     1 133 171     1 133 171     5 137 175     3 135 173     3 132 171     2 131 170     2 131 170     2 131 170  
  11 151 182     7 146 178     6 145 176     5 143 175    16 154 186    24 159 191    19 156 188    15 152 184    15 153 185     9 147 179     1 141 172     4 144 174     3 145 175     6 148 178     7 150 180     5 149 179     1 145 175     1 143 173     3 148 177     7 150 180     6 145 176     5 142 174    13 150 182    16 153 185     9 146 178    10 147 179    16 153 185    12 148 180     9 146 178     7 143 175     4 140 172     3 140 172     5 142 174     6 142 174     4 140 172     3 137 172     1 135 170     1 135 172     1 135 172     1 134 171     1 133 171     1 133 171     2 133 171     2 133 171     3 134 172     3 132 171     3 132 171     3 132 171     3 132 171     2 131 170  
   8 149 182     5 146 179     6 147 180     8 150 182     9 149 180    15 153 184    10 149 180     7 146 177    10 149 180     8 147 178     6 147 177    12 153 183     1 143 173     2 145 175     5 148 178     5 148 178     3 148 177     2 147 176     1 146 175     2 144 174     8 147 178     1 137 169     7 144 176    11 148 180     4 141 173     8 145 177    15 150 182     6 141 173     7 142 174     5 140 172     2 137 169     3 138 170     6 141 173     8 142 174     7 141 173     6 139 173     4 137 172     4 136 174     4 136 174     4 136 174     4 136 174     4 135 173     5 134 173     5 134 173     1 130 169     2 131 170     3 132 171     5 133 172     6 134 173     4 132 171  
   6 149 181    10 153 185     8 153 184     6 150 181     9 149 182    10 150 183    10 150 182     9 149 181     8 147 180     5 145 177     7 147 180    14 154 186     4 146 178     1 144 175     1 143 175     2 145 176     5 148 179     5 149 180     2 145 177     1 141 173     9 148 179     4 140 173     4 141 173     8 145 177     6 143 175     5 141 173     7 142 173     4 139 171     5 139 172     4 138 170     4 137 170     4 138 170     4 138 171     6 137 171     6 136 170     5 136 170     3 134 170     2 133 169     1 131 168     1 131 168     2 132 169     2 132 169     2 131 168     2 128 166     4 132 170     4 132 170     3 131 168     3 129 168     2 129 167     1 128 166  
   4 147 179     6 149 181     5 149 180     4 147 179     1 141 174     1 140 173     3 143 176     6 146 180     6 146 179     4 144 177     4 144 177     8 148 180     2 143 175     1 143 175     1 144 176     2 145 177     4 147 179     5 148 180     6 149 181     7 147 180     4 143 174     2 139 171     2 139 171     6 143 175     8 145 177     7 144 176     7 142 174     9 144 175     4 137 170     4 137 170     3 136 169     5 135 169     5 135 169     5 135 169     4 134 168     4 134 168     2 132 168     1 131 167     1 130 166     1 131 167     3 133 169     4 133 169     4 132 169     3 130 167     5 133 170     4 130 168     3 129 167     1 127 165     1 126 164     1 126 164  
   2 143 173     1 142 172     3 144 174     6 147 177     6 146 179     4 143 176     4 143 176     8 147 180    10 149 182     6 145 178     1 140 173     1 139 172     1 140 173     2 142 175     3 143 176     3 143 176     2 142 175     3 143 176     5 145 178     8 148 181    11 150 181     7 146 177     7 144 176    10 147 179     9 147 179     6 143 174     5 140 172     7 142 174     2 135 168     2 135 168     4 134 168     4 134 168     4 134 168     5 133 168     5 133 168     4 132 167     3 131 168     2 130 167     2 130 167     2 130 167     4 132 169     4 132 169     4 131 168     4 129 167     4 130 168     3 129 167     1 127 165     1 125 163     1 125 163     1 125 163  
   2 141 171     2 141 171     3 144 173     7 146 177     9 147 181     7 145 179     7 145 179    10 148 181     7 146 179     3 141 175     2 140 173     3 142 175     5 143 177     4 143 176     3 141 174     2 140 174     1 141 174     2 141 174     1 141 174     2 141 174     8 147 177     5 143 174     4 140 173     6 143 175     6 143 175     2 139 171     2 137 169     3 138 170     2 135 168     4 134 168     4 134 168     4 134 168     5 133 168     5 133 168     5 133 168     5 133 168     4 132 168     4 132 168     3 131 167     2 130 166     1 129 165     1 128 164     1 126 163     1 125 162     2 127 165     1 126 164     1 125 162     1 124 161     1 123 161     1 124 161  
   4 140 170     3 141 170     3 141 170     3 141 171     3 140 174     4 141 175     6 143 177     7 144 178     3 140 174     1 136 170     3 140 174    10 147 181     8 145 179     4 141 175     2 139 173     3 140 174     7 145 178     9 146 180     5 143 177     2 140 173     1 140 171     1 137 168     1 136 168     3 140 172     4 141 173     2 139 171     3 138 170     5 139 171     4 135 169     5 135 169     5 134 169     5 133 168     5 133 168     5 133 168     5 132 167     5 132 167     3 131 166     3 131 166     4 131 166     3 130 165     2 129 164     1 128 163     1 128 163     2 128 163     2 126 162     1 125 161     1 124 160     1 123 159     1 122 159     1 123 160  
   2 136 165     1 136 165     1 136 165     1 136 166     6 143 177     5 142 178     6 143 178     7 144 179     2 139 175     1 135 171     1 136 172     5 140 176     5 140 176     4 138 175     4 139 175     7 142 178    10 145 180    10 145 181     7 142 178     4 138 173     6 144 175     3 141 172     3 140 172     5 142 174     5 143 175     3 140 172     3 138 170     4 137 170     5 135 169     5 135 169     5 133 168     4 132 167     4 131 166     3 131 166     2 130 165     2 130 165     1 127 162     2 129 164     3 130 165     2 129 164     1 127 162     1 126 161     2 127 162     4 128 164     1 125 161     1 124 160     1 122 159     1 122 159     1 123 160     2 124 160  
   1 131 160     1 132 161     1 136 165     4 139 169     1 137 169     1 134 169     1 135 170     5 139 175     7 142 177     4 139 174     3 137 172     3 137 172     1 135 170     4 138 173     7 141 176     8 142 177     5 139 175     3 137 172     1 135 170     1 133 168     1 136 168     1 134 166     1 134 166     1 138 170     4 141 173     5 140 172     5 138 171     8 139 173     5 135 169     5 133 168     4 132 167     4 131 166     2 129 164     1 128 163     1 127 162     1 125 161     3 127 163     4 128 164     5 129 165     2 126 162     1 122 158     1 120 156     1 120 156     1 122 158     2 124 161     1 123 160     1 123 160     2 122 159     3 123 160     4 124 161  
