P3
50 50
255
  93 158 176    95 160 177    97 163 179    99 165 180    99 165 181   101 164 181   102 165 181   105 168 183    98 161 176    96 159 174   103 165 178   109 170 184   107 168 181   112 170 186   112 169 186   110 167 184   110 167 185   113 172 190   109 169 187   100 162 180   103 166 184   101 165 182   101 166 184    95 160 178    89 154 172    85 152 169    81 149 169    80 149 173    70 140 165    56 126 151    49 115 142    44 111 137    39 106 132    39 105 131    38 104 130    35 101 127    34 100 126    35 101 127    35 101 127    35 101 127    30  94 119    33  98 120    33  98 120    32  97 119    34  99 121    36 101 123    36 101 123    37 102 124    36 101 123    34  99 121  
  92 159 176    96 161 178    98 164 180   100 166 182   100 166 182   101 164 181   100 163 179   102 165 180   104 167 182   102 165 180   100 162 175   103 165 178   109 171 184   113 173 188   113 170 187   111 168 185   111 169 186   112 171 189   108 169 187   102 163 181   102 165 183   101 165 183   102 167 185    96 161 179    90 155 173    85 152 169    78 147 167    76 147 170    74 144 169    60 130 155    47 114 140    42 109 135    44 111 137    42 108 134    38 104 130    35 101 127    34 100 126    34 100 126    34 100 126    33  99 123    31  96 118    34  99 121    33  98 120    32  97 119    34  99 122    38 103 125    36 101 123    33  98 120    34  99 121    34  99 121  
  93 158 176    96 161 178    99 165 181   100 167 183   100 166 182   101 164 181   100 163 179   102 165 180   107 170 185   108 171 186   106 168 181   106 168 181   112 172 186   114 172 188   114 171 188   114 171 188   113 170 188   109 168 186   105 165 183   104 165 183    99 162 180   100 163 181   101 166 184    95 160 178    89 154 172    87 154 171    82 149 169    78 147 171    71 141 166    58 128 153    46 116 141    42 111 136    42 109 135    40 107 133    37 104 130    34 100 126    32  98 124    33  99 125    33  99 125    32  98 124    33  97 122    36 101 123    35 100 122    33  98 120    36 101 123    39 104 126    38 103 125    35 100 122    35 100 122    34  99 121  
  93 160 177    96 161 178    98 164 180   100 165 182   100 166 182   102 165 182   102 165 182   105 168 183   103 166 181   107 170 185   113 175 188   111 173 186   110 172 185   112 172 187   114 171 188   115 172 189   113 171 188   108 167 185   103 164 182   105 166 184    98 161 179    98 162 180   100 165 183    93 158 176    88 153 171    85 153 170    83 152 172    81 151 175    66 136 161    54 124 149    51 121 146    45 115 140    35 102 128    37 104 130    37 104 130    34 100 126    32  98 124    33  99 125    33  99 125    33  99 125    34  98 123    37 102 124    37 102 124    35 100 122    36 101 123    38 103 125    38 103 126    40 105 127    38 103 126    35 100 122  
  94 159 177    95 161 178    97 163 179    99 165 180    99 165 181   102 165 182   103 166 182   104 167 182   101 164 179   104 167 182   110 172 185   110 172 185   112 172 186   115 173 189   113 170 187   112 169 186   114 172 189   111 170 188   106 166 185   106 167 185   100 163 181   100 164 182   100 165 183    92 157 175    86 151 169    84 152 169    82 151 171    78 150 173    65 138 161    54 126 150    49 119 144    43 113 138    33 103 128    37 105 131    38 105 131    34 101 127    32  99 125    34 100 126    35 102 128    36 102 128    33  99 123    36 102 126    36 102 126    34 100 124    34 100 124    35 101 125    35 101 125    38 104 128    37 103 127    34 100 124  
  94 161 178    95 161 178    96 162 178    97 163 179    99 165 181   102 165 182   102 165 181   102 165 180   104 167 182   106 169 184   102 164 177   102 164 177   113 175 188   116 176 191   111 169 185   109 166 183   115 172 189   115 174 192   110 170 188   107 168 186   104 167 185   103 166 184   101 166 184    92 157 175    84 149 167    84 151 168    77 146 166    71 142 165    71 142 166    59 131 155    44 114 139    38 108 133    41 111 136    42 110 136    39 106 132    35 102 128    33 100 126    36 102 128    38 104 130    38 104 130    32  98 122    36 102 126    36 102 126    33 100 123    33  99 123    33  99 123    32  98 122    34 100 124    34 100 124    33  99 123  
  95 160 178    95 161 178    94 160 176    94 160 175    97 163 179   100 163 180   100 163 180   100 163 178    99 162 177   106 169 184   106 168 181   105 167 180   113 173 187   113 171 187   115 172 189   114 171 188   109 166 183   112 171 189   115 175 193   112 173 191    96 159 177   100 163 181    94 159 177    90 155 173    94 159 177    87 154 171    77 146 166    73 144 167    60 132 156    51 123 147    38 110 134    39 111 135    39 109 134    34 104 129    33 103 128    35 102 128    34 101 127    34 101 127    33 100 126    33 100 126    37 103 127    35 101 125    34 100 124    35 101 125    38 104 128    37 102 127    33  99 123    33  99 123    35 101 125    37 103 127  
  99 166 183    98 164 181    96 162 178    95 162 178    99 164 181    99 162 179    98 161 177   102 165 180   102 165 180   107 169 184   106 168 181   108 170 183   112 174 187   111 171 186   114 172 189   112 169 186   106 164 181   108 167 185   108 169 187   104 165 183   104 167 184    99 163 181    94 159 177    90 155 173    84 149 167    81 148 165    85 154 174    86 158 181    70 142 166    60 132 156    50 122 146    48 119 143    43 113 138    34 104 129    32 102 127    34 101 127    34 101 127    35 102 128    35 102 128    35 102 128    36 102 126    37 103 127    35 101 125    35 100 125    38 104 128    37 103 127    34 100 124    33  99 123    35 101 125    37 103 127  
 100 165 183    99 164 182    97 163 179    97 163 179   101 167 183   102 164 182    99 162 179   103 166 181   106 169 184   107 170 185   105 167 180   111 173 186   114 175 188   114 171 188   116 173 190   113 170 187   107 165 182   106 165 183   105 165 183   100 161 179   108 171 189    96 160 178    93 158 176    89 154 172    80 145 163    80 147 164    89 158 178    83 156 179    68 140 164    59 130 155    53 124 149    48 120 144    39 111 135    32 103 127    32 102 127    32 102 127    33 103 128    36 103 129    37 104 130    37 104 130    33 101 124    36 104 127    36 104 127    34 102 125    35 103 126    36 104 127    34 102 125    33 101 124    34 102 125    36 104 127  
  92 159 176    97 163 180    99 165 181    98 164 180   101 167 183   105 168 185   104 167 183   103 166 181   108 171 186   106 169 184   105 167 180   112 174 187   112 174 187   114 174 189   119 176 193   117 174 191   112 170 187   110 169 187   106 166 185   102 163 181   103 166 184    94 157 175    90 155 173    88 153 171    84 149 167    84 151 169    84 153 173    71 145 167    62 135 158    55 127 151    52 124 147    46 118 142    39 111 135    35 106 130    35 105 130    34 104 129    33 103 128    36 103 129    36 103 129    37 104 130    32 100 123    37 106 128    38 106 129    35 103 126    35 103 126    36 104 127    35 103 126    33 101 124    33 101 124    35 103 126  
  90 155 173    98 164 181   101 167 183    97 163 179    97 163 179   104 167 184   106 169 185   103 166 181   108 171 186   106 169 184   105 166 180   111 173 186   112 173 186   115 173 189   119 176 193   118 174 192   114 172 189   112 171 189   108 168 186   105 166 184    99 162 180    97 160 178    90 155 173    88 153 171    92 157 175    88 155 172    78 147 167    71 144 167    65 140 163    59 134 157    56 128 152    49 121 145    46 118 142    41 113 137    38 110 134    37 107 132    34 104 129    33 103 128    33 103 128    33 103 128    32  99 125    38 105 131    39 106 132    36 103 129    36 103 129    36 103 129    35 103 129    34 101 127    33 100 126    35 102 128  
  93 160 177   102 168 185   104 170 186    97 163 179    94 160 176   100 163 180   103 166 183   103 166 181   106 169 184   108 171 186   106 168 181   110 172 185   111 173 186   114 174 189   116 173 190   115 172 189   112 170 187   110 169 187   107 167 185   106 167 185    99 162 180   101 165 183    93 158 176    88 153 171    93 158 176    86 153 171    74 143 163    74 147 170    70 145 168    62 137 160    57 129 153    48 120 144    45 117 141    43 115 139    40 112 136    38 108 133    35 105 130    34 104 129    33 103 128    33 103 128    34 101 127    37 105 131    39 106 132    37 104 130    37 104 130    37 104 130    35 102 128    34 101 127    33 100 126    35 102 128  
  98 163 181   103 168 186   104 170 186   100 166 182    99 165 181   101 164 181   102 165 181   104 167 182   106 169 184   110 174 189   109 171 184   109 171 184   112 173 186   117 175 191   117 174 191   114 171 188   111 169 186   108 167 185   105 165 183   105 166 184   100 163 181   101 165 183    97 162 180    90 155 173    87 152 170    85 152 169    81 150 170    76 150 172    70 145 168    61 136 159    57 132 155    47 121 144    43 115 139    42 114 138    40 112 136    39 109 134    35 105 130    34 104 129    34 104 129    35 105 130    35 102 128    37 104 130    38 105 131    39 105 132    40 107 133    37 104 129    35 102 128    35 102 128    33 100 126    35 102 128  
 100 165 183   101 166 184   101 167 183   102 168 184   106 172 188   105 168 185   103 166 182   106 169 184   106 169 184   113 176 191   112 174 187   109 171 184   113 175 188   119 179 193   120 178 192   115 174 188   111 170 186   107 167 184   105 166 184   106 167 185    98 161 179    97 161 178    98 163 181    92 157 175    81 146 166    85 152 171    93 162 183    82 156 178    73 148 171    63 138 161    64 139 162    54 129 152    46 121 144    41 116 139    40 112 136    37 109 133    35 105 130    35 105 130    35 105 130    37 107 132    36 103 129    37 104 130    37 104 130    39 106 132    41 108 134    37 104 130    34 101 127    35 102 128    33 100 126    35 102 128  
  93 158 176    92 157 175    97 163 179   100 165 182    98 164 180   102 165 182   107 171 187   106 169 184   104 167 182   112 175 190   110 172 185   102 164 177   113 175 188   119 180 191   116 176 187   115 175 186   117 175 190   112 173 187   104 166 181    99 162 179    98 161 179    95 159 177    93 158 178    91 156 176    88 153 175    83 149 171    80 148 172    79 150 174    75 147 171    65 137 161    50 125 148    48 123 146    46 121 144    40 115 138    34 109 132    30 105 128    32 105 128    34 106 130    35 105 130    35 105 130    33 103 129    37 107 133    38 108 134    34 104 130    30 100 126    31 101 127    33 103 129    34 104 130    35 105 130    33 103 129  
  97 162 180    96 162 179   100 166 182   101 167 183    99 165 181   103 166 183   108 171 188   105 168 183    98 161 176   106 169 184   113 174 188   109 171 184   110 172 184   117 177 188   116 176 186   115 175 186   114 174 186   108 170 183   100 163 177    95 158 173    93 156 173    92 155 174    89 154 174    86 151 173    84 149 171    82 148 172    81 149 173    81 151 176    78 149 173    69 141 165    54 129 152    49 124 147    44 120 143    39 115 138    33 109 132    30 105 128    32 106 130    35 107 131    34 105 129    34 104 129    33 103 129    36 106 131    37 107 133    34 104 130    32 102 128    32 102 128    34 104 130    36 106 132    34 104 130    32 102 128  
  99 164 182    98 163 181   100 166 182    99 165 181    98 164 180   102 165 182   106 169 185   104 167 182   100 163 178   104 167 182   111 173 186   112 174 187   110 172 185   114 175 187   115 175 185   115 175 186   115 175 187   109 171 184   102 164 179    97 160 177    94 157 175    93 157 175    89 154 174    83 149 171    79 145 167    80 146 170    81 147 172    81 149 175    78 150 174    73 145 169    59 134 157    52 128 151    46 122 145    39 115 138    34 110 133    32 107 130    34 108 131    36 108 132    33 104 129    33 103 128    33 103 129    34 104 130    35 105 131    35 105 131    34 104 130    33 103 129    34 104 130    36 106 132    33 103 129    32 102 128  
  96 161 179    96 161 179    96 162 178    96 162 178    96 162 178   101 164 181   103 166 182   104 167 182   110 173 188   108 171 186   106 168 181   109 171 184   112 174 187   114 175 186   114 174 184   115 175 186   117 178 189   113 175 188   108 171 185   106 169 186    98 161 179    96 161 180    92 158 177    83 149 170    78 144 166    79 145 169    79 148 172    76 146 171    76 148 172    75 147 171    63 138 161    55 130 153    47 123 146    39 115 138    34 110 133    33 108 131    35 109 132    36 108 132    33 104 129    32 102 127    33 103 129    33 103 129    34 104 130    35 105 130    36 106 132    34 104 130    32 102 128    33 103 129    31 101 127    33 103 129  
  94 159 177    96 161 179    97 163 179    97 163 179    99 165 181   103 166 183   104 167 184   107 170 185   113 176 191   109 172 187   107 169 182   110 172 185   112 174 187   113 173 185   113 173 184   116 176 187   117 178 189   113 175 188   108 171 185   107 170 187    94 159 177    94 159 177    90 156 176    82 148 169    77 145 168    80 148 171    81 150 173    76 146 171    75 146 170    75 147 171    63 138 161    53 128 152    43 119 142    38 114 137    34 110 133    33 108 131    36 110 133    37 109 133    35 105 130    33 103 128    33 105 130    32 104 129    33 105 130    35 107 132    35 107 132    34 106 131    31 103 128    29 101 126    30 102 127    34 105 130  
  96 161 179   100 165 182   101 167 183   100 167 183   103 169 185   107 170 187   108 171 187   110 173 188   107 170 185   106 169 184   111 173 186   115 178 190   113 175 188   112 173 184   113 173 184   115 175 186   114 175 187   109 171 185   102 165 181   102 165 182    87 152 170    87 154 171    84 152 172    80 148 170    78 146 169    81 149 172    83 152 175    79 149 174    75 147 171    74 146 170    62 137 160    49 124 148    39 115 138    37 113 136    34 110 133    33 108 131    35 109 132    38 110 134    36 107 131    36 106 131    33 105 130    34 106 131    35 107 132    35 107 132    34 106 131    34 106 131    31 103 128    29 101 126    31 103 128    34 107 132  
  97 162 180   102 167 185   104 170 186   102 168 184   104 170 186   106 169 186   106 169 185   108 171 186   103 166 181   104 168 183   112 174 187   115 177 190   116 178 191   113 174 186   113 173 184   115 174 188   114 174 188   107 169 184   101 164 180   101 164 181    90 155 173    87 154 174    84 151 172    81 148 171    78 149 171    78 148 173    79 149 174    78 148 173    72 144 168    72 144 168    61 136 159    49 125 148    41 117 140    38 114 137    34 110 133    32 107 130    34 108 132    38 110 134    38 108 133    39 109 134    34 106 131    36 108 133    38 110 135    36 108 133    33 105 130    33 105 130    33 105 130    31 103 128    33 105 130    34 106 131  
  96 161 179   102 167 185   103 169 185   101 167 183   102 168 184   102 164 182   100 163 180   103 166 181   104 167 182   108 171 186   108 170 183   109 171 184   121 183 196   116 177 188   113 173 184   116 175 189   116 176 190   111 173 188   106 168 185   105 170 188    97 164 183    92 160 179    87 156 177    82 153 174    79 150 172    76 146 171    75 145 170    74 144 169    68 140 164    70 142 166    62 137 160    53 129 152    48 124 147    40 116 139    33 109 132    31 106 129    34 108 131    38 110 134    39 110 135    41 111 136    34 106 131    39 111 136    40 112 137    36 108 133    32 104 129    33 105 130    35 107 132    35 107 132    35 107 132    34 106 131  
  96 161 179    93 158 176    97 163 179    97 163 179   100 167 182    99 162 179   106 169 186   108 171 186   107 170 185   108 171 186   106 168 181   109 171 184   111 173 186   109 169 183   111 169 183   116 175 189   115 175 190   109 171 186   106 169 185   100 165 183    91 158 177    94 161 181    88 157 178    79 150 171    75 147 169    72 144 169    70 142 166    72 142 167    70 142 166    76 148 172    66 141 164    48 123 146    44 120 143    34 110 133    26 102 125    29 104 127    32 106 130    34 106 130    35 106 131    31 101 126    41 114 139    34 108 133    31 105 130    32 106 131    34 108 133    33 107 132    31 106 131    34 108 133    35 109 134    33 107 132  
 105 170 188   100 166 183   102 168 184   100 166 182   104 170 186   104 167 184   110 173 189   106 169 184   105 168 183   108 171 186   107 169 182   111 173 186   113 175 188   111 170 184   112 170 184   116 175 189   115 175 190   108 171 187   104 168 186    99 164 182    93 160 179    89 158 177    81 152 172    75 146 168    74 146 168    70 142 166    65 137 161    70 140 165    74 145 169    68 140 164    60 135 158    56 132 154    45 121 144    38 115 137    34 110 133    36 111 134    38 112 135    39 111 135    40 110 135    35 106 130    38 112 137    35 109 134    33 107 132    34 108 133    33 107 132    29 104 129    28 102 127    33 107 132    34 108 133    35 109 134  
 106 171 189    99 164 181    99 165 181    96 162 178   100 166 182   101 164 181   108 171 187   105 168 183   105 168 183   109 172 187   109 171 184   113 175 188   116 177 190   114 172 186   113 171 185   116 175 191   115 175 191   108 169 187   104 166 184    97 161 179    92 159 179    84 153 174    73 144 166    70 142 165    69 144 167    65 140 163    61 135 158    67 138 163    71 142 167    65 137 160    59 134 157    58 133 156    47 123 146    39 115 138    34 110 133    36 111 134    37 111 134    36 108 132    37 107 132    33 103 128    37 109 134    34 108 133    34 108 133    35 109 134    34 108 133    29 104 129    27 101 126    32 106 131    34 108 133    35 109 134  
 101 166 184    96 162 179    98 164 180    96 162 178   100 166 182   100 163 180   107 170 186   106 169 184   107 170 185   110 173 188   110 172 185   113 175 188   114 176 189   114 173 187   114 172 186   116 175 191   114 174 191   107 169 186   100 165 182    93 159 176    89 157 177    81 149 171    70 141 163    64 138 160    64 139 162    61 137 160    63 137 160    68 139 163    64 135 160    69 141 165    65 140 163    53 128 151    47 123 146    40 116 139    33 109 132    35 110 133    34 108 132    34 106 130    35 106 130    32 104 128    34 108 133    33 107 132    34 108 133    35 109 134    36 110 135    34 108 133    32 106 131    33 107 132    34 108 133    33 107 132  
 100 165 183    97 163 180   103 169 185   103 169 185   107 174 189   105 168 185   110 173 190   108 171 186   108 171 186   111 174 189   110 172 185   112 174 187   114 174 188   115 173 187   114 172 186   116 175 191   114 173 190   107 168 186   101 164 182    92 157 176    86 152 174    78 147 169    70 141 163    61 135 158    56 132 155    58 134 158    63 137 161    68 139 163    66 137 162    69 142 165    64 139 162    52 127 150    46 122 145    41 117 140    36 112 135    38 113 136    37 111 135    37 109 133    41 111 136    39 111 135    39 113 138    35 111 135    34 110 134    33 109 133    33 109 133    33 109 133    33 110 133    34 110 134    31 107 131    30 106 130  
  95 160 179    95 160 178   102 168 184   103 169 185   107 173 189   103 166 183   109 172 188   108 171 186   109 172 187   112 175 190   110 172 185   111 173 186   112 174 187   113 173 187   113 171 185   115 174 190   113 172 189   106 168 186   100 164 182    90 157 175    80 149 169    74 146 166    68 141 163    59 135 157    53 129 152    54 130 154    58 131 156    65 136 161    73 145 169    64 136 160    56 131 154    55 131 154    43 119 142    37 113 135    34 110 133    36 111 134    34 108 132    34 106 130    38 109 134    39 111 135    44 118 143    40 116 140    36 112 136    32 108 132    30 106 130    30 106 130    32 108 132    35 111 135    31 107 131    29 105 129  
  96 161 179    93 158 176    99 165 181    99 165 181   104 169 185   100 164 180   107 170 186   106 169 184   108 171 186   111 174 189   110 172 185   112 175 187   114 174 188   114 172 188   112 169 186   113 172 188   113 172 189   107 168 186   101 164 182    91 156 175    79 145 167    71 140 161    66 138 160    61 135 157    53 128 151    49 127 150    50 125 149    59 130 154    71 143 167    63 135 159    53 128 151    54 129 152    43 119 142    37 113 135    33 109 132    35 110 133    32 106 129    30 102 126    34 105 129    35 107 131    39 113 138    37 113 137    35 111 135    32 108 132    30 106 130    30 106 130    31 107 131    33 109 133    31 107 131    32 108 132  
 106 172 188   101 167 183   104 170 186   103 169 185   107 173 189   106 169 186   110 173 190   104 167 182   106 169 184   110 174 189   111 173 186   113 176 188   115 175 189   115 173 187   112 169 186   113 172 188   112 172 188   106 169 185   100 164 182    90 157 175    77 145 166    66 137 158    62 135 157    60 136 158    55 130 153    47 124 148    45 121 145    51 125 148    62 134 158    65 139 163    57 132 155    45 120 143    42 118 141    44 120 143    41 117 140    41 116 139    36 111 134    33 106 130    37 109 133    39 111 135    30 104 129    31 107 131    34 110 134    34 110 134    33 109 133    32 108 132    31 107 131    30 106 130    31 107 131    34 111 134  
  98 164 178   105 170 184   105 168 183   101 164 179   104 167 182   107 169 184   105 167 182   106 168 183   106 168 183   108 170 185   111 170 186   116 175 191   115 174 189   113 172 185   122 178 193   122 179 194   118 178 193   117 178 195   104 167 185    88 153 173    85 151 173    73 142 163    64 135 158    57 131 156    50 126 150    49 126 152    53 130 155    59 134 158    67 141 166    62 137 161    52 129 152    47 123 147    40 116 140    36 112 136    39 115 139    44 119 144    39 115 139    35 110 135    36 110 135    40 114 139    35 109 134    34 108 133    33 107 132    32 106 131    34 109 134    39 113 138    39 113 138    34 108 133    35 109 134    38 112 137  
  98 164 178    98 163 178   104 167 182   106 169 184   104 167 182   106 169 184   110 173 188   109 171 186   108 170 185   106 168 183   105 165 180   113 172 188   118 177 192   115 173 186   120 176 189   116 174 189   112 172 186   111 174 189   101 166 182    89 156 173    82 150 169    69 140 161    60 133 156    54 130 153    49 125 149    47 124 150    49 125 151    53 129 153    60 136 160    57 133 157    51 127 151    46 122 146    40 116 140    36 112 136    36 112 136    36 112 136    35 111 135    34 110 134    35 110 135    36 112 136    38 112 137    36 110 135    33 107 132    30 104 129    30 104 129    31 105 130    33 107 132    34 108 133    30 104 129    31 105 130  
 101 167 181    96 161 176   104 167 182   110 173 188   103 166 181   105 168 183   113 175 190   109 171 186   110 172 187   108 170 185   105 164 180   111 170 186   118 176 192   116 173 188   119 175 189   114 172 186   110 168 183   110 170 187   103 165 183    94 158 178    81 147 169    67 136 160    59 130 154    54 127 152    48 124 148    44 121 147    46 123 148    53 129 153    59 135 159    56 132 156    53 129 153    50 126 150    47 123 147    38 113 138    32 108 132    30 106 130    31 106 131    33 109 133    34 110 134    33 109 133    41 115 140    38 112 137    35 109 134    32 106 131    30 104 129    29 103 128    32 106 131    36 110 135    28 102 127    27 101 126  
 104 170 184   100 165 179   105 168 183   108 171 186   103 165 180   103 166 181   108 170 185   106 168 183   111 173 188   114 176 191   112 171 187   113 172 188   112 171 186   114 172 185   120 177 189   116 174 189   112 172 186   111 173 188   103 168 183    96 163 180    80 148 167    65 136 157    56 130 152    52 128 152    47 123 147    43 120 146    43 120 146    50 126 150    54 130 154    53 129 153    50 126 150    48 124 148    46 122 146    38 113 138    32 108 132    30 106 130    31 106 131    34 110 134    35 112 135    36 112 136    39 113 138    38 112 137    37 111 136    36 110 135    36 110 135    35 109 134    35 109 134    38 112 137    33 107 132    30 104 129  
 101 167 181   105 170 184   105 168 183   104 167 182   107 169 184   107 169 184   105 168 183   108 170 185   108 170 185   112 174 189   115 174 190   117 176 192   111 169 186   112 168 184   118 174 188   118 176 190   117 175 190   114 174 191   103 165 183    95 160 180    82 148 170    67 136 160    58 129 154    53 126 151    46 122 146    43 120 146    43 120 145    45 121 145    47 123 147    47 123 147    45 121 145    42 118 142    39 115 139    36 112 136    35 111 135    35 111 135    34 110 134    35 111 135    38 114 138    42 118 142    38 112 137    37 110 135    37 111 136    38 112 137    38 112 137    37 111 136    35 109 134    36 110 135    36 111 136    34 108 133  
  96 163 176   102 168 182   102 165 180   102 165 180   110 173 188   111 174 189   108 171 186   112 174 189   105 167 182   105 167 182   111 170 186   118 177 193   116 175 190   111 169 181   116 172 185   117 175 189   115 175 190   110 173 188    98 163 178    91 158 175    81 149 168    68 139 160    58 132 154    51 126 150    44 120 144    43 120 146    46 123 149    49 125 149    50 125 150    51 127 151    49 124 149    45 121 145    42 118 142    38 114 138    38 114 138    39 115 139    38 114 138    38 114 138    40 116 140    44 119 144    39 113 138    35 109 134    35 109 134    35 110 135    36 110 135    34 108 133    30 105 130    34 108 133    36 110 135    32 106 131  
  99 165 179    98 164 178   102 165 180   105 168 183   108 171 186   108 171 186   109 172 187   111 173 188   106 168 183   105 167 182   109 168 184   117 176 192   118 176 193   115 171 186   117 174 187   118 176 190   117 175 190   111 171 188    98 160 178    93 158 178    82 148 170    71 139 163    60 131 155    50 123 148    41 117 141    43 120 145    49 126 151    50 126 150    51 127 151    54 130 154    54 129 154    49 125 149    45 121 145    41 117 141    39 115 139    38 114 138    39 115 139    41 117 141    41 117 141    41 117 141    40 114 139    36 110 135    34 108 133    35 109 134    36 110 135    34 108 133    32 106 131    37 111 136    36 110 135    30 103 128  
 106 172 186    97 162 177   103 166 181   108 171 186   103 165 180   101 165 180   107 170 185   107 169 184   109 171 186   111 173 188   112 171 187   117 176 192   117 176 191   117 175 188   122 178 191   121 179 193   118 178 192   111 173 188    99 164 180    96 163 180    80 148 167    69 140 161    59 132 155    47 123 146    38 115 138    43 120 146    47 124 149    41 117 141    43 119 143    47 124 147    47 124 147    43 119 143    40 116 140    41 117 141    37 113 137    35 111 135    38 114 138    43 119 143    41 117 141    36 112 136    42 115 140    37 111 136    36 110 135    37 111 136    40 114 139    39 113 138    39 113 138    43 117 142    37 111 136    28 103 128  
 106 172 186   106 171 185   106 169 184   105 168 183   105 168 183   106 169 184   104 167 182   105 167 182   111 173 188   111 173 188   113 172 188   116 175 191   117 175 191   121 177 193   119 175 188   117 175 189   118 176 190   109 169 186    94 157 175    85 150 170    77 144 166    68 137 160    57 128 153    53 126 151    41 117 141    45 122 148    46 123 148    49 125 149    46 122 146    52 128 152    50 126 150    39 115 139    35 111 135    40 116 140    39 115 139    37 113 137    41 117 141    46 122 146    44 120 144    39 115 139    43 117 142    40 115 140    41 115 140    42 116 141    39 113 138    36 110 135    38 113 138    42 116 141    35 109 134    31 105 130  
 105 171 185   106 171 185   106 169 184   103 166 181   105 168 183   106 169 184   104 166 181   106 168 183   109 170 185   107 169 184   109 168 184   113 172 188   115 174 189   119 177 190   121 177 190   120 178 192   119 179 193   112 175 190    99 165 180    89 155 173    75 144 163    67 138 159    56 130 152    50 126 149    39 115 139    44 121 147    47 124 149    54 130 154    57 133 157    55 131 155    48 124 148    43 119 143    38 114 138    37 113 137    36 112 136    36 112 136    39 115 139    42 118 142    41 116 141    37 113 137    39 114 139    37 110 135    37 111 136    38 112 137    35 109 134    33 107 132    32 106 131    34 108 133    34 108 133    33 107 132  
 103 169 183   108 173 187   105 168 183   101 164 179   105 168 183   105 168 183   103 166 181   109 171 186   109 171 186   106 168 183   108 167 183   112 171 187   116 174 191   118 174 190   122 177 191   122 180 194   119 178 192   116 176 193   106 168 186    91 156 176    77 144 166    68 137 160    57 128 152    50 124 148    37 113 137    44 121 147    46 122 148    54 130 154    63 139 163    55 131 155    46 122 146    46 122 146    42 118 142    36 112 136    36 112 136    37 113 137    38 114 138    39 115 139    39 115 139    39 115 139    39 113 138    35 110 135    36 110 135    37 111 136    34 108 133    32 106 131    30 104 129    30 104 129    35 109 134    37 111 136  
 103 170 183   109 174 189   106 169 184   101 164 179   107 170 185   107 170 185   104 167 182   113 175 190   112 174 189   110 172 187   112 171 187   115 173 190   117 176 191   115 173 186   121 177 190   122 180 194   115 175 189   113 176 191   104 170 185    87 154 171    79 147 166    65 136 157    52 125 148    48 124 147    39 115 139    43 120 146    42 118 144    46 122 146    53 129 153    50 126 150    46 122 146    44 120 144    41 117 141    36 112 136    37 113 137    39 115 139    39 115 139    38 114 138    39 115 139    41 117 141    42 116 141    39 113 138    39 113 138    40 114 139    37 111 136    36 110 135    34 108 133    33 107 132    37 111 136    39 113 138  
 105 170 185   110 175 190   108 171 186   103 166 181   109 172 187   109 172 187   107 170 185   113 175 190   112 174 189   113 175 190   115 174 190   115 174 190   116 174 190   117 173 188   123 179 192   123 181 195   118 176 191   115 175 192   106 168 187    88 152 172    83 150 172    65 133 157    49 120 144    48 122 146    42 117 141    42 119 145    40 117 142    44 120 144    43 119 143    49 125 149    48 124 148    40 116 140    38 114 138    34 110 134    36 112 136    38 114 138    37 113 137    36 112 136    37 113 137    41 117 141    43 117 142    40 114 139    40 114 139    40 115 140    39 113 138    38 112 137    39 113 138    38 112 137    35 109 134    35 109 134  
 106 172 186   107 173 187   108 171 186   107 170 185   109 173 188   111 174 189   110 172 187   110 172 187   108 170 185   111 173 188   114 173 189   113 172 188   112 171 186   118 176 188   124 181 194   126 184 198   122 182 196   117 180 195   106 171 187    90 157 174    83 152 171    63 134 154    46 119 142    45 121 145    40 116 140    42 119 145    42 118 144    49 125 149    45 121 145    52 128 152    52 128 152    39 115 139    36 112 136    33 109 133    34 110 134    35 111 135    34 110 134    34 110 134    35 111 135    39 114 139    42 116 141    38 112 137    38 112 137    39 113 138    38 112 137    38 112 137    38 112 137    38 112 137    32 106 131    31 105 130  
 106 172 186   103 169 183   107 170 185   109 172 187   108 171 186   109 172 187   113 175 190   111 173 188   106 168 183   109 171 186   113 172 188   112 171 187   114 172 189   119 175 190   121 177 190   123 181 195   125 184 198   120 180 197   107 170 188    95 160 180    82 148 170    65 134 157    49 120 145    44 118 142    36 111 135    41 118 144    43 120 145    51 127 151    52 128 152    53 129 153    49 125 149    41 117 141    38 114 138    36 112 136    36 112 136    36 112 136    36 112 136    37 113 137    38 114 138    40 116 140    42 116 141    38 112 137    38 112 137    39 113 138    38 112 137    38 112 137    38 112 137    35 109 134    33 107 132    32 106 131  
 105 171 185   100 165 179   106 169 184   110 173 188   106 169 184   109 172 187   116 178 193   114 176 191   107 169 184   108 170 185   113 172 188   115 173 190   118 177 193   117 175 190   114 172 184   118 175 190   122 182 196   116 179 195   103 168 185    95 161 178    78 146 165    65 136 157    50 123 146    42 117 140    32 108 132    41 117 141    43 119 144    47 123 147    56 132 156    52 128 152    45 121 145    45 121 145    41 117 141    40 116 140    41 117 141    40 116 140    40 116 140    42 118 142    43 119 143    44 120 144    43 119 143    39 115 139    39 115 139    40 115 140    39 115 139    39 115 139    38 113 138    33 109 133    36 112 136    36 112 136  
 100 165 180   108 173 187   111 174 189   110 173 188   113 176 191   108 171 186   105 168 183   113 175 190   113 175 190   114 176 191   115 174 190   114 173 189   113 172 188   115 174 189   117 176 190   117 177 193   113 175 190   109 174 190   104 172 188    89 160 178    81 152 172    60 133 153    54 128 150    47 122 145    41 115 140    40 114 139    39 114 138    46 122 146    48 124 148    47 123 147    42 119 142    38 114 138    37 113 137    42 118 142    38 115 138    33 109 133    35 111 135    42 118 142    45 120 145    44 120 144    43 118 143    34 110 134    44 120 144    34 110 134    32 109 132    42 118 142    33 109 133    38 114 138    33 109 133    35 112 135  
 102 170 183   108 173 187   108 171 186   107 170 185   110 174 189   110 173 188   106 169 184   109 171 186   110 172 187   111 173 188   114 173 189   114 173 189   114 173 189   116 175 189   115 174 188   114 176 191   112 176 191   107 174 190   102 170 186    89 161 176    77 150 167    59 133 152    52 127 148    48 121 144    44 116 140    44 117 142    40 114 139    41 117 141    44 120 144    46 122 146    44 120 144    43 119 143    43 119 143    41 117 141    40 116 140    40 116 140    42 118 142    44 120 144    41 117 141    36 112 136    40 119 142    37 115 138    39 117 140    37 115 138    37 115 138    38 116 139    37 115 138    40 118 141    36 115 137    37 115 138  
 106 172 186   108 173 187   106 169 184   103 166 181   108 171 186   112 175 190   108 171 186   105 167 182   106 168 183   109 172 187   113 172 188   114 173 189   115 174 190   116 175 190   112 171 185   112 174 189   114 177 192   107 172 189    99 167 183    90 160 178    72 145 164    56 130 149    49 124 145    46 119 142    42 114 138    43 115 140    40 113 138    39 114 139    42 118 142    45 121 145    46 122 146    45 121 145    46 122 146    42 118 142    42 118 142    44 120 144    45 121 145    44 120 144    41 117 141    38 114 138    38 116 139    39 118 140    33 111 134    37 115 138    39 117 140    35 113 135    40 118 141    40 118 141    38 116 139    37 115 138  
 107 173 187   107 172 186   104 167 182   103 165 180   107 170 185   112 175 190   109 172 187   105 167 182   107 169 184   110 172 187   113 172 188   114 173 189   115 174 190   116 175 190   110 170 184   110 173 188   113 177 192   105 172 188    96 164 180    88 159 174    68 141 158    55 128 148    45 120 141    41 114 137    38 110 134    37 109 134    36 111 136    41 117 141    43 119 143    45 121 145    46 122 146    45 120 145    44 120 144    41 117 141    42 118 142    43 119 143    42 118 142    42 118 142    44 120 144    48 124 148    40 118 141    37 114 138    30 108 131    34 113 135    38 116 139    34 112 135    36 114 137    37 115 138    35 113 136    36 114 137  
