P3
50 50
255
  74 149 169    68 143 163    60 137 157    62 138 158    68 142 161    85 153 172    99 161 179   105 162 179   111 167 181   113 171 182   122 182 192   117 178 188   117 179 191   107 167 182   117 174 193    66 118 140    17  60  83    21  55  79    22  54  77    21  53  76    22  53  74    21  52  73    21  52  73    23  52  74    24  52  74    23  51  72    24  52  73    25  53  74    25  52  73    24  51  72    25  53  74    25  53  74    25  53  74    24  52  73    24  52  73    24  51  70    25  52  71    27  54  73    26  52  70    27  53  70    28  54  71    28  54  71    27  53  70    29  53  70    30  53  71    27  53  70    27  53  70    28  54  71    29  55  72    30  56  73  
  72 147 166    63 139 158    59 136 156    64 139 159    67 140 159    82 149 168    98 160 177   105 162 179   111 167 181   116 172 184   119 177 188   115 173 184   118 177 190   112 171 186   103 160 179   102 157 177    19  67  89    14  53  75    17  53  75    20  52  75    22  52  76    23  54  75    25  53  75    25  53  75    24  52  74    21  52  72    22  53  73    23  54  74    24  52  73    23  51  72    25  53  74    25  53  74    25  53  74    24  52  73    24  52  73    24  51  72    25  51  71    26  53  72    27  52  72    28  54  71    30  56  73    28  54  71    27  53  70    29  53  70    29  52  70    29  52  70    27  53  70    28  54  71    29  55  72    32  55  73  
  67 142 161    60 136 155    53 130 149    58 134 150    77 149 164    90 159 175    97 161 177   109 169 183   116 173 186   120 174 188   118 171 185   118 172 186   112 169 182   111 169 182   114 171 187    95 153 170    53 106 123     7  52  72    15  57  79    21  58  80    25  55  79    28  56  80    30  56  81    25  53  76    25  56  77    24  57  78    21  56  76    19  54  74    20  54  73    23  56  75    23  54  75    24  55  76    25  56  77    25  55  76    26  54  75    27  55  76    27  55  76    25  52  72    25  52  71    25  52  71    25  52  71    25  52  71    26  52  71    28  52  70    29  52  70    29  52  70    30  53  71    30  53  71    30  54  72    31  54  72  
  76 151 170    67 143 163    59 135 155    61 134 152    75 148 163    88 157 172    94 159 175   105 164 180   112 168 184   116 169 183   115 167 181   119 171 185   117 172 185   115 172 186   114 173 187   102 163 179    75 133 149    17  70  88     7  54  74    14  53  76    13  45  68    25  52  76    25  51  76    25  52  75    23  55  76    22  57  77    20  57  76    19  55  74    19  54  73    22  55  74    23  54  75    24  55  76    24  55  76    24  53  75    24  52  74    25  53  74    26  54  75    26  53  74    26  53  72    26  53  72    26  53  72    26  53  72    27  53  72    28  52  71    30  51  70    29  52  70    30  53  71    30  53  71    30  54  72    32  53  72  
  74 149 168    64 140 159    55 131 151    64 137 155    80 152 167    93 162 177   101 166 181   109 169 184   116 172 185   117 173 186   111 164 178   115 168 182   117 173 186   114 172 186   109 171 184   108 171 186   101 162 177    43  97 115    10  57  77    17  56  79    15  46  69    29  56  80    25  51  76    25  52  75    22  54  75    22  57  77    22  57  77    20  55  75    20  53  72    21  52  72    22  53  74    23  54  75    24  55  76    23  52  73    22  50  72    22  50  71    24  52  73    27  54  75    27  54  73    27  54  73    27  54  73    27  54  73    28  54  73    29  52  71    30  51  70    30  53  71    30  53  71    31  54  72    31  54  72    31  54  70  
  69 144 163    61 137 156    54 130 150    65 139 157    82 151 167    96 163 179   103 168 184   110 170 186   116 175 189   118 174 187   111 167 180   111 166 180   113 170 183   109 170 182   101 165 177   103 169 183   109 170 186    64 118 136    16  63  83    19  58  81    23  55  78    30  57  81    24  50  75    23  50  73    22  53  74    23  55  76    22  57  77    22  55  76    21  52  73    20  51  71    23  54  75    24  55  76    24  55  76    23  52  73    21  49  71    22  50  71    23  51  72    27  54  75    27  54  73    27  54  73    27  54  73    27  54  73    28  54  73    29  52  71    31  52  71    30  53  71    30  53  71    31  54  72    31  54  72    32  53  72  
  72 147 167    67 142 162    63 139 158    65 137 156    73 142 159    90 157 173   100 164 180   104 165 179   112 170 183   112 170 182   118 176 188   111 169 181   111 170 181   107 170 181    97 163 175    99 165 179   107 168 183    79 134 152    22  70  90    12  51  74    24  55  79    23  50  74    21  48  72    20  50  72    20  52  73    20  55  75    22  56  76    24  56  77    24  53  74    22  50  71    24  55  76    25  56  77    25  56  77    24  53  75    23  51  73    23  51  72    24  52  73    25  52  73    25  52  71    25  52  71    25  52  71    25  52  71    26  52  71    29  52  71    31  52  71    30  53  71    30  53  71    31  54  72    31  54  72    32  55  71  
  72 147 166    67 143 162    66 142 161    68 141 159    74 142 159    93 159 175   103 166 182   103 165 180   110 170 184   111 169 181   122 180 192   115 175 186   111 172 183   107 171 182   100 165 177    99 167 180   106 170 185    92 147 165    32  79  99    12  51  74    23  55  78    22  51  75    27  55  79    22  52  74    21  52  73    21  53  74    23  55  76    26  56  77    26  53  75    24  51  72    26  54  76    25  56  77    26  57  78    25  54  76    24  52  74    24  52  73    25  53  74    25  52  73    25  52  71    25  52  71    25  52  71    25  52  71    26  52  71    29  52  71    31  52  71    30  53  71    31  54  72    31  54  72    32  55  73    33  54  73  
  67 142 162    62 138 157    61 137 156    74 144 163    80 147 164    99 165 181   106 172 187   104 167 181   111 172 183   109 169 180   115 175 186   113 174 185   110 173 183   105 171 182   103 169 181   104 172 185   108 172 187    81 137 154    27  76  95    15  57  78    21  56  78    27  57  80    29  57  81    25  55  77    22  53  74    20  52  73    23  55  76    26  56  77    28  53  76    27  52  74    25  53  75    24  55  76    25  56  77    25  53  75    24  52  74    25  53  74    26  54  75    26  53  74    26  53  72    26  53  72    26  53  72    26  53  72    27  53  72    29  53  71    31  52  71    31  54  72    31  54  72    32  55  73    32  55  73    32  55  71  
  69 144 163    63 138 158    59 135 155    73 143 162    79 146 163    97 163 179   104 169 185   100 162 177   105 165 180   103 162 174   103 163 175   108 170 181   109 172 182   105 169 180   104 170 182   108 176 189   106 169 184    53 107 125    11  58  78    17  56  79    17  49  72    25  55  79    20  48  72    23  53  75    22  53  74    20  52  73    22  54  75    27  56  78    29  54  76    28  53  75    23  51  73    23  54  75    24  55  76    24  52  74    24  52  74    25  53  74    26  54  75    27  54  75    27  54  73    27  54  73    27  54  73    27  54  73    28  54  73    29  53  71    31  52  71    31  54  72    31  54  72    32  55  73    32  55  73    33  54  73  
  68 143 162    61 137 156    59 135 155    69 139 158    84 151 168    93 159 175   102 167 182   106 169 183   101 164 175   111 173 184   105 166 178   111 173 184   105 168 179   106 170 181    92 158 170   115 181 195    81 142 158    21  73  91    15  58  80    18  57  80    24  56  79    22  52  75    24  52  76    25  55  77    24  56  77    21  56  76    23  55  75    25  53  75    28  51  74    28  50  73    22  50  72    25  56  76    25  56  77    24  53  75    25  53  75    25  53  74    26  53  74    27  54  75    27  54  73    27  54  73    27  54  73    27  54  73    28  54  73    28  51  70    29  50  69    29  52  70    30  53  71    31  54  72    31  54  72    32  55  71  
  68 143 162    63 138 157    63 139 159    72 142 161    82 149 166    89 155 171   101 166 182   110 173 188   107 170 183   113 175 186   108 170 181   108 170 181   112 174 185   107 169 182   103 165 178   103 166 181    36  93 110    19  67  87    15  57  78    19  56  79    23  54  78    21  50  75    23  52  76    24  56  78    24  56  77    22  57  77    24  55  77    26  54  76    29  52  75    30  52  75    23  51  73    25  56  76    26  57  78    25  54  76    25  53  75    26  54  75    26  53  74    27  54  75    27  54  73    27  54  73    27  54  73    27  54  73    28  54  73    29  52  71    30  51  70    29  52  70    30  53  71    31  54  72    32  55  73    33  54  73  
  65 140 159    61 137 156    65 141 161    75 145 164    84 149 168    89 155 171   101 166 182   112 175 189   111 174 185   114 176 187   113 173 184   109 169 179   116 175 186   109 167 180   117 175 189    58 114 131     6  59  77    16  61  82    15  55  77    20  55  79    23  52  77    21  49  73    22  51  75    24  56  78    23  58  78    22  59  78    22  57  77    26  56  77    28  54  76    28  53  75    24  52  74    25  56  77    26  57  78    25  55  76    27  55  77    27  55  76    26  54  75    26  53  74    26  53  72    26  53  72    26  53  72    26  53  72    27  53  72    28  52  71    30  51  70    30  53  71    30  53  71    32  55  73    32  55  73    32  55  71  
  62 137 156    59 134 154    64 139 158    78 147 166    87 152 170    93 159 175   101 166 182   107 170 185   109 172 185   114 174 185   115 175 186   108 166 178   110 167 180   117 171 186    91 144 160    12  65  83    10  59  79    14  56  78    19  54  78    23  55  80    24  52  76    21  49  73    23  52  76    24  55  77    22  57  77    21  58  77    22  56  77    25  55  76    27  53  75    28  53  75    26  54  76    26  57  78    26  57  78    25  55  76    28  56  78    28  56  77    26  54  75    26  53  74    26  53  72    26  53  72    26  53  72    26  53  72    27  53  72    28  52  71    31  52  71    30  53  71    31  54  72    32  55  73    33  55  74    34  55  74  
  64 139 158    60 136 155    62 138 157    72 143 162    85 150 168    96 162 178   100 165 181   102 166 179   108 170 182   114 174 186   115 173 185   108 163 177   115 168 182   118 168 184    34  83 100     5  53  73    17  62  82    15  53  76    21  54  79    27  54  81    26  52  77    24  51  75    25  54  78    22  55  76    19  56  75    18  56  75    19  55  75    22  55  75    25  53  74    26  53  74    27  55  77    26  57  78    25  56  77    25  54  76    28  56  78    28  56  77    26  54  75    26  53  74    26  53  72    26  53  72    26  53  72    26  53  72    27  53  72    28  52  71    31  52  71    30  53  71    31  54  72    32  55  73    33  55  74    33  56  72  
  67 142 161    64 140 159    65 141 160    69 139 158    81 146 164    96 162 178   100 165 181   102 164 179   112 172 186   118 176 188   111 166 179   112 165 179   121 171 186    82 130 147    11  56  75    11  56  77    14  55  77    17  53  77    22  54  79    27  53  80    27  51  77    26  51  76    27  55  79    21  55  76    18  55  74    17  55  74    18  55  74    21  54  75    25  53  74    26  53  74    28  56  78    25  57  78    24  55  76    25  54  75    29  57  79    29  57  78    26  54  75    26  53  74    26  53  72    26  53  72    26  53  72    26  53  72    27  53  72    28  52  71    30  51  70    30  53  71    30  53  71    32  55  73    32  55  73    33  54  73  
  64 139 158    66 141 160    67 143 162    70 140 159    79 146 163    96 163 178   101 166 182   103 167 180   112 175 186   114 172 184   108 164 177   113 165 180   107 155 171    37  83 101    19  62  81    13  54  76    16  52  76    19  52  77    23  51  78    24  50  77    25  49  75    27  51  77    26  54  79    21  54  75    18  55  74    17  55  74    18  56  75    21  56  76    25  54  75    27  54  75    28  56  78    25  56  77    23  54  75    25  54  75    29  57  79    28  56  77    26  54  75    27  54  75    27  54  73    27  54  73    27  54  73    27  54  73    28  54  73    29  52  71    30  51  70    29  52  70    30  53  71    31  54  72    32  55  73    32  55  71  
  61 134 153    64 139 159    67 142 162    74 144 163    81 149 166    97 162 178   103 166 183   106 168 182   112 174 185   108 168 179   113 170 183   106 161 175    80 131 146    17  64  82    19  61  83    17  55  78    23  58  82    21  52  77    22  50  76    22  48  73    24  48  74    26  52  77    25  54  78    22  54  76    19  56  75    19  56  75    20  57  76    23  56  77    26  55  76    27  55  77    26  57  78    25  56  77    23  54  75    23  54  75    28  57  79    28  56  77    26  53  74    27  54  75    27  54  75    27  54  73    27  54  73    27  54  73    28  54  73    28  51  71    29  50  69    29  52  70    30  53  71    31  54  72    31  54  71    33  54  71  
  69 142 161    59 134 153    64 138 156    72 143 159    83 150 166    96 162 176   100 164 178   103 166 179   111 173 185   111 175 185   107 171 181   104 167 178    83 141 155    19  69  86    21  63  85    16  51  75    23  55  79    22  53  75    23  54  75    25  53  75    25  53  75    25  54  76    24  55  76    22  54  75    24  56  77    25  57  78    23  55  76    26  58  79    26  57  78    21  52  73    21  53  74    20  55  77    22  56  78    23  55  76    24  55  76    23  54  75    23  53  75    26  54  75    25  52  73    25  52  73    25  52  73    26  52  73    28  53  74    29  51  72    29  50  71    29  50  69    31  53  71    34  57  73    35  57  71    35  57  70  
  69 142 161    59 132 151    63 137 155    75 145 161    86 152 168   100 163 178   103 165 180   104 166 179   109 172 183   108 172 182   105 172 181   103 169 179    92 153 166    33  86 103    18  61  83    18  53  79    23  54  79    22  53  75    23  54  75    23  54  75    23  54  75    24  55  76    24  55  76    22  53  75    24  55  76    24  55  76    22  53  74    25  56  77    25  56  76    20  51  72    21  53  76    20  55  77    21  56  78    22  55  76    23  55  76    23  54  75    23  53  75    27  55  77    27  54  76    26  53  74    26  53  74    27  54  75    30  54  76    31  52  74    30  51  72    30  51  70    31  53  71    33  56  72    35  57  71    36  55  69  
  71 144 163    63 137 156    61 135 153    73 143 160    84 151 167    98 163 177   104 166 181   105 167 180   109 172 183   106 173 182   105 173 182   103 169 179   105 166 179    56 110 127    14  57  79    20  56  82    23  54  79    22  53  75    23  54  75    23  54  75    23  54  75    24  55  76    24  55  76    22  53  75    23  54  75    21  52  73    20  51  72    22  53  74    23  54  75    19  51  72    20  55  77    20  55  77    22  57  79    23  56  77    23  55  76    23  54  75    24  55  76    28  56  78    28  55  76    28  55  76    28  55  76    28  55  76    30  55  77    30  53  75    31  52  73    31  52  71    31  52  71    34  55  71    33  55  68    32  54  65  
  72 145 164    72 145 164    62 136 154    70 140 156    81 147 164    97 160 175   103 166 180   106 168 181   110 173 184   110 174 184   106 173 182   101 167 176   110 171 184    76 129 146    10  56  77    19  56  82    20  54  78    22  53  75    23  54  75    23  54  75    23  54  75    24  55  76    24  55  76    24  55  76    22  53  74    21  52  73    20  51  72    22  53  74    23  54  75    22  53  74    22  54  77    21  56  78    22  57  79    23  56  77    24  56  77    24  55  76    24  54  76    27  55  77    28  55  76    28  55  76    28  55  76    28  55  76    30  54  76    32  54  75    32  53  74    31  52  71    32  53  72    33  55  70    32  54  67    33  52  66  
  65 139 158    71 145 164    67 141 159    72 143 159    79 147 163    93 159 173   102 165 180   105 167 180   108 171 182   107 174 183   106 174 183    97 164 173   108 169 182    88 143 159    16  61  82    16  53  79    21  54  79    22  53  75    23  54  75    23  54  75    23  54  75    24  55  76    24  55  76    25  55  77    23  54  75    21  52  73    21  52  73    23  54  75    23  54  75    23  55  76    21  56  78    21  56  78    23  58  80    24  57  78    24  56  77    24  55  76    25  55  76    26  54  76    27  54  75    27  54  75    27  54  75    27  54  75    28  53  75    31  54  75    33  54  73    32  53  72    32  53  72    33  55  70    34  53  67    33  53  64  
  58 131 150    63 136 155    71 145 163    80 151 167    84 151 167    94 160 174   103 164 179   105 164 178   105 167 179   105 169 179   108 175 184    95 161 171   101 163 176    96 151 168    30  77  97    12  51  76    20  55  79    22  53  75    23  54  75    23  54  75    23  54  75    24  55  76    24  55  76    25  56  77    23  54  75    22  53  74    24  55  76    25  56  77    23  54  75    24  55  76    23  55  78    22  57  79    23  58  80    24  57  78    25  57  78    25  56  77    24  54  75    26  54  76    27  54  75    27  54  75    27  54  75    27  54  75    28  53  75    30  53  75    32  53  72    31  52  71    32  53  70    34  55  69    34  53  67    34  52  64  
  61 134 153    60 133 152    70 144 162    83 156 171    87 154 170    95 160 175   103 165 180   104 165 178   105 167 179   106 170 180   108 175 184    95 161 171    95 158 171   102 160 176    50  99 119     8  50  74    21  56  79    22  53  75    23  54  75    23  54  75    23  54  75    24  55  76    24  55  76    25  55  77    22  53  74    21  52  73    25  56  77    25  56  77    22  53  74    22  54  75    22  57  79    22  57  79    24  59  81    25  58  80    25  57  78    25  56  77    25  55  77    26  54  76    27  55  76    29  56  77    29  56  77    28  54  75    28  53  74    31  54  73    31  54  72    31  52  69    33  53  70    36  55  70    35  54  68    35  53  65  
  69 142 161    63 137 156    65 139 157    81 153 169    87 154 170    94 160 174   105 165 180   107 166 180   109 170 182   111 173 184   111 175 185    96 162 172    93 156 169   107 165 181    63 114 133     6  50  73    20  56  79    22  53  75    23  54  75    23  54  75    23  54  75    24  55  76    24  55  76    24  55  76    20  51  72    21  52  73    25  56  77    25  56  77    21  52  73    22  53  74    24  56  79    22  57  79    24  59  81    25  58  80    25  57  78    25  56  77    26  55  77    28  56  78    29  57  78    30  57  78    30  57  78    30  56  78    30  55  76    30  54  72    30  53  71    31  52  69    32  52  69    36  55  69    36  54  67    36  52  65  
  61 134 153    61 134 153    61 135 153    66 138 154    83 153 168    95 161 175    97 160 174   106 166 180   112 173 185   108 172 182   100 167 176   101 168 178    96 161 173    97 156 172    84 138 156     5  50  73    15  55  77    21  54  76    23  54  75    23  54  75    24  55  76    24  55  76    25  56  77    24  55  76    22  53  74    21  52  73    22  53  75    25  56  77    24  55  76    21  53  74    24  59  81    23  58  80    22  57  79    23  56  77    24  56  77    26  57  78    27  57  79    28  56  78    28  55  76    28  55  76    27  54  75    27  53  75    27  52  73    30  53  72    30  53  69    30  51  68    33  54  70    38  57  71    37  53  67    34  48  60  
  58 131 150    61 135 154    63 137 155    74 146 161    85 154 169    95 161 175   103 165 180   107 166 180   109 169 180   111 173 184   110 174 184   102 168 178   100 165 177    95 156 170    90 144 162    20  67  89    14  54  76    21  54  75    23  54  75    23  54  75    23  54  75    24  55  76    24  55  76    23  54  75    22  53  74    21  52  73    22  53  75    25  56  77    24  55  76    23  54  75    25  57  80    23  58  80    22  57  79    22  55  76    24  56  77    26  57  78    26  56  78    27  55  77    28  55  76    28  55  76    27  54  75    27  53  75    27  52  73    30  53  72    30  53  69    30  51  68    36  55  69    38  55  70    36  51  65    33  45  58  
  55 129 148    63 137 156    64 140 157    75 148 164    83 152 167    92 160 173   105 167 182   107 166 180   105 165 177   111 173 184   114 178 188   100 167 177   101 166 178    95 156 171    99 156 173    38  89 110    13  55  76    21  54  75    22  53  74    22  53  74    23  54  75    23  54  75    23  54  75    23  54  75    22  53  74    22  53  74    22  53  75    24  55  76    24  55  76    22  54  75    22  57  79    22  57  79    21  56  78    22  55  76    23  55  76    25  56  77    26  55  77    27  55  77    28  55  76    27  54  75    27  54  75    27  54  75    28  53  74    29  53  71    30  53  69    31  53  67    36  55  69    37  54  69    34  48  62    30  42  55  
  58 131 150    66 139 158    66 142 159    69 143 159    78 148 163    88 155 169   100 162 176   106 165 179   108 167 179   109 171 182   108 172 182    99 166 175    98 163 175    96 159 173   109 167 183    50 101 122    12  56  76    20  53  75    22  53  74    22  53  74    22  53  74    22  53  74    22  53  74    22  53  74    22  53  74    22  53  74    23  54  75    24  55  76    24  55  76    24  55  76    23  55  78    21  56  78    21  56  78    22  55  76    23  55  76    24  55  76    25  55  76    27  55  77    27  54  76    27  54  75    27  54  75    27  54  75    28  53  74    29  53  71    30  53  69    32  54  68    36  55  70    37  52  67    32  45  59    29  39  51  
  60 133 153    66 140 159    66 142 159    67 141 156    81 153 167    92 159 173    94 156 171   106 165 179   112 171 183   104 165 177   102 167 177   102 170 179    92 159 171    97 161 175   111 170 186    47 102 122    10  54  75    20  54  75    22  53  74    22  53  74    21  52  73    21  52  73    21  52  73    22  53  74    22  53  74    23  54  75    23  54  75    23  54  75    24  55  75    23  55  76    20  55  77    21  56  78    21  56  78    22  55  76    23  55  76    24  55  76    24  54  76    27  55  77    28  55  76    28  55  76    28  55  76    28  55  76    29  54  75    28  54  72    31  54  70    33  55  69    36  55  69    36  52  65    31  44  56    28  38  48  
  63 136 155    63 137 156    64 140 157    71 145 160    88 160 174    97 165 178    95 157 171   108 166 180   114 174 186   100 162 173   103 167 177   106 173 183    92 159 171    95 159 173   105 164 180    45  99 119     8  52  72    20  54  75    22  53  74    22  53  74    21  52  73    21  52  73    21  52  73    21  52  73    22  53  74    23  54  75    23  54  75    23  54  75    24  55  75    25  56  77    22  54  77    21  56  78    21  56  78    22  55  76    23  55  76    24  55  76    24  54  76    27  55  77    28  55  76    29  56  77    29  56  77    29  55  77    30  55  76    28  54  72    31  54  70    33  55  69    35  53  68    34  50  63    32  43  56    30  38  51  
  62 135 154    57 131 150    62 137 155    74 148 163    87 159 173    96 163 177    98 160 175   108 167 181   112 172 183   102 164 175   107 171 181   102 170 179    95 162 174    91 155 169    99 158 174    54 111 130    10  54  75    21  55  76    23  54  75    22  53  74    22  53  74    21  52  73    21  52  73    21  52  73    23  54  75    24  55  76    23  54  75    22  53  74    23  54  75    24  56  77    20  55  77    21  56  78    22  57  79    23  56  77    24  56  77    24  55  76    24  55  76    28  56  78    29  56  77    29  56  77    30  57  78    31  57  78    32  57  78    29  55  73    29  55  70    32  55  69    35  53  68    34  49  63    33  44  56    32  40  51  
  60 133 152    52 126 145    59 135 152    73 146 162    80 150 165    88 155 169    99 161 176   106 166 180   108 168 180   106 168 179   109 173 183    97 163 173    98 164 176    87 151 166    93 156 171    67 125 143    14  61  80    20  55  76    23  54  75    22  53  74    24  52  74    24  52  74    23  51  73    21  52  73    23  54  75    24  55  76    23  54  75    22  53  74    24  53  75    25  56  77    22  54  77    21  56  78    23  58  80    24  57  78    24  56  77    24  55  76    24  55  76    28  56  78    29  57  78    30  57  78    31  58  79    31  58  79    32  58  79    30  56  74    30  56  71    32  55  71    34  52  67    34  49  63    34  45  57    34  42  53  
  62 138 154    65 142 158    64 141 157    71 144 159    82 149 165    91 157 171    98 163 177   106 169 181   108 170 181   105 167 178    89 151 162   108 172 182   102 167 179    80 146 159    94 160 174    72 137 153    20  74  91    22  63  82    16  50  70    26  54  76    22  48  71    23  49  71    29  55  78    23  51  73    23  54  75    22  54  75    22  54  75    25  55  76    27  54  77    27  55  77    23  55  78    22  57  79    19  54  76    21  54  75    22  54  75    21  53  74    26  57  78    27  58  79    27  58  78    29  58  79    30  58  79    30  58  79    32  59  80    31  58  78    32  58  75    34  57  73    34  55  69    33  50  62    30  44  54    29  39  48  
  66 142 158    68 145 160    66 143 159    74 145 161    85 152 168    93 159 173    98 163 177   102 166 178   104 167 178   104 166 177   115 177 188   101 164 175    94 158 170    79 145 158    83 149 163    84 151 167    52 109 125    15  57  76    18  52  73    22  50  72    24  50  73    28  52  76    30  55  78    25  53  75    23  54  75    22  54  75    22  54  75    25  55  76    27  53  76    28  54  77    24  56  79    23  58  80    20  55  77    22  55  77    24  56  77    22  54  75    25  57  78    24  55  76    25  55  76    25  56  76    27  55  76    28  56  77    28  56  77    29  57  76    31  57  74    32  55  71    32  53  67    31  49  61    29  44  53    30  40  49  
  61 137 153    62 139 155    61 137 152    72 144 158    86 153 169    95 161 175    97 163 176   101 165 177   105 167 179   107 169 180   115 177 188    96 159 170    97 161 173    90 155 168    85 151 165    93 159 175    70 128 144    14  59  76    20  57  76    18  50  70    24  50  73    29  53  77    27  52  76    26  53  76    22  54  75    20  55  75    21  55  75    25  55  76    27  53  76    27  53  76    24  56  79    24  59  81    21  56  78    23  56  78    25  57  78    23  55  76    25  57  78    24  55  76    24  55  75    24  55  75    27  55  76    27  55  76    27  55  76    28  55  75    29  55  72    30  53  69    29  50  64    30  47  59    29  44  53    31  42  48  
  68 144 160    70 146 162    69 145 161    72 143 159    84 151 167    94 160 174    97 162 175   101 165 177   107 169 181   112 174 185   100 162 173    99 161 173   100 164 176    92 158 171    96 162 176    97 163 179    72 130 146    25  70  88    17  55  74    22  53  74    22  48  71    28  52  75    25  50  73    26  53  75    23  54  75    22  54  75    22  54  75    24  54  75    25  52  75    26  52  75    23  55  78    23  58  80    21  56  78    23  56  78    24  56  77    22  54  75    25  57  78    26  57  78    26  57  77    26  57  77    29  57  78    29  57  78    30  57  77    30  57  75    31  54  70    30  52  66    30  48  62    30  46  58    31  44  54    33  44  50  
  71 147 163    71 147 163    69 146 161    74 145 160    85 152 168    95 161 175    97 163 176   101 165 177   107 169 181   112 174 184   105 167 178   103 166 177    93 157 169    84 150 163    97 163 177    98 165 181    81 139 155    41  88 105    11  51  69    26  58  79    20  47  70    25  51  74    26  52  75    26  53  75    22  54  75    20  55  75    21  55  75    24  54  75    25  52  75    26  52  75    22  54  77    22  57  79    21  56  78    23  56  78    23  55  76    21  53  74    25  56  77    26  57  78    26  57  77    26  57  77    29  57  78    29  57  78    30  57  77    31  58  75    33  56  72    31  52  67    30  48  62    31  47  57    33  46  54    35  46  52  
  68 144 160    65 141 157    62 139 155    75 146 162    89 156 172    97 163 177    98 164 177   100 164 176   103 165 177   105 167 178   111 173 184   102 164 176    95 159 171    91 157 170    94 160 174    91 158 174    89 149 164    60 110 126    11  54  71    23  59  78    21  52  73    26  52  75    31  57  80    26  54  76    23  54  75    22  54  75    22  54  75    23  53  74    25  51  74    25  51  74    21  53  76    21  56  78    20  55  77    23  56  78    23  55  76    20  52  73    23  55  76    24  55  76    24  55  75    24  55  75    27  55  76    27  55  76    28  55  75    31  58  75    34  55  72    34  53  67    32  49  63    32  47  58    32  45  53    34  44  51  
  75 151 167    73 149 165    71 147 162    80 151 166    90 157 173    97 163 177   100 165 178   102 166 178   103 165 176   101 163 174   105 167 179   101 164 175   100 164 176    98 163 177    93 159 173    87 153 169    91 153 168    80 132 147    22  69  85    17  56  74    25  57  78    24  52  74    29  56  79    24  55  76    22  54  75    20  55  75    20  54  75    23  53  74    25  51  74    23  51  73    21  53  76    22  57  79    21  56  78    24  57  79    24  56  77    21  53  74    23  55  76    24  55  76    25  55  76    25  56  76    27  55  76    28  56  77    29  56  76    32  57  73    34  56  70    34  53  66    31  49  60    30  46  55    30  43  51    31  42  46  
  71 147 163    71 147 163    71 147 163    79 150 166    87 154 170    95 161 175    99 165 178   104 168 180   105 167 179   102 164 175   102 164 175   104 167 178    96 160 172    87 152 166    90 156 170    92 158 174    95 157 171    94 149 163    36  85 101    10  52  70    27  62  82    20  51  72    25  52  74    25  53  75    23  54  75    22  54  75    22  54  75    23  53  74    24  51  73    23  51  73    22  54  77    24  59  80    23  58  80    25  58  80    25  57  78    22  54  75    25  56  77    27  58  79    27  58  78    28  59  79    30  58  79    30  58  79    32  59  79    33  57  74    35  54  68    34  52  65    33  48  60    31  45  53    30  41  48    29  38  43  
  65 140 156    70 146 162    69 145 160    80 151 166    96 163 179    97 162 177    96 161 175   108 172 184   111 174 185   106 168 179   109 171 182   112 175 186   106 170 182    99 164 177    91 158 171    84 151 167    87 152 166   107 166 179    88 139 154     8  51  68    23  58  78    20  51  72    23  51  73    23  53  74    24  55  76    23  55  76    23  55  76    24  55  76    25  54  76    26  54  76    21  53  76    19  54  76    20  55  77    22  55  76    24  56  77    25  57  78    26  58  79    28  59  80    25  56  76    29  59  79    32  59  80    27  55  76    27  55  75    35  58  74    36  55  69    32  49  61    29  45  55    31  44  53    32  43  50    33  42  47  
  64 140 156    66 142 158    67 144 160    75 146 162    88 155 171    92 158 172    94 159 173   104 168 180   107 169 181   106 168 179   105 168 179   111 173 185   103 167 179    91 156 169    85 151 165    88 155 170    97 162 176   103 165 177   100 155 168    30  77  93    18  54  74    25  56  77    24  52  74    26  55  77    25  56  77    24  56  77    24  56  77    26  56  77    28  54  77    27  55  77    21  53  76    20  55  77    21  56  78    23  56  77    24  56  77    25  57  78    26  58  79    27  58  79    25  56  76    29  59  79    32  59  81    28  56  77    28  56  76    34  58  73    37  55  68    33  49  59    31  45  53    32  44  51    33  42  48    34  41  47  
  66 142 158    65 141 157    69 145 160    76 147 162    85 152 168    91 157 171    96 161 175   100 164 176   100 162 174   104 166 177   104 166 177   106 168 180    97 161 173    88 154 167    87 153 167    90 158 173    95 163 175    97 162 173   110 168 180    62 110 125    10  48  67    27  59  80    22  52  73    26  56  77    25  56  77    24  56  77    24  56  77    25  56  77    26  55  77    27  55  77    22  54  77    20  55  77    21  56  78    23  56  77    25  57  78    25  57  78    26  57  78    26  57  78    25  56  76    28  59  79    31  59  80    29  57  78    29  56  76    34  57  73    35  53  65    32  49  58    31  45  53    32  44  51    33  42  47    34  42  45  
  71 147 163    68 144 160    71 147 163    80 151 167    89 156 172    96 162 176   101 166 179    99 163 175    96 158 170   104 166 177   107 169 179   101 163 174    91 155 167    92 158 171    96 162 176    86 154 169    83 151 164    94 161 171   110 170 182    88 138 152     8  48  66    24  55  77    22  51  73    24  54  75    24  55  76    23  55  76    23  55  76    24  55  76    25  54  76    26  54  76    23  55  78    21  56  78    22  57  79    23  56  77    25  57  78    25  57  78    25  57  78    26  57  78    25  56  76    27  58  78    31  59  80    30  58  79    30  57  76    34  56  70    35  52  63    33  47  56    31  43  52    33  42  50    34  41  47    33  41  44  
  74 150 166    69 145 161    68 145 160    80 151 165    91 158 174    98 164 178   101 167 180   100 164 176    97 159 171   105 167 178   112 174 185   103 165 177    91 155 167    92 158 171    95 161 175    83 150 166    79 148 160    96 165 174   105 167 177   104 157 170    25  65  83    20  53  74    24  53  75    23  51  73    23  54  75    22  54  75    22  54  75    23  54  75    24  53  75    23  54  75    24  56  79    22  57  79    22  57  79    23  56  77    25  57  78    25  57  78    25  57  78    25  56  77    25  57  77    27  58  78    30  58  79    30  59  80    30  57  76    33  54  69    33  50  60    31  45  54    31  44  51    32  43  48    33  43  46    33  41  44  
  74 150 167    69 145 161    63 140 156    74 145 161    88 155 171    95 161 175    97 162 176    99 163 175    99 162 173   106 168 179   114 176 187   108 171 182    95 159 171    86 151 165    86 152 166    85 152 168    87 157 169    97 169 177   102 167 177   113 166 180    55  97 114    21  55  75    26  56  77    23  51  73    24  52  74    22  53  74    21  53  74    22  53  74    23  52  74    22  53  74    24  56  79    22  57  79    22  57  79    23  56  77    24  56  77    24  56  77    24  56  77    26  57  78    27  58  78    26  57  77    30  58  79    30  59  80    30  57  76    30  51  66    33  47  58    31  44  53    31  43  50    33  43  48    34  42  46    33  41  44  
  72 148 164    70 146 162    64 140 155    73 144 159    89 156 172    95 161 175    94 160 173   100 164 176   103 165 177   106 168 179   110 172 183   107 170 182    96 160 172    89 154 168    89 155 169    89 156 172    89 160 172    92 166 174   103 170 179   113 167 181    83 125 143    22  57  77    24  53  75    25  53  75    23  54  75    22  54  75    22  54  75    23  54  75    24  53  75    23  54  75    23  55  78    21  56  78    21  56  78    22  55  76    23  55  76    23  55  76    24  56  76    27  58  79    28  59  79    26  57  77    29  57  78    30  58  79    28  55  74    30  50  63    32  46  55    31  44  52    31  43  50    33  43  48    33  41  45    33  41  44  
  71 145 161    74 150 166    69 144 159    78 148 163    96 162 176    99 164 178    96 159 173   102 165 177   105 167 178   104 166 177   107 169 179   102 163 175    95 158 170    98 162 176   101 167 181    92 158 172    86 155 167    89 158 167   108 172 182   109 165 178    95 143 159    19  58  77    15  49  69    25  55  76    26  54  76    26  54  76    26  54  76    25  55  76    24  55  76    23  55  76    23  55  76    21  56  78    21  56  78    22  55  76    23  55  76    23  55  76    23  56  76    27  59  80    28  59  80    26  57  77    28  56  77    30  59  77    29  55  72    30  49  61    32  45  53    32  42  51    31  42  48    33  42  47    33  41  45    32  40  43  
