P3
50 50
255
  44 153 173    48 157 177    50 159 179    46 155 175    46 153 173    49 156 176    52 159 177    52 159 177    48 157 177    50 159 179    53 162 182    52 161 181    47 155 175    44 153 173    49 158 178    59 168 188    45 154 174    49 158 178    50 159 179    47 156 176    47 156 176    50 159 179    50 159 179    47 156 176    46 157 176    43 154 173    41 152 171    42 153 172    46 157 176    47 158 177    45 156 175    42 153 172    40 150 170    47 158 177    52 163 182    49 160 179    45 155 175    45 155 175    46 157 176    47 158 177    51 160 180    52 159 179    53 159 179    54 161 181    53 160 180    49 156 176    50 155 175    54 159 178    60 165 184    59 164 183  
  56 165 185    45 153 173    43 151 170    51 160 179    54 160 180    45 151 171    44 151 169    52 159 177    53 160 180    51 160 179    52 161 180    56 164 184    54 163 182    52 160 180    53 162 181    57 165 185    50 158 178    52 160 179    50 159 178    46 155 174    46 154 174    49 157 176    50 158 177    46 156 175    49 158 177    45 156 174    42 153 171    43 153 172    46 156 175    47 158 177    46 157 175    44 155 173    46 156 175    49 160 178    51 162 180    50 161 179    50 161 179    52 162 181    51 162 180    49 158 177    51 158 178    50 156 176    50 157 176    52 159 178    53 160 179    53 159 179    57 162 181    62 167 186    60 164 183    61 165 184  
  57 164 184    52 159 179    49 156 174    52 159 177    56 161 180    55 160 179    53 158 177    53 159 178    55 162 180    53 160 178    53 160 178    57 164 182    57 164 182    53 160 178    51 158 176    52 159 177    59 166 184    60 167 185    58 165 183    56 163 181    55 162 180    56 163 181    56 163 181    54 162 180    53 163 180    51 161 178    48 158 175    48 158 175    50 160 177    51 161 178    51 161 178    50 160 177    46 156 173    48 158 175    48 158 175    48 158 175    50 160 177    53 163 180    52 162 179    47 157 174    55 162 182    53 160 180    52 159 177    54 161 179    55 160 179    55 160 179    60 165 184    65 170 189    61 164 181    61 164 181  
  48 155 175    52 160 180    54 159 178    50 155 174    50 155 174    55 160 179    56 161 181    54 159 178    52 157 176    52 157 176    53 159 178    57 162 181    55 161 180    54 160 178    55 161 180    59 165 184    56 162 181    57 163 182    58 164 183    60 165 184    59 165 184    58 163 182    56 162 181    55 162 180    55 165 183    54 164 180    52 162 179    51 161 178    52 162 179    53 163 180    53 163 180    53 163 180    45 155 172    48 158 175    50 160 177    48 158 175    49 159 176    51 161 178    52 162 179    50 160 177    58 165 183    56 162 181    57 162 181    59 164 183    59 164 183    56 161 180    60 163 181    64 167 185    64 167 184    63 166 183  
  55 162 182    50 157 177    52 157 176    59 164 183    56 161 180    48 153 173    51 156 175    62 167 186    61 166 185    61 166 185    62 167 186    62 167 186    59 164 183    56 161 180    58 163 182    63 168 187    54 159 178    53 158 177    56 161 180    60 165 184    60 165 184    57 162 181    55 160 179    55 162 180    55 162 180    53 163 180    53 163 180    52 162 179    52 162 179    51 161 178    50 160 177    50 160 177    44 154 171    48 158 175    50 160 177    48 158 175    46 156 173    49 159 176    51 161 178    51 161 178    56 161 180    55 160 179    58 163 182    62 167 186    62 167 186    59 164 184    63 166 183    66 169 186    64 167 184    61 164 181  
  61 166 185    54 159 178    54 159 178    63 168 187    65 168 187    59 162 181    60 163 180    69 172 189    65 170 188    63 168 186    62 167 186    63 169 187    62 167 186    57 162 181    54 159 178    55 160 179    60 165 184    57 162 181    57 162 181    59 165 183    59 164 184    57 162 180    57 162 181    59 166 184    53 160 178    52 162 179    53 163 180    53 163 180    52 162 179    50 160 177    49 159 176    48 158 175    47 157 174    48 158 175    47 157 174    45 155 172    46 156 173    50 160 177    49 159 176    46 156 173    56 161 180    55 160 179    56 161 180    60 165 184    61 166 184    60 165 184    65 168 185    70 173 190    64 167 184    61 165 181  
  56 158 177    57 159 178    57 160 179    58 161 177    60 163 181    66 169 185    68 170 187    63 166 182    57 160 177    53 159 174    56 158 177    59 164 179    64 167 185    62 167 183    58 162 181    55 160 176    64 168 187    60 165 180    56 161 180    57 163 178    56 161 180    55 161 177    57 162 181    61 167 182    51 158 176    53 162 177    56 165 182    56 165 180    54 163 179    50 160 174    50 159 175    50 159 174    54 163 180    51 160 175    48 157 174    49 158 173    53 162 179    56 165 180    54 163 180    51 158 175    61 166 184    57 162 180    57 161 180    60 165 183    59 164 182    59 165 181    64 170 186    69 173 189    67 171 187    68 172 186  
  63 161 180    59 157 176    62 162 179    64 165 180    58 160 176    58 161 176    62 165 180    59 162 177    62 164 179    64 166 181    64 166 182    61 164 179    63 165 181    66 169 184    65 168 184    62 165 180    60 163 179    60 163 178    57 163 178    58 164 178    57 163 178    58 164 178    59 165 180    60 166 180    50 158 172    54 162 175    58 166 180    57 165 178    53 161 175    51 159 172    53 161 175    56 164 177    57 164 179    53 161 174    53 161 175    57 165 178    59 166 181    55 163 176    54 161 176    55 163 177    65 170 186    62 165 182    64 167 184    65 169 186    59 165 180    63 169 183    67 174 187    64 171 184    64 170 184    71 177 190  
  68 167 184    64 163 180    65 165 181    65 165 180    57 159 174    58 160 175    62 165 180    59 162 177    65 167 182    67 169 184    66 168 183    63 165 180    62 165 180    64 167 182    64 167 182    61 164 179    56 158 173    59 162 177    59 165 179    60 166 180    58 164 178    57 163 177    57 163 177    58 164 178    54 162 175    56 164 177    59 167 180    58 165 179    54 162 175    53 161 174    55 163 176    58 166 179    61 169 182    57 165 178    55 163 176    58 165 179    58 166 179    55 163 176    54 162 175    55 163 176    61 164 181    67 170 187    71 176 192    61 167 183    53 159 173    61 169 182    68 176 189    60 168 181    65 172 184    70 176 189  
  67 167 183    65 165 181    69 169 184    66 168 183    59 162 177    62 164 179    67 169 184    62 165 180    61 163 178    64 166 181    64 166 181    61 163 178    59 162 177    60 163 178    60 163 178    58 161 176    59 162 177    62 164 179    64 169 184    64 169 184    61 167 181    59 165 179    60 167 180    62 168 182    56 164 177    58 166 179    59 167 180    60 168 181    59 167 179    57 165 179    57 165 178    57 165 178    62 170 183    59 167 180    57 165 178    58 166 179    60 168 181    59 167 180    60 168 181    60 168 181    61 164 181    65 168 185    68 174 190    63 169 185    54 162 175    64 172 184    72 179 193    64 172 185    69 177 189    67 175 187  
  64 166 181    65 167 182    71 173 188    70 172 187    63 166 181    66 169 184    68 171 186    61 164 179    62 164 179    66 168 183    66 169 184    63 166 181    62 165 180    64 167 182    65 168 183    64 167 182    61 167 181    62 168 182    62 168 182    61 167 181    59 167 180    59 167 180    62 170 183    64 172 185    55 163 176    57 165 178    59 167 180    62 170 183    63 171 184    61 169 182    57 165 178    54 162 175    55 163 176    54 163 176    55 163 176    56 164 177    59 167 180    63 171 184    65 173 186    65 173 186    69 173 190    62 165 182    63 169 185    67 173 189    63 171 184    65 173 186    69 177 190    68 176 189    69 177 189    65 173 185  
  63 165 180    67 169 184    73 175 190    71 173 188    65 168 183    68 171 186    69 172 188    59 162 178    62 164 179    67 169 184    68 171 186    64 167 182    61 164 179    63 166 181    64 168 183    64 168 183    60 166 180    59 165 179    56 163 177    56 163 176    57 165 178    58 166 179    59 167 180    59 167 180    56 165 177    55 164 177    55 164 177    58 167 180    61 170 183    60 169 182    55 164 177    51 160 173    50 158 171    52 161 174    53 162 175    54 162 175    57 166 179    62 171 184    64 172 185    62 170 183    71 177 193    63 167 183    63 169 185    67 173 189    63 171 184    63 170 184    65 174 187    64 172 185    66 174 186    66 173 186  
  61 164 179    65 168 183    71 174 189    68 171 186    63 166 181    70 173 188    75 178 195    65 168 185    63 166 181    68 171 186    69 172 187    64 167 182    60 163 178    61 164 179    60 166 180    61 167 181    59 165 179    56 162 176    53 161 174    55 163 176    59 167 180    60 168 181    57 165 178    53 161 174    57 167 180    53 163 176    50 160 173    52 162 175    56 166 179    57 167 180    55 165 178    51 161 174    53 163 176    56 166 179    57 167 180    55 165 178    57 167 180    62 172 185    61 171 184    57 166 179    62 168 184    63 169 185    68 174 190    63 169 185    56 164 177    63 171 184    67 177 190    61 171 184    67 175 187    68 176 188  
  65 168 183    68 171 186    70 175 189    67 172 187    64 169 185    66 171 187    69 173 190    68 173 189    67 170 185    66 169 184    63 167 182    63 166 181    63 168 182    63 168 182    58 165 178    54 160 174    60 167 181    58 166 179    57 165 178    56 164 177    56 166 179    57 166 179    56 165 178    55 164 178    58 168 181    52 162 175    51 161 174    57 167 180    60 170 183    57 167 180    53 163 176    53 163 176    59 169 182    55 165 178    55 165 178    58 168 181    59 169 182    58 168 181    59 169 182    62 172 185    66 172 188    66 172 188    67 173 190    65 172 188    62 170 183    61 170 183    63 173 186    64 174 187    66 176 187    70 178 190  
  65 168 183    65 168 183    63 169 183    62 168 182    62 168 184    62 168 184    61 167 183    61 167 183    63 166 181    61 164 179    59 162 177    61 164 179    62 168 182    64 170 184    61 167 181    56 162 176    59 167 180    59 167 180    59 167 180    59 167 180    57 167 180    58 168 181    59 169 182    59 169 183    66 176 189    62 172 185    57 167 180    56 166 179    56 166 179    54 164 177    57 167 180    63 173 186    58 168 181    56 166 179    56 166 179    60 170 183    62 172 185    61 171 184    63 173 186    68 178 191    71 178 194    70 176 192    69 176 192    70 177 194    67 177 189    64 174 187    64 174 187    69 179 192    66 177 188    72 182 194  
  71 175 188    68 172 185    63 169 183    64 170 184    67 173 189    68 174 190    66 172 188    63 169 185    62 168 182    61 167 181    60 165 180    60 166 180    61 167 181    63 169 183    62 170 183    61 169 182    60 168 181    61 169 182    59 169 182    60 170 183    60 170 183    60 170 183    59 169 182    59 169 182    54 166 178    60 172 184    63 175 187    59 171 183    55 167 179    55 168 180    56 168 180    56 168 180    57 169 181    60 171 183    60 172 184    58 170 182    60 172 184    64 176 188    66 178 190    65 175 188    71 178 194    70 177 193    71 178 194    73 180 196    70 180 193    67 177 190    67 179 191    71 183 195    64 175 186    69 180 191  
  69 171 185    67 171 184    65 171 185    65 171 185    65 172 188    66 172 188    65 171 187    65 171 187    70 176 190    69 175 189    67 173 187    65 171 185    63 170 183    63 170 183    62 171 183    63 171 184    65 173 186    65 174 187    64 174 187    63 173 186    62 172 185    61 171 183    58 168 181    57 167 180    54 166 178    61 173 185    64 175 188    59 171 183    59 170 183    63 175 187    63 175 187    58 170 182    61 173 185    66 178 190    66 178 190    60 172 184    60 172 184    66 178 190    66 177 190    60 172 184    69 176 192    68 175 191    69 177 193    71 181 196    70 180 193    68 178 191    68 180 192    71 183 195    66 177 188    70 181 192  
  65 166 180    65 169 182    67 171 186    65 171 185    61 168 184    61 168 184    62 169 185    65 172 188    72 178 192    71 177 191    69 175 189    68 174 188    66 174 187    66 174 187    66 174 187    66 174 187    66 176 189    67 177 190    67 177 190    67 177 190    66 176 189    65 175 188    64 174 187    63 173 186    69 181 193    69 181 193    65 177 189    60 172 184    62 174 186    68 180 192    68 180 192    63 175 187    64 176 188    69 181 193    69 181 193    66 178 190    66 178 190    70 182 194    70 182 194    66 178 190    70 177 193    70 177 193    70 180 195    74 184 199    73 184 196    70 182 194    70 182 194    73 185 197    72 184 195    74 185 196  
  72 172 187    72 176 189    73 176 191    71 177 191    68 175 192    69 176 192    68 177 193    71 178 194    72 178 192    69 175 189    68 174 188    69 175 189    71 179 192    73 181 194    71 179 192    69 177 190    69 179 192    70 180 193    70 180 193    70 180 193    71 181 194    71 181 194    70 182 194    71 183 195    69 181 193    68 180 192    69 181 193    70 182 194    70 182 194    66 178 191    62 174 186    58 171 182    65 178 190    66 178 190    67 179 191    69 181 193    71 183 195    71 182 195    71 182 195    71 183 195    73 180 196    72 179 195    73 183 198    77 187 202    75 187 199    72 184 196    72 184 195    75 187 199    73 185 196    75 187 198  
  74 176 190    70 174 187    68 173 188    68 175 188    70 178 191    72 180 193    68 178 193    67 176 190    74 182 195    71 179 192    70 176 190    73 180 194    77 185 198    79 187 200    76 184 197    71 179 192    79 187 200    76 186 199    77 185 198    74 184 197    75 184 197    74 184 197    74 185 198    76 186 199    77 187 200    72 182 195    72 182 195    74 184 197    70 180 193    64 176 188    66 178 190    74 186 198    67 179 191    63 175 187    64 176 188    70 182 194    70 182 194    64 177 188    64 175 188    68 180 192    71 183 195    72 182 195    74 186 198    77 189 201    76 188 200    72 184 195    72 184 196    74 186 197    77 189 199    80 191 202  
  69 175 188    75 181 194    74 182 194    69 177 189    66 175 186    68 179 190    74 184 197    76 187 198    69 180 191    67 178 189    70 178 190    73 181 193    73 181 193    71 179 191    73 181 193    78 186 198    78 186 198    79 187 199    80 186 199    79 187 199    79 185 198    78 184 197    78 183 196    78 183 196    80 185 198    79 185 198    77 185 197    78 185 198    77 185 197    72 183 194    68 180 190    65 176 187    71 183 194    71 183 194    69 183 193    66 180 190    63 178 188    63 180 190    71 185 195    74 191 199    65 182 190    68 185 194    73 188 197    75 189 199    74 188 198    75 188 196    77 189 200    80 191 200    92 202 212    91 199 209  
  70 178 190    75 183 195    77 185 197    75 183 195    72 182 193    73 183 195    74 185 195    72 183 194    68 179 190    67 178 189    70 180 191    73 183 195    76 184 196    75 183 195    77 185 197    82 191 202    85 191 204    84 190 203    84 190 203    83 189 202    83 188 201    82 188 201    84 188 201    84 188 201    86 191 204    82 188 201    78 185 197    76 183 196    76 184 196    77 185 197    76 186 197    76 187 198    74 185 196    71 183 195    70 182 193    70 183 193    72 185 195    72 188 197    74 187 198    71 188 197    72 189 196    75 191 198    77 193 200    79 194 201    79 194 201    81 193 201    82 193 202    85 195 204    88 195 205    89 196 206  
  72 180 192    75 183 195    76 184 196    77 185 197    78 186 198    78 186 198    74 185 196    71 182 193    75 186 197    74 185 196    78 186 198    79 187 199    80 188 200    79 187 199    81 189 201    85 193 205    90 196 209    89 195 208    87 193 206    85 191 204    86 190 203    87 191 204    87 191 204    88 192 205    83 189 202    83 189 202    81 188 201    81 189 201    82 190 202    82 190 202    81 189 201    80 189 201    80 190 201    77 188 199    76 187 198    77 189 200    80 192 203    80 193 203    79 190 201    76 188 198    78 191 199    79 192 200    80 193 201    81 193 201    81 193 202    84 194 203    86 196 205    89 197 207    82 189 199    86 193 203  
  76 184 194    75 183 193    75 183 193    78 185 196    80 188 198    80 188 199    78 187 197    77 186 196    80 189 199    81 190 200    82 190 201    82 190 200    82 190 200    81 189 200    84 191 202    85 193 203    88 195 206    87 194 205    87 191 203    85 190 202    85 189 201    86 190 202    88 192 203    89 193 205    82 188 199    82 189 200    83 190 201    85 193 203    85 194 204    85 193 203    82 190 200    79 187 197    84 192 203    84 193 203    84 193 203    83 192 203    83 191 201    82 190 200    83 191 201    83 191 201    85 194 203    85 194 202    84 194 201    85 195 202    87 196 204    91 198 207    92 199 208    93 201 209    86 191 200    90 195 205  
  83 190 200    81 188 198    79 187 197    82 189 199    83 191 201    83 191 201    84 192 202    87 195 205    78 186 196    81 189 199    82 190 200    81 189 199    81 189 199    84 192 202    88 194 204    88 195 205    86 193 203    85 192 202    86 190 201    86 190 201    86 190 201    87 191 202    89 193 204    89 193 204    87 195 205    85 194 204    83 191 201    82 190 200    83 191 201    85 193 203    86 194 204    87 194 204    85 192 202    89 194 205    91 196 207    89 194 205    87 190 202    85 188 200    88 191 203    91 194 204    92 197 206    91 196 205    90 195 204    91 196 205    93 198 207    96 200 209    96 200 209    95 199 208    97 201 210   101 205 214  
  88 195 205    87 194 204    87 194 204    89 196 206    85 193 203    82 189 199    84 192 202    89 198 208    80 188 198    85 193 203    85 193 203    82 190 200    84 191 201    88 195 205    90 197 207    89 196 206    87 191 202    87 191 202    88 192 203    89 193 204    90 194 205    90 194 205    92 194 206    92 196 207    89 199 206    86 197 204    86 195 202    87 196 203    91 198 206    93 200 208    95 201 209    97 201 210    89 193 202    92 195 204    95 198 207    98 200 210    99 200 210    99 200 210    99 200 210    99 199 209   101 202 211    99 200 208    98 198 207    98 198 206    98 200 207    97 199 206    94 197 204    92 195 202   101 203 210   104 208 214  
  90 196 207    89 195 205    89 196 206    90 197 207    85 193 203    80 188 198    83 191 201    90 197 207    86 194 204    89 196 206    90 198 208    87 195 205    85 192 202    88 195 205    91 197 208    89 195 205    88 192 203    90 194 205    91 194 206    91 194 205    92 195 207    94 198 209    96 197 210    94 198 209    88 196 204    87 198 204    92 200 207    95 203 210    98 205 212   101 205 213   101 205 213   101 203 212    97 200 209    99 199 208   101 200 210   107 205 215   112 208 219   113 209 220   110 206 217   106 202 213   110 206 215   109 205 214   107 203 213   105 202 211   104 201 210   103 200 209   101 198 207    97 198 206    99 199 207   101 203 211  
  97 201 212    93 197 208    89 196 206    89 196 206    87 194 204    84 191 201    87 194 204    92 199 209    88 195 205    85 192 202    90 197 207    90 197 207    84 191 201    86 193 203    93 197 208    91 195 206    91 195 206    95 199 210    97 199 211    92 194 206    92 194 206    96 198 210    97 199 211    95 199 209    92 199 206    93 201 206    95 202 208    96 202 208    97 202 208    99 203 210   103 205 212   106 206 214   108 208 216   108 206 215   108 204 213   110 205 215   114 207 217   115 208 219   115 208 218   113 206 217   112 205 216   113 206 217   112 205 215   108 203 213   105 200 210   105 200 210   107 202 212   109 206 215   103 201 210   101 200 209  
  93 197 207    91 195 205    92 196 206    93 198 207    90 197 205    86 193 201    86 193 202    89 195 204    88 195 203    85 192 200    89 196 205    90 197 206    86 191 200    88 193 202    94 198 207    91 195 205    91 194 204    94 197 207    96 199 209    94 196 206    94 196 206    95 198 208    97 198 209    95 198 207    96 200 207    97 202 208    98 203 209    98 202 209    98 202 209   100 201 209   102 203 211   105 203 212   107 205 213   109 204 214   110 204 214   111 204 215   114 204 215   115 206 217   118 209 220   120 211 222   119 210 220   120 210 220   119 210 219   115 208 217   112 205 214   110 204 212   110 204 213   110 205 213   108 203 211   105 202 210  
  87 191 200    88 192 201    90 194 203    92 196 205    90 197 205    89 196 204    89 196 204    90 197 205    92 199 207    88 194 203    90 197 205    91 198 206    88 192 201    89 193 202    93 197 206    89 193 202    88 191 200    91 194 203    94 197 206    94 197 206    93 196 205    94 197 206    95 196 206    95 196 206   100 201 209   101 202 210   102 203 211   102 203 211   101 202 210   103 201 210   104 203 212   108 205 214   108 202 212   111 205 215   114 207 218   114 207 218   116 206 217   116 206 217   118 208 219   121 211 220   117 207 216   118 208 217   119 209 218   119 209 218   116 209 217   114 208 216   114 208 216   113 207 215   114 207 215   112 207 214  
  93 197 206    94 198 207    93 197 206    90 194 203    87 191 200    87 191 200    86 193 201    87 194 202    93 200 208    88 195 203    93 197 206    94 198 207    90 194 203    93 197 206    96 200 209    92 196 205    90 193 202    91 194 203    94 197 206    96 199 208    97 198 208    96 197 207    96 197 207    98 198 208   103 201 210   104 203 209   105 204 210   105 204 210   105 204 210   107 204 211   109 206 213   113 207 215   108 202 210   113 206 214   119 209 218   120 210 219   118 208 217   116 206 215   116 206 215   117 207 216   117 207 216   118 208 216   119 209 217   120 210 218   120 210 218   120 210 218   118 208 216   115 208 215   120 213 220   118 211 218  
  93 197 206    95 199 208    93 197 206    90 193 202    88 192 201    92 196 205    93 200 208    94 200 209    95 201 209    90 196 204    94 198 207    96 201 210    93 197 206    97 201 210   101 205 214    96 200 209    96 199 208    96 198 207    97 200 209   101 203 212   101 202 212   100 201 211   101 202 212   106 204 213   107 204 211   109 205 212   110 207 213   110 206 213   110 206 213   112 206 214   115 208 216   116 210 218   113 206 213   114 207 215   118 208 217   120 210 218   120 210 218   118 208 217   118 208 216   117 207 216   122 212 220   122 212 220   121 211 219   122 212 220   123 213 221   123 213 221   121 211 219   119 209 217   122 215 222   121 213 220  
  95 198 207    99 202 211    98 202 211    94 198 207    93 197 206    97 201 210    99 203 212    98 202 211   104 208 217    98 201 209    99 202 211   100 203 211    96 199 207    98 201 209   101 203 211    94 196 205   100 202 211    98 200 208   100 200 209   104 203 213   104 203 213   102 201 211   104 204 213   111 209 217   114 209 216   115 209 216   116 210 216   115 209 215   115 208 215   116 207 215   117 209 216   118 211 218   118 209 217   115 207 214   115 205 213   115 205 213   118 208 216   121 211 219   122 212 220   121 211 219   121 211 219   120 210 218   120 210 218   121 211 219   124 214 222   126 216 224   125 215 223   123 213 221   123 213 221   122 212 220  
  97 200 209    98 201 210    99 202 211    98 201 210    98 201 210    98 202 210    96 200 209    94 197 206   103 205 213   100 202 208   100 202 210   100 202 208   101 201 207   102 202 208   102 200 208   100 198 205   107 203 210   106 202 209   107 202 209   109 205 212   112 206 214   112 207 214   113 208 215   115 210 217   115 205 213   117 206 214   118 207 216   119 208 217   120 210 218   120 210 218   121 210 218   120 210 218   120 209 217   117 207 215   116 206 214   115 205 213   114 206 213   116 208 215   119 211 219   121 213 220   122 212 218   121 212 218   121 211 217   121 212 218   123 214 220   125 216 221   126 217 222   126 217 223   121 212 218   122 213 219  
  97 198 208    95 198 207    95 196 206    94 197 206    97 198 208    97 200 209    98 199 209    97 198 206   101 200 206   101 200 206   102 201 207   104 203 209   107 204 211   108 206 212   110 205 212   109 204 210   115 208 214   114 207 213   114 207 213   114 208 213   118 209 214   119 210 215   118 209 214   119 208 214   120 207 216   123 207 217   125 209 219   126 211 220   125 213 222   125 213 222   124 212 221   123 212 220   120 209 217   121 210 218   119 209 217   118 208 216   117 207 215   116 209 216   118 211 218   120 213 220   123 214 219   123 214 219   122 213 218   121 212 217   120 211 216   120 211 216   120 211 216   120 212 217   120 211 216   122 213 218  
 108 206 214   104 204 212   103 200 209   100 200 208   104 202 211   106 206 214   109 207 216   110 208 217   103 201 208   103 202 208   104 203 209   107 206 212   111 208 214   113 210 216   114 209 215   113 208 214   119 212 217   119 212 217   121 212 217   121 212 217   120 211 216   120 211 216   121 210 214   121 210 214   126 213 220   129 214 221   129 214 221   130 215 222   130 215 222   127 214 221   125 212 219   124 211 218   122 211 217   123 212 218   123 212 218   122 213 218   120 211 216   120 211 216   121 212 217   122 213 218   122 213 218   121 212 217   121 212 217   120 211 216   119 210 215   118 209 214   117 208 213   116 207 212   119 210 215   120 211 216  
 107 203 212   104 201 207   102 198 207   102 198 205   103 199 208   105 202 208   107 203 211   107 204 210   109 207 213   109 207 213   110 208 214   112 210 216   115 211 217   116 212 218   116 211 216   115 209 215   118 210 215   119 211 216   121 212 217   122 213 218   122 213 217   122 213 217   124 213 217   126 214 218   128 213 219   128 212 219   129 214 220   130 215 221   130 214 221   128 213 220   128 213 219   125 212 218   125 212 218   126 215 220   127 216 221   127 216 221   126 215 220   123 213 218   123 212 218   122 213 218   119 210 215   120 210 216   121 212 217   121 212 217   121 212 217   120 210 216   119 210 216   118 209 215   118 209 215   119 210 216  
 115 208 216   113 207 214   113 205 213   114 206 213   115 207 215   115 207 214   114 206 214   113 205 212   112 208 214   111 208 214   112 209 215   114 211 217   118 213 219   120 215 221   121 214 219   120 213 218   120 211 216   122 213 218   125 214 218   125 214 218   123 212 216   122 211 215   124 212 216   127 214 218   128 212 218   130 213 219   131 214 220   133 216 222   134 217 223   133 217 222   133 217 222   132 217 222   131 215 220   130 217 221   132 218 223   132 218 223   129 216 220   126 214 218   126 213 217   125 213 218   121 211 217   121 211 219   121 211 219   121 211 219   120 210 218   119 209 217   118 208 216   117 207 215   119 209 217   120 210 218  
 116 208 213   115 207 212   116 205 212   116 206 212   118 207 214   118 207 214   117 206 213   116 205 211   115 209 215   113 208 214   112 207 213   113 208 215   117 211 216   120 213 219   123 215 220   123 215 220   122 211 217   124 214 220   127 215 220   125 215 219   123 212 215   122 210 215   124 212 216   129 214 219   131 214 219   134 215 220   135 217 222   137 218 223   138 219 224   138 219 224   138 219 224   135 219 223   134 215 220   133 217 221   134 218 222   133 216 221   130 214 218   127 213 216   128 211 216   126 212 217   124 213 219   123 212 219   122 212 218   121 210 217   120 210 216   120 209 216   120 209 215   119 209 215   121 210 217   121 210 217  
 119 208 214   117 207 213   117 206 212   117 206 212   119 207 214   121 209 215   122 209 216   121 210 216   119 212 219   117 212 218   114 209 215   113 208 214   115 208 213   117 210 215   120 211 216   121 212 217   119 208 214   123 212 218   126 215 219   126 215 219   126 214 218   126 214 218   129 217 220   134 219 223   134 216 220   136 217 220   138 219 223   139 220 223   139 220 224   139 220 223   138 219 223   137 218 221   137 216 221   137 218 221   138 217 222   135 216 219   132 213 217   130 211 214   130 211 215   129 212 216   125 213 217   124 213 219   123 212 218   123 212 218   124 213 219   124 214 219   126 215 221   127 216 222   123 212 218   123 212 218  
 117 206 212   119 208 214   122 209 216   124 211 218   128 213 218   128 213 218   128 213 218   126 214 218   117 208 213   115 208 213   115 208 213   114 207 212   116 207 212   117 208 213   120 211 214   122 213 216   123 212 216   123 212 216   124 212 216   125 213 217   129 214 217   130 215 218   132 217 220   133 218 221   136 217 220   140 220 221   143 222 225   142 222 223   140 219 223   138 218 219   138 217 221   139 219 220   141 219 222   143 223 224   144 222 226   139 219 220   137 216 220   137 217 218   136 215 219   133 214 217   131 216 221   128 216 220   128 215 219   127 214 218   125 213 217   126 214 218   127 215 219   128 216 220   126 214 218   126 214 218  
 117 207 215   119 208 215   120 210 216   123 211 218   124 212 216   126 212 216   125 211 216   123 211 215   117 208 213   116 209 214   117 210 215   116 208 213   116 207 212   117 208 213   119 209 212   120 210 213   121 210 214   121 210 214   123 210 214   125 212 215   127 212 215   129 214 217   130 215 218   132 216 218   137 217 218   140 219 220   141 221 222   141 221 222   141 218 220   139 216 218   139 216 218   140 217 219   139 217 218   143 220 222   146 221 223   142 219 220   142 217 219   143 218 221   144 218 221   139 218 219   136 218 221   134 219 222   135 219 222   135 219 222   134 218 221   133 218 221   132 216 219   131 216 219   131 216 218   131 216 218  
 115 209 216   118 209 217   119 211 217   121 211 216   121 211 215   122 210 214   121 209 213   119 208 212   119 210 215   118 211 216   121 212 217   120 211 216   118 209 214   117 208 213   118 207 211   119 208 212   124 212 216   124 212 216   127 212 215   128 213 216   130 213 217   132 215 219   133 216 220   135 217 220   142 221 223   144 222 222   145 222 222   145 222 222   145 221 221   144 220 220   143 219 219   144 219 220   142 217 217   146 221 222   149 223 224   146 221 222   147 220 221   150 222 224   150 223 224   147 222 224   143 222 222   141 223 224   142 224 225   141 223 224   140 222 223   138 220 220   136 218 219   134 216 217   136 218 220   136 218 218  
 110 206 214   112 207 214   114 208 215   116 208 213   117 209 214   118 209 214   117 208 213   117 208 212   120 211 216   121 213 218   123 213 217   122 212 216   121 210 215   119 209 213   120 208 212   121 209 213   128 214 217   128 214 217   130 214 217   130 214 218   134 215 219   135 217 220   137 218 222   138 219 221   146 224 225   147 224 222   147 223 221   147 223 221   148 223 222   148 222 222   148 222 222   149 222 222   148 220 220   152 225 224   153 226 225   151 224 224   152 222 223   154 224 225   154 224 225   151 224 223   148 224 223   145 225 222   144 222 223   142 221 219   140 219 219   139 218 216   138 217 217   138 217 215   141 220 220   140 219 217  
 102 202 210   105 203 209   108 205 212   112 207 213   114 209 215   116 209 214   116 209 214   118 209 214   122 213 218   123 214 219   125 214 218   124 213 217   123 212 216   123 212 216   124 212 217   126 214 218   129 214 217   130 215 218   131 214 218   132 215 219   135 216 219   137 218 221   138 219 222   140 220 221   146 224 224   147 223 221   146 222 220   146 222 220   149 223 222   151 225 224   152 225 224   152 224 223   153 224 224   157 229 228   159 229 229   157 227 227   155 225 225   157 227 227   158 226 227   154 225 225   152 226 225   149 226 222   147 222 221   144 220 216   144 218 217   142 218 214   143 218 217   142 219 215   147 222 221   145 222 218  
  95 197 205    99 199 205   102 202 208   107 205 211   112 209 215   116 211 217   117 212 218   119 212 217   123 214 219   125 214 218   125 214 218   125 214 218   126 214 218   127 215 219   130 218 222   132 220 224   131 216 219   133 217 220   133 216 220   135 217 221   137 218 221   139 220 223   140 221 224   142 222 223   148 224 222   147 222 218   146 221 217   147 222 218   152 224 221   155 227 224   156 228 225   155 227 224   155 225 223   159 229 227   162 230 229   159 227 226   158 226 225   160 228 227   162 228 227   159 227 226   155 227 224   153 228 223   153 225 222   151 225 220   151 223 220   149 223 218   149 221 218   147 222 217   153 225 222   153 227 222  
  88 197 205    92 199 205    96 201 208   102 205 210   108 208 214   113 211 217   117 213 219   119 213 219   121 213 218   124 213 218   125 214 218   126 215 218   128 215 219   131 215 218   134 217 220   136 220 221   136 219 220   139 219 220   140 219 221   142 220 220   143 221 222   145 223 223   146 224 224   148 224 224   152 225 223   152 223 221   152 223 220   153 224 221   157 226 225   160 229 227   161 229 227   160 229 227   158 225 224   161 228 227   165 230 229   163 229 226   163 228 227   165 230 228   165 230 229   164 230 227   158 228 224   159 229 225   159 230 225   159 230 226   159 229 225   158 227 223   157 226 222   155 225 221   161 230 226   163 229 226  
  84 202 210    86 202 208    91 202 209    95 203 210   103 206 212   109 209 215   113 210 216   115 210 216   117 210 215   121 212 217   125 214 218   128 216 219   131 216 219   134 216 218   136 217 217   139 218 216   143 220 218   145 221 218   147 221 218   149 222 219   150 223 221   151 224 222   152 225 223   155 226 224   156 224 223   157 224 223   159 226 225   160 227 226   162 227 227   163 228 227   163 228 227   163 228 227   167 230 229   167 230 229   167 230 228   167 231 227   167 230 228   168 231 228   168 231 229   168 232 228   163 231 226   164 232 227   165 233 228   167 234 229   168 233 229   169 233 229   169 233 229   170 232 229   172 235 232   173 233 231  
  71 194 202    74 195 202    82 196 203    88 199 206    96 202 208   103 206 211   111 209 215   113 210 216   116 209 214   120 211 216   124 213 217   128 216 218   132 217 220   138 219 220   142 222 221   145 224 221   149 224 220   150 223 220   153 224 220   154 225 221   154 225 222   155 225 223   156 227 224   157 227 225   159 225 224   160 225 224   161 226 225   162 227 227   165 228 227   165 228 227   166 229 228   165 228 227   169 229 229   169 229 229   169 230 228   169 230 228   169 230 228   170 230 228   170 231 229   170 231 229   170 233 229   169 234 229   170 235 230   173 235 231   173 236 232   175 236 232   175 236 232   176 235 232   175 235 231   177 234 231  
  54 180 189    59 182 190    68 187 195    77 191 198    87 195 202    96 201 207   105 206 214   111 210 216   116 209 216   120 211 216   124 213 217   127 215 217   133 216 220   139 220 221   146 224 224   150 227 225   154 226 223   154 226 223   155 226 222   156 227 223   157 227 225   157 227 225   159 227 226   159 227 226   162 226 226   163 227 227   165 227 228   167 228 229   168 230 229   168 230 229   168 230 229   169 229 229   170 230 230   170 230 230   171 231 229   171 231 229   172 231 229   172 231 229   173 232 230   173 232 228   172 233 228   173 234 227   174 235 230   175 236 229   176 235 231   177 236 230   178 234 231   178 235 229   180 236 233   181 236 231  
