P3
50 50
255
  63 151 171    62 149 169    57 148 169    57 148 169    57 149 169    60 151 172    53 144 165    53 144 165    46 138 161    48 140 163    56 148 171    53 145 168    46 138 161    49 141 164    43 135 158    44 136 159    46 138 161    48 140 163    49 141 164    47 139 162    41 135 160    38 132 157    38 132 157    43 137 162    43 139 164    40 136 161    40 136 161    44 139 164    44 140 165    43 139 164    37 133 158    33 129 154    34 130 155    40 137 162    43 139 164    39 135 160    36 132 157    35 131 156    36 132 157    36 132 157    36 132 157    35 131 156    33 129 154    31 127 152    31 127 152    32 128 153    37 133 158    35 131 156    32 128 153    30 126 151  
  60 148 168    58 146 166    55 146 167    54 145 166    54 145 165    53 144 165    53 144 165    57 148 169    51 143 166    48 140 163    53 145 168    53 145 168    47 140 162    48 140 163    45 137 160    45 136 160    45 137 160    45 137 160    47 139 162    47 139 162    43 137 162    42 136 161    43 137 162    44 138 163    41 137 162    39 135 160    38 134 159    41 137 162    40 137 162    37 133 158    39 135 160    36 132 157    36 132 157    37 133 158    37 133 158    34 130 155    37 133 158    41 137 162    38 134 159    38 134 159    38 134 159    36 132 157    35 131 156    34 130 155    33 129 154    33 129 154    35 132 157    35 130 155    33 129 154    31 127 152  
  57 145 165    57 145 165    56 147 168    57 148 169    55 146 167    53 144 165    51 142 163    61 152 173    56 148 171    48 140 163    52 144 167    54 146 169    51 143 166    50 142 165    50 142 165    48 140 163    45 137 160    44 136 159    45 137 160    46 138 161    45 139 164    45 139 164    47 141 166    44 138 163    39 135 160    38 134 159    40 136 161    43 139 164    41 137 162    38 134 159    37 133 158    38 134 159    41 137 162    42 138 163    40 136 161    36 132 157    37 133 158    40 136 161    36 132 157    36 132 157    36 132 157    37 133 158    37 133 158    38 134 159    38 134 159    38 134 159    34 130 155    33 129 154    33 129 154    32 128 153  
  55 143 163    56 144 164    57 148 169    58 149 170    56 147 168    54 145 166    50 141 162    60 151 172    56 148 171    48 140 163    52 144 167    54 146 169    53 145 168    53 145 168    54 146 169    50 142 165    46 138 161    44 135 159    43 135 158    45 137 160    44 138 163    44 138 163    46 140 165    42 136 161    37 133 158    38 134 159    41 137 162    42 138 163    41 136 161    37 133 158    35 132 157    38 134 159    41 137 162    43 139 164    43 139 164    40 136 161    35 131 156    32 128 153    35 130 155    34 130 155    33 129 154    35 131 156    36 132 157    37 133 158    37 133 158    36 132 157    31 127 152    31 126 151    31 126 151    31 126 151  
  57 145 165    56 144 164    54 145 166    54 145 166    52 143 164    50 141 162    54 144 165    58 149 170    52 144 167    49 141 164    54 146 169    53 145 168    50 142 165    55 147 170    55 147 170    52 144 167    48 140 163    45 137 160    45 137 160    45 137 160    43 137 162    43 137 162    46 140 165    41 135 160    38 134 159    39 135 160    40 136 161    37 133 158    35 130 155    33 129 154    39 135 160    38 134 159    36 132 157    35 131 156    37 133 158    38 134 159    35 131 156    29 125 150    38 134 159    36 132 157    33 129 154    33 129 154    34 130 155    34 130 155    32 128 153    30 125 150    29 125 150    29 125 150    29 125 150    29 125 150  
  59 147 167    58 146 166    54 145 166    52 143 164    52 143 164    53 145 165    61 152 173    57 148 169    48 140 163    50 142 165    56 148 171    49 142 164    44 137 159    53 145 168    52 144 167    50 142 165    48 140 163    47 139 162    48 140 163    48 140 163    45 139 164    44 138 163    44 138 163    42 136 161    41 137 162    44 140 165    43 139 164    37 133 158    35 131 156    37 133 158    37 134 159    41 137 162    41 137 162    37 133 158    35 131 156    37 133 158    35 131 156    31 127 152    37 134 159    34 130 155    32 128 153    32 128 153    35 131 156    35 131 156    32 128 153    29 125 150    29 125 150    29 125 150    29 125 150    29 125 150  
  60 149 168    59 148 167    55 146 165    54 145 166    56 148 168    59 151 170    61 152 173    54 147 168    48 141 163    50 143 165    53 146 168    47 140 162    44 137 160    51 144 167    50 142 166    48 141 165    48 140 164    47 140 163    49 141 165    48 141 165    45 139 164    44 138 163    43 137 162    42 136 161    44 139 164    47 143 168    46 142 167    42 138 163    41 136 161    42 138 163    37 132 157    41 137 162    44 139 164    43 139 164    40 136 161    39 134 159    37 132 157    35 130 155    33 128 153    33 129 154    33 129 154    34 130 155    35 131 156    37 132 157    35 131 156    34 129 154    31 127 152    31 127 152    29 125 150    28 124 149  
  57 148 166    56 147 165    53 146 164    53 146 164    55 148 166    57 150 168    51 144 165    53 148 168    53 148 168    48 143 163    47 142 162    51 146 166    53 148 170    52 148 170    50 144 169    48 142 167    46 140 165    46 140 165    47 141 166    47 141 166    47 141 166    46 140 165    43 137 162    42 136 161    42 136 161    43 137 162    44 138 163    43 137 162    41 135 160    39 133 158    43 137 162    39 133 158    38 132 157    40 134 159    39 133 158    37 131 156    41 135 160    46 140 165    34 128 153    40 134 159    42 136 161    40 134 159    37 131 156    37 131 156    35 129 154    33 127 152    32 128 153    32 128 153    32 128 153    30 126 151  
  55 146 164    55 146 164    55 148 166    57 150 168    55 149 167    54 147 165    52 147 167    54 149 169    52 147 167    49 144 164    49 144 164    53 148 168    54 149 171    52 147 169    46 140 165    45 138 163    44 138 163    46 140 165    48 142 167    50 144 169    50 144 169    49 143 168    43 137 162    42 136 161    42 136 161    43 137 162    44 138 163    44 138 163    43 137 162    41 135 160    41 136 161    42 135 160    43 137 162    42 136 161    38 132 157    35 129 154    38 132 157    44 138 163    40 134 159    40 134 159    38 132 157    37 131 156    40 134 159    42 136 161    36 130 155    28 122 147    30 126 151    31 127 152    33 129 154    35 131 156  
  58 149 167    58 149 167    58 151 169    59 152 170    59 152 169    57 149 168    53 148 168    52 147 167    50 145 165    49 144 164    51 146 166    52 147 167    52 147 169    50 145 167    49 142 167    47 142 167    47 141 166    48 142 167    49 143 168    49 143 168    48 142 167    47 141 166    49 143 168    47 141 166    47 140 165    46 140 165    46 140 165    45 139 164    43 137 162    41 135 160    39 133 158    41 135 160    43 137 162    43 137 162    41 134 159    39 133 158    41 134 159    44 138 163    44 139 164    41 135 160    35 129 154    33 127 152    37 131 156    41 135 160    37 131 156    29 123 148    39 135 160    34 130 155    30 126 151    30 125 150  
  62 153 171    61 152 170    60 151 170    60 151 170    61 154 172    63 156 174    56 148 169    54 146 167    51 146 166    51 146 166    52 147 167    52 147 167    51 146 168    51 146 168    51 145 170    50 144 169    49 143 168    50 144 169    50 144 169    49 143 168    47 141 166    45 139 164    49 143 168    47 141 166    45 139 164    44 138 163    43 137 162    43 137 162    41 135 160    40 133 158    43 138 163    42 136 161    41 135 160    42 136 161    44 138 163    45 139 164    42 136 161    38 132 157    47 141 166    45 139 164    39 133 158    33 127 152    34 128 153    38 132 157    39 133 158    36 130 155    41 137 162    36 132 157    29 125 150    26 123 148  
  63 153 171    62 152 170    59 150 169    59 150 169    59 151 170    61 154 172    57 149 170    56 148 169    56 151 171    57 151 172    54 149 169    50 145 165    52 147 169    56 151 172    51 144 168    51 144 168    51 144 168    51 145 169    52 145 170    51 145 169    49 142 167    46 140 164    50 144 168    48 142 166    46 140 164    46 140 164    46 140 164    47 141 165    46 140 164    46 140 164    50 143 167    47 141 165    43 137 161    41 135 159    44 137 162    46 139 164    41 135 159    34 127 152    45 138 163    46 140 164    43 137 161    38 131 155    36 130 154    39 132 157    41 134 159    40 134 159    36 131 155    35 130 155    33 129 154    33 129 154  
  60 149 167    60 149 167    58 149 168    58 149 168    56 147 166    54 145 164    55 147 168    57 149 170    60 152 173    61 153 174    53 148 168    47 142 162    50 145 167    57 152 174    53 145 168    53 145 168    53 145 168    54 146 169    54 146 169    53 145 168    50 142 165    47 139 162    55 147 170    53 145 168    50 142 165    48 140 163    49 141 164    48 140 163    48 140 163    47 139 162    49 141 164    50 142 165    48 140 163    44 136 159    43 135 158    46 138 161    44 136 159    40 132 155    40 132 155    42 134 157    42 134 157    40 132 155    40 132 155    41 133 156    39 131 154    35 127 151    38 132 157    38 132 157    38 132 157    37 131 156  
  63 152 170    63 153 170    63 152 172    60 149 169    54 145 164    50 141 160    55 147 168    55 146 167    56 148 169    59 151 172    59 152 173    56 149 170    53 146 169    53 146 168    55 147 170    57 149 172    58 150 173    55 147 170    50 142 165    48 140 163    49 141 164    51 143 166    55 147 170    50 142 165    48 141 163    52 144 167    51 143 166    47 139 162    45 138 160    49 142 164    45 136 160    46 138 161    47 140 162    46 138 161    45 137 160    44 136 159    42 134 157    40 132 155    38 130 153    42 134 157    45 138 160    47 139 162    46 138 161    43 135 158    39 131 154    35 127 150    40 134 159    39 133 158    38 132 157    37 130 155  
  62 151 169    62 151 169    63 151 171    62 150 170    57 149 167    55 146 165    58 149 170    56 147 168    54 146 167    56 148 169    59 151 172    60 152 173    57 149 172    53 145 168    50 143 165    53 145 168    55 147 170    53 145 168    49 141 164    48 140 163    51 143 166    55 147 170    56 148 171    49 141 164    47 139 162    51 143 166    50 142 165    44 136 159    45 137 160    51 143 166    45 137 160    47 139 162    49 142 164    50 142 165    49 142 164    47 139 162    43 135 158    41 133 156    46 138 161    46 138 161    45 137 160    47 139 162    48 140 163    46 138 161    41 133 156    36 128 151    42 137 159    41 135 160    41 134 159    39 134 159  
  60 149 167    59 148 166    60 148 168    62 150 170    62 150 170    62 150 170    58 149 170    56 147 168    53 144 165    54 145 166    55 147 168    57 149 170    55 147 170    54 146 169    50 142 163    53 144 165    55 146 167    55 146 167    53 144 165    52 143 164    54 145 166    55 147 167    56 147 168    50 141 162    48 139 160    50 141 162    49 140 161    45 136 157    46 137 158    51 142 163    49 140 161    50 141 162    49 140 162    48 139 160    47 138 159    46 137 158    47 138 159    48 139 160    54 144 165    49 140 161    44 135 156    45 136 157    47 138 159    47 138 159    43 134 155    38 128 152    40 132 155    40 132 155    40 132 155    40 132 155  
  62 151 169    60 149 167    61 148 168    60 149 169    60 148 168    59 147 167    61 150 172    59 149 171    57 148 169    58 149 170    58 150 171    59 151 171    57 149 172    56 147 170    58 149 170    58 150 171    59 150 171    58 149 170    56 147 168    54 145 166    53 144 165    51 142 163    52 143 164    49 140 161    50 141 161    52 143 164    52 143 164    49 140 161    49 140 161    52 143 164    50 141 162    49 140 161    46 137 158    43 134 155    41 131 152    42 133 154    48 139 160    53 144 165    48 138 159    47 138 159    46 137 158    46 137 158    46 137 158    45 136 157    43 134 155    41 132 153    39 131 154    40 132 155    40 132 155    41 133 156  
  67 154 173    66 153 172    63 151 171    61 149 169    59 147 167    56 144 164    60 148 170    61 149 171    60 151 172    61 152 173    60 151 172    59 150 171    57 147 171    55 145 169    60 151 172    59 150 171    57 148 169    57 148 169    57 148 169    56 147 168    53 144 165    51 142 163    51 142 163    50 141 162    53 144 165    56 147 168    56 147 168    55 146 167    54 145 166    54 145 166    44 135 156    48 139 160    51 142 163    50 141 162    47 138 159    46 137 158    48 139 160    51 142 163    40 131 152    45 136 157    50 141 162    51 142 163    47 138 159    44 135 156    44 135 156    44 135 156    42 134 157    43 135 158    44 136 159    45 137 160  
  67 154 173    67 154 173    66 153 173    65 152 172    62 150 170    60 148 168    59 147 169    60 148 170    58 149 170    57 148 170    56 147 168    55 146 167    55 145 169    54 144 168    60 150 172    56 147 168    53 145 166    54 145 166    57 148 169    57 148 169    55 146 167    52 143 164    54 145 166    54 145 166    55 145 167    55 146 166    55 146 167    55 146 167    55 147 168    55 147 168    42 133 154    48 139 160    55 146 167    57 148 169    54 145 166    50 141 162    50 141 162    51 142 163    41 132 153    46 137 158    52 143 164    53 144 165    49 140 161    46 137 158    45 135 157    45 136 157    42 134 157    43 135 158    45 137 160    45 137 160  
  65 152 171    65 152 171    67 154 174    69 156 176    68 156 176    68 156 176    69 157 179    68 156 178    66 154 176    64 152 174    60 151 172    63 151 173    63 154 175    65 156 177    64 155 176    59 149 171    55 146 167    55 146 167    58 149 170    60 151 172    57 148 169    54 145 166    59 150 171    59 149 170    55 146 167    51 142 163    50 141 162    53 144 165    55 146 167    56 147 168    46 137 158    51 142 163    54 145 166    53 144 165    50 140 161    49 140 161    54 144 166    58 149 170    49 140 161    50 142 162    52 143 164    52 143 164    52 143 164    49 141 162    47 138 159    45 136 157    46 138 161    47 139 162    49 140 164    49 140 164  
  67 154 174    68 155 175    66 153 173    64 151 171    63 150 170    63 150 170    63 149 169    64 150 170    64 151 171    65 152 172    63 151 171    62 149 169    59 147 167    57 144 164    59 150 169    58 151 169    57 150 168    54 147 165    50 143 161    50 143 161    54 147 165    58 151 169    59 152 170    50 143 161    50 143 161    55 148 166    55 148 166    57 149 168    53 146 164    42 133 152    48 139 158    58 146 166    58 146 166    49 137 157    47 135 155    52 140 160    54 142 162    51 139 159    51 139 159    51 139 159    52 140 160    52 140 160    52 140 160    51 139 159    49 137 157    46 137 158    51 143 166    54 146 169    49 142 164    48 140 163  
  68 155 175    68 155 175    66 153 173    64 151 171    64 151 171    63 151 171    61 148 168    61 147 167    59 146 166    58 145 165    57 144 164    56 143 163    56 143 163    55 143 163    57 148 167    57 149 168    57 149 168    56 149 167    56 148 167    57 149 167    57 149 168    58 150 168    57 149 168    51 144 162    54 146 165    56 149 167    53 145 163    54 146 164    55 147 166    49 140 159    54 142 162    58 146 166    58 146 166    54 142 162    55 143 163    61 148 168    58 146 166    51 139 159    54 142 162    53 141 161    53 141 161    53 141 161    53 141 161    52 140 160    51 140 160    51 139 159    47 138 159    50 141 164    48 140 162    47 139 161  
  68 155 175    68 155 175    67 154 174    65 152 172    65 152 172    66 153 173    65 152 172    64 151 171    62 149 169    61 148 168    61 148 168    60 147 167    60 147 167    60 148 168    59 150 169    58 149 168    57 148 167    57 148 167    58 149 168    58 149 168    55 146 165    52 143 162    58 149 168    53 144 163    57 148 167    58 149 168    52 143 162    54 145 164    58 149 168    54 145 164    58 146 166    60 148 168    59 147 167    56 144 164    57 145 165    61 149 169    57 145 165    50 138 158    57 145 165    56 144 164    55 143 163    54 142 162    53 141 161    53 141 161    54 142 162    54 142 162    51 142 163    54 145 166    51 142 163    52 143 164  
  67 154 174    67 154 174    66 153 173    65 152 172    65 153 173    67 154 174    63 150 170    63 151 171    64 151 171    64 150 170    64 150 170    62 149 169    61 148 168    60 147 167    61 152 171    58 149 168    55 146 165    55 146 165    56 146 166    55 146 165    52 143 162    49 140 159    60 151 170    53 144 163    54 145 164    56 146 166    53 144 163    55 146 165    59 150 169    53 145 163    52 140 160    54 142 162    56 144 164    53 141 161    54 142 162    57 146 166    59 147 167    59 147 167    57 145 165    56 144 164    54 142 162    53 141 161    53 141 161    53 141 161    54 142 162    54 142 162    53 144 165    53 145 166    49 140 161    49 140 161  
  66 153 173    65 152 172    64 151 171    64 151 171    65 152 172    67 154 174    61 148 168    62 149 169    64 151 171    66 153 173    65 152 172    64 151 171    61 148 168    59 146 166    59 150 169    57 148 167    55 146 165    55 146 165    56 147 166    57 148 167    56 147 166    56 147 166    61 152 171    53 144 163    53 144 163    55 146 165    53 144 163    56 147 166    58 149 168    51 142 161    55 143 163    57 145 165    59 147 167    56 144 164    52 140 160    53 141 161    57 145 165    60 148 168    57 145 165    56 144 164    55 143 163    54 142 162    54 142 162    54 142 162    54 142 162    54 142 162    54 145 166    53 144 165    47 138 159    46 137 158  
  64 151 171    64 151 171    63 150 170    63 150 170    65 152 172    66 153 173    64 151 171    64 151 171    64 152 172    65 152 172    65 152 172    64 152 172    64 151 171    63 150 170    54 144 164    55 146 165    57 148 167    57 148 167    56 147 166    55 147 165    55 146 165    56 147 166    58 149 168    53 144 163    55 146 165    56 147 166    51 142 161    52 142 162    56 147 166    51 142 161    60 148 168    59 147 167    58 146 166    58 146 166    55 143 163    55 143 163    53 141 161    54 142 162    57 145 165    57 145 165    57 145 165    57 145 165    57 145 165    56 144 164    55 143 163    54 142 162    54 146 167    55 146 167    49 140 161    50 141 162  
  65 152 172    64 151 171    62 149 169    62 149 169    62 149 169    64 151 171    65 151 171    63 150 170    62 149 169    62 149 169    61 148 168    61 148 168    62 149 169    62 149 169    56 144 164    57 147 166    60 150 169    59 149 169    57 147 166    55 145 164    54 144 163    54 145 164    55 145 164    56 146 165    60 151 170    59 149 168    52 142 161    50 140 159    54 144 164    53 143 162    52 141 161    51 139 159    52 140 160    55 143 163    58 145 165    59 147 167    58 146 166    57 146 166    57 145 165    57 145 165    58 146 166    59 147 167    59 147 167    56 144 164    54 142 162    53 141 161    51 141 162    53 143 164    52 142 162    52 142 163  
  68 155 175    67 154 174    65 152 172    62 149 169    61 148 168    61 148 168    64 151 171    63 150 170    63 150 170    62 149 169    61 148 168    60 147 167    60 147 167    59 146 166    62 150 170    61 149 169    60 148 168    59 147 167    59 147 167    60 148 168    61 149 169    62 150 170    56 144 164    60 148 168    62 150 170    59 147 167    56 144 164    55 143 163    57 145 165    59 147 167    57 145 165    57 145 165    56 144 164    55 143 163    54 142 162    56 144 164    59 147 167    61 149 169    54 142 162    52 140 160    53 141 161    57 145 165    58 146 166    54 142 162    52 140 160    53 141 161    50 138 158    54 142 162    57 145 165    54 142 162  
  62 149 169    63 150 170    66 153 173    67 154 174    66 153 173    64 150 170    60 147 167    61 148 168    63 150 170    64 151 171    64 151 171    62 149 169    60 148 168    60 147 167    59 147 167    59 147 167    58 146 166    58 146 166    58 146 166    58 146 166    59 147 167    59 147 167    59 147 167    57 146 166    56 144 164    55 143 163    55 143 163    55 143 163    59 147 167    61 149 169    59 147 167    59 147 167    58 146 166    57 145 165    57 145 165    58 146 166    62 150 170    65 153 173    53 140 160    52 140 160    53 141 161    55 144 164    55 143 163    53 141 161    55 143 163    60 148 168    54 142 162    55 143 163    54 142 162    51 138 158  
  62 149 169    61 148 168    63 150 170    64 151 171    63 150 170    62 149 169    61 148 168    62 149 169    63 150 170    64 151 171    64 151 171    63 150 170    62 149 169    61 148 168    61 149 169    61 149 169    61 149 169    61 149 169    61 149 169    61 149 169    61 149 169    61 149 169    57 145 165    55 143 163    57 145 165    59 147 167    61 149 169    59 147 167    56 144 164    56 144 164    55 143 163    55 143 163    55 143 163    54 142 162    55 143 163    57 145 165    61 149 169    64 152 172    55 143 163    55 143 163    57 144 164    57 145 165    53 141 161    49 137 157    52 140 160    58 146 166    58 146 166    58 146 166    55 143 163    52 140 160  
  65 152 172    62 149 169    59 146 166    58 145 165    59 146 166    61 148 168    64 151 171    63 150 170    63 150 170    62 149 169    61 148 168    61 148 168    61 148 168    61 148 168    62 149 169    63 149 169    63 150 170    63 150 170    63 150 170    63 150 170    63 149 169    62 149 169    61 148 168    58 145 165    59 146 166    63 149 169    63 150 170    59 145 165    56 143 163    56 143 163    56 144 164    56 144 164    55 143 163    54 142 162    52 140 160    52 140 160    54 142 162    55 143 163    51 139 159    52 140 160    55 143 163    56 144 164    51 139 159    45 133 153    46 135 155    51 139 159    56 143 162    55 142 161    56 143 162    56 143 162  
  65 152 172    63 150 170    60 147 167    58 145 165    60 147 167    63 150 170    63 150 170    62 149 169    61 148 168    60 147 167    59 146 166    60 147 167    60 147 167    60 148 168    59 146 166    59 146 166    60 147 167    60 148 168    60 148 168    60 147 167    59 146 166    59 146 166    65 152 172    59 146 166    57 144 164    60 147 167    57 144 164    54 141 161    55 142 162    62 149 169    58 146 166    58 146 166    59 147 167    57 146 166    55 143 163    52 140 160    51 139 159    51 139 159    52 140 160    51 139 159    53 141 161    56 144 164    56 143 163    52 140 160    53 141 161    57 145 165    52 139 158    50 137 156    52 139 158    55 143 162  
  65 152 171    65 152 172    65 152 171    64 151 171    62 149 168    60 147 167    58 145 164    59 146 166    60 147 166    61 148 168    61 148 168    61 148 168    60 148 167    60 147 167    58 145 165    58 145 165    59 146 166    60 147 167    60 147 167    59 146 166    58 145 165    58 145 165    58 145 165    55 142 162    56 143 163    61 148 168    58 145 165    51 138 158    53 140 160    62 149 169    51 139 159    54 142 162    58 146 166    59 147 167    59 147 167    58 146 166    56 144 164    56 144 164    54 142 162    50 138 158    49 137 157    52 140 160    54 142 162    54 142 162    56 144 164    59 147 167    52 139 158    50 137 156    51 138 157    55 142 161  
  67 154 171    68 154 174    65 151 168    65 150 170    63 150 168    58 145 164    60 148 165    56 143 162    55 143 160    58 146 165    61 150 166    61 149 168    57 149 165    59 147 166    59 147 166    55 143 162    57 146 165    61 150 168    61 150 168    63 152 170    63 152 170    58 146 165    56 145 163    55 143 162    56 144 163    59 148 166    58 147 165    55 143 162    56 144 163    61 150 168    55 145 164    54 144 162    56 146 165    59 149 168    54 144 163    47 137 156    50 141 159    60 150 169    50 140 159    49 139 157    48 138 156    50 140 159    52 142 161    52 142 161    52 142 161    53 141 160    52 139 159    52 139 159    52 139 159    52 139 159  
  71 154 172    72 155 173    64 150 167    65 151 168    65 152 169    58 145 162    65 152 169    59 147 164    57 145 162    59 148 164    59 151 166    57 149 164    55 147 162    56 148 163    62 151 169    54 143 161    56 145 163    59 148 166    58 147 165    62 151 169    64 153 171    57 146 164    62 150 169    57 146 164    55 144 162    59 148 166    61 149 168    59 149 167    58 147 165    59 148 166    55 146 164    57 148 166    53 144 162    49 140 158    52 143 161    58 149 167    56 147 165    47 138 156    52 143 161    51 142 160    50 141 159    51 142 160    53 144 162    54 145 163    54 144 163    54 144 162    53 141 161    54 141 161    55 142 162    53 140 160  
  70 153 171    72 155 173    67 150 168    67 150 168    66 152 169    59 145 162    64 150 167    62 149 166    61 148 165    63 150 167    61 150 166    58 147 163    58 147 163    60 149 165    63 152 170    55 144 162    55 144 162    57 146 164    54 143 161    58 147 165    61 150 168    56 145 163    64 154 172    58 147 165    55 144 162    60 149 167    64 153 171    63 152 170    59 148 166    57 146 164    51 142 160    54 144 162    52 143 161    49 140 158    54 145 163    61 152 170    57 148 166    47 138 156    56 147 165    54 145 163    51 142 160    49 141 159    50 142 159    52 143 161    53 144 162    56 144 163    51 139 159    53 140 160    54 141 161    53 140 160  
  70 152 170    72 155 173    68 151 169    68 151 169    68 153 170    61 146 163    61 147 164    59 146 163    61 148 165    64 151 168    63 150 167    61 147 164    60 149 165    64 153 169    63 151 169    56 145 163    58 147 165    60 148 166    56 145 162    58 146 164    60 149 166    55 143 161    60 149 167    58 146 164    58 146 164    61 150 167    62 151 168    60 148 166    59 148 165    61 149 167    50 141 158    52 142 160    58 148 166    60 150 168    52 143 161    45 136 154    51 142 160    62 153 171    60 150 168    56 146 164    51 142 160    47 138 156    48 138 156    50 140 158    51 141 160    53 142 161    55 142 162    56 143 163    56 143 163    56 143 163  
  71 152 171    73 154 173    68 151 169    70 153 171    71 154 172    65 148 166    66 149 167    63 148 165    63 149 166    66 152 169    66 152 169    63 149 166    61 148 165    64 150 167    62 149 166    58 145 162    63 150 167    65 152 169    60 147 164    61 148 165    62 149 166    57 144 161    57 144 161    59 146 163    61 148 165    62 149 166    60 147 164    57 144 161    60 147 164    66 153 170    54 143 161    62 151 169    63 152 170    56 145 163    50 139 157    52 141 159    58 147 165    60 149 167    58 147 165    55 144 162    52 141 159    51 140 158    52 141 159    55 144 162    57 146 164    58 147 165    58 145 165    57 144 164    56 143 163    56 143 163  
  72 153 170    73 154 171    67 150 167    70 153 170    73 155 172    67 150 167    71 154 170    67 150 167    66 150 166    70 154 170    71 155 171    67 151 167    64 148 165    63 149 164    61 148 165    58 145 162    62 149 166    65 152 169    60 147 164    62 149 166    65 152 169    61 148 165    62 149 166    61 148 165    62 149 165    61 148 165    58 145 162    55 143 160    59 146 163    66 152 170    57 146 164    66 155 173    62 151 170    50 139 157    51 140 158    64 153 171    63 152 170    50 139 157    55 144 162    54 143 161    53 142 160    54 143 161    56 145 163    58 147 165    58 147 165    58 147 166    56 143 163    55 141 161    51 138 158    51 138 158  
  72 155 171    72 155 171    67 150 166    70 153 169    74 157 173    70 153 169    72 155 171    67 150 166    66 149 165    72 155 171    77 159 175    74 157 173    70 153 169    68 152 167    62 148 165    57 144 161    61 148 165    62 149 166    57 144 161    61 148 165    67 154 171    64 152 169    70 157 174    64 152 169    61 148 165    61 148 165    60 147 164    58 145 162    59 146 163    63 150 167    59 148 166    60 149 167    60 149 167    60 149 167    60 149 167    60 149 167    58 148 165    57 146 164    56 145 163    55 144 162    55 144 162    55 144 162    56 145 163    55 144 162    53 141 160    51 140 158    61 148 168    57 144 164    54 140 160    53 139 159  
  72 158 173    73 156 172    70 154 170    68 151 167    64 148 163    62 145 161    72 155 171    75 158 174    71 154 170    65 148 164    66 149 165    72 154 171    69 153 169    62 145 161    65 150 167    67 153 170    65 151 168    60 145 163    61 148 165    69 156 173    71 157 174    67 153 170    64 150 167    64 150 167    65 151 168    65 151 168    65 151 168    64 150 167    63 149 166    62 149 165    57 144 163    65 152 171    67 154 172    57 144 163    52 139 158    55 142 161    59 146 165    59 146 165    60 147 166    60 147 166    58 145 164    54 141 160    53 140 159    55 142 161    59 146 165    61 148 167    55 142 162    61 148 168    59 146 166    52 139 159  
  77 166 179    74 160 174    68 155 169    67 151 166    68 155 169    73 157 172    77 161 176    71 155 170    68 152 167    71 154 170    71 155 171    68 152 167    66 150 165    67 151 167    71 157 172    67 153 169    64 150 167    67 153 169    68 154 171    66 152 168    66 152 168    69 155 171    61 147 164    61 146 163    59 145 162    58 144 160    58 144 160    58 144 160    60 146 162    60 146 163    64 151 170    62 149 168    61 148 167    61 148 167    60 147 166    57 145 163    61 148 167    68 155 174    59 145 165    59 146 165    59 146 165    58 145 164    57 144 163    57 144 163    58 145 164    59 146 165    54 141 161    59 146 166    60 147 167    56 143 163  
  81 172 183    81 170 181    75 164 176    72 159 172    71 160 172    74 161 173    76 163 175    68 154 167    65 151 164    71 157 170    73 159 172    69 155 168    67 153 166    71 157 171    74 160 175    67 153 168    66 152 167    71 157 172    71 157 172    65 151 166    64 150 165    68 154 169    64 150 165    64 150 165    62 148 163    61 147 162    61 147 162    61 147 162    63 149 164    63 149 166    67 154 172    59 146 165    58 145 164    62 149 168    64 151 170    60 147 166    62 149 168    68 155 174    59 146 165    59 146 165    60 147 166    60 147 166    59 146 165    56 143 162    57 144 163    58 145 164    52 139 159    54 141 161    57 144 164    58 145 165  
  77 171 181    80 171 182    80 171 182    78 167 178    71 162 173    68 157 169    71 161 172    71 159 171    68 156 168    67 155 167    69 157 169    71 159 171    70 158 170    67 154 166    67 153 168    68 154 169    68 154 169    67 153 168    68 154 169    69 155 170    67 153 168    64 150 165    63 149 164    63 150 165    65 150 165    65 151 166    64 150 165    64 150 165    62 148 163    62 148 165    63 149 166    62 148 168    61 147 166    61 146 166    63 149 168    65 151 170    62 147 167    57 143 162    61 147 166    58 143 163    58 144 163    59 145 165    57 143 162    54 140 160    55 141 161    59 145 165    55 142 162    53 140 160    53 141 161    58 145 165  
  72 166 176    73 166 176    76 170 180    78 170 181    74 167 177    70 162 173    74 165 176    78 168 179    74 164 175    67 155 167    67 155 167    73 161 173    70 158 170    60 148 160    62 148 163    69 155 170    69 155 170    64 150 165    66 152 167    73 159 174    71 157 172    62 148 163    62 148 163    64 150 165    66 152 167    68 154 169    68 154 169    66 152 167    63 149 164    60 146 163    63 149 166    68 153 173    67 152 172    63 148 168    64 149 169    69 154 174    64 149 169    53 138 158    64 149 169    59 144 164    57 142 162    60 145 165    58 143 163    53 138 158    55 140 160    61 146 166    61 148 168    59 146 166    57 144 164    57 144 164  
  75 172 180    74 171 180    75 173 181    78 172 182    78 172 182    77 169 180    80 172 183    78 169 179    74 164 176    72 162 173    73 163 173    72 162 173    69 159 170    66 154 166    68 153 168    70 153 169    69 152 167    69 152 168    71 154 170    72 154 171    71 154 169    69 152 168    68 151 167    69 152 168    71 154 170    72 154 171    72 154 170    70 153 169    68 151 167    67 150 168    68 154 171    68 153 173    67 152 172    65 150 170    65 150 170    64 149 169    63 148 168    61 146 166    64 149 169    60 145 165    60 145 165    64 149 169    62 147 167    55 140 160    55 140 160    61 146 166    58 145 165    63 150 170    63 150 170    58 145 165  
  81 180 186    79 178 186    77 177 182    76 174 182    75 173 181    78 173 182    77 173 182    73 166 176    72 164 175    78 168 179    79 168 180    75 165 177    74 162 175    76 163 176    73 159 172    69 153 168    67 153 166    73 157 172    73 157 172    69 153 168    68 151 167    71 154 170    70 153 169    71 154 170    71 153 169    69 152 168    67 149 166    68 149 166    68 151 168    69 152 170    72 158 175    66 151 170    63 149 168    65 150 170    65 150 169    61 146 165    61 147 166    66 151 170    65 151 170    61 147 166    63 148 168    66 152 171    64 150 169    58 143 162    57 143 162    63 148 168    53 140 159    61 148 168    63 150 170    58 145 165  
  83 186 189    79 182 186    75 178 181    72 175 179    74 176 181    76 177 182    73 172 181    74 172 181    77 170 181    79 170 181    80 169 183    81 169 183    79 165 180    78 164 178    76 163 174    76 163 174    75 163 173    75 162 173    73 159 172    72 158 171    72 155 169    71 154 168    73 156 172    73 156 172    74 155 172    71 152 169    69 150 167    71 150 167    72 152 171    74 155 174    70 156 173    67 154 171    64 151 168    64 151 168    65 152 169    66 153 170    64 151 168    61 148 165    69 156 173    64 151 168    63 150 167    64 151 168    63 150 167    60 147 164    61 148 165    65 152 170    60 147 166    60 147 166    60 147 166    60 147 166  
  86 188 192    84 187 190    80 184 187    77 181 184    76 179 184    77 179 184    74 175 183    73 171 180    72 168 177    73 167 177    77 166 181    80 168 182    79 167 181    78 165 180    77 165 175    77 165 175    77 165 175    76 164 174    75 162 173    74 160 171    72 158 171    71 157 170    74 157 171    72 155 169    71 153 169    72 153 170    74 155 172    76 156 173    74 154 172    71 152 170    68 154 171    67 154 170    66 152 169    66 153 170    67 153 170    66 152 169    63 150 166    61 147 164    68 154 171    62 148 166    60 146 163    63 149 166    66 152 169    65 151 168    62 148 165    61 147 164    62 149 168    62 149 168    61 148 167    61 148 167  
  90 192 195    89 191 194    84 189 192    82 187 189    80 184 188    80 183 188    73 175 180    73 174 182    74 171 180    73 169 179    76 168 181    78 167 181    80 169 183    81 169 184    73 161 171    73 161 171    74 162 172    73 161 171    74 161 171    73 160 170    72 158 171    71 157 170    81 164 178    77 160 174    73 156 172    71 154 170    73 156 172    75 156 173    75 156 173    72 154 171    73 157 174    71 157 174    69 155 172    68 154 171    66 152 169    64 150 167    62 148 165    61 147 164    66 152 169    61 147 164    57 143 160    57 143 160    60 146 163    62 148 165    62 148 165    61 147 164    59 146 165    59 146 165    60 147 166    60 147 166  
