P3
50 50
255
  33 195 206    28 192 202    16 183 191    17 185 192    26 194 201    29 195 203    29 195 204    22 189 198    17 184 193    17 185 196    14 186 198     7 184 194     1 181 192     1 180 191     3 179 192     5 177 189     3 177 186     5 177 187     6 180 187     6 180 187     4 178 185     2 176 183     8 182 189     4 178 185     1 178 185     5 182 192     8 186 196     8 186 198     6 187 198    10 188 200    19 198 205    15 189 196    28 195 203    50 208 217    55 204 211    60 199 206    74 206 211    87 212 218    88 207 211   101 214 218   114 222 224   121 223 227   129 224 228   137 226 232   141 227 234   144 224 231   149 227 229   154 228 229   156 230 231   159 230 232  
  39 195 206    36 196 205    25 189 195    27 192 197    36 200 206    37 201 206    31 194 200    26 189 197    23 187 196    23 190 199    19 191 201     9 186 196     1 182 190     1 178 189     4 180 193     4 177 191     3 177 188     4 178 187     5 180 187     5 180 187     4 179 184     2 177 182     5 180 185     1 175 182     1 175 182     4 180 189     7 184 194     8 185 197     7 187 199    10 190 201    14 194 201    15 188 195    26 192 200    40 196 205    52 196 205    69 203 212    83 211 217    85 206 212    90 207 212   102 213 217   112 220 222   118 220 224   125 220 224   133 223 228   137 224 230   142 222 229   149 227 229   154 228 229   156 230 231   159 230 232  
  51 203 213    49 204 213    38 198 203    38 199 203    43 204 209    42 203 207    42 201 206    37 197 204    34 196 204    32 198 207    25 196 205    13 190 199     1 184 191     1 181 189     4 180 193     5 178 192     4 178 189     4 178 188     4 178 186     4 178 185     4 179 184     3 178 183     4 179 184     1 175 182     1 175 182     3 180 188     6 183 193     6 183 194     8 185 198    11 189 200    16 193 200    18 190 197    30 192 201    41 193 202    53 195 204    75 207 216    88 213 221    86 204 211    97 211 215   107 216 220   115 220 223   118 219 223   124 218 222   132 221 227   139 224 231   142 222 229   149 226 228   154 227 228   156 229 230   158 229 231  
  63 209 218    61 210 218    49 203 208    48 202 207    49 205 209    45 201 205    49 205 209    43 200 205    37 196 203    32 195 203    22 193 201    11 188 194     2 185 190     1 184 192     4 180 193     5 178 192     4 178 189     3 177 188     2 176 185     2 176 185     1 177 183     1 178 184     3 180 185     1 176 183     1 175 184     3 178 187     5 180 191     5 180 191     8 182 194    12 187 198    14 186 193    16 182 191    32 190 199    49 197 207    58 196 206    72 201 210    87 207 215    91 205 213   102 213 217   112 218 221   116 220 224   120 217 223   124 217 222   132 220 226   139 222 230   144 221 229   148 222 226   152 224 224   155 227 227   158 228 228  
  69 207 217    67 209 216    57 206 210    55 205 209    57 208 209    50 203 206    53 205 208    46 199 204    38 195 200    32 194 199    23 192 197    14 189 195     9 191 195    11 194 200     4 181 191     6 179 193     5 179 190     3 177 188     1 175 184     1 174 183     1 177 183     1 178 184     3 180 186     1 177 183     2 176 185     4 178 187     4 178 187     5 177 189    10 182 194    17 188 198    23 190 198    26 187 195    46 199 207    68 211 221    76 210 219    86 208 219   101 216 226   110 220 227   104 212 215   113 216 221   119 218 223   122 217 223   125 216 221   133 218 225   140 220 229   143 220 228   149 223 226   153 225 224   157 227 227   158 228 228  
  74 206 215    75 210 216    66 207 211    65 208 212    66 212 212    61 206 209    61 209 213    55 203 209    46 199 205    39 198 204    28 195 200    17 192 197    12 194 198    14 197 203     4 181 191     6 180 191     3 180 190     1 177 187     1 175 183     1 174 182     1 176 184     2 179 187     1 177 185     1 176 184     1 175 182     5 177 187     6 178 188     8 179 189    14 185 195    24 191 200    30 192 199    38 191 199    53 200 208    67 204 214    77 204 213    93 211 221   106 217 225   105 212 219   106 211 215   114 216 220   122 220 223   124 217 222   128 217 223   136 219 227   142 220 230   146 220 229   152 226 229   156 227 229   159 229 231   160 230 232  
  83 210 216    82 213 218    76 210 214    73 210 213    70 210 213    65 206 208    66 208 212    60 204 210    56 206 211    44 200 205    28 195 199    17 192 195     5 187 190     9 192 196     4 181 189     6 180 191     3 180 190     1 178 188     1 176 184     1 175 183     1 176 185     1 178 187     1 176 183     1 174 183     3 176 183     7 178 186     9 179 189    14 182 192    22 189 200    32 195 205    46 202 211    57 206 213    68 209 218    73 205 214    83 205 213   102 215 225   113 220 228   107 211 218   112 213 218   119 218 223   127 222 226   130 222 227   134 221 227   140 222 230   146 224 233   148 223 231   154 228 232   157 229 231   159 230 233   158 230 233  
  87 211 218    85 212 217    80 210 215    75 208 212    70 206 208    67 204 207    71 208 212    65 205 212    70 215 223    53 207 212    36 200 205    26 199 203     5 187 190     9 192 196     6 183 191     6 180 191     2 179 189     2 179 189     2 180 190     2 180 190     1 178 188     1 177 187     1 177 185     4 178 187     7 180 187    11 181 189    16 184 193    24 190 199    34 198 207    43 202 211    52 203 211    66 208 217    77 212 222    84 210 220    90 208 217   101 211 221   113 216 224   119 219 226   120 218 224   125 221 227   130 224 228   135 226 231   139 227 231   142 225 231   147 226 233   149 226 232   150 226 231   152 228 232   154 230 233   153 229 233  
  88 210 215    85 208 214    80 209 212    79 209 212    79 209 214    78 211 215    79 213 217    74 212 220    64 207 215    54 205 212    40 203 208    25 197 201    16 195 199     8 190 194     6 184 192     4 180 190     1 178 189     1 178 189     1 180 191     1 182 192     1 181 192     1 178 190     1 177 186     4 178 187     9 180 188    15 183 192    22 187 196    30 193 202    39 199 208    48 203 211    57 202 210    69 207 216    80 211 220    89 210 220    98 211 221   109 214 225   115 217 225   118 216 222   126 223 229   127 222 226   127 221 224   132 223 226   138 226 230   144 227 233   145 225 232   145 223 230   146 226 230   147 227 231   148 228 232   148 228 232  
  93 213 219    91 214 219    90 215 219    87 214 220    84 214 219    84 213 219    79 210 218    80 215 224    57 199 208    54 202 212    41 202 210    21 192 199    23 202 207    10 191 197     8 186 195     8 185 195     5 183 195     4 182 194     1 181 192     1 180 191     1 182 193     4 182 194     2 179 189     6 180 190    12 183 191    19 186 195    27 190 199    34 195 203    43 200 209    50 201 210    59 202 210    71 206 212    83 210 217    94 213 221   104 214 224   114 218 227   118 217 223   116 213 219   127 222 226   126 221 225   127 221 223   131 222 225   136 224 228   142 225 231   145 225 232   144 224 231   142 225 231   141 226 231   142 227 232   141 226 231  
  88 208 216    85 208 215    84 209 215    84 209 215    82 209 215    80 209 215    75 203 212    77 209 221    56 197 207    53 201 211    39 197 208    19 187 196    23 200 207    13 194 201     9 187 197    14 191 201    14 192 204     9 187 199     1 179 193     1 177 191     1 181 195    10 188 200     6 184 195     9 183 194    13 184 192    20 187 196    28 191 200    37 195 204    44 198 206    50 199 206    61 202 209    73 206 213    85 209 217    95 212 221   106 214 223   114 217 225   117 216 222   115 212 218   122 217 220   124 219 221   128 222 224   131 222 225   132 221 225   137 222 227   142 224 230   144 228 234   137 224 232   135 224 231   135 224 231   134 224 230  
  85 206 214    81 204 211    80 205 211    80 206 212    82 208 216    83 210 219    76 204 215    72 204 216    63 201 212    52 198 211    39 195 207    26 193 202    18 194 202    14 193 201    10 187 197    14 191 201    14 192 204    10 188 200     2 182 196     1 179 193     2 182 196     9 187 201    11 188 201    12 186 197    15 185 195    23 187 197    31 191 200    40 196 206    46 201 206    51 200 206    66 205 211    78 210 215    89 214 220    95 212 219   102 211 218   111 214 221   117 215 222   118 214 220   120 215 217   123 218 220   127 222 223   130 222 224   130 219 223   133 219 224   136 220 226   138 223 230   131 221 229   127 220 228   126 219 226   126 219 226  
  91 211 218    88 211 217    86 210 216    83 209 215    83 208 216    81 208 217    83 212 223    70 203 215    68 207 220    53 200 212    42 199 211    36 203 212    15 188 198    12 190 199     8 186 196     9 186 196     7 187 197     7 186 198     5 186 198     4 185 199     5 185 198     6 185 198    14 191 203    15 188 199    17 185 195    24 188 197    34 193 202    46 199 208    52 204 210    59 204 211    73 209 215    85 213 220    94 217 224    97 213 220   101 210 217   110 213 220   118 216 223   123 219 225   123 219 222   122 219 221   124 220 220   126 221 222   130 221 224   131 220 224   131 217 222   128 215 222   124 218 225   120 217 223   118 215 221   118 215 222  
  94 209 215    96 213 218    94 215 221    87 210 217    80 207 214    78 208 216    73 208 217    65 205 214    59 205 214    47 199 210    40 200 209    38 203 212    23 193 201    12 187 195     7 187 195     5 187 196     1 187 194     1 185 194     3 186 195     5 188 199     4 187 196     2 183 193    13 190 199    18 189 198    25 190 199    30 190 199    38 192 201    47 197 204    58 204 212    69 208 216    83 208 218    94 211 221   101 216 225   103 216 225   106 214 223   109 213 221   113 215 223   116 216 223   118 219 223   120 218 223   121 219 221   124 219 223   126 220 223   125 217 222   124 215 218   119 212 215   116 215 218   112 215 217   113 216 218   115 218 222  
 101 213 217   102 216 222    99 216 223    91 214 221    84 213 219    82 216 222    69 209 217    64 210 217    54 207 213    44 202 209    39 202 209    38 202 211    30 199 207    20 194 201     8 191 197     3 190 195     1 188 195     1 187 194     1 188 195     4 188 196     7 190 199    13 191 201    12 186 193    20 188 197    29 192 199    38 195 204    47 198 205    57 201 210    64 207 214    75 209 216    91 210 220    99 210 223   103 214 225   105 216 227   106 214 224   108 215 224   110 217 225   115 218 227   115 218 223   117 219 224   121 220 224   121 220 225   120 218 221   118 216 219   119 214 216   115 214 215   108 214 212   108 216 216   108 216 216   107 215 217  
 108 220 224   102 218 222    95 215 221    92 217 223    87 219 224    80 217 223    67 211 217    60 209 216    49 206 211    36 199 204    29 194 201    26 195 202    22 195 201    18 195 201    10 191 198     3 188 193     2 186 194     5 188 196     4 187 195     5 186 195    14 192 202    25 202 212    16 189 196    25 192 201    38 196 205    50 202 213    59 208 215    67 209 219    69 209 217    76 209 216    87 211 219    94 212 220    96 214 222    98 213 223    99 213 221   102 214 222   108 217 224   113 221 229   109 214 219   113 217 221   115 219 222   115 217 221   112 215 217   110 213 214   110 213 215   112 216 217   108 218 218   107 220 221   105 218 219   101 213 215  
 105 219 224    96 214 218    92 214 219    90 217 223    82 216 220    70 209 217    62 208 215    55 207 213    44 204 210    32 198 204    22 193 199    16 190 197    15 190 196    13 192 198     9 190 197     7 187 194     6 188 197    11 191 201     9 189 198     7 185 195    16 192 202    30 203 215    20 190 198    31 195 205    44 201 210    53 204 215    57 204 212    61 203 213    67 205 213    73 206 213    79 208 214    84 210 215    88 212 218    92 212 219    93 211 217    97 211 218   102 213 220   108 217 224   102 209 215   107 212 217   109 215 218   108 214 217   105 213 213   103 213 213   105 215 215   106 218 219   104 222 222    95 215 216    94 213 216    97 217 220  
 103 218 223    95 214 219    92 216 220    87 218 223    76 212 216    61 203 210    54 205 210    48 204 210    40 204 208    33 202 208    26 200 205    18 196 202    15 196 201    14 196 203    11 192 199    14 193 200    15 195 204    18 196 206    16 195 205    15 193 203    20 197 207    29 201 213    25 193 202    35 197 208    46 203 212    53 204 215    54 201 209    60 201 211    68 206 213    75 211 217    73 209 211    78 212 213    84 214 217    88 215 218    91 212 215    95 211 216   100 211 218   104 213 220   103 210 216   105 212 218   106 214 218   105 215 218   103 217 217   101 218 217   100 220 218   100 221 221    93 219 220    80 208 211    80 207 212    90 217 222  
 103 218 223    99 218 224    93 218 222    81 213 218    70 208 211    60 205 210    49 202 207    40 198 205    33 198 202    29 200 207    25 202 206    18 199 203    13 196 202    13 196 202    10 191 197    15 195 203    17 197 206    15 195 204    15 197 206    21 201 210    24 202 212    24 198 209    31 202 210    36 201 210    42 202 210    49 202 213    55 205 212    62 206 215    68 209 216    72 210 216    72 211 212    76 213 213    81 214 216    85 213 216    88 210 214    91 208 214    97 208 217   102 211 220   106 213 220   104 213 219   102 212 219   102 216 219   101 220 220    98 220 220    94 219 217    89 217 217    81 214 218    73 210 215    71 209 215    73 211 218  
 103 218 221   102 221 225    92 217 221    75 207 211    66 204 207    64 209 214    56 209 214    43 202 207    33 198 202    28 200 204    24 202 206    16 198 202    11 194 198    11 194 200     4 187 193    12 195 201    11 195 203     5 188 197     8 192 200    21 204 212    24 205 214    18 196 206    31 205 212    30 198 207    30 195 201    38 195 205    49 201 208    56 204 211    56 201 206    53 195 199    71 213 214    75 213 213    77 211 212    79 207 210    81 204 209    86 203 210    94 207 215   101 209 219   107 215 224   101 212 221    98 211 219    96 213 220    95 218 223    91 219 222    84 213 215    74 209 211    64 207 212    68 214 220    63 211 218    52 200 207  
 101 216 219    97 216 220    91 214 219    83 212 217    73 210 213    65 208 212    65 216 219    47 204 209    44 207 212    48 216 221    37 209 215    21 198 204    15 197 201    14 197 201    14 199 204     9 194 199     8 195 202     7 194 201     3 190 197     9 196 203    17 201 209    16 197 206    19 198 203    18 191 198    29 199 204    44 207 214    44 201 206    44 198 203    51 204 206    60 205 208    60 202 204    68 203 206    77 209 212    84 211 217    87 210 217    90 209 217    94 209 219    98 211 222    94 207 218    95 209 219    95 212 221    91 212 220    83 211 218    77 209 214    74 210 214    70 212 217    49 200 207    46 201 209    42 200 209    42 200 209  
 105 218 219   101 215 219    94 215 218    87 214 217    80 213 216    73 211 214    63 210 214    50 202 206    47 205 209    47 210 214    37 204 209    29 200 206    25 201 205    20 198 203    17 201 206     7 194 199     5 194 200     5 194 200     1 190 196     7 196 202    16 203 210    17 200 208    20 202 206    17 194 200    25 197 201    39 204 210    42 204 207    47 202 207    54 208 210    63 211 214    59 198 201    66 201 206    75 207 211    82 209 217    85 210 218    86 209 219    88 209 220    89 210 222    84 205 217    82 205 217    80 207 217    77 208 217    72 208 217    64 204 212    56 198 206    47 195 203    37 195 203    34 199 208    33 199 208    31 197 207  
 108 217 219   104 215 219    98 216 217    93 215 216    85 213 215    79 211 214    68 208 212    60 206 210    57 208 212    51 207 211    41 201 206    42 205 211    41 207 212    28 200 205    22 203 208     9 195 200     6 194 201     7 195 202     4 192 199     8 196 203    16 202 209    16 199 207    24 204 209    21 196 203    22 194 198    34 199 205    43 205 208    46 202 207    48 203 205    59 207 211    73 212 218    79 212 220    79 212 218    79 209 218    78 209 218    80 210 221    80 211 222    79 211 223    73 208 219    69 205 218    65 205 216    62 205 215    59 205 215    53 201 211    45 196 205    36 192 201    30 196 205    29 199 208    25 199 207    20 194 204  
 111 217 218   109 218 220   105 217 218    99 215 215    89 211 212    82 208 211    75 209 213    69 209 212    66 210 214    56 203 208    47 198 204    50 204 211    50 207 212    34 197 204    29 205 211    13 195 202    12 195 203    15 198 206    12 196 203    12 197 204    17 198 207    15 194 204    22 200 206    25 197 205    25 194 199    37 199 207    52 210 214    53 206 212    50 202 205    63 209 214    69 208 215    74 207 218    70 206 214    66 203 213    64 205 213    68 209 219    68 212 222    64 211 222    52 202 212    48 201 211    44 198 209    38 196 206    34 193 204    34 193 203    34 195 205    33 198 207    25 196 205    21 196 206    14 194 203    10 190 199  
 118 221 221   118 222 224   114 222 222   107 219 220    99 215 215    90 212 215    90 218 221    83 216 220    80 215 219    70 209 214    59 202 208    61 206 214    60 208 214    44 199 207    36 205 214    17 195 203    17 194 204    22 200 210    19 198 208    19 197 207    21 199 209    20 195 206    28 202 209    37 204 213    35 198 205    43 201 210    59 212 218    54 203 210    46 195 199    61 205 210    60 198 208    65 202 212    63 204 213    58 202 211    55 203 210    53 206 214    47 204 213    35 198 207    29 196 204    26 196 204    24 195 202    18 189 199    15 186 196    16 187 199    23 194 206    28 201 212    11 189 199     6 187 196     3 185 194     3 186 194  
 124 224 222   121 224 223   118 224 224   113 223 224   108 221 222   103 220 222   101 224 227    91 217 223    86 217 222    81 216 222    71 208 214    67 207 214    65 207 214    52 202 209    43 207 216    22 193 203    18 190 202    25 197 209    25 197 209    26 198 210    31 202 214    34 201 214    35 201 210    46 207 219    41 199 208    45 197 208    59 208 215    54 196 205    46 187 194    66 206 213    69 207 217    69 210 220    62 206 216    49 198 208    40 198 205    38 202 209    29 199 204    17 193 198    16 196 201    15 197 204    13 197 203    13 196 204    12 195 203    12 193 204    12 193 204    12 193 203     1 182 191     1 184 192     3 186 196     1 188 197  
 131 223 222   126 221 221   124 221 222   121 223 224   116 222 225   109 220 224   103 219 223    90 212 217    86 211 218    81 213 218    73 208 214    68 204 212    65 203 211    53 200 208    43 206 214    26 197 206    20 191 200    24 195 204    30 197 207    32 198 209    38 203 214    47 209 219    41 199 209    48 203 214    46 199 208    49 200 208    61 208 216    59 203 211    60 203 211    76 220 228    61 208 217    56 206 217    44 199 210    32 192 201    26 193 201    26 199 206    23 203 207    16 200 205     8 196 201     7 197 201     7 197 202     8 198 203    11 200 208     9 196 205     3 188 197     1 183 193     2 185 193     6 188 196     7 190 198     4 190 198  
 142 226 226   137 223 224   134 223 224   131 225 227   122 223 226   111 217 221   105 217 221    96 214 220    88 211 218    82 210 217    77 209 216    72 206 215    66 203 212    57 203 211    35 198 205    36 206 213    31 200 206    32 199 205    41 206 214    39 200 209    37 196 203    51 207 216    59 211 219    54 205 212    56 206 214    59 208 215    54 203 210    57 205 211    64 212 218    61 212 219    42 199 210    34 196 208    29 194 205    26 196 206    23 198 206    18 198 205    15 199 206    14 202 208     5 197 202     9 201 206     4 196 201     4 194 200    10 199 205     9 196 203     6 191 199    10 194 202     6 188 195     9 189 196     8 189 195     7 188 196  
 145 226 227   140 225 226   135 224 225   130 224 226   122 222 224   113 218 222   105 217 221   102 219 226    93 216 223    79 207 216    70 202 210    70 204 213    68 205 215    61 205 214    40 201 207    38 205 211    36 200 207    40 202 210    51 211 219    50 205 215    44 198 206    50 202 211    57 207 214    58 206 213    62 210 217    60 207 215    55 202 209    58 206 213    61 209 215    50 202 210    41 200 212    34 197 211    30 197 210    28 199 211    25 200 210    17 196 205    11 194 202    10 195 202     7 195 202    13 202 208    10 199 205     9 194 202    11 197 204    10 195 202    12 194 202    20 200 209     8 187 194    14 191 199    17 194 202    16 194 201  
 144 228 228   139 227 228   134 225 226   126 224 225   119 221 223   111 219 222   105 218 222   104 223 229    95 220 226    80 208 217    72 204 212    72 208 217    72 209 219    63 207 216    57 211 219    47 209 216    43 202 210    44 202 211    51 205 215    53 205 216    55 206 215    63 211 221    55 202 210    59 206 214    65 209 218    60 204 213    54 201 208    62 209 216    62 209 216    45 196 205    42 198 211    35 197 212    34 198 213    34 202 215    29 202 214    22 197 208    14 192 202    10 191 200    14 198 205    19 202 210    14 197 205    10 191 200    14 192 202    13 190 200    15 189 200    23 197 208    26 199 208    28 201 211    27 199 209    20 194 203  
 139 229 227   137 228 228   130 225 225   121 222 224   115 220 223   111 220 225   100 215 220    94 217 222    87 213 219    76 207 215    74 210 216    75 212 220    68 209 218    57 201 210    53 206 214    47 204 213    50 204 214    54 206 217    50 201 210    52 199 209    56 204 214    60 207 217    64 211 221    65 209 220    64 212 219    56 203 211    49 198 205    56 205 212    54 204 211    37 190 198    42 200 212    37 199 214    38 201 216    40 206 220    36 206 219    30 202 214    24 197 208    21 197 208    20 198 208    21 199 209    14 191 201    10 187 197    20 193 204    22 193 205    21 190 203    27 195 208    32 203 213    34 204 214    31 202 212    22 194 204  
 135 226 226   133 227 228   126 225 226   116 219 221   110 218 221   107 220 225    98 217 221    90 213 220    82 212 217    80 214 220    78 216 223    73 212 221    64 207 216    57 205 212    59 212 220    49 203 212    51 204 214    52 204 214    45 195 205    49 197 207    60 209 218    64 211 221    62 210 220    57 205 215    56 206 214    53 203 211    47 200 206    52 205 211    51 206 211    40 195 204    40 199 211    36 199 214    36 199 214    39 205 219    39 207 220    34 204 217    29 201 213    28 202 212    22 195 206    23 196 207    17 190 201    17 188 200    28 196 209    32 199 212    33 197 209    38 202 214    30 196 207    31 199 210    31 199 209    25 195 205  
 129 225 225   129 227 229   122 224 226   112 218 221   105 216 220   105 222 226    97 220 225    87 214 220    81 213 218    82 218 225    76 216 223    63 205 214    58 203 212    61 210 217    56 209 217    44 198 206    49 202 210    55 208 216    48 200 209    50 202 210    56 208 216    51 201 210    60 210 219    50 202 211    49 204 212    52 208 215    48 206 210    46 206 210    45 206 209    37 198 206    34 197 207    29 194 208    29 194 208    31 198 212    31 200 213    28 198 210    26 198 208    27 199 209    22 194 203    28 198 207    26 195 205    26 192 203    33 198 209    35 198 210    37 199 209    45 206 217    41 204 214    38 203 213    33 198 207    26 193 202  
 120 221 223   117 220 221   113 217 220   106 215 218    99 214 217    95 216 219    93 217 222    83 214 220    75 210 214    71 209 217    67 209 216    61 207 214    55 203 211    50 200 207    48 204 210    51 207 213    47 203 209    42 197 202    46 200 208    54 207 215    50 203 211    38 192 200    58 214 221    54 210 217    49 210 215    47 208 214    41 205 209    36 202 205    33 201 204    31 199 204    36 202 212    31 199 210    30 198 210    32 202 213    29 199 210    22 193 202    22 193 202    28 197 207    34 203 211    35 203 211    38 203 212    37 199 209    35 197 207    40 199 210    46 204 213    45 202 214    54 213 222    40 202 212    36 199 207    33 198 207  
 114 218 219   111 216 219   106 215 218   102 215 219    98 217 220    94 217 221    82 210 215    81 214 219    77 213 219    70 211 218    66 212 219    65 214 219    60 211 218    54 207 213    43 200 205    52 211 215    48 205 210    38 194 199    45 202 209    54 211 218    53 210 217    51 207 214    42 201 207    41 203 208    40 203 208    39 203 208    34 202 205    31 200 203    28 200 202    28 200 204    39 209 218    36 206 215    34 204 213    36 204 213    34 203 212    31 200 207    33 200 208    38 203 209    34 200 206    37 200 208    45 205 211    44 202 209    38 192 200    43 196 205    51 204 212    48 201 209    41 196 204    44 202 209    40 200 206    39 201 206  
 108 216 218   104 213 216    99 213 214    95 211 214    91 214 217    90 215 219    76 208 212    81 216 220    80 220 225    71 214 220    60 209 215    54 207 212    54 207 213    52 207 212    41 199 204    49 208 212    46 205 209    39 198 202    42 199 204    43 200 205    46 204 211    55 214 220    38 200 205    40 202 207    40 203 208    41 206 210    40 206 212    37 206 211    33 205 209    32 204 208    39 209 216    41 210 217    37 206 212    34 200 208    37 200 209    42 207 213    45 207 214    44 205 210    37 194 200    45 198 206    55 207 213    54 204 211    47 193 200    52 195 203    60 203 211    60 203 211    46 194 201    58 208 215    43 195 201    33 188 193  
 109 220 222   103 216 220    97 213 216    90 210 214    87 211 215    82 212 217    75 209 214    76 214 220    73 216 222    64 210 215    55 206 211    52 205 210    52 207 212    52 207 212    57 213 218    60 216 221    54 210 215    50 205 210    49 205 210    45 200 205    44 200 207    55 211 218    53 211 217    51 209 216    47 208 214    45 207 213    44 208 214    41 207 213    38 206 211    37 205 210    40 205 212    44 207 213    40 202 209    34 195 200    37 196 201    48 203 210    52 205 210    50 200 207    58 203 210    61 205 212    70 211 217    69 208 215    63 199 204    68 202 208    74 208 215    73 207 214    69 206 213    68 208 214    55 196 202    48 191 198  
 107 221 223   102 219 222    96 217 219    91 214 218    86 212 217    80 212 217    76 212 216    72 212 217    64 209 214    56 205 210    53 205 211    56 210 215    56 212 217    56 211 216    55 209 213    56 209 214    50 204 208    50 203 208    56 207 213    51 202 209    47 198 205    54 205 211    60 212 221    55 208 216    49 204 214    46 202 211    44 203 211    44 204 212    43 204 212    42 203 211    45 203 211    49 205 211    49 203 210    46 198 204    48 197 204    56 202 209    61 204 211    62 201 208    75 210 218    76 208 215    82 210 218    81 207 215    77 202 209    83 206 214    88 210 217    83 205 213    84 209 216    75 201 210    76 205 212    79 210 216  
  99 214 217    96 214 218    94 216 219    91 215 220    83 211 216    75 208 213    75 214 217    70 213 217    60 207 212    52 201 207    48 201 207    51 206 211    50 207 212    50 205 210    53 204 209    60 209 215    59 207 214    60 209 215    70 216 224    69 215 223    64 208 217    65 209 218    63 210 220    58 206 215    52 202 213    52 201 213    52 205 215    54 207 218    52 207 218    52 206 216    53 203 210    56 205 212    61 207 215    64 209 216    65 206 213    65 204 212    71 206 213    79 209 217    82 208 216    85 208 216    95 214 223    98 213 221    91 206 214    95 208 217   100 211 218    94 204 214    93 208 216    93 207 218    90 209 218    88 209 217  
  98 215 219    97 216 219    97 219 224    94 219 224    85 213 219    75 207 211    73 208 212    71 210 215    66 208 214    59 204 209    57 204 211    59 209 214    59 211 216    59 208 214    52 196 204    66 207 216    67 209 218    66 207 216    73 212 222    73 212 222    66 204 214    63 201 211    69 207 217    65 204 215    60 202 212    61 204 214    64 207 217    65 210 219    61 209 219    61 206 215    61 201 208    67 203 209    76 210 217    83 215 224    83 212 220    79 204 212    84 208 216    97 217 225    87 204 211    97 211 219   111 223 230   116 225 232   107 214 222   106 213 222   110 217 223   105 212 220    95 203 212   114 223 233   102 214 224    89 201 212  
  96 216 220    92 214 219    89 212 217    86 209 214    84 208 213    83 208 212    86 214 219    84 213 218    81 213 218    82 214 219    83 217 221    78 215 219    71 208 211    64 200 206    71 204 213    75 206 215    74 205 215    73 204 213    77 207 217    82 212 222    80 210 218    75 205 213    79 209 217    78 208 216    76 206 214    74 206 213    75 207 212    76 210 214    79 213 217    84 214 219    87 209 214    93 209 216    96 212 219   100 214 221   103 215 223   106 216 223   110 219 225   113 219 225   105 211 217   113 218 224   116 221 227   112 217 223   106 213 219   109 216 222   114 222 225   117 224 229   110 214 223   108 212 223   107 214 224   108 219 228  
  93 215 219    93 214 219    92 215 219    91 214 219    91 214 219    91 214 218    93 215 220    90 214 218    87 211 216    84 211 216    85 211 217    84 212 217    82 211 216    80 209 214    84 213 221    86 214 222    86 212 221    83 211 217    86 212 219    91 215 222    91 214 222    86 211 216    90 213 219    91 212 219    91 211 216    91 212 217    93 212 218    94 214 220    96 217 219   101 217 221   101 212 217   104 210 216   106 212 217   110 215 220   114 217 223   117 218 225   116 218 223   116 217 222   112 213 219   116 218 223   118 219 224   113 216 220   110 215 218   110 217 220   112 219 222   112 218 224   111 215 223   108 210 221   104 211 221   106 214 224  
  99 218 222    97 216 220    95 217 220    93 215 218    93 215 218    92 214 217    90 212 215    91 214 218    93 216 220    93 217 221    92 217 220    90 216 220    89 215 217    88 213 219    89 218 222    89 217 222    88 214 220    87 212 217    89 213 217    93 214 219    94 214 220    94 213 218    98 213 218   100 213 219   103 214 219   105 215 221   107 215 222   109 216 222   110 217 221   111 217 222   114 219 224   115 219 223   116 220 224   119 221 226   120 223 228   122 223 228   120 221 226   120 218 225   117 215 221   118 216 223   119 217 222   115 216 220   114 217 221   116 219 223   114 218 221   110 214 218   110 213 220   105 208 217    99 206 216   100 208 218  
  98 217 219    98 218 220    97 218 219    96 217 219    97 217 219    97 217 219    89 210 211    94 214 216    99 219 221   101 221 225   100 221 223    98 218 223    96 217 218    95 215 219    94 219 222    93 218 220    94 217 219    95 216 218    97 216 218   101 216 220   104 218 222   109 218 224   111 217 222   114 218 223   119 219 225   123 220 228   126 220 228   127 220 228   127 220 228   126 220 227   118 218 223   119 222 226   121 223 228   122 222 227   120 219 224   121 217 223   120 216 222   122 217 223   118 214 220   119 214 221   118 213 220   116 213 219   118 216 222   120 220 225   117 217 222   110 212 217   113 216 223   107 211 220   102 209 218    99 209 217  
  98 218 219    97 217 218    97 217 218    96 216 217    96 216 217    96 216 217    98 218 219    99 217 219    99 217 219   102 217 220   102 217 220   103 218 221   103 219 222   104 219 223   102 219 219   102 219 219   104 219 219   108 221 222   111 222 223   112 220 223   118 223 226   126 225 230   125 222 228   129 223 229   133 224 230   136 224 233   139 224 232   140 224 232   139 223 231   136 224 231   127 222 227   125 224 229   125 225 230   125 222 228   123 218 224   122 215 222   123 216 223   124 217 224   119 212 219   120 213 220   118 213 219   117 212 218   118 215 221   122 219 225   119 218 223   112 214 219   109 214 220   107 214 222   105 214 221    99 210 217  
  96 215 219    95 215 219    95 215 216    94 214 215    93 213 214    93 213 215   103 221 223   101 219 221   101 217 217   103 217 218   105 219 220   108 221 222   106 218 220   107 215 218   110 217 219   112 217 217   114 219 219   120 223 224   121 222 224   122 221 223   127 222 226   133 226 231   131 222 227   133 222 228   134 222 226   138 221 229   140 220 227   139 220 227   139 220 227   136 221 228   134 229 233   125 225 227   120 220 222   119 217 220   123 218 222   126 219 224   122 215 222   121 211 219   121 214 221   122 215 222   120 215 221   117 212 218   116 213 220   119 216 223   117 217 223   112 214 219    99 205 211   102 211 218   102 213 222    97 210 218  
  89 211 215    91 214 217    94 216 217    94 217 218    95 218 219    98 219 220    99 219 220    99 217 219   102 218 218   105 219 220   110 221 223   111 220 223   107 215 218   107 210 213   120 217 219   124 216 218   128 220 222   133 225 227   133 224 226   132 222 225   132 222 225   137 225 229   136 224 228   134 222 226   135 221 226   136 221 226   135 219 225   134 219 224   135 220 225   131 220 224   127 222 226   118 218 220   114 212 215   114 213 215   120 215 220   122 215 222   118 211 218   112 206 213   122 215 223   123 218 225   122 218 224   117 216 223   115 215 221   115 215 222   113 215 221   108 214 220    93 203 211    97 212 220   100 216 224    97 213 220  
  84 210 214    89 214 218    92 218 220    91 217 218    91 215 217    93 216 219    96 218 219    98 217 219   100 217 217   103 217 218   107 216 219   109 217 220   112 217 221   117 215 221   125 215 218   133 216 219   137 220 224   141 224 228   141 225 229   138 224 228   135 222 226   133 221 225   136 225 229   130 220 223   131 221 224   132 222 227   127 218 221   127 219 223   128 222 224   122 217 220   115 214 217   118 218 220   121 220 222   121 218 223   120 216 222   117 213 220   117 213 220   118 214 221   121 218 225   119 218 226   118 219 226   117 220 228   115 220 227   111 217 224   105 214 220   100 212 217    90 208 216    87 208 216    86 208 215    86 208 216  
  83 213 217    88 218 222    90 221 224    87 218 220    86 215 217    87 214 217    91 217 218    94 216 218    97 216 217   101 216 218   104 215 219   108 216 220   111 216 220   117 214 220   133 219 225   139 218 224   140 220 226   141 222 228   140 223 228   138 223 228   135 223 227   133 223 228   127 219 223   122 215 219   123 219 222   124 221 226   119 218 221   120 220 223   119 221 222   113 216 218   119 220 223   118 220 223   117 219 222   115 215 221   114 214 220   113 214 220   115 216 222   117 219 226   120 223 229   116 222 230   111 219 226   107 217 225   103 215 222   100 214 221    95 215 220    94 214 221    88 214 221    78 204 213    72 202 207    76 205 213  
  81 216 220    86 221 225    87 222 226    83 218 221    81 216 219    83 217 218    86 216 218    90 215 217    94 216 219    99 217 219   103 216 220   108 217 222   112 217 223   116 215 221   133 222 228   136 219 227   135 219 224   132 218 225   131 219 225   130 220 225   128 221 226   128 222 228   121 218 224   114 213 218   115 218 221   115 218 223   110 215 219   110 218 221   112 220 223   106 214 217   114 217 222   116 219 224   117 220 225   117 219 224   115 219 224   113 218 224   109 216 222   108 216 223   112 222 229   107 221 228   101 217 224    94 214 222    90 212 219    86 212 219    86 214 220    86 217 222    74 209 215    78 211 220    74 211 218    70 204 213  
