P3
50 50
255
  10 105 133    10 106 134    10 109 135    10 110 138    10 111 139    10 111 139     9 111 139     8 112 139     7 111 138     7 111 138    15 119 146    12 117 143    11 117 143    14 120 146    14 120 146     9 115 142     7 112 138    10 112 140    10 110 137     8 108 134     8 106 131     7 105 130     7 106 129     8 108 131    12 113 135     9 114 136     8 115 137     9 118 141     9 119 143    13 123 148    15 125 148    20 130 153    25 135 158    20 130 153    20 130 153    24 134 157    23 133 156    26 136 159    23 133 156    27 137 159    30 140 163    29 139 162    28 139 161    26 140 161    25 140 161    22 137 158    26 141 162    28 143 164    26 141 161    33 148 167  
   9 104 132     9 105 133     9 107 134     9 108 136     9 110 138    10 111 139    10 112 140     9 113 140     8 112 139     7 111 138    10 114 141    10 114 141    10 116 142    12 118 144    11 117 143     8 114 139     7 111 138    11 112 140    10 110 137     8 108 134     8 106 131     7 105 130     7 106 129     9 109 132    13 113 136    10 112 135     9 114 137    11 118 142    10 120 144    14 124 149    14 124 147    21 131 154    25 135 158    22 132 155    22 132 155    24 134 157    24 134 157    25 135 158    20 130 152    24 134 157    29 139 162    27 137 160    26 136 159    28 139 162    26 141 162    24 139 160    26 141 162    28 143 164    28 143 162    32 147 166  
   9 104 132     9 104 132     9 106 133     8 107 135     8 109 137    10 111 139    10 112 140     9 113 140     8 112 139     8 112 139     7 111 138    11 115 142    13 119 145    11 117 143     8 114 140     7 113 139     8 114 140    10 112 140    10 110 137     8 108 134     8 106 131     8 106 130     8 107 130     9 108 131    11 112 134     7 112 134     8 115 137    12 121 144    12 122 146    15 125 150    15 125 148    20 130 153    22 132 155    23 133 156    25 135 158    23 133 156    23 133 156    27 137 160    22 132 155    24 134 157    29 139 162    27 137 160    26 136 159    28 139 162    26 138 160    27 139 161    28 140 162    28 140 162    28 142 162    29 144 163  
   9 104 132    10 105 133    10 107 134     8 107 135     8 109 137     9 110 138    10 111 139     9 113 140     9 113 140     9 113 140     9 113 140    13 118 145    15 121 147    13 119 145     9 115 141    10 116 142    13 116 143    12 113 141    10 111 137     9 109 135     9 107 132     9 107 132    10 109 132    10 110 133    12 112 135     9 111 134    10 116 138    14 122 145    13 123 147    16 126 151    15 125 148    20 130 153    19 129 152    22 132 155    25 135 158    22 132 155    25 135 158    31 141 164    28 138 161    26 136 159    28 138 161    30 140 163    28 138 161    27 138 160    24 136 158    27 139 161    27 139 161    26 138 160    27 141 160    24 139 158  
  10 105 133    11 106 134    12 108 136     9 107 136     7 108 136     8 109 137     9 111 138     9 113 140    10 114 140    11 115 142    12 116 143    13 117 144    12 118 144    12 118 144    11 117 143    12 118 144    11 117 143    11 113 141    11 111 138    10 110 136    10 108 133    10 108 133    11 110 133    12 112 135    14 116 138     9 114 136    10 117 139    14 123 146    13 123 148    15 125 150    13 123 146    20 130 154    19 129 152    20 130 153    21 131 154    20 130 153    26 136 158    30 140 163    31 141 165    24 134 157    23 133 155    28 138 161    25 135 158    25 136 158    23 135 157    28 140 162    27 139 161    25 137 159    27 139 160    23 135 155  
  10 105 133    12 107 135    13 109 137    10 108 137     7 108 136     7 108 136     8 110 137     8 112 139    10 114 141    12 116 143    12 116 143     9 113 140     7 113 139     9 115 141    12 118 144    10 116 142     9 114 141    12 114 142    11 113 139    11 111 137    10 110 134    10 110 134    11 111 135    14 115 138    16 118 141    11 116 138    10 117 139    14 123 146    12 121 146    13 123 148     9 119 142    21 131 154    20 130 153    18 128 150    17 127 150    20 130 153    26 136 159    27 137 160    31 141 163    19 129 152    16 126 149    24 134 157    21 131 154    22 134 156    23 135 157    28 140 162    28 140 162    25 137 159    27 139 160    21 133 153  
  10 108 137    10 108 137    10 108 137     9 108 137     8 107 136     8 109 137    11 112 140    12 113 141    11 112 140    12 113 141    12 116 143    14 118 145    15 119 146    12 117 144     9 115 141     9 115 141     9 115 140     7 111 136     7 110 135     9 113 138    10 114 139     9 113 138    10 115 138    12 118 140    12 118 142    10 117 141     7 115 139     7 116 139    10 120 143    14 124 147    16 128 150    15 127 149    18 130 152    20 132 154    20 132 154    19 131 153    20 132 154    21 133 155    22 134 156    23 135 157    21 133 155    25 137 159    25 137 159    22 134 155    24 137 157    27 139 159    27 139 159    29 141 161    27 140 160    25 137 157  
  10 108 137    11 109 138    11 109 138    12 110 139    11 110 139    11 112 140    12 113 141    11 112 140     8 109 137     9 110 138    10 114 141    12 116 143    14 118 145    12 117 143    10 116 142    11 117 143    12 117 143    10 114 139     8 112 137     9 113 138     8 114 138     7 113 137     8 114 138     9 117 140     9 118 141     8 117 140     8 117 140     8 117 140    11 121 144    14 124 148    14 126 148    16 128 150    21 133 155    21 133 155    19 131 153    21 133 155    25 137 159    24 136 158    24 135 158    23 135 157    20 132 154    22 134 156    21 133 155    20 132 152    24 135 155    26 138 158    26 138 158    28 140 160    27 139 159    24 136 156  
  13 108 138    13 108 138    12 110 139    13 111 140    11 110 139    12 111 140    14 113 142    12 113 141     9 110 138    10 111 139     8 112 139    11 115 141    13 117 144    12 118 144    12 118 144    12 118 144    13 119 144    13 117 142    10 113 138     9 113 138     8 114 138     6 112 136     8 114 138     7 115 139     8 117 140     9 118 141     9 118 141    10 119 142    12 121 144    14 124 147    12 124 146    17 129 151    22 134 156    21 133 156    19 131 153    23 135 157    26 138 160    23 135 157    23 135 157    22 134 156    19 131 153    21 133 155    20 132 154    19 131 152    24 135 155    26 138 158    27 139 159    29 141 161    29 141 161    27 139 159  
  13 108 138    14 110 139    13 111 140    10 109 138     9 108 137    10 109 138    14 113 142    14 115 143    13 114 142    15 116 144     9 113 140    11 115 141    13 117 144    12 118 144    12 118 144    12 118 144    12 118 144    13 117 142    10 113 138     9 113 138     7 113 137     6 112 136    10 116 140     9 117 140     9 118 141    10 119 142    10 119 142    10 119 142    10 120 143    12 121 144    12 122 145    14 126 148    19 131 153    21 133 155    21 133 155    23 135 157    24 137 158    19 131 153    20 132 154    21 133 155    18 130 152    22 135 156    22 134 156    20 133 153    24 137 157    28 140 160    28 141 161    31 143 163    32 144 164    29 141 161  
  14 109 139    14 109 139    14 111 140    10 109 138     9 108 137    10 109 138    14 114 142    15 116 144    14 115 143    16 117 145    14 115 143    13 115 143    13 117 144    13 117 144    13 117 144    12 116 143    11 115 142    11 115 140     7 111 136     8 112 137     9 113 138     9 114 138    12 118 142    11 117 141    13 119 143    12 121 144    10 120 143    10 119 142     9 118 141     9 119 142    12 124 146    10 122 144    14 126 148    20 132 154    23 135 157    22 134 156    21 133 155    19 131 153    20 132 154    20 132 154    18 130 152    21 133 156    21 133 155    19 131 151    22 134 154    25 137 157    26 138 158    29 141 161    29 141 161    27 139 159  
  14 109 139    14 109 139    15 110 140    13 110 140    11 110 139    12 111 140    15 114 143    13 114 142    11 112 140    13 114 142    14 115 143    13 115 143    13 117 144    14 118 145    13 117 144    12 116 143    10 114 140     9 113 138     7 111 136     9 113 138     9 113 138     9 114 138    12 118 142    12 118 142    13 119 143    12 121 144    10 119 142     9 118 141     9 118 141    10 119 142    12 123 145     8 120 142    11 123 145    19 131 153    23 135 157    21 133 155    20 132 154    23 135 157    23 135 157    21 133 155    17 129 151    18 131 152    18 130 152    15 127 147    19 130 150    21 133 153    22 134 154    24 136 156    24 136 156    22 134 154  
  14 109 137    14 109 137    13 110 137    11 110 138    10 109 138    12 111 140    14 113 142    14 113 142    12 111 140    14 113 142    13 114 142    12 113 141    13 114 142    14 117 144    15 119 146    13 117 144    12 115 142    11 113 138    10 112 137    11 113 138     9 113 138     8 112 137    10 114 139    10 115 140    11 117 141    12 118 142    11 118 142    10 119 142    11 120 143    12 122 145    11 123 145     9 121 143    13 125 147    18 130 152    20 132 154    19 131 153    20 132 154    23 135 157    23 135 157    21 133 155    17 129 151    18 130 152    17 129 151    15 127 147    18 129 149    21 133 153    21 133 153    23 135 155    22 134 154    19 131 151  
  15 109 137    13 108 136    13 108 136    10 107 136     7 106 135     9 108 137    13 112 141    15 114 143    15 114 143    17 116 145    11 112 140    10 111 139    13 114 142    15 118 145    16 120 147    15 119 146    14 117 143    12 114 139    11 113 138    12 114 139     9 113 138     7 110 135     7 111 136     8 113 138     9 115 139    10 116 140    10 116 140    10 119 142    13 122 145    17 126 149    11 121 144    11 123 145    15 127 149    18 130 152    18 130 152    19 131 153    20 133 155    20 132 154    20 132 154    21 133 155    18 130 152    21 132 155    20 132 154    18 130 151    22 134 154    24 136 156    23 135 155    25 137 157    24 136 156    21 133 153  
  14 108 135    20 114 142    16 110 138    13 110 139    15 113 142    16 114 143    13 111 140    11 110 139    12 111 140    15 114 143    15 116 144    17 118 146    18 119 147    16 116 145    12 113 141    12 113 141    14 115 142    16 118 143    13 115 140    10 112 137     9 111 136    11 113 138    12 116 141     6 110 135     8 112 137    13 119 143    13 119 143    12 118 142    12 118 142    13 122 145     5 115 138     8 120 142    14 126 148    20 132 154    22 134 156    19 131 153    17 130 151    20 132 154    20 132 154    16 128 150    15 127 149    18 130 152    22 134 156    22 134 155    18 130 150    18 130 150    22 135 155    23 135 155    22 134 154    24 137 157  
  11 105 133    16 110 138    16 110 138    14 109 138    13 111 140    14 112 141    12 110 139    10 109 138    11 110 139    14 113 142    10 111 139    13 115 142    16 117 145    15 116 144    14 115 143    14 115 143    15 116 143    14 116 141    13 115 140    12 114 139    12 114 139    11 114 139    10 114 139    10 115 140    13 117 142    13 119 143    11 117 141     9 115 139    10 116 140    11 119 143    12 122 145    11 123 145    13 125 147    16 128 150    18 130 152    18 130 152    16 128 150    17 129 151    18 130 152    15 127 149    13 125 147    16 127 150    18 130 152    14 126 146    11 123 143    17 129 149    25 137 157    25 137 157    21 133 153    22 134 154  
  10 104 130    13 107 133    16 110 137    12 109 137    11 109 138    12 110 139    11 109 138    11 109 138    12 110 139    14 113 142     9 108 137    13 112 141    16 115 144    15 115 144    14 115 143    14 115 143    14 114 142    13 113 139    13 114 140    13 115 140    13 115 140    12 114 139    11 113 138    13 116 141    13 117 142    11 115 140     9 113 138     9 115 139    10 116 140    11 119 143    15 125 148    12 124 146    12 124 146    13 125 147    17 129 151    19 131 153    18 130 152    17 129 151    18 130 152    16 128 150    14 126 148    15 127 149    15 127 149    12 124 144    10 122 142    15 127 147    21 133 153    21 133 153    18 130 150    21 133 153  
  11 105 131    12 106 132    15 109 136    13 108 137    10 108 137    11 109 138    12 110 139    13 111 140    13 112 140    14 113 142    12 111 140    15 113 142    17 116 145    16 117 145    14 115 143    12 113 141    11 112 140    13 113 139    13 114 140    12 114 139    12 114 139    12 114 139    11 113 138    10 114 139     8 112 137     8 112 137     9 114 138    11 117 141    13 119 143    12 121 144    12 122 145    10 122 144    10 122 144    14 126 148    19 130 152    21 133 155    21 133 155    19 131 153    20 133 155    19 131 153    17 129 151    17 129 150    15 127 149    18 130 151    16 128 148    14 126 146    15 128 148    14 126 146    15 127 147    21 133 153  
  15 106 133    15 107 134    13 107 133    13 108 135    13 108 138    13 108 138    15 111 140    15 113 142    15 113 142    15 113 142    14 113 142    15 114 143    17 116 145    17 118 146    16 117 145    14 115 143    14 115 142    17 117 143    14 114 140    11 111 137    10 112 137    11 112 137    13 115 140    10 112 137     9 111 136     8 112 137    11 116 141    14 118 143    13 117 142    11 117 141    10 120 143    10 121 143    13 125 147    16 128 150    19 131 153    19 131 153    18 130 152    18 130 152    20 132 154    18 130 152    18 130 152    17 129 151    14 126 148    19 131 152    18 130 150    16 128 148    17 129 149    15 127 147    15 127 147    22 134 154  
  16 107 134    15 107 134    13 107 134    14 108 138    13 108 138    14 109 139    15 111 141    15 113 142    14 112 141    13 111 140    11 110 139    12 111 140    15 114 143    17 118 146    19 120 148    19 120 148    19 120 147    20 120 146    15 115 141    11 111 137     9 111 136    10 112 137    12 114 139    11 113 138    11 113 138    11 115 140    12 116 141    12 116 141    10 113 138     7 113 137    12 122 145    12 125 146    16 128 150    18 130 152    18 130 152    15 127 149    13 125 147    15 127 149    15 127 149    14 126 148    15 127 149    15 127 149    12 124 146    13 125 145    14 126 146    19 131 151    24 135 155    20 132 152    17 129 149    20 132 152  
  16 107 134    13 104 131    15 108 134    15 109 137    13 108 138    13 108 138    14 110 140    14 112 141    12 111 140    10 108 137    12 111 140    11 110 139    12 111 140    16 115 144    19 119 148    20 121 149    20 120 148    21 121 147    18 118 144    14 114 140    12 112 138    10 111 137    10 112 137    10 112 137    12 114 139    12 116 141    10 114 139     9 113 138     9 113 138    10 116 140    13 123 146    12 125 146    15 127 149    17 129 151    18 130 152    15 127 149    13 125 147    14 126 148    14 126 148    13 125 147    14 126 148    15 128 150    13 125 147    12 124 145    14 126 146    20 133 153    25 137 157    20 132 152    16 128 148    19 132 152  
  15 105 132    11 102 129    18 109 136    17 110 137    12 107 135    12 107 135    13 108 136    14 111 138    11 109 136     8 106 135    15 114 143    12 111 140    12 111 140    13 112 141    17 116 144    16 117 145    17 118 146    20 122 147    18 120 145    16 118 143    14 116 141    10 112 137     8 110 135     7 109 134     8 112 137    10 114 139     8 112 137     7 111 136    10 114 139    15 121 145    11 121 144    11 121 144    13 124 147    16 128 150    19 131 153    19 131 153    17 129 151    16 128 150    15 127 149    14 126 148    16 128 150    19 130 153    16 128 150    18 130 151    19 131 151    20 132 152    21 133 153    15 127 147    13 125 145    19 131 151  
  16 103 130    13 103 129    14 105 130    12 105 131    11 105 131    11 105 131    13 109 134    14 110 135    12 110 135    14 112 137    11 111 135    10 110 136    13 113 139    15 117 142    16 118 143    15 119 144    16 120 145    11 115 140    10 114 139    10 114 139    12 116 141    12 115 140    10 115 140     6 112 136     6 112 136     7 113 137     8 114 138     9 115 139    12 118 142    15 121 145     9 119 142     7 117 140    10 120 143    11 121 144    14 124 147    19 129 152    19 129 152    21 131 154    17 129 151    14 126 148    15 127 149    13 125 147    18 130 152    20 131 152    20 131 151    19 130 150    17 128 148    16 127 147    17 128 148    19 130 150  
  16 103 130    15 103 130    15 105 131    16 108 133    13 107 132    13 107 132    15 110 134    14 110 134    11 109 134    13 111 136    12 110 135    11 111 135    14 114 140    15 117 142    15 117 142    14 118 143    15 119 144    12 117 141     9 115 139     9 115 139    10 116 140    10 115 140     9 115 139     8 114 138     7 113 137     7 113 137     7 113 137     9 115 139    10 117 140    12 118 142     9 118 141     7 116 139    11 120 143    11 121 144    14 124 147    18 128 151    17 127 150    20 130 153    16 128 150    14 126 148    15 127 149    13 125 147    17 129 151    18 130 150    19 130 150    19 130 150    18 129 149    17 128 148    18 129 149    20 131 151  
  17 104 131    17 104 131    17 105 132    18 109 135    17 109 134    15 109 134    15 110 135    14 110 134    12 108 133    12 110 135    12 110 135    11 110 135    14 114 140    15 116 142    14 116 141    14 116 141    13 117 142    14 118 143    11 115 140     9 113 138     9 113 138     9 113 138     9 113 138    11 115 140     9 113 138     7 111 136     8 112 137    11 115 140    11 115 140     9 115 139     8 117 140     7 116 139    12 121 144    12 121 144    14 124 147    17 127 150    16 126 148    18 128 151    16 127 150    14 126 148    14 127 149    12 124 146    15 127 149    16 128 148    17 128 148    19 130 150    19 130 150    19 130 150    20 130 150    21 132 152  
  18 105 132    17 104 131    19 106 133    18 107 134    15 107 132    13 107 132    15 109 134    13 109 133    12 108 133    14 110 135    11 109 134    11 110 135    14 114 140    15 116 142    13 115 140    13 115 140    15 117 142    16 120 145    12 116 141     8 112 137     8 112 137     9 113 138     9 113 138    11 115 140     8 112 137     5 109 134     8 112 137    12 116 141    11 116 141     9 113 138     9 116 140     8 117 140    13 122 145    14 123 146    16 125 148    17 127 149    14 124 147    15 125 148    15 126 148    14 126 148    15 127 149    12 124 145    14 126 148    15 126 146    16 127 147    19 130 150    20 131 151    20 131 151    20 131 151    21 132 152  
  19 106 133    18 105 132    18 106 133    14 106 131    12 104 129    10 104 129    13 107 132    14 108 133    12 108 133    14 110 135    12 110 135    11 110 135    13 113 139    14 115 140    13 115 140    12 114 139    15 118 143    17 121 146    13 117 142     9 113 138     9 113 138     9 113 138     9 113 138     9 113 138     7 111 136     4 108 133     7 111 136    12 116 141    12 116 141    10 114 139    12 118 142    11 118 142    15 124 147    15 124 147    17 126 149    19 128 151    15 124 147    14 124 147    14 124 147    14 124 147    14 127 149    11 123 145    13 125 147    13 125 145    15 126 146    18 129 149    20 131 151    20 131 151    20 132 152    21 132 152  
  20 106 133    18 105 132    18 105 132    14 103 130    10 102 127     9 103 128    12 106 131    13 107 132    12 107 132    14 110 135    12 110 135    11 110 135    12 112 138    14 114 140    13 115 140    14 116 141    16 119 144    17 121 146    14 118 143    11 115 140    10 114 139    10 114 139    10 114 139     8 112 137     6 110 135     5 109 134     7 111 136    11 115 140    12 116 141    11 115 140    13 119 143    11 118 142    15 124 147    15 123 146    16 125 148    19 128 151    15 124 147    13 123 146    13 123 146    14 124 147    14 127 149    10 123 145    13 125 147    14 125 146    15 126 146    17 128 148    18 129 149    19 130 150    20 130 150    21 132 152  
  20 106 133    18 105 132    16 104 131    13 105 130    12 104 129    12 104 129    14 106 131    13 107 132    11 107 132    13 109 134    13 111 136    11 109 135    12 111 137    13 113 139    14 114 140    16 118 143    18 121 146    17 121 146    14 118 143    13 117 142    12 116 141    12 115 140    10 114 139     9 113 138     8 112 137     7 111 136     7 111 136     9 113 138    10 114 139    11 115 140    13 119 143    11 117 141    14 120 144    13 121 144    14 123 146    18 127 150    15 124 147    14 123 146    13 123 146    13 123 146    14 124 148    12 122 145    15 125 148    16 126 147    16 127 147    17 128 148    17 128 148    17 128 148    18 129 149    21 132 152  
  20 106 133    17 104 130    16 103 130    17 106 132    15 107 132    14 106 131    15 108 133    12 106 131    11 105 130    12 108 133    14 111 136    10 109 134    11 109 136    13 112 138    15 115 141    17 119 144    20 122 147    17 120 145    14 118 143    14 118 143    14 118 143    13 117 142    11 115 140    10 114 139    10 114 139    10 114 139     8 112 137     7 111 136     8 112 137     9 113 138    13 119 143    11 116 141    13 119 143    10 118 141    12 121 144    16 125 148    14 123 146    14 123 146    13 122 146    12 122 145    14 124 147    12 122 145    16 126 149    16 127 148    16 127 147    16 127 147    15 127 147    16 127 147    17 128 148    20 131 151  
  18 104 131    18 104 131    18 105 132    17 106 133    17 107 133    16 108 133    15 107 132    14 107 132    12 106 132    11 107 132    13 109 134    15 112 137    13 111 138    11 110 137    15 115 141    18 118 144    14 116 141    14 116 141    17 119 144    17 119 144    17 119 144    15 117 142    12 114 139    10 113 138    12 114 139    14 116 141    12 114 139    10 112 137    10 112 137    10 114 139     9 115 139    10 116 140     7 113 137     8 114 138    17 123 147    16 125 148    12 121 144    12 121 144    15 124 147    21 130 153    17 127 150    12 122 146    18 128 151    18 128 149    13 124 144    12 123 143    16 127 147    18 129 149    17 128 148    17 128 148  
  18 104 131    18 104 131    18 104 131    19 106 133    18 108 134    17 109 134    16 108 133    16 108 133    13 107 133    13 107 133    10 106 131    12 109 135    10 108 135    10 109 135    13 113 139    15 115 141    13 113 139    14 116 141    16 118 143    17 119 144    16 118 143    15 117 142    12 114 139    10 112 137    12 114 139    12 114 139    10 112 137     9 111 136     9 110 135    11 113 138    10 114 139    12 118 142     9 115 139     9 115 139    16 122 146    17 125 149    12 121 144    11 120 143    13 122 145    17 126 149    15 125 148    13 123 146    17 127 150    17 128 149    13 124 144    12 123 143    16 126 146    17 128 148    17 128 148    18 129 149  
  19 103 131    19 103 131    18 104 131    18 107 133    18 108 134    18 108 134    18 108 134    17 109 134    15 108 134    14 108 134    10 106 131    12 108 134    11 109 136    12 110 137    14 112 139    13 113 139    12 112 138    14 116 141    15 118 143    16 118 143    16 118 143    15 117 142    12 114 139    10 113 138    11 113 138    10 112 137     8 110 135     7 109 134     8 110 135    11 113 138    10 114 139    14 118 143    13 117 142    10 115 140    14 120 144    18 124 148    14 121 145    10 119 142    12 120 144    11 120 143    12 121 144    16 125 148    16 126 149    16 127 148    14 125 145    12 123 143    15 126 146    16 127 147    17 128 148    19 130 150  
  18 102 130    19 103 131    18 104 131    19 105 132    17 107 133    17 107 133    17 107 133    16 108 133    16 107 134    14 108 134    13 107 133    15 110 136    15 112 139    15 113 140    16 114 141    14 114 140    13 113 139    14 115 140    15 117 142    14 116 141    14 116 141    15 117 142    13 115 140    12 114 139    12 114 139    10 112 137     8 110 135     8 110 135     9 111 136    12 114 139     9 113 138    13 117 142    13 117 142    10 115 139    12 118 142    16 122 146    14 121 145    10 119 142    11 120 143     7 116 139    10 120 143    17 126 149    15 125 148    16 126 147    14 125 145    13 124 144    15 126 146    16 127 147    17 128 148    19 131 151  
  18 102 130    18 102 130    19 104 131    17 104 131    17 104 131    15 105 131    15 105 131    16 107 132    15 106 133    13 107 133    14 108 134    14 110 136    16 111 139    16 113 140    15 113 140    14 112 139    13 113 139    14 114 140    15 115 141    14 114 140    14 114 140    15 115 141    14 114 140    14 114 140    14 114 140    11 111 137    10 110 136    11 111 137    12 112 138    12 114 139     7 111 136    11 115 140    12 116 141    10 113 138    11 115 140    13 119 143    14 120 144    14 120 144    13 121 144     8 117 140    10 120 143    17 126 149    16 125 148    15 125 146    14 125 145    14 125 145    15 126 146    16 127 147    16 127 147    19 131 151  
  18 102 130    18 102 130    18 102 130    17 103 130    16 103 130    14 104 130    15 105 131    15 105 131    14 105 132    15 106 133    13 107 133    12 106 133    13 108 136    12 110 137    11 109 136    11 109 136    12 111 137    13 113 139    14 114 140    12 112 138    13 113 139    15 115 141    15 115 141    15 115 141    14 114 140    11 111 137    11 111 137    12 112 138    13 113 139    12 112 138    10 112 137     9 113 138    10 114 139    10 114 139    11 115 140    11 117 141    12 118 142    14 120 144    13 122 145    11 120 143    11 120 143    14 123 146    14 123 146    14 124 145    14 125 145    15 126 146    17 128 148    16 127 147    15 127 147    19 129 149  
  18 102 130    18 102 130    18 103 130    16 103 130    17 104 131    15 105 131    15 105 131    16 106 132    15 106 133    15 106 133    14 109 134    12 106 132    12 107 135    12 109 137    10 108 135    10 108 135    13 111 138    13 113 139    13 113 139    11 111 137    12 112 138    14 114 140    15 115 141    14 114 140    12 112 138    11 111 137    11 111 137    12 112 138    11 111 137     9 111 136    10 114 139     9 113 138    10 114 139    12 115 140    12 116 141    11 117 141    11 117 141    14 120 144    15 120 145    16 122 146    12 121 144     9 118 141    11 120 143    12 123 143    13 124 144    16 127 147    19 130 150    17 128 148    15 126 146    18 129 149  
  17 101 129    18 102 130    18 102 130    18 103 130    17 104 131    18 105 132    16 106 132    17 107 133    17 107 134    17 108 135    19 111 138    15 109 135    15 109 137    15 110 138    11 109 136    12 110 137    15 113 140    13 113 139    13 113 139    11 111 137    11 111 137    15 115 141    16 116 142    13 113 140    11 111 137    10 110 136    11 111 136    12 112 138    11 111 136     8 108 134    14 117 142     9 113 138    10 114 139    13 117 142    14 118 143    13 117 142    11 117 141    13 119 143    14 120 144    19 124 149    11 120 143     5 114 137     9 118 141    12 121 142    14 123 144    18 127 148    20 129 150    18 127 148    16 125 146    17 128 148  
  19 103 127    18 102 128    21 105 131    23 108 133    22 110 134    22 110 134    19 107 131    16 105 129    14 104 129    14 106 131    15 107 132    15 108 134    15 110 136    12 108 133    11 107 132    13 109 134    13 112 137    15 115 141    15 115 141    13 113 139    13 113 139    15 115 141    14 114 140    12 112 138    11 111 137    12 112 138    13 113 139    12 112 138     8 108 135     9 109 135     6 108 131     8 111 133    11 113 136    13 115 138    11 116 138    11 116 138    10 115 137    10 115 137    13 118 140    11 117 139    10 116 138    13 119 141    13 119 141    12 118 140    12 118 140    13 119 141    14 120 142    13 121 142    13 122 143    17 127 147  
  19 102 126    17 101 126    20 104 130    18 103 129    19 105 130    19 107 131    19 107 130    18 106 130    17 107 132    18 108 134    11 103 128    14 106 132    15 109 135    14 110 135    14 110 135    16 112 137    17 113 139    15 114 140    15 115 141    13 113 139    13 113 139    15 115 140    13 113 139    13 113 139    12 112 138    12 112 138    13 113 139    11 111 137     9 109 135    10 110 136     8 110 133     9 111 134    11 113 136    12 114 137    13 115 138    12 117 139    10 115 137    10 115 137    13 118 140    11 117 139    10 116 138    13 119 141    12 118 140    11 116 138    13 118 140    16 121 143    18 123 145    17 123 145    16 122 144    18 124 146  
  18 100 124    17 100 124    18 102 128    15 101 126    16 102 127    19 105 130    20 106 131    19 107 131    17 107 132    17 107 133    12 104 129    14 107 132    16 110 136    16 110 136    16 110 136    16 112 137    14 112 138    12 112 138    14 114 140    13 113 139    13 113 139    14 114 140    12 112 138    14 114 140    13 113 139    12 112 138    12 112 138    11 111 137    10 110 136    12 112 138    11 111 135    10 111 135    11 113 136    12 114 137    13 115 138    14 116 139    12 115 137     9 114 136    12 117 139    12 117 139    10 116 138    12 118 140    12 118 140    10 116 137    13 118 139    18 123 145    20 125 147    18 124 146    16 122 144    16 122 144  
  18 100 124    17 100 125    17 101 127    16 101 126    17 103 128    20 106 131    20 107 132    18 106 130    15 104 130    14 104 130    16 108 133    17 109 135    17 111 137    17 111 137    16 110 136    14 110 135    12 109 134    11 110 137    13 113 139    12 112 138    13 113 139    14 114 140    12 112 138    15 115 141    14 114 140    11 111 137    11 111 137    10 110 136    10 110 136    13 113 139    11 111 135    10 111 135     9 111 134    10 112 135    11 113 136    12 114 137    11 114 137     9 114 136    11 116 138    12 117 139    10 116 138    11 117 139    11 117 139    11 116 138    14 119 142    18 123 145    18 124 145    17 123 145    17 123 145    16 122 144  
  19 101 125    18 101 126    18 102 128    15 101 126    16 102 127    19 105 130    20 106 131    18 106 130    15 104 130    14 104 130    17 109 134    17 109 135    18 109 136    17 110 137    16 110 136    14 110 135    12 108 134    11 109 136    13 110 138    12 110 137    13 111 138    14 112 139    13 111 138    16 114 141    15 113 140    12 110 137    12 110 137    11 109 136    11 109 136    14 113 139    11 111 135    10 110 134     9 109 133     9 109 133    10 110 134    10 112 135    10 112 135    10 112 135    11 115 137    12 117 139    12 117 139    11 116 138    12 117 139    13 118 140    17 122 144    18 123 144    15 120 142    16 121 143    18 123 145    17 123 145  
  20 102 126    19 102 126    18 102 128    14  98 124    14  99 125    17 103 128    19 106 130    19 107 131    19 106 132    18 108 134    16 106 132    14 105 131    15 106 133    16 109 135    18 112 138    17 113 138    15 111 137    12 109 136    12 110 137    11 109 136    12 110 137    14 112 139    14 112 139    16 114 141    14 112 139    12 110 137    12 110 137    11 109 136    10 109 135    14 112 139    12 110 135    10 110 134    10 110 134     9 109 133     9 109 133    10 110 134     9 111 134     9 111 134    11 113 136    12 117 139    12 117 139     9 114 136    11 116 138    13 118 140    17 122 144    16 121 143    12 117 139    14 119 141    17 122 144    15 121 143  
  19 101 125    20 101 126    18 100 127    15  99 125    17 101 127    18 104 129    19 105 130    19 106 130    19 106 132    19 109 135    17 107 133    14 104 130    13 104 131    14 107 133    17 111 137    18 112 138    16 112 137    14 110 135    14 110 135    12 108 133    12 108 133    16 112 137    17 113 138    18 114 139    15 111 136    14 110 135    14 110 135    13 109 134    12 108 133    13 111 136    13 112 135    13 112 135    13 112 135    12 111 134    11 111 134    10 110 133     9 109 132    10 111 133    10 112 134    14 116 138    14 116 138    11 113 135    13 115 137    12 114 137    16 118 141    18 120 143    13 116 139    13 118 140    15 120 143    12 117 139  
  20 100 125    19 100 125    18  99 126    19 102 128    21 105 131    20 106 131    18 104 129    17 103 128    17 104 130    18 105 132    21 111 137    16 107 133    13 104 131    13 106 132    15 109 135    15 109 135    15 109 135    15 111 136    13 110 135    11 107 132    12 108 133    16 112 137    18 114 139    17 113 138    15 111 136    14 110 135    14 110 135    13 109 134    12 108 133    14 110 135    16 112 136    14 113 136    15 114 137    14 113 136    13 112 135    12 111 134    10 110 133    10 110 133    10 110 133    14 115 137    14 115 137    10 112 134    13 115 137    10 112 135    15 117 140    19 121 144    15 118 140    14 119 141    14 119 141     9 114 136  
  18  98 123    18  98 123    17  98 125    19 103 129    21 105 131    22 106 132    23 108 134    21 107 132    18 105 131    20 107 134    20 110 136    19 109 135    15 106 133    12 103 130    14 106 133    14 108 134    15 109 135    17 111 137    16 110 136    15 109 135    16 110 136    17 111 137    19 113 139    19 113 139    17 111 137    15 109 135    13 107 133    14 108 134    15 109 135    15 111 136    14 110 134    14 110 134    15 111 135    15 112 135    14 113 136    15 114 137    14 113 136    12 112 135    12 112 135    13 113 136     9 109 132    14 114 137    15 115 138    12 113 136    12 114 137    14 116 139    17 119 142    19 121 144    18 122 145    18 123 145  
  18  98 123    18  98 123    17  98 125    18  99 126    17 101 127    18 102 128    18 103 129    16 102 127    15 101 127    16 103 130    21 108 135    19 109 135    16 107 134    14 105 132    16 107 134    15 109 135    15 108 135    16 110 136    15 109 135    15 109 135    16 110 136    17 111 137    18 112 138    18 112 138    17 111 137    15 109 135    13 107 133    13 107 133    14 108 134    16 110 136    15 109 134    14 110 134    14 110 134    14 110 134    13 109 133    11 110 133    12 111 134    11 110 133     8 107 130     9 109 132     8 108 131    12 112 135    16 116 139    13 113 137    12 114 137    14 116 139    16 118 141    18 120 143    16 120 143    16 121 143  
  19  99 124    19  99 125    19  99 126    18  99 126    17  98 125    16 100 126    17 100 127    15 100 125    14 100 126    16 103 129    18 105 132    18 108 134    17 107 134    16 107 134    18 109 136    18 109 136    16 107 134    16 108 133    17 109 134    18 110 135    18 110 135    18 110 135    18 110 135    18 110 135    17 109 134    16 108 133    15 107 132    15 107 132    15 108 133    15 109 134    15 110 132    15 110 132    14 109 131    12 108 130    11 107 129    10 106 128    11 107 129     9 107 128     7 106 127    17 116 137    17 117 137    15 113 135    16 116 138    13 113 137    13 113 137    13 115 138    15 117 140    15 117 140    15 117 140    15 117 140  
  20  97 123    19  99 125    19  99 126    20 101 128    19 100 127    17 101 127    18 102 128    17 101 127    17 102 129    20 107 134    14 101 128    17 105 131    16 106 133    16 107 134    18 109 136    17 108 135    15 106 133    16 108 133    17 109 134    18 110 135    18 110 135    17 109 134    16 108 133    16 108 133    16 108 133    15 107 132    14 106 131    15 107 132    15 108 133    16 108 133    14 109 131    14 109 131    14 109 131    12 108 130    11 107 129    11 107 129    10 107 129     9 105 127    16 114 135    33 132 153    29 128 149    16 115 136    15 114 136    14 113 137    14 114 138    14 116 139    15 117 140    15 117 140    14 116 139    14 116 139  
