P3
50 50
255
   4 111 129     5 110 130     4 109 128     1 106 125     3 109 128     4 111 129     2 109 127     1 109 127     1 111 128     2 112 129     2 109 127     3 110 128     5 112 130     2 111 128     1 109 126     3 113 130     6 117 133     2 113 130     7 118 135     7 118 135     4 115 132     3 114 131     7 120 136     5 119 136     1 118 135     3 120 137     4 120 138     2 119 136     1 119 135     3 123 139    11 133 148     4 126 141     1 124 139     2 125 140     3 126 142     2 125 141     1 127 142     2 133 147     4 136 151     2 135 150     3 138 153     8 145 159     9 147 163     2 143 158     1 142 156     1 145 160     5 152 166     5 153 167     1 149 163     1 148 162  
   4 111 129     5 112 130     3 110 128     1 107 126     3 109 128     5 112 130     3 110 128     3 110 128     4 110 129     4 111 129     3 110 128     5 111 130     7 114 132     4 113 131     1 111 128     4 114 131     7 117 134     2 113 130     4 115 132     5 116 133     3 114 131     3 115 131     6 119 135     4 118 136     1 118 135     2 119 136     3 120 137     2 119 136     1 120 136     4 124 139     6 126 142     1 121 137     1 122 137     4 126 141     5 127 142     5 127 142     4 129 143     3 134 149     5 138 153     4 136 151     2 135 150     5 141 155     5 144 159     1 142 157     1 142 156     2 145 161     4 151 165     3 151 165     1 148 162     1 149 163  
   5 110 129     5 110 129     5 110 129     2 107 126     4 109 129     7 112 131     6 111 130     6 111 130     6 111 130     5 110 129     5 112 130     6 113 131     9 116 134     7 115 132     4 111 129     3 113 130     6 116 133     4 114 131     1 112 129     1 112 129     2 113 130     3 115 131     5 117 134     3 117 135     1 116 134     1 118 135     2 119 136     2 119 136     3 120 137     7 124 141     3 122 139     1 119 135     2 121 137     4 126 141     5 127 142     4 126 141     4 128 144     5 134 150     7 137 153     4 136 151     1 133 148     1 137 151     3 140 156     1 140 155     1 142 156     2 145 159     2 149 162     1 148 162     1 148 162     3 151 164  
   6 111 130     5 110 129     4 109 128     2 107 126     4 109 129     8 113 132     7 112 131     8 113 132     7 112 131     4 109 128     5 112 130     6 112 131     8 115 133     7 115 132     4 111 129     2 112 129     4 114 131     4 114 131     1 110 127     1 109 126     1 112 129     4 115 132     4 116 133     2 117 134     1 116 134     1 117 134     2 119 135     1 118 135     3 120 137     7 124 142     3 123 139     1 121 137     4 124 140     5 127 142     4 126 141     2 124 139     1 125 140     3 132 147     6 136 152     5 135 151     1 132 147     1 133 148     1 138 154     1 139 154     1 142 156     3 145 159     3 146 160     1 145 159     1 146 160     4 152 166  
   6 111 130     5 110 129     4 109 128     2 107 126     4 109 129     7 112 131     7 112 131     9 114 133     7 112 131     4 109 128     4 111 129     3 111 128     6 113 131     6 113 131     3 110 128     1 110 127     3 113 130     4 114 131     1 109 126     1 109 126     1 112 129     4 115 132     4 115 132     4 116 134     1 116 134     1 116 134     3 118 135     2 117 135     3 119 136     7 124 140     4 121 138     3 121 137     5 125 141     8 128 144     5 125 141     2 122 138     1 124 139     1 128 143     4 131 146     4 134 148     1 133 148     1 133 148     3 138 152     2 138 154     1 141 156     2 144 158     1 144 158     1 143 156     1 145 159     4 150 165  
   6 111 130     4 109 128     3 108 127     3 108 127     5 110 129     5 110 129     6 111 130     8 113 132     6 111 131     3 108 127     3 110 128     2 109 127     3 110 128     4 111 129     2 109 127     1 110 127     2 112 130     3 113 130     1 111 127     1 110 127     2 113 130     4 115 132     5 116 133     4 116 134     1 116 134     2 117 135     4 119 137     2 117 135     1 117 135     4 121 138     1 117 134     1 118 135     4 124 140     7 127 143     5 125 141     4 124 140     2 125 140     1 125 140     1 127 142     4 131 146     3 133 149     1 133 148     4 137 152     3 138 154     1 138 154     2 142 157     2 144 158     1 143 157     1 143 159     3 148 164  
   6 111 130     5 110 129     2 107 126     2 107 126     4 109 128     3 108 127     3 108 127     6 111 130     6 111 130     3 108 127     4 109 128     2 107 126     3 108 127     4 110 129     3 110 128     3 110 128     4 112 130     3 113 130     2 112 129     3 113 130     4 114 131     5 115 132     5 116 133     4 117 134     4 117 135     6 119 137     7 120 138     5 118 136     1 115 133     2 117 135     1 115 133     1 117 135     5 122 139     7 124 140     4 121 138     3 120 137     2 123 139     2 124 141     1 124 140     4 130 145     7 134 149     4 134 148     4 135 150     4 137 152     1 137 151     2 139 155     3 143 158     2 144 158     2 144 158     3 146 160  
   6 111 130     5 110 129     1 106 125     2 107 126     3 108 127     2 107 126     1 106 126     5 110 129     6 111 130     2 107 126     4 109 129     2 107 125     2 107 126     4 110 128     4 111 129     5 112 130     5 113 131     3 113 130     4 114 130     5 115 132     5 115 132     5 115 132     5 116 133     4 117 134     4 117 135     6 119 137     8 121 139     5 118 136     1 114 132     1 115 133     3 118 136     3 118 136     4 121 138     3 121 137     1 116 133     1 115 132     2 119 136     3 125 142     1 123 139     5 128 144     9 135 150     5 132 148     3 132 148     4 135 151     2 135 150     1 137 153     4 142 157     3 144 159     1 143 157     2 144 158  
   7 109 129     3 106 125     4 107 126     3 106 125     2 105 124     3 106 125     4 107 126     6 109 128     7 110 129     8 111 130     7 112 131     4 109 128     3 108 127     4 109 128     5 110 129     4 111 129     4 111 129     6 113 131     5 114 131     3 113 130     3 113 130     2 112 129     2 112 129     7 118 136     6 117 136     3 114 133     1 110 130     1 111 130     1 114 132     4 117 135     7 120 139     3 117 135     3 118 136     3 118 136     5 120 138     4 119 137     1 117 133     1 121 137     5 125 141     9 130 146     8 131 147     5 132 147     3 132 146     1 133 147     2 135 150     3 136 151     1 135 149     1 136 152     4 141 157     6 145 161  
   5 108 127     3 106 125     5 108 127     3 106 125     2 105 124     3 106 125     5 108 127     7 110 129     7 110 129     7 110 129     9 114 133     6 111 130     5 110 129     3 108 127     3 108 127     1 108 126     1 108 126     5 112 130     3 113 130     3 113 130     2 112 129     2 112 129     2 112 129     1 111 130     1 112 131     2 113 132     3 114 133     3 114 133     1 113 131     1 112 130     4 117 135     1 114 132     1 116 134     1 116 133     1 116 134     3 117 135     1 115 132     1 119 135     2 122 138     5 125 141     6 127 144     7 131 146     8 134 149     2 131 146     1 132 148     3 135 150     1 134 150     1 137 153     4 141 157     8 144 161  
   4 107 126     5 107 126     7 110 129     3 106 125     2 105 124     4 107 126     6 109 128     7 110 129     7 110 129     6 109 128    10 113 132     7 110 129     6 109 128     4 109 128     4 109 128     3 108 127     2 108 126     3 110 128     4 110 129     4 111 129     4 111 129     3 111 129     2 112 129     3 113 132     5 114 134     6 115 135     5 115 135     4 115 134     1 112 131     1 111 130     4 115 134     2 114 133     5 118 136     2 115 133     2 115 133     4 117 135     1 116 134     3 119 137     3 120 137     1 120 136     1 121 137     4 126 142     8 133 148     3 128 143     1 129 144     3 133 149     2 134 149     1 136 150     4 140 154     7 144 158  
   5 108 127     7 110 129     6 109 128     2 105 124     3 106 125     5 108 127     7 110 129     8 111 130     6 109 128     5 108 127     4 107 126     4 107 125     4 107 126     4 108 127     6 111 130     6 111 130     4 110 128     2 109 127     2 109 127     3 110 128     4 111 129     3 111 129     3 113 130    13 122 141    14 123 143     9 118 138     4 113 133     1 112 131     2 113 132     3 114 133     4 115 134     5 116 135     7 120 138     3 116 134     2 115 133     6 119 137     6 120 137     6 121 139     4 119 137     2 119 136     1 118 135     1 121 137     3 125 142     2 127 142     2 129 144     5 132 149     5 135 151     3 136 151     3 136 151     6 141 155  
   9 110 130     8 109 129     5 106 126     2 103 123     4 105 125     6 107 127     8 109 129     9 110 130     6 107 127     5 106 126     3 106 125     3 106 125     4 107 126     5 108 127     7 110 129     5 110 129     4 109 128     3 108 127     2 109 127     3 110 128     3 110 128     4 111 129     4 111 129    14 121 141    16 123 143     9 117 137     4 113 133     2 111 131     3 112 132     5 114 134     3 114 133     3 114 133     7 118 137     3 115 133     2 115 133     6 119 137     5 118 135     5 118 136     5 119 137     4 119 137     2 119 136     1 119 135     1 121 137     5 128 143     5 131 146     6 133 148     6 137 151     3 135 150     2 134 149     7 139 154  
   9 110 130     8 109 129     5 106 126     3 104 124     4 105 125     5 106 126     7 108 128     7 108 128     6 107 127     5 106 126     7 110 129     5 109 128     5 108 127     5 108 127     5 108 127     1 106 125     1 105 124     4 109 128     3 110 128     3 110 128     3 110 128     3 110 128     4 111 129     4 111 130     5 112 132     4 113 133     5 114 134     5 114 134     2 111 131     1 110 130     1 110 129     1 110 129     2 113 132     1 111 130     1 112 130     2 115 133     1 113 131     1 113 131     3 116 134     6 119 137     5 120 138     3 121 138     2 123 139     5 128 144     6 129 145     6 132 147     7 135 150     2 133 149     1 133 148     7 139 154  
   6 107 127     7 108 128     7 108 128     4 105 125     4 105 125     4 105 125     5 106 126     5 106 126     5 106 126     5 106 126     7 110 129     5 109 128     5 108 127     5 108 127     4 107 126     1 104 123     1 104 123     5 110 129     4 110 129     4 111 129     3 110 128     3 110 128     3 110 128     1 108 127     1 108 128     3 110 130     4 112 132     3 112 132     2 111 131     2 111 131     1 109 129     1 107 126     1 110 129     1 110 129     1 112 131     3 114 132     1 110 128     1 112 129     3 116 133     6 119 137     4 119 137     4 121 138     4 124 140     5 125 142     2 125 141     1 127 142     4 132 147     1 131 147     2 132 148    10 142 157  
   3 104 124     6 107 127     9 110 130     6 107 127     4 105 125     4 105 125     4 105 125     4 105 125     5 105 125     5 106 126     4 107 126     4 107 126     5 108 127     5 108 127     5 108 127     1 106 125     2 106 125     6 111 130     5 110 129     4 111 129     3 110 128     3 110 128     3 109 128     7 112 131     7 112 131     4 109 128     1 108 126     2 109 127     5 112 130     9 116 134     4 111 129     1 108 125     1 111 128     2 112 129     4 114 132     4 115 132     1 112 129     5 116 133     5 117 135     5 118 136     2 117 135     3 119 136     4 122 139     1 123 138     1 121 136     1 123 138     3 129 144     2 129 144     4 131 146    13 143 157  
   4 105 125     6 106 126    10 108 129     8 104 126     6 102 124     7 103 125     8 107 128    10 109 130     7 107 128     3 104 124     3 106 123     3 105 123     2 105 122     1 104 121     2 105 122     3 106 123     4 107 124     5 108 125     2 105 122     4 108 124     9 112 129     9 112 129     5 108 125     5 108 125     3 106 125     1 104 123     1 106 125     2 107 126     1 106 125     1 104 123     7 112 131     2 109 127     3 110 128     5 112 130     4 111 129     6 113 131     7 117 134     2 113 130     1 110 127     1 112 129     8 121 137     5 121 136     1 118 133     2 121 135     1 119 134     4 126 141     2 126 141     3 128 142     1 124 138    11 138 151  
   4 105 125     3 104 124     5 103 124     7 103 125     6 102 124     6 102 124     8 105 126     8 107 128     6 106 126     2 103 123     4 107 124     4 107 124     3 106 123     3 106 123     4 107 124     4 107 124     5 108 125     5 108 125     2 106 122     4 107 124     7 110 127     7 110 127     4 107 124     4 105 123     4 105 123     3 106 123     4 107 124     6 109 126     6 109 126     5 108 125     6 112 128     3 109 125     3 109 125     4 110 127     3 110 126     5 112 128     7 114 131     2 112 129     1 111 128     1 111 128     6 119 135     4 118 134     1 117 131     4 123 137     8 128 142    15 137 150     7 129 142     4 128 140    13 138 150    43 171 182  
   4 105 125     4 102 124     5 101 123     6 102 124     7 103 125     6 102 124     5 102 124     5 104 125     3 104 124     2 103 123     4 107 124     4 107 124     4 107 124     5 108 125     6 109 126     6 109 126     7 110 127     5 108 125     2 106 122     2 105 122     4 107 124     5 108 125     3 106 123     3 104 122     4 105 123     6 107 125     7 108 126     6 109 126     7 110 127     9 112 129     4 110 126     2 108 124     2 108 124     2 109 125     2 109 125     4 111 127     5 113 129     2 112 129     1 112 129     1 112 129     3 116 132     1 115 130     1 115 130     1 117 131     1 115 129     1 119 132     1 112 125     8 127 139    37 161 173    85 211 225  
   3 104 124     6 106 126     9 106 128     8 105 126     7 103 125     6 102 124     4 101 123     3 102 123     2 103 123     1 102 122     4 107 124     4 107 124     4 107 124     5 108 125     6 109 126     6 109 126     7 110 127     5 108 125     2 106 122     1 104 121     1 104 121     2 105 122     2 105 122     2 103 121     4 106 124     7 108 126     7 109 126     5 108 125     5 109 125     8 111 128     3 109 125     1 107 123     1 107 123     1 108 124     1 108 124     2 109 125     3 110 127     2 112 129     3 114 131     2 113 130     2 115 131     1 113 129     1 115 130     3 120 135     1 120 134     4 127 139     2 125 137     5 129 141     3 127 139    13 138 151  
   2 103 123     7 105 126    12 108 130     9 105 127     7 103 125     7 103 125     5 102 124     3 102 123     2 102 123     2 103 123     3 104 122     4 105 123     5 106 124     5 106 124     6 107 125     6 107 125     5 107 125     5 106 124     4 105 123     3 104 122     1 102 120     1 102 121     4 105 123     2 103 121     4 106 124     7 108 126     6 108 125     3 106 123     3 105 123     4 107 124     3 106 123     3 107 124     1 107 123     1 107 123     2 108 124     3 109 125     2 109 125     4 111 129     6 115 133     4 114 131     4 114 132     1 112 129     1 115 131     1 113 127     1 110 124     1 120 134     5 126 139    11 133 146     3 122 135     1 119 131  
   2 103 123     3 103 123     7 104 126     6 102 125     7 103 125     8 104 126     7 104 125     4 103 124     3 103 124     3 104 124     3 104 122     4 105 123     5 106 124     5 106 124     4 105 123     4 105 123     3 104 122     4 105 123     5 107 125     4 105 123     2 103 121     1 102 121     4 105 123     3 104 122     4 105 123     6 107 125     5 107 125     3 106 123     1 104 121     1 104 121     3 106 123     4 108 125     2 108 124     1 107 123     3 109 125     3 109 125     2 108 125     4 111 129     6 115 132     4 114 131     4 116 133     1 113 130     3 116 132     6 121 137     2 120 134     1 120 134     1 114 128     3 123 136     5 128 140    14 140 152  
   3 104 124     3 101 122     3  99 121     3  99 121     7 103 124     9 105 127     9 105 127     6 105 126     4 105 125     5 106 126     5 106 124     5 106 124     6 107 125     5 106 124     4 105 123     3 104 122     2 103 120     3 104 122     6 107 125     7 108 126     4 105 123     2 103 121     6 107 125     3 104 122     2 103 121     3 104 122     5 106 124     6 107 125     4 105 123     2 103 121     3 106 123     6 109 126     5 108 125     1 107 123     4 109 126     4 109 126     1 107 123     2 109 127     4 111 129     4 111 129     5 115 132     2 114 130     3 116 132     1 116 131     2 118 133     8 126 140     3 122 136     7 127 141     3 125 138     7 131 143  
   6 107 127     2 103 123     1  98 120     2  98 120     7 102 124    10 106 128    10 107 129     7 106 127     5 105 126     6 107 127     6 107 125     7 108 126     7 108 126     6 107 125     4 105 123     2 103 121     1 102 120     2 103 121     7 108 126     8 109 127     5 106 124     3 105 122     7 108 126     3 104 122     1 102 120     2 103 121     6 107 125     9 110 128     7 108 126     3 104 122     4 107 124     7 110 127     6 109 126     2 108 124     4 111 127     4 109 126     1 107 123     1 108 126     2 109 127     2 109 127     5 115 132     4 114 131     2 114 130     3 118 133     1 114 129     1 114 128     1 111 125     3 121 135     2 122 135     3 124 137  
   5 106 126     7 105 126    10 106 128     3  99 120     2  98 119     5 101 123     5 102 124     3 102 123     2 102 123     4 105 125     6 105 124     5 103 122     5 104 123     1  99 118     6 105 124     8 107 126     1  98 117     3 102 121     1 100 119     4 104 122     6 105 124     4 103 122     6 105 124     7 106 125     7 106 125     7 106 125     6 105 124     4 105 123     1 102 121     1 101 119     1 102 119     1 100 118     1 101 118     1 104 121     4 107 124     4 107 124     3 107 124     6 111 130     5 110 129     3 108 127     1 107 125     1 111 128     6 117 134     2 113 130     2 114 130     3 119 134     3 120 135     3 121 135     4 123 137     7 128 142  
   3 104 124     1 102 122     6 104 125     4 100 122     4 100 122     6 102 124     5 102 123     2 101 122     2 102 123     3 104 124     6 105 124     6 105 123     6 105 124     2 101 120     6 105 124     8 107 126     1  99 118     3 102 121     2 100 120     4 104 123     6 105 124     4 103 122     6 105 124     6 105 123     5 104 123     5 104 123     5 104 123     4 105 123     3 104 122     2 103 121     7 110 127     5 108 125     4 107 124     4 107 124     4 107 124     2 105 122     2 106 123     5 110 129     5 110 129     3 108 127     1 108 126     3 111 129     6 116 133     2 112 128     1 114 129     2 118 133     3 119 134     3 121 135     4 124 138     9 129 142  
   2 102 123     1  99 121     7 103 125     7 103 125     7 103 125     7 103 125     5 102 123     2 101 122     1 102 122     2 103 123     6 105 124     6 105 123     6 105 124     3 102 121     6 105 124     7 106 125     1 100 119     3 102 121     2 101 120     4 104 123     5 104 123     4 103 122     6 105 124     4 103 122     3 102 121     3 102 121     4 103 122     5 104 123     4 105 123     4 105 123    10 111 129     7 108 126     6 107 125     4 107 124     3 106 123     2 105 122     1 104 122     6 109 128     6 109 128     6 109 128     4 109 128     3 111 129     5 115 132     1 111 128     1 112 129     3 116 132     3 117 133     3 119 134     7 124 138     9 129 143  
   4 105 125     3 104 124     8 105 127     7 103 125     6 102 124     6 102 124     5 102 124     3 102 123     3 103 124     4 105 125     5 104 123     5 104 123     5 104 123     2 101 121     4 104 123     4 104 122     1 101 120     3 102 121     3 102 121     4 103 122     5 104 123     5 104 123     6 105 124     4 103 122     3 102 121     3 102 121     3 102 121     4 103 122     4 104 123     4 105 123     1 102 120     1 102 120     1 102 120     1 103 120     2 105 122     2 105 122     2 106 123     5 108 127     5 109 128     6 109 128     5 110 129     5 111 129     4 113 130     2 113 130     3 114 131     3 116 132     2 116 132     2 118 133     5 122 137     8 126 140  
   5 106 126     7 105 127     7 103 125     5 101 123     5 101 123     5 101 123     5 102 124     6 105 126     5 105 126     5 106 126     3 102 121     5 104 123     3 102 121     3 102 120     3 102 121     2 101 120     2 101 120     4 103 122     4 103 122     4 103 122     4 103 122     5 104 123     5 104 123     6 104 123     6 103 122     6 103 122     5 103 122     3 102 121     3 102 121     3 102 121     1  98 116     1  98 116     1 101 119     1 102 120     2 105 122     3 106 123     4 107 125     5 106 126     5 107 127     6 109 128     5 110 129     5 110 129     4 111 129     5 114 131     4 115 132     3 116 132     2 116 132     2 118 133     3 119 134     4 122 136  
   4 105 125     5 106 126     3 100 122     2  98 120     3  99 121     4 100 122     6 103 125     7 106 127     6 106 126     4 105 125     2 101 120     5 104 123     3 102 121     3 102 121     2 101 120     1  99 118     4 103 122     4 103 122     5 104 123     3 102 121     3 102 121     5 104 123     5 104 123     5 103 122     7 104 123     7 104 123     6 104 123     5 104 123     2 101 121     2 101 120     1 102 120     2 103 121     3 104 122     2 105 122     2 105 122     4 107 124     5 107 125     5 106 126     3 105 125     5 108 127     4 109 128     5 110 129     4 111 129     4 113 130     4 114 131     4 115 132     3 116 132     2 118 133     2 118 133     2 120 134  
   1 102 122     5 103 124     5 101 123     3  99 121     3  99 121     5 101 123     7 104 126     7 106 127     4 105 125     1 101 121     4 102 121     9 106 125     6 103 122     7 104 123     5 102 121     3 100 119     8 105 124     7 104 123     8 105 124     5 102 121     5 102 121     7 104 123     6 103 122     3 101 120     5 102 121     7 104 123     8 106 125     7 106 125     5 103 122     3 102 121     3 104 122     5 106 123     6 107 125     4 105 123     3 104 122     4 107 124     5 108 126     5 106 126     3 104 124     4 105 125     5 108 127     5 110 129     4 111 129     1 110 127     1 111 128     2 113 130     5 117 133     6 119 135     4 119 134     3 119 134  
   1 100 120     3 103 124     7 106 127     3 102 123     4 100 122     6 102 124     8 105 126     7 106 127     2 103 123     1  97 118     5 103 123    11 108 127     8 105 124     9 106 125     6 103 122     4 101 120     9 106 125     7 104 123     8 105 124     5 102 121     5 102 121     8 105 124     6 103 122     2  99 118     1 100 119     5 104 123     8 107 126     9 108 127     6 106 125     4 103 122     1 101 119     2 103 121     4 105 123     3 104 122     3 104 122     4 107 124     6 108 126     5 106 126     2 103 123     2 105 124     5 108 127     5 110 129     4 110 129     1 107 125     1 109 126     2 112 129     6 117 134     9 120 137     7 120 136     4 120 135  
   2 104 124     1 101 121     3 103 123     7 106 127     4 103 124     1 100 121     1 101 121     4 103 124     5 104 125     3 102 123     3 102 123     3 102 123     3 102 123     4 103 124     3 102 123     1 100 121     1  99 120     3 102 123     1 100 121     1  98 119     1  98 119     1 100 121     3 102 123     1 100 121     2 101 122     2 101 122     1 100 120     1 102 122     2 103 123     1 101 121     3 104 124     8 109 129     2 101 121     2 102 122     1 101 121     1 100 120     7 109 129     5 108 127     7 110 129     6 109 128     4 107 126     3 108 127     6 111 130     3 108 127     1 108 126     3 110 128     4 114 131     5 115 132     2 112 130     1 110 127  
   2 105 124     1 104 123     5 106 126     5 106 126     5 106 126     7 106 127     6 105 126     6 105 126     5 105 125     6 105 126     3 102 123     3 102 123     4 103 124     6 105 126     7 106 127     6 105 126     4 103 124     4 103 124     2 101 122     1 100 121     1 100 121     2 101 122     4 103 124     3 104 124     5 106 126     5 106 126     3 104 124     5 106 126     6 107 127     4 105 125     1 101 121     8 109 129     5 106 126     9 110 130     5 106 126     1  99 119     4 106 125     5 108 127     5 108 127     4 107 126     2 107 126     2 107 126     5 110 129     7 112 131     5 110 129     1 108 126     1 108 126     5 112 130     7 114 132     5 115 132  
   2 105 124     3 106 126     6 109 128     2 104 124     4 105 125     8 109 129     6 107 127     4 103 124     4 103 124     7 106 127     5 104 125     4 103 124     5 104 125     5 105 125     7 106 127     5 104 125     4 103 124     5 104 125     4 103 124     4 103 124     4 103 124     4 103 124     5 104 125     4 105 125     6 107 127     6 107 127     5 106 126     6 107 127     7 108 128     6 107 127     1 100 120     5 106 126     4 105 125     9 110 130     6 107 127     1  99 119     1 103 122     4 107 126     2 105 124     2 105 124     2 107 126     3 108 127     3 108 127     7 112 131     5 110 129     1 107 125     1 108 126     6 113 131     8 115 133     5 115 132  
   3 106 125     4 107 126     4 107 126     2 103 123     2 103 123     3 104 124     3 103 123     2 101 122     2 101 122     5 104 125     7 106 127     5 104 125     4 103 124     3 102 123     2 101 122     1  99 120     1  99 120     4 103 124     5 104 125     5 104 125     5 104 125     5 104 125     4 103 124     2 102 122     3 104 124     4 105 125     2 103 123     4 105 125     5 106 126     3 104 124     2 103 123     3 103 123     1 100 120     3 103 123     4 105 125     1 100 120     2 103 123     3 106 125     1 103 122     1 104 123     2 107 126     3 108 127     1 106 125     3 108 127     2 107 126     2 109 127     6 113 131    11 118 136     8 115 133     1 110 127  
   5 108 127     3 106 125     1 104 123     4 106 125     3 104 124     1 101 121     1 101 121     2 103 123     4 104 125     4 103 124     7 108 128     4 105 125     3 104 124     2 103 123     1 102 122     1 100 120     1 100 120     3 104 124     3 104 124     3 104 124     3 104 124     3 104 124     3 104 124     1 101 121     2 103 123     2 103 123     1 102 122     2 103 123     4 105 125     2 103 123     4 105 125     2 103 123     1 101 121     3 104 124     5 106 126     2 103 123     2 104 123     2 105 124     1 103 122     1 104 123     2 107 126     2 107 126     1 105 124     2 107 126     2 107 126     2 109 127     7 114 132    11 118 136     8 115 133     1 111 128  
   5 108 127     2 105 124     1 104 123     7 108 128     6 107 127     2 103 123     3 104 124     6 107 127     8 107 128     6 105 126     6 107 127     4 105 125     4 105 125     5 105 125     6 107 127     6 107 127     4 105 125     3 104 124     2 103 123     2 103 123     2 103 123     2 103 123     3 104 124     2 103 123     4 105 125     4 105 125     3 104 124     4 105 125     5 106 126     4 105 125     2 103 123     4 105 125     8 109 129    10 110 130     8 109 129     4 105 125     1 103 122     2 105 124     2 105 124     3 106 125     2 107 126     2 107 125     1 106 125     4 109 128     4 109 128     1 108 126     1 108 126     5 112 130     8 115 133     8 118 135  
   1 106 125     1 105 124     4 107 126     5 108 127     5 108 127     6 107 127     7 108 128     7 108 128     6 107 127     5 106 126     6 107 127     4 105 125     3 104 124     4 105 125     7 108 128     7 108 128     6 107 127     4 105 125     2 103 123     1 102 122     1 102 122     2 103 123     4 105 125     2 103 123     4 105 125     4 105 125     3 104 124     4 105 125     5 107 127     4 105 125     1 102 122     3 104 124     8 109 129     7 108 128     5 106 126     5 106 126     2 104 124     2 105 124     4 107 125     5 108 127     2 107 126     2 107 126     2 107 126     3 108 127     3 108 127     2 109 127     2 109 127     3 110 128     7 114 132    10 119 137  
   1 105 124     1 105 124     7 110 129     3 104 123     2 104 123     8 109 129     9 110 130     5 106 126     2 103 123     2 103 123     6 107 127     3 104 124     2 103 123     2 103 123     3 104 124     2 103 123     3 104 124     5 106 126     2 103 123     1 102 122     1 102 122     2 103 123     5 106 126     2 103 123     2 103 123     3 104 124     1 102 122     3 104 124     4 105 125     2 103 123     2 103 123     1 101 121     1 102 122     1  98 118     1  99 119     5 106 126     4 106 126     3 106 125     5 108 127     6 109 128     3 108 127     1 106 125     3 108 127     1 103 122     1 105 124     5 112 130     7 114 132     5 112 130     5 112 130     7 114 132  
   5 110 129     4 109 128     4 109 128     4 107 126     3 106 125     4 107 126     2 105 124     1 103 122     1 102 121     5 106 126     1 104 123     8 111 130     6 109 128     2 105 124     2 105 124     1 103 122     1 104 123     2 105 124     3 105 125     3 106 125     4 107 126     4 107 126     4 107 126     6 108 127     4 105 125     5 106 126     5 106 126     4 105 125     3 104 124     1 100 120     1 100 120     1 101 121     2 103 123     4 105 125     5 106 126     6 107 127     6 108 128     5 108 127     3 106 125     3 106 125     1 106 125     2 107 126     4 109 128     2 107 126     1 106 125     1 108 126     4 111 129     7 114 132     6 113 131     5 112 130  
   5 110 129     5 110 129     4 109 128     5 109 128     4 107 126     4 107 126     4 107 125     2 105 124     2 104 124     6 107 127     1 105 123     7 110 129     5 108 127     4 107 125     4 107 126     2 105 124     2 106 125     4 107 126     3 106 125     3 106 125     2 105 124     2 105 124     1 104 123     5 107 126     3 104 124     5 106 126     5 106 126     4 105 125     3 104 124     1 100 120     2 103 123     2 103 123     3 104 124     4 105 125     5 106 126     6 107 127     5 107 126     4 107 126     5 108 127     7 110 129     5 110 129     5 110 129     4 109 128     6 111 130     5 110 129     2 109 127     1 108 126     3 110 128     4 111 129     4 111 129  
   4 111 129     4 110 129     4 109 128     5 110 129     3 108 127     3 106 125     5 108 127     5 108 127     4 107 126     5 108 127     3 106 125     6 109 128     4 107 126     5 108 127     7 110 129     3 106 125     4 107 126     6 109 128     5 108 127     3 106 125     1 104 123     1 103 122     1 102 121     4 105 125     2 103 123     4 105 125     4 105 125     4 105 125     4 105 125     1 100 120     5 106 126     5 105 125     4 105 125     4 105 125     4 105 125     4 105 125     3 105 125     3 106 125     6 109 128     9 113 132     8 113 132     5 110 129     3 108 127     6 111 130     5 110 129     1 107 125     1 106 124     1 108 126     3 110 128     5 112 130  
   4 111 129     4 110 129     4 109 128     5 110 129     2 107 126     2 105 124     5 108 127     7 110 129     5 107 126     4 107 126     6 109 128     6 109 128     3 106 125     5 108 127     6 109 128     2 105 124     3 106 125     7 110 129     6 108 127     4 107 126     2 105 124     1 104 123     1 103 122     4 105 124     2 103 123     3 104 124     3 104 124     3 104 124     5 105 125     1 102 122     6 107 127     5 107 127     4 105 125     3 104 124     2 103 123     3 104 124     3 104 124     3 106 125     6 109 128     9 112 131     7 112 131     5 110 129     3 108 127     3 108 127     1 106 125     1 105 123     1 106 125     3 110 128     5 112 130     7 114 132  
   5 112 130     4 110 129     3 110 128     4 109 128     1 106 125     1 104 123     3 107 126     6 109 128     5 107 126     3 106 125     6 111 130     4 108 127     1 105 124     3 108 127     2 107 126     1 102 121     1 105 124     4 109 128     3 108 127     3 108 127     2 107 126     1 106 125     2 106 125     4 105 125     1 102 122     2 103 123     3 104 124     3 104 124     5 106 126     2 103 123     6 107 127     4 105 125     3 104 124     1 102 122     1 102 122     2 103 123     2 104 123     4 107 126     5 108 127     5 108 127     4 109 128     4 109 128     3 108 127     1 106 125     1 105 124     1 106 124     2 109 127     5 112 130     5 112 130     5 112 130  
   5 112 130     5 112 130     4 111 129     3 108 127     1 105 124     1 105 124     4 108 127     6 109 128     4 107 126     4 107 126     6 111 130     4 109 128     1 106 125     3 108 127     1 105 124     1 103 122     1 106 126     3 108 127     3 108 127     2 107 126     2 107 126     2 107 126     2 107 126     3 107 126     1 102 122     2 103 123     4 105 125     4 105 125     6 107 127     4 105 125     5 106 126     4 105 125     3 104 124     1 102 122     2 103 123     4 105 125     4 105 125     3 106 125     4 107 125     4 107 126     3 108 127     3 108 127     3 108 127     3 108 127     3 108 127     2 109 127     3 111 128     5 112 130     2 110 127     1 108 126  
   6 113 131     5 112 130     4 111 129     2 108 126     2 107 126     3 108 127     5 110 130     4 109 128     4 108 127     7 110 129     4 109 128     3 108 127     3 108 127     4 109 128     2 107 126     2 107 125     6 111 130     2 107 126     1 106 125     1 106 125     1 106 125     1 105 125     1 105 124     5 106 126     2 103 123     3 104 124     4 105 125     5 106 126     8 109 129     6 107 127     5 106 126     4 105 125     3 104 124     3 104 124     5 106 126     7 108 128     7 108 128     3 106 125     5 108 127     7 110 129     6 111 130     4 109 128     2 107 126     4 109 128     4 109 128     2 109 127     2 109 127     4 111 129     4 111 129     3 110 128  
   4 114 131     3 113 130     2 112 129     1 109 126     2 109 127     5 112 130     7 112 131     5 110 129     4 109 128     7 112 131     2 107 126     3 110 128     4 110 128     6 111 130     4 109 128     6 111 130    10 115 134     1 106 125     1 106 125     1 105 124     1 104 123     1 103 122     1 103 122     4 106 125     2 103 123     3 104 124     5 105 125     6 107 127     9 110 130     7 108 128     5 106 126     4 105 125     3 104 124     4 105 125     7 108 128    10 111 131     8 111 130     2 105 124     6 109 128    11 114 133     9 114 133     6 111 130     2 107 126     4 108 127     3 108 127     1 106 124     1 107 125     4 111 129     7 114 132     9 116 134  
   3 114 133     2 113 132     2 113 132     1 110 129     1 108 128     1 109 129     3 110 130     4 111 131     5 112 132     5 112 132     7 114 134     8 114 134     1 107 127     2 108 128     2 109 129     1 105 125     3 110 130     2 109 129     3 108 129     1 105 126     1 104 125     1 106 127     2 107 128     3 106 127     4 106 128     4 106 128     5 107 129     5 107 129     4 106 128     3 105 127     3 105 127     2 105 126     5 107 129     5 106 128     1 102 124     2 104 126     6 108 129     5 109 128     5 110 129     2 107 126     2 107 126     5 110 129     4 109 128     1 106 125     1 106 125     3 108 127     3 108 127     3 108 127     4 109 128     4 111 129  
   1 115 133     1 113 131     4 117 135     4 115 134     3 114 133     3 112 132     2 110 130     3 110 130     2 109 129     2 109 129     2 111 131     4 112 132     1 108 128     4 110 130     4 111 131     1 108 128     5 112 132     4 111 131     4 110 130     2 107 128     1 106 127     3 108 129     4 109 130     5 108 130     5 107 129     4 106 128     3 105 127     4 106 128     5 107 129     6 108 130     3 105 127     2 104 126     4 106 128     4 106 128     1 103 125     1 103 125     4 107 128     3 108 127     4 109 128     1 106 125     1 106 125     4 109 128     3 108 127     1 106 125     2 107 126     3 108 127     3 108 127     2 107 126     3 108 127     4 111 129  
