P3
50 50
255
  33  56  72    33  56  72    35  58  74    35  58  74    35  58  74    34  57  73    34  57  73    35  58  74    35  59  75    37  60  76    35  61  76    35  60  75    34  60  75    33  59  74    33  59  74    32  59  76    33  60  77    33  60  77    33  61  79    34  63  81    34  63  81    34  63  81    34  63  81    34  63  80    34  63  81    32  63  81    33  64  82    33  64  82    34  65  83    34  65  83    36  69  86    35  69  85    35  68  85    33  68  84    31  67  83    31  67  83    31  67  83    33  66  85    34  67  85    35  68  87    33  68  87    33  68  87    32  69  88    32  70  89    32  70  89    30  71  91    30  71  91    30  71  91    30  72  92    31  74  93  
  32  55  71    33  56  72    36  59  75    35  58  74    35  58  74    34  57  73    34  57  73    35  58  74    35  59  75    37  60  76    34  60  75    34  60  75    34  60  75    33  59  74    34  60  75    33  60  77    33  60  77    33  60  77    33  61  79    34  63  81    34  63  81    34  63  81    34  63  81    34  63  80    34  63  81    32  63  81    33  64  82    33  64  82    34  65  83    34  65  83    36  69  86    35  69  85    35  68  85    33  68  84    31  67  83    30  66  82    31  65  82    33  66  85    34  67  85    35  68  87    34  69  88    32  68  87    31  68  87    32  69  88    32  70  89    33  71  92    30  71  91    30  71  91    29  72  91    30  73  92  
  33  56  72    34  57  73    35  58  74    35  58  74    35  58  74    34  57  73    34  57  73    35  58  74    35  59  75    37  60  76    33  59  74    33  59  74    34  60  75    34  60  75    34  60  75    33  60  77    33  60  77    33  60  77    33  61  79    34  63  81    34  63  81    34  63  81    34  63  81    34  63  80    34  63  81    34  63  81    34  64  82    33  64  82    34  65  83    34  65  83    36  69  86    35  69  85    35  68  85    33  66  83    32  65  82    30  66  82    30  65  81    33  66  83    34  67  85    35  68  87    33  68  87    32  68  87    31  68  86    31  68  87    33  71  90    34  72  91    32  71  90    30  71  91    30  70  90    31  72  92  
  34  57  73    35  58  74    35  58  74    35  58  74    35  58  74    34  57  73    34  57  73    35  58  74    35  59  75    37  60  76    32  58  73    33  59  74    34  60  75    35  60  75    34  60  75    33  60  77    33  60  77    33  60  77    33  61  79    34  63  81    34  63  81    34  63  81    34  63  81    34  63  80    34  63  81    34  63  81    34  64  82    33  64  82    34  65  83    34  65  83    34  67  84    34  67  84    34  67  84    32  65  82    32  65  82    30  66  82    31  64  81    33  66  83    33  66  84    34  67  86    32  67  86    32  67  86    32  68  86    32  69  87    34  71  90    35  73  92    33  72  91    29  70  90    29  70  90    31  72  92  
  35  58  74    35  58  74    34  57  73    34  57  73    35  58  74    34  57  73    34  57  73    35  58  74    35  59  75    37  60  76    32  58  73    33  59  74    35  61  76    35  61  76    35  61  76    33  60  77    33  60  77    33  60  77    33  61  79    34  63  81    34  63  81    34  63  81    34  63  81    34  63  80    34  63  81    34  63  81    35  64  82    35  64  82    34  65  83    34  65  83    33  64  82    33  64  82    32  65  82    32  65  82    32  65  82    32  65  82    31  65  81    34  66  83    33  65  83    33  66  83    33  66  85    32  67  86    33  68  87    31  68  87    34  71  89    36  74  93    33  72  91    29  70  88    28  69  88    30  71  91  
  36  59  75    35  58  74    33  56  72    34  57  73    35  58  74    34  57  73    34  57  73    35  58  74    35  59  75    37  60  76    31  57  72    32  58  73    35  61  76    35  61  76    35  61  76    34  60  77    33  60  77    33  60  77    34  60  79    34  63  81    34  63  81    34  63  81    34  63  81    34  63  80    34  63  81    34  63  81    35  64  82    35  64  82    34  65  83    34  65  83    32  63  81    32  63  81    31  64  81    31  64  81    31  64  81    32  65  82    33  65  82    35  66  84    32  65  82    32  65  82    32  65  84    33  66  86    33  68  87    31  68  87    34  71  89    37  74  93    34  72  91    31  69  88    30  68  88    30  71  91  
  34  57  73    33  56  72    35  58  74    33  56  72    34  57  73    34  57  73    34  57  73    35  58  74    35  58  74    35  58  74    36  59  77    36  59  77    36  59  77    36  59  77    34  60  77    34  60  77    34  60  77    33  60  77    33  60  77    33  60  77    33  62  78    33  62  78    33  64  79    32  61  79    34  61  80    34  63  81    35  64  82    35  64  82    34  63  81    34  63  81    34  65  83    34  65  83    36  67  85    35  68  85    34  67  84    33  66  83    33  66  84    34  67  86    32  65  84    31  64  83    29  64  83    30  65  85    32  67  87    33  68  88    33  70  89    34  71  90    33  70  90    33  70  91    34  72  93    37  75  96  
  33  56  72    33  56  72    35  58  74    33  56  72    34  57  73    34  57  73    34  57  73    35  58  74    35  58  74    35  58  74    36  59  77    36  59  77    36  59  77    36  59  77    36  59  77    34  60  77    34  60  77    34  60  77    33  60  77    33  60  77    33  62  78    33  62  78    33  64  79    33  61  79    34  61  80    34  63  81    35  64  82    35  64  82    35  64  82    34  63  81    33  64  82    34  65  83    35  66  84    34  67  84    34  67  84    33  66  83    32  66  83    34  67  86    33  66  85    32  65  84    30  65  84    31  66  85    32  67  87    31  66  86    33  68  88    32  69  88    32  69  88    32  68  90    33  69  91    36  72  94  
  33  56  72    33  56  72    35  58  74    33  56  72    34  57  73    34  57  73    34  57  73    35  58  74    35  58  74    35  58  74    35  58  76    35  58  76    35  58  76    33  59  76    33  59  76    33  59  76    33  59  76    33  60  77    32  60  77    33  62  78    33  62  78    32  62  78    32  64  79    33  62  80    35  62  81    34  63  81    35  64  82    35  64  82    35  64  82    35  64  82    33  64  82    33  64  82    34  65  83    33  65  83    33  66  83    32  65  82    32  65  83    33  66  85    34  67  85    34  67  86    32  67  86    32  67  86    31  66  86    30  65  85    31  66  86    31  68  87    32  68  88    31  67  89    32  68  90    32  70  91  
  33  56  72    33  56  72    34  57  73    33  56  72    34  57  73    34  57  73    34  57  73    35  58  74    35  58  74    35  58  74    35  58  76    35  58  76    35  58  76    33  59  76    33  59  76    33  59  76    33  60  76    34  61  78    33  62  78    33  62  78    33  62  78    32  62  78    32  63  78    34  62  80    35  62  81    34  63  81    35  64  82    35  64  82    35  64  82    35  64  82    33  64  82    33  64  82    33  64  82    32  65  82    32  65  82    32  65  82    32  65  83    33  66  85    34  67  85    35  68  87    33  68  87    32  67  86    31  66  86    29  64  84    30  65  85    32  69  88    33  69  89    32  68  90    32  68  90    33  69  91  
  33  56  72    32  55  71    34  57  73    33  56  72    34  57  73    34  57  73    34  57  73    35  58  74    35  58  74    35  58  74    33  59  76    33  59  76    33  59  76    32  59  76    32  59  76    32  59  76    32  60  77    34  63  79    34  63  79    33  62  78    33  62  78    33  62  78    33  62  78    34  62  80    35  62  81    34  63  81    34  63  81    35  64  82    35  64  82    36  65  83    33  64  82    33  64  82    33  64  82    31  64  81    32  65  82    32  65  82    32  65  83    33  66  85    34  67  85    35  68  87    33  68  87    32  67  86    31  66  86    30  65  85    32  67  87    33  70  89    34  70  90    33  69  91    33  69  91    33  71  92  
  33  56  72    32  55  71    34  57  73    33  56  72    34  57  73    34  57  73    34  57  73    35  58  74    35  58  74    35  58  74    33  59  76    33  59  76    33  59  76    32  59  76    32  59  76    32  59  76    32  61  77    34  63  79    34  63  79    34  63  79    33  62  78    33  62  78    33  62  78    34  62  80    34  61  80    33  62  80    33  62  80    34  63  81    35  64  82    35  64  82    33  64  82    33  64  82    33  64  82    31  64  81    32  65  82    32  65  82    32  65  83    33  66  85    34  67  85    34  67  86    32  67  86    32  67  86    31  66  86    31  66  86    33  68  88    34  71  90    34  70  91    34  70  92    34  70  92    35  71  93  
  32  55  71    32  55  71    34  57  73    33  56  72    34  57  73    34  57  73    34  57  73    35  58  74    35  58  74    35  58  74    34  60  77    34  59  79    33  60  79    32  60  79    32  61  79    32  61  79    31  62  80    33  64  82    34  63  81    34  63  81    35  62  81    34  61  80    34  61  80    34  61  80    34  61  80    32  61  79    32  61  79    33  62  80    34  63  80    35  64  82    34  65  83    34  65  83    33  64  82    31  64  81    32  65  82    33  66  83    33  66  84    34  67  86    33  66  85    32  65  84    30  65  84    31  66  85    32  67  87    32  67  87    33  68  88    33  70  89    33  69  89    33  69  91    34  70  92    36  72  94  
  32  55  71    32  55  71    34  57  73    33  56  72    34  57  73    34  57  73    34  57  73    35  58  74    35  58  74    35  58  76    34  59  79    34  59  79    33  60  79    32  60  79    32  61  79    30  61  79    31  62  80    33  64  82    34  64  82    34  63  81    35  62  81    34  61  80    34  61  80    34  61  80    33  60  79    32  61  79    31  60  78    33  62  80    34  63  80    35  64  82    35  66  84    34  65  83    33  64  82    31  64  81    32  65  82    33  66  83    34  67  85    34  67  86    32  65  84    31  64  83    29  64  83    30  65  85    32  67  87    32  67  87    33  68  88    32  69  88    31  68  87    32  68  90    33  69  91    36  72  94  
  33  56  72    33  56  72    34  57  73    33  56  72    35  58  74    35  58  74    34  57  73    35  58  74    36  59  75    35  58  74    35  60  78    35  61  80    28  55  74    36  64  83    26  57  75    29  62  79    31  64  81    31  64  81    33  64  82    33  62  80    34  61  80    36  63  82    36  61  81    34  60  80    34  61  80    34  63  81    34  63  81    35  64  82    35  64  82    35  64  82    34  65  83    34  65  83    34  65  83    33  65  83    33  66  83    33  66  83    33  66  84    34  67  86    33  66  85    33  66  85    31  66  85    32  67  86    34  69  89    32  67  87    33  68  88    33  70  89    33  69  89    32  68  90    33  69  90    34  70  92  
  33  56  72    33  56  72    34  57  73    32  56  71    34  57  73    35  58  74    34  57  73    35  58  74    37  60  75    35  58  76    29  54  74    32  58  77    45  73  91    31  62  80    41  74  91    34  67  84    26  59  76    31  64  81    33  64  82    33  62  80    34  61  80    37  62  82    36  61  81    34  60  80    34  61  80    34  63  81    34  63  81    35  64  82    35  64  82    35  64  82    34  65  83    34  65  83    34  65  83    33  65  83    33  66  83    33  66  83    33  66  83    33  66  85    32  65  84    32  65  84    30  65  84    31  66  86    33  68  88    32  67  87    33  68  88    33  70  89    33  69  89    32  68  90    33  69  90    34  70  92  
  33  56  72    33  56  72    34  57  73    32  55  71    33  56  72    34  57  73    33  56  72    35  58  74    37  60  75    36  59  77    37  62  82    30  57  78    30  58  79    32  63  83    25  58  77     8  43  62    33  68  88    30  64  83    33  64  84    33  61  82    34  61  82    37  62  84    38  60  83    36  60  81    34  61  80    34  63  81    34  63  81    35  64  82    35  64  82    35  64  82    34  65  83    34  65  83    34  65  83    33  65  83    33  66  83    33  66  83    33  66  83    33  66  85    32  65  84    31  64  83    30  65  84    31  66  86    32  67  87    32  67  87    33  68  88    33  70  89    33  69  89    32  68  90    33  69  90    34  70  92  
  33  56  72    33  56  72    34  57  73    32  55  71    33  56  72    34  57  73    33  56  72    35  58  74    37  60  75    36  59  77    35  60  80    33  61  82    37  66  87    30  63  82    60  95 114   159 196 214    81 117 136    29  64  83    30  64  83    33  61  82    34  61  82    38  60  83    38  59  83    36  60  81    34  61  80    34  63  81    34  63  81    35  64  82    35  64  82    35  64  82    34  65  83    34  65  83    34  65  83    33  65  83    33  66  83    33  66  83    33  66  83    33  66  85    32  65  84    32  65  84    30  65  84    31  66  86    33  68  88    33  68  88    34  69  89    33  70  89    32  68  88    31  67  89    32  68  90    34  70  92  
  33  56  72    33  56  72    34  57  73    32  56  71    34  57  73    34  57  73    33  56  72    35  58  74    37  60  75    34  60  77    31  58  78    32  60  81    42  71  92    27  59  79   171 205 224   153 190 208    39  77  94    28  64  82    30  64  83    32  60  81    33  60  81    36  60  83    37  59  82    35  59  80    34  61  80    34  63  81    34  63  81    35  64  82    35  64  82    35  64  82    34  65  83    34  65  83    34  65  83    33  65  83    33  66  83    33  66  83    33  66  84    35  68  87    34  67  86    34  67  86    32  67  86    33  68  87    35  70  90    34  69  89    34  69  89    33  70  89    32  68  88    31  67  89    32  68  90    34  70  92  
  33  56  72    33  56  72    34  57  73    34  57  73    35  58  74    36  59  75    34  57  73    35  58  74    37  60  75    35  58  76    40  65  85    33  60  81    22  53  73    45  79  98    40  77  95    28  67  84    23  61  79    28  64  82    30  64  83    32  60  81    33  60  81    38  60  83    38  59  82    35  59  80    34  61  80    34  63  81    34  63  81    35  64  82    35  64  82    35  64  82    34  65  83    34  65  83    34  65  83    33  65  83    33  66  83    33  66  83    34  67  84    36  69  88    35  68  87    34  67  86    33  68  87    34  69  88    35  70  90    35  70  90    35  70  90    33  70  89    31  68  88    30  66  88    31  67  89    34  70  92  
  33  56  72    33  56  72    34  57  73    35  58  74    37  60  76    37  60  76    35  58  74    36  59  75    36  59  75    32  58  75    24  51  70    25  54  75    35  67  86    34  69  88    22  59  77    36  75  92    24  62  80    28  64  82    30  64  83    30  61  81    33  60  81    38  60  83    38  58  82    36  59  80    34  61  80    34  63  81    34  63  81    35  64  82    35  64  82    35  64  82    34  65  83    34  65  83    34  65  83    33  65  83    33  66  83    33  66  83    33  66  84    35  68  87    34  67  86    34  67  86    32  67  86    33  68  87    35  70  90    35  70  90    35  70  90    33  70  89    30  67  87    30  66  88    31  67  89    34  70  92  
  33  56  72    33  56  72    34  57  73    36  59  75    39  62  78    38  61  77    35  59  75    36  59  75    36  59  75    32  58  75    38  65  84    37  65  86    31  61  81    27  60  79    33  68  87    24  59  78    32  67  86    29  63  82    30  63  82    32  60  81    33  60  81    36  60  82    37  59  81    35  59  80    34  61  80    34  63  81    34  63  81    35  64  82    35  64  82    35  64  82    34  65  83    34  65  83    34  65  83    33  65  83    33  66  83    33  66  83    33  66  84    34  67  86    33  66  85    33  66  85    31  66  85    32  67  86    34  69  89    35  70  90    36  71  91    33  70  89    30  68  87    30  67  87    31  67  89    34  71  90  
  34  60  75    33  59  74    32  58  73    32  58  73    33  59  74    33  59  74    34  60  75    34  60  75    33  59  74    32  58  73    32  59  76    33  60  77    34  62  78    33  62  78    33  62  78    32  61  77    32  61  77    33  62  78    31  60  76    32  61  77    36  63  80    37  64  80    36  62  79    34  61  78    34  61  78    33  62  78    34  63  79    34  63  79    35  64  81    35  64  82    32  63  81    33  64  83    35  66  86    34  67  86    33  66  85    32  65  84    34  67  86    37  70  89    34  67  86    33  66  85    33  68  87    35  70  89    34  69  88    34  69  88    34  69  88    33  70  88    33  70  88    33  70  88    33  70  88    33  70  89  
  34  60  75    33  59  74    32  58  73    32  58  73    33  59  74    33  59  74    34  60  75    34  60  75    33  59  74    32  58  73    32  59  76    33  60  77    34  61  78    34  61  78    34  61  78    33  60  77    32  59  76    33  60  77    32  59  76    33  60  77    34  61  78    35  62  79    34  61  78    34  60  78    34  61  78    33  62  78    34  63  79    34  63  79    35  64  81    35  64  82    31  62  80    32  63  82    34  65  85    34  66  85    34  67  86    33  66  85    34  67  86    36  69  88    33  66  86    34  67  86    33  68  87    34  69  88    33  68  87    33  68  87    34  69  88    33  70  88    33  70  88    33  70  88    33  70  88    33  70  89  
  33  59  74    33  59  74    32  58  73    32  58  73    33  59  74    33  59  74    34  60  75    34  60  75    33  59  74    32  58  73    32  59  76    33  60  77    34  61  78    34  61  78    34  61  78    33  60  77    32  59  75    32  59  76    33  60  77    33  60  77    32  59  76    32  59  76    34  61  78    34  61  78    34  61  78    33  62  78    33  62  78    34  63  79    34  63  80    35  64  82    31  62  80    31  62  81    33  64  84    34  66  85    34  67  86    34  67  86    34  67  86    34  67  86    33  66  85    34  67  86    33  68  87    33  68  87    32  67  86    33  68  87    34  69  88    33  70  88    33  70  88    33  70  88    33  70  88    33  70  88  
  33  59  74    32  58  73    32  58  73    33  59  74    33  59  74    33  59  74    33  59  74    33  59  74    33  59  74    33  59  74    32  59  76    32  59  76    34  61  78    34  61  78    33  60  77    32  59  76    31  58  75    32  59  76    34  60  78    34  61  78    32  59  76    31  58  76    35  62  79    35  61  78    34  61  78    33  62  78    33  62  78    34  63  79    34  63  80    34  63  81    30  61  79    31  62  81    33  64  84    33  65  85    34  67  86    35  68  87    34  67  86    33  66  85    34  67  85    35  68  87    33  68  87    32  67  85    31  66  85    33  68  87    34  69  88    33  70  88    33  70  88    33  70  88    33  70  88    33  70  89  
  32  58  73    32  58  73    32  58  73    33  59  74    33  59  74    33  59  74    33  59  74    33  59  74    33  59  74    33  59  74    32  59  76    32  59  76    34  61  78    34  61  78    33  60  77    32  59  76    32  59  75    33  60  77    35  62  79    35  62  79    33  60  77    33  60  77    36  63  80    34  61  78    33  60  77    33  62  78    33  62  78    34  63  79    34  63  80    34  63  81    31  62  80    31  62  81    33  64  84    33  65  85    34  67  86    35  68  87    35  68  87    33  66  85    34  67  85    35  68  87    32  67  86    31  66  85    31  66  85    32  67  86    33  68  87    32  69  87    32  69  87    32  69  87    32  69  87    32  69  87  
  31  57  72    32  58  73    32  58  73    33  59  74    33  59  74    33  59  74    32  58  73    33  59  74    33  59  74    34  60  75    31  58  75    32  59  76    33  60  77    33  60  77    33  60  77    32  59  76    31  58  76    34  61  78    35  62  79    35  62  79    34  61  78    34  61  78    36  63  80    34  61  78    33  60  77    32  61  77    33  62  78    33  62  78    34  63  80    34  63  81    32  63  81    32  63  81    32  63  83    32  64  84    34  67  86    35  68  87    34  67  86    33  66  85    34  67  86    34  67  86    31  66  85    31  66  85    32  67  86    33  68  87    33  68  87    32  69  87    32  69  87    32  69  87    32  69  87    32  69  88  
  31  57  72    31  57  72    33  59  74    34  60  75    33  59  74    33  59  74    32  58  73    33  59  74    33  59  74    34  60  75    31  58  75    32  59  76    33  60  77    33  60  77    33  60  77    32  59  76    32  59  76    34  61  78    32  59  76    33  60  77    34  61  78    35  62  79    35  62  79    33  60  77    33  60  77    32  61  77    32  61  77    33  62  78    33  62  79    34  63  81    33  64  82    33  64  82    32  63  83    32  64  84    33  66  85    34  67  86    34  67  86    34  67  86    35  68  87    34  67  86    30  65  84    31  66  85    33  68  87    33  68  87    33  68  87    32  69  87    32  69  87    32  69  87    32  69  87    32  69  87  
  30  56  71    31  57  72    33  59  74    34  60  75    33  59  74    33  59  74    32  58  73    33  59  74    33  59  74    34  60  75    31  58  75    32  59  76    33  60  77    33  60  77    32  59  76    32  59  76    31  58  76    32  59  76    30  57  74    31  58  75    34  61  78    35  62  79    33  60  77    33  60  77    33  60  77    32  61  77    32  61  77    33  62  78    33  62  79    33  62  80    34  65  83    34  65  83    33  64  84    31  64  83    32  65  84    33  66  85    34  67  86    35  68  87    35  68  87    34  67  86    30  65  84    31  66  85    34  69  88    33  68  87    33  68  87    32  69  87    32  69  87    32  69  87    32  69  87    32  69  88  
  32  58  73    33  59  74    33  59  74    32  58  73    32  58  73    33  59  74    34  60  75    36  62  77    37  63  78    37  63  78    32  59  76    32  59  76    33  60  77    33  60  77    33  60  77    34  61  78    33  60  77    32  59  76    32  59  76    33  60  77    33  60  77    33  60  77    34  61  78    32  60  76    32  59  76    32  61  77    33  62  78    34  63  79    35  64  81    35  64  82    33  64  82    31  62  81    34  65  85    35  67  87    34  67  86    35  68  87    36  69  88    34  67  86    33  66  85    33  66  85    32  67  86    33  68  87    36  71  90    31  66  85    30  65  84    30  67  85    31  68  86    32  69  87    33  70  88    33  70  88  
  33  59  74    34  60  75    34  60  75    32  58  73    33  59  74    33  59  74    34  60  75    35  61  76    35  61  76    35  61  76    32  59  76    32  59  76    33  60  77    33  60  77    33  60  77    34  61  78    33  60  77    32  59  76    32  59  76    33  60  77    33  60  77    33  60  77    34  61  78    32  60  76    33  60  77    32  61  77    32  61  77    34  63  79    34  63  80    34  63  81    34  65  83    32  63  81    33  64  84    33  65  85    32  65  84    32  65  84    34  67  86    34  67  86    33  66  85    33  66  85    32  67  86    33  68  87    35  70  89    33  68  87    33  68  87    32  69  87    32  69  87    32  69  87    33  70  88    33  70  89  
  34  60  75    35  61  76    35  61  76    33  60  75    33  59  74    33  59  74    33  59  74    33  59  74    33  59  74    33  59  74    32  59  76    32  59  76    33  60  77    33  60  77    33  60  77    34  61  78    33  60  77    32  59  76    32  59  76    33  60  77    33  60  77    33  60  77    34  61  78    33  60  77    33  60  77    32  61  77    32  61  77    32  61  77    33  62  79    33  62  80    34  65  83    32  63  81    33  64  84    32  65  84    30  63  82    29  62  81    31  65  83    33  66  85    33  66  85    33  66  85    32  67  86    33  68  87    35  70  89    36  71  90    36  71  90    34  71  89    32  69  87    32  69  87    33  70  88    34  71  89  
  34  60  75    34  60  75    34  60  75    34  60  75    33  59  74    33  59  74    33  59  74    32  58  73    32  58  73    31  57  72    32  59  76    32  59  76    33  60  77    33  60  77    33  60  77    34  61  78    33  60  77    32  59  76    32  59  76    33  60  77    33  60  77    33  60  77    34  61  78    33  60  77    33  60  77    32  61  77    32  61  77    32  61  77    31  60  78    31  60  78    33  64  82    32  63  81    33  64  84    32  65  84    30  63  82    30  63  82    32  65  84    33  66  85    33  66  85    34  67  86    32  67  86    33  68  87    34  69  88    35  70  89    35  70  89    33  70  88    32  69  87    32  69  87    33  70  88    34  71  90  
  33  59  74    33  59  74    33  59  74    34  60  75    34  60  75    33  59  74    33  59  74    32  58  73    31  57  72    31  57  72    32  59  76    32  59  76    33  60  77    33  60  77    33  60  77    34  61  78    33  60  77    32  59  76    32  59  76    33  60  77    33  60  77    33  60  77    34  61  78    33  60  77    33  60  77    32  61  77    32  61  77    32  61  77    31  60  78    31  60  78    32  63  81    31  62  81    33  64  84    33  65  85    32  65  84    33  66  85    34  67  86    32  65  84    33  65  85    34  67  86    32  67  86    33  68  87    33  68  87    32  67  86    31  66  85    30  67  85    30  67  85    32  69  87    33  70  88    35  72  90  
  32  58  73    32  58  73    33  59  74    34  60  75    33  59  74    33  59  74    33  59  74    32  58  73    31  57  72    31  57  72    32  59  76    32  59  76    33  60  77    33  60  77    33  60  77    34  61  78    33  60  77    32  59  76    32  59  76    33  60  77    33  60  77    33  60  77    34  61  78    33  60  77    33  60  77    32  61  77    32  61  77    32  61  77    33  62  79    33  62  80    31  62  80    30  61  80    33  64  84    34  66  85    33  66  85    34  67  86    34  67  86    32  65  84    33  65  85    34  67  86    33  68  87    33  68  87    33  68  87    30  65  84    29  64  83    29  66  84    30  67  85    32  69  87    33  70  88    33  70  89  
  33  59  74    33  59  74    34  60  75    33  59  74    33  59  74    33  59  74    33  59  74    33  59  74    32  58  73    32  58  73    32  59  76    32  59  76    33  60  77    33  60  77    33  60  77    34  61  78    33  60  77    32  59  76    32  59  76    33  60  77    33  60  77    33  60  77    34  61  78    32  60  76    33  60  77    32  61  77    32  61  77    34  63  79    34  63  80    34  63  81    32  63  81    30  61  80    32  63  83    33  65  85    31  64  83    32  65  84    32  65  84    32  65  84    33  65  85    34  67  86    33  68  87    33  68  87    32  67  86    30  65  84    30  65  84    31  68  86    32  69  87    32  69  87    31  68  86    30  67  85  
  34  60  75    34  60  75    35  61  76    33  60  75    33  59  74    33  59  74    33  59  74    33  59  74    33  59  74    33  59  74    32  59  76    32  59  76    33  60  77    33  60  77    33  60  77    34  61  78    33  60  77    32  59  76    32  59  76    33  60  77    33  60  77    33  60  77    34  61  78    32  60  76    32  59  76    32  61  77    33  62  78    34  63  79    35  64  81    35  64  82    34  64  82    31  62  80    32  63  82    32  63  83    29  62  81    29  62  81    30  63  82    31  64  83    32  65  84    34  67  86    33  68  87    33  68  87    32  67  86    31  66  85    32  67  86    33  70  88    34  71  89    33  70  88    31  67  86    28  65  84  
  35  58  74    34  58  74    33  59  74    33  59  74    33  59  74    32  60  74    32  60  74    32  60  74    32  60  74    32  60  74    31  57  74    31  57  74    33  59  76    34  60  77    34  60  77    34  61  78    35  61  78    36  63  80    35  63  79    33  62  78    33  62  78    34  63  79    35  64  80    35  62  79    34  61  78    33  60  77    32  59  76    33  60  77    34  60  78    34  63  79    33  62  78    33  62  78    33  64  79    32  64  79    33  65  80    33  65  80    33  64  82    33  64  82    33  65  83    33  66  83    33  66  83    34  67  85    34  67  86    32  67  86    30  65  84    32  67  87    32  68  87    31  68  87    33  70  89    31  68  87  
  34  57  73    34  58  74    33  59  74    33  59  74    33  59  74    32  60  74    32  60  74    32  60  74    32  60  74    32  60  74    32  58  75    32  58  75    33  59  76    33  59  76    34  60  77    33  60  77    33  60  77    34  61  78    32  61  77    32  61  77    32  61  77    33  62  78    34  63  79    34  61  78    34  61  78    33  60  77    33  60  77    33  60  77    34  60  78    34  61  78    33  62  78    33  62  78    34  63  79    32  64  79    33  65  80    33  65  80    33  65  81    33  64  82    33  65  83    33  66  83    33  66  83    34  67  85    34  67  86    32  67  86    30  65  84    32  67  87    33  68  88    31  68  87    33  70  89    31  68  87  
  34  57  73    34  58  74    33  59  74    33  59  74    33  59  74    32  60  74    32  60  74    32  60  74    32  60  74    32  60  74    33  59  76    33  59  76    33  59  76    33  59  76    33  59  76    32  59  76    32  59  76    31  58  75    31  59  75    32  61  77    32  61  77    32  61  77    33  62  78    34  61  78    34  61  78    33  60  77    33  60  77    33  60  77    34  60  78    34  61  78    33  62  78    33  62  78    34  63  79    32  64  79    33  65  80    33  65  80    33  65  81    33  64  82    33  64  82    34  65  83    33  66  83    33  66  84    34  67  86    33  68  87    30  65  84    33  68  88    33  68  88    31  68  87    33  70  89    32  69  88  
  34  57  73    33  57  73    32  58  73    33  59  74    33  59  74    32  60  74    32  60  74    32  60  74    32  60  74    32  60  74    34  60  77    34  60  77    33  59  76    32  58  75    32  58  75    32  59  76    32  59  75    31  58  75    31  59  75    32  61  77    33  62  78    33  62  78    33  62  78    34  61  78    34  61  78    33  60  77    33  60  77    33  60  77    34  60  78    34  61  78    33  62  78    33  62  78    34  63  79    32  64  79    33  65  80    33  65  80    33  65  81    33  64  82    33  64  82    33  64  82    33  66  83    33  66  83    34  67  86    33  68  87    30  65  84    33  68  88    33  68  88    31  68  87    33  70  89    32  69  88  
  34  57  73    33  57  73    32  58  73    33  59  74    33  59  74    32  60  74    32  60  74    32  60  74    32  60  74    32  60  74    35  61  78    34  60  77    33  59  76    32  58  75    32  58  75    32  59  76    33  60  77    33  60  77    33  61  78    33  62  78    34  63  79    34  63  79    34  63  79    33  61  77    33  60  77    34  61  78    34  61  78    34  61  78    33  60  77    33  60  77    33  62  78    33  62  78    34  63  79    32  64  79    33  65  80    33  65  80    33  64  80    33  64  82    33  64  82    33  64  82    33  66  83    33  66  83    33  66  85    34  67  86    32  65  84    32  67  87    33  68  88    32  67  87    34  69  89    31  68  87  
  34  57  73    33  57  73    32  58  73    33  59  74    33  59  74    32  60  74    32  60  74    32  60  74    32  60  74    32  60  74    34  60  77    33  59  75    32  58  75    31  57  74    33  59  76    33  60  77    35  62  79    37  64  81    35  63  79    33  62  78    33  62  78    34  63  79    35  64  80    33  61  78    33  60  77    34  61  78    34  61  78    34  61  78    33  60  77    33  60  77    33  62  78    33  62  78    34  63  79    32  64  79    33  65  80    33  65  80    33  64  80    32  63  81    33  64  82    33  64  82    32  65  82    33  66  83    33  66  85    34  67  85    31  64  83    32  67  87    32  67  87    32  67  87    33  68  88    32  67  87  
  34  57  73    33  57  73    31  57  72    32  58  73    33  59  74    32  60  74    32  60  74    32  60  74    32  60  74    32  60  74    34  60  77    32  58  75    31  57  74    31  57  74    33  59  76    34  61  78    36  63  80    39  66  83    35  63  80    32  61  77    32  61  77    32  61  77    35  64  80    33  61  78    33  60  77    34  61  78    34  61  78    34  61  78    33  60  77    33  60  77    33  62  78    33  62  78    34  63  79    32  64  79    33  65  80    33  65  80    33  64  80    32  63  81    32  63  81    33  64  82    33  64  82    33  64  83    34  65  85    33  65  85    31  64  83    33  65  86    33  65  86    31  66  86    33  68  88    30  67  86  
  34  57  73    33  57  73    31  57  72    32  58  73    33  59  74    32  60  74    32  60  74    32  60  74    32  60  74    32  60  74    33  59  76    32  58  75    31  57  74    30  57  74    33  59  76    35  62  79    37  64  81    40  67  84    35  63  80    31  60  76    30  59  75    31  61  76    34  63  79    33  60  77    33  60  77    34  61  78    35  62  79    35  62  79    33  60  77    32  59  76    33  62  78    33  62  78    34  63  79    32  64  79    33  65  80    33  65  80    33  64  80    32  63  81    32  63  81    33  64  82    33  64  82    33  64  83    34  65  85    33  65  85    30  63  82    32  64  85    32  65  86    30  65  85    32  67  87    31  66  86  
  34  57  73    33  57  73    33  59  74    40  66  81    26  52  67    31  59  73    34  62  76    27  55  69    36  64  78    28  56  70    34  60  77    33  59  76    33  59  76    33  59  75    34  60  77    34  61  78    34  61  78    33  60  77    32  60  77    32  61  77    32  61  77    32  61  77    32  61  77    33  60  77    33  60  77    33  60  77    33  60  77    33  60  77    33  60  77    33  60  77    35  64  80    35  64  80    35  64  80    33  65  80    33  65  80    33  65  80    33  64  80    34  63  81    33  62  81    32  61  79    34  65  83    32  63  82    33  64  84    33  65  85    34  67  86    35  67  88    34  65  87    33  65  86    33  65  85    32  67  87  
  34  57  73    34  57  73    34  60  75    23  49  64    27  53  68    29  57  71    28  56  70    37  65  79    38  66  80    30  58  72    34  60  77    33  59  76    33  59  76    33  59  75    34  60  77    34  61  78    34  60  78    33  60  77    32  60  77    32  61  77    32  61  77    32  61  77    32  61  77    33  60  77    33  60  77    33  60  77    33  60  77    33  60  77    33  60  77    33  60  77    34  63  79    34  63  79    34  63  79    32  64  79    32  64  79    32  64  79    32  63  79    34  63  81    33  62  81    32  61  79    34  65  83    32  63  82    33  64  84    32  65  84    33  66  85    34  66  87    34  65  87    33  65  86    33  65  86    33  68  88  
  34  57  73    34  58  73    35  61  76    29  55  70    81 107 122    89 117 131    45  73  87    24  52  66    21  49  63    43  72  85    33  59  76    33  59  76    33  59  76    33  59  76    34  60  77    33  60  77    34  60  78    33  60  77    32  60  77    32  61  77    32  61  77    32  61  77    32  61  77    33  60  77    33  60  77    33  60  77    33  60  77    33  60  77    33  60  77    33  60  77    34  63  79    34  63  79    34  63  79    32  64  79    32  64  79    32  64  79    32  63  79    34  63  81    33  62  81    32  61  79    36  65  83    34  63  82    33  64  84    32  63  83    34  65  85    35  66  87    34  65  87    33  65  86    34  66  87    34  69  89  
  34  57  73    35  58  74    35  61  76    45  71  86    73  99 114    51  79  93    29  57  71    41  69  83    33  61  75    29  57  71    32  58  75    32  58  75    33  59  76    33  59  76    34  60  77    33  60  77    33  60  77    33  60  77    32  60  77    32  61  77    32  61  77    32  61  77    32  61  77    33  60  77    33  60  77    33  60  77    33  60  77    33  60  77    33  60  77    33  60  77    33  62  78    33  62  78    33  62  78    31  63  78    31  63  78    31  63  78    31  62  78    34  63  81    33  62  81    32  61  79    36  65  83    34  63  82    33  64  84    32  63  83    33  64  84    35  66  87    35  66  87    34  66  87    35  67  88    35  70  90  
