P3
50 50
255
  26 134 160    28 136 162    29 139 164    21 133 157    32 144 168    23 135 159    19 130 157    23 134 160    10 121 148    17 128 155    21 132 160    19 130 158    25 134 163    28 137 166    22 132 160    20 131 159    21 130 161    13 124 154    19 130 160    22 133 161    24 135 165    22 133 163    18 129 159    15 126 156    16 127 157    19 130 160    19 130 160    16 127 157    14 125 155    16 129 159    23 134 164    22 135 165    18 129 159     8 121 151     9 124 153     6 124 152     8 123 152     7 125 153    11 126 155    12 127 156    11 126 155    10 125 154     9 124 154    14 129 158    15 128 158    13 126 156    13 126 156    16 129 159    18 131 161    18 131 161  
  25 134 159    23 133 158    21 133 157    17 129 153    26 138 162    21 133 157    21 132 159    27 138 165    20 131 158    27 138 165    25 136 163    21 131 160    24 134 163    25 134 163    18 127 156    18 127 156    21 130 161    16 127 157    20 131 161    20 133 163    20 133 163    20 133 163    18 131 161    16 130 160    15 128 158    14 127 157    18 131 161    15 128 158    13 126 156    15 128 158    18 131 161    19 132 162    15 129 159    11 126 155    11 126 156     8 126 154     6 124 152     7 125 153    10 127 155    11 128 156    12 127 156    12 127 156     5 120 149    11 125 155    15 128 158    14 127 157    14 127 157    17 130 160    18 131 161    17 130 160  
  23 133 158    21 131 156    21 133 157    18 130 154    22 134 158    17 129 153    15 126 153    17 128 155    14 125 152    18 129 156    25 136 164    21 132 160    23 134 162    22 133 161    16 125 154    17 126 155    23 132 163    19 130 160    20 132 162    18 131 161    18 131 161    19 132 162    20 133 163    19 132 162    15 128 158    12 125 155    17 130 160    16 129 159    16 129 159    15 128 158    15 128 158    15 128 158    15 128 158    14 129 158    14 129 158    10 128 156     8 126 154     8 126 154    11 126 155    14 129 158    15 130 159    15 130 159     7 120 150    13 126 156    15 128 158    14 127 157    15 128 158    17 130 160    20 131 161    17 129 159  
  25 135 160    26 136 161    21 133 157    21 133 157    20 132 156    19 131 155    16 127 154    15 126 153    18 129 156    18 129 157    20 131 159    18 129 157    23 134 162    23 134 162    17 127 155    18 128 156    23 133 164    20 132 162    18 131 161    16 128 158    14 127 157    16 129 159    19 132 162    19 132 162    15 128 158    10 123 153    13 126 156    16 129 159    18 130 160    17 130 160    15 129 159    13 126 156    12 126 156    12 127 156    15 130 160    11 129 157    10 126 155     9 125 154    12 127 155    15 130 159    16 131 160    17 132 160    14 128 158    17 130 160    17 130 160    14 127 157    15 126 156    18 129 159    20 132 162    19 130 160  
  23 133 158    27 137 162    21 133 157    25 137 162    20 132 156    24 135 159    22 132 159    18 129 156    24 135 162    22 133 160    15 126 154    15 126 154    23 134 162    26 137 165    18 129 157    17 128 156    22 133 163    20 131 161    19 132 162    16 129 159    13 126 156    15 128 158    18 131 161    19 132 162    16 129 159    12 125 155    12 125 155    15 128 158    18 131 161    19 132 162    17 130 160    14 127 157    11 124 154    10 123 153    15 130 159    11 129 157    11 126 155    11 126 155    13 128 157    15 130 159    16 131 160    16 131 160    20 134 164    22 134 164    20 133 163    14 127 157    14 125 155    18 129 159    21 132 162    21 132 162  
  20 130 157    22 132 159    20 130 155    29 139 164    20 130 155    25 135 160    23 133 160    15 125 152    23 134 161    17 128 155    17 128 156    17 128 156    24 135 163    25 136 164    16 127 155    15 126 154    18 131 161    17 130 160    20 133 163    18 131 161    15 128 158    16 129 159    17 130 160    19 132 162    18 131 161    17 130 160    15 128 158    16 129 159    16 129 159    16 129 159    16 129 159    14 127 157    12 125 155    10 123 153    14 129 158    13 128 157    11 126 155    12 127 156    14 129 158    15 130 159    16 129 159    16 129 159    18 131 161    21 134 164    21 132 162    17 128 158    15 126 156    18 129 159    21 132 162    20 131 161  
  23 133 160    23 133 160    19 129 154    26 135 160    19 129 154    26 135 160    25 135 162    19 129 156    26 137 164    21 132 159    19 130 158    20 131 158    25 136 164    24 136 163    15 127 155    13 125 153    16 129 159    15 129 159    17 130 160    18 130 160    18 131 161    18 131 161    17 130 160    18 131 161    20 133 163    20 133 163    18 131 161    16 130 160    15 128 158    14 127 157    14 127 157    13 126 156    12 125 155    11 124 154    10 125 154    10 125 154    12 127 156    15 130 159    16 130 159    14 128 157    15 128 158    16 129 159    18 130 160    18 130 160    22 133 163    17 128 158    17 127 158    21 131 162    19 129 159    20 131 161  
  22 133 160    23 133 160    25 134 159    25 133 159    25 133 159    25 133 159    24 134 161    23 133 160    22 132 159    21 131 158    18 129 157    21 132 160    22 136 163    21 135 162    19 133 160    16 130 157    15 128 158    16 129 159    11 124 154    15 128 158    20 133 163    20 133 163    18 131 161    16 129 159    17 130 160    18 131 161    18 131 161    19 132 162    20 133 163    18 131 161    14 127 157    12 125 155    12 125 155    14 127 157     9 124 153     7 122 151    14 127 157    23 136 166    20 133 163    10 123 153    10 123 153    18 131 161    24 135 165    15 126 156    23 134 164    15 126 156    17 126 157    25 134 165    16 125 156    22 132 162  
  22 133 160    21 131 157    25 133 159    27 133 159    26 134 160    27 135 161    25 134 162    24 132 160    20 130 157    19 129 156    20 131 159    18 129 157    14 128 155    14 128 155    15 130 157    16 131 158    16 130 160    16 130 159    13 126 156    16 129 159    18 131 161    18 131 161    16 128 158    14 127 157    15 128 158    16 129 159    14 127 157    17 130 160    19 132 162    17 130 160    12 126 156    10 123 153    11 124 154    13 126 156    20 134 163    11 124 154    10 123 153    19 132 162    18 131 161     9 122 152    10 122 152    19 130 160    20 132 162    14 125 155    21 131 162    17 126 157    18 127 158    24 133 164    16 125 156    21 130 161  
  21 132 160    20 130 157    21 129 157    24 130 156    23 131 157    23 131 157    22 130 158    22 130 158    21 131 158    22 132 159    18 129 157    16 127 155    12 126 153    12 126 153    12 127 154    13 128 155    14 129 158    15 130 159    12 125 155    13 126 156    14 127 157    13 126 156    12 125 155    13 126 156    15 128 158    18 131 161    13 126 156    14 127 157    15 128 158    15 128 158    13 126 156    12 124 154    11 124 154    10 123 153    18 131 161    15 129 159    15 128 158    18 131 161    19 132 162    17 130 160    22 133 163    25 136 166    24 135 165    21 132 162    22 131 162    20 129 160    20 129 160    21 130 161    18 127 158    19 128 159  
  19 133 160    19 130 157    25 133 160    27 133 159    26 133 158    24 130 156    20 128 156    20 128 156    22 132 159    24 134 161    16 127 154    19 130 158    18 132 159    16 130 157    12 127 154    10 125 152    12 129 158    17 132 161    20 133 163    19 132 162    17 130 160    15 128 158    13 126 156    13 125 155    13 126 156    15 128 158    20 133 163    18 131 161    16 129 159    18 131 161    21 134 164    21 134 164    17 130 160    13 126 156    10 123 153    22 135 165    26 139 169    19 132 162    18 129 159    25 137 167    29 140 170    26 137 167    24 134 164    23 132 163    17 126 157    16 125 156    17 126 157    16 125 156    21 128 160    18 127 158  
  19 133 160    18 129 156    30 139 167    33 139 165    33 139 165    29 135 161    22 130 158    19 127 155    20 130 157    22 132 159    14 125 153    17 128 155    16 130 157    13 127 154     9 124 150     7 122 150    10 128 156    13 131 160    17 130 160    17 130 160    17 130 160    17 130 160    18 131 161    19 132 162    21 134 164    22 135 165    17 130 160    17 130 160    18 131 161    20 132 162    22 135 165    21 134 164    18 131 161    15 128 158    12 125 155    23 136 166    27 140 170    20 132 162    17 128 158    20 131 161    23 133 163    20 132 162    21 130 161    25 133 165    16 125 156    21 130 161    23 132 163    20 129 160    29 136 168    24 131 163  
  19 132 159    21 132 159    27 135 163    31 138 164    35 141 167    32 139 165    25 133 161    21 129 157    19 129 156    19 129 156    21 132 160    19 130 158    14 128 155    12 126 153    12 126 153    15 129 156    18 134 162    21 137 166    14 127 157    14 127 157    15 127 157    16 129 159    20 132 162    21 134 164    23 135 165    23 136 166    14 126 156    18 131 161    24 136 166    24 137 167    21 133 163    17 130 160    19 131 161    20 133 163    23 135 165    19 131 161    20 131 161    24 135 165    22 133 163    15 126 156    16 127 157    22 133 163    19 128 159    26 135 166    18 127 158    27 136 167    30 137 169    23 130 162    31 138 170    22 129 161  
  25 134 163    24 134 162    26 135 163    26 135 162    26 133 161    24 133 160    22 132 159    20 130 157    19 129 155    17 127 154    21 131 158    21 131 158    17 129 156    14 126 153    15 127 155    20 132 159    21 133 160    19 131 159    14 126 154    19 131 160    19 129 158    11 123 152    15 125 154    24 135 164    27 136 165    20 131 160    20 130 159    17 129 158    19 128 158    20 132 160    21 131 160    18 130 158    22 131 161    25 137 165    24 133 163    20 129 159    20 129 159    25 135 164    26 135 165    20 130 159    19 128 158    22 132 161    22 131 160    25 133 163    23 132 161    27 136 166    28 137 167    24 133 163    23 131 161    17 125 156  
  24 132 161    22 130 159    20 130 158    20 130 156    19 129 156    21 131 158    23 133 160    24 134 160    22 132 159    22 132 159    21 131 158    25 135 162    26 136 163    21 131 158    19 129 156    20 130 157    21 131 158    19 129 157    24 133 162    20 129 158    19 128 157    22 131 160    22 131 160    20 129 158    20 129 158    22 131 160    27 135 164    20 130 159    19 127 157    22 131 159    24 133 162    22 132 161    24 134 163    29 138 167    22 131 160    21 130 159    22 131 160    26 135 164    26 135 164    24 133 162    24 134 162    28 137 166    27 136 164    27 137 165    27 136 165    24 133 162    23 131 160    24 133 162    29 138 167    33 142 171  
  22 130 159    22 130 159    24 134 161    23 133 160    23 133 160    24 134 161    25 135 162    24 134 161    22 132 159    20 130 157    23 133 160    28 138 165    30 140 167    26 136 163    20 130 157    18 128 155    20 130 157    21 131 158    20 129 158    19 128 157    22 131 160    27 136 165    27 136 165    22 131 160    20 129 158    22 131 160    27 136 164    23 132 161    20 129 158    22 131 160    24 133 162    24 133 162    24 134 163    27 135 164    24 133 162    23 132 161    24 133 162    26 135 164    24 133 162    22 131 159    24 134 162    30 139 169    23 132 161    27 136 164    27 136 165    21 130 159    16 125 154    18 127 156    28 137 166    38 147 176  
  21 129 158    21 130 158    25 135 162    25 135 162    26 136 163    26 136 163    28 138 165    26 136 163    24 134 161    21 131 158    23 133 161    25 135 162    25 135 162    24 134 161    23 133 160    21 131 158    21 131 157    20 130 157    16 125 154    26 135 164    29 138 167    23 132 161    21 130 159    25 134 163    24 133 162    15 125 154    24 133 162    22 131 161    21 130 158    20 129 158    21 131 160    22 131 161    22 131 161    23 132 161    25 134 163    25 134 163    27 135 165    27 136 165    23 132 161    19 128 157    20 129 158    25 134 163    20 128 157    24 133 162    28 137 165    26 135 163    21 130 159    19 128 157    22 131 161    27 136 165  
  25 133 162    26 134 163    21 131 158    21 131 158    22 132 159    24 134 161    26 136 163    26 136 163    25 135 162    23 133 160    26 136 163    21 131 158    19 129 156    22 132 159    26 136 163    26 136 163    24 134 161    23 133 160    21 130 159    22 131 160    25 134 163    26 135 164    23 132 161    20 129 158    21 130 159    23 132 161    26 135 164    26 135 164    24 133 162    23 132 161    25 134 163    27 136 165    27 136 165    25 134 163    22 131 160    21 130 159    24 133 162    27 136 165    26 135 164    22 131 160    21 130 159    23 132 161    22 131 160    23 132 161    24 133 162    24 133 162    26 135 164    26 135 164    26 135 164    25 134 163  
  29 137 165    30 138 167    27 135 163    25 134 161    24 132 160    24 132 160    23 132 160    22 131 159    21 129 157    19 127 155    26 135 162    20 128 156    17 126 153    20 129 156    25 133 161    25 133 161    25 133 161    26 135 162    19 128 157    14 123 152    19 128 157    29 138 167    29 138 167    19 128 157    22 131 160    34 143 172    24 133 162    26 135 163    25 134 163    23 132 161    25 134 163    29 138 167    29 138 167    26 135 163    23 131 160    20 128 157    21 129 158    25 133 162    28 137 165    27 135 164    25 133 162    25 133 162    24 133 162    22 130 160    20 129 158    22 130 159    25 133 162    27 135 164    27 135 164    25 133 162  
  22 130 159    22 130 159    27 135 163    26 134 162    25 133 161    25 133 161    26 134 162    26 134 162    25 133 161    25 133 161    23 131 159    18 126 154    17 125 153    18 126 154    18 126 155    18 125 154    21 129 157    27 135 163    21 129 159    27 136 165    31 141 169    29 138 167    25 133 163    23 132 161    22 131 160    21 131 159    18 126 155    20 129 158    20 129 158    18 127 156    20 129 158    25 134 163    25 134 163    20 129 158    30 138 167    24 132 160    20 128 157    24 132 161    28 136 165    29 137 166    26 134 163    25 133 162    28 136 164    28 136 165    29 137 166    30 138 167    30 138 167    29 137 166    26 134 163    23 131 160  
  19 127 156    20 128 157    24 132 160    24 132 160    26 134 162    28 136 164    25 133 161    23 131 159    29 137 165    39 147 174    20 128 156    28 136 164    26 134 162    15 123 151    15 123 151    26 134 162    30 139 167    25 133 161    26 135 164    25 134 163    22 131 160    21 130 159    22 131 160    24 133 162    24 133 162    23 132 161    29 138 167    18 126 155    16 125 154    26 135 164    27 136 165    18 127 156    19 128 157    29 138 167    26 134 163    25 133 162    24 132 161    23 131 160    21 129 158    20 128 157    21 129 158    23 131 160    33 141 170    28 136 165    24 132 161    24 132 161    23 131 160    22 130 159    25 133 162    30 138 167  
  23 131 160    23 131 160    24 131 159    23 130 158    24 131 160    27 134 162    26 133 162    25 132 160    29 136 164    35 142 170    24 131 160    25 132 160    26 133 161    27 134 163    26 133 162    26 133 161    26 133 162    26 134 162    24 133 162    23 132 161    23 132 161    23 132 161    24 133 162    24 133 162    22 131 160    20 129 158    24 133 162    25 134 163    23 132 161    20 129 158    20 129 158    22 131 160    22 131 160    21 130 159    21 129 158    19 126 155    26 133 162    35 142 171    30 137 167    20 127 156    21 128 157    31 138 168    28 135 165    23 130 159    21 128 157    23 130 160    26 133 162    25 132 161    24 131 161    26 133 162  
  27 135 164    26 134 163    32 137 166    28 133 162    25 130 159    25 130 159    26 131 160    27 132 161    29 134 163    31 136 165    29 134 163    26 131 160    29 134 163    35 140 169    35 140 169    29 134 163    26 131 160    26 134 162    25 134 163    23 132 161    24 133 162    25 134 163    26 135 164    24 133 162    22 131 160    21 130 159    23 132 161    32 141 170    31 140 169    20 129 158    19 128 157    28 137 166    28 137 166    20 129 158    26 133 162    23 128 158    27 132 162    35 140 170    31 136 166    20 125 155    24 129 159    37 142 172    34 139 169    26 131 161    22 127 157    25 130 160    31 136 166    33 138 168    34 139 169    35 140 170  
  27 135 164    28 135 165    35 140 170    30 135 165    25 130 159    22 127 156    25 130 159    29 134 163    31 136 165    31 136 165    28 133 162    29 134 163    30 135 164    30 135 164    31 136 165    32 137 166    29 134 163    23 131 160    27 135 164    21 131 160    20 129 158    23 132 161    24 133 162    22 131 160    21 130 159    23 132 161    25 134 163    29 138 167    29 138 167    24 133 162    23 132 161    27 136 165    28 137 166    27 136 165    30 135 165    29 134 164    28 133 163    28 133 163    29 134 164    29 134 164    31 136 166    33 138 168    40 145 175    31 136 166    24 129 159    25 130 160    30 135 165    30 135 165    28 133 163    28 133 163  
  24 132 161    27 135 164    30 135 165    28 133 162    24 129 158    22 127 156    26 131 160    33 138 167    35 140 169    34 139 169    29 134 163    31 136 165    29 134 163    24 129 158    27 132 161    33 138 167    32 137 166    24 132 160    26 134 163    18 127 156    16 125 154    20 129 158    22 131 160    20 129 158    21 130 159    26 135 164    26 135 164    23 132 161    24 133 162    27 136 165    25 134 163    21 130 159    24 133 162    32 141 169    24 129 159    29 134 164    31 136 166    30 135 165    35 140 170    44 149 179    40 145 175    31 136 166    33 138 168    28 133 163    27 132 162    31 136 166    33 138 168    31 136 166    26 131 161    24 129 159  
  21 129 158    26 134 163    25 130 159    27 132 161    27 132 161    26 131 160    28 133 162    33 138 167    32 137 166    29 134 163    33 138 167    27 132 162    24 129 159    27 132 161    30 135 165    31 136 165    31 136 164    29 136 164    27 135 164    20 129 158    20 128 158    27 136 165    30 139 168    25 135 164    25 134 163    30 139 168    26 135 164    25 134 163    25 134 163    27 136 165    24 133 162    20 129 158    23 132 161    30 139 168    23 128 158    26 131 161    29 134 164    33 138 168    36 141 171    39 144 174    38 143 173    35 140 170    35 140 170    32 137 167    30 135 165    33 138 168    35 140 170    34 139 169    35 140 170    37 142 172  
  21 128 157    27 134 163    26 131 160    29 134 163    31 136 165    29 134 163    28 133 162    28 133 162    28 133 162    27 132 161    35 140 170    26 131 160    22 127 156    33 138 167    35 140 169    27 132 161    28 133 162    33 138 167    28 135 164    26 135 164    29 137 166    32 140 169    34 142 171    33 142 171    32 139 168    30 139 167    26 133 162    28 137 166    30 137 166    26 134 163    23 130 159    22 130 159    26 133 162    28 135 164    27 132 162    28 133 163    29 134 164    31 135 165    35 140 169    40 145 174    41 146 175    39 143 173    43 147 177    37 141 171    33 138 167    30 135 165    27 132 162    28 133 163    35 139 169    42 145 176  
  25 130 159    30 135 164    37 142 171    30 135 164    25 130 159    27 132 161    29 134 163    28 133 162    29 134 163    32 137 166    35 140 169    32 137 166    25 130 159    34 139 168    33 138 167    22 127 156    28 133 162    30 135 164    27 132 161    36 142 171    38 143 172    28 135 163    29 134 163    36 142 171    33 138 167    21 127 156    23 128 157    28 135 163    31 136 165    27 133 162    25 130 159    27 133 162    31 136 165    33 138 167    30 135 164    37 141 170    35 139 168    32 136 165    44 148 177    62 166 195    58 162 191    40 144 173    28 132 161    26 130 159    33 137 166    36 140 169    28 132 161    28 132 161    38 142 171    43 147 176  
  24 129 158    27 132 161    34 139 168    30 135 164    29 134 163    30 135 164    30 135 164    28 133 162    30 135 164    32 137 167    34 139 168    33 138 167    25 130 159    32 137 166    32 137 166    23 128 157    31 136 165    31 136 165    29 134 163    35 140 169    38 143 172    33 138 167    31 136 165    33 138 167    31 136 165    27 132 161    26 131 160    32 137 165    33 138 167    29 134 163    27 132 161    30 135 164    35 140 169    38 143 172    37 141 170    31 135 164    27 131 160    31 135 164    39 143 172    45 149 178    46 150 179    46 150 179    28 132 161    28 132 160    35 139 168    39 143 172    29 133 162    27 131 160    35 138 167    38 142 171  
  26 131 160    28 133 162    26 131 160    30 135 164    34 139 168    34 139 169    32 137 166    30 135 164    33 138 167    38 143 172    34 139 168    36 141 169    27 132 161    32 137 166    31 136 165    27 132 161    34 139 169    34 139 168    30 135 164    33 138 167    37 142 171    39 144 172    35 140 169    32 137 166    33 138 167    37 142 171    29 134 163    34 139 168    35 140 169    30 135 164    26 131 160    26 131 160    29 134 163    30 135 164    37 141 170    29 133 162    25 129 158    30 134 163    33 136 165    32 136 165    37 140 170    45 149 178    30 134 163    27 131 160    34 138 167    40 144 173    34 137 167    30 134 164    34 138 167    35 136 166  
  29 134 163    31 136 165    39 144 174    31 136 165    25 130 159    27 132 161    38 143 172    41 146 175    30 135 164    18 123 152    32 137 166    36 141 170    28 133 162    29 134 163    29 134 163    27 132 161    36 141 170    30 135 164    27 132 161    28 133 162    32 137 167    36 141 170    34 139 169    31 136 165    34 139 168    41 146 174    32 137 166    39 144 173    41 146 175    36 141 170    31 136 165    29 134 163    29 134 163    28 133 162    35 139 168    38 138 168    37 138 168    34 135 165    34 135 165    36 138 168    40 141 171    42 143 173    35 136 166    28 129 159    33 134 164    41 142 172    40 141 171    40 141 171    40 141 171    35 136 166  
  32 137 166    33 138 167    33 138 167    34 139 168    34 139 168    34 139 168    37 142 171    40 144 173    36 141 170    30 135 164    29 134 163    37 142 171    29 134 163    27 132 161    27 132 161    28 132 161    35 140 169    27 131 160    25 129 158    26 131 160    29 134 163    31 136 165    32 137 165    32 137 166    35 139 168    37 142 171    31 136 165    37 142 170    40 145 174    37 142 171    33 137 166    33 138 167    34 139 168    35 139 168    37 138 168    43 144 174    44 145 175    38 140 170    37 138 168    42 143 173    43 144 174    39 140 170    38 139 169    30 131 161    34 135 165    41 141 171    40 141 171    41 142 172    45 146 176    41 142 172  
  34 138 167    34 138 167    27 131 160    34 138 167    38 142 171    35 139 168    32 136 165    34 138 167    35 139 168    34 138 167    31 135 164    42 146 175    34 138 167    31 135 164    31 135 164    32 136 165    38 142 171    27 131 160    29 133 162    32 136 165    32 136 165    31 135 164    33 137 166    37 141 170    37 141 170    34 138 167    35 139 168    39 143 172    40 144 173    35 139 168    32 136 165    35 139 168    40 144 173    42 146 175    40 141 171    41 142 172    40 141 171    40 141 171    39 140 170    40 141 171    40 141 171    39 140 170    39 140 170    35 136 166    40 141 171    43 144 174    37 138 168    37 138 168    46 147 177    49 150 180  
  36 140 169    37 141 170    35 139 168    32 136 165    31 135 164    28 132 161    26 130 159    33 137 166    36 140 169    30 134 163    29 133 162    37 141 170    38 142 171    35 139 168    33 137 165    34 138 167    35 139 168    30 134 163    37 140 169    39 143 172    34 138 167    32 135 165    36 140 169    40 144 173    39 143 172    41 145 174    31 135 164    35 138 168    38 142 171    38 142 171    37 141 170    37 140 170    37 141 170    37 141 170    37 138 168    38 137 168    36 136 166    35 135 166    37 136 167    38 137 168    36 136 166    33 133 163    32 131 162    38 137 168    43 143 174    45 145 175    45 144 175    47 147 178    47 147 177    43 142 173  
  33 137 166    33 137 165    39 143 172    34 139 168    35 139 168    34 138 167    30 134 163    37 142 170    42 147 175    35 139 169    35 139 168    40 144 173    42 146 174    38 142 171    35 139 168    36 140 169    37 141 169    34 139 167    37 141 170    39 143 172    33 137 166    32 136 165    38 142 171    39 143 172    38 142 171    42 146 175    32 136 164    31 135 164    31 135 165    33 137 165    33 138 166    35 139 168    37 141 170    37 142 170    34 133 164    36 135 166    35 134 165    35 134 165    37 136 167    41 139 171    39 139 169    34 134 164    40 139 170    41 139 171    39 138 169    37 136 167    38 137 168    42 141 172    43 141 173    40 139 170  
  35 138 168    34 138 167    30 134 163    29 134 162    35 139 168    36 140 169    30 134 163    33 137 166    36 140 169    31 135 164    39 143 172    41 145 174    40 144 173    36 139 169    34 138 167    34 139 168    35 139 169    35 139 169    36 140 169    39 143 172    35 139 168    34 138 167    41 145 174    41 145 174    38 142 171    42 146 175    33 137 166    31 135 164    30 134 163    32 136 165    37 141 170    39 143 172    39 143 172    39 142 171    33 132 163    36 135 166    37 136 167    37 136 167    40 139 170    45 144 175    44 143 174    41 140 171    50 149 180    44 142 174    38 137 168    38 137 168    39 138 169    39 138 169    43 142 173    47 146 177  
  40 143 173    40 143 172    29 132 161    28 132 161    36 139 169    38 141 171    30 133 163    29 132 162    31 135 164    27 130 159    35 138 167    35 138 168    35 138 167    34 137 166    34 137 166    33 136 166    33 136 165    32 135 165    38 142 171    42 145 174    39 142 171    39 142 171    46 149 178    45 148 177    40 143 173    44 147 176    35 138 167    33 136 166    35 138 167    40 143 172    45 148 177    45 148 177    39 142 172    35 137 167    37 136 167    40 138 170    42 140 171    40 139 170    41 140 171    44 142 174    44 142 174    41 139 171    45 143 175    39 137 168    38 137 168    45 143 175    47 145 177    44 142 173    44 142 174    49 147 179  
  38 139 169    34 135 165    41 142 172    38 139 169    44 145 175    46 147 177    38 139 169    36 137 167    38 139 169    35 136 166    36 137 167    36 137 167    37 138 168    40 141 171    42 143 173    40 141 171    38 139 169    37 138 168    40 141 171    44 145 175    41 142 172    40 141 171    46 147 177    45 146 176    40 141 171    43 144 174    41 142 172    39 140 170    38 139 169    40 141 171    43 144 174    44 145 175    40 141 171    37 138 168    39 137 169    43 140 172    44 141 173    41 138 170    39 136 168    41 138 170    41 138 170    38 135 167    43 140 172    39 136 168    38 135 167    43 140 172    45 142 174    43 140 172    43 140 172    46 143 175  
  35 137 167    30 130 160    48 149 179    40 141 171    41 142 172    44 145 175    39 140 170    39 140 170    42 143 173    40 141 171    43 144 174    40 141 171    40 141 171    44 145 175    46 147 177    44 145 175    42 143 173    42 143 173    41 142 172    45 145 175    40 141 171    38 139 169    43 145 175    41 142 172    37 138 168    40 141 171    41 142 172    40 141 171    38 139 169    38 139 169    39 140 170    40 141 171    40 142 172    41 142 172    39 136 168    43 140 172    45 142 174    42 139 171    40 137 169    42 139 171    42 139 171    41 138 170    47 144 176    47 143 175    44 142 173    43 140 172    44 141 173    46 143 175    46 143 175    45 142 174  
  42 143 173    39 140 170    50 151 181    38 139 169    36 137 167    39 140 170    38 139 169    40 141 171    45 146 176    44 145 175    48 149 179    42 143 173    39 140 170    42 143 173    44 145 175    42 143 173    41 142 172    43 144 174    44 146 176    47 148 178    43 142 173    39 140 170    45 144 175    42 143 173    38 137 168    40 141 171    36 135 166    39 140 170    44 144 174    45 146 176    46 145 176    44 144 174    44 143 174    43 142 173    38 137 168    45 142 174    48 144 177    47 144 175    45 142 174    48 145 177    50 147 179    50 147 179    43 140 171    48 145 177    49 147 179    47 144 176    49 145 177    52 149 181    49 146 178    41 138 170  
  36 137 167    33 134 164    36 135 166    40 139 170    44 143 174    47 146 177    46 145 176    44 143 174    40 139 170    39 138 169    43 142 173    47 146 177    47 146 177    42 141 172    42 141 172    47 146 177    45 144 175    38 137 168    42 141 172    49 148 179    53 150 182    47 146 177    44 141 173    44 143 174    45 142 174    43 142 173    49 146 178    49 148 179    49 146 178    47 145 177    46 143 174    45 144 174    47 144 176    48 147 178    37 136 167    42 141 172    41 140 171    40 139 170    44 143 174    41 140 171    41 140 171    49 149 179    44 143 174    40 139 170    41 140 171    45 144 175    46 145 176    42 141 172    40 139 170    42 141 172  
  43 144 174    43 144 174    46 145 176    41 140 171    37 136 167    41 140 171    48 147 178    51 150 181    46 145 176    39 138 169    38 137 168    41 140 171    45 143 175    46 145 176    47 146 177    46 145 176    44 143 174    42 141 172    42 140 171    49 146 178    52 149 180    48 145 177    46 142 175    46 142 175    46 143 176    46 142 175    51 148 180    50 147 179    47 144 176    44 141 173    42 139 171    42 139 171    45 142 174    48 145 177    42 141 172    47 146 177    44 143 174    40 139 170    45 144 175    45 144 175    42 141 172    46 145 176    44 143 174    42 141 172    44 143 174    49 148 179    49 148 179    45 144 175    44 143 174    45 144 175  
  42 143 173    45 146 176    45 144 175    43 142 173    41 140 171    42 141 172    45 144 175    46 145 176    45 144 175    44 143 174    43 142 173    43 142 173    47 146 177    52 151 182    50 149 180    42 141 172    39 138 169    41 140 171    46 143 175    50 147 179    52 149 181    51 148 180    49 146 178    48 145 177    48 145 177    48 145 177    50 147 179    49 146 178    46 143 175    43 140 172    41 138 170    42 139 171    45 142 174    48 145 177    40 139 170    48 147 178    43 142 173    37 136 167    44 143 174    49 148 179    45 144 175    43 142 173    43 142 173    43 142 173    45 144 175    48 147 178    47 146 177    43 142 173    41 140 171    41 140 171  
  50 150 179    57 156 186    42 140 170    44 142 172    46 145 174    45 144 173    43 141 171    41 139 169    41 139 169    41 140 169    46 145 174    43 141 171    46 144 173    51 150 179    50 149 178    44 143 172    45 143 173    50 149 178    49 146 178    51 148 180    51 148 181    52 149 181    50 147 179    47 144 176    46 143 176    46 143 176    46 143 175    46 143 176    47 144 175    46 143 175    45 142 174    45 142 174    46 143 175    48 145 177    39 138 169    46 145 176    41 140 171    35 135 165    44 143 174    49 148 179    45 144 175    43 142 173    43 142 173    45 144 175    48 147 178    49 148 179    47 145 177    45 144 175    43 142 173    42 141 172  
  50 149 178    56 155 184    47 145 174    44 142 171    41 140 168    45 143 172    49 147 176    49 147 176    41 139 168    34 132 160    52 150 179    48 146 175    46 144 173    47 145 174    49 147 176    49 147 176    50 148 177    53 151 180    49 146 178    48 145 177    48 145 177    50 147 179    49 146 178    46 143 175    44 141 173    45 142 174    45 142 174    47 144 176    49 146 178    49 147 179    49 146 178    48 145 177    48 145 177    48 145 177    45 144 175    49 148 179    44 143 174    41 140 171    47 146 177    46 145 176    42 141 172    45 144 175    38 136 168    42 141 172    46 145 176    45 144 175    44 143 174    45 144 175    47 146 177    47 146 177  
  42 141 170    43 142 171    50 149 177    46 144 173    45 143 172    48 146 175    54 152 181    54 152 182    47 145 174    40 138 167    56 154 183    53 151 180    47 145 174    44 142 171    47 145 174    51 150 178    50 148 176    44 142 171    49 146 178    46 143 175    47 144 176    51 148 180    52 149 181    49 146 178    48 145 176    50 146 178    49 146 178    50 147 179    50 147 179    49 146 178    48 144 177    47 144 176    47 144 176    47 144 176    47 147 177    47 146 177    44 142 174    46 145 176    49 148 179    41 139 171    39 138 169    49 148 179    37 135 167    42 140 172    44 143 174    40 139 170    38 137 168    41 140 171    44 143 174    44 143 174  
  47 146 175    47 146 175    44 141 170    49 146 174    52 149 178    52 149 178    53 150 178    53 150 178    53 150 179    52 149 178    50 147 176    48 145 174    45 142 171    44 141 170    48 145 174    53 150 179    53 150 179    49 146 175    53 150 182    49 146 178    48 146 177    53 150 182    55 153 185    54 151 183    53 150 182    53 150 182    49 146 178    49 147 178    50 147 179    49 146 178    47 144 176    45 142 174    45 142 174    45 142 174    44 143 174    42 141 172    41 140 171    45 144 175    47 145 177    41 140 171    40 139 170    47 146 177    44 143 174    49 148 179    52 151 182    46 145 176    41 140 171    40 139 170    42 141 172    44 143 174  
  48 146 173    48 146 173    44 139 167    50 145 173    52 147 175    49 144 172    50 145 173    54 149 177    52 147 175    47 142 170    58 153 181    52 147 175    49 144 172    51 146 174    51 146 174    48 143 171    49 144 172    52 147 176    59 156 188    55 152 184    52 149 181    51 148 180    53 150 182    53 150 182    51 148 180    48 145 177    45 142 174    47 144 176    49 146 178    52 149 181    52 149 181    50 147 179    48 145 177    47 144 176    45 144 175    44 143 174    47 146 177    45 144 175    43 142 173    51 150 181    50 149 180    36 135 166    46 145 176    50 149 180    54 153 184    53 152 183    49 148 179    44 143 174    45 144 175    48 147 178  
  52 150 177    50 148 175    53 148 176    57 152 180    55 150 178    47 142 171    46 141 168    50 145 172    49 144 172    45 140 168    61 156 184    55 150 178    49 144 172    48 143 171    53 148 176    57 152 180    54 149 178    49 144 172    52 149 181    53 150 182    53 150 182    51 148 180    49 146 178    48 145 177    48 145 177    49 145 178    47 144 176    47 145 176    49 146 178    50 147 179    50 147 179    51 148 180    50 147 179    50 147 179    46 145 176    45 143 175    47 146 177    45 144 175    44 143 174    51 150 181    53 152 183    42 141 172    43 142 173    43 142 173    43 142 173    46 145 176    48 147 178    49 148 179    47 145 177    45 144 175  
  57 154 182    59 157 184    50 145 173    54 149 177    53 148 176    47 142 170    47 142 170    53 148 176    55 150 178    51 146 174    45 140 168    52 147 175    53 148 176    48 143 171    48 143 170    54 149 177    59 154 182    57 152 180    47 144 176    49 146 178    50 147 179    50 147 179    49 146 178    49 146 178    50 147 179    51 148 180    40 138 170    44 141 173    49 146 178    53 149 182    54 150 182    51 148 180    47 144 176    45 141 173    45 144 175    42 141 172    45 144 175    46 145 176    44 143 174    52 151 182    55 154 185    47 145 177    44 143 174    43 142 173    42 141 172    42 141 172    46 145 176    49 148 179    46 145 176    41 140 171  
