P3
50 50
255
  31 138 158    30 139 161    27 138 162    20 134 159    19 133 159    13 129 152     8 124 147     8 124 147     7 124 145     4 120 143    10 124 150     5 119 146     6 120 147     1 115 142     3 117 144     7 122 149     4 118 145     4 118 145     5 119 146     7 121 148     2 116 143     2 116 143     2 116 143     2 114 143     8 117 148    11 122 152     9 120 150     7 118 148     7 118 148     7 118 148     7 120 150     6 119 149     9 122 152     9 124 153     4 119 148     2 117 146     5 120 150     5 123 154     4 121 154     6 123 156     6 123 156     3 120 153     3 120 153     5 122 155     5 122 155     4 121 154     3 120 153     3 120 153     3 120 153     2 121 153  
  34 139 160    32 139 161    26 137 161    21 133 157    20 134 158    16 130 154    10 126 149    10 126 149    10 126 149     6 122 145     8 122 148     7 121 148     9 123 150     3 117 144     5 119 146     9 123 150     1 114 141     1 113 140     1 115 142     4 118 145     1 114 141     1 116 142     2 116 143     2 113 143     9 118 149    13 124 154    10 121 151     7 118 148     7 118 148     8 119 149     2 115 145     1 113 143     5 118 148     6 120 150     2 117 146     1 115 144     4 119 151     6 123 156     1 118 151     3 119 153     6 123 156     4 120 153     1 116 149     7 123 156     9 126 159     7 124 157     5 122 155     4 121 154     3 120 153     3 122 154  
  44 149 168    35 142 162    29 139 159    25 135 157    22 134 158    19 132 156    14 128 153    11 125 151     8 124 149     8 124 149     8 122 149     5 120 147     4 118 145     2 116 143     2 116 143     2 116 143     1 115 142     1 114 141     4 118 145     8 122 149     8 122 149     6 120 147     4 118 145     5 117 146     8 118 150     9 119 152     4 115 148     1 114 146     2 115 147     1 114 146     6 121 152     6 121 152     6 121 152     5 122 152     3 121 151     3 121 151     4 120 152     5 119 153     4 118 152     8 122 156     9 126 159     6 123 156     6 123 156     4 121 154     3 120 153     2 121 153     3 122 155     6 125 157     7 126 158     9 128 160  
  42 147 166    35 141 160    30 138 159    26 136 158    23 133 156    19 132 155    14 127 152    10 124 150     7 122 149     7 122 149     4 118 145     4 118 145     3 117 144     1 115 142     1 114 141     1 114 141     1 115 142     1 115 142     3 117 144     6 120 147     6 120 147     5 119 145     3 117 145     8 118 150    10 120 153     8 118 151     6 117 150     7 120 152     6 119 151     2 115 147     4 119 150     5 120 151     5 120 151     4 121 152     4 122 152     5 123 153     5 122 153     5 119 153     3 117 151     7 120 154     7 124 157     4 121 154     4 121 154     3 121 153     2 119 152     1 120 152     1 120 152     3 122 154     4 123 155     6 125 157  
  40 145 164    35 141 160    30 138 158    26 137 157    23 133 156    18 129 154    13 126 150     9 123 149     7 122 149     7 122 149     3 117 144     5 119 146     6 120 147     3 117 144     1 115 142     1 115 142     2 116 143     2 116 143     3 117 144     4 118 145     4 118 145     3 117 144     3 117 144     8 120 149     8 118 151     5 115 148     6 116 149     9 122 154     9 122 154     3 115 148     3 118 149     3 118 149     5 120 151     4 121 152     5 123 153     6 124 154     6 123 154     4 118 152     3 117 151     5 119 153     5 122 155     3 120 153     2 119 152     5 122 155     5 122 155     3 122 154     2 121 153     3 122 154     3 122 154     4 123 155  
  39 144 164    35 141 160    31 138 158    27 135 156    22 132 155    16 128 152    12 125 149    10 124 150     9 124 150     9 124 151     5 119 146     8 122 150    10 124 151     7 121 148     4 118 145     5 119 146     6 120 147     4 118 145     3 117 144     3 117 144     3 117 144     3 117 144     3 117 145     5 116 148     5 115 148     3 113 146     2 113 146     6 119 151     6 119 151     2 115 147     4 119 150     4 119 150     5 120 151     4 121 152     5 123 153     5 123 153     6 123 154     5 119 153     4 118 152     5 119 153     4 121 154     3 120 153     2 119 152     7 124 157     9 126 159     7 126 158     5 125 157     5 124 156     5 124 156     5 124 156  
  41 146 165    37 143 162    31 139 159    24 135 155    20 130 153    15 127 151    13 126 151    13 127 153    13 127 153    12 126 152     8 122 149     9 123 150    10 124 151     7 121 148     5 119 146     6 120 147     6 120 147     5 119 146     4 118 145     4 118 145     4 118 145     4 118 145     4 118 145     3 115 144     5 115 147     5 115 148     2 113 146     3 116 148     5 118 150     5 118 150     6 121 152     6 121 152     6 121 152     5 122 152     4 122 152     4 122 152     5 122 153     7 121 155     5 119 153     5 119 153     4 121 154     5 122 155     3 120 153     8 124 158     9 126 159     7 126 158     5 125 157     5 124 156     5 124 156     5 124 156  
  45 149 168    39 145 164    35 142 162    27 135 156    20 131 151    17 127 150    16 128 153    17 129 156    15 129 155    13 127 153     9 123 150     7 121 148     6 120 147     4 118 145     4 118 145     4 118 145     4 118 145     5 119 146     5 119 146     5 119 146     5 119 146     5 119 146     5 119 147     4 115 147     7 117 149     8 118 151     4 115 147     3 116 148     6 119 151     8 121 153     7 122 153     7 122 153     6 121 152     5 122 152     3 121 151     3 121 151     4 121 152     7 121 155     6 120 154     4 118 152     4 121 154     6 123 156     5 122 155     5 122 155     5 122 155     3 122 154     2 121 153     3 122 154     3 122 154     4 123 155  
  49 152 169    42 147 167    38 145 165    30 138 159    23 134 154    21 131 154    19 131 154    20 132 156    15 129 154    10 124 150    14 127 154     8 122 149     4 118 145     3 117 144     4 118 145     3 117 144     2 116 143     3 117 144     3 117 144     4 118 145     5 119 146     5 119 146     5 119 146     6 118 147     7 117 150     4 114 148     2 112 145     3 116 148     5 118 150     5 118 150     5 120 151     5 120 151     6 121 152     5 122 152     4 122 152     4 122 152     4 121 152     6 120 154     6 120 153     3 117 151     3 120 153     7 124 157     6 123 156     3 120 153     2 119 152     1 120 152     1 120 152     3 122 154     4 123 155     6 125 157  
  52 155 172    45 149 166    40 146 166    33 141 162    27 136 157    23 133 156    23 133 156    21 133 157    14 128 153     8 122 148    19 133 160    11 125 152     5 119 146     5 119 146     7 121 148     6 119 147     2 116 143     1 114 141     2 115 143     4 118 145     4 118 145     5 119 145     4 118 146     6 117 149     4 114 147     1 109 142     1 109 142     2 115 147     3 116 148     1 112 144     3 118 149     4 119 150     5 120 151     4 121 152     5 123 153     6 124 154     5 122 153     5 119 153     4 118 152     2 116 150     2 119 152     7 124 157     6 123 156     3 120 153     3 120 153     2 121 153     3 122 155     6 125 157     7 126 158     9 128 160  
  52 155 172    58 161 179    44 150 168    38 146 165    34 143 164    28 138 161    26 137 160    23 135 159    18 131 156    18 132 158    10 124 152     6 120 147     2 116 143     2 116 143     6 119 147     4 119 145     3 117 144     8 122 149     6 120 147     2 116 143     1 115 142     5 118 146     6 120 147     2 114 143     5 115 148    10 120 153     6 117 150     2 115 147     4 117 149     9 122 154     4 119 150     2 117 148     2 117 148     1 118 149     3 121 151     3 121 151     3 120 151     6 120 154     6 120 154     6 120 154     5 122 155     5 122 155     3 120 153     2 119 152     1 118 151     1 118 150     1 121 152     3 122 154     3 122 154     6 125 157  
  45 146 164    51 155 172    46 151 170    37 144 164    31 140 160    29 138 159    26 137 160    22 134 158    15 129 153    13 127 153    15 129 156    11 125 152     6 120 147     4 118 145     6 120 147     4 117 144     1 115 142     4 118 145     4 118 145     1 115 142     1 115 142     3 117 144     2 116 144     6 117 149     7 117 150     6 116 149     4 115 148     4 117 149     7 120 152    10 123 155     5 120 151     3 118 149     2 117 148     2 119 149     3 121 151     3 121 151     4 120 152     5 119 153     2 116 151     3 117 151     5 122 155     6 123 156     2 118 151     4 120 153     2 119 152     1 120 152     3 122 154     4 123 155     4 123 155     6 125 157  
  40 143 158    47 150 168    45 150 169    37 144 163    32 141 161    30 139 160    28 139 160    23 135 157    16 128 152    13 125 149    16 130 156    15 129 156    11 125 152     6 121 147     6 120 147     5 119 146     3 117 144     2 116 143     4 118 145     3 117 144     3 117 144     3 117 144     1 115 142    10 122 151     8 119 151     2 112 145     3 114 146     7 120 152    10 123 155     9 122 154     5 120 151     4 119 150     3 118 149     3 120 150     4 122 152     4 122 152     4 120 152     5 119 153     1 115 149     1 114 148     4 121 154     6 123 156     2 117 150     4 120 153     4 121 154     3 122 154     4 123 155     4 123 155     4 123 155     6 125 157  
  44 146 161    49 151 167    44 148 166    39 145 165    37 144 164    33 142 163    31 140 162    26 137 159    19 131 155    16 127 154    12 126 153    13 127 154    10 124 151     6 121 147     7 121 148     7 121 148     6 120 147     5 119 146     6 120 147     4 118 145     4 118 145     6 120 147     5 119 147     9 120 153     7 117 150     2 112 145     4 115 147     8 121 153     9 122 154     6 119 151     6 121 152     5 120 150     4 119 150     3 120 150     4 122 152     3 121 151     2 119 151     4 118 152     2 116 151     2 116 150     2 119 152     4 121 154     2 118 151     4 121 154     5 122 155     4 123 155     5 124 155     3 122 154     3 122 154     5 124 156  
  48 150 165    53 155 171    48 152 170    42 148 168    39 146 166    32 141 162    29 138 160    25 135 158    21 132 156    20 132 156    10 124 150    12 125 153     9 123 150     6 120 146     5 119 146     5 119 146     5 118 146     7 121 148     6 120 146     2 116 143     2 116 143     6 120 146     7 121 148     6 118 147     6 116 149     6 116 149     7 117 150     6 119 151     5 118 150     4 117 149     6 121 152     5 120 150     5 120 151     4 121 152     4 122 152     3 121 151     2 119 150     4 118 152     7 121 155     5 119 153     1 118 151     2 120 152     4 121 154     4 121 154     4 121 154     4 123 155     4 123 155     2 121 153     1 120 152     3 124 154  
  49 151 166    53 156 171    53 156 174    45 149 169    36 143 163    29 138 159    26 135 157    23 133 156    20 131 155    20 132 156    15 129 155    14 128 155    10 124 151     6 120 147     4 118 145     2 116 143     1 114 141     4 118 145     2 116 143     1 112 139     1 113 140     3 117 144     6 119 148     3 114 146     5 115 149     9 119 152     8 119 151     4 117 149     3 116 148     4 117 149     5 120 151     5 120 150     5 120 151     4 121 152     3 121 151     2 120 150     1 117 148     5 119 153    11 125 159     7 121 155     1 117 150     1 118 151     6 123 156     4 121 154     3 120 153     4 123 155     4 123 155     2 121 153     1 120 152     4 124 156  
  56 158 173    51 153 169    47 152 168    41 148 165    34 141 161    29 138 159    28 138 159    25 135 158    21 132 155    20 132 156    18 132 158    16 130 157    11 125 152     8 122 149     8 122 149     4 117 144     1 114 141     3 117 144     2 116 143     1 114 141     1 114 141     3 117 145     5 119 146     5 117 146     7 117 149     9 119 152     7 118 150     5 118 150     4 117 149     6 119 151     5 120 151     4 119 150     5 120 151     3 120 151     3 121 151     1 119 149     1 117 148     6 120 154     9 123 157     6 120 154     1 117 150     2 119 152     6 123 156     3 120 153     3 120 153     5 124 156     6 125 157     4 123 155     3 122 154     6 126 157  
  64 166 181    48 149 167    40 142 161    40 145 165    36 141 162    34 140 162    34 143 164    31 140 163    25 135 158    21 133 157    19 131 158    15 129 156    12 126 153    12 125 153    13 127 154     9 123 150     3 117 144     3 117 144     5 119 146     5 119 146     5 119 146     7 121 148     7 119 148     9 120 150     9 119 152     7 117 150     5 116 149     6 119 151     7 120 152     7 120 152     6 119 151     4 119 150     4 119 150     5 120 150     2 120 150     1 118 148     1 117 148     6 120 154     7 121 155     4 118 152     1 118 151     3 121 153     5 122 155     2 119 152     3 120 153     7 124 157     8 125 158     6 123 156     5 122 155     9 127 159  
  51 151 168    55 154 173    50 150 170    44 144 166    47 148 170    41 146 168    29 134 156    25 133 154    29 138 161    29 141 163    14 126 150    19 131 155    18 129 155    11 122 149     8 119 146    11 122 149    12 123 150     8 119 147     5 116 144     7 118 146    12 123 151     8 119 148     9 120 150     9 120 150     7 116 145     4 115 143     6 116 145     8 119 148    10 120 150     7 120 150     2 115 145     9 122 152    10 124 155     8 123 154    12 127 157     9 124 155     4 119 150     5 120 151     5 120 151     4 119 150     3 118 149     5 120 151     4 119 150     3 118 149     1 115 146     1 114 145     3 121 151     9 127 157    11 129 159     9 127 157  
  53 152 171    56 155 175    52 151 172    47 146 169    46 146 169    41 143 166    34 137 160    30 136 158    26 134 157    21 131 154    19 132 156    15 127 151    11 123 147    11 123 149    14 126 153    12 122 149     8 119 146     7 118 146     5 116 143     6 117 145    11 122 149     7 118 147     8 119 149    11 121 150    10 119 148     6 117 145     6 117 145     7 118 146     6 117 147     5 116 146     4 117 147     9 122 152     7 120 152     3 118 149     7 122 152     5 120 152     2 117 148     4 119 150     5 120 151     3 118 149     3 118 149     5 120 151     5 120 151     2 117 148     1 116 147     3 118 149     6 121 152     9 124 155    10 125 155     8 126 156  
  56 157 175    57 157 176    54 153 174    48 147 170    41 141 164    38 140 163    38 143 165    34 140 162    25 133 155    17 127 150    20 132 157    15 127 151    11 123 147    11 122 148    14 126 153    12 123 150     8 119 146     7 118 146     5 116 144     5 116 144     9 121 149     6 117 146     7 118 148    10 120 149     9 118 147     7 118 146     6 117 145     7 118 146     6 117 147     5 116 146     7 120 150     8 121 152     5 118 150     1 114 146     3 117 149     3 118 149     1 116 146     3 118 149     4 119 150     3 118 149     4 119 150     6 121 152     6 121 152     3 118 149     5 120 152    10 125 156    10 125 156     8 123 154     8 123 154     8 126 156  
  59 160 179    55 156 175    54 153 174    47 147 169    38 138 160    36 138 161    42 145 167    37 142 164    27 135 158    24 133 156    17 127 152    20 132 155    17 129 153    11 122 148    10 121 148    13 124 151    12 123 150     9 120 148     7 118 146     6 117 145    10 121 149     7 118 147     6 117 147     7 116 146     7 116 145     6 117 145     6 117 145     8 119 147     9 120 149     9 120 150     8 121 151     8 121 152     5 118 150     1 116 147     3 118 149     3 118 149     1 116 147     3 118 149     4 119 150     3 118 149     4 119 150     7 122 153     7 122 153     5 120 151    10 125 156    18 133 164    15 130 161     9 124 155     8 123 154    10 127 157  
  60 161 179    52 153 172    52 153 173    48 148 170    40 140 163    39 141 164    39 144 166    34 140 162    28 136 159    30 140 163    18 130 154    21 133 157    19 131 155    14 125 151    13 124 151    14 125 152    13 124 152    11 122 150     9 120 148     7 118 146    10 121 149     9 120 148     7 118 148     6 116 145     7 116 145     7 118 146     8 119 147     8 119 147     9 120 149     9 120 150     5 118 148     7 120 151     8 121 153     7 122 153     7 122 153     6 121 152     3 118 149     3 118 149     5 120 150     4 119 150     5 120 151     8 123 154     8 123 154     5 120 151    10 125 156    18 133 164    15 130 161     8 123 154     6 121 152     8 125 155  
  58 159 177    51 152 171    51 152 172    51 151 173    47 147 170    41 144 167    36 141 163    31 137 159    28 136 159    32 140 164    23 134 159    18 130 154    15 127 151    17 129 155    22 133 159    15 126 153     8 119 146    13 124 152    11 122 150     7 118 146    10 121 149     9 120 149     7 118 148     9 118 148    11 120 149    11 122 150     9 120 148     8 119 147     7 118 147     7 118 148     4 117 147     6 118 149     8 121 153     9 123 155     9 124 155     8 123 154     6 121 152     5 120 151     7 122 153     5 120 151     6 121 152     8 123 154     8 123 154     3 118 149     6 121 152    11 126 157    10 125 156     7 122 153     4 119 150     5 120 151  
  53 156 173    52 154 172    50 151 171    50 150 172    48 148 171    39 142 164    32 138 160    33 139 161    32 140 163    28 137 160    22 132 157    17 127 152    16 126 151    19 129 156    23 133 160    14 124 151     7 116 144    13 122 151    12 121 150     7 116 145    10 119 148    10 119 148     7 116 147     9 118 147    12 121 150    12 123 151    11 122 150     8 119 147     7 118 147     8 119 149     5 118 148     4 117 147     5 118 150     5 119 150     5 120 151     6 121 152     8 123 154     8 123 154     8 123 154     7 122 153     7 122 153     9 124 155     8 123 154     5 120 151     5 120 151     6 121 152     8 123 155    10 125 156     7 122 153     2 120 150  
  48 154 170    53 156 174    49 150 170    46 147 169    43 145 167    33 138 160    29 134 156    36 142 164    36 145 167    27 136 159    14 124 149    19 129 154    20 130 155    17 127 154    15 125 152    12 122 149     8 118 146    13 122 151    12 121 150     6 115 144     9 118 147     9 118 147     5 114 145     6 115 145     9 118 147    11 122 150    12 123 150    11 122 150    10 122 151    12 123 153     6 119 149     2 115 146     1 114 146     1 115 146     1 116 147     4 119 150     7 122 153     9 124 155    10 125 156     8 123 154     8 123 154     9 124 155     8 123 154     8 123 154     6 121 152     6 121 152    10 125 156    14 129 160    12 127 158     7 122 153  
  57 163 179    55 161 178    52 155 174    51 153 174    41 143 165    34 139 161    32 138 160    30 136 158    30 138 160    19 128 151    20 130 155    26 136 161    24 134 159    17 127 153    14 124 151    14 124 151    10 120 148     6 115 144    11 120 149    13 122 151    10 119 149     6 115 145     4 113 144     9 118 148     5 115 144     3 114 142     7 118 146    11 122 150    14 125 154     9 120 150     3 116 146     8 121 151     9 122 154     6 120 151     6 121 152     6 121 152     4 118 149     1 114 145     4 119 150     7 122 153     8 123 153    13 128 159     7 122 153     7 122 153     8 123 154     8 123 154    11 126 157    17 132 163    16 131 162    10 125 155  
  53 159 175    51 156 173    55 158 177    51 154 175    45 147 169    44 149 170    37 142 164    30 136 158    33 141 163    33 142 165    21 129 155    22 132 157    21 131 156    17 127 154    16 126 153    12 122 149     9 119 146    13 122 151    13 122 151    13 122 151    12 121 150    10 120 149    10 119 150    10 119 149     6 115 144     5 116 144     7 118 146     9 120 148    10 122 151     6 117 147     2 115 145     6 120 150     8 121 153     5 119 151     5 120 151     6 121 152     4 119 150     4 119 150     8 123 154     8 123 154     8 123 154    14 129 160    11 126 157     7 122 153     7 122 153     6 121 152     7 122 153    12 127 158    13 128 159     9 124 155  
  52 159 174    48 155 172    50 155 174    47 150 171    42 144 166    39 144 166    32 138 159    27 133 155    31 137 160    33 142 165    21 129 155    19 127 153    18 126 152    18 125 153    18 126 154    12 120 148     9 118 146    17 125 154    14 122 151    12 120 149    12 120 149    13 120 151    14 121 153    11 120 149     7 116 145     8 119 147     7 118 146     6 117 145     7 118 147     4 115 145     1 114 144     6 118 149     6 119 151     4 119 150     5 120 151     5 120 151     5 120 151     8 123 154     9 124 155     7 122 153     6 121 153    13 128 159    12 127 158     8 123 154     9 124 155     7 122 153     5 120 151     8 123 154    12 127 158    13 128 159  
  54 164 179    51 158 175    45 150 169    46 149 170    41 143 165    32 137 159    31 136 158    33 139 161    31 137 160    25 131 155    22 130 156    19 127 153    16 124 150    15 124 151    16 124 152    14 122 149    13 121 149    15 123 152    11 119 148     9 117 146     9 117 146    11 119 148    11 118 150     9 117 147     7 116 145    10 121 149     8 119 147     5 116 144     6 117 146     6 117 147     2 115 145     5 118 149     6 119 151     5 119 150     6 121 152     6 121 152     5 120 151     7 122 153     7 122 153     6 121 152     4 119 150    10 125 156     9 124 155     8 123 154    12 127 158    12 127 158    10 125 155    10 125 156    13 128 159    15 130 161  
  54 164 179    52 158 175    47 152 171    48 151 172    46 148 170    39 144 166    40 145 167    40 146 168    32 138 162    25 130 155    25 134 159    21 129 155    17 125 151    13 121 149    13 121 149    16 124 152    16 124 153    13 121 150    11 119 148    10 118 147    10 118 147    10 117 147     9 116 148     7 116 146     7 116 145    10 121 149     8 119 147     5 116 144     8 119 149     9 120 150     3 116 146     5 118 149     6 119 151     6 120 152     8 123 154     8 123 154     6 121 152     7 122 153     7 122 153     9 124 155     7 122 153     9 124 155     7 122 153     5 120 151    10 125 156    14 129 160    12 127 158    11 126 157    12 127 158    13 128 159  
  50 159 174    49 156 173    54 159 178    43 146 167    45 147 169    44 149 172    41 146 168    34 140 162    25 131 154    25 131 155    28 136 162    23 131 157    18 126 152    15 122 150    13 121 149    16 124 152    18 127 155    14 122 151    15 123 152    15 123 152    13 121 150    12 119 149    11 118 150     9 117 147     7 116 145     9 120 148     8 119 147     6 117 145     9 120 150    11 122 152     4 117 147     5 118 149     6 119 151     7 121 152     9 124 156     9 124 154     7 122 153     9 124 155     8 123 154    12 127 158    10 125 156    11 126 157    10 125 156     4 119 150     7 122 153    12 127 158    10 125 157    10 125 156     9 124 155     8 123 154  
  48 158 173    47 156 172    52 158 177    40 142 164    41 143 165    39 144 166    35 140 163    30 136 158    22 128 151    24 129 154    30 138 164    22 130 156    18 126 152    18 126 153    16 124 152    15 123 151    15 123 151    15 123 152    18 126 155    17 125 154    12 120 149    11 118 148    14 121 153    12 121 151     8 117 146     7 118 146     5 116 144     4 115 143     8 119 148     8 119 149     3 116 146     4 117 147     5 118 150     6 121 152     9 124 155     8 123 154     7 122 153    10 125 156     7 122 153     9 124 155     8 123 154    11 126 157    12 127 158     7 122 153     9 124 154    10 125 156     9 124 155     9 124 155    10 125 156     9 124 155  
  51 161 176    50 157 173    47 152 169    43 146 166    44 146 168    36 138 160    37 140 162    41 146 167    31 136 158    26 132 156    33 139 163    20 128 154    18 126 152    22 130 156    19 127 155    13 121 149    11 119 147    15 123 152    17 125 154    15 123 152     8 116 145     8 116 146    14 122 154    15 123 153     9 118 147     6 117 145     3 114 142     2 113 141     5 116 145     5 116 146     2 115 145     3 116 146     4 117 149     5 120 151     9 124 154     7 122 153     6 121 152     8 123 154     3 118 149     4 119 150     3 118 149     7 122 153    12 127 158    12 127 158    13 128 159    11 126 157     8 123 154    11 126 157    13 128 159    13 128 159  
  56 165 178    53 160 173    55 157 174    52 153 171    47 148 168    46 147 167    45 147 167    39 142 161    35 138 157    36 141 161    28 134 156    28 134 158    26 132 156    18 126 150    19 128 153    22 130 156    17 125 152    15 125 152    12 121 150     9 118 147    10 119 150    13 122 153    12 121 152     8 117 147     8 118 145    11 122 149    10 121 149     7 118 146     9 120 148     9 120 148     7 119 149     2 115 145     1 114 144     2 117 146     4 119 148     3 118 147     3 118 148     8 126 156    10 128 158     8 126 156     3 121 151     1 118 148     2 120 150     5 123 153     1 117 147     5 123 153     5 123 153     7 125 155     2 119 149     5 123 153  
  57 166 179    53 158 173    52 155 170    55 155 173    51 150 170    47 146 165    46 145 164    42 143 161    35 137 156    32 134 156    28 133 155    27 133 156    27 133 157    22 130 153    24 132 155    24 132 158    18 126 153    15 125 152    13 123 151    12 121 150    12 121 152    13 123 153    10 121 151     9 118 147     8 118 145    10 121 148    10 121 148     7 118 146     8 119 147     7 118 146     7 119 149     3 116 146     1 114 144     2 117 146     5 120 149     4 119 148     2 118 148     6 124 154     8 125 155     7 125 155     4 122 152     2 121 151     5 123 153     7 125 155     3 121 151     9 127 157     6 124 154     9 127 157     5 123 153     7 124 154  
  59 168 182    57 162 176    53 155 170    57 156 174    53 152 170    46 145 164    45 145 163    44 145 163    38 139 158    32 135 154    29 134 156    26 132 155    27 133 157    26 132 156    29 134 159    26 134 160    19 127 153    17 125 153    16 125 154    14 123 152    14 123 154    13 122 153    10 119 149    10 120 147     7 117 144     8 119 146     9 120 147     8 119 147     8 119 147     4 115 143     7 119 149     3 116 146     3 116 146     4 118 147     6 121 150     5 120 149     3 118 148     3 121 151     5 123 153     6 124 154     4 122 152     5 123 153     8 126 156     7 125 155     5 123 153    12 130 160     4 122 152     8 126 156     7 125 155     6 124 154  
  61 171 184    61 168 181    57 161 176    53 155 172    50 149 168    47 146 165    45 145 164    45 146 164    42 143 162    38 140 162    34 139 161    27 133 156    26 132 156    26 132 156    28 134 158    25 133 159    19 127 153    18 126 154    16 125 154    13 122 151    11 120 151    12 120 152    10 119 150    11 120 149     7 117 145     7 118 145     9 120 147     9 120 148     8 119 147     3 113 141     6 119 149     5 118 148     5 118 148     5 119 149     6 121 150     6 121 150     4 120 149     4 122 152     5 123 153     5 123 153     4 122 152     6 123 153     8 126 156     5 123 153     6 124 154    12 130 160     1 119 149     6 124 154     6 124 154     3 121 151  
  62 172 185    64 171 185    60 165 179    53 155 172    52 153 171    52 152 170    46 147 165    43 144 162    43 144 163    43 146 165    40 145 166    29 135 157    25 131 153    23 129 153    24 130 154    22 130 157    19 127 153    19 127 155    16 125 153    10 119 148     8 117 146    10 119 149    11 120 150    10 120 148     7 117 144     7 118 145     9 120 147     9 120 148     8 119 147     3 114 142     5 118 148     5 118 148     6 119 149     6 120 150     7 122 151     6 121 150     6 121 150     7 122 153     7 122 153     6 121 152     6 121 152     6 121 152     9 124 155     7 122 153     9 124 155    16 131 162     3 118 149     8 123 154     9 124 155     6 121 152  
  60 172 184    62 171 184    59 166 179    54 158 174    57 159 177    56 157 175    48 149 167    42 143 161    42 143 163    44 147 166    42 147 168    30 136 158    27 133 155    23 129 152    22 128 152    21 129 155    19 127 154    19 127 155    17 126 154    11 120 149     9 118 147    11 120 149    12 121 151    10 120 147     6 116 143     8 119 146     9 120 148     9 120 148     9 120 148     5 116 144     4 117 147     5 118 148     7 120 150     6 120 150     7 122 151     6 121 150     7 122 151     9 124 155     7 122 153     6 121 152     5 120 151     6 121 152     8 123 154    11 126 157    13 128 159    19 134 165     9 124 155    11 126 157    10 125 156    12 127 158  
  60 172 184    63 172 185    61 168 181    55 161 177    58 162 179    55 158 175    48 150 167    45 146 164    45 147 166    44 147 166    39 144 165    33 138 159    33 138 160    28 134 156    23 129 151    24 130 154    20 127 152    17 125 151    19 127 155    17 125 153    15 123 152    14 122 151    13 122 151     8 118 146     6 116 143     9 120 147    10 121 148     8 119 147    10 121 149     9 120 148     3 116 146     5 117 147     7 120 150     6 120 150     6 121 150     6 121 150     7 122 151     9 124 155     6 121 152     5 120 151     6 121 152     7 122 153     9 124 155    14 129 160    12 127 158    19 134 165    12 127 158    11 126 157     9 124 155    15 130 161  
  61 173 185    63 175 187    63 172 185    56 163 178    54 160 176    52 155 172    47 150 167    50 151 169    51 152 171    47 148 168    37 139 161    32 137 158    37 142 164    33 139 161    25 131 153    25 131 155    20 127 152    15 123 149    21 129 156    22 130 158    20 128 157    17 125 154    13 122 151     7 116 144     6 116 143    10 121 148    11 122 149     8 119 147    11 122 150    11 122 150     2 115 145     5 117 147     7 120 150     6 120 150     6 121 150     6 121 150     7 122 152     8 123 154     6 121 151     4 119 150     6 121 152     8 123 155    10 125 156    14 129 160    10 125 156    17 132 162    12 127 158     9 124 155     6 121 152    15 130 161  
  62 176 187    55 167 179    58 169 181    55 163 178    57 163 179    49 152 169    45 147 164    49 150 168    46 146 166    46 147 167    45 148 170    41 146 167    36 141 162    32 137 159    32 137 159    29 134 159    25 131 155    23 129 155    20 127 155    18 126 154    17 124 153    13 121 149    10 118 147    12 122 149     9 119 146     5 116 143     7 118 145     9 120 148     8 119 147     7 118 146     5 118 148     4 117 147     5 118 148     5 119 149     6 121 150     6 121 150     4 118 148     4 117 149     9 122 154    12 125 157     9 122 154     8 121 153    10 123 155     9 122 154     8 121 153     9 122 154     8 120 153    11 124 156    16 129 161    11 125 156  
  65 179 190    59 172 183    60 172 184    58 168 182    61 169 184    54 160 176    49 152 169    49 150 168    45 144 165    46 147 167    42 144 166    37 142 163    34 139 160    32 137 159    32 137 159    29 136 159    25 131 156    23 129 155    23 130 158    21 129 157    18 126 154    16 124 152    17 125 154    15 124 152     9 119 146     5 116 143     7 118 146    10 121 149     8 120 147     7 118 146     5 118 148     4 117 147     5 118 148     5 120 149     7 122 151     6 121 150     4 119 149     5 118 150    10 123 155    11 124 156     9 122 154     8 121 153    10 123 155    13 126 158     7 120 152     8 121 153    14 127 159    13 126 158    13 126 158    16 129 161  
  68 182 193    63 177 188    62 175 187    60 171 185    64 172 187    59 165 181    54 156 173    52 153 171    48 147 167    48 149 169    42 144 164    38 141 161    36 138 160    33 137 159    30 135 157    28 133 155    26 131 154    25 131 155    27 133 159    24 130 156    19 124 153    17 123 152    20 128 156    16 125 152    11 121 148     7 118 145     7 118 146    10 121 149     9 120 148     7 118 146     6 119 149     5 118 148     6 119 149     7 121 150     8 123 152     7 122 151     6 120 150     6 119 151     9 122 154    11 124 156     9 122 154     8 121 153    10 123 155    14 127 159     4 117 149     6 119 151    17 130 162    14 127 159    11 124 156    16 129 161  
  69 182 194    63 177 188    60 174 185    59 171 185    60 170 185    57 164 179    54 159 175    56 158 175    54 153 173    50 149 170    47 149 169    42 144 164    38 140 162    34 138 160    29 134 156    25 130 152    25 130 152    26 132 156    25 131 157    22 128 154    18 123 152    17 123 151    19 127 155    15 124 152    12 122 149     9 120 147     7 118 146     9 120 148     9 120 148     7 118 146     6 119 149     5 118 148     6 119 149     7 121 150     8 123 152     8 123 152     7 121 151     7 120 152     9 122 154    10 123 155     9 122 154     8 121 153    10 123 155    12 125 157     5 118 150     8 120 153    14 127 159    13 126 158    12 125 157    14 127 159  
  64 180 190    59 176 186    56 171 182    59 172 185    57 168 182    54 161 177    55 160 176    58 160 178    56 156 176    46 147 167    48 151 170    43 146 165    41 143 165    39 141 163    33 135 157    28 133 155    27 132 155    28 132 157    22 128 153    20 126 152    22 127 156    24 129 158    24 130 159    16 125 152    14 124 151    11 122 149     8 119 146     9 120 148    10 121 149     7 118 146     8 121 151     7 120 150     7 120 150     7 121 150     8 123 152     7 122 151     7 122 151    10 121 154    11 121 154    11 121 154    10 120 153    11 121 154    13 123 156    12 122 155    14 124 157    16 126 159    13 123 156    17 127 160    21 131 164    13 125 158  
  61 178 188    58 175 185    55 172 182    59 173 186    56 168 183    53 163 178    55 160 177    57 159 177    54 154 174    42 141 162    47 149 168    42 144 164    42 144 166    43 145 167    38 140 162    33 138 160    34 138 161    29 133 158    22 128 153    23 129 155    29 134 163    33 138 167    32 137 166    19 126 154    15 124 152    12 123 150     8 119 146     9 120 148    10 121 149     7 118 146     9 122 152     8 120 150     7 120 150     7 121 150     7 122 151     6 121 150     8 120 151    12 122 155    11 121 154    10 120 153    10 120 153    11 121 154    13 123 156    14 124 157    19 129 162    20 130 163    14 124 157    20 130 163    28 138 171    17 127 160  
  61 178 188    61 178 188    61 178 188    57 172 184    54 166 180    57 167 182    57 163 179    54 156 174    54 153 174    46 145 166    47 148 168    41 144 163    43 146 165    45 147 168    40 142 164    35 140 162    36 141 164    31 135 160    27 132 158    26 132 158    29 135 161    32 138 165    31 137 166    18 127 154    17 127 154    13 124 151     8 119 146     9 120 148    11 122 150     7 118 146    11 124 154     8 121 151     7 120 150     6 120 150     6 121 150     4 119 148     6 120 150    12 124 156    11 121 153     9 119 152    10 120 153    11 121 154    13 123 156    17 127 160    18 128 161    18 128 161    15 125 158    19 129 162    26 136 169    19 131 164  
  63 180 190    63 181 191    66 184 194    53 169 181    49 163 177    58 169 184    57 164 180    52 155 172    56 156 176    53 152 173    50 151 171    44 145 165    45 146 166    46 146 169    39 140 163    35 137 160    34 139 162    33 137 162    31 136 162    28 134 160    26 132 158    24 130 156    25 130 159    17 124 153    17 126 154    14 125 152     7 118 145     9 120 148    11 122 150     7 118 146    11 124 154     9 122 152     8 121 151     6 120 150     5 120 149     3 118 147     4 119 149    13 125 157    11 121 154     9 119 152    10 120 153    11 121 154    13 123 156    18 128 161    13 123 156    11 121 154    15 125 158    15 125 158    18 128 161    20 133 165  
