P3
50 50
255
  31  69  90    31  69  90    31  69  90    31  69  90    31  69  90    31  67  89    31  67  89    31  67  89    31  67  89    32  67  89    32  67  89    31  66  88    31  66  88    34  66  89    32  67  89    32  67  89    29  66  85    30  67  86    31  68  87    32  69  88    32  70  89    33  71  92    33  71  92    33  71  92    31  72  94    31  72  94    32  73  95    31  72  94    30  72  96    29  71  95    28  70  94    28  70  94    31  72  94    31  72  94    31  72  94    32  73  95    32  73  95    33  74  96    33  74  96    33  74  96    32  73  95    31  72  94    31  72  94    30  71  93    30  71  93    31  72  94    31  72  94    32  73  95    31  69  89    31  69  88  
  30  68  89    31  68  90    31  69  90    32  68  90    32  68  90    31  67  89    30  66  88    30  65  88    32  67  89    31  66  88    31  65  88    30  64  87    32  64  87    33  65  88    33  65  88    34  66  89    32  67  87    31  67  86    30  67  85    30  66  85    30  67  86    32  69  88    32  70  90    33  70  92    31  71  92    31  72  93    31  72  94    32  73  95    31  72  95    31  72  95    30  71  96    29  71  95    30  71  93    31  71  93    31  70  93    31  70  93    31  70  93    31  70  93    31  71  94    31  71  94    31  71  94    31  72  94    31  72  94    32  72  94    32  72  94    31  72  94    31  72  94    31  71  94    30  68  87    30  68  87  
  31  67  89    31  67  89    32  68  90    32  68  90    33  68  90    32  67  89    31  66  88    30  65  87    32  67  89    31  66  88    32  64  87    31  63  86    31  63  86    32  64  87    33  65  88    34  66  88    34  69  89    33  68  87    31  66  85    29  64  84    29  66  85    31  68  87    33  70  89    34  71  91    32  70  91    33  71  92    32  73  95    32  73  95    33  74  96    33  74  96    32  74  97    31  73  96    32  73  95    34  72  95    34  72  95    33  71  94    33  71  94    33  71  94    33  71  94    33  71  94    32  70  93    33  71  94    34  72  95    35  73  96    35  73  96    34  72  95    33  71  94    32  70  93    30  68  88    30  68  88  
  30  67  87    32  68  88    33  68  88    32  67  88    31  66  86    30  65  85    30  65  86    31  66  87    33  66  87    32  65  86    33  65  86    32  64  86    33  64  86    33  64  86    33  64  86    32  65  86    34  69  89    31  66  88    30  65  85    31  66  87    30  66  87    28  65  86    30  66  87    32  69  90    32  70  91    32  70  91    33  71  93    33  71  93    33  72  93    34  72  94    32  73  94    32  73  95    30  71  93    31  70  95    31  70  95    30  70  94    31  71  95    31  70  95    31  70  95    31  70  95    30  69  93    31  70  94    32  72  96    33  73  97    33  73  97    33  73  97    32  71  96    32  72  94    32  70  92    34  72  94  
  28  65  84    29  66  85    30  65  85    30  65  85    29  64  84    30  65  85    31  66  86    33  68  88    33  65  86    33  65  86    33  65  86    32  64  85    33  64  85    33  64  85    33  64  85    32  63  84    33  68  90    30  65  87    30  65  87    32  67  89    31  67  89    29  65  87    29  65  87    32  68  90    32  70  91    32  70  91    32  70  91    32  70  91    32  70  91    32  70  91    30  71  91    31  72  94    29  70  92    29  69  94    29  69  94    29  69  94    30  70  95    30  70  95    30  70  95    30  70  95    30  70  95    30  70  95    32  72  97    33  73  98    33  73  98    33  73  98    32  72  97    32  72  97    32  70  93    35  73  96  
  28  65  84    29  66  85    30  65  85    29  64  84    28  63  83    28  63  83    29  64  84    31  66  86    32  64  85    32  64  85    32  64  85    31  63  84    32  63  84    32  63  84    32  63  84    32  63  84    32  67  89    29  64  86    29  64  86    32  67  89    31  67  89    29  65  87    30  66  88    33  69  91    31  69  90    31  69  90    31  69  90    31  69  90    31  69  90    31  69  90    31  69  90    30  68  91    29  70  92    29  69  94    29  69  94    29  69  94    30  70  95    30  70  95    30  70  95    30  70  95    30  70  95    31  71  96    31  71  96    32  72  97    32  72  97    32  72  97    32  72  97    31  71  96    31  69  92    33  71  94  
  32  69  88    32  69  88    33  68  88    31  66  86    28  63  83    27  62  82    27  62  82    28  63  83    31  63  84    31  63  84    31  63  84    31  63  84    32  63  84    31  62  83    31  62  83    31  62  83    31  66  88    29  64  86    29  64  86    31  66  88    31  67  89    30  66  88    31  67  89    34  70  92    32  70  91    32  70  91    32  70  91    31  69  90    31  69  90    30  68  89    30  68  89    30  68  89    29  70  92    29  69  93    29  69  93    29  69  93    30  70  94    30  70  94    30  70  94    30  70  94    31  71  95    31  71  95    31  71  95    31  71  95    31  72  96    31  71  95    31  71  95    31  71  95    30  69  92    31  68  92  
  32  69  88    32  69  88    33  68  88    32  67  87    30  65  85    29  64  84    30  65  85    31  66  86    32  64  85    32  64  85    32  64  85    31  63  84    32  63  84    32  63  84    32  63  84    32  63  84    33  66  89    29  64  86    29  64  86    32  67  89    32  67  89    31  66  88    31  67  89    34  70  92    34  70  92    34  70  92    33  71  92    32  70  91    32  70  91    32  70  91    32  70  91    32  70  91    29  70  92    29  70  92    29  70  92    29  70  92    30  71  93    30  71  93    30  71  93    30  71  93    32  73  95    31  72  94    31  72  94    31  72  94    30  71  93    31  72  94    31  72  94    32  72  94    31  68  92    31  67  91  
  28  66  85    30  66  86    31  66  86    30  65  85    30  65  85    30  65  85    32  67  87    34  69  89    33  65  85    33  65  85    33  65  85    32  64  85    33  64  85    33  64  85    33  64  85    32  63  84    35  67  90    31  64  87    31  64  87    33  66  89    32  67  89    30  65  87    30  65  87    33  68  90    32  68  90    32  68  90    32  68  90    32  68  90    31  69  90    31  69  90    31  69  90    31  69  90    30  69  92    30  69  92    30  69  92    30  69  92    31  70  93    31  70  93    31  70  93    31  70  93    33  72  95    33  72  95    32  71  93    30  70  92    30  70  92    30  70  92    31  70  93    32  70  93    33  69  91    30  66  88  
  30  67  86    30  67  86    31  66  86    30  65  85    28  63  83    28  63  83    29  64  84    30  65  85    33  65  86    33  65  86    33  65  86    33  65  86    34  65  86    33  64  85    33  64  85    33  64  85    36  68  91    33  65  88    32  64  87    34  66  89    32  67  89    29  64  86    30  65  87    33  68  90    30  66  88    30  66  88    30  66  88    31  67  89    30  68  89    30  68  89    31  69  90    31  69  90    31  69  92    31  69  92    31  69  92    31  69  92    32  70  93    32  70  93    32  70  93    32  70  93    35  73  96    34  72  95    32  70  93    31  69  92    31  69  92    31  69  92    32  70  93    32  70  93    33  69  91    30  66  88  
  31  68  87    31  68  87    32  67  87    32  67  87    32  67  87    32  67  87    33  68  88    34  69  89    32  64  85    32  64  85    32  64  85    32  64  85    33  64  85    33  64  85    33  64  85    33  64  85    33  65  88    33  65  88    33  65  88    33  65  88    33  65  88    34  66  89    32  67  89    32  67  89    33  68  90    33  68  90    32  68  90    32  68  90    32  68  90    32  68  90    32  68  90    32  68  90    31  69  90    31  69  90    31  69  90    31  69  90    32  70  91    32  70  91    32  70  91    32  70  91    32  70  91    31  69  90    31  69  90    31  69  90    31  69  90    32  70  91    32  70  91    33  71  92    31  67  89    33  68  90  
  30  68  87    30  68  87    30  65  85    30  65  85    30  65  85    31  66  86    32  67  87    32  67  87    32  64  85    32  64  85    32  64  85    32  64  85    33  64  85    33  64  85    33  64  85    33  64  85    33  65  88    33  65  88    33  65  88    33  65  88    33  65  88    34  66  89    32  67  89    32  67  89    33  68  90    33  68  90    32  68  90    32  68  90    32  68  90    32  68  90    32  68  90    32  68  90    31  69  90    31  69  90    31  69  90    31  69  90    32  69  90    32  70  91    32  70  91    32  70  91    31  69  90    31  69  90    31  69  90    31  68  90    31  69  90    32  69  90    32  70  91    34  70  92    31  66  87    31  66  87  
  30  67  86    30  67  86    30  65  85    30  65  85    30  65  85    30  65  85    31  66  86    31  66  86    32  64  85    32  64  85    32  64  85    32  64  85    33  64  85    33  64  85    33  64  85    33  64  85    34  64  88    34  64  88    33  65  88    33  65  88    33  65  88    34  66  89    34  66  89    34  66  89    33  68  90    33  68  90    33  68  90    33  68  90    32  68  90    32  68  90    32  68  90    32  68  90    32  68  90    32  68  90    32  68  90    32  68  90    32  68  90    33  69  91    33  69  91    33  69  91    32  68  90    32  68  90    32  68  90    31  67  89    32  68  90    32  68  90    33  69  91    34  70  92    31  66  86    31  66  86  
  30  67  86    29  66  85    30  65  85    29  64  84    29  64  84    29  64  84    29  64  84    29  64  84    32  64  85    32  64  85    32  64  85    32  64  85    33  64  85    33  64  85    33  64  85    33  64  85    34  64  88    34  64  88    34  64  88    34  64  88    33  65  88    34  66  89    34  66  89    34  66  89    33  66  89    33  66  89    32  67  89    32  67  89    32  67  89    32  67  89    32  67  89    32  67  89    31  68  87    31  68  87    31  68  88    31  68  88    32  69  88    32  69  88    32  69  89    32  69  89    32  69  88    31  68  88    31  68  87    31  68  87    31  68  87    32  69  88    32  69  89    33  70  90    32  67  87    32  67  87  
  31  68  87    30  67  86    30  65  85    29  64  84    29  64  84    29  64  84    29  64  84    29  64  84    32  64  85    32  64  85    32  64  85    32  64  85    33  64  85    33  64  85    33  64  85    33  64  85    34  64  88    34  64  88    34  64  88    34  64  88    33  65  88    34  66  89    34  66  89    34  66  89    34  66  89    34  66  89    32  67  89    32  67  89    32  67  89    32  67  89    32  67  89    32  67  89    31  68  87    31  68  87    31  68  87    31  68  87    31  68  87    32  69  88    32  69  88    32  69  88    31  68  87    31  68  87    31  68  87    30  67  86    31  68  87    31  68  87    32  69  88    33  70  89    33  68  88    33  68  88  
  32  69  88    31  68  87    31  66  86    30  65  85    29  64  84    29  64  84    29  64  84    29  64  84    32  64  85    32  64  85    32  64  85    32  64  85    33  64  85    33  64  85    33  64  85    33  64  85    34  64  88    34  64  88    34  64  88    34  64  88    34  64  88    35  65  89    34  66  89    34  66  89    33  65  88    33  65  88    31  66  88    31  66  88    31  66  88    31  66  88    31  66  88    31  66  88    30  67  86    30  67  86    31  68  87    31  68  87    31  68  87    31  68  87    32  69  88    32  69  88    31  68  87    31  68  87    30  67  86    30  67  86    30  67  86    31  68  87    32  69  88    32  69  88    32  67  87    34  66  87  
  33  68  88    33  67  88    31  65  86    32  64  85    31  65  85    32  63  85    30  64  85    32  63  85    31  63  84    32  63  84    32  63  84    32  64  85    33  64  85    33  64  85    33  64  85    33  64  85    33  65  85    33  64  87    33  65  85    33  64  87    33  65  85    34  64  87    33  65  86    33  65  88    33  65  85    33  65  87    31  66  85    31  65  87    31  66  85    31  65  87    31  66  85    31  65  86    31  65  86    31  65  86    30  67  86    32  66  87    31  67  87    32  67  87    31  68  87    33  68  88    31  67  87    32  66  87    30  67  86    31  65  86    30  67  86    32  66  87    32  68  87    33  67  87    33  65  85    33  65  85  
  36  67  88    35  66  87    34  65  86    34  65  86    33  65  86    34  65  86    34  65  86    34  65  86    31  62  83    32  63  84    32  63  84    33  64  85    34  65  86    34  65  86    34  65  86    33  64  85    32  65  85    32  65  85    32  65  84    32  64  84    32  65  84    32  64  84    32  65  84    32  65  85    33  66  85    33  66  86    33  66  85    33  66  86    33  66  85    33  66  86    33  66  85    33  66  86    33  65  86    33  65  86    32  66  86    33  65  86    32  66  86    34  66  87    33  67  87    35  67  88    33  66  87    34  66  87    33  66  87    34  66  87    33  66  87    34  66  87    33  66  87    34  66  87    34  66  85    34  65  85  
  35  66  87    35  66  87    34  65  86    33  64  85    33  64  85    33  64  85    34  65  86    34  65  86    32  63  84    33  64  85    34  65  85    34  65  85    35  65  87    34  65  86    34  65  86    34  65  85    31  64  83    31  64  83    32  65  84    33  65  85    33  65  85    32  65  84    31  64  83    31  64  83    33  66  85    33  66  85    33  66  85    33  66  85    33  66  85    33  66  85    33  66  85    33  66  85    33  65  86    32  64  85    32  64  85    32  64  85    32  64  85    33  65  86    34  66  87    34  66  87    34  66  87    34  66  87    34  66  87    34  66  87    34  66  87    34  66  87    34  66  87    34  66  87    34  65  85    34  65  85  
  35  66  87    35  66  87    34  65  86    33  64  85    33  64  85    33  64  85    33  64  85    34  65  86    32  63  84    33  64  85    33  64  85    34  65  86    34  65  86    34  65  86    33  64  85    33  64  85    30  63  82    31  64  83    33  66  85    34  67  86    34  67  86    33  66  85    31  64  83    30  63  82    33  66  85    33  66  85    33  66  85    33  66  85    33  66  85    33  66  85    33  66  85    33  66  85    32  64  85    32  64  85    31  63  84    31  63  84    32  64  85    32  64  85    33  65  86    33  65  86    32  64  85    32  64  85    32  64  85    32  64  85    32  64  85    32  64  85    32  64  85    32  64  85    34  65  85    34  65  85  
  35  66  87    34  65  86    33  64  85    33  64  85    33  64  85    33  64  85    33  64  85    33  64  85    32  63  84    32  63  84    33  64  85    33  64  85    33  64  85    32  63  84    32  63  84    31  62  83    31  62  82    32  63  83    34  65  85    35  66  86    35  66  86    34  65  85    32  63  83    31  62  82    33  64  84    33  64  84    33  64  84    33  64  84    33  64  84    33  64  84    33  64  84    33  64  84    32  63  84    32  63  84    32  63  84    32  63  84    32  63  84    33  64  85    33  64  85    34  65  86    32  63  84    32  63  84    32  63  84    32  63  84    32  63  84    32  63  84    32  63  84    32  63  84    33  64  84    33  64  84  
  34  65  86    34  65  86    33  64  85    32  63  84    32  63  84    32  63  84    33  64  85    33  64  85    32  63  84    32  63  84    32  63  84    33  64  85    32  63  84    32  63  84    31  62  83    30  61  82    32  63  83    32  63  83    33  64  84    34  65  85    34  65  85    33  64  84    32  63  83    32  63  83    33  64  84    33  64  84    33  64  84    33  64  84    33  64  84    33  64  84    33  64  84    33  64  84    32  63  83    31  62  83    31  62  83    30  62  82    31  62  83    32  63  83    33  64  84    33  64  85    34  65  85    34  65  85    34  65  85    34  65  85    34  65  85    34  65  85    34  65  85    34  65  85    33  64  84    33  64  84  
  34  65  86    34  65  86    33  64  85    32  63  84    32  63  84    32  63  84    32  63  84    33  64  85    34  65  86    34  65  86    34  65  86    34  65  86    34  65  86    33  64  85    32  63  84    32  63  84    33  64  84    33  64  84    33  64  84    33  64  84    33  64  84    33  64  84    33  64  84    33  64  84    33  64  84    33  64  84    33  64  84    33  64  84    33  64  84    33  64  84    33  64  84    33  64  84    31  62  82    31  62  82    31  62  82    30  61  81    31  62  82    31  62  82    32  63  83    33  64  84    33  64  84    33  64  84    33  64  84    33  64  84    33  64  84    33  64  84    33  64  84    33  64  84    33  64  84    33  64  84  
  35  65  87    34  65  86    34  65  86    34  65  86    33  64  85    33  64  85    33  64  85    34  65  85    34  65  86    34  65  86    34  65  86    34  65  86    34  65  86    34  65  85    33  64  85    33  64  85    34  63  84    35  64  85    35  64  85    35  64  84    33  62  83    33  62  83    34  62  83    34  63  84    34  62  83    34  62  83    34  62  83    34  62  83    34  62  83    34  62  83    34  62  83    34  62  83    32  61  82    32  61  82    32  61  82    31  60  81    32  61  82    32  61  82    33  62  83    34  63  84    33  61  82    33  61  82    33  61  82    33  61  82    33  61  82    33  62  83    33  62  83    33  62  83    33  64  84    33  64  84  
  32  63  84    32  63  84    32  63  84    32  63  84    32  63  84    31  62  83    31  62  83    31  62  83    33  64  85    33  64  85    33  64  85    33  64  85    33  64  85    33  64  85    33  64  85    33  64  85    33  61  82    34  62  83    34  62  83    34  62  83    32  60  81    31  59  80    32  60  81    33  61  82    34  62  83    34  62  83    34  62  83    34  62  83    34  62  83    34  62  83    34  62  83    34  62  83    33  61  82    33  61  82    33  61  82    32  60  81    33  61  82    33  61  82    34  62  83    35  63  84    33  61  82    33  61  82    33  61  82    33  61  82    33  61  82    34  62  83    34  62  83    34  62  83    33  64  84    33  64  84  
  32  63  84    31  62  83    31  62  83    31  62  83    31  62  83    30  61  82    30  61  82    30  61  82    31  62  83    31  62  83    31  62  83    31  62  83    31  62  83    31  62  83    31  62  83    31  62  83    32  60  81    33  61  82    33  61  82    33  61  82    31  59  80    31  59  80    31  59  80    32  60  81    33  61  82    33  61  82    33  61  82    33  61  82    33  61  82    33  61  82    33  61  82    33  61  82    33  62  80    33  62  80    33  62  80    32  61  79    33  62  80    33  62  80    34  63  81    35  64  82    33  62  80    33  62  80    33  62  80    33  62  80    33  62  80    34  63  81    34  63  81    34  63  81    33  64  84    33  64  84  
  34  65  86    34  65  86    33  65  86    33  64  85    33  64  85    33  64  85    32  63  85    32  63  85    32  63  84    32  63  84    32  63  84    32  63  84    32  63  84    32  63  84    32  63  84    32  63  84    33  61  82    34  62  83    35  63  84    34  62  83    32  60  81    32  60  81    32  60  81    33  61  82    32  60  81    32  60  81    32  60  81    32  60  81    32  60  81    32  60  81    32  60  81    32  60  81    33  62  80    33  62  80    33  62  80    32  61  79    33  62  80    33  62  80    34  63  81    35  64  82    33  62  80    33  62  80    33  62  80    33  62  80    33  62  80    34  63  81    34  63  81    34  63  81    32  63  83    32  63  83  
  35  66  87    34  65  86    34  65  86    34  65  86    34  65  86    34  65  86    33  64  85    33  64  85    33  64  85    33  64  85    33  64  85    33  64  85    33  64  85    33  64  85    33  64  85    33  64  85    33  61  82    34  62  83    34  62  83    34  62  83    32  60  81    32  60  81    32  60  81    33  61  82    33  61  82    33  61  82    33  61  82    33  61  82    33  61  82    33  61  82    33  61  82    33  61  82    33  62  80    33  62  80    33  62  80    32  61  79    33  62  80    33  62  80    34  63  81    35  64  82    33  62  80    33  62  80    33  62  80    33  62  80    33  62  80    34  63  81    34  63  81    34  63  81    32  63  83    32  63  83  
  33  64  85    33  64  85    32  63  84    32  63  84    32  63  84    32  63  84    32  63  84    31  62  83    31  62  83    31  62  83    31  62  83    31  62  83    31  62  83    31  62  83    31  62  83    31  62  83    33  60  82    34  62  83    34  62  83    34  62  83    32  60  80    32  59  80    32  60  80    33  60  82    34  62  83    34  62  83    34  62  83    34  62  83    34  62  83    34  62  83    34  62  83    34  62  83    34  61  80    34  61  80    34  61  80    33  60  79    34  61  80    34  61  80    35  62  81    35  63  82    34  61  80    34  61  80    34  61  80    34  61  80    34  61  80    35  62  81    35  62  81    34  63  81    31  62  82    31  62  82  
  33  64  85    33  64  85    33  64  85    33  64  85    33  64  85    32  63  84    32  63  84    32  63  84    30  61  82    30  61  82    30  61  82    30  61  82    30  61  81    30  61  82    30  61  81    32  60  81    35  63  84    37  64  85    37  64  86    37  64  85    34  62  83    34  62  83    34  62  83    36  63  84    34  62  83    35  62  83    34  62  83    35  62  83    34  62  83    35  62  83    34  62  83    35  62  83    34  61  80    34  61  80    34  61  80    33  60  79    34  61  80    34  61  80    35  62  81    36  63  82    34  61  80    34  61  80    34  61  80    34  61  80    34  61  80    35  62  81    35  62  81    34  63  81    31  62  82    31  62  82  
  33  65  86    33  65  86    33  65  86    33  65  86    33  64  85    33  64  85    33  64  84    33  64  84    35  63  84    34  62  83    33  61  82    33  61  82    33  62  80    34  62  83    35  64  82    36  64  84    34  63  84    34  63  84    33  64  84    34  63  84    33  64  84    34  63  84    33  64  84    34  63  84    30  61  81    32  60  81    31  62  82    33  61  82    31  62  82    33  61  82    30  61  81    32  60  81    33  60  81    33  60  81    33  60  81    33  60  81    33  60  81    34  61  82    34  61  82    34  61  82    35  62  83    35  62  83    35  62  83    35  62  83    34  61  82    33  60  81    32  59  80    30  58  80    35  66  86    33  66  85  
  33  65  86    33  65  86    33  65  86    33  65  86    33  64  85    33  64  85    33  64  84    33  64  84    35  63  84    34  62  83    33  62  80    33  62  80    33  62  80    34  63  81    35  63  82    36  63  82    32  63  83    32  63  83    32  63  83    32  63  83    32  63  83    32  63  83    32  63  83    32  63  83    30  61  81    30  61  81    31  62  82    31  62  82    31  62  82    31  62  82    30  61  81    30  61  81    32  60  81    33  60  81    33  60  81    33  60  81    34  61  82    34  61  82    34  61  82    34  61  82    33  60  81    34  61  82    34  61  82    35  62  83    36  63  84    36  63  85    37  65  86    36  65  86    32  63  83    32  65  84  
  33  65  86    33  65  86    33  65  86    33  65  86    33  64  85    33  64  85    33  64  84    33  64  84    35  63  84    34  62  83    34  63  81    34  63  81    34  63  81    34  63  81    35  62  81    36  63  82    32  63  83    32  63  83    32  63  83    32  63  83    32  63  83    32  63  83    32  63  83    32  63  83    30  61  81    31  62  82    31  62  82    32  63  83    32  63  83    31  62  82    31  62  82    30  61  81    33  61  82    33  61  82    33  61  82    34  62  83    34  62  83    34  62  83    34  62  83    34  62  83    34  62  83    34  62  83    35  63  84    35  63  84    36  64  85    36  64  85    37  65  86    37  65  86    31  63  83    32  65  84  
  33  65  86    33  65  86    33  65  86    33  65  86    33  64  85    33  64  85    33  64  84    33  64  84    35  63  84    35  63  84    35  64  82    34  63  81    34  63  81    34  63  81    34  61  80    34  61  80    31  62  82    31  62  82    31  62  82    31  62  82    31  62  82    31  62  82    31  62  82    31  62  82    30  62  82    31  62  82    32  63  83    32  63  83    32  63  83    32  63  83    31  62  82    30  62  82    34  62  83    34  62  83    34  62  83    34  62  83    34  62  83    35  63  84    35  63  84    35  63  84    35  63  84    35  63  84    34  62  83    33  61  82    33  61  82    34  62  83    35  63  84    36  64  85    33  66  85    33  65  85  
  33  65  86    33  65  86    33  65  86    33  65  86    33  64  85    33  64  85    33  64  84    33  64  84    35  63  84    35  63  84    35  64  82    35  64  82    34  63  81    34  63  81    34  61  80    33  60  79    32  63  83    32  63  83    32  63  83    32  63  83    32  63  83    32  63  83    32  63  83    32  63  83    31  62  82    31  62  82    32  63  83    32  63  83    32  63  83    32  63  83    31  62  82    31  62  82    34  62  83    34  62  83    35  63  84    35  63  84    35  63  84    35  63  84    36  64  85    36  64  85    33  61  82    32  60  81    32  60  81    32  60  81    33  61  82    35  63  84    37  65  86    38  66  87    34  67  86    33  66  85  
  33  65  86    33  65  86    33  65  86    33  65  86    33  64  85    33  64  85    33  64  84    33  64  84    35  63  84    35  63  84    35  64  82    35  64  82    35  64  82    33  62  80    33  60  79    32  59  78    32  63  83    32  63  83    32  63  83    32  63  83    32  63  83    32  63  83    32  63  83    32  63  83    31  62  82    32  63  83    32  63  83    33  64  84    33  64  84    32  63  83    32  63  83    31  62  82    35  63  84    35  63  84    35  63  84    35  63  84    36  64  85    36  64  85    36  64  85    36  64  85    35  63  84    35  63  84    34  62  83    33  61  82    34  62  83    36  64  85    38  66  87    39  67  88    33  66  85    33  66  85  
  33  65  85    33  65  85    33  65  85    33  65  85    33  64  85    33  64  85    33  64  84    33  64  84    36  63  85    35  63  84    35  65  83    35  64  82    34  63  81    33  62  80    34  61  80    33  60  79    32  63  83    32  63  83    32  63  83    32  63  83    32  63  83    32  63  83    33  64  84    33  64  84    31  62  82    32  63  83    32  63  83    33  64  84    33  64  84    32  63  83    32  63  83    31  62  82    35  63  84    34  63  84    35  63  84    35  65  85    36  65  86    35  65  85    35  64  84    34  63  83    38  67  87    37  66  87    36  65  85    35  63  84    34  63  84    35  64  85    35  65  85    35  66  86    31  64  83    32  65  84  
  33  65  86    33  65  86    33  65  86    33  65  86    34  65  86    34  65  86    34  65  85    34  65  85    37  65  86    36  64  85    35  64  82    34  63  81    33  62  80    34  63  81    36  63  82    37  64  83    31  62  82    31  62  82    31  62  82    30  61  81    31  62  82    31  62  82    32  63  83    33  64  84    31  62  82    31  62  82    32  63  83    32  63  83    32  63  83    32  63  83    33  64  84    33  64  84    34  65  85    33  64  84    34  65  85    35  66  86    36  67  87    35  66  86    33  64  84    30  61  81    33  64  84    33  64  84    34  65  85    34  65  85    34  65  85    35  66  86    35  66  86    35  66  86    32  65  84    32  65  84  
  34  65  87    34  65  87    34  65  87    34  65  87    35  65  87    35  65  87    35  65  85    35  65  85    36  64  85    35  63  84    35  64  82    34  63  81    34  63  80    34  63  81    35  62  81    36  63  82    31  62  82    31  62  82    31  62  82    30  61  81    31  62  82    31  62  82    32  63  83    33  64  84    31  62  82    31  62  82    32  63  83    32  63  83    32  63  83    32  63  83    33  64  84    33  64  84    32  63  83    32  63  83    33  64  84    34  65  85    36  67  87    35  66  86    34  65  85    31  62  82    33  64  84    33  64  84    33  64  84    33  64  84    32  63  83    32  63  83    32  63  83    32  63  83    32  65  84    32  65  84  
  33  65  86    33  65  86    33  65  86    33  65  86    34  65  86    34  65  86    34  65  85    34  65  85    35  63  84    35  63  84    34  63  81    34  63  81    34  63  81    34  63  81    35  62  81    35  62  81    31  62  82    31  62  82    31  62  82    30  61  81    31  62  82    31  62  82    32  63  83    33  64  84    31  62  82    31  62  82    32  63  83    32  63  83    32  63  83    32  63  83    33  64  84    33  64  84    32  63  83    32  63  83    32  63  83    34  65  85    35  66  86    36  67  87    34  65  85    33  64  84    34  65  85    34  65  85    34  65  85    33  64  84    33  64  84    32  63  83    32  63  83    32  63  83    32  65  84    32  65  84  
  32  64  85    32  64  85    32  64  85    32  64  85    33  64  85    33  64  85    33  64  84    33  64  84    34  62  83    34  62  83    34  63  81    34  63  81    34  63  81    34  63  81    34  61  80    34  61  80    31  62  82    31  62  82    31  62  82    30  61  81    31  62  82    31  62  82    32  63  83    33  64  84    31  62  82    31  62  82    32  63  83    32  63  83    32  63  83    32  63  83    33  64  84    33  64  84    32  65  84    31  64  83    31  64  83    32  65  84    34  67  86    34  67  86    34  67  86    32  65  84    34  67  86    34  67  86    34  67  86    33  66  85    33  66  85    32  65  84    32  65  84    32  65  84    33  66  85    33  66  85  
  31  63  84    31  63  84    31  63  84    31  63  84    32  63  84    32  63  84    32  63  83    32  63  83    33  61  82    34  62  83    34  63  81    34  63  81    34  63  81    33  62  80    34  60  80    33  60  79    31  62  82    31  62  82    31  62  82    30  61  81    31  62  82    31  62  82    32  63  83    33  64  84    31  62  82    31  62  82    32  63  83    32  63  83    32  63  83    32  63  83    33  64  84    33  64  84    33  66  85    32  65  84    31  64  83    32  65  84    33  66  85    34  67  85    33  66  85    32  65  84    33  66  85    33  66  85    33  66  85    34  67  85    33  66  85    33  66  85    33  66  85    33  66  85    33  66  85    33  66  85  
  33  65  86    33  65  86    33  65  86    33  65  86    34  65  86    34  65  86    34  65  85    34  65  85    33  61  82    33  61  82    34  63  81    35  64  82    34  63  81    33  62  80    33  60  79    32  60  78    32  62  81    32  62  82    31  62  81    31  61  81    31  62  81    31  62  82    32  63  83    33  64  84    31  62  82    31  62  82    32  63  83    32  63  83    32  63  83    32  63  83    33  64  84    33  64  84    35  68  87    34  66  86    32  65  84    32  64  84    33  66  85    33  66  86    33  66  85    32  64  84    31  64  83    32  64  84    32  65  84    32  65  85    33  66  85    33  65  85    33  66  85    33  66  85    33  66  85    33  66  85  
  36  67  87    36  65  86    32  63  84    33  62  83    34  63  84    34  63  84    34  63  83    34  63  83    33  60  82    32  60  81    32  61  81    33  61  81    32  61  81    33  61  81    33  60  81    33  62  80    33  62  80    34  61  81    32  62  78    33  60  80    32  62  78    32  62  81    33  62  81    33  62  81    32  61  80    32  62  81    31  62  82    32  63  83    33  64  84    33  64  84    33  64  84    33  64  84    31  64  84    31  65  87    33  67  87    32  66  88    31  65  85    31  65  87    32  66  86    32  66  88    30  65  85    31  65  87    31  65  85    31  65  87    31  65  85    31  65  87    31  66  85    31  66  85    31  65  83    32  65  84  
  37  65  86    35  63  84    34  62  83    34  62  83    34  62  83    35  63  84    34  62  83    33  61  82    33  61  82    32  60  81    32  60  81    32  60  81    32  60  81    32  60  81    33  61  82    34  62  83    34  61  78    34  61  78    34  61  78    34  61  78    34  61  78    34  61  78    33  62  80    33  62  80    32  61  79    33  62  80    31  62  82    32  63  83    33  64  84    33  64  84    33  64  84    33  64  85    29  64  84    31  66  88    33  68  90    33  68  90    31  66  88    30  65  87    31  66  88    32  67  89    31  66  88    31  66  88    31  66  88    31  66  88    31  66  88    31  66  88    31  66  88    31  66  88    32  65  84    32  65  84  
  34  62  83    33  61  82    33  61  82    34  62  83    35  63  84    35  63  84    33  61  82    32  60  81    33  61  82    33  61  82    32  60  81    32  60  81    32  60  81    32  60  81    33  61  82    33  61  82    34  61  78    34  61  78    34  61  78    34  61  78    34  61  78    34  61  78    33  62  80    33  62  80    32  61  79    33  62  80    31  62  82    32  63  83    33  64  84    33  64  84    33  64  84    33  64  85    30  65  85    32  67  89    33  68  90    33  68  90    31  66  88    30  65  87    30  65  87    31  66  88    31  66  88    31  66  88    31  66  88    31  66  88    31  66  88    31  66  88    31  66  88    31  66  88    33  66  85    33  66  85  
  32  60  81    32  60  81    32  60  81    34  62  83    35  63  84    35  63  84    33  61  82    31  59  80    34  62  83    33  61  82    32  60  81    32  60  81    32  60  81    32  60  81    32  60  81    33  60  82    34  60  78    34  60  78    34  60  78    34  60  78    34  60  78    34  60  78    33  61  80    33  61  80    32  61  79    33  62  80    31  62  82    32  63  83    33  64  84    33  64  84    33  64  84    33  64  84    33  65  86    32  67  88    33  67  89    32  67  88    32  66  88    31  65  87    31  65  86    30  64  86    31  65  87    31  65  87    31  65  87    31  65  87    31  65  87    31  65  87    31  65  87    31  65  86    34  67  86    34  67  86  
  33  61  82    33  61  82    33  61  82    34  62  83    35  63  84    35  63  84    33  61  82    32  60  81    35  63  84    34  62  83    33  61  82    32  60  81    32  60  81    32  60  81    32  60  81    33  60  80    34  60  77    34  60  77    33  60  77    33  60  77    33  60  77    33  60  77    33  60  79    33  60  79    32  61  79    33  62  80    33  61  82    34  62  83    33  64  84    33  64  84    33  64  84    33  64  84    34  66  87    34  66  87    34  66  87    34  66  87    34  66  87    34  66  87    33  65  86    31  63  84    33  65  86    33  65  86    33  65  86    33  65  86    33  65  86    33  65  86    33  65  86    33  65  86    34  67  86    34  67  86  
  37  64  84    35  62  82    34  62  81    35  62  81    35  62  82    35  63  82    34  62  81    33  60  80    35  63  82    35  62  81    34  61  81    33  60  80    33  60  80    32  59  78    32  59  79    32  59  78    34  60  77    34  60  77    34  60  77    34  60  77    34  60  77    34  60  77    33  60  79    33  60  79    33  60  79    34  61  80    33  61  82    34  62  83    34  63  84    34  63  84    34  63  84    33  64  84    34  66  87    32  64  85    32  64  85    33  65  86    35  67  88    35  67  88    34  65  87    32  64  85    33  65  86    33  65  86    33  65  86    33  65  86    33  65  86    33  65  86    33  65  86    33  65  86    32  65  84    32  65  84  
  40  67  86    38  65  84    35  62  81    34  61  80    35  62  81    35  62  81    35  62  81    35  62  81    36  63  82    35  62  81    34  61  80    33  60  79    32  59  78    32  59  78    32  59  78    32  59  78    34  60  77    34  60  77    34  60  77    34  60  77    34  60  77    34  60  77    33  60  79    33  60  79    33  60  79    34  61  80    33  61  82    34  62  83    35  63  84    35  63  84    35  63  84    35  63  84    34  65  86    32  64  85    31  63  84    33  65  86    35  67  88    36  68  89    34  66  87    32  64  85    33  65  86    33  65  86    33  65  86    33  65  86    33  65  86    33  65  86    33  65  86    33  65  86    31  64  83    32  65  84  
