P3
50 50
255
  34  91 110    33  90 109    31  88 107    29  86 105    27  86 104    28  87 105    28  87 105    29  88 106    30  91 109    29  90 108    27  90 107    27  90 107    29  92 109    30  93 110    30  93 110    29  92 109    28  89 108    29  90 109    30  91 110    30  91 110    29  90 109    28  89 108    29  87 107    29  87 107    27  85 105    28  86 106    30  87 107    30  87 107    31  88 108    31  88 108    30  87 107    30  87 107    28  83 104    28  83 104    28  83 104    28  83 104    29  84 105    29  84 105    29  84 105    29  84 105    27  82 103    29  84 105    30  85 106    29  84 105    27  82 103    27  82 103    29  84 105    32  87 108    28  85 105    28  85 105  
  34  91 110    32  89 108    30  87 105    28  85 104    26  85 103    27  86 104    28  87 106    30  89 107    30  91 109    28  90 107    26  89 106    27  90 107    29  92 109    30  93 110    30  94 110    29  93 110    26  88 107    29  90 109    31  92 111    31  92 111    29  90 109    28  89 108    29  87 107    29  88 108    29  87 107    29  87 107    31  88 108    30  88 108    31  88 108    30  87 107    30  87 107    29  85 105    29  84 105    28  83 104    28  83 104    28  83 104    30  85 106    30  85 106    30  85 106    29  84 105    29  84 105    28  83 105    28  83 104    28  83 104    27  82 103    28  83 105    30  85 107    32  87 108    26  83 103    27  84 104  
  29  87 105    28  86 105    29  86 105    28  86 105    29  88 106    29  88 106    31  90 108    31  90 108    32  93 111    31  92 110    28  91 108    28  91 108    29  92 109    30  93 110    28  93 109    27  92 108    25  88 106    28  91 109    32  93 112    32  93 112    30  91 110    28  89 108    28  89 108    29  90 109    31  89 109    31  89 109    31  89 109    31  89 109    31  88 108    30  87 107    29  86 106    28  85 105    30  86 106    28  84 104    27  82 103    28  84 104    31  86 107    31  87 108    30  85 106    28  84 105    34  89 110    30  86 107    27  82 103    26  82 103    28  83 104    30  86 106    30  85 106    29  85 106    30  87 107    30  87 107  
  28  88 107    25  85 104    28  85 105    29  90 108    31  92 110    28  89 108    27  88 106    29  89 108    32  93 112    30  91 110    29  90 109    29  91 109    31  92 111    32  93 112    30  92 110    28  90 108    29  91 112    30  92 112    31  93 113    31  93 113    30  92 113    29  91 111    30  91 111    30  90 111    27  87 108    27  87 107    27  85 107    29  87 108    30  88 109    30  88 109    27  85 106    25  83 104    32  90 110    30  87 107    29  85 106    28  85 105    31  87 108    31  89 109    30  87 107    28  86 106    30  86 107    28  86 106    27  83 104    25  83 103    28  84 105    28  86 106    30  87 107    30  87 107    27  85 106    27  84 106  
  33  94 113    29  90 109    29  89 109    32  93 112    32  93 112    28  89 108    26  87 106    27  88 107    31  92 111    29  90 109    28  89 108    29  90 109    31  92 111    31  92 111    30  91 110    28  89 108    30  92 113    30  92 113    31  93 114    31  93 114    30  92 113    30  92 113    30  91 112    30  91 112    28  89 110    28  89 109    29  87 109    30  88 110    31  89 111    30  88 110    28  86 108    26  84 106    30  88 108    29  87 107    28  86 106    29  87 107    30  88 108    30  88 108    28  86 106    25  83 103    28  86 106    27  85 105    27  85 105    27  85 105    27  85 105    28  86 106    29  87 107    30  88 108    26  84 106    26  84 106  
  30  92 110    28  89 108    27  88 107    29  90 109    29  90 109    26  87 106    24  85 104    24  85 104    29  90 109    28  89 108    27  88 107    28  89 108    29  90 109    30  91 110    29  90 109    28  89 108    29  91 112    29  91 112    30  92 113    30  92 113    30  92 113    29  91 112    29  90 111    29  90 111    30  91 112    31  92 113    32  93 114    31  92 113    31  89 111    30  88 110    29  87 109    29  87 109    28  86 106    28  86 106    29  87 107    31  89 109    32  90 110    30  88 108    27  85 105    24  82 102    29  87 107    28  86 106    28  86 106    27  85 105    28  86 106    28  86 106    29  87 107    29  87 107    27  85 107    27  85 107  
  28  89 108    27  89 107    26  88 106    28  89 108    30  91 110    30  92 110    29  91 110    29  91 109    28  89 108    28  89 108    27  88 107    27  88 107    28  89 108    28  89 108    28  89 108    26  89 107    29  91 112    28  91 112    28  91 112    28  91 112    29  91 112    28  90 111    29  90 111    28  89 110    27  88 109    29  90 111    31  92 113    30  92 113    30  89 110    28  87 109    31  89 111    33  91 113    29  87 107    29  88 108    30  89 109    31  90 109    31  90 109    30  89 109    29  88 107    28  87 107    28  87 107    28  87 107    28  87 107    28  86 106    28  86 106    28  86 106    27  86 106    27  86 106    28  86 108    27  86 108  
  32  95 113    32  95 113    30  93 111    30  93 111    31  94 112    33  96 114    33  96 114    31  94 112    28  91 109    28  91 109    29  92 110    28  91 109    28  91 109    27  90 108    28  91 109    28  91 109    28  92 112    27  92 112    28  93 113    28  93 113    30  92 113    29  91 112    28  90 111    28  90 111    27  88 109    28  89 110    29  90 111    29  90 111    28  89 110    28  89 110    32  90 112    34  92 114    27  88 107    28  89 108    28  89 108    27  88 107    27  88 107    27  88 107    29  90 109    30  91 110    27  88 107    27  88 107    27  88 107    28  89 108    28  89 108    28  89 108    27  88 107    27  88 107    27  88 109    26  87 108  
  29  94 113    30  95 114    28  92 112    25  90 109    26  91 110    29  93 113    29  93 113    26  91 110    27  92 111    29  93 113    30  94 114    29  93 113    27  92 111    27  91 111    28  92 112    30  94 113    28  93 113    28  93 113    29  94 114    29  94 114    28  93 113    28  92 113    29  90 112    29  90 112    29  91 112    28  89 110    27  88 109    27  88 109    28  89 110    28  89 110    29  89 110    29  90 111    25  86 106    26  87 108    28  89 109    27  88 109    25  87 107    25  87 107    27  88 109    29  90 110    25  86 107    26  87 108    27  88 108    28  89 109    29  90 110    29  90 110    28  89 109    28  89 109    25  86 109    25  86 109  
  26  91 111    28  93 113    27  92 112    24  89 109    27  92 112    32  97 117    32  97 117    29  94 114    28  93 113    30  95 115    31  96 116    31  96 116    28  93 113    28  93 113    29  94 114    31  96 116    29  94 114    29  94 114    29  94 114    29  94 114    29  94 114    28  93 113    30  92 113    29  91 112    34  96 117    31  93 114    28  89 110    27  88 109    28  89 110    29  90 111    27  88 109    25  86 107    23  84 105    27  88 109    31  92 113    32  92 114    29  90 112    28  89 110    28  89 110    29  90 111    24  85 106    26  87 108    27  88 109    29  90 111    29  90 111    29  90 111    29  90 111    28  89 110    25  85 109    25  85 109  
  25  92 111    27  94 113    30  97 116    31  98 117    30  97 116    29  96 115    28  95 114    28  95 114    29  96 115    29  96 115    28  95 114    27  94 113    27  94 113    26  93 112    25  92 111    25  92 111    27  94 113    27  94 113    27  94 113    27  94 113    27  92 112    27  92 112    27  92 112    27  92 112    25  87 108    25  87 108    26  88 109    27  89 110    29  90 111    31  92 113    31  92 113    32  93 114    26  88 109    28  90 111    30  92 113    29  91 112    26  88 109    25  87 108    27  89 110    29  92 113    27  89 110    28  90 111    29  91 112    29  91 112    28  90 111    27  89 110    28  90 111    28  90 111    24  86 109    25  87 110  
  28  95 115    30  97 116    32  99 118    32  98 118    31  98 117    30  97 116    30  97 117    31  98 118    29  95 116    29  95 116    28  95 115    28  95 115    27  94 114    26  93 113    26  93 113    26  93 113    27  94 113    27  94 113    27  94 113    27  94 113    28  93 113    27  92 112    27  92 112    26  91 111    26  89 110    26  89 110    27  89 110    28  90 111    29  90 111    30  91 112    30  92 113    30  92 113    30  92 113    28  90 112    27  89 111    28  90 111    28  91 112    28  91 112    28  90 111    26  88 110    27  89 111    28  90 111    29  90 112    29  91 112    28  90 112    28  90 111    28  90 111    28  90 111    25  86 110    25  87 111  
  29  95 117    30  96 118    31  97 119    31  97 119    30  96 118    30  96 118    31  97 119    32  98 120    30  96 118    30  96 118    30  96 118    29  95 117    29  95 117    28  94 116    28  94 116    28  94 116    27  94 113    28  95 114    29  96 115    29  96 115    29  96 115    28  95 114    27  92 112    26  91 111    27  92 112    27  92 112    29  91 112    29  91 112    29  91 112    29  91 112    29  91 112    29  91 112    32  94 117    29  91 114    27  89 112    28  90 113    30  92 115    30  92 115    28  90 113    26  88 111    28  90 113    28  90 113    28  90 113    29  91 114    29  91 114    29  91 114    28  90 113    27  89 112    27  89 114    27  89 114  
  29  96 118    29  97 118    30  97 119    29  97 118    28  95 117    29  96 118    30  97 119    32  99 120    29  97 118    29  97 118    29  97 118    29  96 118    29  96 118    29  96 117    29  96 117    29  96 117    28  95 114    29  95 115    29  96 115    30  97 115    29  96 115    28  95 114    27  93 113    27  93 112    28  93 113    28  93 113    28  92 113    28  92 113    30  92 113    29  91 112    29  91 112    29  91 112    29  91 114    30  92 115    30  92 115    29  91 114    28  90 113    27  90 112    28  90 113    28  90 113    29  90 114    27  89 112    27  89 112    28  90 113    29  91 114    30  92 115    28  90 113    26  88 111    27  89 114    28  90 115  
  30  98 119    31  99 120    33 101 122    32  99 121    32  99 120    31  99 120    32 100 121    33 101 122    30  98 119    30  98 119    30  98 119    30  98 119    30  98 119    30  98 119    30  98 119    30  98 119    30  97 116    30  97 116    29  96 115    29  96 115    29  96 115    28  95 114    28  95 114    29  96 115    29  94 114    29  94 114    29  94 114    29  94 114    30  92 113    30  92 113    30  92 113    30  92 113    27  89 112    30  92 115    32  94 117    31  93 116    28  90 113    26  88 111    29  91 114    32  94 117    29  91 114    27  89 112    26  88 111    27  89 112    30  92 115    30  92 115    28  90 113    26  88 111    26  88 113    26  88 113  
  28  99 119    29 100 120    31 102 122    32 103 123    31 102 122    30 101 121    30 101 121    31 102 122    28  99 119    28  99 119    29 100 120    29 100 120    29 100 120    29 100 120    29 100 120    29 100 120    31  99 118    30  98 117    29  96 115    28  95 114    28  95 114    28  95 114    30  97 116    30  97 116    29  94 114    29  94 114    29  94 114    29  94 114    31  93 114    31  93 114    31  93 114    31  93 114    26  91 113    26  91 113    27  92 114    28  93 115    27  92 114    28  93 115    29  94 116    29  94 116    28  93 115    25  90 112    24  89 111    25  90 112    28  93 115    29  94 116    26  91 113    23  88 110    25  89 114    25  89 114  
  27  98 118    28  99 119    29 100 120    30 101 121    29 100 120    29 100 120    28  98 119    29  99 119    29  99 119    29  99 119    29  99 120    29  99 120    31  98 120    29  99 120    32  99 120    32 100 121    32  99 119    31  98 118    30  97 117    28  95 115    27  94 113    28  94 114    30  97 117    33 100 119    29  94 115    29  94 115    30  95 115    30  95 116    29  95 115    29  95 115    32  95 116    32  97 118    29  94 116    26  91 113    25  90 111    26  91 113    29  94 115    29  94 116    29  94 116    29  94 116    29  94 116    26  91 113    23  88 111    24  89 111    27  92 114    28  93 115    26  91 113    24  89 111    27  92 116    27  92 116  
  30 101 121    29 100 120    28  99 119    27  98 118    28  99 119    28  99 119    30  98 119    30  98 119    28  96 117    30  98 119    31  98 120    31  98 120    31  97 119    30  97 119    32  98 120    33  99 121    31  97 119    33  99 121    33  99 121    31  97 119    27  93 115    27  93 115    31  97 119    34 100 122    32  98 120    31  97 119    32  98 120    32  98 120    30  96 118    27  93 115    28  94 116    33  99 121    33  98 120    29  94 116    27  92 114    29  94 116    28  93 115    26  91 113    27  92 114    31  96 118    30  95 117    28  93 115    25  90 112    24  89 111    26  91 113    26  91 113    27  92 114    27  92 114    27  93 115    27  93 115  
  26  97 117    26  97 117    26  97 117    26  97 117    27  98 118    28  99 119    30  99 120    30  99 120    28  96 117    30  99 120    33  99 121    33  99 120    29  95 117    28  94 116    30  96 118    33  99 121    29  95 117    31  97 119    31  97 119    29  95 117    26  92 114    26  92 114    29  95 117    31  97 120    33  99 121    29  95 117    28  94 116    30  96 118    30  95 118    27  93 115    27  93 115    30  95 118    33  98 120    30  95 117    28  93 115    29  94 116    28  93 115    27  92 114    27  92 114    30  95 117    26  91 113    26  91 112    25  90 113    26  91 113    28  93 115    28  93 115    28  93 115    26  91 113    26  92 116    26  92 116  
  26  97 117    26  97 117    27  98 118    26  97 117    26  97 117    26  97 117    30  98 119    31  99 120    27  95 116    31  99 120    35 101 123    33  99 121    28  94 116    26  92 114    29  95 117    32  98 120    30  96 118    30  96 118    31  97 119    29  95 117    27  93 115    27  93 115    29  95 117    31  97 119    30  96 118    25  91 113    23  89 111    27  93 115    30  96 118    30  96 118    29  95 117    30  96 118    33  98 120    31  96 118    30  95 117    29  94 116    28  93 115    27  92 114    28  93 115    29  94 116    27  92 114    27  92 114    27  92 114    28  93 115    29  94 116    29  94 116    27  92 114    25  90 112    24  90 114    25  91 115  
  28  99 119    29 100 120    29 100 120    28  99 119    26  97 117    25  96 116    28  96 117    30  98 119    28  96 117    31  99 120    34  99 122    32  98 120    28  94 116    27  93 115    29  95 117    31  97 119    30  96 118    31  97 119    31  97 119    30  96 118    29  95 117    29  95 117    29  95 117    30  96 118    34 101 123    29  95 117    26  92 114    28  94 116    29  95 117    26  92 114    24  90 112    24  90 112    31  96 118    31  96 118    30  95 117    29  94 116    28  93 115    28  93 115    28  93 115    27  92 114    32  97 119    30  95 117    28  93 115    27  92 114    27  92 114    27  92 114    26  91 113    25  90 112    27  93 117    28  94 118  
  29 100 120    30 101 121    31 102 122    29 100 120    26  97 117    25  96 116    30  97 118    32 100 121    28  96 117    29  97 118    30  96 118    30  95 118    29  95 117    30  96 117    29  95 117    30  95 118    31  97 119    30  96 118    30  95 118    30  95 118    30  96 118    30  95 118    29  95 117    29  94 116    31  96 118    27  93 115    26  92 114    28  94 116    29  95 117    27  93 115    27  93 115    30  96 118    27  92 114    29  94 115    29  94 115    27  92 114    27  92 114    29  94 116    29  94 116    27  92 114    33  98 120    31  96 118    29  94 116    27  92 115    27  92 115    26  91 113    26  91 113    25  90 112    25  91 115    25  92 115  
  28  99 119    30 101 121    32 103 123    31 102 122    28  99 119    27  98 118    32 100 121    35 103 124    30  98 119    28  96 117    27  93 115    28  94 116    31  97 119    32  98 120    31  97 119    29  95 117    30  95 117    30  95 117    30  95 117    30  95 117    31  96 118    30  95 117    29  94 116    28  93 115    30  95 117    29  94 116    30  95 117    31  96 118    30  95 117    27  92 114    29  94 116    33  98 120    23  88 110    27  92 114    28  93 115    26  91 113    26  91 113    29  94 116    29  94 116    26  91 113    29  94 116    29  94 116    29  94 116    30  95 117    31  96 118    29  94 116    26  91 113    23  89 111    25  91 115    25  93 116  
  33 104 124    31 102 122    28  99 119    27  98 118    28  99 119    29 100 120    32 100 121    33 101 122    31  99 120    30  98 119    29  95 117    29  95 117    31  97 119    31  97 120    31  97 119    29  95 117    29  94 116    31  96 118    30  95 117    29  94 116    28  93 116    30  95 118    30  95 117    28  93 115    33  98 120    33  98 120    32  97 119    31  96 117    28  93 115    26  91 113    27  92 114    29  94 116    27  92 114    28  93 115    29  94 116    28  93 115    28  93 115    27  92 115    27  92 114    25  90 112    29  94 116    28  93 115    27  92 115    29  94 116    31  96 118    32  97 119    30  95 117    28  93 115    25  91 115    25  92 117  
  34 105 125    32 103 123    30 102 122    30 101 121    31 102 122    31 102 122    32 100 121    31  99 120    31  99 120    29  97 118    28  94 116    28  94 116    29  95 117    30  96 118    30  96 118    30  96 118    31  96 118    34  99 121    34  99 121    31  96 118    31  96 118    33  98 120    33  98 120    30  95 117    32  97 119    32  97 119    32  97 119    30  95 117    28  93 115    27  92 114    28  93 115    29  94 116    28  93 115    29  94 116    30  95 117    30  95 117    30  95 117    29  94 116    28  93 115    28  93 114    29  94 116    27  92 114    26  91 113    27  92 114    29  94 116    31  96 118    31  96 118    29  95 117    26  93 119    25  92 118  
  31 102 122    33 104 124    35 106 126    36 107 127    34 105 125    32 103 123    32 100 121    31  99 120    32 100 121    30  98 119    28  94 116    27  93 115    28  94 116    29  95 117    30  96 118    30  96 118    31  95 118    35  97 120    34  97 119    33  94 118    32  94 117    34  97 119    34  96 119    32  94 117    32  94 117    33  95 118    33  95 118    32  94 117    30  92 115    30  92 115    31  93 116    32  94 117    28  93 115    29  94 116    30  95 117    31  96 118    31  96 118    31  96 118    31  96 118    30  95 117    28  93 115    27  92 114    26  91 113    26  91 113    28  93 115    30  95 117    30  95 117    28  94 116    28  95 121    24  94 119  
  31 101 121    33 104 124    36 107 127    36 107 127    33 104 124    30 101 121    32 100 121    33 101 122    36 105 126    34 102 123    31  97 120    30  96 117    30  96 118    30  96 118    30  96 118    29  95 117    30  92 115    32  94 117    32  94 117    29  91 114    29  90 114    31  93 116    30  93 115    28  90 113    30  93 115    31  93 116    32  94 117    31  93 116    30  92 115    30  92 115    31  93 116    33  95 118    29  94 116    29  94 116    30  95 117    29  94 116    29  94 116    29  94 116    29  94 116    29  94 116    28  93 115    28  93 116    27  92 115    27  92 115    28  93 115    29  94 116    30  95 117    29  95 119    27  94 120    24  94 119  
  34 105 125    34 105 125    35 106 126    33 104 124    31 102 122    30 101 121    34 102 123    35 103 124    37 105 126    34 102 123    33  99 121    31  97 119    30  96 118    30  96 118    29  95 117    27  93 115    30  92 115    32  94 117    32  94 117    29  91 114    29  91 114    31  93 116    31  93 116    28  90 113    30  92 115    31  93 116    31  93 116    31  93 116    30  92 115    30  92 115    31  93 116    33  95 118    31  96 118    30  95 117    29  94 116    28  93 115    28  93 115    27  92 114    27  92 114    27  92 114    30  95 117    31  96 118    30  95 117    30  95 117    29  94 116    29  94 116    30  95 117    31  97 121    27  94 120    25  95 121  
  36 107 127    35 105 125    33 104 124    33 104 124    32 103 123    33 104 124    35 103 124    34 102 123    32 100 121    31  99 120    31  97 119    30  97 119    31  97 119    31  97 119    29  95 117    27  93 115    31  93 116    34  95 119    33  95 118    30  93 115    30  92 115    33  95 118    32  94 117    30  92 115    30  92 115    31  93 116    31  93 116    30  92 115    29  91 114    29  91 114    30  92 115    32  94 117    31  96 118    30  95 117    29  94 116    28  93 115    27  92 114    27  92 114    27  92 114    28  93 115    29  94 116    30  95 117    31  96 118    30  95 117    28  93 115    27  92 115    29  94 116    30  96 120    29  96 122    27  97 123  
  37 110 129    35 108 127    34 105 125    34 107 126    37 107 127    37 108 128    34 105 125    31 102 122    28  96 117    29  97 118    30  98 119    33 100 122    35 102 124    34 102 124    34  99 122    32  97 119    29  94 116    34  96 119    34  96 119    31  93 116    30  92 115    33  95 118    33  95 118    30  92 115    31  93 116    31  93 116    31  93 116    30  92 115    29  91 114    28  90 113    30  92 115    31  93 116    32  94 117    32  94 117    31  93 116    30  92 115    30  93 116    30  95 117    31  96 118    32  97 119    28  93 115    29  94 116    30  95 117    29  94 116    26  91 113    26  91 113    28  93 115    29  95 119    34 100 127    29  99 124  
  36 109 128    32 107 126    32 105 124    28 103 122    29 102 121    31 104 123    33 106 125    34 107 126    32 103 123    31 102 122    29 100 120    29 100 120    31  99 120    28  99 119    28  96 117    26  94 115    33  98 118    33  98 118    32  97 117    31  96 116    30  95 115    29  94 114    29  92 113    29  91 112    31  93 114    32  94 115    34  96 117    33  94 115    31  92 113    29  90 111    31  92 113    33  94 115    30  90 114    33  93 117    33  93 117    31  91 114    30  90 114    30  92 115    28  90 113    25  88 110    29  91 114    28  90 113    26  91 113    28  93 115    30  96 118    32  98 120    33  99 121    33  99 121    33 101 124    32 100 122  
  32 107 126    32 107 125    30 105 124    29 104 123    29 103 122    30 104 123    32 105 124    33 105 125    31 104 123    31 103 122    31 101 121    31 102 122    31 102 122    31 101 121    28 100 120    30  97 118    30  97 116    30  95 115    30  95 115    29  94 114    28  93 113    26  91 111    28  90 111    27  90 111    28  90 111    30  92 113    32  93 114    30  92 113    30  90 112    30  90 112    32  93 114    34  95 115    30  88 112    32  90 114    31  90 114    29  87 111    29  89 113    33  93 117    33  96 118    33  95 118    30  92 115    28  90 113    26  91 113    27  92 114    28  94 115    30  95 117    30  96 118    29  95 117    30  99 120    30  98 119  
  31 106 125    31 106 125    31 106 125    31 106 125    33 106 125    32 105 124    32 105 124    32 105 124    33 106 125    33 106 125    33 104 124    32 103 123    33 104 124    32 103 123    30 101 121    30  98 119    30  97 116    31  96 116    31  96 116    31  96 116    30  95 115    31  96 116    33  95 116    33  95 116    32  94 115    32  94 115    32  93 114    31  92 113    29  90 111    29  90 111    30  91 112    32  93 114    32  90 114    33  92 116    31  91 115    27  87 111    28  88 112    33  93 117    34  96 119    33  95 118    31  93 116    29  91 114    26  91 113    27  92 114    29  94 116    30  95 117    29  95 117    29  95 117    31  99 120    31  99 120  
  29 104 123    30 105 124    32 106 125    33 107 125    34 107 125    32 105 124    31 104 123    30 103 122    35 107 127    34 105 125    33 104 124    32 103 123    33 101 122    31 100 121    28  97 118    27  95 116    32  99 118    32  99 118    33  98 118    33  98 118    33  98 118    34  99 119    34  98 119    35  99 119    35  98 119    35  97 118    33  95 115    31  93 114    30  91 112    30  91 112    30  90 112    30  91 112    32  92 116    34  94 118    33  93 117    29  91 114    29  90 113    31  93 116    31  92 116    28  90 113    29  93 115    27  92 114    27  92 114    28  93 115    30  95 117    31  96 118    30  96 118    30  96 118    30  98 119    30  98 119  
  30 105 124    30 105 124    33 106 125    34 107 126    33 106 125    32 105 124    31 104 123    30 103 122    35 106 126    33 104 124    32 103 123    31 102 122    32 100 121    30  98 119    27  95 116    25  93 114    37 104 122    36 103 122    36 101 121    34  99 119    32  97 117    30  95 115    29  94 114    28  93 113    33  95 116    32  94 115    31  93 114    32  94 115    34  94 116    34  95 117    34  94 115    33  94 114    29  89 113    31  93 116    32  94 117    31  93 116    31  93 116    33  95 118    32  94 117    29  91 114    28  93 115    27  92 114    27  92 114    28  93 115    31  96 118    33  98 120    32  98 120    32  98 120    28  96 117    28  96 117  
  32 105 124    33 106 125    33 106 125    33 106 125    33 106 125    32 105 124    32 103 123    32 103 123    32 103 123    31 102 122    32 100 121    32 100 121    32 100 121    31  99 120    29  97 118    27  95 116    34 102 120    34 101 119    33 100 119    32  99 118    30  97 116    28  95 114    28  93 113    27  92 112    28  93 113    28  93 113    30  92 113    32  94 115    35  97 118    35  97 118    32  94 115    29  92 112    28  90 113    31  93 116    31  93 116    27  92 114    28  93 115    31  96 118    32  97 119    30  95 117    29  94 116    28  93 115    27  92 114    28  93 115    29  94 116    31  96 118    31  96 118    29  94 117    27  95 116    27  95 116  
  31 104 123    33 106 125    34 107 126    32 106 125    30 103 122    29 102 121    31 102 122    33 104 124    31 101 122    31 101 121    32 101 121    33 101 122    34 101 122    33 100 122    32  99 120    30  98 119    31  99 118    31  99 118    32  99 118    31  98 117    31  98 117    30  98 117    32  97 117    32  98 117    30  95 115    29  94 114    31  94 115    32  95 116    35  97 118    33  96 116    30  92 113    28  90 111    31  94 117    30  95 117    28  93 115    25  91 112    26  91 113    29  95 117    31  96 118    30  95 117    31  96 117    30  95 116    28  93 115    28  93 115    28  93 116    29  94 116    29  94 116    27  93 115    30  96 117    28  96 117  
  30 103 122    35 108 127    37 110 129    35 108 127    30 101 121    28  99 119    31 102 122    35 106 126    33 101 122    33 101 122    34 102 123    35 103 124    36 102 124    34 100 122    33  99 121    32  98 120    33 101 120    33 101 120    33 100 119    32  99 118    31  98 117    30  97 116    31  98 117    32  99 118    34  99 119    33  98 118    32  97 117    32  97 117    35  97 118    36  98 119    34  96 117    32  96 116    30  96 118    29  95 117    27  93 115    27  93 115    28  94 116    30  96 118    31  96 118    30  95 117    29  94 116    29  94 116    29  94 116    29  94 116    29  94 116    30  95 117    31  96 118    30  96 118    32  98 120    28  96 117  
  36 108 127    34 105 125    32 103 123    31 103 123    32 103 123    33 104 124    34 102 123    33 102 122    34 102 123    34 102 123    34 101 122    34 101 122    34 100 122    34 100 122    33  99 121    33  99 120    34 102 121    32 100 119    30  97 116    30  97 116    30  98 117    30  98 117    30  97 116    28  96 115    34 100 120    33 100 119    33  98 118    33  98 118    35  99 119    35  99 119    33  98 118    32  97 117    31  97 119    30  97 118    28  95 117    29  96 117    31  97 119    32  98 120    33  98 120    32  97 119    27  93 115    27  93 115    28  93 115    28  93 115    29  94 116    30  95 117    32  97 119    31  97 119    33  99 121    31  99 120  
  34 105 125    30 101 121    25  96 116    26  97 117    29 100 120    31 102 122    32 100 121    29  97 118    34 102 123    33 101 122    34 100 122    33  99 121    33  99 121    34 100 122    34 100 122    34 100 122    38 106 124    34 102 121    30  98 117    30  98 117    33 101 119    34 102 120    32  99 118    28  95 114    32  99 118    31  98 117    31  96 116    31  96 116    32  97 117    33  98 118    31  96 116    29  96 115    33 101 122    31  99 120    30  98 119    30  98 119    32  98 120    33  99 121    33  99 121    32  98 120    32  98 120    32  97 119    32  97 119    31  96 118    31  96 118    31  96 118    31  96 118    30  96 118    32  98 120    32 100 121  
  35 106 126    33 104 124    31 102 122    31 102 122    34 102 123    35 103 124    35 103 124    34 102 123    34 100 122    34 100 122    34 100 122    33  99 121    33  99 121    34 100 122    34 100 122    35 101 123    38 106 124    34 102 121    30  98 117    31  99 118    33 101 120    34 102 121    33 100 119    29  96 115    32  99 118    31  98 117    31  96 116    31  96 116    32  97 117    33  98 118    31  96 116    29  96 115    34 102 123    31 102 122    29 100 120    28  99 119    30  98 119    30  98 119    30  96 118    29  95 117    31  97 119    30  96 118    30  95 117    29  94 116    28  93 115    28  93 115    28  93 115    27  93 115    30  96 118    30  98 119  
  32 103 123    33 104 124    34 105 125    35 105 125    36 104 125    35 103 124    35 103 124    35 103 124    33  99 120    33  99 121    34 100 122    34 100 122    34 100 122    34 100 122    35 100 123    35 100 123    34 102 121    31 100 119    30  98 117    30  98 117    31  99 118    32 100 119    32  99 118    31  98 117    34 101 120    33 100 119    33  98 118    33  98 118    34  99 119    34  99 119    33  98 118    31  98 117    33 101 122    30 100 120    28  99 119    28  99 119    30  98 119    31  98 120    30  97 118    30  96 118    30  96 118    30  96 118    31  96 117    31  96 117    31  96 117    31  96 118    33  97 120    32  97 120    31  96 118    29  97 118  
  32 103 123    33 104 124    33 104 124    35 106 126    39 107 128    38 106 127    35 103 124    33 101 122    31  98 120    32  99 121    34 100 122    35 102 124    36 102 124    35 101 123    35 100 122    34 100 122    32 100 119    32 101 120    33 101 120    32 100 119    32 100 119    32 100 119    33 101 120    34 102 121    33 100 119    32  99 118    31  98 117    31  98 117    33  98 118    34  99 119    32  97 117    30  97 116    32 100 121    29 100 120    28  98 118    29  99 119    32 100 121    33 101 122    33 101 122    33 101 122    33  99 121    32  98 120    32  97 119    31  96 118    31  96 118    31  96 118    32  96 118    31  96 118    33  99 121    29  97 118  
  34 105 125    35 106 126    36 107 127    35 106 126    34 104 125    33 103 123    33 103 123    34 104 125    33 103 123    32 102 122    35 102 123    35 106 126    37 104 125    34 102 123    35 102 123    37 104 126    35 103 124    31  98 119    28  95 116    29  96 117    32  98 120    33 100 121    33 100 121    32  98 119    31  97 118    31  97 118    30  96 117    29  96 117    31  97 118    34 100 121    34  99 121    31  97 118    30  96 118    27  96 117    30  97 119    35 102 124    37 103 125    35 101 123    32  98 120    31  98 119    33  99 121    34 100 122    36 102 124    37 102 125    34  99 122    29  95 117    27  93 115    29  95 117    32 100 121    31  99 120  
  33 104 124    34 105 125    34 105 125    33 104 124    31 102 122    31 102 122    31 102 122    33 104 124    34 105 125    32 103 123    33 104 124    35 106 126    35 106 126    33 104 124    33 104 124    36 107 127    34 100 122    32  98 120    29  95 117    30  96 118    32  98 120    34 100 122    35 101 123    34 100 122    34  99 122    34 100 122    32  98 120    29  95 117    30  96 118    33  99 121    32  98 120    29  95 117    29  95 117    27  93 115    28  94 116    33  98 120    34 100 122    31  97 119    29  95 117    30  96 118    33  99 121    31  97 119    33  98 120    36 102 124    36 102 124    32  98 119    29  95 117    30  96 118    31  99 120    32 100 121  
  34 105 125    33 104 124    32 103 123    32 103 123    33 104 124    34 105 125    33 104 124    32 103 123    35 106 126    32 103 123    32 103 123    35 106 126    35 106 126    33 104 124    33 104 124    36 107 127    31  97 119    33  99 121    34 100 122    33  99 121    32  98 120    33  99 121    36 102 124    39 104 127    37 103 125    36 102 124    33  99 121    29  95 117    29  95 117    32  98 120    32  98 120    29  95 117    33  99 121    30  96 118    29  95 117    32  98 120    34 100 122    32  98 120    32  98 120    34 100 122    33  99 121    28  94 116    27  93 115    31  97 119    35 101 123    34 100 122    31  97 119    31  97 119    30  98 119    31  99 120  
  36 107 127    34 105 125    33 104 124    35 106 126    37 108 128    38 109 129    36 107 127    33 104 124    35 106 126    32 103 123    32 103 123    35 105 125    36 107 127    34 105 125    33 104 124    35 106 126    32  98 120    34 100 122    35 100 123    31  97 119    31  97 119    34 100 122    35 101 123    34 100 122    35 101 123    35 101 123    32  98 120    29  95 117    30  96 118    34 100 122    35 101 123    33  99 121    33  99 121    30  96 118    29  95 117    32  98 120    34 100 122    33  99 121    33  99 121    34 100 122    32  98 120    29  95 117    28  94 116    31  97 120    33  99 121    32  98 120    32  98 120    34 100 122    29  97 118    30  99 120  
  36 107 127    35 106 126    35 106 126    36 107 127    38 109 129    38 109 129    35 106 126    33 104 124    36 107 127    32 103 123    31 102 122    34 105 125    37 108 128    35 106 126    34 105 125    35 106 126    34 100 122    36 102 124    35 101 123    30  96 118    31  97 119    35 101 123    34 100 122    28  94 116    36 102 124    37 103 125    35 101 123    32  98 120    32  98 120    35 101 123    35 101 123    32  98 120    31  97 119    28  94 116    28  94 116    32  98 120    34 100 122    32  98 120    31  97 119    32  98 120    32  98 120    32  98 120    33  99 121    34 100 122    32  98 120    29  95 117    31  97 119    36 102 124    30  98 119    30  98 119  
  34 105 125    35 106 126    37 108 128    37 108 128    36 107 127    35 106 126    33 104 124    33 104 124    37 108 128    32 103 123    30 101 121    34 105 125    37 108 128    35 107 127    34 105 125    34 105 125    32  98 120    38 104 125    38 104 126    31  97 119    31  97 119    35 101 123    34 100 122    29  95 117    36 101 123    37 103 125    36 102 124    34 100 122    34 100 122    35 102 124    34 100 122    30  96 118    35 101 123    31  97 119    30  95 118    32  98 120    34 100 122    33  99 120    33  99 121    36 102 124    32  98 120    31  96 118    31  97 119    33 100 121    32  98 120    29  95 117    30  96 118    34 100 122    31  99 120    30  98 119  
  35 106 126    39 109 129    41 112 132    41 112 132    38 109 129    35 106 126    35 106 126    35 106 126    37 108 128    32 103 123    29 100 120    33 104 124    37 108 128    36 107 127    34 105 125    33 104 124    27  93 115    38 104 126    42 109 130    34 101 123    30  96 118    34 100 122    37 103 125    34 100 122    31  97 119    33  99 121    35 101 123    35 101 123    37 103 125    39 104 127    37 103 124    33  99 121    36 102 124    30  96 118    26  92 114    27  93 115    28  95 116    30  96 118    33  99 121    37 103 125    31  97 119    27  93 115    26  92 114    30  96 118    33  99 121    32  98 120    30  96 118    30  96 118    32 100 121    30  98 119  
