P3
50 50
255
 139 143 161   157 160 179   112 115 134    98 103 120   175 181 197   154 160 176   136 141 157   156 159 176   188 191 206   187 190 205   188 190 205   187 189 203   212 214 227   188 188 202   205 204 218   222 221 235   199 199 213   186 188 201   197 199 212   190 192 205   145 147 160   157 159 172   168 170 183   140 142 155    98 100 113   101 104 116   146 148 161    99 101 114    79  80  94   153 155 168   104 107 122   120 123 138   135 138 153   130 133 148   135 138 153   122 126 138   145 149 161   131 135 147   154 158 169   181 186 196   117 121 132   150 154 165   160 164 175   129 132 144   139 141 154   135 137 150   160 162 175   132 134 147   162 164 177   167 169 182  
 204 207 225   208 211 230   200 203 222   184 189 206   208 214 230   186 192 208   174 179 196   180 183 200   189 192 208   114 117 132   122 124 139   154 156 170   149 151 164   101 101 115    82  81  95   156 156 170   103 105 118    98 100 113   145 147 160   167 170 182    91  93 106   110 112 125   147 149 162   138 140 153   147 149 162   107 109 122   167 169 182   130 132 145   142 144 157   168 172 184   141 144 159   147 150 165   161 164 179   135 138 153   143 146 161   150 154 166   170 174 186   135 139 151   140 144 155   173 177 188   103 107 118   137 142 152   166 170 181   144 148 160   139 141 154   164 166 179   156 158 171   110 112 125   167 169 182   143 145 158  
 179 182 201   136 139 158   113 116 135   120 125 142   173 178 195   101 107 123   102 107 123   141 144 161   157 160 176    65  68  83   118 121 136   145 148 163   134 136 149   128 130 143   125 127 140   186 188 201   117 119 132   115 118 131   132 136 148   177 181 193    93  96 108   120 124 135   153 157 169   136 140 152   119 123 135    76  80  92   158 162 174   115 119 131   126 129 142   180 184 196   113 117 131   124 130 144   146 152 166   142 148 162   137 143 157   128 134 146   176 182 194   152 158 170   122 129 140   166 173 183   102 109 119   113 120 130   139 145 155   124 128 139   144 148 160   161 165 177   160 164 175   116 120 132   143 147 159   150 154 166  
 150 153 172   171 174 193   163 166 185   144 149 166   174 180 196   117 123 139   155 160 176   141 144 161   169 172 188    94  97 112   121 124 139   155 157 172   151 153 166   115 117 130   109 111 124   168 169 183   139 142 155   103 107 119   119 123 135   160 164 176   137 141 153   131 136 148   145 149 161   147 151 163   124 128 140   139 142 154   173 177 189   126 130 142   112 116 128   180 184 196   115 121 135   123 129 143   131 137 151   149 155 169   123 129 143    88  94 106   157 163 175   146 152 164   142 149 159   193 200 210   109 116 126    99 106 116   143 150 160   131 136 147   101 105 117   105 109 121   126 130 142    62  66  78   111 115 127   139 143 155  
 148 151 170   160 163 182   152 155 174   139 144 161   183 189 205    89  95 111   144 150 166   139 145 161   145 150 165   108 114 128   131 134 149   120 123 137   140 144 156   136 138 151   115 117 130   171 173 186   110 112 126   101 104 119   143 146 161   156 159 174   120 124 139   120 123 138   155 158 173   121 125 140    98 101 116   140 143 158   168 171 186   124 127 142   105 108 123   172 175 190   138 144 160   133 139 155   132 138 154   130 136 150    89  95 109    95 101 115   166 172 186    99 105 117    73  79  91   149 155 167   106 112 124    90  96 107   143 150 160   148 153 165   142 146 158   159 163 175   202 207 219   172 176 188   193 197 209   215 219 231  
 165 168 187   141 144 163   125 128 147    98 103 119   194 200 216   128 134 150   140 146 162   142 148 164   168 174 189   113 119 133   145 148 163   126 129 143   162 166 178   141 143 156   124 126 139   184 186 199   118 122 135   104 107 122   137 140 155   176 179 194    99 101 116   148 151 166   151 154 169   103 106 121    95  98 113    96  99 114   163 167 182   102 105 120    85  88 103   163 169 183   115 121 137    90  96 112   130 136 152   153 159 174   132 138 152   147 153 167   188 194 208   174 180 192   169 175 187   214 220 232   189 195 207   196 202 213   199 206 216   198 204 215   173 177 189   183 187 199   164 168 180   133 137 149   151 155 167   130 134 146  
 151 154 173   151 154 173   120 123 142   126 131 148   179 186 202   132 139 155   142 148 164   148 154 170   158 164 179   127 133 147   132 135 150   132 136 150   154 158 170   106 110 122    81  85  97   171 175 187   107 110 123    77  82  96   106 112 126   144 150 164    81  87 101    94 100 114   146 152 166   155 162 175   125 131 145   145 150 165   184 189 204   164 170 184   183 189 203   213 219 233   195 201 217   191 198 214   198 205 221   194 202 218   177 184 200   155 163 176   174 182 195   144 152 165   130 138 149   177 185 196   111 119 130   112 120 131   139 146 158    88  93 105   100 106 118   130 136 148   137 143 155    96 102 114   133 139 151   139 145 157  
 160 163 182   141 144 163   131 135 154   110 117 134   180 188 203    99 106 122    82  89 105    97 103 119   139 145 160    84  90 104   104 107 122   120 123 137   143 147 159   110 114 126   122 126 138   178 183 194   165 170 183   163 169 183   184 190 204   212 218 232   190 196 210   217 223 237   195 201 215   182 188 202   200 206 220   189 195 209   175 181 195   137 143 157   123 129 143   173 179 193   103 110 126   100 107 123   124 131 147   124 131 147   100 107 123    96 104 117   154 162 176   133 141 154   113 121 133   159 167 178   115 123 134   114 122 133   150 158 169   133 139 151   124 130 142   141 147 159   153 159 171   117 123 135   157 163 175   145 150 162  
 162 165 184   124 127 146    94  97 116    88  93 110   169 176 192   136 143 159   139 146 162   155 162 178   205 211 225   185 191 205   194 201 214   201 207 220   210 216 228   197 201 213   210 214 226   202 207 218   170 175 187   140 146 161   151 157 173   154 160 176    80  86 102   100 106 122   141 147 163    91  97 113   128 134 150   112 118 134   142 148 164   111 117 133    97 103 119   172 178 194   106 113 131   134 141 159   151 158 176   137 144 161   149 156 172   137 144 160   160 167 182   125 133 146   123 131 144   171 179 192   122 130 143    96 104 117   139 147 158   123 129 141    98 104 116   125 131 143   137 142 154    98 104 116   151 157 169   147 153 165  
 208 210 230   211 214 233   194 198 217   185 192 209   218 225 241   185 192 208   165 172 188   178 185 201   178 185 199   130 136 150   114 120 134   126 132 145   126 132 144   108 113 125   106 110 122   148 152 164   116 121 134    95 101 116   124 130 146   132 138 154    87  93 109   134 140 156   159 165 181   146 152 168   162 168 184   143 150 166   159 165 181   124 130 146   124 130 146   190 196 212    88  95 113   114 121 139   140 147 165   142 149 166   167 174 190   138 145 161   150 157 172   111 119 132   108 116 129   170 178 192   137 145 158   111 120 132   147 155 166   121 128 139   101 107 119   135 141 153   137 143 155    90  96 108   139 145 157   147 153 165  
 164 167 186   128 131 150   118 122 141   108 115 132   151 160 175   103 111 126    75  83  98   115 122 138   147 155 169    84  92 105   125 131 145   138 144 158   146 152 164   132 137 149   126 130 142   197 201 213   140 144 160   127 133 149   145 152 168   152 159 175    94 101 117   121 128 145   143 150 166   131 138 154   154 161 177   112 119 135   152 159 175   111 118 134   120 127 143   171 178 194   100 107 125   122 129 147   141 148 166   130 137 155   151 158 176   128 135 151   147 154 170   115 122 138   116 124 138   173 181 193   107 115 128    93 101 114   144 152 165   126 134 145   107 115 127   130 138 149   135 143 154   100 108 119   129 137 148   125 133 144  
 164 167 186   124 127 146   134 138 157   103 110 126   181 189 204   125 134 149   142 150 166   131 138 154   153 160 174    88  97 110   142 149 162   141 147 161   146 152 164   133 137 149   133 137 149   192 196 208   115 121 134   117 124 139   131 138 154   168 175 191   111 118 134   117 124 140   154 161 177   107 114 130   123 130 146   122 129 144   147 154 170   130 137 153   137 143 159   175 182 198   146 153 171   114 121 139   151 158 176   144 151 169    95 102 120    98 105 121   171 178 194   102 109 125    94 102 116   158 166 179   104 112 125   108 117 129   140 148 161   101 109 120   104 112 123   154 162 173   163 171 182   137 145 156   179 187 198   194 202 213  
 178 181 200    93  96 115   101 105 124   115 121 138   173 182 197    74  83  98   135 144 159   123 130 146   151 159 173   105 113 126    98 104 118   129 135 148   155 161 173   133 139 151   108 114 126   184 188 200   114 119 134   107 113 129   140 147 163   145 152 168    76  83  99   111 118 134   148 155 171   119 126 142   135 141 158   110 117 133   148 155 171   118 125 141   122 129 145   186 193 209    96 105 122    81  90 107   117 126 143   114 123 140    86  95 112   101 110 125   157 166 181   119 128 143   129 139 152   197 207 219   151 161 173   172 182 194   207 217 229   201 209 221   179 187 198   193 200 211   187 195 206   161 169 180   180 188 199   138 146 158  
 166 169 188   109 112 131    85  90 107   104 112 126   182 192 204    98 108 120   133 140 153   127 135 148   162 170 183   113 121 134   142 148 162   147 153 166   146 152 164   121 127 140    78  84  96   183 187 199   126 132 144   109 116 131   132 139 155   140 147 163    65  72  88    89  97 112   141 148 164   119 125 141    91  98 114    91  98 113   151 158 174   112 119 135   110 117 133   183 190 206   152 161 176   154 163 178   184 193 208   194 203 218   197 206 221   191 200 215   203 212 227   183 192 207   162 172 185   189 199 211   131 141 153   139 149 161   153 163 175   112 121 132    89  97 108   134 142 153   127 135 146    96 104 115   145 153 164   124 132 143  
 178 184 200   129 135 151   101 107 122   100 106 119   188 195 205    87  93 105   119 125 137   127 133 146   173 179 193   142 148 162   130 137 150   124 130 144   151 157 169   102 109 120   104 111 121   170 177 187   108 115 126    83  89 103   121 127 141   158 164 178   132 138 152   116 122 136   168 174 188   179 185 199   190 196 210   179 185 199   208 214 228   192 198 212   194 200 214   204 210 224   178 186 200   153 160 176   161 168 184   154 162 178   109 117 130   100 107 120   144 152 165   100 108 121   103 111 124   152 160 173    82  90 103   118 127 140   143 151 164   121 128 142   116 122 136   151 157 171   156 162 176   128 134 148   145 151 165   148 154 168  
 170 176 192   117 123 138   109 115 128   142 148 159   185 192 200    73  80  90    74  81  92    94 100 112   135 140 154    85  91 105    95 101 115   138 143 157   155 161 173   127 134 145   157 164 174   195 202 210   195 202 212   189 195 208   202 208 222   209 215 229   176 182 196   177 183 197   193 199 213   157 163 177   134 140 154   125 131 145   150 155 170   121 127 141   132 138 152   144 150 164   105 113 126   100 108 121   139 147 160   156 164 177   136 144 157   120 128 141   155 163 176   136 144 157   155 163 176   179 187 200   102 110 123   122 130 143   148 156 169   125 131 145   106 112 126   147 153 167   154 160 174   125 131 145   148 154 168   140 146 160  
 150 156 172   111 117 133    85  91 104    88  94 105   177 184 192   145 152 162   141 148 158   172 178 191   199 205 219   195 201 215   182 188 202   200 206 220   205 211 224   150 157 167   155 162 172   183 190 199   131 137 148   100 106 119   133 139 153   130 136 150    92  98 112    99 105 119   124 130 144   119 125 139   132 138 152   122 128 142   157 163 177   141 147 161   128 134 148   174 180 194   121 129 142   139 147 160   148 156 169   140 147 161   134 142 155   117 125 138   172 181 193   149 157 170   138 146 159   169 177 190   116 124 137   127 135 148   132 140 153   124 130 144   104 110 124   150 156 170   160 166 180   128 134 148   152 158 172   122 128 142  
 211 217 233   197 203 219   203 209 222   194 201 212   218 225 233   168 175 185   150 157 167   155 161 174   158 164 178    88  94 108    85  91 105   136 142 156   123 129 142   100 107 117    76  83  93   142 149 157   116 123 134   105 111 124   146 152 166   152 158 172   146 152 166   130 136 150   143 149 163   130 136 150   141 146 161   127 133 147   147 153 167   116 122 136   101 107 121   182 188 202   106 114 127   146 153 167   147 155 168   150 158 171   156 164 177   106 114 127   150 158 171    95 103 116    95 103 116   165 173 186   101 110 123   113 121 134   148 156 169   123 129 143    96 102 116   149 156 169   147 153 167   105 111 125   143 149 163   119 126 139  
 175 181 197   139 145 160   115 121 134   106 113 124   163 170 180    77  84  94    96 102 114   133 139 153   136 143 158    88  94 110    95 101 117   146 152 168   150 156 170   159 165 178   116 123 133   167 174 184   113 120 131   122 128 141   145 151 165   132 138 152   127 133 147   131 137 151   166 172 186   150 156 170   105 111 125   110 116 130   159 165 179   131 137 151   137 143 157   169 175 189    72  80  93   112 120 133   150 158 171   145 153 166   128 136 149   100 108 121   156 164 177    95 103 116   109 117 130   179 187 200   105 113 126   104 113 126   143 151 164    91  97 111    73  78  93   139 145 159   131 137 151    97 103 117   167 173 187   179 185 199  
 168 174 190   125 131 146   110 116 129   119 126 137   185 192 202   117 124 134   152 158 170   137 143 157   154 160 176   101 107 123    99 105 120   128 134 149   148 154 168   126 132 144    98 105 116   179 186 196   118 124 135   129 135 148   164 170 184   152 158 172   105 110 125   113 119 133   141 147 161   135 141 155   128 134 148   136 142 156   149 155 169    91  97 111   108 115 128   179 185 199   124 132 145    88  96 109   133 141 154   123 131 144    95 103 116    99 107 120   136 144 157    79  87 100   120 128 141   175 183 196   123 131 144   129 137 150   166 174 187   179 186 200   178 184 198   212 218 232   205 211 225   175 181 195   190 196 210   146 152 166  
 166 172 188   104 111 126    97 103 117   118 124 136   180 187 198    64  70  82   133 139 152   151 157 171   139 145 161    75  80  96   123 129 145   139 145 161   133 139 153   123 129 142   115 121 133   160 167 177   108 113 126    99 105 119   127 133 147   139 145 159   105 111 125   114 120 134   136 142 156   108 114 128   139 146 159   148 154 168   163 169 183   110 116 130   101 107 121   176 182 196   101 109 122    84  92 105   143 151 164   145 154 167   128 136 149   153 161 174   204 212 225   180 188 201   183 191 204   214 222 235   176 184 197   181 189 202   183 191 204   128 134 148   128 134 148   150 155 170   116 122 136    85  91 105   120 126 140   125 131 145  
 168 174 190   125 130 146   125 131 144   111 117 128   173 180 190    94 100 112   158 164 177   144 150 164   134 140 156    90  96 112   140 146 162   130 136 152   148 154 168   120 126 138   111 117 129   187 194 204    96 103 113    76  82  95   124 130 144   152 158 172   110 116 130    90  96 110   139 145 159   103 109 123   109 115 129   138 144 158   183 189 203   151 157 171   158 164 178   202 208 222   187 195 208   187 196 208   197 205 218   187 195 208   169 177 190   155 163 176   166 174 187   100 108 121   105 113 126   147 155 168    87  95 108   106 114 127   138 146 159   118 125 139   136 142 156   148 154 168   131 137 151   123 129 143   149 155 169   146 152 166  
 171 177 193   114 120 136   106 112 126   116 122 135   181 188 198    84  90 102   145 151 163   153 159 174   146 152 170   110 115 133   125 130 149   125 130 148   141 147 162    84  90 102    50  56  68   156 163 173   107 113 126    96 102 116   142 148 162   177 183 197   155 161 175   181 187 201   209 215 229   195 201 215   190 196 210   188 194 208   181 187 201   162 168 182   145 151 165   173 179 193   104 112 125    89  97 110   124 132 145    93 101 114   104 112 125   118 126 139   149 157 170   120 128 141   123 131 144   165 173 186   106 114 127   117 126 138   140 148 161   124 131 145   127 133 147   147 153 167   122 128 142   113 119 133   143 149 163   143 149 163  
 178 184 200   121 127 143   112 118 132   110 116 129   173 180 190    85  91 103    86  92 107    99 105 121   142 148 166    99 104 124   119 124 143   138 143 161   172 178 194   163 169 183   152 158 170   234 241 251   198 204 217   187 193 207   200 206 220   192 198 212   130 136 150   124 130 144   147 153 167   115 121 135   124 130 144   106 111 126   123 129 143   110 116 130   114 120 134   155 161 175   119 127 140   137 145 159   154 162 175   118 125 138   128 136 149   129 137 150   153 161 174   115 123 136   115 123 136   158 166 179    98 106 119   110 118 131   136 144 157   113 120 134   139 145 159   161 167 181   125 131 145   111 117 131   149 156 169   122 128 142  
 160 166 182   113 119 134    94 100 114   111 117 130   187 193 205   134 140 154   158 164 178   182 188 204   199 204 222   180 185 204   189 194 213   199 204 223   184 190 206   159 165 180   128 135 148   163 169 181   104 110 122    86  92 106   121 127 141   138 144 158   106 112 126   113 119 133   145 151 165   117 123 137   133 139 153   128 134 148   151 157 171    98 104 118    93  99 113   171 177 191   109 117 130   109 117 130   132 140 153   138 146 159   125 133 146   106 114 127   150 158 171   102 110 123   116 124 137   170 178 191   106 114 127   112 120 133   142 150 163   111 118 132   152 158 172   174 180 194   123 129 143   101 107 121   151 157 171   112 118 132  
 213 219 235   196 202 217   190 196 210   184 190 202   223 229 241   177 183 197   159 165 180   160 166 182   157 162 180    77  82 101    90  95 114   116 121 139   106 112 128   104 110 124    98 104 118   152 158 170    90  96 108   108 114 128   134 140 154   136 142 156   114 120 134   133 139 153   167 173 187   118 124 138   131 137 151   139 145 159   130 136 150    89  95 109   103 109 123   170 176 190    96 104 117   114 122 135   129 137 150   126 134 147   119 127 140   106 114 127   137 145 158    88  96 109   112 120 133   170 178 191    98 106 119   103 111 124   138 146 159    85  92 106   115 121 135   152 158 172   115 121 135    95 101 115   161 168 181   158 164 178  
 163 169 185   130 136 151   141 147 161   115 121 133   160 166 178    70  76  90    72  78  92   128 134 151   128 133 153   114 119 139   129 134 154   148 153 173   150 156 173   144 150 165   115 122 135   182 188 200   101 107 119   120 126 140   146 152 166   137 143 157   115 121 135   135 141 155   155 161 175   118 124 138   108 113 128   116 122 136   153 158 173   117 123 137   110 116 130   172 177 192   101 109 122   126 134 147   152 160 173   124 132 145    94 103 116   106 114 127   140 148 161    78  86  99    90  98 111   146 154 167    84  92 105   104 112 125   141 149 162   139 145 159   144 150 164   188 194 208   200 206 220   189 195 209   202 208 222   168 174 188  
 167 173 189   134 140 156   168 174 188   152 158 171   183 189 201   107 113 127   144 150 165   155 160 178   133 138 158   115 120 140   129 134 154   128 133 153   139 144 162   128 135 149    99 105 119   181 187 199    99 105 118    99 105 119   142 148 162   145 151 165   116 122 136   133 139 153   146 152 166   102 108 122   117 123 137   123 129 143   153 159 173   113 119 133   114 119 134   165 171 185   104 112 125    82  90 103   120 128 141   118 126 139    92 100 113   118 126 139   170 178 191   140 148 161   160 168 181   228 236 248   179 186 200   194 202 215   202 210 223   170 177 191   139 145 159   165 171 185   129 135 149    88  94 108   118 124 138   139 145 159  
 188 194 210   141 147 162   144 150 164   108 114 127   185 191 203    80  86 100   112 117 134   147 152 171   143 148 168   116 121 141   135 140 160   133 138 158   127 132 151   100 106 123   104 110 125   172 178 190   101 106 119   108 114 128   149 155 169   152 158 172   100 106 120   117 123 137   157 163 177   109 115 129    93  99 113   102 108 122   133 139 153    93  99 113   105 111 125   188 194 208   149 158 171   151 159 172   194 202 215   200 208 221   194 202 215   184 192 206   185 193 206   147 155 168   141 149 162   169 177 190    91  99 112   107 115 128   121 129 142    96 103 117    83  89 103   156 162 176   138 144 158   118 124 138   159 165 179   161 167 181  
 166 172 188   139 145 161   120 126 141   116 122 136   178 185 197    67  73  87   122 128 143   135 141 158   133 138 158    96 101 120   121 126 145   147 152 170   129 135 152    91  97 111   134 140 154   171 177 189    76  82  95    66  72  86   125 131 145   152 158 172    91  97 111   100 106 120   153 159 173   153 159 173   139 145 159   175 181 195   207 213 227   196 202 216   184 190 204   209 215 229   164 172 185   138 146 159   155 163 176   129 137 150    87  95 108    96 104 117   129 137 151    81  89 102   111 119 132   160 169 182    88  96 109   115 123 136   141 149 162   138 144 158   118 124 138   169 175 189   128 134 148   114 120 134   150 156 170   106 112 126  
 197 204 223   111 118 136   113 120 138   123 129 144   176 182 196    93  99 113   133 140 153   134 140 155   145 151 167    78  84 100    77  83  99   129 135 150   114 120 135    71  77  91    86  93 106   157 163 177   123 129 143   133 139 153   181 187 201   195 201 215   188 194 208   188 194 208   207 213 227   170 176 190   155 161 175   151 157 171   132 138 152    70  76  90    84  90 104   150 156 170    98 103 120    93  99 115   138 144 160   116 122 137   130 136 152   107 113 127   153 159 173   122 128 142   111 117 130   178 184 196    98 104 116   106 112 123   149 155 167   130 136 150   137 143 157   166 172 186   135 141 155   118 124 138   164 170 184   109 116 129  
 181 188 206    99 107 126    96 103 122   113 119 135   168 174 188    44  50  64    85  91 105   117 123 137   135 141 155   106 112 126   105 111 125   176 182 196   194 200 214   169 175 189   189 195 209   221 227 241   175 181 195   164 170 184   186 192 206   148 154 168    91  97 111   106 112 126   132 138 152    85  91 105    89  95 109   128 134 148   124 130 144    76  82  96   111 117 131   161 167 181   107 113 129   134 140 156   155 161 177   115 121 137   111 117 133   102 108 122   141 147 161   125 131 145   125 131 143   176 182 194   103 109 120   121 127 139   138 144 156   104 110 124   103 109 123   150 156 170   132 138 152    97 103 117   138 144 158   120 126 140  
 183 190 209   106 113 132    88  95 113   108 115 131   202 208 222   163 169 183   172 178 192   191 197 211   196 202 216   191 197 211   179 185 199   183 189 203   152 158 172   120 126 140   112 118 132   143 149 163    88  93 108   112 118 132   146 152 166   123 129 143    93  99 113   120 126 140   150 156 170   109 115 129    90  96 110   123 129 143   155 161 175   118 124 138   120 126 140   164 170 184    99 105 121   126 132 148   136 142 158   115 121 137   107 113 129   124 131 144   135 141 155    99 105 119   117 123 135   166 172 184   103 109 121   131 137 149   146 152 164    82  88 102    91  97 111   148 154 168   105 111 125    86  92 106   144 150 164   119 125 139  
 212 219 238   204 211 230   198 205 224   191 198 214   211 217 231   151 156 171   121 127 141   138 144 158   123 129 143    74  80  94    93  98 113   114 120 134   117 123 137   115 121 135   105 112 125   164 170 184   112 118 132   139 145 159   147 153 167   117 123 137   114 119 134   116 121 136   139 145 159   102 108 122   122 128 142   137 143 157   139 145 159   132 138 152   129 135 149   156 162 176   107 113 129   123 129 145   139 145 161   117 123 139   113 119 136   131 137 151   150 156 170    97 103 117   110 116 129   144 151 162    74  80  92    99 105 117   134 140 152   108 114 127   111 117 131   195 201 215   199 205 219   186 192 206   217 223 237   188 194 208  
 186 194 212    97 104 123    77  84 102   112 119 135   151 159 173    94 102 115   102 110 123   131 139 152   130 138 151   102 110 123   141 149 162   147 155 168   132 140 153   122 130 143   122 130 143   156 164 177   100 108 121   137 143 157   151 157 171   127 133 147   124 130 144   125 131 145   144 150 164    91  97 111   116 122 136   147 153 167   139 146 159   103 109 123   104 111 124   166 172 186   100 106 122   123 129 145   146 152 168   101 107 123    88  94 110    95 101 115   138 144 158   102 108 122   145 151 163   200 206 218   154 160 171   179 185 197   208 214 226   190 196 209   159 165 179   181 187 201   130 136 150    97 103 117   126 132 146   100 106 120  
 172 179 198    90  98 116   107 114 132   129 136 152   166 173 187    89  97 110   104 112 125   140 148 161   121 129 142    96 104 117   105 113 126   138 145 158   130 138 151   110 118 131    94 102 115   160 168 181    95 103 116   115 121 135   149 156 169   125 131 145    86  92 106   121 127 141   153 159 173    92  98 112    62  68  82   109 115 129   143 149 163    80  86 100    83  89 103   156 162 176    97 103 119   114 120 136   158 164 180   162 168 184   155 161 177   194 200 214   207 213 227   173 179 193   182 188 200   185 191 203   119 125 137   131 137 149   138 144 156    84  90 104    80  86 100   143 149 163   107 113 127   107 113 127   162 168 182   125 131 145  
 184 192 211   122 130 149   102 111 129   126 134 151   159 166 182    93 100 116   120 127 143   148 155 171   127 134 150    94 101 116    96 103 119   130 137 153   122 129 145   112 118 134    94 101 117   179 186 203    83  90 105    88  94 108   148 154 168   138 144 158    77  83  97   103 109 123   133 139 153    84  90 104    71  77  91   119 125 139   158 164 178   141 147 161   178 185 198   203 209 223   196 202 218   174 180 196   189 195 211   159 165 181   126 132 148   148 154 168   122 128 142    83  89 103   104 109 122   133 139 151    99 105 117   122 128 140   144 150 162   113 119 133    96 102 116   158 164 178   133 139 153   111 117 131   157 163 177   143 149 163  
 180 188 207   101 109 128   105 113 131   118 126 142   161 168 184    98 105 121   148 155 171   132 139 155   123 130 146    91  98 114    90  97 113   139 146 162   125 132 148    94 100 116    84  91 107   158 165 181    66  73  89    68  74  88   129 135 149   136 142 156   106 111 126   135 141 155   191 197 211   197 202 217   199 205 219   205 211 225   197 203 217   142 148 162   142 148 162   157 163 177    89  96 111    92  98 114   137 143 159    79  85 101   103 109 125   130 136 150   154 160 174   109 115 129   128 134 147   171 177 189   125 131 143   117 123 135   146 152 164   102 108 121    98 103 118   170 176 190   132 138 152   114 120 134   160 166 180   113 120 133  
 170 178 197    89  98 116    94 102 121   104 111 129   178 185 202    90  97 113   131 138 154   128 135 151   118 125 141    77  84 100    63  70  86   116 123 139   107 114 130    83  90 106   109 116 132   189 196 212   160 167 182   184 190 204   210 216 230   205 211 225   181 187 201   178 184 198   162 168 182   108 114 128    87  93 107   122 127 142   122 128 142    92  98 112   113 119 133   170 176 190   118 124 140   107 113 128   140 146 162   109 115 130   131 137 153   126 132 146   147 153 167    84  90 104   113 119 131   163 169 181   111 117 129   119 125 137   149 155 167   105 110 124    93  99 113   175 181 195   117 123 137   106 112 126   154 160 174   119 125 139  
 180 188 207    93 101 120    74  82 100    97 105 121   153 160 176    48  55  71    77  84 100   121 128 144   141 148 164   109 116 132   131 138 154   185 192 208   196 203 219   187 194 210   186 193 209   188 195 211   123 130 145   112 118 132   150 156 170    92  98 112    99 105 119    99 105 119   123 129 143   118 124 138   103 109 123   122 128 142   141 147 161   128 134 148   128 134 148   169 174 189    85  90 107   110 116 132   138 144 160   105 111 127   135 141 157   116 122 136   142 148 162    90  96 110   118 125 137   161 167 179   117 123 135   124 130 142   143 149 161    99 105 118    89  95 109   162 168 182    97 103 117    89  95 109   144 150 164   124 130 144  
 153 164 182    85  97 115    91 100 119   122 130 148   199 207 223   154 163 178   168 177 192   199 208 223   204 214 229   189 198 213   150 159 174   157 166 181   111 120 135    96 105 120    91  99 114   141 149 164    71  78  93    76  82  96   147 153 167   105 111 125   124 130 144   116 122 136   152 158 172   101 107 121    90  96 110   125 131 145   137 143 157   109 115 129   104 110 124   158 164 178    74  80  96   116 122 138   153 159 175    98 104 120   108 114 130   114 120 134   143 149 163    88  94 108   121 127 140   144 151 163    96 102 114   107 113 125   128 134 146    74  79  93    78  84  98   184 190 204   158 164 178   172 178 192   213 219 233   175 181 195  
 217 228 246   191 202 220   187 198 216   187 196 213   207 216 232   118 127 142   118 127 142   138 147 162   104 113 128    66  75  90    77  86 101   129 138 153   101 110 125    99 108 123    99 109 124   176 185 200    86  95 109    98 105 118   150 156 170   130 136 150   108 114 128   101 107 121   137 143 157   118 124 138   117 124 137   137 143 157   127 133 147   100 106 120   110 116 130   153 159 173    96 102 118    94 100 117   144 150 166    96 102 118    84  90 106   114 120 134   110 117 130    63  69  83   131 137 150   162 168 180   119 125 137   151 157 169   202 208 220   195 201 214   180 186 200   219 225 239   144 150 164   131 137 151   146 152 166    90  96 110  
 169 180 198    89 100 118    82  93 111    93 103 120   137 146 163    76  85 102   120 129 146   140 149 166   115 124 141   116 125 142    81  90 107   153 162 178   123 132 149   102 111 128   107 117 134   170 179 196    99 106 121   115 121 135   154 160 174   133 139 153   101 107 121   114 119 134   153 159 173   139 145 159   135 141 155   151 157 171   123 129 143    97 103 117   137 143 157   170 176 190    53  60  76    63  69  86   130 136 152   107 113 129    95 101 117   166 172 186   186 192 206   177 183 197   195 201 214   200 206 218   158 164 176   164 170 182   161 167 179   111 117 131    88  94 108   139 145 159    87  93 107   101 107 121   142 148 162    98 104 118  
 153 163 182   118 129 147   147 158 176   127 137 154   157 166 183    89  98 115   141 151 168   149 158 175   116 125 142   119 128 145   105 114 131   148 157 174   111 120 137    93 102 119    88  97 114   159 169 185    88  96 111    74  81  95   148 154 168   122 127 142   114 120 134   122 128 142   141 147 161   106 112 126   101 107 121   132 138 152   107 113 127    80  86 100   130 136 150   160 166 180   139 145 161   165 171 187   208 214 230   201 207 223   175 181 197   180 186 200   152 158 172   114 120 134   127 133 146   123 129 141    66  72  84    99 105 117   144 150 162   116 122 135   100 105 120   166 173 186   111 117 131   112 118 132   157 163 177   116 122 136  
 164 175 193    85  96 114   112 123 141   121 131 148   151 160 177    83  92 109   129 138 155   142 151 168   113 122 139    99 108 125   109 118 136   146 155 172   114 123 140   106 116 132    97 107 123   166 175 192    92  99 117   105 111 126   152 158 172    96 102 116    81  86 101   114 120 134   150 156 170   127 133 147   127 133 147   182 188 202   200 206 220   184 190 204   196 202 216   195 200 215   154 160 176   146 152 168   125 131 147    79  85 101    70  76  92   100 106 120   116 122 136    91  97 111   125 131 143   150 156 168    92  98 110   111 117 129   150 156 168   120 126 140   101 107 121   176 182 196   116 122 136   103 109 123   149 155 169   102 108 122  
 162 173 190    85  96 114   101 112 130   117 127 144   147 156 173    94 103 120   123 132 149   137 146 163   121 130 147   106 115 132    98 107 124   146 155 172   106 115 132    81  90 107   105 114 131   149 158 175    62  69  85    88  94 109   162 168 182   173 179 193   152 158 172   189 195 209   208 214 228   181 187 201   167 173 187   171 177 191   134 140 154    79  85  99    93  99 113   141 147 161    89  96 112   103 111 127   151 158 174   139 146 162   138 145 162   140 148 161   145 151 165    98 104 118   117 123 136   148 154 166    89  95 107   108 114 126   144 150 162   116 122 136    89  95 109   161 167 181   104 110 124    98 104 118   154 160 174   104 110 124  
 170 181 201    81  92 112   116 127 147   127 137 155   149 156 172    72  79  95   112 120 136   135 142 158   101 108 124    79  86 102    63  71  86   137 144 160   102 109 125   103 110 126   139 146 162   213 220 237   192 199 215   185 192 208   204 211 227   165 172 188   117 124 141   104 111 127   120 127 143    74  80  96    65  72  88   132 139 155   121 128 144   119 126 142   126 133 149   160 167 183    76  85 100    95 104 119   146 155 170   131 140 155   116 123 139   123 131 143   136 144 157   101 109 122   138 145 157   133 139 151   101 107 119   111 116 128   141 145 157   125 130 143   115 121 135   170 176 190    76  81  96    80  86 100   132 138 152    80  86 100  
 185 196 216   106 117 138   102 113 134   119 129 147   133 140 156    50  57  73    65  72  88   114 121 137   144 151 167   134 141 157   162 169 185   206 213 229   201 208 224   175 182 198   150 157 173   177 184 200    79  86 102    77  84 100   135 142 158    82  89 105    43  50  67    98 105 121   137 144 160   104 111 127    98 105 121   143 150 166   122 129 145   108 115 131   119 126 142   142 151 166    64  76  90    93 105 119   134 146 160   104 114 129    91 100 115   124 134 146   139 149 161   109 117 130   140 146 159   138 144 156   103 109 121   103 109 121   135 139 151    96 101 115    84  90 104   148 154 168   118 124 138   148 154 168   204 210 224   186 192 206  
 181 192 212   100 111 131    92 101 123   143 151 170   194 201 217   175 182 198   196 203 219   210 217 233   178 186 202   151 158 174   133 140 156   148 155 171    95 102 118    87  94 110    79  86 102   127 135 150    77  84 100    91  98 114   136 143 159   121 128 144   121 128 144   120 127 143   130 137 153    94 101 117    89  96 112   136 143 159   117 123 139    93 100 116   112 119 135   135 142 158    80  89 104   108 120 134   144 156 170   112 122 137    99 108 123   136 146 158   121 130 143    76  84  97   101 108 120   109 115 127    91  97 109   114 120 132   168 174 186   163 169 182   169 175 189   214 220 234   173 179 193   160 166 180   151 157 171    95 101 115  
 221 232 251   189 200 221   184 195 216   182 192 210   176 183 199    97 105 121   117 124 140   138 145 161    78  85 101    92  99 115   119 126 142   132 139 155   105 112 128   102 108 124   104 110 127   171 178 194    79  86 102    99 106 122   162 169 185    78  85 101   109 116 131   140 147 163   138 145 161    93 100 116    88  95 111   138 144 161   118 125 141    91  98 114   126 133 149   167 175 190    81  91 106   103 115 129   124 136 150    78  88 102    60  69  84   128 138 150   134 143 156   125 133 146   177 184 196   201 207 219   174 180 192   168 174 186   182 188 200   122 128 142   109 115 129   143 149 163    81  86 101    97 103 117   135 141 155    78  84  98  
