P3
50 50
255
  86  94  54    53  61  21    42  49  17    21  26   5    11  15   1    19  22  13    26  29  22    52  55  48    39  42  33    32  36  23    17  22   4    14  19   1    17  22   1    15  19   2    17  22   7    24  28  14    30  34  18    34  38  20    33  38  18    28  33  13    64  69  49    56  61  41    29  34  14    22  26   8    15  19   2    21  25   8    34  37  22    49  51  37    41  43  29    30  33  19    34  37  20    26  29  12    25  28  12    51  53  39    37  39  25    33  35  21    14  16   2    18  20   6    28  30  16    32  35  15    41  48  15    90  98  62    87  94  62    62  68  41    24  29   6    28  33  13    12  16   1    20  24   8    18  22   5    60  65  43  
  90  98  57    87  95  56    53  60  30     9  14   3     8  11   1    21  24  17    24  27  22    43  45  39    40  43  33    36  40  26    22  27   9    20  25   5    23  28   7    24  28  10    25  29  14    21  25   8    28  32  14    34  39  18    31  36  14    39  44  21    58  63  40    56  61  38    39  44  21    28  33  11    17  22   2    23  28   8    31  35  19    44  46  33    37  38  25    28  30  16    30  33  16    33  36  19    42  45  26    55  58  39    30  33  14    23  26   8     8  11   1    13  16   1    24  26  12    33  36  16    31  38   5    63  71  35    81  88  55    79  85  56    22  27   5    13  18   1    18  23   4    25  29  11    28  33  12    41  46  23  
  50  58  19    80  88  49    59  65  37    21  26   8    14  17   7    12  14   9    16  18  13    36  38  31    40  43  31    35  40  25    24  28  11    24  28  11    28  32  15    29  34  15    34  39  19    33  38  16    37  42  20    39  44  21    39  44  19    57  63  37    63  69  43    60  66  40    49  54  30    34  39  16    22  27   5    34  39  17    32  36  20    29  31  18    27  29  15    23  25  11    18  20   3    27  30  10    39  42  21    52  55  33    39  43  20    35  38  18    16  18   2    26  29  11    36  38  24    35  38  18    82  89  56    91 101  64    75  85  52    73  82  54    39  48  24    22  30  10    19  26   8    23  31  10    34  42  20    33  41  15  
  40  48   9    51  59  20    49  55  27    27  31  14     8  11   4    12  14   9    23  25  19    33  36  27    34  38  24    28  32  15    21  25   8    25  29  15    29  33  18    37  42  23    50  55  32    62  68  44    54  60  34    42  48  21    46  52  24    55  61  33    62  68  40    52  58  30    43  48  24    28  33  10    22  27   5    40  45  24    34  37  21    28  30  17    33  34  21    36  39  22    25  28   8    34  37  16    44  48  24    33  37  11    33  37  12    41  45  23    13  17   1    28  31  11    37  40  22    21  26   4   115 124  93    84  94  59    54  63  31    69  77  49    44  52  29    12  19   2    12  19   2    19  27   6    32  40  17    46  55  28  
  48  56  17    49  56  20    65  71  45    40  44  30     5   8   2     9  11   6    16  19  11    24  27  14    24  28  12    23  28   8    25  29  13    27  31  18    25  28  16    24  28   9    27  32   7    45  51  25    45  51  22    46  53  23    65  72  41    52  59  28    43  49  21    33  39  12    29  34  10    24  29   7    24  29   9    40  45  25    29  32  17    22  24  12    27  29  17    33  35  19    29  32  11    46  50  26    58  62  35    34  39  10    35  40  10    51  55  28    27  30   7    34  37  17    40  43  26    37  40  20    90  98  66    62  71  37    18  27   2    31  40  18    51  59  38    36  43  25    29  36  19    39  46  27    36  43  20    48  57  29  
  38  46   8    54  61  25    77  82  58    44  48  34    10  13   6    14  17  10    10  13   2    13  17   2    16  21   1    23  28   6    33  37  20    28  31  19    22  25  15    38  43  24    31  37  12    35  41  13    48  54  25    71  78  47    88  95  64    59  66  35    30  36   8    29  34   9    31  36  13    36  41  21    36  40  23    42  46  29    35  38  24    40  42  29    31  33  19    22  25   8    19  22   1    35  39  13    44  49  18    26  31   5    27  32   1    46  50  21    24  28   2    16  20   1    21  24   6    44  49  27    51  60  29    22  32   1    29  38  13    56  65  40    41  48  30    28  35  19    50  57  41    65  73  53    54  62  39    52  60  30  
  55  63  24    58  66  31    54  59  35    22  26  12     8  11   4    25  29  21    27  30  18    16  20   2    15  20   1    23  28   6    31  35  19    23  27  15    25  28  20    55  60  42    47  53  26    27  33   5    41  47  19    61  67  39    47  53  25    18  24   2    34  40  14    40  46  21    39  44  23    44  48  30    38  42  26    36  40  25    30  34  21    27  29  17    19  21   7    13  16   1    34  38  15    59  63  35    71  77  44    49  55  21    61  66  34    84  89  57    40  45  16    22  25   3    27  30  11    53  57  36    38  44  16    23  32   2    26  34   8    26  34  12    27  34  16    29  36  20    30  37  21    24  32  12    37  46  21    40  49  18  
  78  85  51    67  73  43    50  55  32    33  37  21    16  19   8    17  21   7    28  32  15    26  31   9    18  24   1    19  24   2    24  29   9    16  20   6    29  32  19    59  65  42    58  65  33    37  44  12    63  70  39    81  88  57    45  52  23    35  41  14    40  46  20    47  52  29    36  41  20    35  40  22    24  28  11    21  25  10    24  27  13    25  27  16    15  17   5     8  11   1    35  39  13    51  56  25    54  60  25    48  54  16    95 101  65   122 128  94    49  53  23    27  31   6    35  38  17    41  44  22    43  52  21    27  36   6    25  34   7    16  24   2    26  33  16    34  40  26    30  37  22    33  40  22    68  77  52    78  85  53  
  73  79  53    45  48  28    39  42  23    21  24   7    22  25   6    29  32  11    28  32   9    32  36  12    53  57  31    45  49  24    10  14   1    25  28   6    48  52  29    64  71  37    32  43   4    43  53  14    77  87  51    69  78  45    60  66  38    65  71  45    75  80  57    50  55  33    44  49  29    41  46  26    33  38  18    30  35  14    24  28  13    21  23  12    21  23  10    10  13   1    14  18   4    68  74  38    52  59  18    63  70  27    79  86  44    91  98  57    58  64  31    37  42  16    38  41  18    46  50  25    38  49  14    33  45  10    39  49  20    25  34  11    21  29  12    28  31  18    29  33  19    26  30  13    57  63  38    45  50  18  
  63  67  45    25  28   9    33  36  16    32  35  13    33  37  13    51  55  27    60  65  35    52  57  27    69  74  44    85  90  60    46  51  21    36  41  11    44  50  18    69  77  37    50  61  16    54  65  22    80  91  52    60  70  35    27  34   5    24  29   4    30  35  12    25  30   8    43  48  27    48  53  31    35  40  17    28  33  10    24  28   8    23  25  13    23  26  10    24  28   5    35  40   7    52  59  19    46  54   8    64  72  23    72  79  31    83  90  47   104 111  72    18  24   4    18  21   3    65  68  42    39  49  14    42  54  17    52  63  31    48  57  32    33  40  22    25  29  14    42  46  30    37  41  22    21  26   3    47  53  20  
  65  71  43    25  31   5    34  40  13    36  43  13    48  55  23    70  77  44    78  85  51    65  73  37    61  69  32    69  77  40    31  38   4    30  38   4    38  45  10    62  70  29    50  59  16    50  58  17    70  78  42    54  61  28    24  31   4    26  31   8    41  46  24    40  45  23    63  68  46    64  69  46    41  47  21    34  40  15    38  42  21    30  34  18    21  26   6    28  34   7    24  31   2    48  57  14    37  47   2    54  63  13    50  58   7    66  74  26    86  93  51    70  76  40    57  63  30    55  62  29    44  55  19    38  49  12    38  47  15    40  49  21    29  37  14    23  28   8    48  53  32    42  47  23    34  39   9    36  42   6  
  53  60  26    27  34   1    31  38   4    35  43   7    72  80  41    97 105  66    92 100  59    78  86  45    61  69  28    57  65  24    32  40   3    66  74  35    76  84  45    75  84  42    56  65  22    60  68  29    68  76  40    43  50  18    24  30   1    24  30   6    38  43  20    38  43  21    63  68  45    66  72  47    45  51  23    42  48  18    47  53  26    50  55  33    42  48  23    27  34   2    56  64  23   132 142  93   112 122  68    69  79  22    70  79  22    81  90  37    56  64  15    96 103  60    73  80  41    39  47  10    40  51  12    46  57  20    63  73  38    66  75  43    50  59  30    33  39  11    55  61  32    78  85  52    62  69  32    54  61  20  
  54  62  25    36  44   5    31  39   2    33  41   1    66  75  31    85  94  49    79  88  41    57  66  19    46  55   9    57  66  21    44  53  10    75  83  41    74  82  41    61  69  29    49  57  16    73  81  42    74  81  48    43  49  19    34  40  13    25  30   7    24  29   6    26  31   8    54  60  35    62  69  39    39  46  13    24  32   1    25  33   4    43  52  23    46  56  23    55  66  26    66  78  31    92 104  50   141 152  94   137 149  87   110 122  60    89  99  38    89  98  42   108 117  66    85  93  45    62  71  26    38  49   6    60  71  30    94 105  65    79  88  50    56  64  27    45  53  16    51  59  19    70  77  36    56  64  19   130 138  89  
  36  44   5    31  40   1    32  41   1    39  48   4    59  69  19    77  87  37   101 111  59    83  93  42    63  73  23    83  92  45    65  74  29    65  74  29    56  65  22    62  70  28    65  73  32    80  88  49    61  68  34    32  39   8    32  38  12    23  28   5    56  61  38    51  57  31    70  77  48    76  83  51    59  66  30    42  50  11    33  44   7    48  60  23    55  66  26    61  73  27    54  67  14   105 118  58   130 142  78   156 168 100    89 102  32    63  74   7    67  78  18    94 104  43    78  87  29    47  56   3    41  51   2    64  77  28   107 117  70    78  87  40    46  56   7    48  58   8    56  64  12    80  89  35    85  94  39   105 114  57  
  51  59  20    71  79  37    62  71  27    50  59  13    50  60  10    61  71  19   107 117  65   101 111  59    73  83  33    78  87  40    60  69  24    54  63  19    50  59  17    58  65  24    77  84  43    72  78  40    42  47  14    35  40  10    41  45  19    42  46  21    30  34   9    29  34   8    47  54  22    57  65  29    52  60  21    39  48   7    36  46   8    62  74  31    63  76  29    80  95  40    58  72  13    78  93  27   102 118  47   142 157  81   106 120  43    95 107  33    47  59   1    79  90  21    92 103  34    73  84  17    54  64   4    75  84  27   130 139  81   127 137  77    86  96  35    62  72   9    82  91  26   122 131  65    93 102  35    44  53   3  
  62  68  30   111 119  77    90  99  55    58  67  21    56  66  16    65  75  23   100 110  56    80  90  37    62  72  21    58  67  20    52  61  16    65  74  32    65  73  32    69  74  33   103 108  67    83  88  48    43  49  14    42  47  16    27  31   4    23  27   2    33  37  12    44  49  20    68  75  40    76  83  44    61  70  27    34  43   1    14  27   1    50  64  18    51  65  10    71  87  26   105 120  54    66  82  10   119 136  58   130 145  63   132 147  65    86 100  16    58  71   1    88 100  27   137 148  69   139 150  74    88  98  28    79  89  20   124 134  64   153 163  90   122 132  59    87  98  21    95 106  27    98 109  31    88  99  21    98 109  31  
  43  47  13    74  78  42    64  69  30    57  63  20    70  76  30    68  74  25    92  99  48    87  94  43    57  63  14    59  65  19    60  65  24    45  50  11    47  52  13    53  59  16    83  86  43   119 122  82    62  66  30    44  48  16    29  33   7    32  35   8    45  49  22    63  69  38    90  98  61    94 103  61   112 121  74    44  54   4    23  34   1    25  40   1    51  67  11   105 122  55   146 162  91    96 112  38   106 121  46   163 178  92   160 174  86   109 122  34    63  76   3   110 122  32   148 158  69   152 162  75   101 110  28    89  98  17   103 112  30   157 167  82   139 149  63   111 121  34   136 144  58   134 142  56   144 152  66   149 157  72  
  45  46  15    59  62  30    79  83  47    72  77  37    68  74  30    64  70  24    83  89  41   103 110  59   133 139  90   102 108  63    50  55  14    61  66  27    53  56  18    53  56  13    93  97  48    80  83  39    73  75  36    48  52  17    43  46  15    42  45  16    58  63  31    83  90  54    49  57  17    82  91  46    94 104  52   102 113  56    69  83  21    90 106  39    74  91  21   120 136  63   140 157  79    99 114  32    97 111  25   140 155  65   155 170  75    98 112  15   127 139  41   160 171  73   135 145  48   156 163  67   129 136  41   130 137  44   120 127  33   134 140  45   153 160  65   157 164  69   153 160  66   134 141  48   150 157  64   158 164  73  
  38  36  12    42  40  16    91  91  59    83  83  46    73  74  34    80  81  37    70  72  25    97  99  51   127 128  83    91  92  50    56  57  17    48  48  13    61  61  25    66  68  22    97 100  48    43  45   3    65  67  22    57  59  20    51  55  21    37  40   9    49  55  21    76  83  45   121 130  87   107 117  67    66  77  22   144 158  97   101 116  50    77  93  22    84 100  25   108 122  43    93 108  26   109 123  38   115 128  38   109 123  28   156 168  70   132 143  40   157 165  62   175 184  79   150 159  52   152 159  53   138 143  40   145 150  47   128 133  30   110 115  15   156 160  63   189 195  97   170 175  80   148 153  60   154 159  67   150 155  63  
  52  47  22    74  70  45    53  49  20    58  55  22    65  63  25    78  77  33    91  90  42   121 120  72   105 104  57    87  86  42    56  54  13    52  51  12    88  86  46    84  86  37   104 107  51    77  80  26    74  77  28    56  58  16    46  49  11    56  61  25    47  53  18    34  42   6    94 104  56   108 118  66    67  78  19    57  72   9   142 158  87   115 130  54   117 131  53   105 120  37   109 123  37   127 140  51   119 131  37   125 137  38   121 132  30   126 135  29   165 173  64   187 195  83   180 187  75   158 165  52   132 135  23   134 135  26   131 133  25   119 121  17   153 153  55   184 185  89   178 178  86   174 174  85   166 166  79   141 144  55  
  78  72  50    79  72  49    50  44  17    30  26   1    35  32   1   105 102  56    88  86  37   137 135  84   109 107  58    93  91  43    28  25   1    56  53  13    73  69  28    95  95  41    98 100  38    88  91  33    95  97  44    70  72  26    51  52  13    59  63  26    39  45   7    54  61  20    48  57   9    63  73  19   106 117  58    51  66   8   144 159  86   163 176  98   150 163  82   133 147  62   159 171  84    97 110  19   107 117  23   152 162  64   134 143  38   157 165  56   165 172  59   181 187  72   175 180  62   139 143  25   143 144  27   139 137  23   142 139  30   141 138  35   152 149  53   153 149  61   158 154  70   145 143  61   149 146  65   141 140  58  
  69  61  40    67  59  37    42  35   7    33  27   1    30  25   1   114 110  62   129 126  74   118 115  61    99  96  42    84  82  30    77  73  25    65  61  15    60  56  10    79  78  20    96  99  33   113 118  55   143 146  91    91  94  48    70  72  31    72  74  34    60  65  24    48  55  12    72  82  32    66  76  20    71  83  20   124 138  69   148 161  87   139 153  70   161 175  90   196 210 123   162 174  84   105 116  23   127 136  40   125 133  33   129 137  31   174 180  69   160 164  49   182 186  67   169 174  53   151 153  30   164 162  41   158 155  39   148 144  34   143 137  37   145 140  48   120 114  30   134 127  50   137 129  57   146 139  67   143 139  65  
  71  62  39    40  29   5    48  38   9    36  28   5    45  38   1   120 114  63   167 162 107   110 105  48    98  93  37    94  89  34   164 158 107   110 104  57   108 103  54   129 129  67   130 133  63   117 119  54   130 132  73   117 120  68   129 132  86    97  99  59    62  67  26    43  51   7    43  53   4    57  67  10    59  71   7   145 160  90   107 121  44   114 126  42   152 164  78   135 148  60   188 198 109   117 128  37    92 101   7   128 135  33   126 132  25   148 155  43   171 175  58   188 191  69   152 154  29   153 153  29   176 171  49   168 161  46   154 146  39   141 133  35   147 137  49   111 100  22   112 102  32   120 110  44   139 130  65   132 123  56  
  43  32  10    45  35   9    71  61  32    83  75  39    85  78  34    58  52   8   142 135  82    94  87  40    95  89  38    97  90  36   146 138  86   132 124  73   137 130  78   120 119  55   121 123  53   140 143  76   123 125  63   140 141  86   143 144  94    56  58  11    68  72  26    57  64  16    54  62  11    78  88  32    95 106  46   144 159  93    78  90  17   114 126  46   172 184 101   143 153  66   173 183  94   131 140  45   102 109  10   115 121  16   156 161  48   175 180  62   165 169  47   172 173  47   167 168  40   160 159  32   179 174  48   168 158  42   163 152  50   151 139  51   156 143  70   122 108  46   105  91  35   108  95  42   140 129  75   121 110  54  
  28  18   1    45  33   9    65  54  25    86  75  44   119 106  71    68  56  16   103  91  49   100  89  44    86  75  27   138 128  79    95  85  35   122 111  61   124 114  61   124 118  57   127 125  59   128 127  62   158 157  94   125 123  65    67  66  11    73  71  20    70  70  20    67  67  18    54  58   9    65  72  23   163 171 122   129 138  91    41  49  10   103 110  40   123 130  54   167 175  92   131 140  52    81  90   3   106 114   7   118 126   9   152 158  36   184 186  61   179 180  51   170 169  36   158 154  21   175 168  36   178 167  37   186 173  57   178 163  68   141 124  53   122 104  52    71  53  15    90  72  38    94  78  43   112  97  57   140 125  84  
  71  59  33    70  58  32    86  74  47    98  85  57   102  89  57    65  52  17    50  37   1    70  57  16    91  77  34   124 112  65    88  75  25    89  76  26    87  75  22   134 127  67   131 130  63   138 137  72   149 147  83   125 120  60   121 118  61   139 136  81    76  75  22    51  52   1    65  67  19    64  69  23   148 156 109    87  96  50    62  69  15   103 109  45   164 172  99   175 182 103   181 190 101   107 117  17   122 133  21   128 137  17   164 171  42   184 187  56   171 172  39   168 165  31   160 155  19   177 167  35   194 181  52   182 165  53   148 130  43   125 105  45    93  71  35    87  65  41    91  72  49    91  74  46   109  93  60   137 118  85  
  67  55  30    70  58  34    68  56  31    58  45  17    42  29   1    62  49  15    63  50  14    97  83  43    77  64  20   108  95  50    61  47   1    81  67  17    81  69  18   105  99  40   142 141  76   133 129  66   135 131  69   105 101  40   108 103  44   141 138  81   161 160 104    97  96  43    75  77  25    64  70  19   101 109  58    41  50   2    68  77  21   123 131  66   194 201 128   127 136  56   171 181  92   112 122  25   104 115   8   141 149  31   176 182  57   184 187  57   164 164  31   168 165  32   164 158  25   177 168  37   172 156  35   150 131  29   121  99  21   130 108  55   128 105  72   110  88  65   100  79  57   107  88  59   116  98  62   119 101  61  
  53  41  18    46  34  12    71  59  36    45  32  13    36  22   1    91  78  46    59  46  10    79  65  26    86  73  29   120 108  60   123 109  60   108  94  44    79  67  14   119 113  53   139 138  73   120 116  52   128 124  61   108 104  42   127 123  62   123 121  62   150 150  93    90  92  35    56  60   6    78  85  31    75  84  29    49  60   4    55  66   7   105 115  49   168 180 106   143 156  75   100 113  23   113 125  25   141 154  45   158 168  51   181 190  65   184 188  60   165 166  36   174 172  40   169 166  33   177 168  41   175 158  45   146 123  30   112  86  18    96  71  25   108  82  56    95  70  50    83  62  39    85  65  34   116  98  57   125 108  62  
  64  51  34    57  41  25    41  25   8    39  24   2    50  36   9    50  35   6    60  45  12    80  66  29    97  83  41   114 101  56   135 120  73   122 108  58    83  71  17   124 116  57   106 102  40   145 141  78   170 166 103   121 117  55   172 168 107   116 111  51   157 156  96    90  91  31    69  73  14    64  72  12    53  63   2    82  94  32    69  81  18    92 105  37   110 124  50   151 166  85   138 152  63   110 125  28   151 165  58   162 174  58   178 188  66   184 189  63   175 176  49   181 179  49   174 168  38   172 160  39   170 148  48   151 124  44   133 103  44    83  53  16    60  32  10    70  43  25    71  47  24    63  43   6   100  84  35   114  99  41  
  63  48  32    67  50  35    42  26  15    32  17   1    48  34   9    36  21   2    70  55  23    91  77  40   123 110  67   136 124  76   101  87  38    84  71  19   109  97  43   112 104  45    74  70   7   159 156  93   174 170 108   152 148  85   183 179 116   103  99  36   142 141  77    84  85  21   114 117  54    67  72  22    80  89  26   152 163  97   136 149  87    68  84  25    99 117  43   132 150  69   199 218 128   106 123  26   152 169  63   179 192  80   169 178  60   178 183  61   183 184  59   181 178  52   171 166  40   164 152  36   160 137  42   127  97  26   107  76  24    74  43  10    65  34  15    59  30  13    92  67  40    88  68  24   136 121  62   167 154  84  
  80  64  49    74  58  45   123 107  93    54  37  26    38  21   2    63  47  22    34  19   1    85  69  39   104  89  47   100  86  39   137 123  74   112  99  47   130 118  64   148 140  82   154 150  89   122 118  57   164 159  98   154 148  86   141 137  74    97  93  29   170 170 104   131 133  66   133 138  68    62  69  27    60  70   3   152 164  92   168 182 111    82  99  28   114 131  58   151 169  89   172 192 104   121 140  44   144 160  58   181 194  85   149 160  45   161 169  48   181 184  62   175 173  51   171 166  42   165 155  39   152 127  39   112  82  19    89  57  14   101  66  40    81  48  31    37   9   5   102  77  45   104  84  34   140 124  56   164 152  71  
  21   5   1    40  24  15    80  64  50    47  30  15    39  22   3    59  43  18    43  28   1    56  41   9    95  80  38    90  76  29   146 132  83   161 148  96   116 104  51   106  98  41   122 118  57   174 171 109   152 147  86   132 126  64   142 137  74   154 151  84   138 137  70   155 156  86   134 138  66   102 110  35    65  75   1   151 164  85   140 155  80    65  83  19   101 121  52   159 180  99   119 139  52   112 131  37   146 164  62   182 196  90   133 143  32   147 153  37   177 180  60   169 168  48   172 169  46   173 162  50   176 151  67   139 109  48   100  68  23   132  98  71    69  36  19    75  44  22   157 132  94   114  94  36   139 126  48   146 135  44  
  25   9   1    21   5   1    31  13   3    40  23   9    27  10   1    39  23   1    49  34   4    66  51  15   117 102  61   101  87  41    94  78  29   153 137  86   130 116  63   139 131  75    89  84  26   118 112  52   170 164 103   140 134  72   145 140  76   176 173 106   117 117  47   166 166  94   151 156  81   140 148  70   152 163  84   144 157  77   126 141  64   106 125  52   106 127  53   113 134  55    83 103  18   113 132  41   141 157  61   156 170  67   109 122  12   137 145  32   178 182  65   177 176  59   147 143  25   166 155  46   179 156  73   136 108  46   126  95  50   132  99  70    85  53  32    64  34   8   100  76  34   125 106  43   158 145  60   164 154  57  
  22   3   2    49  31  19    62  44  31    85  68  51    64  48  26    64  48  22    65  49  17    99  83  47   133 118  76   114 100  53    92  76  26   108  92  41    94  79  27    82  74  18    78  73  15   150 144  84   151 145  85   119 114  51   130 125  59   139 134  67   176 173 102   172 172  99   168 171  95   125 131  52   118 127  46   117 129  48   129 144  66   128 145  73    73  90  17    92 111  33   111 130  47   117 135  46   177 193  98   130 145  44   100 111   6   158 166  57   158 161  49   157 157  42   150 148  31   189 182  74   147 128  44   110  84  22   101  73  27   101  70  41   137 106  84   181 151 122   154 131  85   196 178 111   200 187 100   183 174  74  
  41  24   9    44  26  14    68  51  36    50  32  13    80  62  40   102  85  59    73  56  25    86  70  34   114  98  56   131 114  68    73  57   8    84  68  17   102  88  35    88  78  22    68  62   4   149 143  83   159 153  92   129 121  59   136 130  67   161 156  90   198 195 126   116 116  43   154 157  81   137 143  64   137 146  63    97 109  26   108 121  43   125 139  68    79  95  23   131 147  72   139 156  75   127 142  56   148 163  71   136 149  52   119 127  27   157 163  57   139 142  34   162 162  51   159 156  44   168 161  55   168 151  68   118  97  32   119  95  47    95  68  36   104  76  52   171 144 114   135 111  66   165 145  80   173 157  73   182 172  75  
  79  62  44    38  21   8    26   9   1    38  21   1    98  81  55   136 119  91    43  27   1    55  40  10    92  75  34    91  74  28    75  59  10   107  91  41   105  90  38    74  64   8   127 121  63   138 132  72   169 163 102   125 117  55   145 139  74   181 176 109   166 163  93    94  95  27   176 180 103   164 170  91   166 175  93    86  98  13    93 105  26   120 131  61    66  77  17   107 119  47   103 117  37   131 144  60   119 132  44   110 122  29   108 116  18   152 159  56   158 162  56   173 174  65   163 162  51   155 150  45   142 129  45    85  67   2    79  59  10    65  41   8    38  12   1    63  37  11    64  41   9   141 122  60   176 163  83   187 176  84  
  64  47  27    43  26   7    46  29   8    69  51  28   112  95  67    61  45  16    45  29   8    74  56  18    99  81  39    78  61  17   115  97  51   105  87  39   142 125  74   114 103  48   147 141  83   131 122  65   141 132  73   127 119  57   124 116  53   139 134  68   105 102  33    98  95  24   132 134  58   187 193 114   147 156  75   163 175  91    69  80   4    54  63   1    64  74   9   157 167  95    91 102  26   152 163  83   126 137  51   145 154  64   155 162  67   147 153  53   169 173  69   166 166  59   156 156  47   150 147  43   170 162  79   146 134  68   110  94  46    63  43  13    36  11   1    34  10   1    43  20   1   115  96  41   158 143  72   138 126  45  
  61  45  22    69  53  30    84  68  44    82  66  39    49  32   3    59  43  10    62  45  13    48  30   1    58  41   1    88  71  25   142 124  76   111  94  45   115  98  47   128 117  61   129 122  64   162 153  96    97  89  29   123 115  53   114 106  43   139 134  68   107 104  35   105 106  33    97 100  24   141 147  68   174 183 102   170 182  98   111 121  45    95 101  33    88  93  26    83  90  20   106 114  41   136 145  67   115 125  41   150 160  70   155 162  68   132 138  39   170 174  71   164 166  60   168 170  61   172 170  69   165 160  78   131 121  57   120 107  61   134 116  86   144 121 102   121  99  77   107  83  51   107  86  39   111  95  33   117 103  33  
  77  60  35    67  50  25   113  96  71    98  81  54    94  77  47    91  75  41    88  71  35   106  88  49   121 104  61   117 100  56   101  83  37    83  65  16    90  73  22   114 103  49   139 132  75   135 126  70    74  65  15   152 144  83   164 156  94   124 116  51   149 144  76    71  69   7    74  75  17   156 159  83   184 191 113   133 142  61   167 174 100   119 123  57    69  72   6    73  79   9   144 151  78   161 168  90   122 130  49   145 152  66   129 136  43    89  95   2   127 131  31   156 158  55   176 177  71   167 168  67   162 160  76    92  86  23    73  61  20   118 102  75   141 119 104   165 142 125   198 175 149   189 167 128   160 141  89   175 159  97  
  72  59  27    76  62  31    74  58  27    70  52  20   108  89  56   134 116  80   135 120  81   117 102  60   113  98  54   130 116  71   133 116  75    51  34  19   146 129  81   130 117  67   124 112  62    98  86  33   100  90  35   167 158 100   169 160 101   101  95  33    98  95  31   112 109  44    94  94  26    99 101  27   163 167  90    86  91  10   111 114  41    80  79  29    40  39   1   125 125  63   101 104  35    79  84   8    77  82   8   112 118  34   136 142  48   132 139  42   131 137  39   140 146  45   157 162  60   157 161  66   172 174  93   101 100  38    36  29   1    66  54  31    60  45  23    51  34  14    76  58  34   118 102  67   128 114  69   142 129  78  
  80  71  33    74  63  25    87  71  34    57  37  10    49  29   1   130 110  73   131 113  73   142 128  86    88  76  31   117 106  60   134 121  78    71  56  26   131 114  69    81  63  24   100  82  46    52  36   4   109  95  47   138 128  74   107  98  43    43  36   2    71  65  13    96  90  37   131 125  68   102  96  31   157 152  79   174 172  90   118 113  44    54  46  12    33  26   1    48  43   1    68  67   2    79  80   6    98 102  20   118 122  33   132 138  44   111 119  22   130 140  43   139 149  52   167 177  81   120 129  39   133 140  63   151 155  88    62  63  14    87  85  44    63  59  22     9   4   1    40  33  15   113 105  74   110 102  66    58  50  11  
  61  57  13    54  45   6    84  69  28    70  51  11    63  41   2   108  89  49   100  83  42   127 113  71   122 111  67   116 105  60   155 142 102    60  44  23   159 141  99   108  86  53    84  60  32    69  49  14    49  32   1    71  58  23   152 141  93   115 107  60    33  25   1    55  47  11   123 114  66   127 117  61   157 148  80   183 174  96   144 135  71   114 102  62    49  39  10    80  72  25    81  76  17    80  78   7   123 125  42   140 144  53   146 153  57   155 165  68   148 158  63   141 152  59   138 148  58   127 137  51   137 145  71   144 150  84   124 130  68   118 124  68    49  51   7    28  29   1    69  68  33   130 127  92    99  95  60    55  51  14  
  99  95  48    78  70  24    90  77  33    74  56  15   101  79  40   125 103  66    93  74  37    94  78  40    81  68  29    80  68  28   111  97  57    83  67  28   115  94  57    79  56  27    55  31   5    65  42  11    62  43   5    70  56  14   126 113  71   157 145 107    67  57  22    58  47  12    75  63  24    82  70  22   145 134  74   124 115  46    99  88  33    91  78  48    51  40   8   133 124  79    74  69  13    79  77  10   129 131  51   150 154  65   128 133  40   155 162  67   151 161  65   138 149  56   120 130  40   137 146  64   129 139  68   102 111  46   113 120  57   113 119  59    76  82  23   111 114  60   129 131  81   148 147 100    94  91  49    78  74  36  
 118 116  67    84  79  31    92  81  36    56  38   9    89  67  31   112  90  56    78  58  25    53  36   2    35  21   1    89  75  42    81  65  31    47  27   1    54  30   6    84  59  32    67  42  18   100  76  47    98  76  43    86  69  33   112  98  63   103  90  56    78  65  36    54  40  13    51  37   6    61  48   8   127 115  66    38  28   1    44  32   1    37  24   1    42  30   1    49  40   1   104  99  44    80  77  11   130 130  53   155 158  73   143 150  57   169 178  85   153 163  70   141 152  61   152 162  74   136 145  64    94 103  36   107 116  52   121 130  65   115 124  59   108 114  50   136 142  78   117 120  60   114 114  59    91  90  41    83  80  38  
 107 107  53    84  80  28   107  96  49    66  49  15    92  70  34   104  80  49    65  43  13    52  33   6    59  42  14    96  79  51    54  34   7    48  26   1   101  74  47   207 179 156   171 143 121    74  49  22    52  29   6    74  54  23    72  55  25    57  41  16    22   5   1    29  12   1    43  26   4    81  65  36   160 146 109    44  31   1    25  11   1    36  22   1    52  40  12    35  25   2    73  67  17    82  79  17   115 116  43   148 151  69   143 147  60   127 133  45   145 154  65   111 121  33   130 140  53   148 159  79    92 103  38   108 118  56   102 111  46    99 109  40   132 139  69   161 169  96   139 144  75   126 127  66    88  88  36   101  96  56  
 125 128  71   128 126  71   113 104  55    90  72  31   178 156 121   159 134 104    61  38  11    51  30   7    55  35  11    47  27   3    64  41  18    70  44  22    71  44  22   103  76  52   163 136 109    98  72  45    67  42  14    76  53  26    37  16   6    67  49  29    81  62  46    45  27  12    48  31  14    57  41  18    56  41  12    40  25   1    46  31   2    46  32   7    37  25   2    38  28   1    73  67  20   104 101  42   120 120  50   113 115  36   120 126  40    95 103  17   155 163  77   153 163  76   140 150  64   117 128  49    92 103  38   125 137  75   132 144  78    94 105  36    89  99  29   124 132  59   128 135  66   159 162 100   141 140  88   143 138  99  
 132 137  77   148 150  91    93  87  35    82  66  23   186 163 128   167 141 114    79  53  31    55  32  11    56  34  15    44  23   4    87  64  46    55  28  10   103  76  55   136 109  82   101  74  44    56  31   2    78  53  24    85  62  36    52  30  10    59  38  19    73  54  39    42  23   9    42  24   9    48  32  14    43  27   4    57  41  16    36  20   1    56  41  20    61  49  23    50  40   6    79  72  27    69  65   8   124 123  56   118 120  45    82  85   5    75  80   5   140 149  64   163 172  88   149 158  75   133 144  65   107 120  51   123 135  70   132 144  78   111 122  54    91 101  34    93  99  35    91  94  34   122 121  68    87  83  40    60  55  20  
 109 118  55   125 129  68    88  84  30    76  62  17    89  66  33   107  80  56   145 118  98    99  74  58    46  24   8    54  33  16    61  38  22    72  46  29    85  58  38    97  72  42   128 104  67   111  87  51    83  60  27    90  66  38    56  33  11    44  21   3    51  30  14    30  12   5    39  22   9    53  36  20    59  42  23    66  49  27    59  43  21    50  35  13    43  31   5    44  34   1   159 152 107    90  85  31    89  87  23   114 115  42   104 109  29   134 142  59   128 136  52   146 155  72   181 190 109   180 191 113   114 127  55   121 136  67   115 127  62   121 132  70   114 124  64    98 104  51   101 104  56   113 113  71   115 111  77    63  56  28  
 113 124  56   150 155  90    93  90  33    77  64  17    89  67  34    50  24   5   111  84  66    90  64  50    42  18   4    65  44  27    67  44  28    81  55  37    80  53  30    93  71  33    97  76  29   120  99  56   112  93  54    81  61  29    66  45  19    54  32   9    57  36  15    53  33  12    56  38  16    63  47  24    64  48  25    56  40  16    63  47  24    47  33   8    76  64  35    40  30   5   144 137  90   115 111  54    73  72  13    89  90  21   150 153  74   141 146  64   125 134  51   143 152  69   149 158  76   175 186 107   168 182 105   115 130  59   117 129  65   121 130  73    80  86  38    55  57  19    50  50  17    71  69  41   102  96  74    77  69  48  
 123 136  66   149 156  89    65  64   5    82  70  23    69  50  16    86  62  36    94  67  49    80  55  41    52  30  14    57  37  20    47  26   5    42  22   4   103  82  53   154 137  91   143 128  74   129 113  62    80  62  20    69  51  15    69  49  19    74  54  26   102  82  55    69  50  23    64  47  19    62  46  19    64  47  22    73  57  32    60  45  20    40  26   5    42  30   4    75  66  27    87  81  32    99  96  39    48  47   1    83  84  22   160 164  85    96 104  21   132 141  58   127 136  53   129 138  56   120 130  51   149 162  84   151 164  94    88 100  38    94 103  51    78  83  45    32  32   5    29  28   7    43  40  22    64  60  42    50  43  24  
