P3
50 50
255
  65  68  49    71  74  54    65  68  47    52  55  34    53  56  35    63  66  47    54  57  38    31  34  18    17  19   6    21  23  10    25  26  18    28  29  23    37  38  32    44  45  39    32  34  23    19  21   8    20  22  11    27  29  18    26  27  19    31  32  24    42  43  35    48  51  40    29  30  17    55  58  41    90  93  71    95 100  74    96 101  69    98 104  70   102 108  70   125 134  93    85  96  53    71  84  38    68  79  36    65  74  31    58  65  23    48  55  13    58  63  23    66  71  32    68  70  32    70  72  35    86  90  53    86  90  54    88  92  56    99 105  68   101 108  72   107 113  77    97 102  66    66  67  33    88  90  55    90  91  59  
  49  53  34    52  55  36    53  56  37    51  54  34    53  55  37    57  60  41    46  48  32    35  38  24    35  37  24    37  39  28    35  36  30    38  39  34    41  42  37    33  34  28    31  33  23    24  26  14    27  29  19    31  33  23    31  32  24    36  37  29    40  41  33    37  39  28    59  61  48    42  45  28    46  50  28    57  61  34    83  88  56   113 118  82   104 111  72    86  94  53    83  94  53    79  92  50    70  80  40    46  57  16    60  67  29    67  73  36    72  76  39    56  60  24    42  44  10    60  62  29    72  76  42    57  61  27    65  71  37    97 102  69   100 107  73    98 104  68    85  89  51    79  81  43    94  96  59    81  82  48  
  32  34  19    40  43  25    46  49  31    45  48  30    49  52  36    58  61  45    50  52  38    32  34  20    36  38  26    47  49  39    37  38  32    27  28  23    31  31  28    31  32  26    33  34  25    35  37  25    41  43  33    42  44  34    40  41  34    46  47  40    50  51  43    41  43  32    31  33  20    24  26  11    33  36  15    43  47  22    58  63  33    66  72  37    66  73  35    84  92  53    79  91  51    80  92  53    77  88  49    58  69  30    84  92  54    87  94  57    83  88  52    62  66  31    43  47  14    44  48  15    48  52  20    44  47  16    52  56  27    63  68  38    60  65  36    71  76  44    58  60  26    79  81  44    90  91  56   101 102  69  
  27  29  16    41  43  28    46  48  33    41  43  29    47  49  36    62  64  51    59  61  47    40  42  31    32  34  23    35  37  27    33  34  26    27  28  20    26  27  22    27  28  21    33  35  22    39  41  25    42  44  31    41  43  30    43  44  33    47  48  38    42  44  34    32  34  23    25  27  15    22  24  11    28  30  15    21  24   7    31  35  15    44  48  25    42  46  21    60  67  36    79  90  49    90 102  57    97 109  64   110 120  75   127 136  92    98 107  64    98 105  63    68  74  34    47  51  16    53  57  23    57  60  29    53  56  29    51  53  28    49  51  28    45  47  27    48  49  26    52  51  27    53  52  26    59  58  31    70  70  41  
  28  30  17    32  34  21    33  35  22    37  39  26    46  48  37    56  58  46    65  67  56    50  52  41    37  39  28    34  36  24    36  37  27    34  36  26    31  32  24    29  31  20    19  21   7    27  30  13    37  39  25    46  48  34    53  55  42    51  53  40    41  43  30    29  31  18    28  30  18    23  25  11    32  34  20    24  27  10    24  27   8    36  39  20    34  37  16    45  50  20    81  90  45    93 106  53   118 128  77   138 148  97   156 166 114   148 158 109   141 149 100    69  77  30    59  63  23    70  74  37    75  78  46    67  70  41    55  55  32    49  48  28    49  48  30    50  49  33    48  45  28    50  47  28    55  53  30    53  51  26  
  51  53  39    38  40  25    28  30  16    33  35  21    40  42  29    40  42  29    58  60  49    45  47  36    34  35  27    32  33  25    35  36  28    36  37  29    34  36  29    34  35  28    29  30  20    29  31  19    35  37  24    44  45  33    48  50  37    47  49  36    47  49  34    48  51  34    45  48  30    30  33  11    43  47  23    53  57  29    60  65  34    83  88  55    93  99  64    93 100  58    59  69  19    82  93  37   123 133  79   158 168 115   179 188 135   143 151 100   113 120  70   102 109  61   101 107  63    92  97  56    83  87  51    77  79  48    71  71  42    59  59  35    52  51  29    50  49  28    36  35  15    55  54  33    60  60  34    52  53  24  
  62  64  49    49  51  37    39  41  27    41  43  29    46  48  35    46  48  35    37  39  28    28  30  19    23  24  16    26  27  20    30  32  24    32  33  27    30  31  25    28  29  24    30  31  24    30  31  23    34  35  28    40  42  32    40  43  32    41  43  30    53  56  39    68  72  51    81  84  60    67  72  43    82  88  53    99 105  67   101 108  64   113 120  73   114 122  71    90  99  45    89  99  45    99 110  54   132 142  87   128 139  83   106 114  61   107 116  63   110 118  67   103 110  61   129 135  89    94  99  57    66  70  32    71  74  39    88  89  58    88  88  59    75  75  48    64  64  39    57  57  35    64  66  41    59  60  31    51  56  21  
  67  70  53    62  65  48    54  56  42    47  49  35    46  48  35    48  50  37    29  31  20    24  26  16    23  24  17    28  29  23    31  32  27    29  30  25    23  24  19    20  21  16    18  18  15    22  22  19    30  31  26    35  36  30    35  36  27    37  39  26    51  54  36    67  71  48    95  99  71    97 103  68   102 109  67    99 106  60    88  96  43   105 115  57   133 143  82   126 136  75   146 155  99   124 133  79   104 112  59    92 100  47    74  81  28    76  83  32    84  90  41    97 103  55   114 120  75    79  84  42    55  57  18    66  68  31    89  90  58    98  99  67    91  91  62    83  83  56    74  77  51    71  75  47    70  75  40    81  88  45  
  38  40  22    44  46  29    48  49  35    46  47  33    44  45  33    45  46  33    34  35  24    30  30  22    29  29  24    33  33  28    34  34  29    29  28  24    22  21  18    18  18  15    23  22  20    26  25  23    29  29  25    29  29  23    30  30  23    36  37  25    45  46  30    51  53  31    63  66  38   101 105  71   110 116  75    99 106  59    86  93  40   102 111  53   140 149  88   141 150  90   123 131  78   124 131  81    99 103  56    96 100  53    75  79  32    72  77  30    73  77  33    64  68  24    90  93  53    71  74  35    60  63  25    68  70  35    81  82  50    85  86  54    79  79  49    73  74  44    57  61  32    59  65  33    81  89  49   112 121  73  
  40  41  23    43  44  28    49  49  35    49  49  36    43  43  31    38  38  26    36  36  26    32  32  24    30  29  24    33  32  27    34  33  29    29  28  24    23  22  20    21  20  16    15  14  10    24  23  20    34  33  29    41  41  34    51  51  41    55  55  43    46  47  31    32  34  13    41  43  19    85  88  58    78  83  49    56  61  20    52  58  11    76  83  31   114 122  69   115 122  71   118 122  76   119 121  80    96  99  59   128 130  91   110 112  72    93  95  56    92  95  57    72  74  37    74  75  41    66  68  35    64  65  32    73  74  42    84  84  53    82  82  54    69  68  39    54  54  25    52  57  27    52  60  23    74  83  40    95 105  52  
  42  43  27    51  53  37    53  55  41    44  45  31    36  36  25    36  36  24    38  38  28    33  33  23    20  20  12    26  26  18    29  28  23    25  24  19    33  32  28    31  30  25    22  22  14    23  23  13    26  26  16    31  31  21    32  32  20    28  28  16    28  29  15    32  33  17    43  45  24    37  39  18    38  40  17    46  49  20    57  61  29    69  73  37    87  92  53   102 107  68    97  98  65    93  92  59   110 108  78   166 165 135   155 153 124   127 126  97    85  84  54    55  54  26    47  46  19    53  51  27    50  48  23    47  45  20    69  67  43    96  94  69    82  80  55    47  47  21    55  60  29    44  52  13    65  74  29    52  63   7  
  38  38  25    39  39  25    39  40  26    42  42  29    42  41  30    39  38  27    34  33  23    30  30  20    19  18  10    26  25  17    29  28  22    26  25  19    35  33  28    33  32  23    27  26  13    26  26  11    30  30  15    35  35  22    38  38  25    37  36  24    35  34  23    36  36  23    29  29  16    37  37  22    48  47  31    56  57  38    60  61  41    60  61  40    61  62  38    64  63  38    83  80  55    86  84  58   123 118  95   164 161 137   147 142 121   116 113  91    68  65  44    51  48  27    47  44  24    53  50  29    56  54  33    55  53  31    58  56  34    67  65  43    73  71  48    74  74  48    66  70  38    65  72  33    77  86  39    93 103  47  
  50  47  37    39  37  25    33  31  20    37  34  24    38  35  26    33  30  21    27  24  15    29  26  17    21  18   9    28  25  16    33  30  22    30  27  19    38  35  27    34  32  21    34  33  16    33  32  13    37  36  19    46  44  30    52  50  37    52  50  38    49  47  35    48  45  36    42  39  31    42  39  29    38  35  25    34  32  20    38  36  23    49  47  33    58  56  43    63  60  45    57  52  34    68  62  43   124 117  98   151 145 126   140 133 116   118 112  95    69  62  48    65  59  43    67  62  44    76  71  52    73  70  51    62  60  39    58  56  35    67  65  43    75  73  50    74  74  47    97 101  68   116 123  82   113 120  73   124 133  79  
  42  39  32    36  34  24    32  29  21    31  28  20    32  29  20    32  29  20    26  23  12    32  29  18    28  26  14    37  35  23    41  39  28    39  37  26    46  43  32    40  38  25    41  40  22    38  37  17    40  39  21    49  46  31    54  52  39    54  52  39    50  48  36    48  45  34    40  37  28    37  34  25    34  31  22    38  36  24    52  50  38    68  66  53    76  74  61    79  75  61    72  65  49    89  81  63   145 137 119   150 142 125   141 132 117   128 121 105    97  90  75   112 105  89    96  90  74    89  84  65    65  60  41    40  36  14    39  37  13    59  58  31    69  68  41    62  61  32    88  90  56   107 112  72   116 120  76    94 102  50  
  29  26  19    30  27  20    32  29  22    32  29  22    34  32  23    37  34  25    40  38  26    47  45  33    42  40  28    44  42  30    44  42  30    40  38  25    45  43  30    37  35  20    42  41  23    37  36  16    35  34  16    41  40  23    47  45  30    51  49  36    54  52  39    58  56  44    65  63  51    53  51  39    45  43  30    51  49  36    68  66  51    86  84  69   100  98  83   109 106  89   147 140 123   137 129 110   144 136 117   123 114  97   128 119 102   116 107  90    84  77  61    80  73  55   100  95  77   104  99  79   107 102  80   101  97  72    82  80  53    67  66  36    69  68  37    81  81  47    98  99  63   113 115  76    87  90  47    95  98  51  
  39  36  30    32  29  24    28  25  18    33  30  23    35  32  23    33  30  21    46  44  32    52  50  38    43  41  28    44  42  29    46  44  30    48  46  31    60  58  43    56  54  39    42  41  23    52  51  33    70  68  51    85  84  66    86  84  69    74  72  57    59  57  42    50  48  35    65  63  50    53  52  37    49  48  30    55  54  36    56  55  35    48  47  26    47  47  25    54  52  29    60  52  31   104  93  73   144 133 114   138 127 109   131 123 104    90  82  63    65  58  40    57  50  31    62  55  36    65  59  37    80  76  49   103  99  70   112 111  80   106 106  72   101 101  65   101 101  65    84  84  46    97  97  59    69  70  28    97  98  55  
  47  44  33    42  39  28    37  34  23    37  34  24    35  32  22    32  30  18    34  32  20    46  43  31    42  39  27    43  40  28    53  51  36    64  62  47    79  76  61    82  79  64    65  62  48    62  60  46    64  61  48    63  61  48    58  55  43    54  51  39    53  50  38    49  47  33    48  46  32    39  37  22    37  35  18    44  42  22    44  42  22    36  36  13    43  42  19    61  58  36    65  56  37   119 107  91   159 147 131   140 129 112   127 118 101    79  72  55    54  48  29    41  37  16    50  46  25    48  44  21    44  40  15    43  42  13    57  55  26    80  79  49    97  96  64   102 102  67    99  99  61    92  92  54   103 104  64    83  84  42  
  41  38  21    63  60  44    82  79  64    80  76  64    61  57  45    43  39  28    34  30  19    45  41  30    44  40  29    43  39  27    52  48  35    53  50  36    50  47  32    54  50  37    52  48  38    40  35  28    38  34  26    42  38  29    43  39  29    54  50  39    63  59  48    59  55  43    61  57  45    49  46  31    44  41  24    46  43  25    42  39  20    38  36  16    42  39  19    48  43  25    68  56  43   142 128 117   174 162 149   131 120 107   123 113 100    78  71  55    50  45  26    65  63  43    39  37  16    35  33  11    29  28   5    34  33   9    56  55  28    82  80  54    92  88  62    88  84  55   117 117  82   125 125  87   106 107  68    81  82  41  
  34  30  16    43  39  26    57  53  42    70  66  56    76  71  63    77  72  66    71  66  60    51  47  41    40  35  29    42  38  30    41  37  29    35  31  21    34  30  20    37  33  23    43  38  30    37  33  25    39  35  27    53  49  39    62  58  47    54  50  38    46  42  31    49  44  33    44  40  28    34  31  16    35  32  15    46  43  26    45  42  23    36  33  14    44  41  22    67  60  45    76  64  52   154 140 131   171 159 147   135 125 113   104  95  81    52  47  31    55  50  31    62  59  40    57  56  35    29  28   7    18  18   1    45  45  21    85  83  58   100  99  74    92  88  63    79  75  48    87  87  55    98  98  62   120 120  84   116 116  78  
  28  24  15    30  25  19    27  22  16    28  24  19    47  42  38    68  62  62    94  88  88    57  51  51    38  32  32    35  30  26    24  19  16    21  16  11    30  25  20    32  27  21    35  31  20    43  39  27    44  40  29    48  44  32    50  46  34    36  32  18    29  26  11    45  42  27    47  44  29    52  49  32    49  46  29    48  44  28    44  41  22    31  28   9    42  39  20    81  75  59   120 108  96   157 143 132   169 157 145   152 142 130   108  99  84    68  62  46    77  72  53    75  72  53    51  50  29    43  42  21    58  58  35    88  88  64    89  87  62    60  58  33    47  43  18    55  51  24    56  55  24    65  65  31    92  92  58   115 115  79  
  34  29  23    24  19  15    29  24  21    41  36  35    37  32  31    21  15  16    33  27  29    24  18  20    29  23  24    33  27  27    29  23  23    33  28  25    37  32  29    27  22  17    30  26  14    45  42  27    44  40  25    36  33  17    39  36  20    36  33  16    36  33  16    49  46  29    48  45  28    33  30  11    42  39  20    45  42  23    43  40  21    87  84  65   135 132 113   137 131 115   114 102  90    73  59  48   117 104  92   134 125 110    75  66  51    70  64  48   100  95  76   110 107  88   125 124 103   115 114  93    88  88  64    56  56  32    46  44  19    55  53  28    63  59  34    59  55  28    52  51  21    68  67  36    81  80  50    89  89  55  
  26  22  14    26  21  14    29  25  19    31  26  22    33  28  24    36  31  29    22  16  14    31  25  23    38  32  30    37  32  28    37  32  28    42  37  32    38  33  28    26  21  14    29  26  10    39  36  17    44  42  22    42  39  20    40  37  18    41  38  18    42  39  20    44  41  22    53  50  30    52  49  29    58  55  36    99  96  76   137 134 115   110 106  87    64  61  42    61  56  37    80  68  53   108  95  81   129 117 103   113 104  88    81  72  56    68  63  44    40  35  16    56  54  35    51  50  29    70  69  48    87  87  63    89  89  65    84  82  57    75  73  49    66  62  37    56  52  27    62  60  33    65  64  35    79  78  49   100  99  69  
  29  26   9    37  33  18    41  38  23    36  32  19    33  29  18    37  32  23    36  31  22    46  41  32    42  37  28    36  32  22    42  38  28    42  39  26    33  30  17    31  27  12    34  31  11    45  43  21    69  67  45    76  74  52    56  54  32    48  46  24    63  61  40    77  75  54    76  74  53    87  85  64   116 113  94   117 114  95    73  70  51    44  41  22    58  55  36    81  76  57   146 134 118   149 136 120   148 136 120   143 134 117    81  72  55    56  51  32    49  44  24    33  31  11    47  46  25    54  53  32    68  68  44    87  87  63   106 104  81   112 110  87   103  99  74    89  85  60    57  55  30    70  69  42    57  55  29    69  68  41  
  45  43  15    50  48  22    68  66  41    35  33  11    34  32  10    34  31  11    46  43  23    39  36  17    43  40  21    37  35  13    36  34  12    73  72  47    61  59  35    51  49  24    67  65  42    78  76  51    90  87  65    84  82  59    70  68  45    80  78  55    97  95  73    99  97  75    83  81  60    80  78  57    82  80  59    69  66  46    64  62  41    68  66  46    69  66  47    93  88  69   165 154 137   132 119 102   137 126 108   125 117  98    74  66  47    51  46  26    44  39  19    50  48  28    54  53  30    59  58  35    72  72  48    76  76  52    71  70  46    78  76  53    90  86  63    87  83  60    72  70  46    60  58  34    52  50  26    70  68  43  
  97  96  59    95  95  59    91  91  57    65  65  32    74  73  42    82  81  51    62  61  31    66  66  36    40  39   9    54  53  23    67  66  36   111 111  78   136 136 103   120 119  88   108 107  79    94  92  68    86  84  61    85  83  60    85  83  60    83  81  58    65  63  40    39  36  14    46  44  23    46  44  24    56  54  33    68  66  45    61  60  38    77  75  54    76  73  54   118 113  93   164 154 136   156 143 126   171 159 141   118 110  91    59  51  32    57  52  32    54  49  29    58  56  35    64  64  40    61  61  37    68  68  44    76  76  52    78  76  53    79  77  54    80  75  53    71  66  44    70  68  45    57  55  32    41  39  16    53  52  28  
  97  98  58   118 119  79   123 123  85   135 135  98   129 129  93   109 109  75   109 109  75    58  58  24    90  90  56   126 126  90   136 136 101   145 145 109    99  99  61   102 102  68   104 102  77    98  95  75   102 100  79    96  93  73    62  60  40    36  34  13    41  39  18    55  53  32    61  59  38    83  81  59    94  91  71   116 114  93    90  88  67    88  86  65    84  82  61   144 139 119   149 138 119   141 127 109   143 132 112   104  96  75    86  78  57   107 102  80    93  88  66    65  63  40    56  56  32    66  66  42    69  69  45    68  68  44    69  67  44    64  62  39    62  57  34    66  61  39    62  60  37    63  61  38    54  52  29    51  49  26  
 111 112  74   126 126  90   117 116  80   112 112  78   102 102  69    67  67  35    81  80  48    77  77  45   111 111  79   143 142 110   119 118  86    99  99  65   113 113  78   120 119  87   119 117  94    87  84  65    67  64  46    66  63  44    62  59  41    62  60  40    70  68  47    76  74  53    60  58  38    69  67  47    67  65  44    66  64  43    53  51  29    48  46  25    83  81  60   156 151 128   121 110  90   121 109  89   126 115  94    92  84  62    56  48  26    53  48  28    58  53  31    66  64  41    61  61  37    75  75  51    71  71  47    62  62  38    62  60  37    56  54  31    60  55  32    76  71  49    80  78  54    57  56  32    46  44  21    68  66  43  
  73  72  41    65  65  34    73  72  44    82  80  54   101 100  74    79  78  53    90  88  64    86  84  60   124 122  98   106 105  78    83  81  55    93  92  64    84  83  55    56  55  29    37  35  16    38  35  19    48  45  30    51  48  32    39  36  20    32  29  11    33  30  12    31  28   9    27  24   5    48  45  26    78  76  55    75  73  52    79  77  54    65  63  40   120 118  95   166 161 139   133 122 101   127 115  93   110  99  77    71  63  40    39  31   8    33  29   9    43  38  16    54  52  29    52  52  28    63  63  39    62  62  38    56  56  32    56  54  31    55  53  30    61  56  34    77  72  49    76  74  48    62  61  34    57  55  30    75  73  48  
  62  60  37    47  44  23    40  37  18    42  40  21    58  55  39    56  53  37    55  51  36    91  88  73    87  84  68    64  61  43    83  80  63    51  49  29    24  22   4    29  27   8    34  30  17    29  25  12    31  27  16    33  30  17    27  24  11    28  25   9    32  29  12    29  26   8    56  53  34    64  60  41    76  74  53    63  61  40    64  62  39    73  70  48   136 134 110   149 145 121   133 121  99   130 118  95   101  90  68    66  58  35    50  43  19    48  44  19    49  45  20    44  42  18    47  47  23    59  59  35    69  69  45    64  64  40    49  47  24    48  46  23    69  64  42    86  82  57    63  62  34    59  58  29    52  51  24    64  63  38  
  55  52  34    50  47  32    33  29  17    43  39  26    33  29  18    40  36  24    56  52  43    61  56  47    85  81  71    44  40  28    28  24  13    27  23  12    31  28  15    36  32  19    36  32  21    27  23  12    29  25  14    32  28  17    23  19   7    19  17   2    30  29  11    39  38  18    56  55  35    60  59  38    65  65  41    78  76  53    80  78  54   106 104  80   133 132 104    94  90  63   129 122  94   126 116  90    96  89  62    78  71  43    72  66  40    70  66  39    82  81  53    95  93  68    67  67  41    58  58  34    59  59  35    54  54  30    42  40  18    50  48  27    71  69  48    76  74  51    60  58  33    60  59  31    55  53  28    63  61  36  
  38  36  21    32  30  17    27  25  12    29  27  15    44  42  31    61  59  47    69  66  57    44  41  32    29  26  17    36  33  25    45  42  33    41  38  29    37  34  27    41  37  28    29  24  16    24  17   9    16  12   1    19  15   4    27  25  12    37  38  22    40  43  22    40  42  20    43  45  20    53  56  29    59  62  33    49  49  21   104 105  74   124 125  92   103 102  70   104 104  70   119 115  80   130 126  89   116 112  77   101  97  62   113 111  77   136 133 101    90  89  58    84  83  53    57  56  30    61  59  36    56  56  32    45  44  23    44  42  22    56  55  35    70  68  50    76  75  55    76  75  52    58  58  32    62  62  38    55  54  34  
  37  35  22    30  28  15    39  37  25    56  54  42    58  56  44    48  45  33    36  33  24    32  29  20    40  37  30    53  50  43    52  49  42    34  31  24    18  15   9    14  11   4    10   3   1    24  16   9    34  30  19    37  35  22    41  39  26    44  45  27    43  46  25    40  44  19    40  44  17    53  58  28    48  51  19    71  75  42   114 116  81    93  95  57   104 104  67   111 112  73   122 120  81   141 139  99   126 124  86    99  97  59    92  90  55    87  85  50    66  65  34    66  65  35    57  56  28    53  51  26    48  48  24    45  44  23    41  40  20    41  40  21    49  48  30    59  59  40    61  60  39    63  63  40    70  69  48    53  52  31  
  63  61  48    63  61  48    60  58  46    55  53  41    45  43  31    36  34  22    37  34  25    34  31  22    34  31  24    33  30  23    23  20  13    11   8   4    10   7   2    17  14   7    25  20  11    46  40  32    57  53  42    50  48  35    40  40  26    40  41  23    39  42  21    36  40  15    43  47  20    73  78  47    91  95  61    81  85  49   106 108  70   109 111  72   106 106  66    90  91  50   118 116  77   143 141 102   121 119  81    83  81  43    87  87  51    88  88  52    91  91  58    64  63  32    64  63  34    58  56  30    52  52  27    50  50  26    45  44  22    43  42  20    54  53  32    69  68  48    54  53  31    57  57  33    62  61  40    53  52  31  
  58  56  44    68  67  54    69  67  55    55  53  41    39  37  27    32  29  19    18  15   6    17  14   5    17  14   5    16  13   4    12   9   2     9   6   1    13  10   4    19  16   9    30  26  17    49  45  36    61  57  46    57  54  42    51  52  38    57  58  40    61  65  42    61  65  38    80  85  55    77  83  50   109 113  76   106 111  72   140 143 101   153 154 111   114 113  69    72  72  28    97  95  56   102 100  62   107 106  69   124 123  86   126 126  90    73  73  37    76  76  42    76  75  44    60  61  29    66  67  37    68  69  39    60  60  33    49  51  25    47  49  23    52  54  29    59  60  35    54  54  30    52  52  28    51  50  28    50  49  28  
  61  59  47    53  51  39    49  47  35    53  50  38    49  46  37    40  37  28    29  26  17    23  21  12    15  12   4    10   7   1    13  10   3    22  19  12    31  28  21    36  33  26    23  19  10    40  37  28    60  58  46    71  69  56    76  77  63    81  82  64    81  85  62    79  83  56    90  95  65    75  81  47    76  81  43    98 100  60   118 119  75   108 110  63   112 111  63    69  68  23    79  77  38    89  86  51    92  92  56    94  94  58    99  99  63    89  89  53    93  93  59    80  80  46    65  66  34    72  74  42    69  70  39    55  56  25    44  47  16    49  52  21    55  58  29    56  59  30    59  59  34    68  68  44    59  58  37    53  52  31  
  57  55  43    41  39  27    28  25  16    31  27  19    38  35  26    40  37  28    40  37  28    45  42  33    47  44  35    45  42  33    46  43  34    45  42  33    36  33  24    27  24  15    31  27  18    38  34  25    51  49  37    65  63  50    70  71  57    70  71  53    72  75  54    78  82  57    89  94  62    82  88  52    85  90  50    84  87  44    80  82  35    83  86  36   121 121  69    94  94  45    61  62  22    63  63  29    83  83  49    98  98  64    84  84  50    75  75  41    57  58  24    62  63  29    82  83  49    74  75  41    62  66  33    56  60  27    56  60  27    59  63  30    59  62  31    58  61  30    53  56  29    59  62  38    49  51  27    52  54  29  
  40  38  27    44  42  31    47  44  35    46  43  34    46  43  34    48  45  36    43  40  31    47  44  35    48  46  37    47  44  35    47  44  34    45  43  33    38  35  25    30  27  17    30  27  17    33  30  20    40  38  26    44  45  30    46  47  33    50  52  34    63  66  44    75  79  54    83  88  57    63  69  33    91  93  54    97 100  57   108 110  62   124 125  75   126 125  73   113 113  63    75  75  37    44  43  10    59  59  25    93  92  59    99  99  66   104 104  71    71  72  39    69  70  36   100 102  68    96  98  64    95  99  66    98 102  69    94  99  65    81  85  52    66  70  37    56  60  28    65  68  42    57  59  35    53  55  31    75  78  51  
  38  35  26    40  37  28    43  40  31    44  41  32    44  41  32    42  39  30    33  30  21    33  30  21    33  30  21    30  27  18    27  25  13    28  26  14    33  31  19    37  35  23    41  39  27    52  51  39    54  53  41    41  42  28    29  31  17    31  34  16    39  42  21    43  47  22    51  55  27    70  75  42    80  82  44    89  92  49   113 114  66   135 135  84   132 131  77   123 122  72    83  83  45    57  56  25    53  52  21    62  61  30    59  60  28    62  63  31    60  61  29    71  72  40    81  85  52    95  99  66   103 107  74    95  99  66    78  84  50    65  71  37    57  63  29    52  57  26    58  60  36    51  53  30    58  60  36    82  85  57  
  32  29  21    33  30  22    30  27  18    29  26  18    33  30  21    37  34  25    40  37  28    34  31  22    31  29  18    35  33  22    44  42  30    48  46  34    44  42  30    37  35  23    43  43  30    53  54  40    58  59  46    51  53  39    45  47  33    46  49  32    48  52  32    48  52  28    48  51  26    67  71  39    67  68  33    59  62  21    95  94  49   133 132  84   137 135  83   117 115  67    97  97  61   105 105  74    62  62  31    58  58  27    54  55  24    50  51  20    52  55  23    62  65  33    66  69  37    68  72  40    72  77  44    74  79  46    68  74  41    58  63  31    48  54  21    43  48  20    39  43  19    34  38  15    45  48  23    77  82  52  
  30  27  20    31  28  21    28  25  16    29  26  17    36  33  24    43  40  31    49  47  38    49  46  37    50  47  36    50  48  36    51  49  37    50  49  37    50  48  36    48  46  33    38  39  25    50  51  37    61  63  49    64  66  52    64  66  52    61  63  49    54  57  40    47  50  30    43  45  23    40  42  13    43  44  11    60  60  22   113 111  70   137 134  89   137 133  85   123 120  75    62  62  27    77  78  47    71  72  41    75  76  45    75  76  45    47  48  17    45  49  18    55  58  27    44  47  16    41  44  15    45  50  20    57  62  32    61  66  36    51  56  26    40  44  16    35  38  13    36  40  17    37  41  18    49  53  28    77  82  52  
  38  35  28    37  34  27    37  34  27    41  38  31    47  44  34    51  48  39    46  44  32    47  45  33    46  44  32    42  40  28    39  37  24    38  36  23    42  40  27    46  44  31    53  54  40    57  58  42    58  61  44    57  60  43    53  57  42    49  53  38    44  46  32    38  41  24    37  39  18    33  35  11    56  56  28    82  82  49   127 125  87   122 119  76   127 123  76   129 126  83    70  70  36    27  28   1    57  58  27    65  66  35    70  73  44    34  37   9    33  36   7    40  43  14    43  48  18    38  41  15    40  44  17    51  55  28    56  60  34    53  57  30    49  53  28    49  53  30    45  48  27    35  38  17    49  53  28    88  93  62  
  36  33  26    34  31  24    35  32  25    39  36  29    42  38  29    43  40  31    41  39  27    36  35  22    31  29  17    31  28  17    35  33  20    41  39  26    46  44  31    48  46  33    40  41  25    45  47  30    53  56  39    59  62  45    59  63  48    55  59  44    49  52  38    45  48  32    36  37  19    32  34  13    56  54  30    75  74  44   133 129  95   129 125  85   125 120  78   107 104  63    94  94  60    37  38   7    55  56  26    67  68  38    75  78  49    56  59  30    45  49  20    44  47  20    49  53  26    43  47  23    39  43  19    41  45  20    47  51  29    53  57  35    57  61  38    59  63  42    54  57  38    28  31  10    33  37  12    74  79  47  
  30  27  21    31  28  21    32  29  22    34  31  24    36  33  25    37  34  25    41  38  28    39  37  25    36  34  23    36  34  22    41  39  26    49  47  34    58  56  43    63  62  49    36  38  21    41  44  25    49  52  35    55  58  41    55  59  44    52  56  42    49  53  39    49  51  37    45  46  29    36  37  16    61  59  36    84  82  53   148 143 111   135 130  93   124 116  78    97  91  53    65  65  33    69  70  41    50  50  23    64  65  38    61  64  36    64  67  39    52  55  28    53  56  30    47  51  26    44  48  25    38  41  19    37  41  19    46  49  28    56  60  39    56  61  40    50  55  35    40  43  23    36  40  17    38  42  16    58  63  31  
  23  22  17    25  23  17    26  24  18    26  24  19    26  24  18    26  25  16    34  33  25    30  29  18    28  27  19    35  35  24    47  47  36    54  54  41    55  55  44    53  53  41    50  53  36    64  66  48    64  67  50    48  52  35    40  43  27    46  49  33    52  55  39    51  52  35    48  48  28    47  45  25    60  55  31   141 135 107   154 146 116   159 150 117   144 130  96   108  98  66    65  64  39    66  68  45    65  66  44    57  59  36    48  51  27    58  62  36    43  47  22    43  47  22    48  52  27    37  42  17    39  43  20    46  50  28    49  53  31    57  62  42    62  67  49    55  60  39    45  49  24    64  68  38    78  83  51    72  78  44  
  17  16  12    18  17  13    19  18  13    20  19  14    20  19  14    19  18  13    14  14   6    14  14   6    17  17   9    26  26  18    36  36  26    43  43  33    45  45  35    44  44  32    43  46  29    44  47  28    42  46  29    38  42  25    37  40  23    41  44  27    56  57  39    69  70  52    78  75  56    72  68  46    80  74  50   137 127 102   152 141 113   148 135 105   160 145 114   105  94  65    81  79  56    66  68  47    47  50  28    51  53  29    52  56  31    46  49  23    49  54  24    48  53  23    59  66  35    46  53  22    39  45  17    43  49  22    57  62  39    77  82  59    79  87  65    70  76  50    97 102  70    88  93  58    79  85  49    68  74  38  
  18  17  13    17  16  12    16  15  10    16  15  10    16  15  10    16  15  10    21  21  13    23  23  15    25  25  17    29  29  21    33  33  23    37  37  27    38  38  28    37  37  25    32  34  18    30  33  14    33  36  19    40  43  26    41  44  27    37  40  23    40  41  25    46  47  29    57  54  35    59  54  34    74  68  46   117 106  82   125 113  87    96  82  55   136 121  92   106  95  65    49  48  17    78  81  51    41  45  13    44  48  14    57  61  27    54  58  22    79  86  47    63  70  31    57  63  24    70  77  38    67  75  37    50  59  21    48  55  21    53  60  27    57  64  32    58  65  32    80  86  51    72  78  42    61  67  33    59  65  31  
  19  18  14    18  17  13    16  15  10    16  15  10    17  16  11    18  17  12    22  22  14    25  25  17    27  27  19    26  26  18    27  27  17    31  31  21    32  32  22    31  31  19    31  33  17    41  44  25    45  48  31    40  43  26    40  43  26    45  47  31    46  47  31    41  42  26    48  45  28    68  63  44    82  76  55   156 145 123   115 103  79    84  69  44   111  95  70   138 127  97    60  60  22    94  99  57    77  82  40    77  82  38    81  88  41    64  70  24    76  84  35    82  90  41    69  77  28    79  88  38    68  77  30    50  59  12    46  55  10    40  48   4    41  49  10    56  64  23    49  55  19    63  70  33    53  59  24    38  45  10  
  22  21  17    20  19  15    17  16  11    14  13   8    14  13   8    15  14   9    19  19  11    22  22  14    23  23  15    20  20  12    23  23  13    29  29  19    30  30  20    27  27  15    31  33  19    36  39  22    38  41  24    35  38  21    34  37  20    39  42  25    46  47  31    49  50  34    73  70  53    88  83  64   102  95  76   146 137 117    98  86  65    75  61  39    86  71  49   124 113  83   107 108  64    90  97  46    84  91  39    86  94  40    96 103  48    88  96  40    86  96  38   129 138  80   139 149  91   118 127  70    87  98  41    78  89  32    81  92  37    67  78  23    50  61  12    50  60  11    53  60  20    62  68  32    58  64  28    57  63  27  
  34  32  29    31  30  26    25  24  19    19  18  13    17  16  11    17  16  11    20  20  12    22  22  14    19  19  11    14  14   6    17  17   7    24  24  14    22  22  12    16  16   3    23  24  10    30  32  15    41  43  26    50  51  35    58  59  43    65  67  51    68  69  52    67  69  51    70  67  50    69  64  45   100  93  75   106  98  79    81  70  50    65  52  32    60  45  26    93  84  54   132 132  84   100 105  49    94 100  41    76  83  24    84  92  33   106 114  54   101 110  50   128 137  75   151 161 101   136 146  85   124 134  74   119 129  68   107 118  58    91 101  41    79  90  32    75  85  33    84  91  49    69  75  37    63  69  32    70  76  39  
  40  39  35    43  42  38    42  41  36    41  40  35    42  41  36    44  43  38    36  36  28    37  37  29    34  34  26    30  30  22    37  37  27    46  46  36    45  45  35    36  36  24    42  43  30    59  60  44    56  58  41    41  41  26    45  46  30    64  65  49    60  61  43    36  37  19    43  40  23    36  32  13    92  85  66   110 102  83    82  72  52    66  53  34    36  21   2    89  80  51   121 121  72    94 100  40   102 109  49   103 109  49   101 109  49   107 115  55   104 112  52   120 128  68   130 140  79   123 133  72   121 131  69   106 116  55    85  95  34    88  98  37   106 118  57   111 121  66   100 107  63    92  99  58    97 104  64    94 101  60  
