P3
50 50
255
 112 116  89    63  67  41    41  45  22    44  48  25    58  62  41    34  37  18    27  30  15    45  47  33    54  56  42    47  50  33    48  50  32    58  61  40    60  65  42    54  59  36    83  89  63    80  86  60    59  65  39    45  50  27    86  91  68    84  89  66    63  72  48    49  57  33    37  43  18    60  66  41    51  57  31    54  59  32    66  72  44    68  75  45   101 108  78   146 152 121    83  90  57    90  97  64    95 102  69    76  83  49    54  60  26    33  40  10   107 113  79    90  98  61    43  51  14    63  71  32    58  66  27   100 108  70   133 141 102    70  78  39    69  76  35    77  83  45    83  89  51    75  81  45    56  62  28    67  72  40  
  97 102  72    64  69  39    70  74  49    60  64  39    44  47  26    26  30  11    37  40  23    51  53  39    58  61  44    55  59  39    57  61  41    64  67  46    62  67  44    52  58  33    44  50  25    57  63  38    61  66  43    51  56  33    70  75  53    51  56  36    38  45  25    37  44  25    32  37  19    42  47  28    39  44  23    48  53  31    50  55  31    44  49  23    54  61  31    61  68  36    60  67  34    72  79  43   102 109  73    76  84  48    88  96  60   131 138 102   138 146 110    78  85  50    59  67  30    52  60  23    79  86  50   121 129  92   140 148 109   119 127  88    68  74  34    79  85  47    66  72  36    72  78  42    70  73  42    69  72  43  
 102 107  77   107 112  82   116 120  94    79  83  58    46  50  28    49  52  32    63  66  49    67  69  54    66  70  53    63  68  48    62  67  46    60  65  43    50  55  32    38  43  20    37  42  19    43  48  25    51  56  34    47  52  31    59  64  44    35  40  21    27  31  15    32  36  21    33  36  24    43  47  35    27  31  17    36  41  24    54  58  39    38  43  22    32  38  14    43  49  22    38  45  15    65  72  40    81  88  56    72  79  46    77  84  51   121 128  95   139 146 112    90  97  63    81  89  53    85  93  56    97 105  68   107 115  78    97 105  66   106 114  75    76  82  44    65  71  33    75  81  45    63  69  33    65  68  37    62  65  35  
  75  80  50    89  94  64    86  90  63    73  76  51    74  78  54    91  95  73    83  87  68    69  74  55    53  58  39    46  51  31    45  50  28    47  52  30    47  52  30    47  52  30    48  53  30    35  40  20    35  40  20    35  39  21    48  53  36    28  32  17    23  27  13    23  27  16    28  30  24    36  38  32    24  27  18    30  33  22    49  53  38    57  62  44    54  59  39    34  40  16    33  39  12    48  54  25    50  57  26    66  73  42    66  73  41    81  88  57   114 121  89   102 109  75   113 120  86    89  96  60    87  95  58    94 102  65    92  99  60    87  95  56    94 100  64    86  92  55    98 104  68    65  71  35    58  61  30    51  53  23  
  49  54  24    53  58  28    48  52  25    73  77  51    80  84  59    68  72  47    71  76  55    54  59  38    41  46  26    40  45  23    43  48  26    42  47  25    43  48  26    47  52  32    46  51  31    36  40  22    41  45  28    38  42  27    41  45  31    20  23  11    18  21  10    17  20  11    37  39  36    19  21  18    29  31  26    34  37  30    31  34  22    99 103  88   137 141 124    57  62  40    37  43  17    26  32   4    54  61  31    44  51  18    45  52  19    64  71  38    71  78  45    91  98  65    81  88  54    59  67  30   100 108  71    90  98  61    83  91  52    72  80  41    72  79  42    84  90  54    96 102  66    77  83  48    71  74  43    53  56  25  
  50  54  27    60  64  37    65  69  42    78  82  55    55  59  32    41  45  20    55  60  37    41  49  24    40  48  24    53  61  38    58  63  41    48  53  31    40  45  25    43  48  28    49  53  36    44  48  33    58  60  46    50  52  39    43  45  34    21  22  14    22  23  15    18  19  13    38  40  37    19  21  18    27  29  24    31  34  25    19  22  11    77  81  66   133 138 117    95 100  77    67  73  45    58  65  34    93 100  67    57  64  30    55  62  28    57  64  29    57  64  30    77  84  49    67  75  38    65  74  37    77  86  49    77  85  48    82  90  53    90  98  61    72  78  42    48  54  18    73  78  44    74  80  46    84  87  56    80  83  52  
  42  46  21    54  58  31    63  67  40    62  66  38    47  51  23    62  68  39    64  71  43    46  55  27    37  46  18    50  58  33    58  63  40    52  58  35    57  62  42    62  67  47    56  60  45    49  53  38    58  60  47    46  48  37    42  43  35    30  31  23    23  24  17    16  17  11    19  21  16    25  28  21    16  19  10    18  21   9    14  18   3    17  21   4    47  52  29    82  89  61    82  89  58    78  86  51    98 106  70    80  88  50    88  96  56    68  76  36    68  77  37    53  61  21    46  54  17    75  83  46    47  55  18    76  84  47    72  80  44    68  76  39    84  90  55    68  74  40    63  69  35    70  76  42    73  76  45    94  97  66  
  47  51  27    49  53  27    48  52  24    49  54  23    60  65  34    66  73  40    79  87  54    60  70  37    48  57  27    60  69  41    53  62  36    44  52  28    65  70  49    58  63  43    44  48  32    43  47  32    42  44  32    36  38  27    41  42  35    40  41  35    23  22  17    20  21  15    22  24  17    25  28  18    25  28  16    42  46  30    25  30  10    27  32   8    49  55  28    89  96  64    82  90  55    99 107  69   104 112  72    94 103  61   119 128  84   116 125  81   105 114  70    69  77  35    48  56  17    76  84  47    64  72  35    63  71  34    63  70  36    56  63  29    74  80  47    73  78  46    74  79  47    92  97  65    62  65  34    73  76  45  
  47  51  28    32  36  11    32  37   7    45  50  18    77  83  50    90  97  62    81  91  53    93 105  66    81  93  58    65  75  43    45  54  24    44  53  27    52  57  34    33  38  18    27  31  14    42  45  30    28  31  20    33  35  24    39  38  33    29  29  23    32  31  26    19  20  13    20  21  11    19  23   9    53  57  41   115 119 100    76  81  58    31  37  10    45  52  22    74  81  47    64  72  34    90  98  58    90  98  56    76  85  42   119 128  83   134 143  98   118 127  82    94 103  60    75  83  44    82  90  53   112 120  85    74  81  46    55  62  29    47  54  20    54  59  27    70  75  43    78  83  52    85  90  60    74  77  45    61  64  33  
  46  49  28    35  39  14    43  48  18    53  59  25    97 103  67   125 133  94   113 124  82   140 153 111    88 100  60    34  46   8    35  45  11    50  59  31    39  44  21    39  44  24    34  37  20    52  54  40    41  43  31    37  39  28    37  37  29    29  29  24    32  31  26    22  22  14    29  31  18    26  30  15    25  29  12   108 113  91   133 138 115    82  88  60    40  47  14    39  46  12    55  63  24    72  80  40    59  67  26    68  76  34    67  77  33    84  93  50   136 145 102   104 112  70    98 106  67   102 110  73   127 134 100   101 108  74    66  73  40    91  98  65    67  72  40    63  68  36    84  89  59    74  79  49    73  76  45    73  76  45  
  47  50  29    59  63  38    65  70  40    43  49  15    67  73  37   111 119  77   105 118  71    99 116  68    86  99  55    94 106  66    82  92  57    63  72  40    29  35   9    38  43  22    36  39  22    47  49  35    56  56  45    33  33  23    30  27  20    38  35  28    28  25  18    31  31  23    24  26  13    28  32  17    13  17   3    58  63  44    88  93  71    84  90  64    62  69  39    58  65  32    43  50  16    53  61  24    46  54  17    70  78  42    49  57  19    52  60  22   107 115  78    94 102  65    86  93  57    72  79  43    74  81  47    93 100  66    83  90  57    91  98  65    81  86  56    73  78  48    77  82  52    86  91  61    82  85  54    83  86  55  
  48  51  30    40  45  20    67  72  42    93  98  65    82  88  51    72  81  38   102 116  67    93 110  57   112 126  79   137 151 107   103 113  76   102 112  77    69  75  47    56  61  38    54  57  39    66  68  54    72  72  60    36  36  26    25  21  15    32  29  22    21  18  11    26  26  18    34  35  25    25  28  15    36  40  25    48  52  36    40  45  24    72  77  55    74  80  55    64  71  41    51  57  28    53  60  28    48  55  23    55  61  30    47  54  21    52  59  26    57  63  32    75  82  49    75  82  48    76  84  47    71  78  44    60  67  33    72  78  45    60  68  35    79  84  55    60  65  36    52  57  27    77  82  52    65  68  37    71  75  42  
  53  56  35    31  35   9    58  63  33   121 127  93   119 125  87   115 124  81   105 118  69   126 142  90   116 131  82   122 137  90   124 136  93   128 139 100    60  66  35    56  62  36    52  55  35    77  79  65    68  69  57    42  42  32    29  27  19    30  29  19    40  39  28    37  38  27    44  46  35    24  28  15    29  33  18    29  33  17    41  45  28    79  84  64    55  60  38    62  67  43    80  86  60    78  84  57    75  81  54    82  88  60    44  50  22    46  52  24    53  59  31    46  53  22    70  77  43    82  89  54    70  77  43    61  68  34    63  70  38    62  69  38    66  70  43    67  71  44    60  64  36    74  79  49    54  57  27    67  70  38  
  48  52  30    52  57  28    75  80  48    73  79  43    85  91  53   108 115  76   129 137  99   118 126  86   112 122  77    78  88  41    85  94  44   124 133  86    81  88  48    85  91  59    44  48  25    50  52  38    53  55  45    38  39  31    29  30  18    28  30  13    67  70  48    89  92  70    58  62  42    25  30  12    26  31  12    13  18   2    33  38  18    50  55  33    47  52  29    66  72  47    99 105  79    68  74  47    77  83  55   100 107  77    84  91  60    64  70  40    47  54  24    45  52  19    63  70  37    66  73  40    61  68  35    65  72  41    64  71  40    56  62  33    49  53  27    61  65  39    68  72  47    76  80  52    57  60  33    51  54  24  
  39  43  18    46  51  21   108 114  80   124 130  94    82  88  50    58  64  28    59  62  33    83  87  55    70  75  35    89  95  47    86  93  40    87  94  42   117 125  79    82  88  50    40  44  21    46  48  34    56  59  52    39  42  34    35  39  25    36  41  19    70  77  46    92  99  67    88  94  69    70  75  52    24  29   6    29  34  12    20  25   2    31  37  11    43  49  24    94  99  72   112 118  90    85  92  61    60  67  36    62  69  36    84  91  58    98 105  72    87  94  61    70  77  44    69  76  43    62  69  36    59  66  35    69  76  44    70  77  48    50  56  28    40  45  20    50  54  29    52  56  31    61  65  40    53  55  30    45  48  21  
  48  52  27    23  28   1    70  75  43   129 135  99    86  92  54    78  84  48    89  92  61    75  79  46    86  91  49    84  91  42    89  96  42   116 123  71   122 130  83    93  99  63    48  52  29    34  36  22    39  42  35    45  48  41    54  58  44    34  39  19    63  69  41   107 114  81    88  94  68   114 120  94    74  80  54    43  49  23    50  56  30    33  39  11    44  50  22    49  55  27    85  92  63    89  96  64    70  78  46    57  64  31    66  73  40    68  76  41    64  71  37    68  75  41    81  88  55    66  73  39    59  65  33    72  79  48    75  81  53    48  55  26    31  35  10    37  41  16    51  55  32    58  62  37    59  61  37    56  59  32  
  68  72  46    48  53  23    55  60  28    81  87  53    66  73  36    98 104  68    81  84  52    70  75  41    66  71  30    64  70  22    74  82  29    89  96  44   106 113  69    59  65  30    35  40  16    25  27  13    33  35  29    40  43  36    50  54  41    31  35  16    52  57  32    88  95  65   102 108  80    91  97  70    75  81  55    68  74  45    76  82  53    59  65  36    54  60  32    48  55  24    37  45  13    68  75  42    72  79  46    63  70  35    65  72  38    58  66  29    56  63  28    75  83  45    85  92  58    75  82  47    66  73  39    71  78  45    75  83  52    58  64  36    37  41  16    33  37  12    31  35  11    38  42  19    49  51  29    55  57  33  
 101 105  77   131 136 105   113 118  85    62  68  34    42  48  12    75  81  45    70  74  40    69  73  37    86  92  49   100 106  58   116 123  71    97 104  54   103 110  67    72  78  44    34  38  15    32  34  20    39  42  34    27  30  22    30  33  22    30  34  18    52  57  34    57  63  36    74  80  52    57  63  35    72  78  49    80  87  56    65  72  41    95 102  70    86  93  61    77  84  50    66  73  40    78  85  50    66  74  38    54  62  25    61  69  31    61  69  30    58  66  28    71  79  40    76  84  46    78  86  48    70  77  42    66  73  40    74  81  49    71  78  48    57  61  36    48  52  27    51  55  32    51  55  32    51  53  32    50  52  31  
  67  72  42   123 128  96   140 146 112    89  94  61    44  50  14    36  42  11    54  58  21    50  55  16    78  85  39    78  84  36   118 125  74   119 125  77   122 129  87   125 131  96    63  67  42    27  30  14    26  30  17    23  26  16    22  26  13    24  28  13    54  59  38    56  61  37    54  60  32    45  51  21    79  86  55    70  77  46    64  71  39    65  72  40    86  93  60    82  89  55    98 105  72    82  90  53    76  84  47    87  95  57    87  95  56    67  75  36    64  72  32    84  93  52    74  82  42    78  86  47    70  79  42    64  71  37    68  75  42    68  76  45    63  67  42    60  64  39    64  68  45    63  66  45    53  54  35    48  50  31  
  50  55  23    55  61  27    83  89  55    81  87  51    56  62  26    48  54  17    53  58  18   112 118  75    78  84  38    53  59  11    82  88  40    74  80  34   152 159 117   138 144 108    63  67  40    24  27   6    28  32  17    26  29  16    20  24   9    27  31  16    47  52  32    17  22   4    42  49  22    71  78  47    78  85  53   101 108  77    80  87  56    57  64  31    57  63  30    60  68  34    77  85  50    68  76  39    74  82  45    89  97  58    90  99  60    83  91  52    72  79  40    62  70  29    88  96  56    85  93  54    74  82  45    66  73  39    62  69  36    52  59  30    49  53  28    58  62  39    42  45  24    47  51  29    40  41  23    43  44  26  
  71  77  43    73  79  42    84  90  54    76  82  44    87  93  54   138 145 104   127 132  91   159 165 119   140 146  98    89  95  47    90  96  48    87  93  49   108 115  74   114 120  84    77  82  52    37  40  17    27  32  11    33  37  20    25  29  12    45  50  30    32  37  17    35  40  18    62  68  42    60  66  39    41  47  20    84  91  63    75  81  53    50  57  27    68  75  44    86  93  60    69  76  43    61  68  35    68  74  41    57  65  29    54  62  25    69  77  40    71  79  42    70  78  39    64  72  33    92 100  61    89  97  60    58  65  31    66  73  40    80  86  58    66  70  45    69  73  50    53  56  35    54  57  38    49  50  32    26  26   8  
  87  93  56    53  59  20    62  69  30    90  97  56    92  98  57    86  92  50   104 110  64   124 130  82   112 118  70   140 146  98    87  93  47    89  95  51   100 107  66    57  63  26    71  76  43    42  47  18    46  52  26    73  78  54    47  52  29    35  40  17    34  40  16    51  56  33    58  63  41    54  59  37    45  51  26    66  71  46    70  76  51    44  50  23    74  79  53    87  94  64    82  89  60    65  72  40    66  72  41    64  71  38    65  72  39    69  76  42    60  67  33    61  69  33    87  95  58    77  85  48    64  72  36    61  68  34    82  88  58    81  87  59    61  65  40    73  77  54    67  70  51    59  61  43    68  69  51    58  59  41  
 116 123  82    91  98  55    81  88  45    91  99  54    83  91  46   107 114  69   116 123  73   140 146  97    80  86  38    85  91  44    79  85  40    84  89  47    81  88  47    63  69  30    63  69  32    93  99  64   110 117  83   114 120  89    67  73  44    64  70  42    71  77  50    47  52  28    48  53  32    45  50  30    41  46  26    46  50  31    54  59  38    36  41  19    67  72  50    77  83  59    71  76  52    64  70  44    71  77  50    70  76  48    65  72  42    61  67  37    52  58  28    64  71  39    82  90  55    74  81  46    65  72  39    57  64  32    67  73  44    67  73  46    53  57  33    65  69  47    61  64  45    73  76  57    65  66  48    54  55  37  
 103 110  65    98 106  58    99 107  60   104 111  63    55  63  15    88  96  46   109 116  64   108 115  63    74  81  30    82  88  42   105 111  67   105 110  69    73  80  38    71  78  36    74  81  40   104 111  70   123 131  91   141 149 111   106 113  78   107 114  81   105 111  80    51  57  31    40  44  26    43  47  32    34  38  23    42  46  30    38  42  25    37  41  24    50  55  36    60  65  46    62  67  46    61  66  45    61  66  43    58  64  40    70  75  51    76  81  57    58  63  39    58  64  37    54  61  29    53  60  28    51  58  27    40  47  18    53  59  33    73  78  54    65  69  46    64  67  46    66  69  50    61  64  45    60  61  41    56  57  38  
 107 115  66   129 137  86   149 157 106   148 155 105    85  93  43    94 103  50    95 102  48    86  93  41    85  92  41    96 102  56    78  84  40   128 133  91    90  97  55    68  75  31    74  81  38    72  79  35    92 100  56   126 135  92   107 115  74   121 129  90   123 129  96    80  86  58    36  40  25    37  40  28    28  30  19    41  44  33    28  32  20    35  39  25    30  34  19    40  44  29    47  51  36    54  58  41    52  56  39    43  48  28    60  65  45    71  76  56    54  59  38    54  59  36    55  61  33    48  55  24    55  61  33    50  56  30    48  53  30    51  56  32    49  52  31    59  62  41    53  56  37    47  50  30    54  56  35    49  51  30  
  79  87  38    91  99  48   123 131  80   123 131  79   112 122  69    84  93  38    94 101  48    82  89  37   103 110  59   107 113  67    58  64  20   102 107  66   112 119  75    70  78  33    68  76  29    56  64  15    88  98  48   117 126  79   102 110  65   129 138  95   107 115  76    52  59  28    35  40  24    25  28  19    24  27  18    30  33  24    30  33  24    24  27  17    17  20   9    22  26  13    31  35  22    46  50  35    51  54  40    39  43  27    47  51  35    48  52  35    41  45  28    65  70  49    42  48  23    37  43  15    57  63  37    59  65  39    40  45  23    30  35  13    37  40  21    62  65  47    48  51  32    54  57  39    56  58  37    31  33  12  
 105 112  64    82  91  41    75  83  33    91  98  50   122 129  81    87  94  46   102 110  61    90  98  48    88  94  47   105 113  67    96 102  58    65  73  30    99 107  63   106 116  70    96 105  58    79  90  41   112 123  74   119 132  81    80  90  43    77  90  43    68  78  35    57  65  30    39  43  25    20  23  13    30  33  23    26  29  22    34  37  31    18  21  16    20  23  18    18  20  14    17  19  12    19  22  12    19  22  12    18  22  10    30  33  24    31  33  25    25  28  20    42  46  34    45  50  31    33  38  17    41  46  26    46  51  31    40  45  27    33  37  22    28  30  15    33  36  21    33  36  20    25  28  12    44  47  30    31  34  14  
 109 117  71   112 120  74    87  94  50   101 108  65    82  89  47    78  85  43    80  88  44    71  80  35    71  79  34   133 142  97   103 111  66    85  94  49   111 121  76    78  90  44   112 123  75   125 137  89   115 128  79   109 123  73   106 119  69    53  67  17    54  67  21    94 106  64    42  47  22    22  27   9    32  35  23    29  32  24    28  30  27    14  16  15    24  25  26    14  16  15    15  17  13    11  14   8    17  19  13    23  25  19    24  26  22    29  30  30    32  33  36    27  28  28    45  49  37    34  38  22    30  34  21    39  43  30    44  48  36    36  39  29    27  30  20    25  28  17    26  29  17    29  33  19    33  37  22    29  33  16  
  82  89  46    86  93  50   122 129  87    86  93  51    78  85  44   111 118  76    84  93  50    50  60  17    47  56  12    98 107  64    83  92  47    77  86  41   104 116  70   107 119  73    65  77  29   117 129  81   144 158 109   127 141  92    90 104  54    39  54   7   111 126  75   147 159 115    76  83  53    46  51  30    38  42  27    33  36  26    33  35  31    18  20  18    20  21  21    11  13  11    15  16  12     8  11   3    15  17   9    23  25  18    20  22  17    18  19  18    23  24  25    25  27  25    34  37  26    40  44  29    42  45  32    37  41  28    35  38  27    38  41  30    41  44  33    40  43  32    31  34  23    24  28  14    30  34  19    33  37  20  
  78  84  46    71  78  37    90  97  55    60  67  25    93 100  58   109 116  74    86  95  52    88  97  54    73  82  39    56  65  22    54  63  18    69  78  33    78  90  44    95 107  60    42  54   8    92 104  56   131 145  96    95 109  60    87 101  52    93 107  58   119 133  82   132 145 101   129 136 103    87  93  68    53  58  39    39  43  29    36  39  30    24  26  20    17  19  15    13  16   9    15  18   9    10  14   3    17  21   8    24  28  14    18  21  10    17  19  11    21  23  18    20  23  17    20  24  10    35  38  23    42  46  31    37  41  27    35  39  25    41  44  31    45  49  35    43  47  33    33  37  23    27  30  16    35  39  22    39  43  24  
  47  53  19    76  83  45   103 110  69    86  92  51   107 114  72   140 147 105   126 133  91   112 119  78   125 134  91   100 109  66    55  64  21    45  54  11    56  65  22    63  72  27    77  89  43   122 134  88    94 106  61    87  99  53   130 144  95   142 156 107    94 108  59   115 128  84   111 118  84    74  80  52    29  34  12    15  19   1    16  20   6    22  25  14    22  26  16    29  33  21    28  32  18    25  29  13    27  31  13    24  28  10    18  22   7    23  27  12    28  31  21    22  25  14    32  36  20    38  42  24    40  44  27    37  41  25    34  39  23    36  40  24    35  39  24    32  36  21    30  34  19    32  36  19    34  38  21    29  34  14  
  42  47  18    67  73  40    61  66  29   104 111  70   138 145 101   129 136  92   118 125  83   126 134  93   116 124  82    76  85  42    63  71  29    50  59  16    70  79  37   108 117  74   115 126  82   107 118  73    79  90  45   131 143  97   114 127  80   104 118  70   109 122  74    97 108  66   125 133  95   104 111  78    55  61  34    30  35  13    21  26   8    31  35  19    26  30  16    36  40  23    39  43  25    35  41  17    41  47  22    42  48  23    28  34  11    20  25   4    22  27  10    23  27  10    37  42  21    45  50  29    45  50  29    35  40  19    29  34  13    34  38  20    37  42  24    36  40  22    26  30  13    33  38  17    26  31  10    19  24   3  
  39  43  18    38  43  12    45  51  16    84  91  50    88  95  51    83  90  46    84  91  49   104 111  70    94 101  60    67  74  33    72  79  38    47  54  13    59  67  26    83  92  50   112 121  78    80  89  46    96 107  64   135 146 102    94 106  61    90 102  56   113 125  79    94 105  62    90  98  58    94 102  66    60  66  37    42  47  23    36  41  20    56  60  41    54  58  40    65  70  49    47  52  28    45  52  23    69  75  45    88  95  64    63  70  41    24  30   3    14  20   1    24  29   5    27  33   9    56  61  37    65  70  46    40  46  22    24  29   6    32  37  16    39  44  23    33  38  17    25  30   8    32  37  15    25  30   8    28  33  11  
  38  41  19    39  43  16    52  58  24    62  68  29    85  92  49    85  92  48    77  82  42    78  83  44    83  90  51    89  95  56   112 119  80   104 110  71    88  96  55   108 116  75   101 110  68    70  78  36    98 107  65   108 117  74    69  80  37    64  76  32   125 136  92   138 149 106    89  97  56    93 101  62    80  87  54    62  68  41    54  59  36    68  73  50    68  73  52    59  65  40    45  51  23    77  84  51   101 108  72   110 117  81    99 106  73    42  49  16    26  33   6    21  27   1    38  44  17    47  53  26    70  76  49    61  67  40    36  42  15    35  40  14    38  44  19    37  43  17    32  37  12    24  29   6    22  27   5    34  39  16  
  70  73  52    74  78  51   111 116  84   114 120  82   105 112  70    71  78  36    79  84  44    86  90  53    75  81  43    77  83  45    98 104  66   102 108  70    81  88  49    64  71  30    59  67  25    65  73  33    79  87  46    86  94  53    66  77  34    76  87  44    90 102  59    59  70  27    65  72  32    59  67  28    63  70  37    60  65  38    47  52  29    53  58  35    63  68  45    57  62  37    85  92  61    94 101  67   103 111  75    99 107  68    83  91  55    62  70  33    68  75  41    54  61  29    49  56  24    52  58  26    61  68  37    61  68  35    70  77  44    67  74  42    45  52  22    44  51  21    42  48  20    44  50  25    60  66  41    59  64  41  
  33  38  14    61  65  38    94  99  67   111 117  81   120 127  86    81  88  47    75  79  42    54  58  23    50  54  19    75  79  44    81  85  50   115 119  82   135 141 103    63  69  31    61  67  29    61  67  28    60  68  27    96 104  63    79  87  46    74  82  41    81  89  48    94 102  61    83  90  51    54  62  25    56  63  32    65  71  43    50  55  32    47  52  30    59  64  41    57  63  37    64  71  38    57  65  28    94 102  63   113 121  80    84  92  53    90  98  60    79  86  52    47  54  20    58  65  31    89  96  62    88  95  62    69  76  42    83  90  56    75  82  48    50  57  24    72  79  46    54  61  29    83  90  59   120 126  98    82  88  62  
  32  36   9    39  44  13    65  70  38    74  80  46    80  86  50    77  83  46    59  63  29    60  64  30    74  78  44    81  85  51    72  76  42    84  88  53    89  95  59    56  62  24    40  46   9    49  55  17    42  50  11    55  63  22    55  63  22    53  61  21    76  84  44   100 108  69    80  88  51    45  53  19    42  49  19    50  56  31    38  43  22    36  41  20    42  47  25    32  38  12    40  47  16    43  51  15    82  90  51   103 111  70    85  93  54   103 110  72    84  91  57    77  85  50    78  85  50   104 112  74   108 115  80    80  88  50    74  82  45    73  81  43    66  74  36    87  94  59    70  78  43    77  84  51   100 107  76    63  69  41  
  57  62  31    47  52  20    37  42  10    56  61  28    82  87  54    85  91  56    78  82  49    61  65  32    81  85  52    83  87  54    75  79  46    75  79  45    53  59  23    43  49  13    44  50  14    47  53  16    47  55  16    52  60  21    73  81  42    56  64  25    62  70  31    58  66  28    47  54  20    38  45  13    42  48  21    46  51  28    37  42  22    35  39  21    36  41  20    29  35  10    23  29   3    40  47  13    60  68  29    76  84  43    80  88  49    85  93  54    70  77  43    98 105  70    94 102  64    85  93  54    93 101  63    80  88  48    68  76  36    79  87  47    77  85  46    66  74  36    68  76  39    64  71  37    77  84  52    62  68  40  
  66  71  38    72  77  44    48  53  21    46  51  19    63  68  36    79  84  51    79  83  50    49  51  19    74  78  45    83  87  54    52  56  22    60  64  31    78  82  47    73  78  42    44  50  14    71  78  41    71  78  40    54  61  23    63  71  32    76  84  45    87  95  56    61  69  32    30  37   4    35  42  13    37  42  18    38  43  20    39  44  26    33  37  20    28  33  13    32  37  14    41  47  21    47  54  21    43  52  14    56  64  24    75  83  44    59  66  28    60  67  33    93 101  65    90  98  58    68  76  35    80  88  47    76  84  42    60  68  26    69  78  35    68  76  35    53  61  22    55  63  26    52  59  25    47  54  21    48  54  26  
  54  61  25    56  62  28    44  50  16    54  59  27    54  59  27    53  58  26    70  73  40    82  86  53    38  42   9    49  53  21   104 108  75    95  99  66    76  80  47    83  89  54    70  76  42    85  91  55    80  86  50    92 100  61    80  88  49    92 100  61    96 104  65    86  94  55    80  88  52    74  80  47    54  60  30    56  62  35    80  86  61    77  83  58    65  71  46    77  84  54    65  72  39    52  60  23    40  48   7    59  67  26    81  89  48    45  53  12    55  63  25    67  75  36    84  90  52    60  67  25    60  67  25    59  69  26    61  69  27    71  80  37    68  76  34    64  72  33    48  55  21    57  64  31    42  48  20    48  54  28  
  87  92  57    70  76  40    43  49  13    64  70  36    55  61  27    75  81  47    68  74  40    64  70  36    63  68  36    53  58  26    57  62  31    54  59  27    50  55  23    96 103  71    87  94  61    61  68  35    68  75  41    87  97  60    78  89  49    81  92  52    69  80  38    92 103  61   104 115  72    97 109  63    94 106  60   111 122  78   125 136  93   128 139  95   156 165 122   108 117  71    96 105  59    75  85  37    73  81  34    73  81  34    89  96  52    75  82  38    67  74  30    54  61  19    94  97  61    71  73  36    59  64  24    50  57  15    65  74  29    68  77  34    51  62  20    71  81  45    56  65  34    57  66  39    52  57  36    45  50  30  
 118 123  90    87  93  58    81  87  53    73  79  44    57  63  29    63  69  35    74  79  46    66  72  38    68  73  42    49  54  22    51  56  26    36  41  11    39  46  15    76  84  52    64  71  40    52  59  26    68  78  43    65  75  38    70  81  41    80  91  49    94 105  63   107 117  75   105 117  72    90 102  54    98 110  61    96 107  59   102 115  66   105 117  68   107 117  69    75  85  37   104 113  65    96 105  59    94 101  56    80  88  42    90  96  54    87  93  51    92  99  57    84  89  50    86  87  54    92  93  59   103 108  69    81  88  46    97 104  62    93 102  59    90 101  61    71  81  46    54  63  34    49  57  33    47  52  34    49  53  36  
 104 109  78    92  97  64    88  93  62    80  85  52    46  51  20    68  73  41    78  83  52    85  90  59    92  97  67    45  50  20    45  50  20    42  47  17    61  68  37    66  73  42    80  87  54    58  65  31    66  76  40    62  73  34    68  79  38    56  67  24    58  69  26    56  67  24    75  86  43    83  94  50    95 106  62    76  88  44    95 106  62   106 117  73   100 109  68    79  87  46    80  88  48    83  91  52    89  95  57    72  78  41    74  80  44    67  73  37    71  77  42    63  68  34    68  70  38    77  79  47    83  87  51    71  78  38    88  96  54    90  98  56    97 108  69    50  60  25    32  41  13    35  43  20    43  48  28    43  47  30  
  58  62  35    51  56  25    56  60  32    66  71  40    38  43  15    66  71  41    72  76  48    62  66  39    79  83  56    55  60  32    53  57  30    34  39  11    65  71  42    69  75  45    72  79  46    60  67  33    56  66  29    62  73  33    44  55  13    33  44   2    41  52   7    56  67  22    55  66  23    67  78  38    66  77  37    86  97  57   115 125  87    74  84  46    72  79  43    84  92  57    72  79  46    68  75  43    73  78  46    60  65  36    61  65  36    47  51  22    54  58  31    55  60  31    60  63  35    53  56  26    41  45  11    66  72  35    71  79  41    74  82  44    71  79  44    35  43  11    20  27   1    29  35  13    39  44  24    31  35  18  
 100 104  79    62  66  38    62  66  39    42  46  19    59  62  36    77  81  53    62  66  39    49  53  26    70  74  49    71  75  49    56  60  35    28  32   7    54  60  32    44  51  20    37  44  13    63  69  36    70  80  43    90 101  59    65  76  33    63  75  30    53  64  17    40  52   6    60  71  28    62  73  33    71  81  44   114 124  87   108 118  83    34  44   9    39  46  14    32  39   7    51  57  29    45  51  23    54  59  33    51  55  30    56  60  35    40  44  19    49  53  30    56  60  35    59  61  37    52  54  27    44  48  16    95 101  67    83  90  56    75  82  48    47  54  21    37  44  14    28  33  10    26  31   9    31  36  16    26  31  11  
  79  84  61    69  75  49    91  96  71    57  63  37    79  85  59    74  80  54    54  58  34    55  59  34    68  72  49    69  73  49    43  47  22    40  44  19    65  71  43    33  40   9    42  49  18    55  62  28    57  67  30    77  88  46    89 100  57    99 111  65   108 120  72    86  98  49   105 116  73   118 129  87   100 110  70    70  81  43    61  71  36    21  31   1    23  30   1    28  36   5    33  39  11    38  44  18    54  59  33    49  53  28    52  57  33    41  46  22    50  54  29    54  58  32    52  57  32    47  51  24    51  56  26    83  88  56    91  98  64    85  91  58    40  47  14    35  41  13    34  39  16    24  29   7    36  41  21    45  50  30  
  25  30   7    49  54  31    70  76  50    38  44  18    64  70  44    88  94  68    52  56  33    40  44  21    44  48  25    64  68  45    39  43  18    32  36  13    63  69  42    53  60  29    53  60  29    68  75  41    79  89  52    88  99  57    86  96  54    98 110  62   118 130  82   119 131  83   126 138  92   119 130  86   115 126  83    97 108  67    69  79  41    32  42  10    34  41  16    35  43  16    36  42  13    54  61  32    60  65  37    37  41  13    34  39  12    34  39  10    48  52  24    55  59  31    46  50  24    43  48  21    40  46  15    45  50  18    81  87  54    76  82  50    39  46  15    38  44  17    38  43  20    31  36  14    53  58  37    61  66  44  
  28  33  10    50  55  31    98 104  78    61  67  40    50  56  28    73  79  52    54  58  34    60  64  40    50  54  31    65  69  45    49  53  28    26  30   7    46  52  24    35  42  13    43  50  19   116 123  89   131 141 104   120 131  89    63  74  31   107 119  72   110 122  74   106 118  68   107 119  70   128 140  91   103 115  68   105 117  72    90 101  60    65  76  37    89  97  61    73  80  47    56  63  30    80  87  55    75  81  49    57  62  30    62  67  33    66  71  37    63  68  33    68  75  40    48  56  25    69  77  47    51  58  26    37  44  11    67  74  40    49  56  23    46  53  22    60  66  39    63  68  45    44  49  27    55  60  38    53  58  35  
  49  57  32    36  45  16    49  58  28    91  99  69   101 109  78    62  68  38    50  54  28    59  63  36    75  79  55    58  62  37    41  45  20    40  44  19    36  42  14    54  61  32    46  53  22    88  95  61   102 112  75   137 148 106   100 111  68    85  97  51    96 108  60   103 115  66    99 111  61   124 137  87    86  98  50    59  71  25    48  59  17    54  65  25    81  89  52    49  56  20    61  68  34    55  62  29    52  57  22    58  63  27    69  75  36    70  76  37    68  75  34    72  80  41    58  68  34    90 101  67    80  89  54    61  70  34    63  70  34    78  86  50    78  84  52    55  60  31    70  74  50    41  45  23    43  48  26    53  58  33  
  42  51  21    39  48  17    34  44  10    55  65  31   103 113  78    73  83  49    72  77  47    59  63  36    93  97  70    48  52  25    23  27   1    34  38  11    29  35   7   115 122  91   115 122  89    85  92  58    86  96  59    83  94  54    68  79  37    70  82  38    83  95  49   120 132  85   108 120  72    95 107  58    48  60  14    43  54  10    47  58  16    48  59  19    67  75  38    50  57  23    72  79  45    50  57  23    52  58  22    82  88  50   102 109  68    94 101  59    71  78  34    50  58  16    63  74  35   120 132  94   115 126  86    83  94  53    51  59  19    66  74  35    62  67  34    37  42  12    56  60  35    52  56  33    58  63  40    51  57  29  
