P3
50 50
255
 175 175 177   177 177 179   155 155 157   165 165 167   176 176 178   163 163 165   172 172 174   179 179 181   160 160 161   175 175 177   175 175 176   158 158 160   177 177 179   167 167 169   166 166 168   176 176 178   170 170 172   161 161 163   180 180 182   165 165 167   163 163 165   180 180 182   164 163 168   168 167 172   174 173 178   165 164 169   166 165 170   171 170 175   153 152 158   165 163 170   186 185 191   147 146 152   172 173 178   178 179 184   141 142 147   157 158 163   170 170 178   145 145 153   160 163 170   152 155 162   149 152 161   163 166 175   151 154 163   131 134 143   152 156 165   139 143 152   141 145 156   162 166 177   145 149 160   133 137 148  
 172 172 174   172 172 174   161 161 163   168 168 170   173 173 175   166 166 167   174 174 175   180 180 182   163 163 165   180 180 182   178 178 179   161 161 163   184 184 186   171 171 173   166 166 168   177 177 179   174 174 176   165 165 167   182 182 185   173 173 175   168 168 170   184 184 186   173 172 177   169 168 173   183 182 187   170 169 174   165 164 169   185 184 189   169 168 174   165 164 170   190 190 195   169 168 174   161 162 167   183 184 189   154 155 160   156 157 162   179 179 187   149 149 157   163 167 173   174 177 184   152 155 164   167 170 179   169 172 181   143 146 155   165 169 178   158 162 171   145 149 160   164 168 179   152 155 167   139 143 154  
 166 166 168   167 167 169   166 166 168   173 173 175   173 173 175   166 166 168   170 170 172   175 175 177   163 163 165   183 183 185   174 174 176   155 155 157   184 184 186   170 170 172   161 161 163   175 175 177   174 174 176   164 164 166   181 181 183   174 174 176   167 167 169   181 181 183   173 172 177   163 162 167   184 183 188   169 168 173   156 155 160   178 177 182   165 164 170   155 154 160   180 179 185   159 158 164   152 153 158   181 182 187   153 154 159   149 150 155   183 183 191   150 150 158   155 158 165   171 174 181   144 147 156   158 161 170   167 170 179   139 142 151   166 170 179   166 170 179   141 145 156   155 159 170   160 164 174   126 130 140  
 163 163 165   173 173 175   158 158 159   169 169 171   181 181 183   166 166 168   168 168 170   175 175 177   162 162 164   185 185 187   181 181 183   156 156 158   182 182 184   185 185 187   161 161 163   181 181 183   181 180 184   153 152 156   179 178 182   170 170 174   162 161 165   172 172 176   173 172 177   148 147 152   182 181 186   175 173 178   157 156 161   185 185 190   174 173 179   151 150 155   177 176 181   159 158 164   155 156 161   179 181 186   159 162 167   150 153 158   180 182 189   147 149 156   153 155 163   176 179 186   149 152 161   155 157 166   170 173 183   141 144 153   154 157 166   174 178 187   142 145 156   142 145 155   164 168 175   137 141 148  
 161 161 163   175 175 177   155 155 157   167 167 169   181 181 183   161 161 163   167 167 169   177 177 179   155 155 157   180 180 181   181 181 183   155 155 157   177 177 179   188 188 190   161 161 163   183 183 185   183 182 187   156 155 160   175 173 178   185 184 189   157 156 161   183 182 187   174 173 178   150 149 154   175 174 179   173 172 177   154 153 158   182 181 186   176 175 180   155 154 159   182 181 186   167 168 172   150 150 155   172 175 180   161 164 169   150 153 158   176 179 186   154 157 164   145 148 155   176 179 186   154 157 167   148 151 160   168 171 180   148 151 160   138 141 150   171 175 183   149 151 163   139 142 151   164 169 176   138 143 147  
 167 167 169   178 178 180   160 160 162   172 172 174   180 180 182   160 160 162   170 170 172   183 183 185   151 151 153   175 175 177   181 181 183   156 156 158   172 172 174   182 182 184   159 159 161   180 180 182   180 179 184   157 156 161   173 171 176   188 187 192   160 159 164   182 181 186   178 177 182   153 152 157   173 172 177   178 177 182   154 153 158   169 168 173   169 168 173   155 154 159   175 174 179   163 164 168   150 150 155   169 172 177   162 165 170   147 149 154   168 171 178   170 173 180   136 139 146   175 178 185   160 163 172   139 142 151   161 164 173   164 167 176   128 131 140   164 167 176   161 163 175   136 139 148   167 170 177   139 142 147  
 174 174 176   177 177 179   159 159 161   174 174 176   179 179 181   160 160 162   173 173 175   181 181 183   153 153 155   175 175 177   185 185 187   159 159 161   168 168 170   179 179 180   158 158 160   175 175 177   186 185 190   155 154 159   177 176 181   178 177 182   168 167 172   168 167 172   186 185 190   154 153 158   175 174 179   180 179 184   156 155 160   168 167 172   177 176 181   156 155 160   165 164 169   170 171 175   155 157 162   168 171 176   168 171 176   145 147 152   160 163 170   183 186 193   133 136 143   169 172 179   170 173 182   136 139 148   155 158 167   177 181 190   129 132 141   158 161 170   171 173 185   130 133 142   161 164 171   155 158 163  
 180 180 182   174 174 176   155 155 157   175 175 177   178 178 180   160 160 162   173 173 175   175 175 177   153 153 155   170 170 172   183 183 185   160 160 162   166 166 168   179 179 181   160 160 162   172 172 174   188 187 192   162 161 166   168 167 172   180 179 184   159 158 163   165 164 169   184 183 188   157 156 161   171 170 175   178 177 182   157 156 161   171 170 175   187 186 191   158 157 162   156 155 160   181 182 186   152 153 158   160 163 168   175 178 183   149 152 157   157 160 167   185 188 195   137 140 147   151 154 161   185 188 197   143 146 155   151 154 163   175 178 187   136 139 148   147 150 159   179 181 193   136 139 148   147 150 157   170 173 178  
 183 183 185   174 174 175   158 158 160   179 179 181   178 178 180   158 158 161   174 174 175   175 175 177   153 153 155   166 166 168   180 180 182   160 160 163   165 165 168   180 180 182   162 162 164   170 170 171   182 181 186   162 161 166   157 156 161   183 182 187   150 149 154   163 162 167   180 179 184   158 157 162   162 161 166   178 177 182   160 159 164   164 163 168   182 181 186   153 152 157   145 144 149   180 181 185   147 148 153   151 154 159   178 181 186   151 154 159   152 155 162   178 181 188   152 155 162   138 141 148   183 186 195   151 154 163   153 156 165   169 172 181   150 153 162   133 136 145   179 181 193   147 150 159   135 138 145   167 170 177  
 178 178 180   170 170 172   160 160 162   181 181 183   173 173 175   152 152 154   170 170 172   173 173 175   161 161 163   169 169 172   184 184 185   164 164 167   168 168 170   183 183 185   164 164 166   166 166 168   185 184 189   160 159 164   168 168 173   180 179 184   168 167 172   159 158 163   193 191 196   162 160 165   151 150 155   181 180 185   164 164 169   157 156 161   180 179 184   162 161 166   153 152 157   190 191 195   153 154 159   149 152 157   179 182 187   146 149 154   145 148 155   170 173 180   171 174 181   142 145 152   167 170 179   153 156 165   159 162 171   171 174 183   167 170 179   125 128 137   173 175 187   150 153 162   128 131 140   155 158 165  
 182 182 184   170 170 172   146 146 148   178 178 179   172 172 174   151 151 153   185 185 187   173 173 175   152 152 154   169 169 171   177 177 179   152 152 154   163 163 165   175 175 177   153 153 155   167 167 169   186 185 190   153 152 157   160 159 164   190 189 194   158 157 162   154 153 158   190 189 194   159 158 163   153 153 158   187 186 191   152 151 156   164 164 169   175 174 179   177 176 181   151 150 155   181 182 186   160 161 166   152 155 160   176 179 184   157 160 165   136 139 146   160 163 170   161 164 171   143 146 153   163 166 175   151 155 164   140 143 152   154 157 165   156 159 168   140 143 152   148 150 161   159 162 171   138 138 148   159 159 167  
 174 174 176   164 164 166   145 145 146   174 174 176   167 167 169   149 149 151   182 182 184   175 175 177   152 152 154   169 169 171   180 180 182   157 157 159   165 165 167   173 173 175   148 148 151   157 157 159   179 178 183   148 147 152   155 153 158   186 185 190   156 155 160   152 151 156   188 187 192   161 160 165   161 160 165   184 183 188   159 158 163   161 160 165   171 170 175   170 169 174   151 150 155   172 173 177   163 164 169   146 149 154   172 175 180   163 166 171   141 144 151   165 168 175   173 176 183   148 151 158   165 168 177   168 171 180   143 146 155   157 160 169   164 167 176   138 141 150   150 152 164   172 174 185   137 137 147   143 143 152  
 174 174 176   165 165 167   152 152 154   176 176 178   165 165 167   148 148 150   179 179 181   175 175 177   157 157 159   169 169 171   179 179 181   157 157 159   163 163 165   176 176 178   156 156 158   162 162 164   186 185 190   157 156 161   160 159 164   189 188 193   163 162 167   155 154 159   188 187 192   166 165 170   166 165 170   178 177 182   169 168 173   160 159 164   169 168 173   168 167 172   154 153 158   164 165 169   173 174 179   144 147 152   166 169 174   169 172 177   140 143 150   159 162 169   174 177 184   142 145 152   156 159 168   175 178 187   137 140 149   151 154 163   168 171 180   134 137 146   146 148 160   173 175 187   136 136 146   142 142 152  
 181 181 183   171 171 173   165 165 167   182 182 184   168 168 170   155 155 157   181 181 183   180 180 182   160 160 162   165 165 167   177 177 179   157 157 159   161 161 163   179 179 181   165 165 167   169 169 171   190 189 194   162 161 166   160 159 164   187 186 191   165 163 168   151 150 155   181 180 185   164 163 168   160 159 164   170 169 174   174 173 178   160 159 164   170 169 174   173 173 178   157 156 161   163 164 168   177 178 183   141 143 148   159 162 167   173 176 181   143 146 153   154 157 164   175 178 185   143 146 153   153 156 165   181 184 193   142 145 154   152 155 164   179 183 192   148 151 160   148 150 162   173 175 187   141 141 151   140 138 149  
 178 178 180   168 168 170   166 166 168   179 179 181   167 167 169   160 160 162   180 180 182   181 181 183   158 158 160   161 161 163   178 178 180   162 162 164   163 163 165   181 181 183   165 165 167   162 162 164   185 184 189   159 158 163   154 153 158   182 181 186   164 163 168   149 148 153   177 176 181   166 164 169   153 151 156   170 169 174   174 173 178   158 157 162   170 169 174   184 183 188   156 155 160   167 168 172   186 187 192   151 154 159   159 163 168   180 183 188   154 157 164   153 156 163   176 179 186   150 153 160   143 146 155   173 176 185   147 150 159   144 147 156   173 176 185   157 160 169   141 143 155   159 161 173   156 154 165   126 124 135  
 177 177 179   163 163 165   165 165 166   175 175 177   164 164 166   160 160 162   176 176 178   176 176 178   161 161 163   160 160 162   179 179 181   164 164 166   162 162 164   181 181 183   168 168 170   162 162 164   187 186 191   162 161 166   156 155 160   184 183 188   169 168 173   153 152 157   180 179 184   173 172 177   150 149 154   178 176 181   171 169 174   154 152 157   164 163 168   189 188 193   147 146 151   172 173 177   189 190 195   159 162 167   159 162 167   182 185 190   162 165 172   150 153 160   171 174 181   157 160 167   146 149 158   173 176 184   168 171 180   144 147 156   164 167 176   167 170 179   139 141 153   154 156 168   172 170 181   140 139 150  
 184 184 186   168 168 170   169 169 171   179 179 181   165 165 167   162 162 164   180 180 182   181 181 183   165 165 167   165 165 167   179 179 181   161 161 163   158 158 160   184 184 186   168 168 170   165 165 167   189 188 193   162 162 167   157 156 161   184 183 188   170 169 174   157 156 161   181 180 185   176 175 180   153 152 157   178 177 182   170 169 174   152 151 156   158 157 162   192 191 196   146 145 150   168 167 172   181 182 187   158 160 165   151 153 158   178 180 185   164 167 173   153 156 162   168 172 178   163 166 172   146 149 157   168 171 180   174 177 186   142 145 153   153 156 166   167 171 180   137 139 151   146 149 160   181 182 192   153 155 165  
 190 190 192   168 168 170   167 167 169   181 181 183   162 162 164   155 155 157   182 182 184   186 186 188   158 158 160   167 167 169   180 180 182   158 158 160   157 157 159   188 188 190   155 155 157   157 157 159   189 188 193   157 156 161   156 155 160   180 179 184   167 166 171   160 159 164   182 181 186   177 176 181   159 158 163   167 166 171   179 178 183   158 157 162   156 155 160   196 195 200   159 158 163   158 157 162   179 180 184   160 161 165   148 149 153   180 181 185   164 165 170   156 157 162   157 160 165   162 165 170   148 151 158   162 165 172   172 175 182   143 146 153   151 155 164   172 176 185   144 148 157   137 142 151   180 186 196   131 139 148  
 191 191 193   163 163 165   160 160 162   183 183 185   169 169 171   157 157 159   176 176 178   175 175 177   156 156 158   161 161 163   181 181 183   154 154 156   166 166 167   190 190 192   162 162 164   159 159 161   193 192 197   164 163 168   158 157 162   181 180 185   172 171 176   161 160 165   177 176 181   175 174 179   160 159 164   163 162 167   189 188 193   157 156 161   150 149 154   193 192 197   158 157 162   166 165 170   173 174 178   155 156 160   146 147 151   178 180 183   166 167 172   146 147 152   150 152 157   169 173 178   146 148 156   152 155 162   174 177 184   139 142 149   142 146 155   175 179 188   146 150 159   138 145 153   165 172 182   139 148 157  
 185 185 186   154 154 155   152 152 154   180 180 182   170 170 172   156 156 158   172 172 174   170 170 172   160 160 162   161 161 163   185 185 187   153 153 155   175 175 177   194 194 197   170 170 172   162 162 164   188 187 192   167 166 171   159 158 163   182 181 186   181 180 185   162 161 166   168 167 172   171 170 175   160 159 164   156 155 160   194 194 199   156 155 160   148 147 152   189 188 193   156 155 160   162 161 166   187 188 192   168 168 173   145 146 150   166 167 171   173 174 179   155 156 161   156 159 164   176 179 184   143 146 153   144 147 154   178 181 188   142 145 152   137 141 150   178 182 191   150 154 164   142 146 155   160 167 177   147 154 164  
 187 187 189   158 158 160   156 156 158   180 180 182   165 165 167   151 151 153   170 170 172   170 170 172   160 160 162   160 160 162   183 183 185   150 150 152   170 170 172   189 189 191   165 165 167   157 157 159   180 179 184   166 165 170   152 151 156   172 171 176   179 178 183   157 156 161   160 159 164   176 176 181   158 157 162   151 150 155   190 189 194   158 157 162   155 154 159   191 190 195   164 163 168   157 156 161   177 178 182   174 175 179   149 150 154   153 154 158   173 174 179   157 158 163   158 161 166   177 180 185   141 144 151   137 140 147   176 179 186   151 154 161   135 139 148   170 174 183   155 159 168   139 143 152   152 159 169   156 163 173  
 185 185 187   163 163 165   161 161 163   179 179 180   164 164 166   157 157 159   179 179 181   176 176 178   163 163 165   165 165 167   182 182 184   153 153 155   163 163 165   187 187 190   160 160 162   156 156 158   181 180 185   174 173 178   153 152 157   168 167 172   179 178 183   155 154 159   160 160 165   193 192 197   155 154 159   151 150 155   183 182 187   161 160 165   162 161 166   188 187 192   180 179 184   155 154 159   158 159 163   176 177 181   160 161 165   155 156 160   178 180 185   152 153 158   152 155 160   178 181 186   146 149 156   139 142 149   168 171 178   161 163 171   134 138 147   155 159 168   161 165 174   137 141 150   136 142 152   169 175 185  
 187 187 189   169 169 171   165 165 167   178 178 180   164 164 166   162 162 164   182 182 184   171 171 173   165 165 167   172 172 174   183 183 185   159 159 161   158 158 160   189 189 191   158 158 160   161 161 163   174 173 178   176 175 180   157 156 161   171 170 175   184 183 188   154 153 158   156 155 160   195 194 199   156 155 160   158 157 162   179 178 183   162 161 166   162 161 166   176 175 180   187 186 191   150 149 154   170 171 175   180 181 185   158 159 163   154 155 159   188 189 194   150 151 156   145 148 153   177 180 185   158 161 168   147 150 157   164 167 174   171 174 181   137 141 150   145 149 158   171 175 184   142 146 155   129 133 144   178 182 193  
 177 177 179   165 165 167   155 155 157   181 181 183   164 164 166   158 158 160   175 175 177   171 171 173   162 162 164   168 168 170   175 175 177   163 163 165   152 152 154   194 194 196   158 158 160   161 161 163   179 178 183   175 174 179   165 164 169   175 174 179   174 173 178   157 156 161   169 168 173   187 186 191   160 159 164   155 154 159   186 185 190   162 161 166   152 151 156   167 166 171   181 180 185   150 149 154   166 166 171   178 179 183   153 154 158   147 148 152   185 186 191   154 155 160   155 158 163   176 179 184   159 162 169   144 147 154   153 156 163   169 172 179   150 154 163   141 145 154   177 181 190   140 144 153   130 133 144   173 176 188  
 184 184 186   165 165 167   146 146 148   180 180 182   168 168 169   161 161 163   175 175 177   168 168 170   168 168 170   172 172 174   181 181 183   164 164 166   151 151 153   190 190 193   161 161 163   164 164 167   184 183 188   168 167 172   158 157 162   180 179 184   181 181 186   155 154 159   160 159 164   178 177 182   161 160 165   153 152 157   187 186 191   164 164 169   152 151 156   169 168 173   181 179 184   155 154 159   156 157 161   176 177 181   156 157 161   147 148 152   180 181 186   159 160 165   158 161 166   170 173 178   165 168 175   144 148 154   151 154 161   173 176 183   150 153 163   136 140 149   173 177 185   141 145 154   141 143 155   167 169 181  
 190 190 192   169 169 171   151 151 153   183 183 185   164 164 166   159 159 161   175 175 177   164 164 166   159 159 161   165 165 167   185 185 187   160 160 162   155 155 157   187 187 189   165 165 167   165 165 167   189 188 193   180 179 184   159 157 162   178 177 182   194 193 198   165 164 169   157 156 161   179 178 183   162 161 166   153 152 157   181 180 185   169 168 173   154 153 158   170 169 174   184 183 188   161 160 165   150 151 155   178 179 183   167 168 172   157 158 162   181 182 187   164 165 170   147 150 155   144 147 152   171 175 181   144 147 154   149 152 159   186 189 196   149 153 162   141 145 154   174 179 188   160 164 173   135 137 149   159 159 171  
 177 177 179   163 163 165   157 157 159   188 188 190   158 158 160   152 152 154   176 176 177   166 166 168   158 158 160   164 164 166   191 191 193   163 163 165   164 164 166   189 189 191   164 164 166   154 154 157   176 175 180   187 186 191   155 154 159   155 154 159   180 179 184   166 165 170   158 157 162   179 178 183   162 161 166   153 152 157   172 170 175   172 171 176   154 153 158   167 166 171   182 181 186   162 160 165   154 155 159   179 180 184   168 169 173   152 154 157   169 170 175   170 171 176   151 154 159   145 148 153   179 182 189   142 145 152   143 146 153   187 189 197   151 155 164   145 149 158   166 170 180   168 172 180   143 143 155   153 153 165  
 171 171 173   154 154 156   153 153 155   189 189 191   159 159 161   158 158 160   180 180 182   161 161 163   170 170 172   174 174 176   192 192 194   162 162 164   162 162 164   193 193 195   164 164 166   153 153 155   177 176 181   188 187 192   159 158 163   162 161 166   186 185 190   166 165 170   161 160 165   193 192 197   164 163 168   154 153 158   163 162 167   176 175 180   154 153 158   164 163 168   180 179 184   163 162 167   161 162 166   179 180 184   168 169 173   151 152 156   161 162 167   177 178 183   156 159 164   151 154 159   183 186 193   145 148 155   141 144 151   177 180 187   157 161 170   144 148 157   151 155 164   165 168 177   143 143 155   140 140 152  
 174 174 176   153 153 155   152 152 154   190 190 192   160 160 162   163 163 165   185 185 187   158 158 160   166 166 168   173 173 175   183 183 185   159 159 161   151 151 153   195 195 197   166 166 168   162 162 164   177 176 181   181 180 185   157 156 161   168 167 172   187 186 191   159 158 163   155 154 159   188 187 192   165 164 169   155 154 159   157 156 161   182 181 186   157 156 161   165 164 169   183 182 187   168 167 172   160 161 165   175 176 180   175 176 180   167 168 172   167 168 173   181 182 187   145 148 153   136 139 144   177 180 187   149 152 159   148 151 158   169 172 179   172 176 185   148 152 161   146 150 159   173 176 185   143 143 155   143 143 155  
 177 177 179   160 160 162   164 164 166   196 196 198   155 155 157   157 157 159   187 187 189   165 165 167   162 162 164   178 178 180   187 187 189   169 169 171   150 150 152   199 199 201   164 164 166   164 164 166   179 179 184   189 188 193   164 163 168   160 160 165   174 173 178   162 161 166   161 160 165   176 175 180   168 167 172   158 157 162   155 154 159   187 187 192   162 160 165   169 169 174   189 188 193   174 175 179   162 163 167   169 170 174   169 170 174   163 164 168   161 162 167   183 184 189   148 151 156   146 149 154   175 178 185   158 161 168   160 163 170   163 166 173   179 183 192   143 147 155   136 140 149   172 175 184   154 154 166   138 138 150  
 169 170 174   148 149 153   151 152 156   167 168 172   179 180 184   158 159 163   196 197 201   152 153 157   156 157 161   167 168 172   195 196 200   164 165 169   162 163 167   187 188 192   161 162 166   152 153 157   179 180 182   184 185 187   159 160 162   164 165 166   175 176 178   163 164 166   166 167 171   189 190 194   156 157 161   161 162 166   165 166 170   192 193 197   171 172 177   161 162 167   199 201 206   155 156 161   160 161 165   172 176 179   176 180 183   153 157 160   141 144 149   184 187 192   128 131 136   156 159 164   177 180 187   170 173 180   149 152 159   160 163 170   194 197 206   145 148 157   140 143 152   176 179 188   157 160 169   137 140 149  
 167 168 172   165 166 170   166 167 171   186 187 191   165 166 170   150 151 155   189 190 194   164 165 169   157 158 162   162 163 167   180 181 185   158 160 163   153 154 158   188 189 193   162 163 167   162 163 167   170 171 173   183 184 186   170 171 173   176 177 179   187 188 190   166 167 169   160 161 165   175 176 180   167 168 172   162 163 167   158 159 163   183 184 188   158 159 164   146 147 152   185 186 191   157 158 163   148 152 155   167 171 174   179 183 186   149 153 156   140 143 148   189 192 197   142 145 150   157 161 166   154 157 164   172 175 182   157 160 167   152 155 162   180 183 192   149 152 161   149 152 161   177 180 189   162 165 174   153 156 165  
 152 153 157   156 157 161   157 158 162   181 182 186   157 158 162   151 152 156   192 193 197   172 173 177   167 168 172   172 173 177   182 183 187   170 171 175   153 154 158   192 193 197   160 161 165   166 167 171   166 167 169   178 179 181   167 168 170   167 168 170   182 183 185   159 160 162   159 160 164   173 174 178   180 181 185   166 167 171   159 160 164   190 191 195   162 163 168   146 147 152   178 179 184   171 172 177   139 143 146   154 158 161   176 180 183   146 150 153   141 144 149   186 189 194   156 159 164   159 162 167   166 169 176   181 184 191   158 161 168   156 159 166   184 187 196   158 161 170   149 152 161   171 174 183   171 174 183   139 142 151  
 165 166 170   161 162 166   165 166 170   175 176 180   167 168 172   151 152 156   195 196 200   163 164 168   164 165 169   171 172 176   176 177 181   162 163 167   140 141 145   184 185 189   157 158 162   170 171 175   166 167 169   178 179 181   170 172 173   167 168 170   189 190 192   165 165 168   166 167 171   176 177 181   182 183 187   161 162 166   152 153 157   190 191 195   162 163 168   146 147 152   168 169 174   179 180 185   153 157 160   152 156 159   180 184 188   155 159 162   148 151 156   173 176 181   162 165 170   158 161 166   168 171 178   180 184 190   149 152 159   149 152 159   175 178 187   155 158 167   135 138 147   147 150 159   175 178 187   145 148 157  
 159 160 164   157 158 162   169 170 174   168 170 173   164 165 169   139 140 144   191 192 196   157 158 162   167 168 172   180 181 185   195 196 200   176 177 181   158 159 163   196 197 201   166 167 171   167 168 172   176 177 179   180 181 183   167 168 170   153 154 156   180 181 183   153 154 156   158 159 163   162 163 167   191 192 196   164 165 169   147 148 152   186 187 191   160 161 166   149 150 155   162 163 168   186 187 192   162 166 169   146 150 153   182 186 189   161 165 168   154 157 162   164 167 172   172 175 180   162 164 169   147 150 157   190 193 200   162 165 172   147 150 157   164 167 176   168 171 179   147 150 159   144 148 157   176 179 188   149 152 161  
 156 157 161   159 160 164   165 166 170   176 177 181   164 165 169   152 153 157   196 196 201   163 164 168   154 155 159   167 168 172   190 191 195   162 163 167   159 159 164   192 193 197   156 157 161   138 139 143   172 173 175   171 172 174   159 160 162   145 146 148   186 187 189   166 167 169   179 180 184   182 183 187   192 193 197   166 167 171   146 147 151   187 187 192   163 164 169   158 159 164   158 159 164   185 186 191   156 160 163   140 144 147   183 187 190   155 159 162   150 153 158   161 164 169   185 188 193   162 165 170   132 135 142   186 189 196   158 161 168   143 145 153   160 163 172   175 179 188   151 154 163   140 143 152   179 182 191   136 139 148  
 168 169 173   167 168 172   164 165 169   173 174 178   160 161 165   159 160 164   188 189 193   151 152 156   165 166 170   172 173 177   188 189 193   152 153 157   155 156 160   195 196 200   172 173 177   157 158 162   167 168 170   178 179 181   163 164 166   148 149 151   196 196 198   165 166 168   165 166 170   163 164 168   179 180 184   157 158 162   145 146 150   183 184 188   164 165 170   158 159 164   149 150 155   175 176 181   160 164 167   148 152 155   189 193 196   156 160 163   150 153 158   157 160 165   188 191 196   155 158 163   148 151 158   179 182 189   152 155 162   151 154 161   166 169 178   181 184 193   151 154 163   138 140 149   177 181 190   148 151 160  
 170 171 175   167 168 172   178 179 183   167 168 172   163 164 168   163 164 168   191 192 196   163 164 168   159 160 164   178 179 183   184 185 189   168 169 173   149 150 154   193 194 198   167 168 172   165 166 170   157 158 160   182 183 185   153 154 156   137 138 140   199 200 202   164 165 167   158 159 163   163 164 168   183 184 188   152 153 157   149 150 154   181 182 186   172 173 178   159 160 165   150 151 156   189 190 195   160 164 167   154 158 161   181 185 188   160 164 167   157 160 165   153 156 161   184 187 192   148 151 156   151 154 161   170 173 180   164 167 174   160 163 170   146 149 158   179 182 191   156 159 168   139 142 151   167 170 179   161 164 173  
 165 166 170   165 166 170   174 175 179   180 181 185   161 162 166   160 162 165   181 182 186   165 166 170   145 146 150   176 177 181   165 166 170   172 173 177   146 147 151   193 194 198   168 169 173   161 162 166   164 165 167   179 180 182   157 158 159   151 152 154   197 198 200   165 166 168   164 165 169   164 165 169   184 185 189   156 157 161   154 155 159   176 177 181   170 171 176   164 165 170   160 161 166   196 197 202   161 165 168   155 159 162   173 178 181   162 166 169   157 160 165   156 159 164   183 186 191   144 147 152   154 157 164   170 173 180   174 177 184   169 172 179   140 143 152   187 191 200   156 159 168   154 157 166   159 162 171   170 172 182  
 153 154 158   156 157 161   173 174 178   174 175 179   164 165 169   163 164 168   189 190 194   169 170 174   149 150 154   175 176 180   166 167 171   162 163 167   157 158 162   178 179 183   173 174 178   151 152 156   163 164 166   177 178 180   163 164 166   161 162 164   185 186 188   158 159 160   170 171 175   174 175 179   180 180 185   164 165 169   164 164 169   164 165 169   158 159 164   158 159 164   154 155 160   173 174 179   153 158 160   151 155 158   165 169 172   172 176 179   150 153 158   142 145 150   177 180 185   158 161 166   158 161 168   151 154 161   169 172 179   151 154 161   134 137 145   180 183 192   147 150 159   141 144 153   145 148 157   177 180 189  
 155 156 160   156 157 161   182 183 187   155 156 160   167 168 172   159 159 164   197 198 202   157 158 162   165 167 170   183 184 188   168 169 173   164 165 169   160 161 165   182 183 187   177 177 182   154 155 159   153 154 156   167 168 170   155 156 158   161 162 164   182 183 185   164 165 167   173 174 178   166 167 171   188 190 193   159 160 164   167 168 172   184 185 189   183 184 189   158 159 164   157 159 164   191 192 197   167 171 174   154 159 162   153 157 160   185 189 192   150 153 158   133 136 141   168 171 176   167 170 175   166 169 176   145 148 155   185 189 195   148 151 158   150 153 162   174 177 186   164 167 176   149 152 161   135 138 147   177 180 189  
 154 155 159   154 155 159   186 187 191   149 150 154   166 167 171   154 155 159   198 199 203   154 155 159   171 172 176   185 186 190   163 164 168   171 172 176   151 152 156   199 200 204   171 172 176   165 166 170   163 164 166   180 181 183   157 158 160   163 164 166   188 189 191   177 178 180   164 165 169   141 142 146   181 182 186   155 156 160   167 168 172   172 173 177   175 176 181   153 154 159   157 158 163   183 185 190   165 169 172   151 155 158   136 140 143   186 190 192   152 155 160   141 144 149   170 173 178   166 169 174   146 149 156   133 136 143   182 186 192   143 146 153   145 148 157   151 154 163   168 171 180   149 152 161   146 149 158   182 185 194  
 153 154 158   155 156 160   182 183 187   160 161 165   162 163 167   151 152 156   188 189 193   158 159 163   169 170 174   170 171 175   165 166 170   159 160 164   152 153 157   198 199 203   167 168 172   162 163 167   162 163 165   194 195 197   164 165 167   158 159 161   177 178 180   171 172 174   159 160 164   141 142 146   197 198 202   163 164 168   171 172 176   172 173 177   175 176 181   148 149 154   157 158 163   190 191 196   153 157 160   158 162 165   142 146 149   192 196 199   148 151 156   146 149 154   175 178 183   166 169 174   152 155 162   144 147 154   179 182 189   157 160 167   153 156 165   159 162 171   181 184 193   152 155 164   146 149 158   178 181 190  
 159 160 164   151 152 156   196 197 201   164 165 169   158 159 163   153 154 158   183 184 188   165 166 170   150 151 155   172 173 177   169 170 174   155 157 160   158 159 163   196 197 201   168 169 173   159 160 164   160 162 163   180 181 183   156 157 159   158 159 162   176 177 179   165 167 169   163 164 168   153 154 158   202 203 207   160 161 165   159 160 164   154 155 159   179 180 185   156 157 162   156 157 162   189 190 195   154 158 161   159 163 166   151 155 158   190 194 197   137 140 145   148 151 156   166 169 174   179 182 187   158 161 168   147 150 157   187 190 197   160 164 170   159 163 172   151 154 163   181 183 192   136 139 148   140 143 152   176 179 188  
 158 159 163   141 142 146   193 194 198   158 159 163   159 161 164   159 159 164   178 178 183   153 154 158   144 146 149   178 179 183   167 168 172   154 155 159   153 154 158   192 193 197   164 165 169   157 158 162   165 166 168   191 192 194   151 152 154   155 156 158   193 193 196   160 160 163   141 142 146   161 162 166   203 204 208   164 164 169   164 165 169   159 161 164   193 194 199   165 166 171   152 153 158   171 173 178   161 165 168   154 158 161   148 152 155   190 194 197   146 148 153   157 160 165   156 160 165   174 177 182   141 144 151   143 146 153   180 183 190   152 155 162   150 153 162   141 144 153   184 187 196   134 137 145   155 158 167   170 173 182  
 163 164 168   145 146 150   197 198 202   162 163 167   163 164 168   162 163 167   181 182 186   156 157 161   156 157 161   186 187 191   169 170 174   156 157 161   148 149 153   190 191 195   162 163 167   159 160 164   151 152 154   190 191 193   167 168 170   162 163 165   173 174 176   170 171 173   161 162 166   144 145 149   186 187 191   149 150 154   155 156 160   159 160 164   200 201 206   162 163 168   153 154 159   169 170 175   180 183 186   158 162 165   148 152 155   185 189 192   144 148 153   150 153 158   151 154 159   184 187 192   138 141 148   150 153 160   168 171 178   163 166 173   151 154 163   136 139 148   189 192 201   154 157 166   161 164 173   153 157 166  
 162 163 167   148 148 153   200 201 205   160 162 165   156 157 161   156 157 161   184 185 189   168 169 173   156 157 161   188 188 193   168 169 173   161 162 166   148 149 153   191 191 196   159 160 164   160 161 165   148 149 151   189 190 193   167 168 170   168 169 171   173 174 176   175 176 178   164 165 169   148 149 153   195 196 200   159 160 164   158 159 163   152 153 157   190 191 196   144 145 150   147 148 153   163 163 168   184 188 191   158 162 165   155 159 162   184 188 191   146 149 154   140 143 148   142 145 150   191 194 199   143 146 153   155 158 165   154 157 164   178 181 188   153 156 165   128 131 140   175 178 187   163 165 174   149 152 161   139 142 151  
 163 164 168   142 143 147   191 192 196   156 157 161   160 161 165   163 164 168   184 185 189   160 161 165   145 146 150   181 182 186   163 164 168   167 168 172   149 150 154   195 196 200   160 161 165   164 165 169   161 162 164   198 199 201   153 154 156   161 162 164   180 181 183   174 175 177   153 154 158   165 166 170   189 190 194   161 162 166   160 161 165   148 149 153   191 192 197   144 145 150   162 163 168   172 173 178   187 191 194   154 158 161   152 156 159   180 184 187   160 163 168   151 154 159   137 140 145   181 184 189   138 141 148   156 159 166   146 149 156   179 182 189   144 147 156   133 136 145   162 165 174   158 161 170   150 153 162   132 135 144  
 174 175 179   145 146 150   188 189 193   158 159 163   170 171 175   175 176 180   187 188 192   154 155 159   144 145 149   182 183 187   165 166 170   174 175 179   152 153 157   199 200 204   160 161 165   166 167 171   162 163 165   195 196 198   155 156 158   156 157 159   158 159 161   187 188 190   176 177 181   147 148 152   187 188 192   166 167 171   161 162 166   142 143 147   191 192 197   143 144 149   163 163 168   157 158 163   196 200 203   153 157 160   146 150 153   166 170 173   165 168 173   161 164 169   140 143 148   181 184 189   150 152 160   155 158 165   141 144 151   187 190 197   149 152 161   149 152 161   153 157 166   171 174 183   151 155 163   136 139 148  
 174 175 179   147 148 152   188 189 193   153 154 158   159 160 164   163 164 168   183 183 188   156 157 161   150 151 155   188 189 193   167 168 172   176 177 181   147 148 152   193 194 198   150 151 155   158 159 163   159 160 162   207 208 210   153 154 156   154 155 157   172 174 176   190 191 193   152 153 157   132 133 137   191 192 196   169 170 174   157 158 162   134 135 139   190 191 196   146 147 152   167 168 173   148 149 154   184 188 191   151 155 158   157 161 164   172 176 179   172 175 180   165 168 173   138 141 146   179 182 187   170 173 180   139 142 149   124 126 134   199 202 209   160 163 172   145 149 158   133 136 145   188 192 201   140 143 152   145 148 157  
