P3
50 50
255
  90  95  72    95 100  76    94 100  74    84  90  63    79  85  57    96 103  72    92  99  64    87  95  55   106 114  74   109 116  82   123 130  97    98 104  74    73  79  52    84  90  64    96 102  74   116 123  91   105 112  79   115 123  86   124 133  92   102 110  70    94 101  67    88  95  63    77  84  55    67  72  49    65  69  52    64  69  54    62  66  53    68  71  60    75  78  65    74  78  63    67  71  53    77  82  59    76  81  57    84  93  63    71  81  47    83  92  61    83  92  64    72  81  55    82  90  67    60  68  44    44  53  26    48  57  27    79  89  56   115 126  87   106 117  75   122 134  88   109 119  77    76  83  48    85  92  57    87  95  58  
  95 100  77    83  88  65    84  89  65    88  94  67    76  82  54   104 111  80   118 126  91   111 119  80   110 118  81    97 104  70   106 113  80    84  91  61    70  76  49    81  87  61    80  86  58   114 121  90   124 131  97   122 129  94   122 130  91   106 114  75    99 105  72    93  99  69    87  93  66    80  86  62    79  83  65    88  92  77    76  79  66    64  67  55    67  71  56    76  80  65    59  64  46    60  65  44    72  78  54    81  89  60    75  84  53    94 103  74    86  95  69    77  85  61    92 100  77    65  73  50    48  56  32    77  86  57    95 104  72    82  92  56    98 109  67    91 102  59    86  96  56    73  80  45    76  84  48    99 107  70  
  68  73  51    76  81  58    76  82  57    87  93  66    86  92  64    88  95  63   106 114  79   129 137  99   109 117  80    88  95  60    89  96  63    76  83  53    75  81  53    86  92  64    78  84  56   106 113  82   122 129  96   126 133  98   125 133  95   108 116  79    67  74  40    72  79  46    78  85  56    81  86  62    75  80  59    77  81  64    61  65  51    58  62  48    60  64  49    70  74  57    57  62  42    55  60  39    63  68  46    56  64  37    79  88  57   107 116  87    85  94  66    71  80  54    90  97  74    83  91  68    63  71  47    71  80  52    78  88  56    78  88  52   104 115  75    80  91  49    64  74  34    65  73  37    69  77  41   104 112  75  
 100 105  83    62  67  45    66  71  48    90  95  70    74  80  52    66  73  42   112 119  85   117 125  88   109 117  80   107 114  80   102 109  76    83  90  60    73  79  51    82  88  60    76  82  54    84  91  59    88  95  62   113 121  85   125 133  96   101 109  72   120 127  93   114 121  91   100 106  79    95 101  77    75  80  58    70  74  57    51  56  41    57  61  46    63  67  52    59  63  47    58  63  43    62  67  47    57  62  40    77  84  57   103 112  83   109 118  90    92 101  75    86  94  70    85  93  70    69  76  54    58  66  42    52  60  36    74  83  54   110 119  86   102 112  76   103 113  74    86  95  59    68  75  41    73  80  44   101 109  72  
 106 111  89    83  88  65    86  91  67    88  94  67   112 118  90    96 102  71   114 121  88   118 125  90   107 115  78   112 119  85   102 108  76    90  96  66    84  90  62    78  84  56    72  78  50    69  76  44    66  73  40    91  99  63   105 113  76    99 107  70   110 117  83   107 114  82    90  97  68    99 105  81    87  92  70    88  92  73    71  75  58    70  74  57    69  73  56    48  52  35    48  53  33    58  63  42    73  78  55    97 103  78    91  96  69    80  86  58    80  86  60    73  78  55    54  59  36    30  35  13    56  61  39    58  64  40    83  89  62   106 112  82    85  92  60    96 103  69    89  97  62    74  81  47   102 109  73   119 127  90  
  98 103  81    75  80  58    77  82  58    63  69  42   122 128 100   118 125  94   123 130  97   122 129  95   110 116  82   119 126  93   102 109  78    92  99  69    86  92  64    76  82  54    71  77  49    72  79  48    72  79  47    79  86  52    85  92  59   109 116  82    90  97  64    99 106  76    90  96  68   108 114  88    88  93  70    71  76  54    52  57  38    63  67  50    79  83  66    73  77  60    62  67  47    47  52  32    74  79  56    99 105  80    86  92  64    95 101  75   100 106  81    72  77  54    59  64  42    64  69  47    37  42  20    44  49  27    60  66  41    63  69  42    88  94  66    79  87  56    75  82  51    69  76  42    75  83  47    94 102  65  
  86  91  69    82  87  65    64  69  45    74  80  52   101 108  77    98 105  72   128 134 101   116 123  89   120 127  93   110 117  84    95 102  71    87  94  64    72  78  50    68  74  46    76  82  54    78  85  53    67  74  42    70  77  44    77  84  50   120 126  93    90  97  64    73  79  49    97 103  75    87  93  66    71  76  53    68  73  51    58  63  42    64  69  49    76  81  61    86  91  71    72  77  57    46  51  31    50  55  32    70  76  51    74  80  52    87  93  67   115 121  96   102 107  84    69  74  52    63  68  46    42  47  26    36  41  19    50  55  33    55  60  37    65  71  45    63  69  43    92  98  69   108 115  81    88  95  61    77  84  50  
  93  98  76    83  88  64    83  89  62    83  90  60    95 102  70    94 101  68   111 118  84   105 112  79    91  97  64    88  95  62    79  86  55    71  78  48   108 114  86   109 115  87    84  90  62    68  75  44    69  76  44    74  81  48    89  96  63    94 101  68    74  81  50    67  74  44    71  77  49    89  95  68    62  68  42    53  58  35    62  67  45    55  60  40    63  68  48    70  75  55    61  66  46    40  45  24    39  44  22    48  54  29    61  67  41    97 103  78    88  93  70    55  60  38    55  60  38    70  75  53    49  54  34    41  46  26    48  53  32    50  55  33    63  68  46    77  82  60   105 111  85   105 112  79    86  93  59    68  75  41  
 112 117  94    88  94  68    94 101  71    79  86  54    86  93  59    99 106  72   112 119  85   101 108  74    88  95  62   119 126  95    99 106  75    54  61  30    77  84  53   126 133 102   106 113  82    91  98  67   110 117  86    93 100  68    80  87  54    85  92  59    97 104  73    80  87  56    74  80  52    95 102  75    64  70  44    55  60  38    62  67  44    59  64  42    59  64  42    63  68  46    62  67  47    57  62  42    58  63  42    52  56  32    46  50  25    81  85  60    91  95  73    91  94  72    70  73  52    55  58  39    64  67  48    48  50  32    46  49  30    46  49  30    52  55  36    60  63  45    74  78  55    66  72  42    61  68  34    67  74  40  
 104 111  84    96 103  74   115 122  90   102 109  75   102 110  73    97 105  68    97 105  69    92  99  66    95 102  70    89  96  65    64  71  40    64  71  40    46  53  22    61  68  37    90  97  66   105 112  81    86  93  62    79  86  55    66  74  41    90  97  64   103 110  79    75  82  52    77  83  55    67  73  47    84  90  64    50  55  32    60  65  42    83  88  66    72  77  56    66  71  50    66  71  51    73  78  58    81  86  65    78  82  59    79  83  59    84  88  65    76  80  58    85  88  67    67  70  50    94  97  78    71  74  55    48  51  34    44  47  30    53  55  40    52  54  40    39  42  27    39  43  21    58  65  34    89  96  63   103 110  76  
 113 119  91   116 123  91   121 128  94   112 120  84   120 128  89   103 111  72   100 108  72    88  95  63    83  90  59    77  84  53    71  78  47    76  83  52    94 101  70   117 124  93    89  96  65    91  98  68    85  92  61   105 112  81    80  87  56    98 105  74    91  98  67    75  82  52    76  82  54    56  62  34   119 125  97    57  63  37    83  89  64    95 100  77    82  87  65    73  78  56    66  71  51    72  77  57    79  84  63    86  91  68   105 109  86    96 100  78    52  56  33    45  48  27    49  52  32    95  98  79    78  81  64    57  60  43    53  55  40    66  67  54    65  67  54    60  62  49    61  65  45    85  91  62   107 114  81   108 115  81  
 134 141 110   130 137 104   116 123  88   108 116  78   122 130  89   111 119  79   108 116  79    92  99  67    91  98  67    66  74  43    70  77  46    65  72  41   107 114  83   126 133 102   114 121  90   138 145 114    92  99  68    88  95  64    82  89  58    78  84  54    99 106  75    97 104  74    81  87  59    92  98  69   117 123  95    83  89  63   103 109  84    79  84  61    70  75  52    74  79  57    72  77  57    77  82  62    80  85  65    75  79  58    83  88  65    87  91  68    60  64  41    52  55  34    62  65  46    48  51  32    65  68  51    49  51  35    35  37  24    36  38  26    32  34  23    52  54  43    59  62  45    54  60  33    56  63  31    57  64  30  
 118 125  92   118 125  92   124 131  96   124 132  93   122 130  89   104 113  70   126 134  95   133 140 109   100 106  78    85  91  63    81  88  57    57  64  33   101 108  77   116 123  92   111 118  87   131 138 107   119 125  95    87  93  65    75  81  53    85  91  63    90  98  67    93 100  70    74  80  52   104 110  82    85  91  63    98 104  76   104 110  82    69  75  49    55  60  36    66  71  49    71  76  56    76  81  61    78  83  62    68  72  50    75  78  56    85  89  66    83  87  65    56  59  38    68  71  52    59  62  43    75  78  61    63  66  49    47  49  35    40  42  30    29  30  22    55  56  48    62  65  49    62  68  41    82  90  57    75  82  48  
 109 116  86    99 106  75   118 125  91   120 128  92   110 118  79   103 111  70   138 145 109   126 133 103    96 102  74    87  93  65    82  88  60    87  94  63    79  86  55    96 103  72   134 141 110   115 122  91   110 116  86    76  82  54    65  71  43    83  89  61    68  74  45    72  78  50    69  75  49    87  93  66    88  95  66   108 114  86   114 120  92    81  87  60    51  57  31    54  59  36    56  61  39    57  62  40    57  62  40    69  73  51    85  88  67    86  89  68   111 114  93    65  68  47    49  52  32    66  69  50    58  61  44    50  52  39    43  45  32    45  47  35    32  33  25    50  51  43    58  61  45    79  85  58    96 103  71    79  86  52  
  88  93  68    81  85  60    87  91  65   106 111  82   128 133 101    97 102  70   123 129  98    95 101  74    84  90  64    96 102  74    98 104  76   100 106  78    87  93  65    90  96  66   112 119  88   130 137 106   120 127  96    81  88  57    71  78  47    52  58  30    62  67  44    70  75  53    86  91  68    74  80  55    86  92  64   106 112  84    84  91  60    85  92  61    99 106  75    71  77  49    41  47  21    48  53  30    54  59  36    65  69  47    74  77  57    66  69  48    69  72  53    64  67  48    60  63  44    59  62  43    62  65  48    44  47  31    38  40  27    33  35  23    33  35  24    47  49  38    61  64  47    87  92  64   110 116  83    75  81  44  
  84  88  63    79  83  58    78  82  56    85  90  60   106 111  81   108 113  81   131 136 107    93  99  72    82  88  62    94 100  72    93  99  71    94 100  72    81  87  59    76  83  52    91  98  67   141 148 117   115 122  91   100 107  76    87  94  63    81  87  59    72  77  55    71  76  56    71  76  54    76  81  58    84  90  64    71  77  49    52  59  28    69  76  45    77  84  53    65  71  43    90  95  70    56  62  37    41  46  23    50  54  32    78  81  61    64  68  48    53  56  37    52  55  36    48  50  32    59  62  43    53  56  39    51  53  40    37  39  26    26  28  17    26  28  17    51  53  42    85  88  71    82  87  60    70  76  43    83  89  52  
  93  98  68    75  80  50    61  66  34    65  71  37    89  95  61   112 118  82   117 123  90   108 115  84    87  94  63    61  69  37    88  95  64    72  79  48    73  80  49    84  91  60   107 114  83    92  99  68   100 107  76   100 107  76    97 103  74    55  62  35    64  69  47    59  64  44    40  45  22    52  57  32    66  72  46    66  72  44    76  83  52    81  88  57    90  97  66    77  83  55    95 101  75   114 120  95    77  82  59    48  52  30    85  88  67    92  95  74    79  83  62    70  73  54    66  69  52    67  70  53    53  56  39    55  58  42    40  42  29    40  42  29    33  35  22    29  31  20    71  73  56   106 110  85    82  87  56   123 129  95  
  90  96  62    87  92  58    80  86  50    75  81  43    86  92  54   127 134  93   121 128  91   112 119  86   113 120  89   112 119  88    89  96  65    82  89  58    86  93  62    89  96  65    99 106  75   103 110  79    87  95  63    94 100  71    88  94  66    85  91  64    61  66  44    70  75  54    52  57  35    48  53  30    62  68  42   103 109  83   148 154 126   110 116  88    85  92  63   103 109  83    87  93  67   119 125 100   111 116  93    59  62  41    52  55  34    64  67  46    57  60  39    44  47  28    64  67  50    57  61  44    63  65  49    66  68  54    50  52  39    34  36  23    25  27  14    34  36  25    61  63  47    70  74  51    63  68  39    86  91  59  
  84  91  50   112 119  78   125 132  91   106 113  71    95 102  60   145 152 108   130 138  97   101 109  73   107 114  80   104 110  78    73  80  47    76  83  50   101 108  75   105 112  81   103 110  79   104 110  82    89  95  67    83  89  62    72  78  52    84  89  66    86  91  70    57  62  42    44  49  28    66  71  48    95 101  76   113 119  93   118 124  96    95 101  73    82  88  60    99 105  79    91  97  72    75  80  57    55  60  37    45  49  26    32  36  13    36  40  19    49  52  31    42  45  26    55  57  40    46  49  31    62  64  50    53  55  40    51  53  39    46  48  34    53  55  42    64  67  54    56  59  43    50  53  32    58  62  37    54  58  27  
 112 119  77   121 128  86   130 137  95   120 127  85   108 115  72   127 134  90   104 112  70   109 117  80   102 109  74    69  76  42    82  89  56    83  90  57   126 133 101   118 125  94   104 111  82    80  86  58    96 102  76    79  85  59    69  75  49    57  63  39    66  71  51    50  55  35    50  55  35    55  60  38    73  78  55    96 101  78   107 113  87   123 129 103   104 110  84    78  84  58    77  82  59    72  77  55    62  67  44    74  78  55    73  77  54    43  46  25    48  51  30    55  58  39    58  60  43    73  76  59    30  32  18    48  50  36    69  71  57    49  51  38    44  47  34    66  68  55    60  62  47    48  52  31    51  55  30    45  50  18  
 131 138  97   107 114  73   101 108  67   104 111  69   106 113  71    99 106  64    79  85  45    84  90  53    85  91  55    94 100  64    82  88  54    90  95  63   101 106  75    80  85  55    59  63  36    94  99  72    88  93  68    89  93  69    85  89  66    95  98  77    64  67  49    59  62  44    58  61  42    52  55  35    63  66  46    85  88  67    97 101  77    98 102  79    72  76  53    77  81  58    84  88  65    74  78  55    73  77  54    71  75  51    89  93  68    74  78  55    71  74  54    62  65  46    42  45  27    49  52  35    46  48  34    44  46  32    44  46  32    39  41  27    50  52  38    61  63  49    54  57  38    48  52  28    46  51  20    68  74  40  
 109 115  78    93  99  63    89  95  58    83  89  51    88  94  56    99 105  67   101 107  70    93  99  63    91  97  61   106 113  78   104 109  76    98 103  71    82  86  58    60  64  37    50  54  28    50  54  29    72  76  53    85  88  66   100 103  82    77  80  61    59  62  45    67  70  53    64  67  48    53  56  37    52  55  36    57  60  41    58  62  40    66  69  47    73  77  54    72  76  53   117 121  98   121 125 102    87  91  68    78  82  57   108 112  87   120 124  99   103 107  85    70  73  53    48  52  34    39  41  26    39  41  27    44  45  32    44  46  32    57  59  45    71  73  59    62  64  49    47  50  30    41  46  18    60  66  33   114 121  85  
 111 116  84   101 106  74    82  87  55    71  76  44    88  94  60   101 107  73    95 100  67    89  95  61    72  78  44   118 123  91    92  97  66    99 104  74    94  98  70    61  65  38    56  60  35    51  55  32    57  60  39    78  81  61    96  99  80   101 104  85    82  85  68    79  82  65    62  65  48    51  54  37    53  56  37    52  55  36    52  55  36    64  67  47    67  70  49    64  67  46    96  99  78   117 120  98   127 131 107   115 119  93   110 114  87   101 105  80    98 102  79    63  66  46    40  42  25    57  59  45    57  58  45    46  48  35    51  53  39    49  51  35    52  55  38    64  67  49    57  61  38    61  66  35    81  87  52   107 114  74  
  94  98  73   103 107  82    73  77  52    74  77  52    78  82  55    72  76  49    89  93  65    84  89  58    70  75  44    99 104  74    80  84  57    88  92  65    92  96  71    77  81  56    56  60  37    45  48  27    54  57  38    68  71  52    75  78  59    67  70  51    99 102  85    97 100  83    76  79  62    55  59  41    51  54  37    55  58  41    64  67  50    71  74  56    66  69  50    70  73  53    70  73  52    67  70  48    73  77  53   113 117  90   137 142 112   114 118  92    85  89  66    65  68  48    58  61  44    46  48  34    67  69  56    60  62  49    59  61  47    64  66  50    59  62  45    51  54  35    57  61  36    65  71  38    88  94  57   130 137  96  
  76  79  58    81  84  63    81  84  64    73  76  55    65  68  46    64  67  46    72  75  52    85  87  62    76  79  53    86  89  62    70  72  48    79  81  57    91  93  71    82  84  62    57  59  38    51  53  32    62  63  45    70  71  54    75  76  60    68  69  53    88  89  73    87  87  72    69  70  54    48  49  35    36  37  23    35  35  22    46  47  33    53  54  39    55  56  40    70  71  53    57  59  38    55  57  36    60  62  39    96 100  72   118 123  93   129 133 106   131 135 111    97 101  80    70  73  55    54  56  42    61  63  49    55  57  43    49  51  37    59  61  45    49  52  34    37  40  19    55  59  34    76  82  49   101 107  69   118 125  83  
  62  65  46    62  65  48    85  88  71    79  81  65    63  66  49    63  66  48    59  61  42    71  73  52    69  71  49    73  75  53    55  57  36    64  65  45    71  73  53    89  90  72    95  96  78    86  87  69    72  73  57    67  68  52    64  65  49    66  67  51    96  97  81    79  79  64    57  58  43    44  45  31    37  38  24    34  35  21    44  45  31    59  60  46    68  69  55    67  68  53    56  58  39    62  64  43    58  60  37    80  84  56    96 101  69   110 115  85   110 114  90    72  76  55    65  68  50    80  82  68    54  56  43    48  50  37    48  50  36    54  56  40    47  50  31    56  59  37    81  86  61    90  96  64   118 124  88   120 126  88  
  57  60  43    67  69  55    70  72  58    84  86  72    70  73  56    51  54  37    64  66  49    58  59  41    61  62  44    72  73  55    50  51  33    59  60  43    59  60  42    74  75  57   102 103  87    88  89  73    64  65  51    66  67  53    63  64  50    71  72  58   115 116 100    75  76  60    43  44  30    41  42  28    46  46  34    45  45  33    47  47  35    48  49  36    51  51  37    42  43  27    44  45  26    50  52  30    47  49  26    53  57  28    95 100  69   116 121  92    93  97  73    64  68  47    61  64  46    45  47  33    45  47  34    43  44  31    55  58  42    49  52  34    42  45  26    74  77  56    88  92  68    81  86  58   100 105  73    77  83  47  
  68  71  54    60  62  48    64  66  52    72  74  60    67  69  55    63  65  51    62  64  50    50  51  37    51  52  38    64  65  51    47  48  34    54  55  42    52  53  39    62  62  49    83  84  70    67  67  54    49  50  36    62  63  49    59  60  46    60  62  47    97  98  82    63  64  48    44  45  31    51  51  39    49  49  37    39  39  29    38  38  27    31  31  19    25  26  12    32  33  19    46  47  31    53  55  36    68  70  48    76  80  51   101 106  74   103 108  78    87  91  67    70  74  53    59  62  45    44  46  32    40  42  29    44  46  33    63  66  50    52  54  36    42  45  24    73  77  54   104 108  85   123 127 104    98 102  76    74  79  49  
  64  67  50    45  48  31    65  68  51    62  65  48    62  65  48    75  78  61    56  57  44    54  54  42    45  45  33    46  46  34    40  40  28    40  41  27    45  46  32    54  55  40    50  51  37    48  49  35    56  57  43    67  68  54    73  74  60    70  71  57    72  73  57    61  62  46    63  64  50    68  68  55    53  53  41    44  44  34    55  55  45    55  55  44    49  49  36    58  59  43    62  63  45    80  82  61   104 106  83   105 109  79   105 110  79    82  87  58    80  83  58    69  73  52    51  53  36    53  55  41    47  49  36    55  58  44    67  70  54    63  67  48    58  61  40    75  79  56   105 108  88   132 135 116    92  96  74    58  62  37  
  40  43  23    47  50  31    57  60  41    69  72  53    68  71  54    61  64  47    68  70  54    87  87  75    68  68  56    54  54  42    56  57  43    51  52  38    63  64  50    83  84  70    60  61  47    67  69  52    77  78  63    64  65  51    68  68  54    61  62  48    58  59  43    57  58  42    61  62  48    57  57  44    40  40  28    53  53  43    73  73  63    54  54  43    58  59  46    62  63  47    53  54  36    92  94  73   116 119  94   112 117  86   141 147 114   109 114  83    77  81  56    76  80  58    61  64  46    41  44  29    42  44  30    50  52  38    49  52  36    57  60  40    61  64  43    66  70  47    80  83  63    69  72  54    55  58  39    46  50  29  
  76  80  57    51  55  33    68  71  50    88  91  70    69  72  51    54  57  36    68  71  54   116 118 104   126 128 114    69  71  55    44  47  28    48  51  32    71  74  53    86  89  68    71  74  53    71  74  55    94  97  78    82  85  68    63  65  51    44  46  32    44  47  30    47  50  31    59  62  45    58  60  46    42  44  30    58  60  46    56  58  45    46  48  35    54  56  40    46  49  30    49  53  30    66  70  45    88  92  66   130 134 104    73  79  45    94  99  67   111 116  87    70  74  50    47  50  28    61  64  45    65  68  49    69  72  55    56  59  41    60  63  43    70  74  51    70  74  49    55  58  36    55  58  38    54  57  36    58  61  40  
 128 132 107   116 120  96   117 121  98    86  90  68    54  57  36    51  54  33    44  47  26    51  54  36    91  94  75    57  60  39    53  57  34    49  53  29    80  84  59    96 100  75   100 104  81    80  83  61    65  68  48    56  59  41    56  59  42    45  48  31    45  48  29    46  49  30    49  52  35    52  54  39    44  46  32    55  58  45    60  63  49    61  63  48    57  60  41    54  57  36    61  65  42    51  55  29    58  62  34   132 137 106   100 105  74    80  85  53    78  83  54    90  94  69    83  86  64    60  63  42    66  69  50    54  57  38    60  63  44    67  70  50    63  67  44    71  75  52    60  64  41    57  60  39    60  63  42    43  46  26  
 115 118  92   105 109  83   102 106  81    64  68  44    51  55  32    65  69  46    51  56  32    52  56  33    88  92  68    70  74  49    51  55  28    70  75  47   116 121  91   105 109  81    90  94  67    70  74  47    76  80  55    62  66  44    59  62  42    88  91  72    65  68  49    65  68  47    54  57  38    60  63  45    55  59  42    59  61  47    63  65  50    61  64  47    56  59  41    60  63  43    62  66  43    61  65  39    56  61  32    82  87  55    85  90  58    87  92  60    64  68  39    78  82  56    86  90  67    82  85  63    71  74  55    55  58  39    70  73  54    76  78  58    66  69  48    81  84  63    68  71  49    66  69  49    90  93  74    93  96  77  
 106 111  82    82  86  59    79  83  57    69  74  49    69  74  50    74  78  55    60  64  38    60  64  36    91  96  66   116 121  91    96 101  69   126 132  99   108 114  81    84  89  57    74  79  49    55  59  30    72  76  50    64  68  44    55  59  37    90  93  72   101 104  83    89  92  71    56  59  40    57  60  42    59  62  45    64  67  50    71  73  56    70  73  56    75  78  59    75  78  57    57  61  38    86  90  66    79  83  57    99 104  75    80  85  55    71  76  46    69  73  47    87  91  67    79  82  60    61  64  45    57  60  41    56  59  40    60  63  44    60  63  44    58  61  40    70  73  52    63  66  47    73  76  58    64  66  50    80  82  65  
  97 102  70    77  82  52    82  87  58    93  97  71    76  80  55    63  66  41    73  78  49    99 104  70   134 140 104   125 131  95    78  84  48   101 107  71    93  99  63    75  81  47    86  91  59    58  63  33    49  53  26    70  74  50    83  88  64    84  87  66   113 116  95    93  96  75    51  54  33    46  49  30    52  54  36    63  66  47    76  79  60    91  94  75   100 103  82    90  93  72    62  66  43    83  87  63    80  84  58   111 116  87    81  86  56    76  81  51    69  73  47    62  66  42    64  67  45    73  76  57    51  54  35    57  60  42    50  53  36    57  60  43    55  58  40    58  61  42    61  63  45    49  52  35    60  63  46    87  90  73  
  60  66  32    74  79  46    88  93  62    89  93  65    59  63  38    53  57  31    86  92  60   115 121  84   153 160 122   115 120  83   107 113  75   108 114  76   112 118  81    80  86  51    82  87  55    70  75  45    80  84  57    96 100  76    94  98  75    77  81  59    86  89  68    82  85  64    66  69  48    67  70  50    60  63  44    62  65  46    68  71  52    87  90  70    93  96  75    88  91  70    69  73  50    63  67  43    71  75  50   108 112  85    73  77  50    68  72  45    62  66  42    66  70  47    69  72  51    62  65  46    55  58  41    55  58  41    50  53  36    71  74  57    61  64  47    54  57  39    62  65  49    51  53  39    53  55  41    50  52  38  
  69  73  38    95  99  66    98 102  70    76  78  49    65  68  41    84  87  60   103 107  76   112 119  80   145 152 111   119 126  85   125 131  93   114 120  83   113 119  84   104 110  77    80  85  54    56  61  34    73  77  52    73  77  53    77  81  58    92  95  73    61  65  42    69  73  50    80  84  61    84  87  66    69  71  51    70  73  52    72  75  54    83  87  65    83  87  64    91  95  72    68  72  49    73  77  53    88  92  67    98 104  78    77  82  57    75  81  55    68  74  49    80  85  62    66  71  49    37  42  20    48  53  33    46  50  31    46  50  33    65  69  52    57  61  44    47  51  34    46  50  33    41  45  30    29  33  18    40  44  29  
  85  89  52   103 107  72    91  95  61    63  66  35    94  97  68   138 141 111   122 126  93    83  89  52    71  77  40    90  96  58   116 122  86   128 133 100    93  98  67    66  71  43    64  68  41    70  74  49    86  90  68    92  95  74   101 104  85    95  98  77    62  66  43    61  65  42    70  74  51    69  73  50    58  61  40    80  83  62    96 100  77   104 108  85    99 103  80   109 113  90    62  66  43   103 107  84   116 120  95    64  70  44    52  58  32    63  69  43    56  62  37    67  72  49    53  58  36    48  53  31    50  55  35    55  59  40    55  59  42    62  66  49    67  72  54    55  59  43    26  30  15    33  37  23    41  45  30    53  57  42  
 134 138  99   114 118  82    86  90  56    71  75  42    92  95  64   144 147 116    82  87  53    76  82  46    79  85  49    91  97  63   108 113  81    65  70  39    48  52  24    49  53  27    61  65  41    65  68  47    70  73  53    88  91  72    85  88  70    61  64  45    68  72  49    60  63  38    64  68  43    63  67  42    63  67  42    97 101  76   130 134 109   105 109  84    90  94  69    54  58  33    52  56  33    88  92  69    81  85  62    65  71  45    59  65  39    55  61  35    54  60  34    63  69  43    49  54  30    45  50  27    42  47  25    46  51  30    49  54  34    69  73  55    79  83  66    32  36  21    34  38  23    38  42  28    36  40  25    43  47  32  
  98 103  62   113 118  79   106 110  74   104 107  72   120 124  91   117 120  87    93  97  64    96 102  68    91  97  63    92  97  65   102 107  78    78  83  56    76  80  56    59  62  41    55  58  39    52  55  36    79  82  63    94  97  80    64  67  52    61  64  47    76  80  57    69  73  48    73  77  52    78  82  57    75  79  54   107 111  86   117 121  96    80  84  59    75  79  54    42  46  21    40  44  21    68  72  50    64  68  45    63  69  43    79  85  59    85  91  65    67  73  47    57  63  37    55  61  35    63  68  45    58  63  40    49  54  32    87  92  71    83  88  68    44  48  31    28  32  17    29  32  17    25  29  14    46  50  35    51  55  40  
 114 117  77   113 115  76   104 106  68   101 103  66   132 134  97   110 112  75   104 108  73    78  84  51    87  92  60    88  93  63    83  88  61    73  77  53    78  82  60    74  77  56    53  56  37    71  74  55    90  93  76    70  73  56    54  57  40    42  45  26    53  57  32    65  69  42    70  74  47    88  92  65    99 104  74   122 127  97   108 113  83    87  92  63    68  72  45    54  58  32    63  66  43    68  72  50    58  61  39    74  80  55    87  96  67    78  87  58    57  66  37    53  62  33    58  67  38    46  55  28    66  74  48    80  88  64    79  87  63    77  85  63    58  66  45    41  48  30    36  43  25    39  46  28    45  52  34    50  57  39  
 132 134  94   116 118  78   121 123  84   122 124  85   144 146 108   110 112  75   100 102  67    94  99  66   108 113  80    99 104  74    73  76  50    61  65  40    61  65  43    71  74  53    75  78  59   100 104  84    83  86  67    48  51  32    55  58  39    45  48  27    84  88  62    92  96  69    71  75  48    82  87  57   114 119  89   133 138 108    91  96  66    64  69  39    55  60  32    66  70  45    68  71  48    59  62  40    75  78  56    86  92  66    99 107  79    93 102  73    59  68  39    45  54  25    65  74  45    60  69  40    81  90  61    80  89  62    69  77  52    81  89  66    48  56  35    33  40  22    43  50  32    48  55  37    52  58  40    64  72  51  
 128 130  90   131 133  93   138 140 100   146 148 108   140 142 102   106 108  68    91  96  57   100 106  71   104 110  76    92  97  65    75  80  50    76  80  54    76  80  56    72  76  53   108 112  89   102 106  83    66  70  46    57  61  36    57  61  36    77  81  54    67  71  44    72  77  49    67  72  42    91  96  64   116 121  89   111 116  84    76  81  49    69  74  43    51  55  27    59  63  36    64  68  43    59  63  41    63  67  45    78  86  59    94 103  73    82  91  60    56  65  34    52  61  29    79  89  56    70  79  48    60  69  38    69  78  48    92 101  73    83  91  67    51  59  36    63  71  50    49  57  36    59  67  45    59  67  44    72  80  57  
 111 113  73   135 137  97   121 123  83   129 130  90   108 110  70    95  98  58   103 105  66   104 109  73   102 108  72    90  96  62    81  86  54    78  82  53    66  70  43    92  96  71   111 115  90    92  97  70    69  73  45    65  70  40    67  72  40    80  85  53    70  75  46    57  62  34    72  77  47   104 109  78   121 126  94   109 115  81    90  96  62    63  68  36    74  79  48    71  75  48    53  56  32    72  76  54    87  91  69    86  91  65    87  96  65    58  67  36    50  60  26    67  77  43    93 103  69    70  80  46    57  67  33    73  83  50    77  86  57    68  76  51    66  74  51    60  68  47    34  42  20    58  66  43    82  90  67    71  79  56  
  95  97  57   121 123  83   110 112  72   110 112  70    92  95  52    92  95  52    97 103  62   101 108  66   115 121  82   104 110  73    90  96  63    84  89  57    85  90  59   114 119  89    91  96  66    86  91  59    81  86  53    71  77  42    86  92  55    69  75  39    69  74  45    65  69  41    88  93  63   101 106  75   107 113  79    74  80  46    75  81  46    74  80  47    79  84  53    83  87  59    57  61  36    79  83  60    86  90  68    76  84  57   102 111  80    76  86  51    63  73  39    68  78  42    92 102  64    88  98  63   127 137 102    94 104  71    92 101  71   108 117  89    78  87  62    39  47  24    52  61  37    56  64  40    67  75  51    54  62  38  
 117 119  78   113 116  73   108 111  68    93  96  53    94  97  54   112 114  72   108 111  71   116 121  82   134 140 102   106 111  75    69  75  41    62  68  35    94  99  67    99 104  72    79  84  52    74  80  46    78  84  50    90  96  59   100 106  68    83  89  53    75  81  47    84  89  57    97 102  70    85  90  58   107 112  80    78  83  51    78  83  50    75  80  48    83  88  57   109 114  84    73  77  50    83  87  60   108 113  86    89  97  68   105 114  83    64  73  42    58  68  34    70  80  45    82  92  57    68  78  43    87  97  63    70  79  46   104 113  83    97 106  78    74  82  57    54  62  39    57  65  42    63  71  48    76  84  61    90  98  75  
 123 126  81   111 114  69   135 138  93   136 139  96   140 143 100   149 151 111   124 129  90   110 116  81   108 114  80    96 102  68    61  66  34    67  72  40   107 112  80    94 100  67   102 109  75    75  81  46    89  95  61    93  99  64    92  98  62    77  83  45   101 108  66   120 127  87    90  96  59   111 116  83   107 112  82    92  98  70    79  85  59    85  91  64    83  89  59    87  97  64    69  79  43    92 103  65   100 110  72    78  88  55    77  86  57    78  87  58    68  77  48    56  65  36    62  71  42    76  85  56    63  72  43    73  81  53    94 103  76    90  98  73    60  68  44    77  85  62    65  73  54    56  63  47    67  74  56    64  71  51  
 110 113  68   124 127  82   140 143  98   134 137  93   126 128  88   131 133  93   131 134  96   117 122  87   101 107  73    82  88  54    67  73  39    90  96  62   117 123  89   112 118  84    99 105  71    91  97  63    77  83  49    96 102  68   118 124  90   103 109  72   103 110  67   110 117  74    91  97  59   106 112  78   105 109  81   103 108  85    97 102  79    70  75  52    69  76  49    79  89  55    78  88  50    85  97  53    94 106  62    88  97  63    69  77  50    72  81  54    69  78  51    62  71  44    72  81  54    63  72  45    59  68  41    57  65  39    84  92  68    76  84  60    52  60  36    57  66  43    63  71  51    48  55  40    44  51  36    35  42  24  
  98 101  58   121 123  78   120 123  79   124 127  86   124 126  87   119 121  82   124 129  92   124 130  93   100 106  70    75  81  45    95 101  65   108 114  78   119 125  89   133 139 103    75  81  43    90  96  58   120 126  88   114 120  82   102 108  70   117 123  85   107 114  72   103 109  69   105 111  75   113 119  88    96 100  73    69  74  52    67  72  50    68  73  51    88  96  69   137 146 115   117 127  92    98 109  68    98 109  67   104 113  79    80  89  62    70  79  52    56  65  38    51  60  33    75  84  57    61  70  43    88  97  70    86  95  68   111 120  93    93 101  77    74  82  58    44  52  28    48  55  34    65  72  54    47  54  35    39  47  24  
 119 121  81   143 145 105   132 134  94   116 118  79   107 109  71   106 107  73   112 114  79   105 110  73   102 108  70   110 116  78   118 124  86   126 132  94   134 140 102   100 106  68    78  84  46   105 111  73   130 136  98   124 130  92   123 129  90   143 149 111   154 161 120   116 122  85   102 107  73    96 100  72    89  93  67    64  69  47    62  67  45    76  81  59    95 102  77    91 100  69   103 114  78    97 108  67    77  88  47    92 101  67    77  86  58    76  85  58    65  74  47    58  67  40    73  82  55    57  66  39    70  79  52    72  81  54    74  83  56    66  75  48    88  97  72    75  83  60    52  60  36    50  58  35    38  46  22    63  72  46  
