P3
50 50
255
  93  99  34   122 129  55   112 120  38   152 158  71   142 147  58   120 124  37   103 106  22   103 105  23   127 128  49   125 125  50   125 122  56   100  97  38    77  73  24    75  71  33    41  37  10    35  33  12    35  32  13    47  46  21    74  74  39    89  91  43   115 116  55   120 123  50   112 115  35    82  85   6    82  84  11   121 122  57   104 105  44    95  96  42    82  81  34    65  63  22    52  53  11    76  77  32    64  66  15    92  97  40   152 158  98   147 152  89   128 133  73    85  89  37    64  66  26    33  33   8    28  26  14    29  26  16    28  26  11    42  42  17    76  77  40    97 101  50   115 120  63    78  83  26    72  77  23   109 113  61  
  88  95  27   127 135  58   130 138  53   135 142  53   121 127  37   150 154  67   116 119  35   105 107  26   125 126  49   127 127  55   110 106  43    72  70  13    68  65  17    63  60  22    35  32   2    37  35  13    37  35  14    44  42  16    95  95  58   123 125  76   148 150  86   133 137  61   107 110  28   119 122  43   104 105  34    88  89  23    92  92  34    88  88  36    85  84  38    47  45   5    44  44   6    49  49  10    64  65  22   105 108  59    84  88  33   115 120  62   148 153  97    90  94  44    56  58  21    23  23   2    30  28  14    36  34  24    28  26  12    38  37  15    62  63  30    75  78  33    91  95  44    69  73  22    71  75  24   102 106  56  
 100 107  36   128 137  56   145 153  66   130 137  47   124 130  40   152 156  69   108 111  28   106 107  28   133 134  58   141 141  68    85  84  21    63  60   5    74  71  24    68  65  27    44  40  11    28  26   4    39  37  15    58  56  28    76  77  39    82  85  33   125 126  60   141 142  65   135 137  54   119 121  46   112 113  47    70  70   6    88  88  29   104 104  53    89  87  44    69  67  29    58  58  24    61  61  27    58  58  22    59  61  18    32  36   2    95 100  44   137 141  87    85  88  41    48  50  13    29  30   5    30  28  14    38  36  24    33  31  18    37  36  17    42  43  13    48  50  11    62  65  19    68  71  24    76  79  32    84  87  38  
 105 113  38   115 124  41   102 111  22   102 110  17   122 129  36   135 140  50    98 101  17   111 112  34   135 136  61   134 134  63   104 103  40    79  77  22    74  71  24    57  54  17    49  45  16    39  37  12    60  58  34    62  60  32    57  57  18    56  56   5   115 115  50   137 138  63   122 123  43   104 105  33   110 110  47    77  77  16    88  87  31    95  94  43    79  77  35    68  65  31    66  64  35    47  46  18    44  43  13    45  46   9    50  53   7    91  96  43   119 124  71    74  77  32    44  45  11    43  43  19    28  27   9    35  33  20    42  40  27    48  47  29    40  40  14    36  37   3    45  47   8    67  69  28    72  75  32    54  57  10  
 116 125  49   116 125  43    96 104  17    91  98   8   139 145  55   140 144  57   113 116  33   100 101  23   102 102  29   130 129  61   132 130  70    69  67  13    75  72  26    70  67  28    55  54  23    54  52  27    48  46  23    51  49  21    39  37   6    43  43   1    74  74  11   110 111  39   118 119  42   110 110  43   144 143  86   108 107  50    80  79  24    84  84  35    71  70  29    75  72  41    54  53  28    48  46  23    43  41  16    40  41   7    45  48   4   101 105  54   116 120  69    81  83  40    48  50  15    33  33   6    31  30  11    45  43  28    53  51  38    44  43  26    34  33  13    45  45  17    53  54  20    48  50  13    43  45   6    70  73  29  
 119 127  51   122 131  48   119 128  39   102 110  18   119 125  35   138 142  56   123 126  42   107 108  30   126 126  53   132 131  63   121 121  57    90  89  34    90  89  40    77  76  36    57  56  25    50  48  23    43  41  18    32  30   2    55  53  17    59  58  11    57  56   1    83  84  15   127 127  55   109 109  48   115 113  62    96  95  41    84  83  32    88  88  40    65  63  23    52  48  18    53  50  28    55  52  33    41  39  17    31  31   3    43  46   4    93  98  44   101 105  53    76  79  35    53  54  18    44  44  15    41  40  19    47  45  29    44  42  29    43  41  27    35  34  14    37  37  13    46  47  18    46  47  15    33  35   1    56  62  17  
 110 118  43   112 120  38   129 138  50   124 130  41   123 130  40   134 138  51   126 129  47   117 117  41   135 135  62   135 134  67   133 133  69   122 122  64    91  90  39    72  72  30    55  55  23    41  39  15    46  45  21    48  46  19    90  88  54   130 129  86   117 115  61   114 112  49   120 118  53    86  84  31    81  78  32    79  77  29    78  76  28    81  80  34    68  66  28    61  57  29    49  47  27    50  47  30    42  39  19    42  42  11    56  59  15    96 101  46   102 107  54    70  76  31    64  68  30    60  63  32    52  55  28    49  50  31    38  39  24    37  38  24    30  31  15    28  30   8    45  47  21    50  53  20    29  33   1    51  57  13  
 122 130  54   105 114  31   116 125  38   123 130  41   137 143  53   123 127  40   127 130  48   125 126  50   102 102  29   111 110  42   157 158  92   147 147  87    80  80  28    65  65  23    70  70  35    59  58  30    68  66  43    63  62  36    59  56  25    92  89  51    84  81  33   110 107  50   122 117  59    85  80  34    77  73  34    87  84  41    78  76  31    64  62  19    59  56  19    62  58  30    55  52  34    38  35  20    37  35  15    52  53  20    54  57  11    71  77  17    82  88  31    56  62  16    69  74  35    68  72  38    47  50  22    40  41  19    30  31  14    30  31  16    25  26  13    26  27   9    48  51  26    59  63  31    39  44   6    67  73  25  
 112 120  47    92 100  20   102 110  23   120 127  37   141 147  57   127 131  44   150 153  71   148 148  72    92  92  20    97  97  26   139 140  72   144 147  82    70  70  20    58  59  17    70  70  36    63  63  35    59  59  35    34  32   8    33  30   2    55  52  17    56  51   9    87  82  33   123 117  67    85  78  39    59  54  21    84  80  42    79  77  35    65  64  21    64  61  24    65  61  33    50  47  30    33  29  14    38  35  15    70  71  38    84  87  38    83  89  25    85  91  30    58  65  17    83  88  47    77  81  46    46  49  19    40  42  17    38  40  21    32  33  18    24  25  11    24  25   8    40  43  20    55  59  29    53  58  20    93  99  51  
 103 111  40    86  94  15    86  94   9   119 126  38   128 134  46   121 125  40   149 152  70   146 147  71   110 110  38   103 104  34   117 120  49   148 150  84    90  90  34    65  65  19    53  53  18    45  45  17    44  43  20    39  37  16    48  45  21    57  52  23    80  73  37    86  79  35   114 107  61   103  96  62    61  56  27    72  68  33    62  58  19    55  53  13    53  51  16    50  46  19    35  32  15    36  33  18    41  39  19    82  83  49   126 130  78   115 122  54   100 107  43    65  72  23    87  92  50    73  78  38    41  45  10    41  44  17    42  44  25    35  36  21    24  24  12    20  22   7    24  25   6    40  43  14    62  66  28   110 116  69  
 112 119  50   106 114  35   105 113  28   116 122  35   111 117  29   106 110  25   122 125  45   123 123  47   111 111  39    90  90  19   115 118  45   156 160  92   113 117  58    80  81  34    50  50  13    45  45  18    42  41  20    44  40  21    50  44  23    59  53  28    84  78  46    73  65  27    66  57  18    73  66  36    43  37  13    52  47  16    42  38   1    48  46   7    55  53  18    59  55  27    38  35  19    40  37  24    36  34  14    68  69  34   113 117  63    92  99  29    84  91  26    65  71  21    72  78  33    50  56  15    28  32   1    35  38   9    29  30  10    26  27  12    18  18   6    20  21   7    16  18   1    31  34   6    67  71  36   111 116  70  
 120 127  58   118 125  46   107 116  30   108 115  25   118 125  35   121 125  38   129 132  50   132 132  56   112 112  41    71  70   3    93  94  28   130 132  69    98 100  45    68  70  23    43  43   6    52  51  24    45  43  21    46  42  23    53  48  28    74  68  46    72  65  39    68  60  30    52  44  15    42  34  12    31  24   5    57  51  24    46  41  11    47  44  11    47  43  13    49  46  20    42  40  19    36  34  14    34  32   7    66  68  29    98 103  50    76  83  17    89  95  35    81  88  39    74  80  36    50  55  14    37  41   9    48  51  26    32  34  15    18  19   6    10  10   1    22  23   9    20  22   1    33  37   6    71  76  37   104 111  61  
 131 135  69   115 120  41   116 122  33   112 118  23   110 116  20   117 122  30   123 126  43   124 126  50   116 116  49   106 104  43   124 121  66   118 116  66    90  88  41    71  67  27    59  56  22    50  46  18    54  49  26    44  39  19    42  36  19    61  55  39    65  60  41    50  45  26    42  36  17    45  38  19    41  34  15    44  35  18    47  38  21    43  36  18    47  41  23    55  50  30    38  36  11    35  35   7    26  28   1    53  56  17    79  82  36    83  90  38    87  94  43    76  82  35    68  73  32    33  37   4    33  36  10    41  42  26    23  23  13    18  18  10    19  19   9    17  18   2    18  21   1    30  34   2    67  73  29   120 127  76  
 121 123  59   119 124  47   122 128  40   120 126  32   119 124  29   117 122  32   146 150  67   133 135  63   121 121  56   110 109  51   118 114  66   105 102  57    87  84  42    79  75  37    68  63  30    50  45  17    44  38  15    45  40  20    46  40  24    50  44  30    49  46  32    42  38  26    39  34  21    43  37  20    41  33  15    43  34  19    43  34  22    39  31  20    42  35  21    52  47  27    62  61  30    57  58  20    42  44   6    58  61  19    99 101  56    86  92  46    97 103  57    70  76  31    49  53  14    40  43  11    28  30   9    30  31  18    27  26  20    21  20  15    17  17   8    26  27  10    27  29   5    31  35   2    69  75  27   111 118  64  
 123 124  66   128 131  61   128 133  54   119 124  40   127 131  47   133 136  56   142 145  70   104 105  38   104 103  42   130 127  74   104 100  53    92  88  46    91  88  49    86  81  47    69  64  33    49  43  18    38  33  11    49  44  24    53  47  30    45  39  23    44  42  25    40  37  22    38  33  18    43  36  19    45  36  19    45  36  21    44  35  23    38  30  19    39  32  18    48  43  23    49  49  18    47  48  11    44  47   7    66  69  26   105 108  63    73  79  33    98 104  58    78  83  40    48  52  14    62  66  36    31  33  13    16  17   5    19  19  12    22  22  15    20  20  10    37  38  21    39  42  15    38  43   5    73  79  31   100 108  52  
  95  95  44   101 102  42   138 140  73   124 126  54   117 119  46   130 132  62   140 141  76   121 120  61    94  91  35   100  96  48    88  83  42    88  83  44   100  96  59    85  80  49    58  53  24    49  43  19    47  41  20    59  54  34    55  49  32    48  42  26    55  52  35    46  43  26    38  34  17    43  36  18    48  40  22    51  42  27    49  40  28    43  35  22    38  33  15    44  39  17    60  59  28    51  52  12    40  43   1    64  67  22    88  91  43    63  69  21    85  91  46    66  72  30    52  56  20    72  75  47    37  38  21    15  15   4    13  12   6    22  22  15    28  28  16    39  40  21    46  49  19    53  58  18    73  80  30    94 102  46  
  35  33   1    45  44  14   121 121  67   125 124  67   115 114  57   105 105  48   125 124  68   130 129  76    96  93  44   105 101  55    84  79  41    85  79  44    96  91  58    78  73  43    52  46  20    50  44  20    59  53  32    69  64  45    48  43  24    47  42  22    61  58  39    49  46  27    42  38  18    41  35  15    49  41  22    52  45  29    53  45  32    49  41  28    38  32  14    38  33  11    68  67  35    88  89  48    74  77  30    88  94  43    84  91  40    61  67  17    40  46   1    36  41   3    46  50  17    51  53  28    31  32  16    22  22  11    18  18  11    24  23  16    32  32  21    28  30   8    44  48  17    67  72  30    68  75  24    88  96  39  
  17  14   1    22  20   1    61  59  22    95  92  49   103 100  55    62  58  13    90  87  43   102  99  56    92  87  45   124 119  80    85  79  45    77  71  40    75  70  40    65  60  33    54  48  24    52  46  24    62  56  37    72  67  48    39  34  16    40  35  16    51  48  29    46  44  23    45  41  20    39  33  11    46  38  19    49  42  24    52  45  30    51  44  30    36  31  13    30  28   3    57  57  23    99 101  59    81  84  35    79  85  34    83  90  38    77  84  34    28  33   1    36  40   8    50  53  25    33  35  13    22  23  10    24  24  14    22  22  15    24  24  17    30  30  19    17  20   1    45  49  15    74  79  35    60  67  15    79  87  30  
  30  26   1    26  22   1    23  19   1    60  55  26    61  56  24    27  22   3    70  66  31    89  85  50    80  74  40    80  74  40    80  73  44    69  62  35    53  47  21    52  46  21    54  48  26    51  44  25    59  52  34    62  57  38    41  36  16    42  37  17    39  37  16    43  41  18    42  39  16    37  32  10    46  39  20    46  39  21    51  44  29    54  48  33    39  34  15    31  29   5    23  23   3    76  78  36    90  95  46    89  96  42    90  97  43    76  85  32    31  38   3    48  52  19    53  55  29    31  32  14    19  20   6    19  19  10    19  19  12    27  27  20    26  27  14    20  22   2    56  59  25    77  83  39    58  65  13    74  82  25  
  25  20   3    19  14   4    37  32  12    53  46  27    41  35  13    42  36  12    51  45  19    53  47  20    63  57  28    70  63  35    72  65  39    64  57  34    43  37  14    41  35  13    48  42  22    50  43  25    56  50  31    50  45  26    48  43  23    51  46  26    35  33  10    42  40  16    38  36  11    37  33  10    49  42  23    46  39  21    50  44  28    57  51  36    43  40  20    36  35   8    36  37   2    67  71  26   105 112  59   104 111  55    94 102  45    74  83  28    46  53   8    39  42  11    37  39  15    30  31  13    19  19   8    15  15   6    18  18  10    31  31  22    24  25  11    28  31   7    68  72  38    79  85  40    61  68  16    71  79  23  
  36  30  16    18  12   2    32  26  12    49  42  28    46  39  23    39  33  14    36  30  10    39  33  11    52  44  22    61  53  30    71  63  40    60  52  31    58  52  31    43  36  17    50  43  24    63  56  38    48  42  25    46  40  23    53  48  28    67  62  42    54  52  29    44  42  18    44  41  16    51  45  22    55  48  29    45  40  21    46  40  25    51  45  30    41  38  19    38  37  10    36  38   3    81  85  40   101 108  56   102 110  54    65  74  17    73  82  28    41  48   5    46  49  21    43  45  23    33  34  18    17  17   5    14  14   7    20  19  13    26  26  16    30  31  15    24  27   4    62  66  32    88  94  49    60  67  15    91  98  45  
  45  39  25    29  23  11    36  30  18    38  30  19    48  40  29    46  38  25    24  17   3    29  22   7    57  50  31    69  61  42    75  67  46    55  47  27    46  39  20    43  36  17    44  37  19    50  43  27    48  42  26    47  41  25    63  57  39    72  67  47    49  47  24    41  38  15    52  50  26    67  62  40    53  46  27    37  31  15    48  42  28    46  41  26    33  31  11    44  44  17    47  49  12    98 102  57    90  97  44    93 101  45    76  85  28    80  89  35    57  64  20    50  53  25    41  43  22    30  31  15    19  19   8    17  17   8    18  18  10    28  28  19    29  30  15    38  40  17    64  68  34    75  80  36    68  75  24    97 104  52  
  59  54  38    57  51  37    51  45  32    42  35  23    52  44  33    49  41  28    28  21   7    34  27  11    62  53  38    72  64  47    83  75  56    59  51  32    45  38  20    51  44  27    47  40  24    47  39  26    58  51  37    56  50  34    74  69  51    76  71  52    52  50  29    50  48  27    70  68  45    73  69  48    47  42  23    32  26  12    47  42  30    45  42  28    35  32  14    46  46  21    44  46  11    77  84  37    73  80  27    81  90  34    75  84  27    75  86  31    58  64  22    50  53  26    36  38  16    25  27  10    22  22  10    20  20  13    18  17  11    26  26  16    27  28  13    36  39  16    55  58  25    61  67  24    70  77  27    93 100  49  
  66  61  41    82  77  58    73  67  51    67  60  44    60  52  39    52  44  31    50  43  30    53  45  32    62  52  40    66  57  42    80  71  53    65  57  38    57  50  32    54  47  30    47  40  24    51  43  30    54  46  32    46  40  24    59  54  35    56  51  33    41  39  18    47  45  23    65  63  41    57  52  33    39  33  17    32  26  14    43  37  26    50  46  35    45  43  27    41  41  16    33  37   3    34  39   4    62  68  18    79  88  34    68  77  20    65  76  21    43  51   8    44  47  20    31  33  11    20  22   5    23  23  11    23  23  14    21  21  13    30  30  20    34  35  19    33  35  13    49  53  20    61  66  25    72  78  31    82  88  40  
  51  46  24    79  74  52    81  76  55    84  78  59    77  70  52    64  57  40    60  53  38    58  50  37    59  49  37    54  44  32    69  61  44    69  61  43    69  62  44    46  39  22    40  33  17    49  41  28    39  32  18    49  43  29    63  58  42    55  49  33    43  40  20    53  50  31    73  71  50    52  48  30    31  25  11    27  20  10    38  33  24    48  44  34    48  46  32    41  41  18    34  38   6    22  28   1    55  63  12    75  84  29    73  82  27    62  72  20    38  44   3    37  39  13    28  30   8    19  20   3    23  24  10    23  23  13    25  25  17    42  42  32    42  43  27    48  50  27    61  64  33    58  63  25    81  87  42    74  81  34  
  39  35   8    62  58  31    72  68  41    76  71  46    86  80  58    77  70  52    50  43  26    44  37  22    54  45  34    49  39  27    70  61  44    76  69  50    75  68  50    43  36  19    42  35  19    50  42  29    25  18   5    39  33  19    60  54  38    46  40  24    28  25   5    39  36  16    61  59  39    54  49  32    28  22  10    21  14   5    37  31  22    41  37  27    40  38  24    44  43  23    33  37   4    39  45   3    49  57   8    62  70  18    82  91  36    62  72  20    43  50   8    35  38  11    29  31  10    20  22   5    24  25  11    22  22  11    25  25  15    44  44  32    39  40  26    59  61  40    69  72  43    46  51  13    82  88  44    69  75  31  
  52  48  19    64  61  31    63  60  29    58  54  24    73  68  41    73  67  44    46  39  20    35  28  12    47  37  27    48  38  28    74  65  48    75  67  48    63  56  38    44  37  20    52  45  28    52  44  32    30  23  11    46  40  28    65  59  46    47  41  27    31  28  11    41  38  20    56  53  35    49  44  29    29  23  12    25  21  12    34  29  23    39  34  27    41  39  27    39  38  19    27  30   1    46  52  10    66  74  25    68  77  25    89  99  46    71  81  28    54  61  19    42  44  18    34  36  15    23  24   5    27  27  14    21  21  12    20  20  12    31  31  21    40  41  27    46  48  27    63  66  37    53  57  22    79  84  44    79  84  44  
  75  74  44    83  80  49    62  59  28    46  43  13    53  47  21    61  54  31    53  47  26    39  32  15    40  31  20    48  38  27    69  60  43    60  53  35    39  32  14    39  32  15    55  48  34    49  41  30    35  27  16    46  40  28    56  50  36    36  30  16    30  27  10    38  35  17    40  37  19    30  27  10    30  27  14    35  31  23    32  27  22    42  38  32    49  47  36    28  27  10    26  29   1    40  45  13    97 104  58    93 103  52    98 108  55    85  95  44    65  71  30    49  51  24    38  40  18    26  27   8    29  30  17    21  21  11    15  15   7    20  20  10    52  52  41    29  30  11    57  59  35    79  82  51    81  85  49   101 105  68  
  92  91  63    76  75  47    54  51  24    58  54  28    64  61  36    73  67  45    57  51  32    29  22   7    27  18   4    44  35  20    57  50  32    44  39  19    39  34  15    44  38  22    47  41  27    38  32  20    30  24  12    37  30  20    47  40  29    42  36  24    33  27  13    45  39  24    43  39  21    25  22   4    35  34  16    49  47  35    44  41  35    41  37  36    41  38  32    35  36  21    20  23   1    47  52  14    84  91  45   116 124  74    77  85  34    83  91  43    82  87  49    66  68  41    41  43  21    30  31  12    24  24  11    20  20  11    17  16  10    19  19  12    51  51  41    48  49  36    29  30  11    47  50  25    70  73  43    79  82  51  
  78  77  49    72  70  45    62  60  35    50  46  23    51  46  24    61  54  34    51  44  26    30  23   6    30  22   6    44  36  21    46  41  22    36  31  12    37  31  14    47  42  27    51  45  31    39  33  21    31  24  13    39  32  22    44  38  27    40  35  23    36  30  16    45  39  25    41  37  19    25  24   4    34  33  13    44  42  30    39  36  31    37  33  32    39  38  32    40  41  25    32  35   7    58  63  23    87  95  46    94 102  51    67  75  26    63  71  27    92  98  60    72  74  47    43  45  22    27  28  10    20  21   7    20  20  11    21  20  14    17  16  11    39  39  32    47  48  37    32  33  17    32  34  12    50  52  26    68  71  42  
  79  77  52    70  69  45    61  59  36    41  36  16    37  32  12    46  39  21    46  39  21    35  28  12    38  30  16    51  44  28    48  43  25    34  29  11    33  27  11    47  41  26    53  47  33    41  35  23    32  25  15    36  29  19    40  33  22    40  34  22    41  35  21    48  42  28    45  39  22    32  29   9    35  34  14    38  36  24    33  30  24    33  29  25    37  36  26    40  42  21    27  30   1    48  54  11    80  89  38    85  94  42    59  67  18    29  36   3    63  68  33    60  62  37    35  36  15    22  23   6    18  18   6    20  20  10    22  22  15    17  16  11    24  24  16    40  40  29    36  37  21    27  29   6    37  40  14    53  57  28  
  69  67  44    59  57  35    52  50  29    39  35  15    32  27   8    38  31  14    43  36  20    41  34  19    49  41  27    60  54  40    64  58  42    42  37  19    34  28  12    43  37  23    49  44  31    41  34  24    31  24  14    29  22  12    34  28  16    40  34  22    45  40  25    51  45  30    50  45  29    41  40  21    37  36  18    32  29  18    28  25  18    30  27  21    31  31  17    31  33  10    38  42   4    46  53   6    73  82  28    92 101  47    67  75  26    26  33   1    31  36   6    36  38  14    20  22   2    17  18   2    18  18   6    20  20  10    20  20  13    18  17  12    16  16   8    32  32  21    38  39  23    35  37  15    45  47  21    47  50  21  
  40  38  17    41  38  19    49  46  28    46  41  25    34  28  14    31  25  12    36  30  18    40  34  22    50  44  32    62  56  44    66  60  44    43  40  23    34  31  16    40  37  24    42  38  26    33  29  18    26  22  11    24  20   9    32  28  16    42  38  26    49  46  31    49  46  30    51  48  31    51  49  31    39  37  22    27  24  13    25  22  13    28  26  16    26  27   8    23  26   1    46  52   7    57  65  11    61  70  13    67  76  21    57  66  18    29  36   1    31  36   5    32  34  10    18  20   1    17  18   4    17  17   5    18  18  11    18  17  12    18  17  12    17  17   9    33  33  20    39  40  23    40  42  20    51  54  28    48  50  22  
  33  30  11    39  36  20    52  49  34    50  45  32    32  26  14    25  18   8    28  21  11    32  25  15    42  35  25    52  46  34    47  44  28    36  33  16    37  34  19    44  40  27    39  35  23    29  24  14    25  21  10    27  23  12    32  28  16    46  42  30    55  52  37    48  45  28    46  43  26    53  50  35    41  39  26    26  23  14    25  22  12    27  25  12    26  27   3    27  31   1    44  51   3    77  85  27    69  79  19    48  58   7    43  51   4    19  25   2    44  48  20    44  46  24    26  27  10    19  20   6    15  15   3    17  17   7    19  19  12    15  14   9    21  21  13    38  38  25    41  42  25    38  40  18    45  48  22    51  54  25  
  36  33  18    40  36  24    53  49  38    45  41  32    27  23  14    19  15   6    22  18   9    22  18   9    28  24  15    35  31  21    34  29  17    31  28  14    39  35  23    44  40  29    37  33  22    30  26  17    30  26  17    28  24  13    28  24  13    46  42  30    64  61  46    52  49  32    43  40  23    51  48  34    41  39  27    28  24  16    25  22  12    25  24   8    31  32   5    44  48   9    76  83  28   105 113  52    93 104  40    77  86  30    51  60  12    28  34   2    46  49  23    42  43  23    25  26  10    18  19   5    15  15   3    16  15   8    17  16  11    16  15   8    20  20  10    33  33  21    47  48  30    44  46  23    38  40  15    52  55  28  
  20  16   4    29  25  14    50  45  38    42  37  31    25  20  14    18  13   7    20  15   9    19  15   7    22  18   9    27  22  12    34  31  18    32  29  15    39  35  23    42  38  27    35  31  20    35  31  22    38  34  25    27  23  12    23  19   7    45  42  27    71  68  51    58  55  37    43  40  22    48  46  32    41  38  29    29  27  17    25  22  12    24  22   5    36  39   8    60  66  21   115 123  63   109 119  53    89  99  34    98 108  50    51  59  14    37  43  10    32  35  12    24  26   7    15  16   1    17  17   4    16  16   6    15  15   7    14  13   8    18  18  11    15  15   6    23  23  10    53  55  37    56  58  36    37  39  16    53  56  29  
  23  19   8    19  16   7    38  35  29    38  35  30    29  25  22    20  17  13    15  13   8    16  13   7    20  17  10    23  20  11    25  23  11    26  24  11    41  39  27    43  41  31    31  28  19    28  25  16    29  27  18    24  22  11    25  23  10    42  40  27    72  70  55    68  67  49    50  49  30    33  31  17    36  33  24    34  31  22    25  22  10    26  24   6    36  39   8    91  97  50   117 126  65   115 125  58    76  87  20   109 118  60    72  79  34    35  41   8    37  40  17    31  32  16    14  15   3    11  11   1    13  13   3    18  18  11    22  21  16    21  21  14    30  30  20    23  23  11    49  50  34    48  50  30    39  41  18    38  41  14  
  22  18   7    23  18  13    26  23  18    30  26  23    26  23  20    19  14  12    16  12   9    18  15  10    20  17  10    20  17   8    19  17   5    26  24  11    47  45  33    51  49  39    36  32  24    26  23  14    25  22  13    26  24  13    26  24  11    41  39  24    69  68  50    68  67  49    48  47  28    37  36  21    39  36  26    32  29  20    25  23  10    28  26   8    35  37   7    69  75  30   101 110  50   122 131  64    86  97  30    99 108  50    62  69  24    44  50  17    52  55  32    34  34  20    14  14   3    11  11   1    14  14   6    20  19  12    20  19  13    20  20  10    28  28  16    27  28  14    38  39  23    36  37  17    34  36  12    49  51  27  
  19  15   6    22  18  12    17  14  10    23  19  18    23  19  18    15  14  10    15  14  10    18  17  12    17  17  10    15  15   5    15  13   1    24  22  11    45  42  33    49  46  38    35  32  25    24  21  14    18  15   8    17  14   5    21  18   7    36  34  21    68  66  51    75  74  55    58  57  38    44  43  28    38  36  24    27  24  15    24  22  10    30  29  12    36  39  10    45  51   8    61  69  11   112 122  58    93 104  38    95 104  47    62  70  23    48  53  18    51  54  32    36  36  23    15  15   5    12  12   4    16  16   8    20  20  12    18  18  10    19  19  10    21  21  11    27  27  14    28  29  12    29  31  11    29  30   9    53  55  31  
  18  14   5    17  13   7    19  15  11    21  17  15    21  17  16    17  16  12    16  15  10    16  16   9    15  15   6    15  15   5    18  16   4    21  19   8    34  31  22    35  32  25    28  25  18    24  21  14    19  16   8    17  14   4    21  19   7    36  33  19    63  62  44    74  73  54    58  57  38    45  43  27    38  36  23    24  22   9    21  19   6    29  28  11    40  42  14    32  37   1    32  40   4    93 102  40    82  92  28    82  91  34    66  74  26    51  57  20    42  45  22    33  33  22    17  17   9    15  15   7    17  17   9    19  19  11    19  19  11    21  21  12    16  16   4    25  26  12    22  23   6    29  31  11    25  27   5    46  48  24  
  18  14   6    13   8   4    20  16  13    19  17  15    19  18  16    20  19  15    16  16  11    13  14   7    13  14   4    17  17   5    20  17   8    21  18   9    27  24  17    26  23  16    24  21  14    24  22  14    23  20  12    27  24  15    30  27  16    40  38  25    56  54  38    60  59  41    45  44  24    42  41  22    45  43  28    23  21   9    18  16   6    25  23  10    40  41  18    29  33   2    43  49   4    89  97  39    70  80  19    61  70  14    62  70  23    58  63  27    41  45  21    26  26  16    18  17  12    19  19  14    18  17  12    19  18  12    22  22  14    23  23  13    18  18   6    27  28  14    20  21   5    27  28   9    24  26   5    48  50  26  
  20  16   7    14  10   4    17  14  10    19  17  15    21  20  18    21  19  15    16  16  10    12  14   4    13  15   3    17  19   6    17  17   7    22  19  10    27  24  17    26  23  16    27  24  17    26  23  16    21  17  10    22  19   9    27  25  13    43  41  26    52  51  33    54  53  35    46  45  25    45  44  24    54  52  37    25  23  11    19  16   7    23  21  10    37  38  18    33  37   5    63  69  24    98 106  51    80  90  30    61  71  14    59  67  18    53  60  20    35  38  14    20  20  11    18  17  12    22  22  17    20  19  14    19  18  12    22  22  14    21  21  11    25  25  14    31  32  18    27  28  10    29  31  10    32  34  12    55  57  34  
  18  16   5    14  11   5    15  11   7    22  20  18    22  21  19    17  18  12    14  15   8    15  16   7    15  17   5    15  17   4    16  16   6    19  19  11    23  23  15    21  21  15    24  24  19    24  24  16    16  16   8    14  14   4    22  22  10    44  45  31    50  51  34    49  50  31    46  48  27    44  44  24    59  58  40    23  21   9    22  19  10    28  25  16    38  38  22    41  44  16    81  86  44   101 109  56    85  95  36    66  75  19    60  69  19    43  50   9    22  25   2    17  17   9    17  16  11    24  23  18    23  22  17    20  19  13    20  20  12    17  17   8    28  28  16    29  30  16    45  46  29    51  52  33    48  50  28    51  53  31  
  14  12   1    13  10   3    16  13   9    27  25  21    24  23  20    13  14   9    12  13   6    17  19   9    17  19   6    12  14   1    17  17   7    18  18   8    16  16   8    13  12   7    20  19  14    23  23  15    20  20  10    23  24  11    30  31  15    49  50  34    46  47  29    35  36  17    32  34  14    37  36  20    58  56  43    21  19   7    25  22  12    34  32  19    41  42  21    49  52  20   101 107  62    96 103  50    71  80  23    57  65  12    57  64  19    39  44   8    18  21   2    17  17   6    15  15   7    24  23  18    26  24  19    22  21  15    17  17   8    15  15   4    26  27  13    22  23   5    62  64  43    77  79  57    63  64  43    36  38  15  
  15  16   1    19  19  10    11  10   6    19  18  14    18  17  13    13  12   8     9   8   2    11  11   2    15  15   4    17  17   5    14  15   1    17  17   6    19  19  10    13  13   7    14  14   9    16  16   8    15  15   4    22  23   8    28  29  12    48  50  29    50  52  31    38  39  22    34  35  20    36  35  25    46  43  36    33  30  21    17  15   1    27  26   3    38  40   5    48  51   7   112 117  62   101 106  48    59  64  10    63  66  20    63  64  29    14  14   1    21  22   4    15  16   1    20  20   9    24  24  15    19  18  13    18  18  12    19  19  10    19  19   6    22  23   5    27  29   7    54  56  31    66  69  42    48  50  26    41  43  19  
  15  16   1    19  19   8    16  15   9    20  20  15    21  20  16    17  15  11    12  12   6    13  13   4    15  15   3    15  16   2    14  15   1    16  17   3    19  19   9    14  13   7    11  10   5    14  14   6    15  15   3    20  22   3    30  32  11    49  51  29    46  48  27    32  33  15    27  27  13    31  29  22    38  35  30    26  23  14    27  26   8    31  32   3    43  45   4    40  44   1   104 109  51   105 111  51    60  65  11    57  59  17    63  64  32    30  29  10    30  29  13    18  19   1    21  22   8    23  23  13    17  16  11    16  16  10    18  18   8    25  26  11    31  33  12    30  32   8    50  53  26    60  63  34    45  48  20    36  39  12  
  22  23   8    18  18   7    18  18  10    21  20  16    23  22  18    20  19  15    16  15  11    16  15   9    15  15   6    13  13   1    17  18   4    18  19   6    25  25  16    21  21  15    13  13   8    15  14   9    18  19   7    22  24   5    35  37  15    53  54  33    46  47  27    30  32  14    24  25  11    25  23  14    29  27  19    24  22  10    34  33  13    35  35   5    49  52  10    51  55   5   103 108  50   117 122  65    71  75  23    54  56  15    53  55  23    35  34  14    27  26  10    23  24   7    23  24  10    22  22  12    15  14   9    15  14   8    17  17   7    28  29  14    39  41  20    34  37  10    47  50  21    49  52  23    37  40  13    28  31   4  
  34  35  19    18  18   7    18  18   9    19  19  13    22  21  17    22  21  17    19  18  12    18  18  10    17  17   8    15  15   3    20  21   7    23  23  10    36  36  27    35  35  29    23  22  17    22  22  14    26  27  13    27  29  10    39  41  19    53  55  31    48  50  28    37  38  21    31  31  17    24  22  12    23  21   9    28  26  12    31  30   8    40  40  10    52  55  13    78  82  32   105 110  52   123 128  71    83  88  35    60  62  20    46  47  15    36  35  15    25  24   8    24  25   8    23  24   9    21  21  11    14  14   6    15  15   7    19  20   8    31  32  16    52  54  31    52  55  26    61  64  33    51  54  24    40  43  14    31  34   5  
  40  40  25    19  19   7    19  19  11    18  17  12    20  19  15    21  20  15    19  18  12    20  20  12    20  20  11    17  17   5    18  19   5    23  23  12    41  41  33    44  43  38    31  30  25    28  28  20    29  30  16    30  31  13    39  41  19    49  51  29    48  49  29    44  45  28    38  38  25    28  27  14    17  15   1    29  28  10    28  28   5    56  57  25    53  56  13    85  89  38   115 120  64   121 126  68    87  91  38    64  67  24    44  45  15    40  39  20    32  31  15    23  24   7    22  23   8    20  20  10    14  14   6    19  19  10    25  26  14    37  39  20    65  67  44    73  76  47    86  89  58    63  66  35    52  55  25    46  49  20  
  35  36  21    21  21   9    24  24  15    20  19  13    19  18  14    18  17  12    16  16  10    18  18  10    20  20  10    19  19   9    15  15   3    21  21   9    36  36  27    40  39  33    32  31  26    28  28  17    26  26  11    30  31  11    39  41  18    45  47  25    43  45  24    41  42  26    37  38  24    30  29  15    14  13   1    26  25   5    39  39  13    75  76  42    62  65  22    69  73  23   130 135  79   119 124  69    82  86  36    58  61  21    41  42  13    34  33  13    30  28  12    21  22   5    20  22   7    20  20   8    16  16   6    23  23  12    30  31  17    38  40  19    63  66  38    73  77  44    94  98  65    64  68  35    54  57  25    52  55  24  
