P3
50 50
255
  61  61  61   143 143 143   180 180 182    73  73  75   159 159 161   168 168 170   138 138 140   128 128 130   191 191 193   172 172 174   189 189 189   178 178 178   121 121 121    73  73  73   157 157 155    63  63  61   150 150 148   178 178 176    70  70  68   163 163 161   120 120 118   154 154 152   127 127 125   154 154 152   125 125 123   160 160 158   136 136 136   141 141 141   125 125 125   143 143 143   161 161 163   162 162 165   189 189 191   114 114 116   123 123 125   105 105 110    73  76  81   208 213 219   221 226 232   216 221 227   170 174 183   176 180 189   151 155 164   165 169 178   167 171 180   126 130 139   171 175 186   153 156 168   124 128 139   167 171 182  
 117 117 117    88  88  89   200 200 203   138 138 140    88  88  90   170 170 172   143 143 144   129 129 131   206 206 208   154 154 156   189 189 189   150 150 150   177 177 177   131 131 131   127 127 125   107 107 105   113 113 111   188 188 186    93  93  91   132 132 130   169 169 166   180 180 178   147 147 145   130 130 129   101 101  99   178 178 176   137 137 137   170 170 170   120 120 120   166 166 166   143 143 145   137 137 139   215 215 217    97  97  99   151 151 153   113 114 118   177 180 185   180 185 191   203 208 214   227 232 238   203 206 215   165 169 177   218 222 231   183 187 196   159 163 172   125 129 138   166 170 181   158 162 173   116 120 131   160 164 175  
 109 109 111   118 118 120   162 162 164   162 162 164   133 133 135   140 140 142   128 128 130   117 117 119   197 197 199   175 175 177   163 163 163   149 149 149   157 157 157   183 183 183    70  70  68   194 194 192   124 124 122   174 174 172   128 128 126   113 113 111   167 167 165   132 132 130   179 179 177   115 115 113   150 150 148   146 146 144   167 167 167   134 134 134   159 159 159   147 147 147   168 168 170   156 156 158   214 214 216   115 115 117   123 123 125   106 107 111   173 176 181   141 146 152   218 223 229   217 222 228   218 222 231   162 166 175   200 204 213   193 197 205   175 179 188   127 131 140   149 153 164   161 165 176   115 119 130   147 151 162  
 147 147 149   151 151 153   111 111 113   188 188 189   147 147 149   111 111 113   129 129 131   160 160 162   178 178 180   187 187 190   164 164 164   145 145 145   139 139 139   180 180 180    37  37  35   175 175 173   139 139 137   132 132 130   153 153 151   110 110 108   162 162 159   126 126 124   191 191 189   124 124 122   153 153 150   139 139 137   174 174 174   120 120 120   158 158 158   136 136 136   166 166 168   167 167 169   162 162 165   159 159 161    97  97  99    98  99 103   204 207 212   153 158 164   197 202 208   223 228 234   217 221 230   185 189 197   175 179 189   199 203 211   160 164 173   130 134 143   140 143 155   170 174 185   131 135 146   129 133 144  
  97  97  99   143 143 145   169 169 171   138 138 140   156 156 158   119 119 121   107 107 109   165 165 167   169 169 171   215 215 217   162 162 162   173 173 173   142 142 142   154 154 154   116 116 114   132 132 130   162 162 160   120 120 119   110 110 108   182 182 180   154 154 152   140 140 138   167 167 166   169 169 167   120 120 118   160 160 158   153 153 153   164 164 164   180 180 180   172 172 172   146 146 148   197 197 199   140 140 142   168 168 170   161 161 164   158 159 163   209 212 217   164 169 175   184 189 195   198 203 209   226 231 239   203 207 216   178 182 192   233 237 246   168 172 181   137 141 150   131 135 146   163 167 178   143 147 158   121 125 136  
  36  35  40   185 184 189   149 147 152   104 103 108   177 177 179   168 168 170   123 123 125   189 189 191   196 196 198   158 158 160   183 183 183   116 116 116   138 138 138   143 143 143   130 130 128   184 184 182   114 114 112   180 180 178   111 111 109   179 179 177   127 127 125   195 195 193   122 122 120   182 182 180   136 136 134   161 161 159   152 152 152   149 149 149   120 120 120   169 169 169   146 146 148   193 193 195   135 135 137   107 107 109   140 140 142   100 101 105   153 156 161   124 129 135   160 165 171   203 208 213   219 223 232   205 209 218   178 183 191   225 230 238   224 228 237   170 174 183   135 139 150   157 160 172   160 164 175   119 123 134  
  93  92  97   138 137 142   166 165 170   112 111 116   135 135 136   180 180 183   144 144 146   197 197 198   186 186 188   175 175 177   155 155 155   127 127 127   161 161 161   128 128 128   134 134 131   206 206 203   127 127 126   144 144 142   141 141 139   160 160 158   161 161 158   169 169 167   124 124 122   155 155 152   145 145 143   156 156 154   144 144 144   130 130 130   143 143 143   139 139 139   175 175 177   164 164 166   168 168 170   111 111 113   104 104 106   149 150 154   158 161 166   157 162 168   157 162 169   180 185 191   207 211 220   227 231 240   167 171 180   161 165 174   178 182 191   147 151 160   132 136 147   151 155 166   166 170 181   111 115 126  
  88  87  92   130 129 134   145 144 149   119 118 123   101 101 103   185 185 187   150 150 152   166 166 168   194 194 196   178 178 180   149 149 149   143 143 143   150 150 150   181 181 181   104 104 102   195 195 193   143 143 141   147 147 145   133 133 131   131 131 129   150 150 148   166 166 164   137 137 135    97  97  95   206 206 204   140 140 138   140 140 140   116 116 116   179 179 179   129 129 129   177 177 179   140 140 142   119 119 121   179 179 181    98  98 100   169 170 174   116 119 124   167 172 178   181 186 192   154 159 165   216 220 229   235 239 247   191 195 204   166 170 179   220 224 233   173 177 186   133 137 148   131 135 146   169 173 184   134 138 149  
 100  99 104   150 149 154   109 108 113   142 141 146   110 110 112   130 130 132   174 174 176   184 184 186   165 165 167   210 210 212   144 144 144   148 148 148   123 123 123   190 190 190   119 119 117   171 171 169   165 165 162    98  98  96   153 153 151   117 117 115   174 174 172   127 127 125   165 165 163    67  67  65   184 184 183   158 158 156   160 160 160   106 106 106   145 145 145   137 137 137   160 160 162   154 154 156    74  74  76   144 144 146   102 102 104   182 183 187   151 154 159   179 184 190   191 196 202   138 143 149   164 168 177   191 195 203   193 197 206   154 158 167   170 174 183   158 162 171   149 153 164   132 136 147   159 163 174   142 146 157  
 189 189 191   133 132 137    74  74  77   173 173 175   126 126 128   115 115 117   196 196 198   189 189 191   163 163 165   203 203 205   140 140 140   161 161 161   142 142 142   166 166 166   161 161 159   138 138 136   177 177 175   120 120 118   147 147 146   144 144 142   149 149 147   151 151 149   126 126 124   136 136 134   173 173 171   190 190 188   104 104 104   167 167 167   143 143 143   172 172 172   143 143 145   178 178 180   175 175 177   103 103 105   128 128 130   167 168 172    95  98 103   210 215 221   199 204 210   119 124 130    99 103 112   190 193 202   193 197 206   172 176 185   170 174 182   168 172 183   164 169 179   129 133 144   148 152 163   153 157 168  
 104 104 104   197 197 198    78  78  78   130 130 130   161 161 161   108 108 108   164 164 164   208 208 208   157 157 157   184 184 184   144 144 142   134 134 132   176 176 174   117 117 115   155 156 151   133 134 129   199 200 195   155 156 151   141 142 137   142 142 137   191 193 190   166 168 165   102 104 101   169 171 168   145 147 144   206 208 205   117 119 118   177 179 178   127 129 128   176 178 177   170 171 173   127 128 130   168 169 171   123 124 126   177 178 180   177 178 182   107 108 113   197 200 205   203 205 213   119 122 129   127 131 137   246 249 253   248 251 255   160 163 172   163 167 178   160 164 175   181 185 196   136 140 152   137 143 156   158 164 178  
 134 134 134   176 176 176   150 150 150   116 116 116   134 134 134   137 137 137   177 177 177   186 186 186   161 161 161   144 144 144   149 149 147   138 138 136   169 169 167   150 150 148   123 124 119   152 153 148   132 133 128   154 155 150   155 155 150   168 169 164   160 162 159   161 163 160    91  93  90   140 142 139   139 141 138   187 189 186   167 168 168   152 154 153   138 140 139   157 159 158   181 183 185   141 142 144   129 130 132   164 165 167   173 175 176   139 140 144   159 160 164   175 176 181   201 204 211   136 139 145    75  78  85   218 221 228   242 245 254   194 197 206   153 157 168   159 163 174   179 183 195   142 146 158   130 136 150   162 168 182  
 146 146 146   128 128 128   160 160 160   110 110 110   109 109 109   135 135 135   193 193 193   173 173 173   188 188 188   119 119 119   162 162 160   143 143 141   178 178 176   143 143 141   104 105 100   173 174 169    99 100  95   141 142 137   202 203 198   130 131 126   175 177 174   164 166 163   133 135 132   116 118 115   158 160 157   127 129 126   207 209 208   135 137 136   155 157 156   148 150 149   161 162 164   168 169 171   142 143 145   153 154 156   158 159 161   119 120 124   176 177 181   189 190 195   174 177 182   149 152 157   117 120 127   170 173 180   242 245 254   212 215 224   153 157 168   162 166 177   180 184 196   152 156 168   124 130 142   162 168 180  
 190 190 190    98  98  98   128 128 128   165 165 165    74  74  74   133 133 133   207 207 207   177 177 177   183 183 183   120 120 120   131 131 129   122 122 120   133 133 130   177 177 175   130 131 126   169 170 165   143 144 139   136 137 132   195 196 191   129 130 125   175 177 174   133 135 132   166 168 165   126 128 125   190 192 189    81  83  80   187 189 188   127 129 128   142 144 143   164 166 165   154 154 156   133 134 136   160 161 163   132 133 135   158 159 161   126 127 131   160 161 165   193 194 199   180 183 188   157 160 165   125 128 135   139 143 149   243 246 255   228 231 240   162 166 177   161 165 176   178 182 193   165 169 181   132 137 150   163 169 181  
 196 196 196    83  83  83   144 144 144   136 136 136   120 120 120   194 194 194   207 207 207   169 169 169   156 156 156   174 174 174   119 119 117   123 123 121    97  97  95   167 167 165   176 177 172   110 111 106   175 176 171   124 125 120   154 156 151   136 137 132   181 183 179   136 138 136   155 157 154   163 165 162   178 180 177   110 112 109   161 163 162   183 184 183   140 142 141   149 151 150   172 173 175    70  71  73   139 140 142   152 153 155   146 147 149   159 160 162   165 166 170   192 193 198   179 182 187   157 160 165   188 191 198    99 102 109   232 235 242   243 246 254   181 185 194   155 159 170   173 177 188   173 177 188   139 145 157   149 155 166  
 162 162 162   125 125 125   121 121 121   162 162 162   142 142 142   142 142 142   195 195 195   195 195 195   136 136 136   177 177 177   159 159 157    96  96  94   157 157 155    59  59  56   139 140 135   157 158 153   134 135 130   171 172 167   130 131 126   189 190 185   152 154 151   139 141 138    87  89  86   170 172 169   151 153 149   187 189 186   141 143 142   185 187 186   131 133 132   138 140 139   163 164 166   122 124 126   151 152 154   158 159 161   144 145 147   113 114 116   205 205 210   196 197 201   124 127 132   128 131 136   185 188 193    62  65  72   191 195 201   250 253 254   202 206 215   152 156 165   173 177 188   177 181 192   143 149 160   125 131 143  
 182 182 182   132 132 132   150 150 150   116 116 116   123 123 123   167 167 167   176 176 176   177 177 177   186 186 186   145 145 145   165 165 163   153 153 151   194 194 192    62  62  60   163 164 159   147 148 143    78  79  74   180 181 176   124 125 120   172 173 168   138 140 137   170 172 169   117 119 116   178 180 177    98 100  97   159 161 158   105 107 106   163 164 164   169 171 170   151 152 151   150 151 153   147 148 151   132 133 135   154 155 156   158 158 161    96  97  99   200 201 205   186 187 191   127 131 135   166 169 173   117 120 125   112 114 119   154 157 164   235 238 245   215 219 228   154 158 166   173 177 188   183 187 198   155 161 173   126 133 144  
 166 166 166    97  97  97   157 157 157   109 109 109   139 139 139   198 198 198   135 135 135   193 193 193   181 181 181   126 126 126   149 149 147   162 162 160   166 166 164   147 147 145   150 151 146   157 158 153   114 115 110   122 123 118   135 136 131   179 180 175   150 152 149   137 139 136   154 156 153   165 167 164   102 104 101   143 145 142   139 141 140   126 128 127   191 193 192   149 151 150   131 132 134   144 145 147   159 160 162   148 149 151   158 159 161   145 146 148   172 173 177   188 189 193   137 141 144   167 171 174   133 136 141   105 108 113   127 130 136   237 240 247   223 228 235   170 174 183   168 172 182   186 190 201   166 173 183   136 143 153  
 100 100 100   103 103 103   139 139 139   132 132 132    97  97  97   211 211 211   178 178 178   177 177 177   144 144 144   103 103 103   115 115 113   182 182 180   139 139 137   151 151 149   133 134 129   155 155 150   179 180 175    89  90  85   160 161 156   143 144 139   180 182 179   111 113 110   172 174 171   142 144 141   147 149 146   161 163 160   161 163 162   116 118 117   162 164 163   179 181 180   148 149 151   128 129 131   169 170 172   157 158 160   123 124 126   187 188 190   191 192 194   170 171 174   144 148 151   149 153 157   112 116 120   108 111 116   104 107 112   221 224 231   219 224 230   194 198 207   166 170 178   185 190 199   161 168 178   130 137 147  
 117 117 117   135 135 135   165 165 165   173 173 173   131 131 131   206 206 206   156 156 156   194 194 194   130 130 130   131 131 131   150 150 148   201 201 199   151 151 149   145 145 143   152 153 148    83  84  79   193 194 189   143 144 139   147 149 144   145 146 141   162 164 161   106 108 105   139 141 138   122 124 121   187 189 186   195 197 194   130 132 131   160 162 161   152 154 153   190 192 191   170 171 173   146 147 149   124 125 127   130 131 132   133 134 136   154 154 157   221 222 224   156 157 159   113 117 120   179 183 186    84  88  91   148 151 155   136 139 144   198 201 206   226 231 237   217 222 228   155 159 168   183 187 196   165 172 182   133 140 150  
 181 181 181   142 142 142   119 119 119   168 168 168   183 183 183   149 149 149   187 187 187   193 193 193   103 103 103   139 139 139    97  97  95   175 175 173   164 164 162    86  86  84   207 208 203   107 108 103   142 143 138   151 152 147   132 133 128   174 175 170   102 104 101   180 182 179   132 134 131   176 178 175   155 157 154   150 152 149    97  99  98   186 188 187   110 112 111   181 183 182   130 131 133   134 135 137   151 152 154   142 143 145   150 151 153   155 156 158   206 207 209   166 167 169   104 108 109   200 204 205   109 114 117   151 155 158   155 158 163   150 153 158   235 240 246   225 230 236   147 151 160   174 179 188   173 180 188   146 153 161  
 141 141 141   142 142 142   128 128 128   112 112 112   181 181 181   191 191 191   182 182 182   188 188 188   120 120 120    84  84  84   119 119 117   115 115 113   206 206 204   128 128 126   139 140 135   149 150 145   111 112 107   154 155 150   121 122 117   181 182 177   112 114 111   174 176 173   141 143 140   165 167 164   108 110 107   161 164 161   108 110 109   178 180 179   135 137 136   170 173 171   144 145 147   135 136 138   157 158 160   143 144 146   144 145 147   195 196 198   200 201 203   141 142 144   121 125 126   149 153 154   107 111 114   183 187 190    82  85  90   109 112 117   231 236 242   231 236 242   169 173 182   171 175 184   176 183 191   164 171 179  
  94  94  94   148 148 149   150 150 151   106 106 107   224 224 225   168 168 168   162 162 162   189 189 189   128 128 128    63  63  63   112 112 110   158 158 156   180 180 178   179 179 177    94  95  90   139 140 135   144 145 140   155 156 151   152 153 148   135 135 132   135 137 134   152 154 151   174 176 173   148 150 147   137 139 136   163 165 162   123 125 124   162 164 163   154 156 155   156 158 157   188 189 191   121 122 124   152 153 155   159 160 162   100 101 103   201 202 204   197 198 200   116 117 119   169 173 174   128 132 133   136 140 143   182 186 189    90  93  97    94  97 102   210 215 220   231 236 242   198 203 210   165 169 178   167 174 182   171 178 186  
  89  88  90   154 152 156   175 173 177   116 114 118   190 189 193   191 191 193   166 167 168   162 164 163   131 132 132    45  46  44   140 141 137   152 153 149    81  82  78   172 173 169   104 103  99   132 132 128   144 143 140   117 116 113   194 193 191    88  87  87   167 167 166   133 133 133   180 181 180   159 160 159   168 168 167   128 129 128   133 134 133   120 121 121   158 159 159   140 141 141   183 184 184   135 136 136   162 162 163   142 143 143   127 127 128   177 177 178   197 199 199   130 132 131   160 162 164   121 123 125   196 198 200   156 158 162   145 149 152   115 118 123   176 180 185   239 243 249   206 210 216   164 168 175   167 172 180   170 175 183  
  86  84  89   141 139 144   160 155 162   130 127 134   191 190 195   181 181 185   181 182 184   169 170 172   163 165 163   153 154 151   119 120 115   205 206 201    49  50  45   193 194 189   139 138 134   116 115 111   161 160 158   116 115 113   193 191 192   113 111 112   145 145 145   148 148 148   165 165 165   180 180 180   156 156 156    79  79  79   165 165 165   125 125 125   137 137 137   174 174 174   117 117 117   152 152 152   165 165 165   105 105 105   188 188 188   183 183 183   175 177 176   153 154 153   152 153 155   147 148 150   170 171 173   151 152 154   128 132 135   101 105 108   151 154 159   234 237 242   220 223 230   167 170 177   174 178 187   174 178 187  
 108 106 111   136 134 139   114 112 117   189 187 192   173 172 177   159 160 164   215 216 218    94  95  97   132 134 130   137 139 136   103 104  99   189 189 184   102 103  97   114 115 109   190 189 185   127 126 122   106 105 103   174 173 171   162 159 161   178 176 177   126 126 126   179 179 179   135 135 135   136 136 136   194 194 194   116 116 116   131 131 131   181 181 181   121 121 121   172 172 172   106 106 106   185 185 185   128 128 128    86  86  86   165 165 165   222 222 222   154 156 155   131 133 132   155 156 158   146 147 149   133 134 136   157 158 160    95  99 102   111 115 118   142 145 150   219 222 227   233 236 243   175 178 185   171 175 184   168 172 181  
  85  83  87   147 145 149   107 105 110   180 178 182   175 176 180   176 177 181   209 210 212   128 129 131    81  83  80   154 156 153   114 115 110   137 139 134   181 182 176   165 166 160   175 174 170   191 190 186   108 107 106   187 186 184   122 120 120   178 176 176   124 124 124   170 170 170   182 182 182   143 143 143   147 147 147   134 134 134   142 142 142   188 188 188   155 155 155   156 156 156   109 109 109   173 173 173   147 147 147   145 145 145   162 162 162   194 194 194   133 135 134   109 111 110   168 169 171   125 126 128   148 149 151   160 161 163   113 117 120   193 197 200   122 125 130   195 198 203   232 235 242   201 204 211   166 170 179   167 171 180  
  83  81  84   179 177 180    84  82  85   159 158 161   200 201 205   175 176 180   157 158 160   121 123 123   110 112 109   150 152 149   155 156 151   140 141 136   144 145 139   136 137 131   126 125 121   209 208 204   128 127 124   169 168 166   149 148 146   112 111 109   145 145 145   142 142 142   188 188 188   149 149 149   110 110 110   135 135 135   153 153 153   148 148 148   165 165 165   153 153 153   140 140 140   162 162 162   182 182 182   131 131 131   192 192 192   192 192 192   136 138 137   143 145 144   125 126 128   110 111 113   163 164 166   164 165 167   119 123 126   157 161 164   106 109 114   184 187 192   229 232 239   217 220 227   160 164 173   176 180 189  
 111 111 113   171 170 172    65  64  67   168 168 170   179 180 182   203 204 206   129 130 130   119 121 119   153 155 152   113 115 112   195 196 191   136 137 131   104 105  99   152 153 147   119 118 114   149 148 144   170 169 165   124 122 119   169 167 165    65  64  62   184 184 184   122 122 122   188 188 188   177 177 177   128 128 128   135 135 135   158 158 158   163 163 163   195 195 195   126 126 126   123 123 123   146 146 146   186 186 186   136 136 136   176 176 176   188 188 188   111 113 112   175 176 176   113 114 116   155 156 157   140 141 143   162 163 165   135 139 142   161 165 168   141 144 149   182 185 190   212 215 222   203 206 213   154 158 167   166 170 179  
  68  68  70   121 121 123   166 166 168   170 170 172   199 200 202   205 206 208   134 136 135   138 140 139   140 142 139   118 120 115   185 186 180   149 150 144   149 150 144   153 154 148   179 178 173    93  92  87   177 176 172   141 140 136   181 180 178   122 121 119   146 146 146   192 192 192   131 131 131   127 127 127   185 185 185   132 132 132   156 156 156   163 163 163   156 156 156   150 150 150   117 117 117   159 159 159   127 127 127   151 151 151   173 173 173   193 193 193   129 131 130   160 162 161   115 116 118   180 181 183   110 111 113   171 171 173   132 136 139   187 191 194   158 161 166   153 156 161   191 194 201   213 216 223   191 195 204   159 163 172  
  96  96  96   148 148 148   167 169 168   216 218 217   151 152 154   189 190 192   149 151 150    76  78  76   130 132 129   153 155 150   187 188 182   158 159 153   139 140 132   100 101  93   188 187 182    84  83  78   149 148 144   171 171 166    63  62  58   188 187 185   123 123 123   205 205 205   155 155 155   159 159 159   154 154 154   158 158 158   161 161 161   171 171 171   135 135 135   183 183 183   124 124 124   188 188 188    97  97  97   190 190 190   178 178 178   176 176 176   106 108 107   141 143 142   143 144 146   150 151 153   161 162 163   179 180 182   133 137 140    94  97 100   148 151 156   172 175 180   210 213 220   233 236 243   198 202 212   157 161 170  
 146 147 146   144 145 145   149 151 150   199 201 200   170 171 173   182 183 184   133 135 133   144 146 143    88  90  85   158 160 155   198 199 193    91  92  85   184 185 177    66  67  59   196 195 189   136 135 130   131 130 125   199 198 194    61  60  56   157 156 155   122 122 121   179 179 179   133 133 133   185 185 185   119 119 119   181 181 181   121 121 121   166 166 166   192 192 192   159 159 159   152 152 152   166 166 166   130 130 130   176 176 176   188 188 188   170 170 170   135 137 136   137 139 138   114 115 117   146 147 149   137 138 140   163 164 166   158 162 165   102 106 109   204 207 212   125 128 133   162 165 172   229 232 239   223 227 236   155 159 168  
 187 189 188   138 140 139   149 151 150   176 178 177   175 177 176   171 173 172   140 142 139   171 173 170   114 116 111   185 187 181   186 187 180    81  82  74   182 183 175   132 133 125   143 143 135   176 175 169   161 160 155   191 190 185   131 130 126   139 138 136   164 164 162   139 139 139   127 127 127   199 199 199   130 130 130   146 146 146   172 172 172   149 149 149   175 175 175   126 126 126   172 172 172   142 142 142   151 151 151   171 171 171   193 193 193   137 137 137   127 129 128   123 125 124   152 153 155   142 143 145   107 108 110   149 150 152   149 153 156   145 149 152   167 170 175   105 108 113   161 164 171   224 227 234   224 228 237   167 171 180  
 193 197 196   125 129 128   192 195 194   139 142 142   188 190 189   177 179 178   125 127 124   175 177 174   104 106 101   161 164 157   150 151 143   103 105  97   179 181 171   167 169 159   152 152 144   129 129 121   180 179 174   123 122 117   209 208 204   122 121 119   142 142 140   185 185 185   118 118 118   152 152 152   163 163 163   124 124 124   183 183 183   163 163 163   157 157 157   147 147 147   151 151 151   144 144 144   131 131 131   195 195 195   197 197 197   133 133 133   109 111 110   166 168 167   139 140 142   154 155 157   142 143 145   145 146 148    84  88  91   153 156 159   150 152 157   133 136 141   154 156 164   209 212 219   224 228 237   186 190 199  
 143 147 146   136 140 139   210 214 213   114 118 117   235 237 236   133 135 134   123 125 122    93  95  92   138 141 134   189 192 185   146 147 139   189 190 182   133 135 124   164 167 156   160 160 153    91  91  83   201 200 195    93  92  87   205 204 200   128 128 124   146 146 144   181 181 181   118 118 118   144 144 144   120 120 120   104 104 104   164 164 164   187 187 187   149 149 149   200 200 200   158 158 158   184 184 184   121 121 121   196 196 196   165 165 165   173 173 173   157 159 158   141 143 142   148 149 151   152 153 155   163 164 166   152 153 155   115 119 122   161 166 168   148 151 156   168 171 176   130 133 140   185 188 195   230 234 243   203 207 216  
 109 113 112   156 159 158   202 206 204   125 129 127   204 206 205   119 121 120   149 151 148   117 119 116   186 189 182   188 191 184   133 134 126   197 198 190   109 111 100   135 137 127   182 182 174   124 124 116   180 179 174   132 132 127    99  98  93   198 198 194   158 158 156   160 160 160   149 149 149   118 118 118   120 120 120    73  73  73   137 137 137   142 142 142   196 196 196   147 147 147   164 164 164   146 146 146   137 137 137   181 181 181   188 188 188   146 146 146   149 151 150   123 125 124   186 187 189   104 105 107   132 133 135   146 147 149   133 137 139   185 189 192   130 133 138   169 172 177   107 110 117   156 159 166   232 236 245   208 212 221  
  82  86  85   142 143 140   201 202 195   165 165 157   207 209 202    60  63  58   174 176 170   114 116 110   148 152 144   195 198 189   113 114 106   161 162 154   188 190 180   109 111 103   146 148 140   141 141 134   156 158 152   171 171 165    63  65  59   180 181 176   155 155 153   165 165 165   144 144 144   130 130 130    98  98  99   119 119 120   201 201 202   143 143 143   184 184 185    98  98  98   191 191 191   110 110 113   186 186 187   168 168 171   186 186 186   120 120 120   151 152 151   147 149 148   150 152 151   150 151 152   150 151 150   118 118 120   110 111 112   197 197 200   148 148 151   159 160 164   103 103 108   136 138 144   232 235 242   212 216 224  
  89  93  92   176 177 171   175 172 158   194 191 177   182 184 172    83  86  76   183 186 176   117 120 110   160 163 153   184 187 177   138 141 132   137 140 131   153 156 147   153 156 147    82  85  77   178 180 174   133 136 129   159 161 155   114 117 110   121 123 118   177 177 175   154 154 154   122 122 122   152 152 152   112 112 114   110 110 112   195 195 197   144 144 146   189 189 191   147 147 149   154 153 157   130 129 134   173 173 176   189 188 193   153 153 156   139 138 142   157 157 157   139 139 139   141 141 140   124 124 123   157 156 154   128 126 126   170 167 167   156 153 153   118 117 117   154 153 155   136 135 139   121 121 127   199 202 208   233 236 243  
 102 106 106   183 184 178   160 157 146   185 183 170   184 186 174   106 109  98   150 153 142   103 106  95   179 183 172   152 155 144   178 181 172   106 109 100    98 101  92   211 214 205    83  86  78   158 161 152   118 121 115   120 123 116   172 175 168   105 107 102   174 174 172   166 166 166   155 155 155   169 169 169   102 102 103   160 160 161   153 153 155   181 181 183   128 128 130   193 193 195   119 118 123   164 163 168   159 158 163   197 196 201   134 133 138   120 119 124   193 193 193   141 141 141   165 165 163   108 108 106   151 150 148   143 142 140   175 171 170   157 153 152   118 116 117   115 113 116   103 103 105   159 158 164   201 204 209   216 219 226  
 104 105 107   221 221 219   172 171 165   151 151 142   150 152 141   130 133 122   145 148 137   110 113 102   214 217 206   131 134 123   180 183 174   141 144 135   106 109 100   183 186 177   133 136 127   194 197 188   163 166 159    67  70  63   172 175 168   167 168 163   114 114 112   131 131 131   193 193 193   201 201 201   117 117 117   186 186 186   108 108 111   153 153 155   123 123 126   152 152 154   142 141 146   142 141 146   180 179 184   182 181 186   156 155 160   123 122 127   165 165 165   168 168 168   152 152 150   155 155 153   154 153 151   119 118 116   165 161 160   196 191 191   143 141 142   141 139 142   106 106 108   140 139 145   210 213 218   202 205 212  
 135 136 138   202 204 204   155 156 156   151 152 147   153 156 147   196 200 186   117 121 107   122 125 112   212 214 204    84  87  76   152 155 144   196 199 188   140 143 134   146 149 139   187 190 182   170 174 164   160 163 154   102 105  96   116 119 112   182 184 179    60  61  58   132 132 130   179 179 179   173 173 173   101 101 101   161 161 161   176 176 176   129 129 129   188 188 190   132 132 134   178 178 180   100 100 102   195 194 199   181 180 185   151 150 155   162 162 166   115 115 115   165 165 165   141 141 139   152 152 150   168 167 165   151 150 148   141 137 136   184 180 179   135 133 134   145 143 146   138 138 140   146 145 151   182 185 190   219 222 229  
 136 136 134   200 201 202   140 144 145   218 224 220   112 116 106   191 195 181   142 146 132   151 155 141   192 195 183   131 134 122   127 130 119   150 153 142   165 169 159   128 131 122   178 181 172   140 144 134   138 141 132   176 180 171   121 124 117   175 178 171   127 128 123   105 105 104   164 164 164   191 191 190   130 130 130   162 162 162   168 168 168   168 168 168   171 171 172   164 164 165   155 155 158   130 130 132   183 182 186   193 193 197   106 105 109   148 148 149   132 132 132   168 168 168   147 147 145   144 144 142   137 136 134   130 129 126   193 189 188   131 127 126   154 152 153   113 111 114   142 142 144   175 174 180   152 155 160   205 208 215  
 183 181 173   163 165 162   174 180 179   192 200 197   122 128 118   167 171 157   140 144 130   174 178 164   163 167 153   157 161 147   180 183 172   155 158 147   195 198 187   125 128 117   171 174 165   174 177 168   132 135 126   169 172 163   174 177 168   154 157 150   176 177 172   103 103 101   147 147 145   184 184 182   124 124 124   182 182 182   129 129 129   171 171 171   103 103 103   183 183 183   119 119 121   194 194 196   170 170 172   195 195 197   132 132 134   114 114 116   156 156 156   156 156 156   157 157 155   139 139 137   135 134 132   115 114 112   165 161 160   147 143 142   150 148 149   124 122 125   146 146 148   126 125 131   160 163 168   179 182 189  
 225 224 208   122 125 115   188 196 192   154 163 159   130 136 124   132 136 121   164 168 154   180 184 170   181 185 171   128 132 118   205 209 196   151 154 141   165 168 157   179 182 171   161 164 154   154 158 147   145 148 139   139 141 133   183 185 177   145 149 141   154 155 150   166 166 164   104 104 102   223 223 221   114 114 113   178 178 177   124 124 124   202 202 202   105 105 105   174 174 174   123 123 124   177 177 178   186 186 187   174 174 176   153 153 155   128 128 130   146 146 146   169 169 169   127 127 125   137 137 135   167 166 164   148 147 145   128 124 123   162 158 157   153 150 152   131 129 132   172 172 174   132 131 137   177 180 185   166 169 176  
 187 187 163   166 170 156   183 194 186   121 132 126   159 165 153   145 149 134   140 144 129   206 210 195   148 152 138   132 136 122   183 187 173   187 191 177   155 158 147   176 179 167   150 153 142   130 133 122   168 171 162    89  92  83   189 192 183   158 161 154   112 113 108   189 189 187    79  79  77   168 168 167   169 169 168   157 157 155   146 146 146   122 122 122   188 188 188   119 119 119   157 157 157   182 182 182   210 210 212   134 134 136    89  89  91   161 161 163   132 132 132   181 181 181   124 124 122   124 124 122   143 142 140   149 148 146   150 146 145   139 135 134   123 121 121   157 155 158   157 157 159   121 121 126   179 182 187   169 172 179  
 184 183 157   213 217 200   163 175 165    84  95  87   163 169 157   163 167 152   117 121 106   191 195 180   156 160 145   176 179 164   142 146 132   170 174 160    92  96  82   152 155 142   214 217 206    95  98  87   172 175 164   147 150 139   160 163 152   196 199 190   155 156 150   174 175 170   178 179 174   130 131 126   209 209 207   158 158 156   165 165 163   116 116 114   201 201 201   140 140 140   166 166 166   174 174 174   188 188 188   143 143 143   130 130 132   173 173 175   111 111 111   165 165 165   153 153 151   134 134 132   114 113 110   144 143 141   170 166 165   160 156 155   116 114 115   163 161 164   144 144 146   147 146 152   215 218 223   143 146 153  
 186 185 157   196 200 183   156 167 158   117 128 120   137 143 131   144 148 133   156 160 145   162 166 151   180 184 169   169 173 158   107 111  97   167 171 157   115 119 105   166 170 156   169 172 160   124 128 116   145 148 137   159 162 151   153 156 145   159 163 154   195 196 190   158 159 154   209 210 205   160 161 156   169 170 167   148 149 146   151 151 149   140 140 137   119 119 118   172 172 171   108 108 108   198 198 198   191 191 191   125 125 125   162 162 164   121 121 122   148 148 148   149 149 149   155 155 153   158 158 156   126 125 123   162 161 159   140 136 135   173 169 168   147 145 146   165 163 166   124 124 126   120 119 125   200 203 208   148 151 158  
 223 221 195   176 180 164   177 187 180   149 160 155   153 159 147   132 136 121   162 166 151   141 145 130   139 143 128   195 199 184   134 138 123   151 155 140   108 112  98   189 193 179   162 166 152   181 185 171   132 135 124   158 161 150   197 200 189   133 136 127   198 199 193   134 135 130   178 179 174   144 145 140   120 121 116   204 205 200   132 132 130   189 189 187   113 113 111   169 169 167   133 133 133   196 196 196   187 187 187   111 111 111   158 158 158   123 123 123   179 179 179   158 158 158   121 121 119   164 164 162   141 140 138   162 161 159   133 129 128   154 150 149   108 106 107   162 160 163   129 129 131   165 164 170   190 193 198   133 136 143  
 210 208 185   181 185 171   143 152 149   182 192 190   150 156 144   115 119 103   145 149 134   170 174 159   133 137 122   171 175 160   149 153 138   172 176 161   108 112  98   228 232 218   126 130 116   179 183 169   178 180 170   130 134 123   201 204 193   171 174 165   153 154 148   175 176 171   176 177 172   175 176 171   155 157 152   180 181 176   153 153 151   137 137 134   142 142 140   115 115 113   195 195 194   177 177 176   181 181 181   127 127 127   164 164 164   151 151 151   163 163 163   148 148 148   114 114 112   168 168 167   140 139 137   139 138 136   162 158 157   155 152 150   132 130 131   170 168 171   116 116 118   180 179 185   170 173 178   161 164 171  
 197 197 181   170 171 162   146 152 146   172 178 171    95 102  85   144 149 129   170 174 159   142 146 132   166 170 156   161 165 150   185 190 170   176 181 161   123 127 110   208 212 197   130 133 122   154 157 147   195 198 189   168 171 160   171 175 160   201 205 191   128 129 121   178 179 174   182 182 177   186 187 182   185 186 181   113 114 109   212 212 209    91  91  89   187 187 185    94  94  92   199 199 197   170 170 168   169 169 167   130 130 128   192 192 190   163 163 161   177 177 177   124 124 124   143 143 141   181 181 179   144 144 142   133 132 130   167 166 164   144 142 143   160 158 159   152 152 154   134 134 136   192 193 197   139 140 145   153 156 163  
