P3
50 50
255
  33  22  17   151 139 126   204 193 161    87  76  22   132 121  41   108  96   8   109  99  14   113 102  23   108  98  29    82  72  22   153 140 122   198 185 169   182 174 135    89  86  35    88  85  30    95  91  46    70  62  42    42  34  23   188 180 167   150 144 128    24  18   3    47  43  19    52  48   7    73  71  23    59  58  13    33  32   3    69  65  53   251 245 245    58  49  52    20   9   7   129 118  98   180 166 138    81  67  39    64  49  30    45  31  28    72  61  67   234 228 234    71  62  69    58  43  46    56  39  32    87  72  51    87  72  44    56  46  10    63  53  19    55  44  23    76  64  51   243 233 225   107  96  91    48  37  27    60  48  33  
  29  18  16   200 188 176   164 150 119   103  90  36   119 104  22   106  91   6   120 105  22    93  79   6   110  98  27    90  77  25   146 130 107   210 197 176   156 149 108   183 180 128   161 161 107   149 147 106   126 120 104    72  65  58   184 178 163   141 135 121    32  22  21    43  34  29    38  31   7    48  44  10    75  72  38    66  63  37    79  75  66   230 224 226    38  29  32    22  11   6   115 102  75   139 125  90   147 132  99    85  70  47    42  28  24    79  67  73   234 227 233    50  40  45    52  36  38    47  28  23    49  33  16    55  41  18    72  61  35    92  80  60    60  49  41    95  83  83   239 226 228    70  55  55    39  27  16    50  36  21  
  22  10   7   224 210 198   140 125  94   119 103  51   133 117  39   124 108  22    86  72   1    99  86  17    94  82  13    69  56   4   241 230 203   129 118  92   109 103  56    92  90  32    93  93  32    87  86  36   117 112  88    96  89  76   182 177 159   189 183 168    81  71  68    81  71  69    64  56  44    45  39  22    68  65  44    60  58  40    94  91  85   228 222 222    33  25  23    42  32  18    58  46   9   106  94  48   185 171 130   118 102  74    26  10   7   119 105 111   220 210 218    23  11  19    42  23  27    55  35  31    39  22   7    35  20   1    78  65  41   112  99  81    69  55  51   129 113 116   236 222 225    68  53  53    79  66  55    71  56  40  
  59  45  37   237 222 207   116 101  70   114  98  48   136 119  45   114  99  17    85  72   1    99  87  15    82  71   5   115 102  51   237 226 193    94  83  50   122 116  61    86  86  18    74  76   5    76  76  16    66  63  27    62  57  33   143 137 113   196 189 171   126 117 109   103  94  90    46  38  32    45  38  28    61  58  43    39  37  24   103 100  97   223 216 218    39  31  29    81  72  57    47  35   4   103  91  43   156 141  98   137 120  88    30  14   5   151 135 137   188 176 179    45  34  33    71  53  43    64  44  25    53  36   7    66  52  18    75  61  27    59  46  18    30  15   1   178 161 151   199 185 175    94  79  65   136 122  98   104  89  59  
  63  47  32   252 237 218    96  81  50   105  90  40   112  95  26   117 101  23   144 132  57   105  95  24    74  63   1   147 135  83   223 210 171    88  78  36   127 123  59    99 100  24    68  71   1    89  90  21    99  98  50    96  93  59    63  58  30   139 134 112   224 216 205   170 161 152   124 118 104   108 102  86    72  71  51    21  20   7   105 101 102   213 207 214    42  32  39    77  65  58   134 120  91   172 158 118   158 140 100   129 110  79    75  57  43   200 185 179   176 165 157    53  41  29    92  76  51   149 130  96   143 128  85   118 103  56   118 106  59   120 106  68    72  58  30   216 201 179   163 149 124   116 101  71   150 137  97   116 102  55  
  88  73  49   249 235 208    81  67  32    98  82  33    94  79  10   113 100  21   115 105  30   135 126  58    73  63   4   192 181 131   187 176 133    73  65  15    98  95  25   104 104  23    93  96  11   140 141  64    68  67   9    84  81  39    52  47  17   217 211 189   128 121 105   105  98  80   149 146 116   167 164 130   175 176 144   131 131 110   163 159 160   221 213 228    76  63  81    95  79  89   117 100  86   127 110  84   129 110  78   141 121  94   121 103  88   213 197 184   135 124 106    75  63  37   112  96  62    80  61  18    93  77  26   148 133  78   147 133  82   135 120  78    95  80  48   250 234 206   145 130  99   134 120  84   157 145  94   133 121  64  
 145 131 100   232 218 188    73  60  21   105  90  39   115 101  30   111  99  21   112 104  29   124 116  50   107  96  43   217 206 161   146 138  92    82  75  21   109 106  33    99  97  15   101 103  16   108 108  28   115 115  52    51  48   4    85  80  48   237 231 209    63  56  38    62  56  33    61  59  18    48  48   2    49  51  12    55  55  27   112 108 103   233 225 238   111  98 117   106  90 102    92  74  65    90  69  47    69  49  22    85  65  42    61  42  29   221 204 193   115 103  85    46  34  13    79  62  31    85  66  28    94  77  33    94  77  33    73  58  18    81  65  34    93  76  55   247 230 210    77  61  39    50  36   6    58  44   2    83  70  18  
 152 139 102   214 201 166    71  59  17   109  97  44   118 106  34   114 104  25    98  91  16   107  99  35    95  85  36   243 232 189   118 110  63    90  83  28   104 100  29    84  81   5    64  64   1    76  75   1    90  89  23    47  43   1   112 107  77   232 225 206    55  48  30    81  75  49    70  67  23    69  68  16    38  39   1    52  52  16    81  78  65   201 193 196   139 127 137   130 115 118   119 102  84    95  77  48    68  49  19    93  73  50    43  24  16   232 214 211   110  97  89    34  21  11    64  46  25    74  52  26    70  50  20    53  33   5    67  50  26    44  25  10   131 112 106   233 213 210    30  14   8    44  27   9    70  54  20    87  72  29  
 155 142 106   201 188 154    78  66  24   148 137  83   143 133  61   101  93  15   105 100  26    98  91  29    80  70  26   244 233 196    96  88  42    93  86  32    91  84  19    77  72   1    72  70   4   100  97  26   105 101  37    71  67  20   150 144 119   204 197 182    53  47  30    83  77  53    62  57  20    73  67  24    64  61  20    88  86  48    76  72  49   108 100  88   217 208 197   179 166 147   161 147 109   135 121  74   115  97  57    83  63  37    51  32  27   234 217 224    98  84  92    37  25  23    68  50  32   111  91  63    94  77  46    59  41  14    68  51  31    27   8   1   174 155 153   203 185 184    52  36  29   101  84  63   115 101  64    79  65  19  
 165 152 120   211 199 169   100  91  52    73  63  12    79  72   7    83  76   1    88  86  11    81  77  14    94  86  47   250 239 207    80  71  28    82  75  23    76  67  10    75  67   4    88  83  14    82  78  11    95  91  30    49  43   3   168 160 141   182 174 164    41  35  19    98  91  72    82  71  46    62  51  20    69  65  26    98  94  57    62  57  29   169 163 138   207 198 170   133 123  84   145 134  77   157 146  83   179 163 112   171 154 121   131 114 107   240 224 235    87  74  91    44  31  37   114  98  75   108  90  53    80  65  27   134 120  85   100  84  59    44  27  13   217 200 193   142 125 118    91  78  62   116 103  72   110 100  52    84  73  18  
 207 194 170   170 159 138    46  38   7    27  21   1    49  43   1    62  59   1   124 122  48   103  99  36   130 122  86   225 216 187    61  52  12    72  64  17    87  77  27   101  91  39   130 121  65    94  87  30    89  84  28    48  40   2   212 202 190   163 153 149    44  38  24    82  73  56    71  55  39    93  77  54    88  77  45    64  55  23    62  55  27   241 233 206   125 116  81   160 149 103   138 129  60   152 142  70   133 122  60   137 124  82   103  89  76   219 206 212   155 144 157   112 103 103   108  96  61   112  98  49   101  89  39   162 149 104   100  87  54    51  39  15   248 235 219   132 119 102   116 107  78   111 103  59   104  98  36   121 114  44  
 211 198 183   144 133 119    34  27   3    66  61  24    65  60  11    80  78  10   137 137  63   115 113  52   151 142 110   196 185 161    50  40   4    73  64  20    83  71  28    92  81  37    73  62  14    73  63  13    78  71  21    65  57  22   238 228 220   112 100 101    59  53  42    79  70  53    67  50  34    57  39  18    71  58  28    55  44  20   108  98  74   239 229 206   101  90  60   132 121  77   120 111  44   108  98  25   149 139  72   180 169 119    86  74  51   162 153 146   189 184 182    91  84  73   127 117  79   152 139  89   132 120  73   116 104  62    97  86  57    91  80  58   237 225 212    71  60  44    59  51  24    64  57  15    76  72  11   104  99  31  
 224 212 205   126 116 107    65  58  39   117 111  77    94  90  36    83  81  14   103 103  30   111 109  49   165 157 126   197 186 163    53  44   7    87  79  35    72  62  20    77  66  25    65  55  12    58  48   5    93  85  42    70  61  31   243 232 230    86  75  80    47  40  30    67  58  40    58  42  21    59  41  17   141 128  96   126 113  85   170 158 139   201 189 171   103  89  67   122 108  74   104  93  36    91  80  14    98  88  24   109  99  47    95  86  54    75  68  48   142 139 123   203 198 179   156 145 114   153 139 102   134 122  85   110  98  68    76  66  46   128 118 106   230 219 216    51  41  36    82  73  58    77  69  38    76  70  21    75  69  13  
 226 217 212   121 112 100    70  63  37   118 111  66    95  91  23    88  85   9   104 102  33   110 107  51   177 171 136   194 187 156    47  43   1    96  90  36    83  77  25    65  58  11    88  81  35    87  78  40    83  77  43   102  94  73   236 224 228    41  31  38    48  41  31    61  54  33    67  55  29    90  76  46   121 108  76   134 120  92   201 188 164   180 165 144    85  69  46   116 101  72   113 100  57    69  56   6    70  60   7    88  77  32    76  67  37    58  50  31   219 212 201   134 125 117   127 110 100   157 141 125   175 162 140   159 150 127   116 110  90   160 155 144   201 194 192    28  19  21    50  40  36    55  46  31    50  41  11    59  51  13  
 220 213 203   132 125 108    78  72  38    95  88  34   122 116  40    94  89  11    75  71   7    76  72  24   209 203 169   155 149 115    73  70  18   105 103  44    83  81  24    91  88  37    85  80  37    69  63  31    42  36  11   110 101  91   231 221 230    28  18  27    21  14   4    78  72  50   124 114  84    81  71  36    88  75  43   128 114  85   235 219 194   114  98  73    92  74  50   152 135 109   114  99  66   100  86  48    67  55  14    77  64  28    82  70  44   134 123 109   223 211 211    53  39  43   103  84  88    48  31  28    67  55  42    86  79  60    53  52  34   172 172 160   202 198 199    91  84  90    88  79  84    42  30  29    53  41  26    41  30   7  
 232 227 206   122 116  92    85  79  45    96  88  42   111 103  39    89  82  13   106 104  47    73  69  27   218 213 185   120 114  86    85  82  39   108 106  56    78  76  29    67  64  24    18  12   1    49  41  19     9   1   1   139 128 127   194 182 194    16   3  15    72  63  56   109 101  80    69  60  29    93  83  48    79  68  36    91  78  51   254 242 219    91  75  52    85  69  45   126 110  84   140 125  92   139 125  90   115 103  66    92  79  47    24  12   3   169 155 145   175 160 163    35  19  24    90  70  71    73  54  48    42  30  14    50  43  25     9   6   2   107 104  97   251 249 251    55  47  58    96  85  95   104  91  96    51  38  29    53  42  24  
 218 213 181   146 141 112    82  76  45   102  92  54   105  95  43   118 108  54   102  99  50    70  67  31   212 205 189   126 119 103    49  45  13    75  71  35    69  65  32    41  35   9    34  28   9    65  56  44    18   8   1   193 180 184   156 141 159    45  30  43    97  86  77    42  33  11    71  63  29    91  82  46    63  52  20   120 108  83   242 227 207    77  61  41    58  42  19    94  78  53   110  95  64   111  96  64   128 114  82   119 105  79    69  55  40   234 219 213   125 110 113    25  12  13    60  41  36    76  58  45    42  28  10    50  42  23    53  49  35    61  57  54   181 176 184   156 147 163   139 127 142    90  75  83    59  44  37    60  47  30  
 156 152 113   167 161 131   136 128 101    96  84  55   100  86  47   113 102  60    98  94  54    66  64  35   223 216 206   120 113 106    76  71  51    90  85  61    50  45  25    32  25  11    44  35  28    44  34  32    10   1   1   210 195 204   139 123 142    77  60  73    78  65  52    45  35   8    55  47   8    77  69  29    69  59  28   160 148 125   212 197 180    89  73  56    85  68  48    76  60  35   119 104  75   133 118  88   161 146 119   121 105  84   106  91  80   247 232 228    83  68  73    54  36  39    61  41  32    62  42  25    55  40  18    43  34  14    54  47  36    63  56  56   116 108 121   211 199 218   139 125 141   155 138 146   133 118 108   123 109  89  
  83  79  40   184 177 149   204 194 172   173 159 137   146 131 100   138 125  90    90  86  51    63  61  35   233 227 222   104  97  96    88  83  71    76  72  58    37  32  22    45  37  32    35  24  26    54  44  48    20   9  14   225 209 219   101  83 100    45  26  34    63  48  29    83  71  35   100  94  48   157 150 107    89  80  49   179 166 146   185 169 155    59  42  29    75  58  40    93  77  52   109  93  63   115  99  71   178 162 138   150 132 117   142 125 117   246 229 228    65  50  53    51  32  31    56  35  21    56  35  13    46  31   7    75  63  44    40  30  20    27  17  18   213 203 216   126 114 131    39  24  35    57  44  46    93  78  58   118 105  73  
 117 112  81   235 227 207    62  50  34   121 105  88   132 116  89   132 119  87   152 148 115   104 102  79   225 220 217   113 108 111    62  57  51    42  37  28    48  43  39    24  18  17    34  24  29    28  17  23    57  45  50   239 224 231    91  73  85   114  96  97    96  81  55    83  72  27    83  78  23   156 152 105    53  44  13   205 192 174   146 132 123    31  15   4    91  74  56   139 123  97    80  63  33    86  69  41   127 110  90   120 102  89   155 137 133   229 211 211    36  20  20    76  57  52    58  36  18    65  41  17    62  42  17   100  85  64    40  28  17    92  80  80   250 239 248    38  25  36    30  14  16    55  40  26    48  35   2    56  46   5  
 198 191 174   144 134 125    76  62  54   229 211 197   123 106  80    97  82  51    86  80  48    68  63  41   205 200 197   159 153 157    74  71  64    67  64  55    31  28  23    40  34  34    26  17  22    46  35  39    63  51  53   237 222 224    96  78  84   117 100  92   103  89  53    72  60   7    55  51   1    72  69  16    40  31   2   210 197 181   145 130 123    96  79  71   139 122 101   106  91  63    69  53  20    81  64  34    80  62  44    52  35  25   193 175 171   183 165 163    18   2   1    64  44  32    77  52  30    77  51  24    81  59  30    91  75  49    56  43  27   177 164 157   195 183 184    18   4   4    50  36  24    66  52  21    69  59   5    94  87  18  
 233 223 218    95  83  83   102  87  83   173 155 143    89  71  45   146 130  97   116 109  77    57  51  31   141 132 131   188 181 186   117 112 106   115 112 102    56  53  47    52  48  46    57  51  52    47  38  38   114 104 101   242 228 226    80  65  65   105  89  76   111  98  55   102  92  32    68  65  18   108 106  48    66  60  27   233 221 206   117 102  96   104  87  79    76  60  37    43  28   3    52  37   1    66  50  16    60  43  22    33  14   4   199 181 177   168 150 144    37  21   6   102  84  62   105  79  50    99  72  39   117  94  61   114  96  66    61  46  25   209 196 182   165 152 143    13   2   1    75  61  32    95  83  35    88  80   7   106  99  14  
 246 234 235    68  53  57    58  42  42   103  85  75    83  63  38    86  68  37   106  96  66   102  94  76    64  53  54   185 175 180   186 180 174   142 138 127   135 132 124   114 111 105    93  88  84    63  57  53   132 124 115   224 214 206    57  44  39   100  86  70   103  91  46   103  95  32   122 122  50   127 126  65    91  85  51   228 216 202    86  72  67    85  68  60    42  27   2    58  44   7    68  53  10    80  64  26    72  54  31    45  25  13   229 211 203   146 128 116    42  28   3   109  91  58   112  85  48    96  67  28   126 102  62   130 111  74    89  74  45   239 225 202   109  97  77    38  25   7    60  48   5    91  80  19   109 102  16   112 107  10  
 215 203 203    32  17  22   101  83  84    79  59  52    87  66  44    92  73  46   106  91  66    88  76  63   108  94  99   224 212 220    53  47  45    82  78  67    96  93  84   123 120 113   162 159 153   129 124 118   170 163 153   211 201 192    69  58  53   105  92  76   141 129  86   117 111  48   111 113  36   111 111  45   107 101  66   235 223 209    74  61  55   101  84  76    36  23   1    69  56  13    93  80  29    90  76  32    77  60  34    56  37  22   243 225 212   117 100  82    55  40   6   109  92  48   111  84  38   103  73  26   120  97  48   120 100  55   133 118  81   251 237 206    68  56  26    88  76  40    74  62  10    74  64   2   114 107  15   111 106   6  
 179 168 163    42  28  28   178 159 161   144 123 118    61  38  22   132 110  89   180 163 144    46  29  22   193 176 186   161 149 159    28  19  17    57  50  40    42  39  30    60  57  49    48  45  38    62  59  50   118 114 103   245 236 227    93  82  79    83  71  57   115 106  65   149 143  81   137 140  59   103 107  33   142 138 101   230 221 204    81  68  62    90  73  63    54  41   8    84  72  24    94  81  28    82  68  19    78  61  31    80  62  43   249 232 216    98  82  58    80  67  23   110  93  40   101  75  19   117  88  31   113  90  33    86  66  13   164 150 103   237 224 182    65  53  16   124 112  68   117 105  45    85  73   1   113 104  11    95  87   1  
 190 180 168   131 117 114   208 190 190   206 185 182    63  39  27   151 128 114   172 153 142    53  35  33   225 206 220   101  85 100    54  43  42    57  49  40    42  39  30    26  23  14    29  28  20    10   8   5    63  59  48   234 227 218   118 108 107   116 103  94   122 112  77   133 128  69   118 121  43   128 132  59   142 138 101   208 199 183    36  23  18   177 160 150   134 121  85   101  89  39    99  87  29    83  70  18    95  79  45   118 100  78   250 232 212    86  69  40   100  88  38   103  88  27   110  85  18   125  96  30   120  96  32    90  71  11   203 187 135   202 189 143    80  67  24   125 113  64   155 144  81   119 107  31   106  97   7    87  78   3  
 173 164 150   148 135 126   224 208 201   178 158 151   107  83  70   224 201 188    94  77  67    43  29  27   243 226 235    55  38  49    39  26  26    59  48  44    54  45  38    38  32  24    43  39  29    69  66  52    36  33  16   112 107  91   206 198 186   176 165 148   126 115  84   108 100  56    78  78  33    81  81  30   159 153 129   200 190 183    13   2   1   120 107  93   127 115  76   110  98  46   108  96  39    91  78  27    94  77  46   132 114  92   234 217 194    81  65  29   117 107  48   108  96  23   127 110  33   127 107  33   133 116  51   109  95  39   240 228 179   170 159 111    94  84  27   111 102  37   102  93  20   113 102  23   120 107  27   120 109  31  
 135 127 114   161 151 139   202 189 175    95  77  62    91  68  50   152 131 115    36  23  14    90  80  76   240 227 227    31  14  18    42  25  27    62  44  45    47  30  29    56  43  37    60  51  39    71  65  47    59  56  32   203 199 173   158 153 127   145 135 110   179 168 142   170 158 130   145 140 109    95  90  66   162 153 148   194 182 184    49  35  33    67  54  38   102  91  51   119 108  55    93  81  27   114 100  54    81  64  37   173 156 135   217 201 175    84  72  29   118 110  42   104  97  13   105  97   9   108  98  18   123 114  52    92  83  34   246 238 200   128 121  74   113 110  38    99  95  10   105  97  14   104  92  15   117 102  37   130 116  52  
  80  72  61   107  97  85   133 118 103    70  51  32   107  85  63    71  50  31    88  74  66   187 177 174   194 182 182    25   9  10    86  67  70    60  40  43    56  38  38    43  28  23    50  40  30    49  42  26   108 103  82   236 231 209    90  85  61   170 159 137   140 126 104    82  68  46    59  52  32    50  43  35   158 148 147   208 196 200    97  82  82   109  96  79    81  72  29    95  86  32    88  79  24   134 120  75    68  54  27   207 192 171   180 166 140    60  50   7   103  97  29   104 101  16   117 112  21   112 105  24   114 106  46   113 105  59   244 238 203   104  97  52   113 111  37   108 103  18   105  97  16   120 107  37   110  92  39   102  85  36  
  36  27  17    38  28  16    70  54  38    78  57  36   126 102  77   141 120  99   171 158 150   203 193 192   182 169 169    29  14  14    81  63  63    84  64  63    64  47  43    89  74  69   130 120 110    88  80  68   167 162 147   181 174 158    73  65  47   148 136 119    79  63  47    67  52  33    45  37  14    17   9   1    70  58  58   251 239 244   108  94  91    97  84  67   113 104  61    92  83  28    92  83  28   122 111  66    66  52  26   218 205 186   156 144 120    54  46   7    94  92  25   100  99  16   128 124  35   115 110  29    91  85  25   130 123  78   235 229 197    89  81  42   115 110  42   103  98  16   112 103  28   114 100  38    85  66  22    73  55  16  
  34  25  18    49  39  29    49  34  15    78  58  33   135 112  81   201 179 155   149 136 128   214 204 205   135 121 120    26  11   7    65  47  42    62  43  36    74  57  48    92  78  69   108  98  89    52  43  34   218 211 201   130 122 111    27  17   5    52  38  25    33  17   3    48  32  16    47  36  16    42  33  17    35  23  23   152 137 142   179 165 161   167 154 135   117 109  63   100  94  36    78  71  16    98  90  44    93  82  55   248 237 219   138 130 107    81  77  39    86  86  22   104 106  26   112 110  23   113 108  30    80  75  17   155 148 106   216 209 180    88  80  44   125 120  57   115 107  32   120 110  41    52  37   1    56  36   1    67  48  16  
  18   8   6    46  33  24    51  36  17   120 100  74   181 157 125   157 136 108    98  85  77   227 216 215   112  99  94    53  36  26   172 155 139   185 167 150   118 102  85   101  87  72   105  94  83    75  66  59   230 223 216    82  74  67    27  17   8    51  37  26    54  38  23    57  41  24    66  55  33    91  79  63    45  31  30   105  89  92   220 205 200   158 145 125   166 158 110   154 149  90   127 121  63   114 108  60   102  93  66   235 227 209    87  81  60    91  89  55    71  73  14    90  94  18    97  96  16   113 108  36    81  76  23   186 179 143   186 179 155    78  69  37   111 105  44   119 111  38   111  99  33    60  44   1    62  42   6    73  54  23  
  19   9   9    67  56  47   111  96  77   133 113  86   119  95  61    79  58  29   107  92  84   250 239 235    92  79  67    71  56  35   222 206 178   225 209 178   116 101  72    62  50  25    75  63  46    93  84  73   235 227 220    56  47  41    43  33  23    44  31  17    62  47  28    55  39  16    46  34  10    58  46  29    51  36  32   203 188 187   166 151 143    99  87  63   143 135  85   130 124  63   129 125  63   117 111  62   134 128  99   243 236 219    95  91  73    96  95  64    86  92  36    81  86  17    86  85  13    96  92  27    62  57  12   196 189 158   162 154 134    68  59  29    84  78  18   106  98  26    91  78   9    76  60   3    75  56  16    94  75  40  
  22  13  14    82  71  64   109  93  76    88  68  42    72  49  17   105  84  55   116 103  92   239 229 220   105  93  71    94  80  48   158 145 102   175 161 114    89  77  33    74  62  25    45  35  10   132 123 107   212 202 194    23  14   7    69  60  46    60  47  29    74  59  33    66  50  21    64  51  24    54  39  21    61  45  38   247 230 226   105  89  78   101  87  59   115 106  54   113 108  43    94  90  27    76  70  19   114 109  80   248 241 225   109 106  89   104 103  74    76  83  31    84  88  26    96  95  31    90  85  29    49  44   6   229 223 197   148 140 124    68  58  31    81  75  15   100  92  18    78  66   4    97  82  19    92  75  27    95  80  36  
  37  31  33    66  56  51    51  37  23    88  70  48   195 174 143   200 180 155   115 103  91   230 220 209   127 116  88   123 110  67    54  42   7    82  71  10   110  99  42    94  84  36    52  43  10   153 145 125   180 172 161    19   9   1    75  64  48    74  62  38    93  79  45    83  67  31    84  71  39    86  71  49   111  94  85   250 233 225    64  48  32   102  89  55   131 122  65   116 109  41   102  98  32    96  91  36    68  61  33   241 234 218   145 140 125    88  87  61   125 128  81   120 124  66   122 121  63    83  79  30    61  55  25   244 238 219    98  88  78    85  75  50    77  70  10    99  92  14    86  74   1   101  86  18    87  72  17   115 101  49  
  20  15  16    51  43  40    26  14   7    60  45  26   186 168 143   199 181 159   138 125 117   235 222 213    78  67  37   123 111  62    92  81  14   104  94  22   121 112  45    94  85  30    70  60  24   196 188 165   171 163 150    64  54  44   128 117  99   166 152 125   175 161 121   117 102  59    71  58  22   128 114  88   149 131 119   226 208 198    72  55  35   120 106  68   118 108  47   117 110  39   110 103  33    68  61   7    96  87  58   122 113  98   200 193 179   185 182 160    91  91  48    78  80  26    72  71  17    53  50   5    79  73  47   246 239 223    61  51  42   102  92  67   110 101  42   100  91  14    96  83   4    99  85  12    94  79  20   120 108  50  
  51  47  47    57  50  47    89  81  72    84  71  57   159 142 124   168 151 135   145 131 129   213 199 193    53  41  12   120 108  58   112 102  30   107  95  18   106  96  23   122 113  53    79  70  31   222 212 190   120 110 100    48  38  30    85  74  57    97  83  56   105  91  50    90  76  29    67  53  13    64  49  20   134 117 101   225 207 192    50  33   7   101  88  45   105  95  29    70  62   1    86  77   6    57  48   1    46  35   7   104  92  77   221 211 199   122 115  96   157 154 114   145 144  93   133 133  81   102 100  56    97  91  66   247 239 226    85  75  66    93  83  58   133 124  65   115 106  29   100  87   9   110  93  22   111  96  39   100  90  32  
  91  89  87   112 107 104    68  61  55    68  56  49   117 102  89   106  90  82   184 170 173   198 184 182   100  86  60   154 141  92    99  89  17   103  92  12   103  94  17    92  82  21    69  60  21   244 233 214   104  94  87    62  50  45    66  54  39    46  32   5    47  32   1    71  56   8    75  62  19    56  41   9   147 129 109   221 202 184    58  41  12   109  93  48   102  91  21    76  66   1    98  89  16    71  60   5    46  32   5   187 172 157   204 191 182    34  24   7    55  49  12    91  88  39   145 144  93   150 149 105   137 133 106   250 243 227    91  81  72   101  91  67   110 101  43   111 102  26   115 101  27   114  97  30    93  77  24    94  83  32  
 170 169 167   147 145 143    97  92  89    48  38  33    51  37  30    39  23  22   194 178 190   182 167 172    91  76  53   125 111  63    96  86  14   118 107  27   121 112  35    97  87  26    89  79  42   253 245 228    86  74  72    47  33  32    48  37  24    71  57  31    75  60  20    65  49   1    95  82  37    69  55  20   174 156 132   220 202 180    69  50  19   137 121  73   133 121  47   110  99  18   104  93  15   104  93  31    89  73  41   237 220 205   135 119 111    53  40  25    68  59  22    68  63  14   165 163 110   117 116  70    84  80  51   243 237 221   132 123 114   111 100  78    88  79  22   113 103  31   113  99  29   100  81  20    75  58  12    91  79  35  
 190 187 186   200 196 195   181 176 173   169 160 155   155 142 133    58  44  41   186 174 184   176 163 170    95  82  62   126 114  71    90  81  16    83  72   3   108  99  29    96  87  32   111 100  68   223 212 198    50  39  35    48  34  31    47  34  18    81  68  35   101  88  36    85  72  13   108  96  43    96  85  41   177 161 133   202 184 157    99  84  42   162 147  89   126 115  37   135 125  40   133 124  45   105  95  34   105  92  58   250 235 216    95  81  63    49  36  12   102  93  54    68  60  11    95  95  35    78  77  23    55  52  18   231 224 205   166 156 144   105  95  73   131 124  71   111 101  38    94  82  18    83  70  14    97  84  42    81  68  33  
  51  41  42    97  87  87    91  82  77    85  75  65   127 119  98    90  83  67   203 197 197   153 147 147    85  78  60   107  99  63   118 111  57   100  91  36    76  66  14    85  76  34   100  90  64   239 230 213    38  28  18    54  43  25    73  63  26   118 107  52   107  95  20   124 116  34   134 131  59    92  87  29   199 187 147   205 192 150   102  92  27   155 146  66   117 112  25   129 124  40   107 105  26    85  81  20   129 124  90   244 237 211    91  86  47    95  88  41    77  66  20    72  63   8    87  87  17    86  85  19    56  53   8    92  84  56   167 159 140   214 206 182   131 126  86    85  79  32    72  68  13    60  54   6    75  70  32   100  93  66  
  45  32  36    44  31  34    74  62  59    82  71  61    79  70  48    25  17  10   177 172 173   185 180 183    72  65  52    81  73  46    94  86  45   101  91  47   101  91  51    58  47  17   108 100  81   225 215 202    72  62  51    86  76  55    69  60  19   117 107  47   137 128  45   119 112  23   119 119  39   109 109  43   201 193 147   202 192 143   101  93  18   145 139  51   102  98   8   120 118  33   117 118  40    63  63   3   126 124  88   221 217 186    78  76  27   113 108  52   100  91  39    74  66   8    84  82   8   108 108  37    92  88  40   109 103  69   227 220 195   151 144 117   166 162 123   171 168 122   151 150  97   131 130  79   113 112  71   101  98  70  
 107  91 100    74  59  67    47  33  34    62  49  42    79  67  51    42  31  22   105  96 106   178 171 182   130 120 116   129 118 101    77  66  36    76  63  28   101  90  59    44  31   9   124 114 102   216 205 199    80  71  64    99  90  74    89  80  46   102  92  38   116 107  32   102  96  13   116 117  38    97  98  32   201 194 148   208 199 150    86  79   4   132 128  37   116 112  21   112 110  23   119 121  39    64  65   3   162 162 123   208 205 171    59  58   5    93  88  30    82  75  21    69  63   3    92  89  17   111 110  42    78  75  27   185 179 143   187 180 151    80  73  42   102 100  54   109 108  54   130 130  71   125 124  69   131 130  85   147 144 112  
  58  42  52    57  41  51    39  23  26    50  35  31    60  46  37    56  43  40    37  25  42   177 166 184   189 178 181   170 156 147   143 129 108    98  83  55    78  64  41    19   6   1   156 146 140   213 203 202    59  50  49    74  65  56    99  92  64   107  98  52   102  92  28    85  78   5   104 106  32    97  99  35   200 195 149   180 174 125   101  94  19   125 121  31   103 101  11   111 110  23   123 127  43    74  76  11   185 186 146   189 188 152    75  75  21    97  94  34    80  74  17    88  81  23   110 107  39    89  86  22    72  68  22   241 235 199   141 134 103    84  79  42   100  97  47    89  87  28    91  92  26    87  86  26    71  69  21    95  91  57  
  39  22  32    61  43  52    43  28  29    94  78  77   103  88  82    43  29  29    77  64  81   229 216 234    49  34  39    74  59  52   188 171 153   173 156 136   160 144 127   111  97  89   171 159 159   199 188 193    63  54  59    92  84  80    84  75  57    73  64  30    97  87  37   122 115  54    99 101  35    93  94  35   222 218 180   154 147 102   125 121  47   136 133  48   118 118  32   118 120  36   119 122  43    81  86  22   200 202 164   168 168 133    92  92  39   113 111  51   108 101  46   125 116  61   118 114  52   105 100  44    93  88  45   236 230 196    84  78  46    77  72  34    83  80  27   109 108  44    65  66   2    85  85  21    76  74  25    79  75  40  
  86  69  74    31  15  18    41  25  24    85  70  66    54  39  36    11   1   1   176 163 172   176 164 173    62  46  45   114  97  87   133 116  95   182 166 143   162 146 130   101  87  77   162 151 152   209 198 206    55  46  55    60  51  54    45  37  28    37  29   7    56  46  13   114 106  60    97  98  42    79  81  32   244 241 210   102  96  60   105 100  37   127 124  45   134 133  54   111 112  35   138 141  68    85  88  32   195 196 165   143 142 113    97  96  49   135 132  77   133 126  75    89  79  31   102  96  45   109 102  57   104  95  62   255 247 218   102  93  64   120 112  75    75  72  19    85  85  21    55  53   1    65  63   2    52  49   4    55  50  18  
  82  66  65    52  37  33    58  44  35    82  68  59    67  53  48    32  18  16   206 194 195   144 133 129   162 149 137    54  37  23   171 155 128   229 211 186   211 196 176   129 115 104    93  81  81   241 231 238   117 110 118    87  77  85    57  49  47    45  36  23    30  18   4    67  59  26    75  74  32   112 113  76   227 222 203    28  21   1    78  72  19    98  94  26    93  90  21    94  93  26   108 109  47    76  76  29   202 201 178   130 127 106    51  48  14    82  78  33    97  88  44    60  47   9    79  69  29    88  79  45   131 121  97   246 235 214    64  54  36    73  64  32    79  75  25    85  82  24    62  60   3    69  67  13    75  71  32    70  64  38  
  52  38  31    55  42  29    53  41  25    50  38  24    60  47  40    72  60  55   235 225 216   113 104  88   172 159 137   116 101  74   180 165 133   216 200 169   164 149 125    94  80  65    59  48  44   141 131 134   171 163 171   162 152 160    91  82  83    66  56  49    38  24  11    52  41  20    29  28  10   183 183 158   163 156 149    52  42  39    78  71  30    74  67  16    89  85  26    78  74  17    85  83  31    73  71  33   214 209 196   129 123 112    24  19   1    39  30   1    68  55  19    92  78  46    94  81  52    68  55  33   135 123 108   223 211 198    17   6   1    44  35   8    74  66  24    71  65  14    75  72  20    82  77  32    97  90  59    78  69  50  
  62  50  38    67  58  39    53  44  22    46  37  19    39  27  20   118 108 101   223 215 199    51  44  21   151 141 113   155 143 112   111  97  62   142 127  94   145 130 104    73  60  42    34  24  15   135 125 124   201 191 196   127 117 122   153 142 142   160 146 143   104  87  77    65  52  38    35  31  17   217 214 200   128 118 123   110  96  97   114 104  74    74  64  22    84  77  28    75  68  20    75  71  27    59  55  24   223 215 208   113 104 101    27  17   1    51  39  10   101  87  57   108  91  65   107  93  70    60  47  30   153 139 129   222 208 200    44  30  20    60  47  27    87  79  44    70  63  19    65  59  16    82  75  37    78  70  47    73  64  50  
  60  50  36    57  49  28    44  37  11    56  49  30    24  15  10   147 139 135   209 203 189    16  11   1    62  55  27    79  68  38    50  37   5    81  66  35   101  87  61    72  59  40    37  27  15   237 228 224    88  79  77    16   9   9    71  60  56    59  44  38   170 152 140   175 162 146   110 104  90   232 227 222    68  56  68    74  59  65    69  57  35    82  70  32    87  75  33   119 110  66    90  82  43    75  68  42   239 228 226    94  82  82    59  46  28    85  70  41    93  76  50    74  56  33    96  81  60    56  43  27   173 158 151   211 196 191    53  39  30    86  73  56    95  86  54    50  42   6    53  45   8    53  44  15    24  15   4   157 147 136  
