P3
50 50
255
  71  65  49    58  52  38    51  45  32    53  45  34    55  47  36    55  46  37    54  45  36    54  47  39    44  37  29    32  25  17    29  25  16    41  37  28    39  35  26    33  29  20    27  24  15    22  19  10    27  24  15    33  30  21    33  32  23    35  35  23    40  38  25    45  43  28    38  36  23    35  33  20    36  34  22    38  35  26    41  38  29    38  36  25    44  42  29    42  40  27    40  38  22    50  49  30    64  64  42    74  77  45    73  78  39   109 113  76   115 118  84    73  76  46    56  59  32    50  52  30    48  50  30    53  54  36    53  54  36    42  43  25    51  52  34    61  62  44    57  58  40    77  78  60    84  85  67    61  62  44  
  61  56  37    49  43  28    44  38  23    48  41  29    54  45  34    57  48  39    64  56  47    79  72  64    73  65  58    62  55  47    48  44  34    46  42  33    43  39  30    36  33  24    30  27  18    25  22  13    29  26  17    33  30  21    32  31  22    34  34  23    45  43  30    50  48  34    41  39  26    36  34  22    33  31  19    35  32  23    43  40  30    43  40  30    43  41  28    39  37  23    37  35  18    48  47  28    69  68  45    76  79  45    92  97  56   111 116  76    86  90  56    88  92  61    55  59  31    51  53  31    57  59  39    55  56  38    57  58  40    43  44  26    43  44  26    53  54  36    48  49  30    71  73  52    92  93  73    59  61  40  
  64  59  40    53  48  32    48  42  27    50  43  31    56  48  37    63  54  45    66  58  49    71  64  56    70  63  55    66  59  51    48  44  35    39  35  26    41  37  28    45  42  32    45  42  33    46  43  34    48  45  36    43  40  31    37  37  27    42  42  30    47  45  31    51  49  35    41  39  26    38  36  24    37  34  25    35  32  25    44  41  33    45  42  33    41  38  27    42  40  27    44  42  27    51  50  31    70  69  47    80  83  51   107 112  72    85  89  53    76  80  46    87  90  59    69  71  46    61  63  41    62  64  44    57  58  41    61  62  46    58  59  42    50  51  33    42  44  25    42  43  22    61  63  41    93  96  73    74  76  54  
  62  57  38    51  45  29    44  38  23    44  38  25    47  42  29    53  46  36    55  48  38    53  46  36    56  49  39    58  51  41    41  37  26    34  30  21    47  43  34    44  41  32    44  42  33    52  49  40    51  48  39    38  35  26    29  28  18    35  35  23    45  43  30    48  46  33    38  36  24    40  38  27    43  40  31    38  35  25    45  42  33    45  43  32    40  38  25    50  48  35    56  54  39    57  56  37    68  67  45    82  85  54    92  96  59    60  64  29    72  76  44    71  74  44    87  90  64    65  67  44    60  62  41    59  60  40    62  63  45    75  76  58    62  64  43    37  39  18    39  41  20    48  50  29    88  90  69    90  92  71  
  67  64  47    55  52  37    45  41  28    41  37  25    50  44  32    55  48  38    50  44  34    51  44  34    51  45  35    46  42  31    42  38  27    41  37  26    43  39  28    42  40  28    39  37  25    38  35  26    42  40  31    41  41  31    35  35  25    29  29  19    46  43  34    44  41  32    37  34  25    47  44  35    40  37  28    29  26  17    43  41  29    46  44  31    38  36  23    46  44  31    56  54  39    62  60  44    72  71  52    82  84  57    71  74  44    62  65  34    55  59  28    67  70  42    89  92  65    77  79  54    56  58  34    54  56  34    61  63  41    67  69  47    63  65  44    46  48  27    31  31  14    44  42  30    72  70  58    85  83  70  
  63  60  45    57  54  39    50  46  33    42  38  26    44  40  29    50  46  34    47  42  31    43  37  25    48  43  31    48  44  32    47  43  31    51  47  36    52  48  37    43  41  29    37  35  23    34  31  22    35  33  23    35  35  25    33  33  23    31  31  21    39  36  29    38  35  28    33  30  23    41  38  30    36  33  24    27  25  13    42  40  28    49  47  34    46  44  31    47  44  32    55  53  38    69  67  51    78  77  58    69  71  46    65  68  39    62  65  36    51  54  27    55  58  31    71  74  47    70  73  46    43  45  21    52  54  30    68  70  46    74  76  53    68  70  48    51  53  31    38  39  23    47  44  34    50  47  38    49  47  35  
  67  64  47    63  60  45    55  52  37    43  40  25    39  35  23    48  44  32    53  48  37    52  46  34    57  51  39    53  47  35    45  41  29    46  42  30    39  35  24    37  34  22    34  32  20    30  27  18    29  27  17    31  31  21    33  33  23    33  33  23    32  29  22    32  29  22    28  25  18    36  33  24    33  30  20    27  25  13    43  41  29    54  52  39    53  52  38    45  43  30    51  49  34    71  69  53    81  80  61    59  60  37    60  63  36    58  61  34    50  52  28    53  55  31    59  61  37    63  64  41    50  52  30    53  55  33    59  61  39    59  61  40    62  64  44    65  67  47    56  56  40    43  40  30    35  32  23    35  33  21  
  67  64  47    64  61  44    56  53  37    45  42  27    38  35  20    46  43  28    54  49  37    48  42  30    51  45  33    48  42  30    40  36  25    46  42  31    41  37  26    35  32  20    34  32  20    31  28  19    30  28  18    32  32  22    35  35  25    34  34  24    28  25  18    28  25  18    27  24  17    33  30  22    32  29  20    31  29  17    39  37  25    37  35  22    33  31  18    26  24  11    27  25  10    40  38  22    55  54  35    55  56  33    65  67  43    58  60  36    58  59  35    66  68  44    58  61  37    59  62  39    57  59  37    53  55  33    48  50  29    46  48  27    57  59  38    69  71  50    63  63  47    45  43  30    38  36  24    40  39  26  
  51  46  27    54  49  30    54  49  31    55  49  33    48  42  26    46  40  24    58  52  38    59  53  41    53  47  36    48  41  30    35  31  19    41  37  25    37  33  22    32  28  17    36  32  21    36  33  24    36  33  25    40  37  28    40  37  28    36  33  24    29  26  19    29  26  19    29  26  19    35  33  24    36  33  24    36  34  22    44  42  30    45  43  30    34  33  19    34  32  19    30  29  14    33  31  15    51  50  31    62  63  42    76  78  56    67  69  47    66  68  46    70  72  51    56  58  37    58  60  39    49  51  30    47  48  31    50  51  33    52  53  35    58  59  41    56  57  39    49  49  34    54  52  39    44  42  29    39  37  24  
  30  25   5    38  33  15    53  48  29    66  60  44    57  51  35    47  41  25    64  58  43    79  73  60    62  56  44    54  48  35    34  29  18    31  27  16    28  24  13    28  24  13    36  32  21    41  38  29    41  38  29    43  40  31    41  38  29    35  31  23    32  29  22    31  28  21    32  29  22    39  36  27    41  38  29    39  37  25    44  42  30    46  44  31    34  31  19    38  36  23    35  33  18    31  29  13    50  49  31    64  65  45    78  80  58    73  75  53    67  69  48    60  62  41    48  50  29    58  60  41    47  48  30    45  46  28    46  47  29    50  51  33    57  58  42    47  48  32    36  36  21    48  46  33    46  43  31    43  41  28  
  30  25   5    40  35  16    54  49  30    70  65  46    60  55  36    52  47  29    72  66  50    74  68  55    55  49  37    55  49  37    39  33  21    36  30  19    37  30  20    30  25  14    36  32  21    43  39  30    43  39  30    43  40  31    41  38  29    33  30  21    34  32  24    32  29  22    34  31  24    41  38  29    45  42  33    41  39  27    43  41  28    54  52  39    47  45  32    49  47  34    51  49  34    52  51  35    66  65  47    65  65  47    66  67  49    63  64  46    59  60  42    53  54  36    47  48  30    58  59  43    52  53  37    45  46  30    39  40  24    39  40  24    51  52  38    49  50  36    35  36  21    36  37  21    45  46  30    52  52  37  
  47  42  22    52  47  27    58  53  34    68  63  43    59  54  35    59  54  35    85  79  63    81  75  62    57  51  39    58  52  39    38  32  20    27  21  10    26  19   9    26  21  10    35  31  20    42  38  29    40  37  28    41  38  29    39  36  27    32  29  20    35  32  25    31  28  21    33  30  23    42  38  30    46  43  34    39  37  25    36  34  22    45  43  30    43  41  28    44  42  29    48  46  31    58  56  40    67  66  48    62  63  45    52  53  35    45  46  28    51  52  34    55  56  38    54  55  38    57  58  42    49  51  34    45  46  30    39  40  24    38  39  24    51  52  38    51  52  38    37  38  23    36  37  21    46  47  31    53  54  38  
  49  42  24    51  44  26    58  51  33    62  55  37    64  57  39    67  60  41    70  63  46    61  53  41    66  58  47    54  46  35    31  25  13    35  29  18    28  21  11    29  24  13    32  28  17    33  29  20    33  29  20    33  29  20    33  29  20    34  30  21    35  32  25    35  32  25    34  31  24    35  32  24    40  37  28    44  42  30    41  39  27    36  34  21    33  31  18    38  36  23    31  29  14    47  45  29    59  58  40    43  43  25    44  44  27    53  54  36    53  54  37    54  55  39    53  54  38    36  38  21    46  47  31    44  45  30    37  38  24    45  46  32    63  63  49    58  59  45    47  48  34    49  50  34    58  59  43    59  60  44  
  75  68  50    66  59  41    58  51  33    57  50  32    63  56  38    76  69  50    75  68  52    48  40  28    61  53  42    66  58  47    39  33  21    27  21  10    30  23  13    26  21  10    27  23  12    31  27  18    30  26  16    34  30  21    38  34  25    35  31  22    38  35  28    36  33  26    33  30  23    33  30  22    35  32  23    32  30  18    28  26  14    37  35  22    40  38  25    39  37  24    35  34  19    46  45  29    46  45  27    34  35  17    35  36  18    43  44  26    50  51  33    48  49  33    46  47  31    50  51  35    49  50  34    50  51  36    53  54  40    62  64  50    69  70  57    68  69  55    66  67  53    54  55  40    50  51  35    52  53  39  
  75  68  52    76  69  53    83  76  60    91  84  67    95  88  70    98  91  73   100  92  77    93  85  73    92  83  73    81  73  62    44  36  25    22  14   4    21  14   4    25  18   8    30  23  13    33  26  18    30  24  16    36  32  23    42  38  29    39  35  26    30  27  20    27  24  17    25  22  15    29  26  18    36  33  24    38  36  24    36  34  22    41  39  26    42  40  27    43  41  28    47  45  30    50  48  32    49  48  30    44  44  26    36  37  19    32  33  15    48  49  30    51  52  34    43  44  26    59  60  42    44  45  29    46  47  31    53  54  38    61  62  48    58  58  45    57  58  44    63  64  50    52  54  41    43  45  32    42  44  31  
  75  68  52    73  66  51    79  72  56    88  82  65    96  89  72   102  95  78   104  97  82   105  97  85   117 109  98   114 106  95   102  94  83    97  90  79    83  76  66    68  61  51    56  49  39    41  34  26    32  26  18    28  24  15    30  26  17    35  31  22    25  22  15    22  19  12    18  15   8    19  16   8    28  25  16    36  34  22    40  38  26    42  40  27    35  33  20    37  35  22    49  47  32    48  46  31    58  57  39    67  67  49    54  54  36    32  33  15    47  48  30    61  62  44    47  48  30    55  56  38    60  61  43    59  60  44    59  60  44    62  63  47    59  60  46    54  55  41    52  53  39    43  45  32    40  42  29    37  39  26  
  61  53  41    58  50  37    60  52  39    64  56  43    66  59  43    69  62  46    74  66  51    85  75  64    87  77  67    79  69  59    75  67  56    86  78  68    88  79  70    79  72  62    72  65  55    81  74  66    95  89  80    81  77  68    58  54  45    53  49  40    53  50  43    53  50  43    47  44  37    38  35  27    35  32  23    37  35  23    38  36  24    42  40  27    41  39  26    32  30  17    38  36  21    46  44  28    53  52  34    70  71  51    70  71  50    45  47  27    48  50  29    62  64  43    52  54  33    52  53  34    65  66  48    65  66  48    55  56  39    56  57  41    66  67  51    56  58  42    42  43  30    37  39  28    37  39  28    35  37  26  
  43  35  24    46  38  26    52  44  31    56  48  35    58  50  37    61  54  38    62  54  42    62  52  42    69  59  49    75  65  55    66  58  47    57  48  38    67  58  49    71  63  54    59  52  42    59  52  44    72  66  57    63  59  50    51  47  38    57  53  44    60  58  50    67  64  57    67  64  57    59  56  48    51  48  40    45  44  32    41  39  26    49  47  34    67  65  52    45  43  30    36  34  19    53  51  35    47  46  28    55  57  36    71  73  52    62  63  43    50  52  31    52  54  33    51  52  31    53  54  34    48  49  31    53  53  35    41  42  24    42  43  26    58  59  43    51  52  36    37  39  26    37  39  29    32  33  25    34  37  26  
  46  36  27    43  33  24    41  31  21    44  34  22    55  45  33    74  64  52    82  72  61    73  63  53    70  60  50    67  57  47    54  46  35    45  37  27    59  50  41    65  58  48    59  52  42    51  44  36    49  42  34    42  35  27    31  26  17    27  23  14    34  31  24    38  35  28    42  39  32    44  41  33    45  42  33    40  38  26    36  34  22    47  45  32    73  71  58    62  60  47    41  39  24    54  52  36    51  50  32    51  52  32    62  64  42    67  69  47    54  56  34    45  47  25    47  49  28    51  53  32    49  51  30    59  61  41    54  55  37    50  52  34    55  56  38    51  52  35    44  46  33    36  38  29    31  32  26    38  39  31  
  25  16   8    33  24  15    42  33  23    43  35  24    43  35  22    51  43  30    57  49  37    67  59  48    67  59  48    58  50  39    58  50  39    58  52  40    54  47  37    38  31  21    36  32  21    33  29  20    29  25  16    37  33  24    40  36  27    32  29  20    36  33  24    30  27  20    28  25  18    33  30  22    41  38  29    40  37  28    35  33  21    31  29  17    53  51  38    66  64  51    40  38  23    40  38  22    55  54  35    58  59  37    55  57  35    63  65  43    58  60  38    46  48  26    46  48  27    45  47  26    57  59  38    70  71  51    71  72  54    60  61  43    48  49  31    46  47  29    47  49  36    32  33  26    33  34  28    42  43  37  
  27  22  16    26  22  13    26  22  12    31  27  16    43  39  27    52  48  36    64  59  46    81  74  60    77  69  56    66  60  46    60  54  42    54  48  36    42  37  25    37  33  22    32  28  17    34  30  21    33  28  20    25  21  15    23  20  13    27  24  15    26  23  15    31  28  19    30  27  18    33  30  23    39  35  29    39  36  29    37  34  25    36  33  24    38  36  25    43  41  28    51  49  34    39  38  22    44  43  24    60  61  40    67  69  46    69  71  49    60  62  40    50  52  30    52  54  33    61  63  42    63  64  46    65  66  49    74  75  59    60  61  45    35  36  22    38  39  26    47  47  36    33  33  26    26  25  20    25  24  19  
  20  17  10    21  18  11    25  22  13    32  30  19    45  43  31    54  52  39    66  64  50    92  87  73    96  90  76    79  73  59    49  46  33    33  29  17    26  22  10    35  32  20    33  31  19    37  34  25    37  34  25    29  26  19    26  25  17    28  28  18    30  28  16    34  32  21    32  29  20    32  29  20    35  32  24    32  29  22    32  29  22    33  30  22    33  31  20    40  38  25    51  49  34    44  43  27    51  50  31    82  83  61    73  75  51    59  60  39    68  70  48    75  77  55    67  69  48    59  61  40    57  58  40    56  57  40    54  55  39    41  42  27    32  33  19    34  35  21    33  33  22    31  31  24    22  21  16    19  18  13  
  18  15   8    21  18  10    26  23  14    33  31  20    45  43  31    51  49  36    53  48  35    56  50  36    72  66  52    70  64  50    52  48  36    47  43  31    50  46  35    45  42  30    36  34  22    40  37  28    41  38  29    34  31  22    30  29  20    32  32  22    37  35  23    41  39  27    38  36  25    37  34  25    35  32  23    30  27  20    30  27  20    35  32  23    33  31  20    38  36  24    50  48  34    48  46  30    56  55  36    68  69  47    69  71  49    74  76  54    85  87  65    86  88  67    69  71  50    50  52  31    49  50  32    53  54  37    45  46  30    31  32  17    36  37  23    40  41  27    32  32  21    31  31  24    22  21  16    17  16  11  
  21  18  11    25  21  14    28  25  16    32  30  19    39  37  25    42  40  27    46  42  29    56  50  36    60  54  40    57  50  37    47  42  30    40  36  24    36  32  21    41  38  26    37  35  23    39  36  27    40  37  28    34  31  22    33  32  23    37  37  27    43  41  29    47  45  33    45  43  31    44  41  31    40  37  28    35  32  25    37  34  26    41  38  29    40  38  27    42  40  27    47  45  30    47  46  30    59  58  39    78  79  57    71  73  51    54  56  34    63  65  43    88  90  69    84  86  65    52  54  33    41  42  24    49  50  32    46  47  31    36  37  22    41  42  28    45  46  32    37  37  27    32  31  25    25  24  19    21  20  15  
  26  21  15    28  23  17    30  26  17    32  28  18    37  32  22    37  33  21    40  35  23    49  43  31    49  43  31    46  40  28    41  37  25    37  33  22    34  30  19    40  38  26    36  35  23    36  34  22    35  33  22    31  28  19    33  32  22    38  38  28    41  39  27    46  44  31    46  44  32    47  44  34    44  41  32    41  38  31    44  40  33    45  42  33    47  45  34    47  45  33    45  43  30    48  46  30    62  61  43    77  78  57    64  66  44    50  52  31    65  67  46    83  85  64    79  80  61    62  63  45    40  42  25    38  39  24    45  46  32    47  47  35    45  45  33    40  40  29    34  34  25    32  31  25    27  26  21    25  24  19  
  28  23  17    29  24  17    30  26  17    32  28  18    37  32  22    37  33  21    39  34  23    48  42  30    52  46  34    49  43  30    34  31  19    31  27  15    37  33  22    41  38  27    34  32  20    34  32  20    33  31  20    30  27  18    33  32  23    39  39  28    35  33  20    40  37  25    42  40  28    43  40  31    41  38  29    40  38  30    45  43  35    46  43  34    50  47  36    50  48  35    46  44  29    50  48  32    63  62  43    56  57  36    43  45  23    57  60  38    80  82  61    65  67  46    45  47  28    57  58  40    53  54  38    37  38  22    45  46  32    58  58  46    52  52  40    36  36  24    30  30  20    32  32  25    27  26  21    26  25  20  
  33  28  22    32  28  21    31  27  18    32  28  18    37  33  22    40  36  24    39  34  22    40  34  22    50  43  32    50  43  33    36  32  21    32  28  17    42  38  27    41  39  27    32  30  18    35  33  21    36  34  22    32  30  18    34  33  21    39  39  27    34  32  19    37  35  22    39  37  25    40  37  27    36  33  24    37  34  25    46  43  34    50  47  38    50  47  36    50  48  35    47  45  30    50  48  32    56  55  36    60  62  41    45  47  26    40  42  21    55  56  36    49  50  32    34  35  19    38  39  23    53  54  40    40  40  27    46  46  34    53  53  42    44  44  34    34  34  24    34  34  25    39  39  32    29  28  23    25  24  19  
  39  34  28    37  32  25    34  30  21    33  29  18    37  33  22    40  36  24    39  34  22    37  31  19    45  38  28    48  41  31    39  35  24    34  30  19    38  34  23    38  35  23    32  30  18    37  35  23    40  38  26    36  34  22    35  35  23    38  39  25    36  34  21    39  37  24    39  37  24    38  36  24    33  30  21    34  31  22    47  44  35    56  53  43    50  48  35    49  47  34    47  45  30    48  47  28    46  45  25    43  44  24    59  61  40    69  71  50    54  55  35    39  40  22    32  33  16    27  28  12    36  37  23    37  37  24    42  42  30    34  34  23    25  25  15    30  30  20    40  40  33    48  47  42    34  33  28    25  24  19  
  42  35  29    46  38  32    47  40  32    45  38  29    45  38  28    44  38  26    39  33  21    36  29  19    40  33  23    43  36  26    41  37  26    40  35  25    39  35  24    37  35  23    40  39  27    43  41  29    41  39  27    34  32  20    31  31  18    45  46  32    48  46  33    48  46  33    49  47  34    34  32  20    33  31  19    46  43  34    51  48  39    54  52  40    40  38  25    40  39  25    36  34  19    53  52  33    62  61  41    48  48  30    47  48  30    57  58  40    61  62  45    45  46  30    30  31  16    32  33  19    45  45  33    43  43  32    41  41  31    36  36  27    28  28  20    25  25  17    25  25  18    29  28  23    36  35  30    36  35  30  
  36  29  23    37  30  23    37  30  22    38  31  22    42  35  25    44  38  26    41  35  24    40  33  23    43  36  26    46  39  29    44  40  29    45  41  30    46  42  31    42  39  27    41  39  27    41  39  27    40  39  27    38  36  24    39  39  25    53  54  40    50  47  32    71  69  55    59  57  44    48  46  34    43  41  29    39  36  27    49  47  37    47  45  33    37  35  23    30  28  13    47  46  28    58  57  38    48  47  27    41  41  23    44  44  27    58  59  41    63  64  47    47  48  32    30  31  16    29  31  17    39  39  27    39  39  28    39  39  29    33  33  24    26  26  18    24  24  16    26  26  19    29  28  23    35  34  29    37  36  31  
  42  34  29    37  30  24    33  26  18    32  25  16    37  30  20    40  34  22    39  32  21    42  35  26    44  37  29    45  38  30    44  40  29    47  43  32    50  46  35    47  45  33    45  43  31    40  38  25    40  37  25    41  39  26    43  43  29    56  57  43    58  56  41    85  84  69    75  73  60    62  60  48    54  52  40    42  40  28    44  42  30    35  33  21    36  34  21    33  31  17    59  58  40    71  70  52    51  50  30    38  38  20    37  39  22    49  50  34    54  55  40    43  44  30    31  31  18    32  32  19    37  37  27    41  41  31    40  40  32    32  32  24    25  25  17    26  25  20    28  27  22    29  28  23    36  35  30    44  43  38  
  60  53  47    52  45  38    40  33  25    33  26  17    35  28  18    36  29  18    36  29  18    43  36  27    42  35  27    41  34  26    40  36  25    43  39  28    48  44  33    50  47  35    47  45  33    41  39  26    40  38  25    42  40  27    41  41  27    48  49  35    60  58  43    69  67  53    78  76  63    64  62  49    52  50  38    46  44  32    34  32  20    24  22   9    33  31  17    45  43  28    69  68  50    78  77  57    56  55  34    44  44  25    41  42  25    45  46  30    47  48  33    42  43  29    40  40  28    46  46  34    40  40  30    46  46  36    44  44  36    35  35  27    28  28  20    29  28  23    31  30  25    28  27  22    36  35  30    53  52  47  
  70  61  56    62  52  47    49  40  33    41  32  24    42  33  24    42  34  23    42  34  25    45  38  30    42  36  27    39  32  24    36  32  23    39  35  26    44  40  29    47  44  32    46  44  32    41  39  26    41  39  26    44  42  27    39  40  24    41  42  26    54  52  37    51  49  34    65  63  49    65  63  50    52  50  37    43  41  29    37  35  23    34  32  19    36  34  19    53  51  36    96  95  77    76  75  54    37  36  16    48  48  31    53  54  39    55  56  42    53  53  40    49  49  37    49  49  39    53  53  43    37  37  29    44  44  36    43  43  35    34  33  27    30  29  24    33  32  27    34  33  28    27  26  21    31  30  25    51  50  45  
  59  50  45    56  47  42    49  40  33    45  36  27    47  39  29    51  43  32    51  43  34    48  41  33    45  38  30    40  33  25    36  32  23    39  35  26    44  40  29    45  42  30    46  44  32    43  41  28    44  42  29    48  46  31    42  42  26    41  42  26    57  55  40    58  57  42    57  55  40    73  71  57    67  65  52    50  48  36    59  57  45    63  61  48    51  49  35    60  59  41   131 130 110    84  83  62    26  25   4    43  43  26    54  55  41    58  59  44    53  54  40    47  47  35    41  41  31    36  36  26    29  29  20    36  36  28    35  35  27    29  28  22    30  29  24    34  33  28    33  32  27    26  25  20    25  24  19    38  37  32  
  40  31  26    44  35  30    44  35  28    41  31  23    44  34  25    48  40  29    50  41  33    47  40  33    44  37  31    40  33  27    36  32  23    39  35  26    44  40  29    50  48  35    54  52  39    51  49  36    50  48  34    52  50  35    47  47  31    44  45  29    57  56  38    64  63  46    54  52  37    64  61  48    72  69  57    61  59  47    66  63  51    70  68  55    57  54  40    65  63  48   125 124 106    98  97  77    50  49  28    43  43  26    49  50  36    52  53  39    46  47  34    41  41  29    34  34  23    26  26  16    28  28  20    33  33  26    30  29  24    25  24  19    27  26  21    29  28  24    27  26  22    25  24  19    24  23  18    29  28  23  
  30  23  16    36  29  22    37  30  22    34  27  19    34  27  17    38  31  21    41  34  24    42  36  29    38  33  27    35  30  24    34  30  21    38  34  25    43  39  28    57  54  42    64  63  50    59  57  44    55  53  40    54  52  38    48  48  32    47  48  32    48  46  31    52  50  35    46  44  30    38  36  23    57  56  43    66  64  52    49  47  35    50  48  35    44  42  29    61  59  44    89  88  69   104 103  82    81  80  60    51  51  33    51  52  36    52  53  37    44  45  31    42  42  29    41  41  28    35  35  25    33  33  23    36  36  28    31  31  23    23  23  15    24  24  17    24  23  18    20  19  14    23  22  17    28  27  22    31  30  25  
  32  25  19    35  28  22    32  25  19    36  29  23    31  24  16    22  15   7    26  22  14    27  22  16    33  28  22    32  29  22    31  28  19    28  25  16    32  29  20    42  40  31    93  91  79    79  77  65    50  48  36    57  55  43    51  48  37    51  49  36    44  45  31    41  42  27    50  51  38    31  31  20    39  39  31    45  45  37    43  43  35    37  37  28    40  41  28    59  60  44    82  83  65    61  63  41    74  76  54    83  82  62    61  61  41    45  44  26    46  45  27    45  43  29    40  37  25    47  44  35    39  35  27    36  33  24    41  38  29    39  36  27    33  30  21    32  30  18    34  31  23    38  35  29    32  29  24    33  30  25  
  35  30  24    35  30  24    31  26  20    30  25  19    28  23  17    26  21  15    30  25  19    32  29  22    30  27  20    27  24  17    30  27  18    31  28  19    35  32  23    37  34  25    38  35  26   100  98  86    84  82  70    47  45  33    54  52  40    43  41  29    46  47  33    39  40  26    52  52  39    52  52  42    48  48  40    37  37  29    46  46  38    31  31  22    33  33  22    55  56  40    70  71  52    53  55  33    54  56  32    85  85  63    79  79  57    54  53  33    43  42  25    42  40  26    40  38  26    44  42  30    43  40  31    40  36  27    42  39  30    39  37  26    34  32  20    35  33  20    35  33  22    37  34  28    38  35  30    42  39  34  
  38  34  25    36  32  24    33  28  22    26  21  15    30  25  19    34  29  23    30  26  20    34  31  24    30  27  20    28  25  18    34  31  22    35  32  23    35  32  23    25  22  13    34  31  22    29  27  15    87  85  73    80  78  66    31  29  17    41  39  27    40  41  27    42  43  29    44  44  31    49  49  39    46  46  38    36  36  28    53  53  45    34  34  25    36  36  25    58  59  43    68  70  49    62  64  42    51  53  29    74  74  52    84  83  62    63  62  42    38  37  19    32  30  16    33  31  19    36  33  24    43  40  31    38  35  26    39  36  27    37  34  25    36  33  24    39  37  25    37  34  25    36  33  27    41  38  33    46  43  38  
  36  32  23    34  30  21    35  31  23    27  22  16    33  28  22    41  36  29    28  23  17    30  27  20    32  29  22    34  31  24    39  37  28    35  32  23    31  28  19    30  27  18    25  22  13    28  26  14    34  32  20    87  85  73    71  68  56    27  25  12    25  26  10    46  47  31    42  43  28    35  35  23    40  40  30    38  38  28    42  42  32    36  36  25    41  42  28    55  56  40    72  74  53    76  78  53    63  66  39    60  60  37    78  77  57    74  73  55    45  43  28    33  31  19    35  32  22    37  34  25    37  34  24    33  30  21    35  32  23    35  32  23    37  34  25    40  38  26    37  34  26    37  34  28    38  35  30    36  33  28  
  30  28  16    32  29  20    36  33  24    29  26  19    36  33  26    40  37  30    26  23  16    27  24  17    32  29  22    35  32  25    37  34  24    33  30  21    32  29  20    37  34  25    49  46  37    42  39  28    36  34  22    46  44  32    92  90  78    54  52  39    38  39  23    50  51  35    46  47  32    36  36  24    38  38  28    35  35  25    22  22  12    30  30  19    35  36  23    39  40  22    64  66  44    74  76  51    67  70  43    65  66  43    80  79  59    78  77  59    56  54  39    51  49  36    52  49  39    48  45  38    37  34  27    35  31  25    37  34  27    38  35  28    40  37  30    39  36  27    36  32  24    37  34  27    36  32  26    30  27  20  
  30  28  16    35  33  21    39  37  26    36  33  26    38  34  28    37  34  27    28  25  18    29  26  19    30  27  20    28  25  18    31  28  19    32  30  21    38  35  26    52  49  40    45  42  33    51  49  37    42  40  28    39  37  25    37  35  23    94  92  79    88  89  73    62  63  45    41  42  26    36  37  22    34  34  22    38  38  28    24  24  13    28  29  16    35  36  20    34  35  17    61  64  41    72  75  48    67  70  42    79  80  57    80  79  61    61  59  44    50  48  34    56  54  42    56  53  43    49  45  38    43  39  33    41  37  31    42  39  32    41  38  31    43  40  33    41  38  29    35  32  24    38  35  28    37  34  27    35  32  25  
  36  34  21    41  39  27    41  39  28    42  39  32    38  35  28    31  28  23    30  28  22    28  28  20    25  25  17    24  24  16    30  30  20    33  33  23    38  38  28    42  42  32    47  47  37    38  38  26    37  37  24    32  32  20    51  51  39    55  56  42   105 106  88    80  81  63    37  38  23    31  31  18    31  31  19    40  40  30    34  34  24    30  30  17    39  40  25    47  49  29    67  69  46    80  82  55    69  72  44    82  83  60    73  72  54    45  43  28    40  38  25    45  43  32    43  40  32    42  39  32    43  40  35    40  38  33    40  37  32    40  37  31    45  42  35    46  43  36    39  36  29    38  35  28    38  35  28    40  37  30  
  43  41  28    46  44  31    42  40  27    45  42  33    37  34  27    27  24  19    32  30  24    25  25  17    23  23  16    27  27  19    38  38  28    39  39  29    35  35  25    40  40  30    35  35  25    43  43  31    40  40  28    42  42  30    53  53  41    51  52  38    76  77  59    92  93  75    47  48  32    34  35  21    34  34  22    35  35  25    30  30  20    25  26  13    37  38  23    59  61  41    71  73  50    85  88  61    68  71  43    76  76  53    68  67  48    45  43  28    40  38  24    36  34  21    32  29  19    43  40  33    38  34  29    35  32  27    34  31  26    36  33  27    46  43  36    50  47  40    44  41  34    39  36  29    37  34  27    40  37  30  
  54  52  37    52  50  37    53  51  39    42  39  29    36  33  26    39  37  32    32  30  24    20  20  12    20  20  12    27  27  19    31  31  21    35  35  25    31  31  21    30  30  20    38  38  28    42  42  30    41  41  29    42  42  30    51  51  39    71  72  58    54  55  39    49  50  33    39  40  25    35  36  23    37  37  25    34  34  24    31  31  21    30  31  18    35  36  21    39  40  23    62  64  42    72  75  47    68  71  43    64  64  41    62  61  43    54  52  37    45  43  30    46  43  33    42  39  31    28  25  18    37  34  29    43  40  34    37  34  27    29  26  19    35  32  25    42  39  30    40  37  28    40  37  28    40  36  27    36  33  24  
  43  42  24    45  43  29    52  50  38    47  45  35    43  40  33    41  38  33    31  30  25    27  27  19    24  24  16    27  27  19    33  33  23    39  39  29    41  41  31    35  35  25    38  38  28    41  41  29    41  41  29    41  41  29    46  46  34    60  61  47    54  55  39    43  44  28    38  39  24    40  40  28    35  35  25    33  33  23    36  36  26    32  32  21    35  35  22    40  41  24    64  66  44    77  79  54    75  78  51    68  69  46    58  57  37    50  49  31    49  47  32    47  45  33    38  36  26    30  27  19    28  25  18    50  47  40    60  57  50    56  53  46    56  53  44    57  54  44    49  46  37    38  35  26    39  36  27    37  34  25  
  40  41  23    41  42  27    47  47  34    46  46  36    46  46  38    41  40  35    30  29  23    23  24  16    20  22  14    24  25  17    30  32  20    38  40  29    42  44  33    34  36  25    34  36  24    33  35  22    33  36  22    34  36  23    32  34  21    38  40  26    53  54  38    40  41  25    38  39  26    42  42  32    30  30  22    27  27  19    38  38  30    37  37  28    33  34  21    35  37  21    58  60  39    77  79  56    82  85  58    69  69  46    50  49  29    43  43  23    50  48  31    47  45  31    37  35  23    36  33  24    41  37  29    57  54  45    59  56  47    50  47  38    55  53  41    72  70  58    68  66  55    41  38  29    43  40  30    43  40  31  
  48  49  29    45  46  28    41  42  27    40  40  27    44  44  35    40  39  34    29  28  22    18  19  11    20  21  13    26  27  19    30  33  22    39  41  30    44  46  35    39  41  30    36  38  27    31  33  20    31  33  20    31  33  20    25  27  14    26  28  15    47  49  34    43  43  30    40  40  29    35  35  27    23  23  15    22  21  16    36  35  29    39  39  31    30  30  19    27  28  14    46  47  29    69  71  49    81  83  59    67  68  44    54  53  31    50  49  28    52  51  31    51  49  33    49  47  33    52  50  38    38  36  24    52  50  38    54  52  40    47  45  33    49  47  34    60  58  45    60  58  47    47  44  35    47  44  35    47  44  35  
  48  50  29    46  47  30    38  39  24    35  35  23    39  39  30    35  34  29    28  28  22    23  24  16    23  24  16    27  28  19    30  32  21    40  42  31    50  52  41    48  50  39    43  45  34    37  39  26    36  37  25    35  37  24    28  30  17    26  28  15    35  35  23    45  45  33    38  38  27    26  26  17    19  18  13    21  20  16    30  28  24    33  33  26    26  26  17    27  27  15    39  40  23    58  60  39    69  71  48    65  66  42    67  67  43    65  64  43    56  55  35    56  55  38    63  61  46    67  65  52    44  42  29    48  46  34    46  44  32    43  41  28    47  44  32    51  49  36    51  49  36    47  44  34    43  41  31    43  40  31  
  46  48  27    52  53  33    44  45  29    38  38  26    38  38  29    32  30  25    28  28  22    27  28  20    22  23  16    19  20  12    19  21  10    31  33  22    46  48  37    43  45  33    40  42  31    36  38  25    34  36  23    31  33  20    23  25  12    23  25  12    26  26  15    40  40  30    32  32  23    20  19  13    20  19  14    24  23  19    25  25  20    24  23  19    26  25  18    33  33  22    40  41  25    54  55  36    63  65  44    60  61  36    68  68  42    68  68  44    55  54  33    55  54  35    64  63  45    65  63  48    57  55  40    48  46  33    41  39  26    45  43  30    55  53  38    58  56  41    52  50  36    43  40  30    38  35  26    37  34  25  
