P3
50 50
255
 255 242 248   250 230 235   212 187 191   158 139 145   210 198 206   253 247 252   207 190 197   158 129 131   222 214 211   237 240 239   250 243 249   197 175 188   182 160 172   180 155 165   240 220 225   244 243 239   189 183 181   156 136 142   199 185 192   238 232 236   252 245 248   219 206 210   209 196 200   246 240 244   255 246 251   200 173 182   197 174 182   247 240 243   251 253 253   250 242 245   248 209 222   206 167 180   181 160 167   177 168 171   247 242 244   253 249 250   237 235 236   227 225 226   251 250 251   255 253 254   255 254 255   255 254 255   255 254 255   255 254 255   255 254 255   255 254 255   255 255 255   255 255 255   255 255 255   255 255 255  
 233 198 205   252 218 224   228 198 203   169 146 153   207 193 202   254 247 253   221 205 211   171 146 146   217 208 205   234 230 231   222 200 212   215 188 203   221 200 212   160 138 147   193 176 178   251 245 241   205 192 192   177 152 157   185 171 175   244 239 243   252 248 251   215 202 206   217 202 207   250 242 246   237 226 230   172 145 155   181 158 166   253 247 249   253 255 255   254 250 253   249 218 232   188 146 160   156 134 141   155 146 149   220 218 219   223 221 222   222 220 221   243 241 242   246 244 245   254 253 254   255 254 255   255 254 255   255 254 255   255 254 255   255 254 255   255 254 255   255 254 255   255 255 255   255 255 255   255 255 255  
 130  88  98   203 163 170   251 218 224   225 200 206   237 221 228   251 244 252   228 213 220   217 194 195   245 237 235   255 249 252   178 149 164   200 170 186   254 234 246   212 193 200   188 171 175   190 182 180   179 161 164   221 190 199   220 204 211   238 236 239   253 248 252   235 221 226   242 229 235   255 251 254   255 246 250   207 180 189   194 171 179   244 237 239   234 237 236   233 225 228   243 200 214   200 157 171   211 188 196   188 179 182   197 196 196   187 187 187   193 193 193   248 248 248   250 248 249   254 253 254   255 254 255   255 254 255   255 254 255   255 254 255   255 254 255   255 254 255   255 254 255   255 255 255   255 255 255   255 255 255  
 116  88  89   126  99  98   149 121 121   149 121 125   192 170 175   222 211 217   206 193 196   215 195 195   230 213 212   232 213 214   187 149 160   170 137 149   219 201 206   229 210 212   238 222 223   197 192 188   151 139 138   169 146 149   199 183 186   237 230 230   255 251 254   252 241 245   253 245 249   254 245 249   255 247 250   223 192 200   179 153 159   213 202 204   235 234 232   231 222 222   201 163 174   162 125 137   208 189 196   201 194 196   206 206 206   238 236 237   221 219 220   252 250 251   251 249 250   254 253 254   255 254 255   255 255 255   255 255 255   255 254 255   255 254 255   255 254 255   255 254 255   255 255 255   255 255 255   255 255 255  
 128 131 114   164 165 149    94  82  71   102  76  74   169 140 141   163 147 147   133 118 119   159 137 140   159 129 133   125  85  89   109  58  63   104  67  66   137 120 113   200 177 174   169 148 147   217 218 212   234 237 230   209 202 198   194 178 176   214 198 197   255 248 251   255 253 255   255 251 253   255 240 243   255 245 250   248 220 228   173 141 146   170 155 154   237 229 228   255 240 240   210 180 186   169 144 151   159 149 152   174 169 171   177 175 175   225 221 222   216 209 211   235 226 229   250 243 246   252 248 249   253 253 253   249 252 252   247 251 250   251 253 252   244 244 244   254 253 254   249 248 248   255 255 255   254 255 255   254 255 255  
  94 111  85   199 212 190   159 156 140   104  82  76   163 133 132   203 185 184   188 173 173   233 216 218   225 195 198   141  96  98   131  81  79   134  99  91    85  72  57    98  79  71   107  88  84    86  93  83   111 122 112   130 131 123   158 143 139   183 159 159   195 179 182   202 192 196   217 209 211   245 223 226   254 220 228   249 212 219   172 135 140   122 100 100   212 195 192   254 239 239   248 222 227   233 214 217   182 173 175   215 210 212   215 211 212   229 219 222   181 170 174   161 149 153   215 205 208   252 251 252   244 245 245   248 252 251   251 255 255   251 255 255   254 255 255   244 242 243   252 251 252   246 247 246   250 252 251   254 255 255  
 135 144 123   201 206 187   228 222 210   211 195 187    71  47  45    88  68  67   133 117 117   183 167 167   226 199 199   154 115 115   116  72  69   116  90  78   114 109  94   129 116 107   130 116 112   126 137 128   161 174 165   102 103  96   108  92  88   224 195 196   226 196 204   188 163 170   130 107 112   139 105 112   140  94 104   141  89  98   106  64  68    98  72  72   107  86  84   155 131 133   151 120 126   199 173 178   144 131 133   148 141 142   205 199 201   220 209 212   240 227 231   215 200 205   190 177 181   248 242 245   245 241 242   224 225 225   246 250 249   251 253 252   253 253 253   255 254 255   255 254 255   255 255 255   254 255 255   254 255 255  
 194 198 181   222 221 206   206 197 187   238 224 218   167 149 147    90  70  71   102  86  85   130 117 115   216 195 191   158 128 123   109  76  67   105  88  74    97 101  83   166 161 150   161 152 146   183 194 186   237 247 241   197 197 192   126 107 106   118  87  90   189 154 161   197 168 175   140 117 120   175 143 148   184 142 149   126  81  86   118  84  86   116  99  95   110  96  92   134 117 115   112  88  91   118  99 101    78  71  70    73  68  69   116 107 110   129 117 121   136 120 125   101  84  90   117 101 107   157 145 150   218 214 215   196 195 196   215 217 216   239 239 239   238 236 237   253 251 252   239 236 236   248 249 249   252 254 253   254 255 255  
 142 142 130   222 213 204   175 162 155   204 192 187   156 142 141   155 135 136   158 141 141   101  91  87   139 123 116   127 104  96   121  95  84   112 107  89   104 117  96   151 153 141   163 160 155   178 191 184   231 244 237   248 246 243   188 166 168   114  80  85    93  61  66    68  46  48   104  91  89   102  86  83   132 109 107   127 102 100   112  98  93   130 131 121   117 123 110   192 194 186   152 146 140   137 138 132   138 148 139   152 154 150   150 140 143   116 104 108   132 117 122   116  99 105   131 115 120   150 139 143   160 154 156   177 176 176   171 171 171   221 220 220   233 230 230   235 226 229   223 218 220   219 218 218   240 240 240   254 254 254  
 123 119 110   124 112 106   131 116 112   192 180 178   201 190 188   176 156 158   220 204 203   133 125 119    91  79  71    95  77  66    99  82  67   105 107  86   141 162 139   133 141 127   224 223 218   240 253 246   234 245 241   249 245 245   240 215 220   192 156 163   201 167 171   114  93  92   101  94  87    96  87  80   116 103  97    80  66  61   123 119 110   211 220 207   158 170 156   150 157 145   147 144 137   164 168 159   207 219 210   205 208 205   204 196 198   132 120 124   131 116 121   178 161 167   164 150 155   116 107 110   169 165 166   194 192 193   208 208 208   241 239 240   255 254 254   250 242 245   246 244 245   230 229 230   246 246 246   254 254 254  
 169 165 160   102  89  85   108  89  88   207 190 191   242 226 227   166 147 151   148 134 133   123 115 107   104  93  82    99  85  72    90  78  62   117 124 102   117 142 118   109 117 105   201 197 194   245 255 252   248 252 253   229 217 220   223 191 198   252 216 225   235 195 200   166 138 138   159 145 138   110  97  89    90  75  68    91  74  67   156 150 140   239 242 231   243 246 235   184 178 170   105  90  87   168 157 153   244 243 237   255 255 252   211 207 208   150 143 145   109  98 102   130 118 122   147 136 140   132 126 128   198 196 197   197 200 199   227 231 230   240 243 242   253 253 254   255 252 254   255 250 252   255 254 255   255 254 255   255 253 254  
 252 251 247   204 193 191   119  99 100   132 110 113   245 237 239   177 161 164   136 125 123   166 158 149   144 133 121   124 110  97    83  72  56   143 152 130   208 234 211   162 169 159   175 169 169   249 252 252   248 249 251   238 223 228   187 150 159   150 103 113   168 127 130   125  99  95   158 147 138   135 127 118   120 110 101   113 101  93   137 131 121   235 236 226   251 247 238   241 226 221   137 113 113   116  96  94   220 213 208   253 252 249   254 255 255   223 221 221   179 174 175   213 204 207   176 169 172   159 155 156   233 235 235   228 235 232   225 233 230   249 253 252   246 249 248   255 254 255   255 253 254   253 250 251   251 249 250   254 252 253  
 249 250 247   246 241 239   180 159 162   103  72  80   112  82  90   155 141 143   102  94  90   125 114 106   144 128 118   144 128 115    70  60  43    91  99  80   154 177 157   183 185 177   122 111 114   242 240 243   249 242 247   230 206 213   182 141 150   119  72  80   136  99  99   111  93  86   188 186 173   205 206 193   162 160 148   125 118 110    91  86  78   155 155 147   236 229 223   252 232 230   165 133 136   108  81  82   137 124 122   202 201 198   222 228 226   249 250 250   201 200 201   213 209 210   230 227 228   189 191 190   240 247 245   246 254 252   247 255 254   245 254 251   251 255 254   254 255 255   255 254 255   255 254 255   255 252 253   255 254 255  
 240 244 241   239 237 236   228 210 213   137  99 109   121  87  96   133 123 124    92  86  82   131 119 111   142 126 116   197 179 167   132 120 106    96 102  83   129 149 131   175 174 168   114  96 101   160 151 156   245 237 242   228 210 217   171 129 139   124  78  86   115  86  84   107 100  89   164 175 157   213 227 209   197 205 192   132 134 124   134 137 128   135 138 129   139 132 127   211 191 190   229 197 200   147 121 122   125 113 110   169 172 168   211 222 218   249 253 253   223 226 226   197 197 197   223 224 224   245 249 248   242 251 248   244 255 253   246 255 255   246 255 253   249 255 253   250 254 253   253 253 253   255 254 255   255 253 255   255 253 254  
 223 228 224   255 249 249   247 219 227   195 154 164   174 138 146   227 219 217   136 132 127   144 129 122   186 166 158   121 101  92   120 104  93   129 132 116   141 155 140   153 145 144   134 108 117   122 108 114   218 202 209   209 181 189   168 128 137   140 100 104    99  84  75    98 106  88   133 159 136   183 212 189   188 210 193   152 163 152   222 233 223   229 237 229   187 183 180   146 129 129   162 136 139   189 169 170   159 155 151   190 197 192   226 237 233   241 247 245   253 255 255   253 253 253   253 253 253   243 249 247   245 255 252   244 255 252   245 255 254   248 255 255   246 255 252   248 252 251   253 252 253   255 251 253   255 250 253   255 253 255  
 232 233 230   252 245 246   218 188 195   154 113 122   189 153 161   224 217 215   156 151 146   103  87  81   135 115 108   142 122 113   107  90  80   169 169 156   198 209 195   158 144 145   146 115 127   123 107 116   209 192 199   234 209 215   207 173 177   148 114 113    94  79  70   109 118 100   179 205 183   233 254 241   212 232 218   184 194 185   250 254 249   253 255 251   241 233 232   171 150 153   110  80  86   161 141 143   160 157 153   160 167 162   216 227 223   248 254 252   252 254 254   249 249 249   252 252 252   252 255 255   248 255 254   244 255 251   246 255 254   249 255 255   249 255 253   252 254 253   255 254 255   255 251 253   255 248 251   255 252 254  
 246 244 242   254 244 246   243 219 226   165 126 134   201 169 174   251 246 243   211 205 200   147 131 127    80  59  55   124 104  98   143 125 118   174 173 161   235 244 233   193 176 180   129  96 109   131 112 122   174 160 166   213 194 197   209 181 182   172 143 140   122  96  89   100  91  79   158 167 151   238 246 234   214 217 208   202 194 192   244 233 235   254 241 245   251 224 233   201 164 175   135  94 106   179 152 156   227 219 217   208 211 207   233 239 237   253 254 254   247 246 246   251 248 249   251 249 250   252 252 252   252 255 255   249 255 254   249 255 254   251 255 254   252 252 252   255 253 254   255 252 254   255 250 254   255 252 255   255 248 251  
 230 222 223   253 232 236   254 221 229   178 145 150   158 132 135   214 204 202   221 214 210   174 158 155   106  87  84    98  79  73   114  98  90   189 188 176   228 237 226   186 169 173   138 105 118   167 148 159   130 119 124   165 151 151   171 153 148   133 109 104   141 113 106   116 102  93   149 153 141   234 239 229   208 205 200   213 201 201   255 245 250   255 245 252   228 201 211   135  98 110    88  49  60   138 115 120   225 222 219   224 227 225   225 227 226   248 248 248   253 249 251   255 253 255   255 250 252   255 253 254   252 252 252   253 255 255   253 255 255   251 252 252   254 250 251   255 251 253   255 249 252   255 249 253   253 246 249   247 238 240  
 246 235 236   232 202 209   243 206 214   175 146 150   165 147 147   147 138 133   229 218 215   169 154 152   115  98  94    96  78  74    86  70  63   191 190 181   237 245 236   200 183 187   201 168 181   229 213 220   110 101 103   100  91  88   137 125 118   164 147 138   183 161 155   109  99  89   111 119 105   212 223 211   239 242 236   231 221 223   250 239 244   254 242 249   243 222 231   200 174 185   168 143 152   147 141 143   215 225 221   248 254 253   249 248 248   242 238 239   252 243 246   251 239 243   249 238 242   243 233 237   239 235 236   251 250 251   255 254 255   253 250 251   255 251 254   255 250 254   255 247 251   238 229 233   215 204 208   236 225 229  
 248 234 240   193 158 169   205 167 176   154 126 129   137 121 117   128 119 110   202 195 188   209 199 198   114  96  96   106  88  82    89  80  70   178 181 170   242 247 241   231 210 218   215 181 195   216 201 204   124 117 114    93  90  83   116 113 106   194 186 179   189 169 163   116 102  95   117 119 108   173 182 171   218 225 217   238 237 235   255 254 255   254 249 252   254 247 253   255 244 253   232 214 222   172 168 169   194 205 201   231 235 232   251 242 243   209 193 196   197 181 186   179 168 172   213 199 204   220 208 212   223 217 219   245 243 244   255 253 254   255 250 251   255 252 253   255 249 253   255 246 251   215 200 206   171 153 157   231 221 222  
 246 217 232   187 147 164   159 119 130   131 100 102   103  85  76   124 119 101   186 187 178   218 213 218   194 175 177   112  91  83    90  93  75   194 203 191   245 243 245   223 196 209   224 188 201   207 190 186   120 117 105    99 103  91   183 191 188   244 244 246   234 209 212   134 107 106   108  96  90   151 149 141   184 190 182   251 255 251   251 255 252   255 252 253   254 240 246   255 247 254   252 240 249   212 197 207   188 180 186   205 192 195   250 240 244   191 155 163   143 119 125   196 189 191   239 225 231   204 187 195   231 225 229   248 247 249   255 254 255   250 243 244   230 220 219   251 240 240   255 237 243   227 183 194   171 141 147   212 206 204  
 249 221 236   187 147 163   182 142 153   149 122 121   106  93  80   127 126 106   200 204 195   193 191 197   140 118 122   102  79  72   104 108  89   208 217 205   255 253 255   245 218 232   189 151 164   248 240 232   151 150 133    84  91  77   186 196 194   244 245 252   253 232 235   199 169 169    96  74  72    96  87  82   145 148 141   232 241 234   249 255 251   254 254 254   255 250 255   255 243 254   255 244 254   241 222 233   234 222 230   211 192 196   219 188 193   165 120 130   187 159 165   238 236 236   229 218 223   208 191 199   242 241 243   253 252 253   250 243 244   241 227 228   213 193 195   221 199 201   242 204 212   188 136 148   167 138 142   212 213 207  
 251 241 249   214 177 191   230 192 202   236 217 215   183 183 170   142 147 128   218 220 214   225 218 226   170 145 149   137 109 103    85  84  69   154 158 148   206 197 202   195 163 178   175 134 148   232 215 208   174 171 156   131 136 122   178 187 186   234 238 244   255 242 242   241 220 219   183 158 160   114  95  96   132 126 123   217 225 217   243 251 245   249 248 248   252 244 250   255 243 255   254 242 253   227 209 220   197 189 195   208 186 191   174 135 143   140  96 106   203 179 186   241 242 242   222 212 217   206 191 198   237 241 242   251 253 253   253 248 252   255 246 253   221 186 194   155 118 125   146 104 113   131  89  99   188 169 171   243 246 241  
 255 249 252   239 215 224   175 136 144   151 140 135   173 185 169   147 157 142   212 216 211   186 177 184   164 134 140   194 164 161    93  88  75   124 124 116   201 188 194   156 122 138   184 147 158   226 209 204   155 151 139   155 158 146   162 171 168   213 221 224   254 253 251   232 217 216   190 163 167   137 113 117   142 129 129   178 181 176   246 254 247   242 238 237   237 213 221   221 185 197   195 163 174   183 169 176   217 218 219   202 180 184   156 114 123   101  59  69   156 135 141   237 239 239   212 203 207   193 180 187   225 235 234   249 253 253   254 247 251   255 241 253   241 191 205   193 142 154   157 114 124   102  73  78   201 192 190   248 253 249  
 249 239 234   240 214 218   173 138 143   145 143 136   140 163 148   119 134 122   225 227 225   255 249 255   203 175 182   157 123 123   108  98  89   122 116 110   204 187 193   191 157 171   111  75  85   117 100  96   198 193 183   220 222 213   188 196 193   171 181 182   193 201 197   242 235 233   215 190 195   150 120 128   175 153 159   198 195 193   193 194 191   243 235 235   203 175 183   125  85  96   113  81  90   144 135 138   221 230 226   252 231 235   187 141 153   118  80  90   115  99 103   210 213 212   246 235 241   172 158 166   179 195 192   237 250 247   255 244 250   245 197 213   190 120 141   152  89 105   133  92 101   118 103 104   200 203 197   237 249 240  
 194 187 176   159 134 131   134 100 102   182 182 176   213 239 225   152 167 158   174 175 173   213 200 206   198 168 175   237 205 206   168 155 150   140 130 127   185 164 170   204 173 184   128  98 106    88  78  73   186 183 174   202 201 193   206 213 210   138 151 151   180 194 189   239 239 239   255 244 251   204 180 188   165 139 146   231 219 221   166 158 159   179 164 167   193 162 170   102  64  75   110  82  89   134 132 130   211 224 218   227 207 210   200 154 165   156 122 131   103  91  93   193 195 194   237 221 228   193 175 183   186 202 199   236 250 247   255 245 251   246 195 213   179 105 128   126  65  81   108  76  82   119 118 114   209 220 211   245 254 249  
 224 217 201   173 151 143   134 105 104   180 182 174   219 242 229   225 236 230   239 238 239   187 173 179   143 114 121   239 209 212   203 190 187    93  80  80   156 134 140   188 159 169   105  82  88    98  94  89   176 175 168   195 194 188   223 231 227   217 232 229   191 209 205   239 243 244   253 243 251   246 222 233   189 159 169   217 196 203   173 154 159    92  69  75   115  84  92    81  50  58   147 128 130   174 177 172   218 233 223   250 230 234   183 138 151   191 163 172   169 162 164   217 216 216   233 211 218   162 136 145   215 230 225   242 253 252   253 246 251   255 220 237   196 126 150   131  81  96   126 108 112   125 134 129   214 230 223   247 255 252  
 111 104  85   150 133 120   124 101  96   178 176 170   241 250 248   247 253 251   247 246 248   246 236 238   164 140 144   165 138 143   193 181 181   109  96  96   148 128 130   236 214 217   147 133 133   100 102  96   183 186 181   184 182 178   206 213 208   241 252 251   209 225 222   213 220 221   255 249 253   230 210 219   182 154 166   218 188 198   232 204 214   142 111 119   135 107 114   141 119 124   199 190 189   211 217 211   230 242 233   253 243 246   179 143 156   210 189 196   194 189 191   197 193 194   209 180 190   215 183 194   218 230 226   244 254 254   254 249 254   255 224 240   178 121 141   134 103 113   193 190 188   190 207 199   226 241 235   244 254 249  
 113 105  82   140 126 110   167 150 141   167 160 154   239 238 236   241 241 243   246 245 246   241 235 233   218 201 201   224 205 208   195 186 187   140 127 129   138 118 120   174 158 158    91  85  83   103 109 105   120 125 121   122 119 117   214 222 214   234 249 239   227 239 238   216 223 226   245 246 250   235 225 233   220 195 208   165 126 141   175 131 147   135  97 110   182 157 164   237 227 229   163 166 160   221 231 223   244 249 244   255 244 249   187 158 168   199 182 188   238 231 234   228 220 223   155 117 130   122  81  95   179 182 181   185 198 193   189 180 183   203 168 180   200 159 173   144 135 139   175 188 184   185 204 198   228 243 237   247 250 247  
 104  93  71   112 100  81   184 171 158   169 159 153   183 175 172   206 198 201   196 193 192   192 190 184   226 217 216   253 248 252   246 240 242   195 184 186   134 116 117    94  81  80   154 154 149   182 193 189   168 173 171   118 110 112   171 174 167   243 250 244   252 255 255   251 255 255   250 255 255   235 231 236   232 212 223   195 151 168   164 114 132   127  85  99   119 100 105   203 206 203   170 183 174   175 186 178   242 241 238   230 216 220   209 190 198   190 178 182   191 186 188   213 203 207   246 206 219   175 127 143   109 107 107   168 177 174   128 123 124   173 149 157   195 172 180   154 164 162   179 202 195   208 227 220   238 248 244   247 248 246  
 109  98  76   107  97  78   146 137 122   208 194 186   164 149 148   136 125 125   158 153 148   176 178 168   228 224 222   254 249 253   252 246 252   229 217 221   158 138 139   116 105 101   235 236 230   204 215 214   179 179 184   130 116 122   152 149 144   233 238 228   243 240 244   246 247 252   243 251 252   246 247 251   254 248 254   248 205 222   193 141 160   189 149 162    85  72  76   127 137 134   193 212 203   133 142 137   199 191 193   178 166 172   192 179 187   239 229 235   222 215 219   203 194 197   249 230 241   174 131 144    95  87  88   186 191 188   228 226 227   184 169 176   233 221 228   167 187 185   175 199 193   174 187 182   216 221 219   234 233 234  
 110 102  79   111 103  82   121 113  96   123 112 101   197 184 178   183 170 167   122 116 107   192 196 183   235 235 232   254 250 254   251 246 253   238 224 228   197 176 175   134 123 117   209 212 204   225 234 233   246 240 248   198 174 185   155 143 140   186 185 175   224 215 218   241 237 244   249 254 255   230 231 234   241 226 236   255 234 250   240 197 214   180 146 158   149 142 144   103 118 113   109 129 121   142 146 142   204 191 194   223 211 216   171 164 170   165 154 160   178 171 175   183 177 179   231 196 206   144 102 114   153 144 145   213 216 214   234 232 233   174 163 169   184 178 182   237 255 254   223 238 238   150 156 155   150 151 150   231 229 230  
 106 101  79   141 135 114   166 158 140   138 131 115   112 106  92   141 128 119   175 169 156   207 211 195   248 250 245   255 253 255   255 250 255   253 237 245   249 221 222   203 187 183   182 182 176   211 215 218   248 234 247   225 191 206   166 143 142   203 193 184   246 234 237   245 237 244   254 254 255   221 220 223   223 209 216   215 183 196   184 150 163   183 159 169   156 155 157    98 113 110    94 110 105   116 115 115   162 145 152   207 194 203   205 198 206   170 154 164   204 196 201   188 188 188   177 154 159   109  77  85   130 122 123   239 240 238   195 189 191   155 143 149   141 131 139   179 187 190   221 228 229   166 163 166   152 149 152   234 232 235  
  86  88  64   108 103  83   147 137 119   129 129 108   123 126 105   134 125 110   180 175 158   199 204 186   248 250 246   250 248 255   255 248 254   246 222 231   226 195 196   246 228 222   225 221 216   236 236 241   240 219 236   207 163 182   133 100 102   187 169 161   254 249 252   247 237 245   237 232 238   226 220 224   252 246 251   212 189 199   143 119 129   176 165 171   201 207 207   179 194 191   216 226 222   171 166 167   147 127 134   148 137 144    89  82  90   160 140 151   220 212 216   163 168 167   187 174 177   114  91  97   111 106 105   226 224 223   222 214 217   170 156 162   179 163 173   167 161 168   167 161 167   129 120 125   179 173 177   209 209 211  
  87  92  70    80  77  57    86  76  58    73  81  57    85 101  74   134 129 109   121 117  97   141 145 126   202 204 199   237 232 241   255 249 255   247 225 238   218 180 184   240 224 219   255 252 248   248 242 250   255 235 253   229 186 208   136  95  99   101  77  69   209 194 195   248 237 243   225 214 220   170 157 164   181 166 173   194 178 186   175 164 170   203 201 204   230 238 238   215 225 224   229 232 233   232 223 228   179 158 168   200 187 197   182 172 181   170 147 160   165 156 163   180 191 189   181 178 178   166 152 154   111 111 108   170 167 167   244 234 239   255 236 247   189 165 178   176 152 166   111  91 103   155 141 149   221 214 219   234 237 238  
  79  84  64    80  78  60    85  78  59    90 100  75    70  86  57    96  91  69    91  86  66    85  87  69   105 103  97   139 128 135   176 158 168   169 138 145   144 105 105   189 163 156   250 246 238   246 234 237   255 239 251   236 195 212   181 132 138   104  71  69   111  93  95   230 217 222   247 229 235   182 164 170   153 138 143   211 203 205   217 216 217   235 237 239   240 242 243   208 208 211   243 237 241   250 240 247   176 160 170    94  91  96   182 183 187   248 239 246   172 167 170   151 164 158   166 163 162   161 146 149   104  94  95   100  91  92   161 149 152   196 177 183   148 126 135    98  77  86   183 167 175   215 204 210   239 235 239   251 254 254  
  77  72  60    76  72  59    77  78  61    84  92  70    75  81  58    98  90  71   105  97  79   119 119 102   105  99  89   127 112 109   117  91  91   109  77  74   115  81  74   102  74  61   151 129 112   143 123 110   167 135 131   159 114 118   135  85  91   117  74  81    89  65  67   114  94  95   175 153 155   195 175 177   211 198 198   227 226 224   251 253 251   248 247 247   253 246 251   229 209 218   234 211 223   230 212 223   172 166 172   101 119 116   151 178 169   234 239 237   225 228 225   190 198 192   135 123 123   142 112 117   104  73  79   115  96  98   163 154 153   220 206 206   151 138 138   125 128 123   224 230 227   240 240 243   238 241 244   253 253 254  
  87  75  67   103 100  87    68  75  57    85  93  73   117 120  99   168 156 139   122 114  97   133 134 117   124 118 106   202 185 177   224 196 189   136 105  97   134 103  92   131 105  87   115  93  70   140 118  98   121  92  80   111  74  71   111  64  71   110  63  73   109  84  84    85  66  62    94  73  70   113  94  92   184 174 169   181 181 176   226 226 223   255 252 253   251 231 238   254 233 243   255 243 255   244 229 241   220 209 215   174 192 185   186 214 202   203 208 204   209 209 207   251 250 247   219 199 202   224 185 194   144 103 113   128 102 106   195 186 183   212 199 198    85  74  72   107 120 110   242 255 248   245 247 249   240 243 246   253 251 254  
  98  84  77   100  94  84    89  95  78    74  82  62   102 106  85   145 138 119   118 115  96   163 169 150   200 200 186   176 164 155   232 208 203   177 148 141   137 108  98   123 100  83   138 122  99   160 145 124   240 222 206   162 136 129   105  71  72   112  75  82   116  91  89   133 115 109    85  71  64   100  90  83    91  82  75    90  80  76   116  99  98   168 141 145   178 143 150   155 113 122   222 176 189   239 193 206   184 146 158   118 109 110   147 153 146   247 235 235   255 248 248   255 248 248   253 226 231   227 186 196   188 146 156   111  83  88    98  85  85   163 147 148   171 157 157   176 182 175   223 230 226   252 251 252   254 255 255   250 249 251  
 102  86  79    75  68  58   110 116  99    96 105  84    77  82  62   132 127 108    93  94  75   117 130 111   191 197 182   189 181 171   188 167 162   129 101  96   138 113 101   116  97  79   134 121  99    92  84  61   120 111  92   122 106  96   100  77  77   102  76  79    97  72  68   137 122 111   103  96  84    99  97  84   109 105  94   178 162 156   108  82  81   155 121 123   119  81  86   102  61  69    97  51  61   115  63  76   111  61  73   108  84  88    59  49  48   104  81  85   181 157 161   215 198 199   241 214 219   195 159 167   171 135 143   104  80  84    84  74  73    81  67  67   132 117 120   201 204 200   225 227 224   254 248 251   251 248 250   248 246 247  
 126 108 103   113 104  94   104 109  93   159 170 151   112 121 100   118 117  99   124 130 111   164 180 160   222 232 216   253 253 244   217 198 194   158 134 129   133 109 100   139 121 107   119 110  90    99  97  75   121 119 100   107 102  90    96  86  82   138 121 121   108  84  78    90  72  62    95  93  78   134 139 122   196 198 183   199 184 175   147 117 115   153 118 119   160 126 128   108  77  79   152 119 123   127  83  91   121  72  83   200 168 173   182 161 163   103  74  78   136 110 113   133 116 116   107  85  88   119  92  97   109  85  91    70  57  59    84  81  81   101  93  96    83  74  77   105 107 106   202 200 202   249 236 242   229 217 221   228 224 225  
 106  85  82    93  84  76    97 102  87   101 112  93   114 126 106   116 119 100   120 129 111   143 162 143   163 174 160   185 182 173   213 197 193   164 140 137   114  91  84   140 125 111   101  95  75   158 160 139   233 238 217   199 203 189   171 172 166   152 143 141   135 110 106   127 107  98   180 178 163   156 163 145   178 180 166   153 139 131   102  79  75    75  48  46    64  44  40   100  85  80    89  73  69   119  93  94   108  73  77   103  76  77   169 149 148   129 105 105   127 109 109   164 155 153   156 147 145   121 111 110   189 181 181   162 163 161   180 186 184   182 182 182   150 148 151   101 105 106    91  80  85   135 108 114   141 121 123   138 129 130  
  70  47  45    95  85  78    90  94  80    98 110  92    78  92  73   171 175 158   137 148 129    89 108  89   143 155 140   119 115 109   132 113 112   118  94  93   100  77  72    99  85  73    55  51  33   157 161 140   239 248 228   244 250 238   217 223 216   212 208 205   165 139 138   119  95  90   127 121 110   147 152 137   129 133 119    73  70  59   105  97  90   160 152 145   139 138 131    91  97  87   102 110  99    80  81  75   100  95  89    78  69  64    81  71  67    79  68  64    72  68  62    87  93  85   106 116 108    75  86  78    92 105  99   174 190 185   195 212 209   240 249 248   252 255 255   212 216 219   125 111 116   101  62  72   178 147 154   193 178 178  
  86  63  61    90  79  72    92  96  83   100 113  96    92 105  87   142 146 131   167 177 160   119 136 119   204 214 202   199 193 189   113  93  94   141 115 117   106  83  80   103  89  79   112 108  93    75  80  63   206 214 198   244 252 241   236 245 238   245 242 241   204 179 179   131 104 103   113  99  94   123 120 111   129 131 120    78  81  72   158 161 152   235 239 232   209 215 208   138 150 140    81  97  87   109 125 115    99 112 102    78  82  74   146 143 134   187 187 179    85  91  82    72  87  76   144 164 152   135 156 147   143 166 158   163 185 178   155 174 170   199 210 210   193 198 201   238 240 243   217 196 203   134  87  98   128  90  97   213 192 193  
  83  63  57    88  78  69   107 111  98   196 207 191   165 176 160   123 125 112    84  91  77   110 123 108   162 166 158   221 212 211   143 120 124   104  75  80   112  86  88   110  92  87   114 107  95    75  78  64   139 148 132   242 249 239   233 237 235   252 252 252   231 209 214   201 173 178   181 159 162   133 120 120    98  96  92   127 134 127   166 177 170   241 250 245   228 233 230   151 154 151    89  95  91   141 155 148   170 189 179   154 164 155   184 188 179   204 212 201   110 123 111   102 120 108   177 200 187   225 251 240   196 219 211   229 248 242   197 209 207   186 191 193   207 206 211   230 221 229   184 152 163   182 127 140   137  92 101    83  56  60  
 101  81  76   104  95  86    75  79  66   144 154 140   174 183 169   133 133 123   126 129 118   192 203 190   199 201 194   233 222 223   192 168 174   143 113 120   115  88  92   124 106 103   105  97  88   149 152 139   157 163 150   191 195 187   249 250 248   241 236 239   245 226 232   244 217 224   197 168 176   176 154 159   166 155 157   194 200 196   187 197 194   226 232 230   248 242 244   186 174 178   182 172 176   226 226 226   194 205 200   176 185 177   123 129 119   139 151 139   172 185 175   199 212 202   222 238 229   241 254 251   208 222 218   222 230 227   243 241 243   230 223 229   252 242 250   254 240 252   225 184 198   153  94 108   124  77  86    96  69  72  
 115  96  89   123 114 105   131 134 122   177 185 174   149 152 143    67  62  56    86  84  77   145 150 142   217 216 212   237 223 225   197 171 182   190 160 171   159 133 139   130 114 112   177 170 162   176 176 166   177 179 169   154 153 149   228 222 225   250 238 244   230 212 220   190 164 175   135 103 116   121  93 105   178 162 170   253 252 253   222 222 224   215 208 213   249 237 247   232 196 211   217 181 195   246 226 238   223 212 217   202 197 196    95  96  91   180 189 181   187 192 185   175 173 170   234 233 231   249 250 248   225 221 223   208 194 199   233 209 219   252 237 247   255 240 253   251 221 237   203 152 169   142  85  99   109  64  73    89  63  66  
 110  96  85   130 123 112   186 189 177   223 229 218   193 193 187   116 105 103    94  87  84   129 133 126   233 234 229   237 223 227   224 200 211   190 164 176   167 144 152   130 116 116   170 165 159   183 183 175   189 188 182   153 147 146   210 198 203   247 230 240   241 221 230   181 156 164   136 105 115    99  71  81   138 118 124   232 224 226   231 223 226   215 197 203   186 150 162   185 138 153   210 160 177   219 179 193   166 140 149   116 103 106    74  74  70   208 218 210   235 235 233   216 202 205   240 232 233   255 248 249   214 198 203   204 177 187   191 154 169   208 177 190   251 234 246   242 202 218   165 115 131   127  75  87   100  63  70    83  62  64  
  81  69  55   147 142 129   211 214 203   196 198 191   207 203 200   226 207 211   159 148 148   106 109 103   202 200 198   239 229 234   234 214 225   231 209 221   147 130 139    99  90  92    75  73  69   106 107 101   199 197 193   152 143 144   119 100 108   211 185 196   239 212 221   232 204 213   178 150 159   115  91  99   103  83  89   183 168 173   188 171 177   160 135 143   165 127 140   183 136 152   168 121 137   141  99 114    98  66  77    77  62  67    65  64  65   153 161 158   243 238 239   199 176 183   181 158 166   213 191 199   185 158 167   211 179 191   198 162 177   137 106 116   243 233 241   238 204 218   175 133 146   162 119 131   197 167 175   165 149 152  
  85  76  60   139 136 122   239 241 231   229 228 223   171 162 162   205 182 190   176 161 163    87  89  84   145 146 143   230 222 226   254 241 250   229 214 225   193 182 189   162 158 158   142 143 139   131 134 127   192 190 187   160 147 151   121  98 107   109  77  90   180 144 153   187 154 160   147 122 126    87  70  71   132 118 118   161 145 146   106  86  89    93  68  72   203 175 180   254 235 241   132 101 107   123  92  98   110  83  89    69  58  61   143 147 146   166 177 174   225 226 227   237 219 227   189 162 172   247 231 239   234 206 215   205 168 180   206 165 179   134 109 118   198 185 190   255 243 251   242 222 232   194 163 171   232 211 216   243 233 235  
