P3
50 50
255
 123 128  75   130 135  82   123 128  74   130 135  79   128 133  76   119 124  65   114 120  61   117 123  61   111 117  53   100 107  43   100 105  46    83  88  31   119 124  71   133 137  86   117 120  74   111 114  71    85  87  48    64  66  29    80  80  46    68  69  35    76  77  43    76  78  41    77  79  40    65  67  27    97  99  58   132 134  93   123 128  87   104 109  68    90  95  54    75  79  42    60  64  29    64  68  33    74  78  45    72  76  44    68  71  42    73  77  47    79  83  55    79  81  57    75  78  55    69  71  49    62  63  42    56  58  36    48  47  27    58  57  37    77  76  56    84  83  63    79  78  60    78  77  59    78  77  59    71  70  52  
 100 103  54   123 127  78   105 109  59   109 112  63   112 117  64   111 116  61   106 111  56   102 108  49   100 105  47    97 103  45    75  79  28   133 137  89   146 148 104   101 103  60    73  75  36    66  68  30    64  65  29    75  76  41    88  89  55    89  91  53    90  92  52    70  72  30    77  80  33    89  93  43   127 131  78   147 150 101   148 155 107   107 113  67    99 105  60   116 121  79   109 115  74    94  99  60    85  89  52    74  78  44    76  80  47    68  71  40    71  74  45    83  86  59    78  80  56    57  60  37    49  51  29    57  59  37    59  58  38    59  58  38    72  71  51    84  83  63    83  83  64    80  79  62    77  76  58    68  67  49  
  77  80  34    85  88  42    91  94  48    97 100  53   100 103  55    97 101  51    95  99  48    95 100  46    96 101  46    93  98  45    89  92  46   109 112  70    74  76  36    64  66  27    85  87  49    73  75  39    69  70  35    86  88  51   101 103  66    95  98  56    95  98  53    80  84  34    93  97  44   103 108  50   131 136  76   141 147  89   132 139  88   103 109  61   107 113  67   122 128  82   109 115  71   103 108  67   114 119  79   114 118  81    97 101  67   100 104  72    94  97  67    75  78  50    56  59  33    48  51  25    52  54  31    58  60  37    65  64  44    58  57  38    69  68  49    87  86  67    88  87  69    82  81  63    76  75  57    69  68  50  
  76  80  33    82  85  39   100 103  56   114 118  69    92  96  47    86  90  40    95  99  48   103 107  56    81  86  34    81  85  33    74  79  32    75  79  34    84  88  43    99 104  58    89  94  49    76  81  36    91  96  51   110 115  68   119 124  76   113 119  67   111 117  63    95 102  44    98 106  47   113 121  59   119 128  65   123 131  71   115 121  72   100 106  61    83  88  46    74  79  36    79  84  43   100 105  65   112 117  77   104 108  71   104 108  73   110 114  80   113 117  84    97 101  69    73  76  46    63  66  36    64  66  37    62  64  38    62  63  44    64  65  48    76  77  60    86  86  70    79  79  63    64  65  48    60  60  44    64  64  48  
  87  90  43   125 128  81   126 130  80   121 125  75    85  89  39    86  90  40   102 106  56   112 116  65    85  89  39    82  85  35   105 111  61    93 100  49    99 105  57   103 109  59    85  92  41    79  86  34    93 100  49   105 112  58   122 130  73   114 122  63   110 118  59    98 106  46   104 112  52   124 132  72   122 130  70   123 131  74   128 134  88    99 104  62    71  76  35    70  75  35    79  84  44    79  84  44    85  89  52   104 108  71    96 100  65   103 107  72   119 123  88   120 124  89   101 105  72    83  87  54    72  76  43    62  65  38    70  71  53    71  72  58    78  79  64    81  82  68    72  73  57    59  60  44    60  61  45    69  70  54  
  82  85  38    98 101  54   113 116  68   103 106  59    89  92  45    94  97  50    92  94  48    97 100  51    94  97  51   101 104  57    96 102  54    97 103  56   110 116  70   113 119  71    96 101  54    87  94  44   100 107  56   114 121  69   115 122  70   106 113  60   109 116  63   103 111  55   106 114  57   115 123  65   115 123  64   124 131  78   116 122  76    95 101  57    69  75  31    65  70  29    74  79  38    65  70  30    68  72  35    96  99  63    79  83  48    84  88  53   100 104  71   109 113  80   101 104  73    88  91  60    73  76  45    56  59  32    46  47  29    52  53  37    65  66  50    75  76  60    72  73  57    58  59  43    50  51  33    51  52  34  
  89  92  45    96  99  52   100 103  56    94  97  50    97 100  53    96  99  55    85  88  44    93  96  52   105 108  64   104 107  62    94 100  57    86  91  48    80  86  42    81  87  42    85  91  46    94 100  55   108 114  67   119 125  78   104 111  62    87  94  44    89  96  45    94 101  50   105 112  59   111 118  65   101 108  55   105 111  60   108 114  66   107 113  68    85  91  47    67  73  28    70  76  34    69  74  33    67  72  32    78  82  45    73  77  42    69  73  40    75  79  46    82  85  55    82  85  55    82  85  56    76  78  52    62  64  41    65  66  48    63  64  47    62  63  46    62  63  47    62  63  46    62  63  45    70  71  53    79  80  61  
  99 102  55   102 105  58    98 101  56    93  96  52    99 102  58    85  87  46    74  76  35    79  82  41    89  92  51    72  74  33    75  80  41    69  74  35    64  68  29    77  82  42   101 106  65   104 110  68    84  89  47    67  72  30    82  87  44    68  74  29    75  81  35    83  89  43    94 101  52    99 106  57    89  96  47    93 100  51   105 111  63    97 103  56    79  85  38    66  72  26    65  71  27    65  70  29    67  72  32    71  75  39    73  77  43    66  70  38    69  72  42    75  78  50    78  80  55    82  85  60    81  83  60    72  74  52    64  65  47    66  67  49    68  69  51    65  66  48    60  61  43    60  61  43    69  71  51    79  81  60  
 116 120  72   100 103  57    92  95  52    96  99  56   108 110  69    85  87  48    70  72  32    61  63  25    76  78  40    70  72  35    59  63  28    70  74  39    73  78  42    81  85  49    98 102  66    95  99  61    75  79  42    65  69  31    61  65  27    67  72  31    84  89  48    81  86  44    73  78  35    75  80  38    80  85  43    99 105  61   111 117  69    94 101  50    88  95  44    86  92  45    83  89  43    93  98  57   100 105  65    87  91  56    64  68  35    61  64  33    70  73  45    78  80  55    78  80  58    79  81  60    77  79  58    68  69  50    66  67  49    70  71  52    67  69  49    54  56  36    43  45  24    48  49  29    69  71  50    88  90  69  
 113 116  71    91  94  49    77  80  37    72  74  33    79  81  42    68  70  33    72  74  37    59  60  26    71  72  38    74  75  43    62  66  32    74  78  44    71  75  42    73  78  44    92  96  63    94  99  63    79  84  48    76  79  44    64  68  33    62  66  28    70  74  36    67  72  32    72  77  39    87  92  52    91  95  57   101 106  65   119 125  77   116 123  71   122 129  78   113 119  71   104 110  64   132 137  96   132 137  97    84  88  53    56  60  27    58  61  32    70  73  46    79  81  59    75  77  56    73  75  53    70  71  53    62  63  45    67  68  50    74  75  57    71  73  52    55  57  36    39  42  21    48  49  29    77  79  58   105 107  86  
  62  65  20    74  77  32    72  74  32    77  79  39    72  74  35    67  69  33    61  62  28    59  60  29    74  75  43    80  81  50    65  68  37    66  69  38    68  71  40    71  75  42    68  72  39    65  69  37    69  74  41    77  80  47    64  68  35    69  73  38    75  79  44    80  84  47    78  82  47    77  81  44    84  89  54    94  99  59   103 110  62    99 106  54   125 132  81   136 142  94   129 135  89    75  80  39    58  63  23    60  64  29    62  66  33    72  75  46    76  78  54    79  81  59    81  83  63    75  76  58    71  72  56    75  76  60    68  69  50    75  76  58    74  75  57    59  60  42    47  48  30    57  58  40    85  86  66   107 109  88  
  80  83  39    77  80  37    70  72  32    69  71  32    64  67  29    62  63  29    56  57  25    54  55  23    64  65  34    72  72  42    66  69  38    62  66  33    61  65  33    66  70  36    69  73  39    71  75  41    74  78  44    78  82  48    69  73  40    69  73  40    71  75  40    72  76  41    71  75  40    70  74  39    77  81  46    86  91  51    82  88  41    83  90  39   110 116  66   120 125  78   111 117  71    66  71  30    60  65  25    67  71  36    80  84  52    85  88  60    80  82  58    72  74  52    69  70  52    63  64  46    62  63  47    70  71  55    68  69  51    61  62  45    54  55  37    54  55  38    65  66  49    79  80  62    83  84  66    79  81  61  
 110 113  70    99 102  60    77  79  39    64  66  28    57  58  23    53  54  20    52  53  21    52  53  21    53  54  23    60  61  29    56  60  26    59  63  27    67  71  37    79  83  47    89  93  58    90  94  59    86  90  55    83  87  52    75  79  44    73  77  42    72  76  41    72  76  41    69  73  38    65  69  34    66  70  35    70  75  35    79  85  39    85  92  42   107 113  65   115 121  74   100 106  61    64  69  28    57  61  23    65  69  34    68  71  40    76  79  52    75  77  53    72  74  52    74  75  56    69  70  52    61  62  46    63  64  48    49  50  34    51  52  36    50  51  36    47  48  32    47  48  33    52  53  36    58  59  42    59  60  42  
 102 104  63   101 103  63    84  86  47    62  64  27    54  55  21    45  46  12    51  52  20    61  62  30    52  53  22    57  58  26    53  57  21    57  62  23    63  67  31    70  75  36    76  80  44    79  83  46    79  83  46    77  81  45    82  86  50    76  80  44    70  74  37    65  69  33    61  65  28    59  63  27    63  67  31    69  74  34    68  75  30    75  81  35    88  94  47    96 102  57    83  88  46    64  69  29    58  62  25    65  69  35    61  64  33    65  68  41    60  62  38    59  60  39    67  69  48    67  69  49    58  59  42    53  54  38    50  51  36    51  52  38    49  49  37    44  45  30    44  44  32    49  50  36    54  55  41    56  57  40  
  74  76  36    88  90  51    81  83  46    64  66  29    63  64  30    47  49  14    55  57  24    76  77  45    65  66  34    68  69  35    51  55  18    57  62  22    63  68  28    67  72  32    73  78  38    79  84  44    84  89  49    85  90  50    68  72  35    69  73  36    72  77  39    76  79  43    72  76  39    66  70  33    65  69  32    68  73  33    77  83  39    80  86  40    75  82  37    75  80  38    58  63  23    55  60  20    54  58  22    62  66  33    65  68  37    67  70  41    59  61  37    55  57  33    66  68  46    68  70  49    56  57  39    46  48  31    50  51  37    49  49  37    47  47  35    46  46  34    49  49  37    53  53  41    50  50  38    44  45  31  
  67  69  30    77  80  41    72  74  37    70  73  35    85  86  51    60  61  27    59  60  26    84  85  51    73  74  42    77  78  44    75  80  40    76  81  40    73  78  37    69  74  33    70  75  34    71  76  35    66  71  30    59  64  23    57  62  22    68  73  33    83  88  48    94  99  59    89  94  54    78  83  43    70  75  35    69  74  34    86  93  48    96 101  57    87  92  50    81  86  45    56  61  21    59  64  24    58  62  27    68  72  39    71  74  43    75  78  49    64  66  42    52  54  30    56  58  37    57  59  37    47  49  28    41  42  24    48  48  36    55  55  45    57  57  47    54  54  44    50  50  40    50  50  38    50  50  38    49  49  37  
  67  71  29    70  76  35    72  75  34    82  88  47   100 103  64    71  76  37    58  61  22    74  79  40    76  79  40    75  80  38    92  97  54    93  99  53    83  89  44    71  77  32    72  78  33    76  81  39    75  81  39    75  80  38    77  82  41    86  91  49    92  97  56    90  96  54    85  91  48    80  85  43    82  87  44    89  96  50    94 100  49   112 119  65   115 121  70   117 122  73   101 107  58   107 113  66   108 112  69   117 121  81   119 123  88   102 104  74    73  75  48    55  57  35    55  56  37    56  55  39    53  53  38    56  55  42    39  39  27    40  40  30    42  42  31    43  44  31    44  44  34    47  47  35    49  49  37    51  51  38  
  78  85  41    91  98  53    93 100  54    95 102  57    83  90  44    67  75  28    52  59  14    62  69  23    87  94  49    81  88  41    88  95  45   109 116  64   110 117  67    94 100  51    83  89  42    76  82  37    72  78  34    76  82  38    91  96  55    94  99  58    88  94  51    84  90  46    91  97  51    95 101  54    96 102  54   101 108  57   107 113  54   121 127  65   127 132  72   127 132  73   127 132  75   121 126  71   118 122  71   123 126  80   123 125  85    89  90  57    61  61  34    59  58  37    59  57  42    51  49  36    46  43  35    50  47  39    41  41  31    40  40  28    44  45  32    51  52  38    49  49  36    43  44  30    47  48  34    57  58  44  
  83  91  44    86  94  45    97 105  56    91  99  51    72  80  32    73  81  31    75  83  34    70  78  28    80  88  40    83  92  41   102 109  55   100 107  53    96 103  49    87  94  42    78  84  36    77  83  37    80  86  42    79  85  41    76  81  40    75  80  39    73  79  37    82  87  45    97 103  58    96 102  57    90  96  51    93 100  51   112 118  60   119 125  65   118 124  66   116 122  65   118 123  68   110 114  62    98 102  52    96  99  53    83  85  45    78  79  45    70  70  42    59  58  37    47  46  29    41  39  26    44  40  32    51  47  39    50  50  39    49  49  37    54  54  42    63  63  51    65  65  53    61  61  48    61  62  49    66  67  54  
  89  97  48    97 105  54    97 104  54   102 110  59    86  94  43    86  95  42    89  98  46    74  84  31    81  90  38    97 106  53   101 109  52    83  91  34    83  91  34    93  99  46    92  99  48    93  99  51    89  95  49    73  79  35    56  61  20    65  70  28    74  79  38    82  87  47    81  87  46    70  75  35    71  77  35    90  96  52    93  97  46   103 107  55    99 103  52    99 103  52   117 120  72   124 128  80   101 104  61    76  78  37    69  71  34    64  65  33    56  56  27    46  46  22    39  38  19    40  38  23    45  43  30    49  47  35    45  45  33    47  47  35    57  57  45    70  70  59    77  77  65    74  74  62    69  69  58    67  67  55  
  67  75  24    83  91  38    95 104  51   104 113  59    84  93  40    80  89  34    92 101  45    92 101  46    99 109  53   105 114  57   100 108  49    88  95  36    91  99  42    98 105  50    91  98  47    93  99  51    96 102  56    88  94  50    74  79  39    66  71  31    57  62  22    62  66  29    72  76  39    69  73  36    67  71  34    78  83  44    74  76  36    78  81  39    81  84  42    92  95  53   106 108  69    99 101  63    75  77  39    60  62  26    55  56  24    51  51  21    51  51  24    53  53  28    48  47  26    41  40  20    43  42  23    51  49  34    50  50  37    48  48  36    50  50  38    55  55  43    59  59  47    55  55  43    49  49  37    45  45  33  
  79  88  35    80  89  33    92 101  46   110 119  61   106 115  59   101 110  53    97 106  48    93 103  43    99 108  51    91 101  41    95 103  43   100 108  48   102 110  51    93 101  44    83  90  38    86  93  42   100 106  60   109 116  72    64  69  29    63  67  30    59  63  28    66  70  36    78  81  50    73  76  44    62  65  34    62  66  34    59  61  29    60  61  29    68  70  37    85  87  54    85  86  54    60  61  30    50  52  21    66  67  36    84  86  56    71  72  44    61  62  36    61  62  36    63  64  40    60  60  38    54  53  32    50  50  30    54  55  40    49  50  37    43  43  31    41  41  29    41  41  29    42  42  30    42  42  30    42  42  30  
 127 136  81    98 107  50    94 103  46    93 103  43    88  97  39    93 103  43    93 103  43   101 111  50   115 125  65   102 112  51   107 115  54   121 130  68   119 127  68   108 116  59   108 115  62   104 111  60    95 101  54    92  98  54    55  60  20    61  65  29    60  64  31    60  63  33    66  69  41    63  65  39    55  58  32    54  57  32    46  48  24    53  55  31    54  56  31    54  56  31    57  59  34    54  56  31    53  55  29    62  64  38    80  82  56    86  89  62    87  90  63    78  81  54    74  77  50    73  76  50    65  68  42    55  57  34    49  50  33    47  48  34    43  44  31    40  41  28    39  39  27    41  41  29    43  43  31    43  43  31  
 102 111  56    73  82  25    78  87  30    59  68  11    78  88  28    84  94  34   122 132  71   132 142  81   111 121  60   112 122  61   108 117  54   118 128  65   116 124  65   107 115  58   113 120  66   118 124  73   101 107  59    77  83  39    44  49   9    56  60  25    55  58  26    51  54  25    56  58  33    52  53  31    44  46  24    48  49  30    47  48  31    50  51  34    45  46  27    41  42  23    46  48  28    56  57  38    56  57  35    51  53  31    72  74  52    85  87  62    84  86  61    76  79  51    81  84  57    91  94  65    89  92  63    83  86  60    71  72  54    65  66  50    59  60  45    54  55  39    43  43  30    31  32  19    35  35  22    44  45  31  
  65  73  20    67  76  20    76  85  29    80  89  32    82  91  34    71  81  21   111 121  61   139 149  88   130 140  79   125 135  74   106 114  54   104 112  52   100 108  49   103 111  54   123 130  76   135 142  90   115 121  73    80  86  42    46  51  11    53  57  22    52  55  24    49  52  25    50  52  29    43  45  24    41  42  24    46  47  31    48  49  35    51  52  37    50  51  35    47  48  32    48  49  33    53  54  38    57  58  41    56  57  39    52  55  33    60  62  40    63  65  43    74  76  51    94  97  70   102 105  76   100 103  72    99 102  75    95  97  77    69  70  53    48  49  31    47  48  30    50  51  34    46  47  31    43  44  28    44  45  31  
  63  71  20    74  83  30    69  78  25   103 112  57    90  99  44    92 101  45   108 117  60   120 130  71   109 119  59    88  98  38    68  76  18    65  73  15    71  79  20    96 104  47   130 137  83   142 149  98   119 124  76    87  92  48    57  62  22    50  54  19    53  56  27    57  59  35    50  52  32    49  49  32    56  57  41    60  62  47    47  49  35    53  55  41    56  58  44    51  53  39    45  47  34    45  48  31    51  54  37    55  58  39    48  50  32    48  51  30    48  52  29    59  63  38    76  80  53    80  85  55    82  87  55    91  96  66    93  95  73    79  80  59    67  69  48    62  64  42    52  54  33    39  40  22    37  38  19    42  43  27  
  69  77  30    82  90  43    82  90  40    94 103  51    79  88  35    93 102  48    95 104  50    98 107  50    83  92  35    93 102  45    82  90  34    74  82  26    73  81  25    86  93  39   103 110  58   102 109  58    82  88  39    61  67  23    50  55  15    38  42   7    47  50  21    57  59  35    48  50  29    47  48  30    55  57  43    55  56  42    49  51  36    53  56  38    54  56  41    49  51  36    42  45  30    39  41  26    40  43  27    43  47  29    47  50  34    55  58  39    55  58  37    53  57  34    59  63  38    61  65  37    62  67  37    69  74  44    73  76  51    80  83  58    90  92  69    88  90  67    69  72  49    47  49  28    42  44  23    49  51  32  
  93 100  58   106 113  70    83  90  45    82  90  42    74  82  32    77  86  34    84  93  41    95 104  50    81  89  36   104 113  59    99 106  53    87  94  41    78  85  32    82  89  37    89  96  45    85  92  41    66  72  25    47  53   9    42  47   7    38  42   7    49  52  23    59  61  37    56  58  37    55  56  38    57  58  44    52  53  38    48  51  33    47  50  31    46  49  31    46  49  31    44  47  30    40  43  26    38  40  26    39  41  26    32  35  18    52  55  37    59  62  42    54  58  36    59  63  39    64  68  42    60  65  36    58  63  33    57  60  32    63  66  38    74  76  51    83  85  60    81  84  58    73  75  52    70  72  49    73  75  53  
  69  75  36    76  83  42    93 100  57    92  99  54    68  76  28    52  61  11    68  76  26    77  85  33    83  91  42    92 100  48    94 101  50    95 102  50    94 101  49    95 102  51    95 102  51    88  95  44    65  72  25    44  50   6    46  51  11    54  58  23    56  59  29    55  58  32    57  59  38    55  56  38    49  50  36    43  44  28    42  45  25    40  43  23    41  45  24    45  48  27    45  48  30    41  44  26    39  42  26    40  42  26    37  40  23    50  54  37    54  57  38    55  58  37    65  69  46    68  72  47    60  63  36    53  58  28    52  55  25    57  60  30    64  67  38    65  69  40    63  66  37    68  70  44    86  89  63   104 106  82  
  69  75  37    72  79  39    70  77  35    83  90  46    58  66  19    67  75  27    95 103  54    72  80  30    89  97  48    74  81  31    84  91  37   100 107  53   107 114  62    99 106  55    90  97  48    92  98  51    92  98  52    90  96  52    93  99  55   104 109  68    90  94  58    69  73  41    66  69  42    58  60  39    41  42  28    34  35  21    39  42  23    38  41  22    41  44  25    45  48  29    43  46  27    36  39  22    35  38  21    37  40  23    46  49  30    51  54  35    59  62  41    77  80  60    94  98  75    83  87  62    58  62  35    45  50  20    63  68  38    64  69  39    65  68  39    58  63  33    56  59  30    68  73  44   100 103  74   125 129 103  
  72  77  36    73  79  35    82  88  44    78  84  38    89  96  50   103 109  63   101 107  61    91  97  51    81  87  41    69  76  24    92 101  38    91 100  35    80  88  32    73  80  30    79  85  42    82  87  47    85  91  47    92  98  52   112 119  68    94 101  48    79  86  33   101 107  60    91  95  59    54  56  32    45  46  32    29  29  19    39  41  29    36  40  25    36  40  25    36  40  25    34  38  24    30  34  17    30  34  17    33  38  18    44  49  27    51  56  33    67  73  47    89  95  69    93  98  71    67  74  43    50  57  26    58  65  34    57  63  35    63  69  41    66  71  44    73  80  49    97 103  72   119 126  93   115 120  88    92  99  66  
  76  81  41    86  91  50    91  96  54    62  68  25    58  63  20    74  80  37    74  79  36    68  73  30    83  89  46   105 112  63    91  99  42    81  88  32    73  80  31    79  84  43    81  85  51    67  71  38    66  71  33    85  90  46    92  99  48    89  97  41    90  97  42    86  92  43    64  69  31    44  46  21    37  37  26    27  28  23    32  33  26    29  32  21    29  32  20    30  34  20    28  32  18    26  30  15    27  31  14    31  36  16    57  62  40    62  67  44    65  71  46    71  77  49    75  81  54    64  71  41    51  58  27    49  56  26    50  56  30    65  71  45    81  86  58    84  90  62    80  87  56    75  82  49    72  79  45    71  78  44  
  65  69  33    81  86  48    61  66  28    52  57  18    58  63  24    68  72  33    66  70  31    68  73  34    84  88  49    95 101  59    88  94  49    83  89  45    73  77  42    70  74  44    70  72  47    61  64  37    59  63  30    69  74  34    76  82  34    79  86  34    95 102  50    75  81  35    48  52  19    42  44  23    33  33  26    34  34  31    35  36  30    31  34  24    29  32  21    28  31  19    25  28  16    21  25  11    23  27  11    27  31  13    50  55  34    69  74  52    78  83  60    71  76  52    62  68  41    53  59  32    49  55  28    55  61  34    57  62  38    63  69  44    70  76  49    69  75  47    65  72  41    68  75  43    84  91  57   100 107  73  
  58  61  28    66  70  37    48  52  18    58  62  28    61  65  31    47  51  15    37  42   6    55  59  24    71  75  39    67  71  33    70  74  36    69  73  37    56  59  28    47  50  22    52  55  27    59  62  32    63  68  30    71  77  33    80  86  34    71  78  23    88  96  40    73  79  32    51  55  21    45  47  25    31  30  23    35  36  32    33  34  28    29  32  23    28  31  22    29  32  21    28  31  20    27  31  17    31  35  20    36  40  24    55  59  41    65  70  49    68  73  53    67  72  49    63  68  45    52  57  33    43  48  25    48  53  29    59  64  41    60  65  42    56  62  36    50  56  28    54  61  30    69  76  45    84  91  58    91  98  65  
  43  46  15    38  41  10    39  42  10    49  53  20    63  67  34    61  65  32    52  56  22    55  59  24    62  66  31    58  62  25    77  82  42    65  70  31    53  57  21    52  56  19    53  57  21    49  54  14    61  68  18    88  96  40   108 117  55    89  98  33    91  99  39    87  94  43    68  72  36    49  51  27    33  33  21    35  34  29    33  34  26    30  33  24    30  33  24    32  35  25    32  35  24    31  34  23    35  38  27    40  44  30    46  50  35    50  54  37    49  54  36    51  56  36    56  61  40    51  56  36    50  55  35    59  64  42    59  64  42    64  69  47    62  67  44    52  57  31    52  58  30    67  74  43    79  86  55    82  89  56  
  33  37   4    41  45  12    54  58  25    51  55  22    60  64  31    66  70  34    59  63  27    59  64  26    72  76  38    79  84  43    57  63  17    62  69  18    66  73  22    74  81  29    77  84  29    78  86  26   104 114  50   145 155  86   131 141  68   118 128  55   105 114  48   101 109  52    74  79  38    45  48  19    40  41  25    34  34  24    32  33  25    30  31  23    29  30  22    30  32  24    29  29  22    26  28  17    27  29  18    31  33  20    30  32  19    43  45  31    44  46  32    39  42  25    46  49  33    56  58  42    63  66  49    70  73  54    51  56  34    52  57  34    51  56  33    49  55  29    51  56  29    60  67  37    75  82  52    88  95  64  
  67  72  35    88  93  57    56  60  24    64  69  32    68  72  36    66  70  32    58  63  22    61  66  25    74  79  36    71  77  30    91  98  45   106 114  56   106 114  54    89  97  36    78  87  23    84  94  26   103 113  42   122 132  59   123 134  59   124 134  63   108 117  54    91  98  46    67  72  35    36  39  14    39  39  25    31  30  22    24  25  17    20  22  13    22  23  14    26  28  19    25  27  18    25  26  17    28  30  19    31  32  21    37  39  26    46  48  35    43  44  32    38  40  27    49  51  39    61  63  49    55  56  43    44  46  30    55  60  40    55  60  38    55  60  38    59  64  41    62  68  42    64  70  42    72  78  50    82  89  58  
  79  84  44    81  85  47    72  77  38    82  87  47    79  84  44    87  92  50    84  90  45    78  84  38    95 101  54    99 106  55   118 125  70   115 123  64   104 113  52    88  97  34    81  90  25    88  97  30    98 108  39   104 114  45   117 126  61   112 120  61    98 105  53    63  68  27    59  62  35    35  36  20    29  28  21    24  23  19    25  26  18    19  21  10    23  25  14    29  31  20    26  28  17    27  29  18    32  34  23    31  33  22    39  41  30    47  49  38    53  55  44    51  53  41    42  44  33    34  36  24    34  36  23    36  38  24    44  49  30    50  55  34    50  55  34    47  52  29    52  58  33    65  71  44    75  81  54    81  88  58  
  80  86  43    81  86  46    97 102  61    86  91  50    85  90  49    87  93  49    82  88  40    71  78  28    68  75  25    79  86  35    90  97  47    91  99  45    96 103  50    96 103  49    82  90  33    69  77  20    78  86  28    97 105  49   112 119  67   108 113  69    97 100  65    60  62  36    43  44  28    31  31  23    34  32  32    25  24  21    28  28  19    21  22  10    22  23  11    24  24  13    23  23  12    28  28  16    31  31  20    26  26  15    38  38  28    42  43  33    43  44  34    37  37  27    27  28  18    25  26  16    32  33  22    41  42  29    37  41  26    29  34  14    35  40  20    44  49  27    49  54  31    63  69  43    76  82  56    76  82  54  
  65  71  27    84  89  48   108 113  73   108 113  72   108 113  72    74  80  35    62  68  20    74  81  30    57  64  13    48  55   4    59  65  19    78  84  39    96 102  55    97 103  54    86  93  42    77  84  32    78  84  36    83  89  43    71  76  35    62  66  30    73  76  48    69  71  50    42  42  27    20  20   9    30  30  22    38  38  30    28  28  16    23  24  10    24  24  11    23  24  10    22  22  10    31  31  19    38  38  26    35  35  23    38  38  28    34  34  24    32  32  22    33  33  23    37  37  27    42  42  32    43  43  33    42  44  31    44  46  32    36  40  23    55  59  41    67  72  52    52  57  34    50  55  32    61  67  41    58  64  37  
  45  50  10    55  60  20    34  38   2    33  37   1    57  62  23    62  67  26    66  72  28    71  76  31    57  63  15    67  73  26    51  57  13    64  70  26    77  83  37    82  88  40    78  85  33    74  80  29    73  80  31    75  81  34    65  70  28    55  59  21    43  47  13    34  37   5    39  42  11    71  75  45    72  75  46    40  43  17    27  29   7    24  25   9    30  32  15    31  32  16    23  24   9    24  25  11    35  36  22    40  41  27    40  40  28    35  35  23    31  31  20    34  34  22    38  38  28    43  43  33    43  43  33    40  42  29    46  48  34    43  47  31    69  73  56    85  90  70    65  70  48    51  56  33    49  55  30    38  44  18  
  42  46  11    37  41   7    41  45  13    40  43  10    49  52  19    59  64  25    64  68  29    63  68  26    62  68  23    69  76  29    61  67  19    63  69  19    72  80  26    83  90  36    81  89  32    76  84  26    86  94  36   102 110  54   115 122  69    96 103  52    64  71  19    64  71  18    85  93  38   130 138  80   133 142  82   120 127  75    93  97  67    53  55  36    27  29  10    29  30  13    35  36  19    39  40  23    41  42  27    38  38  24    41  41  29    41  42  29    39  39  27    32  32  20    26  26  16    26  26  16    34  34  24    40  42  29    40  42  29    40  44  29    58  62  45    74  79  59    71  76  56    65  70  48    56  61  38    41  46  21  
  78  81  49    55  58  28    37  40  11    45  48  18    40  43  12    53  57  23    67  71  35    74  78  40    86  91  51    78  84  39    75  82  30    96 104  47   111 119  60   107 115  55    95 104  41    95 104  39   107 116  51   118 127  63   121 130  66   107 116  52    89  98  33   114 123  55   127 137  64   134 145  67   124 136  55   143 153  85   104 108  70    55  57  35    28  30   9    38  39  20    47  48  31    45  46  30    45  46  31    45  46  32    43  44  30    42  43  29    39  40  27    36  36  23    33  33  22    35  35  25    39  39  29    44  45  33    39  41  27    51  55  39    59  63  46    62  67  47    65  70  49    66  71  49    64  69  45    61  67  42  
  65  66  35    53  55  24    47  49  18    47  48  18    49  50  19    62  64  32    61  63  30    48  50  15    51  53  17    58  62  21    72  79  31    90  97  44    98 106  52    82  89  35    75  83  26   100 108  50   112 119  62    94 102  44    79  86  29    84  91  34    93 102  42    98 107  46   104 113  49   120 129  64   109 118  51   100 108  50    66  72  29    33  37   6    24  27   2    37  39  18    43  43  30    46  46  36    48  47  40    42  42  32    37  37  25    37  38  22    36  37  22    34  35  20    32  33  20    33  33  21    36  36  27    39  39  30    38  40  26    53  57  38    67  70  52    71  74  54    68  72  48    66  70  44    66  72  43    70  75  46  
  39  40   8    41  42  10    44  45  13    46  47  15    45  47  15    42  43  11    40  41   7    42  43   9    52  53  19    60  62  23    69  75  29    57  64  15    49  55   7    49  55   7    60  68  16    79  86  35    81  88  36    63  70  21    68  74  25    61  67  19    69  75  26    64  70  21    69  75  26    94 100  51   102 109  61   105 111  64    71  77  33    43  48   9    34  37   8    40  42  21    41  41  31    44  43  38    45  45  40    37  36  31    35  35  25    37  38  22    39  40  22    38  39  21    34  35  20    34  34  22    37  36  30    40  40  32    47  49  35    47  50  31    52  55  36    57  60  39    62  66  41    62  66  39    56  61  31    51  56  24  
  59  61  24    66  67  33    53  54  20    57  58  24    59  61  24    55  58  20    51  53  14    51  53  13    52  55  14    55  58  14    59  65  18    66  72  24    67  73  25    65  71  23    62  69  20    56  62  14    56  62  14    68  74  28    57  63  18    53  59  14    67  73  29    60  65  22    50  55  15    65  70  29    83  88  49   104 109  69   126 131  90   100 104  68    82  84  58    68  69  51    50  50  40    39  38  33    34  33  29    29  28  23    40  40  30    39  40  26    38  39  23    35  36  19    33  34  19    36  36  24    40  40  32    45  45  37    51  53  39    45  48  29    40  44  25    44  47  27    54  58  35    60  64  39    59  63  36    57  61  32  
  61  64  23    63  66  25    78  80  40    68  70  28    62  65  22    64  67  22    59  62  15    53  56  11    64  68  15    83  88  36    67  74  23    78  84  35    70  76  28    61  67  19    65  71  24    61  67  22    55  61  18    62  68  25    63  68  28    59  63  25    72  76  39    62  66  31    42  46  13    45  49  16    64  68  37    92  96  64   102 106  72    87  91  59    70  72  49    55  56  41    42  42  33    36  35  30    37  36  32    42  41  36    44  44  34    40  42  28    35  36  20    30  31  15    29  30  16    33  33  21    41  41  32    47  47  37    44  46  33    45  48  32    47  50  33    49  52  33    52  55  34    60  64  41    72  76  51    80  84  57  
  99 102  58    92  95  50    83  86  39    90  93  45   101 106  54   111 115  61   114 120  63   114 120  61   116 121  60   118 124  65   102 109  55    96 103  51    88  94  45    93  99  52    98 104  59    79  84  42    59  63  24    60  64  27    67  71  37    47  51  19    47  49  22    39  41  15    31  34   8    41  43  18    53  55  31    70  73  49    64  67  39    60  62  36    47  48  29    37  38  24    34  34  25    33  32  27    35  34  29    44  43  38    40  40  30    39  39  26    36  37  22    33  34  18    33  34  20    35  36  23    39  39  28    42  42  31    45  47  34    44  46  32    42  45  29    42  45  27    45  48  28    52  55  33    60  64  42    65  69  45  
  90  93  47    86  90  41    84  88  38    93  98  43   100 105  47   105 111  50   116 123  58   124 131  64   115 122  54    99 106  40    97 105  47   101 108  56   120 127  76   130 136  90   105 110  69    66  71  31    54  58  22    64  67  35    47  49  21    28  30   4    30  32  10    29  30  11    32  33  15    43  44  28    39  40  24    37  39  21    37  39  17    41  43  21    34  35  18    32  33  19    42  42  32    40  40  33    35  35  28    40  39  32    38  38  28    38  38  25    37  38  24    37  38  24    39  40  25    40  41  27    42  43  29    43  43  31    48  50  37    41  42  30    33  35  22    34  36  21    42  45  27    49  52  32    51  54  33    50  53  31  
  69  73  23    93  97  46   109 114  61    95 100  43    92  98  36   107 113  47   120 127  59   114 122  50    94 101  27    76  83  14    90  98  38    72  79  27    69  76  25    74  79  34    73  78  37    78  82  45    74  77  44    55  58  30    35  37  14    30  32  11    42  43  27    38  39  25    30  30  18    35  35  25    31  31  21    31  31  19    36  37  21    46  47  28    43  43  28    46  47  33    63  63  51    59  59  48    43  43  33    43  43  33    45  45  35    41  41  29    36  36  24    34  35  21    37  38  22    44  46  30    52  53  37    56  57  43    44  46  33    40  42  31    37  39  26    40  42  28    48  50  36    58  61  44    66  69  50    70  73  52  
