P3
50 50
255
  39  29  17    29  20  10    21  13   3    19  12   1    18  12   1    18  12   1    30  24  10    33  27  12    33  26  10    32  25   7    44  37  19    40  31  14    35  27   8    26  18   3    24  17   1    28  23   4    34  28  12    29  23   7    24  21   1    39  37  13    47  48  16    48  51  13    43  48   8    56  60  24    51  55  22    17  20   1    29  30   7    42  40  20    24  22   5    21  20   1    76  74  34    84  82  38    51  49   7    44  41   1    58  55  13   111 106  64   110 106  63    84  78  33   106  99  52    94  90  42    79  80  30    63  65  15    61  63  13    66  68  18    60  60  10    76  74  23   114 113  59   133 129  72   115 109  50   145 135  74  
  31  21   9    29  20  11    20  11   4    15   8   1    18  12   1    13   7   1    26  20   8    44  38  23    47  40  23    40  33  14    51  43  24    42  31  11    39  28   6    36  27   5    28  22   1    21  16   1    31  26   8    35  30  11    24  21   1    37  36   9    43  44  10    46  48   9    50  56  13    65  70  28    59  63  26    21  24   1    20  22   1    34  33   9    37  36   7    22  22   1    65  63  21    72  70  24    51  48   2    41  38   1    43  39   1    64  58  19   127 120  80   108 101  57    87  81  33   101  97  49    72  72  22    69  71  21    73  75  25    85  87  37    82  82  32    63  63  10    72  70  16   102  98  42    93  87  29   127 118  57  
  26  17   2    36  27  16    26  18   9    19  12   3    29  25  14    14  11   1    30  26  13    31  25  10    40  33  16    47  39  20    70  59  36    76  63  39    38  25   6    42  33  11    45  38  12    31  24   3    32  26   6    40  35  15    33  30   6    29  28   1    37  39   2    41  44   2    43  49   2    67  74  27    37  44   4    30  36   1    40  43   7    50  50  19    57  56  22    56  57  18   102 101  57    70  69  21    55  53   6    50  46   3    49  44   4    48  43   7   123 115  75   115 107  63   116 108  60   121 115  63    76  76  22   103 103  51    80  80  28    66  66  15    61  61   9    67  67  15    76  74  20    78  74  19   116 111  53   165 156  95  
  45  36  20    24  14   5    37  30  18    16  11   5     9   5   1     9   6   1     7   2   1    14   8   1    35  27  11    53  43  23    86  74  50    70  55  29    52  37  10    47  36   6    42  37   6    37  31   5    39  33  11    41  36  14    33  30   6    32  31   1    33  36   3    70  74  29   101 108  57    67  74  23    73  81  30    76  83  35    79  84  41    87  88  49    77  78  37    90  91  47    76  75  27    59  59   9    57  55   9    41  37   1    71  63  24    74  66  29   100  91  51   110 102  57   139 131  83    97  90  38   102  99  46    85  82  29    64  63  10    68  67  15    77  77  25    87  87  35    84  83  31   113 110  56   146 140  83   163 153  92  
  46  39  20    30  23   6    29  23   8    21  17   4    19  15   3    13  10   1    18  13   1    26  20   6    38  30  12    44  33  11    69  55  28    54  38  12    48  32   6    48  38   5    51  45  13    57  50  22    55  50  25    53  48  24    46  45  17    49  48  18    53  56  16    50  54   8   124 131  78   138 147  91   135 143  88   144 155  99   106 113  64    86  91  45    57  60  12    55  57   8    96  96  43    79  78  25    56  54   6    61  57  13    76  69  27    81  73  34   101  92  50    96  87  39   119 109  57    87  79  25    71  64   9    65  61   6    61  58   4    56  54   2    75  73  22   115 115  64   109 109  56   120 118  64   145 140  83   150 141  82  
  52  46  24    50  44  25    30  24   8    19  15   1    28  24  12    22  19   6    21  16   4    27  21   6    26  18   1    29  18   1    50  34   7    66  49  18    55  37   6    44  32   1    49  43   9    57  50  21    54  47  20    49  43  19    49  44  18    54  54  21    63  65  25    42  46   1   105 113  56   156 165 105   103 113  51   116 127  67    73  82  26    62  67  16    67  70  18    72  75  21    91  92  35    88  89  33    58  56  12    46  40   1    77  70  28    94  85  44   101  89  47   106  96  49   136 126  74   124 115  60    73  65  10    99  90  36    95  89  34    68  64  11    71  68  17   105 104  53    92  92  39    68  67  12    59  55   2    80  74  15  
  52  46  22    50  45  19    53  48  26    21  17   7    19  17   3    38  36  23    18  15   2    26  21   5    22  14   1    34  23   1    66  50  21    81  62  29    64  45  11    51  39   2    53  44   7    54  49  15    49  43  15    44  39  13    48  46  17    56  56  22    53  56  13    55  60  14    89  98  48   142 153  90    95 107  41   104 116  51    57  66   5    63  70  12    65  68  12    73  77  18    81  82  23    99 100  43    98  96  43    60  56  10    85  78  34   104  95  52    98  88  41    99  88  37   112 101  46   132 121  65    83  70  15   105  92  38    98  87  34    95  88  35    83  80  27    73  71  20    62  61   9    46  45   1    50  49   1    83  79  19  
  57  51  25    71  66  38    72  68  43    48  44  25    16  15   2    22  20   5    27  23  10    41  35  20    28  21   6    40  28   4    84  66  36    79  58  24    82  62  25    70  56  17    60  52  14    61  55  22    53  47  18    45  39  13    50  46  18    56  55  20    50  53   9    51  56   3   105 114  53   163 175 107    96 109  39   102 115  46    60  70   6    73  80  19    58  62   5    84  89  26    85  87  24    82  82  23    88  86  32    77  71  24    98  89  46   116 104  62   105  94  48    96  84  34    85  74  19   123 111  53   126 111  55   144 129  75   132 120  67   141 132  80   110 103  52    75  72  21    72  71  20    47  47   1    42  41   1    61  57   1  
  58  53  23    81  76  45    57  54  27    60  58  36    33  32  14    12  10   1    27  24   9    44  39  22    33  23   7    41  28   3    75  58  28    74  53  17    94  74  34    70  56  15    56  47   8    62  57  21    54  48  17    38  33   5    37  35   6    41  41   5    51  54  11    53  60   9   112 123  59   143 155  86    78  91  19    68  84  11    61  73   5    57  65   1    80  85  20   149 154  88    82  84  20    68  69   8    82  80  24    92  87  38   131 124  77   146 138  92   107  96  49   107  96  44   100  88  31    98  86  26   120 103  47   154 138  84   135 123  69   131 123  69   112 106  54    94  91  40    96  94  42    80  81  25    56  55  10    80  76  17  
  15  12   1    24  20   1    15  13   1    41  40  15    67  65  40    67  65  40    43  40  15    57  52  27    52  44  16    54  41  12    56  40   7    59  40   3    60  41   5    53  42   1    61  54  12    76  70  33    66  60  27    44  39   9    40  36   6    39  39   5    49  50   9    56  61  10    79  87  27   115 125  59   187 198 130   135 148  76   140 151  81   135 143  76   119 126  59   128 133  69    88  93  30    69  69  10    84  83  29    91  87  38    81  74  28   109 101  54   114 103  55   116 104  52   106  92  37   121 106  49   140 124  68   172 156 101   124 110  56   102  92  37   108 101  47    91  88  33    72  71  15    73  72  16    85  83  27   105 100  42  
  14  13   1    45  45  17    67  68  29    58  59  19   105 104  63   144 142 101    88  85  42    93  89  47    68  61  19    92  84  44    84  72  34    56  43   6    50  37   7    32  24   1    57  52  12   145 140 102    79  73  41    40  35   7    36  31   4    26  23   1    45  42   6    50  51   9    55  59   8    57  62   5   131 137  76   135 145  78   172 182 113   134 144  76   106 115  50    78  86  26    49  55   2    59  63  13    69  69  22    88  87  39    79  75  27    90  81  32   108  96  46   111  95  47   124 104  57   124 104  55   156 139  87   173 156 102   143 129  73   103  93  34   115 109  49    82  78  18    87  85  24    89  87  28   139 137  80   147 143  86  
  19  21   1    85  87  46   128 129  86    84  84  37   142 142  92   142 140  88   106 105  51    95  92  40    66  61  12    72  65  18    65  56  15    69  60  21    58  49  15    43  37   1    69  64  22    86  81  41    56  51  17    38  33   2    51  46  16    46  41  11    52  49  17    46  45  10    63  65  23    91  94  42    58  61   5    74  80  17    66  74   6    82  93  21    88  99  31    59  69   9    66  72  21    55  60  13    88  90  44    71  71  23    59  56   5    91  84  32   108  95  44    98  81  31   122 102  56   156 135  90   160 140  90   124 108  55   121 107  52   138 128  70    93  85  23    98  92  30   104 100  38    85  83  22    89  85  26   136 131  75  
  14  17   1    76  81  35   137 141  92   106 109  57   135 138  83   110 111  54    88  88  32    59  58   6    54  52   1    51  48   1    61  54   8   105  98  55    90  83  41    88  83  39    59  56  13    36  33   1    43  39   4    46  41  10    78  75  43    48  45  14    68  67  36    82  82  50    38  39   3   129 132  83   101 106  50    89  96  35    65  75   5    84  96  20    93 105  34   126 136  73    78  86  29    71  77  24    83  86  35    77  78  26    78  75  21   112 104  50   128 117  63   131 116  64   145 125  77   139 118  71   165 144  97   112  95  44    84  70  17   112 101  46   139 130  73    77  71  11   103 100  39    80  78  17    73  71  12   126 124  67  
  43  49   3    79  84  35   128 132  80   127 132  76    81  85  28    83  86  27    85  86  27    60  60   3    79  78  21    55  52   3    65  61  11   111 104  59    78  72  28    46  42   2    39  36   1    55  52  11    62  58  21    54  49  16    31  28   3    32  28   1   146 146 114    59  59  25    27  28   1    52  54  15    99 103  52   186 192 135   122 129  61   125 137  57   172 184 106   120 131  61    71  80  18    58  65  10    99 103  50    90  91  35    85  84  27   107 101  43   124 112  57   147 132  80   152 135  86   106  85  40   145 124  79   115  95  50   140 123  75   122 108  57   137 125  73   113 104  49    81  75  17    80  76  18    79  77  18    87  85  26  
  89  96  42   101 109  54   105 113  55   103 111  51    38  45   4    74  80  16    92  97  34    70  74  11    89  90  30    51  51   3    81  80  24   116 115  61    79  77  27    69  67  19    36  34   2    58  57  13    54  52  17    30  27   1    42  40  11    47  46  16    85  84  54    31  30   1    26  26   1    16  18   1    21  24   1    70  74  22    89  96  29    85  97  14   123 134  53   123 133  60    64  72   8    48  55   9    93  97  40   122 123  66   114 112  55   123 117  59   136 127  70   128 114  62   123 105  56   109  90  47   103  81  42   139 118  78   189 171 128   128 113  67   142 130  80   165 155 102   109 105  49    81  79  21    89  87  28    81  79  20  
 140 148  89   120 129  69    81  89  29    89  98  36    97 106  41   118 125  58   119 125  57    99 104  38    94  99  34    52  53   3    95  95  38   115 114  57    87  86  31    78  78  27    74  73  25    53  52   9    69  67  27    69  68  32    60  59  27    50  49  19    18  16   1    22  21   1    27  27   1    22  23   1    30  33   1    49  52   6    73  80  15   104 116  31   107 120  36   132 143  66   132 141  74   122 129  68   112 116  58   150 152  95   113 113  57   116 111  55   147 139  85   112  99  48    82  66  19    95  76  34   135 112  78   131 109  76   125 105  69   121 103  64   170 157 112   154 144  94   115 109  56    95  91  35    92  90  33    89  87  28  
 134 143  78    95 105  43    51  62   1    83  94  27   125 136  67   117 127  56   122 131  61   139 146  76   121 128  59    84  89  22   100 105  39    84  89  26    66  70  10    65  68  12    70  72  21    94  96  50    80  81  38    52  53  15    55  56  21    44  44  12    30  31   1    31  32   5    13  14   1    11  13   1    52  54  17    54  57  14    50  56   6    82  92  11    97 107  25   130 138  65   122 131  66    61  68  10    63  67  11    81  82  28    62  61   7    69  66  11    98  91  40    91  79  32    77  62  18    66  48  10    91  70  39    62  39  11    83  63  32   112  96  60    78  65  24   151 140  95   138 131  82   104 100  46    89  87  30    86  86  26  
 116 126  58    90 101  33    69  80  11   102 114  43    95 107  35    91 101  28   107 116  43   104 112  39   110 118  47   112 119  49   119 126  58    96 101  35   101 105  42   106 109  51    95  98  44   115 118  69    46  49   9    38  40   8    45  47  10    71  72  39    44  45  13    28  29   1    26  27   1    39  41   8    71  73  34    53  55  14    87  92  33   136 145  66   117 125  46   108 115  46    73  81  22    47  53   1    45  49   2    47  49   1    74  74  24    87  85  36    60  55   8    80  70  28   112  99  61    74  59  25    84  63  37    66  45  24    57  37  15    51  34   9    34  20   1    86  74  33   133 123  77    97  90  41   105 101  47   134 133  76  
 141 151  82   162 173 104   152 164  93   150 162  90    62  75   7    73  84   8    78  89  15    89 100  25    82  93  20   117 127  56    51  60   7   127 134  66   110 117  49    84  91  28   105 113  56    72  79  26    43  50   2    44  50   4    22  27   1    89  93  58    99 103  66    41  45  10    50  54  18    22  25   3    66  68  31    66  68  27    86  91  34   143 149  75   153 160  87   109 115  50    83  88  33    49  53   5    46  49   4    88  89  45    82  82  37    92  89  46    99  93  54   105  96  60   127 114  83    54  38  12    61  42  19    55  35  11    45  26   1    41  24   1    37  22   1    84  72  36   129 120  78    91  86  39    80  78  26   131 130  74  
 152 162  93   155 167  95    96 108  36    99 111  37   112 124  50    92 103  28    67  78   5    82  93  17   101 112  38    69  79   7   117 127  56   123 132  62   118 127  57    74  84  19    66  74  14   111 119  62    50  57   9    34  41   1    34  40   1   116 121  81   131 136  96    45  50  10    48  53  13    45  48   8    92  94  54    77  80  38    85  89  33   115 121  51   131 137  70   112 117  59    79  83  34    54  56  15    50  52  13    70  71  33   108 108  70    80  78  40    79  74  40    98  91  60    75  64  37    61  47  23    68  51  28    49  33  11    35  19   1    44  27   4    43  28   1    69  56  22   105  94  57    94  86  42    80  75  28   100  99  45  
 141 151  82   151 161  90    92 102  29    96 106  33    77  87  14    75  85  12    89  99  26    77  87  14   110 120  47    76  86  13   111 121  48    72  82  13    79  89  23   119 129  63    91 103  38   133 144  83    96 106  50    41  50   1    37  45   1   123 131  85   100 106  62    39  45   1    47  53   9    59  65  21    82  87  42    62  68  21   106 111  56   102 107  42    83  87  26    79  81  30    76  79  37    51  53  15    42  43  10    42  44  12    67  67  36    47  44  11    44  39   8    48  39  12    30  19   1    35  23   2    49  37  13    34  20   1    25  11   1    35  21   1    33  19   1    42  29   2    71  59  24    66  58  19    62  57  13    64  62  14  
 111 118  50   166 173 103   124 132  59   102 110  37    66  76   5   123 133  62   148 158  87   121 131  60    96 106  35    92 102  29    79  89  17    63  73   7   102 112  42    90 102  34   107 119  52   106 118  52   114 126  63    57  66   7    54  63   7   110 118  65    58  65  14    46  52   4    59  65  17    72  78  30    68  75  26    64  71  20   154 158 102   151 154  92   134 134  78    59  61  11    45  47   8    38  39   6    31  32   3    28  29   1    27  28   1    28  27   1    30  26   1    22  15   1    32  24   5    27  16   1    36  25   1    43  31   5    42  30   4    38  25   1    24  10   1    38  24   2    85  73  40    95  85  50    58  50  11    56  51   7  
 143 149  79   122 129  59    79  86  16    76  82  12    89  96  26   144 151  81   130 137  67   102 109  39   118 125  55   102 109  39   124 131  61   122 129  59    99 108  37    54  66   2   137 153  83   117 133  62    85 100  31    65  77  13    66  77  16    83  93  35    48  57   2    53  61   7    85  92  38    89  95  41    73  80  26    76  83  29   163 166 109   161 162 102   122 122  68    68  69  22    56  58  20    28  29   1    32  32   5    27  27   3    36  37   7    25  24   1    28  25   1    38  33   6    40  34  11    37  29   6    51  44  16    73  66  37    76  68  39    55  44  16    32  21   1    50  36   9    84  70  41    83  71  39    65  55  19    66  58  19  
 168 174 104   164 170 100    91  97  28    51  56   4    71  76  12   118 125  57   105 112  44   117 124  56   185 192 125   121 128  60    79  86  18    65  72   7    58  67   4    55  67   2    96 112  40   154 169  97   131 146  75   151 163  96   100 112  49    69  80  20    49  59   2    35  44   3    78  86  27    76  84  24    67  75  16    52  60   1    83  87  27   111 111  53    77  77  24    65  64  19    72  73  35    57  58  25    41  42  12    28  29   1    40  41   9    30  29   1    34  32   3    44  40  12    43  38  13    33  27   1    62  57  27    82  77  45    79  73  43    53  45  16    32  21   1    44  30   3    62  48  20    74  60  32    55  44  13    49  39   4  
  52  55   8   133 136  69   146 148  82   129 133  68    83  88  22    70  75   9   113 118  52   109 114  48   103 108  43    90  95  29    48  55   1    42  49   1    53  61   1    65  79   6    51  69   1   158 174  99   147 163  91   160 176 106   117 130  63    68  80  16    40  50   3   105 115  54   171 181 120   115 123  63    61  69   9    49  56   1    72  76  15    91  92  32    75  75  21    90  89  43    79  80  40    35  35   1    40  41   9    41  44  11    32  36   1    42  43   9    55  54  21    47  44  12    52  47  19    38  33   4    53  50  17    67  64  29    63  59  26    45  37   7    33  22   1    36  22   1    47  33   6    72  58  30    49  35  12    27  15   1  
 101 106  37   128 130  65   123 126  61   160 165  98   186 191 124    52  57   1    79  84  17   112 117  50   107 112  45   118 123  56    97 104  37   120 127  60   100 108  41    58  70   7    60  74   6   178 190 122   127 140  71   101 114  45   121 134  65    60  71   7   108 119  51   145 156  87   137 148  80    74  83  18    56  65   1    65  74  11    90  95  34    81  84  26    70  72  20    58  61  15    66  68  30    29  30   1    25  28   1    28  32   1    29  33   1    38  39   5    58  59  25    49  47  15    41  36   7    47  44  13    46  46   8    62  62  23    63  60  24    49  44  11    45  35   6    49  35   9    57  41  16    65  49  23    44  29   4    50  36   7  
 113 120  54   106 113  48   105 112  44   143 150  81   161 168  96    91 100  25    95 103  28    70  78  12    64  71   5   101 107  39   117 124  57   119 125  62    77  84  23    54  63   7    71  80  25    99 108  53    93 102  44   131 141  79   200 210 144   142 152  81    90 101  25    83  94  15    86  97  19    87  98  23   112 122  53   151 159  95    98 106  48    47  56   2    31  39   1    39  46   4    53  59  21    31  37   2    27  31   1    19  22   1    31  34   6    42  43  12    34  35   4    39  38   7    50  48  16    46  44   6    70  73  28    59  62  15    61  59  18    60  53  17    41  31   1    54  38  12    58  40  16    56  38  14    50  33   9    40  25   1  
 107 114  51    52  58   4   108 115  46   106 114  42    64  72   3    95 103  26   111 119  42    92 100  24    76  83  11    77  84  15    67  74   8    53  59   1    66  72  14    74  78  26    45  51   4    30  36   1    44  52   4    88  95  39   147 156  91   154 164  91   103 114  34   108 120  36   106 118  35    98 109  31    79  90  18    71  80  16    41  49   1    25  36   1    34  46   1    77  87  43    92 100  61    51  57  23    24  28   3    22  26   1    23  23   1    36  36   8    36  35   7    41  39   9    66  63  30    58  56  19    97 100  53    80  82  34    71  68  26    73  64  27    77  64  32    51  34   8    64  46  22    70  50  26    66  47  23    47  31   6  
 108 114  48   100 105  38   112 118  49   160 166  94   120 126  54   105 111  37   126 132  59   106 112  39    94 100  30   108 113  46   120 125  59    98 103  40    81  85  26    57  61   9    37  40   1    28  31   1    39  43   1    47  51   1    70  76  15   129 136  67   147 156  78    99 108  31    56  65   1    53  61   1    30  37   1    28  34   1    48  57   5    54  64  13    52  62  14    84  93  47    88  96  55    56  62  27    31  35   7    24  27   1    21  22   1    25  25   1    33  32   1    43  41  10    56  53  21    53  51  14    53  52   8    58  56  11    65  61  19    86  78  41   100  85  54    62  45  17    63  43  18    66  46  21    49  32   6    49  33   5  
 109 114  47   124 130  60   137 143  73   184 190 120   147 153  83    95 101  31    84  90  20   103 109  39   120 126  58   108 113  46    66  71   5    63  68   3    60  65   6    43  45   1    56  59  13    62  65  18    53  57   7    55  59   6    73  79  19   144 151  83   147 155  80   163 172  95   102 110  34    68  75   5   101 107  45   109 114  58    91  97  43    84  92  40    74  82  32    77  84  40    67  73  33    55  59  25    41  43  13    21  21   1    31  29   5    26  25   1    50  46  19    77  72  43    65  60  30    73  69  35    64  60  19   112 106  65   115 106  68    99  86  51    67  51  18    77  58  28    58  39  10    51  31   4    58  40  11    57  42  11  
 105 110  40   129 132  61   145 148  78   144 147  78   158 161  94   131 134  67    66  69   4    92  94  29   116 117  52   112 114  49    93  96  29    92  95  28    73  76  15    51  54   2    64  66  19    65  67  20    45  47   1    55  57   5    60  64   6    87  92  27   130 136  66   193 199 126   164 170  99    93  99  33    93  96  39    90  92  42    59  64  14    66  73  21    94 101  52    98 103  57    71  76  35    64  66  30    49  49  18    34  33   4    44  41  14    34  30   3    53  47  20    69  64  34    42  37   8    46  41   9    66  58  20   165 156 118   180 168 132   129 114  79    59  40   7    55  34   3    65  45  13    82  63  30    54  38  10   151 137 101  
  99 105  35   106 110  37   132 135  65   138 141  74   124 126  61   100 102  39    98 100  38   110 112  50   113 115  52   109 111  46   115 117  52    99 102  35   110 113  48   108 108  54   101 100  54    81  80  35    38  37   1    33  33   1    26  27   1    48  49   1   112 114  49   120 123  56   139 142  77   108 109  51    72  72  21    58  57  11    53  55  10    61  65  17   107 110  62   104 105  61    72  72  33    65  65  30    60  58  26    59  55  25    51  45  19    49  43  17    63  57  30    67  62  33    59  53  24    56  47  16    50  40   8   141 128  93   182 167 132   170 152 118   145 125  92    75  52  18    87  65  30    87  67  30   125 106  67   177 164 122  
 102 105  35   100 102  29    92  93  24    59  59   6    59  59   1    87  87  27   102 101  44    96  95  38    82  82  23    99  99  37   126 126  62   102 103  37   123 124  60    92  91  38    82  81  36    81  80  36    57  56  12    63  62  16    40  40   4    58  59   4   137 138  78   109 110  48    92  93  34    65  65  11    68  67  20    69  67  26    68  68  25    72  74  26    90  92  44    81  81  37    71  72  30    71  69  32    67  63  30    67  62  33    54  49  20    51  46  17    56  49  21    53  46  18    50  42  14    43  35   4    72  59  27    97  81  48   130 112  79   126 108  73   149 129  94   106  84  47   109  88  48   122 104  62   115 101  56    95  83  35  
 101 104  35   105 106  36    82  83  16   107 107  44   137 137  77   123 122  66   104 102  47    53  52   2    35  34   1    94  94  37   145 145  82   122 122  58   108 108  45    81  80  28    80  77  36    69  66  26    73  70  31   129 126  84   112 110  63   117 115  64   136 134  78   125 124  68   120 119  65    86  83  36    61  59  17    52  48  13    70  67  27    60  59  14    60  59  13    69  68  24    97  95  54    88  85  48    63  59  25    54  49  19    56  51  22    52  45  17    56  49  21    63  56  28    53  46  17    58  49  18    98  83  52   108  91  60   147 128  96   100  81  46   105  86  49   141 123  82   139 120  78   144 126  81    65  50  18    58  46   1  
  58  61   3   112 112  47   151 151  88   125 125  65   115 114  57    96  96  40    60  59   8    51  50   1    83  82  27   107 106  49   114 114  56   102 102  41    75  74  15    67  64  16    64  60  21    64  60  23    57  53  15    76  72  34    96  93  53   134 130  86   120 118  69    71  69  18    66  64  15    60  58  14    77  73  36    55  50  20    65  60  25    67  64  22    78  75  32    74  71  30    73  69  31    69  65  29    83  79  45    83  78  46    55  50  17    63  57  24    93  87  55    62  56  24    55  49  17    72  63  32   123 108  77   118 102  69   161 145 110   117 101  63   134 117  75   102  85  41   104  91  41   107  94  42    70  58  11    98  87  35  
  69  71   8    98  98  37   101 101  41    66  65   7    74  73  17    51  49   1    59  58   7    75  73  25   133 132  78   123 122  67   102 101  45    98  97  41    62  61  11    63  61  18    65  61  23    56  52  18    71  66  34    49  44  16    19  15   1   102  99  61   102  99  54    57  55   8    44  41   1    38  34   1    44  39   7    47  42  13    71  67  35    59  55  16    67  64  23    49  45   7    50  46   8    79  75  38    84  80  44    95  89  55    88  82  50    54  48  16    72  66  34    79  73  41    62  56  24    66  57  24   124 111  79    92  77  44    72  58  22    97  84  43   104  90  46    37  25   1    57  46   4    98  89  34   114 106  51   113 106  52  
  66  68  11    86  87  30    86  87  30    50  51   4    35  35   1    47  47   4   101 101  47   109 109  55    77  77  23    66  66  14    80  80  28    90  90  38    91  90  40    92  88  47    70  66  33    70  65  35    58  53  23    36  31   2    94  89  58   178 173 139    89  85  47    66  63  21    54  51   9    54  50  12    43  38   8    59  53  27    97  92  63    79  75  38    39  35   4    38  34   1    41  37   1    48  44   7    59  55  18    65  61  24    67  63  26    45  41   4    65  61  24    75  71  34    49  45  10    41  35   1    48  39   3    50  40   6    48  39   1    58  49   4    45  36   1    77  70  16   100  94  39   110 105  49   123 118  62   149 145  90  
  86  88  38    55  55   8    60  60  14    81  81  29    71  71  17   118 118  64   115 115  61    85  85  31    64  64  12    52  52   2    57  56   8    74  73  27    94  93  51    78  74  40    65  60  31    48  42  16    40  34   9    32  26   7    93  88  63   192 187 157    61  57  22    58  54  18    41  37   1    46  41   8    33  28   1    52  45  22    73  67  41    62  57  24    29  25   4    42  38   4    43  39   4    41  37  11    90  86  49    79  75  38    54  50  13    63  59  22    68  64  27    44  40   4    50  46   9    68  64  26    55  51  13    45  40   1    51  47   3    55  51   4    72  69  16   152 150  93    98  97  37    76  76  17    85  84  27   108 107  53  
  72  74  28    43  44   6    53  55  16    93  95  44    88  91  36   101 104  47    78  81  24    82  85  29    73  76  22    50  52   2    26  27   1    30  31   4    56  56  20    49  46  16    52  48  21    47  43  18    49  44  23    52  47  26   106 101  77   155 151 123    71  68  35    71  68  32    38  36   1    41  38   7    39  35   8    58  53  31    56  52  26    51  47  16    41  38   6    30  27   1    72  69  34   110 107  71   128 126  88   128 126  88    74  72  33    57  55  16    58  56  15    51  50   9    59  60  17    41  42   2    51  52  10    58  59  15    47  49   3    56  59   5    88  91  34   150 155  94   107 111  50   102 106  46   119 121  65    96  96  46  
  40  42   1    48  48   9    47  48   7    65  67  19   101 104  49    87  90  33   103 107  48   106 110  52    76  79  25    59  61  13    60  61  20    52  51  17    29  28   5    25  22   1    23  19   1    33  28   8    34  29  11    37  32  13   101  96  75    86  82  55    56  53  22    60  57  24    34  31   2    33  30   1    39  36   8    45  40  18    30  26   3    29  25   1    37  34   6    24  21   1    64  61  28    89  86  50    93  91  53   139 137  99   139 137  96   118 116  75    79  79  35    70  71  27    71  72  28    59  62  17    63  69  23    63  69  21    55  62  12    65  72  17    94 101  42   130 139  74    83  92  28    76  84  22    92  97  40    45  47   4  
  52  54  15    57  58  24    56  58  17    71  74  26   113 118  65    71  77  17    76  82  20    89  95  35    87  92  37    54  57  10    72  74  35   100 101  70    53  53  27    34  32   9    33  31  10    15  12   2    35  32  15    34  31  14    40  38  18    39  37  13    38  37   6    43  43   9    37  37   3    37  36   4    44  43  15    45  43  20    40  37  13    45  41  16    29  25   1    51  47  17    89  89  54    76  76  39    72  72  34   108 109  69   127 128  86   104 104  60    59  62  15    66  70  21    72  76  26    82  88  40    62  70  21    66  76  25    80  90  35    85  95  35   120 130  68   160 171 105    87  98  36    47  56   1    69  76  21    49  53   3  
  39  41   3    38  39   3    47  50   9    46  48   3    51  55   4    48  53   1    45  49   1    30  34   1    29  32   1    33  35   1    60  61  30    76  76  49    51  50  27    34  33  12    29  26   7    25  22   3    27  24   9    48  46  32   107 105  81    74  73  44    39  39   4    35  35   1    38  38   1    37  37   1    49  49  15    64  63  32    60  59  29    56  55  25    42  41  10    64  64  30    73  73  37    50  51  12    53  54  13    45  46   3    62  64  17    77  79  32    69  73  23    80  84  34    77  81  31    90  96  47    67  77  27    89 102  49    80  93  38    80  92  33   117 129  67   132 144  82    69  79  18    93 102  43   120 127  74    36  42   7  
  42  48   4    27  33   1    52  58  11    74  80  32    91  97  51    86  92  48    76  81  43    48  51  20    35  38  10    24  26   2    43  45  21    34  36  12    40  42  16    24  22   3    25  22   5    34  32  12    45  43  18   127 126  97   143 143 107    77  78  36    58  60  13    74  76  29    43  45   1    36  38   1    44  46   1   122 124  77   129 130  90    93  94  59   105 106  70    64  66  26    35  39   1    32  39   1    38  45   1    47  54   4    89  96  42    34  41   3    80  86  35    83  90  39    58  65  16    73  81  32    78  91  38    76  91  36   119 133  79   141 152  99    98 108  55    66  75  22    61  68  16    61  66  17    57  60  15    52  54  14  
  45  52   1    53  60   9    60  67  16    77  84  35   135 141  96   108 113  73    54  57  26    76  78  56    45  46  28    28  29  11    32  34  13    19  21   2    26  28   4    27  26   5    28  25   6    23  21   3    68  67  37   105 105  69   106 106  64    51  53   6    76  79  26   144 147  92    70  73  19    47  50   1    71  74  20   131 134  80   131 135  88   103 107  68   106 111  71    77  83  39    64  70  22    41  48   1    46  53   1    63  71  12    79  87  28   104 112  55    70  77  23    60  67  16    57  64  15    56  64  15    51  64  10    71  86  29   160 174 118   124 135  81    57  67  14    76  82  31    61  64  15    62  65  19    66  69  24    67  70  27  
 125 134  81   103 112  62    37  46   1    41  50   1    66  74  25    42  47   7    34  37   5    27  29   5    37  38  19    32  33  15    33  35  13    25  27   2    32  32   4    14  14   1    51  51  27    58  59  28    61  62  27    67  69  28    67  71  23    46  51   2    82  87  31   167 172 113   103 108  49    89  94  36   103 108  51    93  98  43    61  65  18    67  72  31    70  75  35    53  59  13    71  78  27    76  84  29    70  78  20    81  88  29   115 123  64   156 164 108   114 121  68    86  93  41    65  71  22    50  57   7    50  64   5   120 134  73   158 170 110   143 153  93    90  99  40    97 105  48   152 157 103    97 101  49    62  66  15    75  79  29  
  84  93  40   153 162 107   126 135  80    89  97  42    51  59   8    16  22   1    38  42   8    32  35  10    45  47  25    20  22   3    24  26   2    47  47  20    40  41  10    53  54  22    78  79  45    65  67  30    42  44   4    80  84  36    75  80  27    75  80  24   105 110  52   145 151  91   131 137  78   117 122  66   121 126  70    77  82  30    29  36   1    29  35   1    66  72  32   126 132  86   104 111  60    52  59   5    82  90  32   121 129  70    72  81  21   101 109  50   147 154  98   108 115  62   108 115  64   104 111  60    67  77  16    95 107  41   129 139  76   157 166 103   146 152  90   114 120  60   126 130  72   103 106  49    85  88  31    88  93  37  
  63  73  17   109 120  61   146 157  97   110 120  60    65  74  18    28  36   1    26  32   4    40  43  11    38  39  13    30  30   6    38  38  11    87  86  58    61  61  27    78  82  42    59  66  22    43  51   4    46  54   3    65  74  19    65  75  16    93 103  42   151 161  98   133 143  80   109 119  58    65  75  15    96 105  48    68  77  22    53  59  10    55  61  17    45  51   7   112 118  70   146 153 100   100 108  50   105 113  54    88  97  35    68  76  16   118 126  66   128 136  78   113 120  65    91  98  44   103 110  54    85  93  28    81  90  23   112 119  52   122 128  61   143 148  82   166 171 107   158 160  97   149 152  89   164 169 105    99 105  41  
 134 145  89   101 112  51    84  96  35    63  74  13    73  83  22    74  83  30    68  75  30    23  27   2    24  26   1    36  37   8    11  10   3    65  64  32    70  71  34    69  74  28    48  57   5    64  72  17    99 108  50    97 107  45   127 137  74   118 129  63   190 200 135   139 149  84    83  93  31    58  68   8   133 142  85    92 101  46    61  70  18    69  75  28    43  49   8    31  38   1    86  94  39   106 114  56   113 121  61   144 153  91    90  99  36    86  94  34    48  56   1    57  65  13    59  67  10    44  52   1    56  62   3   104 109  42   122 125  59   118 120  55   109 109  45   112 113  49   134 136  71   132 134  69   155 159  93   122 127  61  
 121 132  74   158 171 109   101 113  54    44  56   1    62  74  13    57  66  10    61  69  20    76  81  40    96  98  64    89  90  58    51  51  17    55  55  19    61  63  21    92  99  46    98 109  48   115 127  63   109 121  55    85  97  30   118 131  61   103 117  47   153 166  97    85  97  33    44  56   1    67  79  21   130 141  83    85  96  40    45  53   2    53  59  11    54  61  11    57  64  12    91  98  43   131 139  81   158 166 106   187 196 134   118 127  64    52  61   1    52  59   1    59  67  11    59  66   8   117 123  63    85  89  25    90  92  27   101 102  37    87  87  23    89  89  27   103 103  41    88  88  27    69  70  11    92  96  33   142 149  81  
  91 102  44   125 138  75   118 130  65    87  99  33    80  91  25    51  61   3    33  41   4    84  90  45    89  92  52    43  45   8    67  67  29    67  67  32    66  68  29   167 175 117   124 136  68    84  97  27    82  95  25   103 116  46   113 126  56   128 141  71   152 165  96    65  78  20    45  57   8    65  77  16    57  68   8    46  56   1    36  44   1    41  48   1    49  56   6    48  55   2    60  68  11   149 157 100   147 155  96    94 103  41    76  85  22    65  74  11    59  68   6    70  78  18   103 112  52   102 109  49    74  74  14    96  96  36   119 119  60    79  78  21    55  53   1    71  69  13    54  53   1    65  64   6    64  66   3    97 102  36  
