P3
50 50
255
 143 145 123   139 141 117   110 112  89    41  42  23     3   4   1    13  12   3    26  24  22    66  61  65   115 110 111   127 124 119   162 160 148   158 156 143   180 177 166   179 176 170   196 192 190   210 205 211   196 191 199   209 203 213   217 211 219   192 187 193   218 214 213   221 216 215   198 191 192    95  84  88    12   4   5    33  19  18    32  17   9    43  26   8    69  50  21    77  58  16    79  60   3   106  86  20   109  91  28    64  49   1    89  77  15    78  66   6    86  73  19    81  68  17   111  97  48   117 104  52    51  38   3   113 100  47   130 116  65    76  62  16    68  53  13    45  29   2    80  65  25   108  95  44    88  76  23    72  60  11  
  87  90  59    49  52  21    54  57  27    33  36  10    58  60  39    33  34  21    14  13   8     8   4   6    52  48  47    42  39  31     6   4   1    17  16   7    41  40  21    31  29  15    14  11   2    13   9   6    30  26  26    43  39  41    63  59  61   128 123 121   105 102  92   101  99  87   148 143 136   243 240 236   141 131 129    23  13   9    18   6   3    52  35  21    64  47  22    64  47  10    56  38   1    73  56   1    81  64   4    82  70   3   100  88  24    86  74  15    78  65  11    69  56   5    81  67  19    53  41   2   122 109  56    88  74  19   105  90  36    92  76  26    65  48   3    82  64  23    66  49   4    97  81  27   107  92  37    73  59   7  
 121 124  93    83  87  54    47  51  19    36  38  12    25  27   6    24  25   9    24  23  12    29  26  16    67  66  49    97  97  73    45  46  15    57  58  23   108 109  74    69  70  38    48  48  22    53  52  32    33  31  16    21  19   7    63  61  47   117 116  98    56  56  32    34  34   9    34  32  13    96  91  78   226 217 208   217 206 200    74  60  51    37  22   9    69  53  33    91  76  44    53  38   2    85  68  17    84  68  12    76  64   4    79  69   7    70  60   1    69  57   4    87  75  24    73  60  14    82  69  17   109  94  39    92  77  19    97  82  24    98  82  27    78  60   9    69  52   5    64  46   1    86  69  21   114  97  44    86  70  19  
  73  76  48    52  55  26    57  60  32    24  26  12    17  18   3    19  19   8    13  12   4    13  11   1    72  71  50    90  91  61    47  49  12    70  72  32    91  93  53    58  60  22    33  34   1    47  47  22    55  55  33    28  27   8   113 112  89    68  68  43    73  74  41    82  82  50    54  52  28    16  12   1    43  37  23   161 154 143   243 238 228   142 129 118    59  45  28    72  58  33    61  46  12    81  67  26   101  87  41   111 102  47    69  60   5    60  51   1    61  51   4    73  62  11    56  45   2   103  90  37   126 114  54   109  95  34    96  82  21   112  96  39    77  60   8    58  40   1    67  49   3    99  79  28   104  86  35    87  69  21  
  65  64  44    62  62  41    80  79  60    36  34  20    29  26  19    19  15  14    25  21  17    31  28  16    38  37  18    17  17   2    30  31   3    69  72  34    72  74  38    71  72  41    47  47  21    41  40  17    36  35  18    77  76  62   111 110  89    21  21   8    67  68  34    87  88  53    65  64  35    39  37  14    30  24   8    19  12   4    93  85  73   212 207 197   213 205 192    58  47  28    17   7   4    74  63  34    76  66  30    85  76  32    93  86  34   103  96  44    82  74  31    58  49   9    61  49   5    79  66  13    92  80  20   105  93  30   115 101  38   148 133  72    64  47   9    71  50   4    59  38   1    60  39   8    77  57  15    73  54  12  
 136 135 117   112 111  93    67  66  50    14  12   5     4   1   1     3   1   1    12   8   7    39  36  26    68  67  51    31  29   9    27  27   1    31  31   6    73  73  46   100  99  77    30  29  11    80  78  63    78  76  63   105 103  89    63  62  45    69  68  47    66  67  36    85  85  55    59  58  33    13  11   1    41  38  22    38  33  21    34  26  18    43  36  29   163 155 144   249 248 235   118 108  93    58  49  31    66  58  34   102  96  62    94  90  46    99  95  50    74  68  25    49  41   1    77  68  18    93  83  25   112 102  40   100  89  25    98  85  23   141 125  67    75  58   8   143 122  77   115  93  53    78  55  20    64  43   8    63  43   9  
 195 194 176   220 219 199   219 217 200   208 206 193   166 164 158   123 119 118    91  87  87    80  77  73    69  66  58    13  11   5     8   6   1     8   6   1    43  41  28    58  55  47    48  45  40    94  90  87    99  95  94   153 150 146    62  59  51    46  44  31    46  43  26    36  33  14    51  48  30    34  30  17    45  41  30    46  42  34    60  55  49    37  32  26     7   2   1    95  91  83   222 217 208   173 168 158    79  74  61    38  34  10    62  57  25    78  74  38    76  70  34    65  59  18    70  63  14    73  65   8    88  77  15    91  80  16    96  83  21   114  98  44    86  68  22    97  78  39    63  43  12    72  50  25   112  90  66   100  77  53  
  82  82  56    89  89  61    92  92  67   116 115  95   136 134 121   199 196 190   207 204 198   215 212 205   221 219 208   191 188 176   172 170 155   145 143 130   116 114 103    83  80  74   113 110 108   112 108 109   161 157 157   197 194 190   197 194 186    96  94  82    25  22  13     4   1   1    12   7   4    13   8   2    12   9   4    10   7   3    31  28  23    43  41  37    49  48  44    19  18  14    61  60  56   208 207 203   225 223 217   184 181 166   180 175 153    99  95  70    60  55  24    67  63  25    55  49   7    66  59   5    77  69   7    80  70   8    88  77  17   114  99  47   176 157 115   109  89  56    61  41  22    32  12   4    81  58  42    89  66  48  
 107 109  72    86  88  49    52  54  16    34  35   7    16  16   1    50  49  31    48  46  32    32  31  14    74  73  52    86  86  62   136 136 112   166 165 145   180 179 163   218 216 205   223 220 213   192 189 182    98  95  87    50  48  35   137 136 117   233 231 215   226 220 221   206 199 205   159 153 157   100  95  99    60  56  57    37  33  34    19  18  17     7   7   5    13  13  13   158 158 158   206 206 208   182 182 184   172 172 172   174 172 165   192 187 173   209 203 186    51  46  22    53  48  15    62  55  12    53  46   1    74  65   7    68  57   5   104  91  36   145 130  83   195 178 141    94  73  47    38  15   1    50  25  16    84  59  52    70  45  36  
  61  63  23    62  65  27    45  48  15    63  65  27    64  65  32    74  74  47    92  92  66    63  63  34    78  79  47    42  43  11    72  72  41    43  44  15    45  45  20    87  86  65    34  33  15     6   4   2    32  30  13    29  28   8    40  40  17    30  29  10    58  53  50    99  93  97   150 144 146   181 177 177   211 206 206   226 225 224   196 195 195   204 204 205   178 178 182   143 144 148   107 108 112    43  45  49    34  37  38    41  41  37    68  64  56   230 226 215   117 111  95    64  59  34    55  50  16    58  51  10    68  59  12    75  63  15   117 101  56    90  73  35    49  29   2    63  41  18    53  29  13    46  19   9    84  57  48   119  92  83  
  77  79  40    54  55  15    54  56  16    65  67  28    74  76  39    60  61  27    78  80  43    97  99  60   100 103  61    84  86  46   114 116  76    73  75  37   114 116  80    81  82  49    16  17   2    20  20   1    22  22   1    32  32  11    68  68  42    57  56  35    26  22   8    15   9   1    11   5   1    10   5   1    32  27  17    42  39  33    59  56  54   105 103 106   132 132 139   182 182 190   191 191 199   211 213 217   231 234 235   243 243 240   127 124 119   195 192 184   237 233 222   169 162 148    52  44  26    54  42  23   100  85  62    96  79  54    82  63  39    86  64  41    81  57  35    87  62  42    94  68  48    49  22   7   116  89  74   125  98  81  
  77  79  46    52  53  20    67  68  34    66  67  34    74  75  43    68  69  37    64  65  31    64  66  28    43  45   6    60  62  22    69  71  34    69  71  35   120 121  87    59  60  27    25  26   1    23  23   1    29  29   4    21  20   1    29  28   9    31  30  12    44  40  24    46  40  23    53  48  29    50  47  26    47  44  25    17  15   2     2   1   1     3   3   2     1   3   1     4   5   4    27  29  25    57  61  52    85  90  77    57  60  46    66  66  54    99  97  85    81  78  65   204 200 187   222 215 200    64  52  38    24  11   5    81  64  48    67  47  31    90  67  51    91  68  50    95  72  54    66  41  20    77  50  27    81  53  32    76  49  28  
  75  74  54    29  28   8    25  24   4    32  31  12    54  53  35    42  41  23    17  16   1    27  26   7    26  25   5    88  87  67   132 131 110   106 105  83   142 142 119   106 105  84    96  95  77    46  44  29    31  28  17    30  27  19    30  27  22    25  20  16    25  19  10    35  30  17    38  35  17    26  23   3    27  24   4    25  24   3    31  30  11    23  25   6    32  37  17    46  51  29    71  77  49   103 111  76    63  72  35    41  47  15    37  40  13    64  64  38    29  27   6    39  35  17   169 164 139   251 244 221   146 135 114    27  14   4    60  44  25    66  47  30   114  94  77    97  76  59   112  88  70   106  79  61    86  59  39    96  71  48  
 217 215 203   220 218 206   208 206 194   190 187 177   170 167 158   137 134 127   107 104  98    56  53  48    56  53  47    38  35  26   100  98  85   200 198 183   100  99  81    67  66  50   100  98  85    58  55  44    10   7   1    26  22  21    56  52  55    37  32  36    19  14  11    22  16   8    23  19   8    27  23   8    38  37  17    33  32  11    28  30   9    22  26   4    26  32   6    43  50  19   106 114  76   119 128  84    73  83  36    60  67  26    49  53  18    96  97  64    23  23   1    34  31   6    38  34   5   103  97  71   229 220 198   209 197 178   128 115  97   123 108  92   155 137 123   108  90  76   153 133 119   135 111  96    82  57  38    93  71  48  
  58  56  44    81  78  69    91  88  81   109 106 100   140 137 132   168 164 161   192 187 188   226 221 226   221 216 219   210 206 203   172 169 161   157 155 141   228 227 210   164 163 145   107 105  90    32  30  19     8   5   1     3   1   1    22  18  23    38  33  40    18  11  18    23  17  20    23  18  16    22  18  12    30  27  18    23  21  10    23  24  12    30  32  19    38  42  26    75  80  59   141 148 116    82  90  52    83  93  50    50  58  16    52  56  19    74  76  39    54  55  21    55  52  22    45  41  13    32  26   2    60  53  34   143 133 118   219 209 198   160 148 139   121 108 100   149 134 128   117  99  90    90  68  55   121  98  80    91  69  43  
   5   3   1    17  14   6    47  44  36    58  56  48    56  53  48    40  37  32     7   4   6    74  69  75   102  97 100    95  92  88    61  59  47    44  43  24    95  95  72   181 181 157   216 216 193   217 216 196   164 162 151   113 110 106    73  68  70    23  18  24    12   7  13     4   1   1     8   4   3    40  37  32    73  70  64    51  51  43    48  48  43    85  86  80   100 102  94   111 115 102   117 122 102    63  69  44    60  68  36    48  54  20    85  89  56    95  96  64    83  84  54    80  79  53    42  40  18    79  74  55    58  52  39   101  94  85   196 189 182   251 243 240   252 242 241   215 203 203   204 189 185   123 105  92   112  94  74   104  87  60  
  29  31   9    42  44  24    59  60  43    49  50  35    34  34  22    41  41  29    45  44  38   110 109 107    31  31  30    17  18   5    22  24   5    94  97  67    98 102  65    34  39   9    48  52  16   119 123  90   147 150 123   190 191 174   213 214 204   220 217 212   173 169 166   158 155 149   124 121 114    95  92  84    76  75  65    44  44  37    58  58  55    57  57  58   102 103 105   234 236 235   140 142 137    87  91  80    27  31  17    20  23   5    45  47  26    17  19   1    32  33  15    35  35  18    41  39  26    26  22  13    60  55  49   205 200 198   161 155 156    98  92  95   130 123 130    41  34  40   170 159 157   121 106  91   109  93  72   117 100  74  
  30  32   8    34  36  14    19  20   1    19  20   4    15  16   2    26  27  14    66  66  58   109 108 103    16  16  11    18  19   1    29  32   6    88  93  54    87  93  47    95 102  52    77  83  35    78  83  40    29  33   4    10  13   1    10  11   1    61  62  49   108 106  93   157 156 140   197 197 179   216 217 199   221 222 206   205 206 192   210 210 202   212 213 209   194 195 194   108 110 109   163 165 162   229 232 224   225 228 216   215 218 204   208 209 195   219 219 207   215 215 203   223 223 212   215 215 207   225 224 219   206 205 200   185 184 181   178 176 176   176 174 175   177 175 178   205 202 205   180 173 166   215 201 182   117 102  79   138 124  98  
  43  45  23    26  28   8    26  27  10    10  11   2    53  53  41    15  15  10   113 113 104    70  69  64     9   9   3    22  24   4    40  43  11    65  70  28    68  75  26    70  76  23    46  53   2    76  82  34   114 119  79    45  49  18    16  18   2    14  16   1     4   6   1    46  49  21    68  72  42    54  60  27    40  45  12   111 115  89   112 116  95    91  94  79    47  49  38     3   6   3     2   5   1    22  27   6    55  60  37    88  91  75    97  99  88   106 108  97   104 106  95   103 105  95   108 109 101   108 108  98   120 120 110   130 130 121   153 153 145   171 171 162   153 153 145    82  82  73    91  87  71   198 189 163   245 236 209   206 195 170  
  34  35  19    24  24  11    33  33  22    53  53  44    75  75  67   109 109 102   120 119 115    24  23  22    18  18  11    18  19   2    25  28   6    95  99  62    76  82  37    56  63  13    72  78  30    63  69  25   101 105  67    64  67  37    35  37  14    25  27   6    38  41  18    92  97  69   103 108  77    41  47  13    85  90  58   111 116  87    12  16   1    36  39  20    60  64  44    29  34  13    23  29   2    28  35   4    46  53  20    48  53  31    24  26  13     6   8   1     9  11   2    24  26  13    29  31  17    14  17   2    18  21   2    43  46  27    63  66  46    97 100  79   103 106  84    84  88  65    74  72  45    73  67  36   110 103  74   220 209 189  
   1   1   1     2   2   1    12  12  12    51  51  53    37  37  39   138 138 139   163 163 166    23  22  26     8   9   6     1   3   1     7  10   4    63  68  41    61  67  34    64  70  34    87  93  57    60  66  32    81  86  58    92  96  75    62  64  48    68  70  57    58  60  49    67  70  58    71  75  59    43  48  29   146 151 130    67  72  51    13  18   3    52  57  37    76  81  60    23  29   6    23  31   3    64  72  33   104 112  71   115 122  92    80  85  65    40  43  24    28  31  10    44  47  25    60  64  39    58  61  35    86  91  61    71  76  43   138 144 109    97 103  65   104 111  72   125 132  91    67  70  31   109 105  70    66  59  30   110 102  82  
 171 169 174   156 155 161   156 155 161   161 160 166   187 186 191   170 169 174   126 125 131   213 212 217   173 173 174   116 117 113    60  62  51    35  38  19    54  57  34    66  70  44    52  56  29    60  64  39    60  63  41    92  94  78    51  53  40    65  66  59    82  83  83    62  63  64    92  94  89   123 127 117   121 125 112    34  39  24    27  32  17    38  42  27    47  51  35    37  42  20    98 105  73   113 122  83    69  77  37    61  67  36    56  61  38    42  46  23    28  32   9    34  38  12    64  68  39    91  96  64    92  98  64    83  90  51   144 151 110    89  96  54    53  60  16    61  68  24    46  51   8    79  78  43    75  71  43   134 127 108  
 101 100 106   127 126 131   171 170 175   149 148 153    98  97 100    22  22  24    19  19  22    55  54  59   122 122 124   180 180 179   223 224 217   224 226 214   209 211 196   164 167 149   120 123 104   114 117  98    69  71  55    71  73  59    40  43  31    35  36  30    47  48  52    58  59  65    48  49  52   168 169 168   156 159 154    53  55  50    28  31  24    25  28  22    33  36  28    51  55  41   117 122 102   116 122  94    67  74  41    45  54  25    50  56  33    55  60  38    41  46  23    30  36  11    48  52  26    73  78  48   103 106  75   105 108  77   104 108  74   110 114  78    60  62  25    60  62  25    64  64  31    86  84  55    91  86  63    65  59  43  
   1   1   2    31  31  31    59  59  58     7   7   7     6   7   3    31  31  26    37  38  34    11  11   9     2   3   1     2   3   1     8   9   4    60  62  51   109 111  98   141 144 127   185 188 169   212 215 198   229 232 215   230 233 216   223 226 211   192 194 183   174 175 171   170 172 169   182 184 177   156 159 149   189 192 181   226 229 218   175 179 170   124 127 121    64  67  61    28  31  22    36  40  26    30  35  14    25  31   6    26  33  11    27  34  16    38  42  25    46  50  33    51  55  37    60  63  44    66  69  48    58  60  39   191 193 171    90  92  69    60  61  37    61  61  35    53  53  28    81  80  57    99  97  76    86  83  63    36  33  16  
  20  21  13   126 127 118    75  77  65    28  30  17    49  52  35    45  48  29    48  51  35    31  33  20     6   8   1    22  24  12    13  15   2    14  17   3    27  30  11    36  39  19    68  71  50    37  41  18    61  65  42    68  72  49    96 101  78   134 138 113   170 176 148   147 156 124   139 149 115    43  53  28    35  44  14   120 126 100   142 147 127   182 186 172   200 203 191   232 235 224   219 223 209   182 187 170   177 182 163   158 163 150   126 131 123    96 101  93    84  89  82    91  94  87   107 109 102   118 119 113   176 175 170   202 201 196   215 212 207   200 195 191   190 185 181   177 172 168   186 182 174   186 182 170   189 186 172   206 203 186  
  68  69  59   119 121 109    27  29  16    35  38  22    64  67  50    38  41  22    43  46  27    43  45  30    31  33  19    20  23   8    17  20   3    28  31  14    54  57  38    93  96  77   104 107  86    44  47  26    52  56  34    35  39  16    22  26   3   107 113  85    46  54  15    30  41   2    30  42   4    59  70  32    78  89  47    49  57  20    42  49  18    24  30   6    22  27   7    65  69  52    89  94  74   110 115  94   147 152 131   163 167 153   173 178 171   200 206 196   226 229 220   230 233 224   227 229 219   221 223 212   147 147 137    44  44  34    77  75  66   106 103  94   151 148 139   166 164 154   166 164 151   175 173 159   166 165 148   160 159 139  
 175 175 170   130 130 125    10  11   4     2   3   1    17  18  11    43  44  36    31  33  22    31  34  23    34  37  26    18  21  10    81  85  71    95 100  85    64  68  54    83  87  73    52  56  41    51  55  40    39  43  28    47  51  37   104 108  94   113 118  97    90  99  61    89  98  55    64  73  30    52  60  19    51  59  18    73  81  43    60  68  32    47  54  21    44  51  19    39  46  15    60  67  36    26  33   9     4  10   1    21  26   7    40  43  26    30  33  14    38  41  23    77  81  56    58  63  33    62  67  36    55  61  26    68  74  38    68  73  37    68  72  37    92  96  61    51  55  22    28  32  13    79  82  56    57  59  35    62  65  38  
 154 155 152   186 187 182   179 180 175   130 131 126    68  69  64    37  38  33    15  17  11     4   6   2     1   3   1     4   7   1    45  48  37    57  60  49    47  50  39    23  26  15    24  27  16    34  37  26    66  69  59    94  97  88   143 146 137    47  51  37    89  95  66    60  67  33    57  64  30    51  58  25    41  48  15    60  67  34    44  51  18    50  57  26    68  75  46    61  67  39    55  61  33    49  55  27    41  47  20    59  63  41    59  62  42    27  30   9   120 125  98   108 114  82    88  94  57    74  81  40    70  77  35    87  95  51    77  85  39    70  78  32    95 102  57    90  97  53    64  71  31    74  80  45    56  62  28    68  74  40  
  35  36  31    30  31  29   112 113 107   174 175 169   209 210 204   228 228 223   218 220 213   180 183 176   154 157 150   112 115 108   110 113 104   105 108  99    74  77  68    51  54  44    30  33  22    49  53  41    80  83  72   121 124 113   196 199 188   141 145 131    60  64  49    23  27  11    17  21   5    19  23   8    26  30  15    50  54  40    39  43  30    38  41  30    56  58  49    60  63  54    52  55  47    40  43  34    23  26  17    36  38  26    26  27  14    68  71  54   133 136 116    76  80  56    93  98  69    67  73  39    75  81  44    97 102  64    95 101  63    84  90  52    81  88  50    99 105  67    86  93  54    88  95  54    50  57  16    74  81  40  
  40  41  36    29  30  24    26  27  21     7   7   5    27  28  22    53  54  48    56  58  51    99 102  95   130 132 126   139 142 135   168 171 164   195 198 189   210 213 204   207 210 200   205 208 197   209 212 201   206 208 198   153 157 144    81  85  71   168 172 158   226 229 218   209 211 200   160 163 152   115 119 109    75  78  69    33  36  29     8  11   5     2   3   1     8  10   8    24  26  23    23  26  23    14  16  15    42  44  42    51  52  47    61  62  54   158 160 149    84  86  73    29  32  16    29  33  11    44  48  22    85  90  60    67  72  42    70  75  43    86  91  59    71  76  44    55  60  30    54  59  26    90  96  59    78  84  46    78  84  46  
  59  60  54    53  54  46    45  46  38    32  33  25    24  25  17    32  33  25    36  38  30    23  25  20     4   5   3     1   1   1     1   3   1     2   4   1     8  11   3    17  20   9    83  86  75    54  58  45     4   7   1    27  30  21    32  36  21    27  30  15    28  32  17    90  93  79   144 148 134   185 188 176   207 210 198   200 203 194   200 203 195   182 185 178   146 148 143   134 136 131    98 100  95    66  68  65    69  71  68    77  77  75   112 113 109   186 187 181   176 177 168    94  96  84    56  58  44    25  28  11     9  12   1     5   9   1    25  29  13    52  56  33    61  65  42    57  61  38    61  65  42    61  65  39    60  65  38    62  66  39  
  40  41  33    52  52  45    37  38  30    23  24  16    33  34  26    42  44  34    36  38  31    31  33  29    34  36  32    32  34  29    12  14   9    21  23  17    14  17  11    90  93  85    85  89  78     4   8   2    32  36  21    66  70  54    59  63  46    45  50  30    45  50  30    26  31  11    23  27  10     5   8   1     8  12   1    37  40  27    68  72  59    97 100  89   143 146 136   189 191 183   186 189 182   214 216 210   227 229 224   222 223 220   198 198 197    44  44  41   118 119 113   195 196 189   213 215 204   201 203 190   197 199 184   170 173 155   133 136 119   123 126 109   142 145 128   133 136 119   139 142 124   119 122 103   115 117  99   113 116  97  
  25  26  18     8  10   1     9  11   1    18  20   9    10  12   1    31  33  22    37  39  32    35  37  33    38  40  37    24  26  23    42  44  41    66  68  64    76  79  73   110 113 105    18  21  12    21  26  11    95  99  83    76  80  62    67  72  52    48  53  31    47  52  30    36  41  19    46  51  29    32  37  17    18  23   3     1   5   1     3   8   1     5   9   1     7  10   1     1   3   1    13  16   7    52  55  46    40  43  35    22  23  20    20  20  20    14  14  12     5   6   1    16  17  11    41  42  35    39  41  30    91  93  82   120 123 109   136 138 124   155 156 142   175 177 163   182 184 170   195 197 183   200 202 189   198 199 186   194 194 182  
 185 187 175   149 151 140   114 116 105    81  83  72    31  33  22    43  44  34    25  27  20    11  13   9     2   3   2     7   9   6    54  56  53    40  42  38   123 125 120   140 142 136    11  13  11    11  14  10   122 126 111   105 109  91    53  58  37    51  56  34    23  28   8    30  35  15    31  35  17    47  51  33    71  75  60    47  51  36    41  44  31    21  24  13    45  48  39    29  32  23    99 102  93    85  88  82    15  18  12    39  41  35    37  37  35    43  43  38    40  41  36    23  24  18    36  37  30    31  32  24    16  18   7    16  18   6    16  18   5    32  34  21    26  28  15    34  36  23    37  40  25    61  64  46    98  99  81    55  56  38  
 109 111 100   145 147 136   196 198 187   200 202 191   211 213 202   217 219 208   208 210 202   177 180 174   178 180 177   151 153 150   132 134 132   148 150 147   148 150 146   171 174 167   185 188 179   123 126 115    94  98  82    75  80  61    43  48  26    23  28   8     1   4   1     2   5   1     1   4   1    43  46  40    79  81  76    59  61  56    73  75  71    54  56  53    67  69  66   117 119 118   133 135 134     4   5   4    28  30  28    49  51  46    77  78  72    68  69  63    33  34  28    37  38  31    46  47  39    37  39  28    38  40  29    57  59  47    59  61  48    59  61  47    65  67  53    66  68  53    61  64  41   119 122  91   127 131  98    99 103  70  
   1   3   1    12  14   3    18  20   9    15  17   6    36  38  27    51  53  42    70  71  63    88  91  85   117 119 114   163 165 162   150 152 149   141 143 140    42  44  41     9  11   7    84  87  78   168 171 159   202 206 191   212 217 198   215 220 199   187 192 172   145 148 139   134 136 131    91  93  88    70  72  67    66  68  63    79  81  76    72  74  69    56  58  55    70  72  69   156 158 155   202 205 202   113 116 112    39  41  37    14  15   8    31  33  22     5   7   1     5   7   2    18  20   9    17  19   8    47  49  38    51  53  42    52  54  41    79  81  68    59  61  47    62  65  48    87  90  72   103 107  81   115 120  83    81  86  46    98 103  63  
  29  30  22    48  49  41    49  50  42    50  51  43    42  43  35     3   4   1     1   2   1     3   5   1    70  73  66    22  24  19     1   1   1     2   3   2    14  16  13    20  22  18    15  18  11    34  37  28    51  55  41    45  49  32    79  84  63   101 106  86   163 166 153   170 173 162   177 180 169   212 215 204   198 201 190   208 211 200   196 200 189   199 202 191   203 207 194   133 137 123    90  95  81   194 197 186   210 214 201   209 212 198   153 155 141   128 131 118    98 100  87    46  48  35    44  46  33    30  32  19    28  30  17    51  53  40    38  40  26    54  56  42    58  61  44    35  38  21   166 170 145   107 111  78    69  73  39    81  85  52  
  33  33  27    67  68  60    66  67  59    49  50  42    38  40  31    44  45  37    73  76  64   101 104  94   107 110 101    39  42  35    44  46  41    22  23  20    20  22  19    22  25  20    18  21  14    35  38  29    54  58  43    48  52  36    45  49  29    10  15   3    11  15   2    22  26  12     7  11   1     4   8   1    61  64  49    68  73  53    96 101  81    81  86  65    55  60  39    34  39  17    62  67  46    24  29  10    59  64  42    95  98  78   135 138 121   177 179 165   187 189 175   210 212 199   233 235 222   195 197 184   173 175 162   180 182 169   168 170 156   158 159 145   136 138 122   197 200 183   144 147 125   197 199 174   173 175 150   120 122  98  
   9  10   5    18  19  13    16  17  11     9  10   4    12  14   7    38  39  32    59  61  52   146 149 138   120 123 112     8  10   7     9  11   6     2   4   1     1   2   1     1   3   1     7   9   4    23  26  19    60  63  51    72  76  60    73  77  58    69  74  53    88  93  71    67  72  50    44  49  27    89  94  72    63  68  45   137 143 117    70  76  48    77  84  54    57  63  33    48  55  23   106 113  80    58  65  31    66  73  41    29  33  10    16  19   2    21  23   9    24  25  12    27  29  17    38  40  29    47  48  40    72  73  65   125 127 116   154 156 145   130 132 120   134 136 123   104 106  92    31  32  20    50  51  40   132 132 119   214 214 202  
 173 174 169   180 181 176   181 182 176   170 171 165   151 152 146   164 165 159   177 179 169   146 150 136   177 181 167   188 191 180   141 144 137   109 111 106    76  78  75    33  35  32    12  14   9     4   7   3    44  48  36    49  53  38    28  32  15    40  44  27    71  75  58    38  43  28    73  77  61    87  91  72   152 157 135   106 111  89    44  49  25    60  66  39    86  92  62    89  96  63    54  61  27    77  84  50    72  79  47    71  76  52    72  75  57    52  54  40    59  61  49    53  55  45    31  32  24    77  78  71    69  70  64    63  64  58    30  31  24    29  31  21    33  35  22    21  23  10    56  58  45    36  36  24    62  62  52    54  54  44  
  61  61  59    71  72  69    95  96  91   142 143 138   142 143 138   132 133 128   114 115 106    39  43  28    11  16   1    74  77  66   131 134 127   160 162 157   202 204 202   200 202 200   221 223 218   197 200 193   182 185 175   180 183 170   146 150 133    94  98  84    72  74  70    82  84  83    94  96  94   106 107 103   194 197 190   190 193 184   106 109  98    81  85  70    60  64  48    49  54  34    42  47  24    37  42  19    32  37  15    12  16   4    18  21   7    41  43  30    24  25  14    32  33  26    72  73  67    50  51  46   136 137 132   140 141 136    30  31  25    41  42  36    47  48  40    66  68  59    55  57  43    64  65  48    63  64  47    80  81  65  
   8   8   5    14  14  11    17  18  13    57  58  52    36  37  31    10  11   3    29  31  18    42  46  29    46  50  34    11  15   4     4   7   1     4   7   1     5   7   4    25  27  24    65  67  62    85  88  80   109 112 101   141 145 131   165 169 152   165 169 155   213 215 212   227 228 230   210 212 212   187 189 186    52  54  49   135 138 130   197 200 190   210 213 201   225 229 215   201 205 190   171 175 158   139 143 126   146 150 134   133 135 122   125 127 114    91  93  80    69  71  61    78  79  72    95  95  90   130 131 125   164 165 160   192 193 187   192 193 186   137 138 130    89  90  82    70  72  61    24  26  12    23  24   7    55  56  40    81  82  66  
  28  28  28    67  67  64    87  88  83   121 122 113    50  52  39    61  63  48    85  88  69    64  67  46    40  43  23    42  44  30    32  34  23    30  31  24    28  29  24    26  26  21    13  14   9    59  60  54    54  55  48    12  14   5     8  11   3    35  37  24    85  88  77    16  20  11    32  35  25    55  59  46    84  88  73    43  47  33    10  14   4    28  32  15    67  71  54   101 105  88   105 109  94   156 160 145   184 188 173   188 190 178   199 200 191   184 186 178   189 190 182   220 221 213   189 190 182   185 186 178    76  78  68    29  31  26   136 138 126   172 174 161   204 206 192   211 213 199   189 191 179   195 195 185   193 193 183   147 147 137  
  49  49  49    58  59  55   148 149 142   114 116 104    21  24   7    30  33  14    76  80  58    79  83  61    22  25   8    27  30  13    45  47  34    33  34  27    23  24  18    29  30  25    43  45  40    57  58  51    76  78  67    82  84  71    86  89  72   131 134 117    56  60  45    26  30  17    88  92  77   108 112  96    63  68  48    41  46  24    72  77  55    62  67  45    39  44  24    23  27  10    28  32  17    10  14   2     1   3   1    13  15   8    43  44  36    19  21  12    70  71  63    46  47  39    23  24  14     2   4   1    18  20   7    28  30  20     7   9   1    40  42  28    33  36  19    39  42  26    61  62  51    87  87  80   107 106 101   140 139 134  
 156 156 156   164 165 162   150 151 143   184 186 173   186 189 172   147 150 131   115 118  97    97 100  79    48  51  31    40  42  27    19  21   9     1   2   1     3   4   1     2   3   1     5   6   2    19  20  14    27  28  21    66  68  55   113 115  99   201 203 189    38  41  29     8  11   5    26  30  16    19  23   7    27  31  14    40  45  25    34  39  19    48  53  33    51  56  38    57  60  44    85  89  74    57  61  48    41  44  33    67  68  60   114 115 107   106 107  99    96  98  87    67  69  58    51  53  42    49  51  40    46  48  35    48  50  37    59  61  48    93  95  82    24  26  12    36  38  25    27  28  17    27  27  20    16  15  10    21  19  14  
 131 131 129   117 118 113    39  40  36    34  36  25   105 108  89   151 154 133   196 199 178   195 198 178   208 211 193   224 226 212   181 183 171   171 172 165   174 175 169   163 165 160   176 176 171   152 153 147   157 159 150   188 190 178   188 190 176   139 142 128   215 219 205   184 188 176   157 161 147   113 117 102    90  94  78    85  90  72    52  57  37    24  28  10    30  34  17    29  33  17    13  17   4    10  14   2    40  43  32    58  60  49    64  66  55   216 218 207    57  59  48    40  42  31    42  44  33    27  29  18    26  28  15    58  60  47    84  86  73    82  84  71    44  46  33    49  51  39    50  51  41    37  36  30    37  36  31    66  65  60  
   1   1   1     5   6   1    14  16   6    21  23   9    66  69  50    35  38  17    37  40  19    33  36  16    48  51  34    74  76  62    74  76  65    82  83  76    91  92  87   114 115 110   138 138 133   163 164 158   159 160 152   129 131 119    70  72  58     9  10   4    37  39  29    91  94  85   136 140 127   195 199 185   218 222 207   221 225 210   213 218 203   218 222 207   223 227 212   209 213 199   173 177 163   161 164 153   171 174 164   172 174 163   185 187 174   150 152 139   206 208 195   190 192 179   122 124 112    78  80  69    56  58  46    32  34  23    50  52  41    36  38  27    31  32  24    15  16   9     2   3   1     3   2   1    50  49  46    37  36  31  
  18  18  15    28  29  23    21  23  13    68  70  57   141 144 125   112 115  94    70  73  52    76  79  61    66  68  53    62  64  50    59  61  50    19  20  13    20  21  15    25  26  21    56  57  52   106 107 101    48  49  42    47  48  39    36  38  26    42  44  31    63  66  57     5   8   1    10  13   6    31  34  23    30  34  21    54  58  44    35  39  24    71  75  60    82  86  72    70  73  61   116 119 108   152 155 146   144 147 138   145 147 135    84  86  73    16  18   5    56  58  45   111 113 100   165 167 155   186 188 177   223 225 214   204 206 195   203 204 195   217 218 210   183 184 176   134 135 127   140 141 135   140 139 134   157 156 151   154 153 148  
   4   4   2     1   1   1     1   2   1    22  24  12    75  78  59    83  86  65    61  64  44    71  73  58    64  66  52    64  66  53    65  67  56    56  57  52    87  88  83   117 118 113   132 133 128    66  68  62    59  60  53    69  70  61    49  51  40    50  52  41    76  80  73    36  39  32    35  38  30    16  19   9    43  46  35   120 123 112    59  62  51    62  65  54    41  44  33    38  41  30    71  74  65    39  41  36    20  22  17    29  31  20    47  48  35    32  34  20    39  41  27    22  24  11     8  10   2    29  31  21    17  18  10    59  60  52    92  93  86    88  89  83   110 111 105   146 147 141   173 173 168   192 191 186   186 185 180   169 168 163  
 203 204 199   174 175 168   138 139 129   122 125 109   111 114  95    87  90  68    70  73  53    57  60  45    48  49  36    53  55  44    36  37  30    50  51  45    55  56  51   116 117 112   207 208 203   125 126 121    69  70  65    18  19  12     4   5   1     1   1   1     1   2   1     1   2   1     4   6   2    13  15   7    19  22  11    94  97  87    85  89  77    81  84  73    56  59  48   152 156 146   156 159 152    17  19  13    37  40  34    50  52  41    48  50  36    75  77  63    70  72  58    68  70  57    69  71  60    73  75  64    49  50  42    50  51  44    22  23  18    24  25  20    37  39  32    17  18  13    78  78  73    28  27  22    19  18  13    13  12   7  
