P3
50 50
255
 206 208 207   152 154 153   161 163 162   162 164 163   157 159 158   119 122 120   161 163 162    90  92  91   145 147 146   204 206 205   171 173 172   182 184 183   154 156 155   150 152 151   192 192 192   102 102 102   169 169 169   162 162 162   117 117 117   220 220 220   117 116 114   181 179 177   144 143 141   105 104 102   174 170 167   174 171 167   175 171 168   220 216 213   180 176 173   175 171 170   142 138 139   141 137 137   194 188 188   186 180 180    89  83  83   212 206 206   194 188 186    93  88  86   126 121 118   194 189 186   152 147 144     7   3   3   111 105 107   147 141 143   150 144 148   114 108 112   243 239 240   158 151 153    34  19  24    17   1   2  
 202 205 204   118 120 119   185 187 186   144 146 145   169 172 171   123 125 124   206 208 207    82  85  84   172 174 173   187 189 188   188 190 189   218 221 220   114 117 115   196 198 197   131 131 131   130 130 130   182 182 182   153 153 153   159 159 159   206 206 206   153 153 150   191 190 188   127 126 124   144 143 141   173 169 166   140 136 133   147 143 140   169 165 162   168 164 161   136 132 129   179 175 174   165 161 160   153 147 147   138 133 132   157 152 151   192 187 186   157 152 152   101  96  96   176 171 168   162 156 156   107 101 101    56  49  49   159 153 153    84  78  79   168 162 164   107 101 102   185 179 179   170 161 160    74  57  58    30  10  11  
 191 193 192   119 121 120   189 191 190   152 154 153   159 161 160   154 156 155   179 181 180   132 134 133   173 175 174   175 177 176   184 186 185   194 196 195   136 138 137   175 177 176   139 139 139   176 176 176   132 132 132   138 138 138   214 214 214   148 148 148   185 184 182   186 185 183   106 105 103   152 151 149   163 159 156   140 136 133   177 173 170   163 159 156   163 159 156   125 121 118   197 193 190   152 148 146   131 127 125   103  99  98   191 187 186   196 192 191   144 140 140   149 145 146   181 175 176   141 135 135   149 143 143    79  73  72   175 169 167    43  38  36   158 152 150   201 195 189   124 119 111   137 127 119    61  43  35    77  57  50  
 178 180 179   152 154 153   157 159 158   175 177 176   127 129 128   193 195 194   160 162 161   158 160 159   128 130 129   174 176 175   211 213 212   171 173 172   163 165 164   167 170 168   162 162 162   178 178 178    95  95  95   157 157 157   184 184 184   118 118 118   192 190 188   166 165 164   138 137 135   132 131 129   123 119 115   155 151 148   191 187 184   168 164 161   117 113 110   149 145 142   220 218 214   132 130 127   139 137 133   154 152 150   180 176 175   146 142 142   172 168 168   119 115 116   151 145 145   136 130 130   176 168 167    56  49  46   213 206 201    53  46  39   123 117 109   202 196 184    60  53  34    60  48  28    82  65  44   201 179 156  
 173 175 174   180 182 180   138 140 139   163 165 164   130 132 131   187 189 188   145 147 146   135 137 136    95  97  96   199 201 200   179 181 180   212 214 213   180 182 181   130 132 131   189 189 189   130 130 130    84  84  84   221 221 221   113 113 113   135 135 135   210 209 207    96  96  94   170 170 167   146 145 143    85  81  78   169 166 163   163 159 156   145 141 138   104 100  97   179 175 172   216 215 210    80  79  74   135 134 130   153 152 150   161 157 156    91  87  88   207 203 204   116 112 113   139 133 133   144 139 136   138 130 128    83  76  68   216 210 198   180 174 161   130 124 108    69  63  42   103  94  66   165 152 119   230 214 180   172 149 116  
 174 176 175   202 204 203   153 155 154   166 168 167   177 179 178   173 175 174   175 178 176   120 122 121   132 134 132   223 225 224   152 154 153   195 197 196   176 178 177   106 108 107   219 219 219   129 129 129   161 161 161   193 193 193   103 103 103   201 201 201   151 150 148   148 147 145   181 180 178   129 128 126   137 133 130   163 160 157   129 125 122   133 129 126   143 139 136   170 167 164   155 154 149   132 133 127   162 161 157   181 180 178   163 162 160   154 152 153   201 196 201    94  90  91   134 128 128   104  99  95   139 131 123    78  72  60   125 118 102   199 192 173   118 112  87   187 180 150   175 165 128   133 120  78   112  95  52   122 101  59  
 168 170 169   176 177 177   168 171 170   171 173 172   182 184 183   152 154 153   184 186 185   137 139 138   155 157 156   193 195 194   197 199 198   198 200 199   158 160 159   181 183 182   181 181 181   135 135 135   212 212 212   144 144 144   158 158 158   204 204 204   121 121 119   188 186 185   152 151 149    84  83  81   186 182 179   149 145 142   113 109 106   154 150 147   178 174 171   175 171 168   104 105  99   167 167 162   159 159 155   139 139 137   111 109 110   216 214 215   183 179 182    88  84  85   191 186 183    91  86  79   143 136 125   186 181 164   185 179 155   156 150 122   114 109  77    94  87  50    84  72  29   161 146 101   130 113  67   121 104  58  
 184 186 185   153 155 154   173 175 174   174 176 175   163 165 164   159 161 160   181 183 182   122 124 123   166 168 167   187 189 188   193 195 194   191 193 192   180 182 181   173 175 174   141 141 141   180 180 180   163 163 163   132 132 132   198 198 198   156 156 156   175 174 172   213 212 210   125 124 122   133 132 130   204 200 197   124 120 117   131 127 124   155 151 148   160 156 153   153 149 146   168 169 163   168 169 163   162 163 158   137 137 135   131 129 130   215 213 214   148 144 145   119 115 114   204 199 195   110 106  96   129 123 108   200 195 173   129 124  93    76  71  36    81  78  38   104  96  55   106  93  49    74  57  17    95  78  33    95  79  36  
 185 187 186   154 156 155   153 155 154   170 172 171   146 148 147   172 174 173   149 151 150   169 171 170   168 170 169   162 164 163   218 220 219   174 176 175   195 197 196   163 165 164   123 123 123   220 220 220   117 117 117   141 141 141   217 217 217   137 137 137   168 167 165   207 206 204   107 106 104   166 165 163   203 199 196    99  95  92   170 166 163   146 142 139   144 140 137   140 136 133   205 206 200   163 164 159   120 121 116   148 148 146   148 146 147   208 206 207   109 105 106   168 164 163   166 161 155   158 154 143   122 117  98   155 151 125    90  85  51    76  72  31    78  75  29    76  68  22    76  62  21    74  56  17    87  70  27    72  57  15  
 179 181 178   175 177 176   138 140 137   174 176 175   142 144 143   171 173 172   147 149 148   194 197 195   104 106 106   172 175 173   197 199 198   183 185 184   222 224 223   150 150 150   192 192 192   184 183 184    81  81  80   175 173 174   169 169 167   115 115 113   199 198 196   123 121 119   166 165 163   144 143 141   166 162 158   133 129 126   160 156 153   132 128 125   100  97  94   171 167 164   189 188 184   138 137 133   107 106 102   151 150 146   120 119 115   210 209 208   146 144 145   160 156 155   155 152 144   185 182 165   187 186 158   102 100  63    96  95  48    96  95  42    65  63   7    66  61   6    89  77  30    67  51   9    54  41   3   101  89  50  
 158 159 154   186 186 183   182 183 178   150 150 148   166 166 164   143 143 141   145 145 143   174 174 172   103 103 103   190 190 190   176 176 176   186 186 186   215 215 215   155 154 154   192 191 189   139 135 133   136 135 131   206 202 200   116 114 110   179 175 172   192 188 185    92  88  84   175 170 168   147 143 140   149 146 143   195 191 188   157 153 149    92  88  85   110 106 103   221 217 216   165 161 162   143 139 138   146 143 138   156 156 146   130 130 120   104 103  98   151 151 149   129 128 124   158 158 145   181 183 158   148 151 107    92  95  37    88  91  23    96  98  24    81  81  10    80  80  14   106 101  43    81  76  24   100  96  48   151 146 109  
 173 174 169   174 175 170   185 186 181   155 156 151   179 179 177   117 117 115   184 184 182   139 139 137   139 139 139   147 147 147   164 164 164   235 235 235   171 171 171   202 200 201   165 164 160   121 117 114   196 192 189   147 143 140   143 138 136   204 200 198   124 120 117   182 178 175   180 176 173   129 125 122   176 172 169   190 186 183   146 142 138   109 105 102   176 172 169   174 170 169   149 143 146   149 143 145   114 111 105   173 170 162   134 134 125   122 122 115   163 163 161   131 132 126   220 223 205   131 135 100    67  73  16    99 105  33   104 111  30   130 133  51   122 124  48    98  98  29    78  78  14    62  61  12   153 151 108   141 138 107  
 157 158 153   172 173 168   172 173 168   158 159 154   181 181 179   158 158 156   178 178 176   143 143 141   161 161 161   120 120 120   187 187 187   211 211 211   175 175 175   218 216 217   145 144 140   154 150 147   178 174 171   159 155 152   167 163 160   187 183 180   116 112 109   192 188 185   171 167 164   109 105 102   172 168 165   144 140 137   128 124 121   153 149 146   198 194 191   145 141 140   159 153 155   163 157 159   128 124 120    95  92  86   144 143 137   156 155 150   166 166 164   171 172 165   193 195 173   120 123  82    70  76  10    98 106  25   114 121  35   135 140  56   118 120  46   133 132  67   100 101  41   124 125  76   142 141 107   179 177 155  
 144 145 140   188 189 184   150 151 146   177 178 173   157 157 155   184 184 182   144 144 142   163 163 161   154 154 154   111 111 111   203 203 203   171 171 171   192 192 192   193 191 192   137 136 132   185 181 178   161 157 154   154 149 147   192 187 185   147 143 140   151 147 144   202 198 195   126 122 119   140 136 133   197 193 190   112 108 105   126 122 119   203 199 196   146 142 139   151 147 146   190 184 186   179 173 175   123 120 117    60  56  52   155 152 150   156 153 152   147 146 144   198 198 187   156 159 130    92  96  45   119 127  51   130 138  48   128 135  43   105 111  25    77  79   8   130 130  71   147 148  97   149 151 110   154 154 127   212 209 193  
 139 140 135   209 210 205   157 158 153   185 186 181   143 143 140   196 196 194   139 139 137   199 199 197   102 102 102   129 129 129   204 204 204   170 170 170   217 217 217   156 154 155   167 166 162   186 182 179   156 152 149   178 174 171   180 176 173   146 142 139   198 193 190   178 174 171   143 139 136   172 167 165   175 171 168   116 112 109   160 156 153   195 191 188    82  79  75   179 175 174   178 171 172   147 141 143   160 155 154    87  83  81   172 168 169   152 148 149   162 158 157   173 172 159   174 176 139   116 121  60   148 156  71   113 123  24   128 135  40   106 111  27    80  81  14   142 142  91   142 144 105   127 127  98   212 211 189   217 215 200  
 153 154 149   195 196 191   179 180 175   161 162 157   170 170 167   192 192 190   125 125 123   193 193 191   111 111 111   155 155 155   168 168 168   156 156 156   202 202 202   169 167 168   190 189 185   158 154 151   147 143 140   207 203 200   133 129 126   161 157 154   219 215 212   134 130 127   196 192 189   162 158 155   108 104 101   133 129 126   201 197 194   145 140 137   117 113 110   197 194 192   126 122 121   189 185 186   124 120 119    92  88  87   163 159 160    73  69  69   246 243 237   150 147 128   106 108  65   100 104  37   135 144  51   128 136  35   120 127  32    71  76   4    71  71  11   155 153 115   141 141 118   169 170 155   227 228 208   240 238 225  
 186 187 182   164 165 160   185 186 181   150 151 146   192 192 190   154 154 152   174 174 171   150 150 148   151 151 151   141 141 141   166 166 166   210 210 210   185 185 185   187 184 186   189 188 184   130 126 123   189 185 182   170 166 163   135 131 128   189 184 182   201 197 194   176 172 169   192 188 185   133 129 126   115 111 108   139 136 132   208 204 201   128 124 121   177 173 170   190 186 185    93  89  90   204 200 201    85  80  79   118 113 111   162 158 155    77  72  67   198 194 183   113 110  85    67  68  20    95  98  28   131 138  44   146 153  54   113 119  29   121 124  50   142 140  89   139 135 105   179 179 164   216 217 210   231 231 220   249 247 241  
 186 187 182   166 167 162   184 185 180   169 170 165   169 169 167   161 161 159   172 172 170   149 149 147   172 172 172   137 137 137   166 166 166   202 202 202   197 197 197   211 209 210   172 171 167   128 124 121   204 200 197   131 127 124   143 139 136   216 212 209   140 136 133   179 175 172   185 181 178    80  76  73   174 170 167   121 117 114   156 152 149   157 153 150   166 162 159   154 150 149   125 120 123   211 207 208    79  74  69   124 120 112   213 209 198   180 176 160    86  82  66    62  58  26    82  82  33    87  89  20    83  88   4   102 107  18   115 119  38   149 149  86   143 139  98   173 169 147   209 210 198   222 223 219   251 249 250   224 218 224  
 166 166 161   188 189 184   162 163 158   181 182 177   123 123 121   187 187 185   135 135 133   147 147 145   178 178 178   140 140 140   178 178 178   186 186 186   180 180 180   219 217 218   151 150 146   169 166 163   195 191 188   119 115 112   186 182 179   183 179 176   135 131 128   202 198 195   150 146 143   135 131 128   197 193 190   117 113 110   121 117 114   190 186 183   151 147 144   131 127 126   143 138 144   225 221 222   107 103  93    87  84  66   233 229 204   122 119  90    71  68  39   105 102  63   123 121  70   122 123  59   117 119  45    61  64   1   101 101  34   161 160 109   154 150 120   197 194 178   221 223 210   237 237 235   238 232 245   221 211 226  
 155 156 151   183 184 179   167 168 163   173 174 169   125 125 123   190 190 188   121 121 119   183 183 181   140 140 140   152 152 152   176 176 176   153 153 153   208 208 208   198 196 197   150 149 145   179 174 172   134 130 127   149 145 142   225 221 218   106 102  99   168 164 161   189 185 182    95  91  88   187 184 181   192 188 185   107 103 100   167 163 160   204 200 197    77  73  70   137 133 134   131 126 133   226 223 223   167 164 150   150 149 119   183 181 141   122 119  75   137 134  90   125 121  75   105 102  51   106 103  47   100 100  37    84  84  24   127 125  75   164 160 122   185 180 160   223 220 210   247 247 237   242 242 240   215 209 223   243 231 243  
 170 170 165   161 162 157   198 198 193   154 155 150   176 176 174   167 167 165   140 140 138   189 189 187   151 151 151   172 172 172   149 149 149   155 155 155   222 222 222   192 190 191   172 171 167   181 176 174   112 108 105   205 200 198   174 170 167   118 114 111   206 202 199   136 132 129   168 164 161   207 203 200   194 190 187   101  97  94   172 168 165   194 190 187   110 106 103   202 198 199   102  99 108   196 191 195   195 193 172   175 176 135    96  96  41   158 158  97    70  69  12    66  63   9    68  64  16    52  45   3    75  71  24   130 125  82   154 150 114   180 174 151   207 200 190   243 238 235   246 245 242   221 220 218   236 231 233   202 193 184  
 174 175 170   154 155 150   196 197 192   152 153 148   187 187 185   149 149 147   188 188 186   151 151 149   181 181 181   163 163 163   139 139 139   187 187 187   190 190 190   176 174 175   198 197 193   143 139 136   161 157 154   202 197 194   150 146 143   160 156 153   198 194 191   140 136 133   187 183 180   180 176 173   144 140 137   142 138 135   209 205 202   143 139 136   170 166 163   198 194 196   145 142 154   169 164 168   223 223 198   138 138  90   124 127  59   101 103  30    95  94  27    59  56   4    58  51   7    83  75  37   141 136 101   149 143 112   150 144 120   206 199 185   233 224 223   245 238 242   233 227 236   229 224 225   237 230 214   123 117  80  
 165 166 161   172 173 168   170 171 166   177 178 173   159 159 157   161 161 159   197 197 195   137 137 135   181 181 181   154 154 154   158 158 158   177 177 177   190 190 190   184 183 183   195 193 192   138 134 132   200 196 194   173 169 166   145 141 138   184 180 177   152 149 145   170 166 163   209 206 203   142 140 136   148 146 143   145 143 140   190 186 184   142 138 135   196 192 189   173 169 171   174 171 181   170 167 167   169 169 140   135 135  82   132 134  60   101 102  23    91  90  17    63  59   7    77  72  26   119 113  77   151 146 119   164 159 140   202 196 183   214 207 202   253 247 249   247 238 250   239 230 246   229 221 223   164 159 124   136 131  69  
 169 170 167   192 193 190   144 146 142   184 186 182   125 126 124   188 189 186   155 156 153   159 160 158   178 179 177   151 152 150   160 161 159   173 175 173   183 184 182   200 200 200   172 171 174   171 168 171   200 196 196   155 150 149   174 170 166   170 165 161   121 119 112   214 212 207   197 197 193   116 117 114   184 185 184   144 144 143   136 133 134   164 160 158   185 180 177   149 144 142   161 161 159   183 185 171    90  89  57   149 147  95   126 123  54   120 116  40    95  92  18    82  80  14   101 102  49   144 146 107   150 153 127   169 172 161   219 219 217   231 228 237   244 237 253   227 216 235   240 225 237   152 139 131   116 109  69   147 140  74  
 177 179 176   193 195 192   175 177 174   186 188 185   139 141 138   202 204 201   154 156 153   177 179 176   178 180 177   157 159 156   171 173 171   128 130 127   211 214 211   192 194 193   175 174 180   178 175 184   181 177 180   136 130 130   212 204 201   166 159 154   163 160 153   212 211 206   124 126 121   162 166 164   177 181 182   140 141 143   131 131 131   181 177 176   148 140 137   199 193 187   199 199 187   115 117  95    73  70  35   140 134  84   172 163 100   100  92  20   132 125  53   122 120  54   113 117  63   152 160 121   171 180 159   204 214 205   229 233 237   244 243 254   210 202 223   231 219 233   188 170 169    72  54  33   104  90  46   105  96  27  
 181 182 179   174 176 173   200 202 199   163 165 162   177 179 176   178 180 177   173 175 172   207 209 206   157 159 156   188 190 187   154 156 153   136 138 135   220 222 219   184 186 185   169 167 174   199 197 204   150 145 149   179 173 173   170 163 159   137 130 124   183 180 175   189 188 184   130 132 129   198 201 200   159 163 164   106 107 108   148 146 147   145 139 139   158 148 145   173 163 156   161 156 145    58  53  33    64  58  24    94  86  38   148 138  77   109 100  33    93  88  22    83  83  24   165 168 124   159 166 136   200 209 192   218 224 218   243 244 245   219 216 220   229 219 223   231 215 213   118  97  78   151 129  90    94  75  18   101  87  11  
 193 195 192   173 176 172   194 196 193   164 166 163   202 205 201   163 165 162   196 198 195   166 168 165   153 155 152   204 206 203   117 119 116   175 177 174   207 209 206   163 165 164   217 216 222   186 183 190   158 156 159   195 189 189   165 160 156   154 146 143   201 198 193   155 154 151   175 177 174   197 201 201   131 134 135   160 162 161   153 151 149   144 139 135   198 188 183   200 188 179    93  80  68    35  22   5    44  32   3    65  52   5   112 101  43   108  98  38    85  79  22   142 140  95   160 161 130   187 189 172   224 228 221   236 237 235   237 234 229   235 227 218   220 206 192   127 108  82   128 105  64   152 127  71   162 140  69   138 118  32  
 177 179 176   171 173 170   169 171 168   187 189 186   164 166 163   176 178 175   194 196 193   118 120 117   173 175 172   182 184 181   136 138 135   167 169 166   166 168 165   179 181 180   227 226 231   152 150 155   188 186 188   175 170 170   128 123 120   209 202 199   158 154 150   142 141 139   205 207 207   157 161 162   154 155 157   187 187 187   132 129 125   166 158 153   167 155 147   147 131 119   159 139 120    89  68  41    42  23   1    74  58  10   117 104  48    87  79  23   132 126  80   155 154 121   174 175 159   227 226 224   238 236 240   235 230 233   225 215 208   240 227 206   160 140 107   113  91  43   159 133  72   159 132  58   170 145  60   179 156  60  
 162 164 161   163 165 162   161 163 160   198 200 197   132 134 131   196 198 195   160 162 159   162 164 161   165 167 164   163 165 162   177 179 176   145 146 144   135 137 134   217 219 218   226 225 228   149 147 151   207 205 206   122 118 117   155 150 147   215 210 207   121 117 116   140 139 139   210 211 213   122 126 127   159 160 162   179 178 177   111 106 101   209 199 190   126 110  97    60  40  22   112  87  57   116  88  51    82  59  15   114  96  41   100  88  31   113 106  55   169 165 128   163 160 140   215 214 211   234 231 241   240 234 246   236 224 230   242 225 214   177 158 128   138 115  67   169 146  79   167 142  63   181 155  66   169 144  50   123 100  15  
 166 168 165   154 156 153   167 169 166   176 178 175   146 148 145   195 198 195   148 150 147   193 195 192   157 159 156   167 169 166   180 182 179   114 116 113   187 189 186   202 203 201   195 195 195   191 190 191   195 194 192   124 120 119   199 195 192   160 155 154   112 110 110   180 180 182   172 173 177   119 120 122   169 169 170   169 166 161   192 186 175   168 156 141   110  94  72   134 112  82   127  97  54   105  74  22   117  92  35   132 113  54   138 127  71   157 150 104   142 138 108   215 213 201   218 215 223   253 246 254   218 207 223   243 227 233   193 172 156   114  91  53   170 145  85   150 124  48   162 138  48   173 150  54   132 110  10   182 160  60  
 200 202 199   148 150 147   187 189 186   163 165 162   181 183 180   179 182 179   166 168 165   188 190 187   130 133 130   193 195 192   159 161 158   128 130 127   195 197 194   190 192 189   169 171 170   205 205 205   153 152 150   139 135 134   181 177 176   130 126 125   165 163 164   169 169 171   130 131 135   160 162 163   187 188 183   140 137 127   179 170 152   170 155 132    67  48  17   103  78  40   156 125  67   151 120  54   160 135  69   144 126  65   160 150  96   142 137  98   184 182 159   225 223 218   252 248 254   227 218 234   230 216 230   245 230 229    96  74  50   106  82  35   176 151  83   157 132  48   163 142  49   124 106   6   129 112  10   143 126  23  
 153 155 151   175 177 174   186 188 185   177 179 176   182 184 181   128 130 127   192 193 191   159 161 158   144 146 143   200 202 199   162 164 161   175 177 174   180 182 179   175 177 174   200 202 200   189 189 188   158 158 156   184 183 181   158 154 154   155 153 154   162 162 164   113 114 116   159 163 164   151 154 152   143 144 137   210 207 191   182 174 148   189 174 140   152 133  90    62  37   2   134 103  34   152 123  48   161 139  69   160 144  85   139 131  84   185 181 148   226 225 209   241 240 238   243 237 246   230 220 227   247 233 234   135 117 102   122 102  65   139 116  58   152 130  53   127 108  20   114  99   2   124 113  13   159 148  43   171 160  57  
 135 137 134   193 195 192   159 161 158   205 207 204   160 162 159   141 143 140   198 200 197   146 148 145   169 171 168   169 171 168   176 178 175   176 178 175   165 167 164   188 190 187   203 205 202   173 173 171   178 178 176   198 197 195   124 122 123   184 182 183   153 154 156    87  88  90   162 166 166   146 148 143   151 153 140   185 183 161   169 161 127   183 169 124   122 101  48   120  96  32   153 125  49   147 120  42   151 132  66   167 153 101   161 155 119   209 205 184   243 242 234   245 244 242   230 223 222   252 243 235   182 166 146   105  88  50   194 176 119   143 125  51   122 107  18   109  95   1   111 102   1    97  90   1   118 113  20   132 126  29  
 155 157 154   181 183 180   156 158 155   198 201 197   140 142 138   185 187 184   164 166 163   144 146 143   185 187 184   135 136 134   184 186 183   172 174 171   112 114 111   212 214 211   200 202 199   172 172 170   196 196 194   177 176 174   129 128 129   197 195 196   128 129 131   106 108 107   143 147 144   161 164 156   175 177 160   186 183 154    89  81  38   157 142  87   136 115  51   159 134  63   131 105  27   137 113  41   146 130  72   166 155 115   203 198 177   239 236 229   244 242 241   228 225 222   244 237 224   210 199 172   109  96  49   139 125  60   153 142  59   101  91  10   137 131  27   127 121  14   113 109   1   121 118  12   117 113  13   114 110   8  
 173 176 173   161 164 161   197 199 196   150 152 149   157 159 156   173 175 172   151 153 150   176 178 175   166 167 165   116 118 115   215 217 214   136 138 135   130 132 129   212 214 211   177 178 175   172 174 171   206 206 204   175 174 172   154 152 153   161 159 160   111 112 114   160 162 161   148 153 149   161 164 153   183 185 164   109 106  71   121 111  60    89  73  11   167 145  72   167 141  64   126 103  27   149 130  64   155 142  96   196 187 163   222 218 212   248 245 251   230 227 234   236 231 228   222 215 190   137 127  80   129 119  49   141 131  40   119 112   7   137 134  22   151 152  36   140 141  22   146 146  27   137 134  18   136 133  19   132 128  18  
 177 179 176   165 167 164   197 199 196   125 128 125   185 187 184   145 147 144   172 174 171   205 207 204   123 126 122   165 167 164   182 184 180   141 143 140   157 159 156   199 201 198   166 168 165   185 187 185   194 194 192   186 186 184   153 152 152   121 120 120   145 146 148   177 179 178   128 133 127   185 189 175   164 164 139    80  76  38   105  95  40   120 102  36   169 147  68   135 110  30   138 119  47   147 131  73   179 167 133   225 218 207   237 234 241   238 235 252   234 231 242   239 234 228   129 123  87   124 116  53   158 151  60   141 135  24   164 162  40   177 179  53   153 159  31   148 154  28   120 121   3   140 138  16   119 116   1   111 105   2  
 170 172 168   187 189 186   163 165 162   147 149 145   188 190 186   148 150 146   197 199 196   155 157 153   163 165 160   169 171 166   161 163 157   167 170 164   142 145 139   169 170 167   198 197 198   200 199 201   173 172 171   195 195 192   143 144 141   135 135 134   178 180 178   151 153 149   105 108 100   191 194 175    98  99  67   101  98  52   102  94  33   117 105  32   115  99  15   121 106  25   141 131  69   164 157 111   221 216 187   235 230 220   242 238 247   230 224 240   231 224 238   149 140 135   123 113  79   159 150  84   154 146  49   166 161  44   157 155  30   132 131  12   142 144  28   137 137  25   142 136  28   134 127  22   134 126  20   145 135  33  
 153 155 150   197 199 194   153 155 150   189 191 186   155 157 152   158 160 155   188 190 184   143 145 139   197 200 193   145 148 141   162 165 157   176 179 171   118 121 113   133 134 129   213 211 216   177 175 181   183 181 183   206 206 204   106 107 102   168 171 165   147 150 144   137 139 130   191 194 180   128 129 104    99  98  60    95  93  40    96  92  26   106 101  24   135 126  42   134 127  52   149 150  99   199 201 169   235 236 211   246 244 231   231 224 226   245 234 243   187 173 182    87  72  65   116 102  68   124 112  48   117 108  13   144 138  25   141 134  20   137 130  20   128 120  24   141 131  43   123 110  24   125 112  25   120 107  25   131 118  27  
 179 181 176   172 174 169   176 178 173   204 206 201   157 158 153   198 200 195   154 157 150   152 155 149   207 210 203   129 132 125   188 191 182   163 166 157   109 112 103   158 160 155   223 221 226   168 166 173   204 204 206   183 183 182   125 126 121   165 165 159   168 169 160   151 150 136   175 176 154    98  96  65   144 142  98    95  92  37   114 111  47   101  96  27   133 128  56   145 140  80   190 191 155   228 229 212   242 240 229   230 226 219   239 229 229   213 203 198    87  74  59    92  77  46    92  80  25    93  81   7   115 106   9    89  81   2    93  84   1    92  82   1    94  84   4   105  94  13   137 126  34   126 115  19   103  92   1   139 129  27  
 209 211 206   151 154 149   209 211 206   176 178 173   198 200 195   199 201 196   190 193 186   194 197 190   176 179 172   144 147 140   198 201 192   119 122 113   130 133 124   146 148 143   208 209 211   195 194 199   202 201 206   166 164 166   175 174 172   166 163 157   144 140 128   203 198 178    78  74  43    73  68  29    85  81  33    44  38   4    79  74  18   158 153  97   148 142  88   178 173 131   212 209 191   248 244 240   235 230 231   236 226 226   230 220 211   109  99  78    75  64  20   101  91  27   131 121  38   119 109  16   134 124  26    99  89   1   110  99   9   105  95   7   104  92   7    87  76   1   111 104   4   116 110   3   113 106   1   160 155  38  
 196 198 193   156 158 153   197 199 194   133 135 130   229 231 226   160 162 157   186 189 182   182 184 177   158 162 155   174 177 170   172 176 166   124 127 118   170 174 164   123 125 118   188 190 189   188 189 191   193 192 198   182 180 185   167 161 163   179 170 165   212 203 185   175 165 136    73  64  22    77  68  19    65  57   5    50  43   1    54  47   8   130 125  86   156 150 118   210 202 185   235 226 228   238 227 239   214 201 214   242 230 231   153 142 122   129 118  74   117 110  34   121 115  17   104  98   1   124 116   7   137 127  27   135 122  33   108  93  11    91  76   1   111  99  13   107  99   3    80  76   1   109 107   2   115 114   3   119 118   1  
 175 177 172   184 186 181   151 153 148   125 127 122   197 199 194   169 171 166   201 204 197   169 172 165   182 185 178   159 161 154   138 141 132   177 180 171   164 167 158    83  87  79   202 208 201   178 183 183   177 178 183   197 193 200   151 141 145   166 152 146   196 182 159   115 100  61   128 113  61   101  87  30    73  62   7    52  41   1   134 126  92   160 154 132   198 193 180   237 230 230   249 236 250   224 210 227   233 219 229   179 164 157    98  84  50   158 148  84   116 110  15   134 128  13   123 117   2   132 125   9   127 115  16   133 119  31    92  78   1    89  75   1   119 108  17   126 118  18   132 130  17   140 140  21   143 146  24   136 136  14  
 165 167 162   193 195 190   151 153 148   168 170 165   133 135 130   176 178 173   174 177 170   154 157 150   194 197 190   134 137 130   137 140 131   202 205 196   146 149 140    88  94  84   202 210 200   176 182 179   185 186 191   209 204 211   156 145 149   208 192 183   127 109  79   154 135  88   150 133  71    89  75  20    80  65  12    93  82  41   157 147 125   187 180 173   217 212 214   249 243 250   237 221 240   245 230 245   205 188 187   110  95  70   115 103  49   120 111  29   102  95   1   141 134  16   135 127   7   108  99   1   107  95   1   114 100   9   109  98  13   131 120  30   128 119  21   107 101   2   149 148  36   140 142  26   138 143  24   139 141  21  
 191 193 188   175 177 172   174 176 171   212 214 209   176 178 173   175 177 172   161 164 157   180 183 176   193 196 189   125 128 121   173 176 167   187 190 181   129 132 123   115 121 111   205 213 202   162 168 163   195 194 200   204 198 205   172 160 161   168 151 138   112  94  54   142 123  66   118 101  32    77  60   1   102  86  36   154 140 109   179 169 158   215 208 210   243 239 247   248 241 251   246 229 242   237 219 220   100  83  60    93  78  29   135 124  49   125 115  20   118 109   8   137 128  18   136 125  19    95  83   1   100  90   1   120 110   9   151 143  41   149 141  38   133 125  20   101  98   1   136 138  22   128 132  15   137 145  25   154 159  39  
 205 207 202   172 174 169   191 193 188   171 173 168   204 207 202   174 176 171   155 158 151   214 217 210   165 168 161   152 155 148   189 192 183   167 171 161   162 165 156   143 149 139   199 207 194   181 188 180   193 192 197   172 165 172   198 187 183   137 122 101   115  99  51   133 115  51   129 112  42   114  98  33   134 119  76   182 167 145   211 200 198   228 221 228   253 250 255   220 213 218   254 239 236   165 144 125   112  96  47   131 117  46   150 140  47   131 122  19   127 115  14   117 105   7   133 120  27   138 128  34   120 110  11   127 120  14   138 132  19   135 132  16   114 112   2   127 128  13   129 134  13   113 121   1   121 130   5   136 144  18  
 176 178 173   184 186 181   175 177 172   148 150 145   181 183 178   153 155 150   173 176 169   201 204 197   153 156 149   190 193 185   165 168 159   164 167 158   188 191 181   133 139 127   164 172 157   200 206 195   181 181 181   175 169 170   200 191 181    97  86  57   103  90  37   156 143  75   106  93  23   155 140  82   170 155 123   201 187 175   232 222 223   249 242 248   218 216 216   246 242 230   186 171 146    97  81  35   151 138  66   154 143  52   136 127  25   140 129  24   125 112  17   127 112  23   147 135  49   150 139  49   154 147  43   160 157  42   129 129   7   150 151  26   156 157  37   144 148  29   131 138   9   142 152  19   137 148  12   121 131   1  
 167 169 164   202 204 199   155 157 152   198 200 195   157 159 154   153 155 150   185 188 181   154 157 150   181 184 177   189 192 184   143 146 137   185 188 179   167 170 161   108 110 100   186 191 177   188 191 179   175 175 172   204 199 195   114 107  90    67  60  23    99  92  31   121 114  41   103  95  27   165 153 104   191 177 157   225 212 211   251 242 247   235 229 232   234 234 221   207 206 173   102  92  41   114 101  30   135 124  37   136 126  26   110  99   2   149 138  32   111 100   7   104  91   1   125 115  27   110 101   8   127 123  19   134 133  17   124 126   3   130 135  11   138 142  22   105 112   1   157 167  35   149 160  23   134 144   7   135 145   8  
 191 193 188   176 178 173   169 171 166   194 196 191   147 149 144   176 178 173   142 145 138   159 162 155   197 200 193   162 165 158   166 169 160   187 190 181   139 142 133   120 123 112   179 182 168   171 172 160   187 185 180   226 222 214   135 129 107    97  93  50   103 101  35   115 113  40   140 136  74   173 166 126   223 212 203   248 238 245   246 240 248   241 236 233   219 220 191   109 110  55   111 103  27   143 132  41   126 116  18   131 122  19   117 106   3   143 132  26   147 138  32   106  98   1    97  90   1   102  97   1   102 101   1   123 125  12   110 114   4   120 126   9   120 126  10   132 140  20   114 123   8   130 139   8   132 141  10   148 157  26  
 208 210 205   153 155 150   199 201 196   160 162 157   161 163 158   188 190 185   105 109 101   195 198 191   182 185 178   150 153 146   190 193 184   161 164 155   130 134 125   141 144 132   199 201 187   146 147 134   188 185 178   225 222 210   133 131 103    86  84  37   131 133  64   137 138  63   161 159 101   206 202 168   250 243 243   244 234 250   231 223 233   244 240 231   120 123  79   118 120  48   160 155  59   148 140  34   149 140  39   133 124  24   110 101   1    95  87   1   149 141  26   124 118   1   124 120   2   123 121   2   118 119   6   145 147  37    87  90   1   104 111   3   104 112   4   122 130  16   111 118  11   114 120   4   111 116   4   149 154  37  
 186 187 181   158 159 153   195 198 191   154 156 151   169 171 167   164 166 162   130 132 127   211 214 205   173 176 166   166 170 157   187 190 177   147 150 141   140 142 138   139 140 137   164 164 155   203 203 195   178 174 170   169 166 156   163 162 134   130 131  86   132 136  74   143 146  86   196 194 154   237 232 214   246 236 244   230 220 230   252 251 244   166 161 133   116 118  57   173 173  88   152 149  45   125 119   9   157 150  46   138 129  29   137 130  24   116 109   1   136 132   7   147 144  13   151 152  18   162 165  34   147 150  30   150 154  41   141 147  40   133 140  29   106 115   1   115 124   6   104 111   2   125 129  18   119 123  13   137 141  30  
