P3
50 50
255
  48  50  34    44  44  32    42  42  30    37  37  25    32  32  20    43  44  30    55  56  39    57  58  38    64  66  43    96  99  70    89  92  61    89  93  59    75  79  44    75  79  48    86  90  63    70  74  49    81  85  60    69  73  51    73  75  56    86  87  69    79  80  65    68  68  55    51  49  37    36  33  23    59  56  46    47  44  38    33  30  25    35  30  27    39  34  30    45  41  33    49  45  34    43  40  29    43  40  32    40  37  32    41  38  33    58  57  52    59  58  52    59  59  48    56  57  44    59  60  43    57  60  39    55  59  36    63  67  43    74  78  53    55  59  34    76  80  53    62  66  40    70  74  49    78  82  58    71  75  52  
  71  73  52    44  45  27    37  38  22    37  38  24    24  25  11    23  23  11    35  37  22    53  54  37    82  84  64   110 112  90    92  95  68    87  90  60    92  95  64    94  98  68    88  93  65   100 104  79    62  66  41    68  72  50    72  74  55    81  82  66    59  60  46    71  69  56    73  71  59    67  65  55    43  40  31    44  41  34    53  48  45    51  46  43    47  42  38    48  43  37    56  52  43    46  42  33    50  47  39    48  45  39    46  43  38    44  43  37    44  44  35    56  56  45    55  56  43    72  73  57    49  52  33    50  54  34    48  51  30    59  63  41    69  74  50    48  52  27    56  60  36    57  61  38    66  70  47    75  78  57  
  79  83  50    40  43  12    38  40  14    42  43  23    31  32  18    31  31  20    36  36  27    40  40  31    71  71  59   105 106  92    88  89  70    71  73  52    90  92  69    98 102  77    96 100  75    65  69  44    85  89  65    71  73  51    70  72  53    77  78  60    77  75  60    57  55  43    64  61  50    78  74  65    80  76  67    61  56  50    42  37  31    60  55  51    79  74  70    79  74  68    68  63  57    50  46  37    47  44  35    48  45  36    50  47  39    46  46  34    59  59  47    51  51  38    56  57  44    64  65  51    57  58  42    43  44  28    45  46  28    59  60  42    65  66  48    56  57  39    50  52  33    46  48  27    58  60  39    98 100  79  
 112 116  79    91  95  61    57  60  31    51  53  30    45  46  31    28  28  19    35  34  29    37  36  32    37  36  32    46  46  38    49  49  37    50  51  35    82  84  64   105 108  86   100 105  82    67  70  48    76  79  57    83  84  65    75  76  58    74  76  59    79  77  64    97  94  82    89  85  74    88  84  75    85  80  72    68  61  55    62  56  50    56  51  47    74  69  65   100  95  91    83  78  72    58  54  47    59  56  47    59  56  45    59  57  45    72  73  59    82  83  69    58  59  45    58  59  45    44  45  31    49  50  36    44  45  30    48  49  33    56  57  41    57  58  42    57  58  42    56  57  40    42  43  25    55  56  38   107 108  90  
 119 123  88   113 117  83    71  73  46    51  52  30    49  50  35    40  40  30    38  37  33    31  30  26    20  19  14    20  20  13    42  42  29    41  42  26    62  63  44    90  93  72    90  93  73    68  71  50    46  48  29    55  56  39    37  38  22    37  38  24    44  42  29    70  67  56    74  70  59    80  76  66    81  77  68    81  76  69   105 100  95   108 103  99    75  70  65    84  79  73    86  81  75    79  75  68    66  63  54    66  64  53    54  52  40    66  66  54   104 104  92    80  81  67    56  57  43    57  58  44    53  54  40    54  55  41    58  59  45    55  56  42    48  49  35    56  57  41    61  62  46    42  43  27    43  44  27    73  74  56  
 124 128  96   106 109  79    83  86  61    53  54  35    42  42  30    49  48  41    41  40  36    31  30  26    26  25  21    31  30  25    48  48  38    40  41  27    41  42  25    65  67  48    75  78  59    89  92  75    39  42  26    27  28  14    17  18   4    28  28  16    36  34  22    20  17   6    36  32  21    46  42  32    40  36  28    47  42  36    57  52  47    77  72  68   107 102  97   119 114 108    98  93  87    89  85  78    90  87  78    84  82  71    80  78  66    63  63  51    87  87  74    88  89  75    47  48  34    49  51  36    40  41  27    44  45  31    50  51  37    48  49  35    42  43  29    58  59  43    67  68  52    49  50  34    43  44  27    35  36  18  
 147 150 119   104 107  80    89  91  68    72  73  55    42  42  32    34  33  28    38  37  33    35  34  30    27  26  22    30  29  24    33  33  23    35  35  22    35  36  22    39  40  27    47  47  35    97  97  85    49  49  37    20  20   8    28  27  15    44  41  32    71  68  59    38  35  26    39  36  27    47  44  35    43  38  30    41  37  28    38  34  26    40  35  29    46  41  35    48  43  37    70  67  60    75  72  65    74  71  62    71  70  60    99  99  89    85  85  73    71  71  59    97  97  85    81  82  69    63  65  51    54  54  42    50  50  38    52  52  40    46  47  33    38  40  25    53  54  40    66  67  53    61  62  46    59  60  44    44  45  29  
 135 138 109    89  91  66    66  67  47    77  78  63    49  49  39    17  16  11    34  33  29    36  35  33    30  29  26    31  30  25    25  25  17    34  34  24    38  38  26    31  31  20    28  28  20    73  73  65    54  54  46    20  20  12    29  27  20    36  33  24    48  45  36    51  48  39    35  32  23    39  36  27    46  42  33    41  37  28    54  50  41    57  53  45    27  22  16    27  22  16    69  66  59    62  59  52    51  48  39    52  51  41    56  56  46    73  73  63    74  74  62    80  80  68    80  81  68    83  85  71    81  81  69    70  70  58    69  69  57    68  68  55    63  64  50    77  78  64    88  89  74    71  72  57    67  68  52    64  65  49  
  85  88  59    57  59  36    40  41  23    54  54  41    44  44  35    20  19  14    29  28  24    33  32  30    35  35  31    35  34  29    37  37  29    38  38  27    35  35  24    35  35  26    32  31  26    48  47  42    64  62  57    37  34  28    35  32  25    33  30  23    41  38  31    62  59  52    50  47  38    41  38  29    41  38  29    42  40  28    56  53  41    48  46  35    23  21  12    28  25  16    61  58  49    55  53  44    43  43  35    44  44  36    20  20  11    38  40  29    51  53  41    40  42  29    30  32  19    51  53  39    65  65  53    54  54  44    58  58  46    68  68  56    74  74  62    94  94  82   101 102  88    69  70  56    70  72  58    72  73  57  
  51  54  27    42  44  23    37  38  21    27  27  14    27  27  19    30  29  24    22  21  18    34  33  31    36  35  32    28  27  22    40  40  32    34  34  24    29  29  18    25  25  18    26  24  20    21  20  16    63  61  57    46  42  38    39  36  31    42  39  34    37  34  27    47  44  36    59  56  47    46  43  34    34  30  22    48  46  34    54  52  40    43  41  29    33  31  19    28  25  16    44  41  32    57  55  47    47  47  39    33  33  25    36  36  28    36  37  29    25  27  15    47  49  36    44  46  32    42  44  31    51  51  41    35  35  25    31  31  20    32  32  20    30  30  18    45  45  33    60  60  48    59  60  47    81  82  68    83  83  70  
  42  44  21    52  53  33    40  41  25    33  34  21    37  37  28    31  29  24    32  31  26    40  39  35    41  40  35    41  40  35    34  34  26    39  39  29    40  40  29    29  26  21    26  22  21    17  13  12    49  45  42    50  46  43    61  57  53    43  40  35    43  40  33    37  34  27    55  52  43    52  51  40    46  46  34    49  49  37    45  44  32    45  43  30    27  25  13    41  39  27    47  47  37    49  49  40    44  43  37    30  31  25    20  21  13    43  44  36    35  37  26    36  38  25    41  44  30    51  53  40    45  45  35    27  27  17    23  23  13    28  28  18    29  29  19    29  29  19    38  38  25    43  43  31    39  39  27    46  47  33  
  39  41  17    46  47  30    36  37  22    28  28  16    30  30  19    31  31  23    38  37  32    44  43  38    37  36  31    39  39  32    39  39  29    45  45  34    44  44  33    33  30  25    24  20  18    20  17  15    45  41  39    45  41  38    53  50  45    45  42  37    45  42  35    45  42  34    46  43  34    49  48  37    54  54  42    49  49  37    45  45  30    56  54  39    50  48  34    40  38  25    40  40  30    44  43  36    39  38  33    28  28  22    22  23  17    34  34  28    46  47  38    37  39  27    36  39  25    38  40  27    37  37  27    27  27  18    22  22  12    22  22  12    21  21  11    22  22  12    34  34  24    43  43  32    27  27  15    31  31  19  
  49  51  28    49  51  31    38  39  23    30  30  17    30  30  19    37  37  27    47  47  39    48  48  40    40  40  32    42  42  33    42  42  32    47  47  34    52  53  40    39  37  30    22  17  14    29  24  21    44  40  36    43  40  35    47  44  39    52  49  44    45  43  35    49  47  39    40  40  30    53  53  41    68  68  56    55  55  43    45  46  32    62  63  47    74  75  60    45  45  33    37  37  27    38  38  28    31  32  25    24  25  20    24  25  19    24  27  20    53  56  46    38  41  29    32  37  22    24  28  14    29  31  20    27  27  19    22  22  14    18  18  10    18  18  10    21  21  13    27  27  17    61  61  51    68  68  58     8   8   5  
  71  73  49    60  62  42    46  47  30    38  39  25    38  38  26    46  46  34    52  52  42    48  48  38    44  44  34    46  46  34    42  42  30    43  45  31    57  57  44    44  40  32    21  16  12    35  30  27    45  41  37    45  42  37    45  42  37    58  54  48    47  44  37    45  43  35    45  45  35    61  61  50    72  72  60    62  62  50    49  50  35    57  58  41    78  79  63    55  56  42    37  37  25    33  34  26    24  25  20    23  24  19    22  23  18    25  28  21    47  50  40    41  44  32    36  40  25    24  26  13    29  29  19    30  30  22    24  24  16    20  20  12    23  23  14    25  25  17    29  29  20    47  47  37    73  73  63    76  76  66  
  78  80  57    59  61  41    45  46  29    41  42  26    44  45  31    49  49  37    49  49  37    45  45  33    39  39  27    40  41  27    43  44  29    41  42  26    47  48  33    40  38  27    24  19  13    37  32  26    46  41  35    45  41  33    40  37  28    51  48  39    55  55  45    37  37  27    49  49  39    56  58  47    56  58  47    62  64  50    54  56  41    48  49  31    58  59  42    52  53  39    30  30  19    27  27  20    22  23  18    24  25  20    20  21  16    33  36  29    32  35  25    43  47  34    46  50  35    35  39  25    37  38  30    34  33  28    27  26  21    24  23  18    27  26  21    24  24  16    24  24  16    30  30  22    33  33  23    72  72  62  
  72  74  51    54  55  35    41  42  24    40  41  24    49  50  34    51  52  38    45  45  33    45  45  32    34  35  21    34  34  21    47  48  32    44  45  29    34  33  19    36  32  22    33  28  22    33  28  22    42  38  29    42  38  29    38  35  26    41  38  29    64  64  54    36  36  26    45  45  35    42  44  33    36  38  27    55  57  44    60  62  46    46  47  28    37  38  19    40  42  27    25  25  14    22  23  15    23  24  19    24  24  22    20  20  18    36  38  33    24  27  19    43  46  36    54  58  45    48  52  38    47  48  40    39  38  33    31  30  25    26  26  21    25  24  19    20  20  12    19  19  11    41  41  33    41  41  31    21  21  11  
  76  78  54    63  65  45    54  55  37    50  51  33    60  61  45    59  60  44    45  47  30    48  49  33    46  47  31    42  43  27    52  53  35    46  47  29    29  28  12    34  31  19    44  38  27    26  22  11    38  33  23    42  38  27    47  44  32    42  40  28    57  57  45    39  39  28    41  41  31    39  40  30    34  36  25    49  51  40    62  64  49    53  55  35    35  36  17    37  38  24    37  39  26    26  27  20    21  22  17    20  22  18    21  23  18    31  34  27    30  32  23    41  45  32    57  62  47    56  60  46    51  52  46    43  42  38    37  36  31    31  30  25    24  23  18    22  21  16    31  30  24    38  38  30    52  52  44    51  51  43  
  88  90  67    81  83  61    73  75  54    64  66  45    72  74  53    70  71  53    50  51  33    51  52  34    64  65  47    57  58  40    54  55  37    46  47  29    33  32  16    37  33  21    50  43  35    20  16   7    37  33  22    47  43  32    61  57  46    51  49  36    44  42  30    45  45  33    42  42  30    46  46  34    46  46  34    49  49  37    63  64  48    63  65  44    45  46  27    44  45  31    55  57  44    34  36  26    18  19  14    17  18  13    24  25  20    25  26  20    40  41  34    40  42  32    58  62  48    59  63  49    50  51  43    43  43  35    41  41  33    36  36  28    27  27  19    30  30  22    38  38  30    34  34  26    26  26  19    27  27  19  
  84  88  61    90  95  65    89  93  65    89  93  66    93  97  70    56  58  34    49  51  28    52  54  32    67  68  47    66  65  45    64  63  43    57  56  37    33  31  15    22  19   8    34  27  21    36  29  22    34  27  19    40  35  26    49  45  35    59  55  44    47  43  31    46  44  31    40  38  25    43  41  27    43  44  28    34  35  17    60  61  42    66  68  47    56  57  38    43  44  30    59  59  47    58  58  48    29  29  22    19  18  13    22  23  17    32  33  27    34  35  26    33  35  24    47  49  37    71  73  60    57  57  45    53  54  40    54  55  41    31  31  18    32  32  20    36  36  26    44  44  34    37  37  27    35  35  27    20  20  12  
  56  60  32    92  97  65   112 117  86   102 107  77    95 100  72    65  68  41    54  56  32    48  50  27    62  62  40    74  73  53    61  60  40    47  45  28    38  36  21    31  25  17    40  32  28    43  36  30    35  28  21    33  26  18    40  35  25    56  51  41    51  47  34    48  46  31    49  48  31    58  57  39    64  63  43    53  52  32    65  65  45    67  69  48    64  66  47    50  51  35    60  61  47    61  61  50    35  35  26    23  23  17    23  22  17    26  25  20    26  26  17    25  25  15    35  35  24    55  55  43    49  50  36    50  51  35    59  60  44    47  48  33    48  49  35    35  35  23    32  32  20    37  37  27    37  37  28    28  28  20  
  58  62  35    92  97  67   110 114  86    88  92  66    78  82  55    68  70  47    62  64  42    55  57  36    65  65  44    77  76  58    61  60  42    51  49  34    45  43  29    35  31  23    35  27  24    34  27  21    33  27  20    28  24  15    37  33  23    66  62  51    72  68  56    55  53  37    53  52  33    58  58  38    69  68  47    66  65  44    67  68  46    61  63  41    59  61  40    44  45  26    49  50  36    54  54  42    38  38  28    36  36  28    33  33  25    26  26  18    22  22  13    20  20  10    25  25  15    37  37  25    54  55  41    57  58  42    64  65  49    52  53  38    53  54  40    41  41  29    31  31  19    39  39  27    39  39  29    31  31  21  
  62  66  40    78  82  55   104 108  83    97 101  76    82  86  61    72  74  52    62  64  43    63  65  45    72  71  53    80  79  63    79  77  63    95  93  80    84  81  69    75  69  62    60  52  49    44  37  31    47  41  34    42  38  29    43  39  29    66  62  50    60  57  42    55  52  34    72  71  51    79  78  57    82  82  58    69  69  45    63  64  40    57  59  36    44  46  24    35  38  16    41  43  27    46  47  33    44  44  33    54  54  44    47  47  39    33  33  25    28  28  20    26  26  16    26  26  16    31  31  19    53  54  40    65  66  50    72  73  57    55  56  42    48  49  35    46  46  34    37  37  25    51  51  39    52  52  41    35  35  25  
  57  60  38    49  53  30    73  77  54    83  87  64    69  72  51    72  74  53    67  67  50    59  60  43    70  69  54    85  83  70    94  92  79   120 118 105   119 117 105   118 114 106   115 107 104    87  82  76    77  72  65    87  83  74    81  78  67    64  60  49    70  68  53    68  67  48    84  84  61    83  84  60    85  88  62    86  89  62    85  88  61    59  62  36    36  38  14    42  44  22    52  53  33    49  50  33    53  53  40    61  61  49    51  51  41    37  37  27    34  34  25    33  33  25    33  33  23    35  35  23    35  36  22    55  56  41    71  72  58    62  63  49    50  51  37    44  45  31    33  34  21    64  64  52    68  68  56    39  39  27  
  66  69  50    51  54  35    58  61  42    63  66  47    46  49  30    61  62  46    70  70  55    56  57  43    62  60  47    76  74  62    75  73  61    78  74  65    92  89  80   115 110 103   139 131 128   120 115 109    99  94  87   120 116 106   119 115 103    72  69  54   115 114  96   105 104  84    94  94  71    74  76  50    74  77  49    90  92  63   102 105  76    63  66  38    36  39  12    50  52  27    61  63  41    54  56  36    55  56  41    56  57  43    47  47  35    36  36  24    35  35  26    35  35  27    34  34  25    36  36  26    30  30  18    36  37  23    50  51  37    56  57  43    48  49  35    47  48  34    33  34  20    57  57  45    68  68  56    37  37  25  
  58  61  44    69  72  55    76  79  62    80  83  68    53  55  41    53  54  40    56  57  44    56  56  44    55  53  41    51  48  39    43  41  31    31  28  19    42  39  31    46  42  37    65  60  57    74  69  64    78  73  66   108 104  94   124 122 109   111 109  95   103 102  84   113 113  92   109 111  88    90  92  66    71  74  45    63  66  35    84  87  56    77  80  50    50  53  24    53  56  28    60  62  38    61  64  42    64  65  46    59  60  43    52  53  39    44  44  32    41  41  30    36  36  26    31  31  21    33  33  23    31  31  19    28  28  16    40  40  28    50  51  37    40  41  27    48  49  35    38  38  24    47  48  34    65  66  52    41  42  28  
  33  35  22    54  56  43    54  56  43    63  65  52    51  52  41    53  53  43    50  50  40    54  54  45    51  49  42    32  29  22    35  32  25    30  28  20    29  26  19    32  27  23    33  28  24    39  34  28    46  41  35    45  41  31    51  48  36    79  77  62    67  66  48    91  91  71    98 100  77    89  92  66    70  73  44    53  56  27    84  87  56   100 103  72    70  73  43    56  59  30    58  61  34    74  77  53    81  83  61    71  72  53    65  65  49    56  57  44    49  49  38    39  39  27    29  29  17    29  29  17    23  23  10    31  31  19    53  53  41    62  62  49    35  37  22    41  42  28    39  40  26    51  52  38    73  74  60    56  57  43  
  36  38  27    32  34  23    43  45  34    47  49  38    53  55  44    31  31  21    31  31  23    39  39  31    38  36  29    32  29  23    27  24  19    26  23  18    27  24  19    27  22  18    27  22  18    35  30  24    35  30  23    42  40  29    51  49  36    73  71  56    61  62  44    43  45  23    60  62  39    80  84  58    66  71  41    57  62  32    73  77  47    88  91  60    84  87  56    65  68  39    77  79  51    75  78  51    82  85  59    72  74  52    70  72  51    76  77  59    60  61  45    45  46  31    32  33  19    39  39  27    24  24  12    35  35  25    57  57  45    61  61  49    35  35  22    43  44  29    42  43  28    47  48  32    53  54  38    57  58  42  
  37  38  30    31  32  24    35  36  28    41  42  34    56  57  48    42  42  34    38  37  30    38  37  32    37  35  30    32  29  24    29  26  21    32  29  24    36  33  28    33  29  25    21  16  12    29  24  18    37  33  26    38  35  26    35  33  22    60  58  45    54  55  39    38  39  20    54  56  34    74  77  53    64  68  43    62  66  39    84  88  60    93  96  66    69  72  41    71  74  43   100 103  73    82  84  56    61  64  36    66  68  44    64  66  43    71  73  52    74  76  55    44  45  28    41  42  26    41  42  28    39  39  29    40  40  30    49  49  38    59  59  47    41  41  29    43  44  30    45  46  31    55  56  40    66  67  51    69  70  52  
  32  33  26    29  30  24    29  30  24    35  36  30    52  53  47    43  42  37    35  34  29    33  32  27    35  32  27    31  28  23    30  27  22    37  34  29    43  40  35    39  36  31    29  26  21    34  31  24    40  37  30    43  40  31    35  34  23    46  47  33    72  73  57    42  44  26    37  40  20    47  50  28    51  55  32    72  77  53   103 107  81   106 109  81    79  82  52    76  79  48    87  89  59    79  82  51    66  69  39    62  65  36    75  78  51    72  74  49    71  73  50    69  71  50    39  41  20    40  41  24    40  40  28    34  34  24    35  35  25    55  55  43    50  50  38    50  50  36    55  56  42    59  60  44    68  69  52    72  74  53  
  22  23  17    28  29  23    29  30  24    30  31  25    40  41  35    34  33  28    25  24  19    29  28  23    33  30  25    31  28  23    30  27  22    34  31  26    40  37  32    36  33  28    39  36  31    43  40  33    35  32  25    49  46  37    48  47  35    39  39  27    87  88  74    52  53  38    31  34  17    30  33  15    37  40  21    67  70  51   101 104  81   110 113  85    94  97  68    82  85  54    71  75  44    87  90  59    80  83  52    63  66  35    76  79  50    77  80  51    62  65  39    91  93  70    54  56  34    32  33  15    32  32  20    31  31  22    28  28  18    46  46  35    45  45  33    40  41  27    57  58  43    61  62  45    61  63  43    70  72  51  
  19  20  15    29  30  25    29  30  25    27  28  23    29  31  26    31  30  25    26  25  20    30  29  24    36  34  29    36  33  28    32  29  24    31  28  23    34  31  26    31  28  21    33  30  23    37  34  27    32  30  22    49  49  39    51  51  41    42  42  32    68  70  57    51  52  39    43  45  31    40  42  28    34  36  22    43  45  31    66  69  48    88  90  64    83  86  57   101 104  75    88  91  60   100 103  71    75  79  46    64  68  35    60  63  30    65  69  38    71  74  45    79  82  54    90  93  66    46  48  26    30  30  18    35  35  27    34  34  25    37  37  26    27  27  15    18  19   5    47  48  34    62  63  46    55  57  37    74  76  54  
  25  26  21    30  31  26    27  28  23    27  28  23    27  28  23    40  39  34    37  35  30    34  33  28    41  39  34    39  36  31    34  31  26    32  29  24    34  31  26    35  32  26    28  25  18    34  31  24    45  43  35    58  58  48    54  54  44    57  57  47    51  53  42    45  48  37    47  49  38    44  46  35    33  35  24    26  28  17    36  38  21    54  57  32    68  71  44   123 126  97    87  90  59    84  87  56    75  79  46    65  69  35    70  74  39    39  42  10    81  84  53    71  74  44    98 101  72    85  87  65    25  25  14    33  33  25    38  38  30    32  32  23    24  24  12    18  19   5    47  48  33    54  55  38    47  48  28    73  75  53  
  29  30  25    29  30  25    27  28  23    34  35  29    30  31  25    45  44  39    39  38  33    34  33  28    40  37  32    36  33  28    30  27  20    31  28  21    36  33  26    38  35  26    29  26  17    39  36  27    56  54  45    67  67  59    59  59  51    64  64  56    54  55  47    47  48  40    43  45  35    39  41  30    32  34  23    24  27  15    26  28  12    33  35  13    59  62  36   127 130 101    73  76  45    72  75  43    79  83  49    76  80  44    87  91  56    40  44  10    81  84  52    84  87  55    83  86  55    98 100  76    39  39  28    36  35  29    42  42  34    32  32  23    31  31  19    29  30  16    50  51  34    51  53  33    43  45  23    65  67  45  
  30  31  26    26  27  22    28  29  24    43  44  38    34  35  29    41  40  35    33  32  28    31  30  26    35  33  28    30  28  23    25  22  17    29  26  19    38  35  28    30  27  20    29  27  18    42  40  30    49  49  39    66  66  56    60  60  50    52  52  42    58  60  49    52  54  43    48  49  40    43  44  36    35  36  28    24  27  18    22  25  12    26  29  10    46  48  27   117 119  95    79  82  53    89  92  60    69  73  37    90  93  57    77  81  44    70  73  37    80  84  50    94  98  65    79  83  51    73  75  50    72  72  61    52  52  44    49  49  41    32  32  23    32  32  22    27  27  15    45  46  32    61  62  45    51  52  32    64  66  44  
  30  29  24    32  31  26    25  24  19    35  35  30    48  47  43    33  33  28    24  23  19    34  33  29    37  36  32    29  28  23    33  32  27    35  34  28    34  34  26    35  35  27    30  30  23    45  46  38    42  45  34    49  51  39    75  77  64    53  55  42    52  54  41    41  43  30    40  42  30    31  33  23    23  23  15    27  27  21    22  23  14    24  26  14    35  38  22    88  91  71    72  76  50    95 100  67   101 107  70    86  92  53    83  90  49    69  76  35    85  91  54    71  77  43    96 101  71    68  72  49    73  75  61    70  72  61    45  47  36    33  35  24    31  33  22    30  32  19    46  48  33    58  61  43    53  56  36    68  72  49  
  40  39  34    24  24  17    32  31  26    28  26  22    24  23  19    32  30  29    29  28  26    37  36  34    39  38  35    33  32  28    32  31  26    35  34  28    34  34  26    37  38  31    34  35  29    38  39  31    28  29  20    35  37  25    70  72  58    74  76  62    49  51  38    38  40  26    41  43  31    34  36  27    32  33  25    28  29  23    25  26  20    22  23  16    32  34  22   104 107  88    77  81  55    64  69  37    89  95  58    76  83  43    63  70  29    96 103  62   121 127  90    81  86  53    86  91  62    59  63  39    61  63  50    59  61  50    35  37  26    19  21  10    17  19   8    24  26  15    42  44  31    47  49  34    46  49  29    76  80  57  
  57  56  51    31  30  23    29  28  23    28  27  23    29  29  24    34  33  31    28  27  25    35  34  32    39  38  35    40  39  35    35  34  29    40  39  33    40  40  32    33  34  27    36  37  31    39  40  32    29  32  20    31  33  20    57  59  46    80  82  68    61  63  49    47  48  35    45  47  34    26  28  17    28  29  21    26  27  21    31  32  25    19  20  11    31  33  20    86  89  70    84  88  62    78  83  52    65  71  35    69  76  36    69  76  35    66  73  35    89  95  60   104 109  78    85  89  63    64  67  46    54  55  43    56  57  49    38  39  31    19  20  12    13  15   4    23  25  14    41  43  30    44  47  31    43  45  26    74  78  56  
  43  43  35    49  48  41    27  26  21    26  25  21    37  36  32    30  29  27    29  28  25    29  28  26    38  37  34    47  46  42    44  43  38    50  49  43    48  48  40    35  36  29    43  44  38    43  44  36    36  38  26    35  37  24    46  48  34    75  77  63    70  72  58    61  63  49    58  60  47    26  28  16    22  23  14    19  20  14    35  35  28    28  29  20    24  26  13    44  47  28    67  71  46    89  95  64    64  70  35    38  44   8    54  60  22    65  71  35    70  75  44   104 108  81    76  80  57    51  54  35    45  47  36    51  52  44    41  42  34    26  27  19    16  17   9    19  20  12    34  36  25    46  48  34    37  39  22    59  62  41  
  19  19  11    48  48  40    35  34  29    23  22  18    23  22  18    22  21  19    30  29  27    26  25  23    38  37  33    52  51  47    55  54  49    57  57  51    51  51  43    45  45  37    50  51  43    40  42  31    36  38  26    39  41  28    45  47  33    74  76  62    72  74  60    64  66  52    62  64  51    37  38  27    30  32  21    22  23  15    26  27  18    18  20   8    24  25  12    53  56  37    69  73  47    74  79  48    61  66  33    60  66  30    51  57  23    98 103  71    96 101  72   103 107  82    96  99  78    47  49  35    30  32  22    32  33  27    28  29  23    21  22  16    13  15   7    15  16   7    26  28  17    39  41  28    29  32  16    56  59  41  
  42  42  32    34  33  26    35  34  29    37  36  32    36  35  31    30  29  27    23  22  20    27  26  24    35  34  31    49  48  44    63  62  57    59  58  52    49  49  41    42  43  35    46  47  39    40  42  31    44  46  35    50  52  39    46  48  35    60  62  48    84  86  72    60  62  49    42  44  31    33  35  24    40  42  31    47  48  40    37  39  28    30  32  19    28  30  14    33  36  17    50  54  28    79  83  55    66  71  39    74  79  47    55  60  27    72  77  47    65  69  45    59  63  42    55  59  41    36  39  25    25  26  19    20  21  15    17  18  12    14  15   9    15  16  10    20  21  15    29  30  22    35  37  25    32  34  21    75  78  61  
  67  67  55    42  42  33    34  34  26    46  46  40    54  54  49    38  37  33    20  19  15    26  25  21    29  28  23    38  37  32    65  65  57    60  60  51    50  50  40    42  43  34    43  44  36    41  43  32    49  51  39    54  56  43    45  48  31    44  47  30    91  94  77    63  66  50    33  35  22    30  32  20    36  38  27    64  66  57    45  47  35    35  37  23    32  35  19    27  30  10    43  47  24    87  91  63    69  74  44    55  60  30    66  71  43    72  76  51    53  56  34    32  35  16    17  20   5    35  37  25    25  26  20    19  20  15    18  19  14    16  17  12    16  17  11    23  25  18    31  32  23    34  36  24    36  38  25    79  82  65  
  52  52  41    69  69  60    41  41  33    35  35  29    42  42  37    30  29  25    29  28  24    23  22  18    22  21  16    28  27  22    65  65  57    61  61  52    53  53  43    55  56  47    49  50  42    38  40  29    36  38  25    43  45  31    42  45  29    43  46  29    78  81  64    71  74  58    48  50  36    43  45  32    31  33  22    61  62  53    41  43  31    39  41  27    28  31  15    40  43  24    30  34  11    55  59  34    91  95  68    79  83  58    60  64  39    56  60  37    40  44  25    31  34  18    36  38  26    13  15   6    21  22  16    19  20  15    23  24  19    18  19  14    12  13   8    15  16  10    21  22  15    30  31  22    31  33  21    59  62  45  
  57  58  45    50  50  41    64  64  56    32  32  26    21  20  15    28  27  23    20  19  15    25  24  20    27  26  21    30  29  24    39  39  31    55  55  46    59  59  49    50  51  41    36  38  27    43  45  32    47  49  35    38  40  26    45  47  31    49  52  35    53  56  39    72  75  59    43  45  31    38  40  26    34  36  23    54  56  45    48  50  39    54  56  42    37  39  23    32  35  16    28  31  10    53  57  34   104 108  84    78  83  59    53  56  35    50  53  34    40  43  27    36  38  25    42  44  33    30  31  23    43  44  38    16  17  12    19  20  15    18  19  14    16  17  12    22  23  17    20  22  13    27  29  17    32  34  20   109 111  95  
  64  65  52    52  52  42    55  55  47    46  45  39    38  37  32    27  26  22    25  24  20    26  25  21    28  27  22    32  31  26    38  38  30    47  47  39    56  56  46    50  51  41    45  47  36    42  44  31    43  45  32    40  42  28    40  42  26    51  54  37    53  56  39    73  76  60    55  57  43    46  48  35    47  49  36    60  62  51    50  52  40    46  48  35    43  45  31    44  47  31    35  38  19    46  49  30    86  89  68    83  87  66    59  62  43    44  47  30    37  39  26    39  41  31    48  49  41    39  40  34    51  52  46    31  32  27    26  27  22    18  20  15    15  16  11    22  23  17    26  27  18    35  37  25    44  46  32    94  97  80  
  65  66  50    49  49  37    40  40  30    54  54  46    57  57  49    29  28  23    31  30  25    26  25  20    26  26  18    34  34  26    34  34  24    35  35  24    47  47  35    46  47  36    49  51  40    39  42  29    38  40  27    42  44  29    38  41  24    55  58  41    46  49  32    68  71  55    61  63  48    45  47  33    47  49  36    50  52  41    41  43  32    36  38  26    35  37  24    37  39  26    32  34  19    51  54  37    97 100  81    89  92  73    58  61  44    39  41  27    32  34  21    34  36  26    47  48  40    51  52  46    45  47  40    40  41  35    32  33  27    23  24  18    18  19  13    23  25  16    28  30  21    32  34  22    32  34  20    46  49  31  
  55  56  40    45  45  34    33  33  23    48  48  39    62  62  54    36  35  30    32  31  26    28  27  22    23  22  15    34  34  26    36  36  26    27  27  16    38  38  26    41  43  32    44  46  34    37  39  25    35  37  23    40  42  27    43  46  29    56  59  43    49  52  35    69  72  55    63  65  50    37  39  26    40  42  29    34  37  25    34  36  25    44  46  35    40  42  31    41  43  30    40  42  29    67  69  55   110 112  98    78  80  66    46  48  34    36  38  25    28  30  19    24  25  16    39  40  33    58  58  53    33  34  28    38  39  33    32  33  27    28  29  23    25  26  20    24  25  16    28  30  18    31  33  19    35  37  21    57  60  42  
  49  49  34    47  47  36    41  41  31    36  36  28    54  54  46    42  41  36    31  30  25    33  32  27    24  24  17    41  41  33    47  47  37    29  29  19    35  35  23    41  42  30    37  39  26    39  41  28    35  37  22    34  37  20    46  49  31    49  52  33    61  64  45    83  86  68    68  71  54    39  42  27    41  43  30    33  35  22    32  34  24    30  31  23    28  29  21    33  35  24    33  35  24    41  44  31    56  58  44    44  46  32    33  35  21    31  33  20    29  31  20    26  28  17    36  38  29    53  54  46    39  40  32    39  40  32    29  30  22    28  29  21    27  28  20    23  25  14    28  30  18    33  35  22    32  35  17    74  77  56  
  49  49  34    50  50  39    50  50  40    30  30  22    44  44  36    44  43  38    31  30  25    36  35  30    31  30  23    50  50  42    60  60  50    36  36  25    36  36  24    44  45  33    40  42  29    44  45  32    36  38  23    31  34  17    43  46  28    39  42  23    66  68  49    94  97  78    65  68  51    42  45  30    41  43  30    35  37  25    37  39  30    35  36  30    31  32  26    36  37  29    39  40  32    39  41  30    37  39  27    31  33  20    28  30  17    25  27  16    32  34  23    39  41  30    43  44  35    47  48  39    58  59  51    44  45  37    30  31  23    25  26  17    24  25  17    24  26  15    26  28  15    32  35  19    47  50  31   111 115  93  
  45  46  31    44  44  32    48  48  38    32  32  24    37  37  29    41  39  34    35  34  29    32  31  26    34  34  27    55  55  47    65  65  55    38  38  27    36  36  24    42  43  31    47  49  35    46  48  34    37  39  24    35  38  21    39  42  24    35  38  19    66  69  50   102 105  86    60  63  46    46  48  33    39  41  27    35  37  25    39  40  31    37  38  32    26  28  23    26  27  21    31  32  26    38  40  31    37  39  28    30  33  22    32  34  23    29  31  20    34  36  25    46  48  37    48  50  40    46  47  39    57  59  48    37  39  28    34  36  25    28  30  19    23  25  14    27  29  16    26  28  15    25  28  11    36  39  19    78  82  59  
  39  40  26    32  32  20    39  39  29    36  36  28    35  35  27    36  36  28    40  40  32    26  26  18    35  35  27    57  57  47    63  63  53    35  35  25    34  34  22    37  39  26    51  53  40    46  48  35    36  38  24    41  43  28    37  40  23    39  42  24    72  75  56   113 116  98    62  65  48    54  56  41    41  43  29    38  40  27    43  44  35    48  49  44    39  39  34    36  37  31    37  38  30    40  42  33    35  37  26    27  29  18    36  38  27    37  39  28    34  36  25    41  43  32    47  49  38    51  53  42    38  40  29    24  26  15    37  39  28    35  37  26    26  28  18    31  33  20    28  30  16    27  29  13    38  41  20    56  59  37  
