P3
50 50
255
  49  63  11    77  90  37    61  78  23    87 104  49   126 140  87    97 111  62    45  57  11    39  50   8    46  52  16    43  49  15    43  46  16    31  34   5    37  42  12    34  41  10    29  33   6    22  26   2    23  27   2    31  35  11    35  39  16    33  37  14    37  39  17    42  44  22    53  55  33    42  44  20    31  31   7    50  50  24    56  56  30    23  26   1    49  55  19    39  46   5    48  53  13    35  39   3    64  66  26    81  82  42    83  81  42   108 104  66    98  92  56   111 105  69   136 130  96    87  82  49    61  56  26    67  62  32    64  59  30    46  40  14    48  42  20    44  37  18    35  28   9    28  21   3    36  29  12    47  40  25  
  36  50   1    51  65  12    69  87  33    76  93  39    93 107  56    83  97  48    43  56  10    44  55  13    42  47  14    44  50  16    49  52  21    37  42  12    38  42  14    46  52  23    48  53  27    41  46  20    36  40  14    37  41  18    39  43  19    35  39  15    35  37  14    38  41  18    39  41  19    29  32   7    31  32   7    53  54  28    62  62  36    41  44  15    36  40   7    44  47  11    50  53  17    65  67  28    54  53  16    87  84  46    78  74  36   106 101  64    83  77  41   104  97  61   121 115  81    72  66  32    49  44  14    52  47  17    59  54  25    47  41  15    56  50  27    45  38  19    32  25   6    22  15   1    20  13   1    23  15   3  
  39  53   3    33  47   2    53  70  16    60  77  23    96 110  59    51  65  19    42  54   8    55  66  24    29  35   2    39  45  11    46  49  18    52  57  27    61  66  35    53  60  28    47  54  24    45  52  22    44  49  20    40  45  16    37  42  14    36  41  12    35  39  12    34  39  10    31  34   7    29  32   4    37  40  12    44  47  19    49  52  23    51  54  24    41  43  11    50  51  18    37  37   4    48  46  12    42  38   7    72  68  32    96  91  56    93  87  51    84  76  40    98  90  54   105  97  64    89  83  50    57  51  22    47  42  12    43  38   9    53  47  21    51  45  21    38  31  11    32  25   6    35  28  10    34  27  11    25  17   5  
  71  85  36    63  78  31    87 104  50    63  80  26    87 101  50    58  72  25    48  60  15    50  61  19    42  48  10    42  48  14    47  50  19    64  69  37    71  76  43    54  62  26    75  82  47    54  61  26    52  59  24    47  54  17    32  37   3    40  46  10    31  36   2    33  39   2    32  37   3    42  47  13    38  42   8    46  49  16    39  42   9    34  38   4    41  42  10    69  69  38    37  35   3    40  37   4    31  26   1    75  70  35   114 106  73   107  99  65   118 108  75   103  94  60    92  83  51    84  78  46    66  59  30    58  52  23    51  46  19    50  44  18    55  49  25    48  42  20    36  29  10    51  44  26    49  42  26    34  26  13  
 125 138  91   134 148  99   149 166 114    87 104  50    82  96  45    77  91  42    68  79  33    57  68  26    51  57  19    40  46  10    46  49  18    66  72  38    85  93  54    63  71  30    65  73  33    65  73  32    97 106  64   125 134  92    76  83  41    36  43   2    38  45   4    36  42   1    37  44   3    56  63  21    43  48   9    45  50  11    39  44   4    42  44   7    39  38   7    61  57  28    59  56  25    51  46  16    41  35   4    84  78  46    85  76  43    97  88  55    90  79  47    69  58  28    60  51  20    85  77  47    68  61  33    60  53  27    51  45  19    63  57  31    62  55  32    48  43  19    57  51  29    56  49  30    37  30  13    35  28  12  
  75  88  41    82  96  47   119 136  84   103 120  68   104 118  69    75  89  40    44  56  10    41  52  10    56  62  24    53  59  23    45  48  17    47  53  19    38  46   5    43  54  10    36  48   2    58  70  24    74  83  36   100 109  62    71  81  33    43  52   5    58  66  19    47  56   8    52  60  13    47  55   8    87  94  50   107 114  70   104 109  67    59  61  22    63  60  29    50  45  16    79  74  44   116 109  80   127 120  89    95  86  55    47  36   8    54  43  13    58  47  17    71  60  30    79  70  41   113 103  77    96  89  63   101  93  70    69  63  39    53  47  23    67  61  34    60  54  28    60  54  30    48  42  19    57  50  32    28  21   5  
  46  59  14    62  76  27   100 117  65    95 112  60    83  97  48    70  84  35    50  61  18    40  51   9    40  46   8    32  38   3    30  33   4    41  47  13    32  40   5    51  63  17    56  67  21    78  90  42    73  84  34    57  67  17    63  73  23    61  71  20    56  64  15    64  73  23    59  67  20    92 100  51    95 103  56   138 146 100   121 128  84   107 109  70    65  62  29    76  71  41    74  67  38    88  80  51   139 129  98   132 122  91   111  99  69    69  57  28    71  59  30    70  59  31    86  74  48   120 109  85   139 131 109   148 140 120   123 116  95    90  84  61    65  60  31    70  65  35    63  57  30    55  49  24    75  68  49    78  72  53  
  41  54  10    73  86  39   115 132  81   105 122  70    81  95  46    76  90  41    57  68  25    38  49   7    34  40   3    29  35   1    29  32   3    36  42   8    45  53  13    50  62  17    49  60  16    58  70  23    78  90  41    67  79  29    85  95  44    67  77  25    94 104  53    92 102  51    76  84  39   122 130  82    74  81  36    79  86  43    44  51  14    62  64  25    63  59  26    68  61  32    85  76  46    72  63  32   110  99  69   103  92  62    78  64  35    75  61  32    58  44  17    45  32   5    65  53  30    64  53  32    65  55  36    35  27  10    45  38  20    49  43  21    64  59  29    71  67  33    62  57  28    62  56  30    70  64  42   125 118 100  
  36  49   5    29  42   7    71  86  37    79  95  45    75  89  40    88 102  53    75  86  43    37  48   6    18  24   1    21  27   1    39  42  11    56  62  28    42  50  11    48  59  17    46  57  15    44  55  11    59  71  25    74  86  37   103 113  65   102 112  61    89  98  50    88  97  49   111 120  72   104 113  67    86  93  51    47  54  13    44  51  13    43  45   7    60  55  23    77  68  38   107  97  66    64  54  24    86  74  43   101  89  57    61  47  18    78  64  35    57  43  16    46  32   6    58  46  24    45  34  14    46  35  17    24  15   1    35  28  11    31  25   5    74  69  39    75  71  36    47  42  12    37  31   4    45  39  15    52  45  26  
  31  44   3    20  34   1    56  69  24    45  59  14    52  65  21    79  91  48    75  87  46    44  53  13    28  34   1    34  40   5    43  47  12    46  52  16    56  63  26    45  55  15    39  47   8    58  69  27    65  74  31    77  86  41    71  80  35    79  88  41    54  62  15    47  54  10    61  68  26    93 100  59    76  82  43    51  57  20    35  39   4    42  44  11    43  38   8    62  54  25    51  41  12    34  25   1    79  68  38   110  99  68    88  76  47    83  71  41    84  70  43    48  36  10    41  29   5    55  44  22    50  42  23    31  24   5    36  29  13    51  44  25    44  39  10    39  34   4    52  47  18    41  35   9    37  31   7    30  23   4  
  23  32   1    33  43   9    53  62  29    56  66  32    49  58  27    89  96  65    96 103  73    67  72  40    41  47  13    29  35   1    37  44   3    58  65  24    60  66  28    51  58  20    52  58  20    70  78  37    84  91  49    67  74  30    51  58  14    55  62  18    61  67  23    49  54  13    58  62  23    66  69  34    45  49  16    31  34   8    40  40  15    37  37  11    40  36  10    44  38  12    59  54  26    72  67  39    92  86  56    88  79  48    63  54  23    76  66  36    88  77  48    65  56  27    56  46  19    59  52  24    46  40  16    25  21   1    36  31  10    67  60  41    43  35  17    19  10   2    59  50  32    62  54  33    34  26   5    36  28   7  
  28  37   7    34  43  11    60  67  35    84  90  62    58  64  38    51  56  32    52  56  31    60  64  38    56  61  30    42  48  11    46  52  12    64  71  30    65  71  36    37  42   7    43  49  15    93  99  61   109 116  75    66  73  31    45  50   9    68  74  31    67  72  31    56  61  21    94  97  59    63  65  32    79  80  50    94  94  68    17  17   1    34  34  10    44  39  19    42  38  13    32  28   6    73  67  41    91  84  56    57  50  22    52  42  14    54  45  16    77  67  39    68  58  30    54  47  18    42  35  11    36  30   5    39  34  11    52  47  26    65  60  41    43  33  22    40  30  20    49  40  27    34  25   9    42  32  14    50  40  20  
  40  50  14    41  51  15    50  57  24    71  78  46    50  56  29    22  28   3    16  20   1    31  35  12    39  44  15    44  50  16    48  54  17    46  52  14    39  44  14    29  35   2    22  28   1    34  40  10    52  58  19    51  58  16    47  52  12    55  60  19    83  88  48    76  81  42    65  66  31    54  55  23    49  49  21    41  41  22    33  33  11    31  30   7    29  24   5    40  36  11    56  50  24    45  39  13    59  52  24    77  70  42    56  46  19    43  34   9    54  44  18    61  51  25    50  41  17    30  22   4    37  30   9    59  52  34    59  53  35    38  31  18    18   8   4    24  13   9    24  13   8    24  14   3    56  47  31    58  50  31  
  60  71  30    43  53  13    33  41   4    49  57  21    45  52  21    28  34   7    21  25   4    19  23   1    19  23   1    36  41  11    47  52  19    36  42   8    20  25   1    30  35   5    30  36   5    30  35   5    42  48  12    50  56  17    45  50  10    39  44   4    61  66  28    95  99  62    67  68  34    15  16   4    12  12   1    19  19   1    18  17   7    29  27   4    37  32  10    38  32   8    35  29   8    56  49  23    71  62  36    66  57  31    59  48  23    39  27   5    36  25   3    49  38  16    62  51  32    59  50  32    44  35  19    24  18   9    18  11   7    16   7   1    12   1   2     9   1   1    11   1   1    17   7   1    30  21   8    29  21   6  
  52  64  17    59  71  25    50  59  16    34  42   3    42  49  15    32  38  10    32  36  11    31  36  13    22  26   4    20  24   1    32  36   9    42  47  17    32  36   9    39  43  16    36  41  10    31  36   4    40  46  12    47  53  17    44  48  11    42  46   8    48  51  15    69  73  38    73  74  42    22  23   1    22  22   1    44  44  19    22  21   2    33  31   8    33  29   5    58  52  28    72  65  40    73  66  40    68  58  33    67  57  32    64  52  30    35  22   3    53  41  22    68  55  38    72  60  44    54  42  28    23  13   2     8   1   1    10   3   1    18   9   2    12   1   4    12   1   4    18   7   5    18   8   1    17   8   1    41  34   9  
  60  73  20    77  89  38    67  76  29    28  37   1    28  35   2    29  35   5    35  39  16    45  48  27    41  44  22    18  22   1    15  19   1    34  38  13    31  35  12    45  49  26    43  47  23    39  44  17    55  60  29    69  75  41    59  63  28    41  45  10    47  51  16    34  39   4    38  39   7    60  61  30    53  53  25    54  54  28    80  79  58    70  68  45    46  42  17    39  33   6    81  75  49    83  76  50    68  57  35    68  57  35    57  44  25    73  60  41    79  65  49    81  68  52    63  51  37    31  19   7    12   3   2    15   5   1    12   4   1     8   1   1    10   1   1    18   8   8    24  15  10    38  30  17    53  45  22    68  62  30  
  99 112  57    74  87  32    55  65  15    44  53   8    25  33   1    34  41  10    40  44  21    47  50  29    50  53  32    34  37  16    19  22   4    24  27   6    41  44  24    38  41  20    30  34  11    34  38  12    54  58  29    66  71  39    64  68  35    60  64  29    48  52  16    44  48  13    32  33   5    32  33   6    37  37  12    35  35   9    40  40  15    42  40  16    63  59  31    50  45  18    53  47  20    84  78  51   102  92  69    84  74  52    98  86  66    83  70  51    38  25   9    25  13   1    34  22  10    47  37  25    35  25  15    13   5   1    13   5   2    18  10   2    14   7   3    19  10   2    30  23   9    66  59  37    96  90  58    90  85  45  
 116 129  73    92 105  49    62  72  20    59  68  23    27  35   1    24  31   4    25  29   7    31  34  13    36  39  20    35  38  19    30  33  14    27  30  11    42  45  26    40  43  23    34  38  16    31  35  10    37  41  14    49  54  22    57  61  28    58  62  26    52  56  19    37  41   4    31  32   5    27  28   3    21  22   1    25  25   2    35  35   8    38  37  11    45  43  13    43  40  10    53  49  19    54  49  24    77  71  45    64  56  32    75  65  44    62  52  32    33  22   5    19   8   1    40  30  16    55  47  33    31  22  11    16   9   1    27  20   8    27  21   7    38  32  15    42  35  14    56  50  24    74  69  36    82  78  38    79  77  30  
 118 131  75    98 111  57    67  77  25    65  74  29    43  52  15    24  31   1    15  19   1    22  25   4    25  28   9    21  24   5    24  27   8    35  38  19    37  40  23    38  41  22    36  39  18    33  37  12    35  40  11    45  50  17    55  59  24    58  62  25    50  54  17    47  52  13    55  57  21    57  58  24    47  48  17    43  44  15    50  51  21    53  53  23    44  44  11    36  35   3    53  52  19    53  50  22    47  43  15    55  49  22    42  36  12    49  42  20    37  28   8    34  26   8    41  33  16    41  35  16    28  22   4    26  23   5    43  40  21    56  53  31    58  54  26    65  61  27    78  75  39    88  86  44    78  76  29    62  61   8  
  91 104  50    84  97  43    67  77  25    76  85  38    73  82  42    50  57  22    34  38  13    34  38  15    33  36  15    23  26   7    22  25   6    30  33  15    30  33  15    30  33  14    29  32  11    30  34   9    37  42  12    48  54  20    61  65  30    68  73  33    56  60  21    46  51  11    54  56  17    66  68  31    69  71  35    71  72  38    68  69  37    58  59  25    62  64  26    72  73  35    87  89  52    63  63  29    21  20   2    28  24   3    28  24   1    36  31   5    38  32   8    42  38  14    34  30   6    25  23   1    32  30   5    41  41  15    52  52  26    67  68  36    67  67  28    66  65  20    75  74  27    90  90  40    90  88  37    74  73  19  
  84  97  45   103 115  63    79  89  39    68  78  31    56  64  26    47  54  20    45  49  24    50  54  31    51  54  33    43  46  25    32  35  14    26  29   8    24  27   8    23  26   7    26  30   8    36  40  15    48  53  23    57  63  29    62  67  29    65  70  30    56  61  20    45  50   9    48  50  10    58  60  21    62  64  25    68  70  33    70  72  35    64  66  29    71  76  35    70  75  34    92  97  57   114 117  79    86  87  53    35  34   6    31  30   6    14  13   1    22  18   1    39  38  10    43  42  12    42  44  12    47  48  16    36  41   7    34  38   4    52  57  17    74  76  26    70  70  18    71  71  19    78  78  26    80  80  28    73  73  21  
  77  89  42    94 106  56    69  79  30    62  72  27    47  55  16    32  39   5    23  27   4    26  30   8    31  35  13    30  33  13    27  30   9    25  29   8    27  30  11    27  30   9    31  36  12    44  48  22    55  60  29    59  65  31    60  64  26    60  65  24    70  76  32    51  57  12    45  47   4    49  52  11    55  58  18    64  67  27    69  71  33    62  67  26    47  54  11    60  67  23    68  74  32    72  78  37    72  75  37    87  89  54    99  99  65    42  42  19    26  26   2    33  34   1    37  38   5    42  46   9    43  47  11    37  44   4    63  70  29   112 119  71   120 123  69   103 104  45    79  80  22    65  65  11    64  64  12    65  64  16  
  66  76  32    73  83  38    61  70  25    82  90  47    59  67  29    32  39   5    17  21   1    24  28   6    27  31   8    17  20   1    14  18   1    23  26   6    33  36  17    29  32  12    31  35  13    40  44  18    49  53  24    57  63  29    68  74  36    78  83  44    69  75  33    62  68  24    63  67  24    60  64  22    50  54  14    55  58  18    72  76  36    82  87  46    63  70  27    60  69  26    74  81  38    80  87  45    41  47  14    72  77  38    84  87  50    83  86  49    49  52  15    36  39   2    44  48   8    69  75  33    75  82  38    64  72  27    87  95  48   133 141  89   132 136  78   127 128  68   104 105  48    74  74  21    57  57   8    56  55  10  
  37  43   9    47  54  16    46  53  15    83  89  52    62  68  35    37  43  12    23  27   1    29  33  10    29  32  11    17  20   2    13  16   1    20  23   7    21  24   8    28  32  14    27  32  12    28  33  11    35  39  16    39  44  18    52  58  29    74  80  49    61  66  33    74  79  45    65  71  35    56  62  25    49  55  18    54  60  21    69  74  36    58  64  27    58  66  30    51  58  23    45  53  17    42  50  12    37  44   9    63  70  28    63  69  26    56  63  18    57  64  17    64  71  23    65  73  22    87  97  44    87  98  44    84  94  41    78  89  35   104 113  58   111 116  59   119 121  64   127 127  72    75  75  23    57  55   8    55  53   8  
  11  16   1    27  32   1    44  50  15    71  76  44    73  78  48    42  47  17    19  23   1    23  26   3    32  35  16    31  34  17    26  28  13    24  26  12    18  22   7    20  24   7    20  24   6    27  31  14    37  41  24    38  43  23    37  42  19    42  47  23    47  53  27    61  67  39    51  58  26    49  56  23    54  62  25    62  70  31    70  78  39    51  58  22    47  54  23    39  45  16    32  39   8    40  47  13    55  63  24    64  73  30    61  70  23    55  65  14    56  66  13    67  78  22    59  70  12    66  77  17    93 104  44   126 138  78   115 125  66    96 105  48    99 104  50   111 114  61   132 132  80    87  87  37    71  69  21    70  68  20  
  45  50  18    33  38   5    43  48  16    53  58  26    48  53  23    39  44  14    29  33   8    25  29   5    25  28   7    26  29  11    29  32  15    33  36  19    20  25   7    13  18   1    19  24   4    29  34  14    33  38  17    32  37  15    28  33  11    19  24   1    33  39  13    41  48  19    40  47  14    47  54  19    54  62  23    58  66  25    64  72  31    56  64  25    61  68  37    36  42  13    23  30   1    35  42   8    43  51  14    40  48   7    47  56  11    64  74  24    80  90  38    65  76  20    61  72  17    56  67   9    79  90  32    97 108  50   108 119  61    91 100  43    86  91  38    94  97  44    98  98  48    72  72  22    58  56   9    71  69  21  
  45  50  18    38  43  11    28  33   3    25  30   1    22  27   1    31  36   6    36  40  13    32  36  11    26  29   8    27  30  11    34  37  17    39  42  22    28  33  13    21  26   6    31  36  15    34  39  18    20  25   4    16  21   1    23  28   6    18  23   1    22  28   3    26  32   4    33  40   7    43  50  14    49  57  18    53  61  20    61  70  26    67  75  34    55  62  29    26  33   2    19  26   1    40  47  13    45  53  16    32  40   1    43  51   7    72  81  35    83  93  42    72  82  29    85  95  42    65  76  20    80  91  36    80  91  36    96 107  52    69  78  23    69  74  21    74  76  26    69  68  19    61  60  13    48  45   1    60  57  12  
  57  62  30    42  47  15    23  28   1    36  41   9    27  32   3    37  42  12    43  47  20    40  44  18    34  38  14    36  40  17    42  46  24    47  50  28    40  45  23    33  38  16    37  42  20    38  43  22    25  30  10    19  24   5    20  25   4    15  20   1    21  26   3    19  25   1    29  35   6    36  43   9    42  50  12    50  58  18    56  65  23    71  79  38    73  80  47    47  54  23    36  43  13    47  54  20    50  58  21    43  51  11    59  67  25    89  98  54   117 126  78   102 112  61    99 109  58    59  69  18    78  88  37    85  95  42   100 110  58    64  73  21    61  64  15    73  75  27    77  76  29    77  76  31    57  54  10    47  44   3  
  60  66  33    42  48  15    26  31   1    35  40   8    35  40  10    46  51  21    53  58  29    48  53  23    33  37  11    26  30   4    34  38  12    45  49  25    37  42  20    33  38  17    30  35  15    34  38  20    37  42  24    32  37  20    24  28  12    20  25   8    29  33  15    18  23   1    24  29   5    23  29   1    31  38   6    42  50  14    38  46   8    46  54  16    63  69  36    61  66  36    64  70  37    69  75  43    67  74  39    58  64  27    55  61  22    57  65  24    63  71  27    59  66  21    67  74  29    50  58  11    63  72  24    47  56  10    59  67  19    58  65  16    70  72  27    72  74  29    76  75  30    80  79  35    75  72  30    49  45   7  
  49  55  21    35  42   8    42  47  15    44  49  17    51  56  26    49  54  24    49  54  24    51  56  26    45  49  18    31  36   4    22  27   1    20  24   2    21  26   4    27  32  12    23  28  10    26  30  15    39  43  28    38  42  28    34  37  26    45  48  36    34  39  24    16  20   4    19  24   4    16  21   1    31  37  10    47  53  25    32  39   6    31  38   4    31  36   6    40  45  15    43  48  18    41  46  14    47  52  20    61  67  33    68  74  38    65  71  32    46  53  12    58  65  23    54  61  19    24  31   1    33  40   2    33  41   1    52  60  13    68  73  27    73  76  31    57  58  14    59  58  14    82  80  38   111 108  69    77  73  36  
  46  52  18    47  53  19    50  55  23    62  67  37    55  60  30    36  41  11    43  48  16    40  45  13    54  60  26    54  61  26    53  59  23    19  24   3    15  20   1    22  27   7    16  20   3    14  18   3    27  30  19    26  29  20    17  20  13    19  22  16    19  22  14    23  26  15    23  27  14    24  27  13    36  41  21    47  52  30    40  46  20    22  28   1    33  37  10    26  30   3    30  33   7    36  41  12    34  39   9    38  43  13    57  62  31    73  78  45    67  74  38    77  84  46    62  69  28    35  42   1    36  43   1    53  60  17    64  71  27    67  73  29    67  70  27    57  58  16    49  47   7    65  63  24   102  98  61    63  59  24  
  36  42   7    34  40   6    37  42  12    50  55  25    40  45  15    27  32   2    48  53  21    64  70  36    78  84  47    67  73  34    70  77  36    59  66  28    24  30   6    20  26   2    16  21   1    16  20   6    16  20   8    13  16   7     9  12   4     9  11   6    15  18  11    15  19  12    17  20  12    21  23  13    23  27  12    23  27  10    23  28   7    23  28   5    35  40  15    35  38  12    33  37  13    32  35  10    29  33   6    20  24   2    21  25   1    33  38   7    43  48  15    55  60  25    54  59  22    47  53  13    47  54  12    52  58  16    66  72  28    86  92  48    68  70  28    56  56  17    45  43   5    56  54  17    90  86  51    75  70  38  
  28  34   1    25  30   1    31  36   6    49  54  24    41  46  16    36  41  11    57  62  29    77  83  48    78  84  45    58  65  24    60  68  23    67  74  31    55  63  26    30  37   5    18  24   1    17  23   3    12  17   2    12  16   3    15  18   8    11  14   7    11  13   7    13  16   9    16  19  12    19  22  13    17  21   7    17  21   6    24  28  11    34  39  19    32  35  13    41  43  21    37  39  18    40  42  19    50  52  29    37  39  16    23  25   2    32  34   9    32  35   5    54  58  26    61  65  31    53  57  20    56  61  21    67  72  31    80  86  42    92  98  54    81  82  43    64  64  27    47  44   8    48  45  11    60  56  22    60  55  24  
  37  43   8    26  31   1    27  32   2    42  46  18    68  72  44    64  69  39    62  67  34    63  69  32    60  68  26    62  69  25    75  83  34    95 103  54    91 101  53    53  62  18    32  39   2    28  36   2    23  29   1    21  26   5    17  21   6     1   5   1     8  11   1    15  18   9    18  21  11    16  20   7    18  22   7    27  31  15    36  40  21    39  44  24    47  49  30    55  56  38    45  47  28    47  48  29    62  63  44    46  48  27    19  21   1    18  20   2    21  24   1    54  57  27    70  74  41    68  72  35    76  81  41    82  87  46    69  75  31    53  58  14    46  46  11    42  42   7    42  40   6    58  55  22    52  47  16    42  37   8  
  52  58  22    34  39   7    22  27   1    28  32   5    84  88  61    89  94  64    70  76  42    57  63  25    51  58  16    65  73  26    75  83  32    92 101  46   139 150  93   101 112  57    62  72  21    36  45   1    24  32   1    26  32   2    25  30   8    17  22   4    16  20   5    24  28  14    24  28  14    19  23   8    24  28  12    38  43  23    41  46  24    32  37  15    25  26  10    29  30  14    23  24   8    29  30  14    47  48  31    41  43  24    22  23   5    17  19   1    18  20   1    38  41  12    57  61  28    77  80  44    93  98  58    85  91  47    59  65  20    44  49   5    37  37   1    43  43   9    43  40   7    61  58  27    44  39  10    24  19   1  
  50  56  20    36  41   9    21  26   1    24  28   1    29  33   6    48  53  22    38  44   9    40  46   8    41  48   4    61  69  20    66  76  22    88  97  40   121 133  68   124 136  72   107 118  60    78  88  34    56  65  20    41  49   9    29  36   4    25  31   4    18  23   1    19  24   3    19  24   3    19  24   3    23  28   6    27  32   9    22  28   2    15  20   1    16  18   1    16  17   3    17  18   3    19  20   6    23  24  10    24  25   9    20  22   4    17  19   1    27  29   7    45  48  21    58  61  30    69  73  38    79  84  43    76  82  38    62  68  22    56  62  18    55  55  19    62  62  28    37  34   3    40  37   7    33  28   1    30  25   1  
  40  45  10    34  38   7    26  28   2    26  30   3    29  33   5    41  46  14    38  44   7    54  61  18    63  71  21    89 101  45    93 106  46   107 121  56    95 109  39   116 130  59   121 134  68    92 104  43    58  69  15    40  50   5    38  47   6    47  54  18    32  39   8    26  32   4    27  33   5    35  41  13    39  45  17    35  41  12    29  34   5    27  31   4    25  27   2    22  23   2    24  26   5    25  27   7    17  18   2    18  19   3    28  29  10    26  27   6    33  35  13    63  66  39    85  88  57    76  79  45    69  73  34    67  72  29    50  56  10    36  42   1    72  74  35    92  92  58    43  41  10    34  31   2    37  32   4    44  38  12  
  42  45  12    38  40  10    31  31   5    26  27   1    26  29   1    38  42   9    66  73  32    94 103  56   100 110  57   116 130  68   116 133  66   103 120  49   104 120  47   106 122  49   134 150  79   122 137  71    85  99  38    73  86  35    65  75  25    50  59  14    29  37   3    30  37   1    34  42   7    40  47  14    44  50  17    46  51  18    50  55  22    55  60  27    49  53  21    40  43  12    28  31   2    28  30   4    19  21   1    18  20   1    34  36  14    28  30   8    49  51  28    55  58  31    83  86  57    84  88  55    69  73  36    55  60  19    38  43   2    44  50   9    55  57  18    85  86  51    39  38   7    24  22   1    37  31   5    49  43  19  
  58  59  28    39  39  11    30  30   4    32  32   7    39  42  15    64  68  36    94 100  62    72  81  35    62  72  20    66  80  20    94 111  46    93 110  41   132 148  77   119 134  64   133 148  80   133 148  84   125 139  79   122 135  80    91 101  51    52  61  15    29  37   1    37  45   8    41  48  13    41  46  13    47  53  20    62  68  35    73  78  46    75  80  48    72  75  43    65  69  37    37  40  11    25  27   1    23  25   1    24  26   3    31  33  12    25  27   5    29  31  10    47  49  24    51  54  26    54  58  26    63  67  32    60  65  27    52  57  18    50  55  14    68  70  30    73  75  37    80  80  46    68  67  38    62  56  28    37  31   5  
  55  56  25    51  51  23    44  44  18    36  36  12    41  43  19    36  39  10    54  61  26    61  69  27    55  64  17    27  40   1    41  56   4    62  77  14    90 105  39    59  74   9    69  84  22    98 112  52   118 131  77   132 144  94   134 143  98   138 146 104    67  75  38    56  63  29    44  49  17    39  44  12    50  55  25    60  65  35    54  59  28    41  46  16    60  63  33    73  76  47    48  51  24    28  30   6    27  29   6    22  24   2    24  26   5    23  25   4    25  27   6    52  54  31    42  45  18    58  62  32    84  87  54    72  76  41    66  71  31    61  66  25    66  67  27    66  68  29    98  98  60   106 106  70   119 116  85    94  89  61  
  58  62  29    68  71  42    50  50  26    21  20   1    29  31  10    30  33   6    34  39   8    62  70  33    60  69  27    63  76  28    87 101  48   135 150  96   107 120  65    61  74  19    48  61   7    65  78  25    91 100  53   100 109  66    91  99  58    93 101  64    57  63  29    48  53  21    39  43  14    32  37   7    25  29   3    22  26   1    32  35   8    43  46  19    46  49  22    62  65  38    44  46  22    33  35  13    38  40  18    38  40  19    41  42  24    40  42  21    42  44  24    70  72  51    47  49  25    38  41  14    53  56  25    53  57  22    53  57  20    44  49  10    64  66  26    71  73  33    63  63  25    77  77  42   121 118  87   141 137 108  
  52  55  23    45  48  19    36  36  12    35  34  13    20  21   4    38  41  19    34  38  16    41  45  15    38  45   8    47  57  17    37  49   5    42  55   9    65  76  28    53  64  16    50  61  14    45  56  12    54  63  21    58  66  28    36  43  10    27  34   2    52  57  26    41  46  17    31  35   8    24  28   1    18  22   1    20  23   2    37  39  15    55  57  34    44  46  22    42  44  20    23  25   5    25  27   5    37  38  18    45  46  26    53  54  37    45  46  28    50  51  33    74  76  55    64  66  44    42  45  19    48  51  20    63  67  35    63  67  33    50  54  18    66  68  30    87  89  51    66  66  32    61  61  28    58  55  25    59  55  27  
  57  61  27    38  41  12    32  32   8    39  38  17    31  30  11    23  23   4    18  21   5    28  32   7    53  59  29    42  51  16    36  45   9    44  55  15    40  49   8    42  50   9    48  57  17    40  48   9    36  43   7    30  37   5    20  25   1    31  36   8    66  70  42    56  60  33    41  45  19    30  34   9    30  32   9    35  37  15    38  40  19    37  39  18    38  40  19    27  29   8    16  18   1    22  24   3    20  21   5    23  24   9    38  39  23    29  30  12    24  25   9    16  18   5    29  31   9    30  32  10    34  37  10    45  48  18    43  46  16    51  55  23    70  71  39    67  68  36    64  65  35    81  81  53    63  62  36    34  32   9  
  55  60  24    39  42  12    37  37  13    25  24   3    32  31  13    22  21   3    25  26   7    28  31  10    46  50  26    48  55  25    47  54  24    56  64  30    43  50  15    40  48  10    43  50  15    28  36   2    27  33   1    19  25   1    27  32   4    37  42  12    54  58  31    42  46  20    37  40  17    39  42  19    39  41  19    39  41  20    38  40  21    33  35  16    29  31  12    22  23   4    25  27   8    21  22   3    11  12   1    17  18   1    22  23   5    21  22   4    16  17   1    12  14   1    24  26   4    23  25   3    28  31   4    39  42  13    38  41  12    47  50  20    67  67  39    38  39  13    45  45  22    66  65  42    64  62  42    39  37  18  
  57  63  27    37  42  10    35  36  12    29  28   7    29  28   9    17  16   1    20  21   3    25  26   8    32  35  13    37  41  18    32  38  11    40  47  16    34  41   8    55  63  28    73  80  46    47  54  21    36  41   9    24  29   1    31  36   6    25  30   1    38  42  15    30  33   8    38  40  18    49  51  29    42  44  23    31  33  12    30  31  13    31  32  14    22  23   5    26  27   9    42  43  25    30  31  13    10  11   1    13  14   1    17  18   1    26  28   7    19  21   1    19  21   1    35  37  15    38  40  16    35  38  11    34  37  10    27  30   1    36  39  12    61  60  39    18  17   1    10   9   2    16  14   4    23  20   5    25  22   6  
  73  78  41    48  53  20    37  40  13    32  34  12    32  31  11    22  22   2    27  29  10    29  30  12    31  34  13    32  36  13    26  32   6    36  42  14    44  51  18    63  70  36    83  89  55    59  65  30    41  47  13    20  26   1    27  32   1    27  32   2    29  32   3    27  30   3    43  45  21    54  55  34    37  36  16    15  14   1    18  16   2    31  29  14    30  31  13    34  36  18    57  58  40    60  61  43    55  56  38    61  62  44    55  57  36    52  54  33    31  32  11    30  32  10    46  48  26    50  52  28    46  49  22    40  43  16    32  35   6    45  48  21    41  40  19    14  12   1    16  15   1    17  15   1    10   8   1    14  12   1  
  55  61  23    52  58  23    49  52  22    43  45  20    29  28   7    21  20   1    25  26   7    22  24   3    20  22   2    24  28   5    30  34   9    50  56  28    65  72  38    57  64  27    69  75  38    71  77  40    71  77  41    41  47  12    33  39   5    30  35   4    31  34   3    27  30   1    40  42  17    49  51  28    28  27   7     5   4   1    11   9   1    27  25  10    19  20   4    20  21   4    40  42  23    44  45  26    44  45  27    57  59  38    58  60  38    58  60  38    38  40  18    29  32  11    39  41  19    43  46  20    47  50  23    51  54  26    50  53  24    65  68  41    65  64  43    34  33  13    28  27   9    34  33  14    25  25  13    23  22  10  
  42  49   8    53  59  23    55  58  27    54  57  30    39  39  16    30  29   8    32  31  11    23  24   3    17  19   1    26  29   6    40  44  19    68  73  44    67  73  38    56  63  23    65  72  32    77  84  44   103 109  70    87  93  54    61  66  28    28  32   1    31  35   1    26  30   1    40  40  13    49  49  25    33  32  12    15  14   1    15  13   1    23  21   6    16  17   1    17  18   1    34  36  15    28  30   9    20  22   2    30  32   9    37  39  16    44  47  21    28  31   6    20  23   3    28  31   8    32  35   9    43  46  18    55  58  29    51  54  25    55  58  30    74  74  49    52  52  28    46  46  24    73  72  50    80  82  62    63  65  45  
  38  45   4    58  64  28    62  65  34    62  65  38    41  41  17    28  28   5    28  27   6    22  21   1    17  20   1    25  27   3    32  36  11    53  58  28    53  59  22    51  58  16    55  62  20    53  60  17    83  89  48    89  95  54    76  81  40    41  45   8    38  42   7    34  37   6    43  43  15    49  49  23    39  38  17    29  28   8    26  24   9    22  20   5    20  20   3    17  19   1    34  36  15    35  38  17    35  37  15    43  45  21    35  37  13    28  31   4    39  42  15    42  45  16    54  57  29    53  56  28    62  65  36    74  77  48    60  63  34    51  54  25    43  44  14    51  52  22    43  43  16    63  63  36    74  77  51    57  59  34  
  25  33   1    50  58  21    53  58  28    40  44  19    39  41  19    23  25   4    25  24   4    24  23   4    27  29   7    30  32   8    24  27   1    32  37   6    35  41   3    34  41   1    41  48   4    38  45   1    56  64  17    57  65  18    63  70  26    56  63  19    53  60  20    48  53  16    49  52  19    45  48  19    35  37  13    34  34  14    34  33  15    27  25   8    25  27   7    26  28   6    43  45  23    40  42  20    33  35  11    42  45  18    43  46  19    46  49  20    40  43  14    52  55  26    67  70  41    59  62  31    62  65  34    73  76  45    56  59  29    42  45  14    31  30   1    54  54  24    33  32   4    37  36   9    56  56  30    41  41  15  
