P3
50 50
255
 218 215 210   231 227 222   205 202 197   183 179 175   198 193 189   153 149 143   152 150 145   127 126 123   160 159 158   153 152 150   177 176 174   226 225 223   188 187 185   158 156 154   135 134 132   112 110 108   146 145 143   180 179 177   186 185 183   171 171 169   164 160 159   158 154 153   150 146 145   142 138 137   174 171 169   172 168 167   165 161 160   166 162 161   161 157 156   184 180 179   161 157 156   165 161 160   195 191 190   163 159 158   157 153 152   169 165 164   173 169 168   185 181 180   179 175 174   129 125 124   222 218 217   178 173 173   147 143 142   157 153 152   177 173 172   190 187 185   181 177 176   161 157 156   164 160 159   171 167 166  
 152 149 144   164 161 156   161 158 153   142 138 133   146 141 137   117 112 108   111 108 103   131 130 127    86  86  83    54  53  51    47  46  44    65  64  62   120 119 117   184 183 181   219 218 216   174 173 171    59  58  56     9   8   6    27  26  24    37  36  34    57  53  52    98  94  93   132 128 127   143 138 138    95  91  90    59  55  54    26  22  21    44  40  39    74  70  69    85  81  80   173 169 168   158 154 153   110 106 105    89  85  84    87  84  82   104 100  99   117 113 112   139 135 134   158 154 153   144 140 139   130 126 125    98  94  93   100  96  95   116 112 111    81  77  76   104 100  99   117 113 112    99  95  94    40  36  35    33  29  28  
 170 166 163   188 185 181   201 197 194   211 207 204   195 191 188   192 188 185   170 167 164   172 171 169   160 159 158   181 180 178   124 123 121   145 145 143   195 194 192   148 147 145   162 161 159   183 182 180   198 197 195   186 185 183   118 117 115   148 147 144   191 187 184   176 171 168   158 153 150   153 148 145   158 153 150   190 185 182   166 161 158   148 143 140   160 155 152   140 135 132   157 152 149   180 175 172   183 178 175   189 184 181   176 171 169   170 165 162   154 149 146   144 139 136   178 173 170   218 213 210   178 173 170   197 192 189   198 193 190   162 157 153   181 176 173   176 171 168   175 171 170   172 169 169   165 164 164   182 180 181  
 205 201 198   206 202 198   192 188 185   141 137 134    84  80  77    33  29  26    69  66  63    82  81  79    81  80  78    93  91  89   128 127 125   114 113 110    54  53  51    19  18  16     6   5   3    85  84  82   119 118 116   183 182 180   212 211 209   125 121 120    61  56  53    24  19  16    25  20  17    72  67  64   118 113 110   123 118 115   154 149 146   116 111 108    73  68  65    95  90  87    97  92  89   137 132 129   159 154 151   144 139 136   145 140 137   132 127 124   102  97  94   121 116 113   156 151 148   136 131 128   143 138 135   153 148 145   169 164 161   151 146 143   112 107 104   115 110 107   125 121 121   115 113 114   137 135 136   168 166 167  
 216 212 211   210 206 205   196 192 191   166 164 163   164 162 160   124 123 121   125 124 122   172 171 169   177 176 175   164 163 161   158 157 155   165 164 162   175 174 172   160 159 157   151 150 148   194 193 191   182 181 179   146 145 143   157 156 154   166 165 163   214 210 207   203 198 195   158 153 150   166 161 158   165 160 157   151 146 143   142 137 134   176 171 168   182 177 174   209 204 201   188 183 180   174 169 166   157 152 149   162 158 156   170 166 165   166 162 161   167 163 162   184 180 179   167 163 162   145 141 140   170 166 165   172 168 167   147 143 142   179 175 174   177 173 172   184 180 179   163 160 160   143 141 142   189 186 188   157 154 155  
 106 102 101   113 110 108    63  59  58    47  45  43    46  45  43   119 118 116   148 146 144    62  61  59    37  36  34    55  54  52    57  57  55    93  92  90   121 120 118   135 134 132   135 134 132    74  73  71    40  39  37    21  20  18    33  32  30    79  78  76   137 133 130   208 203 200   176 171 168    77  72  69    33  28  25    14   9   6    62  57  54   133 128 125   159 154 151   148 143 140   137 132 129    92  87  83    96  91  89   166 161 161    88  84  83   107 103 102   141 136 136   128 124 123   161 157 156   150 146 145   112 107 107    73  69  68   151 147 146   209 205 204   199 195 194   205 201 200   153 149 150   162 160 161   155 153 154   145 144 145  
 222 218 217   151 147 147   142 140 141   172 170 171   180 178 179   178 176 177   165 163 163   166 165 163   175 174 172   179 178 176   163 162 160   179 178 176   185 184 182   183 183 180   172 171 169   182 181 179   173 172 170   171 170 168   169 168 166   169 168 166   158 154 153   139 135 134   149 145 144   173 169 168   222 218 217   197 193 192   174 171 169   189 185 184   193 189 188   162 158 157   183 179 178   198 194 193   204 200 199   177 175 173   171 169 170   146 145 146   119 117 118   126 124 125   107 105 106   101  99 100   120 118 119   184 182 183   195 193 194   192 190 191   186 184 185   123 121 122   177 175 176   208 208 209   188 188 190   179 179 181  
 131 127 126   142 138 138    98  96  97    37  35  36    19  17  18    30  28  29    44  42  42    70  69  67   118 117 115   142 141 139   122 121 119    75  74  72   111 110 108   126 125 123   109 108 106    79  78  76    73  72  70   109 108 106   116 115 113    48  47  45    28  24  23    18  13  15    38  34  35    52  48  49   110 106 107   212 208 209   168 164 165    77  73  74    62  58  59    52  48  49    87  83  84   144 140 141   160 157 158   132 130 131   114 111 114    65  63  66    46  44  48    41  39  42    21  18  22    85  82  85   147 145 149   191 189 192   186 184 187   157 155 158   153 151 154   185 183 186   172 172 174   174 174 176   175 175 177   190 190 192  
 180 178 180   157 155 156   167 165 166   157 157 159   134 134 136   116 116 117   179 178 178   188 187 185   192 191 189   210 209 207   230 229 227   220 219 217   214 213 211   192 191 189   218 217 215   210 209 207   190 189 187   175 174 172   161 160 158   185 184 182   191 189 190   148 146 147   164 162 163   179 177 178   155 153 154   166 164 165   151 149 150   185 183 184   219 217 218   185 183 184   154 152 153   160 158 159   132 130 132   143 143 145   171 172 174   200 201 203   200 201 203   208 209 211   205 206 208   199 200 202   196 197 199   161 162 164   183 184 186   199 200 202   182 183 185   179 179 182   204 204 206   173 173 175   192 192 194   159 159 161  
  27  25  26    37  35  36    39  37  38    58  57  59   108 108 110   138 138 140    55  54  56    54  52  52   107 106 104   143 142 140   150 150 148   200 200 198   150 149 147    91  90  88    66  65  63    59  58  56    45  44  42    37  36  34    20  19  17    23  21  22    82  80  83   107 105 108    86  84  87    46  44  47    40  38  41    34  32  35    83  81  84   147 145 148   175 172 175   217 215 218   142 140 143   106 104 107   141 139 143   167 167 171   174 175 179   168 168 173   161 162 166   182 183 187   167 168 172   141 142 146   132 133 137   172 174 177   165 166 170   178 179 183   175 177 180   193 194 198   173 173 177   160 160 162   141 141 143   172 172 174  
 134 132 133   175 173 175   167 165 168   168 167 170   175 175 177   180 180 182   182 182 182   185 184 182   204 203 201   206 205 203   178 177 175   206 205 203   195 194 192   152 151 149   157 156 154   166 165 163   153 153 151   155 154 152   195 194 192   173 171 172   170 170 172   204 203 208   204 203 208   200 199 204   211 210 215   197 196 201   220 219 224   196 195 200   154 153 158   182 181 186   167 166 171   189 188 193   218 217 222   184 184 188   162 165 170   189 192 197   174 177 182   154 157 162   177 181 186   197 200 205   205 208 213   203 206 211   186 189 194   179 182 187   180 183 188   153 156 161   193 193 197   197 197 199   199 199 201   213 213 215  
 107 105 106    19  19  19     2   2   4     7   7   9    25  26  28    47  48  50    85  84  86   144 142 143   157 154 156    82  80  80    46  44  45    57  56  57    93  91  92   128 126 127   129 127 128   163 161 162   188 185 187   164 162 163   131 129 130   134 132 133   153 153 155   170 171 175   164 164 169   172 170 175   178 177 182   172 171 176   135 134 139   143 142 147   187 186 192   172 171 177   165 164 170   172 171 177   185 184 190   185 185 191   149 149 157   142 142 150   146 147 152   167 168 173   185 186 191   173 174 179   184 185 190   181 182 187   157 158 163   123 124 129   141 144 149   148 150 155   180 180 185   169 168 173   172 171 176   206 206 209  
 139 139 141   160 161 163   167 170 171   122 125 127   145 149 150   213 217 218   190 191 193   200 199 201   192 190 191   188 186 187   196 194 195   190 188 189   199 197 198   219 217 218   204 202 202   197 195 196   184 182 182   201 199 200   181 179 180   207 207 209   194 195 197   182 186 187   202 206 209   180 184 187   175 179 182   204 207 212   197 198 203   201 202 207   209 210 215   181 181 189   197 196 204   208 207 215   173 172 180   194 192 201   200 197 205   214 211 220   210 207 216   194 193 201   185 184 191   205 205 210   183 182 187   161 162 166   190 191 195   198 198 203   203 204 206   212 213 215   184 184 189   186 185 190   189 188 193   171 170 175  
  99 100 102   133 134 136   150 152 154   172 176 177   159 163 164   137 141 142   141 144 145   152 151 154   156 154 157   163 161 164   169 167 170   188 186 189   165 163 166   145 144 147   126 124 127   129 127 130   151 149 152   156 154 157   180 178 181   188 188 190   177 181 182   137 141 142   142 146 148   150 154 157   158 162 165   176 179 184   172 173 178   162 162 169   178 178 187   151 150 158   124 122 131   135 133 144   147 144 155   156 151 163   151 145 157   183 177 189   177 171 181   174 170 178   137 134 141   112 109 116   110 108 113   146 145 150   142 141 146   136 136 139   129 129 131   138 138 140   160 159 165   102 101 107    67  66  72    33  32  38  
 202 202 204   200 201 203   200 201 203   195 196 198   181 185 186   194 198 199   191 192 194   189 188 191   205 204 207   228 226 229   216 214 217   194 192 195   205 203 206   191 189 192   212 210 213   237 235 238   187 185 188   216 214 217   199 197 200   180 180 183   206 208 207   207 209 208   193 194 195   209 210 212   197 198 200   184 185 189   205 204 209   177 176 182   175 173 180   189 186 193   210 207 214   230 227 234   218 215 222   203 198 205   228 222 229   220 213 221   195 190 197   189 184 190   215 210 216   227 222 228   219 214 220   202 200 204   191 189 192   213 211 214   219 217 220   188 186 189   173 172 175   175 174 179   183 182 188   189 187 194  
 194 194 196   150 150 152   174 174 176   172 172 174   149 149 151   173 173 175   164 163 165   147 145 148   144 142 145   131 129 132   107 105 108   149 147 150   161 159 162   165 163 166   172 170 173   175 173 176   136 134 137   109 107 110   128 126 129   134 132 135   186 186 186   175 175 175   176 176 176   165 165 165   152 152 154   129 129 131   101  99 104   115 113 118   144 142 147   138 134 140   122 117 123   135 130 137   144 139 145   130 124 131    75  65  73    48  38  46    51  45  51   127 121 125   165 159 163   172 167 173   201 196 202   173 168 172   127 123 127   116 114 117    89  87  90    49  47  50    45  43  47    31  30  35    28  27  33    13  12  18  
 127 125 130   165 163 168   169 168 173   171 170 175   186 184 189   208 207 212   210 209 213   208 206 209   177 175 178   187 185 187   215 212 216   198 196 199   225 223 226   234 232 235   205 203 206   193 191 194   204 202 205   208 206 209   227 225 229   231 229 232   195 193 193   196 196 194   173 173 171   165 165 163   206 204 205   221 219 220   202 200 201   212 209 211   193 188 192   214 209 213   237 232 236   201 196 200   198 192 196   193 185 188   203 194 197   187 178 181   203 194 197   193 186 188   210 204 206   229 223 225   223 216 219   215 209 213   232 227 231   227 222 226   221 216 220   191 186 190   137 135 138   163 161 166   190 188 193   192 190 195  
 217 215 220   204 202 207   174 170 176   182 177 184   171 166 172   139 134 140   139 135 140   155 153 156   165 163 166   168 165 169   164 162 165   151 149 152   106 104 107    85  83  86   114 112 115   157 155 158   132 129 133   119 117 120    89  87  90   118 116 117   111 110 108   102  98  97   136 132 131   154 150 149   188 184 183   141 137 137    41  35  37   119 113 115   184 178 180   129 123 125    74  68  70    69  60  63    91  82  85    92  82  84    73  63  62   105  95  94   158 148 149   189 179 180   168 159 160   148 139 142    80  71  74   125 119 122   113 107 111   146 140 144   195 189 193   180 174 178   160 155 160   105 101 107    70  68  73    31  29  34  
 199 196 201   222 217 223   209 204 210   172 167 173   151 144 151   175 168 175   186 180 186   202 198 200   225 221 222   218 214 215   203 199 201   190 186 187   197 193 194   199 195 196   181 178 179   165 161 162   210 206 207   203 199 200   199 195 196   183 179 180   203 199 198   223 219 215   208 204 201   177 173 170   165 160 158   166 161 158   182 177 174   215 209 206   183 175 173   174 164 165   174 165 166   119 110 111    79  69  69   107  97  95   169 158 156   188 177 175   208 197 195   192 181 180   179 169 168   148 138 139   122 112 113   157 147 149   134 125 128   136 127 132   178 172 176   197 191 195   198 192 196   151 146 150    91  86  90    41  36  40  
 154 149 155   128 122 129   128 121 128   169 163 169   176 169 176   178 168 176   176 168 172   149 144 146   162 158 159   134 130 131   117 113 114   167 163 164   170 166 167   171 167 168   192 188 189   159 155 156   118 114 115   131 127 128   131 127 128   148 144 143   178 173 170   180 175 173   178 173 170   190 185 182   172 167 164   150 142 140   158 150 148   164 156 154   190 182 180   170 160 159   167 157 156   196 186 185   202 191 190   199 188 184   207 196 192   175 164 162   159 148 146   185 174 172   199 189 188   157 147 146   164 154 155   219 209 211   208 199 202   177 168 173   141 132 137   129 120 125   161 153 158   170 165 169   201 196 200   241 236 240  
 146 141 145   136 130 134   200 194 198   216 208 213   193 184 189   175 166 171   169 163 166   155 151 152   162 159 160   128 124 125   136 132 133   184 180 181   190 186 187   196 192 193   172 167 168   160 156 157   137 133 134   146 142 143   138 134 135   196 192 192   176 170 167   205 197 194   193 185 182   145 137 134   130 122 119    77  68  66   118 110 107   141 131 129   130 120 118    95  85  83    95  85  83   119 108 106   144 133 131   130 119 115   108  94  91   118 107 103   158 147 144   169 158 156    84  72  72    22  10  10    47  37  38    84  74  75   144 134 135    95  85  88    67  58  61    36  27  30    86  78  81    57  52  53    30  25  26   141 135 137  
 205 199 204   153 147 151   150 144 148   171 162 167   152 144 149   178 168 173   189 181 183   198 193 194   196 192 193   210 206 207   189 185 186   209 205 206   187 183 184   183 179 180   202 198 199   209 205 206   199 195 196   224 220 221   235 231 232   217 213 212   171 165 162   181 173 170   185 177 174   189 181 178   197 189 186   205 197 194   227 219 216   207 197 195   202 192 190   210 200 198   221 209 208   198 187 185   189 178 176   197 184 183   190 176 175   242 231 229   227 216 214   171 160 158   185 174 173   212 200 200   220 210 211   187 177 178   216 206 207   238 228 231   227 218 221   227 218 221   132 124 127   174 168 170   210 204 206   177 171 173  
 165 160 160   167 160 160   142 133 134   128 119 120   132 123 124   197 188 189   221 215 215   165 161 160   159 155 154   189 185 184   143 139 138    98  94  93   126 122 121   162 158 157   138 134 133   121 117 116   109 105 104   150 146 145   139 135 134   106 102 101    51  46  43    25  19  17    53  45  43   109 101  99   146 137 136   149 141 138   158 149 147   153 143 141   118 109 105    87  78  73    68  57  53    50  39  35    60  49  46    89  78  76   123 112 110   104  93  91   124 112 112   135 123 123    47  36  36    11   2   2    53  43  44    98  88  89   113 104 105   132 123 124   112 103 104    80  71  74   137 128 131   119 110 111   112 103 104   144 135 136  
 192 186 186   182 175 175   192 183 184   214 205 206   210 201 202   160 151 152   178 172 172   192 187 187   203 199 198   207 202 202   224 220 219   224 220 219   216 212 211   165 161 160   139 135 134   252 251 250   226 222 221   197 193 192   175 171 170   211 207 206   221 216 213   209 204 201   232 224 222   252 248 246   252 245 243   248 240 238   208 199 196   193 183 181   208 199 194   204 195 190   195 184 180   173 162 158   149 138 135   204 192 192   236 224 226   215 203 205   180 168 170   183 171 173   173 163 164   155 145 146   155 145 146   106  96  97   139 130 131   178 169 170   154 145 146   116 107 110   151 142 144   180 171 172   212 203 204   208 199 200  
 176 168 165   194 187 184   193 188 184   196 191 187   204 199 196   124 119 115   113 107 105   125 119 119   157 151 151   173 167 167   166 161 161   175 169 169   170 164 164   169 163 163   143 137 137   171 165 165    54  48  48    81  75  75   160 153 153   124 118 118   152 146 146   205 199 199   207 201 201   139 133 133   136 131 129   109 101  99   110 102 100   154 146 143   138 128 126   109  99  97   128 118 113   167 158 153   171 161 158   173 163 163   139 129 132    72  61  65    73  63  64   107  97  98   108  99  99   178 169 170   156 147 148   185 177 178   144 138 138   104  98  98   140 134 134   202 196 196   226 217 218   197 188 186   186 176 175   187 177 177  
 189 181 178   192 185 182   167 162 158   148 143 139   144 139 136   169 164 160   198 193 189   209 203 202   194 188 188   210 204 204   216 210 210   203 197 197   215 209 209   205 199 199   200 194 194   177 171 171   161 155 155   155 149 149   180 173 173   213 207 207   243 237 237   227 221 221   223 217 217   195 189 189   162 156 156   180 172 170   213 205 203   172 164 162   178 169 167   178 168 166   172 163 158   163 154 149   152 142 139   153 142 144   127 116 122    88  77  83    39  28  34    64  53  58   119 109 113   165 155 158   106  98 100   107  98  99   112 106 106   114 109 109   155 149 149   194 188 188   141 134 134   149 139 138   126 116 115   129 119 117  
  99  92  86   109 103  97   117 112 106   133 129 123   168 165 158   164 161 154   147 144 140   183 178 176   169 162 162   148 142 142   153 146 146   130 124 124    80  74  74   109 103 103   208 202 202   144 139 139   119 113 113   139 133 133   148 142 142   147 141 141    97  93  95   107 103 104    87  83  84   130 124 125   196 190 190   186 180 180   184 179 176   186 178 176   158 150 148   145 137 134   150 142 139   178 170 166   214 205 202   189 180 183   168 158 165   194 184 192   185 176 181   173 164 169   174 167 171   164 158 160   175 169 171   200 195 196   212 208 207   239 235 234   243 240 238   239 235 232   154 147 145   199 189 187   213 203 201   206 196 194  
 216 209 201   213 207 198   230 226 217   200 197 189   221 218 211   208 205 200   204 200 197   178 173 172   194 188 188   221 215 215   212 206 206   234 228 228   186 179 178   194 186 184   228 223 220   185 180 177   177 172 170   188 183 184   200 196 197   176 171 175   175 171 172   129 123 125    70  64  66   145 139 139   194 188 188   204 198 198   200 193 193   167 159 157   118 110 107   110 102  99   130 122 119   127 119 115    96  88  84    61  52  55    37  27  35    45  35  43   101  91  99    91  83  89    16  12  14     7   2   4    49  43  44    77  71  71    47  41  40    48  43  40   138 133 130    81  76  73   133 126 123    68  58  56    30  20  18    69  59  57  
 119 113 101   176 173 161   201 199 187   149 146 136    89  86  81   116 111 110    99  95  94   135 131 130   129 124 124   184 178 180   136 127 129    95  86  86   180 172 170   163 156 151   152 145 137    35  30  25    81  77  73   185 182 183   156 153 159   137 134 141   126 120 124   168 162 164   186 179 181   210 201 204   214 205 208   155 146 147   166 158 158   183 175 173   202 194 191   224 216 213   234 227 221   205 198 192   189 182 177   202 195 196   217 211 215   182 177 181   201 197 198   204 199 200   190 184 186   176 170 170   179 173 173   110 105 102   134 129 126   179 174 170   160 155 151   161 155 151   175 168 162   162 155 149   166 159 153   183 178 171  
 191 185 173   198 194 183   185 181 171   180 175 168   214 209 206   186 179 184   224 219 221   207 205 203   217 214 214   209 203 205   197 188 191   184 175 175   197 188 185   206 197 191   200 191 182   138 131 123   125 121 116   108 105 107   148 145 153   157 154 163    88  82  86   134 125 128   153 144 147   136 127 130   123 114 117   103  94  95   129 120 120   138 130 128   121 113 110    64  56  53   132 124 120   151 144 138   109 102  97    90  84  84    79  74  78   131 127 128   117 113 114    39  35  36    74  69  69   101  95  95   136 131 128   169 163 160   123 115 112    73  66  60   116 109 103   142 135 129    86  80  74   120 115 109   162 157 151   190 185 179  
 214 207 199   178 171 164   175 169 164   209 204 201   158 149 151   190 180 188   195 189 193   165 163 160   120 117 115    89  83  85    95  87  89   156 146 147   189 179 178   123 114 109   112 103  94   124 117 109   166 161 156   158 155 155   125 122 128   111 106 113   158 151 155   204 195 196   231 222 223   207 199 200   229 219 221   212 204 202   155 147 145   192 184 182   214 206 204   203 195 192   209 201 198   188 179 176   196 189 186   186 182 182   218 213 217   192 188 189    55  50  52    85  79  81   146 140 140   121 115 115   106  98  96   129 121 119    88  80  77    58  51  46    69  62  56    67  58  53    96  90  84   136 131 126   143 138 134   135 130 126  
 203 194 189   170 160 158   145 135 133   122 112 112   135 124 129   149 138 146   116 108 113   108 104 102   110 106 104   140 134 136   150 141 144   147 137 140   153 143 142   166 157 151   119 110 101    60  54  46    86  79  74    87  82  81    31  26  31    65  60  66   147 141 143   207 198 199   178 169 170   149 140 141   146 137 138   166 158 156   192 184 182   129 121 119    99  91  89   105  97  95   126 118 116   213 205 203   173 165 163   191 184 185   167 162 166   146 142 143   202 197 199   177 171 173   180 174 175   158 152 152   149 142 139   160 152 150   204 196 193   202 195 189   194 187 181   206 197 192   198 189 185   214 207 204   228 223 219   209 204 200  
 139 126 123   192 181 180   189 178 178   194 184 187   199 187 191   219 207 213   219 210 212   216 212 208   203 199 197   219 213 215   211 203 205   198 188 191   149 139 139   149 140 136   172 164 157   183 174 165   180 173 167   189 182 180   221 215 218   233 227 231   216 207 208   206 198 195   185 177 174   195 187 185   206 198 196   183 175 173   147 140 137   118 110 108    89  81  81    78  69  70   116 107 108   192 184 182   177 170 169   185 180 181    38  34  37    21  15  17    82  76  78    66  60  62    43  37  37     7   3   3    10   4   4    56  48  46    54  46  43    16   8   4    24  15  10   181 172 167   190 182 177   131 123 120   117 108 107   125 117 115  
 180 165 158   212 198 196   216 202 201   201 187 186   211 197 197   149 136 135   171 161 157   179 173 165   147 143 137   116 107 107   129 120 123   118 109 112    70  59  61    23  14  10    17   8   1    19  10   3    74  65  58   162 155 151   187 178 180   207 198 201   217 209 207   186 178 175   182 174 171   201 193 191   159 151 149   149 141 139   185 177 175   206 198 197   187 179 180   227 217 219   176 167 168   223 214 214   226 217 219   195 189 192   183 178 182   176 170 172   176 170 172   207 201 203   202 196 197   167 162 162   119 111 109    99  91  89   145 137 134   142 134 129   109 100  95   167 158 153   130 121 119   138 130 128   139 132 129   137 129 127  
 212 196 181   198 183 171   217 203 193   186 172 163   127 112 102   190 176 165   174 164 149   163 157 143   198 191 182   190 183 179   234 225 226   190 179 183   188 177 180   171 161 160   166 157 150   150 141 134   143 134 128   216 206 203   206 196 196   226 217 218   204 196 193   166 159 153   142 135 129    97  89  85    71  63  60    92  85  82    63  55  54    61  52  53    68  59  60    75  66  68    74  65  68   141 132 134    65  56  59    45  38  42    73  67  71   123 117 119    85  79  81   116 110 112   118 110 111   117 108 108   170 162 160   184 175 173   169 159 157   152 143 139   178 169 164   203 194 189   218 208 206   222 213 213   208 199 200   188 179 180  
 168 154 129   165 150 130   155 140 121    47  33  27   103  89  66   185 172 145   212 202 175   179 172 149   172 164 150   192 183 174   132 122 120   124 114 113   120 110 111   127 117 116   120 110 106   189 180 173   194 185 178   199 190 186   212 202 201   152 142 141   184 176 173   204 197 192   206 199 193   207 199 195   216 208 205   178 170 168   131 123 122   195 186 187   222 213 215   186 177 180   144 135 138   130 121 124   107  98 101    79  72  76   101  95  99    56  50  52    11   5   7    24  18  20    31  23  24    18   9  10    18  10   8    62  54  52    29  20  19    41  32  29   161 152 147   188 179 174   170 160 158   147 137 137   121 112 113   134 126 126  
 106  92  55   179 164 132   112  97  65    70  56  20    94  81  39   125 113  65   129 119  75   194 187 154   211 204 179   126 118 102    39  29  21    85  75  73    83  73  72    71  61  60    19  10   5    40  31  24   132 123 117   124 115 111   162 152 151   193 183 182   159 151 147   134 127 121   134 127 121   126 118 114   155 147 144   202 194 192   172 164 163   188 179 180   159 150 152   102  93  96   139 130 133   170 161 164   203 194 197   202 195 198   228 222 226   170 160 164   116 107 110   197 188 191   200 191 193   217 208 209   205 195 194   170 160 159   177 167 165   190 179 176   204 193 189   156 145 141   136 126 125   114 104 104    85  75  75    43  33  32  
 127 114  69   126 113  71   106  93  50   116 104  56   112 101  45   108  99  34   110 100  42   124 115  70   128 118  83   183 173 150   182 170 157    92  81  74   131 120 117   182 172 171   199 189 188   155 146 141   177 168 163   193 183 180   201 191 190   178 168 167   174 166 163   174 167 161   167 159 155   151 143 140   175 167 164   150 143 140   139 131 130    65  56  57    13   6   6    30  22  24    43  34  37    46  36  40    71  62  65   153 146 149    70  64  68   113 104 107   173 164 167    73  64  67    63  54  56   107  98  99    92  82  81   116 106 105   147 137 135   193 182 179   193 182 178   231 220 216   177 166 164   186 176 175   196 186 185   181 171 169  
 149 137  87    97  84  37   128 115  65   123 111  53   119 109  41    81  72   2   115 105  32   134 123  65   118 106  59   102  89  54   190 178 157   186 175 163   187 176 172   194 184 182   206 196 194   223 215 212   209 201 198   208 200 197   214 206 204   226 218 216   219 211 208   205 197 194   208 200 197   202 194 191   234 226 224   240 232 230   228 220 218   185 177 175   172 164 164   143 134 136   139 130 131   164 155 156   208 199 201   211 202 207   130 120 125    99  89  92    77  68  71    56  47  50    83  73  75    46  36  37    93  83  82    83  73  72    42  31  29    90  79  76    85  74  70   101  90  86   150 139 135    59  49  47    51  41  39   123 113 112  
  64  52   4    60  47   9   113  99  47   103  92  29   107  98  22   100  93   5   121 112  28   141 127  58   164 148  93   139 126  83   114 100  72   220 207 193   191 179 173   204 193 191   210 200 198   218 210 207   152 144 141    90  82  79   127 120 117   181 173 171   180 172 170   114 106 104   105  97  95    95  87  85   170 162 160    57  49  47    38  30  28    94  86  84   146 138 138   213 204 205   215 207 207   163 154 155   183 174 175   158 149 151   150 141 146   171 162 165   203 194 197   237 228 231   210 201 202   175 165 166   149 139 138   111 101  99   172 161 159   198 187 183   199 188 184   165 153 150   164 154 149   139 130 126   145 135 133   132 123 118  
  84  71  26    65  52   8    91  78  29    98  86  24   115 106  28   107 102  10   114 105  14   143 127  47   150 134  68   127 111  59   115 101  67   126 112  92   127 115 105   187 177 172   220 212 209   173 168 165   180 175 171   127 122 120   128 122 122   183 177 177   193 184 185   240 232 230   235 227 226   197 187 188   127 118 119    50  42  40   130 122 120   144 136 134   163 155 153   142 134 132   113 105 103   134 126 123    62  54  51    34  25  26    22  13  18   117 108 111   138 129 132    80  69  73    97  86  88   117 107 108   189 177 177   209 198 197   165 154 152   129 118 115   124 113 109   155 141 138   162 151 147   161 152 146   196 187 180   186 177 170  
  39  27   6   143 129  90   178 164 119   121 109  50   116 107  30   108 103  10   119 109  13   140 124  36   144 126  51   153 134  77   159 141 102   103  88  65   134 123 110   239 235 229   209 202 198   169 163 161   167 162 161   193 189 189   200 196 197   133 127 129   167 158 161   178 169 170   118 109 110   118 109 110   182 173 174   199 190 191   219 211 209   223 215 213   202 194 192   186 178 176   195 187 184   224 216 213   193 185 183   173 164 166   136 127 131   152 143 146   102  92  95   115 104 108   149 139 140    41  31  32    72  61  61    80  69  68    25  16  15    31  21  18    52  41  37    97  83  80   119 106 102   143 133 127   102  93  86    49  40  33  
  45  32  16   207 192 159   184 171 131   107  96  40   114 106  32   113 107  15   132 122  24   155 137  44   154 134  54   162 143  80   174 158 115   103  88  61   151 140 125   213 203 197   222 214 211   228 224 221   212 209 208   183 181 181    56  55  56     4   1   1    46  40  42    57  48  51    24  15  18    32  22  26    92  83  84   199 190 191   127 118 118    84  76  74   125 117 114   161 153 149   196 188 183   175 168 162   152 145 140   202 194 195   211 202 207   217 206 210   169 158 162   170 159 163   187 177 179   191 181 182   204 192 192   165 154 153   148 137 135   149 136 133   148 135 131   159 145 142   178 166 159   174 164 154   165 155 145   174 164 155  
 143 127 101   195 178 149   143 127  93   109  96  48   143 132  72    95  87  11   140 129  46   169 153  69   149 131  56   185 166 106   135 118  73   159 146 114   163 151 131   212 203 190   190 183 175   133 125 122   169 163 161   136 131 131   156 152 153   125 119 121   164 158 160   176 167 170   190 181 183   182 173 174   225 217 215   231 223 221   210 202 200   201 193 191   216 208 206   213 205 203   196 188 185   201 192 190   161 153 150   136 128 129    92  83  88    86  77  80    87  78  81    34  24  27    35  25  27    64  54  55   159 149 148   164 152 151   190 179 177   206 192 190   208 194 191   224 211 208   216 203 198   203 193 184   199 189 180   190 180 172  
 128 110  86   167 150 124   173 156 126   209 193 158   159 146 105   129 116  70   146 133  80   177 163 106   113 100  44   122 110  60   205 192 148   165 153 115   150 139 110   222 212 190   165 156 141   160 150 140   156 147 140    41  31  28   116 106 104   231 223 221   202 193 196   151 145 147   197 192 190   206 202 194   212 208 199   182 179 170   213 207 200   232 224 222   223 214 215   197 188 191   149 140 141   188 180 180   203 195 193   170 164 165   164 158 161    87  80  83    99  93  95    95  88  88   110 102 101   198 190 188   159 151 148    86  76  74    77  67  65   116 105 103   152 141 139   125 114 112   150 139 134    77  68  61    80  71  63   122 113 106  
 126 109  88   103  85  63   164 147 122   222 205 177   198 183 154   215 202 170   199 186 150   157 146 103   158 147 101   133 122  74   181 171 120   187 177 130   142 133  93   204 195 164   140 129 108   216 204 193   142 129 122    46  33  27    22  11  10    56  45  40   178 169 170   218 209 210   110 103  99   138 131 122   215 209 197   184 178 166   190 182 176   188 180 178    78  70  71   101  92  97   141 131 134    77  69  69    95  87  85   137 130 131   139 134 138   158 154 155   149 144 145   188 182 182   223 216 214   230 222 220   157 149 146   178 170 167   220 210 208   227 216 214   218 208 205   199 188 186   188 177 173   194 185 179   199 190 184   179 170 165  
 202 189 171   152 137 115    96  80  57   130 115  90   179 164 138   156 145 115   153 142 109   180 169 132   173 163 116   158 149  94   107 101  39   123 116  56   142 134  83   171 161 124   174 161 141   229 215 206   151 136 130    50  36  27    67  56  40    46  33  19    25  14  12   123 113 113   190 180 176    85  76  68    84  78  66   164 157 147   178 169 163   125 115 114    65  54  57    70  59  65    44  36  38    83  75  72    58  50  47    22  15  14     5   1   1    11   5   5    24  20  19   110 105 102   120 113 110   101  93  91   164 154 152   132 122 120    81  71  69    75  64  61   119 108 104   150 139 135   162 152 148   191 182 177   192 183 178   193 184 179  
 212 203 188   209 197 180   170 158 139   105  94  73    87  77  53   142 132 107   234 225 198   227 220 189   184 175 130   168 162 101   113 109  36   102  98  26   105  99  37   126 117  75   153 142 118   214 200 191   147 129 124    56  40  28   105  89  69   172 160 138    70  57  50    38  24  22   111  98  91   195 184 175   205 195 186   140 128 123   134 123 122   195 183 186   206 195 200   199 188 192   192 182 182   196 188 184   214 207 199   196 190 186   147 141 140   126 120 120   198 192 191   231 226 223   211 204 202   212 204 202   187 177 175   184 174 172   176 166 164   175 164 161   184 173 169   153 143 138   140 130 125   154 145 140   158 149 144   130 121 116  
 236 231 222   208 201 190   210 203 188   193 186 168   137 129 109    87  79  58   135 124 104   192 182 157   164 157 115   146 141  78   140 137  57   122 119  38   121 114  44   154 143  96   223 208 184   235 218 208   115  96  89    62  45  31   111  96  69   208 193 166    92  76  64    58  43  38    91  77  69    77  63  54   203 188 180   205 192 189   164 150 150   166 152 157   106  93 100    52  40  44    70  58  57    51  42  35    93  86  75   110 104  98   213 208 204   204 196 194   178 170 168   149 141 139   115 107 105   139 131 129   167 157 155   176 166 165   191 181 179   203 194 189   203 194 189   202 191 187   187 177 173   229 221 215   241 234 228   218 211 205  
 243 242 238   240 236 230   214 210 200   205 200 187   210 203 187   143 136 120   107  99  82   107  98  77   150 142 103   156 152  90   120 119  38   119 116  33   101  94  22   173 163 112   228 212 184   197 179 165   129 109  99    64  44  29   116  97  70   137 119  91    59  41  28    65  46  38   104  86  76    97  79  69    56  39  31   132 114 112   206 189 192   165 149 155    83  68  75    41  28  31    28  17  15    37  27  16    98  89  75   166 159 150   166 158 154   125 117 114    82  74  72    77  69  67   125 117 115   164 156 154   139 129 127   176 166 164   136 126 124   143 134 130   129 120 115   173 162 158   161 153 147   112 105  99   103  96  90    68  61  55  
