P3
50 50
255
  66  58   9   106  96  45   132 121  71   176 163 114   188 171 125    48  31   1    54  35  18   173 151 116   221 198 166   180 156 128    64  42  21    31  12   1    69  52  15   117 103  40   144 132  56   121 110  28   114 103  22    96  85   7    84  72   1   134 122  49   135 126  49    85  77   1   117 110  22   145 139  45   151 144  47   155 151  51   151 148  49   108 105  18    84  82   1    79  76   1   104 100  28    72  67   4    69  62   8    60  53   1    87  80   2    98  90   6   113 107  15   104 100   2   115 111  10   129 126  19   131 131  21   115 115  10    93  94   1    82  83   1    99 100   8    94  94   4   109 111  19   122 126  32   110 116  17   107 115  14  
  75  70  20    96  90  39   153 145  93   196 184 136   135 122  76    20   5   1   108  90  53   212 192 160   199 178 149   110  88  63    30   9   1    37  18   1    60  43   5   101  87  24   135 123  48   111 100  18   107  96  15    89  78   1    87  75   1   120 108  34    93  84   6   104  96  14   136 128  40   151 144  50   143 137  40   147 143  43   128 124  24   113 111  14    83  81   1   111 109  27   170 167  90   153 148  76    98  92  30    70  63   1   107 100  21   111 103  18   117 111  20   117 112  16   106 103   2   113 110   5   126 125  17   118 118  11   102 103   1    98 100   2   114 115  21    85  86   1    97  99   7   115 119  23   114 120  19   107 115  12  
  64  61  12    37  34   1    73  67  20   157 149  99   103  92  47    37  23  11   167 152 118   176 157 130    85  65  41    53  32  11    42  24   4    39  22   1    38  24   1    53  42   1    84  75   3   111 103  22   111 103  21   115 107  29   120 111  36    84  75   3   100  91  11   132 124  40   152 145  56   156 149  55   105  99   5   124 121  21   141 137  37   129 127  29   115 113  20   161 159  73   135 132  52   160 156  80   101  95  23    72  65   1    92  85   4    88  80   1    91  85   1    90  86   1    95  91   1   109 106   4   121 120  14   104 104   3    84  85   1    92  94   1   119 120  25   105 107  12   100 102   7    96 100   2   102 109   6    94 101   1  
  78  77  24    49  48   1    76  74  22    86  81  30    82  76  28    44  34   7   140 126  92   180 165 136   122 106  82    70  52  32    67  49  29    42  25   1    69  55  15    84  73  11    93  84  10   122 115  34   118 111  30   110 102  23   127 118  42   142 133  58   100  91  11   163 156  69   164 158  66   123 117  22   110 104   6   149 144  44   155 152  52   132 129  31   141 139  45    91  90   5    83  81   3   100  96  22    74  68   1    86  79   1   102  96  11    99  92   2   102  95   4   109 104  11   114 109  12   111 107   7   114 113   9   114 113   8   119 120  17    98 100   6   101 103   6   111 113  18   117 120  22   122 127  25   125 132  25    94 101   2  
  91  92  33    80  81  21    99 100  41   114 113  57   109 106  55    58  51  12   175 166 129   221 208 179   191 177 153    70  53  33    58  41  21    51  36   6    91  78  33   104  93  31   113 104  30   131 124  44   153 146  65   123 116  37   119 111  35   158 150  75   103  95  14   127 118  32   109 100   9   111 102   8   115 107   9   147 142  42   149 144  44   124 120  21   133 129  33    78  74   4   186 181  97   144 139  57   112 105  25   104  96  14   103  96   8   104  96   5    90  85   1   100  95   5    92  87   3    93  89   1   123 121  18   127 126  23   109 109  10    95  96   1    95  97   1   107 109  12   110 113  15   130 135  32   126 133  25    86  93   2  
 115 120  54   109 114  47    96 101  34   101 103  42   118 117  61    79  77  26    53  48   5    84  74  41    65  53  26    41  27   3    33  17   1    34  18   1    55  43   1    97  89  26   144 141  65   112 109  28   137 134  53    92  88  12    65  59   1   105  97  24    96  88   6   105  96  13   102  93   6   119 110  15   124 116  19   155 150  50   130 125  25   135 131  31   129 125  28    98  95   2   130 126  37   115 109  26   133 127  44   113 106  19   107 100   9   125 116  22    92  86   1    93  88   7   103  98   5   109 105   6   134 132  31   133 132  29   112 113  13    93  94   1   102 104   7   120 122  25   101 104   4   115 121  17   120 127  18   112 120   9  
  78  86  11   110 118  43   105 113  39    97 105  35   101 107  42    35  35   1    63  60  13    68  62  23    60  50  20    37  23   2    28  12   1    46  32   1    73  63  17   128 122  58   126 123  47   120 116  35   114 111  31    76  73   4    66  61   1   117 109  36   116 108  27   130 122  35   133 124  31   125 115  20   121 113  15   148 143  43   135 131  29   147 144  41   140 138  37   119 116  21    86  82   1   105 100  16   139 133  47   136 129  41   151 145  52   136 128  33    75  67   1    83  77   3   104  99   8   106 102   5   117 115  13   107 106   3   127 127  26   128 129  30    90  92   2   107 109  12   110 113  13   135 141  37   136 143  34   111 119   8  
  84  93  14   102 114  32    99 111  30   105 116  39   123 131  62    63  66   6    55  55   4    67  63  19    61  54  18    35  24   2    42  28   2    43  31   1    50  41   1    86  82  17   110 108  32   129 129  47   115 114  32    82  80   4    93  90  17    98  93  17    92  85   6   146 137  51   108  99  15    81  72   1   136 128  32   143 138  38   139 134  31   141 138  33   120 118  16   145 143  43    84  81   1   101  97   7   102  96  11    98  93   2   117 111  16   111 103   4   102  94   4   109 102  13   103  98   7   113 108  12   126 124  23   115 114  11   139 140  39   148 149  50   110 112  13   115 117  19   117 119  20   132 137  33   118 126  16    97 105   1  
 114 123  39    86  98  12   103 115  30   117 128  48   126 134  61    83  88  24    51  51   4    65  61  15    51  42   4    31  20   1    25  11   1    46  33   1    59  50   1    63  59   1    80  81   4   110 112  29    94  95  17    77  76   2    91  87  14    80  74   2   159 152  73   178 167  83   114 103  16    84  74   1   129 119  25   149 141  42   149 142  40   124 119  20   126 123  22   123 119  18   107 102   7    85  79   1    91  84   1   100  91   1   123 115  18   120 111  11   116 108  12   115 109  18   110 105  12   129 125  26   146 144  43   132 131  28   132 133  32   109 111  12   113 115  18   139 141  44   118 121  21   123 128  24   116 123  13   100 108   1  
 113 124  38    99 113  25   100 114  27   119 131  48   116 127  50   100 106  39    70  70  14    81  78  30    49  42   6    47  37   3    45  32   3    87  78  38    97  91  36    61  60   7    54  56   1    94  98  14   106 109  29    89  90  14   111 109  37   106 100  28   137 129  53   114 103  21    93  81   3    80  68   1   106  96   2   137 129  29   138 132  27   130 126  19   154 150  45   107 104   6    80  76   2   118 114  18   106 100   6   115 107  11   156 148  47   120 111   7   104  96   1   105 100   8   121 116  22   133 129  30   145 143  40   145 144  41   118 119  17   116 118  19   120 122  25   125 127  30   118 121  21   118 124  20   111 118   9   125 131  21  
  99 109  25    87 100  15    76  90   7    99 112  29    93 104  28    90  96  30    64  64  10    75  70  25    43  34   4    46  35   4    74  64  28    85  77  33    94  88  31   106 107  35   120 125  43   118 123  39   114 118  38    99 101  25   108 106  34    91  85  15   116 107  35    85  73   1    95  82   2    86  74   1   123 113  20   128 120  22   117 111  13   141 137  30   129 126  19   116 113   7   100  96   1   120 116  17   161 155  57   148 140  42   140 132  31   134 125  20   109 102   2   105 100   9   123 119  23   123 119  20   124 122  19   138 137  33   123 124  21    91  93   3   111 113  17   124 125  30   103 105   8   108 113  12   116 123  16   119 126  18  
 121 129  48    89 101  19    83  97  15    99 112  31    98 109  33    96 102  36    67  67  12    71  66  22    54  45   9    55  44  12    73  63  27    90  82  36   105 102  42   113 114  41   110 115  34    92 100  15   105 112  31   107 110  35    89  87  17    92  85  16   154 146  72    92  80   4    97  84   3    99  87   1   118 108  14   109 101   4    99  93   8   129 125  17   120 118   9   170 167  60   141 138  35   157 152  52   159 154  54   157 150  49   141 134  31   120 112   6   105  98   1   105 100   6   116 112  17   124 120  21   115 114  10   114 114   8   131 132  29   121 123  23    89  91   2    70  71   1    91  94   4   113 118  16   119 126  20   124 130  24  
  91  98  21    89  99  19    79  91   9    78  91  11    87  97  24    85  91  28    73  72  21    55  50   9    44  34   2    54  41  12    64  54  17    74  67  18    89  86  26    83  85  12    92  97  15    96 104  20   110 116  36    83  86  19    94  92  27   125 120  52   122 113  41    85  73   1   105  92  11   109  97   8   109  99   5   118 110  10   130 124  19   130 126  18   115 113   4   135 132  25   133 130  27   111 107   7   126 121  21   147 139  39   129 122  17   143 135  26   125 118  15   101  96   1   107 102   5   123 119  19   106 104   4    87  87   1   131 132  30   130 132  32   108 110  13   102 103   9   109 111  16   113 118  18   119 126  22   109 115   9  
  87  93  19    79  88  11    91 101  23    80  91  13    82  91  15    86  91  22    97  97  40    54  51   7    37  28   1    60  50  23    48  40   3    70  65  17   105 105  42    93  97  19   106 112  24   115 124  35   111 119  34    98 101  24   127 128  57    90  86  18    89  81   9    96  87  13    99  88  11   132 122  34   133 123  33    93  85   1   102  97   1   120 116  10   129 126  18   138 136  27   123 120  13   153 149  44   138 133  29   133 127  22   107 100   3   133 125  19   132 125  24   102  96   4   100  95   1   105 101   3    85  83   1    69  67   1   133 132  36   128 128  31    89  90   1    90  91   2   108 110  16   101 106   8   109 114  13   112 117  15  
  82  85  10    99 102  29   106 109  38    95 101  26    86  93  15    92  97  18   111 115  45    52  52  13    26  23   1    33  27   7    32  25   1    62  58  16   106 106  41    91  96  12   121 128  33   102 110   9    96 103   9   106 111  26   105 106  30    88  85  14   119 116  41   143 139  59   115 109  24   144 138  52   145 137  52   118 111  23    85  81   2   139 135  34   145 141  36   113 109   3   113 110   4   139 134  27   117 110   4   109 102   1    88  81   1   123 116  11   143 134  39   100  91  11   116 109  26    85  78   4    71  66   1    73  69   3   125 121  27   133 130  38   115 112  25   105 103  18    89  88   1   102 103  11   104 105  12   117 121  26  
  71  73   1    80  82  10    75  76  15    88  91  22   105 109  28   103 109  24   116 121  43    63  67  16    31  30   3    33  27  10    49  43  16    67  63  20    95  95  31    86  91  10   110 118  19   116 125  20   109 117  18   129 135  47   124 127  50   113 113  40   155 153  79   134 132  56   158 156  74   122 118  37    91  85   5    95  89   7    75  69   1   112 107  18   140 135  32   122 118  10   136 132  22   166 161  51   137 130  22   124 117  11   101  94   1   123 115  15   130 121  34    79  68   1   107  97  23   109 101  19    81  76   1    94  89   2   116 111  20   127 123  33   129 126  38   117 115  30   103 101  16   105 105  16    97  98   5   106 109  18  
  89  89  15    80  80   8    73  73   3    91  93  19   106 109  29    94  99   9    97 101  20    60  61   8    40  37   6    58  53  33    68  62  37    49  44   3    94  94  32   127 131  49   102 109  13   131 139  38   127 133  40   143 148  64   109 111  38    68  67   2    68  64   1    74  70   8    89  83  13    70  62   1    65  57   1   104  97  17    94  89   5    99  95   6   125 120  19   132 128  21   146 142  32   137 133  25   107 103   1   121 114  13   128 120  22   120 111  17    92  82   3    78  67   2    85  75   6   108  99  22    84  78   3   119 113  24    99  95   4    86  82   1   101  99  13    91  89   4   100  98  13   111 111  22   101 104  11   104 107  16  
  73  73   3    93  93  22    77  77   7    84  84  10   103 107  23   106 111  19   112 116  31    67  68  13    24  22   1    44  38  17    58  52  27    75  70  32   108 108  50   117 121  42   100 107  13   147 155  57   122 128  36   126 131  50    80  82  18    44  44   1    46  44   1    73  68  11    62  56   4    60  53   1    76  68   2    82  74   1    96  90   8   125 119  28   117 113  15   144 139  35   133 129  21   120 116   9   114 110   5   117 110  11   124 115  22   119 109  22    75  64   1    74  62   5    79  68   8   101  90  20    87  80   5   129 124  39   102  98   9   115 113  23   134 132  45    89  87   1    93  91   7   109 109  20   106 109  16   106 109  19  
  79  77   4   102  99  28    79  76   6    90  88  12   103 106  19   111 115  20   131 134  44    93  93  24    41  37   1    59  53  27    73  67  41    64  60  23    76  75  19    88  91  15   133 138  49   144 154  58   131 139  49   106 111  32    68  69   3    58  56   2    77  71  25    31  24   1    29  21   1    49  39   1    41  31   1   116 108  42   150 144  68   128 123  36   141 137  40   131 128  25   126 123  16   116 113   7   115 110  10   121 114  21   120 112  27    97  88  11    48  38   1    37  24   1    69  56   7    82  71   6    75  67   1   101  96  10    96  92   5    80  78   1    91  90   2    57  57   1    68  68   1    87  87   1    85  87   1    79  82   1  
 100  98  24    87  84  14    86  83  13   127 125  48   127 127  40   116 120  24   128 131  40    99  99  25    45  41   1    51  44  15    86  81  51    54  50  13    71  71  15    88  92  17   152 158  69   116 125  32   149 157  69   123 127  51    92  92  31    83  81  31    61  56  19    22  14   1    35  26   1    71  62  22    95  85  34   113 104  46   136 128  60   124 119  37    88  83   5    87  83   1   112 109   5   105 101   1   102  97   5   122 114  28   115 106  27    75  66   1    66  54   4    79  65  17    91  78  25    86  77  11   102  95  16   114 108  21   111 108  16    89  87   1   102 101  10    94  94   6    93  93   8    98  97  14    92  93  10    89  90  10  
  76  72   1    77  73   7    93  88  19   107 104  28   115 113  27   125 127  29   136 138  44   111 110  32    56  50   5    35  30   1    43  38   7    85  82  42    99 100  43    83  87  12   132 141  53   110 119  28   149 158  70   153 159  82   116 116  55    77  75  28    27  21   1    45  36   7    53  43  15    50  39   6    72  63  21    85  77  27   107 101  38   105  99  23    78  74   1    90  87   1   145 143  43    97  93   1   100  95  10   131 124  42   128 120  46    78  69   4    68  57  14   105  92  40    95  84  26    88  80   9   109 102  20   111 107  15   106 103  10   104 102  10   106 105  13    97  97  11    74  74   1    75  76   3    88  89  11   101 101  26  
  71  67   2    94  90  20   101  97  28   108 105  28   119 117  30   137 139  42   129 130  37   101 100  22    59  54   4    38  32   1    11   7   1    37  34   7    58  59  12    98 104  36   137 145  60   137 146  56   157 165  79   149 155  79   107 109  47    51  48   4    42  36   3    51  43  16    60  49  27    71  60  34    75  65  30    64  55  11    90  83  26   110 104  33   114 109  25   122 119  27   167 164  69   113 110  16   140 134  47   119 112  34    84  75   6    71  61   2    51  41   1    76  65   6    94  85  17   108 101  22    98  94   4    92  89   1   100  99   1   108 108  11   102 102  11   113 112  30    95  93  17    97  97  24   100 100  29    95  96  29  
  74  70   1    75  70   5    82  77  12    84  80   8   125 123  39   120 122  25   117 118  26    74  72   9    40  34   1    33  25   1    37  33   1    34  32   1    62  63  22   142 147  73   167 175  90   140 150  61   125 134  49   109 116  40    82  84  22    33  32   2    54  48  13    45  37  11    58  47  27    71  60  36    57  48  16    49  41   2    65  57   8    80  75  13    75  72   1    94  93   4   147 143  52   107 103  13   109 104  20   105  99  23   113 105  39    70  62   2    57  47   1    85  77  11   100  92  13    84  79   1    79  76   1   110 109  10   126 126  25   123 123  27   118 118  31   111 109  32   106 106  36    84  83  20    87  87  27   115 114  56  
  84  80  13    38  33   1    55  49   4    80  76   6   120 119  38   104 105  12    94  95   6    69  67   4    44  38   1    43  37   1    62  60  16    73  74  21   128 131  70   128 134  63   123 130  50   127 136  53    86  95  18    50  56   1    47  49   1    24  23   1    67  62  26    64  56  31    45  34  14    46  35  12    39  30   1    41  33   1    57  51   2    82  77  14    88  85  10    80  78   1   104 102  15    98  94   8   104  99  19   123 117  43   129 121  55    80  72  10    78  70   2    82  75   3    77  72   1    86  82   1   122 120  17   132 131  28   127 127  27   107 107  15    76  75   1    69  69   6   116 114  51    70  68  12    68  66  15    71  69  20  
  79  74   6    67  63   1    61  57   1    94  91  25   115 113  37   111 112  25    94  97  15    67  67   2   103  99  55   137 131  97    86  83  37    86  86  33   154 157  96   139 144  78   118 126  53   108 116  41    74  82   7    57  64   3    92  94  40    89  88  39    56  51  14    83  75  48    38  27   7    51  43  18    60  54  22    78  73  34    94  87  38    96  92  32    99  96  25   100  97  20   105 102  21   102 100  18    85  82   5    79  75   2    75  70   1    68  60   1    76  69   1    73  67   1    80  77   1    98  96   1   136 134  33   129 128  28   141 140  45   104 103  22    33  31   1    39  38   1    55  53   1    60  58  12    64  62  14    61  58  13  
  76  73   4    86  82  19    68  63  12    75  71  13    82  82   9    58  60   1    71  71   3    68  68   6    53  49  11    63  58  28    55  54   9   112 113  60   129 132  76   121 126  65    73  79  15    65  72   5    87  93  27   111 117  55   148 152  97   148 147 100    53  49  12    54  49  20    46  39  14    43  36   8    54  48  14    82  77  37    90  86  37   126 122  64   126 123  58    92  90  17    91  89  11    87  84   6    82  78   3    69  65   1    69  64   1    95  88  20    92  86  10   118 113  25   129 126  32   118 115  18   114 111  14    98  98   4   113 112  26    69  68  11    74  73  11   111 108  55    35  31   1    49  46  16    58  55  12    63  61  17  
  90  89  23    65  63   6    84  81  26   120 118  59   100 100  33    80  83   6    77  78   7    64  63   8    63  58  25    32  28   3    93  92  50   124 125  75   101 103  53    52  55  14    18  22   1    11  18   4   107 113  59   131 136  83    98 101  51   123 123  78    43  38   2    48  43  12    49  42  14    70  63  31    75  71  33    82  77  35    72  68  19    88  85  29    81  79  16   102 100  31   107 104  33    86  84  11    72  70   1    68  65   1    77  73   1    90  86  13    78  72   2   114 109  25   123 119  32   104 100  13   107 105  18   117 114  33   107 104  30    53  49   5   103 100  49   110 106  60    30  27   1    32  28   4    59  57  17    49  47   6  
 100  99  32    68  65   7    68  66  12    71  70  14   104 104  41   101 102  32    75  78  12    68  68  18    43  39  13    26  21   2    78  76  36   106 106  59   113 114  70    76  78  35     8  11   1    60  66  22    82  87  42   134 137  92   105 106  63    48  49   9    30  26   1    40  35   6    37  30   5    66  62  27    78  74  34    49  45   4    32  28   5    79  76  21    91  89  29    89  88  24    50  47   1    83  80   8    85  83   8    75  72   1    70  67   1    71  68   1    87  83   6    98  92  14   106 100  22    84  77   2    88  85   8   100  96  25    75  71   8    52  49   1    49  46   1    64  61  23    34  30   1    41  37   3    48  45   5    28  26   1  
 107 108  41   129 128  69    75  73  21    73  71  17    91  91  32    96  99  32    76  77  15    60  60  14    33  31   9     6   3   1    50  47  11    90  90  47   147 147 109    89  90  55    39  40   7    18  22   1    43  47  18   115 117  79   104 104  66    43  40   5    37  32   4    66  61  32    37  30   4    48  43   8    76  73  29    67  64  18    95  92  43   118 115  62   115 112  55   101  99  38    75  71   6    85  82  13    83  81   9    87  85   9   108 107  27    94  90  10   100  96  19   100  93  23    93  86  18    64  57   2    73  68   2    71  66   8    57  52   5    79  74  31    58  52  17    76  71  39    38  33   1    37  33   1    41  38   1    69  67  26  
 101 103  38   154 158  99    90  93  42    89  91  41   100 103  48    80  81  23    48  48   1    25  23   1     8   3   1    48  42  30    67  62  35    47  45  14    45  44  16    40  39  15    26  26   2    25  25   1    35  36  19    71  72  40    56  56  23    63  61  26    86  82  50    78  73  46    53  48  21    69  65  26    98  96  48    68  66  15   103 101  47   121 120  64   125 125  66    78  77  13    74  72   7   106 103  35   135 132  59   104 103  24   106 105  22   102 100  15   110 106  28   114 110  42    72  67  14    43  37   1    85  79  19    81  75  19    74  68  18    69  64  20    87  82  44    62  58  21    54  50  13    62  59  21    69  67  27    84  82  43  
 139 147  87   126 133  78   147 154 104    79  85  39    71  74  31    35  35   2    50  48  13    26  22   1    68  62  43    77  69  55    23  17   7     8   4   1     5   1   1     5   1   1    24  21   7    33  30  13    60  58  36    72  71  43    69  67  36    70  67  34    98  95  60    84  81  51    61  58  28    88  88  39    66  67   9    70  71  11    73  75  12   136 137  72   135 136  71    72  73   7    99 100  31   107 106  36   119 116  43   135 133  53   131 129  42   119 118  26   120 118  35   105 103  34    81  78  16    78  74  12    84  80  19    75  70  13    88  81  26    91  86  31    87  82  27    88  85  34    99  97  50    64  61  20    61  59  21    34  32   2  
 147 158 100    99 109  54   110 120  70    54  62  22    32  38   1    39  40   6    40  38   9    52  47  22    66  58  36    23  15   4    13   7   1     7   2   1     9   4   1    14  10   2    10   5   1    52  49  32    47  45  24    72  71  45    80  78  48    35  32   5    86  83  48   132 130  91    90  89  47    89  88  37   116 117  57   104 106  43    97  99  34   104 107  40    63  66   8   104 107  41   148 151  84    92  93  25   113 113  40   151 150  70   144 144  57   152 153  60   114 115  30    63  65   2    72  72  13    92  90  29    79  77  18    74  69  10    80  76  15    73  69   7    85  81  20    93  91  32    87  86  33    63  61  18    90  89  52    75  74  44  
 142 153  96   126 137  82    39  49   8    43  51  11    36  41   2    27  29   1    41  39  11    67  62  37    31  23  11     8   1   1     7   3   1     6   3   1     9   6   1    26  24  15   101  99  84    64  61  42    52  50  28    96  95  68    92  91  60    61  61  27    26  23   1    72  69  34    91  89  49    93  95  45   120 123  66    85  89  31    53  57   1    62  67   4    66  71   7    79  82  18   137 139  76   128 129  64    88  89  21    85  86  12   108 109  29   107 110  23    90  94  13   103 106  36    70  72  12    70  70   9    88  88  28    64  62   2    71  68   7    65  61   3    82  78  17    82  80  21    61  58   5    40  38   3    33  31   1    42  38   9  
 114 124  69   103 113  60    51  61  22    36  45   5    33  40   1    81  86  46    99  99  68    46  43  22    32  26   8    54  47  29     5   2   1     9   7   1     9   7   1    58  57  43   127 126 106    12  10   3    65  63  39    91  90  61    70  69  38    45  44  13    41  38   5    50  47  13    69  67  28    63  64  17    65  68  13    83  86  29    98 102  43    98 102  43    99 103  44    49  53   4    63  67   8   136 140  78   122 127  62    86  90  20    43  47   1    60  65   1    96 102  27   151 157  89   116 122  57   116 117  57    78  78  20    77  77  19    59  58   1    63  62   1   100  96  33    88  86  25    64  61   8    51  50   3    42  41   1    28  25   1  
  76  86  34    93 104  51    90 102  49    33  43   4    18  27   1    54  58  18    67  68  35    36  33  18    30  25  10   105 100  81    22  22   3    19  21   7    37  39  17    33  35  13    56  56  32    71  71  45    88  88  60    92  93  63    48  48  17    44  43  13    45  45  11    54  53  19    89  87  50   108 109  62   111 115  60    75  80  24    69  74  16    97 102  44   105 110  52    79  84  26    46  51   4   100 105  45   117 123  60    98 105  38    54  61   3   120 130  60    84  94  24   110 119  53   135 142  79    99 105  45    53  56   5    87  88  32    70  69  13    81  80  17    68  66   5    55  53   4    77  75  25    43  40   1    40  38   1    41  38   4  
  50  60  10   114 125  73   169 182 128   149 160 106    24  34  10    40  46   3    68  71  36    52  52  25    27  25   3    83  82  61    59  62  35    90  93  64    82  85  56   106 109  80   115 118  89    70  73  44    68  69  38    95  96  64    44  44  13    56  56  22    25  25   1    33  32   2    51  50  12    89  92  44   115 119  62    90  95  39    68  73  17    92  97  41   101 106  50    89  94  36    47  53   4   104 113  53   110 119  57    74  84  21    70  81  15   134 146  80    88 101  34    82  93  29   114 124  62    65  73  13    85  90  32    79  81  24    61  61   3    52  50   1    70  69   7    77  75  15    61  59   8    64  61  14    48  45   5    34  31   1  
  28  40   1    72  85  32   147 160 106   149 162 108    76  86  34    50  58  11    56  60  22    61  61  33    27  26   3   113 113  89    96 101  69   116 122  86   134 140 105   117 123  89    67  71  38     5   9   1    61  64  31   138 139 107   112 112  80    43  43   9    39  39   5    39  39   7    85  86  47    98 102  51    65  72  13    93 101  42    93 100  42    80  85  29   103 108  51   151 157  98   116 125  62    96 106  43    92 103  39    67  79  15    96 108  46   110 123  62   143 158  95   151 164 100   117 128  66    92 100  41   104 109  53    72  74  17    77  78  27    58  56   1    86  84  23   109 107  48   102  99  46   133 128  83   100  96  58    86  81  46  
  36  48   7   115 128  74   125 138  83   113 125  71   142 155 102   109 118  71    71  77  37    81  83  53    66  66  41    72  72  46   121 128  89   149 158 115   154 162 120   114 120  81    65  71  33    54  60  24   108 112  77   152 154 120    94  95  61    52  52  16    84  84  49    46  46  13   112 113  72   122 128  73    82  91  27    86  95  32    68  75  16    86  91  33   103 109  49   114 120  56   109 118  53    64  74  21   103 115  46    75  90  24   135 149  87   136 151  93   123 138  78   160 173 110   129 140  78   114 122  63   140 145  89    77  80  22    97  97  38    79  78  17    73  71  10    80  78  19    97  93  40   116 112  67   130 125  87    66  63  27  
  40  52   7   125 139  87   146 161 105   142 157 101   151 164 111    82  94  44    87  95  53    73  77  43    81  84  56    80  83  52    99 108  65   137 149 101    98 109  62   107 116  72   142 149 107    86  93  52   106 110  73    80  83  46    59  61  24    71  73  34    63  63  23    56  57  16    89  91  45   109 114  54    71  81  10   112 119  52   101 106  43    82  86  25    85  90  27    85  90  23   105 114  40    76  87  14    84  97  24    93 107  37   125 139  76    85 100  43   106 121  63   113 126  63    85  95  33   113 121  62   153 158 102   143 146  90    82  83  24    79  78  17    79  77  16    98  95  37    76  73  20    53  49   4    50  45   7    48  43  11  
  28  42   7   118 132  81   128 143  89   124 139  84   116 131  77    49  63  12   108 119  74    87  94  56   108 114  80   106 112  76    60  72  24    66  79  26    56  69  17   102 114  66   102 111  66   119 128  85   138 146 103    96 102  61    93  98  57   100 103  61    58  61  16    64  67  19    81  84  33    76  84  19    73  83  10    87  94  26    89  96  30   109 113  49   119 121  55    76  79   9    91  98  21   101 110  31   100 112  33   122 135  62    82  97  31   103 118  61   124 138  80    57  69   6   132 143  81   154 162 103   138 141  84   121 121  64    81  80  23    73  72  13    68  66   7    84  81  25    83  79  28    60  56  12    66  61  25    82  77  44  
  76  89  43    59  74  24    65  82  29   110 126  72    48  63  11    62  76  27   146 157 112    90  98  56    48  54  16    79  87  46    54  68  17    48  63  11    71  85  31   117 129  80   117 126  80   102 111  66   144 151 109    88  94  51    92  98  53   102 105  58    84  88  38    82  86  35   127 131  75    82  89  28    84  95  21    81  88  18   104 108  43    84  85  26    76  77  13   112 114  40   122 124  43   139 143  59   103 110  28   158 168  93   127 137  73   112 123  67   111 121  65    71  80  17   104 110  48   173 177 117   114 115  58    80  79  23   103 102  45    81  77  20    74  69  11    72  67  11    67  61  13    51  46   5    60  54  23    69  62  34  
 162 176 127    89 103  54   120 136  87   136 151 103    97 113  63    95 111  62    58  71  23    77  87  43    81  90  47    53  62  17    39  53   1    57  75  18   105 120  66   122 136  85   115 127  79   131 142  95    92 101  55    83  91  44    71  77  30    83  90  39   102 107  53   109 114  56   116 122  59   103 113  39   121 132  56    79  86  16   104 108  43    99  99  36    80  79  13   110 108  34   107 106  24   156 159  72   132 137  52   160 166  91   136 144  80    62  71  18    62  71  15    71  79  15   112 118  54   113 115  54   126 125  68   118 115  60    67  64   8    85  80  22    73  68  11    73  68  13    52  46   1    54  48  11    51  44  14    25  19   1  
 141 155 105   112 127  78   104 120  72    35  52  17    39  55  10    26  42   1    39  52  17   119 132  84   125 137  89    59  71  21    97 114  59   129 149  91   128 146  91   123 138  86   132 144  96    94 106  58    51  60  12    74  82  32    80  87  36    73  81  25    89  95  34   140 146  82    70  76   8    72  80   7   112 120  45    91  96  29   100 101  40    78  75  17    78  73  10   112 108  36   128 123  41   132 128  41   106 106  21   121 122  48   108 109  50    52  54   5    59  61   8    76  78  15    74  75  11    99  97  38   154 152  95   132 127  74    46  39   1    63  57   7    51  45   1    80  73  22    63  55  12    76  67  33    56  48  22    26  18   1  
  64  78  26   113 129  81    87 103  57    39  55  10    66  83  38    54  70  24    44  59  22   133 147  95   131 145  92   130 145  90   103 121  63    75  95  37   104 123  68    97 115  62   160 174 123   130 142  93    72  83  32    65  74  22   126 134  78    67  75  16    75  81  17   118 125  56    98 104  33    98 106  32   111 119  46    95 100  35    96  95  38    76  71  16   104  97  37   128 120  49    96  89   8   148 142  56   118 114  30    73  72   6    43  42   1    51  50   7    45  45   1    85  85  20    81  80  15   123 119  58    86  81  23    71  63  12    60  51   2   111 102  46    82  73  18    83  76  25    53  45   4    44  35   5    29  21   3    35  28  10  
  42  56   8   110 126  78    95 112  67    69  85  41   101 118  74   112 129  83    71  87  37   133 147  95   101 114  59   150 165 107   102 121  65    78  98  42    96 115  60   133 151  98   144 159 108   146 158 108    87  98  48    68  77  24   129 137  79    60  69  10    74  82  14    76  83  19   126 132  58   110 118  44   100 107  38    82  86  26    53  50   1    61  54   3   102  93  37    99  88  23   112 103  23   127 119  36   132 125  44   106 100  31    23  17   2    79  74  34    95  91  50    90  87  34   117 114  48    95  89  27    61  55   1    54  46   1    52  42   2    95  84  30    78  68  15    74  66  18    72  63  22    49  40   8    33  24   1    32  24   5  
  16  30   3    56  69  26    42  56  15    49  64  23   107 122  81    88 102  57    94 107  59   130 144  92    74  88  33   103 118  61    86 103  49    55  72  20   116 133  79   144 159 106   136 150  97   124 137  84    75  87  34    51  60   6    63  71  13    51  60   2    78  85  17    87  95  21   108 115  38   109 115  40    55  58   4    60  61   1    59  57   3    54  48   1    56  48   1    97  91  18   115 110  25   121 115  31   104  98  20    75  69   4    32  26   1    57  49  10    47  43   3    68  66  14   108 105  40   109 103  41    66  57   1    49  39   1    63  52   7   111 100  46   111  99  48    67  56  10    61  52  14    40  32   4    45  39  17    30  25   6  
  36  43   9    44  51  18    32  39   6    81  88  54   140 148 112    65  76  34   115 127  82   138 153 103    86 103  50   153 167 114   139 150 101    73  82  34   112 122  71   113 125  71    84  97  41   151 161 108    70  79  29    54  63  14    66  74  20    72  80  21    94 100  35   104 109  41   104 108  34   122 126  48   133 134  58   105 103  37    78  77  13    78  78   8    86  88   5    96 100   5   156 160  63   146 149  60    92  91  20    57  52   3    36  29   1    48  40   1    49  44   1    50  49   1    71  71  11    86  83  21    62  55   1    53  43   1    73  61  10    82  68  18    62  49   3    66  54  12    51  42   8    46  40  12    38  32  11    28  26   5  
  41  47  19    47  50  23    62  65  35    87  92  59   101 107  71   126 134  95   117 128  85   147 162 113    93 112  58   127 144  92   170 179 132    81  89  42   119 128  77   109 120  65   103 115  57   159 170 114    71  81  26    88  97  44    69  77  24    66  71  15   116 119  58   121 124  60    78  81  13   122 122  43    88  87   7    90  90  20   108 107  40   120 122  47    98 103  16    85  93   1   137 145  43   113 119  30    90  91  24    73  70  19    44  37   1    50  43   1    53  48   1    57  56   1    71  69  12    91  88  27    88  81  21    74  63   6    75  62   8    68  55   5    50  37   1    62  51   9    55  46  12    48  43  13    35  32   6    30  30   6  
  44  49  19    74  79  49    65  70  40    41  46  15    32  38   2    86  95  55   114 126  82   139 153 106    93 110  59   129 146  94   154 166 118    68  77  28    80  90  37    97 108  53   143 156  98   134 145  87   128 138  83   105 114  61    74  81  29    47  52   2    95  99  37   130 132  64    99 100  30    81  81   4   125 122  45   104 101  34    81  81  15   101 103  31    97 102  16   126 133  37   121 128  33    94  99  16    93  94  31    87  84  36    55  50   8    52  48   4    55  52   5    66  65  10    65  63   6    84  78  21   103  93  34    82  72  15    66  54   1    77  64  11    59  45   2    51  38   1    54  46   5    61  57  20    49  46  12    38  39   7  
  67  74  43    37  42  12    52  57  26    26  32   7    27  34   1    69  80  38    81  93  48   153 169 118   126 145  91   151 168 116   161 174 126    78  91  41    81  94  39   117 130  72   130 144  85   140 153  94   125 135  78    94 102  47    86  91  37    78  81  24    52  54   2    89  90  21    96  95  21   118 115  37   163 160  83    64  61   1    69  66   6    83  83  13   100 104  22   157 164  71   119 126  33    83  87   8    58  59   2    51  49   3    45  41   1    47  43   1    59  57   7    72  69  13    61  57   1    79  73  15   115 106  47   102  91  32    89  77  19    86  74  18    75  64  10    70  60  10    72  65  19    67  63  19    54  52  11    56  56  18  
