P3
50 50
255
 145 148 132   144 146 132   153 155 142   151 153 140   150 152 139   158 160 149   166 168 158   166 167 159   162 163 155   164 165 157   161 162 156   165 166 160   166 167 161   163 164 158   158 159 154   160 161 156   165 166 162   165 165 163   165 165 163   166 166 164   172 172 170   171 171 169   170 170 169   169 169 170   167 167 169   166 166 168   168 168 171   171 171 173   170 170 171   167 167 169   173 173 175   173 173 175   174 174 176   175 175 177   177 177 179   172 172 174   170 170 172   171 172 174   171 172 174   174 176 178   175 176 178   174 175 177   176 177 179   182 183 185   184 185 187   183 184 186   183 184 185   182 183 185   181 182 184   180 181 183  
 140 143 126   136 138 123   151 153 139   159 160 147   160 162 149   167 169 158   173 175 165   171 172 164   164 165 157   164 165 157   161 162 156   165 166 160   165 166 160   163 164 159   158 159 154   157 158 153   165 166 162   172 172 170   173 173 171   173 173 171   176 176 174   171 171 169   168 168 166   164 164 163   162 162 164   163 163 165   167 167 169   170 170 172   172 172 174   171 171 173   177 177 179   177 177 179   177 177 179   176 176 178   176 176 178   170 170 172   165 165 167   167 168 170   169 170 172   173 174 176   174 175 177   173 175 176   177 178 180   183 184 186   185 186 188   183 184 186   182 183 185   181 182 184   180 181 183   180 181 183  
 139 143 126   139 142 126   150 152 138   161 163 150   162 164 151   164 166 155   168 169 159   164 165 157   157 158 150   156 157 149   158 159 153   161 162 156   159 160 154   161 162 156   159 160 155   160 161 156   170 171 167   178 178 176   178 178 176   175 175 173   173 173 171   167 167 165   165 165 164   161 161 163   162 162 164   164 164 166   166 166 167   169 169 171   172 172 174   175 175 177   177 177 179   179 179 181   179 179 181   179 179 180   180 180 182   174 174 176   167 168 170   166 167 169   168 169 171   172 174 175   174 175 177   176 177 179   182 183 185   181 182 184   179 180 182   179 180 182   178 179 181   180 181 183   181 182 184   183 184 186  
 141 144 125   146 149 130   150 153 136   148 151 136   145 147 134   148 150 137   155 157 146   157 159 148   156 158 147   159 161 152   154 155 147   155 156 150   152 153 147   158 159 154   162 163 158   165 166 161   177 177 175   182 182 180   180 180 178   174 174 172   170 170 168   164 164 162   162 162 161   162 162 164   164 164 167   166 166 168   167 167 169   167 167 169   170 170 172   174 174 177   173 173 175   177 177 179   179 179 181   181 181 183   184 184 187   181 181 183   173 173 175   170 171 173   172 173 175   176 177 179   177 178 180   179 180 182   186 187 189   178 179 181   174 175 177   174 175 177   176 176 178   179 180 182   183 184 186   187 188 189  
 137 139 118   137 139 119   134 137 118   142 145 127   152 154 137   157 161 146   158 162 148   155 158 146   156 159 148   161 164 153   159 162 151   160 163 154   161 164 156   163 165 160   167 169 164   167 169 166   166 168 167   175 176 177   178 179 181   173 175 175   161 163 162   165 167 166   166 168 167   161 163 164   164 164 168   164 165 169   168 169 173   173 174 178   170 171 174   170 171 173   165 166 168   170 171 173   175 176 178   178 179 181   182 183 184   181 182 184   178 179 181   178 179 183   175 176 180   174 175 179   180 181 185   180 181 184   178 179 181   179 180 182   180 181 183   178 179 179   176 177 176   180 182 181   184 186 185   186 188 187  
 136 138 116   138 140 118   142 145 124   145 148 128   147 150 131   147 151 134   150 153 138   152 156 142   156 160 146   159 164 149   159 163 149   161 164 153   161 164 155   160 164 156   164 166 160   166 168 165   167 168 168   171 172 174   172 173 175   169 170 172   159 161 160   160 162 161   163 165 164   167 168 170   167 168 172   161 162 166   161 162 166   167 168 172   169 170 172   171 172 174   172 173 175   176 177 180   179 180 182   180 180 183   180 181 183   178 179 181   175 175 178   176 177 181   177 178 182   177 178 182   180 181 185   179 180 183   180 181 183   180 181 182   179 180 182   178 179 179   175 177 176   177 179 178   181 183 182   181 183 182  
 129 130 109   127 129 107   135 138 117   144 147 127   142 145 126   137 141 124   143 147 130   153 157 141   158 162 147   157 161 147   158 162 148   161 164 154   161 164 156   158 161 155   160 162 159   164 166 165   166 168 168   165 166 168   165 166 168   167 168 170   161 163 162   160 162 161   164 166 164   165 166 167   168 169 171   170 171 173   168 169 171   164 165 167   161 162 164   162 163 165   177 178 180   179 180 182   179 180 182   176 177 180   175 176 178   172 172 174   168 169 172   173 174 178   178 179 183   178 179 183   179 180 184   177 178 181   180 181 183   181 181 183   181 182 184   180 182 181   178 180 179   179 181 180   180 183 182   180 182 181  
 121 123 101   120 122 101   129 132 111   133 136 117   127 130 110   120 125 105   129 134 114   145 149 131   149 153 136   143 148 132   155 158 145   161 165 151   162 165 155   158 161 153   158 160 155   161 163 160   164 166 165   163 165 165   162 163 165   167 168 168   167 169 168   166 168 166   170 172 169   167 169 167   169 170 172   174 176 178   168 169 171   158 159 161   158 159 161   164 164 167   172 173 175   174 175 177   174 175 177   170 171 173   168 169 171   166 167 169   165 166 168   171 172 176   175 176 180   177 178 182   180 181 185   177 178 182   178 179 181   181 182 184   184 185 187   184 186 185   183 185 184   184 186 185   185 187 186   183 185 184  
 118 120 100   126 128 107   135 138 117   132 135 114   124 127 106   120 125 104   130 135 115   146 151 131   151 156 136   143 147 130   150 154 139   160 163 150   164 167 157   160 163 156   158 160 155   160 162 159   163 165 164   165 167 166   162 164 163   164 166 165   167 169 168   166 168 165   168 170 168   175 177 178   168 169 171   159 160 162   153 154 156   156 157 159   170 171 173   177 179 180   166 167 169   169 170 172   169 170 172   166 167 170   167 168 170   167 168 170   167 168 170   171 172 176   171 172 176   174 174 179   180 181 185   178 179 183   176 177 179   179 180 182   184 184 187   185 187 186   185 186 186   187 189 188   188 190 189   187 189 188  
 117 119  98   126 129 108   130 133 112   126 129 108   126 129 108   124 129 107   131 136 114   144 149 127   149 154 132   143 148 128   149 153 138   158 162 148   162 166 153   160 163 153   159 162 155   161 163 158   163 165 162   166 168 166   163 165 164   158 160 157   162 164 161   161 163 160   159 161 158   166 168 167   153 154 156   145 147 149   155 156 158   169 170 172   182 183 185   176 177 179   165 166 168   170 171 172   170 171 173   168 169 171   169 170 172   172 173 175   172 173 176   172 173 177   171 171 176   172 173 177   180 181 185   178 179 183   175 176 178   178 179 181   182 183 185   183 185 184   183 185 184   186 188 187   188 190 189   187 189 188  
 119 120 100   126 128 107   123 126 105   114 117  96   117 120  99   119 124 101   119 124 101   127 132 109   136 141 118   137 142 120   150 155 138   157 161 147   159 162 150   157 160 150   159 163 155   163 165 160   163 165 162   164 166 163   162 164 161   152 154 151   158 160 157   162 164 159   156 158 154   148 150 147   140 143 141   153 155 154   168 170 169   174 176 175   179 180 180   166 168 167   168 170 169   172 174 174   172 173 175   168 170 171   169 170 172   172 173 175   174 175 177   175 176 180   175 176 180   174 175 179   179 180 184   178 179 182   177 178 180   181 182 184   185 186 188   185 187 186   184 186 185   186 188 187   188 190 189   187 189 188  
 124 126 105   134 136 115   130 133 112   122 125 104   129 132 111   130 135 112   126 131 108   131 136 113   144 149 126   150 155 133   153 157 140   156 160 145   155 159 145   155 158 146   159 162 153   166 169 162   164 166 161   161 163 159   161 163 160   149 151 146   159 161 156   167 169 164   160 162 157   143 145 140   142 144 141   166 168 165   169 171 170   161 163 162   169 171 170   171 173 172   170 172 171   174 175 176   172 173 175   167 168 170   167 168 170   169 170 172   172 173 175   177 178 182   179 180 184   177 178 182   178 179 183   176 177 180   180 181 183   187 188 190   190 191 193   189 191 190   187 189 188   188 190 189   190 192 190   189 191 190  
 132 134 113   139 142 120   131 135 112   138 142 119   124 128 105   132 137 114   133 139 115   143 149 123   157 163 137   146 152 128   143 148 128   155 159 144   157 161 146   154 157 145   159 162 153   160 163 156   156 158 153   162 164 159   169 171 166   166 168 163   154 156 151   155 158 151   146 148 142   141 143 138   162 164 159   171 173 168   165 167 164   170 172 169   173 175 172   170 172 169   182 183 183   168 170 170   164 165 167   161 162 164   161 162 164   171 172 174   175 177 179   172 173 177   177 178 182   182 183 187   182 183 187   180 182 185   180 181 183   177 178 180   179 179 182   183 185 184   186 188 187   187 189 188   186 188 187   187 189 188  
 127 129 108   130 132 110   135 139 116   143 147 124   143 147 124   156 161 138   144 149 125   137 143 117   139 145 119   131 136 113   144 149 129   154 158 141   156 160 144   154 158 144   160 163 152   162 165 157   158 161 154   158 161 155   156 158 153   146 149 142   148 151 144   147 150 143   145 148 141   148 151 144   164 166 161   170 172 167   164 166 161   166 168 164   167 169 166   167 169 166   144 147 146   144 146 146   157 158 160   165 166 168   166 167 169   171 172 174   174 175 178   178 179 183   181 182 186   182 183 187   180 181 185   177 178 182   176 177 179   175 176 178   176 177 179   177 179 178   181 182 181   183 185 184   184 185 185   184 186 185  
 142 144 122   132 135 112   118 122  99   120 124 101   131 135 112   143 148 125   131 136 113   133 138 115   135 140 118   132 137 114   146 150 131   154 158 141   155 159 143   153 157 142   159 162 151   164 167 158   161 164 157   162 165 158   152 155 148   138 141 134   149 153 145   145 148 139   147 150 142   165 168 161   176 179 172   175 178 171   167 169 164   160 162 157   152 154 150   150 152 149   136 138 137   143 145 145   163 164 166   176 177 179   178 179 181   180 181 185   179 180 184   181 182 186   182 183 187   180 181 185   177 178 182   175 175 179   174 175 177   176 177 179   175 176 178   174 176 175   177 179 178   182 184 183   183 185 184   182 184 183  
 133 135 111   134 137 115   128 132 109   125 129 106   127 131 108   121 126 103   108 113  90   125 130 107   130 135 112   121 126 104   136 141 120   141 146 127   141 145 128   140 144 128   147 151 137   154 157 146   157 160 152   164 167 160   152 155 148   140 144 137   147 150 142   143 146 137   149 152 143   155 157 148   156 159 152   156 159 152   157 159 153   152 154 149   144 146 141   146 148 144   164 166 165   165 167 167   175 176 178   180 180 183   181 182 184   183 184 188   180 181 185   176 177 181   177 178 182   176 177 181   175 176 180   176 176 180   178 179 181   179 180 182   178 179 181   177 179 178   181 183 182   186 188 187   186 187 186   182 184 183  
 136 138 114   139 141 117   138 142 117   134 138 114   129 133 110   117 122 100   102 107  85   122 127 105   128 133 111   119 124 102   120 125 104   126 130 111   127 131 115   128 132 118   137 140 129   146 149 140   155 158 149   159 162 155   144 147 140   137 140 133   135 138 128   143 146 137   155 158 148   168 171 162   166 170 160   156 159 152   153 156 149   151 153 147   146 148 143   151 153 150   180 182 181   176 178 177   176 177 179   172 173 175   171 172 174   173 174 178   172 173 177   172 173 177   172 173 177   172 173 177   172 173 177   175 176 180   179 180 182   179 180 182   178 179 181   180 182 181   185 187 186   189 191 190   186 188 187   180 182 181  
 160 163 136   155 159 132   125 129 104   123 127 104   127 131 108   126 131 109   109 114  92   116 121  99   124 129 109   122 127 107   124 129 107   129 134 112   132 137 118   136 140 124   147 151 137   158 161 151   165 168 159   157 160 152   138 140 134   132 135 126   135 138 129   156 159 149   168 171 160   168 170 161   160 163 154   146 149 142   146 149 142   158 161 154   169 171 166   182 184 179   176 178 175   173 175 175   175 176 178   172 173 175   170 171 173   169 171 174   168 169 173   172 173 177   172 173 177   171 172 176   171 172 176   174 175 178   177 178 180   176 177 180   177 178 180   180 182 181   186 188 187   188 190 189   183 185 184   178 180 179  
 155 158 129   159 162 136   135 139 114   136 140 116   133 138 115   139 144 122   121 126 105   115 120 100   125 130 112   125 130 111   141 146 124   145 150 128   147 151 133   149 153 137   157 161 147   168 170 160   169 172 163   154 157 148   133 136 127   127 130 121   150 153 144   170 172 161   167 170 159   157 160 151   150 153 144   137 139 130   136 139 131   150 153 146   159 161 156   164 167 162   170 172 169   171 173 173   175 176 178   175 176 177   175 176 178   174 175 179   170 171 175   172 173 177   172 173 177   172 173 177   172 173 177   175 176 179   178 179 181   177 178 180   178 179 181   181 183 182   185 186 186   186 188 187   183 185 184   180 182 181  
 152 155 126   148 152 125   152 156 132   146 150 127   126 129 108   137 142 120   131 136 116   136 140 122   158 162 145   163 167 150   150 155 135   151 156 136   150 155 136   149 153 137   152 157 142   160 164 150   159 162 151   144 147 136   127 129 118   121 124 113   161 164 154   170 173 162   149 152 141   143 146 137   145 150 141   142 148 138   148 154 145   163 168 162   167 172 166   164 169 165   166 171 167   166 170 169   169 173 174   168 172 173   171 174 177   173 176 179   170 171 175   170 171 173   171 172 174   173 174 176   174 175 177   177 178 180   181 182 183   180 182 181   181 183 182   184 186 185   185 187 186   185 187 186   185 187 185   185 187 186  
 123 127 102   120 124 101   132 135 113   132 135 114   139 142 123   132 135 116   137 140 123   162 165 149   166 168 154   161 163 149   160 164 147   152 156 139   148 152 135   138 143 127   141 145 130   152 156 141   152 156 142   149 152 140   129 132 121   130 134 120   152 155 142   155 159 146   147 150 139   148 153 143   116 121 113   136 141 134   173 178 172   159 164 158   155 160 155   160 164 163   165 168 168   171 175 176   173 177 179   174 178 180   169 173 177   164 167 172   166 171 173   170 174 174   171 175 174   170 174 173   176 180 179   175 179 178   171 175 174   174 178 177   176 181 177   177 182 178   181 186 182   184 189 185   184 189 185   182 187 183  
 130 134 111   126 130 107   125 128 107   126 129 109   135 138 119   134 137 120   134 137 121   149 151 137   152 155 141   146 148 135   146 150 133   143 147 130   130 134 117   126 130 115   129 134 119   137 141 126   141 145 131   129 133 119   129 133 119   127 131 117   117 121 107   130 134 121   162 167 155   155 163 151   145 152 144   152 159 151   150 158 150   148 155 148   161 167 162   169 175 173   173 179 178   178 184 184   177 183 184   176 181 184   172 177 181   169 174 178   172 177 179   175 180 177   176 181 177   176 181 177   181 186 182   180 185 181   177 182 178   172 177 173   174 179 174   177 182 178   179 184 180   180 185 181   180 185 182   183 188 184  
 124 128 105   125 129 107   121 124 103   122 125 106   130 133 114   137 140 123   135 138 122   144 146 132   157 159 145   155 157 143   135 139 122   138 142 125   123 127 110   128 132 115   133 137 120   133 137 122   140 144 129   111 115 100   110 114 100   135 139 125   148 152 138   149 153 139   144 147 135   145 150 140   161 167 159   155 162 154   141 148 140   152 159 152   169 175 170   178 184 182   178 184 183   182 188 188   180 185 187   177 182 185   174 179 182   172 177 180   176 181 183   179 183 182   180 183 182   176 180 179   178 182 181   174 178 177   169 173 172   169 173 172   174 178 177   180 184 183   179 183 182   178 182 181   180 184 183   185 189 188  
 121 125 102   132 136 113   137 140 119   140 143 124   141 144 125   144 147 130   136 139 122   137 140 124   154 156 142   153 155 140   153 157 140   147 151 134   133 137 120   134 138 121   130 135 118   118 122 107   120 124 109   112 116 101   124 128 114   152 157 142   150 154 140   145 149 135   143 147 134   145 150 140   144 151 143   144 150 143   154 161 153   169 176 169   174 181 174   176 182 178   173 178 175   178 184 182   177 183 182   175 181 181   172 177 180   171 176 179   173 179 179   171 175 174   174 178 177   174 178 177   179 183 182   179 183 182   177 181 180   176 180 179   179 183 182   182 186 185   181 185 184   180 184 183   182 186 185   186 189 189  
 119 123 100   129 133 110   138 141 120   130 133 114   126 129 110   137 140 121   138 141 124   142 145 128   159 162 145   157 160 143   142 146 129   125 129 113   122 126 109   127 131 114   131 135 118   127 131 116   115 119 104   112 116 101   140 144 130   161 165 151   138 142 128   128 132 118   139 142 130   141 146 135   128 134 124   143 148 141   168 173 166   176 181 174   177 182 176   169 174 170   170 175 171   176 181 180   178 182 182   176 180 181   172 176 177   172 176 177   177 181 182   181 185 184   183 187 186   180 184 183   182 186 185   179 183 182   176 180 179   179 183 182   180 184 183   180 184 183   180 184 183   182 186 185   182 186 185   181 185 184  
 125 129 106   127 131 109   130 133 112   130 132 111   136 139 120   149 152 133   149 152 134   146 149 132   145 148 131   139 142 125   144 147 131   121 125 108   118 122 105   119 123 106   122 127 109   126 130 115   121 125 110   127 131 116   122 126 112   121 125 111   123 127 113   128 132 118   133 137 123   132 137 125   135 141 131   159 164 157   167 172 165   165 170 163   173 178 171   163 168 162   172 177 171   178 183 179   177 182 179   172 176 175   167 171 170   166 170 170   171 175 174   173 177 176   177 180 180   174 178 177   176 180 179   174 178 177   173 177 176   176 180 179   176 180 179   174 178 177   176 181 180   179 183 182   180 184 183   179 183 182  
 128 132 109   132 136 113   131 134 112   124 127 106   139 142 121   152 155 136   150 153 134   144 147 128   138 141 122   140 144 124   120 125 105   114 119  99   116 121 101   122 127 109   124 128 111   124 128 111   126 130 113   128 132 117   131 135 120   120 124 109   126 130 115   128 132 117   127 131 118   130 135 125   151 157 147   169 174 164   164 170 160   160 165 157   163 168 161   164 169 163   173 178 172   175 180 174   167 172 167   156 161 157   148 153 151   149 153 152   151 155 154   148 152 151   156 160 159   162 165 164   170 174 173   176 180 179   180 184 183   174 178 177   172 176 175   173 177 176   176 180 178   178 182 181   181 185 184   184 188 187  
 102 106  83   114 118  95   116 120  97   121 124 102   145 147 127   149 152 131   137 139 120   126 129 110   118 121 102   129 133 113   107 112  92   119 124 104   119 124 104   125 129 111   112 116  99    98 102  85   120 124 108   150 154 139   142 146 131   112 116 101   121 125 110   132 136 121   141 145 131   139 145 132   158 164 154   167 173 163   167 173 163   164 170 160   154 160 150   166 171 164   171 176 169   169 174 167   154 159 153   138 143 137   129 134 128   130 135 129   145 150 146   167 172 168   170 175 171   166 171 167   166 171 167   163 168 164   161 166 162   165 170 166   171 176 172   176 181 177   178 183 179   180 185 181   185 190 186   192 197 193  
 134 138 115   138 142 119   143 147 124   154 158 135   138 141 120   154 157 136   148 151 130   129 132 111   129 132 110   123 125 105   122 127 107   121 126 106   128 133 113   125 130 110   122 127 107   125 129 112   114 118 101   152 156 139   141 145 129   118 121 106   115 119 104   127 131 116   144 148 133   142 148 135   161 167 155   166 172 160   157 163 150   145 151 140   139 145 135   160 166 156   165 171 161   162 167 160   142 147 140   133 138 131   146 151 144   157 162 155   165 170 164   174 179 174   160 165 161   155 160 156   154 159 154   151 156 152   155 160 156   166 171 167   174 179 175   179 184 180   179 184 180   180 185 181   180 185 181   179 184 180  
 129 132 109   126 130 107   130 134 111   138 142 119   137 141 118   156 159 138   139 142 121   123 126 105   126 129 108   125 128 107   119 124 102   126 131 111   133 138 118   136 141 121   123 128 108   122 126 109   122 127 109   135 139 122   115 119 103   120 123 108   137 141 126   133 137 122   134 138 123   133 138 124   146 152 139   146 152 140   142 148 136   140 146 134   136 142 130   148 154 143   147 154 142   142 148 138   138 144 134   149 155 145   162 168 158   163 169 159   165 170 162   158 163 156   142 147 140   142 147 139   152 157 150   161 166 159   171 176 169   178 183 176   182 187 180   180 185 179   177 182 175   179 184 177   184 189 182   188 193 186  
 126 130 107   116 120  97   127 131 108   128 132 109   133 137 114   146 150 127   130 134 111   127 131 108   131 135 112   132 135 114   132 137 115   148 153 132   141 146 124   138 143 123   125 130 110   122 127 107   121 126 107   125 129 112   127 131 115   136 140 123   133 138 121   123 128 111   136 140 125   128 132 118   138 142 128   143 147 133   135 139 125   129 133 119   129 133 119   147 150 139   165 168 157   138 141 130   136 139 128   150 153 142   146 149 138   155 158 148   169 173 163   143 149 140   144 149 142   158 163 156   171 176 169   171 176 169   167 172 165   156 161 154   159 164 157   168 173 166   174 179 172   179 184 177   182 187 180   181 186 179  
 123 127 103   113 117  94   130 134 111   141 145 122   141 145 122   139 143 120   130 134 111   135 139 116   129 133 109   129 132 109   126 131 109   145 150 128   137 142 120   133 138 117   140 145 125   152 157 137   143 147 128   137 141 124   131 135 118   124 128 111   127 131 114   131 135 119   128 132 117   134 138 123   138 142 128   131 135 121   131 135 121   138 142 128   134 138 124   132 136 122   136 140 126   158 162 148   153 157 143   142 146 132   148 152 138   148 152 138   140 144 133   143 149 137   161 167 155   178 185 173   176 182 170   158 164 152   144 150 138   146 152 140   155 161 149   165 171 160   172 178 166   177 183 171   177 183 171   174 180 168  
 122 125 102   119 123 100   129 133 110   136 140 116   130 134 109   130 134 109   134 138 113   142 146 121   136 140 115   150 154 131   136 141 119   133 138 115   136 141 119   135 140 118   138 143 121   156 161 141   146 151 131   140 145 125   124 128 110   117 121 104   126 130 113   134 138 121   125 129 113   128 132 118   140 144 130   142 146 132   134 138 124   131 135 121   133 137 122   139 143 128   127 131 116   137 141 126   150 154 139   152 156 142   139 143 129   136 140 126   144 149 135   150 156 143   169 175 163   172 178 166   152 158 146   137 143 130   139 145 133   169 174 163   178 184 172   172 178 166   168 174 162   171 177 165   176 182 170   179 185 173  
 130 133 110   135 139 115   133 137 114   129 133 109   123 126 101   130 134 109   133 137 112   131 135 110   130 134 109   158 162 137   155 160 137   128 133 111   138 143 121   141 146 124   123 128 106   134 139 119   137 142 122   134 139 119   121 125 107   134 138 121   143 147 130   138 142 125   136 140 123   137 141 126   132 136 122   127 131 117   129 133 119   138 142 128   139 143 128   128 132 117   130 134 119   135 140 125   134 138 123   137 141 126   142 147 132   139 142 127   135 140 125   146 153 137   168 175 159   168 175 158   144 151 135   137 143 128   150 157 141   159 166 150   160 167 151   157 164 148   157 164 148   163 170 154   169 176 160   171 178 162  
 130 133 110   137 141 117   138 142 117   138 142 117   133 137 112   136 140 115   122 126 101   108 112  87   106 110  85   124 128 105   147 152 130   128 133 111   129 134 112   136 141 119   130 135 113   146 151 131   151 156 136   134 139 119   118 122 104   139 143 126   155 159 142   150 154 137   138 142 126   127 131 117   127 131 117   130 134 119   126 130 115   126 130 115   129 133 118   126 130 115   125 129 114   127 131 115   138 142 125   149 153 136   140 144 127   125 129 112   125 130 113   136 143 126   159 165 150   162 169 153   145 152 136   139 146 130   148 155 139   135 142 126   132 139 123   140 147 130   148 156 140   158 165 149   161 168 152   158 165 149  
 118 122  99   122 126 102   135 139 114   126 130 105   114 118  93   119 123  98   107 111  86   105 109  84   113 117  92   119 122  97   150 155 132   150 155 133   125 130 108   122 127 105   138 143 121   158 163 143   147 152 132   122 127 107   139 143 125   142 146 129   125 129 112   127 131 114   135 139 122   132 136 120   127 131 117   126 129 114   123 127 112   125 129 114   125 129 114   114 118 103   110 115 100   135 139 124   129 133 117   123 127 110   143 147 130   148 152 135   134 139 122   132 139 121   143 149 132   141 148 130   130 137 119   128 135 117   135 142 125   144 151 135   147 154 138   146 153 137   148 155 139   156 163 147   161 168 152   161 168 152  
 122 124 100   114 116  92   123 125 101   129 131 107   125 127 103   126 128 104   125 127 103   125 127 103   127 129 105   122 124 100   134 138 115   119 123 100   117 121  98   129 133 111   145 148 127   120 123 102   123 126 106   130 133 114   142 145 126   151 154 135   153 156 137   150 153 135   149 151 136   146 148 135   141 143 130   128 130 117   125 127 114   119 121 108   120 122 109   114 116 103   120 122 109   111 113 100   122 124 111   132 134 121   135 137 124   131 133 120   125 128 113   132 136 119   140 144 127   145 149 132   127 131 116   127 131 116   147 151 136   150 154 140   150 154 140   155 158 147   160 163 152   158 161 152   157 160 150   160 164 154  
 124 126 102   116 117  94   112 114  90   124 126 102   132 134 110   142 144 120   139 141 117   131 133 109   126 128 105   120 123  98   123 127 104   108 113  90   112 116  93   103 107  85   106 109  88   111 114  93   126 130 109   131 134 115   139 143 123   146 149 130   145 149 129   141 144 125   137 140 123   137 140 125   135 137 124   130 132 119   137 139 126   129 131 118   125 127 114   118 120 107   108 110  97   110 112  99   121 123 110   120 122 109   116 118 105   121 123 110   122 125 111   125 129 113   133 138 120   134 138 123   120 124 109   114 118 103   125 129 115   142 145 133   149 152 141   157 160 151   168 171 162   174 177 170   178 181 174   183 186 179  
 114 116  92   110 112  88   109 111  87   116 118  94   126 128 104   140 141 118   144 146 122   140 142 118   137 140 116   130 133 109   143 147 124   110 114  91   107 111  88    98 101  80   105 108  87   118 121 100   128 131 111   135 138 119   132 135 116   129 132 113   131 135 115   139 142 123   146 148 133   139 141 128   123 125 112   109 111  98   115 118 105   113 115 102   122 124 111   130 132 119   111 113 100   116 118 105   124 126 113   119 121 108   115 117 104   122 124 111   123 126 113   125 129 114   134 138 123   135 139 125   140 144 130   142 146 133   154 157 146   171 174 164   173 176 167   175 178 171   180 182 176   181 183 178   179 181 176   180 182 177  
 104 107  83   105 107  83   114 116  92   120 123  98   122 124 100   128 130 105   135 137 113   140 142 118   140 142 118   130 132 108   151 155 132   125 129 106   109 113  90   102 106  84   114 118  96   125 128 107   130 134 113   138 141 122   134 137 118   130 133 114   127 130 111   125 129 110   125 128 111   121 123 108   110 112  99   105 106  94   120 122 109   114 116 103   111 113 100   114 116 103   119 122 109   116 118 105   120 122 109   125 127 114   129 132 119   127 129 115   120 123 110   123 127 113   129 133 119   128 132 118   150 154 140   165 168 157   181 184 174   187 190 181   184 187 180   182 185 178   183 186 181   185 187 182   183 185 180   180 182 177  
  84  86  62   107 109  85   140 142 118   134 136 112   129 131 107   131 133 109   131 133 109   129 131 107   126 128 104   117 119  95   117 121  98   133 137 114   110 114  91    94  97  76    97 100  79   110 113  92   126 129 109   133 136 117   123 126 107   114 117  98   114 117  98   125 129 110   138 141 125   141 142 129   128 130 117   117 119 106   127 129 116   117 119 106   113 115 102   116 118 105   117 119 105   112 114 101   114 116 103   126 128 115   134 135 122   126 128 115   123 125 112   138 141 129   137 140 129   135 138 127   157 160 149   166 169 160   178 181 173   189 192 185   187 189 184   184 186 181   182 184 181   182 184 181   179 181 178   175 177 176  
 116 118  94   126 127 103   135 137 113   120 122  98   123 125 101   133 135 111   132 133 109   125 127 103   125 127 103   122 124 100   135 139 116   155 159 136   128 132 109   126 130 108   131 134 113   131 134 113   137 140 119   139 142 123   138 141 122   134 137 118   129 133 114   127 131 112   130 133 116   145 147 132   140 142 129   126 128 115   130 132 119   120 122 109   116 118 105   116 118 105   117 119 106   121 123 110   122 124 111   129 131 118   135 137 124   132 134 121   135 138 125   148 151 140   148 151 140   155 158 149   171 174 165   170 174 165   175 178 171   185 188 182   187 189 184   182 184 181   178 180 177   177 179 177   176 177 176   172 174 173  
 134 135 112   136 138 114   141 143 119   117 119  95   112 114  90   118 120  96   123 125 101   129 131 107   135 137 113   132 134 110   136 140 117   131 135 112   111 115  92   127 130 108   130 133 112   127 130 109   121 124 104   132 135 116   134 137 118   132 135 116   129 132 113   133 136 118   143 146 129   149 151 136   136 137 124   111 113  99   107 109  95   107 109  95   124 126 112   134 135 122   133 135 120   137 139 125   133 135 121   137 138 124   143 145 131   143 145 131   145 147 135   137 140 130   139 142 133   156 159 152   167 170 163   166 168 162   171 173 168   173 175 172   176 178 174   177 179 178   176 177 176   180 182 182   186 187 189   188 189 191  
 132 134 110   135 137 114   153 155 131   134 136 112   114 116  92   102 104  80   110 112  88   128 130 106   136 138 114   125 127 103   124 128 104   116 120  97   113 117  94   118 121 100   105 108  87   121 124 103   120 122 102   116 119 100   125 128 109   128 131 112   122 124 106   120 123 104   124 127 110   118 120 105   113 115 101   108 110  96   117 119 105   120 122 108   129 131 117   128 130 116   144 146 132   142 144 130   132 134 120   138 140 126   149 151 137   148 150 136   149 151 139   142 145 135   137 140 133   156 159 152   161 164 157   160 163 156   169 171 166   180 182 179   187 189 187   185 187 186   178 179 179   176 177 179   179 180 182   179 180 182  
 129 131 107   140 142 118   133 135 111   126 128 104   110 112  88   118 120  96   117 119  95   138 140 116   132 133 109   136 138 114   148 152 129   139 143 121   115 119  96   125 129 107   127 130 109   114 116  96   136 139 119   146 149 130   125 128 109   109 112  93   105 108  89   112 115  97   126 129 112   126 128 113   136 138 123   121 123 109   121 124 109   130 132 118   130 132 118   128 130 116   141 143 129   141 143 130   141 143 129   134 136 122   144 146 133   161 163 149   162 164 152   164 167 159   161 163 156   162 165 158   156 158 153   148 150 146   165 167 164   176 178 176   175 177 176   176 177 179   177 178 181   179 180 182   181 182 185   184 186 189  
 131 133 109   129 131 107   125 127 103   103 105  81    96  98  74   120 122  98   113 115  91   125 127 103   130 132 108   150 152 127   162 165 142   134 138 115   120 124 101   123 126 105   127 130 109   124 127 106   125 129 108   127 130 111   110 113  94   106 109  90   115 118  99   126 129 110   136 139 122   138 141 125   150 152 138   130 132 118   123 125 111   134 136 122   141 143 129   139 141 127   121 123 109   133 134 120   141 143 129   137 139 125   147 149 135   164 166 152   164 167 155   165 168 160   169 172 165   162 165 158   167 169 164   175 178 173   173 175 171   175 178 174   176 178 177   175 177 176   175 176 177   178 179 181   182 183 187   188 189 193  
 153 155 131   136 138 114   112 114  90   105 107  83   114 116  92   133 135 111   119 120  97   129 131 107   145 147 123   175 177 153   162 166 143   132 136 114   123 127 104   132 135 114   132 135 114   123 126 105   126 128 108   138 141 122   128 131 112   118 121 102   109 113  94   108 111  92   112 115  98   135 138 121   156 158 142   137 140 123   131 133 117   141 144 127   148 151 134   145 148 130   132 135 118   136 139 122   139 142 125   136 140 122   143 146 129   154 157 140   155 157 144   165 168 158   168 171 163   161 165 158   174 177 170   185 187 182   175 177 173   172 174 171   175 177 176   176 178 177   176 178 178   179 180 182   183 184 186   187 188 189  
 147 149 125   149 151 127   129 131 107   131 133 109   139 142 118   144 146 122   130 132 108   137 139 115   139 141 117   147 149 125   123 127 104   117 121  98   108 112  89   134 137 115   133 136 115   110 113  92   122 125 105   131 134 115   138 141 122   127 130 111   102 105  86    96  99  81   112 115  98   123 126 109   132 135 118   127 130 113   138 141 124   145 148 131   147 150 133   146 149 132   168 171 154   153 156 139   144 147 130   147 150 133   158 161 144   159 162 145   156 159 146   163 166 156   157 160 151   166 169 162   173 176 169   166 169 162   168 170 164   169 171 166   173 175 172   179 181 178   181 183 182   182 183 184   183 184 185   183 184 186  
 141 143 119   143 145 121   135 137 113   125 127 103   131 133 109   142 144 120   149 150 126   160 162 138   151 153 129   140 142 118   141 145 123   141 145 122   127 131 108   140 143 122   131 134 114   107 110  89   117 120 100   122 125 106   135 138 119   127 130 111   104 107  88   104 107  88   125 128 111   152 155 138   156 159 142   151 154 136   166 169 152   158 161 144   146 150 132   148 151 134   160 163 146   147 150 133   140 143 126   150 153 136   163 166 149   162 165 149   158 161 147   159 162 151   158 161 152   175 178 169   172 175 166   150 153 146   161 164 158   170 172 167   175 177 174   179 181 178   178 180 179   180 182 181   183 185 184   184 186 185  
 137 139 115   119 121  97   124 126 102   141 143 119   149 152 127   150 152 128   150 152 128   147 149 125   133 135 111   124 126 102   115 119  97   111 115  92   111 115  92   114 118  96   121 124 103   128 131 110   131 134 113   135 138 119   135 137 118   126 129 110   116 119 100   116 119 101   123 126 109   128 131 114   122 125 108   120 122 105   146 148 132   147 150 133   148 151 134   159 162 145   147 150 133   150 153 135   150 153 136   154 157 140   156 159 142   153 156 139   152 155 141   156 159 147   172 175 165   179 182 174   169 172 163   155 159 150   161 164 157   173 175 168   179 182 176   178 180 175   172 174 171   175 177 175   183 185 184   189 191 189  
