P3
50 50
255
 155 168  58   168 181  73   165 179  70   161 175  64   147 161  47   166 181  62   164 177  59   153 167  46   159 172  53   164 178  57   156 169  51   152 163  43   159 170  50   155 166  44   166 177  57   152 162  41   145 155  33   153 163  41   147 157  36   137 145  24   154 159  42   147 150  34   160 163  47   172 175  59   154 157  41   134 137  21   137 140  25   146 151  36   148 153  38   128 133  20   116 120   8   138 142  32   151 157  47   135 141  32   131 137  27   124 130  24   143 149  48   145 151  53   111 117  19   104 110  12   115 121  23   115 122  24   108 114  16    77  85   4    97 105   6   162 170  71   155 162  63   128 134  35   131 137  37   137 144  41  
 152 168  59   162 178  69   163 181  73   146 162  51   152 166  52   135 150  30   142 158  37   156 171  50   150 163  43   151 164  44   159 173  53   155 169  49   161 171  53   158 169  51   153 163  46   140 151  33   144 153  36   143 152  35   132 141  24   151 158  43   142 147  33   137 140  29   151 154  43   160 163  52   143 146  35   134 138  27   135 139  30   127 131  22   138 143  34   171 175  67   172 176  69   150 156  49   128 134  29   126 132  26   136 142  37   126 132  28   102 108  14   125 130  35   145 150  55   134 139  44   130 135  40   140 146  50   137 143  47   142 148  52   144 150  54   135 141  45   109 115  17   125 131  33   120 126  28   109 115  16  
 130 146  37   117 133  27   132 148  41   127 144  32   135 149  35   144 159  40   138 153  34   137 152  33   152 165  48   156 169  52   154 167  51   165 178  63   155 165  51   153 162  50   140 149  38   133 143  33   143 150  41   148 155  46   124 132  23   133 140  31   124 128  22   114 116  12   124 127  23   126 130  26   115 117  14   132 136  31   160 164  60   158 164  60   171 177  74   162 168  64   139 145  41   141 148  43   130 136  34   121 128  26   128 134  32   134 141  40   140 146  51   115 120  26   136 141  47   158 163  69   160 165  71   147 152  58   135 140  46   162 167  73   170 176  80   145 151  55   135 141  45   119 125  28   133 139  41   156 162  64  
 109 123  16   113 127  22   133 149  42   136 152  41   149 163  49   135 150  31   141 156  38   153 168  50   146 159  44   137 149  36   145 158  47   156 169  57   149 158  50   127 136  29   137 146  41   159 167  65   130 136  36   116 122  22   105 111  11   126 132  32   140 144  48   114 118  22   113 116  20   116 121  25   114 117  22   128 133  37   150 155  59   148 154  56   123 128  32   111 118  19    93 100   4   124 131  33   127 134  37   126 135  37   127 134  36   134 141  45   133 139  46   129 135  42   112 119  26    94 101  15    92  99   9   124 130  37   161 168  73   166 172  77   141 148  52   150 156  61   162 169  73   169 176  80   199 206 110   159 165  69  
 119 132  26   121 134  28   130 146  39   138 155  45   141 155  41   132 147  30   141 156  39   154 168  53   149 161  49   143 156  45   152 164  56   163 174  68   143 150  49   134 142  43   139 146  49   124 131  35    72  77   4   111 117  26   125 130  39   112 118  27   121 125  37   129 133  45   128 132  46   110 114  26    98 102  15   111 115  27   118 122  35   108 114  23   119 125  34   101 107  17    68  75   1   105 114  20   126 135  42   145 154  61   120 128  35    94 103  10   129 135  45   121 127  37    97 103  13    96 103  11    88  95   3    97 104  11   131 138  43   116 123  28   128 135  40   127 134  39   121 128  32   180 187  90   133 140  44   138 145  49  
 161 174  68   162 175  69   128 141  35   120 133  25   150 164  51   167 181  67   153 167  53   138 152  39   151 163  53   150 162  54   138 148  45   143 154  52   149 156  60   102 109  14    90  96   7   125 131  43   100 104  21   114 118  35   110 114  31   132 135  55   132 135  55   132 137  55   122 127  47   112 116  35    93  98  16    59  64   2    44  49   1    58  66   1    50  58   3    70  78   7    76  85   6   129 139  50   134 144  55   146 156  67   131 141  50   127 136  45   116 122  34   110 116  26   113 118  28   109 114  24    96 103  10   108 115  22   114 121  26    89  96   3   110 117  21   127 134  38   176 183  87   119 126  31    78  85   1    78  85   1  
 156 168  63   146 158  53   136 148  43   155 168  60   153 167  54   138 152  40   134 147  36   146 159  50   151 163  56   138 149  45   140 151  50   130 140  43   109 115  23    97 103  13    80  86   2    88  93  11    86  89  16   107 111  32   109 111  34   118 121  45    89  93  17    88  92  17    84  88  12   104 108  31   113 118  41    99 105  25    84  91  19    70  78  11   107 115  32   133 142  56   135 145  59   142 152  65   117 127  41   121 132  45   110 121  34   115 125  37   122 132  42   123 130  42   142 149  59   143 149  59   131 138  45   129 137  42   125 133  37   124 131  35   143 151  54   164 172  75   145 153  57    93 101   5    88  96   2    68  76   1  
 162 173  70   138 149  45   154 165  60   129 141  34   118 131  22   132 145  36   129 142  35   135 148  43   153 164  61   139 149  49   134 144  48   129 139  44   106 112  22    77  83   5    97 102  18   125 130  48   137 140  61   104 107  30    87  89  14    90  92  17    84  88  12    71  75   1    85  89  13   126 130  53   106 113  34   108 115  35   146 154  72   122 130  47   112 121  38   115 125  39   125 135  49   118 128  41   108 120  34   105 118  30   100 113  25   126 136  49   152 161  72   148 157  68   110 119  28   114 123  31   138 147  53   130 140  44   130 140  42   134 145  44   125 135  36   120 130  31   115 125  27   118 128  31   115 125  30   107 117  31  
 154 165  63   119 130  26   140 151  47   133 144  40   104 117  10    99 112  12   118 131  25   129 141  38   138 148  48   149 159  62   100 110  14   108 117  24   117 123  33   110 116  36   108 113  29   144 149  67   126 129  49    89  93  14    96  99  21    79  81   3   104 109  28    89  94  14    99 104  24   107 112  31    95 100  17   113 118  35   139 147  63   113 121  37   107 115  30   129 137  51   112 122  35   101 111  23    89 100  13   108 119  30   106 117  28   107 117  29   123 132  43   122 131  42    96 105  14   103 112  19   132 142  45   134 144  46   130 141  40   127 138  34   116 127  26   113 124  23   119 130  29   138 148  50   154 164  67   154 164  67  
 135 146  44   117 128  26    78  89   4   118 129  25   135 147  45   102 114  13   122 134  32   135 147  47   143 153  56   153 163  67   107 117  21   131 140  47   131 137  47   122 128  40   121 126  41   139 145  59    97 101  17    92  96  13   111 114  33   108 112  29   104 110  24   108 114  27   154 160  73   160 166  78   137 143  55   118 124  37   115 121  33    99 108  19    95 104  16   172 180  92   166 175  84   147 157  66    97 108  16   103 114  22    91 101  10    70  80   2    76  85   3    94 103  12   113 122  29   134 144  48   131 141  42   104 115  13   104 115  12   130 141  36   137 148  44   121 132  28   124 135  32   139 150  48   132 142  43   117 127  30  
 117 125  27    60  68   1    77  85   6   139 149  48   136 147  48   118 130  30   121 133  33   103 115  17   118 128  31   134 144  48   136 146  50   130 139  46   137 144  51   119 125  34   111 118  27   118 125  36    83  88   1    95  99  12   114 118  32   111 115  27   136 141  48   115 120  25   124 129  35   122 127  32   144 149  55   148 155  59   149 157  61   135 142  47   148 155  60   171 180  84   141 150  57   149 158  64   122 131  38   126 135  42   121 130  36   122 131  37   130 141  49   130 141  49   145 156  62   161 173  75   159 171  69   140 153  48   132 145  39   150 163  55   153 166  58   131 144  35   128 141  35   134 147  42   118 130  27   103 115  15  
 108 116  17   109 117  20   158 166  66   149 159  60   137 147  50   124 136  39   127 138  43   123 134  38   134 144  47   130 140  44   139 149  53   121 131  35   133 140  46   117 123  34   108 115  21   109 116  22    96 101   8   105 110  18   130 135  44   132 137  44   116 121  22   139 145  43   154 160  59   128 134  33   133 140  38   120 126  25   143 151  51   140 148  48   136 144  45   147 156  56   133 140  43   140 150  52   142 151  54   154 163  66   138 147  50   130 140  44   144 155  61   137 148  54   148 159  63   149 161  62   152 165  62   156 170  64   145 158  50   143 157  46   140 154  43   138 152  40   141 154  46   127 140  34   104 117  12   107 119  17  
 101 109   9   151 161  59   167 177  76   140 150  50   147 157  59   132 143  46   123 134  38   115 126  29   107 117  21   126 136  40   123 131  36   104 113  23    92  99   5    89  96   8   143 150  55   121 128  33   109 114  20   112 117  24   113 118  24   151 157  60   135 140  37   144 150  44   136 142  37   128 133  29   153 158  54   118 123  19   133 138  34   118 123  20   145 150  48   144 150  49   141 149  48   124 131  32   126 134  34   144 152  52   145 153  54   160 170  72   157 168  73   141 152  57   152 162  66   146 158  58   136 148  44   136 149  43   131 144  35   142 156  44   133 147  35   132 146  35   142 155  47   136 149  43   115 128  23   122 134  31  
 149 160  52   149 162  53   157 169  63   151 164  57   156 165  62   130 139  36   113 122  20   107 116  16   123 132  34   123 131  35   116 122  27   105 110  21   101 106  15   111 117  26   152 158  66   109 115  23    95 100   7   107 112  20   119 124  32   131 136  41   136 141  40   133 139  35   134 137  34   136 139  36   160 159  56   141 140  37   133 131  28   129 128  25   139 138  35   151 151  49   131 133  31   145 151  49   173 180  79   150 157  56   134 144  45   145 155  56   141 149  51   153 161  63   160 169  70   135 146  45   117 125  23   126 137  33   140 150  44   142 154  47   130 142  35   149 161  54   136 148  42   131 143  37   131 143  37   135 147  42  
 160 173  63   156 170  59   162 176  65   168 180  70   154 163  55   142 151  42   133 140  34   121 128  24   137 143  43   121 127  29   103 108  14    82  87   3    72  77   2   106 110  23   112 116  29    95 100  12   105 110  20   106 111  21   142 147  57   158 163  70   158 162  66   156 160  62   149 151  52   162 162  61   156 152  52   183 179  78   171 163  62   142 134  33   199 194  92   188 185  82   149 147  46   159 162  61   164 169  69   127 135  34   119 129  30   114 124  25   133 141  40   147 153  53   137 145  44   124 132  31   131 139  38   134 143  41   137 145  42   149 157  54   148 156  53   153 165  60   139 147  44   132 143  38   143 153  48   148 158  53  
 161 167  64   174 182  80   158 166  64   146 155  51   147 155  46   149 157  46   156 164  55   148 156  49   147 154  51   132 139  38   129 135  39   125 130  35   161 166  76   131 136  47   118 122  34   119 122  36   102 106  19    98 102  15   140 145  55   130 135  43   132 137  45   148 152  58   126 127  34   146 146  50   153 149  52   138 133  37   150 144  47   183 177  78   181 176  76   164 160  61   145 143  42   146 148  47   128 133  33   122 130  29   140 151  49   116 127  25   142 150  49   144 152  50   119 127  26   114 122  21   140 148  45   137 145  42   133 141  38   160 168  64   157 165  60   152 161  56   168 174  70   169 178  71   168 174  68   160 169  62  
 158 160  65   179 182  89   167 171  79   175 180  84   161 169  60   140 148  35   132 141  29   133 140  31   117 124  19    99 107   4   109 115  16   125 131  35   104 109  17    92  97  15   121 126  35   137 141  53   131 136  48   124 129  41   109 114  24   102 107  18   108 112  24   130 135  46   122 125  38   112 112  23   131 127  37   124 119  28   158 152  59   129 123  28   139 133  36   152 148  50   149 149  49   143 144  43   132 137  37   142 150  48   157 168  65   135 146  43   133 141  40   136 144  43   133 141  40   133 141  38   137 144  42   132 140  37   130 137  34   136 143  38   159 166  61   144 151  44   152 157  50   149 155  46   161 166  58   151 156  47  
 106 103  16   104 102  17   107 104  22   154 155  66   167 173  65   148 157  41   141 149  36   142 150  38   115 122  15   108 115  11   116 122  21   124 130  31    96 102  13   128 133  40   112 117  24   114 119  28   116 121  30   102 107  17    98 102  15   101 105  19    96 100  18    91  94  15    89  90  22   114 114  30   104 101  16   140 136  49   184 178  89   144 139  48   135 131  37   140 138  42   126 126  27   123 127  25   139 144  42   137 145  41   132 142  37   134 145  41   133 141  39   127 135  33   138 146  43   137 146  42   122 129  26   129 136  31   127 134  29    97 101   4    90  94   4   127 131  23   153 156  48   141 144  34   144 146  36   135 137  25  
 118 111  30    90  83   6    83  75   4   143 139  56   148 152  45   145 153  35   153 161  43   162 169  55   128 135  24   127 133  24   130 136  31   130 135  33   108 113  18   116 120  24    99 103   8   136 140  47   117 120  29   123 127  36   149 152  64    87  90   6    48  50   4    86  88  13    71  72   3   108 107  28   110 108  28   158 155  71   133 128  41   121 117  27   121 118  25   117 117  21   108 108  10   114 119  17   144 149  46   146 154  48   136 145  39   150 159  53   147 154  51   133 140  36   128 135  31   118 126  20   113 120  14   135 141  33   140 144  37   110 113  10   134 136  37   152 153  42   154 154  43   135 135  23   121 119   7   137 136  22  
 116 105  26    67  58   1    59  49   1   134 128  47   157 160  53   120 128   7   119 128   8   165 173  54   161 168  54   166 173  61   155 161  52   145 151  45   138 143  40   116 121  21   114 118  21   133 137  42   100 104  11   125 129  36   131 134  43    76  78   1    64  67   1    85  87  12    84  85   9   116 114  37   115 112  34   127 124  43    99  94   9   122 118  29   115 111  20   135 132  37   146 146  48   137 141  38   141 147  42   153 161  52   143 151  42   132 140  32   126 132  27   130 135  30   125 131  25   122 128  20   141 144  37   162 166  57   169 171  62   166 166  56   152 152  40   134 132  19   144 141  28   162 160  45   123 117   4   128 124   6  
  96  85   5    53  41   1    80  70   1   130 123  42   158 162  52   119 127   5   143 151  30   155 163  43   150 158  39   163 170  54   148 155  41   130 137  26   116 122  14   133 138  34   142 147  45   110 115  15   128 132  35   128 132  36   108 112  18   110 112  23   120 121  41   107 107  29   124 122  44   108 107  26   125 122  40   148 146  62   113 109  22   112 108  17   101  98   5   140 137  40   163 162  62   155 158  55   141 144  36   127 133  23   121 127  17   124 130  20   126 132  22   141 144  34   150 154  44   162 166  56   183 184  75   169 168  58   176 176  64   151 149  35   155 151  38   144 141  26   132 126  12   127 122   5   138 131  15   157 149  32  
 114 104  17    94  86   3    88  79  12   138 133  44   147 151  40   119 126   6   149 156  36   139 146  26   133 140  21   150 157  38   126 133  16   131 137  23   141 147  36   152 158  49   144 149  42   133 138  35   143 147  46   116 120  19   119 123  25   129 132  37   124 126  37   121 120  36   132 131  45   121 120  34   123 120  33   138 136  47   122 117  27   107 103  12   144 141  45   151 148  48   151 149  47   149 150  43   149 150  41   135 137  25   119 120   9   115 117   6   140 141  30   126 127  16   146 145  32   165 165  52   176 174  62   159 156  44   160 157  43   146 142  27   140 134  19   140 134  17   140 132  16   140 132  16   150 140  23   160 150  33  
 143 136  40   107 101   7   158 152  61   160 158  60   119 122  15   150 155  35   144 149  29   147 152  32   137 142  22   125 130  11   149 154  35   150 155  38   139 144  29   155 159  47   142 146  35   131 135  27   143 146  41   124 126  23   130 133  32   119 121  22   121 121  25   118 118  24   122 120  27   126 124  29   115 112  16   116 113  17   121 117  20    97  93   1   118 114  16   115 111  10   107 104   2   110 108   2   122 121   9   125 124   9   127 125  11   136 134  19   136 132  17   117 113   2   151 148  31   162 159  42   159 154  38   161 156  40   155 149  33   137 131  14   141 133  17   149 141  24   158 149  32   165 156  39   171 160  44   172 161  45  
 145 144  37   116 116  10   153 153  48   144 145  38   142 146  34   166 171  53   163 168  48   166 171  51   177 183  61   169 174  53   160 165  44   153 158  39   151 156  37   141 146  29   146 151  36   139 143  31   148 152  42   130 133  25   124 127  21   129 131  26   129 128  23   131 131  26   139 136  32   156 153  49   128 125  22   109 106   3   139 134  32   136 131  27   111 107   3   124 120  14   126 121  14   123 118   8   129 124  11   136 132  15   141 136  19   148 142  26   139 131  13   125 117   1   159 151  33   160 152  34   142 134  15   159 150  32   154 146  27   138 130  12   164 154  36   165 154  37   164 154  38   165 155  39   170 159  43   171 160  44  
 137 141  22   165 169  50   171 176  59   170 175  58   154 159  42   172 177  59   160 165  47   157 162  42   163 169  47   158 163  41   162 168  46   168 174  52   172 178  56   161 166  46   181 186  68   157 162  46   152 156  43   145 149  38   142 146  37   161 163  53   174 173  60   147 146  31   128 127  11   150 148  36   153 151  39   147 145  34   169 165  56   164 160  51   137 132  22   149 143  33   144 138  26   136 129  15   147 141  25   164 157  41   171 162  44   172 163  42   172 162  41   150 140  17   162 150  28   171 161  38   147 137  14   152 143  22   156 146  25   161 150  32   151 140  22   156 145  27   162 151  35   168 157  41   176 165  49   178 167  51  
 169 174  48   167 173  47   170 179  52   144 153  28   138 143  25   155 160  42   134 139  21   155 160  41   164 170  48   147 153  32   166 172  48   156 162  38   147 153  29   158 164  42   168 174  54   142 147  29   141 146  30   150 154  41   164 168  55   153 156  41   150 150  29   146 144  21   143 141  20   156 154  34   164 161  43   161 158  42   163 157  43   159 153  41   166 158  47   172 165  50   169 162  48   172 162  47   182 172  55   181 172  52   169 158  39   160 150  29   169 157  33   161 150  26   153 138  15   173 161  37   160 149  25   160 148  26   164 151  29   166 154  34   130 118   3   148 137  19   169 158  42   181 170  53   181 170  55   177 166  50  
 171 175  52   159 166  39   166 175  46   166 175  48   157 165  44   150 155  36   165 170  52   155 160  43   156 160  41   169 173  54   166 171  51   165 172  51   128 136  17   130 138  19   133 142  22   138 146  28   155 160  44   155 157  42   176 177  62   163 162  45   155 150  28   164 159  35   166 161  39   158 153  31   159 154  33   164 158  39   166 158  40   174 167  49   182 172  55   179 169  51   172 160  42   172 160  41   181 167  47   174 161  39   168 155  32   176 161  38   141 126   2   154 139  15   147 131   7   159 144  20   164 150  27   175 163  39   172 157  36   161 149  27   166 153  33   176 165  46   190 179  60   191 180  61   189 177  61   177 166  49  
 178 181  65   173 178  58   174 183  57   162 171  45   141 150  28   147 156  34   174 179  61   163 168  50   162 164  48   155 158  42   143 147  32   112 119   7   102 110   1   113 122   7   128 138  22   122 131  15   144 149  33   162 162  48   186 182  68   187 181  64   185 178  58   177 170  48   174 166  45   171 164  41   185 178  55   189 181  59   170 160  38   166 156  34   166 156  33   181 168  44   178 163  40   173 158  33   184 167  43   183 167  40   175 157  31   176 158  32   169 150  26   170 153  31   176 157  36   177 159  38   187 170  48   185 170  48   172 156  35   177 162  41   168 154  32   164 151  30   172 158  39   179 167  47   187 175  56   167 155  36  
 173 176  61   158 163  45   164 173  48   151 160  35   138 148  25   129 139  17   163 168  50   174 179  60   168 168  54   150 152  37   159 162  49   147 154  43   138 147  36   111 121   8   104 114   7   115 124   9   157 162  46   170 170  57   180 174  60   172 165  49   169 160  39   173 163  41   184 174  51   183 174  50   187 178  54   183 172  49   160 150  26   162 149  24   181 168  43   192 177  51   176 161  35   153 136   9   160 141  14   175 156  27   176 155  27   170 151  23   173 153  30   180 161  38   178 158  36   193 174  51   187 168  47   167 149  28   173 157  35   167 151  29   163 147  26   171 157  35   166 152  31   177 163  42   170 158  37   159 147  26  
 167 171  57   170 175  57   162 171  46   145 153  28   149 159  36   165 175  53   197 202  84   183 188  70   163 163  49   159 162  49   185 187  77   158 165  53   159 167  54   122 132  18   116 126  13   135 144  29   168 173  57   164 164  50   176 170  56   188 178  63   184 174  53   184 174  50   186 175  51   177 166  42   176 165  41   178 164  40   172 158  33   188 173  46   190 176  49   185 167  39   175 158  30   174 155  26   175 156  27   171 152  23   170 149  21   174 154  26   157 137  12   166 146  23   172 152  29   180 160  37   166 146  25   160 141  20   179 161  40   169 153  31   176 160  39   170 155  34   162 148  25   169 155  33   148 136  14   144 132  10  
 182 186  73   144 149  31   163 172  47   156 165  40   142 152  30   170 179  60   135 140  24   116 121   5   175 175  63   169 172  59   164 166  56   172 179  67   116 124  12   135 145  32   156 166  51   147 156  42   155 160  44   155 155  41   169 164  49   168 159  42   189 177  55   180 168  43   179 166  41   177 163  37   186 172  47   189 173  46   174 159  32   183 165  37   183 165  37   172 153  24   176 157  28   191 171  40   187 167  36   170 150  18   165 145  14   171 150  21   171 150  25   155 133  11   185 163  41   203 183  60   190 169  47   177 159  35   178 159  38   198 179  58   204 188  65   163 147  25   166 152  29   175 161  38   157 143  21   151 137  15  
 173 177  65   154 159  41   159 167  43   160 169  44   159 169  47   152 161  43   132 137  22   153 158  43   191 191  80   150 152  40   152 153  44   162 169  58   144 152  40   126 136  23   114 124   9   101 109   3   124 129  13   141 142  25   165 159  45   168 159  41   171 158  36   168 154  28   171 157  31   171 155  28   174 158  30   171 153  24   159 140  11   171 152  22   167 145  16   168 147  16   175 154  23   173 153  19   162 141  10   164 143   9   168 147  13   160 139   8   177 155  30   175 152  30   195 172  50   191 169  46   186 164  41   190 170  46   183 164  42   195 176  54   159 143  20   151 135  13   158 144  21   144 130   7   144 131   8   161 149  27  
 138 142  31   149 154  37   148 154  31   130 139  15   141 150  31   158 167  50   177 181  68   194 198  85   182 182  72   133 135  25   152 154  45   140 146  36   136 144  32   117 127  14   109 119   4   102 111   5   127 132  16   141 142  25   167 161  46   176 167  48   186 172  49   166 149  23   155 139  11   161 142  14   181 161  31   183 162  30   158 137   5   155 133   4   168 145  12   174 151  17   184 160  27   175 152  18   160 137   6   170 148  13   183 161  26   175 152  20   189 165  39   205 181  57   197 173  49   189 168  43   188 167  42   176 156  31   169 151  27   164 146  22   152 137  12   163 148  23   154 140  17   150 138  14   156 145  21   146 136  16  
 103 107   2   120 125   9   143 149  28   121 129   8   144 151  34   158 167  51   134 138  27   150 154  43   125 124  16   104 106   4   172 174  65   137 143  33   141 149  38   130 140  27   123 133  18   125 134  24   130 135  19   148 149  32   179 174  57   165 156  37   166 152  29   163 145  19   170 151  23   177 157  28   170 148  18   160 137   9   162 138   4   176 150  18   185 160  24   183 157  20   181 156  20   174 150  15   164 142   7   166 145   8   177 157  22   185 164  31   179 155  28   188 164  38   174 152  26   166 145  19   167 146  20   161 141  14   157 140  14   157 139  13   163 148  22   156 143  16   141 129   4   146 136  10   159 150  24   156 147  24  
 148 152  42   131 136  20   141 146  28   141 146  28   130 137  21   151 160  45   148 152  41   126 130  19   140 139  31   152 154  46   142 144  35   141 147  37   154 162  51   128 138  25   134 144  31   144 154  37   133 138  22   140 141  24   177 172  55   143 134  15   167 151  29   164 146  20   173 152  25   177 156  28   167 142  13   162 138   4   178 153  17   195 169  32   196 170  33   193 167  30   191 165  28   186 163  25   179 157  20   173 154  16   178 158  23   187 167  34   194 172  45   184 163  36   165 144  17   155 136   8   160 141  13   162 143  15   162 144  18   166 151  24   162 149  21   163 152  23   162 153  26   157 149  22   150 142  15   145 140  12  
 155 159  46   136 140  27   144 147  32   140 145  29   122 129  15   153 161  49   152 156  46   123 127  17   143 142  36   145 147  40   119 121  14   135 141  33   122 130  18   136 146  33   133 143  30   126 135  18   144 149  33   139 139  22   157 152  35   169 160  41   195 179  57   184 167  41   180 159  32   172 151  23   161 136   7   159 135   1   168 142   6   171 143   7   183 155  19   184 158  19   187 161  24   187 164  26   183 162  25   177 157  22   175 158  23   178 160  26   185 164  36   180 159  31   171 150  22   171 152  23   172 153  24   162 146  15   158 143  14   168 156  25   156 146  16   155 146  15   157 150  20   162 158  27   163 159  29   165 162  31  
 143 147  34   140 144  31   143 145  33   120 125  12   144 151  39   121 129  18   133 137  28   132 136  27   125 124  18   129 131  24   130 132  25   127 133  25   119 127  16   147 157  44   147 157  44   140 149  32   133 138  24   154 155  38   168 163  46   183 174  57   181 167  45   180 162  38   180 160  35   176 155  27   166 143  13   169 145  11   180 153  18   181 153  17   182 155  16   183 157  18   187 161  24   186 164  27   185 165  30   181 163  28   178 162  28   177 160  28   171 153  21   183 164  34   184 166  36   177 160  29   168 152  22   158 144  13   160 148  17   174 165  33   170 162  30   168 161  29   166 162  31   169 167  35   176 175  43   183 184  51  
 148 152  39   134 138  26   137 139  29   131 135  24   137 143  33   115 123  13   134 137  30   128 131  24   120 119  13   133 135  28   131 133  26   126 132  24   136 144  33   143 153  40   153 163  50   148 157  40   103 108   1   152 153  36   171 166  49   162 153  36   179 165  43   179 162  39   183 163  39   179 158  31   168 145  15   169 145  11   184 156  21   191 163  27   193 166  28   189 163  25   181 156  19   174 152  16   171 151  17   173 156  21   172 157  24   171 156  23   186 171  38   195 180  47   188 172  40   169 156  23   165 151  20   164 153  21   164 155  22   168 160  27   170 165  32   183 180  47   187 186  52   178 179  44   173 176  41   179 182  46  
 135 140  25   123 127  16   133 135  26   136 139  31   109 115   7   133 141  31   120 123  16   115 118  11   116 114  10   106 107   5   127 129  22   130 136  28   136 144  33   136 146  33   124 134  21   109 118  14   131 136  22   169 170  53   164 159  42   170 161  42   172 158  38   163 147  25   168 148  25   174 153  27   169 146  18   169 145  12   181 153  19   188 160  24   196 168  32   192 165  29   180 156  20   172 151  16   172 154  20   177 160  27   175 162  30   171 158  26   185 171  38   187 173  40   176 163  29   168 155  22   173 160  27   171 161  27   161 153  20   157 150  17   188 185  51   190 190  55   185 186  52   172 176  40   167 171  35   164 170  34  
 151 157  45   137 140  33   119 122  17   104 107   3   119 125  17    89  95   3   106 110   1   111 115   5   128 130  23   141 143  37   120 123  14   136 140  31   130 136  26   104 111   3   104 111   1    83  87   1   135 138  23   149 148  32   157 152  35   167 156  40   164 149  32   150 131  11   155 135  13   175 154  31   183 159  34   179 154  27   178 153  24   177 153  20   168 144  11   172 148  14   175 153  17   176 157  23   182 165  33   185 171  40   179 166  35   168 158  27   178 165  35   173 160  30   164 151  22   162 151  20   168 158  26   166 157  26   170 163  30   183 179  43   184 182  45   177 179  39   171 172  33   165 168  28   162 165  25   156 160  21  
 121 126  23    87  92   1   104 108  11   123 128  29   110 116   8    90  97   3   144 148  37   169 173  61   149 151  41   167 169  58   142 144  34   147 147  37   134 133  25   137 137  25   111 108   1   105 103   1   134 130  20   156 150  38   159 150  40   145 133  22   152 132  19   147 126  11   144 123   9   154 133  17   155 133  15   164 142  22   180 158  36   166 147  22   153 134  11   166 147  20   168 151  23   180 164  34   177 162  33   180 167  37   182 169  39   141 129   3   160 148  27   168 158  38   178 167  49   183 175  54   183 175  51   168 163  37   168 164  31   185 184  44   165 164  20   159 158  10   176 175  26   161 159   9   171 167  18   176 170  25  
  99 104   5   104 108  10   108 112  18   107 111  13   131 137  30   140 147  34   145 150  39   160 164  51   144 147  35   155 158  46   152 152  41   125 123  13   108 104   8   139 133  23   133 127  17   140 131  23   160 151  42   155 143  35   152 141  32   163 148  39   156 136  25   146 123  12   127 105  12   140 119  11   166 145  30   180 160  42   176 157  39   147 128  10   129 113   2   155 140  18   139 124   1   140 125   1   157 144  20   147 134  11   153 140  10   176 162  36   188 176  55   203 192  73   201 190  72   185 176  55   182 173  51   183 178  51   182 178  45   181 179  40   161 160  16   137 134   1   140 136   1   146 139   3   159 149   9   171 159  22  
  97 102   2   113 117  19    97 101   6    95 100   1   136 142  36   143 150  40   110 116   7   130 135  25   126 128  19   131 132  22   157 156  47   149 146  37   147 142  33   177 170  60   175 165  57   176 165  56   185 174  63   177 164  54   159 145  36   139 122  13   135 115   6   168 146  36   171 149  39   165 143  32   160 140  26   153 134  17   157 138  21   157 138  19   153 137  16   142 126   9   139 123   2   151 136  12   148 135  14   148 135  18   173 160  30   190 177  48   197 186  60   200 189  63   188 179  53   177 169  42   183 175  48   187 181  51   185 179  46   184 179  41   162 156  18   145 139   6   155 147  12   177 165  33   164 149  25   162 144  28  
 110 115  13   111 116  14    75  80   1    79  84   1   124 130  26   119 126  20    93  99   2   109 115   6   124 126  19   155 155  46   178 176  68   183 179  71   167 160  53   145 137  28   147 136  28   173 160  50   164 149  40   143 128  17   137 119  10   112  95   1   134 113   5   164 143  36   160 139  31   151 129  20   149 129  17   145 125  11   148 130  16   153 135  19   149 133  14   134 118   1   145 129   8   173 158  33   188 176  47   194 181  53   188 175  45   175 162  32   178 168  37   184 174  41   182 172  41   179 169  38   180 170  39   176 168  35   179 171  37   192 185  49   199 189  54   189 177  45   187 173  48   187 169  53   152 130  27   147 122  31  
  95 101   2   126 131  28   132 137  38   156 161  61   137 144  41   104 111   6   110 115  13   143 149  43   144 146  41   151 150  44   147 144  39   178 171  65   166 158  51   152 142  35   175 161  54   193 176  68   147 129  19   126 105   1   161 141  31   170 149  42   180 159  54   182 162  56   163 142  37   161 140  33   167 146  36   158 138  26   144 126  13   126 108   3   142 125   9   147 131  10   185 169  48   190 175  50   165 151  26   165 152  24   173 160  30   174 161  30   165 155  21   174 164  30   172 162  28   171 161  27   183 173  39   193 182  48   188 176  42   183 171  37   182 168  39   202 186  64   206 186  72   169 145  44   139 111  26   161 128  56  
 127 133  27   135 140  37   139 144  41   151 156  54   142 149  47   126 133  30   130 135  34   135 140  37   121 122  20   144 142  39   130 127  22   112 105   2   126 115   9   134 121  16   134 117  12   136 118  10   134 112   4   147 126  16   175 153  42   174 152  44   161 140  35   156 137  34   154 135  32   165 146  41   161 143  36   152 134  25   155 137  25   144 127  13   145 128  12   142 126   5   181 164  44   190 175  50   171 158  32   168 155  27   155 142  15   149 136   6   175 162  31   174 161  30   170 157  26   178 165  35   197 184  53   199 184  52   185 170  38   177 163  32   175 157  31   159 138  19   167 143  35   155 126  36   144 110  34   129  92  30  
 141 147  41   141 147  41   161 166  63   171 176  74   136 142  42   126 132  32   128 133  33   130 135  34   106 106   6   117 115  14   129 126  23   129 122  18   161 150  45   149 135  30   130 114   8   142 123  18   162 139  33   160 138  29   166 142  34   174 150  45   174 153  51   160 141  40   160 142  40   162 144  40   136 117  12   117  99   1   145 127  17   147 131  16   159 143  27   180 165  43   175 160  38   159 144  19   169 156  28   152 138   8   123 110   1   156 142  12   160 147  18   168 154  27   179 165  37   185 169  41   172 156  29   151 133   5   152 135   5   174 154  26   166 145  20   158 135  16   148 121  14   107  76   1   124  88  12   149 112  48  
 158 164  58   149 155  49   150 155  52   132 137  35   128 134  34   129 135  36   123 128  28   110 115  16   112 112  12   120 118  18   118 114  18   110 102   8   161 150  46   134 121  16   140 123  18   162 143  38   161 139  34   150 128  20   154 130  23   157 134  29   140 121  22   150 132  33   154 136  35   143 125  25   125 108  15   140 123  17   164 148  37   149 134  19   156 141  24   169 155  33   169 155  31   160 146  20   156 141  13   151 136   6   152 138   6   164 149  19   173 158  33   190 173  52   196 178  57   178 158  37   150 131   8   142 121   1   155 135   9   173 151  24   157 132   7   139 113   6   132 103   3   119  86   1   132  98  13   128  93  20  
 141 146  42   105 111  12   117 122  20    90  95   7    92  98   8   110 116  16   127 132  32   127 132  32   115 115  15   103 101   1   101  97   1   105  97   1   123 113  10   140 128  23   165 149  46   171 153  49   155 136  32   151 130  24   153 132  27   149 127  25   138 120  21   148 131  33   134 119  18   115  99   1   109  94   1   134 119  10   127 111  12   161 146  30   169 154  35   177 163  40   175 162  35   163 150  21   166 152  22   184 170  38   185 171  37   168 154  22   185 168  44   174 154  33   155 134  16   141 119   8   137 115   1   144 120   2   153 130   5   158 133   7   148 123   1   141 115   1   149 122  12   144 116   8   135 104   6   108  78   1  
 112 117  15   111 116  14   111 116  14    86  91   1   100 106   7   113 120  20   110 115  15    86  91   3    81  81   2    99  97   1   116 113  13   120 115  14   150 142  41   161 152  48   160 147  45   138 123  20   127 109   7   139 122  18   151 132  30   147 128  26   131 116  15   120 104   6   118 103   2   105  90   1   135 121  16   128 114   5   134 118   7   179 164  47   202 188  66   180 166  41   183 170  42   199 186  55   194 180  47   186 172  37   187 174  36   186 170  35   169 151  23   146 126   2   129 107   1   132 109   1   138 114   1   139 114   1   142 116   1   150 125   1   143 118   1   154 129   3   162 137  11   155 130  12   159 133  22   162 137  34  
