P3
50 50
255
  13  15   1    14  16   4    18  21   6    85  91  56    97 105  57    69  77  30    72  80  33   101 109  60   110 119  64   106 116  54   101 113  41   128 140  63   118 131  51    93 105  25   176 189 110   122 134  61   138 149  81   109 120  55   102 112  50    63  73  13    64  74  14    82  91  34    80  89  32    78  87  30   106 115  59   102 110  65    12  18   3    37  41  16    28  30  15    27  28  21    15  16  10    20  21  15    20  21  14    15  17   7     6   8   1    21  23   9    59  62  42    68  72  47    64  69  39    86  92  56    82  89  48    57  64  21   107 115  67   121 131  75   107 118  59    55  66   6    87  98  40    58  68  14   104 114  61    97 106  59  
  14  17   1    18  21   3    44  47  25    82  88  49   126 135  82   100 109  56    60  69  16    83  92  38    99 109  50   109 120  53   141 153  77   115 129  47    83  97  14   119 133  49   121 134  52    78  91  11   148 160  86   137 148  80   119 130  63    57  67   6    56  66   5    52  62   2    63  73  14    72  82  21   140 150  90   136 144  93    30  37   1    27  32   5    37  40  21    30  32  20    20  20  15    25  26  20    24  25  18    21  22  11    17  20   3    37  40  21    58  61  37    48  53  23    53  59  24    32  39   2    51  58  16    98 105  60   124 132  83   109 119  65    76  87  29    69  80  22    86  97  42    99 109  58    92 101  53    21  30   4  
  23  27   4    39  43  20    67  71  44    81  90  45   117 128  71    89 100  44    54  64  11    53  64   8    50  62   1    98 111  42    99 113  36    88 103  18    87 103  14   131 147  59   121 137  48   135 150  65   128 141  64   105 118  47   110 122  55    84  96  32    87  99  37    72  83  23    91 102  42   115 127  65   136 147  87   114 125  70    79  88  41    62  69  32    54  60  34    19  23   5    24  25  17    23  24  18    21  22  13    25  27  14    27  30  11    38  42  19    56  60  32    46  51  17    33  40   3    68  75  31    85  93  46    84  92  43   104 112  62   137 147  93    72  83  25    84  95  39   101 111  59    98 107  60    61  70  27    36  44   5  
  38  42  17    64  68  41    70  75  44    69  78  30   115 126  68    88  99  43    43  53   2    55  65  11    51  63   4    60  73   4    50  64   1    63  78  13   127 143  55   152 168  79   118 134  46   146 161  76   112 127  48   109 121  52   119 131  68   119 130  70   100 111  53    68  79  23    71  82  26    72  83  25    71  82  26    69  79  26    93 103  55   131 139 100   115 122  92    12  17   8    23  24  14    19  20  11    22  24  12    45  48  31    61  65  42    61  65  38    66  72  38    57  63  25    51  58  15    82  90  44    87  95  46    90  98  47    97 106  54   150 161 106    87  98  42    96 106  53    98 108  59    50  58  15    24  32   1    51  58  25  
  55  60  30    70  75  42    66  72  35    62  71  24    86  96  45    72  82  32    50  60  10    61  71  20    55  65   9    36  47   1    74  87  16   118 133  54   128 144  58   119 135  47   131 146  60   137 152  67   133 147  71   107 119  55    96 108  50    90 100  48    78  88  39    53  62  16    60  69  23    63  73  24    62  72  22    51  60  14    70  79  35   120 128  89    79  86  53    16  21   3    26  28  15    22  23  14    20  22   7    36  39  19    48  52  27    43  48  16    44  50  12    47  54  11    70  78  30    73  80  30    68  77  24    92 101  48    60  69  16    79  89  34    68  79  23   117 127  75    79  89  43    43  52  11    43  51  15    40  47  15  
  63  69  35    55  61  25    64  70  30    61  69  24    50  59  12    55  64  19    66  75  30    59  68  22    49  59   8    50  61   1   127 139  72   157 172  95   121 136  54    98 113  30   150 165  82   129 144  62   134 147  76    84  95  38    62  72  22    42  51   6    64  72  31    48  55  17    60  68  30    51  59  19    50  59  17    54  63  20    90  98  58   125 133  95    31  38  23    19  24   3    23  25  12    30  32  20    30  32  16    39  43  21    50  55  26    56  62  27    66  74  32    69  77  30    87  95  44    94 103  50    90  98  43    97 106  51    60  69  14    64  74  19    66  76  23   149 158 107    65  74  33    29  37   3    32  40   5    23  29   1  
  59  65  29    47  54  13    60  67  25    50  58  15    55  64  21    67  74  34    61  69  30    60  68  28    72  81  36    77  87  34   124 136  73   171 184 114   127 141  64    97 111  31   158 172  93    96 110  31    55  67   1    50  60   7    41  50   5    24  32   1    53  60  27    42  49  19    50  57  27    44  51  19    57  64  30    65  73  36    82  90  52   110 118  82    33  40  18    10  15   1    17  19   6    27  30  18    30  33  16    39  43  21    47  52  23    43  49  12    39  47   6    46  54   9    87  96  44   103 112  58    96 105  49    92 101  44    49  58   2    60  70  14    56  66  13   119 129  79    61  70  32    40  48  21    42  48  19    30  36  10  
  51  57  23    51  57  18    55  61  22    47  54  17    37  44  10    46  53  19    60  67  33    50  58  21    58  67  24   103 113  61   153 165 102   152 167  97   105 121  45   115 132  54   126 142  67    61  76   4    63  75  15    46  55  11    42  50  12    26  33   1    23  29   2    17  23   1    17  23   1    50  56  29    44  51  18    68  75  41    94 101  67    67  74  43    14  20   1     9  13   1     7   9   1    19  21   7    31  34  16    57  61  39    71  76  47    53  58  20    45  52   6    77  86  33   107 116  59   115 124  67    87  96  39    67  76  24    53  62  12    70  80  27    69  79  26    88  98  46    85  94  49   106 114  75    98 105  71    13  19   5  
  36  40  13    38  43  12    39  44  13    43  48  20    58  63  37    35  39  14    38  43  16    45  53  19    67  78  34   124 137  84   133 148  82    92 108  34    91 109  30   102 120  43    94 111  40    56  72   8    55  67  18    56  61  28    56  58  31    40  43  16    17  20   1    25  28   5    52  55  26    64  67  37    72  75  44    67  70  41    82  85  57    83  86  60    22  24  13    16  18   1    13  16   1    37  40  21    62  65  46    69  73  51    70  74  45    46  53  14    73  81  32   109 118  60   109 119  56   132 142  81    74  82  26    48  55   8    58  65  23    86  95  45    71  80  25    98 107  52    82  91  39   140 148 101    84  90  51    18  25   1  
  38  42  19    40  45  19    39  43  17    35  39  14    27  31   6    24  29   1    40  46  14    57  65  25   104 115  67   153 167 109   126 143  77    87 104  34    63  80   9    76  95  24    79  98  32    67  85  24    61  72  27    51  55  27    46  48  24    41  44  18    35  38   9    41  44  15    52  55  24    53  56  25    63  66  35    63  66  37    60  63  36    64  66  43    28  30  11    10  12   1    11  15   1    28  32  12    50  53  32    41  45  22    31  36   6    32  38   2    70  78  26   111 122  59   115 126  58   117 127  64    59  68  12    48  55   9    57  64  23    99 106  58   111 119  63   117 126  69    78  87  33   120 129  77    64  71  27    66  73  32  
  56  60  37    42  46  22    31  35   9    17  23   2    20  27   1    26  34   1    57  66  19    97 107  53   136 149  91   152 167 106    81  95  36    45  59   4    44  57   7    99 113  55    96 111  52    90 106  45    59  70  22    42  46  17    36  38  14    42  45  18    45  48  19    44  47  17    42  45  14    40  44  13    48  51  22    59  62  35    52  55  31    55  57  35    35  37  16    11  13   1    23  27   2    38  42  15    59  63  38    45  49  23    27  32   2    51  58  16    95 104  50   104 114  51   109 120  53   111 121  57    51  60   4    44  52   3    53  60  18    72  80  31    74  83  28    76  85  28    71  80  25   119 128  74    61  69  19    79  86  41  
  33  37  14    20  24   3    18  22   1    27  33   1    37  46   4    48  58   5    83  94  34   105 117  52   133 147  80    85  99  37    26  39   2    53  64  20    52  63  21    64  75  29    68  82  28   109 125  64    57  68  18    41  46  14    38  41  14    46  49  20    44  47  18    38  41  11    33  36   5    34  37   6    38  41  10    55  58  29    65  68  42    66  68  45    41  43  21    23  25   3    43  47  19    57  62  33    77  81  54    73  78  49    42  48  13    60  67  25   114 123  69    93 104  41    83  94  28    96 106  42    42  51   1    55  62  14    86  93  51    77  84  38    64  73  19    81  90  33   106 116  58   122 131  73    70  79  25    69  77  27  
  28  32   9    26  31   7    34  38  11    42  49  11    29  42   1    67  81  18   119 135  62   101 118  40   134 150  78    55  69   9    38  47   5    48  55  24    58  64  37    63  70  36    66  75  29   130 141  81    74  83  33    44  49  15    39  42  13    43  46  17    45  48  19    43  46  15    37  40   9    31  34   3    36  39  10    48  51  24    62  65  39    75  77  54    48  50  28    30  33   9    21  26   6    93  98  66    75  80  49    53  59  26    62  68  31    56  63  18    70  79  25    93 103  42    90 100  37   112 122  62    59  68  14    69  76  30    84  91  49    71  79  33    87  96  43   110 119  63   137 147  87   114 124  63    77  86  28    85  94  39  
  39  43  18    34  38  13    30  35   6    24  34   1    33  46   1    76  91  23   136 152  77   106 123  45    96 111  42    39  52   3    61  68  35    45  50  29    25  30  13    33  39  13    93 101  61   148 158 102    73  80  31    44  48  14    32  35   4    31  34   3    41  44  13    50  53  22    41  44  13    29  32   2    38  42  13    42  45  18    42  45  19    66  68  44    52  54  31    30  32   9    26  31   3    63  68  36    66  72  39    74  80  45    48  54  17    34  41   1    71  79  27   101 110  54   100 109  52    97 106  50    53  61  11    76  82  40    84  90  52    68  75  33    68  76  27    48  57   5   118 127  69   149 159  97    93 103  41    58  68   8  
  54  57  30    48  51  25    49  53  22    76  86  41   101 115  57   128 144  78   145 162  92   126 142  73    89 103  44    28  39   2    34  40  14    26  30  14    30  32  19    35  38  17    54  58  24    71  78  29    58  64  18    55  58  24    45  48  17    32  36   3    34  39   6    50  53  21    44  47  16    37  40  10    35  38   9    40  43  16    37  40  14    51  53  29    49  51  27    30  31   8    29  34   6    50  55  24    67  72  40    75  81  48    50  56  18    54  61  19    67  74  28    67  75  25    77  85  36    66  74  26    52  59  17    67  73  36    80  86  52    59  66  27    56  64  18    51  59   7   107 116  58   137 147  84    76  87  21    59  70   6  
  41  45  12    37  41   8    59  64  28   117 128  79    95 109  51   130 146  84   104 119  61    99 112  57   119 131  85    14  25   8    15  20   1    20  23   8    26  28  13    36  38  18    54  58  26    47  53  11    65  71  29    77  81  45    74  78  43    50  54  21    35  39   6    49  53  21    51  54  23    50  53  23    27  31   3    43  46  19    51  54  27    45  48  22    43  45  21    33  35  11    31  35  10    58  62  34    67  72  41    52  58  24    45  51  15    69  75  37    58  65  24    69  76  34    62  69  28    30  36   2    26  32   1    22  27   4    54  59  29    64  70  34    44  51   7    52  60  10    90 100  43   119 129  66    74  85  19    72  83  17  
  20  25   1    49  54  14    63  69  28    89 100  51    55  70  15    38  52   3    19  31   1    39  48  25    61  68  42    37  42  22    38  41  24    20  23   6    24  25   7    30  32   7    46  49  18    85  86  52    59  62  25    62  66  29    82  86  49   107 111  76    73  77  42    51  55  22    61  64  33    56  59  29    42  45  16    42  45  16    44  47  20    44  47  20    45  47  21    26  28   4    22  26   3    39  43  19    28  32   4    37  42  10    49  55  21    73  80  43    52  58  23    56  62  29    48  53  22    29  33   5    25  29   4    19  23   1    35  39  15    53  58  27    39  46   4    49  57  10    88  98  43   131 141  80    72  82  19    85  95  32  
  59  66  15    53  59  12    93 100  54   105 116  67    25  39   6    20  32   1    23  33   2    18  25   6    30  35  21    39  43  29    29  32  15    30  33  13    27  30   5    42  45  16    53  56  27    78  79  48    72  74  41    65  70  31    69  74  34    84  88  51    57  61  24    71  75  41    66  69  37    52  55  26    47  50  21    31  34   4    32  35   7    50  53  26    53  56  29    43  45  21    32  35  12    32  36  13    38  42  15    41  46  13    60  66  32    50  56  22    54  59  27    45  49  22    39  43  21    21  24   4    15  18   1    15  18   1    25  29   8    62  67  38    93 100  60    53  60  15   118 127  74   110 120  62    67  77  17   124 134  74  
  70  75  18    83  88  33   136 142  89   108 116  68    44  52  11    49  56  24    45  50  29    31  35  23    23  25  18    22  24  14    33  36  18    38  43  18    36  40  11    43  46  15    44  47  18    55  58  31    75  78  47   118 123  84    86  91  50    67  72  32    84  88  51    81  85  50    64  68  36    95  98  69    86  89  60    42  45  16    35  38   9    40  43  14    22  25   3    19  23   1    26  30   7    39  43  19    49  54  25    77  82  50    52  58  24    55  61  28    48  52  24    42  45  22    37  40  22    20  22   8     9  11   1    15  17   3    19  21   4    40  44  15    96 102  64    57  64  21   132 140  92   117 126  74    65  74  21    60  69  16  
  87  94  27    91  98  32   120 127  67    63  71  22    44  52  14    49  56  26    56  61  41    50  53  40    30  32  21    24  26  14    28  31  12    25  29   5    41  45  17    41  46  16    44  49  19    59  63  36    63  67  35    98 103  61    63  69  25    48  53  12    93  98  59    76  80  43    67  71  37    91  95  63    59  62  33    26  29   1    40  43  14    40  43  14    22  25   1    32  35   9    37  41  16    45  49  22    41  47  15    48  54  18    86  91  54    57  63  27    45  49  19    31  35  13    26  28  14    23  25  14    17  19   8    28  30  16    38  40  23    57  61  32    79  85  48    67  74  33    87  94  49    92 100  52    80  88  40    92  99  54  
  67  75   1    82  90  24   127 134  67    75  82  32    49  53  19    50  53  22    81  83  57    54  57  33    35  38  16    36  39  18    43  46  23    33  37  14    44  48  24    41  45  20    42  46  19    47  52  22    40  46  10    50  56  12    58  64  19    52  58  16    69  74  35    81  85  51    60  63  31    57  60  30    30  32   4    26  29   2    41  44  15    38  41  12    32  36   5    32  35   6    47  52  24    31  37   5    44  51  12    59  66  23    87  94  50    45  52  12    45  50  19    33  37  14    22  24  10    24  26  14    18  20   7    23  25  10    36  40  20    55  60  32    46  51  16    53  59  21    68  75  34    88  95  53    63  70  29   107 113  76  
  91 100  18   112 121  40   106 114  40    59  63  15    42  45  13    74  78  43   100 104  66    77  82  43    88  93  57    52  57  24    53  57  33    47  49  29    35  39  20    33  38  17    31  37  10    19  26   1    36  44   2    71  78  30   109 115  68    68  74  29    73  78  39    95  99  63    40  44  11    26  30   1    26  29   1    43  46  17    50  53  24    54  57  28    63  66  36    49  52  21    46  51  18    69  75  37    80  87  43    55  63  13    57  65  16    76  83  40    73  79  43    32  36  10    22  25   9    21  23  10    19  21   7    20  23   4    32  36  13    34  39   9    70  76  42    77  83  47    95 101  63   111 117  80    48  54  19    46  51  20  
 148 158  69   158 168  81   123 131  53    57  61  12    42  43  12    98 100  60    89  93  44    81  86  32    93  98  48    34  39   5    34  39  12    31  34  17    24  28  15    28  32  17    37  46  20    37  47  12    71  80  36    94 101  54   108 114  67    64  70  25    83  88  48    92  97  60    35  38   5    32  35   6    40  43  14    53  56  28    60  62  33    63  66  35    67  70  39    64  68  35    57  63  26    85  93  50    90  98  49    53  62   8   164 173 118   107 115  65    38  44   6    31  36   9    34  37  19    26  28  13    32  35  17    39  42  22    46  51  23    32  37   7    87  93  59    67  73  40    48  55  21    44  50  17    24  28   2    27  31   8  
 145 155  69   117 126  44   133 140  68    79  80  36    32  31   2    84  86  46    76  80  31    78  83  29    69  75  25    59  64  23    41  45  19    28  31  14    36  40  26    30  36  18    47  56  29    69  79  43   108 117  73   107 115  67    72  79  34    72  79  37    68  74  36    72  78  43    38  43  10    40  45  14    38  43  11    40  46  12    59  65  31    58  64  28    47  53  19    72  78  40    70  77  35    66  74  26    85  94  40    86  95  38   162 171 114   120 129  77    53  60  17    71  77  44    75  80  55    44  47  28    40  43  24    41  44  22    31  35   9    41  46  16    47  52  20    24  29   2    39  44  15    32  37   9    30  34   9    35  38  17  
  67  74   1    64  69   6    83  85  37    71  70  36    52  50  24    90  89  59    94  93  61    89  90  56    63  66  33    45  48  19    32  36  12    27  31   8    22  25   4    39  44  21    63  69  42    68  77  45   120 130  90    98 106  61    54  61  20    75  81  44    48  53  21    52  57  27    53  58  27    44  50  15    45  51  13    48  55  14    58  65  23    68  75  33    74  81  40    78  87  44    71  81  29    89 100  44   110 121  63   112 123  65    65  76  18    77  87  34    51  60  12    97 105  64    84  91  56    45  51  22    46  51  28    32  37  15    38  43  21    44  48  23    32  36   9    30  34   7    33  37  13    34  37  17    27  30  11    39  42  23  
  73  79   8    50  52  10    57  55  17    54  53  22    31  29   3    50  49  20    58  57  29    61  61  35    45  46  21    26  28   4    33  37  12    35  39  14    46  50  25    54  60  33    59  65  37    50  59  30    60  70  33    67  76  34    83  91  52    87  94  61    66  72  44    43  49  22    38  44  14    37  45   9    34  42   2    47  56  11    73  81  36    78  87  42    65  74  30    56  65  20    64  74  22    52  62  10    87  98  40   105 116  58    77  88  31    48  58   5    54  63  13    76  85  40   109 117  77    68  75  41    26  32   5    35  40  18    44  49  27    75  80  56    77  80  54    60  64  40    36  39  18    36  39  21    29  32  15    23  26   7  
 139 146  70    99 101  44    86  85  40    64  65  24    44  44   6    55  55  19    49  49  16    45  45  17    25  26   2    18  20   1    33  37  14    38  42  20    46  50  26    48  54  27    29  35   7    21  30   1    23  32   1    43  51  14    51  59  25    44  50  21    56  61  38    44  49  26    42  47  22    60  67  35    66  74  37    63  71  30    52  61  18    46  55  13    55  63  23    71  79  37    68  78  27    77  87  33   120 130  76   113 123  70    35  45   5    45  55   3    58  67  18    76  85  40   138 146 106   111 118  84    45  52  21    52  58  30    46  52  26    61  65  39    49  54  26    45  49  24    41  45  23    33  36  16    21  24   5    38  41  22  
 157 164  87   132 135  73    64  63  13    46  47   3    61  62  13    43  44   1    34  35   3    36  37   5    29  30   5    41  43  21    74  77  58    62  65  46    36  39  17    30  36  10    13  20   1    25  35   1    32  41   6    25  32   3    13  19   1    23  28   6    40  45  25    37  42  22    34  39  15    42  49  19    65  72  38    76  83  44    60  68  27    51  59  19    51  59  21    47  55  16    64  73  27    76  86  36   131 141  91   133 143  93    76  86  36    81  91  41    49  57  12    84  93  49    94 102  60    57  65  26    12  19   1    18  25   1    17  24   1    29  34   8    32  37   7    36  40  13    36  40  16    43  46  24    30  33  12    24  27   6  
 164 169  90    83  86  20    53  57   1    90  94  33   107 112  48    62  65   8    56  58  15    35  37   5    35  37  10    45  46  27    28  31  15    31  33  18    26  29  10    30  35  10    48  55  24    62  72  37    30  39   5    29  35   7    20  26   2    24  29   9    14  18   1    17  21   5    30  34  15    44  50  23    47  54  21    47  55  18    51  59  20    57  65  27    56  64  29    52  60  23    60  68  27    79  88  45   124 133  89   116 125  80   128 137  92    86  95  50    45  54   9    60  69  24    45  54  10    20  29   1    30  38   1    44  52  14    47  55  18    42  48  13    50  55  23    74  79  49    66  70  44    36  40  16    21  25   1    52  56  33  
 175 180  99   123 127  56   108 113  47   146 152  78   150 158  80   152 157  91   137 141  85    49  51   9    34  36   7    27  28   9    28  30  16    19  21   8    25  28  11    24  29   5    84  91  61   118 128  93    44  52  21    22  27   4    26  31   9    20  24   6    21  25  10    23  27  12    21  26   6    31  37  11    42  49  16    70  78  39    90  97  59    66  74  36    43  50  15    53  59  26    46  54  17   106 114  75    86  94  55    40  48   8    50  59  16    66  75  32    64  73  28    57  66  21    55  64  19    35  44   2    41  50   7    64  73  30    71  80  38    62  69  30    91  97  63   104 109  78    53  58  29    29  33   7    33  37  12    43  47  22  
 132 138  53   150 154  79    98 104  31   121 129  45   144 153  64   180 187 108   139 144  81    58  62  15    51  54  23    39  40  21    41  43  30    29  30  19    33  36  21    20  25   4    50  57  27    67  77  41    48  57  22    45  51  24    20  25   6     1   6   1    16  20   3    30  34  16    36  41  17    59  66  36    72  79  46    79  87  48    67  75  34    43  51  11    49  58  20    86  94  59    70  77  43   105 112  79    51  58  28    26  33   1    32  39   1   108 116  75    86  95  51    44  53   8    85  94  48    98 108  60    56  66  16    84  94  44   103 112  64   110 118  75    82  88  50    56  62  26    51  57  23    54  59  28    37  42  14    32  36   9  
  87  93   7    73  79   6    93 101  20   134 143  51   156 166  67   142 150  63    62  68   6    59  63  25    81  84  51    64  65  45    40  42  29    33  35  23    35  38  23    30  34  13    17  24   1    26  37   6    87  97  59    69  76  46    40  45  21    33  38  16    20  25   5    19  24   4    39  44  19    55  62  30    65  73  34    58  68  24    48  57  13    60  69  27    74  82  42    70  77  42    66  73  42    52  59  27    32  39  10    24  31   1    48  56  20   101 109  70    79  87  45    53  62  18    93 102  54   115 125  73    26  36   1    75  85  31   132 142  90    95 103  56    48  55  14    44  50  12    65  71  36    70  76  43    66  71  40    97 102  72  
  85  90   3    98 105  19   115 123  35   144 155  54   154 166  58   160 170  76    76  82   8    71  76  22    52  55  20    56  57  38    80  82  70    47  48  39    23  26  12    18  23   1    27  34   2    55  65  25    81  91  51    62  69  36    33  40  10    47  53  27    36  42  18    34  40  13    46  52  22    45  53  16    48  57  13    54  63  17    36  46   4    62  71  25    69  77  35    53  61  23    48  54  27    40  47  20    27  33   8    26  32   4    56  63  30    59  67  30    59  67  27    59  68  24    87  97  48   109 119  67    63  73  20    94 105  49   113 124  67    57  66  18    33  40   1    65  72  30    55  62  22    64  70  33    77  83  48   112 117  85  
 109 115  25    96 103  15   105 114  21   148 159  52   199 211  99   153 162  65   158 165  86    83  88  37    34  38   4    26  28   6    49  51  38    40  42  30    40  42  27    46  51  28    52  59  26    50  62  19    54  64  24    74  82  46    69  76  44    52  59  28    48  54  26    53  60  28    57  65  30    54  63  22    30  39   2    68  78  28    85  95  46    71  80  34    52  60  18    45  53  15    51  57  30    34  39  15    25  31   5    24  30   3    38  44  12    36  43   9    42  50  10    59  68  25   114 123  75   107 117  65    70  80  27    80  91  33   118 129  70    50  58  15    32  40   1    56  63  19    58  65  24    66  72  33    68  74  38    97 103  67  
 137 143  53   140 148  55   127 138  41   131 143  35   167 179  67   133 143  43   184 192 112   126 132  72    52  56  16    31  34  10    17  19   5    26  29  15    40  42  26    52  57  32    73  80  46    81  92  50    68  79  37    76  84  46    86  93  58    55  62  28    57  64  33    50  57  23    43  51  13    60  69  25    61  71  21    57  67  16    67  76  27    86  95  50    50  58  18    36  43   9    43  49  21    32  38  14    28  34   8    30  36   9    46  53  23    44  51  18    43  51  13    68  77  36   109 118  72   113 123  71    71  81  28    79  90  32    81  92  35    45  55   1    70  78  29    74  83  34    62  70  24    61  68  25    58  65  24    75  81  43  
 159 164  72   144 153  59   154 165  66   128 140  31   144 156  46   157 167  70   152 159  80    91  96  37    22  26   2    14  17   1    19  21   3    40  42  27    55  58  39    46  52  26    47  53  20    56  67  25    61  71  30    92 100  62    79  87  52    51  58  24    58  65  32    41  49  15    41  49  10    52  61  17    47  56   9    55  65  16    93 102  55   102 111  68    43  51  13    46  53  20    34  40  12    34  40  14    24  30   7    21  27   1    49  56  25    40  47  14    29  37   3    66  75  34    91 100  54   112 121  72    90 100  47   100 111  54    93 104  44    69  78  22   114 122  71    99 107  56    66  74  26    62  69  24    63  70  28    73  80  39  
 161 166  76   149 157  62   187 199  98   140 152  43   142 153  45   158 168  72   158 165  86    72  78  26    30  35   1    18  21   1    22  26   3    36  39  20    51  54  33    45  51  22    52  59  25    75  85  45    89  99  58   111 119  81    70  77  42    44  51  18    58  65  34    59  66  33    69  76  40    65  73  31    56  65  20   112 121  76   110 118  76    64  72  35    40  47  15    34  40  12    31  37   9    32  38  11    30  36   8    38  44  16    71  78  47    63  70  37    48  56  20    54  62  23    81  90  46    81  90  43    95 105  53    80  92  35   108 119  61    90  99  42   111 120  65    91 100  47    74  82  31    75  83  35    70  77  33    77  84  42  
 152 158  67   143 154  57   188 200  98   153 165  60   136 148  43   160 170  75   177 184 106    82  88  34    36  41   1    25  28   1    39  43  19    36  40  17    40  44  20    43  49  20    69  76  42    88  99  59    78  89  50    80  88  52    53  60  27    36  43  12    56  63  32    69  76  44    68  75  41    72  80  42    94 102  61   119 127  86    60  68  30    30  37   4    35  42  14    24  30   6    39  46  18    28  34   6    36  42  14    47  52  25    52  59  28    36  43  10    40  47  13    42  50  11    50  59  17    62  70  24    90 100  48    71  81  27    83  94  37    94 103  46    85  94  37    70  79  24    83  91  39    88  96  46    61  69  21    59  66  22  
 168 173  82   142 150  53   178 190  87   145 156  52   129 139  39   167 176  86   139 146  70    58  64  13    29  34   1    42  46  13    28  33   6    36  40  17    43  47  22    51  57  26    83  91  54    67  77  39    22  32   1    38  45  11    39  46  14    33  39  11    48  53  25    50  56  27    40  47  15    55  63  27    78  86  47    81  88  52    53  59  27    48  54  28    28  33  12    41  46  26    38  44  16    35  42  11    56  63  32    66  73  42    58  65  34    42  49  15    45  52  17    32  40   4    26  34   1    50  59  15    88  98  48    92 102  48    87  98  41    94 103  46    70  79  22    72  81  26    86  94  42    96 104  54    64  72  24    49  56  12  
 166 171  87   156 166  75   126 138  41   142 152  56   167 176  86   148 156  74    92  99  30    51  58   2    59  65  22    40  45  12    53  57  30    63  67  42    55  61  32    52  59  26    92 102  63    73  84  43    14  24   1    35  41  10    42  48  21    34  40  14    40  45  22    29  34  11    33  39  11    56  63  30    90  98  61   109 117  80    56  63  30    43  49  21    40  46  22    30  35  13    32  39   8    48  55  22    69  76  44    67  74  43    58  65  34    39  46  15    37  43  10    33  41   5    39  47   7    17  26   1    64  73  26    64  74  23    95 104  51    81  90  33    64  72  14    87  95  38    82  89  35   103 111  58    89  98  45    66  74  23  
 168 175 104   168 177  96    91 101  15   112 120  40    90  96  24    51  58   1    43  48   1    41  45   3    49  53  19    45  49  21    43  48  23    48  54  27    54  62  30    55  66  28    84  96  51    54  68  19    24  34   1    31  37   9    38  41  20    43  46  27    37  41  24    31  36  15    45  51  25    44  51  18   100 108  71    88  99  59    49  59  20    49  59  23    47  56  24    41  48  17    31  38   5    45  50  18    49  54  22    97 102  71    62  67  37    26  31   1    28  33   4    42  47  16    52  58  23    52  58  20    51  58  16    71  78  34   120 128  80   133 139  86   119 124  69   110 115  57    84  89  30   111 118  59    95 103  43    99 107  47  
 132 139  74   157 165  92   124 133  54   111 118  45   101 105  43    57  62   5    55  59  11    46  51  12    48  53  21    30  34   9    36  42  16    59  66  37    49  58  24    41  53  12    89 103  55    94 107  57    15  26   1    21  26   7    54  57  38    46  49  32    18  23   5    26  30  12    43  48  23    50  57  25    79  86  48    76  87  45   112 123  80    68  79  38    53  63  26    41  51  16    48  55  21    45  50  17    67  72  40    84  89  59    34  39   9    17  22   1    34  39  10    86  91  60   104 109  75    50  55  18    55  62  21    85  92  49    92  99  53   105 111  59   120 123  68    98 101  44    97 102  42   111 117  55   109 117  53   113 121  56  
  78  84  21   109 116  45   124 132  56   175 181 112   151 154  96    51  56   3    77  81  35    72  77  38    49  54  20    58  62  35    59  65  37    39  47  15    58  68  32    91 103  62    73  86  41    97 111  61    58  68  28    34  39  14    78  81  61    61  64  47    28  31  14    38  41  21    27  33   9    23  30   2    94 102  64    73  84  42   102 114  71    53  64  23    55  65  27    72  80  45    67  72  40    42  47  15    58  63  31    48  53  23    19  24   2    28  33   3    39  44  12    60  66  33    83  89  52    60  67  27    54  61  17    55  63  16    62  70  21    58  64  11   101 106  50    88  93  35    53  58   1    83  89  29   124 132  69   113 122  59  
  66  72  10   115 123  54   161 168  97   147 151  89    80  83  32    74  78  28   119 123  79    89  93  54    92  97  62    83  88  56    46  53  20    46  54  20    64  74  38    89 102  60    73  87  42    99 112  67    71  81  45    23  29   6    65  68  47    54  57  37    19  21   4    32  35  15    31  37  12    34  41   8    73  80  42    69  80  38   106 117  74    59  70  29    51  61  23    78  88  53    34  41   8    36  41  10    55  60  28    57  62  30    57  62  30    43  49  16    38  44  10    45  51  15    72  78  38    76  83  40    49  56   9    66  74  25    78  86  34    91  99  45    82  88  32    75  80  22    58  63   9    93  98  39   103 111  51    98 105  45  
  74  80  19   141 147  82   181 188 120    97 102  46    60  63  17    63  66  23    68  71  31   102 106  68   116 120  85    96 100  65    54  60  24    82  89  52   110 118  80    92 102  61   111 122  80   133 144 101    96 103  67    49  52  26    32  34  13    23  26   7    20  23   6    30  33  14    26  30   7    44  51  20    52  60  21   115 123  82   102 112  69    56  67  26    71  81  43    67  74  40    40  45  13    25  30   1    30  35   4    95 100  68   127 133  99    61  67  33    35  41   4    43  50  10    44  51   9    21  29   1    53  60  11   144 152 101    98 106  54    76  82  28    64  69  15    79  84  28    76  82  26    84  92  34    86  94  35   102 110  51  
  83  88  29   115 122  58   109 115  51    79  83  33    39  41   3    44  46   9    53  56  18   103 108  68   112 117  77    59  64  24    52  59  19    61  68  30   140 148 107   112 122  80   109 121  78   116 126  87    79  86  51    45  49  22    30  34  11    31  34  13    32  35  16    32  35  15    45  49  24    78  84  52    85  93  55   132 140  99    92 101  59   114 125  84   104 114  76    50  57  23    36  41   9    47  52  20    54  59  27   100 106  72    97 103  67    67  72  36    86  93  54    66  73  30    41  49   5    58  66  16    84  93  40   104 113  58    70  79  22    91  98  43   104 109  55    86  91  35    79  85  29    81  89  32    98 106  49    95 103  46  
  83  88  32    64  70   9    83  88  28    85  87  43    62  63  31    44  45  13    56  58  23    75  77  39    51  55  15    35  41   1    40  47   4    59  66  23   124 131  90   100 107  66   108 116  77   102 110  73    61  67  35    69  73  46    56  58  35    39  41  20    34  37  18    26  29   9    33  37  12    46  52  20    67  73  36    84  92  51    86  95  53   119 127  87    47  55  19    39  47  13    31  36   4    49  54  21    63  68  36    82  88  54    57  63  28    65  72  33    82  89  47    86  93  48   119 127  79   120 128  76    79  88  32    94 104  46    82  92  32    84  93  35    82  90  33    79  86  32    74  82  28    60  67  13    81  88  34   113 120  67  
 121 126  70    97 103  43   104 110  52    90  92  52    47  47  18    30  31   1    48  49  14    68  70  32    93  98  54    51  57   9    34  42   1    49  57  11    61  68  25    51  58  18    75  83  46    75  82  48    62  67  36   104 107  79   100 102  77    51  53  31    24  27   6    26  30   9    58  62  35    55  60  28    72  77  40    54  62  21    59  68  25   103 111  71    55  63  25    51  58  23    49  54  22    38  43  10    32  37   4    32  38   3    29  35   1    78  85  44    90  98  54   110 118  70    91  99  48   102 111  57    73  82  25    98 108  48    56  66   7    61  70  11    84  92  35   112 120  64    69  76  23    82  89  37    93 100  49    83  90  40  
  84  92  35   115 123  64   109 117  61    55  57  19    50  50  24    41  42  11    45  46  13    90  92  51   102 107  60    85  92  41    43  50   2    23  30   1    36  42   1    28  34   1    41  47  12    36  41   9    70  75  45    85  88  59    64  66  41    37  39  17    28  30   9    58  61  39    62  67  39    39  45  12    61  67  29    40  47   6    63  70  29    85  93  53    47  55  17    53  60  26    55  60  28    40  45  13    33  39   6    30  36   3    53  59  22    72  78  36    75  82  37    95 103  53    69  78  25    93 102  47    98 107  50   124 134  74    54  64   6    56  66   8    86  95  38   116 124  67    88  96  42    60  67  16    78  84  36    93  99  53  
 106 114  57   153 161 102   103 111  56    67  70  31    47  47  18    36  37   4    44  46   8    68  71  29    96 102  55   102 109  58    76  83  31    71  78  28    74  80  34    56  62  23    33  39   3    48  53  21    81  85  53    65  68  37    37  40  11    37  39  15    45  47  25    52  55  32    49  54  26    31  37   6    29  36   1    62  69  27    97 104  62    65  73  33    60  68  31    73  80  46    60  65  33    52  58  25    49  55  20    53  59  21    44  50  10    82  90  45    79  87  39    72  80  28    88  97  43    94 103  48    85  94  37   114 124  64    61  71  13    57  67   8    63  73  12   106 114  56   106 113  60    60  66  16    69  75  29   105 111  67  
