P3
50 50
255
  40  36   9    37  33   9    30  25   7    21  15   2    25  18  10    23  16  10    19  12   4    21  15   3    23  17   1    25  22   1    59  62  33    74  80  47    65  71  37    57  63  27    50  56  20    56  62  26    71  77  44    54  58  30    24  28   3    28  31  12    16  18   4    11  13   3    16  17  11    18  18  12    22  20  13    25  22  13    27  25  12    20  17   3    32  29  12    78  75  56    41  36  17    35  30  12    27  21   6    19  13   1    22  16   7    21  12   7    34  30  14    57  59  29    99 103  70   100 104  71    64  68  36    27  31   4    42  45  13    62  65  36    50  53  26    29  31   7    47  49  29    45  46  29    33  34  20    28  29  15  
  37  33   6    26  21   1    21  16   1    24  18   7    27  20  12    22  14   8    19  12   3    18  12   1    18  13   1    26  22   1    24  24   5    78  81  50    67  72  39    52  58  23    58  64  28    71  77  41    84  89  55    65  70  40    27  30   6    54  57  38    19  21   8     9  11   5    22  23  15    16  14   7    32  29  20    23  21   9    18  16   3    25  21   8    34  31  15    83  80  61    45  40  21    38  32  17    32  26  13    26  20   9    29  22  12    29  21  13    39  35  20    74  76  48   140 143 112    73  76  46    48  51  20    51  54  23    51  54  24    46  49  21    37  39  15    35  37  15    39  40  20    33  34  17    44  45  31    31  32  18  
  45  38  15    20  14   1    19  11   2    30  22  11    30  21  14    28  19  14    30  22  14    26  18   6    20  14   1    29  25   1    37  36   6    81  82  49    76  79  44    50  54  18    38  42   5    74  80  42    97 103  68    74  81  48    40  44  16    48  53  29    25  28  10    15  17   4    24  24  14    25  23  14    45  42  33    37  35  23    19  17   3    19  17   2    27  24   8    53  50  33    30  27  10    31  27  11    27  21   7    23  17   4    33  26  16    28  21  13    28  25  10    66  68  42   148 151 122    77  80  49    62  65  34    55  58  29    37  40  12    24  27   1    29  32   5    38  40  16    32  34  13    26  27  10    44  45  31    24  25  11  
  61  55  31    34  27  10    21  13   3    24  15   5    24  15   9    34  26  20    51  42  34    50  42  29    42  36  15    53  47  21    78  75  45    49  48  16    52  52  18    60  63  27    36  40   3    53  59  21    64  71  33    72  79  44    48  53  24    16  20   2    24  27   8    18  19   6    14  14   4    19  17   8    29  26  17    44  42  30    28  26  14    20  18   5    40  37  22    37  34  17    14  11   1    25  21   6    23  17   5    22  16   5    41  34  24    28  22  13    18  15   1    39  40  16   131 134 107   109 112  83    47  50  21    50  53  24    79  82  54    51  54  27    41  43  19    35  37  15    22  24   6    14  15   1    27  28  14    11  12   2  
  55  49  25    35  29  11    18  11   2    19  10   2    26  16  13    41  31  28    39  30  23    43  35  22    47  41  21    74  68  42    53  48  19    54  51  19    63  63  29    58  61  25    48  52  15    51  57  19    75  83  44    62  69  34    44  51  19    20  24   1    23  25   5    27  28  12    18  18   5    22  22  10    22  22  10    44  45  31    39  39  26    30  28  14    47  45  30    33  31  16    22  19   4    24  21   6    19  16   2    24  20   8    29  25  13    28  21  11    29  25  11    24  25   3    45  47  23    69  72  46    42  45  18    41  44  17    54  57  30    44  47  20    53  56  31    46  48  26    24  26   6    18  19   1    15  16   1    17  18   4  
  56  50  24    21  15   1    18  11   5    27  18  11    28  18  15    28  18  16    26  17  11    41  33  20    37  30  12    36  29   6    48  42  16    77  73  43    69  68  35    47  48  14    57  61  24    99 106  67    84  92  53    55  63  27    34  41   9    16  20   1    35  36  16    37  37  22    27  25  13    18  17   5    12  12   1    23  24  10    23  23   9    31  29  16    51  49  35    41  39  24    15  12   1    19  16   2    20  16   4    28  24  12    32  28  16    29  22  12    24  20   8    19  20   1    34  36  14    44  46  22    35  37  13    36  39  12    40  43  16    41  43  18    49  51  27    37  39  17    21  23   3    21  22   4    20  21   4    21  22   7  
  67  63  36    25  20   4    16  10   2    23  16   8    23  15  13    17   9   7    16   9   4    44  37  24    46  40  22    37  31   8    48  41  15    50  44  15    63  59  29    88  88  55    88  92  57   100 106  68    55  63  25    41  51  15    23  31   4    13  19   1    28  31  10    28  28  13    26  24  11    29  29  16    34  35  21    32  33  19    20  21   7    28  29  15    45  44  31    42  40  27    27  25  12    26  23  10    24  20   8    29  25  13    29  25  13    22  18   6    20  17   3    32  33  13    43  45  24    32  34  12    29  31   9    32  34  10    32  34  10    44  46  22    50  52  28    35  37  15    25  27   6    28  30  10    19  20   3    11  12   1  
  72  68  39    31  27   6    18  12   1    18  10   5    19  11   9    17   9   7    12   5   2    35  28  17    48  43  25    62  56  35    46  38  14    52  43  18    66  61  33    80  78  48    61  64  30    82  88  52    78  87  50    50  60  26    36  43  14    32  36  11    18  20   1    15  15   2    26  24  11    22  22   8    38  39  25    34  35  21    14  15   1    17  18   4    27  26  13    35  33  20    36  34  21    29  27  14    25  21   9    28  24  12    30  26  14    26  22  10    24  21   8    35  35  18    47  48  30    28  30   9    22  24   3    40  42  20    46  48  25    53  55  31    52  54  32    38  40  18    42  44  23    49  50  32    34  35  18    20  21   7  
  60  59  29    23  20   1    19  16   3    17  13   7    13   7   7    14   8   8     9   4   1    16  11   2    24  21   6    56  51  31    48  37  15    78  69  43    66  60  32    49  47  17    52  55  22    73  79  45   106 114  79    84  94  59    65  72  43    63  68  45    23  26   5    22  22   7    33  31  19    38  38  25    61  63  49    52  53  39    28  29  15    22  23   9    15  16   2    18  19   5    26  24  11    19  17   4    22  20   7    30  26  14    34  31  19    36  32  20    29  28  15    20  21   6    27  28  12    17  18   1    18  20   3    54  56  34    62  64  42    57  59  37    49  51  29    36  38  16    49  50  30    61  62  44    49  50  32    39  40  24  
  56  55  25    36  34  11    20  16   2    12   7   1     5   1   1    10   4   6    15   9   8    19  14   7    17  14   1    43  38  20    69  59  38    61  49  27    40  32   8    58  56  27    72  76  43    48  54  20    84  91  57    94 104  71    69  76  47    71  75  51    32  34  14    32  30  16    33  30  18    24  24  11    34  36  22    26  27  13    21  22   8    27  28  14    19  20   6    18  19   5    26  24  11    20  17   5    25  23  10    29  26  14    30  26  14    31  27  15    31  28  15    29  29  15    22  23  10    17  18   3    24  25   7    56  58  37    54  56  34    55  56  35    46  47  26    27  29   8    36  38  18    43  44  26    31  33  14    30  31  14  
  55  55  22    52  52  26    17  15   5     4   1   1     3   1   1     9   5   6    13   9   7    22  20  11    21  19   5    39  34  16    80  69  48    58  46  25    29  21   1    46  44  16    44  47  16    38  44  10    62  70  36    64  74  41    47  54  26    48  53  29    27  30  12    25  25  10    25  23  10    36  36  22    39  42  25    29  31  17    30  31  17    35  36  22    28  28  16    30  30  18    35  33  21    24  22   9    25  23  10    23  21   8    24  22   9    34  31  16    39  38  24    42  43  29    34  35  21    26  28  12    33  34  16    41  43  22    35  37  16    43  45  24    37  39  17    25  27   5    34  36  15    35  36  18    20  21   4    22  23   7  
  47  49  11    46  47  18    15  14   1     7   4   1    12   7   8    15   9  13     4   1   1    11   7   2    13  11   1    25  23   6    61  53  33    84  76  55    42  37  14    26  24   1    32  35   4    52  57  25    31  38   5    32  38   8    29  35   9    30  33  12    23  24   8    16  16   2    22  20   8    36  36  23    35  37  23    29  31  17    31  32  18    31  32  18    32  33  19    47  48  34    33  31  18    19  17   2    17  15   1    17  15   1    28  28  10    55  54  36    54  53  35    30  31  13    36  37  19    30  30  13    35  36  18    27  28   9    30  32  11    31  33  11    24  26   4    28  30   8    49  51  30    54  56  35    40  42  21    45  46  30  
  85  91  46    83  85  47    26  26   8    10   6   1     8   3   1     7   1   3    12   7   7    18  13   9    21  18   7    24  23   5    29  26   7    63  62  40    42  42  17    29  31   4    43  46  18    45  48  19    44  49  20    28  32   7    21  25   2    32  33  15    26  27  13    17  17   7    17  17   9    23  23  13    10  11   1    20  21   7    35  36  21    32  33  16    41  42  24    54  55  37    35  37  17    16  18   1    28  30   7    17  19   3    14  17   1    83  85  61   117 120  94    61  67  37    40  47  19    25  30   7    32  37  15    44  49  29    33  38  17    30  35  12    23  29   3    18  24   1    48  54  27    68  74  48    45  51  27    50  53  34  
  87  93  46    99 102  61    57  56  31    11   6   1     9   1   1     9   1   3    12   4   6    16  10   8    19  16   6    23  21   6     6   7   1    43  45  24    85  87  64    67  70  44    33  37  10    32  35   6    32  34   8    31  33  10    48  50  28    35  36  19     3   3   1    13  13   6    18  17  12    17  17   8    15  15   3    17  18   4    27  28  12    31  32  14    38  40  19    58  60  39    39  41  19    28  30   6    26  28   3    29  32   5    30  33   6    62  65  38   101 105  74    81  88  54    59  66  34    38  44  17    32  37  15    27  32  12    22  27   6    30  35  13    29  35   8    20  27   1    47  54  24    76  82  55    61  66  42    32  36  15  
  80  85  40    70  71  34    55  54  32    12   7   1    12   4   1    12   6   8    13   7   9    14  10   7    16  14   4    19  17   2    12  13   1    27  29  12    75  77  54    60  62  37    22  25   2    34  37   8    40  43  15    31  34   9    36  37  16    41  42  25    17  18   4    12  12   2    15  15   7    11  11   1    19  20   6    13  14   1    16  17   3    30  31  13    42  44  24    72  74  53    45  47  25    48  49  28    28  30   7    36  38  14    38  40  16    43  46  21    76  81  51    72  79  45    51  58  26    35  41  15    33  38  16    24  29   9    37  42  21    47  52  29    40  46  19    26  33   2    36  43  13    38  44  17    45  51  27    40  45  23  
  83  85  45    65  66  31    42  40  17    17  12   1    18  10   6    16  10  10    16  11  11    17  13   9    16  13   3    13  11   1     4   5   1    21  23   7    55  57  35    61  63  40    47  50  23    38  41  14    34  36  10    47  49  26    53  55  34    50  51  35    32  33  19    12  12   4     8   8   1    12  12   1    21  22   6    16  17   2    15  16   1    29  30  12    51  53  33    81  83  62    50  52  31    59  61  40    30  32  12    28  30   9    34  36  14    35  37  15    65  69  40    71  78  44    43  50  18    30  36  10    44  49  27    46  51  31    80  85  64    72  77  55    50  56  30    58  64  36    92  98  68    52  58  31    34  39  15    40  43  22  
  81  85  48    64  64  32    24  23   3    15  11   1    16   9   3    14   9   6    16  10  10    20  16  11    16  15   6     7   8   1     2   3   1    22  24   8    57  59  38    67  69  45    62  65  38    50  53  26    31  34   8    70  72  49   106 108  87    50  51  33    14  14   1    10  10   1     6   6   1    19  19   8    26  27   9    34  35  17    29  30  13    30  31  13    50  51  33    63  64  46    44  45  27    47  49  28    26  28   9    19  21   1    29  31   9    34  37  14    40  44  17    42  49  14    33  40   7    39  45  18    55  60  38    36  41  21    47  52  31    70  75  52    47  53  25    48  55  24   106 113  83    73  79  52    37  42  18    33  38  16  
  71  72  40    65  65  36    32  29  16     7   2   1    12   4   1    12   7   3    15  11   7    20  17  11    17  16   7     8   8   1    13  14   1    14  15   7    56  58  38    50  52  31    39  41  17    59  62  35    46  49  22    63  65  41    81  83  60    32  33  15     9   9   1     5   5   1    10  10   2    27  28  13    33  34  16    50  51  33    48  49  31    33  34  16    36  37  19    33  33  17    29  30  14    25  26  10    19  20   3    19  20   3    31  33  12    33  35  14    32  35   8    51  58  23    41  48  15    38  44  17    40  45  23    29  34  14    42  47  26    57  62  39    38  44  18    18  24   3    50  56  28    41  46  22    32  37  14    55  58  37  
  71  71  43    60  59  35    49  46  30     7   4   1    13   9   1    21  17   8    20  16  10    19  17  10    16  16   7    10  10   1     6   7   1     9  10   4    46  47  28    51  53  31    40  43  19    52  55  28    46  49  22    41  44  18    31  33  10    27  29   8    20  21   6     7   8   1    16  16   6    29  28  12    36  35  15    49  48  29    50  49  31    36  34  18    26  24   9    25  23   8    17  15   1    17  15   1    20  18   3    26  24   9    32  31  14    36  35  17    34  37  10    43  49  13    51  56  23    46  50  23    28  31  11    18  21   4    32  35  15    34  38  15    37  42  15    30  35   5    49  53  24    50  54  29    32  35  14    57  60  41  
  59  59  35    66  65  45    48  45  29    11   8   1    22  18   7    33  29  18    25  23  12    17  17   7    15  15   5    12  12   2    13  13   2     8  10   1    22  23   8    52  54  34    65  67  45    55  58  33    48  51  24    38  41  15    46  48  25    45  46  25    14  15   1    13  14   2    20  21   7    21  21   3    33  32  12    36  35  15    39  38  21    35  33  19    23  21   8    35  33  20    10   8   1    21  19   6    25  23  10    29  27  14    28  26  11    40  38  23    53  53  29    55  60  24    78  84  50    71  75  48    33  36  15    20  23   5    31  34  14    36  40  17    38  42  17    32  36   9    68  72  46    84  88  64    34  38  18    36  39  20  
  18  17   1    44  41  22    52  49  32    26  23   6    19  16   1    35  33  18    31  30  15    11  11   1    13  15   5    10  12   1    22  22  11    11  12   4    24  25   8    49  51  31    52  54  30    38  41  14    65  68  40    58  61  34    37  39  14    34  37  15     4   5   1    20  21   6    21  22   7    30  30  12    35  34  14    30  29   9    21  20   3    17  15   1    21  19   6    27  24  12    11   9   1    13  11   1    19  17   5    27  25  12    35  33  18    39  37  21    40  44  18    54  60  24    73  79  44   111 116  86    27  31   8    18  20   1    17  20   2    22  26   4    52  56  31    33  37  10    68  72  46    68  72  48    46  49  29    26  29  12  
   7   4   1    29  26  12    50  47  30    19  15   6    38  36  16    41  40  20    30  29  10    23  24   8     9  11   1    23  25  14    48  48  38    10  10   1    15  16   1    55  57  38    65  67  45    48  50  25    50  53  26    43  46  19    31  34   9    21  23   1    49  51  31    31  32  15    26  27  11    31  30  13    29  28  10    24  23   5    16  14   1    13  11   1    15  13   1    18  15   5     9   6   1    11   8   1    18  15   5    25  23  10    30  29  14    34  32  17    48  48  23    65  70  34    70  75  40    97 102  72    26  30   7    22  25   4    22  25   5    24  28   6    39  43  19    27  31   5    53  57  33    49  53  31    35  38  18    34  37  20  
  15  11   1    27  23  10    57  52  35    32  30  11    35  33  11    26  26   1    33  33  10    37  40  19    13  17   4    27  30  19    35  35  25    15  15   5    18  19   6    41  43  26    52  54  32    61  63  39    54  56  31    44  47  20    33  36  11    16  18   1    75  77  56    39  40  22    25  26   8    26  25   7    22  21   3    15  14   1    12  10   1    11   8   1    10   7   1    10   7   1     9   6   1     9   6   1    17  15   4    24  22   9    25  23   8    30  29  10    49  50  22    72  76  39    72  76  41    71  75  45    24  26   4    37  39  19    38  39  20    20  22   2    26  28   4    48  51  24    63  65  39    42  44  22    20  21   2    27  28  12  
   8   4   1    20  15   7    60  54  38    43  40  17    18  17   1    43  44  13    68  69  42    46  49  25    26  30  12    31  33  20    11  11   3    18  18  10    21  22  10    24  25   9    41  43  22    72  74  52    60  62  38    48  51  24    32  34  10    23  25   1    57  59  37    50  51  31    32  33  15    23  22   4    18  15   1    11   9   1    11   9   1    13  10   2    11   8   1     9   6   1    14  11   4    13  10   2    20  17   7    24  22  10    24  23   5    28  27   6    42  43  14    63  68  29    75  79  44    46  50  20    21  23   2    46  48  28    52  53  34    32  34  13    41  43  19    84  87  60    82  84  61    55  57  35    27  28  11    28  29  15  
  16  12   2    13   8   1    36  30  15    36  34   9    29  28   1    88  89  55    99 103  70    48  53  25    35  40  18    33  37  23    16  17   9    13  13   5    17  17   5    24  25   9    44  46  25    65  67  44    52  54  29    45  48  20    28  31   4    29  31   7    34  36  14    63  65  43    43  44  25    26  25   9    19  15   3    12   8   1    16  12   4    20  15  10    18  13   9    15  10   6    21  16  12    21  16   9    24  20   9    27  24  10    29  26   9    33  31  10    38  39   8    51  56  17    71  75  39    44  47  16    24  26   2    32  34  12    47  49  28    45  47  26    48  49  26    74  77  50    55  57  33    47  49  27    31  32  15    22  23   9  
  18  14   5    29  24  12    54  48  29    64  61  33    58  58  22    81  84  45    77  82  45    49  54  23    37  42  19    21  26  10    15  16   8     9   8   2    20  20   8    19  20   5    28  30  10    41  42  20    52  54  29    51  54  26    37  40  12    32  35   8    37  39  15    59  61  39    37  38  18    31  28  12    21  17   5    15  11   3    20  15  10    24  19  16    22  17  14    21  16  13    22  17  14    24  19  12    23  19   9    26  23   9    37  34  15    43  41  19    42  42  10    47  51  11    60  64  27    63  66  34    34  36  13    19  21   1    32  34  13    43  45  23    42  44  20    45  47  21    27  29   5    39  41  21    28  29  12     6   6   1  
  33  29  18    48  41  30    63  57  38    87  85  57    64  64  27    62  65  22    68  74  34    50  57  23    28  36  10    12  16   1     7   8   1    14  13   7    21  21  10    12  13   3    39  41  22    43  46  23    62  65  37    56  59  30    45  48  20    33  36   9    53  55  31    48  50  29    34  36  16    33  32  17    24  20   9    17  13   4    21  16  11    23  18  15    21  16  12    21  16  13    18  13  10    22  18  12    19  15   4    24  20   5    45  43  22    53  52  28    47  49  15    45  50  10    52  56  19    83  86  54    45  47  23    42  44  22    33  35  14    37  39  15    51  53  28    48  50  26    36  38  15    43  44  24    26  27  11    12  12   1  
  23  19   8    38  32  20    50  46  27    76  75  47    50  50  14    84  86  47   109 113  77    54  58  28    18  21   1    19  22   7    18  17  10    21  20  14    12  12   4    16  17   1    93  95  73    73  76  49    64  67  38    47  50  21    38  41  14    32  34   9    65  67  43    51  51  30    54  53  33    41  37  24    25  21  10    17  13   4    21  16  10    20  15  12    17  12   9    19  14  11    13   8   5    19  14   9    14  11   2    21  18   3    50  48  27    60  58  33    48  50  18    44  48  10    51  55  19    93  97  63    51  54  26    79  81  55    45  47  24    27  29   7    53  55  33    49  51  30    33  35  15    22  23   7     8   8   1    19  19   8  
  32  30  17    23  22   5    31  30   8    63  61  36    68  66  39    75  75  46   116 115  88    55  53  34    22  19   2    18  15   2    37  37  29    12  12   2    15  16   2    45  48  25   122 127  95    61  67  33    58  65  31    45  51  19    30  33   5    42  44  20    62  62  39    59  57  36    70  68  48    57  55  39    18  16   4    11   9   1    14  11   2    22  19  13    24  21  16    18  15  10    18  15  11    10   8   4    21  19   7    30  29  11    43  43  18    94  94  65    55  58  25    29  35   4    59  65  32    83  89  53    58  63  28    80  86  52    48  53  23    32  34  11    39  40  21    47  48  32    33  33  19    24  22   9    12  10   1    25  23  11  
  27  24  11    21  20   3    22  21   2    73  71  49    70  67  45    19  17   4    69  66  45    61  56  38    20  14   3     8   3   1    51  48  41    19  20  10    18  19   1    17  21   1   106 112  77    78  86  47    58  66  30    42  48  16    32  35   7    34  33  11    35  33  12    40  37  16    56  51  31    53  49  31    23  21   7    25  24  11    16  14   6     3   1   1     6   4   1    12   9   3    15  12   2    27  25  12    34  33  15    48  47  23    61  62  32    75  76  44    55  59  26    41  48  13    54  60  23    80  86  48    42  49   8    46  52  16    45  51  19    28  31   6    29  30  13    38  38  26    56  55  45    20  17  12    20  18   8    21  20   5  
  16  14   2    14  13   1    24  23   4    75  73  51    73  71  48     7   5   1    43  40  20    51  46  28    21  15   3    21  17   6    21  18  11    24  25  15    17  19   1    22  26   1   146 152 117   116 125  86    41  49  11    38  45  12    40  45  18    41  43  21    30  29   8    45  42  21    61  57  37    53  52  32    22  21   3    21  20   2    18  16   3    13  11   1    16  14   2    18  16   4    22  20   6    38  37  18    50  49  26    45  46  16    53  54  20    42  44   7    37  42   5    38  44   8    61  67  29   122 129  88    75  82  40    43  49  10    42  48  15    30  33   9    22  23   6    23  24  10    54  53  41    22  20  14    20  18   8    23  21   4  
  15  13   1    18  17   1    23  22   1    55  54  31    54  51  30    11   9   1    35  31  13    33  27  13    16  11   1    18  14   3    17  15   7    27  27  20     4   5   1    16  21   1   110 116  79   104 112  71    42  49  12    36  42  10    40  43  17    53  52  31    35  32  13    44  41  22    53  48  29    36  33  13    26  25   5    26  25   5    17  15   1    18  16   2    16  14   1    25  23   8    97  96  78    42  42  19    41  41  13    32  33   3    60  62  24    46  48   8    38  40   2    36  41   6    61  66  29   135 142 101    86  93  51    48  55  15    35  40  12    27  30   8    18  19   1    17  18   4    33  33  21    45  43  30    23  21   8    19  17   1  
  23  21   6    34  33  14    19  18   4    44  43  26    47  45  24    10   7   1    34  30  12    46  40  27    24  17   7     8   4   1    23  20  11    20  22   7    22  24   3    33  38   6    39  45   8    93 101  60    85  92  55    53  60  28    43  48  22    57  59  37    37  36  17    36  32  15    36  32  14    21  20   2    58  58  34    69  68  45    33  32  12    17  16   1     6   5   1    42  41  22    89  89  65    44  44  17    59  60  27    46  48  10    54  57  14    48  52   7    73  79  37    81  87  50    70  76  39   105 112  71    56  63  21    49  55  15    35  39   9    22  25   1    23  25   4    22  20   5    28  26  13    57  55  41    44  43  26    20  19   2  
  26  25   7    36  35  15    35  34  13    42  40  19    57  55  34    18  15   1    29  25  12    50  44  33    23  16   7    22  18   9    11   9   1     8   9   1    17  20   1    26  31   1    49  55  17   149 157 117   124 131  94    59  65  33    41  44  18    51  50  30    35  32  15    34  30  13    38  34  16    23  23   4    58  58  34    70  70  47    48  47  24    35  34  13    12  11   1    44  44  22    57  57  30    41  41  12    57  58  24    65  68  28    64  67  23    62  66  19    91  97  53    84  91  52    68  73  36    83  90  50    54  61  19    62  68  29    49  52  18    38  40  14    39  42  20    19  17   3    24  22   8    34  32  16    69  68  48    48  46  26  
  26  25   7    34  33  13    47  47  24    33  31   9    44  42  21    18  16   1    12   9   3    24  18   7    11   4   1    22  18  10    23  21   9    33  34  16    27  30   7    26  31   1    56  63  22   106 115  72    65  73  34    44  51  19    35  40  14    35  37  16    22  21   3    28  24   9    38  34  16    26  24   4    21  23   1    35  37  14    51  53  31    46  48  26    16  18   4    30  32   9    64  67  40    70  74  42    65  69  34    48  53  13    43  49   4   106 112  64   126 132  88    80  87  47    70  77  37    75  82  41    61  66  25    39  43  10    23  27   1    51  52  24    49  48  28    18  17   1    20  18   5    16  13   1    58  56  36    72  70  47  
  33  32  12    41  41  19    37  37  13    35  34  11    31  29   8    14  11   1    11   7   1    21  14   5    24  17  10    12   8   1    18  17   4    26  27  11    23  26   3    38  43   7    51  58  17    82  91  48    93 100  62    54  60  28    58  60  36    48  47  27    27  24   7    30  27  11    38  33  16    37  36  15    18  20   2    49  51  29    78  80  58    54  56  34    24  26   4    42  44  21    71  74  47    77  80  50    74  78  44    44  48  10    37  42   1   120 126  82   101 106  66    68  74  37    58  64  26    60  67  26    70  75  35    45  49  11    61  65  32    72  73  47    42  41  20    28  27   9    27  25  10    25  22   5    25  23   3    68  66  42  
  60  60  36    48  48  22    32  32  10    20  19   1    26  24   4    17  14   1    12   8   1    20  13   4    14   7   1    16  11   5    19  17   4    32  34  15    26  28   2    67  72  36    93 100  58    63  72  27    84  93  52    54  61  26    41  46  19    49  51  30    26  24   7    20  16   3    45  40  24    36  34  15    32  34  13    38  40  19    71  73  52    68  70  48    41  43  21    30  32   8    40  42  18    53  56  28    50  54  22    37  41   7    67  71  34   119 124  84    69  73  39    32  36   6    43  47  12    67  72  32   102 107  67    36  39   1    55  56  23    47  47  21    32  31  11    29  26   9    22  19   4    21  18   1    32  30   9    42  40  16  
  40  40  14    33  33   5    48  48  20    50  49  23    54  52  29    16  13   1    13   8   1    18  11   2    21  14   8    22  17  11    16  14   1    28  29   9    42  45  17    59  64  29    54  61  19    42  51   7    74  83  42    36  42  14    37  40  18    65  64  43    30  27   8    25  21   5    37  33  15    32  30  10    32  34  13    22  24   3    32  34  13    54  56  35    52  54  32    37  39  17    36  38  14    33  36   8    51  54  24    45  49  16    64  68  35   103 107  73    69  73  40    42  45  14    46  50  16    60  64  28   104 108  71    54  57  22    38  39   9    37  37  12    36  35  15    36  33  18    27  24   9    20  17   1    27  25   6    37  35  11  
  68  68  38    89  89  59    49  50  19    55  55  26    82  80  55    26  24   4    15  11   1    17  11   2    28  21  15    26  20  15    30  29  16    71  72  52    91  93  66    63  68  32    53  60  18    73  82  37    95 103  61    46  53  17    50  55  26    54  57  34    20  19   1    26  23   4    27  24   4    33  34  12    31  35  10    19  23   1    17  21   3    39  43  18    34  38  13    31  35  10    31  35   8    45  49  22    43  47  19    40  45  15    66  71  40    58  63  31    43  47  16    43  46  17    46  50  18    52  56  21    96  98  61    76  78  42    34  35   9    28  27   5    35  33  13    44  41  26    37  34  19    27  24   8    29  24   5    31  29   6  
  94  94  60   115 116  82    57  58  25    51  50  20    84  83  57    51  49  29    17  13   1    18  12   3    28  21  15    23  18  12    15  13   5    87  88  70   113 116  90    92  97  62   105 112  70    95 103  59    58  67  27    35  42   8    56  60  31    39  40  15    29  27   6    35  32  11    23  20   1    55  57  32    47  50  23    26  30   3    33  37  10    52  56  29    35  39  12    37  41  14    53  58  28    51  56  26    55  60  30    52  57  27    68  73  43    45  50  20    38  42  13    38  41  14    43  46  17    43  47  15    71  72  38    78  79  46    48  49  20    28  26   4    29  26   9    43  39  27    46  42  30    38  35  21    35  31  13    31  26   5  
  62  64  25   100 102  63    73  75  38    36  36   5    64  63  35    77  74  52    22  19   4    20  14   7    23  17   8    15  10   4     9   7   1    43  45  27    60  62  37    80  85  50   104 111  69    66  75  31    30  39   4    54  61  25    58  63  32    27  29   5    20  20   1    25  22   1    28  25   1    65  68  36   103 109  73    95 101  65    52  58  22    39  45  10    35  41   7    52  58  24    59  64  33    28  33   8    68  73  41    63  68  36    50  55  23    55  60  31    65  68  42    49  50  26    44  44  17    40  40  10    42  43  12    62  63  32    54  52  27    37  34  14    29  26  11    35  30  20    41  36  25    43  37  24    41  36  19    33  30   8  
 111 113  73    94  96  56    45  47  10    22  22   1    40  40  11    82  80  58    31  27  13    21  14   8    21  14   5    12   7   1    23  21  12    18  19   4    31  33   9    52  57  24    45  52  11    45  54  11    54  63  21    54  61  25    53  56  26    61  61  35    54  52  27    49  46  21    60  58  30    50  52  17   124 131  90   126 133  92    63  70  29    46  53  12    51  57  18    39  45   7    44  50  14    68  74  38    71  77  42    62  68  34    51  56  24    49  54  22    78  80  52    65  65  42    44  44  20    40  40  12    30  31   2    43  43  14    41  39  16    41  39  20    32  28  15    26  22  13    28  23  14    35  29  18    40  34  19    36  31  12  
  72  75  32    89  92  49    60  63  21    39  39   3    30  30   1    66  64  40    41  38  20    20  13   3    23  16   7    16  10   4    15  13   5    23  24   9    49  51  27    52  57  24    27  34   2    58  67  24    79  88  46    92 100  61    62  68  35    53  56  27    58  58  30    63  62  34    82  80  51    51  54  16    92  99  53    72  80  33    79  87  40    93 101  54    78  86  41    33  40   4    58  65  24   109 116  76    74  80  42    71  77  40    63  69  35    40  46  12    56  60  32    59  60  37    44  44  19    48  48  21    33  33   5    37  36   9    33  31   8    36  33  15    28  24  11    25  18  10    25  18  10    29  23  12    34  28  13    30  27   7  
  52  53   9    95  96  54    59  60  19    55  55  18    31  30   2    46  45  18    48  45  25    18  12   1    26  19  11    21  17   8    14  11   2    21  20   6    29  31   9    29  34   5    46  54  16    87  95  54    65  73  32   102 110  73    65  70  38    25  26   1    58  57  29    74  69  42    85  81  50    77  81  40    99 107  58    70  78  29   112 120  73    83  91  44    50  57  12    58  65  23    81  88  47    57  64  24    62  68  31    73  79  44    37  43   9    28  33   2    21  25   1    41  44  17    41  44  16    57  60  30    40  40  12    41  40  15    37  35  13    26  23   5    19  15   3    25  18   8    29  22  12    30  23  12    30  24   9    23  19   1  
  62  63  21   110 111  70    76  76  37    49  47  13    55  52  21    36  35   7    43  41  17    27  24   8    19  16   1    24  21   5    17  13   2    25  22   8    26  27   3    32  37   5    35  43   6    80  91  51    61  71  35    85  94  60    53  59  28     7   8   1    65  61  34    63  57  28    64  58  26    61  62  21    96 102  56    65  71  25   130 136  92   121 127  84    75  80  40    66  71  31    63  67  30    53  57  23    35  39   7    35  38   9    24  27   1    41  44  17    39  44  13    48  55  20    66  72  38    62  68  34    48  50  20    38  37  12    37  35  13    23  20   2    28  25  10    20  17   2    22  19   4    29  27  10    22  21   3    33  32  14  
  53  51  10    86  84  46    92  89  53    59  56  22    52  48  19    34  33   5    53  52  25    53  51  27    31  29   7    12   9   1    45  38  26    45  39  25    32  32   9    46  50  20    41  49  12    75  85  48    67  77  43    53  61  29    27  32  11     4   4   1    45  41  14    61  53  25    51  44  12    49  48  10    67  72  29    43  48   7    86  91  50    82  87  47    68  72  34    61  65  30    76  80  47    46  49  19    33  36   9    39  42  15    10  13   1    22  25   1    35  41   9    64  73  35    91  99  61    63  69  35    49  52  23    37  36  11    44  41  20    36  32  15    20  17   1    25  22   5    29  27   9    27  26   8    33  33  13    32  31  13  
  72  70  31    51  49  11    52  50  13    41  39   5    53  50  19    41  40  10    49  48  20    51  49  25    35  34  10    31  28   9    34  28  14    46  44  27    27  28   8    28  33   5    58  65  31    98 108  71    59  69  35    25  33   3    11  16   1    11  11   1    28  23   4    68  61  33    40  33   3    70  68  32    71  76  35    55  60  20    74  79  40    64  68  32    67  71  36    68  71  38    67  71  38    64  67  36    52  55  27    46  49  22    22  24   2    25  27   4    26  32   5    70  79  41    95 104  66    61  67  33    45  48  19    37  39  13    39  38  15    46  42  22    36  30  14    38  35  18    35  33  16    25  24   6    33  32  13    36  37  19  
  48  45   8    47  44  11    33  30   1    27  24   1    47  45  14    39  37   8    41  39  12    53  51  26    44  41  16    44  42  20    35  29  13    28  23   7    29  30   6    24  28   1    54  61  28   102 110  73    50  59  25    24  29   5    18  21   1    21  21   1    35  31   8    93  87  60    40  34   5    84  83  50    78  82  45    65  69  34    63  67  32    37  41  10    27  30   1    33  36   5   102 105  76    79  82  53    55  58  32    48  50  26    31  32   9    44  47  22    47  52  23    58  66  30    67  74  39    52  57  25    40  43  16    44  44  20    28  26   6    34  29  12    48  42  26    48  44  28    43  41  23    30  29  11    15  14   1    23  23   6  
  53  53  16    38  38   4    36  36   5    35  34   3    38  37   6    29  28   1    46  45  15    80  79  51    62  61  33    34  32   9    22  16   1    29  27   8    34  35  11    32  37   7    90  97  63   137 144 110    71  77  46    32  38  11    22  26   1    15  16   1    54  51  28   123 116  91    47  41  12    42  41  11    42  45  14    38  41  10    30  33   3    22  25   1    17  21   1    25  28   1   121 124  97    59  62  36    59  61  37    77  79  55    26  28   6    35  37  14    61  66  37    55  62  28    45  51  17    40  46  13    44  47  20    49  48  25    33  30  10    33  28  11    37  32  15    40  37  22    48  46  30    40  39  21    14  14   3     5   6   1  
  73  73  37    77  77  43    54  54  21    41  40   9    42  41  10    43  42  12    51  50  20    77  76  48    68  67  39    49  47  22    52  47  28    37  35  17    42  41  18    54  56  26    54  60  26    58  64  30    45  52  22    33  38  13    16  18   2     4   3   1    62  60  39   122 116  93    48  43  18    25  24   1    46  49  22    37  40  14    15  18   1    19  21   1    18  20   1    15  17   1    22  24   1    41  43  21    75  77  55    70  72  50    21  23   4    59  61  38    86  89  63    68  73  42    58  63  31    42  45  16    52  52  26    47  45  25    49  46  27    65  60  43    33  27  11    27  24   9    43  41  25    46  45  27    46  46  28    24  25   7  
