P3
50 50
255
 116 109  40   120 112  48   120 114  52   132 126  66   135 130  73   121 115  60   121 116  60   123 116  62    96  88  37   161 150 105   121 107  72   195 177 150   165 146 125    90  71  56    83  69  58    52  39  30    35  23  11    39  27  15    34  22   9   130 118 104    86  76  61    39  29  14    51  42  27    43  33  21    44  34  23    47  37  27    42  34  23    39  31  22    33  24  17    18  11   3    23  23  13    13  16   1    22  26   1    98 104  70   170 177 133   123 132  79    97 107  50   129 139  80   110 119  60    93 102  47   112 120  69   140 148 100   104 112  63    92 100  52    78  86  37    73  81  32    72  80  29    95 103  52    82  90  40    83  92  43  
  96  87  27   100  90  33   107  99  46    86  78  26    81  74  24   113 106  56   134 127  77   107  97  49   116 105  60   114 100  62   132 115  85   171 151 128   155 134 118    85  65  55    74  60  51    46  33  25    35  23  14    36  23  14    41  29  18   127 115 104    68  59  45    35  26  12    45  35  23    37  27  15    42  33  23    51  41  31    45  36  27    36  27  18    28  19  12    17  10   4    13  13   3    18  20   9    24  27   7    74  78  48   137 143 102    98 105  57    82  90  37   107 115  62   101 109  56   110 118  67   100 108  60   106 113  68   133 140  96    97 104  61   103 110  66   104 112  66    91  98  53    93 100  53    89  97  51   117 125  78  
 110  99  48   112 100  51   100  89  44    91  79  35    89  80  35    93  84  39   108  98  54    88  77  33    90  77  37    87  72  38   150 132 106   136 114  96    95  71  61    92  70  65    63  48  41    39  26  20    35  22  14    32  19  11    49  39  29   122 112 102    53  43  31    41  31  19    48  38  26    40  31  18    49  41  29    61  53  42    51  42  32    32  23  14    21  12   4    16   9   1    19  16   7    17  18   9    19  21   3    61  64  35   134 139 101    96 101  58    72  78  32    81  87  40    98 104  59    50  56  13    63  68  28    57  61  22    78  82  43    75  79  40   115 120  80    86  91  51    71  75  36    92  96  57    81  86  44   100 105  63  
 116 103  59   119 105  65   106  94  55   111  99  62   113 102  62    92  81  42   118 106  65   104  91  51    86  72  37    98  81  50   113  92  70   118  95  80   118  93  88   116  92  88    59  44  37    35  24  16    33  22  13    30  19  10    55  47  35   113 104  92    50  42  27    54  46  31    47  39  24    39  33  17    51  44  29    62  56  43    48  41  29    25  18   8    18  10   1    19  12   2    19  16   5    24  23   8    32  32  10    61  62  36   134 136 103    91  93  55    69  72  33    71  74  35   113 115  79    66  68  34    38  40   7    48  50  17    63  65  31    62  64  30   116 119  81    67  70  32    49  51  18    62  64  30    83  88  51    84  88  50  
  85  71  35    71  56  23    83  70  36    88  75  41    85  72  38    91  79  43   114 102  64    95  81  44    61  45  12    88  69  41   118  97  77   135 111  98   140 112 108   101  77  75    66  51  44    44  34  25    36  26  16    38  28  18    60  52  39    96  88  75    55  48  32    66  59  43    57  51  35    52  46  30    61  55  39    63  57  41    42  36  23    23  17   5    22  15   4    24  20   8    38  36  23    30  29  11    41  40  19    71  71  45   128 129  98    55  56  24    49  50  18    84  85  53    83  83  55    36  37  10    29  29   2    47  47  20    53  53  25    71  72  40    80  81  47    52  54  19    47  47  18    49  49  21    57  60  28    71  75  42  
  73  56  25    56  39  10    54  39  10    61  46  17    75  62  30    97  84  50   105  92  57   109  95  60    67  51  18    88  68  43   144 123 104   161 137 125   113  85  81    99  75  73    78  65  57    58  49  40    41  33  22    52  44  33    63  55  42    77  70  54    59  54  35    64  59  40    67  62  43    66  61  42    68  65  46    60  57  40    38  35  20    28  25  10    36  33  18    43  40  25    54  52  37    62  61  43    79  78  57    82  82  56   119 120  89    42  43  12    52  53  24    97  97  71   119 119  95   128 128 106    43  42  20    56  55  34    88  88  62    56  56  27    93  94  63    97  98  66    51  51  25    47  47  23    59  59  34    37  37   7  
 109  94  57   125 111  75   114 100  64    99  85  51   100  88  52   105  93  58    94  82  47   113  99  66    88  73  42    79  63  37    87  69  49   155 135 121   136 116 105   148 129 120    81  68  58    65  54  43    48  37  25    55  44  32    66  56  41    80  72  56    65  57  40    61  55  37    55  50  32    66  61  43    59  55  37    48  45  29    35  32  17    33  30  15    50  47  32    53  51  36    54  53  36    53  51  34    53  51  30    63  63  37   122 122  91    56  57  25    47  48  16    62  62  32    76  76  45    52  52  22    48  48  19    61  61  33    74  74  45    65  65  35   120 121  90   108 108  81    19  17   1    30  29  13    35  35  16    57  57  35  
  95  83  38    98  86  42   108  96  52   103  91  49    88  79  37    86  77  37    94  84  48    88  76  42    67  55  23    57  45  17    84  70  47   142 129 108   133 119 102   136 122 107    86  72  58    51  39  24    49  37  22    47  34  19    75  63  47    94  84  67    76  67  52    59  52  36    53  47  31    83  77  61    49  46  30    30  27  12    28  26  11    28  26  11    47  45  30    37  35  20    37  34  19    42  39  22    46  44  24    81  79  55   126 125  95    65  65  31    61  61  24    76  77  38   102 102  62    87  87  47    86  86  48    76  76  40    95  94  61    59  58  26   105 104  73    97  96  72    20  20   8    32  32  20    33  34  19    33  34  16  
 106  95  49    98  86  43    94  84  40    85  76  33    74  65  23    73  64  24    70  60  24    74  63  30    77  66  35    71  59  33    86  76  51   169 158 136   129 117  97   104  92  75    94  81  65    62  49  33    54  42  26    99  86  70    65  55  38    75  65  48    74  66  51    59  52  36    57  51  35    86  81  65    55  52  37    28  25  10    24  22   7    33  30  15    51  49  34    36  34  19    39  36  20    41  38  21    50  47  28    90  88  65   114 113  84    90  89  57   102 102  67    96  97  59   103 104  65    77  78  37    77  77  38    91  91  53   116 116  80    85  85  50    93  92  59    96  95  66    32  34  12    33  35  16    44  46  24    33  35  11  
 111  99  58   104  92  52   101  92  53    96  87  47    86  77  40    84  74  38    87  77  42    82  71  39    89  78  48    77  65  39    75  65  40   182 171 149   139 128 108   121 110  92    80  69  51    72  60  44    77  66  50    92  80  64    53  45  28    79  70  53    82  75  59    48  41  25    55  49  33    76  70  54    59  56  41    41  38  23    36  34  19    39  37  22    50  48  33    35  33  18    43  39  23    41  38  19    39  36  17    85  83  62   112 110  87   106 105  77   109 108  78    92  91  59   101 101  67   123 123  86   114 114  78   102 102  66   125 125  89   112 112  74    92  92  54   124 125  89   102 105  75    39  42  12    59  63  31    75  79  46  
  82  69  36    80  66  33    83  73  38    84  74  40    79  69  34    77  66  34    90  81  48    62  53  22    60  51  22    66  56  29    83  73  48   198 186 165   163 155 133   157 149 130    95  87  68    87  78  61    64  55  38    35  27  10    43  36  20   113 106  90    80  74  58    45  39  23    61  55  41    62  56  42    55  52  37    52  49  34    41  39  24    34  32  17    37  35  22    30  28  13    29  28   8    39  38  18    31  30  10    71  70  50    93  92  72    62  61  40    50  50  27    53  53  28    32  32   5    51  52  22    52  53  22    53  54  20    75  77  38    97  99  59    97 100  57   123 125  84    92  97  56    88  93  52    82  87  46   102 107  65  
  60  46  19    59  45  17    66  55  26    69  58  29    68  57  27    71  60  31    77  68  37    64  55  26    68  59  30    73  64  37    78  69  43   137 127 105   101  94  71   104  97  76    78  69  52    83  75  58    61  53  36    36  30  12    41  35  18    95  88  72    49  45  29    47  42  26    56  50  36    43  38  24    43  40  26    46  43  29    35  33  19    32  30  16    36  35  22    37  36  20    43  42  21    42  41  20    39  38  18    75  74  55   102 101  84    57  55  39    46  45  28    42  41  23    40  40  19    23  23   3    35  35   7    78  79  47    96  99  60    97 101  57   104 107  61    96  99  52    98 104  57   127 133  86   122 128  82   126 132  84  
  68  53  32    68  53  31    70  58  34    63  51  26    56  45  18    60  49  21    56  47  18    66  56  28    71  64  36    75  68  41    78  71  45    92  85  61    53  47  23    51  45  23    44  37  19    59  52  36    59  53  37    35  29  13    37  31  15    39  33  17    34  31  16    30  27  12    48  45  30    36  33  18    43  41  28    42  40  27    32  30  17    38  36  23    40  41  27    35  36  20    41  40  19    31  30   9    51  50  30    78  77  60    88  86  72    44  41  30    60  57  46    42  40  29    30  29  13    47  46  27    32  32   8    64  64  35   106 108  71    71  74  31    77  80  33   104 108  58    61  67  19    83  89  42   112 118  70    94 101  51  
  78  62  45    67  51  34    70  57  37    61  49  27    60  50  24    53  42  15    59  51  23    53  45  18    59  53  24    66  60  34    75  69  43    98  94  68    85  80  56    46  40  19    38  33  14    48  44  28    45  41  25    37  33  17    32  27  12    37  32  17    38  35  20    33  30  15    45  42  29    41  39  25    39  37  24    32  30  17    27  27  14    35  35  21    36  37  24    30  31  15    40  39  18    46  45  24    57  56  36    84  82  67    82  80  68    46  43  36    51  48  41    36  33  25    38  35  25    42  40  26    34  33  13    48  48  22    91  92  57    88  90  49    94  97  51    76  79  32    61  67  22    60  66  23    78  84  39    60  66  20  
  77  61  46    69  53  38    69  56  37    64  52  32    70  59  37    73  63  37    44  37   9    43  35   8    62  56  30    74  68  42    65  60  35    68  64  39    70  66  41    49  46  23    39  36  17    46  43  26    47  46  28    42  39  22    35  33  18    37  35  20    43  41  26    47  45  30    57  55  42    46  44  31    31  29  16    24  22   9    24  25  11    32  33  19    43  43  31    51  52  37    77  76  55    61  60  39    47  45  27    79  77  62    76  73  64    34  31  24    35  32  27    40  37  31    28  25  18    32  30  18    39  38  20    42  42  18    63  64  33    75  77  40   104 106  66    94  96  55    81  85  48    68  72  37    71  75  37    66  71  30  
  76  60  45    91  75  60    83  70  51    77  64  45    68  56  35    74  63  41    65  58  32    66  59  33    66  61  35    68  64  37    68  65  40    67  65  40    61  59  36    54  52  31    41  40  22    45  44  29    47  48  32    48  46  31    38  40  23    34  35  19    44  44  31    57  57  44    54  55  41    43  44  30    36  36  24    38  38  26    38  38  26    35  35  23    38  38  26    47  48  34    44  46  28    44  46  25    38  39  21    68  69  56    72  72  60    43  43  35    40  39  34    29  28  22    25  25  17    35  35  23    42  43  27    52  53  32    78  81  52    78  81  49   101 105  68   107 111  76   124 127  96   110 113  84    94  96  66    90  93  62  
  68  52  36    82  66  50    75  61  43    83  70  50    71  61  38    73  62  40    77  70  44    94  88  62    87  83  56    71  67  40    74  72  47    75  73  48    58  57  33    45  44  23    45  46  28    38  40  24    39  41  24    46  48  32    45  46  30    37  39  23    39  40  26    49  50  36    45  46  32    46  47  33    45  45  33    43  43  31    40  40  28    38  38  26    35  35  23    33  34  20    44  45  28    46  47  29    39  40  24    64  65  51    63  63  51    34  34  24    35  35  26    28  28  19    26  26  18    34  34  24    34  35  20    38  40  20    56  58  35    37  39  14    50  52  24    63  66  39    47  49  26    48  50  29    41  43  20    40  43  18  
  72  56  40    82  67  49    80  68  47    90  78  56    72  62  37    58  48  23    52  45  19    81  75  49    90  86  59    84  80  53    79  77  52    65  63  38    52  52  28    58  58  37    50  52  34    37  40  23    34  37  20    42  45  28    46  49  32    39  42  25    33  35  21    34  36  22    38  39  25    45  46  32    42  42  30    30  30  18    30  30  18    42  42  30    48  48  36    42  43  30    42  43  28    45  46  31    51  52  37    91  92  78    85  85  73    37  37  26    30  30  19    29  29  18    26  26  15    30  30  18    30  31  17    33  34  19    48  49  31    32  33  14    55  56  36    74  76  57    29  31  12    31  32  15    36  37  18    40  42  20  
  66  51  33    69  54  35    73  60  39    71  59  37    62  52  27    50  40  15    46  41  13    54  49  21    60  56  29    71  69  41    80  80  54    74  74  48    68  69  45    76  78  56    55  58  39    46  50  32    42  45  28    42  45  28    40  42  27    33  35  20    29  31  17    31  33  19    27  29  15    36  38  25    38  38  26    30  30  18    32  32  20    44  44  32    50  50  40    46  46  34    47  47  35    58  59  45    56  57  43    78  79  64    69  69  56    34  35  22    30  30  17    17  18   5    27  28  15    20  21   8    24  25  11    38  39  25    56  57  42    44  44  30    55  55  41    48  48  35    33  34  20    33  34  19    35  36  18    48  50  29  
  48  35  18    45  32  16    53  42  24    38  27   7    42  34  13    45  37  14    41  35   8    48  44  17    52  51  23    58  56  30    71  71  45    80  80  54    68  68  44    48  50  28    58  61  40    59  62  43    57  60  41    47  49  31    33  35  19    25  28  12    30  32  18    38  40  26    35  37  23    35  37  24    34  34  22    30  30  18    29  29  17    34  34  22    40  40  28    45  45  33    38  38  26    35  35  23    32  33  20    69  70  56    68  69  55    28  29  15    25  26  12    25  26  12    26  27  13    23  24   8    39  40  24    52  53  37    54  55  41    37  38  24    51  52  38    37  38  24    41  42  28    47  48  34    32  33  17    43  44  25  
  29  19  10    39  29  19    45  35  23    42  32  20    41  34  16    47  40  21    42  37  15    52  47  25    68  66  43    73  71  46    75  73  48    85  82  57    70  68  43    63  63  39    60  63  38    63  65  41    67  69  47    46  48  26    31  34  12    34  35  17    29  30  14    32  33  19    54  55  41    47  48  34    39  40  26    36  37  23    37  38  24    38  39  23    36  37  21    34  35  21    31  31  19    31  31  21    43  43  31    57  57  44    51  52  38    30  31  17    21  23   6    26  27  11    19  21   4    30  31  13    46  47  29    55  56  37    55  57  36    60  62  41    59  61  40    49  51  30    56  57  40    47  47  33    49  50  34    46  47  31  
  31  22  15    38  29  22    40  32  23    39  31  20    41  35  21    46  40  23    38  34  14    71  67  46    75  73  50    50  49  25    84  83  58   106 104  79    66  64  39    60  60  35    45  48  22    50  52  28    64  66  43    58  61  39    49  51  31    45  46  28    30  31  15    31  32  16    32  33  18    41  42  28    45  46  32    36  37  23    29  30  14    33  34  18    42  43  25    47  48  32    30  30  18    31  31  21    41  41  29    53  53  40    50  51  37    37  38  24    29  30  14    30  31  15    37  38  20    45  46  28    47  49  29    51  53  33    61  63  42    65  67  46    60  62  40    57  59  37    50  51  32    60  61  44    42  43  27    23  24   8  
  32  23  16    32  23  15    32  25  14    36  30  18    43  37  22    47  41  25    51  49  28    48  46  25    42  40  17    32  30   7    97  95  70   103 101  76    44  44  16    61  61  35    43  45  22    41  43  22    57  59  38    62  63  44    57  58  41    45  46  31    24  25  10    25  26  12    27  28  14    45  46  32    54  55  41    45  46  32    38  39  23    42  43  27    47  48  30    44  45  29    44  45  31    46  46  34    50  50  38    54  54  41    52  53  39    44  45  31    35  36  20    30  31  15    43  44  26    50  51  33    42  43  25    45  46  28    65  67  47    64  65  46    49  51  30    51  53  32    41  43  22    30  32  12    49  50  30    54  56  36  
  40  32  23    35  27  18    35  29  17    40  34  22    43  37  21    43  37  21    46  44  23    26  24   3    30  28   5    27  25   1   100 100  73   128 128 100    80  81  50    57  57  31    43  45  24    30  31  14    37  38  21    43  44  29    44  45  31    38  38  25    23  24  11    29  30  17    26  26  13    45  46  33    55  56  42    48  49  35    45  45  30    52  53  35    53  55  35    45  47  29    61  62  46    60  61  48    59  60  46    57  58  43    52  53  37    43  45  29    33  35  18    26  27  11    41  42  25    45  46  30    33  34  18    38  39  22    61  62  46    56  57  40    38  40  21    45  46  27    43  45  24    40  42  19    51  53  30    94  96  73  
  53  46  36    52  45  35    51  44  33    46  40  27    41  35  19    37  31  15    39  37  16    31  29   8    48  46  21    45  43  18   104 104  76   139 140 109   116 117  86    47  47  21    47  49  27    25  26  12    22  23   9    23  24  11    29  29  17    31  31  19    23  23  11    31  31  19    36  36  24    53  53  41    61  62  48    51  52  38    41  42  25    47  48  30    55  57  36    59  61  40    59  60  44    57  58  42    56  57  42    56  57  41    50  51  35    39  40  24    31  32  16    29  29  14    45  46  30    44  45  29    35  37  20    42  43  27    60  61  45    54  55  39    43  44  28    53  54  36    64  66  44    49  51  27    76  79  52    89  92  65  
  45  39  27    51  44  32    48  42  28    41  35  21    40  37  20    46  43  26    59  57  36    56  54  32    65  65  39    70  70  41   105 107  75    96  97  64   101 102  69    56  56  28    45  46  28    25  25  13    22  22  10    21  21   9    30  30  18    36  36  26    24  24  14    23  23  13    47  47  35    54  54  42    58  59  45    52  54  39    47  48  30    47  48  30    51  53  32    54  56  35    46  47  29    43  44  26    46  47  29    53  54  36    48  49  31    35  36  18    32  33  17    38  38  23    43  44  28    39  40  24    48  49  33    64  65  49    69  70  56    59  60  46    53  54  40    59  59  44    76  78  57    61  62  39    95  98  71    81  84  55  
  29  24   9    34  29  14    31  26  11    31  25  11    44  41  24    61  58  41    71  70  48    84  83  59    76  76  50    73  73  44   105 107  75    85  86  52    95  97  62    76  77  46    33  35  16    19  19   6    23  23  11    28  28  16    31  31  21    37  37  27    30  30  20    23  23  13    41  41  29    58  58  47    56  57  43    48  49  33    56  57  40    57  59  38    46  47  26    42  44  22    43  45  24    42  43  25    41  43  24    49  50  31    48  49  30    34  35  16    32  33  14    41  42  25    35  36  20    35  36  20    56  57  40    70  71  54    75  76  60    62  63  48    53  54  38    58  58  42    36  38  18    71  73  52    59  61  37    70  73  46  
  26  23   6    26  23   7    21  18   2    30  27  12    51  48  31    65  62  45    61  60  39    68  68  44    71  71  45    77  78  48   103 107  74   100 104  68    95 100  61    79  83  50    37  39  17    19  20   6    29  30  17    38  38  26    21  21  10    17  17   6    28  28  17    24  24  13    46  46  34   101 101  88    73  74  59    53  54  37    70  71  52    62  64  43    56  58  36    48  50  28    48  50  28    52  54  33    41  43  21    48  50  29    48  50  28    28  30   9    29  31  10    39  41  21    43  44  25    41  43  23    53  54  35    40  41  22    57  59  39    57  58  40    51  52  33    69  70  52    64  65  48    65  66  49    53  55  34    48  50  25  
  40  37  18    46  43  26    43  40  23    43  40  24    47  45  27    47  46  28    54  53  32    34  34  10    51  54  27    74  76  45    99 103  68   102 106  69   107 112  72    82  86  52    52  54  31    23  24   9    23  24   8    34  35  20    22  23   8    15  16   3    24  25  11    26  27  14    31  32  19    64  65  51    64  65  49    76  77  59    82  84  63    58  60  39    50  52  30    48  50  28    44  46  23    47  49  26    52  54  31    69  70  49    55  57  33    31  32  11    46  47  24    64  66  44    51  53  31    52  54  32    48  50  29    34  36  15    36  39  17    48  50  28    46  48  26    64  65  45    49  50  34    53  54  38    57  59  40    60  62  40  
  30  27   7    36  33  14    40  37  20    44  41  24    49  47  29    49  48  30    55  54  33    51  51  27    44  47  20    54  56  26   131 135 100   114 119  79    87  93  50   105 109  72    78  81  55    35  37  16    11  13   1    19  20   2    31  32  14    38  39  24    36  37  22    24  25  11    27  27  12    20  21   5    51  52  34    53  54  36    39  41  20    34  36  15    31  33  11    58  59  38    82  84  60    73  75  51    67  69  45    76  78  54    72  74  50    74  76  53    87  89  65    74  77  50    61  64  37    64  67  40    56  59  32    56  59  32    40  43  17    46  49  22    41  44  18    56  58  35    50  51  33    64  65  49    60  61  43    33  34  16  
  22  20   1    36  33  14    47  46  28    55  55  37    63  62  44    66  65  47    39  41  19    64  66  42    47  50  21    35  39   7   163 166 129   155 160 120    88  95  51    92  99  58    90  93  64    59  61  37    30  32  10    30  32  10    53  55  34    72  73  54    61  62  44    33  34  18    40  41  23    29  31  13    21  22   4    40  41  22    31  33  12    33  35  15    69  71  49    61  63  41    65  67  43    84  86  62    99 101  77    98 100  76    71  74  47    69  72  45   105 108  81   117 120  91   118 121  92    99 102  73    73  76  46    79  82  52    60  64  32    52  55  24    37  40   9    35  38   9    35  37  15    36  38  17    41  42  24    50  51  33  
  35  34  13    53  50  31    58  57  37    55  54  36    55  54  36    53  52  34    38  40  18    47  49  25    45  48  19    20  23   1   140 145 107   163 169 128   113 120  73    82  89  47    75  79  45    67  70  43    51  54  26    43  45  20    52  54  32    63  65  44    55  57  36    39  40  21    33  34  15    26  27   8    60  62  43    64  65  46    49  51  30    60  62  41    56  59  36    51  53  31    48  50  26    41  43  19    35  37  12    50  53  28    53  56  28    42  45  18    51  54  25    54  57  28    89  92  61    95  98  67    98 102  68   103 107  73    77  82  46    59  63  28    68  72  36    66  70  37    55  58  30    50  52  29    43  44  23    52  53  35  
  41  40  19    51  50  30    49  49  30    44  43  25    46  45  27    50  49  31    43  45  23    39  41  18    53  56  27    32  36   5   127 133  94   122 128  87    90  98  52    98 104  61    78  82  47    72  75  45    54  57  27    40  43  15    42  44  19    44  46  23    43  45  24    46  48  26    39  41  19    29  31  10    64  66  45    65  67  45    55  57  35    66  68  46    55  57  34    51  53  30    64  66  42    68  70  46    49  52  25    47  50  23    48  51  23    38  41  12    40  43  13    43  46  16    70  73  41    59  63  30    53  57  22    66  70  35    97 101  64   112 116  79   123 127  90    79  83  48    62  65  34    68  70  45    55  57  35    61  62  43  
  50  52  30    53  54  33    54  56  38    53  54  37    50  51  34    48  48  30    47  48  30    51  53  32    42  43  16    40  41  12   124 126  92    90  92  54    60  66  25    86  91  50    83  87  52    64  68  36    57  62  30    53  58  28    49  53  24    42  45  19    42  45  20    62  65  41    44  47  23    59  63  39    64  67  42    92  96  70    80  84  56    48  52  23    62  66  37    56  60  30    68  72  46    77  80  54    45  49  21    37  41  14    42  45  18    47  51  23    40  43  15    51  54  26    72  75  46    65  69  38    51  53  21    54  56  24    84  86  53    97  99  66    94  96  62    74  77  45    38  41  13    37  41  15    71  74  50    67  70  47  
  39  43  20    34  36  16    36  39  20    39  41  25    41  42  26    40  42  25    40  40  23    31  33  12    58  58  34    90  90  62   135 136 105    96  97  63    95  97  60   103 106  68    84  89  54    66  72  38    61  66  34    53  58  26    53  58  28    56  60  33    52  56  29    60  64  37    59  63  37    51  55  28    65  70  40    76  81  51   108 113  82   101 107  73    57  63  29    90  96  62   113 118  88   115 120  93    70  74  47    43  47  20    43  47  20    25  29   4    35  37  13    63  65  41    53  56  29    79  82  55    78  78  50    59  59  31    73  73  45    98  98  70    86  87  56    54  55  26    32  36  11    38  42  19    76  80  55    67  71  46  
  42  46  23    39  42  21    37  40  21    35  38  19    32  33  17    29  30  14    37  38  19    23  25   3    42  42  18    66  66  38   138 139 107   146 147 113   141 143 106   117 120  82    97 103  67    68  74  40    54  59  27    47  52  20    51  56  26    53  57  30    39  43  17    41  45  20    74  78  53    46  50  25    64  68  41    80  85  55    72  77  47    61  66  35    49  54  22    53  58  26    55  60  30   103 108  78    69  74  44    33  38   8    64  69  38    56  60  33    81  84  56    75  78  51    69  72  45    66  69  42    70  70  44    79  79  53    90  90  62    97  97  69    78  78  50    45  45  19    33  36  15    45  48  32    59  62  43    46  49  30  
  43  47  24    39  42  21    37  40  21    36  39  20    34  35  19    30  31  15    30  31  11    36  38  16    26  26   2    39  39  11   164 165 133   170 171 137   133 135  96   142 144 107    98 104  68    61  67  33    47  52  20    50  55  25    51  55  28    41  45  18    27  31   6    39  43  18    80  83  59    63  67  43    70  74  50    78  82  56    45  49  22    25  29   3    39  44  15    40  45  15    52  57  25   120 125  95    88  93  60    66  71  40    74  79  47    49  54  24    56  59  30    41  44  16    62  65  38    69  72  44    79  79  53    76  76  50    76  76  50    94  94  69    84  84  56    42  42  19    29  31  15    35  36  25    33  35  22    37  39  26  
  43  47  24    37  40  19    37  40  20    41  44  25    41  42  26    36  37  20    22  24   4    34  36  14    50  50  26    66  66  38   161 162 130   131 133  97    84  86  47   114 116  79    75  81  45    62  68  34    59  64  32    49  54  24    43  47  20    43  47  21    34  38  14    39  43  20    79  83  60    72  75  53    57  61  38    47  51  27    42  46  22    36  40  14    40  44  18    50  54  26    59  64  32   107 113  80    75  81  46    85  90  57    76  82  47    51  56  23    47  50  18    46  49  19    44  47  17    47  50  21    63  63  36    69  69  43    59  59  34    54  54  30    53  53  28    45  44  24    16  17   5    23  24  16    24  26  16    36  38  28  
  58  62  39    57  59  39    61  64  43    63  66  47    51  52  35    35  36  17    49  51  30    53  55  33    87  87  61    76  76  46   123 124  92   108 110  73    70  72  33    64  66  27    58  64  28    70  76  42    76  81  49    49  54  24    36  40  12    44  48  23    37  41  18    31  35  13    47  51  29    53  57  37    36  39  18    49  52  31    49  53  31    56  60  37    89  93  69    62  66  41    56  62  29    94 100  65    84  90  52    87  93  57    88  94  57    96 102  67    96 100  66    75  79  46    67  71  39    76  79  48    73  73  45    60  60  34    59  59  35    63  63  39    54  53  31    40  39  19    23  23  12    27  27  17    30  31  21    33  33  23  
  62  66  41    59  63  40    67  70  49    71  74  55    57  58  39    35  36  18    50  52  31    52  54  32    86  86  60    68  69  38   107 108  76    92  94  57    62  64  25    69  71  32    57  63  27    68  74  40    81  87  53    62  67  37    47  51  23    47  52  27    41  45  22    44  47  26    32  35  16    39  42  23    47  50  31    31  34  15    70  73  54    98 101  80    53  56  35    49  53  28    54  60  26    82  88  50   109 115  77    91  97  59    79  85  47    79  85  47   115 119  82   125 129  94   104 108  73   112 116  83    93  94  63    63  63  35    55  55  30    53  53  29    48  47  26    51  50  30    63  64  48    32  32  21    34  35  21    51  52  38  
  57  61  36    52  56  33    43  46  25    51  54  33    55  56  38    40  42  23    66  68  47    55  57  33    81  81  55    88  89  58    77  78  44   102 104  67    66  68  29    75  76  37    88  94  56    68  74  37    84  90  56    73  78  46    45  50  20    52  56  31    58  62  38    64  67  45    50  53  34    51  54  35    26  29  12    35  38  21    94  97  80    55  58  39    33  36  17    64  68  45    70  76  42    53  59  21    42  48  10    40  46   8    30  37   1    21  28   1    24  29   2    32  36   1    54  58  20    61  65  30    65  66  35    93  93  65    68  68  42    66  66  42    76  75  54    63  62  40    39  41  20    27  28   9    52  54  33    67  69  48  
  81  85  60    44  48  25    33  37  14    55  58  37    43  44  25    38  40  19    78  80  58    81  83  59    94  94  67   118 119  88   109 110  76   101 103  64    86  88  48    96  98  58    91  97  56    69  75  36    79  85  48    82  88  53    50  55  24    49  54  26    48  52  27    62  66  43    60  63  41    33  36  17    37  40  23    25  28  11    45  48  31    45  48  31    52  55  37    92  96  74   125 130  99    84  90  52    69  75  37    57  63  25    50  57  16    48  55  14    64  69  29    54  59  19    54  59  19    76  80  43    77  78  46    81  82  51    82  82  56    86  86  61    89  89  65    73  73  49    74  76  50    63  65  39    58  59  33    66  68  42  
  74  78  53    42  46  22    37  41  18    47  50  29    31  33  12    44  46  25    32  34  13    57  59  35    73  73  45   104 105  73   130 131  97   126 128  89   120 122  82   114 117  75    92  99  56    90  97  56    89  95  56    84  90  53    48  54  21    59  64  33    62  66  40    70  74  50    71  74  52    33  36  16    49  52  34    32  35  18    26  29  12    40  43  26    44  47  30    64  67  46   101 106  76    92  98  63   103 109  72   105 111  73    95 102  61    92  99  57   102 107  66    95 100  59    67  72  31    57  62  21    58  59  25    64  65  32    76  76  47    59  59  32    69  69  44    76  76  49    74  75  44   106 107  74   102 103  71    77  78  47  
  44  48  23    40  44  19    56  60  37    51  55  33    43  45  24    40  42  21    71  73  51    65  68  42    64  64  36    79  80  48   156 158 122   168 169 130   135 137  97   108 111  68    91  98  54   108 114  71   102 108  67    87  94  54    53  59  23    64  70  36    72  77  48    76  80  54    71  75  52    53  57  36    42  45  26    35  39  20    36  39  20    45  48  29    47  50  31    51  54  33    71  76  46    90  96  61    80  86  50    90  95  57    87  94  53   102 109  67    95 100  59   108 113  70    98 104  61    83  88  47   106 109  70   100 102  66    80  81  49    59  60  30    86  86  58    98  99  69   105 106  73    93  95  58    80  82  46    67  69  35  
  57  62  35    49  53  28    50  54  31    42  46  23    58  60  39    38  40  19    74  76  52    70  73  46    91  91  63   102 103  71   176 178 141   146 148 109   114 117  75   125 128  85    87  95  48    96 104  58    97 104  60    94 101  59    76  82  44    52  58  24    59  64  33    68  72  45    74  78  53    81  85  62    51  54  33    46  49  30    42  44  26    34  37  18    32  35  16    41  44  23    39  43  16    79  84  52    77  83  49    94 100  64   103 109  71   135 142 100   130 136  92   152 158 114   105 111  67    67  73  29    70  72  32    59  61  24    40  41   7    37  39   7    59  60  29    74  75  44    79  79  46    56  58  21    69  71  34    68  69  35  
  86  90  63    75  79  54    50  54  31    37  41  18    55  57  37    49  51  30    48  50  26    36  39  13    38  38  10    83  83  52   206 207 171   161 163 125   127 130  87   110 113  69    79  87  38    79  88  39    84  92  44    85  92  48    92  99  58    49  55  19    58  64  30    57  62  32    61  65  38    56  61  38    50  53  32    52  55  34    40  43  24    45  48  29    33  35  16    48  50  30    57  61  36    67  72  42    81  87  53    69  75  39    67  73  36    94 100  59   128 134  91   130 136  91   101 107  61    81  87  43    67  69  29    74  76  37    98 100  63   103 104  72    70  71  40    79  80  48    61  62  28    49  51  14    70  71  37    74  75  41  
  62  65  39    68  71  47    61  65  42    43  44  24    34  35  15    31  29  10    33  31  11    52  51  29    41  40  16    80  78  52   194 191 163   155 153 122   149 147 114   126 127  89    74  79  35    81  88  43    85  92  47    80  86  46    89  95  58    62  68  35    65  70  39    52  56  30    67  72  47    45  50  27    50  53  32    47  51  30    35  39  18    55  59  39    44  47  26    50  53  32    52  56  31    31  34   8    56  60  31    53  58  26    62  67  33    84  89  53   126 130  93   100 104  66    59  64  26    86  91  53    91  93  56    73  76  40    93  94  61   125 127  95   108 110  79   108 110  77    96  99  58    73  77  34    74  77  35    82  85  43  
  58  60  37    68  70  48    70  70  50    36  35  18    36  34  18    28  25   9    38  33  18    50  44  29    46  40  22    91  85  67   186 178 159   174 167 145   163 156 133   112 107  80    61  62  26    77  82  42    94  99  60   113 117  82    97 102  69    80  84  56    52  56  30    45  49  26    44  49  27    43  48  26    49  54  33    50  55  34    48  53  31    53  58  35    52  59  35    43  48  24    44  48  23    34  36  12    48  50  25    63  65  40    61  64  36    72  75  46    78  81  52    59  62  33    66  69  40    47  50  21    79  82  53    87  90  61    74  77  48   103 106  77   121 124  95   109 113  79   108 114  69    99 105  56    81  87  39    90  96  49  
  34  36  14    55  57  36    75  74  54    54  53  36    46  43  28    45  42  27    35  29  17    41  35  23    56  49  35   110 103  87   184 175 159   166 157 140   160 151 134   100  94  71    26  27   4    73  77  40   110 114  80   107 110  79    92  95  65    73  76  48    62  66  39    57  61  37    48  52  28    53  57  34    54  59  36    45  50  27    45  50  28    60  65  42    61  66  43    41  46  23    44  48  23    42  44  20    56  58  34    67  69  45    65  67  42    71  74  49    66  69  44    39  41  16    47  49  24    42  44  19    65  68  43    82  84  59    78  80  55   100 102  78    66  69  42    64  67  37   104 109  72   104 108  68    96 100  60   116 120  81  
  56  58  36    48  50  29    69  68  50    90  89  71    34  31  16    46  43  28    41  35  23    54  48  36    48  40  27   102  94  81   203 193 181   169 160 145   148 140 124   120 113  94    40  40  14    86  89  59   104 108  78    65  68  39    65  68  39    70  73  44    80  85  56    74  79  49    85  89  62    74  78  52    47  53  27    31  37  11    64  69  46   118 123 100   107 112  89    50  54  31    51  55  30    51  53  29    63  65  41    69  71  47    56  58  34    49  51  27    51  54  29    48  50  26    31  33   9    50  52  28    99 101  77    59  61  37    45  47  23    52  54  30    34  36  12    26  28   4    50  53  26    68  71  43    72  75  47    98 101  73  
