P3
50 50
255
  73  79  35    74  79  36    58  63  22    55  62  20    45  52  10    46  53  11    64  72  29    67  76  31    51  59  17    34  41   7    31  37  10    24  29   8    22  26  10    24  28  17    24  27  18    19  22  13    20  24  12    24  28  14    24  28  11    30  33  13    35  38   9    46  48  19    60  63  36    48  50  25    39  42  15    34  37   8    43  46  14    70  74  40    79  83  48    48  52  19    30  33   5    30  32  11    27  28  11    23  24   8    26  27  11    28  29  13    26  27  11    32  33  17    36  37  21    34  36  15    35  37  14    38  41  12    56  60  25    93  98  57   116 122  74    67  74  24    33  38   3    35  37  12    33  35  14    34  35  19  
  53  59  15    66  72  29    49  54  13    44  50   9    40  46   5    37  44   3    56  64  21    68  77  32    55  63  21    39  47  10    38  45  15    31  36  14    23  28  10    26  29  17    26  29  18    21  25  11    21  25  11    26  30  14    27  32  13    34  39  17    37  42  10    48  52  20    64  67  39    52  54  29    44  47  20    38  41  12    46  49  18    76  80  46    82  86  51    50  54  21    40  43  14    47  49  27    38  39  21    27  28  10    30  31  13    34  35  17    32  33  17    37  38  21    38  39  21    33  34  14    22  24   2    37  40  12    39  43   8    61  66  24    93  99  52    63  70  20    37  42   4    26  28   5    30  31  13    28  28  12  
  64  67  24    69  73  30    49  54  13    45  50   9    49  54  16    57  62  24    41  48   6    73  82  37    61  70  26    42  50  12    57  63  33    44  49  25    33  37  18    22  26  10    24  29  14    25  29  14    29  33  15    33  38  17    32  37  15    35  39  13    44  47  15    52  56  24    55  58  30    55  57  32    41  43  19    36  39  12    53  56  24    70  74  40    64  68  33    59  63  30    50  53  24    46  48  25    40  41  22    21  23   3    26  28   7    43  45  25    44  45  27    30  31  13    25  25   8    29  31  11    26  28   6    19  23   1    46  50  16    86  90  51   116 122  76    68  74  27    45  49  14    25  26   6    27  28  12    25  26  12  
  54  57  13    53  57  14    49  54  12    62  67  27    64  68  31    56  60  23    42  49  10    80  89  44    69  78  34    57  65  26    52  59  27    30  36   9    28  33  11    22  27   9    25  29  12    30  35  15    38  43  21    43  49  24    44  50  22    51  58  27    49  55  21    53  56  22    54  57  27    55  58  30    44  46  22    35  39  11    50  54  22    72  76  42    67  71  36    57  61  28    46  49  20    44  46  23    36  38  17    28  30   8    25  27   5    34  36  14    46  48  27    44  46  26    36  38  18    28  30   8    26  28   4    35  39  10    50  54  19    83  88  48   121 127  81    77  83  36    50  54  18    25  26   7    25  26  12    23  24  10  
  61  64  19    67  70  27    68  71  29    62  66  26    47  52  12    53  57  20    59  65  23    72  80  35    61  70  27    65  73  34    51  58  25    28  33   7    30  35  12    23  28   6    22  27   5    27  32   9    41  47  20    47  53  24    49  56  23    61  67  31    55  59  24    50  54  20    47  50  20    49  52  24    43  45  20    33  36   9    43  46  16    64  68  34    64  68  33    49  53  19    35  38   8    38  41  15    31  33  11    30  34  10    25  30   5    31  36  11    48  52  30    53  56  35    45  48  27    31  34  13    25  29   6    48  52  23    50  55  21    69  76  37   106 113  69    59  67  21    30  36   1    25  26   9    24  24  12    21  21   9  
  54  57  12    66  69  25    67  70  27    50  55  13    40  45   5    57  62  22    73  78  37    72  80  35    62  71  28    72  80  40    51  58  25    30  36   7    24  29   6    24  29   6    22  27   4    25  31   5    43  50  19    53  61  26    54  62  22    63  71  30    58  65  24    48  52  16    40  43  12    37  40  13    34  36  12    31  34   7    38  42  11    54  58  24    65  69  34    48  52  17    31  34   3    37  40  14    34  36  14    34  37  12    30  34   7    39  43  16    48  52  28    48  51  29    45  47  26    41  45  22    32  36  11    51  55  27    59  64  30    73  80  40   103 110  66    61  69  24    22  27   2    26  27  11    23  23  11    19  19   7  
  51  53   6    54  55  11    50  53  10    49  52  11    61  63  24    58  60  21    49  54  12    46  54   9    54  63  20    71  80  40    52  60  23    45  51  20    41  47  20    36  42  16    31  37   9    30  36   5    51  58  23    68  76  36    69  78  34    73  81  37    65  70  30    52  56  20    39  42  10    28  31   3    27  29   4    35  38  10    43  46  16    54  57  24    72  76  41    57  61  26    35  38   7    40  43  15    41  43  20    40  44  18    34  38  11    40  43  17    44  48  23    40  44  21    40  44  21    43  47  24    29  33   8    32  37   6    49  54  20    69  76  36   100 107  63    76  84  38    30  34   3    27  27  13    23  23  13    20  20  10  
  70  72  25    73  76  29    67  70  26    58  61  18    74  76  36    72  75  36    61  67  25    44  52   7    59  68  24    71  79  40    42  50  13    33  40   7    34  41  11    37  43  15    35  42  12    34  41   7    54  62  22    76  85  40    80  90  41    80  90  40    76  83  41    62  66  29    44  48  15    26  29   2    25  28   4    40  44  16    47  50  20    53  57  24    69  73  37    57  61  26    33  37   4    36  38  11    41  43  19    45  49  21    36  41  11    33  38   9    38  42  16    37  41  17    35  39  16    32  36  11    38  42  15    29  34   5    38  43  12    59  66  26    87  94  52    73  80  37    32  36   4    25  26  12    21  21  11    20  20  10  
 126 128  81   126 129  82   116 119  75    87  89  47    77  79  39    72  74  35    79  84  42    61  69  24    63  72  29    78  86  45    59  67  31    47  54  21    50  57  26    46  53  22    46  53  20    46  54  16    59  67  24    79  89  39    87  97  44    87  95  44    86  92  49    68  73  35    49  53  20    28  31   4    27  29   4    40  43  16    45  48  19    56  60  28    61  66  31    52  56  21    34  38   5    38  41  13    46  48  23    44  48  20    35  40  10    32  37   8    37  40  14    35  39  14    30  34  11    23  28   5    53  57  32    58  63  32    49  55  21    70  76  38    90  97  56    69  76  32    34  39   7    22  23  10    18  18  11    19  19  11  
 101 103  56    99 101  57   119 121  78   128 132  88   134 136  95   118 120  81   126 130  89   107 114  70    86  93  49   100 107  65    94 100  62    72  78  42    66  72  36    59  65  29    63  69  31    66  73  31    70  77  32    86  95  44    95 104  50    95 104  51    90  96  51    71  75  36    50  54  19    29  32   4    27  29   3    37  40  11    43  47  15    66  70  36    61  65  29    54  58  21    45  49  14    52  55  23    61  64  33    43  47  16    33  38   6    37  42  13    39  43  16    31  35  10    25  29   5    22  26   3    35  39  14    65  69  40    49  54  21    75  81  46    94 101  60    62  68  27    34  39   8    19  21   6    17  17   9    18  17  12  
  78  75  33    75  73  32    80  78  38    83  80  42    89  86  51   107 104  69   114 115  77   120 121  80   128 129  87   134 134  92   130 133  90   117 120  77   106 109  65   105 108  63   102 105  58    92  95  47    88  93  42    89  96  45   106 113  61    95 102  51    87  93  49    63  68  27    58  62  24    31  34   5    39  43  11    32  36   3    39  43  10    60  64  29    69  73  37    54  59  19    58  63  23    89  94  53    77  82  42    48  53  17    30  37   5    48  54  26    35  41  13    31  37  11    26  31   8    26  31   8    38  43  20    38  44  17    39  45  16    79  86  53    88  95  59    62  70  32    25  29   2    13  16   2    11  12   3     8   9   4  
  73  70  29    61  58  19    54  52  14    54  52  16    64  61  26    84  81  48    90  88  52    90  88  49   104 102  61   100  98  56   108 109  64   106 107  62   130 132  85   183 185 136   147 149 100   122 124  75   113 116  66   120 124  73   112 116  65    99 102  55    78  84  40    59  64  23    46  51  11    49  53  15    46  50  15    39  43   8    54  58  23    74  78  42    74  78  39    61  66  25    56  62  18   106 112  68    86  92  47    64  70  31    51  58  26    48  55  24    34  40  12    25  31   4    14  20   1    14  19   1    41  47  21    41  47  20    46  53  23    69  76  44    49  56  22    33  41   4    21  27   1    22  24   7    20  22  12    11  11   8  
  54  52  13    48  46   8    46  44   7    47  44   9    52  49  16    60  58  25    62  60  27    57  57  21    61  61  24    55  55  18    91  92  52   122 123  82   141 142 100   159 160 117   127 128  83   123 125  78   127 129  82   130 133  86   128 131  84   131 134  87   138 141  98    96  99  59    73  75  35    75  77  38    49  51  14    37  39   2    47  49  12    76  78  41    71  73  35    78  80  41    67  69  29    91  94  50    45  50   7    60  66  29    70  75  43    44  49  17    39  44  14    33  38   9    21  25   1    23  27   1    38  42  15    47  52  22    55  60  29    76  81  48    60  66  31    43  49  13    23  28   1    19  22   4    16  17   7    13  14   9  
  47  45   7    51  49  12    54  51  16    55  52  19    55  52  19    56  53  20    58  58  24    46  46  12    45  45  11    45  45   9    68  68  32   118 118  80   111 112  73    88  89  49    84  86  44    99 101  58   112 114  69   103 106  61   100 103  58   103 106  61   181 184 140   130 133  90   134 136  95   136 138  98   125 127  88   114 116  77    95  97  60    90  92  55    69  71  32    73  76  36    93  95  54    84  87  43    57  60  17    70  73  35    76  81  47    33  39   5    34  39   7    34  39   9    24  29   1    31  36   6    36  41   9    64  69  37    50  56  22    47  53  18    63  69  31    76  82  45    45  51  20    21  24   5    11  13   1    17  18  12  
  58  55  20    61  59  24    55  55  19    51  51  15    51  51  15    57  57  21    63  62  28    43  43  12    44  46  14    52  53  21    52  53  21    85  86  52    81  82  47    80  82  45    68  70  31    96  96  58   107 108  68   106 107  66    87  88  46    94  95  51   131 132  88    79  80  37    88  89  46    95  96  55   132 132  94   136 136  98   137 137  99   132 132  94   116 116  78    96  96  58   144 145 105   107 108  67    93  94  53    90  92  54    94  95  61    54  54  21    56  57  25    56  57  25    40  41  10    45  46  15    44  45  13    88  89  57    68  69  34    39  41   2    53  55  16    87  89  51    60  64  32    31  34  12    22  24   9    19  21  10  
  60  58  20    67  65  27    58  58  20    54  54  16    51  52  12    50  52  12    57  59  21    42  43  12    22  23   1    43  44  13    72  73  41    91  92  58    98  99  65    84  86  50    47  49  12   102 102  64   100 101  61   111 112  71    99  99  58   144 145 101    76  77  33    65  67  21    82  83  39    95  96  53   119 121  80    86  87  47    89  89  51    82  82  44    97  97  59    68  68  31   125 127  87   100 101  61    92  93  52   110 112  72   122 124  86    83  85  48    68  70  33    65  67  31    52  53  19    59  60  26    70  72  35    75  77  40    54  56  18    43  45   5    52  54  14    83  85  45    60  63  28    31  34   8    31  35  13    18  21   2  
  64  65  25    69  70  30    60  61  20    60  63  20    60  63  18    52  55  10    57  60  18    47  50  13    11  14   1    31  35   3    71  72  38   108 109  75   121 123  87    68  70  33    56  58  21    87  89  50    77  78  38    85  86  45    91  92  50   116 117  73    81  80  36    87  86  42   103 102  58   112 111  69   108 106  67    78  76  37    81  79  40    79  77  38    89  87  48    61  58  20    75  73  35    79  78  39    84  82  43    73  72  34    91  91  52   111 111  73   120 120  84   133 133  97   120 120  84   117 117  81   106 106  68    73  73  35    47  48   9    49  50  10    54  55  13    86  87  45    74  77  39    38  41  10    34  37  10    28  31   5  
  83  84  42    74  76  33    54  56  10    57  60  11    69  73  22    69  74  23    69  76  27    54  60  17    36  41   4    36  41   2    25  30   3    88  90  52   113 115  76    62  64  25   100 102  64    71  73  33    75  78  35    90  91  48   106 108  62    51  52   7    81  80  36    81  81  36   102 101  58   103 101  60    75  73  32    76  73  34    65  63  24    63  61  22    77  75  36    82  80  41    55  53  15    63  61  23    64  62  24    60  59  21    67  67  29    79  79  41    71  71  33    98  98  60   114 114  75   132 133  93   110 112  72   121 122  82   127 128  88   111 112  71    73  74  33    90  92  48    89  93  51    60  64  27    39  43   8    45  49  14  
  97  98  56    93  95  50    71  74  25    84  89  36    75  83  26    70  78  18    91 101  43    93 101  50    71  79  30    55  61  15    42  48   6    98 104  61    80  85  44    59  62  21    88  91  48    65  68  24    83  85  40   114 116  69    96  98  49    55  57   9    89  90  48    87  88  48    70  71  31    92  93  53    74  75  35    80  81  41    45  46   6    49  50  10    71  71  33    82  82  44    76  76  38    71  71  33    62  62  25    74  74  38    53  53  17    29  29   1    27  27   1    54  54  16    76  77  37    92  93  53    79  80  40    96  97  55   118 119  77   111 112  70   121 123  81   122 123  81   132 133  91   116 121  77    84  91  47    80  86  40  
  92  93  49   105 108  61   115 120  68   120 128  72    82  92  31    92 103  38    84  94  32   103 112  55    89  98  43    80  89  36    70  78  29    77  83  37    63  69  24    69  73  29    90  93  50    56  59  14    62  65  19    84  86  38    74  76  26    45  47   2    66  67  28    74  74  36    67  67  29    83  83  44    67  67  29    70  72  32    48  49   9    54  55  15    82  82  44    88  88  50    70  70  32    59  59  22    54  54  18    58  58  23    48  48  12    47  47  11    49  49  13    71  71  33    82  82  43    86  87  47    69  70  28    81  83  40    89  90  49    65  66  26    50  50  10    75  76  36    86  89  45   116 120  74   127 133  83   134 141  89  
  37  38   1    53  56  12    89  94  44   105 113  56   101 111  48   118 129  61   104 117  49    96 108  45    76  88  27    68  77  20    65  74  21    67  74  25    68  74  28    81  85  41    86  89  46    45  48   5    54  57  11    79  81  34    79  81  33    56  57  13    49  51  14    57  58  26    57  58  24    61  63  27    55  58  20    61  63  24    58  60  21    64  66  27    89  91  52    82  84  45    54  56  19    43  45   8    48  50  14    48  50  17    42  43  11    45  46  14    42  44   8    62  64  27    78  80  42    85  87  48    46  48   8    90  92  52    98 100  60    70  72  33    58  60  21    62  64  25    83  86  44   101 104  57    83  87  36    66  71  15  
  45  47  10    43  46   5    58  65  17    67  76  21   110 122  61    89 101  34    99 112  44    93 105  39    98 110  45   111 123  62   104 114  59    89  97  47    41  48   9    69  74  36    77  79  39    37  39   1    57  59  19    88  89  46    92  93  50    62  63  23    50  52  20    44  47  17    38  41  10    36  40   7    46  50  15    53  57  20    67  72  32    72  77  37    81  86  46    62  67  27    37  42   4    35  38   1    46  50  14    46  49  17    40  43  12    38  41  10    27  31   1    47  51  15    68  72  35    77  82  42    65  70  30    92  97  57   117 121  83    52  56  20    66  71  35    46  50  15    58  61  22    83  86  41    81  85  35    71  76  21  
  37  38   7    35  37   4    42  48   8    49  57   8   113 123  66    86  99  36    91 106  41    94 109  42    91 106  40    97 109  48    95 104  52    83  90  43    27  33   3    36  40  10    67  72  35    67  69  34    59  60  24    46  46   9    70  69  31    83  83  48    50  53  27    34  37  12    23  26   3    23  26   1    42  45  14    45  49  14    63  66  29    71  75  38    67  72  33    48  53  13    40  44   7    40  44   8    45  49  15    41  44  14    39  42  14    43  46  19    36  39   9    50  54  22    59  63  29    58  62  25    58  62  25    94  98  61   171 175 139    62  66  37    36  39   7    49  54  20    60  63  27    89  91  53    81  83  39    83  87  37  
  28  28   4    28  32   4    32  38   2    35  43   1    78  88  36    96 110  51    80  94  31    88 103  36    85 100  34    78  92  33    93 103  51    79  88  42    34  40   1    37  42   8    47  51  18    41  42  11    42  43  12    45  44  13    79  76  44    76  74  44    41  43  21    25  29   7    17  21   1    22  26   2    38  43  13    37  43   8    48  54  17    60  66  28    59  65  26    51  58  17    57  63  25    51  57  20    38  44   9    33  38   9    33  37  12    40  44  19    35  39  11    44  49  18    46  52  19    45  51  15    43  49  13    47  53  17    79  85  50    45  51  18    18  23   1    35  40  10    57  62  30    83  86  51    64  66  25    83  86  40  
  30  28  13    27  30   9    28  33   6    38  45   7    62  71  25    86  99  44    78  92  32    69  85  20    72  87  24    56  71  11    72  82  30    81  89  46    33  39   5    29  33   4    32  35   8    26  26   2    34  33   9    50  48  23    88  85  58    69  67  42    26  29  10    23  28  10    19  24   3    26  32   7    32  39  11    38  45  12    43  51  16    53  61  23    62  69  30    63  71  32    72  80  41    59  67  28    36  43   8    30  36   8    29  34  11    38  43  20    32  38  10    35  42  10    40  47  14    50  57  23    32  39   5    45  52  18    34  41   7    41  48  16    19  25   2     8  14   1    36  40  12    52  54  24    48  50  13    67  70  28  
  25  26  12    23  24   6    24  29   3    47  53  19    64  71  29    38  47   3    65  76  21    57  71   9    69  81  19    53  64   4    67  78  21   132 141  90    81  89  45    37  42   7    32  35   5    28  28   3    34  33   9    45  43  19    77  74  49    46  44  21    22  23   7    28  30  16    24  28  10    29  34  12    30  36  10    46  53  22    50  57  23    53  61  23    67  75  36    71  79  40    79  87  46    61  69  29    38  46   8    28  35   4    30  36  10    50  56  29    47  53  24    44  51  18    45  52  18    58  64  31    52  59  25    56  63  30    52  59  27    23  29   4    31  37  12    31  36  13    41  44  22    54  56  32    36  40   9    53  55  16  
  23  24   8    23  24   6    28  30   7    44  47  18    45  49  15    33  38   1    36  42   1    65  73  19    92 102  41    60  71   4    63  75   8   133 142  73   106 115  53    90  95  44    49  52  12    25  26   2    46  46  19    58  58  32    87  88  58    47  47  20    14  12   2    27  27  15    16  18   3    35  40  21    27  32  10    31  40  11    43  52  20    46  56  20    58  69  30    73  84  43    72  81  38    74  82  39    51  58  15    38  43   9    32  37   7    53  59  26    57  63  28    51  57  20    47  53  15    48  54  16    51  57  19    60  66  31    52  57  27    36  40  14    27  30   8    22  25   7    47  50  33    49  52  33    33  36   7    34  39   1  
  26  27   9    26  28   7    36  38  15    55  58  30    45  46  14    31  34   1    47  51   6    62  70  16    97 105  43    94 104  32    86  98  18   114 126  45   109 120  46   111 117  56    53  56   8    44  46   8    63  64  32    78  79  48    70  71  40    43  43  14    28  27   9    26  25  12    25  27  12    28  32  13    26  31   8    32  41  11    37  47  13    52  64  27    61  72  31    92 103  60    63  72  27    72  81  35    53  60  16    35  41   5    40  45  13    60  66  32    50  56  19    48  55  15    53  60  19    49  56  15    75  80  43    80  86  51    67  71  42    38  42  18    19  22   1    14  17   2    40  42  28    45  48  31    30  35   6    36  43   2  
  20  24   1    24  28   5    33  37  10    54  57  25    47  51  16    34  39   1    49  55   7    65  73  14    89  99  30    99 109  32    94 106  21   107 118  35   125 134  57   125 132  67    65  70  18    76  79  37    71  72  36    86  87  53    53  55  19    39  40   8    19  17   1    18  17   2    22  24   4    18  22   1    30  35   8    30  39   8    35  46  10    41  53  13    63  74  31   116 128  83    88  97  52    82  91  44    56  64  19    36  43   6    49  54  24    66  71  39    43  49  15    46  52  15    62  68  30    57  63  25    84  89  54    80  85  52    65  70  40    38  42  16    20  23   2    10  13   1    29  31  17    43  46  29    31  36   8    32  39   1  
  20  25   1    25  30   1    34  39   6    47  53  17    63  67  30    61  66  24    69  76  24   116 125  61   117 127  53   108 120  38   111 124  37   122 134  47   129 137  57   128 136  65    94  99  40   108 112  63    63  65  25    64  66  28    42  44  10    29  30   1    32  32   7    46  46  25    33  36  14    18  24   1    28  35   3    15  25   1    36  48   7    45  58  15    71  83  38   118 130  82   114 123  76    83  91  44    52  60  15    42  48  13    51  55  27    65  70  40    41  46  13    43  49  14    62  69  32    63  69  31    66  71  36    52  58  25    46  51  20    33  38  11    26  30   7    16  19   1    25  28  11    47  50  31    36  40  12    24  31   1  
  33  41   3    28  36   3    50  58  19    55  63  23    67  74  33    88  95  51    95 103  47   130 139  70   123 131  54   117 126  43   131 141  54   141 151  62   135 144  60   135 143  68   113 119  56   109 114  60    58  61  15    44  46   5    46  48   8    36  38   1    49  49  21    68  69  42    57  60  30    36  41   6    43  51  12    39  50   7    62  75  28    68  82  33    79  92  43   102 114  66   103 112  65    68  77  30    43  50   6    45  51  17    45  49  24    56  60  32    39  44  13    36  42   9    50  56  20    58  64  28    45  51  17    36  42   8    42  47  16    33  38  11    28  32   9    23  27   4    30  33  13    50  54  35    39  44  15    26  33   1  
  46  58  13    28  37   4    64  73  30    68  77  32    49  58  13    84  92  44   111 119  62   109 117  46    93 101  24   103 112  29   122 132  45   137 147  59   154 163  79   134 142  65    98 105  37    84  89  31    61  65  16    52  55  11    69  72  31    72  74  36    49  50  18    58  60  27    66  71  34    48  56  15    60  69  24    78  90  40    75  88  35    63  77  24    73  87  34    99 112  61    85  95  45    71  80  33    44  51   7    42  47  16    36  40  17    43  47  22    36  40  12    31  36   5    37  43  10    46  52  18    40  46  12    42  48  14    59  64  33    42  46  18    26  30   5    25  28   4    35  40  17    48  53  32    39  44  15    37  43   5  
  61  74  22    35  47   1    63  75  25    76  86  38    41  51   4    62  72  22   114 123  64   117 123  53    90  97  20    99 106  26   106 114  31   126 134  49   151 159  78   116 124  49    93 100  33    85  89  32    64  67  18    63  66  23    75  77  38    87  89  52    59  62  24    58  61  23    64  70  28    64  71  23    69  79  27    81  94  40    62  75  19    54  69  12    69  83  27   100 113  59    79  89  39    86  94  48    54  61  20    37  41  13    28  31  10    37  40  19    36  40  15    38  42  14    42  47  17    44  49  17    42  47  15    44  49  17    68  73  42    53  57  29    34  38  11    27  31   4    32  36  12    44  49  26    42  49  19    44  52  13  
  77  90  32    53  66  11    62  75  21    85  96  44    56  66  15    53  63  12    99 107  49    98 104  36    78  84  11    90  97  20    97 104  26   120 128  49   132 139  62   103 111  37   116 123  56   115 121  62    62  66  17    59  61  19    55  57  19    64  66  29    55  57  18    58  61  19    53  60  14    82  92  40    91 102  46    87 101  42    71  86  24    71  87  25    77  92  32    91 104  49    71  81  30    89  97  51    61  68  28    33  38  10    24  27   7    36  39  18    38  41  19    49  53  27    56  60  33    50  55  25    40  45  15    34  39   8    62  67  36    59  64  34    47  51  23    31  36   9    23  28   5    39  45  20    46  53  23    43  51  15  
  82  96  34    69  83  25    60  74  21    91 102  49    60  70  19    40  50   5    95 102  47    98 101  38    79  81  15    86  89  23   116 119  50   123 126  57   128 134  64   109 115  47    96 101  37   128 133  75    68  71  25    40  43   6    43  46  12    60  64  31    60  62  23    66  70  28    59  66  17    64  72  19    69  79  20   101 115  53   110 125  60    91 107  43    67  82  20    67  80  23    88  98  49    81  89  45    62  69  31    31  35   9    29  32  15    29  32  13    34  37  16    50  54  30    65  69  44    36  40  13    35  40  12    50  55  25    71  76  46    69  74  44    63  68  38    27  31   4    39  44  17    45  51  25    37  44  14    51  58  24  
  74  88  22    88 102  41    66  80  21    72  83  29    68  78  27    66  75  27    85  91  38    93  95  36    72  73  13    84  85  25   110 111  51    93  96  33   126 131  66   107 112  46   110 115  51    79  84  26    66  70  21    59  62  21    53  56  23    54  57  26    50  52  14    58  61  19    63  70  21    57  67  11    92 104  42   139 154  89   103 119  52    72  88  22    55  70   8    54  67  11    80  89  40    74  83  39    54  60  23    28  32   6    28  31  14    27  30  11    33  36  17    49  52  30    55  58  34    31  35  10    26  30   3    34  38  12    46  50  22    49  54  24    70  74  47    42  46  19    38  42  15    51  57  29    47  54  24    46  53  20  
  95 107  42   112 124  61    73  84  26    49  59   6    56  66  16    77  84  40    77  81  33    99  99  45    85  84  29    82  81  27   110 109  55    83  82  27    98  99  40   110 114  51    88  92  31    93  99  40   118 124  72    50  55  13    47  51  18    32  35   4    44  45  11    51  54  13    57  63  16    57  65  10    95 107  46   129 144  77    88 104  35    65  82  13    64  79  16    55  68  12    72  82  33    61  69  28    39  44   9    25  29   3    26  29  10    22  25   6    33  36  16    51  54  33    41  45  22    24  28   5    18  22   1    19  23   2    20  24   3    29  33  11    76  80  54    56  61  34    33  38  11    53  60  31    52  61  30    36  46  12  
 108 120  54    98 109  47    63  74  20    40  51   1    45  54   6    84  91  49    95  97  52   114 111  61   106 104  55    75  73  25   106 104  56   105 104  54    84  85  29   116 120  58   110 115  51   111 117  55    94  99  48    40  45   4    47  51  16    43  46  15    38  39   6    44  47   9    45  52   7    76  86  32    93 105  44    90 105  37    91 107  38    76  93  24    85 100  37    71  84  30    76  85  39    52  60  20    27  32   1    24  29   4    24  27   8    18  20   1    33  36  16    57  60  39    35  38  16    20  24   1    18  22   1    16  20   1    14  18   1    22  26   5    69  73  48    56  60  35    27  34   6    53  62  31    52  61  30    34  42  11  
 126 136  73    98 107  48    69  78  23    46  55   4    41  48   3    69  74  34    80  81  39    93  90  42    92  89  41    65  61  16    74  71  26    95  93  44    80  80  24   138 142  80    94  99  33    75  81  15    81  88  29    49  56   9    65  69  32    54  57  25    27  28   1    37  39   6    46  51  11    96 104  54   101 112  53    81  96  31   108 123  56    78  95  28    81  96  35    76  89  35    88  97  53    61  68  31    29  34   5    27  31   8    23  26   5    14  17   1    33  36  15    63  66  45    35  38  18    20  23   2    24  27   7    22  25   4    23  26   4    26  30   7    48  52  29    39  43  20    26  31   6    59  68  35    51  60  28    39  48  17  
 103 113  50   101 110  50    83  92  37    56  63  15    61  66  25    69  73  36    74  75  34   101  97  51   114 110  62   122 118  73   100  97  53    97  95  45   101 102  45   144 148  83   108 114  44    79  85  16    73  80  18    54  61  11   101 106  64    49  53  20    28  28   1    36  38   6    53  58  20    82  91  42    91 102  44    82  97  32   102 117  50    66  82  16    52  67   6    67  80  27    95 104  60    75  82  45    44  48  19    31  35  11    20  24   2    15  18   1    30  33  12    62  65  44    37  40  19    23  26   5    29  32  11    30  33  12    29  32  11    30  34  12    27  31   8    22  26   3    28  35   7    61  70  38    47  57  25    44  53  22  
 103 111  51   130 137  80   107 114  62    54  58  13    59  61  22    47  48  14    54  53  13    94  89  43   115 109  62   140 132  88   122 118  73   115 114  64   110 111  52   111 116  48   114 120  46   102 110  35   104 111  43    96 104  46    58  64  17    49  54  18    39  39  12    39  40  12    53  58  21    59  66  20    65  76  19    73  88  23    96 111  44    61  78  14    37  52   1    65  78  25    88  97  54    71  78  44    60  64  36    36  40  16    19  23   2    22  24   4    26  29   8    53  56  35    35  38  18    25  28   9    35  38  19    39  42  23    29  32  13    32  35  14    22  25   4    18  21   1    37  42  15    51  59  27    36  45  13    38  47  18  
 104 112  49   145 154  92   118 125  69    46  51  13    49  51  13    32  33   1    49  48  12    75  72  29    89  85  40    97  92  47   117 115  66   151 150  97   126 129  67   103 108  38    75  83   8   109 117  45    91 101  34   109 116  60    50  57  12    40  44   9    42  45  18    38  38  12    48  52  18    51  57  16    53  62  13    73  84  28   112 126  67    70  84  26    45  58   3    73  85  35    76  86  43    58  65  30    68  73  42    38  42  16    18  21   1    26  29   8    23  26   5    44  47  26    32  35  14    26  29   9    39  42  23    45  48  29    26  29  10    32  35  16    26  29  10    25  28   9    43  47  25    35  43  15    23  31   6    27  35  11  
 115 124  59   152 162  93   133 142  76    52  60  14    31  36   1    34  37  10    31  31   4    57  55  22    74  74  36    71  73  29    86  88  37   126 130  71   140 146  80   103 110  43    75  84  15    89  98  32    92 100  41    66  74  23    57  64  22    40  44  10    39  42  15    37  40  15    42  45  16    37  41   8    41  47  11    79  85  47    94 103  61    61  70  27    54  63  20    58  67  24    61  69  29    77  85  46    74  81  45    46  50  21    29  33   9    22  26   3    33  37  14    58  61  39    44  47  26    34  37  16    29  32  13    27  30  12    23  25  10    32  34  20    32  34  20    24  26  13    29  31  17    29  31  17    33  35  21    39  43  28  
 115 124  57   144 154  83   114 123  55    49  57   8    32  37   1    26  28   4    27  29   5    45  45  15    67  69  32    61  64  20    75  80  25   119 126  64   149 156  88   116 125  56    49  58   4    96 105  42   104 112  55    66  73  26    65  72  30    33  38   4    39  42  15    28  30   6    29  31   6    35  38  11    48  51  22    70  75  45    75  80  48    57  62  29    49  56  20    50  59  22    68  76  37    79  87  48    77  85  48    49  54  25    26  30   7    27  31   8    46  50  27    57  61  38    33  37  15    29  32  11    38  41  22    33  36  18    31  34  18    35  37  23    30  32  18    23  25  12    26  27  15    31  33  20    28  30  18    29  30  18  
 135 144  80   145 155  86   102 112  46    51  58   5    38  43   4    32  34  11    39  38  18    33  32   6    61  61  25    58  59  16    70  74  22    96 102  40   113 120  52    94 103  33    63  73   4    89  98  34    90  98  41    88  95  47    67  73  31    58  65  30    29  32   5    20  22   1    23  25   3    34  36  12    46  49  22    52  56  28    46  51  21    41  46  15    37  43  11    39  46  13    63  70  36    69  76  42    69  76  42    53  58  30    29  32  10    33  36  15    52  55  34    50  53  32    23  26   7    32  35  14    50  53  34    38  41  22    35  38  20    31  34  17    26  28  14    27  29  15    30  33  18    38  41  24    33  36  19    30  33  14  
 143 151  91   137 146  81    94 103  39    44  51   4    33  37   1    40  42  18    59  58  35    59  58  29    78  78  42    75  76  32    89  93  41   101 107  45   105 112  44    98 107  37    81  91  22   103 111  47    93 100  43    89  96  47    74  81  37    43  49  12    16  19   1    19  21   1    29  31   9    33  35  13    35  37  15    31  35  10    24  28   4    21  25   1    25  31   4    36  42  14    44  51  20    45  52  20    46  53  23    49  54  29    35  38  16    37  40  19    44  47  26    38  41  20    23  26   5    41  44  22    56  59  40    37  40  21    34  37  18    25  28   9    24  27   8    35  38  19    34  37  15    30  34  11    35  39  16    38  42  17  
 129 134  78   122 128  67   101 106  46    51  54   8    36  38   1    53  53  29    67  66  43    61  60  31    60  60  24    46  47   4    58  60  10    82  85  26   105 112  46    88  95  25    86  93  25    89  98  32    97 105  47    99 106  55    72  78  33    52  56  19    22  24   1    23  24   6    30  31  12    30  32  11    25  27   6    20  23   3    15  18   1    11  15   1    25  30  10    45  50  27    27  32   9    24  29   6    26  31   8    36  40  19    36  40  22    39  42  25    33  36  17    31  34  15    28  31  12    43  46  27    53  56  35    37  40  19    37  40  18    31  35  12    29  33  10    37  40  15    33  36   9    29  32   3    47  52  21    55  61  27  
  87  91  39    91  96  40    95 100  44    57  61  14    40  42   7    48  48  22    59  59  33    71  70  41    68  68  32    54  55  12    49  51   1    77  81  22   119 126  60   106 113  43   104 111  43    67  76  10    82  90  29    86  93  39    48  55   7    71  75  37    39  41  18    23  24   6    23  24   6    29  30  12    27  28  12    20  23   6    15  18   1    12  15   1    30  35  18    56  61  41    25  30  10    16  21   2    17  22   4    22  25   8    29  32  14    38  41  24    28  31  13    29  32  13    31  35  16    36  39  20    49  52  31    41  46  22    46  50  26    48  52  26    43  48  19    38  43  13    35  40   5    37  42   3    52  58  18    57  64  23  
  54  56   7    68  70  20    77  79  30    58  59  15    44  44   9    31  29   4    41  38  14    68  64  35    70  69  33    72  73  30    63  65  15    90  94  35   132 137  72   119 126  58    63  70   5    64  71   4    76  82  22    62  70  15    82  88  39    90  95  54    42  44  23    21  22   8    26  27  13    38  39  25    33  34  20    19  21   7    14  16   2    12  14   1    28  32  18    51  55  40    29  33  19    15  19   5    15  19   5    15  18   4    18  20   6    30  32  18    23  25  10    26  29  12    28  31  13    31  34  13    50  54  30    48  52  26    51  56  27    62  67  36    61  67  33    50  56  19    53  59  17    56  62  17    45  51   5    44  50   2  
  66  67  23    81  83  36    82  83  38    76  77  36    67  67  32    40  39  11    41  39  10    46  43  13    47  46  10    66  67  24    71  73  22   109 113  56   151 155  92   112 118  51    59  66   4    77  83  19    74  81  22    73  80  26    91  98  47    87  92  51    31  33  12    20  21   7    37  38  24    50  51  37    35  35  23    17  19   7    12  14   2     9  11   1    20  24  11    39  42  31    31  34  23    13  16   5    13  16   5    15  18   6    11  13   1    21  23   9    18  20   5    20  23   6    25  28   9    31  34  13    55  59  35    52  56  28    50  55  23    68  74  38    74  81  40    65  72  30    81  88  42    96 103  52    60  67  15    52  59   7  
