P3
50 50
255
  39  47  31    35  42  26    35  42  26    45  50  34    43  46  31    27  31  16    26  30  15    39  43  27    41  46  28    40  44  27    65  70  50    81  86  65    55  60  38    34  39  17    17  22   1    16  21   1    27  32  11    56  61  42    50  54  38    24  28  13    19  23   9    14  17   7    23  26  18    25  28  21    18  21  15    15  18   8    22  25  15    27  30  19    29  33  20    43  48  33    65  70  54    39  43  26    30  34  18    29  33  18    41  44  29    59  63  46    38  42  25    34  38  21    17  21   6     1   5   1    21  26   6    35  40  20    34  39  19    19  26   6    15  24   1    32  42  16    22  32   4    41  52  21    39  51  17    37  49  14  
  29  36  20    28  35  19    28  35  19    28  33  18    36  40  26    32  37  22    32  36  22    44  48  33    44  48  32    42  46  29    70  75  55    85  90  70    55  60  38    37  42  20    27  32  10    30  35  13    38  43  22    47  52  33    47  51  36    39  43  29    17  19   9    16  19  11    19  22  15    21  24  17    23  26  19    19  22  14    17  20  10    18  21  10    26  30  17    46  50  36    70  74  60    41  45  30    33  37  22    32  36  21    25  30  15    45  49  32    70  74  56    47  51  34    29  33  14     7  12   1    25  30  10    35  40  20    32  37  16    36  43  20    34  44  19    65  75  48    34  45  15    53  64  32    68  79  44    38  50  14  
  25  31  17    28  34  19    25  32  17    27  31  19    36  39  28    33  36  24    33  38  23    39  43  29    32  36  19    31  35  18    38  43  23    53  58  37    45  50  28    43  48  25    53  58  35    70  75  52    62  67  45    46  50  32    41  45  29    35  39  24    19  23  10    18  22  11    19  22  14    17  19  13    23  26  19    24  27  19    22  26  16    25  28  17    29  32  19    37  41  27    37  40  27    43  47  33    35  39  25    27  31  17    18  22   7    28  32  15   103 107  89    98 103  83    75  80  58    37  42  20    13  18   1    54  59  36   106 113  89   105 114  90    98 108  82   104 114  86    64  75  44    71  82  49    91 102  67    55  67  29  
  25  32  20    29  35  23    25  31  17    26  30  18    27  30  19    21  24  13    35  39  25    50  54  40    45  49  33    51  55  38    36  41  21    45  50  29    47  52  30    43  48  26    54  59  36    73  78  55    55  60  39    56  60  43    39  43  28    20  24  10    25  28  17    16  19  10    18  21  13    16  19  12    22  25  18    27  30  23    31  34  24    37  41  28    34  38  23    27  31  17    34  38  27    27  30  21    27  31  18     5   9   1    19  23   9    19  23   8    52  56  38    96 101  80   114 119  97    68  73  50    30  35  13    26  32  14    87  94  68    90 100  73    90 101  71    68  78  48    51  62  30    67  78  43    87  99  62    78  90  52  
  25  28  19    35  38  28    31  34  23    37  41  28    40  44  30    36  39  25    33  37  22    36  40  24    36  40  22    31  36  16    41  46  26    53  58  37    67  72  50    66  71  48    53  58  35    76  81  58    46  50  30    32  34  19    27  29  15    24  26  13    21  23  12    14  15   7    17  18  10    19  20  12    13  14   6    42  44  33    39  41  28    25  27  12    26  29  11    20  25   9    22  28  18    20  27  18    11  19   8    11  19   6    10  18   3    12  21   4    14  23   6    56  66  43   104 114  90    83  93  67    51  62  32    38  49  18    45  56  24    76  87  55    56  67  35    50  61  29    62  72  38    47  57  21    36  46   9    76  87  48  
  24  27  20    28  31  24    24  27  17    35  39  26    40  44  29    33  37  22    29  33  18    31  35  19    33  37  20    31  36  16    69  74  54    70  75  55    65  70  49    58  63  41    45  50  28    66  71  49    48  52  32    41  43  28    32  34  21    25  26  15    20  21  13    13  14   6    16  17   9    22  23  15    12  13   5    25  28  16    30  33  19    36  39  21    40  42  23    33  37  20    23  30  20    23  30  22    14  22  12     9  18   5     7  15   1    15  24   6    18  28   8    11  21   1    56  66  41    72  83  53    92 103  71    60  70  38    19  30   1    43  54  25    84  95  63   126 137 103    60  71  37    63  73  37    44  54  17    52  63  24  
  27  29  23    23  26  18    20  23  13    30  34  21    35  39  25    30  34  20    25  29  14    26  30  15    31  35  20    35  39  22    56  60  43    56  61  41    42  47  27    43  48  28    40  45  23    58  63  42    52  56  37    46  48  33    34  36  23    25  28  16    21  22  14    14  15   8    17  18  12    25  27  20    16  17   9    16  18   7    21  24  10    38  40  26    44  47  31    49  53  38    39  45  33    36  44  33    44  52  40    35  43  29    10  19   2    15  24   5    10  19   1    20  30   6    45  55  29    95 106  77    66  77  44    51  63  29    36  47  13    39  50  18    56  67  35   111 122  89    94 104  70   104 114  78    51  61  24    50  60  23  
  31  34  27    24  27  19    21  24  15    24  27  16    29  32  19    29  33  19    25  30  15    28  32  17    34  38  23    39  44  29    27  31  16    31  35  19    21  25   8    33  37  20    39  43  26    49  53  36    48  52  36    42  44  30    31  33  21    24  26  15    23  24  16    18  19  12    20  21  15    26  27  21    25  26  20    22  23  15    16  18   7    26  28  16    31  33  20    53  57  42    57  63  49    43  51  36    65  73  58    77  85  69    34  43  24    41  50  29    13  23   1    19  29   3     6  14   1    73  84  54    76  87  53    93 105  69   106 118  82    57  68  35    19  30   1    21  33   6    91 102  69    87  97  62    44  54  19    63  73  36  
  32  35  26    26  29  20    24  27  18    22  25  14    27  30  19    33  36  24    31  35  21    31  35  21    34  38  24    37  41  27    30  34  20    31  35  20    19  23   7    28  32  15    34  38  21    34  38  21    38  42  27    39  41  27    28  30  18    23  25  14    25  27  19    21  22  14    21  22  16    25  26  21    27  28  22    23  24  18    14  15   7    18  19  10    19  20  10    45  49  35    51  58  42    39  48  30    44  53  34   101 110  89    67  77  53    78  88  63    60  71  43    47  58  27    26  37   5    38  49  15    95 107  71    80  92  54    78  90  53    50  61  28    43  54  24    32  43  11    98 109  76    78  88  53    58  68  33    52  62  27  
  28  31  22    27  30  21    25  28  19    25  28  18    32  35  24    38  41  30    37  40  29    33  37  24    31  35  21    29  33  19    33  37  23    28  32  18    15  19   5    19  22   9    27  31  17    26  30  16    36  40  26    44  46  33    30  33  21    24  26  15    27  27  19    21  22  15    20  21  15    24  25  20    19  20  15    15  16  10    12  13   7    19  20  12    16  17   9    33  36  25    33  40  22    39  48  26    25  35  11   104 114  90    78  88  63    76  86  58    83  95  64    75  86  53    72  82  49    28  40   5    48  60  22    48  61  22    48  60  23    70  81  48    46  57  27    27  38   8    59  70  38    60  69  37    51  61  27    38  48  13  
  25  29  18    32  35  24    28  31  20    28  31  22    35  38  29    40  43  34    38  41  30    34  37  26    29  32  21    24  27  16    25  28  17    18  21  10    12  15   4    12  16   3    24  28  14    25  29  15    37  41  27    52  56  42    33  36  24    23  26  15    26  29  20    23  26  18    24  27  20    22  25  18     9  12   5    10  13   6    13  16   9    19  22  15    18  21  14    29  33  22    28  36  15    37  47  22    28  38  12    73  83  56    57  68  38    61  72  42    64  75  43    47  58  23    45  57  21    17  29   2    28  40   6    83  95  55    86  98  60    91 102  69    28  39   9    20  31   3    56  66  35    70  80  47    44  54  21    48  58  23  
  26  29  18    36  39  28    31  34  23    29  32  23    34  37  29    38  41  32    36  39  30    34  37  26    30  33  22    25  28  17    29  32  21    22  25  14    21  24  13    17  20   9    24  27  16    22  25  14    33  36  24    57  61  47    35  38  26    23  25  15    27  30  19    28  31  22    32  35  26    22  25  16     6   9   1    13  16   7    15  18  11    16  19  12    19  22  15    33  36  23    35  43  20    24  35   5    30  41  11    27  38   8    32  42  11    70  81  49    68  79  45    66  78  42    71  83  46    37  49  11    42  54  14    54  66  26    45  57  18    55  66  32    31  41  13    21  32   2    38  49  18    46  55  24    35  45  12    70  80  46  
  21  24  13    31  33  22    31  34  23    39  42  31    43  46  35    32  35  24    36  39  29    44  47  38    30  33  24    26  29  20    25  28  19    22  25  16    14  17   8    20  23  14    33  36  27    25  28  18    20  23  11    35  39  25    34  38  24    26  30  16    30  34  20    30  33  22    26  29  18    23  26  15    18  20  10    20  23  12    15  18   7    38  41  31    55  58  49    42  48  35    57  67  40    46  57  25    43  54  22    46  57  26    33  44  11    59  70  36    77  88  53    80  92  55   133 145 106    99 112  74    47  59  19    46  58  18    43  55  16    32  43  10    31  42  12    29  40   8    32  42  10    44  54  20    32  42   8    56  66  32  
  23  25  15    33  36  25    41  44  33    33  36  25    29  32  21    41  44  33    52  55  45    48  51  42    43  46  37    40  43  34    27  30  21    26  29  20    20  23  14    22  25  16    27  29  21    21  24  15    16  19   7    23  27  13    30  34  20    32  37  22    52  56  41    37  41  26    37  41  26    36  40  25     6  10   2     6  10   2    24  28  14    24  28  14    46  50  38    77  83  66    92 103  73    79  90  56    70  81  47    61  73  39    55  67  31    77  89  53    72  84  47    54  66  28    82  94  56    86  98  60    99 111  71    45  57  17    51  63  24    42  53  18    44  55  23    42  53  22    23  34   3    43  53  19    51  61  27    81  91  58  
  23  27  13    27  31  18    31  34  23    26  30  16    31  35  21    24  28  14    40  44  31    51  54  43    29  32  21    34  37  26    25  28  17    26  29  19    25  28  19    24  27  18    19  22  13    19  22  12    21  25  13    12  18   3    13  20   4    38  45  27    74  81  63    70  77  58    67  75  54    35  42  20    42  50  27    18  26   4    10  18   1    12  20   1    36  43  25    85  93  71    63  74  42    72  84  48    70  82  45    62  74  36    46  58  20    49  61  23    47  59  21    48  60  22    75  87  49   102 114  76    94 106  68    82  94  56    65  77  39    59  70  35    63  74  40    31  42   8    42  53  18    89  99  64    81  91  56    53  63  28  
  34  39  24    30  34  20    22  25  14    19  22   9    11  15   1    35  39  25    47  51  37    28  32  19    25  28  17    20  23  13    19  22  11    21  25  14    24  27  18    23  26  17    14  17   8    18  21  12    28  32  20    22  29  14    27  34  16    23  30  10    53  61  40   119 127 104    96 104  80    59  68  42    80  89  62    32  41  14    13  22   1    21  29   4    46  54  30    55  64  37    48  59  24    58  70  34   102 114  76    85  97  59    56  68  30    61  73  35    33  46   7    50  62  24    59  71  33   114 126  88    66  78  40    75  87  49    49  61  24    61  72  37    63  75  40    95 106  72    65  76  41    97 107  72    77  87  52    35  45  10  
  46  50  35    36  40  25    26  30  16    21  25  10    26  30  15    30  34  19    54  58  43    62  66  52    29  33  19    20  24  10    19  22  11    20  23  12    22  25  14    20  23  13    11  14   5    17  20  11    39  43  30    37  44  27    20  27   7    22  29   9    24  33   8    66  75  48    81  90  61    90  99  69    66  75  42    19  29   1    19  29   1    16  26   1    50  59  29    34  43  12    41  53  17    79  91  53    87  99  61    92 104  66    74  86  48    45  57  19    28  40   3    54  66  30    50  62  26    64  76  40    77  89  53    77  89  53    40  52  16    57  69  33    66  78  40   116 128  90    77  89  51    74  84  46    60  71  31    46  56  19  
  41  45  30    28  32  18    22  26  12    21  25  11    14  18   3    41  45  30    54  58  43    48  52  37    60  64  50    58  62  48    27  30  19    24  27  16    22  25  14    20  22  13    13  15   7    17  20  11    33  37  24    39  46  29    36  44  24    33  41  18    30  39  11    49  57  28   100 110  77    86  96  61    89  99  62    54  64  27    20  30   1    24  34   3    64  74  38    83  93  58    81  93  55   110 122  84    73  85  47    82  94  56    92 104  66    56  68  30    37  49  12    51  63  27    48  60  24    19  31   2    95 107  71    93 105  69    53  65  29    52  64  27    60  72  34    58  70  32    84  95  57    78  89  49    65  76  36    39  50  10  
  41  45  30    42  45  31    34  38  24    51  55  40    59  63  46    48  52  35    37  41  24    34  38  21    31  35  20    35  39  24    35  39  25    28  32  19    21  24  13    21  24  13    22  25  14    25  28  16    35  40  25    41  48  31    37  45  25    47  55  31    40  49  20    26  36   5    70  80  44    76  87  48   112 123  83    92 103  61    41  52  10    61  72  30   101 112  71   125 136  96   107 119  81    72  84  46    73  85  47    55  67  29    66  78  40    86  98  62    42  54  18    58  70  34    50  61  27    34  45  11    94 105  71    66  77  43    46  58  23    42  54  17    38  50  10    50  62  22    73  85  45    76  87  45    77  88  46    42  53  11  
  58  63  44    82  86  69    74  78  61    46  51  32    46  51  29    62  67  47    49  53  34    31  35  18    36  40  25    34  38  24    38  42  29    30  32  22    19  24  12    22  28  15    29  35  23    31  37  23    33  40  22    36  46  19    50  61  31    55  66  34    67  78  44    97 109  73    95 107  68   106 119  77    56  69  26    53  66  22    58  72  28    76  89  45   114 126  85    88 100  60    79  91  53    57  69  31    50  62  25    63  75  39    50  62  26    54  66  29    65  77  41    95 107  71   111 123  87    53  65  29    80  92  57    64  76  40    35  47  11    43  55  18    41  52  15    44  54  17    64  75  35    67  78  37    86  97  54    55  66  23  
  52  57  34    60  65  42    59  64  40    34  39  12    23  29   1    38  47  21    50  58  36    46  54  35    33  39  25    42  48  35    27  33  23    33  41  30    17  25  13    27  35  22    26  34  19    24  33  16    43  56  25    43  59  13    98 114  68   112 127  84    51  66  25   111 126  86    80  95  54    83  98  56    46  62  17    51  67  20    58  73  29    63  78  36    74  89  49    91 105  68   105 116  80    55  67  31    40  52  16    52  64  28    34  45  11    44  55  21    60  71  37    95 107  72    80  92  56    39  51  13    80  92  53    71  83  43    38  50  10    35  46   8    46  56  21    35  44  10    75  82  46    72  80  40    70  79  33    81  91  39  
  50  56  30    46  52  24    55  61  33    39  45  17    34  40  14    28  36  12    32  39  17    50  58  38    41  48  31    45  51  37    42  50  37    29  38  23    29  38  22     6  16   4    18  30   9    30  42  17    46  61  23   110 129  74   118 138  81    90 108  60    67  84  40    82 100  57    74  91  49    65  82  39    52  69  24    66  84  36    52  69  24    66  82  41    63  79  41    74  88  53    82  94  58    61  72  38    43  54  20    32  43   9    21  32   1    33  44  12    71  82  50    91 102  69    90 102  66    55  67  29    41  53  15    56  69  28    38  50   9    39  47  12    43  50  17    38  45  12    83  90  55    96 104  64    47  57  13    58  68  16  
  54  59  36    37  43  17    39  45  20    35  40  18    36  41  20    30  39  17    34  42  22    58  65  47    48  56  36    36  45  23    28  38  14    32  42  18    28  38  12    35  47  18    31  45  13    55  69  36    78  94  49   136 155 101    94 113  60    76  93  47    79  96  54    62  78  39    58  75  34    61  78  35    66  83  38   112 130  83    79  96  52    71  88  45    53  70  30    58  73  36    59  70  36    75  85  51    64  74  41    39  48  17    34  43  14    24  33   4    59  68  37    85  94  62    99 109  75    63  73  38    61  71  33    47  58  18    42  53  12    42  51  13    41  48  14    48  55  21    83  91  53   154 162 121   113 123  75    76  86  33  
  49  54  31    41  46  22    32  37  15    27  31  14    17  21   7    27  34  18    40  47  29    54  61  41    55  63  40    57  65  37    50  61  28    38  49  14    70  82  45   103 117  77   114 129  88    85 100  57   118 135  86   132 151  96   108 127  75    63  80  36    67  83  44    71  87  50    53  69  31    57  74  32    45  62  17   128 146  98    99 117  70    68  85  41    52  68  28    56  70  34    56  66  33    76  85  54    70  79  49    48  57  28    51  60  33    22  31   4    39  48  19    69  78  48    85  94  64    75  85  52   103 113  78    57  67  29    53  64  24    47  56  18    48  56  19    63  71  34    46  54  16    78  86  45    81  91  43    65  75  22  
  42  47  25    42  47  25    43  47  28    45  48  37    35  38  31    38  44  32    55  62  45    66  74  50    75  85  53   122 132  95   106 119  76    54  68  21    64  78  29    96 112  61   108 125  73   144 161 109   117 134  81   100 117  64    97 113  64    66  82  38    73  87  49    52  66  30    66  80  44   105 119  80    79  95  50   140 156 109   103 119  73    76  92  48    57  72  30    54  68  31    60  69  38    63  69  41    55  61  34    40  46  20    47  53  27    24  30   4    42  48  22    52  58  31    61  68  38    85  92  59    88  96  61    70  78  41    57  65  27    75  83  44    77  85  46    61  69  30    53  61  21    42  51   9    72  82  34   131 141  88  
  50  55  33    39  44  24    43  47  30    38  41  32    37  39  34    30  36  24    39  46  26    51  60  31    46  57  18   103 115  70   146 160 107   108 123  68    96 111  54    94 111  54   125 143  85   105 122  67    90 107  52    89 105  54    80  96  50    77  92  51    67  81  45    55  69  36    52  66  32    86 101  63    89 104  61   103 119  74    63  79  33    73  89  44    59  75  31    63  75  36    50  59  30    48  54  28    50  56  31    43  48  25    42  47  24    31  36  14    47  52  29    48  54  28    46  52  25    56  63  32    50  57  24    66  73  38    49  57  19    83  92  51   103 111  70    46  54  13    49  57  16    51  60  18    84  94  46   147 157 104  
  48  53  33    35  39  22    32  36  20    33  36  26    36  39  32    40  47  32    40  49  23    60  70  35    68  80  33    79  92  36   116 132  70   145 161  98   123 139  76   134 151  89   141 159  99   126 143  86   123 140  86   119 136  84    62  79  32   103 118  78    69  84  49    38  52  19    42  56  22    81  95  57    99 114  73    97 113  68    60  76  29    68  84  38    61  76  32    81  94  55    43  49  21    37  41  18    47  51  28    51  55  31    49  52  31    46  49  28    44  48  24    51  55  29    50  55  26    31  36   4    45  51  17    61  67  33    58  65  26    55  63  21    84  93  48    48  57  14    47  56  13    48  57  13    72  81  35   103 113  61  
  25  29  12    31  35  18    29  33  17    33  36  24    23  27  14    44  53  31    41  50  19    77  88  45   131 143  90    97 110  49    77  94  26   113 130  62   133 150  83   117 134  71    97 115  57    69  86  31    74  91  37   108 125  74    48  63  18    66  80  43    46  60  27    26  40  10    77  90  60    84  98  64    68  83  44    90 105  62    73  89  42    57  73  27    62  77  33   103 115  77    46  52  24    26  30   7    28  32   9    38  42  20    49  52  31    59  62  41    40  44  21    47  51  25    53  58  29    44  49  17    55  61  27    68  73  37    83  90  50    63  72  26    48  57  10    33  42   3    72  81  37    61  70  26    50  59  12    42  52   1  
  40  44  27    48  52  37    39  43  28    38  42  25    34  38  19    34  43  15    46  56  19    79  91  43   134 148  89    99 114  47    98 115  45   119 136  67   128 144  79    76  93  34    63  80  25    54  69  21    78  94  44   105 119  69    73  86  41    38  50  14    29  39   8    32  42  15    58  68  40    40  51  19    23  35   1    59  72  29    92 105  61    57  70  26    81  94  50    55  65  28    35  42  11    35  39  15    48  52  29    36  40  17    50  54  31    47  51  27    42  46  21    38  42  16    51  56  26    47  53  19    47  53  17   107 113  74    93 100  57    90  99  49    65  75  23    48  58   8   120 129  82    87  96  51    40  49   5    44  54   4  
  45  49  34    43  47  32    49  53  37    42  47  26    53  59  33    61  71  37    65  76  34    81  94  42    81  94  34   127 142  76   165 182 112    97 114  47    81  97  34    82  98  41    46  62  12    67  84  39   116 131  85   106 120  71    48  61  16    39  51  15    36  47  17    71  81  56    34  44  18    21  32   1    19  30   1   114 126  87    94 107  64    61  74  31    72  85  42    53  63  26    44  51  20    34  38  13    23  27   3    29  33   9    37  42  17    30  34   9    44  48  21    38  43  12    36  42   8    40  46  10    49  55  16    95 102  61    98 106  61   132 142  91   120 131  75    84  94  42   105 114  66    87  96  51    66  75  28    47  57   8  
  40  44  27    38  42  25    54  59  40    79  84  60   103 110  79    82  92  56   105 117  73   102 115  64   110 123  64    99 113  51   130 146  81   114 129  67    84  99  40    64  80  27    45  61  13    50  65  22    70  85  39    53  67  18    58  71  27    55  67  31    47  58  29    72  82  57    37  47  22    36  47  18    13  25   2    66  78  39    56  67  27    78  90  50    68  80  40    41  51  14    19  26   1    38  44  15    47  53  25    39  45  17    42  49  18    52  59  27    36  43  10    50  58  22    43  51  12    46  54  13    53  62  19    80  89  41   108 118  67   154 165 109   118 129  71    79  89  36    85  95  44    56  65  19    44  53   7    58  68  18  
  32  36  19    37  41  24    50  55  35    75  81  56    86  92  62    92 102  66   121 132  90    89 101  53   110 123  70    90 104  46   101 116  57   158 173 114   118 132  77    61  76  26    73  89  42    79  95  50    51  67  20    41  55   4    95 108  62    65  77  40    79  90  60    50  60  36    29  39  15    21  31   5    23  34   3    25  37   3    77  89  51   114 126  88    68  80  42    53  63  26    90 100  66    72  79  46    56  63  30    77  84  51    55  62  29    33  40   7    30  37   3    62  70  32    50  58  18    45  54   9    62  71  24    69  79  28    74  85  31    68  79  20    71  82  22   102 113  57   114 124  74   105 114  68   115 124  78   121 130  83  
  41  46  26    37  42  22    44  49  28    37  42  19    51  57  29    93 102  71    65  75  39    92 103  60    88 100  52    85  98  45   152 167 112   123 138  83   135 149  95   137 153 101    53  69  20    58  74  27    78  93  43    87 101  48   134 146 100    92 103  65    73  82  53    24  32   8    14  22   1     9  17   1    34  43  15    29  39   6    98 108  73   114 124  88    62  72  35    59  69  34   129 139 104    76  86  51    55  65  30    42  52  17    55  65  28    98 109  71    82  93  53   126 137  95    92 103  58    50  62  12    72  85  32    84  98  41    76  90  30    38  50   3    44  56   1   107 118  60   135 145  93   112 122  73    98 107  61    91 100  53  
  59  64  44    38  43  23    42  47  25    41  46  23    36  41  19    65  74  47    60  70  39    69  79  44    46  56  16    80  92  47    72  86  37    85  99  47   115 129  76   128 144  90    80  97  43    68  85  31    99 112  58   116 129  74    98 111  63    82  93  55    31  40  12    37  45  22    29  37  16    20  28   5    32  41  14    63  72  41    79  89  55    65  75  40    36  46  11    43  53  18    91 101  64    61  72  32    53  64  24    53  64  24    38  49   9    88  99  59   140 151 109   137 148 104   147 159 110   109 122  70    97 110  54    84  98  38    78  92  31   106 119  54    91 103  38    93 104  44   121 131  79    92 101  53    78  87  41    95 104  57  
  54  59  37    41  46  24    44  49  27    52  56  37    42  46  29    27  35  14    43  52  26    49  59  27    49  59  23    33  44   4    69  82  38   109 123  74   105 119  67    93 109  54    86 104  47    64  82  24   103 120  60    77  91  34    84  96  46   103 114  73    40  49  20    44  52  30    32  40  19    34  42  19    43  52  25    97 106  74    72  82  48    33  43   9    22  32   1    38  48  13    92 104  64    62  75  32    61  74  31    55  68  25    41  54  10    58  71  27    96 110  63   103 117  67   131 146  92   113 128  71    87 103  41    64  80  17    88 104  38   134 147  79   139 151  85    91 102  42    84  95  41    84  93  45   100 109  63    96 105  58  
  35  40  20    44  49  28    46  51  30    39  44  26    34  38  21    46  50  32    40  45  24    41  48  23    38  47  18    65  75  41   132 143 103   133 147 101   108 122  71   113 129  75    76  94  35    49  67   8   122 139  79   105 119  64    83  97  47    66  78  34    53  63  28    47  56  26    34  42  17    79  87  63    66  73  49    45  54  27    35  44  15    35  44  12    36  46  11    39  49  13    70  81  41    49  62  19    44  57  14    55  68  25    41  54  10    57  70  24   140 154 107   114 128  77   108 123  69   113 128  71   126 141  79   109 125  62   130 146  82    94 109  43    91 103  39    63  74  15    96 106  54    90 100  51    81  91  45    68  77  32  
  37  41  24    38  42  25    47  51  35    48  51  31    43  45  25    28  30   9    36  40  17    39  44  20    61  67  41   141 150 121   128 138 104    93 106  66    88 102  56    62  79  26    81  99  39    90 110  47   140 159 100    89 106  53    98 114  63    66  83  31    39  55   6    48  61  18    57  69  32   100 110  80    59  67  44    36  44  21    46  54  28    31  38   7    27  35   1    38  48   6    62  73  33    61  71  34    44  54  16    52  63  22    60  72  29    49  62  16   102 116  66   128 142  90    79  95  41   122 140  82   105 123  65    98 116  56   136 153  92   126 141  80    69  80  20    47  57   7   113 123  71    81  90  42    83  90  45    68  75  32  
  26  30  15    29  34  19    41  44  30    49  51  32    27  30   7    30  32  10    37  39  17    45  48  27    92  96  75   132 137 114    57  66  37    31  41   5    51  65  23    78  95  45   114 131  76   103 123  62   114 133  77   109 127  78   106 123  73    52  69  15    66  83  30   105 121  71    60  72  32    64  74  44    39  47  24    51  59  38    48  55  31    69  76  43   105 114  71   101 110  63    99 110  67    60  71  29    58  69  26    59  70  27    58  70  24    75  89  40    86 100  48    89 103  50    53  69  14    81  99  41    83 101  43   116 134  76   114 130  73   105 119  61    82  94  37    52  62   9    77  87  36    75  84  37    88  96  53    62  69  27  
  31  34  19    30  34  19    39  43  28    51  54  35    36  38  16    44  46  24    38  40  20    34  37  18    54  59  39    33  38  16    25  34   9    28  38   7    71  83  45   100 115  70   128 145  93   120 139  83   131 149  97   117 133  88    78  94  48    56  72  23    70  86  37    84  99  54    55  66  29    65  74  45    33  42  18    42  50  29    49  56  31    82  89  55   126 135  92   121 131  81   163 175 125    95 108  56   104 118  65    71  85  32    33  48   2   119 134  79   102 117  60    70  85  28    92 107  51    96 111  53    74  89  31   105 120  61   107 122  63   104 115  57    86  96  39    60  71  16    70  80  29    81  90  43    85  93  50    71  79  37  
  33  37  22    32  36  22    42  45  31    50  51  35    48  50  29    34  35  17    26  28  10    42  45  28    49  52  36    33  36  20    21  29   8    46  55  29   102 113  80   110 124  85   129 145 100   113 131  83   122 139  93    74  89  51    56  71  31   104 120  75    69  85  40    45  59  19    60  72  38    95 104  77    54  62  39    36  43  20    62  70  43    50  58  22    72  81  36   122 135  82   151 166 107   120 135  73   166 182 119   136 152  90    48  64   7   116 132  70    90 106  44    94 110  48    98 113  53    85  99  40   104 118  59   107 121  62    97 109  51    85  96  38    77  88  31    70  80  27    62  72  21    72  81  34    75  83  40    69  76  35  
  30  34  19    27  31  17    38  42  27    54  58  41    62  63  45    36  38  22    30  31  18    46  48  34    38  41  28    34  38  23    34  41  22    40  49  27    86  96  70    82  95  64    97 111  75    42  57  18    33  48  10    27  41   8    33  47  13   104 119  80   109 121  84   113 125  89    77  88  56    81  91  63    49  57  33    19  27   7    89  98  67    69  80  41    42  54   8    73  86  31   133 153  81   127 148  73   146 167  93   137 157  86    73  93  21   108 125  57    78  94  29   100 114  51    99 113  52    70  84  23    80  94  35    72  83  26    86  97  41    83  94  37    91 102  44   102 113  57    72  82  31    72  81  34    81  89  46    70  77  36  
  31  35  19    30  34  20    45  49  35    50  52  38    41  42  28    33  35  21    35  37  24    34  36  24    28  31  20    20  23  12    14  20   6    14  22   7    42  51  31    34  46  22    55  68  40    13  26   1    10  23   1    11  24   1     9  22   1    43  57  25    99 111  78   128 139 108    97 108  79    38  47  21    36  45  18    19  29   4    64  74  39    64  74  34    43  54   6    50  65   4   111 132  54   147 170  87   140 162  81   131 152  74   102 123  48   114 131  61   104 121  53   114 127  64   109 120  59    73  84  26    70  81  25    63  72  18    57  66  13    74  84  29    90 101  45   131 141  88   138 148  97   101 110  63    66  74  31    69  75  37  
  33  37  20    37  41  25    54  58  43    59  61  47    39  41  28    31  33  20    25  27  17    20  23  13    30  33  24    28  30  21    16  22  12    23  29  16    25  34  18    13  21   4    17  26   5    15  25   1    19  28   5    14  23   3    20  29   7    29  39  14    44  54  29    49  59  32    91 101  74    56  66  39    36  47  18    12  22   1    21  31   5    73  84  40    80  92  41    65  81  19   112 134  51   150 173  86   148 172  87   137 159  79   119 140  63   116 133  62   133 150  83   130 142  81   124 135  78    75  84  30    72  80  29    71  78  28    54  61  12    82  92  38   100 111  53   106 117  62   115 125  74    80  89  42    54  62  19    93 100  61  
  43  46  29    32  36  20    36  40  25    32  35  21    28  30  17    29  31  20    29  32  21    29  32  23    27  31  23    20  24  17    10  15   8    19  25  17    13  21   9    22  30  15    19  27  12    28  37  20    13  22   5    25  34  15    21  30  11    49  58  37    48  57  36    33  43  19    48  58  32    49  60  31    31  41   8    54  64  27    67  78  35   125 137  89   114 127  74    83  99  37   134 157  74   121 145  55   129 152  66   140 162  81   125 143  69    99 116  47   126 139  78   128 139  82   124 133  80    52  60  10    56  62  16    64  70  25    87  93  48    71  79  28   121 132  76   116 126  73    85  95  44    83  92  45    77  84  41    79  86  47  
  38  42  25    38  42  25    40  44  29    39  43  29    32  36  22    25  28  17    24  27  16    22  25  16    18  22  15    18  23  16    14  19  12    17  22  15    18  24  15    15  21  11    21  27  15    55  63  48    63  71  55    50  57  41    40  48  32    29  36  20    25  32  13    27  36  14    30  40  13    41  52  18    45  57  18    57  71  26   124 138  88   143 158 104    78  93  36    71  87  22   166 187 108   124 148  63   124 145  64   118 139  63    68  85  14    99 115  52   128 141  84   122 132  80    93 101  55    58  65  23    61  66  25    50  54  15    85  89  47    86  94  44   105 116  58   140 151  95    91 101  49    94 103  56    79  86  43    57  63  25  
  28  33  13    28  32  16    33  37  22    31  35  21    31  35  21    34  38  24    32  34  23    22  25  15    13  18   9    14  20  10    18  23  13    25  31  21    30  36  26    25  31  21    29  35  24    42  50  37    53  60  45    46  53  37    47  54  37    43  50  34    32  39  21    25  33  11    23  33   5    40  52  14    58  71  26    39  53   6   119 134  78   153 168 108   123 139  77    98 116  51   154 175  98   124 146  65   117 136  62   114 130  62    87 102  39    92 105  49    88 100  49    75  84  39    97 105  63    70  76  38    49  53  16    70  74  37   103 106  67    87  94  46    92 103  47    91 101  48    58  68  17    47  57   9    69  77  34    69  76  35  
  35  40  20    37  41  22    40  44  27    32  38  22    33  39  24    33  40  24    26  32  17    14  20   7    11  17   5    17  23  11    16  22  10    20  26  14    22  28  16    22  28  16    36  42  28    28  34  20    52  59  44    65  72  54    51  58  41    59  66  50    54  61  42    30  38  15    26  36   5    42  54  13    30  44   2    86 101  41   113 130  66   131 150  84   154 172 106   145 165  96   134 154  82   136 154  81    99 116  48   104 120  57    90 104  47    35  47   1    48  57  12    57  66  24    80  87  48    77  83  47    66  70  35    92  96  61   105 110  72    73  80  32    40  51   2    36  46   2    61  71  19    67  77  28    82  90  45    79  86  45  
  38  43  23    39  44  25    35  39  22    33  39  22    34  41  25    31  38  22    25  32  16    19  26  10    16  23   7    19  26   9    20  27  11    26  33  17    34  41  25    44  51  34    63  69  53    29  36  20    56  64  45    75  83  62    44  51  33    71  78  60    81  88  70    41  50  25    27  37   4    31  44   1    72  86  31   107 123  58   142 160  90   132 152  80   172 192 122   164 184 115   116 132  64   116 131  66   116 130  68    95 108  52    74  86  35    39  48   4    39  48   7    37  45   8    45  51  14    67  73  37    67  71  34    42  46  10    38  44   6    49  58  11    45  55   2    62  72  19    75  85  34   113 123  74   107 115  70    75  82  39  
  40  45  25    34  39  20    30  34  17    33  39  22    33  41  20    31  39  18    34  42  21    36  44  23    30  38  17    21  29   8    20  28   7    41  49  28    59  67  46    64  70  50    71  76  56    27  31  13    43  48  27    56  61  38    41  46  25    71  76  56    84  92  71    56  65  39    39  49  12    82  96  45   169 185 122    99 119  47   117 137  61   130 151  75   118 138  65   131 148  80   125 139  77    90 104  44    72  84  28    86  96  45    73  82  37    21  30   1    37  45   6    43  51  13    53  61  23    54  62  23    57  64  22    40  47   4    81  88  43    98 107  57   129 139  86   120 130  77    69  79  27    99 109  59   100 109  61    64  71  27  
  38  43  23    27  32  13    31  35  18    44  51  31    43  50  30    35  43  22    37  45  22    48  56  32    53  60  37    50  58  34    40  48  24    58  66  42    61  69  45    49  55  32    47  52  30    28  33  11    36  42  17    40  46  19    51  57  33    55  60  39    57  65  44    68  77  50    78  89  49   106 120  65   157 174 105   126 147  70   132 154  72   144 165  85    98 119  43    99 117  46   141 154  94    58  69  14    50  60   8    51  61  12    45  54  11    39  47   6    30  38   1    36  44   5    53  61  20    27  36   3    29  36   1    34  42   1    65  74  31   108 118  67   135 145  92    78  88  36    72  82  31    86  96  46    88  96  48    87  95  48  
