P3
50 50
255
  42  40  19    31  30   8    46  46  21    51  53  25    56  60  27    63  67  30    50  56  14    88  96  50    69  77  29    51  58  14    52  56  23    33  33   7    31  32   3    43  44  13    58  59  27    56  56  23    38  39   7    47  49  17    74  76  39    66  68  31    92  93  59    72  73  39    57  58  25    43  44  20    29  30  12    32  34  12    32  36   7    60  65  28   106 112  66    93 101  45   111 119  59    87  96  36    45  52   1    56  62  16    45  49  13    34  37  11    36  37  17    35  33  16    33  29  16    25  22  12    21  16  10    22  17  11    25  20  13    20  16   6    29  26  11     7   5   1    37  36  16   109 109  70    99 100  55    58  60  11  
  37  35  14    31  30   8    30  31   6    49  52  24    76  80  47    41  45   8    45  51  10   105 113  65   110 118  68    67  75  28    50  53  21    53  53  26    45  45  16    48  49  17    40  41   9    36  37   3    55  56  21    68  69  34    95  97  60    75  77  40    82  83  49   102 103  69    60  61  32    30  32   8    37  39  16    37  39  15    37  40  10    70  74  38    93  99  53   109 116  65    99 107  50    66  74  18    59  66  13    57  63  19    55  59  26    51  54  28    47  49  29    36  33  18    33  29  18    24  20   9    17  13   4    20  16   7    26  22  12    24  20   8    35  32  16    20  18   1    66  66  33   117 118  77    95  97  49    69  71  21  
  22  24   3    40  43  20    38  41  18    55  59  31    79  85  51    38  44   7    44  51  15   101 109  60   102 111  57   114 122  72    90  94  57    53  56  25    56  60  28    46  51  18    45  49  16    61  65  32    50  54  19    58  62  27    74  78  43    72  76  41    69  73  38    50  54  19    40  44   9    38  42   7    26  30   1    26  31   1    48  53  12    61  67  22    88  94  46    94 100  50    65  72  22    46  53   4    49  55   9    40  45   6    63  67  34    52  54  24    47  49  27    44  45  29    26  27  14    25  25  13    34  34  22    23  23  11    22  23  10    28  29  12    26  28   5    26  29   1    53  57  18    76  82  36    44  51   4    56  61   8  
  32  36  13    41  45  22    55  59  33    55  60  29    43  49  14    32  39   1    63  70  25   115 123  72    99 108  53   101 109  58    66  71  31    37  41   8    41  45  12    42  46  13    48  52  19    64  69  35    57  61  27    51  55  20    77  81  46    94  98  63    66  70  35    59  63  28    52  56  20    42  47   8    43  48   7    75  81  37    78  84  40    73  79  32    89  95  47    87  93  47    65  71  25    52  57  14    62  66  27    65  69  34    79  83  49    47  50  19    38  40  16    36  37  21    25  25  13    31  31  19    33  33  21    26  27  14    25  26  11    20  21   2    17  19   1    52  55  24    76  80  41    80  87  39    60  67  14    27  35   1  
  63  68  38    83  88  57    74  79  47    65  71  36    39  45   7    45  52  10    66  74  28   100 109  58    90  99  45    90  98  47    68  72  36    44  47  16    37  40   9    36  40   7    39  43   9    46  50  17    46  50  17    46  50  17    66  70  36    96 100  65    72  76  41    69  73  38    63  67  31    47  51  11    65  71  28    86  92  48    78  84  39    96 102  56    69  75  29    70  76  32    34  40   1    29  34   2    44  48  12    56  60  26    57  60  31    17  20   1    18  19   3    25  26  10    19  20   6    25  26  12    26  26  14    27  27  14    30  31  15    31  33  12    25  28   1    57  61  27    83  88  49    87  93  47    87  93  43    54  61   9  
  90  96  60    85  91  55    63  69  33    62  68  30    45  52  11    49  56  13    55  63  16    79  87  37    83  91  39    58  66  17    64  68  32    47  50  19    35  38   7    36  39   8    40  44  11    42  46  13    48  52  19    44  48  15    44  48  14    77  81  46    79  83  48    65  69  34    62  66  30    65  70  30    51  56  13   110 116  72    70  76  32    45  51   7    50  56  12    55  61  19    61  66  26    56  60  23    56  60  27    58  61  31    43  46  19     8  10   1    16  18   2    24  25  10    19  19   5    15  16   2    23  23  11    29  30  16    39  40  23    54  56  35    49  52  26    43  47  14    74  79  40    81  87  41    90  97  46    97 104  53  
 127 134  92    69  76  35    56  63  22    53  60  19    70  77  35    97 104  60    96 104  59    73  81  33    82  90  39    68  76  29    60  64  30    51  54  25    38  41  11    37  40   9    41  44  13    41  44  13    48  51  20    39  43  12    34  38   6    70  74  41    68  72  37    45  49  14    46  50  14    74  79  39    69  75  31   144 150 106   113 119  75    77  82  40    53  58  17    42  47   7    54  58  21    43  47  14    40  43  13    48  51  23    39  41  19    19  21   1    25  27   9    30  31  15    26  27  11    14  15   1    29  30  16    33  34  20    41  43  24    55  57  35    61  64  37    48  52  19    65  70  31    62  68  22    87  94  44   113 119  71  
 113 120  76    87  94  50    80  87  45    71  78  35    76  83  39    94 101  59   101 108  66    48  55  12    46  53   9    47  54  12    51  54  23    48  51  22    40  43  14    36  39  10    39  42  12    43  46  15    46  49  18    38  42  11    46  50  18    79  83  50    43  47  13    25  29   1    33  37   1    53  58  18    68  74  30    93  99  55    71  76  35    81  86  46    39  44  12    43  47  13    59  63  30    41  44  14    36  39  12    48  50  28    44  46  25    25  26   9    19  20   4    26  27  11    26  27  11    14  15   1    28  28  13    34  35  19    38  40  20    39  40  19    50  53  26    65  69  36    55  59  21    53  58  15   115 121  73   124 130  84  
  57  65  17    80  88  41    80  87  43   110 117  75    82  89  47    66  73  33    83  89  51    52  58  21    44  49  14    30  36   2    29  32   3    34  37  10    39  42  15    37  41  13    47  50  21    60  63  34    57  60  29    50  53  22    64  68  36    68  72  39    29  33   1    25  29   1    36  40   4    40  44   5    53  59  16   109 114  73    64  69  29    41  46   7    45  49  13    43  47  14    39  42  11    30  33   7    35  37  14    43  44  25    39  40  24    34  35  21    24  25  10    26  27  10    23  24   6    18  19   1    22  23   5    50  51  33    60  61  41    39  41  17    35  38   9    67  71  37    44  48  12    60  65  26   126 132  86   105 111  67  
  64  71  27    49  56  15    45  52  13    82  89  47    67  75  33    85  91  55    76  82  48    30  35   6    40  45  16    60  64  36    38  40  16    42  44  20    48  50  25    38  40  14    42  45  18    55  58  31    50  54  25    65  68  38    75  78  47    42  46  13    30  34   1    37  41   8    45  49  13    61  65  26    96 101  60   133 138  97    64  69  30    34  38   2    39  43   9    32  35   4    42  45  18    43  45  22    50  51  32    39  40  23    23  24  10    29  29  17    28  29  15    37  38  21    29  30  12    30  31  13    26  27   9    77  79  58    98 100  78    53  55  30    27  30   2    59  63  29    41  46  11    70  75  39    96 102  58    47  54   9  
  30  37   1    41  48   6    45  52  11    46  53  14    53  59  23    75  80  49    64  68  40    38  42  18    18  21   2    31  34  13    24  26   4    37  39  17    45  47  24    40  42  18    44  47  20    52  55  27    48  51  22    50  53  23    59  62  31    42  45  14    25  29   1    43  46  14    46  50  16    58  63  24    93  98  57    50  55  14    42  47   8    40  44  10    29  33   2    31  34   7    40  43  19    48  50  29    52  53  36    42  43  27    25  26  12    25  25  12    33  33  18    38  39  20    29  31  10    24  26   5    43  45  24    64  66  44    75  77  54    62  64  38    37  40   9    38  42   9    46  50  12    85  90  50    63  69  26    57  63  21  
  35  42   1    34  41   1    33  40   1    53  59  23    63  69  34    43  48  19    65  69  45    41  44  24    22  25   7    13  16   1    24  26   5    39  41  19    48  50  28    43  45  23    44  46  22    46  49  24    47  50  23    55  58  30    43  46  16    39  42  11    57  61  28    82  86  53    69  73  39    64  69  30    84  89  49    43  48   9    39  43   7    43  47  15    38  42  13    37  39  14    43  45  23    45  46  26    46  47  30    38  40  25    27  28  14    21  22   8    26  27  12    35  37  17    30  32  11    24  26   4    40  42  20    51  53  29    61  64  38    69  72  44    41  44  13    42  46  13    57  61  25    87  92  53    53  58  17    56  61  21  
  32  39   1    31  37   1    47  54  13    68  74  35    66  72  37    33  38   9    40  44  20    16  19   7    16  18   8    18  20   6    27  28  10    37  39  18    42  44  22    36  38  16    37  39  16    41  44  19    39  42  15    41  44  16    38  41  11    38  41  10    45  49  16    66  70  37    66  70  36    61  65  29    69  74  34    38  43   3    41  46  10    50  53  21    48  51  23    36  38  14    42  44  22    37  39  19    35  36  19    34  35  19    28  30  13    22  23   7    22  23   6    34  36  15    38  40  18    39  42  18    54  56  32    43  45  20    43  46  18    48  51  22    29  32   2    42  46  13    59  63  28    78  83  44    52  57  17    61  66  28  
  69  75  38    50  57  16    63  70  29    84  91  52    60  66  30    48  53  21    34  37  12    24  27   8    19  22   7    20  22   8    28  29  13    31  31  13    29  30  11    22  24   3    30  32  10    41  43  21    38  40  15    36  39  12    47  50  22    48  51  20    36  39   8    50  54  21    70  74  40    58  62  26    54  59  22    42  46   9    50  54  20    55  58  28    50  52  27    27  29   7    33  35  14    28  30  10    27  28  11    29  30  14    30  31  15    28  29  12    25  26   7    33  35  13    48  50  26    63  64  41    78  80  56    47  50  23    31  34   5    28  32   3    29  33   1    51  55  20    65  69  33    64  68  31    60  64  27    63  67  30  
  61  67  28    51  58  16    66  73  29   111 118  75    59  66  25    23  29   1    30  34   4    30  34  11    21  24   5    13  16   1    24  25   9    26  27  11    23  24   7    19  21   1    31  33  12    44  46  24    41  44  19    36  39  12    38  41  13    44  47  17    47  50  19    63  66  34    72  76  42    55  59  22    50  54  17    47  51  14    51  55  21    53  56  26    47  49  24    25  27   4    29  31  10    26  28   8    24  25   7    25  26   8    29  31  11    33  35  14    30  33  11    33  35  12    47  50  24    67  70  43    83  87  59    52  55  26    29  32   2    39  42  10    44  48  15    58  61  26    81  85  50    58  62  26    64  67  31    58  62  25  
  28  34   1    55  63  19    75  83  35   113 121  73    68  75  31    26  32   4    64  70  35    30  35  15    17  21   2    19  22   1    22  23   7    26  27  11    29  30  14    29  30  13    40  42  21    46  48  26    42  44  21    40  43  17    41  44  15    42  45  16    41  44  13    53  56  24    56  60  27    51  55  20    51  55  18    48  52  17    46  49  18    51  54  26    44  47  22    32  34  11    30  32  11    28  30  10    24  26   6    23  25   4    29  31   9    36  38  16    37  39  17    35  37  13    38  41  15    50  53  26    63  66  37    50  53  23    37  40   9    48  51  19    36  40   7    44  48  13    83  87  52    60  64  29    63  67  30    62  66  29  
  58  64  23    90  97  52    86  94  44    91  99  48    68  76  27    74  81  35   114 120  80    52  57  29    24  29   1    22  26   3    27  28  10    30  31  16    33  34  18    33  34  16    42  44  23    45  47  25    42  43  21    51  54  28    59  62  33    54  57  28    39  42  11    47  50  18    52  56  22    48  52  16    51  54  18    48  52  17    45  49  17    57  60  32    47  49  25    38  40  18    32  34  13    28  30   9    23  25   4    24  26   4    35  37  13    43  45  21    45  47  23    42  44  20    36  38  12    37  40  13    40  44  15    48  51  22    51  54  23    45  49  16    31  35   2    47  52  17    68  72  37    60  64  29    60  64  29    70  74  37  
  75  81  43   103 111  67    88  97  46    93 102  47    54  63   8    70  79  27    75  82  37    44  50  13    30  35   4    25  29   4    35  37  16    33  34  16    30  31  13    27  29   8    37  39  18    43  45  23    40  42  18    46  49  23    47  50  22    44  47  16    46  50  17    61  65  30    54  58  22    43  47  10    48  52  15    48  52  17    50  53  21    67  70  41    50  52  28    39  41  17    32  34  12    26  28   6    20  22   1    25  27   4    41  44  18    51  54  27    51  55  27    48  51  24    41  45  17    36  39  12    31  34   7    51  54  25    63  66  36    47  51  18    52  56  21    78  82  47    57  61  26    57  61  26    55  59  26    70  75  40  
  54  57  27    90  95  58    66  72  26    73  81  26    77  85  25    41  49   2    56  63  12    42  47   7    43  47  17    52  54  32    31  33   9    34  36  12    47  49  25    56  58  34    49  51  27    38  40  15    38  42  15    41  44  16    47  51  19    29  33   2    49  53  16    66  71  31    40  45   4    36  41   1    33  38   1    45  50  10    54  58  22    51  55  21    65  68  37    47  50  21    37  40  13    23  26   1    23  26   1    30  33   6    43  46  17    59  62  32    64  66  35    53  54  23    43  43  15    48  48  22    39  39  15    36  37  12    44  47  19    53  57  25    57  61  26    59  65  27    50  56  19    68  74  39    66  71  38    59  64  32  
  33  36   9    77  82  46    59  65  19    81  89  33    68  77  14    61  69   7    56  63  10    46  51  10    40  42  15    45  47  25    35  38  10    41  44  15    48  51  24    63  66  39    63  66  39    43  46  19    35  39  11    46  49  19    55  59  26    70  73  37    72  77  37    72  77  35    48  54  14    37  43   1    48  53  12    35  40   1    46  50  14    58  62  28    63  66  34    71  74  45    46  49  20    34  37  10    32  35   8    34  37  10    39  42  14    47  50  21    49  51  20    47  48  17    45  46  18    46  46  22    41  40  19    35  35  13    40  42  16    59  62  30    73  77  42    39  44   7    50  57  19    76  82  47    60  65  34    73  77  50  
  47  50  18    63  67  29    72  78  31   138 145  89   112 121  59   125 133  73    89  97  43    58  63  21    37  41  11    42  44  20    42  45  15    46  49  18    43  46  17    61  64  35    68  71  42    43  47  18    32  35   5    45  48  17    70  73  41    83  87  50    69  74  34    69  74  32    90  96  52    71  77  34    79  84  43    68  73  33    73  77  41    72  76  42    56  60  29    65  68  41    42  45  18    37  41  13    43  46  19    49  52  25    56  59  32    63  66  39    64  66  38    67  68  37    71  71  44    64  64  40    48  47  26    36  36  14    46  48  23    53  56  26    95  99  65    58  64  26    68  74  37    78  84  49    54  59  28    28  32   5  
  51  55  22    45  49  10    60  67  18   104 111  55    60  68   8    65  73  13    72  78  27    69  74  32    64  67  37    58  60  35    55  58  29    54  57  26    44  47  17    58  61  32    62  65  36    48  50  21    46  49  19    40  43  11    63  67  32    54  59  22    59  64  24    63  68  27    99 104  63    84  89  48    73  78  38    67  71  34    67  71  36    69  73  41    86  89  60   100 102  78    33  35  11    33  35  13    42  44  22    53  54  33    65  67  45    75  77  55    67  69  44    47  47  21    54  54  29    56  55  34    34  33  13    27  27   6    48  51  26    69  72  42    67  70  38    36  42   6    81  87  52    40  45  16    19  23   1    13  18   1  
  63  67  30    77  83  39    78  84  33    92 100  42    79  87  27    66  73  15    78  85  33    43  48   7    49  52  20    59  62  35    56  59  28    56  60  27    54  57  25    61  64  33    55  58  27    56  59  28    70  74  42    51  55  22    49  53  19    58  62  25    86  91  51    75  80  39    75  80  39    85  90  49    85  89  52    62  66  32    49  52  21    51  54  26    62  65  40    59  61  38    32  34  12    28  30   9    31  33  12    34  36  15    43  45  24    52  54  33    48  49  27    29  29   6    37  36  15    65  63  45    58  57  39    63  63  44    80  82  60    75  78  50    56  60  28    37  43   7    89  95  59    50  55  22    40  44  16    30  34   9  
  55  60  19    73  79  33    95 102  49   116 124  66   114 122  64    79  87  30    87  94  44    41  46   6    39  42  11    44  48  20    40  43  11    47  51  18    54  58  25    53  56  25    45  48  17    55  58  27    65  69  37    38  42   8    35  38   3    77  81  44    82  87  49    65  70  30    67  72  32    75  79  41    91  95  60    53  57  24    44  47  17    53  55  30    36  38  15    19  21   1    29  29  12    24  25   9    21  22   6    19  20   4    28  29  13    40  41  25    44  44  25    44  43  22    42  41  22    58  56  40    50  48  33    42  41  25    29  30  10    33  36  11    67  70  39    35  42   8    45  50  17    52  57  26    50  54  28    27  31   8  
 106 112  68    78  84  35    90  98  43   100 108  50   100 109  51    97 104  50    86  92  46    52  57  17    51  54  21    73  76  47    36  40   7    45  49  14    50  54  19    37  41   8    37  41   8    54  58  25    53  57  23    45  49  14    57  61  26   100 105  68    77  81  44    65  69  32    93  97  60    86  91  56    80  83  51    46  49  20    42  45  18    42  44  21    32  34  15    32  33  17    22  24   9    19  20   5    17  18   4    17  18   4    31  31  18    47  48  34    43  44  27    41  40  20    54  52  35    39  37  24    36  34  21    31  30  16    14  16   3    28  30  11    70  73  45    59  65  31    71  77  43    78  83  52    38  42  16    47  51  28  
 102 108  60   109 117  64   134 142  86   102 110  53    66  73  18    79  85  35    60  66  21    57  62  24    46  50  18    58  61  30    53  57  24    58  62  27    52  56  21    29  33   3    42  46  13    62  66  33    46  50  16    36  40   5    49  53  18    69  73  38    56  60  25    44  48  13    58  62  28    62  66  34    46  49  19    54  57  30    65  67  43    35  37  15    33  34  16    35  36  22    21  21   9    18  18   6    16  16   4    15  15   3    28  28  16    45  45  33    42  42  27    61  60  42    89  87  73    37  35  23    24  22  10    20  19   7    16  17   1    30  32  10    80  83  54    83  88  56    63  68  37    76  80  52    55  59  33    84  87  64  
  24  31   6   116 123  68   139 147  90    92  99  44    56  63  11    72  78  32    65  69  30    50  54  18    48  51  19    46  49  18    45  49  16    69  73  40    67  71  38    53  57  23    43  48  13    51  55  20    45  49  14    47  51  18    55  59  26    53  57  24    51  55  22    54  58  25    51  55  23    50  53  25    48  50  26    45  47  25    37  39  19    26  27  10    28  28  14    43  43  30    31  31  19    17  17   7    20  20  10    10  10   1    30  30  20    48  48  36    40  40  25    77  76  59    53  52  37    23  21   9    24  22  10    29  28  15    26  27  11    35  37  15   113 116  87    31  36   4    41  47  13    58  62  33    42  46  20    71  75  52  
  68  76  21    98 106  47   109 117  59    91  99  45    53  60  11    47  52  12    41  45   8    39  43   9    42  45  14    49  52  21    74  77  46    68  72  39    56  60  27    50  54  20    42  46  11    45  49  14    49  53  20    65  69  36    53  56  24    43  45  15    47  50  21    56  59  30    54  57  29    39  41  18    30  32  11    26  27   9    21  22   5    15  16   1    14  14   2    20  20   8    18  18   8    17  17  10    11  11   5    13  13   3    32  32  20    34  34  22    50  51  36    66  64  49    43  42  28    28  26  14    34  31  22    36  35  23    25  26  10    33  34  12    85  88  59    47  52  20    43  49  15    44  49  18    50  55  27    48  53  27  
  82  90  31   134 141  82   113 121  63    75  82  29    46  53   8    47  51  14    46  49  17    38  41  10    23  26   1    27  30   1    80  83  52    57  60  28    45  49  16    57  61  27    61  65  32    68  72  39    63  67  34    57  61  29    46  49  20    36  39  10    37  40  13    37  39  13    27  29   6    22  24   3    21  22   4    18  19   3    18  19   6    22  22  10    23  23  12    22  22  12    15  15   5    14  14   5    15  15   5    29  29  17    27  28  14    53  54  40    62  62  45    50  48  32    42  40  26    35  33  20    19  16   7    11  10   1    10  11   1    18  20   1    74  77  47    91  97  63    71  77  43    39  45  14    37  41  14    20  23   2  
  95 103  43   125 133  73   108 115  59    75  81  33    58  63  22    57  61  29    51  54  25    42  45  17    30  33   5    51  54  25    65  68  37    46  49  18    33  37   5    41  45  12    48  52  19    60  64  31    53  56  25    46  49  19    49  52  25    46  48  24    40  42  19    35  37  15    28  30  10    21  22   5    20  21   7    20  20   8    24  24  12    32  32  22    38  38  28    38  38  28    15  15   5    12  12   6    30  30  17    33  34  20    39  39  24    77  78  62    67  68  50    50  48  32    40  38  24    36  34  22    19  16   7    13  12   1    18  19   2    21  24   1    77  80  49    83  89  55    82  88  53    65  71  38    46  51  21    44  48  21  
 109 117  57    82  90  31    66  74  18    58  64  18    47  51  15    46  49  20    43  45  21    41  43  19    35  38  12    57  60  32    45  48  20    46  49  20    32  35   5    26  29   1    37  40   9    62  65  34    53  56  27    24  27   1    27  30   5    27  29   7    26  28   7    26  27  10    28  29  14    17  17   4    14  14   2    16  16   6    16  16   7    20  20  12    26  26  18    32  32  24    12  12   2    13  13   3    28  28  15    27  28  13    75  76  59    67  69  48    67  68  48    67  66  49    30  28  14    15  14   1    12  10   1    14  13   1    17  18   1    41  44  20    84  88  56    58  64  28    98 104  67    98 104  69    51  56  23    40  44  17  
 117 125  65    81  89  29    65  73  18    66  72  28    47  51  17    37  39  16    33  36  15    35  37  16    28  31   6    32  35   6    43  46  16    55  58  29    41  44  15    27  30   2    38  41  11    75  78  47    68  70  42    32  34   9    30  32  10    30  32  11    29  31  13    25  26  10    18  18   5    13  13   2    13  13   4    14  14   6    13  13   5     7   7   1     7   7   1    15  15   7    21  21  11    22  22  10    23  24   9    50  51  34    84  86  65    53  55  33    43  45  23    46  45  26    32  30  14    18  16   3    10   8   1    11  10   1    31  33  14    76  78  51    98 102  69    58  63  27    84  89  52    65  71  36    38  43  10    56  61  31  
 113 121  61    87  95  36   100 108  54   101 106  63    67  71  39    43  45  23    25  27   6    31  33  12    42  44  21    44  47  20    52  55  28    59  63  35    50  53  25    38  41  12    34  37   8    55  58  28    52  54  26    32  35   9    33  35  12    33  35  14    29  30  14    24  24  11    21  21  10    18  18  10    15  14   9    20  19  14    26  25  20    17  16  11    11  10   3    20  20  12    30  30  20    28  28  15    34  35  20    79  81  61    46  48  26    41  43  19    30  31   8    42  41  22    34  32  16     9   7   1    11   9   1    39  38  23    98  99  79    76  79  52    74  78  43    68  74  36    77  84  44    51  57  20    33  40   5    68  73  43  
  75  83  29    98 105  51   109 116  67    69  73  34    42  45  14    42  44  20    30  32  11    34  36  14    48  50  27    45  48  22    49  51  27    54  57  29    59  62  32    64  67  36    54  57  26    60  63  32    54  58  29    42  44  19    44  46  22    41  43  19    39  41  16    53  56  29    80  82  57    39  40  20    12  13   1    23  24  10    39  39  27    33  33  22    25  25  15    33  33  23    25  25  13    22  23  13    49  50  40    79  81  61     8  10   5    23  25   2    23  24   3    40  39  20    39  37  21    33  31  18    59  57  44    59  59  42    64  66  44    58  61  34    67  71  38    58  64  28    60  66  31    59  65  31    32  37   6    51  56  26  
  76  82  38    83  89  46    58  63  24    39  43   8    33  36   5    33  35   7    38  41  15    42  45  18    49  52  23    54  57  28    82  86  59    63  69  37    65  71  36   104 110  73    52  58  20    50  56  22    91  96  65    59  62  35    39  42  13    36  40   5    53  56  14    48  52  13   147 152  94   117 120  75    20  21   5    26  26   4    59  59  34    28  27  10    23  22   8    37  35  20    20  18   5    22  20  12    71  69  55    59  57  40    20  19   3    25  24   4    22  22   3    34  35  20    72  73  58    50  51  35    30  31  13    40  42  20    65  67  42    56  58  30    60  63  34    42  47  17    45  50  21    51  57  30    35  40  17    59  65  39  
 115 119  82    94  98  62    67  71  36    51  55  21    46  49  18    44  47  16    51  53  25    58  61  32    55  58  29    53  56  29    46  50  23    77  84  52    89  95  59   100 107  66    61  68  26    54  60  22    56  61  27    53  56  25    46  50  16    49  54  11    37  43   1    41  49   9   157 166  89   135 141  78    30  33   5    36  39   2    44  46  15    23  24   3    54  53  31    25  24   6     7   5   3    54  51  40    67  65  53    36  34  20    21  20   5    31  30  12    31  30  15    46  47  33    49  51  35    30  31  14    16  17   2    54  56  31    70  73  46    46  49  20    38  40  11    47  51  24    60  65  38    51  57  31    44  50  25    50  56  30  
 121 125  88    76  80  43    52  56  21    52  56  22    52  55  24    54  57  27    61  64  35    62  65  37    54  57  30    54  57  32    24  28   3    61  67  36    88  94  58    83  89  48    88  95  51    77  84  40    48  55  13    62  67  27    50  55  13    41  48   1    34  40   2   109 117  42   164 173  91   145 153  81   108 115  54    43  48   1    24  27   2    63  64  28    68  68  41    20  19   4    29  27  14    94  91  82    68  65  56    29  27  16    28  26  13    29  27  12    41  38  24    34  32  19    41  39  24    60  59  42    63  62  42    87  87  63    41  44  16    42  44  14    34  37   6    54  59  29    67  72  42    45  50  20    33  38  10    32  38  10  
  94  98  61    54  58  21    47  51  17    48  51  19    35  38   9    41  44  15    47  50  23    37  39  14    35  37  13    42  44  20    35  39  14    47  52  23    76  82  45    43  50  11    64  72  24   103 111  62    94 102  53    73  79  30    64  71  18    93 101  42    67  75   6   145 155  73   165 175  87   148 158  73   184 192 117   104 111  44    81  86  29   131 134  90    68  69  38    19  18   1    53  51  39    77  74  66    41  38  31    28  24  16    25  22  11    14  12   2    39  36  21    51  50  33    48  47  29    61  60  41    54  53  32    65  66  39    63  66  36    62  65  34    60  63  32    64  69  37    66  71  39    42  47  16    16  23   1    24  30   1  
  76  80  43    59  63  27    67  71  37    74  77  45    36  39  10    35  38   9    47  50  23    31  33   8    34  36  12    36  38  16    41  45  21    42  47  18    65  72  34    59  67  20    56  65  12   112 120  63    83  91  32    90  98  38   127 134  71   143 149  80   105 114  34   169 179  90   149 160  64   132 142  45   157 166  73   129 137  55   114 119  52   125 127  77    82  81  47    62  60  39    56  52  40    40  36  28    21  16  10    32  28  20    33  28  18    27  23  11    46  43  25    49  47  25    52  52  28    39  39  14    55  55  27    60  61  32    50  54  22    49  54  20    54  60  24    58  63  28    60  66  30    40  46  12    16  22   1    22  27   1  
  66  70  33    58  62  27    64  67  35    86  89  59    50  53  24    38  41  15    49  51  27    41  43  20    42  44  22    31  33  11    28  32   9    58  63  34    56  62  24    63  71  22    39  48   2   140 148  87    95 104  38   120 130  59   155 164  88   173 182 102   150 160  73   147 159  63   151 163  61   164 176  69   158 169  65   121 130  38    94 100  25    74  77  21    49  50  11    47  45  21    53  51  36    39  35  26    33  29  20    34  30  20    39  36  22    50  47  28    58  56  31    53  52  21    72  71  38    66  67  33    67  68  34    38  40   6    43  47  12    48  53  17    41  48  11    59  65  29    69  75  39    55  61  26    46  52  18    34  39   7  
  51  55  18    38  42   7    40  43  11    50  53  23    47  50  21    39  42  16    37  39  15    37  39  16    32  34  12    19  21   1    25  29   6    57  61  32    52  59  21    89  95  47    89  97  39   146 156  88   111 120  46   111 120  40   173 183  97   147 158  67   141 151  53   166 177  74   161 172  66   168 180  69   155 164  55   129 137  39   104 109  30    74  76  16    44  43   2    37  33   7    48  42  26    48  42  30    47  41  28    34  29  11    39  34  12    62  58  30    77  74  39   107 107  63    89  91  46   108 109  65    91  94  52    39  42   7    53  58  17    35  40   3    32  38   2    42  48  12    49  55  21    47  50  18    34  37   6    16  19   1  
  40  44  10    28  31   2    34  37   7    19  22   2    53  55  30    58  60  36    40  42  19    43  45  23    34  36  14    30  32  10    37  41  16    60  65  33    70  77  37   101 108  59   126 134  75   125 136  66   150 161  81   115 125  40    78  88   1   137 149  50   183 194  89   163 174  68   181 193  84   135 146  34   117 127  15   140 148  48   103 108  31    46  47   1    53  51  13    59  55  25    47  42  23    55  50  31    60  55  34    49  45  18    56  53  20    86  84  44   103 103  54   146 147  91   155 156  99   113 116  61    55  60   9    65  70  21    60  66  22    55  61  22    76  82  46    59  65  31    54  59  27    62  65  36    32  35   9    22  25   1  
  55  59  26    55  58  27    40  43  13    42  45  16    43  46  19    58  60  36    62  64  41    42  44  22    30  32  10    27  29   5    32  35   6    70  74  40    93  98  57    82  89  39    88  96  37   146 154  83    96 106  25    86  96   7   134 145  47   183 194  91   176 188  80   171 183  74   154 166  56   109 119  12   110 118  12   150 156  61   113 116  37    70  70  14    49  47   5    49  44  11    50  44  19    85  80  54    82  77  46    98  93  57   114 111  67   153 151  99   170 170 108   142 145  74   142 145  75   138 143  76    90  96  35    57  62  11    90  97  50    87  94  52    88  94  60    40  45  13    57  60  34    66  67  43    36  36  14    25  25   1  
  62  65  34    80  83  54    76  79  50    57  60  32    81  85  58    78  80  56    53  55  31    43  45  22    28  30   8    28  31   5    34  38   5    96 101  62   119 125  81   100 107  57   105 113  54   114 121  52   124 132  52   147 158  66   200 211 111   163 174  69   175 187  79   170 182  72   148 159  50   103 110  14   106 112  13   161 166  75   126 129  52   130 130  69    85  82  34    76  72  34    73  68  36   114 109  76    69  66  26    58  56   8    64  64   8   119 119  56   170 172  99   155 158  78   149 152  73   152 155  83   108 113  48    97 103  47   114 121  73    94 100  60    45  51  17    47  52  22    51  53  26    49  48  26    48  46  25    30  28   3  
  56  59  31    83  86  59    84  87  60    87  90  64   119 122  95    78  81  54    54  57  29    73  76  49    53  56  29    58  61  31    47  52  12    76  82  38   105 111  66   103 108  59   117 122  67   117 123  58   158 166  88   138 146  57   165 175  76   195 206 101   156 168  60   148 159  51   177 186  80   138 145  43   146 150  55   153 155  69   152 152  77   142 141  79   132 129  78   115 110  67    94  89  49   130 125  84    85  82  35    57  54   1    69  68   4   143 143  71   159 160  82   139 141  58   130 132  52   124 128  54   117 123  57   144 152  94   126 134  84    77  85  42    48  54  19    54  59  28    54  56  29    52  51  26    43  40  18    31  30   2  
  55  57  33    70  72  48    69  71  46    61  64  37    90  93  66    69  72  45    62  66  38    68  71  44    49  53  25    91  95  62    65  71  26    91  97  50   117 123  77    74  77  31    74  78  27   123 128  69   135 142  71   145 153  68   175 185  88   182 192  89   161 171  66   132 142  38   140 147  45   146 151  53    95  98   6   147 149  66   153 153  78   119 118  55   128 126  71    96  92  43    72  68  21    93  89  41    66  64  17    79  78  20   112 112  42   181 181 107   167 167  88   138 137  56   124 124  47   142 145  73   119 124  61    92 101  44    82  90  42    43  51  10    43  50  13    22  25   1    40  40   9    54  53  23    43  41  10    23  23   1  
  36  38  16    33  35  13    31  33  10    27  30   4    44  47  20    52  55  26    69  71  43    73  76  47    57  60  31    81  85  49   100 105  56    44  49   7    59  62  15    68  72  28    55  58  13    72  75  24    52  57   1   115 122  48   165 175  82   144 154  55   182 190  89   160 168  65   136 144  44   143 150  53   146 149  58   119 121  37   126 126  50   134 133  65    86  84  23    85  82  27   124 121  68    95  92  39    66  63   8   110 108  46   124 124  54   172 172  98   177 177 101   139 137  63   123 122  51   118 120  54    97 100  44    94 101  50    45  53  17    15  23   1    27  35   1    39  45   7    42  46  11    59  60  25    77  76  35    75  75  26  
  33  34  16    28  30   9    32  34  12    43  44  21    46  49  22    45  48  19    54  57  28    80  83  53    87  90  59    65  70  31    97 102  48    69  74  18    52  55   7    76  78  37    73  75  35    67  69  21    79  83  24   128 134  62   147 155  69   168 178  82   170 178  79   150 158  59   153 160  62   144 149  53   191 194 102   146 149  62   142 143  65   123 123  51   116 115  49   120 118  58   130 128  71    70  68  10   101  99  39   135 134  71   115 114  47   164 164  94   163 160  92   147 142  77   142 139  78    72  72  15    46  48  10   142 148 101   108 116  73    76  84  43    48  55  14    50  54  13    64  67  23   144 145  97   122 121  68    92  93  34  
  22  23   5    26  28   7    31  33  10    35  38  12    56  59  32    62  65  36    32  35   7    44  47  17    79  83  50    64  69  29    80  85  28   161 167 109    89  93  44    59  61  20    76  78  39    67  68  27    72  75  23   138 143  76   159 164  83   186 193 101   161 168  72   137 144  48   149 155  59   144 148  53   160 161  68   136 136  49   136 135  54   162 160  84   134 132  63   122 118  54   159 155  94   113 108  50   145 140  82   137 132  73   121 117  55   181 177 113   154 150  89   114 108  52    88  84  30    75  73  24    82  83  39    98 104  61    73  80  39    80  88  47    60  69  24    47  54   5    62  66  14   142 144  87   111 111  48    95  97  25  
  24  26   4    35  37  15    36  38  16    29  31   9    53  55  33    64  66  44    32  36   9    40  44  13    70  75  35    47  54   4   118 125  60   181 187 123   121 125  72   110 113  71    70  72  35    45  45   7    33  35   1    50  53   3   110 114  40   190 196 111   156 162  71   130 135  43   144 149  57   157 161  71   189 189 101   130 129  44   130 128  48   113 110  35   107 102  33   111 106  42   103  97  35   157 151  91   165 159  99   164 158  97   157 152  87   148 143  76   130 124  63   122 115  63    80  74  24    91  87  39   116 116  70    53  57  13    62  70  28    75  84  43    44  51  10    34  42   1    45  50   1    72  74  20   107 107  45   111 113  40  
