P3
50 50
255
  54  57  26    62  66  33    53  57  22    40  44   9    37  41   4    46  51  11    48  53  13    49  54  13    72  77  35   102 108  60   100 108  48   115 123  57   120 127  60   128 138  65   116 124  49   117 128  53   106 114  40   103 113  38   113 120  51   118 127  60   133 139  78   136 144  87   116 120  70    77  83  39    54  56  17    46  50  17    46  50  27    32  35  16    26  29  12    24  27   9    17  19   5    18  20   7    21  23  12    17  19   5    15  17   4    19  21   7    23  26   7    24  29   6    27  31   4    34  40   9    45  51  17    54  59  27    57  61  38    53  56  35    44  47  26    38  41  20    36  40  17    36  40  17    34  38  16    33  35  14  
  53  56  24    59  63  29    51  55  21    35  39   6    27  32   1    36  40   2    44  49   8    48  53  18    65  70  29    86  92  45    99 104  48    90  96  36    85  91  29    75  82  22    85  92  27    90  97  30    98 104  38    94 100  34    89  95  32    94 100  39    96 101  45    90  95  43    75  79  31    57  60  16    42  44   7    32  35   4    40  43  19    36  39  18    32  35  16    22  25   8    14  16   2    21  23   9    24  26  14    14  16   3    18  20   7    26  29  14    34  37  18    36  40  17    34  38  11    35  40   8    43  49  15    50  55  23    46  50  26    46  50  28    44  47  25    36  40  16    28  32   8    26  30   5    30  35  10    36  40  16  
  61  65  31    64  68  32    54  58  20    48  53  17    46  51  16    46  51   8    42  48   4    41  47  11    53  59  15    69  75  26    80  84  32    63  68  12    53  58   2    36  41   1    53  58   2    59  64   3    72  77  16    67  72  11    52  58   7    63  67  13    74  78  28    80  83  39    82  84  44    76  78  42    63  64  30    47  50  21    40  42  19    41  44  23    43  46  27    32  35  17    21  23   9    26  28  14    29  31  18    19  21   8    22  24  11    27  30  13    33  36  17    40  44  21    44  48  21    44  49  18    43  48  15    41  46  14    34  39   9    38  42  14    43  47  19    46  51  21    43  48  18    38  44  12    36  41   9    36  41  10  
  89  93  58    89  93  56    92  97  57   101 106  65    96 102  58    83  89  43    91  97  49   109 116  66   104 111  60    81  88  37    92  95  47    83  87  36    63  67  16    51  55   9    49  53   2    63  68  14    72  77  24    79  83  31    50  53   8    42  45   1    41  43   6    50  51  15    58  58  28    57  57  31    54  53  29    51  53  30    38  41  19    35  38  17    40  43  24    40  43  24    28  30  16    21  23   9    23  25  12    21  23  10    21  23   9    26  29  12    34  37  18    44  48  25    50  54  29    54  59  29    53  58  26    51  56  23    59  65  30    68  74  38    82  87  51    89  95  59    82  88  51    67  73  37    58  64  28    57  63  26  
  60  64  31    55  59  22    57  62  22    41  46   8    46  53   9    77  83  37   100 106  58   100 107  56   100 107  56   107 113  65    87  90  44    94  97  53    85  88  44    90  94  48    75  78  34    85  88  44    75  79  35    78  80  39    76  78  38    48  49  14    25  27   1    24  24   1    27  26   4    27  26   8    34  31  16    43  44  27    40  43  23    30  33  12    35  38  19    43  46  27    31  34  17    18  20   6    19  21   8    24  26  12    26  28  14    41  44  27    58  61  42    66  70  47    66  69  44    72  76  49    88  93  62   102 108  74    96 102  64    89  96  55    89  95  55   100 107  66   107 114  73    98 105  65    83  90  49    72  78  40  
  58  60  32    62  65  33    65  69  34    71  75  39    69  74  34    58  63  23    55  61  17    61  66  21    63  69  24    59  65  19    72  77  38    69  73  37    63  67  30    62  67  27    66  70  34    74  78  41    72  76  42    69  72  40    47  50  20    32  35   8    17  19   1    16  18   1    20  21   6    24  24  12    27  27  19    29  29  19    48  51  34    40  43  22    40  43  24    40  43  24    29  32  15    25  28  11    30  32  18    31  33  19    55  58  43    63  66  49    68  71  52    62  66  43    52  56  31    53  57  30    67  71  45    83  88  56    77  83  45    63  69  29    58  65  25    71  78  37    84  91  50    81  88  48    70  76  39    63  69  31  
  42  43  21    52  54  29    64  67  38    56  59  29    47  51  18    43  47  12    43  48  11    44  49  10    47  52  13    51  55  17    44  48  14    42  46  13    50  54  22    51  55  23    71  75  44    70  73  43    65  68  41    49  52  26    22  24   1    20  22   3    16  17   2    16  17   4    24  24  15    33  33  26    32  31  28    25  25  18    47  50  33    45  48  27    43  46  27    36  39  20    29  33  15    33  36  18    36  38  23    31  34  17    39  42  25    37  40  21    34  37  15    29  32  11    28  32   9    32  36  11    41  45  20    49  53  24    43  49  14    48  54  18    60  67  30    66  72  35    56  61  25    40  46  10    45  51  16    61  66  34  
  33  34  18    34  35  17    40  41  21    36  38  16    37  40  16    41  43  18    39  41  14    36  39   9    44  47  17    57  60  29    37  40  11    38  41  12    40  43  15    45  47  21    51  54  28    53  56  31    48  50  27    41  43  21    19  21   3    21  22   7    19  20   7    17  17   8    20  20  13    26  25  21    26  25  23    21  20  15    31  34  17    41  44  23    45  48  29    41  44  25    39  42  23    40  43  24    35  38  21    27  30  13    27  30  12    29  32  13    30  33  12    29  32  11    28  32   9    30  34  10    36  40  16    41  45  19    43  48  18    49  54  22    64  69  37    74  80  48    60  66  34    39  44  12    43  48  18    64  68  40  
  25  26  14    26  26  13    32  33  17    29  31  13    30  32  14    33  34  15    31  33  11    30  32  10    38  40  17    50  52  28    43  46  21    35  38  13    30  34   8    35  38  15    40  44  21    38  41  20    30  33  12    23  26   6    21  23   7    20  21   7    19  20   7    18  18  10    17  17  11    17  18  13    21  21  17    25  25  18    28  31  14    37  40  19    41  45  24    39  42  21    37  41  21    39  42  23    36  39  21    30  33  14    24  27   8    25  28   9    27  30   9    27  30   9    29  32  10    33  37  15    41  45  23    48  52  28    35  39  14    52  57  30    79  83  57    92  96  70    74  78  52    44  48  22    38  41  16    49  53  28  
  18  18   8    19  19   7    22  22  10    20  21   6    20  21   7    22  23   7    21  22   5    20  21   3    26  27   9    34  36  15    30  34  11    32  36  11    33  37  14    37  41  18    44  47  26    48  51  30    39  42  23    26  29  10    17  20   3    16  18   4    21  23  10    30  32  21    30  31  23    24  25  17    24  24  19    28  29  19    34  37  20    38  41  20    37  40  19    33  35  15    30  34  15    33  35  17    33  36  17    31  34  15    29  32  12    28  31  12    27  30   9    26  29   8    27  30   9    32  35  14    39  42  21    45  48  27    45  48  27    48  52  29    57  62  38    66  70  47    58  62  39    40  45  21    32  36  13    35  39  16  
  21  21   9    22  22  10    21  21   9    20  22   7    21  22   8    22  23   9    21  22   8    20  21   5    23  24   8    27  28  10    25  28   7    39  43  20    43  47  24    37  41  18    39  42  21    49  52  31    45  48  29    30  33  14    19  22   5    15  17   3    19  21   7    30  32  19    36  38  25    32  34  20    28  30  17    28  30  16    28  31  12    32  34  14    34  37  16    32  35  14    30  33  12    30  33  12    29  32  10    26  30   8    30  33  12    28  31  10    27  30  11    26  29  10    28  31  12    33  36  17    40  43  24    45  48  27    43  46  25    40  43  22    39  43  20    40  44  21    38  42  19    32  37  13    32  35  12    34  38  14  
  20  21   7    21  22   8    27  28  13    28  29  13    31  32  17    32  33  19    32  33  18    32  33  18    31  32  16    32  33  15    25  28   7    34  37  15    35  39  16    28  32   9    30  33  12    41  44  23    45  48  28    38  41  21    34  37  19    28  31  13    22  25   7    22  25   7    26  29  11    28  31  13    28  31  14    27  30  13    23  26   7    30  33  12    39  42  21    44  47  26    45  48  27    43  46  25    38  41  20    35  39  18    44  47  26    41  44  23    37  40  21    35  38  19    36  39  20    38  41  22    42  45  26    44  47  28    40  43  21    42  46  23    44  48  25    41  45  21    36  40  16    33  37  12    37  41  18    43  47  23  
  21  22   5    21  22   5    28  29  12    32  33  15    36  37  20    39  40  23    40  41  24    40  41  24    39  40  23    37  38  20    28  31  10    24  27   5    24  28   5    32  36  13    39  42  20    41  45  23    43  46  24    46  50  28    53  56  35    50  54  33    40  44  23    27  31  10    22  25   4    25  28   7    27  30  10    25  28   8    28  31   9    32  36  14    39  43  21    45  48  26    48  51  29    48  51  30    47  50  29    48  51  30    41  44  23    39  42  21    36  39  20    36  39  20    37  40  21    40  43  24    42  45  27    43  46  26    52  55  32    47  51  26    40  44  19    38  42  16    48  53  25    65  70  41    80  85  57    87  92  64  
  25  24   8    30  28  12    33  32  14    34  34  16    33  33  13    31  31  11    36  36  16    43  43  23    40  40  20    30  32  12    26  29   9    24  27   8    32  35  13    44  48  25    46  50  26    41  45  19    43  47  21    52  57  29    59  64  36    58  63  35    48  53  25    34  38  12    25  29   4    28  32   8    31  34  12    31  34  12    35  41  16    35  40  14    36  41  16    37  42  17    41  46  21    47  51  29    53  57  35    57  61  39    40  45  23    33  37  15    29  33  12    31  35  15    32  36  15    30  35  13    33  38  16    39  45  20    46  50  20    42  47  15    39  45  13    48  53  21    66  71  39    80  86  53    80  85  54    73  78  46  
  32  31  12    46  45  26    53  52  31    54  53  32    52  51  30    46  46  22    37  37  13    30  30   7    30  30   4    29  32   8    26  28   7    33  36  17    36  39  18    31  35  12    31  35  10    38  42  15    44  49  19    43  48  16    39  44  12    40  45  13    40  45  13    40  45  15    45  49  22    49  53  26    46  50  26    39  43  19    28  35   4    30  37   7    36  42  14    42  48  20    46  52  26    49  54  29    50  55  32    49  54  32    47  52  29    33  38  16    23  28   5    21  26   3    21  26   3    20  25   1    25  30   5    33  40  10    41  47  13    52  58  20    61  67  31    63  69  33    64  70  34    66  72  36    67  73  40    67  73  39  
  50  51  22    69  69  40    83  84  55    65  65  36    49  50  21    50  50  21    51  51  22    48  49  18    49  50  19    53  57  27    32  34   9    36  40  17    36  40  17    32  36  10    32  36   9    38  42  15    39  43  16    33  38   9    34  39   9    36  41  11    38  43  14    41  45  18    50  54  27    62  66  39    71  75  48    75  79  51    48  55  24    48  55  22    49  56  25    50  56  28    51  57  31    48  54  28    45  50  27    41  46  23    51  56  33    36  41  18    26  31   8    27  32   9    33  38  15    40  46  19    49  55  29    58  65  34    51  57  23    64  70  34    73  79  43    70  76  40    61  67  33    61  67  33    68  73  41    75  80  48  
  49  51  12    44  47   7    57  59  20    54  55  19    58  59  23    70  71  35    74  75  39    65  66  31    52  53  18    42  46  12    33  36   5    22  26   1    19  23   1    26  30   4    31  35   8    29  33   7    31  35  11    39  43  18    40  43  20    45  49  25    50  53  29    50  54  28    50  54  27    55  59  31    65  70  39    73  78  47    54  61  27    57  64  31    61  68  35    66  73  41    65  71  42    57  63  36    45  51  25    36  41  17    31  36  12    25  30   6    25  31   7    36  42  16    49  55  29    58  65  37    66  71  43    70  77  46    70  76  42    68  74  39    63  69  34    57  63  28    55  61  28    56  62  28    54  59  27    49  54  23  
  67  70  22    46  49   3    52  55  10    58  60  18    62  65  23    61  63  23    59  61  22    60  62  25    64  66  29    64  68  32    49  53  17    43  49  17    38  44  17    36  41  13    36  40  13    36  40  16    33  37  15    31  35  14    29  32  13    33  36  16    41  45  23    53  57  33    61  65  38    61  66  35    56  61  28    52  58  23    46  54  18    52  59  24    62  69  35    71  78  45    74  81  49    66  72  43    50  56  29    38  44  18    38  44  18    41  47  21    47  53  27    58  64  37    65  71  44    66  73  43    64  70  41    61  68  36    57  63  30    58  64  30    58  64  30    56  62  29    56  61  29    54  59  28    45  50  20    36  40  12  
  98 102  48    60  65  13    48  52   4    45  48   5    45  48   5    50  53  13    59  61  22    68  70  33    78  79  44    84  88  52    84  88  49    89  95  55    86  92  57    75  80  48    64  68  41    56  59  37    39  42  23    22  25   8    21  23   8    18  20   5    23  26   7    39  43  20    55  59  32    63  68  36    64  70  35    65  71  34    67  75  36    61  69  32    54  61  27    52  59  25    54  61  28    53  60  29    49  55  27    45  51  24    46  52  25    52  58  31    58  64  36    62  68  40    60  66  38    56  63  32    51  58  27    47  54  21    61  66  34    70  76  43    76  81  49    70  75  45    59  64  33    46  50  22    36  40  12    28  32   7  
 109 114  60    59  63  12    36  40   1    30  33   1    34  37   1    40  42   3    36  37   3    31  32   4    49  50  19    74  78  45   101 106  66    89  96  55    81  87  51    75  80  48    63  67  42    47  50  29    40  42  28    42  45  31    19  21   8    22  24  10    29  32  15    35  38  17    36  41  15    39  44  12    51  58  21    65  71  33    71  79  40    59  67  29    45  52  18    36  43   9    36  43  10    38  45  12    39  45  17    38  44  16    37  43  15    43  49  21    48  54  26    48  54  26    47  54  23    47  54  23    50  57  25    52  59  26    43  48  16    53  58  28    63  68  38    64  69  39    61  65  37    60  64  37    60  64  39    59  63  38  
  64  68  19    76  79  32    58  60  16    21  23   1    29  31   1    33  34   3    23  23   1    21  21   1    14  14   1    26  29   2    37  41   6    38  43   6    39  45  12    42  47  17    43  47  25    43  46  27    44  46  33    43  45  34    22  24  13    21  23   9    27  29  15    35  38  17    36  39  14    36  41  11    51  57  23    71  77  41    73  80  42    58  66  27    55  62  28    51  58  24    39  46  13    41  48  15    45  51  23    35  41  13    40  46  18    24  30   2    36  42  14    58  64  36    54  61  30    46  53  23    55  62  29    62  69  36    60  65  35    48  52  25    43  47  20    50  54  27    49  53  28    39  43  18    36  40  15    41  45  20  
  85  88  47   108 110  72    60  61  25    40  42   6    32  33   4    33  33   7    30  29   7    22  21   3    19  17   2    23  25   4    25  28   1    23  29   1    22  27   1    20  24   1    19  22   3    18  20   4    17  19   6    16  18   7    16  18   6    19  21   8    26  28  14    33  36  17    33  37  12    30  35   6    35  40   9    43  49  14    72  80  44    77  85  48    80  88  54    69  76  42    46  53  20    29  37   6    30  36   8    37  43  16    47  53  26    46  52  24    46  52  25    47  53  24    46  52  24    52  59  28    62  69  38    68  75  45    59  63  36    58  62  37    51  55  31    40  44  20    28  32   8    21  25   1    19  23   1    18  23   1  
  83  84  50    80  81  49    67  68  38    71  72  43    51  50  29    50  49  29    53  51  35    35  33  20    28  25  14    17  18   4    22  23   4    18  22   2    16  19   1    14  16   1    13  16   1    14  16   3    15  17   4    17  19   7    22  24  11    26  28  15    32  34  19    35  38  19    39  43  20    45  49  23    49  54  25    51  56  25    55  63  27    56  63  28    50  57  23    51  58  24    56  63  31    48  54  25    40  46  19    48  54  28    50  56  30    65  71  45    58  64  38    43  49  22    44  50  23    49  56  26    50  57  27    54  60  32    52  56  32    57  60  38    53  56  34    37  41  18    23  27   4    17  21   1    15  19   1    13  17   1  
  62  62  34    80  80  52    85  85  58   113 113  89    98  97  76    84  83  65    66  64  51    35  33  21    32  29  20    26  26  17    25  25  13    21  23  10    17  19   6    14  16   4    12  15   3    15  16   3    16  18   6    19  21   8    25  27  13    33  36  20    42  45  28    47  50  31    50  54  32    51  55  31    45  49  24    38  42  16    47  54  22    50  57  24    42  49  16    43  50  18    54  60  31    50  56  29    41  47  21    49  54  30    46  51  27    62  67  43    58  63  39    48  54  28    50  56  30    44  50  22    35  41  13    40  46  19    42  45  23    38  41  22    33  36  16    27  30   8    20  23   2    17  21   1    19  23   1    23  27   4  
  29  28   6    36  36  12    43  43  19    59  59  35    52  51  31    44  43  25    37  35  22    27  25  13    30  27  18    28  28  20    23  22  18    20  21  16    17  18  12    15  16   9    15  17   8    19  21  10    24  26  13    27  29  15    29  32  16    33  36  17    39  42  23    42  45  26    41  44  23    36  39  17    28  31  10    23  27   3    31  38   9    37  44  11    35  42  10    34  40  11    43  49  23    43  49  23    32  37  14    24  29   6    31  36  13    38  43  20    41  46  24    45  50  27    49  54  31    42  48  22    36  42  15    41  47  21    41  44  23    28  30  12    16  19   1    17  20   1    20  23   2    23  27   4    31  35  12    39  43  17  
  19  18   1    25  24   4    42  42  18    27  27   4    28  27   7    23  22   4    22  20   6    32  30  17    28  26  13    21  21  13    17  16  17    15  15  17    14  14  14    15  15  14    18  19  14    25  26  18    31  33  20    35  37  23    31  34  17    26  29  10    26  29   9    28  31  10    28  31  12    26  29  10    31  34  15    40  43  22    34  40  13    59  66  35    74  80  52    54  60  32    24  30   4    20  26   2    26  31   9    24  29   7    24  29   7    25  30   8    38  43  21    50  55  32    51  56  33    50  56  30    46  52  25    35  40  17    24  27   7    22  25   8    20  23   5    22  25   6    32  35  14    46  50  27    53  57  33    52  57  29  
  27  26  10    22  22   4    26  25   7    17  16   4    30  29  13    21  20   6     7   6   1    14  13   2    16  14   3    20  20  13    15  15  14    11  11  12    10  10  11    13  13  13    15  15  14    15  16  11    18  19  13    23  24  14    24  26  14    20  23   7    21  24   6    29  32  12    33  36  15    30  34  11    33  37  13    44  48  23    48  54  28    56  62  35    58  64  37    42  47  22    30  36  10    40  46  20    45  50  26    31  36  12    33  39  15    39  45  21    55  61  36    64  69  45    62  68  40    62  68  40    53  59  30    32  39  11    35  39  16    48  52  30    57  61  37    59  62  38    66  70  45    79  84  57    85  90  61    83  88  57  
  33  33  21    29  30  17    29  30  17    27  27  15    20  20   9    12  12   2    10  10   1    13  13   5    15  15   7    15  14   8    15  16  12     9  10   6     8   9   5    13  14  11    15  15  15    13  13  13    17  17  16    24  24  21    17  18  13    21  22  13    21  23   9    22  25   6    34  38  14    39  44  15    48  53  21    48  54  22    44  50  23    50  56  31    43  48  24    36  41  17    46  52  26    53  59  33    49  55  29    45  51  25    45  51  24    55  61  34    62  69  39    62  68  39    61  68  37    60  67  35    56  63  31    51  58  26    64  68  39    74  78  49    81  86  55    76  81  50    64  69  38    59  64  32    64  70  37    72  78  44  
  35  35  21    30  30  16    26  26  12    28  29  14    26  27  14    18  19   6    12  13   1    10  11   1    11  12   1    11  11   2    10  11   3    13  15   5    15  16   9    13  14   7    14  15  11    17  18  14    17  17  14    14  14   9    18  18  11    25  27  17    32  34  21    35  37  17    43  47  22    46  51  20    79  85  51    68  74  39    40  46  17    44  50  24    37  43  18    33  38  13    41  48  21    46  52  26    40  46  20    36  42  16    49  55  27    52  58  30    53  59  31    50  56  27    45  51  23    43  50  18    49  56  24    56  63  31    50  55  24    63  68  38    74  79  48    68  73  43    50  55  24    34  39   9    32  36   7    35  40  11  
  39  40  20    37  39  19    41  43  23    49  51  30    52  53  36    43  44  27    30  31  13    20  21   4    14  14   1    10  11   1    15  18   2    15  17   3    12  14   1     8  10   1     7   9   1    11  13   2    14  16   5    13  15   5    14  15   3     8  10   2    17  20   2    31  35  12    43  46  20    39  44  12    80  86  52    59  66  31    32  38  10    42  48  22    41  47  21    34  40  14    32  38  12    28  34   8    31  37  11    39  45  19    45  51  23    45  52  24    48  54  26    52  57  29    44  51  24    33  39  10    30  36   7    35  41  13    29  33   6    36  40  12    43  47  20    42  47  21    34  38  12    26  30   7    29  33   9    35  39  16  
  50  52  30    57  59  37    53  55  31    59  62  37    60  62  38    49  52  27    35  37  12    26  28   4    22  24   3    21  23   3    16  21   3    14  17   3    19  22   4    29  32  13    29  32  12    19  22   4    14  17   1    18  21   4    17  19   3    15  18   1    19  23   1    25  28   4    43  47  19    65  70  38    88  94  60    45  50  18    27  34   3    39  45  17    47  53  25    50  57  29    50  56  30    40  46  20    33  39  13    40  46  20    37  43  17    33  39  13    36  42  17    45  51  25    47  52  29    41  47  22    38  44  18    39  45  19    31  35  10    25  29   5    24  28   5    28  31  10    30  33  14    31  34  18    35  38  21    40  43  27  
  47  49  25    56  58  34    50  52  29    54  57  31    54  56  30    47  50  23    43  46  19    49  52  25    59  62  35    66  69  42    62  66  38    60  65  36    68  72  45    79  83  56    72  76  51    49  53  28    31  35  10    27  31   8    22  27   6    35  40  13    34  39  12    20  24   3    36  41  10    96 101  69    86  92  58    41  46  14    53  60  29    46  52  24    38  43  16    44  49  21    57  62  36    54  59  34    47  52  27    50  55  30    46  51  26    40  45  20    35  40  17    36  40  18    40  45  22    45  49  27    48  52  31    50  54  32    49  52  30    38  41  19    31  34  15    35  38  22    38  39  26    33  35  23    29  31  22    30  32  20  
  31  33  13    35  37  16    40  42  21    44  46  24    44  46  23    41  43  20    42  44  19    52  54  29    63  66  40    70  73  45    76  81  50    75  80  47    73  79  46    71  76  43    67  73  41    64  69  37    61  66  34    59  64  32    54  60  28    60  65  33    56  62  30    43  48  15    46  52  19   110 116  82    77  83  49    67  72  40    68  73  43    53  57  30    36  40  13    37  41  14    48  52  27    46  50  25    42  46  23    49  53  30    50  54  31    51  55  32    48  51  30    41  44  23    39  42  22    42  45  25    42  45  26    39  42  22    41  44  24    31  34  14    25  27  12    28  30  16    29  30  21    22  23  16    19  20  14    21  22  15  
  21  22   6    20  21   5    29  30  13    33  35  17    35  37  18    33  34  15    28  29   9    29  31  11    37  39  17    44  46  21    55  60  29    54  60  26    59  65  31    52  58  24    51  57  23    58  64  28    53  59  23    52  58  22    49  55  19    67  73  38    47  53  18    40  46  11    63  69  34   106 112  77    76  82  47    70  75  42    63  67  40    53  57  31    44  48  22    44  48  22    42  46  23    33  37  13    27  30   9    31  34  13    41  45  23    42  45  23    37  41  21    31  34  14    26  30  12    28  31  13    32  35  17    34  37  20    27  30  12    24  27   9    21  23   9    18  20   9    19  20  12    19  20  14    17  18  13    14  15   9  
  24  24  14    24  24  14    37  37  25    38  38  26    37  38  23    29  30  16    20  21   7    18  19   4    23  24   8    29  31  10    40  44  17    40  45  13    49  54  22    44  50  16    49  55  21    60  66  30    57  63  25    59  65  28    49  56  16    61  68  27    41  48   8    45  52  11    79  86  45   100 106  68    75  81  44    63  69  35    46  50  23    38  41  16    33  37  14    35  39  16    31  35  12    23  27   4    18  21   1    21  24   3    32  35  14    29  32  11    24  27   8    18  21   2    15  18   1    19  22   5    28  31  14    35  38  21    24  27  10    30  32  18    30  32  18    20  22   9    11  13   3     9  10   2    11  13   5    14  14   7  
  27  26  21    24  24  17    33  33  25    31  31  23    27  27  17    21  21  12    17  17   7    17  17   8    22  22  12    27  28  14    28  31  10    25  29   3    34  38  12    31  36   7    37  43   9    50  56  20    50  56  18    58  64  24    56  63  21    61  68  26    74  81  39    90  97  55   111 118  76    89  96  55    55  62  21    32  38   3    37  39  15    26  27   6    16  18   1    16  18   1    21  23   2    30  32  11    43  44  26    56  57  39    46  47  29    42  43  25    33  34  16    23  24   6    16  17   1    14  15   1    18  20   4    24  25  10    26  28  14    31  33  19    34  36  22    29  31  17    23  25  12    25  27  13    30  33  19    35  37  22  
  28  28  22    21  21  15    23  22  17    21  20  15    19  19  11    17  17  10    18  18  11    20  20  13    23  23  16    25  25  16    25  28  13    20  23   4    27  31  10    25  29   5    31  36   7    45  51  17    47  53  16    58  65  24    60  66  25    56  63  19    72  79  34    79  87  42    97 104  61    73  80  38    56  63  22    36  42  12    32  34  10    23  25   7    17  18   3    19  21   4    26  27   9    36  37  19    49  50  32    60  61  43    48  49  31    44  45  27    37  38  20    26  27   9    17  18   3    11  12   1    12  13   2    14  15   3    16  18   4    16  18   4    18  21   6    24  27   9    30  33  15    36  39  18    38  41  18    38  42  16  
  28  28  19    22  22  14    20  19  13    19  18  13    19  18  13    18  17  12    19  18  13    19  18  13    20  19  14    20  19  13    23  24  16    15  17   6    22  24  10    22  25   6    30  34  10    44  49  18    49  55  20    62  69  28    84  91  49    72  80  34    65  73  26    65  73  26    94 101  57    91  98  54    77  84  41    55  61  25    30  32  11    29  30  15    29  30  15    31  32  15    33  34  18    33  34  18    32  33  17    32  33  17    39  40  22    39  40  22    38  39  21    35  36  18    32  33  15    30  31  13    32  33  15    35  36  19    27  30  14    31  34  18    38  41  23    45  48  28    47  51  28    49  53  26    53  58  27    57  63  28  
  19  19   8    21  21  11    13  13   3    14  14   7    15  15   8    16  16   8    16  16   8    16  16   9    20  19  14    21  20  16    19  20  16    11  11   7    15  16   9    14  17   2    20  23   3    32  36  10    36  43   9    50  57  18    85  91  48    90  98  51    82  91  43    95 103  54   116 123  77   101 108  62    52  60  14    26  32   3    35  37  16    33  33  20    29  29  17    28  29  14    30  31  16    33  34  20    35  36  20    36  37  21    31  32  14    33  34  16    34  35  17    33  34  16    33  34  14    35  36  16    40  41  21    44  45  27    33  36  19    39  42  25    48  51  32    54  58  36    53  58  29    54  60  27    63  70  31    74  81  40  
  16  16   4    21  21   9    14  14   4    15  15   5    15  15   7    12  12   4    10  10   2    11  11   3    16  15  10    20  19  15    22  22  22    13  13  12    17  18  15    17  19  10    23  26   9    34  38  13    38  43  11    53  60  19    69  77  31    93 101  50    87  95  45   103 111  60   109 115  67    84  92  45    37  43   1    40  44  10    24  26   5    24  24  12    23  23  10    22  23   9    25  26  12    30  31  15    33  33  18    33  34  18    41  42  24    41  42  24    40  41  23    39  41  20    39  41  20    44  46  25    51  53  33    57  60  39    39  42  23    33  38  18    34  37  16    39  45  19    45  50  20    49  55  20    54  61  20    61  67  24  
  19  19   9    17  17   7    19  19  11    17  17   9    13  13   5    12  12   4    13  12   7    16  15  10    19  18  13    19  18  14    21  21  22    18  18  20    22  22  22    28  29  23    30  33  19    37  41  18    61  65  32    86  92  48    74  81  30   106 115  57    96 104  46   109 116  61   104 107  60    83  89  45    55  57  21    33  33   6    31  29  12    15  13   1    18  16   3    25  23  10    20  18   5    26  24   9    36  37  21    34  35  17    33  34  16    37  38  20    39  41  20    36  38  17    36  39  18    44  48  25    54  58  35    59  63  40    51  56  32    52  60  35    26  33   6    43  53  23    51  58  27    45  53  18    39  47   8    60  68  26  
  18  18   9    16  16   7    14  14   6    13  13   5    13  13   5    13  13   5    14  13   8    15  15  10    15  14   9    13  12   8    17  17  15    14  15  13    18  18  14    27  28  18    36  38  23    50  54  29    75  79  44    99 105  61   102 109  57   103 111  54   111 116  59   106 111  58    94  96  52    49  51  14    55  56  27    52  52  30    25  23  12    15  13   3    17  15   5    22  19   9    19  16   5    25  22  10    30  32  16    26  27   9    29  30  12    29  30  11    29  32  10    35  38  15    45  49  25    52  55  30    48  52  25    38  44  15    50  57  24    36  47  10    48  58  21    53  63  26    48  58  21    53  64  25    57  66  26    78  86  45  
  15  15   7    12  12   4    13  13   5    13  13   5    13  13   5    14  14   6    15  14   9    15  14   9    12  11   6    10   9   3    10  11   4    21  22  13    22  24  13    22  25  10    49  53  32    89  94  65   103 107  70    89  95  50    79  86  34    71  78  25   100 105  52   134 137  90   107 109  71    60  60  30    39  39  17    23  21   6    13  10   4    11   7   4    13   9   5    15  12   6    18  15   8    27  25  14    30  30  17    24  25   9    28  29  11    29  31  10    29  33   9    33  37  11    43  47  19    50  55  25    50  55  24    44  52  16    47  57  13    66  78  30   103 115  67   102 114  66    50  62  14    80  92  45    85  94  49    73  82  37  
  13  12   6    10  10   4    16  15   9    14  14   8    14  14   5    13  13   5    14  14   7    14  14   6    12  12   5    11  11   2    13  15   3    13  16   4    20  23   6    40  43  23    69  73  48    85  90  58    79  84  44    64  70  24    58  65  14    61  68  16    97 100  52   128 131  87    73  75  41    48  48  22    31  30  13    21  19   9    13  10   6    14  10   9    13   9   6    15  12   7    23  21  16    31  30  21    32  32  20    29  30  14    20  23   4    22  25   4    22  26   3    24  29   3    33  38   6    46  52  17    55  63  27    59  68  26    75  88  34   120 134  75   135 148  89   147 160 102   114 126  68    86  97  43    72  82  31    55  65  16  
  17  15  10    15  14   9    20  19  14    18  17  12    14  14   6    13  13   5    13  13   5    13  13   5    14  14   6    13  13   3    15  17   3    11  14   1    12  15   1    24  27   6    41  45  20    59  64  32    78  83  43    91  97  51    76  83  32    69  76  25   108 111  64    92  94  54    56  57  25    35  35  11    32  30  15     9   6   1    14  11   4    16  13   8    16  13   6    26  23  14    42  42  31    48  49  36    47  48  33    52  54  36    25  29   6    22  25   1    20  24   1    26  31   1    43  48  14    58  64  28    62  70  31    59  68  23    80  94  35    83  98  32   107 122  55   110 125  60   105 117  53    67  78  19   128 139  84    78  88  35  
  19  18  13    21  20  15    21  20  15    18  17  12    15  15   7    13  13   5    13  13   5    13  13   5    13  13   3    12  12   2    10  11   1    23  26  12    29  31  17    24  27   9    35  40  17    61  66  36    76  80  43    73  79  36    83  90  39    79  86  34   106 110  60    69  72  29    35  36   3    27  27   6    30  29   8    17  17   1    11  12   1    14  15   1    17  18   1    38  39  20    64  66  44    63  65  43    57  61  37    69  74  48    56  60  33    56  61  30    55  60  28    57  63  29    63  71  34    69  77  40    66  74  37    60  69  24    54  65   8    44  56   4    78  89  26    90 102  38    94 106  42   105 117  55   148 157 100    55  64   9  
  21  21  15    22  22  16    21  21  15    19  18  13    17  17   9    16  16   8    15  15   7    14  14   5    12  12   2    11  11   1    14  15   8     9  10   2    10  11   2    20  21   9    37  40  22    62  66  40    81  85  51    87  92  51   100 106  58    98 105  53    99 103  51    94  98  48    84  86  44    91  92  55    53  53  25    20  20   1    29  33   5    29  33   4    37  41  10    63  66  34    79  83  50    64  68  34    52  57  23    65  70  36    58  64  30    63  68  35    63  69  35    56  62  28    46  53  19    42  48  15    42  49  16    45  52  13    56  66  15    78  89  32    80  91  33   103 113  56   119 130  70   126 137  78   121 130  73   137 146  90  
  26  26  17    23  23  14    29  29  21    26  26  18    23  23  15    20  20  12    18  18   8    16  16   6    13  13   3    11  10   4    10  10   8     6   6   6    11  12   9    14  15   8    24  26  14    59  63  42    86  89  59    80  85  45    92  98  50   123 130  76   114 119  64    98 103  48   103 107  56    93  96  51    62  64  25    38  40   2    73  79  33    69  76  28    76  83  35    89  95  49    86  93  48    72  79  35    67  74  32    74  80  40    68  74  36    62  68  32    54  61  27    49  56  23    47  54  22    47  54  22    48  55  23    49  57  23    60  68  29    43  52   8    45  54   8    57  66  17    73  82  30    80  89  36    91 100  44   127 136  79  
  25  25  14    29  29  18    30  30  21    27  27  17    22  22  13    19  19  10    17  17   7    15  15   5    13  13   3    10   9   4     9   9  10    10   9  13    10  10  11     6   6   3    17  18  10    51  54  37    69  72  44    53  58  20    68  74  26   116 123  69   105 110  53    84  89  31    80  85  29    87  91  41    57  60  15    63  66  20    84  91  38    84  92  37    96 104  50   113 122  68   112 120  70    90  98  50    69  76  32    62  69  27    47  55  14    48  55  19    46  53  20    44  51  18    40  49  18    40  49  19    44  52  23    47  55  27    44  50  22    63  70  39    75  81  47    64  71  32    79  86  43   100 107  59    83  91  39    68  77  21  
  29  30  17    26  27  14    26  26  15    23  23  11    20  20  10    18  18   8    18  18   8    18  18   8    17  17   7    15  14   9    10  10  10     9   9  11    12  12  12    14  14  12    13  14   6    20  23   6    33  36   9    41  45  10    65  71  25   127 134  80    91  96  38    79  84  26    80  85  29    97 101  50    80  83  37    95  98  51    86  93  41    69  76  24    68  77  23    84  92  41    84  92  43    65  73  26    59  65  23    68  75  34    47  55  15    43  51  14    40  47  13    41  48  17    46  55  24    49  58  29    43  52  25    35  43  19    27  32  12    47  53  32    63  67  43    50  55  24    50  56  19    57  64  22    45  53   4    44  53   1  
