P3
50 50
255
 105 104  59   105 103  62   119 117  79   163 163 124   133 137  87   112 119  67   106 112  62   102 108  62    85  90  48    69  73  36    70  75  41    76  79  48    59  63  33    76  79  50    80  84  52    82  86  53    75  79  44    75  80  40    91  96  55    87  91  54    66  69  39    62  64  42    60  62  40    65  67  45    73  75  51    75  77  53    69  71  49    61  63  41    66  68  46    79  81  59    74  76  54    51  53  32    46  47  27    59  61  40    63  65  44    51  51  34    63  64  48    84  85  71    85  86  72    96  97  83    84  85  69    75  76  60    63  66  49    88  91  72    72  75  56    62  65  45    65  69  47    59  63  41    50  55  33    47  51  29  
 105 103  63   102 100  61    94  91  56   107 107  70   106 109  62   118 125  73   129 135  87   118 124  78    97 102  61    87  91  54    76  80  45    58  61  29    89  93  60   101 104  72    74  78  45    75  79  44   104 108  71    98 103  63    73  79  36    58  62  23    62  65  37    59  61  39    61  62  41    66  68  46    67  69  46    61  63  40    58  60  38    59  61  39    59  61  40    46  48  27    50  52  31    65  67  47    60  62  44    41  41  23    42  43  25    62  63  47    66  68  51    58  59  45    41  42  28    46  47  33    62  63  47    67  68  51    65  68  48    78  81  61    81  84  63    67  71  48    70  76  52    68  74  48    59  66  39    48  54  27  
 103 101  62   120 118  81   129 126  92   119 119  82    95  98  52   106 112  63   110 116  69    95 101  56    82  88  45    88  93  53    82  87  48    58  63  25    58  62  26    55  59  24    67  71  35    97 101  66    95  99  62    73  78  39    77  82  43    79  83  48    61  64  37    58  60  38    58  60  38    62  64  42    65  67  45    65  67  45    64  66  44    63  65  44    68  70  49    69  71  51    68  70  50    62  63  45    54  55  37    48  49  31    46  47  29    47  48  32    43  44  28    35  36  22    35  36  20    37  38  22    61  62  44    61  62  44    70  73  52    76  80  58    73  77  54    60  64  40    71  77  50    84  91  61    88  94  65    76  83  52  
  74  73  37   101 100  66   143 140 107   112 112  76    94  96  55    82  88  42    83  89  44    94 100  56   104 110  66   107 112  69    90  96  53    64  69  27    51  55  16    88  93  53    97 102  63   102 106  70   105 109  73    90  94  60    89  94  59    96 100  68    90  92  67    81  83  61    68  69  48    62  64  42    73  75  54    86  89  67    81  83  62    65  66  47    66  67  48    68  69  51    63  64  46    55  56  39    52  53  37    55  55  39    53  54  37    47  48  32    47  48  32    35  36  21    40  41  23    39  40  22    60  61  41    60  62  42    73  77  54    73  77  54    77  81  56    62  65  39    71  78  48    90  98  65   104 111  79   100 107  74  
  67  66  34    84  84  50   133 130  97    86  86  50    92  94  55    87  92  52   100 105  63   109 114  73    96 102  58    80  86  40    75  81  35    72  78  32   122 128  82   137 143 100   119 124  83   115 118  82   132 136 101   131 134 102   112 115  84    86  89  62    97  99  75    82  84  62    60  62  41    57  59  38    81  83  62   108 109  90   102 103  85    81  81  63    70  71  53    66  67  49    64  65  49    66  67  51    66  68  51    64  65  49    61  62  46    60  61  45    42  43  27    40  41  25    54  55  37    58  59  41    62  64  44    67  69  47    85  89  66    88  92  68    78  82  55    66  71  41    72  79  46    85  92  59   104 111  77   118 125  91  
  62  61  31    75  74  44   118 118  84    83  83  49    79  81  44    85  89  53    88  93  53    71  76  35    57  63  17    78  84  36   114 120  72   133 140  91   114 120  72   116 122  76   121 126  84   124 129  89   103 107  74    95  98  68   114 117  90   109 111  87    87  89  65    64  66  43    47  49  26    55  57  36    81  83  62   100 101  83   101 102  84    94  95  79    76  77  61    81  82  66    80  81  65    70  71  55    63  65  47    66  67  49    68  69  51    67  68  50    69  70  52    79  80  61    95  97  76    99 101  80    72  74  52    66  69  46    68  72  47    66  71  43    57  62  32    61  66  34    76  83  50    81  88  54    96 104  67   119 127  90  
  57  56  26    79  78  47   114 114  80    87  87  52    71  75  40    82  86  51    90  95  55    81  86  45   103 109  63   133 139  91   135 142  91   119 126  75   116 122  74   134 140  94   115 120  76    91  96  56    81  85  52    69  72  43    64  68  41    64  66  42    71  73  48    50  53  27    40  42  18    49  51  29    59  61  40    58  59  41    57  59  42    62  63  47    59  59  44    57  58  42    60  61  45    57  58  41    47  48  29    53  54  35    74  75  56    88  89  70    92  94  73    85  87  66    86  88  67    95  97  74    78  80  57    77  80  55    64  67  41    56  61  31    54  59  27    65  70  39    86  93  59    78  85  51    82  90  54   100 108  72  
  71  70  40   106 105  73   125 125  90    82  83  47    79  83  47    82  86  50   107 112  72   119 124  83   138 144  98   121 127  79   110 117  67   117 123  74   116 122  74   108 114  68   101 107  64    89  94  54    68  72  39    57  60  30    55  58  31    50  52  27    46  49  21    48  51  23    52  55  29    56  58  35    53  55  33    47  48  29    45  46  29    48  49  33    44  45  29    40  41  25    50  51  33    49  50  31    43  45  24    72  74  52   102 104  83    98 100  78    79  81  58    66  68  45    75  77  54    81  84  58    82  85  59    73  76  49    55  59  31    58  63  33    66  71  39    86  91  59   103 110  77    82  89  55    78  85  51    88  95  61  
  99 100  67   118 120  84   127 129  92   100 102  65    96 101  62    98 102  63   120 125  84   140 145 104   123 129  85    86  92  46   109 115  68   106 112  65   102 108  61   101 107  62   104 109  68    99 103  65    81  85  51    71  74  43    67  70  40    60  63  33    62  65  35    61  64  34    61  64  36    60  63  37    54  55  32    49  51  30    53  54  36    60  61  44    56  57  39    46  47  30    47  49  29    45  48  27    46  48  26    72  74  50    90  93  67    78  81  55    76  79  53    71  73  47    79  82  56    75  78  50    74  76  48    71  73  45    55  60  30    55  60  30    51  56  26    75  80  50    85  92  61    94 100  69    91  98  65    74  81  48  
 130 132  94   121 123  86   124 126  89   129 131  92   128 133  92   137 143 100   142 148 104   126 132  89   113 119  75   104 110  66   123 128  84    96 102  58   100 105  63    93  98  56    92  97  57    93  97  60    93  97  62   102 106  73   109 113  80   104 108  75   107 110  76   104 108  75    97 100  69    85  88  59    68  71  44    54  57  33    52  54  34    57  58  40    60  61  43    58  60  39    61  63  42    58  61  38    59  61  37    78  81  54    89  92  63    78  81  52    70  73  42    80  83  54    98 101  72    94  97  68    93  96  67    96  99  70    80  85  55    73  78  48    64  69  39    67  71  44    71  77  49    87  93  65    84  90  62    58  64  36  
 149 151 111   138 140 101   141 144 106   149 151 112   118 124  78   114 120  72   127 132  86   118 124  80   133 139  96   115 120  79    92  97  57    97 102  62   101 104  68   100 104  68   104 108  71   101 105  70    94  98  61   100 104  67   108 112  75   106 110  72    85  89  51    91  95  58   100 104  69   105 108  77    99 102  73    88  90  66    81  83  61    82  84  63    73  75  54    73  75  54    76  78  56    81  83  59    91  94  65   101 105  73    92  95  64    70  73  41    71  75  42    75  78  47    88  91  60    90  93  62   104 107  78   121 124  95   101 105  78    85  89  62    68  72  45    92  96  71   115 121  96    79  85  60    62  67  44    72  77  54  
 122 125  80   110 113  72   108 110  71    95  97  57    95 102  53    93 100  49   108 114  66    96 102  56   114 119  78    99 104  65    80  84  48    97 100  67    87  91  57   102 105  73   117 121  87   110 114  79    90  94  57    83  88  48    85  90  49    81  86  44    89  94  52    89  94  54    91  95  58    92  96  62    87  90  60    78  80  53    72  74  50    72  74  52    72  74  52    81  83  61    82  84  60    75  78  51    78  81  50    86  90  57    86  90  57    82  86  52    79  83  49    71  75  42    70  74  41    66  69  38    80  83  52    97 100  71    79  83  56    62  66  39    69  73  48    75  79  56    93  98  76    65  70  49    60  65  43    74  79  60  
 122 125  79    99 101  60   104 105  68   101 103  64   121 126  78   117 122  72   114 120  72   101 107  62    98 103  62    89  94  55   103 107  72    90  93  61    94  97  65   100 103  71   106 110  76    99 103  67    87  92  53    88  94  52    90  96  51    81  87  41    87  93  48    86  91  49    89  93  54    93  97  61    91  94  62    81  84  54    71  74  48    66  68  45    51  53  31    67  69  47    71  73  49    68  71  44    77  80  50    86  89  57    85  89  54    83  87  52    71  75  41    78  82  49    90  94  61    77  80  49    69  72  41    73  76  47    66  70  43    69  73  47    98 102  78    99 103  81    87  91  71    68  72  53    62  67  48    61  64  48  
 127 128  88    99  98  61   111 109  75   137 136 101   139 140  99   128 129  87   108 111  68   111 115  73   102 105  64    87  90  50   106 108  70    93  96  58    97  99  61   104 106  68   105 110  68   100 105  62    93  99  54    89  95  48    93 100  50   102 109  59   103 107  59    96 100  54    97 100  58   106 109  70   109 111  77    96  98  67    77  77  51    63  64  40    65  65  44    58  58  37    61  61  39    78  79  54    94  95  68    93  94  66    86  88  56    86  88  55   109 113  81   110 113  82    69  72  40    59  62  32    61  64  35    60  62  35    68  70  45    99 101  79    93  96  74   108 110  91    99 101  83    70  72  55    48  51  36    48  49  36  
 111 108  75   114 111  78   116 111  80   107 104  73   117 117  80    96  96  59   105 105  67   105 105  67   108 110  70   124 126  86   118 120  78   121 124  82   109 112  68   113 116  71   105 111  63   100 106  58   103 110  59   103 110  59   103 110  58   110 117  65   103 108  58    93  96  50    95  98  53   107 109  69   105 107  70    86  87  55    73  73  47    75  75  51    57  56  36    58  57  37    61  59  39    68  67  46    75  75  51    85  85  59    98  98  70   109 109  81   117 120  91   105 108  79    55  58  29    62  65  36    75  78  50    87  89  65    95  97  73   106 108  86    76  78  57    86  87  69    83  84  68    62  63  47    46  47  34    47  47  34  
 100  97  65    91  88  57    80  77  46    74  71  40    94  94  58    96  96  60   126 126  90   126 126  90   116 118  79   122 124  85   115 117  77   122 124  84   126 130  86   124 127  84   108 114  68    98 104  58   101 107  59   100 106  58    95 102  51    96 103  52    99 102  55   106 109  64    99 102  59    80  82  44    75  76  42    82  83  52    79  79  53    66  66  42    52  51  30    67  66  45    72  71  50    65  65  43    69  69  45    87  87  61   100 100  72   102 103  72   114 117  88   114 117  88    95  98  69    97 100  71    82  85  59    91  93  69    92  94  70    81  83  61    69  71  49    75  76  57    74  75  59    62  63  47    49  49  35    43  44  30  
 108 105  74    85  81  51    90  87  57   115 112  81   125 125  91   119 119  83    98  98  62   103 103  67    91  93  54    83  85  47   116 118  78   122 124  84   128 130  88   121 124  82   109 115  69   106 112  67   107 113  67    98 104  57    96 102  55   108 114  67   114 117  74   116 118  77   108 110  71    97  98  62    94  95  64    94  94  64    78  78  52    57  57  33    52  51  29    63  62  40    70  69  47    70  70  46    78  78  51    87  88  59    80  81  50    64  65  34    82  85  56    99 102  73    87  90  61    85  88  59    81  84  57    88  90  66    70  72  48    62  64  42    68  71  50    73  75  54    72  73  55    59  60  44    44  45  29    39  40  26  
 113 109  79   108 104  75    99  95  66    91  88  58   126 125  93    94  94  60    79  79  45    83  83  49    84  86  49    89  91  54   102 104  66   112 114  75   119 121  82   108 110  70   101 106  64   114 120  77   126 132  88   113 119  74   102 108  63   109 115  71   115 117  78   106 108  70   107 108  73   116 117  84   107 107  78    80  80  53    64  64  39    65  65  41    55  55  31    61  61  37    67  67  42    73  73  46    78  78  49    80  81  50    75  76  44    68  69  38    90  93  63   105 108  79    81  84  55    72  75  46    86  89  62    91  93  68    60  62  38    76  78  56    88  90  69    80  82  61    67  68  49    52  53  36    46  47  30    49  50  35  
 116 112  85   106 102  74   102  98  70   105 101  72   121 120  89    95  95  63    96  96  64    76  75  43    66  68  33    88  89  54   101 102  67   126 128  90   125 128  90   117 119  80   107 112  72   116 121  81   131 136  94   122 128  86   105 110  69    99 104  64    92  93  56    91  92  58    89  90  57    82  83  51    71  71  43    63  63  37    65  65  41    71  71  47    74  74  50    81  81  57    86  86  60    86  86  58    83  83  53    83  84  52    85  87  53    88  89  57    78  81  50    90  93  64    83  86  57    76  79  50    68  72  44    67  70  43    53  55  31    98 100  78   107 108  87    94  96  75    72  73  53    55  56  38    54  55  38    62  63  47  
 102  98  71    96  92  65   100  95  69   109 105  76   106 105  75   110 109  78    86  86  54    70  69  38    63  64  32    88  89  56   131 132  98   131 132  98   102 103  69   108 110  73    96 101  63    83  88  50    88  92  55    93  97  60    88  92  55    81  86  48    85  86  54    72  74  42    69  70  39    79  79  51    80  80  54    72  72  46    71  71  47    82  82  58    90  90  66   100 100  74   103 103  75    96  96  68    90  91  60    87  88  56    77  78  44    66  67  35    69  72  41    61  64  35    76  80  50    85  88  59    59  62  35    52  55  28    45  48  24    85  87  63    89  91  69    89  91  69    77  79  58    59  62  41    59  60  42    65  66  48  
  75  71  44    91  86  59   109 105  76    88  84  55    87  86  56    74  73  43    81  79  49    82  81  51    71  72  41    93  94  63   117 118  86   111 112  80    95  95  64    89  90  57    96 100  65    91  95  60    58  63  28    83  87  52    94  98  63   101 105  72    90  91  60    68  68  40    69  69  41    84  84  57    78  78  52    66  66  42    68  68  44    78  78  54    80  80  54   105 105  79    95  95  67    90  90  63    91  92  61    87  88  57    88  89  57    70  71  40    81  84  53    64  67  38    65  68  41    70  73  46    57  60  32    49  52  25    63  65  40    77  79  55    71  73  51    89  90  69    90  92  71    75  77  56    62  64  43    52  54  33  
  74  71  44   100  96  67    99  96  67   106 103  73    82  81  51    88  87  57    74  73  44    66  65  35    78  78  49    82  83  53    81  81  51    88  89  59    96  97  67    77  77  47    77  80  48    72  74  44    56  59  27    63  66  36    77  81  49   100 103  73   102 102  75    79  79  52    74  74  48    84  84  58    77  77  52    65  65  40    67  67  43    74  74  49    68  68  42    86  86  60    83  83  55    91  91  63    98  98  68    90  90  60    90  91  60    83  84  53    94  97  68    99 102  73    86  89  62    76  79  52    80  84  57    73  76  49    70  72  48    86  88  63    73  75  52    83  85  63    85  87  65    78  80  59    75  78  56    72  73  52  
  95  94  64    97  96  65   104 103  71    87  87  54    74  73  43    88  87  59    65  64  36    58  57  29    89  89  61    88  88  60    73  73  45    88  88  60    84  84  56    60  60  33    66  69  39    71  74  46    87  90  60    75  78  50    69  72  42    80  83  55    84  84  57    67  67  41    69  69  43    83  83  57    81  81  55    70  70  44    67  67  41    67  67  41    66  66  40    73  73  47    68  68  40    76  76  48    87  87  59    89  89  61    96  97  67   103 103  74    77  80  52    92  95  68    79  82  55    68  71  44    84  87  60    85  88  61    85  87  63   106 108  84    88  90  66    88  90  67    86  88  66    80  82  60    79  81  59    81  83  61  
  99  98  68   112 112  79    97  97  62    92  92  58    90  89  59    89  87  61    71  69  43    68  67  41    86  86  60    88  88  61    79  79  52    83  83  57    74  74  48    70  70  46    86  89  61    76  79  54    84  87  60    65  68  43    60  63  35    72  74  48    69  69  43    57  57  31    62  62  35    76  76  50    78  78  52    75  75  49    76  76  50    75  75  49    72  72  46    79  79  53    76  76  50    73  73  47    83  83  56    89  89  63    88  88  61    89  89  63    74  77  50    76  80  53    78  81  54    77  80  53    74  76  50    71  74  47    84  86  60   101 103  77   102 104  80    97  99  75    92  94  71    78  81  57    64  66  42    63  65  41  
  86  86  52    99  99  63    99  99  61   112 112  76    93  92  64    77  75  50    68  66  41    69  67  42    69  69  43    75  75  49    80  80  54    76  76  50    66  66  42    74  74  50    91  93  69    77  79  55    73  75  50    72  74  50    73  76  51    80  82  58    67  67  41    67  67  41    82  82  57    98  98  72    97  97  71    88  88  63    80  80  54    70  70  45    72  72  46    76  76  50    76  76  50    63  63  39    72  72  48    85  85  61    78  78  53    78  78  54    75  78  51    73  76  49    90  93  66    98 101  74    76  79  52    66  69  42    79  82  55    88  90  63    84  86  62    81  83  59    87  89  65    81  83  59    64  66  42    67  69  45  
  89  89  56    82  82  45   102 102  64   108 108  72    90  89  61    79  77  53    70  68  45    67  65  42    65  65  40    65  65  41    70  70  46    76  76  52    86  86  62    78  78  54    84  86  64    85  87  65    71  73  51    85  87  65    76  78  56    66  68  44    88  88  62    87  87  59    96  96  68   100 100  72    93  93  65    87  87  59    86  86  58    82  82  54    72  72  46    64  64  38    63  63  39    53  53  29    64  64  40    77  76  55    71  70  49    84  84  60    69  72  45    84  87  60    93  96  69    89  92  65    80  83  56    70  73  47    72  75  48    82  85  58    92  94  69    79  81  57    82  84  60    83  85  61    72  74  50    80  82  58  
 107 107  73   127 127  92   125 126  88   141 142 105   117 117  85   110 110  79    92  91  61    81  79  53    78  78  51    66  65  39    57  56  32    65  64  41    78  78  54    75  74  51    78  77  56    81  80  59    57  58  36    83  82  60    85  87  64    89  89  65    81  82  53    88  89  58   103 104  72   104 104  75    91  91  63    85  85  57    81  81  54    70  70  44    69  69  44    60  60  37    66  65  42    67  66  45    74  73  52    74  73  52    65  64  42    77  76  56    84  85  62    99 100  77    92  93  70    73  75  52    72  73  50    66  67  44    57  59  36    67  69  46    87  88  65    70  72  48    68  72  44    75  78  50    79  82  53    93  96  65  
 108 109  75   114 115  81   120 121  86   115 117  80   130 130  93   117 117  80    97  97  62    89  88  56    89  88  58    75  74  46    57  55  30    53  51  28    75  73  51    88  86  65    79  77  56    73  71  50    55  54  31    74  72  49    80  79  54    88  87  60   101 102  70    91  92  60    85  86  54    78  79  48    69  69  41    73  73  46    76  76  51    65  64  42    61  60  40    55  54  34    57  56  36    67  66  45    69  68  47    68  67  46    77  77  53    92  92  69    96  95  74    81  80  60    84  83  63    76  75  55    65  64  44    68  67  47    66  68  47    73  75  54    81  83  61    69  71  46    82  87  56    99 105  72    92  98  62    95 101  63  
  95  96  62    77  78  44    81  82  48   101 102  67   112 112  75   108 108  72    93  93  59    82  81  49    82  81  51    75  74  46    66  64  39    64  62  39    70  68  47    76  74  53    70  68  47    70  68  47    61  59  36    73  71  48    79  77  52    88  87  59   103 104  73    92  93  62    80  81  50    77  77  48    74  74  48    66  66  41    60  60  36    63  62  41    51  50  30    56  55  35    57  56  36    57  56  36    63  62  41    74  73  52    78  78  54    73  73  49    83  83  59    77  77  54    88  87  65    79  78  57    62  61  40    63  62  41    65  67  46    77  79  56    69  72  46    67  70  42    99 105  71   123 129  93   106 112  72   100 107  65  
  97  97  64    85  86  52    87  88  54   105 106  72    99  99  65   102 102  68    92  91  60    81  80  50    84  83  54    85  83  58    78  76  53    75  73  50    62  60  39    70  68  47    69  67  46    64  62  41    67  65  42    88  86  63   100  98  73   101 101  73    94  94  65   119 119  91   120 120  92    98  98  72    80  80  56    65  64  42    56  55  34    64  63  43    75  74  54    60  59  39    54  53  33    62  61  41    63  62  41    55  55  33    61  61  37    74  74  50    71  71  45    76  76  50    97  97  71    86  86  63    61  61  35    55  55  29    55  58  31    67  70  43    69  72  44    83  86  55    96 102  67   102 108  70   103 110  69   105 112  70  
 117 118  84   109 110  77    91  92  60    87  88  56    90  91  60    94  95  65    86  87  56    78  78  50    83  83  57    83  83  59    73  73  49    66  66  42    64  63  42    64  63  42    70  70  45    76  76  52    86  86  60    88  88  63    97  97  69   102 102  74   119 119  92   126 126 100   109 109  83    87  87  63    81  80  59    74  74  54    67  66  46    71  70  52    65  64  46    78  77  59    93  92  72    97  96  76    86  85  64    73  72  51    71  71  47    77  77  53    66  66  40    73  73  45    96  96  68    85  85  59    64  64  36    65  65  37    74  77  48    90  93  62    94  97  66    82  85  53    96 102  66    97 103  66    83  90  50   110 117  75  
 121 122  88    97  98  66    85  86  54    93  94  63    87  87  60    89  89  63    82  82  54    78  78  52    82  82  58    78  78  54    67  67  43    65  65  41    75  75  51    67  67  42    81  81  56    93  93  69   100 100  74    77  77  50    77  77  49    84  84  56   107 107  81    89  89  65    76  76  52    77  76  55    78  77  57    69  68  48    68  67  49    78  77  59    89  88  70    99  98  80    93  92  72    75  74  54    77  76  55    93  92  71    89  89  65    69  69  45    67  67  41    77  77  51   103 103  76   101 101  76    89  89  61    92  92  65    93  96  68   100 103  74    86  89  58    91  94  63    85  91  56    80  86  51    91  97  60    96 103  64  
  91  92  59    81  82  50    81  82  51    80  81  51    77  77  51    79  79  55    76  76  51    77  77  53    79  79  55    73  73  49    70  70  46    79  79  54    80  80  55    88  88  62   102 102  76    89  89  63    93  93  65    82  82  54    83  83  55    72  72  44    76  76  50    62  62  38    62  62  38    68  67  46    68  67  47    72  71  51    77  76  58    74  73  55    79  78  60    70  69  51    75  74  54    90  89  69    86  85  64    66  65  44    55  55  31    61  61  37    67  66  44    73  72  50    97  96  73    97  97  74    90  90  66    95  95  71    90  93  68    89  92  67    90  92  66    93  96  69    81  85  57    82  86  57    94  99  69    77  82  52  
  67  68  36    72  73  41    76  77  46    69  69  41    67  67  41    67  67  43    64  64  39    64  64  39    72  72  47    81  81  56    88  88  63    93  93  66    99  99  72    96  96  68    94  94  67    89  89  62    99  99  71   109 109  81   106 106  78    84  84  57    57  57  31    68  68  44    46  46  22    49  48  27    59  58  38    72  71  51    89  88  70    70  69  51    61  60  42    64  63  45    75  75  55    80  79  59    68  67  46    57  57  36    56  56  32    57  56  34    54  53  34    64  62  45    73  72  55    70  68  51    76  75  56    89  88  69    85  86  67    72  74  54    77  78  58    76  77  57    77  80  59    78  81  59    72  76  53    62  65  42  
  71  72  40    65  66  34    69  70  39    80  80  52    87  87  61    82  82  56    73  73  48    70  70  42    78  78  50    90  90  63    95  96  65    92  93  63    93  94  63   109 110  79   111 112  82    96  96  68    94  94  66   107 107  79   111 111  83   102 102  74   102 102  74    48  48  22    43  43  17    63  63  39    73  72  51    66  65  45    91  90  70    75  74  56    69  68  50    67  66  48    70  69  49    67  66  46    55  54  33    52  51  30    57  57  33    57  56  35    62  61  45    59  57  45    50  48  36    46  44  31    59  56  43    75  74  60    72  73  57    58  59  45    38  39  23    41  42  28    46  48  34    50  52  37    50  52  37    52  54  39  
  65  66  34    70  71  39    82  83  52   100 101  70    84  87  58    77  81  51    74  77  47    80  83  51    94  97  65   101 104  73    92  97  63    80  84  50    71  75  42    89  92  59    81  85  51    62  64  33    63  66  35    69  72  41    77  80  51    91  94  65   108 109  77    74  75  44   103 104  73    82  82  54    78  78  52    60  60  36    79  78  56    71  70  50    60  59  39    57  56  36    68  67  47    77  76  56    71  70  49    64  63  41    63  62  41    61  60  40    66  64  52    58  55  45    45  42  33    41  39  27    55  53  40    70  68  56    71  72  58    64  64  52    48  48  35    44  44  32    39  41  30    36  38  27    32  33  25    32  33  25  
  82  83  52    99 100  68    99 100  69    96  97  66   106 110  77   103 107  74    98 102  68    91  95  60    86  90  54    87  91  54    91  95  57    94  99  61   117 121  83   103 107  71    70  74  39    60  64  31    72  75  44    65  68  37    64  66  38    89  92  61   109 110  77   119 120  84   103 105  71    73  74  42    92  93  63    82  82  55    81  81  56    74  73  51    66  65  44    60  59  39    71  70  50    85  84  64    84  83  63    80  78  58    79  78  57    76  76  57    62  60  47    66  63  53    61  58  48    54  52  40    62  60  47    76  74  62    73  74  59    61  61  49    53  53  40    47  47  35    39  41  30    35  36  28    34  35  29    35  36  30  
  96  97  65   109 110  78   108 109  77   113 114  81   110 114  78    97 102  64    82  87  48    73  78  39    75  80  40    85  90  50    99 104  62   109 114  74    94  99  59    96 100  62    78  82  46    67  71  37    75  78  46    75  78  47    79  82  53   102 105  73   121 123  84   131 134  93   101 103  65   106 108  71   105 106  73    93  94  62   112 112  85   107 107  82    76  76  53    64  63  42    64  63  42    70  69  49    74  73  53    83  82  62    93  92  71    93  92  72    67  65  51    68  66  53    59  57  44    53  51  37    66  65  49    84  82  67    74  75  58    51  52  37    60  61  46    55  55  42    45  47  35    39  40  31    37  38  31    38  39  33  
 119 120  88   114 115  83    99 100  68   107 108  74   108 113  74    91  96  55    79  84  44    85  91  48    99 104  61   102 108  65    96 102  56    88  93  50    90  95  54   104 109  69   103 107  70    89  93  58    84  88  55    90  92  61    94  97  67    97 101  68   121 123  83   126 129  85   114 117  75   119 121  81   132 134  97   136 137 103   131 132 102    78  78  51    54  54  30    50  49  28    54  53  32    61  61  40    72  71  51    90  89  69    99  98  78    90  89  69    69  68  51    58  56  41    49  47  30    53  52  35    70  69  50    82  81  62    76  78  57    64  66  46    76  78  58    71  72  55    59  61  45    48  49  36    43  44  34    43  44  37  
 107 108  76   111 112  78   102 103  69   108 109  73    76  81  41    93  99  55   112 118  72   114 120  74    97 103  55    82  88  41    88  93  46   101 107  61   107 113  69    90  95  54    83  88  48    90  95  58   101 105  70   107 110  78   101 104  75    88  92  59    92  94  55   109 111  71   110 113  73    84  86  49   147 148 114   145 146 114   105 105  77    63  63  37    46  46  22    47  46  25    52  51  30    58  57  36    71  70  49    93  92  71    96  98  76    82  80  60    65  64  45    53  52  33    53  52  32    67  66  45    69  68  47    62  62  38    64  66  42    78  80  56   102 103  82    94  96  75    76  79  59    56  59  42    45  47  33    43  45  33  
 101 101  67   101 101  65   109 109  73   120 122  83   106 112  66    90  98  49    74  82  33    76  84  35    99 107  56   114 122  71   101 109  58    77  85  35    84  92  43    84  92  45    87  94  50    96 103  62   112 118  80   120 126  90   108 114  80    92  96  63    89  88  58    77  76  46    65  64  34    70  69  42   104 102  78   136 134 111   106 106  82    45  44  24    39  41  19    55  57  35    65  67  45    77  79  57    73  75  51    87  89  65   105 109  82    71  73  49    66  65  44    40  39  19    44  43  22    64  64  40    70  72  48    95  98  71   129 132 104   138 141 114   111 115  88    69  73  48    81  85  60    83  86  65    65  68  49    64  67  50  
  98  98  64    88  88  52   120 120  82   130 132  92   106 112  66    92 100  52    90  98  50   103 111  60   114 122  72   113 122  71   109 117  67   109 117  69   119 127  79   120 128  81   124 131  87   127 133  92   124 132  91   118 124  86   111 118  81   109 113  80   101 100  72    76  73  48    55  53  30    64  62  39    87  85  64    97  95  74    75  74  54    44  43  23    48  50  29    44  45  25    54  56  34    67  69  47    77  81  54   128 131 105   101 106  76    84  87  60    60  62  40    53  53  31    56  56  32    73  73  49   102 105  78   139 143 116   147 150 121   125 128  99    89  94  65    82  86  59    72  76  51    71  75  52    79  82  61    68  71  52  
  99  98  66   109 109  75   113 113  78   106 108  70   100 105  63   118 126  81   120 127  82   103 110  64   107 115  68   135 143  96   146 153 107   135 142  97   134 142  95   135 142  97   131 138  95   118 125  83    99 106  66    85  91  54    79  85  49    81  85  52    80  80  52    61  59  34    53  51  28    66  64  41    74  72  51    63  61  40    53  52  32    56  55  35    56  58  37    49  51  30    46  48  26    51  53  31    98 102  76   124 128 101   118 123  93    86  89  62    71  72  47    76  76  52    89  89  65   110 110  86   119 122  95   111 114  87    99 102  73    96  99  71    83  87  60    68  72  46    52  56  32    70  74  52    78  81  61    71  74  56  
 108 107  77    98  97  65   100  99  67    89  90  55   111 116  78   118 125  85   116 123  81   106 112  71   108 115  72   122 129  86   129 136  94   126 133  90   122 129  84   129 136  93   128 135  93   116 123  82   104 110  72    94 100  64    78  84  48    62  65  34    54  54  26    53  51  26    51  49  26    60  58  35    65  64  43    51  50  28    42  41  21    52  51  31    52  52  32    54  54  33    43  45  24    35  37  15    86  88  64    84  86  61   109 112  85    77  80  53    97  97  71   101 101  76   105 105  80   116 116  91   127 128 101   123 124  96   112 115  88   112 115  89    78  81  54    91  94  69    65  69  46    73  76  55    88  91  72    68  71  54  
  88  87  59    81  80  50    91  90  60    89  91  58   101 106  72    92  98  64    97 104  67   115 121  85   118 124  86   101 107  69    92  99  58    96 102  62    89  96  55    93  99  58    92  99  58    92  98  60   101 107  70   108 114  80    96 102  68    79  82  51    74  74  46    76  74  49    62  60  37    58  56  33    67  66  45    60  59  38    41  40  20    40  39  19    44  43  23    40  39  19    42  44  23    34  37  15    45  47  24    85  87  63    89  92  65    99 102  75   117 117  91   110 110  84   112 112  86   126 126 100   136 136 108   133 133 107   120 123  96   112 114  89    98 100  76    92  94  72    64  67  46    67  70  51    85  88  71    78  80  66  
 122 120  95    88  87  59    64  63  35    86  86  57    76  79  50    84  87  58    93  96  65   100 103  73   101 105  72    97 101  66    92  95  59    87  91  54    89  93  56    77  81  45    74  78  41    86  90  55    98 102  68   100 104  71    97 101  68    94  98  67    92  92  64   105 105  79    92  92  68    78  78  54    81  80  60    69  68  47    49  48  29    53  52  34    63  62  44    50  49  31    47  46  26    48  47  27    38  40  18    93  95  73   104 106  82   116 119  93   107 107  81    93  92  64    97  96  68   103 102  74    94  94  68    96  96  70   108 108  82   108 107  84    82  84  62    58  60  39    75  76  56    77  77  60    58  61  44    70  72  58  
  85  84  59    84  82  57    74  73  45    71  71  43    75  78  51    83  85  60    83  86  57    85  88  59    83  86  56    82  86  53    88  92  60    88  92  57    88  92  58    85  89  55    89  93  59   102 106  74   107 111  79    94  97  67    82  85  54    83  86  57    85  86  59   109 109  83   107 107  84    93  94  70    86  85  64    68  67  47    59  58  40    76  76  58    91  90  73    74  72  55    54  54  34    54  53  33    52  53  32    79  80  58   114 116  94    95  95  72    93  91  66   109 108  80   114 113  86   102 100  75    92  91  66    94  93  69    82  82  58    60  59  38    55  57  36    66  66  48    81  81  63    68  69  53    71  73  56    74  76  62  
  88  86  61    84  82  57    66  65  37    82  81  53    69  71  44    77  79  55    74  77  50    85  88  60    89  92  63    83  86  55    89  93  60    81  85  52    80  84  51    91  95  62    87  91  58    81  85  53    90  93  63    96  99  70    90  93  64    88  91  63    86  89  62    95  98  71    94  96  72    88  90  67    87  86  65    78  77  57    79  78  60    94  93  75    90  88  73    74  72  57    60  59  41    50  49  31    50  49  29    68  67  47    77  76  56    67  65  44   106 104  79   129 127 101   132 130 105   120 118  94   105 103  79    76  74  52    55  54  34    61  60  41    64  63  44    83  82  64    76  77  60    61  62  46    71  72  56    67  68  52  
  87  85  60    82  80  55    74  73  45    73  72  44    70  70  44    74  74  49    83  84  57    84  85  59    83  84  56    87  88  57    90  92  60    96  98  66   102 104  72    91  93  61    80  82  51    78  78  49    84  85  57    97  98  71   105 105  79   104 105  78    91  94  67    86  89  62    88  91  66    92  94  72    87  88  66    79  81  60    82  81  63    89  88  70    78  77  62    80  78  63    54  52  36    44  42  26    61  59  41    51  48  30    34  31  13    47  44  24    86  84  61   122 118  95   125 123  99   105 103  82    94  92  71    79  76  56    68  65  46    79  76  59    69  68  50    78  77  61    66  66  48    69  69  51    61  62  45    50  51  33  
  80  78  53    79  77  52    87  86  58    71  70  42    78  78  50    73  73  47    88  88  60    79  79  51    76  77  47    84  85  54    79  80  48    95  96  64    96  97  66    84  85  54    84  84  55    84  84  55    73  73  47    79  79  55    96  96  72   101 101  77    95  98  71    80  83  55    87  90  63    95  97  73    78  80  58    64  66  45    66  66  47    64  62  47    63  61  46    78  76  61    61  59  44    55  53  38    78  76  58    69  66  49    56  52  36    80  78  60   124 119  99   109 104  84   112 110  89   113 111  91    89  86  67    75  73  55    75  72  55    66  63  48    55  53  38    66  64  49    64  63  45    69  68  50    60  61  43    49  51  30  
