P3
50 50
255
  46  46   8    59  60  19    91  92  51    74  75  35    50  50  11    50  50  14    66  64  31    78  75  44    59  57  21    50  49   5    65  64  15    98  97  48    95  93  49    36  33   8    38  34   6    46  42  17    39  35   9    64  61  32    55  52  17    58  56  16    77  77  32    95  94  50    73  72  26    45  46   5    30  32   1    60  62  13    46  49   4    63  67  16    73  78  25    72  77  23    36  41   1    59  64  12    88  95  37    91 100  38    85  93  33   152 159 103    87  93  45    47  51  13    48  52  20    43  46  18    43  45  21    49  53  27    62  67  36    54  59  23    68  75  34   101 108  64    99 105  57    78  85  33    72  79  28    75  82  33  
  36  36   1    58  59  15    75  76  32    60  61  18    62  63  23    73  73  35    77  76  41    70  67  35    56  53  16    54  53   8    58  58   8    84  83  34    87  85  42    47  44   9    42  38  11    43  38  16    46  42  18    76  73  43    61  58  21    53  51  10   102 100  59    96  94  53    68  67  23    52  53   7    42  44   1   103 105  56   100 103  49    72  77  20    53  58   3    70  75  16   107 112  50    97 104  42    91 100  36    92 101  33    79  88  21   148 156  97   104 111  59    51  57  13    44  48  13    51  54  25    42  46  19    50  54  26    60  65  33    63  69  32    63  70  28    75  82  38    80  88  38    80  87  34   106 111  59   130 134  83  
  48  49   5    80  81  37    73  74  30    53  54  11    72  72  31    74  75  36    71  70  33    59  57  18    40  39   1    46  45   1    67  67  17    98  97  48    73  72  29    52  49  16    51  47  22    42  37  15    43  38  14    65  62  31    62  60  23    69  68  25   118 116  75    61  59  17    55  54  10    56  57  11    59  62  13    74  77  26   122 125  71   111 116  59    54  59  10    63  69   9   152 158  96   112 119  54    75  84  18   106 115  47    77  87  18   139 148  85   107 115  62    41  47   4    45  49  15    27  30   3    38  41  15    45  48  21    55  60  28    72  78  39    64  71  27    60  68  21    81  89  37    94 101  47    77  83  31   102 109  58  
  61  61  19    94  95  51    80  81  37    64  65  22    82  83  41    67  68  28    56  57  14    49  48   7    44  43   1    42  42   1    53  53   4    92  92  44    76  75  34    48  45  13    48  44  19    50  45  23    47  42  18    52  48  16    57  55  16    82  81  37    97  95  54    52  50   9    65  64  22    90  91  45    60  62  13    89  91  41   133 137  83   106 112  54    58  64   9    62  68   5   142 148  84   100 107  46    56  66   7    93 103  33    78  88  19    98 107  44    78  86  34    52  57  18    58  62  30    30  32   8    34  36  12    36  39  13    46  51  19    68  74  36    70  78  32    71  79  27    82  91  37    79  86  32    50  57  11    86  93  43  
  55  54  10    79  78  33    74  73  27    79  77  33    95  94  50    74  72  30    75  75  29    71  71  19    49  50   1    50  50   1    65  65  13    89  88  42    72  69  31    39  35   6    37  33   8    49  44  21    63  60  33    66  63  30    62  59  20    65  64  20    58  56  16    44  43   9    72  71  27    53  54   8    48  50   1    54  56   8   131 134  78   117 123  64   104 110  47   112 119  52   142 149  81   110 118  48    64  74   2    83  93  21    99 109  38    72  81  17    61  69  15    71  76  36    50  53  24    46  48  25    34  36  15    31  33  10    39  43  13    54  59  20    71  76  29    85  93  38    88  96  39    88  97  42    81  88  35    96 102  53  
  62  60  19    62  60  16    61  60  14    76  75  31    88  87  43    69  68  24    90  89  38   108 109  49    75  76  16    92  93  35   116 116  62    96  95  49    58  56  18    46  42  11    38  34   8    33  29   4    64  61  33    82  80  45    74  72  32    47  46   2    46  44   3    70  68  26    67  66  21    53  54   6    52  54   4    70  73  20    94  98  42   116 122  61   112 118  53   120 127  59   117 124  54   106 115  41    75  85  11    95 106  30    90 100  28    82  91  27    77  84  33    63  68  30    47  49  23    44  47  25    36  37  19    31  33  11    36  39  10    44  49  10    64  70  23    84  91  37    91  98  43   102 110  57   114 122  70   116 122  76  
  87  87  42    64  63  18    59  58  12    70  69  23    72  71  25    52  51   5    70  71  15   118 121  54   127 130  63   128 130  66   109 110  54    72  71  25    64  62  24    61  57  26    47  43  16    32  27   2    59  55  25    77  74  38    74  73  31    41  40   2    39  38   1    54  53   8    62  61  15    62  64  16    88  90  40    74  77  22    87  91  33   101 107  44    89  96  29   109 116  46   117 125  52   116 125  50   119 130  54   102 113  37    60  70   3    81  90  26    77  83  33    53  58  21    61  64  37    49  50  31    31  29  14    32  31  12    39  40  12    57  59  21    66  70  21    80  85  29   102 110  54   111 118  66   108 115  67   105 111  67  
 103 101  59    69  68  24    62  61  15    68  68  22    66  65  19    44  43   1    55  56   7   121 125  53   138 142  71    98 100  36    66  67  11    56  55   9    74  71  33    54  51  18    49  46  15    50  47  16    66  63  29    65  63  23    63  62  19    36  35   2    42  41   1    61  60  14    69  68  21    68  69  19    56  59   6    73  76  19    96 100  40    88  95  29    72  79  10   105 113  40   123 132  57   103 112  36   119 130  52    92 103  26    78  88  16    74  82  21    49  55   8    53  57  21    44  46  21    41  42  26    20  18   5    29  27  11    41  41  15    73  75  38    74  77  32    77  81  30   113 117  65   106 109  63   100 103  61   102 104  67  
  63  60  17    56  52   9    66  63  17    51  50   7    61  59  12    51  49   1    69  70  12   134 138  64   111 115  44    53  55   3    65  66  11    42  41   4    58  56  16    55  52  16    38  35   2    75  73  35    86  84  44    65  63  21    63  62  17    66  65  17    54  53   4    65  65  15    60  60   9    87  89  35    74  77  21   103 107  48   109 114  55    67  74  13    80  87  18   100 107  35   109 118  42   110 119  41   123 134  56    84  95  20    99 110  40   120 128  69    42  49   3    44  48  16    46  47  23    54  53  35    38  36  21    37  35  19    44  42  20    58  57  26    66  67  27    79  82  34   121 123  78   105 107  68    79  80  45    88  87  56  
  55  52  12    40  37   1    65  62  16    73  71  23    88  86  37    55  53   4    76  76  18   137 140  67   115 119  48    60  62   4    59  59   5    55  55   7    45  43   2    38  35   1    40  38   1   118 117  73   109 108  64    48  47   3    76  76  28   110 110  60    57  57   5    64  64  12    98  98  44   110 112  56    76  79  21   113 117  56   128 133  68    69  76   7    71  78   6   134 142  67   100 108  31    87  96  23    65  76   6    68  79   6   125 136  70   116 124  66    49  56   8    55  59  23    64  64  40    58  56  38    63  61  46    59  56  40    59  56  36    73  72  44    60  57  24    74  72  34   145 142 107   113 110  81    89  85  60    93  88  66  
  59  56  13    52  49  10    92  90  42    79  77  29    91  89  38    95  93  42   126 127  67   118 121  52   122 124  57    79  79  21    50  50   1    55  55   5    57  56   8    62  61  12    67  67  15   121 121  66   105 105  57    54  54  11    83  83  32    92  92  40    63  63  10    66  67  17   125 126  68   110 113  52    66  70   7   106 111  46   113 118  55    47  54   1   107 115  49   154 162  87   129 137  60   123 132  54    61  72   5    69  80  15   146 157  93    96 105  49    41  48   2    48  52  15    63  64  37    44  43  23    49  46  31    70  67  51    64  60  42    59  54  33    66  62  37    73  68  40   105  99  74    95  88  68    82  75  58    71  63  50  
  56  53  12    78  76  30    99  97  49   104 102  52   103 100  50    73  71  20   140 140  81   111 113  48   113 115  53    81  82  25    72  72  20    70  70  20    75  75  24    74  75  20    86  87  29   103 104  44    99 100  41    85  86  28    96  96  43    85  85  33    69  70  12    84  85  25   130 131  71    85  88  26    56  61   1    91  96  30    91  96  30    57  64   1   121 129  57   109 117  42    83  91  14   113 122  45    84  95  19    93 103  36   132 142  81    70  79  25    40  47   2    48  53  15    70  71  43    59  58  36    66  63  46    43  39  24    58  52  38    57  51  35    51  44  28    49  42  24    52  42  29    44  33  24    47  34  28    89  75  72  
  60  57  14    70  68  22   107 105  57    87  85  34    67  66  13    50  49   5   100 100  43    95  96  37   123 123  68    80  80  28    78  78  28    68  68  17    89  90  35    70  72   9    68  71   2   104 107  37   106 109  42    68  70   9    66  66  11    74  74  21    74  75  14   105 107  44   119 121  56    74  78  12    79  84  17    93  98  31    66  72   8    46  54   1    90  98  29   121 128  53    67  75   1    83  92  15    95 106  30   139 149  85   118 127  71    72  80  29    57  64  19    51  55  17    57  59  27    54  54  29    51  48  30    23  19   4    41  35  24    52  44  36    59  50  43    55  46  39    44  32  29    49  33  33   102  86  88   158 142 145  
  54  51  10    66  63  20   112 110  61    82  80  30    59  57   4    61  60   4    76  75  22    50  51   1   115 115  64    65  64  16    60  59  11    68  68  17   101 102  44   123 126  57    66  70   6   108 112  35   138 142  68   103 106  40    85  86  28    61  62   5    95  98  34    91  94  27    78  81  14    94  98  31   137 143  74   108 114  46    58  65   5    81  89  16   104 112  37   113 121  46    77  85   8    82  91  13   126 137  62   134 143  82    71  79  27    58  65  17    60  67  22    52  56  17    50  51  18    51  51  24    41  39  18    52  46  31    46  38  29    44  34  31    49  39  38    31  19  21    49  33  39   124 103 113   191 169 181   212 192 203  
  43  38   3    89  85  39   101  97  48   123 120  68   103 101  48    59  56   3    73  72  20    44  44   1    75  75  28    46  45   4    71  70  23   105 105  53   104 106  43   106 110  37    67  72   3   135 140  59   127 132  54    85  88  18    89  91  32    86  87  30    77  79  14    99 102  33   107 110  40   112 117  45   104 110  38   117 123  51   105 112  39    77  85  10   107 115  40    89  97  22    97 105  30   120 129  53   151 162  89   112 121  62    59  67  20    57  65  18    57  63  20    52  57  16    52  54  19    50  50  22    50  48  26    45  39  24    51  44  35    62  52  51    48  35  41    53  40  49   129 111 125   189 167 183   207 184 202   231 208 226  
  68  62  20    92  85  39   125 119  72    95  91  43    70  67  14    90  88  28    74  74  12    76  77  19    76  76  21    65  65  13    84  84  31   123 124  68   109 111  47   105 108  35    97 102  20   148 153  72    90  94  16    67  70   1    82  84  25    76  76  19    90  93  23   105 109  35   130 134  60   134 139  65    85  91  19   126 132  60   140 146  74    68  76   7    97 104  34   123 130  60   120 127  57   139 147  77   118 127  59    84  91  34    72  80  30    69  75  30    67  72  31    76  77  41    92  89  60    92  86  64    80  70  56    68  55  47    61  47  45    56  42  45    86  70  79   143 127 140   200 182 196   225 204 219   234 213 228   232 211 226  
  59  53   6   106 101  51   125 119  72    81  75  32    71  68  18    98  99  30   106 109  32   110 114  39    94  98  27    81  84  17    55  57   4   111 112  49   123 126  59   112 116  43   126 130  54   120 124  49    66  70   1    61  63   3    82  83  23    66  67   7    76  80   8   113 118  41   127 134  56   103 110  33    93  99  24   148 154  83   117 123  52    81  86  18    88  94  27    67  73   9   138 143  82   144 150  89    67  74  14    57  65   7   104 111  59   150 152 106   104 101  64    90  82  55    96  82  66    98  79  72    92  70  72    74  51  58    59  35  47   107  84  97   171 151 163   203 183 195   223 207 217   227 214 221   230 216 223   232 219 226  
  48  40   1    68  60  14   101  94  48    84  78  37    93  90  40   143 145  69   126 130  46   118 123  42    79  83  10    91  94  23    99 102  35    99 102  35   118 121  53   114 117  47   130 133  62   127 130  58    60  63   1    59  61   1    49  50   1    59  60   2   104 108  34   118 123  43   103 110  30   119 125  47   105 112  35   117 123  49   125 130  60    93  98  32    78  84  21    70  76  16   146 151  93   126 131  76    58  63  16    40  45   1    62  67  16    79  78  35    86  80  46    93  80  60   107  88  80   129 104 107   100  73  82   110  82  96   133 105 121   174 149 164   214 191 205   230 210 221   230 216 222   232 222 225   236 227 228   235 226 227  
  86  78  28    66  60   7    62  56   8    55  49   6    78  75  23   149 151  75   130 135  53   123 127  51    93  96  24   101 104  37   123 125  60    81  83  17   111 114  46   120 123  52   136 140  66    96  99  31    49  52   4    81  82  20    71  73  15    74  75  15   105 109  35   129 134  53   108 113  32   113 119  39   118 125  47   111 118  40   109 114  43    72  77  12    71  75  12    96  99  41   116 119  66    65  67  19    52  55   8    48  52   3    73  76  29    76  74  36    78  71  42    66  52  35    81  63  56    93  68  71    83  57  67   122  96 110   178 153 168   210 187 201   228 208 220   237 220 230   227 214 220   234 224 227   251 243 246   255 249 252  
  80  73  20    79  72  19    51  45   1    54  49   6    76  73  19   139 141  66   134 137  58   125 128  57   110 114  46    78  81  15    93  95  33    56  58   1    80  83  15   105 109  37   145 149  75    81  85  14    45  48   1    68  69   8   110 111  55   123 124  67    49  52   2   105 109  31   142 147  67   122 129  49   123 130  50   117 124  44    93 100  25    73  79   9    72  76  13    68  71  16    59  61  13    55  56  13    61  62  22    61  62  21    68  69  29    59  55  21    78  70  45    81  67  54    56  37  34    43  20  25   152 128 139   187 163 177   227 204 219   236 215 229   235 217 229   239 223 232   237 225 232   249 241 246   255 249 254   244 236 239  
  70  65  10    90  86  30    58  55   7    53  51   3    75  75  16   142 144  68   139 142  66   114 116  50    82  84  23    49  50   2    83  84  23    78  81  16    98 101  32    98 101  27   103 107  31    77  81   6    76  78   9    76  78  16   104 104  50    86  86  33    64  67   3   113 117  42   141 145  68   118 122  43   109 114  32   105 110  28   105 109  31   101 104  32    87  89  25    91  91  36    80  79  33    51  48  10    62  59  25    71  68  35    81  78  45    77  71  43    66  57  38    59  44  35    63  44  44   163 142 149   202 180 192   224 202 215   234 213 225   234 217 227   231 218 227   236 223 230   248 239 244   255 253 255   238 233 237   203 197 201  
  77  75  18    88  86  27    70  67  13    48  47   1    67  67   6   131 133  57   118 120  47    99 101  38    68  69  10    60  61   3    72  73  13    77  79  17   131 134  65   126 130  56    61  65   5    59  63   1    72  75   6    83  85  23    82  83  29    61  61   9    90  91  30   155 157  91   109 113  41   100 104  28   129 134  54   114 119  39   118 123  44   134 138  64   119 121  56    94  94  40    97  96  52    65  63  27    58  54  24    79  74  47    53  47  23   101  93  74    81  69  57    81  66  61   169 151 153   205 184 192   223 201 214   236 216 227   237 218 230   243 229 239   249 237 245   251 241 247   252 247 252   227 220 227   204 197 204   229 222 229  
  61  61   1    68  68   8    78  78  18    81  81  21    93  94  28   113 115  40   112 114  42   122 123  62    63  64  11    60  61   4    79  80  19    82  84  18    98 102  29   102 107  28    75  80   3    99 104  24    94  98  25    94  96  33    72  73  18    72  72  22    55  55   8   128 129  71    86  88  25    98 101  32   134 138  63   137 140  61   150 152  74   156 159  84    92  93  26    74  73  16    94  91  47    82  77  42    76  70  42    69  63  40    87  78  60    72  62  50    89  75  69   174 158 157   218 201 206   224 208 217   236 218 230   240 222 235   246 231 242   247 235 244   244 235 240   233 227 229   212 206 211   210 203 210   243 236 243   245 238 245  
  83  83  21    75  75  13    74  74  12   102 103  38   116 117  49   104 106  31   116 118  48   126 127  66   112 113  55    94  95  35    80  82  19    95  97  31   112 116  42   120 124  46   134 139  57   131 135  56   117 121  47   121 124  58    91  91  35    73  73  23    75  74  28    71  70  23    66  66  13    75  76  13    59  61   1   120 122  47   160 163  87   123 125  52   100 100  34    97  94  38    80  76  32   100  95  58    91  84  56    97  88  71   101  91  80   101  88  82   176 161 160   223 206 210   229 213 220   236 220 231   233 217 230   232 217 229   250 240 249   249 241 246   242 236 240   226 222 224   209 204 208   239 232 240   249 242 249   255 251 255  
  83  85  20    88  90  25    98 101  35   107 110  41   101 105  32   119 122  47    93  96  27   106 108  45    80  81  21    77  78  18    86  87  24    98 100  34   113 116  45   127 131  55   149 154  74   100 105  26   119 123  49   119 122  56    94  95  35    98  98  47    74  72  34    61  59  22    85  83  39   106 105  51    67  66   5    64  65  10   169 169  99   135 135  65    84  83  20    94  91  36    92  87  41    98  90  54   103  93  64    95  85  69    76  66  61   179 168 166   229 216 218   229 214 220   226 211 220   252 239 249   247 234 246   245 233 244   253 244 252   239 233 238   204 200 201   214 211 210   247 244 246   252 247 252   251 246 252   254 252 255  
  82  85  18   119 121  56   131 133  66   120 123  51   102 106  30    93  97  24    86  89  21    85  87  23    74  75  14    69  70  12    58  59   1    74  75  13   103 106  39   129 132  60   137 140  65   114 118  43   119 122  50    91  93  28    92  94  34    88  87  38    61  58  24    77  74  42   105 103  64    95  93  46    66  64   9    70  70   7   150 149  84   153 150  86   105 100  42   109 103  53    92  85  44    97  87  53   104  93  68    72  61  49   122 111 110   241 229 231   244 231 236   237 224 232   245 232 242   240 228 238   249 237 249   253 247 253   232 223 231   207 201 206   227 223 225   250 249 247   253 251 253   255 252 255   255 251 255   255 250 254  
 111 116  49   126 131  65   127 132  64   100 107  31   107 114  36    90  93  22    86  88  22    86  88  24    89  90  30    83  84  27    62  62   8    71  71  16    96  97  40   103 105  44    87  89  24    71  74   7    93  94  30    83  84  24    93  93  38    63  63  14    33  30   1    39  36   3    69  65  27    60  57  13    61  58   8    76  73  18   126 124  67   155 151  95    90  85  34    95  86  45   112 102  68   101  90  63    83  71  51   104  92  85   187 177 177   255 248 253   250 239 245   244 233 240   253 247 253   255 251 255   252 245 252   224 218 225   212 206 212   232 228 230   253 252 253   254 254 252   251 249 251   255 252 255   255 251 254   251 247 248  
 103 109  42   120 126  61   143 148  79    80  86  21    92  99  22    99 102  33   101 103  38    98 100  37    95  96  38    79  79  27    72  71  23    69  68  24    78  77  32    69  69  20    80  80  26    71  72  15    87  88  32    80  80  27    74  74  23    64  63  16    65  63  24    60  57  19    85  82  41    66  63  19    47  43   1    60  57   6    98  92  42   122 114  69    94  84  46    97  83  53    97  82  59    88  73  55   151 136 124   185 173 169   230 219 223   243 232 238   246 237 243   254 244 252   255 247 254   248 241 249   225 218 226   215 209 216   239 235 239   255 253 255   246 244 245   245 244 242   254 253 251   252 248 249   251 247 248   249 245 246  
  65  75   4   104 112  47   152 159  89    94 101  25    94 101  22    85  88  21    75  76  16    89  90  31   133 133  80   119 118  71    82  80  43    48  45  12    66  63  32    45  42  11    52  50  12    43  41   2    63  63  18    68  67  21    51  50   6    54  53   9    86  85  38    78  76  28    97  95  46    97  94  46    75  71  24    60  56   9    80  73  30   119 110  74   103  91  63    69  54  34    92  76  63   173 153 149   224 206 206   190 178 180   241 235 237   250 244 248   247 241 246   252 247 252   237 232 238   204 199 205   222 217 223   243 238 244   254 249 253   251 247 249   252 248 247   255 252 251   254 251 250   251 247 246   248 245 243   249 245 242  
  63  73   4    94 102  38   113 120  50    81  89  10    82  89   9    73  75  10    78  79  21    89  90  34    86  85  36    60  58  18    47  43  15    32  27   6    47  42  23    38  33  13    25  20   1    15  11   1    49  46  12    67  65  28    56  54  16    54  52  11    75  75  21   102 103  44   118 117  61   108 106  52    94  90  42    98  90  49   114 105  70    98  87  61    55  40  25   118 101  93   191 171 172   241 220 228   226 207 218   189 176 183   246 240 242   255 253 255   253 248 253   232 227 233   217 212 218   231 226 232   253 248 254   255 252 255   252 248 251   252 248 247   255 253 252   253 252 251   246 242 241   252 249 246   245 241 238   241 237 234  
  23  33   1    91 100  36   133 143  73   112 122  41    77  84   5    69  70   8    74  75  18    89  89  35    66  64  20    53  50  16    40  35  14    35  28  16    38  31  23    25  18   9    16  10   1    20  15   2    45  40  16    45  41  13    32  29   3    52  50  11    67  67   4    80  81  12    90  91  25    99  98  39   115 111  62   121 114  73    97  87  58    79  66  49   122 105  99   210 191 194   235 213 226   247 224 244   232 210 231   216 203 214   249 244 246   250 246 247   238 235 236   223 221 224   224 222 225   252 251 252   254 252 255   253 252 254   255 254 255   255 254 253   246 242 241   248 242 242   255 252 251   248 245 241   231 230 225   219 218 213  
  39  44   1    89  95  38   143 153  86   139 150  70   101 111  27   101 108  42    72  74  18    79  80  26    63  61  19    70  67  37    44  38  20    35  28  21    26  18  16    21  14   9    19  13   1    16  11   2    60  56  29    82  79  46    55  53  16    76  74  27   123 121  59   115 114  48   121 119  57   122 119  66   118 111  68    99  90  58    82  71  51   162 149 139   224 209 209   238 220 231   236 218 234   245 225 248   224 203 227   209 196 209   249 243 248   240 235 239   215 210 214   242 239 241   253 252 253   243 241 242   254 252 253   251 248 249   249 245 244   252 248 246   255 254 250   254 252 249   248 245 241   237 236 231   218 217 212   199 197 192  
  50  50  17    38  40   3   104 111  49   143 156  73   105 119  31    99 110  37    55  62   4    51  53   6    74  73  31    62  58  28    39  33  18    48  41  34    45  37  34    24  17   9    19  14   1    37  34   5    87  85  45   136 136  87    95  95  40    58  56   1    75  70  12   119 112  59   129 121  75   113 104  66    76  66  39    96  84  67   172 160 153   222 211 212   228 217 224   237 225 236   244 231 248   253 241 255   228 218 231   212 203 217   246 239 247   227 220 228   239 235 239   255 254 255   253 250 250   251 247 244   253 250 245   255 254 248   251 251 243   246 245 239   253 252 247   251 250 245   233 232 226   214 214 204   185 184 178   152 151 147  
  24  19   1    40  38   4    83  87  27   140 152  68   127 141  50   107 120  44    85  94  30    78  79  27    79  77  36    64  60  30    45  40  22    55  48  39    49  42  34    26  20   9    11   5   1    82  77  46   121 118  75    88  86  35   105 103  47    49  46   5    63  54   8   119 106  68   119 106  74    64  51  27   105  92  75   199 186 178   219 208 207   236 225 231   233 222 232   242 231 245   253 245 255   254 247 255   222 214 226   197 188 202   242 234 245   250 244 251   255 252 255   248 245 245   250 249 246   255 255 250   254 250 245   250 248 241   252 252 244   252 252 244   245 244 238   225 224 219   200 200 193   178 178 168   160 159 152   133 132 130  
  21  17   1    40  40   8   115 123  59   148 162  76   117 132  41   137 151  75   118 126  67    62  62  18    77  74  39    79  75  47    59  52  33    59  51  36    41  33  19    36  28  10    59  53  28    50  45  13   103 100  62    98  94  54    92  87  47    82  77  39   125 114  84   121 109  85    80  68  48   138 126 112   214 201 194   223 212 210   243 232 235   240 228 236   243 232 243   253 245 254   254 247 254   240 232 241   208 201 209   186 179 187   238 231 239   255 248 255   255 252 255   252 248 249   253 251 248   250 248 243   254 253 248   248 246 241   250 249 244   244 243 238   217 216 212   190 189 185   173 172 167   156 156 148   129 128 122   101 100  98  
  32  28   5    64  63  25   126 131  68   136 147  62   148 163  72   142 155  80    64  71  16    68  67  29    90  87  57    74  68  44    28  21   3    30  23   6    24  17   1    37  29   6    77  70  42    63  55  26   108  99  69   111 102  74   108  97  73   106  95  77   135 121 109    92  78  68   146 131 125   215 200 198   239 225 227   245 232 239   237 224 233   247 235 245   254 243 253   254 244 253   230 223 230   220 213 217   221 215 217   185 178 184   225 218 225   254 251 254   246 241 244   252 250 250   255 252 249   246 242 239   254 254 249   248 245 240   238 237 232   214 213 209   182 181 178   162 161 159   147 146 143   120 120 113    90  90  84    73  72  68  
  71  66  44    95  96  57   110 118  52   123 137  49   157 174  80   123 138  66    50  56   7    67  64  32    93  87  63    59  53  30     9   3   1    20  12   1    25  16   1    37  27   2    71  61  34   113 103  76   125 112  90   111  97  83   113  98  91    90  75  74   107  92  95   171 156 161   221 206 212   240 226 235   231 217 230   231 219 231   253 243 253   255 249 255   246 237 245   233 224 229   218 212 214   229 223 222   252 249 246   196 192 192   191 185 187   255 253 254   251 247 247   248 246 244   248 245 243   254 253 250   250 246 243   234 231 228   209 208 205   178 177 175   156 154 154   137 135 136   115 114 111    93  92  87    75  74  69    68  67  62  
  43  38  15    57  56  15   101 106  39   138 149  62   151 166  75    98 111  42    34  40   1    56  51  22    73  65  43    40  32  11    16   7   1    31  20   1    32  21   1    60  48  27    65  53  31    95  82  64   116  99  87    89  71  68    72  52  59   142 122 134   185 169 181   233 217 230   245 230 244   242 228 244   254 241 254   254 244 255   252 241 254   246 236 246   228 219 225   225 216 219   238 233 230   251 248 243   255 254 248   225 221 217   161 155 155   229 223 223   253 251 248   252 250 247   247 244 241   242 238 235   225 221 218   202 199 196   172 171 169   149 147 147   134 132 133   109 107 110    85  84  83    83  82  77    76  75  70    71  71  63  
  38  34   8   100 102  61   122 130  62   117 130  43   150 164  76   122 133  67    64  68  21    80  75  44    67  59  37    30  19   3    24  12   1    30  18   4    38  25  11    45  31  17    76  60  47   102  85  75    64  47  42    83  63  68   148 127 138   198 177 194   233 216 232   228 214 229   241 227 243   245 233 250   254 247 254   255 249 255   245 235 247   227 217 227   229 222 226   240 234 234   255 252 248   254 252 245   250 247 238   251 246 241   179 174 171   175 170 167   228 224 219   251 248 243   236 233 228   207 204 199   191 187 184   165 162 159   141 140 138   122 120 120   102 101 101    82  80  81    67  67  64    70  71  66    72  73  66    79  81  70  
 102  99  73   152 151 109   106 112  44   122 134  49   161 173  88    92 100  41    67  67  25    79  70  40    75  62  41    60  46  30    66  52  43    50  35  30    48  33  30    45  28  26    64  46  44    59  40  41    79  59  63   169 147 157   225 203 218   241 220 235   240 225 238   246 234 245   252 240 252   255 245 255   255 245 255   239 229 240   226 216 225   232 223 229   250 246 249   255 254 251   255 251 247   253 249 242   252 251 242   252 248 242   219 214 210   150 145 141   187 183 178   222 219 214   208 205 200   190 187 182   165 161 158   142 139 136   126 125 122   102 101  99    71  70  68    64  63  61    72  71  67    81  82  75    86  88  76   101 103  88  
 124 120  94   169 168 125   119 125  58   132 141  59   134 145  66    71  77  25    71  69  30    71  61  28    87  75  51    83  69  55    66  51  48    73  54  61    77  57  69    46  26  38    34  14  25   100  80  89   194 174 183   232 212 221   241 221 232   244 227 237   246 235 239   252 244 247   255 251 254   250 243 247   234 227 231   228 222 226   238 231 234   253 248 250   255 252 253   255 254 251   255 252 247   254 250 244   253 250 243   251 246 240   251 246 240   192 187 181   154 149 143   166 163 156   163 160 154   169 166 161   155 151 146   110 107 102    90  89  84    77  76  71    59  58  53    78  77  72    85  85  76    93  95  83    98 101  85   129 132 111  
  73  69  43   124 122  80   105 108  44   134 141  63    99 105  34    47  47   5    71  65  34    64  51  21    75  60  38    69  52  43    80  61  66   105  83 100   103  81 103    75  53  76   131 109 130   204 183 200   225 207 218   235 218 226   245 228 234   247 232 235   255 245 244   255 250 247   250 245 242   234 229 225   225 220 217   241 237 234   255 253 250   255 251 248   255 250 247   252 247 244   251 248 243   252 249 244   250 247 241   239 235 228   253 249 243   212 207 201   146 142 135   147 144 137   158 155 149   140 137 132   115 112 105    95  93  86    72  72  63    74  74  64    87  87  75    97  97  85    80  81  68   104 106  90   115 119  97    92  97  68  
  40  36  12    37  35   7   117 119  56   164 167  95   109 111  47    40  35   5    77  67  45    73  58  32    58  40  23    67  48  45   115  93 106    77  53  77    90  67  97   157 136 165   210 190 216   230 211 229   234 218 228   245 230 236   250 235 238   254 250 249   254 253 244   241 239 228   230 227 218   233 230 222   245 242 235   254 251 245   255 255 250   255 255 250   254 252 247   254 251 246   255 253 248   252 248 243   242 239 234   224 220 214   207 202 196   177 172 166   136 131 125   119 116 109   130 127 120   134 131 124   101  98  89    86  84  72    76  77  64    83  84  69    81  83  65   112 114  93   118 121 100   104 108  85    78  85  54    78  86  49  
  34  30   6    60  56  30   159 158  99   151 151  85   101  98  44    78  67  46    87  72  61   104  86  71    71  51  43    52  31  35    53  29  48    72  48  75   158 136 166   212 192 221   230 212 234   240 223 238   248 235 244   252 240 246   250 240 241   254 252 249   242 238 229   230 228 217   233 230 221   250 247 238   255 254 246   254 253 246   249 246 239   252 249 242   254 251 246   255 253 248   254 251 246   240 236 232   220 217 213   200 196 191   173 168 164   152 147 142   119 115 108    72  69  62    67  64  57   102  99  91   107 105  93   100  98  84   110 112  92   119 121  99   106 107  84   121 124  97    98 102  72    87  93  61    83  90  53   111 120  75  
  25  20   1    83  79  41   154 152  96   141 138  77   126 118  70    84  68  56    72  51  53    78  53  55    79  53  60    40  15  29   116  92 115   193 170 196   229 208 234   235 217 238   244 230 245   252 241 249   246 237 242   251 245 248   255 253 255   235 230 230   222 219 216   241 240 235   255 254 249   253 253 246   248 248 240   250 249 244   252 250 245   247 244 239   249 245 240   245 242 237   234 231 226   214 212 207   192 189 184   165 161 156   142 137 134   108 103  99    82  77  73    69  66  60    63  60  52    70  68  56    82  81  65   109 109  90   105 108  83    75  78  50    81  84  52   113 117  82    50  56  19    53  61  23    62  71  26    93 102  51  
  36  30   8    68  63  28   126 121  69   117 110  55   142 131  91    84  64  62    86  61  76    70  42  57    59  31  49   122  93 116   196 170 195   229 205 229   248 228 247   246 232 244   242 231 238   255 248 249   255 252 253   252 247 250   241 236 241   215 212 217   242 240 243   252 250 251   255 255 254   252 251 249   249 248 244   251 250 246   253 251 247   251 248 243   243 240 235   227 224 219   209 206 201   188 185 180   168 165 160   151 147 143   117 112 109    76  71  68    64  59  56    67  64  58    73  70  62    92  90  77   118 118  99    98  99  76    75  78  49    72  76  42    95 100  60   126 132  90    53  59  15    65  73  29    89  98  48    92 103  46  
  54  48  23   129 122  88   152 145  95    86  77  26   114 100  65   101  78  82    61  32  56    72  41  70   152 121 152   204 174 204   250 224 250   248 225 245   249 231 242   253 244 246   253 244 240   255 250 244   246 243 240   218 217 220   221 220 229   252 250 253   255 254 255   253 252 254   246 245 251   251 249 253   255 254 255   250 248 248   241 240 237   239 238 233   221 220 215   199 199 191   181 178 171   156 153 144   131 128 120   102  98  94    77  71  71    75  70  68    77  73  70    73  70  64    98  95  86   129 127 115    78  77  58    63  64  37    70  74  41   106 111  71    94 100  55   106 112  64    78  86  38    97 107  58    79  90  36   101 113  51  
  42  32  12   173 163 134   195 183 148   142 128  96   154 136 120    62  37  54    86  57  87   176 148 178   228 202 231   234 209 236   247 225 246   249 233 247   255 243 249   254 244 243   255 253 247   242 239 232   221 221 217   241 241 243   253 253 255   254 252 255   249 248 255   253 252 255   252 252 254   250 248 250   250 249 247   245 244 240   235 234 230   215 214 212   194 193 189   172 171 166   154 151 143   124 121 112    90  87  77    80  75  70    71  65  65    76  71  67    86  81  75   121 118 111   130 127 119    47  44  32    33  32  11    48  50  21    55  59  21   108 114  69   108 114  66   104 110  62    72  80  31    88  98  47    73  83  27    92 104  42  
 116 100  75   204 186 168   176 156 146   167 146 149   128 105 124   103  77 114   191 169 200   223 207 225   241 227 242   244 232 244   250 238 248   255 251 255   253 249 251   244 239 239   236 232 231   234 233 230   243 242 240   251 251 251   252 252 254   250 250 252   254 254 254   249 248 247   248 248 242   246 246 236   241 242 228   225 225 213   201 201 195   186 184 184   172 169 172   151 149 151   141 141 136   100 100  90    81  82  69    85  83  77    77  73  70    94  91  82   120 118 105   110 108  95    31  31  22    12  12   1    30  32  13    25  30   1    58  65  24   145 153 101   121 129  78    59  66  24    33  42   1    49  63  11    98 113  56    95 108  52  
 183 161 141   172 150 141   160 136 143   107  83 104   143 118 149   223 197 237   218 199 229   241 230 242   247 239 246   247 240 247   252 247 250   255 252 255   250 245 249   237 234 236   237 234 236   244 242 243   252 251 251   255 255 255   253 253 252   251 251 249   253 251 252   254 253 250   251 252 241   235 236 219   216 217 199   201 201 186   189 188 180   169 167 167   141 139 143   133 131 135    98  97  95    82  82  72    85  86  71    98  96  88    99  96  91   126 124 110    87  86  68    26  25  10    16  16   7    20  20  10    15  16   1    45  48  15    77  83  35   121 130  77    81  89  41    34  41   7    28  37   3    88 101  48   103 118  62    67  81  28  
