P3
50 50
255
  54  41  24    46  30  15    44  26  14    53  36  30    66  54  54    23  12  20   132 118 133   190 174 181    26  14   1    46  33  13    61  46  35    73  58  54    84  67  75    69  53  53    76  66  38    93  88  47   114 113  73   187 186 154   161 158 142   113 109 100   138 131 119    67  56  39    66  56  33    78  67  45    63  55  36    33  24  14    32  26  28    25  22  31     4   4  16   212 215 222   110 115 111     2   4   1   184 185 171   214 210 197   185 176 169   114 100  88   167 145 117   173 147 111    98  72  36    69  43   7   126 101  63   160 136  98   135 111  73   181 157 121   142 118  84   159 134 103    78  53  23    86  59  32   119  91  69   180 152 131  
  47  32  14    71  54  39    83  65  57    59  41  39    39  27  27    21   8  15   216 202 217   136 119 125    28  15   1   141 128  95   120 103  85    88  69  64    84  64  72    77  59  58    83  73  40   146 143  93   106 105  56    60  60  21   189 188 167   197 195 181   135 130 108   141 133 107   129 119  90    96  86  58    80  71  47    48  40  25    40  34  30    25  22  26    23  23  31   209 212 218   106 111 109    17  19  11   167 167 154   207 200 186    93  83  71   118  99  82   122  93  60   148 114  75   146 114  72    86  57  17    93  66  23   147 123  81   143 120  78    83  60  19   132 110  72   110  88  53    93  68  38    97  71  43   178 152 128   170 142 121  
  51  35  17    79  60  46    95  76  69    57  39  36    38  26  21    34  23  22   246 233 240    92  77  76    40  29   1   109  96  60    98  81  59    81  63  52    63  43  43    48  31  24    84  74  39   138 133  85    96  93  47   104 103  66   232 231 210    93  91  71   111 106  73   129 122  83   139 130  94   149 138 106   156 146 116   142 134 110   138 133 114    74  71  60    53  53  50   228 229 232    92  94 101    66  64  70   213 209 209   215 205 199    89  76  61   114  96  70   152 123  87   149 116  74   146 115  70    94  65  22    94  67  21   122  98  53   124 101  58    82  59  18   105  83  43   123 101  63    80  57  25   113  89  58   163 138 112    86  59  35  
  66  51  19    64  47  18    66  48  28    54  36  22    24  12   4    88  77  69   240 229 227    57  43  34    54  43   9    52  40   4    74  58  29    81  63  45    64  45  37    46  30  16   103  93  54   143 137  89   100  97  54   173 170 137   212 210 189    52  49  23    89  85  40    79  72  21    75  67  22    84  73  34    76  64  35    76  67  42   119 115  81    79  75  50    94  95  82   238 237 238    91  89 104   122 115 133   186 177 188   227 214 212    95  81  58   133 114  79   161 134  92   163 131  86   145 116  69   125  97  51   122  95  47   109  85  37    75  53   8    78  56  11    89  67  25   143 122  81    74  53  18   119  97  63   142 119  89    81  56  29  
  87  74  24    64  47   2    47  29   2    57  42  14    27  17   1   142 133 115   220 210 200    36  23   6    71  59  19    66  54   7    68  53  17    66  48  23    64  47  28    85  69  44    74  62  20    99  92  45   107 102  65   216 211 182   162 157 137    94  89  60    80  74  24    87  78  21    68  58   7    54  42   2    61  50   4    60  52   7    97  93  47    99  95  58    14  13   9   127 123 121   107 103 120    59  49  73    96  84  96   248 233 228    95  80  49   115  94  50   123  97  50   124  93  46   133 105  56   151 125  76   124 101  51   112  89  39    86  64  14   102  80  31   103  82  37   103  82  39    93  74  35    95  74  39   134 113  80   122  99  69  
  97  85  25    76  61   6    79  62  19   119 103  67    47  38   7   184 177 151   202 194 175    88  76  52    97  86  40    80  68  16    80  65  24    63  44  12    52  35   6   108  93  59    86  75  29    60  51   5    78  69  38   232 223 201   112 105  84   106  99  70   101  93  46    92  83  27    87  78  23    72  62   7    74  63   7    68  59   4    93  87  35   111 106  66    84  82  59   107 103  98   187 181 192   181 170 185   231 216 217   202 184 169    79  61  21   127 105  55   111  85  34    98  70  20   125 100  46   145 119  68   127 104  52   104  81  31    81  59   9    79  57   8    74  54   7   124 106  60    83  66  23    82  64  27   129 112  76   126 106  75  
  89  73  20   113  96  49   133 112  77   141 124  93    86  76  44   215 208 178   156 146 122   122 111  83   140 130  81   145 132  79   121 107  61    49  31   1    70  52  11    74  59  16    88  75  27    83  71  27    90  77  53   253 242 225    99  91  69   131 123  94   121 112  71    85  75  26    92  81  25   113 102  41   114 103  40   106  96  34   125 117  67   117 111  73   169 164 143   244 240 230   189 183 180   124 115 110   138 125 106   105  89  56   106  87  38   133 112  56   128 103  49   162 135  83   158 133  80   116  90  37   123 100  48   114  91  39    96  74  24    77  55   6    65  47   2    77  59  13    72  56  12    80  62  24   113  95  59   140 125  91  
  69  53  11    99  80  45   135 114  91   115  97  76    77  66  37   234 226 195   124 114  87   128 116  86   143 131  84   157 144  92    84  69  21    64  46   1   107  90  41   101  84  35    95  80  30   106  92  51   122 108  89   244 231 218    64  55  31    83  74  44    72  62  28    93  82  40    85  74  20   113 102  40   149 138  72   105  95  35    92  84  39    74  65  34   179 172 153   231 226 211    88  82  61    61  54  26    92  82  39   150 136  85   153 133  77   109  87  30    93  68  18   192 166 116   219 193 142   135 109  59   122  99  47   114  91  40   114  92  42    84  62  13    80  62  15    79  61  17    76  60  18    79  64  25    79  64  29    83  70  35  
  65  50   7    60  42   7    76  56  33    58  40  21    77  66  39   249 239 210    77  67  41    76  62  34   108  95  52   108  94  44    60  44   1    82  65  15   117 101  44   111  94  37   111  96  42    75  60  21   150 132 119   230 214 205    50  39  13    63  54  20    59  48  16    87  75  37    87  75  23   109  99  38   131 120  58   104  93  40    73  63  26   133 125  98   247 241 222   125 120  96    62  58  21    87  83  33    86  77  18   162 148  85   158 138  77   109  86  29    88  65  15   106  81  33   192 169 118   146 122  73   131 108  57   109  85  36   115  93  45   110  87  41   101  82  38    92  75  31    86  71  31    72  58  20    79  66  32    80  68  36  
  79  67  14    58  44   1    59  42  13    49  33  11   117 107  82   245 235 210    58  47  26    61  47  21    52  38   3    65  48   3    82  64  19    89  72  20   101  84  22    99  81  18   104  87  33    54  37   1   186 166 159   223 205 200    53  39  11    80  71  31    63  53  15    67  58  16    53  43   2    90  79  24    79  68  16    82  70  28    92  81  52   236 228 205   206 200 177    57  53  19    76  73  24    64  62   3    77  70   2    93  80  12   100  80  21   108  85  30    93  69  21   116  92  46   172 148 102   133 109  62   117  93  47   123  99  53   108  85  40   113  90  48    94  75  33   113  95  57    78  62  25   108  95  60   120 109  77   145 136 105  
 101  92  25    95  82  26    84  70  28    58  43  14   164 153 131   198 187 169    35  23   7    82  67  46    69  54  22    65  47   8   100  81  38    96  76  25   131 113  47   108  91  24    81  64  10    47  28   1   207 186 183   210 190 189    51  38   6    81  73  25    68  61   8    94  87  32    64  55   4    90  79  34   102  90  53    73  60  29   186 174 148   241 235 208    85  80  47   103 102  58    54  53   2    81  80  16    77  70   6   102  87  27   114  93  38    74  51   3    81  59  12   107  84  40   134 110  66   120  96  52   116  91  50   110  85  45   110  87  46    93  69  31    98  78  41   119 101  66    76  60  27   153 140 108   178 167 137   187 177 150  
  87  80  13   104  94  37   102  88  49    59  44  19   198 186 168   191 179 167    45  33  22    54  38  22    57  41  13    61  43   8   104  85  44   128 108  57   138 120  51   123 106  36    92  74  20    61  41  10   211 186 187   175 154 154    72  57  25   106  97  42    88  85  16   105 102  34    60  53   1    97  86  50    61  46  22   122 110  90   253 244 218   148 142 108    77  76  32   111 111  59    85  86  28    92  89  30    65  56   8   100  84  32   124 104  55   109  85  40   102  79  37    83  60  20    92  67  26    86  62  22   103  77  38    70  44  12   129 105  68   119  95  60   115  95  60    73  54  25    47  30   4   109  94  66   137 127 101   102  94  70  
  75  67  12    79  69  23    85  71  42    46  32  15   217 205 195   164 151 145    64  50  40    58  42  25    60  43  15    64  43   7   102  81  40   130 109  57   125 105  35   127 108  38   114  95  39    80  60  28   223 200 198   157 135 134   103  89  55   119 110  52   109 107  30   116 114  39    93  87  36    72  61  29    83  68  51   227 218 201   197 188 161    74  69  31   100 100  49    88  89  33   105 105  50    87  85  33    94  85  37    95  80  36    93  74  29    85  64  27    73  52  14   100  78  40    92  70  31    87  64  26   133 109  72   127 103  67   169 146 109   188 165 131   167 147 114    61  42  17    43  28   5    92  79  53   116 106  82    99  91  70  
 106  98  58    70  63  28    68  61  37    41  30  20   234 223 224   121 106 107    59  43  29    72  52  25    92  70  32   100  74  29   103  75  27   129 102  46   112  90  20   119 100  30   120 103  47    90  72  34   242 223 206   150 132 116    91  77  41   112 102  51   105 100  39   144 140  78   119 112  65    48  39   5   194 184 156   243 236 211    73  67  36    83  79  44    66  63  21    81  79  34    79  77  33    68  65  22    84  78  35    76  68  24    84  75  28   121 110  69    73  59  22    72  57  21    82  66  31   118 102  64   174 156 118   155 136  98   152 133  95   174 154 117   191 172 136   151 135 101   142 127  97    79  68  41    79  68  46   120 112  93  
  53  46  19    53  47  22    43  37  21    48  41  34   238 228 235    89  75  75    84  68  43   112  91  49    97  72  19   121  92  35   118  88  28   128  98  35   114  92  19   102  83  14    97  80  25    79  63  21   253 238 209   149 133 108    79  66  31   112 100  59   102  95  52    92  85  41    56  49   9   128 120  84   252 248 212   125 119  86    49  44  12    73  68  36    59  54  21    49  46  10    52  48  11    56  53  14    69  65  24    43  39   2   105 103  55   216 211 166   111 103  66    41  30   1    84  74  38   101  88  53   178 164 127   125 111  72   170 155 116   144 129  90    89  73  37   138 122  89   178 164 135    56  44  20    86  75  55   136 127 110  
  64  56  35    49  42  23    32  26  14    81  75  69   236 228 225    53  44  33   111  99  60   116  99  44    97  76  12   117  90  23   112  85  16   117  91  19   107  88   9    95  79   4   104  90  33    83  70  28   244 230 204   144 129 111   104  93  63   112 101  69    80  72  40    65  59  28    60  54  23   223 217 186   200 194 162    28  22   1    54  47  16    71  65  33    68  62  27    51  45  11    61  55  18    55  50  11    72  67  26    51  44   1    96  91  46   150 143 103    76  66  31   105  92  60    81  68  33    63  50  15    66  52  15   165 151 114   226 210 174   193 177 143    67  52  19   104  90  61   110  97  71    67  54  36   130 121 105   126 118 107  
  52  41  20    95  86  68    45  36  26   106  99  92   233 228 217    52  46  22   127 118  69   105  92  27   118  99  23   123 102  23   104  83   3   123 103  22    99  84   1   114 102  23   114 104  45    88  77  40   244 231 214    97  83  72    77  66  47    91  82  60    82  74  55    74  66  48   171 163 142   234 227 203    82  74  48    54  46  17    71  64  32    81  72  38    67  59  22    66  58  19    68  60  19    59  52   8    57  50   9    58  48   5    56  46   4    42  31   1    54  41   5   102  86  53    86  72  37    64  49  14    70  55  19    91  77  44   122 107  73   116 101  71    80  65  37    96  82  57    71  59  41   117 106  93   145 137 127   105  98  92  
  93  82  57    96  87  64    57  49  34   147 141 128   219 216 199    62  58  27   128 122  65   136 127  52   109  96  11   137 120  33   114  97  10   131 115  28   106  94   5   112 103  24   103  96  39    95  88  53   246 236 223    88  76  73   114 104  95    67  58  47    47  37  31   105  96  90   241 232 220   142 134 117    54  43  21    74  64  34    78  69  34    80  69  30    76  66  22    74  64  17    62  52   5    67  57   8    43  33   1    61  50   3    61  49   7    67  54  14    63  49   8    76  61  22    93  78  39   100  84  47    80  64  29    56  40   9    55  40   9    49  34   6    47  34   9    70  59  39   116 107  92   134 126 117   129 123 117   101  96  94  
 139 129  92   160 151 116   113 107  79   169 164 142   205 202 183    77  74  43   109 104  48   139 131  57   101  89   6   135 120  32   118 104  15   118 106  19   108 102  11    86  82   4    96  92  37   119 114  83   230 223 214   108  99 101   229 224 221    89  79  77    31  20  22   213 203 203   202 191 184    47  38  23    88  78  54    91  81  47    90  80  38   105  93  45    81  70  17    89  77  20    74  62   6    73  61   5    56  43   1    75  62  11    73  60  10    78  63  15    59  43   1    53  36   4   104  87  44   125 108  67    88  72  33    71  56  20    59  45  12    58  46  18    61  50  26    83  74  55   138 131 119   116 110 103   117 113 109   106 104 104  
 113 107  50   122 117  63   110 106  61   164 160 128   216 213 196   112 107  86    96  92  43    96  88  22   132 123  46   130 117  37   116 103  23   108  99  16   103  98  14    92  89  15    77  76  24   121 120  92   238 233 228    61  54  61   226 221 220   142 133 134   105  94  98   254 242 244    57  46  40    26  15   1    59  48  20   111  99  59   105  93  44    98  86  28   100  89  24   114 101  33   120 107  39   120 105  41   108  94  32    91  76  17    83  68  13    92  75  23    64  47   1    58  41   1   102  85  35    96  79  34   114  99  56   100  86  47    57  47  12    63  54  25    71  64  38   151 144 126   126 122 110   108 105  98   102 101  97   112 111 111  
 113 109  34   109 107  32   111 110  45   103 102  57   244 241 231   137 130 121    87  82  44   116 107  53   137 126  63   116 103  34   119 106  37   103  95  23   110 107  31    96  95  29    60  62  16   132 132 108   218 215 214    38  33  40   193 187 189   201 192 193   197 187 186   149 138 134    30  18   5    55  43  20   103  90  56   131 118  72    82  67   9    82  66   1   121 106  33   139 124  49   132 118  42   142 125  53   130 115  46   123 108  43   108  92  31   115  99  39    77  61   2    92  74  18    84  69  14   114  99  48   101  87  42   111  97  58    97  87  52    99  90  61   123 117  91   127 122 102   112 111  96   101 102  91   110 111 105   119 121 116  
 134 130  40   127 125  39   129 130  55    87  85  37   135 128 120   176 167 167   165 157 129   128 119  74   107  94  41   122 108  51   114 102  44    93  83  23    93  90  27   104 103  48    74  75  39   155 154 138   214 211 215    11  10  17   133 129 130   243 235 232   164 153 147    40  28  16    99  85  66    72  58  29    91  76  36    95  79  26   103  86  27   100  82  11   102  85   7   146 129  48   127 110  29   111  95  18   130 113  40   128 111  41   112  97  32   114  98  36    99  81  22    99  83  25   120 105  51    91  78  27    99  87  42   114 103  64   129 121  86   142 136 108   128 124 100   117 114  96   107 108  92   108 110  97   112 115 106   124 127 119  
 132 129  31   119 117  25   118 118  42    79  76  28   160 152 145   205 194 197   133 123  98   170 158 118   149 137  91   164 150 102   137 125  77   104  94  45    97  94  41   110 109  64    66  67  39   163 163 153   191 188 195    35  32  42   131 127 129   254 247 241   102  91  78    76  62  42   134 119  92   101  84  49   100  82  35    86  68  10    68  49   1   124 103  29   140 120  41   122 103  22   137 118  38    94  77   1    94  77   5   112  96  26   100  85  18   109  93  31   102  86  28   122 106  52   179 164 114   149 135  88   153 143 100   140 131  95   131 126  95   126 121  97   124 123 101   102 102  85    99 101  87   112 114 102   117 120 111   137 140 131  
 138 134  37   131 126  41    87  83  16    80  76  33   236 228 218   139 128 124   113 102  74   102  89  48   130 116  71   143 128  84   149 135  95   154 144 103   149 146 103   114 113  76    20  20   5   165 166 160   204 200 212    44  40  54   189 184 187   236 228 221   138 126 106    92  75  47    98  80  47    89  70  29    91  71  21    88  67   9    96  73  14    87  64   7   137 114  38   146 125  48   128 109  33   109  92  18   115  98  29    84  69   4    89  75   9    86  71  11   109  93  40   166 150 102   143 128  83   177 165 125   145 136 101    96  89  61   136 131 109   121 117  98   117 116 100   100 100  88   103 104  95   121 122 114   136 137 130   167 168 161  
 114 107  16   122 116  42    69  62   9   144 136 104   236 227 213    83  74  58   144 135  97   119 107  60   150 136  89   128 113  69   114 100  63   101  91  56   128 124  87   151 151 120    14  15   2   127 127 126   178 174 189    44  38  55    84  79  85   227 218 211   175 160 137    96  77  44    93  73  36    99  78  35   108  86  35    74  49   1    81  55   2   109  84  20   109  84  16   138 113  46   124 101  32   122 103  35   121 103  36    91  76  13    95  84  21    69  56   1    59  45   5   118 103  64   120 106  71   115 102  70    75  65  39   116 109  90   118 115 100   121 119 106   107 107  98   105 104 100   116 116 113   136 137 134   162 164 158   194 195 190  
 100  92  11   109 101  38    54  45   6   169 159 134   197 188 167   107  96  69   139 128  82    99  88  35   106  92  41   142 128  84   121 107  70    55  45  12   143 138 105   241 239 213    76  73  63    42  40  45   131 127 144   179 172 192   128 122 129   233 224 216   114  97  72    82  62  26    87  65  25   103  81  36   104  78  29   120  93  39   115  89  30   112  84  24   125  97  35    95  70   6   117  93  30   117  97  36    95  77  17   110  95  37    93  81  23    81  69  19   100  86  47   101  86  54   112  98  70    70  59  36    81  74  55   142 134 121   118 114 106   104 101  96   102 101 100   113 111 112   128 128 130   158 158 160   189 187 188   205 204 202  
 106  97  21   108 101  38    63  56  18   213 202 179   176 162 139    96  80  52   173 158 117   111  95  51    78  63  22    76  61  22    54  42   6    57  48  11    44  41   8   184 181 145   198 194 178   191 186 185   231 223 236   201 192 205   193 184 180   156 144 125    86  68  35   111  90  47    93  70  27    99  76  28   118  93  41   110  83  28   121  96  38   116  91  31   121  97  35   108  85  23    93  72  11   111  92  33   107  91  33   101  87  32    81  69  15    96  84  37   132 119  87    77  64  40    74  64  43    90  83  65   143 137 122   119 113 104   110 108 103    96  96  93   109 108 108   120 120 122   144 144 145   181 181 182   201 200 200   212 211 208  
  88  80  10   113 107  45    87  82  44   237 225 200   175 155 131   104  80  55   136 116  84    93  75  40    45  30   8    60  49  13    51  44   3    56  52   3    57  57  16    58  56  21   161 156 128   234 227 218   186 175 180   100  86  88    59  49  28    58  45  11    70  53  16    97  77  28    87  66  15   104  83  29   138 116  60   114  90  33   108  86  26   106  84  22   111  91  29   107  88  25    99  82  21    99  84  26    77  63   7    79  66  12    78  67  15   102  90  48   114 103  77    75  66  49    99  92  76   129 123 109   129 125 115   113 110 102   103 103  97   112 113 108   117 118 115   137 138 136   167 167 166   203 203 201   204 203 200   223 222 218  
  68  58   3    75  68  15   103  96  67   251 239 220   124 101  80   107  82  53   148 129  87   115 100  51    36  24   1    68  61   9    80  75  19   100  98  42   103 103  42    68  67  27   218 215 188   210 201 191    69  58  57    57  44  37    68  58  25    71  60  14    68  54   8    79  61   8   105  87  33    90  70  15   164 144  86   133 112  54   102  83  23   118  98  39   100  81  21   125 106  47   107  90  33   100  85  31   101  87  36    86  72  24    70  58  12   109  99  62   129 120  98   103  96  82   123 117 104   132 125 114   104 101  92   108 105  98   104 105  99   117 118 113   119 119 117   168 168 166   187 188 184   209 210 205   223 222 217   228 227 222  
  83  71  23    64  56  14   101  92  76   255 247 238   140 119  98   117  94  56   106  92  32   106  97  24    66  59   1   102  98  27   124 123  58   116 116  56    92  93  36   164 163 119   251 246 221    92  82  70    49  39  30    66  54  35    84  75  33   113 104  48    85  74  18    91  76  19   105  90  33    71  55   2    72  56   8    94  78  18    77  61   2    97  78  20   130 113  56    92  75  21    76  59   8   102  88  40    94  79  36    60  46   6    62  50  11    90  79  49    76  67  50   152 144 133   137 131 120   113 109  99   115 112 104    95  93  87   119 118 114   122 123 118   137 137 135   189 189 187   201 202 197   213 214 209   225 224 219   225 224 219  
  63  51  11    42  32   1    98  88  82   237 223 222    78  60  40   118 101  54   128 116  40   149 144  51   123 123  26   106 106  18   116 116  44    74  74  15   102 102  50   252 251 216   142 136 109    65  57  37    74  66  44    77  68  37    81  74  19    66  59   1    73  65   2    93  83  22    65  56   1    67  56   1    68  57   1   101  87  26    79  64   5    88  71  17    84  69  16   109  93  43    83  67  23    55  40   1    54  40   5    47  34   3    62  48  22    68  57  35    71  63  50   157 150 142   114 110 101   114 109 103    98  95  88   112 109 104   118 117 113   137 136 132   174 175 170   202 203 198   213 213 208   226 225 220   223 223 215   236 236 228  
  67  56  17    42  33   4   108  99  95   240 228 228    52  36  16   109  93  45   125 118  35   144 140  40   134 135  34   117 120  29   100 101  33    87  89  34   236 235 189   194 192 152    55  52  13    66  61  24    52  47   8    60  51  10    83  77  14    94  87  16   100  93  27    86  79  15    74  67  10    95  86  23    79  69   7    71  60   1    71  60   1    54  40   1    51  38   1   135 121  77   105  90  53    38  23   3    48  35   9    51  40  18    82  69  52   100  89  76   148 140 132   124 117 112   121 117 111   105 101  97   104 100  96   118 115 110   129 128 124   159 157 154   198 199 194   211 212 207   221 220 215   235 234 229   229 228 221   249 249 241  
  74  63  20    58  51  17   146 139 128   225 216 211    55  41  21    74  61  18    94  88  14   117 115  20   108 110  19   118 120  43    83  85  29   175 176 132   228 229 185   112 112  64    97  96  42    90  88  32    67  63   7    99  93  33   108 102  32   116 110  37   124 120  50   123 118  51   106 101  33   109 103  37    95  87  24    81  72  13    66  56   2    63  51   6    59  46   4    53  40   4    56  41  10    48  35  11    36  24   5    67  56  43   158 147 138   143 133 128   142 136 131   110 106 102   107 104 100    98  94  91   126 122 119   128 124 121   150 149 145   196 195 191   207 206 201   226 225 220   229 228 223   240 239 234   242 239 232   255 254 247  
 102  94  40    47  43   6   175 171 150   214 210 195    39  28   8    60  49  13    83  78  15    96  95  19    82  83  14    83  83  27   132 131  95   245 246 214   132 134  86   110 111  51   102 105  34    84  84   9    79  77   6    98  93  22   100  94  21   106 100  27   111 107  36   117 113  43   114 109  41    86  78  13    95  87  24    99  90  30    81  70  18    80  68  20    63  51   8    68  55  22    45  32   5    57  46  27    58  47  35    45  35  29   159 149 146   138 129 129   119 115 113   109 108 105    87  85  83   111 109 106   130 126 123   143 139 136   190 188 183   207 205 200   211 209 204   229 227 222   237 235 230   241 238 233   247 244 238   255 255 249  
 116 111  48    60  58   4   182 183 150   196 195 175    48  40  19    76  67  38    66  62  13   118 116  63    94  92  49    73  72  40   230 229 207   186 186 157    92  96  45   113 119  48   121 127  42   107 110  22   110 109  28    99  94  18    96  90  16   101  93  21    92  85  15    85  78  10    95  88  20    84  74   9    87  79  16    72  62   3    72  61   7    85  73  25    76  63  23    51  40   7    51  41  16    45  36  19    34  25  16    59  51  48   149 140 143   115 109 112   114 112 113    98  97  95   102 101  99   103 102 100   152 147 145   188 184 181   182 179 174   223 220 215   218 215 210   228 225 220   239 236 231   246 243 238   251 248 243   254 250 247  
 111 107  36    71  72   7   204 206 166   167 167 141    39  32  14   100  92  72    90  86  52    75  72  38    63  61  37   178 177 157   243 243 229    80  80  52    92  97  39   102 109  30   111 118  25   104 108  14   111 109  28    99  93  17    99  93  19   104  96  24    70  60   1    75  65   1    77  67   3    82  71   9    90  79  18    80  69  13    90  78  26    85  72  27    81  69  31    56  46  16    54  46  23    41  34  18    33  26  18   135 130 127   133 129 130   110 108 111   104 104 103    99  99  97   108 108 103   141 140 136   171 168 163   193 190 185   218 213 209   220 215 211   228 223 219   233 228 224   243 238 235   255 250 247   255 252 249   251 247 246  
 115 112  43    68  70   7   221 226 187   150 151 129    64  59  44    74  67  52   102  98  74    48  46  23   122 121 103   248 248 234   111 113  92    77  82  43   113 123  56   104 113  29    88  94   5    97 100  15    99  96  23   109 102  33   100  92  19   100  90  19    88  76  11    76  61   1    60  45   1    84  69   9    99  84  27    92  78  24    97  83  34    77  64  20    68  55  18    74  65  34    53  46  24    36  30  16   105 102  92   141 138 135   107 105 106   105 105 108    98  99  97    99 101  97   142 143 137   165 164 160   180 179 173   208 205 199   217 212 208   234 229 225   233 227 223   242 236 232   251 246 243   254 249 249   253 249 248   251 247 249  
 117 113  52    74  76  21   219 223 192   139 140 125   148 144 134    96  89  78    77  73  54    91  90  69   225 224 207   169 170 149    63  68  34    79  86  35   116 126  52   108 118  33    90  95  16   109 109  39    96  91  32   116 108  48   102  94  21   101  90  16   120 104  39    86  68   9    66  48   1    99  82  24   102  84  29    93  76  24    94  79  30    86  72  28    72  60  22    74  65  34    57  51  27    87  82  66   152 150 138   113 113 108   108 109 107   100 103 103    98 102  97   137 140 135   143 145 139   181 181 175   209 209 201   207 204 197   229 224 218   232 227 221   237 229 226   251 243 240   255 251 249   252 246 247   249 245 247   253 248 253  
 101  96  43    73  75  28   218 222 200   107 109 101   219 216 210   143 138 128    44  42  23   177 176 153   211 213 188    61  66  32    88  97  47    80  90  26    89 100  19    88  97  15    92  95  28    98  95  40    92  86  40   109  99  46   116 108  34   112 101  23   141 121  58   118  95  40   108  85  32   116  96  40   102  81  28   116  96  46   112  95  48   101  86  43    90  77  40    61  51  21    57  51  26   148 145 126   116 116 103   106 107  99   101 105 100   102 106 103   124 129 123   132 137 130   172 175 168   202 203 197   208 208 200   224 221 214   235 230 224   229 223 217   243 235 233   252 244 242   255 249 250   253 247 249   251 246 250   251 246 252  
  83  78  39    65  64  32   243 244 231    75  75  73   190 186 183   190 187 178    88  88  69   240 243 216    90  96  62   106 113  69   105 115  55    80  90  21    72  83   4    71  78   1   102 102  42    95  89  41   112 104  61   113 101  53   132 122  52   109  95  23   161 140  82   116  93  43   110  87  37   119  97  48    94  73  25   103  84  41    85  70  28    86  72  36   130 119  86    62  51  24   106 100  77   148 145 128   106 107  94    95  96  88    97  99  94   105 110 105   124 127 120   157 161 154   195 196 190   210 209 204   222 222 214   227 224 217   225 220 214   243 238 234   250 245 241   248 243 240   252 246 246   255 252 254   255 252 254   245 243 248  
  92  85  67   115 108  97   254 252 246    59  55  52   150 146 143   214 214 206   184 185 171   161 165 142    78  84  50   112 118  74    97 104  50    71  77  13    91  97  28   100 102  34   106 104  39   108 101  41   128 117  62   119 103  51   127 110  54   117  98  43   159 137  91   110  85  45    81  58  16   105  83  45    86  68  32    80  64  32    80  67  40    77  66  42    74  67  46   158 151 134   141 139 124   114 112 100   101 101  93   101 100  95   102 102  97   145 145 141   154 153 148   205 202 195   210 207 202   203 200 195   231 228 223   233 230 225   227 224 219   252 248 245   254 253 250   241 237 236   254 253 254   255 253 254   239 237 240   226 226 228  
  80  74  59   134 127 120   243 236 231    69  63  59    86  82  77   241 241 232   162 162 147    75  77  54    82  88  54    84  89  46   117 121  70    97 100  42    89  91  29    92  92  30   103  99  36   120 112  52   104  92  36    87  71  20   104  86  37    97  77  32    79  56  14   113  89  51   149 127  90   120 101  68    92  75  45    73  59  33    78  67  45    49  40  22    82  76  60   147 143 131   108 106  94   110 107 100   102 101  96    91  91  86   130 129 125   159 155 152   173 170 165   202 197 191   217 212 208   220 215 211   230 226 222   238 234 230   239 235 233   242 238 235   242 241 239   249 248 246   247 247 247   253 252 253   229 229 231   222 222 223  
  67  62  44   114 108  97   250 246 237    56  49  41    98  92  84   248 247 235   138 135 118    62  61  36   100 102  68   114 116  73   107 110  60   102 104  49    92  92  34    66  64   7    98  94  36   110 101  47    80  68  19   110  95  49   115  97  54   113  92  52    94  72  33    92  69  32    99  78  42   101  82  49   103  87  58   107  92  68    86  75  54    58  50  32   124 118 104   132 128 117   106 103  94   107 104  97   101 100  95   105 104  99   141 140 136   175 171 168   205 201 197   214 209 205   223 218 214   226 221 217   229 224 221   241 236 233   245 241 238   238 234 232   243 242 240   247 245 245   252 250 251   239 237 238   223 223 225   239 239 241  
  63  58  37   104  98  85   242 238 226    53  47  36   105  99  86   238 234 219   146 142 122    71  68  42   119 117  84   121 120  80    91  91  44    71  69  19    64  63  10    82  79  26    92  86  36   104  96  48    99  86  45   112  98  59    93  77  41    89  70  36   124 103  67    98  77  42   100  81  48   120 103  72    93  79  51    87  74  50    81  72  51   113 106  90   139 133 121   105 101  90   103 100  91   105 101  95   110 107 102   133 131 126   162 159 156   197 193 190   211 206 202   223 218 213   219 214 210   218 213 210   235 230 227   245 240 237   245 241 239   249 245 244   253 251 249   248 244 245   245 243 244   223 221 224   235 233 236   253 253 254  
  94  89  67    44  38  24   117 111  99   142 135 122    99  92  77   247 239 221   128 120  98    52  46  18    58  52  18    46  42   7    84  79  37   110 106  60   103 100  52    58  51   7    91  82  40   103  94  54    88  75  40   100  86  54    66  50  23    57  40  12    88  69  37   112  93  60   186 169 136   167 152 123   109  97  71    81  70  48   101  94  75   128 122 106   111 107  95    92  88  78    84  81  74   108 105 100   131 128 123   147 144 139   200 196 193   207 202 199   218 213 209   238 233 228   235 230 226   235 230 226   253 250 247   254 253 250   250 246 245   255 254 252   255 251 252   254 252 253   222 220 223   231 229 232   253 252 253   246 244 247  
 114 107  88   165 157 146   218 211 199   215 207 194   224 213 195   194 183 160    58  48  21    72  63  34    81  72  39    59  51  14    74  66  27    82  75  33    78  70  31    79  69  31    79  69  34    91  80  48    76  62  36    94  79  57   154 139 119   105  89  66    57  40  12    50  33   3   110  95  66    94  80  53    77  65  42   114 103  83   139 132 114   124 118 104    97  93  82    89  86  77    98  95  88   120 117 112   154 151 146   174 170 167   216 212 209   211 207 204   226 221 217   233 228 224   243 238 235   247 242 239   245 240 237   247 242 239   249 245 244   248 244 244   252 248 249   235 231 232   225 220 224   252 248 251   254 252 254   246 241 247  
  51  43  28   191 183 172   238 234 223    93  83  68    92  81  58    65  53  26    70  58  30    77  66  35    83  72  39    62  51  16    97  86  50    74  63  28    97  86  51    86  72  41    63  51  22    44  30   6    58  43  23    38  22   8    77  62  47   166 151 133   103  87  62    62  48  20    88  74  48   102  91  67    92  81  62   138 130 111   129 123 108   106 102  88    93  90  79    82  79  72   127 124 119   134 131 126   173 169 166   206 201 198   216 212 209   225 221 218   228 223 219   230 225 221   248 243 240   252 247 244   240 235 233   248 242 242   255 252 252   253 249 251   243 238 240   214 209 213   246 242 245   255 252 255   247 242 248   253 247 253  
  99  91  79   241 232 223   135 127 115    48  39  21    84  72  45    98  84  54    81  67  37    90  76  44   102  88  55    97  83  51    72  58  26    96  81  51    81  67  37    74  58  31    48  33   8    34  18   1   103  87  69   103  87  72    75  59  46    71  55  40   118 105  82   109  98  72   119 107  84   114 105  83   126 119 100   132 126 109   101  96  83    96  92  80    91  88  80    96  93  87   130 127 122   160 157 152   199 195 192   205 201 198   222 217 214   226 221 218   226 222 219   239 235 232   252 247 244   251 246 243   250 244 244   255 250 250   255 249 250   245 239 241   221 215 218   241 235 239   252 248 252   255 249 255   252 245 252   251 246 251  
 219 210 200   213 204 194    39  30  15    89  79  58    84  73  43    95  82  49    93  78  45   103  88  56    97  82  51   110  93  63    60  44  15    86  67  41    65  48  23    82  62  40    67  50  29    20   5   1    86  67  52   138 120 106   105  87  75    61  45  30    80  69  48   131 122  98   151 142 120   136 128 109   137 130 114   118 114  98    89  85  73    99  95  86    99  98  90   117 116 111   139 137 132   183 181 177   218 214 211   212 208 205   235 230 227   230 225 222   243 239 236   243 239 236   253 249 247   253 249 247   247 241 241   254 249 249   249 243 245   221 215 216   230 222 227   254 250 254   248 239 247   254 245 252   253 246 253   253 245 252  
 248 238 228    82  72  58    70  62  40    73  64  35    75  64  32    76  63  29   120 105  72    91  76  44    58  42  11    73  53  26    56  37  11    55  35  11    96  76  55    88  66  45    64  44  24    64  44  29   168 147 133   191 173 158    61  42  29    77  61  46    54  43  23    85  79  57   165 158 139   168 163 144   111 108  92    92  88  76    97  94  85   113 110 103    94  93  88   122 121 116   180 179 175   202 201 197   221 217 214   235 230 227   233 228 225   245 240 237   245 241 238   248 244 241   251 247 246   252 248 247   252 246 246   248 242 243   235 229 231   223 217 221   248 239 244   255 252 255   254 244 252   255 246 254   255 251 255   218 208 217  
