P3
50 50
255
 154 147 129    84  77  59   125 118 100   181 173 154   212 204 183   224 217 198   194 187 168   204 200 180   184 182 162   188 187 169   182 181 163   163 161 143   135 132 113   110 106  86   107 102  82   128 121 102   159 154 137   163 160 146   146 142 130   111 107  96   113 108  98   102  97  89    97  92  86    70  65  61    58  53  48    29  24  18    25  20  13    41  37  28    75  71  61    97  91  79   119 112  94    80  72  53    71  64  47    73  65  52    64  56  45    26  17   9    16   8   4     7   1   1    13   5   4     7   1   1     5   1   1     8   3   3    12   7   7    48  43  41    55  50  47    47  42  38    49  45  42    79  75  74    50  46  47    18  14  15  
 150 143 125   196 189 171   177 170 152   131 123 105    92  85  64    85  79  60   107 103  83   107 104  86    89  88  70    85  84  66   134 133 115   152 150 132   179 176 157   197 192 173   166 161 141   181 174 155   157 150 134   153 148 135   143 139 128   168 164 153   168 164 155   159 155 147   171 166 160   194 189 185   188 183 179   201 196 190   176 173 164   142 138 128   195 191 180   205 200 186   201 194 176   204 196 177   192 185 168   187 180 166   186 177 168   220 211 204   195 186 182   166 158 155   126 118 115    48  40  38    59  54  54   155 149 149   175 170 168   170 165 162   171 166 160   139 134 130   111 106 102   105 101  99    93  90  90    75  71  72  
  50  45  26    67  62  43    74  69  49    76  70  49    60  54  32    76  71  51   105 101  81    99  97  79    93  92  74    79  77  62    68  67  49    55  53  35    37  34  16    73  69  50   150 145 123    61  55  33    52  48  29    77  73  60    59  55  44    82  79  67   108 104  95    62  57  49    87  82  76    85  80  74    50  45  39    63  59  50   145 141 132   172 168 157    79  75  63    64  58  42    63  56  37    75  67  49    65  58  41    55  48  34    40  30  21    68  59  52    68  59  55   107  99  96   152 144 142   208 200 198   166 161 158   118 113 110   116 111 108   100  96  89   138 134 125   149 144 138   147 142 138   149 144 141   154 150 148   196 192 191  
 131 126 107   147 142 123   142 137 117   123 118  96    88  83  61   120 116  96    98  96  77    65  64  46    49  47  31    40  38  23    38  36  21    62  60  42    80  77  57   101  97  75    91  86  62    75  69  45    62  56  36    60  55  41    41  37  25    61  57  46    66  61  53    74  70  62   109 104  98    58  53  47    38  34  25    19  15   5    36  32  21    48  44  33    31  28  15    53  48  32    58  51  32    39  31  11    61  54  37    58  50  36    55  46  37    30  21  15    49  40  38    16   9   8     7   1   1    85  77  76   107 102  99    23  18  15    43  38  33    37  33  23    32  28  17    25  22  13     8   4   3    14   9   6    10   6   4    14  10   9  
 181 178 159   175 172 153   175 173 152   171 169 146   171 169 146   184 182 161   198 196 175   194 193 174   204 204 188   149 150 134   104 104  88   204 202 184   211 208 188   209 205 183   199 195 170   215 209 183   207 201 180   191 186 171   196 192 179   205 201 189   153 149 138   144 140 130    68  64  55    67  63  54   151 147 136   163 159 148   183 180 167   172 169 153   161 158 141   153 148 128   157 151 127   124 116  95    96  89  70    82  75  60    56  47  37    29  20  13    36  27  22    74  66  63    89  81  79    99  91  89    65  60  56    83  78  73    76  72  64    58  52  41    57  51  39    55  51  40    22  18  10    21  16  13    34  28  27    44  39  39  
  80  77  58    82  79  60    93  91  70    74  72  50    96  94  71    39  37  16    53  51  32    71  70  53    91  91  77   165 166 152   210 211 195    92  89  74    60  57  38    65  61  39    69  64  38    69  63  35    65  60  37    52  48  31    61  57  45    92  87  75   126 122 111   199 195 184   207 203 192   184 180 169   135 131 119   115 111  98   110 107  91   117 114  96   120 117  97   146 142 122   166 160 136   177 169 147   176 169 149   204 196 182   206 197 188   185 176 169   127 117 115   191 183 181   185 177 175   170 162 160   174 169 165   198 193 188   221 216 209   205 199 189   206 200 186   188 184 172   175 171 163   135 130 125    92  87  83    41  35  35  
  76  74  54    79  77  56    91  89  68    84  84  61    89  89  65    85  84  63    52  52  32    58  59  42    49  50  35    89  90  76    56  57  43    45  46  29    61  59  40    87  83  61   121 115  90   104  97  69   111 105  81    74  70  52    42  39  23    81  78  63   120 116 104    64  60  48   100  96  84    93  89  77    49  45  33    63  60  45    92  89  72   110 107  87    75  73  52    24  19   4    20  14   3    71  65  39    95  89  67   153 146 130   102  94  82   114 105  98   177 168 164    66  58  55    37  29  27    10   3   2     6   1   1    18  13   6    37  33  23    45  40  27    59  53  38    66  60  48   117 111 102   156 152 145   197 192 188   198 193 190  
 208 207 186   187 186 165   156 154 133   140 140 117    71  71  47    36  35  14    65  65  45   115 116  99   149 150 135   165 166 152   124 124 110   121 118 103   116 112  94    82  77  55    75  69  44    95  88  61    72  66  42    60  56  38    53  50  34    64  61  46    56  52  40    97  92  81   105 101  89    75  71  59    80  77  62    51  48  31    77  74  55    45  43  22    74  72  49   120 116  91   154 148 122   146 139 114   137 131 109   109 102  85    16   9   7    41  32  26    44  35  33    37  29  27    63  55  53    83  74  73    23  18  14    24  20  13    54  50  40    74  69  54    86  80  64    87  81  67    52  46  36    33  28  22    84  79  76   140 135 132  
 109 108  87   116 115  94   132 131 110   168 168 145   196 196 172   173 175 153   166 168 148   169 170 153   139 140 126   118 120 107   143 144 130   182 182 166   198 196 177   200 197 173   172 166 140   209 202 174   218 213 188   184 180 160   120 117  99   153 150 133   220 217 202   193 190 175   195 192 177   200 197 182   216 213 197   210 207 189   211 208 189   188 186 164   195 193 169   196 192 167   207 201 175   135 129 103    98  91  70   158 151 134   174 166 154   205 196 189   152 144 139   150 142 139   144 136 134   136 128 125   148 143 137   117 113 106    84  80  70    60  55  40    52  46  30    50  44  30    97  91  80   134 127 120   140 135 130   120 115 112  
  60  59  38    37  36  15    48  47  26    44  43  22    19  17   2   157 158 138   118 119 101    57  58  41    52  55  38    44  47  30   119 120 104    52  52  36    28  26   9    61  58  34    75  71  44    93  87  62    92  89  65   116 113  95   186 183 166   149 146 131    55  52  37    52  49  34    47  44  28    69  66  49    76  73  54    88  85  65   107 105  84    83  81  57    89  87  62   140 138 113   164 160 135   194 189 165   172 167 146   142 136 119   123 117 103    95  87  78   119 112 104   128 121 114   132 125 119   143 138 130   147 142 132   177 173 161   187 183 171   191 188 174   190 186 171   143 139 127   184 177 168   193 187 182   190 185 182   183 178 175  
  88  92  67   105 109  84    48  51  28    33  35  15    26  27  10    62  63  47    25  26   8    36  37  18    48  50  29    59  61  39   156 158 135    84  86  62    47  48  24    79  79  55   101 101  77    79  79  55    58  56  37    53  53  38    83  84  70    78  79  63    74  75  59    73  74  57    65  66  48    98  99  79    81  83  61   124 126 102   120 123  96    61  64  36    51  54  25    56  56  30    31  29   8    94  91  72   116 113  96    50  47  30    52  49  32    43  40  23    33  29  13    52  50  32    42  41  23    36  34  15    35  34  14    23  22   2    44  43  23    76  74  59   109 107  95   214 210 202   103 100  93    62  58  54    49  45  42    11   8   6  
  78  82  60    32  36  19   116 120  96   146 148 130   165 166 152   177 178 162   153 154 135   156 158 137   162 164 142   125 127 103    92  95  68   110 112  85    94  96  71    58  60  36    24  26   4    86  88  66   100 101  84   115 115 102   106 106  93   107 108  94   103 104  88    79  80  64    77  78  61    60  61  41    51  53  31    51  53  29    40  42  20    32  35  11    47  50  23    34  36  12    52  50  33    88  86  71    50  48  33    46  45  27    49  48  30    30  29   9    28  27   7    37  36  15    28  27   9    38  37  16    76  75  54   101 101  79    62  61  39    49  49  34    31  31  21    53  50  43    45  42  38    24  20  19    24  20  20    28  24  23  
 197 200 179   172 176 153   149 153 131   119 121 102    80  81  65    85  86  68   127 128 109   139 141 119   142 145 121   149 151 127   161 163 139   183 185 161   211 213 190   196 197 176   110 112  91   201 202 182   176 177 160   169 169 156   177 177 164   166 167 153   186 187 172   205 206 190   197 198 181   196 197 179   190 192 171   202 204 183   184 186 163   112 114  90   126 128 104   200 202 180   198 197 177   199 198 180   186 185 167   194 193 175   208 207 188   238 237 219   173 172 154   163 162 143   152 151 131   115 114  94    83  82  62    49  48  28   117 116  97   139 139 125   185 185 174   134 131 124    97  94  88   104 101  97    89  85  84    88  84  83  
  52  55  36   150 152 134    75  78  59    55  57  40    35  36  20    72  73  55    68  70  51    47  49  28    16  18   4    19  21   1    53  55  32    79  81  59    72  74  53    88  91  70   212 213 195    67  68  50    50  51  36    55  56  43    31  31  18    33  34  20    30  31  18     4   5   1    14  15   1    33  34  18    47  48  30    87  88  70   114 115  97   170 172 151   144 146 125    71  73  52    49  48  30    45  44  26    51  50  32    59  58  39    60  58  40    79  78  60    86  84  69    97  95  80   140 137 122   147 145 130   181 179 164   179 177 162   184 182 168   158 157 145   142 142 132   157 154 147   139 136 132   146 142 139   154 150 148   152 148 147  
  31  33  19    34  36  22    28  30  16    29  31  15    29  30  14    77  78  60    62  64  45    52  54  33    63  65  43    91  93  71    84  86  64    96  98  76    73  75  55    52  53  35    44  45  29    32  33  17    56  57  43    58  59  45    49  50  36    43  44  29    42  43  29    32  33  19    31  32  18    35  36  22    85  86  70    51  52  36    44  45  29    84  85  69   100 101  85    65  66  50    67  66  48    68  67  48    72  71  53    72  71  53   115 114  96    51  49  34    26  24  11    39  37  24    16  14   8     9   7   1    51  47  39   147 144 135    95  92  83    65  64  54     7   7   6    10   7   1     5   2   1     5   1   1     4   1   1     8   4   4  
 163 165 154   136 138 127   131 133 121   120 122 108   124 125 109   118 120 101   122 123 104    95  97  76    80  82  60    52  54  32    69  71  49   126 128 107   149 150 133   145 146 130   133 134 119   123 123 111   122 122 110   103 104  90    72  73  59    54  54  41    43  44  30    20  21  11    12  12   5    16  16   3    25  25  13    56  56  44    66  66  54    79  79  67    30  30  17    37  38  24    35  34  15    37  36  17    25  24   6    34  33  15    34  32  17    15  13   2    35  33  21    45  42  32    32  29  20    36  33  26    16  13   8    44  41  36    37  34  29    28  27  20    42  42  33    17  14   8     5   1   1    13   9   6    17  13  11    22  18  17  
 130 131 123   121 122 114   129 130 121   122 123 110   147 148 132   154 156 137   175 177 158   187 189 168   203 205 184   167 169 148   131 132 112   190 192 174   145 146 131   143 143 130   147 147 134   151 151 141   164 164 153   171 173 159   168 170 156   180 182 168   190 192 179   173 176 162   170 172 159    95  97  84   161 163 152   209 211 200   226 228 218   211 212 204   204 205 197   184 186 173   188 189 170   185 187 167   205 206 188   185 186 169   134 136 119   135 136 122    63  63  52    32  32  23   105 104  98   159 158 153   198 197 193   175 174 170   151 150 147   141 141 134   143 143 133   128 125 118   114 111 104    57  54  50    52  48  46    32  29  27  
  29  30  24     7   8   4    17  18  11    24  24  13    12  13   2    44  45  29    50  51  34    24  25  11    52  53  38   139 140 122   170 171 153    44  45  30    56  56  43    19  19   9     4   4   1    19  19  11    21  22  12    15  17   8    13  15   4    14  16   3    37  39  26    70  72  60   112 114 103   190 192 181   119 120 112    78  79  71    54  55  49    38  39  33    49  50  44    54  55  47    61  62  46    59  60  42    73  74  57   110 111  95   128 130 115   143 143 131   186 186 176   178 178 171   168 167 163   128 127 123   114 113 111   110 109 108   114 113 112   123 122 116   125 125 115   134 131 125   185 182 177   188 184 181   189 185 183   189 185 184  
   5   6   1    20  21  16    40  41  35    57  57  47    76  77  61    52  54  37    62  63  47    49  50  33    42  43  25    88  89  72    51  51  36    67  68  54    61  62  49    45  45  34    40  40  32    32  31  25    43  43  33    51  53  40    61  63  50    30  32  19    46  48  35    51  53  42    52  54  43   100 101  92    86  87  81    41  42  36    30  31  25    31  32  27    30  31  26    46  47  41    49  50  37    12  13   1    19  20   4    24  25  10    27  27  15    59  59  47    73  73  64   139 139 132    91  90  86    37  36  32    24  23  22    17  15  16     9   8   7     9   9   2    18  18   8    27  24  18     3   1   1    11   8   6    10   6   5    53  49  48  
 147 148 143    77  78  73    30  31  26    27  27  18    34  34  23    44  45  31    42  43  29    78  79  64    93  94  78   116 117 102    70  70  57    75  75  63    62  62  51    43  43  35    42  41  35    36  34  30    27  27  19    12  14   1    36  38  25    39  41  28    24  26  15    40  42  31    67  69  59    48  49  41    27  28  22    30  31  25    30  31  25    29  30  25    14  14  11    12  12   7    14  14   3    49  50  36    65  66  52    34  34  22    20  20  10    48  48  38    56  56  49    50  50  43    12  11   7     6   5   1     7   6   4     6   5   3    18  17  14    40  39  33    40  40  30    42  39  33    39  36  31    37  33  30    39  35  34     7   4   4  
 173 174 168   219 220 214   231 232 226   187 187 180   132 132 122    84  84  72   195 195 184   219 219 206   202 203 189   210 211 197   218 219 205   201 201 189   191 191 180   186 186 178   189 189 183   191 190 186   175 175 168   146 149 137    92  96  82    77  81  67   191 194 183   197 200 190   181 184 175   195 198 189   187 191 181   192 195 188   185 187 181   188 190 185   179 181 176   164 167 160   160 162 151   107 109  96    61  63  50    56  58  46   152 154 143   164 166 155   173 174 166   155 156 148   151 152 144   165 166 160   124 125 119    89  90  85    91  92  86    85  85  78    67  67  58    23  20  13     3   1   1    11   7   6    32  28  26    63  59  58  
   1   2   1    44  45  37   147 148 140   203 202 196   200 199 194   158 158 150    60  60  50    44  44  33    49  49  37    31  31  19    48  48  36    36  36  25    34  34  24    32  32  24    39  38  33    73  72  68    90  90  83   125 128 116   183 187 173   177 181 167   108 111 101    48  51  40    32  35  26    26  29  20    35  38  29    43  46  39    47  50  43    57  59  53    83  85  80    85  88  81   120 121 113   175 176 168   192 193 185   153 154 146   142 143 135   119 120 112    98  99  91    85  86  78   107 109  99   142 144 133   144 145 137   157 158 150   179 180 172   206 206 197   209 209 199   181 177 171   173 169 165   109 105 102   190 187 185   228 224 223  
  45  47  36    34  36  25    26  27  18    70  70  64   160 159 155   206 205 200   157 157 151    42  42  37    28  28  20    67  67  55    86  86  74    57  57  45    47  47  37    55  55  46    48  48  40    53  52  47    44  45  38    35  38  27    89  92  81   119 122 111    69  72  61    91  94  83    71  74  63    49  52  41    62  65  54    39  42  34    55  58  49    53  56  47    59  62  53    31  33  26    10  12   7    15  16  11    88  89  83   143 144 138    49  50  42    59  60  52    45  47  38    32  34  23     6   9   3     1   2   1     7   9   1    11  13   1    12  14   1    18  18   7    27  27  17    44  41  34   124 121 115   189 186 182    97  93  91    53  49  48  
  27  29  16    20  22   9    14  16   5     8   8   3     5   4   2    52  51  49   140 139 135   169 168 162   117 117 107    58  58  48    38  38  26    38  38  27    22  22  12    33  33  25    46  46  38    56  55  50    34  34  26    28  31  20    57  60  49    29  32  21    19  22  11    30  33  23    27  30  19    19  22  11    24  27  16     2   4   1    20  23  14    26  29  20    38  41  32    35  38  31    28  28  26    19  19  16    49  50  46    45  46  41    22  23  17    58  59  50    58  59  50    39  41  29    35  37  23    49  52  36    64  67  50    66  69  50    77  80  62    65  66  52    60  60  50    29  26  19    47  43  39   105 101  98    79  75  74    65  61  60  
  19  21   7    50  52  38   125 127 113   179 179 172   201 199 200   169 169 166   153 152 147   214 213 207   251 251 242   212 212 202   185 185 175   155 155 145   118 118 108    92  92  82    39  39  29   104 105  97   182 184 175   180 183 172   193 196 185   185 188 176   184 187 177   178 181 170   166 169 158   133 136 125   130 133 122   117 120 109    79  83  69    33  37  23     9  13   1    43  46  37   106 106 104   115 115 115   143 143 142   103 104  99   113 114 108    98  99  91   100 102  91    68  70  56    49  52  36    28  31  12     7  10   1    24  27   6    43  46  24    61  63  47     8   8   6    26  23  16    70  67  61    40  37  34     7   4   3    30  27  25  
 124 126 112   164 165 152   170 172 158   135 135 126   109 108 103    76  76  70    83  83  75    66  66  57    52  52  42    83  83  71   153 153 143   234 234 224   209 209 200   180 180 173   168 168 160   153 152 147   114 116 109   100 103  94    83  86  75    91  94  83   107 111  97   117 121 107   131 135 120   138 142 127   133 137 122   162 166 151   179 184 169   194 197 185   143 146 136   150 153 146   169 169 167   145 145 145   127 127 125   135 136 132   159 160 154   187 188 179   177 179 167   180 182 168   192 195 179   195 198 181   174 177 157   158 161 140    83  86  66    83  85  69   187 188 177   172 172 162   201 198 191   179 176 170   188 185 180   175 172 167  
 194 194 183   113 113 103    41  41  30    21  22   9    13  14   1    26  27   9    40  41  22    41  42  25    54  56  39    87  89  75    34  37  24    53  54  44   145 147 140   182 184 178   176 178 173    38  40  37    11  13   9    33  35  29    26  29  21    15  19   8    24  29  13    20  25   5    30  35  13    38  43  21     4   8   2    27  32  12    15  18   5    39  42  34   162 164 159   110 112 109    42  42  37    17  17  12     5   6   3     4   5   1    13  14   8    10  10   3    16  17   8    23  25  14    18  20   8    52  54  41    74  76  63   136 138 124   181 183 169   184 186 172   120 122 109   117 119 106    72  74  61   103 105  92   122 124 110   140 142 127  
 133 133 121    61  61  51    33  34  22    27  28   9    51  54  30    64  66  44    53  55  34    62  63  44    89  92  75    65  67  53    37  39  28    23  24  17    11  14   8    76  78  75   144 145 143   214 216 216   116 118 117    41  43  39    18  21  15    40  42  32    40  44  29    48  53  32    65  70  46    48  54  28    51  57  33    55  60  40    78  82  68   112 115 108   103 105 103    61  63  62    53  54  49    46  47  41    45  46  40    37  38  32    33  34  28    27  28  20    38  39  31    47  48  40    43  45  35    46  48  37    38  40  29     9  11   3    78  80  73   118 121 108    76  78  64    26  28  14    38  40  25    62  65  48    59  63  44     9  12   4  
  75  76  60    23  24  10    45  46  32    52  53  35    41  43  21    39  41  20    41  42  23    18  19   2    40  42  27    50  52  39     4   6   3    41  43  35    61  63  57    94  96  92    70  72  69   120 122 121   196 198 197   202 204 200   115 118 111    29  32  22    12  16   2    26  30  14    39  44  24    57  62  42    27  32  12    30  34  19    33  37  24    75  77  70    48  50  46     3   4   3     7   8   4     2   3   1     2   3   1     1   1   1     6   7   2    15  16  10    35  36  30    31  32  24    32  33  25    57  57  50    28  30  20    22  24  18    73  75  63    33  35  21    21  23   9    29  32  15    88  91  73    86  89  70    99 102  83    36  39  20  
 216 216 204   213 213 204   225 225 216   215 216 202   206 207 189   195 196 180   181 182 167   196 197 183   170 172 159    78  80  69   123 124 116   221 223 217   202 204 199   169 171 167   171 173 170   152 154 153   164 166 163   187 189 183   217 220 213   215 218 210   209 212 201   165 168 156   135 139 125    90  94  80    39  43  29   155 158 148   208 211 203   196 199 192   182 184 178   173 175 170   144 146 141   143 144 138   141 142 136   130 131 125   104 105  99    64  65  59    50  51  45    15  16  11     1   1   1    31  31  24    60  62  51   100 102  91   105 107  95    76  78  65    76  78  64    65  68  51    85  88  71    80  83  64    45  48  29    27  30  11  
  51  49  48    50  48  52    56  54  57    55  55  48    42  43  30    60  61  47    54  55  41    90  90  79   128 129 119   189 190 182   166 167 159    55  57  51    39  41  36     7   8   6    22  23  21     6   8   5    25  26  23    22  25  19    24  27  20    58  61  54   143 146 139   223 227 220   201 204 196   167 170 161   166 169 162   127 130 123   111 114 108   106 109 102   100 102  96   101 103  98   112 113 108   110 111 106   118 119 114   139 140 134   162 163 157   167 168 162   197 198 192   209 210 202   132 133 125   177 178 170   209 210 202   188 189 180   165 167 155   176 178 165   169 172 155   204 207 188   222 225 206   205 208 187   188 191 170   202 205 184  
  16  15  13    56  54  56    52  50  52    39  38  33    31  31  21    44  44  34    33  33  23    46  46  38    62  62  55   129 130 124   106 107 101    57  59  53    45  47  42    35  37  33    15  17  14    50  52  49    22  24  19    38  41  34    32  34  28    26  28  23    22  24  21    68  70  67   161 163 160   192 194 191   161 163 160    36  38  35    23  25  20    66  69  62    36  39  32    15  18  10    19  20  15    25  26  21    29  30  25    35  36  30    32  33  27    13  14   8    26  27  21    60  61  53   180 181 173   135 136 128    60  61  53    30  31  24     4   6   1    13  15   4    36  39  22    40  43  24    61  65  45    65  68  47    62  65  44   115 118  97  
  19  19   2    20  21   5    33  33  20    34  34  25    46  46  38    38  38  30    14  14   8     9   8   4    42  43  37    94  95  90     3   4   1     8   9   5     1   2   1     9  11   7    16  18  13    16  18  13    30  32  26    25  28  21    38  40  34    47  49  46    65  67  66    32  34  34    17  18  20    76  77  79   168 169 171   213 215 213   121 123 119    41  43  39     8  11   4    45  48  39    64  65  59    58  59  54    50  51  46    56  57  52    58  59  54    42  43  37    43  44  38    41  42  36   113 114 106    66  67  59    85  86  78    28  29  21    43  44  35    63  65  52    83  86  70   113 116  97    93  95  76    40  43  22    51  54  33    76  79  58  
 130 132 112    91  92  75    76  77  63    41  41  32    35  34  29    32  31  27   105 104 100   133 132 128   140 140 136   104 105 100    81  82  77    87  88  83    74  76  71    68  70  65    54  56  51    28  30  25    20  22  16    11  13   7     8  10   7    21  23  21    30  31  33    61  62  64   100 101 105    90  91  95    59  60  62   105 107 106   183 185 181   184 187 180    88  91  80    23  26  17     7   8   2     6   7   2    15  16  11    42  43  38    46  47  42     9   9   4     4   5   1    39  40  35    39  40  33     9  11   2    16  17   9    10  11   3    27  29  19    56  58  45    50  53  36    78  82  64    58  61  42    49  52  32    65  68  47    62  65  44  
 183 183 173   167 167 160   195 194 190   214 213 209   160 160 155   155 154 150   188 187 183   170 169 165   160 160 155   157 158 153   159 160 155   163 164 159   167 169 164   181 183 178   201 203 198   176 177 172   192 195 189   186 189 182   140 142 136    61  63  60   187 189 189   205 206 209   206 207 211   199 200 203   212 213 215   163 165 164   186 188 182   212 215 207   228 231 220   214 217 206   164 165 160   132 132 129   109 109 107    53  54  50    32  33  28   119 120 115   148 149 144   156 157 151   150 151 145   149 150 144   150 151 145   144 145 139   123 125 115    99 101  88    87  90  73    74  78  60    20  23   3    16  19   5    28  31  15    58  61  42  
  10  10   1    12  12   5    27  26  21    35  34  30   165 164 162   144 143 141    25  24  21    35  34  30     6   7   2     8   9   4     7   8   3    11  11   8     5   6   3     5   7   2     2   4   1    39  41  36    15  18  12    50  52  46   142 144 139   213 215 212   108 110 108    51  53  53    38  39  41    13  15  15    21  23  20    38  40  35    42  44  37    52  55  45    24  28  15    78  81  69   202 203 198   245 245 243   202 202 200   169 169 165   177 177 172   170 171 166   142 143 138   116 117 111   118 119 113   135 136 130   148 149 143   159 160 153   169 170 162   164 165 154   197 199 185   220 223 208   205 208 191   196 199 182   130 133 116    45  48  31  
  87  90  63    59  61  39    42  43  26    70  70  60    99  98  93    49  48  44    46  45  41    19  18  14    31  31  26    32  33  28    30  31  26    25  26  21    44  46  41    37  39  34     9  11   6    41  43  38    35  37  32    22  24  19    44  45  40   116 118 113    85  87  84    50  52  49    39  41  36    27  29  23    64  67  60    64  67  58    99 102  92    91  94  82    27  31  17     5   8   1    27  28  23    83  83  81   182 182 180   189 189 187   143 143 141    13  14   9     6   7   2    12  13   8    19  20  15    15  16  10     9  10   4    17  18  12    19  20  13    27  29  19    30  32  19    16  18   5    64  66  52    80  83  67   148 151 134   182 185 168  
  52  55  29    29  30  10    38  39  23    69  70  58    79  78  72    18  17  12    25  24  19    32  31  27    24  24  20    13  14   9     1   2   1    11  12   7    20  22  17    17  18  13    32  33  28     7   9   4    12  14   9    14  16  11    52  54  49    39  41  36     2   5   1    18  21  12     9  11   6     1   2   1    42  46  33    55  59  45   127 131 117    58  62  48    20  24  10    27  30  19    32  33  28    18  18  16    27  27  26   103 103 101   169 169 167   199 200 195    55  56  51     8   9   4    19  20  15    41  42  36    54  55  49    58  59  53    54  55  49    61  62  55    37  39  28    45  47  36    69  71  58    54  56  43    46  48  35   150 152 139  
 106 106  95   217 216 210   207 206 202   201 201 194   186 186 178   217 217 209   220 220 212   220 220 213   201 201 196   179 180 174   162 163 157   152 154 148   104 106 101    55  57  52     4   5   4    96  98  95   153 155 152   162 164 161   173 175 170   165 168 159   122 125 114   112 116 101   108 112  94   100 105  85    84  89  69    78  83  63    68  72  54    21  25   9     4   8   1     1   2   1    15  16  11    40  40  39    48  48  46    59  59  57    49  49  47   151 151 149   201 202 199   144 145 140    43  44  39    10  11   6     7   8   3     4   5   3    30  31  25    35  36  30    39  40  32    32  33  24    34  36  25    40  42  30    81  83  70    19  21   9  
 165 164 160    87  85  87    57  55  59    34  33  30    37  37  28    47  47  37    55  55  46    68  68  60    75  76  69    75  76  70    88  90  83   112 113 107   166 168 163   195 197 192   171 173 168   164 166 164   130 132 129   133 135 133   115 118 113   118 121 113   149 153 138   133 138 118   150 155 133   168 174 149   197 203 177   206 211 188   193 198 177   213 218 199   165 169 153    59  62  52   133 133 131   203 203 203   204 204 202   202 202 199   179 179 177   173 173 171   173 173 170   214 215 210   227 228 223   198 199 194   147 148 142   118 119 113    92  93  87    72  73  67    22  23  17    28  28  22    88  89  81   126 128 118   131 133 122   100 102  91  
 127 127 122    45  43  43    55  53  55    23  22  17    30  30  19    46  46  34    43  43  32    31  31  21    32  33  24    28  30  21     2   3   1     4   5   1     2   4   1    28  30  25   170 172 167    83  85  82    39  41  38    37  39  38    13  15  10    45  48  38    23  27  12     6  10   1    10  16   1    36  43  18    54  62  30    32  38  11    44  49  26    81  85  66   128 132 116   194 197 185   116 117 112    68  68  68    35  35  35     7   7   5    14  14  12    17  17  15    21  21  19    25  26  21    40  41  36   135 136 131   227 228 223   228 229 224   181 182 176   181 183 177   140 141 136   139 139 134   193 194 188   170 171 164   162 163 155   151 152 144  
  23  22  17    18  17  16     7   5   6     1   1   1     8   8   1     3   3   2    32  32  22    50  50  40    74  74  66    77  78  70    31  32  26    25  26  21    15  17  12    53  55  50    75  77  72    52  54  51    49  51  49    31  33  31    44  47  41    87  90  79    61  65  48    96 101  78    65  71  44    99 106  76    70  76  48    60  66  40    64  69  47    74  79  61    67  71  57   141 144 135   103 103 101    66  66  66    50  50  50    49  49  47    36  36  34    13  13  11    19  19  16    15  16  11    17  18  13     2   2   1    20  21  16   121 122 116   186 187 181   154 154 149   139 139 134   136 137 132    83  84  78    69  70  64    28  29  21    30  31  23  
 207 206 201   191 191 186   160 159 155   136 137 128   135 137 126   102 103  92    70  72  61    46  47  38    20  21  13    41  41  34    41  42  36    72  73  67    97  98  93   106 107 104    81  81  79    50  50  48    49  50  47    42  44  38    39  42  33    19  22  11    25  29  15    40  44  26    32  37  17    53  58  38    69  74  54    51  54  38    34  38  23    25  29  15    61  65  53    58  61  54     1   1   1     4   4   6    27  27  27    28  28  27     4   4   2    20  20  18    18  19  16    25  26  21    36  37  32    25  26  21    20  21  16     4   5   3    52  53  48   156 157 152   196 197 194   183 184 179    73  74  69    55  56  50    49  50  42    66  67  59  
  99  99  94   116 115 110   120 119 114   128 128 121   174 176 165   179 181 169   191 193 183   196 197 189   186 187 179    66  67  59   189 190 184   193 194 188   194 195 190   190 191 186   178 178 176   177 177 175   193 195 189   208 211 203   196 200 191   185 188 178   194 198 184   169 173 158   128 132 117    74  78  63    41  46  31    73  77  63   118 121 108   130 133 123   132 135 126   134 137 129   115 115 115   119 119 121   104 104 104    66  66  64    34  34  32    33  33  32     9   9   7     3   4   1     3   5   1    11  12   7    24  25  20    23  24  20     1   1   1    13  14  11    58  59  54   165 166 161   171 172 167   124 125 119    44  46  38     5   6   1  
  25  24  19    39  38  33    47  46  41    23  24  16     5   6   1    16  18  10    10  11   5    40  41  33   101 102  94   204 205 197    85  85  80    57  58  52    36  37  31    17  18  12     5   6   1     8   9   4    11  13   7    32  35  27    62  66  57    51  54  44    97 101  87   129 133 119   165 169 154   213 217 202   174 178 163   169 173 159   178 182 169   148 151 141   144 147 138   154 156 150   178 178 176   197 197 197   196 196 196   189 189 187   200 200 198   223 223 221   203 204 201   172 173 168   146 147 142    85  87  82    46  47  42   140 141 136   201 202 197   231 232 227   197 198 192   186 187 181   227 228 221   250 251 243   220 221 213   201 202 194  
  47  46  41    75  74  69    71  70  65    45  45  38    43  44  36    61  62  54    24  25  17    15  16  10    36  37  30   144 145 137    95  96  90    71  72  66    66  67  61    58  59  53    46  47  41    36  38  31    32  33  27    47  50  43    47  50  43    57  60  51    34  37  26    25  29  15    15  18  10     4   8   1   169 173 159   146 150 136    24  27  17    36  39  31    23  26  19    40  43  37     8   8   6     7   7   7     1   1   1     3   3   1    16  16  13    38  38  36    57  57  54    89  90  85   119 120 115   199 200 195   182 183 178   135 136 131    96  97  91    61  62  56    72  73  66    64  66  58    62  63  55    54  55  47    63  64  56   128 128 121  
  52  51  46    24  23  18    12  11   6    24  24  19    36  37  31    19  20  14    24  25  19     9  10   6    70  71  64    41  42  34     9  10   2    13  14   6    38  39  31    44  45  37    36  37  29    29  30  22    26  27  20    64  67  60    47  50  43    54  57  48    64  67  56    44  48  34    73  77  63    68  72  58   126 129 116   106 110  96    92  95  84    38  41  33    50  52  46    61  63  58    37  37  35    34  34  32    26  26  24    31  31  29    28  28  25    11  13   8    17  18  13    18  19  14    17  18  13    29  31  24   177 178 172    93  94  88    77  78  71    58  59  49    55  57  46    30  32  21    42  44  33    43  45  34    18  19  10    10  11   3  
 212 211 206   212 211 206   189 188 183   101 101  95    51  52  46   201 202 196   210 211 205   218 219 213   214 215 208   205 206 198   161 162 154   161 162 154   156 157 149   120 121 113    73  75  64    52  53  43    42  43  35    21  24  18    15  18  11    26  29  22    32  35  26    20  23  12    32  36  23    82  86  72    31  34  23    56  59  49    47  50  41     7  10   5     5   7   3     1   2   1     5   6   2    10  10   8     6   6   4    25  25  23    43  43  41    27  28  23    38  39  34    43  44  39    36  37  31   106 106 101   118 119 112    75  76  67    69  71  61    72  74  61    46  48  34    46  48  34    53  55  43    33  35  24    32  33  25    26  27  21  
  36  35  30    73  72  67   121 120 115   191 191 186   199 200 195    99 100  95    79  80  75    93  94  88    90  91  83    83  83  75   118 120 109   135 137 126   154 156 145   170 172 161   179 181 169   198 200 187   218 220 211   204 207 201   155 157 151    43  46  40   113 116 107   214 217 206   198 201 190   205 208 197   205 208 197   215 218 207   212 215 207   214 217 210   174 177 171   140 142 137   125 126 121   100 101  96    60  61  56    45  46  41    26  27  22     2   3   2    28  29  24    49  50  45    65  66  60   101 103  96    46  47  39    47  49  38    27  29  17    20  22   8    24  27  10    68  71  54    48  50  38     3   5   1     6   8   1    12  13   6  
  50  49  44    46  45  40    26  25  20    89  89  84   173 174 169    46  47  42    60  61  55    30  31  28     6   7   1    22  23  15    38  40  29    30  32  21    21  23  12    31  33  21    32  34  21    28  30  17    43  45  35    79  82  76   148 151 144   208 211 204   170 172 163    96  99  89    71  74  63    57  60  48   116 119 108   100 103  94   101 104  96   101 104  97   109 111 105   133 135 130   187 187 182   186 187 181   202 203 198   217 218 213   163 164 159    94  95  90   151 152 147   204 205 200   211 212 206   199 200 192   230 232 221   216 218 207   198 200 188   191 194 178   194 197 178   208 211 192   168 170 156   132 134 123   114 115 108    92  93  88  
